<svg width="500" height="500" viewBox="0 0 500 500" fill="none" xmlns="http://www.w3.org/2000/svg">
<path d="M500 382.4H0V382.65H500V382.4Z" fill="#1F2433"/>
<path d="M449.9 398.49H416.78V398.74H449.9V398.49Z" fill="#1F2433"/>
<path d="M273.22 395.36H260.33V395.61H273.22V395.36Z" fill="#1F2433"/>
<path d="M349.67 396.42H322.53V396.67H349.67V396.42Z" fill="#1F2433"/>
<path d="M415.78 389.21H359.67V389.46H415.78V389.21Z" fill="#1F2433"/>
<path d="M78.99 400.78H52.46V401.03H78.99V400.78Z" fill="#1F2433"/>
<path d="M110.89 400.78H87.89V401.03H110.89V400.78Z" fill="#1F2433"/>
<path d="M191.81 395.24H131V395.49H191.81V395.24Z" fill="#1F2433"/>
<path d="M237 337.8H43.91C42.3973 337.797 40.9476 337.195 39.8789 336.124C38.8102 335.054 38.21 333.603 38.21 332.09V60.66C38.2232 59.156 38.8292 57.718 39.8964 56.6582C40.9637 55.5985 42.406 55.0026 43.91 55H237C238.514 55 239.967 55.6016 241.038 56.6724C242.108 57.7433 242.71 59.1956 242.71 60.71V332.09C242.71 333.604 242.108 335.057 241.038 336.128C239.967 337.198 238.514 337.8 237 337.8ZM43.91 55.2C42.4637 55.2026 41.0774 55.7791 40.0557 56.8027C39.0339 57.8264 38.46 59.2136 38.46 60.66V332.09C38.46 333.536 39.0339 334.924 40.0557 335.947C41.0774 336.971 42.4637 337.547 43.91 337.55H237C238.447 337.547 239.835 336.971 240.858 335.948C241.881 334.924 242.457 333.537 242.46 332.09V60.66C242.457 59.2127 241.881 57.8255 240.858 56.8021C239.835 55.7787 238.447 55.2026 237 55.2H43.91Z" fill="#1F2433"/>
<path d="M453.31 337.8H260.21C258.696 337.797 257.246 337.195 256.175 336.125C255.105 335.054 254.503 333.604 254.5 332.09V60.66C254.516 59.1551 255.124 57.7171 256.193 56.6576C257.262 55.5981 258.705 55.0025 260.21 55H453.31C454.812 55.0052 456.252 55.6022 457.317 56.6617C458.382 57.7212 458.987 59.1578 459 60.66V332.09C459 333.601 458.401 335.05 457.335 336.121C456.268 337.191 454.821 337.795 453.31 337.8ZM260.21 55.2C258.763 55.2026 257.375 55.7787 256.352 56.8021C255.329 57.8255 254.753 59.2127 254.75 60.66V332.09C254.753 333.537 255.329 334.924 256.352 335.948C257.375 336.971 258.763 337.547 260.21 337.55H453.31C454.757 337.547 456.145 336.971 457.168 335.948C458.191 334.924 458.767 333.537 458.77 332.09V60.66C458.767 59.2127 458.191 57.8255 457.168 56.8021C456.145 55.7787 454.757 55.2026 453.31 55.2H260.21Z" fill="#1F2433"/>
<path d="M467.06 194.17C470.194 183.337 469.844 171.793 466.06 161.17C470.079 155.417 472.743 148.829 473.853 141.9C474.963 134.971 474.49 127.881 472.47 121.161C470.449 114.441 466.934 108.265 462.187 103.097C457.44 97.9291 451.585 93.9027 445.06 91.3198C443.152 77.5657 437.707 64.5422 429.259 53.5226C420.81 42.5031 409.646 33.8646 396.858 28.452C384.071 23.0393 370.098 21.0378 356.305 22.643C342.513 24.2481 329.373 29.4052 318.17 37.6098C312.539 31.6968 305.271 27.5996 297.297 25.8434C289.323 24.0872 281.006 24.7518 273.413 27.7522C265.819 30.7526 259.294 35.952 254.673 42.6843C250.053 49.4165 247.548 57.375 247.48 65.5398C236.929 67.6563 227.111 72.4867 218.996 79.5545C210.881 86.6223 204.748 95.6835 201.202 105.844C197.657 116.005 196.821 126.915 198.778 137.497C200.735 148.079 205.416 157.968 212.36 166.19C208.963 172.315 206.991 179.126 206.59 186.118C206.189 193.11 207.37 200.103 210.044 206.576C212.719 213.048 216.818 218.835 222.037 223.505C227.256 228.175 233.461 231.609 240.19 233.55C248.046 235.826 256.363 235.984 264.3 234.01C275.056 248.833 291.061 258.996 309.052 262.426C327.043 265.856 345.664 262.295 361.12 252.47C368.65 269.96 374.83 296.2 361.52 321.93C409.87 317.19 444.78 270.82 437.66 228.33C444.732 225.089 451.02 220.359 456.094 214.464C461.168 208.568 464.909 201.645 467.06 194.17Z" fill="#1F2433"/>
<path d="M374.32 312.33C374.188 312.331 374.058 312.305 373.936 312.256C373.814 312.206 373.703 312.132 373.61 312.04C373.481 311.912 373.39 311.751 373.346 311.574C373.302 311.398 373.307 311.213 373.36 311.04C380.17 287.32 373.96 264.58 367.56 249.68L364.31 242.13L357.37 246.54C343.425 255.408 326.622 258.624 310.388 255.532C294.154 252.44 279.709 243.273 270 229.9L267.22 226.07L262.64 227.21C255.157 229.072 247.293 228.707 240.015 226.159C232.736 223.611 226.361 218.992 221.674 212.869C216.986 206.746 214.19 199.386 213.63 191.695C213.07 184.005 214.769 176.318 218.52 169.58L220.85 165.36L217.74 161.68C211.579 154.39 207.424 145.62 205.685 136.235C203.947 126.85 204.685 117.174 207.826 108.161C210.968 99.1476 216.405 91.1092 223.6 84.8381C230.796 78.5671 239.502 74.28 248.86 72.3998L254.42 71.2798L254.48 65.6198C254.531 58.8455 256.605 52.2409 260.436 46.6532C264.266 41.0655 269.678 36.7495 275.978 34.2587C282.278 31.7679 289.179 31.216 295.795 32.6736C302.41 34.1313 308.44 37.5321 313.11 42.4398L317.35 46.8798L322.35 43.2598C332.573 35.761 344.568 31.0449 357.161 29.5729C369.753 28.1009 382.512 29.9235 394.189 34.8624C405.866 39.8013 416.061 47.6872 423.775 57.7484C431.49 67.8095 436.46 79.7013 438.2 92.2598L438.77 96.2598L442.56 97.7598C448.102 99.9537 453.075 103.374 457.106 107.765C461.138 112.155 464.122 117.402 465.836 123.111C467.55 128.82 467.948 134.843 467.001 140.727C466.055 146.612 463.788 152.206 460.37 157.09L458.31 160.04L459.52 163.44C463.459 174.532 463.1 186.697 458.513 197.537C453.926 208.377 445.444 217.105 434.74 222L429.87 224.24L430.76 229.52C433.76 247.65 428.33 267.45 415.76 283.85C405.381 297.447 390.967 307.413 374.58 312.32C374.494 312.336 374.407 312.339 374.32 312.33ZM364.77 239.68C364.866 239.666 364.964 239.666 365.06 239.68C365.198 239.723 365.324 239.795 365.431 239.892C365.538 239.989 365.623 240.107 365.68 240.24L369.39 248.86C375.77 263.69 381.94 286.15 375.76 309.79C391.038 304.822 404.442 295.32 414.19 282.55C426.41 266.55 431.73 247.35 428.79 229.77L427.79 223.77C427.752 223.553 427.786 223.33 427.887 223.135C427.988 222.94 428.151 222.783 428.35 222.69L433.91 220.14C444.139 215.451 452.243 207.103 456.628 196.739C461.012 186.376 461.359 174.746 457.6 164.14L456.22 160.26C456.167 160.109 456.152 159.947 456.174 159.789C456.197 159.631 456.257 159.48 456.35 159.35L458.7 155.97C461.946 151.335 464.099 146.025 464.999 140.439C465.899 134.852 465.522 129.135 463.895 123.715C462.269 118.296 459.436 113.315 455.609 109.147C451.783 104.979 447.061 101.732 441.8 99.6498L437.46 97.9298C437.296 97.8645 437.153 97.757 437.044 97.6183C436.935 97.4795 436.864 97.3145 436.84 97.1398L436.19 92.5298C434.504 80.3091 429.673 68.7359 422.169 58.9441C414.665 49.1524 404.746 41.4781 393.384 36.6731C382.022 31.8681 369.606 30.0973 357.354 31.5342C345.101 32.9711 333.432 37.5664 323.49 44.8698L317.82 48.9998C317.625 49.1429 317.385 49.2105 317.144 49.1903C316.904 49.1701 316.678 49.0633 316.51 48.8898L311.66 43.8198C308.665 40.6957 305.07 38.2085 301.09 36.5074C297.11 34.8062 292.828 33.9261 288.5 33.9198C280.063 33.9194 271.967 37.251 265.974 43.1896C259.982 49.1282 256.576 57.1932 256.5 65.6298L256.43 72.1098C256.435 72.3437 256.357 72.5719 256.211 72.7547C256.065 72.9374 255.859 73.063 255.63 73.1098L249.28 74.3898C240.267 76.2024 231.882 80.3321 224.951 86.3721C218.02 92.412 212.782 100.154 209.754 108.834C206.726 117.515 206.012 126.834 207.682 135.875C209.353 144.915 213.35 153.365 219.28 160.39L222.83 164.6C222.961 164.755 223.041 164.946 223.061 165.148C223.081 165.349 223.038 165.552 222.94 165.73L220.28 170.55C218.906 173.024 217.812 175.643 217.02 178.36C215.191 184.7 215.062 191.409 216.648 197.814C218.234 204.22 221.477 210.094 226.053 214.849C230.629 219.603 236.376 223.069 242.715 224.898C249.055 226.727 255.765 226.856 262.17 225.27L267.41 223.97C267.603 223.922 267.806 223.932 267.993 224C268.18 224.067 268.343 224.189 268.46 224.35L271.63 228.72C281.03 241.703 295.034 250.605 310.78 253.607C326.525 256.609 342.822 253.484 356.34 244.87L364.27 239.87C364.416 239.762 364.589 239.697 364.77 239.68Z" fill="#262D40"/>
<path d="M304.19 146.19L277.39 142L277.8 139.32C278.269 135.537 279.378 131.861 281.08 128.45C282.573 125.75 284.553 123.349 286.92 121.37C289.327 119.37 294.567 115.95 302.64 111.11C306.93 108.59 309.28 106.05 309.64 103.46C309.877 102.36 309.879 101.222 309.647 100.121C309.414 99.0197 308.952 97.9801 308.29 97.0698C306.99 95.3998 304.78 94.3198 301.68 93.8398C300.153 93.5499 298.582 93.5779 297.067 93.922C295.551 94.2661 294.122 94.919 292.87 95.8398C290.337 97.7132 288.337 101.353 286.87 106.76L260.03 99.1098C262.537 89.1965 267.457 81.6665 274.79 76.5198C282.123 71.3732 292.37 69.8265 305.53 71.8798C315.783 73.4732 323.727 76.8998 329.36 82.1598C337.013 89.2798 340.09 97.6598 338.59 107.3C337.918 111.363 336.152 115.166 333.48 118.3C330.693 121.673 325.47 125.507 317.81 129.8C312.477 132.833 309.01 135.39 307.41 137.47C305.621 140.06 304.514 143.059 304.19 146.19ZM275.36 149L304.07 153.47L300.13 178.79L271.42 174.32L275.36 149Z" fill="#262D40"/>
<path d="M372.59 185.42L357.71 173.42L358.92 171.93C360.548 169.79 362.526 167.94 364.77 166.46C366.639 165.346 368.696 164.583 370.84 164.21C375.234 163.698 379.656 163.467 384.08 163.52C387.587 163.52 389.92 162.797 391.08 161.35C391.619 160.765 392.027 160.072 392.275 159.316C392.524 158.561 392.607 157.76 392.52 156.97C392.147 155.212 391.112 153.666 389.63 152.65C388.8 151.933 387.83 151.396 386.782 151.072C385.734 150.748 384.63 150.646 383.54 150.77C381.327 151.01 378.817 152.52 376.01 155.3L362.34 141.11C367.38 135.95 373.047 133.1 379.34 132.56C385.633 132.02 392.44 134.71 399.76 140.63C405.453 145.237 409.083 150.147 410.65 155.36C412.797 162.42 411.707 168.623 407.38 173.97C405.539 176.222 403.119 177.93 400.38 178.91C397.48 179.97 392.933 180.457 386.74 180.37C382.41 180.37 379.39 180.65 377.67 181.37C375.67 182.283 373.925 183.674 372.59 185.42ZM354 176.91L369.94 189.82L358.55 203.88L342.61 191L354 176.91Z" fill="#262D40"/>
<path d="M376.75 98.8L370.31 90L371.19 89.35C372.395 88.4141 373.747 87.6843 375.19 87.19C376.381 86.8469 377.626 86.7282 378.86 86.84C381.351 87.1896 383.817 87.7041 386.24 88.38C388.18 88.88 389.57 88.82 390.42 88.2C390.8 87.9547 391.124 87.6319 391.37 87.2528C391.616 86.8737 391.78 86.4467 391.85 86C391.889 84.9729 391.531 83.9702 390.85 83.2C390.495 82.6866 390.039 82.2514 389.509 81.9211C388.979 81.5909 388.387 81.3727 387.77 81.28C386.52 81.1 384.92 81.56 382.97 82.68L377.5 72.89C380.639 70.859 384.418 70.0611 388.11 70.65C391.657 71.27 395.013 73.7367 398.18 78.05C400.64 81.4233 401.927 84.6533 402.04 87.74C402.2 89.6212 401.868 91.5115 401.077 93.2259C400.287 94.9403 399.064 96.42 397.53 97.52C396.201 98.4855 394.636 99.073 393 99.22C390.379 99.2717 387.768 98.876 385.28 98.05C383.627 97.4867 381.886 97.2226 380.14 97.27C378.901 97.4914 377.736 98.0171 376.75 98.8ZM367.75 91.42L374.65 100.84L366.34 106.92L359.44 97.51L367.75 91.42Z" fill="#262D40"/>
<path d="M128.34 223.57C119.887 223.555 111.595 221.258 104.34 216.92C94.19 210.92 87.02 201.5 84.58 191.13C77.5035 190.637 70.8518 187.573 65.8784 182.514C60.905 177.456 57.9534 170.754 57.58 163.67C55.4497 162.192 53.5664 160.386 52 158.32C48.1951 153.472 46.3152 147.389 46.7213 141.239C47.1273 135.089 49.7907 129.306 54.2 125C52.5268 117.89 52.703 110.469 54.7119 103.446C56.7207 96.4229 60.4952 90.0316 65.6754 84.8815C70.8556 79.7314 77.2688 75.9942 84.3034 74.0263C91.338 72.0584 98.7594 71.9254 105.86 73.64C107.409 70.1016 109.852 67.0273 112.95 64.7191C116.047 62.4109 119.691 60.9484 123.525 60.4753C127.358 60.0021 131.249 60.5347 134.814 62.0205C138.38 63.5064 141.497 65.8944 143.86 68.95C144.957 70.3683 145.88 71.9125 146.61 73.55C152.201 72.6312 157.934 73.1604 163.263 75.0871C168.591 77.0138 173.337 80.2737 177.048 84.5558C180.758 88.838 183.31 93.9995 184.458 99.5479C185.607 105.096 185.315 110.847 183.61 116.25C187.271 119.368 189.961 123.471 191.363 128.071C192.764 132.672 192.818 137.577 191.517 142.207C190.216 146.837 187.616 150.997 184.024 154.195C180.432 157.393 175.999 159.494 171.25 160.25C169.108 168.356 164.348 175.527 157.71 180.65C153.532 183.893 148.731 186.24 143.605 187.545C138.479 188.849 133.14 189.082 127.92 188.23C127.82 197.94 130.07 211.11 140.92 220.53C141.025 220.624 141.103 220.743 141.147 220.876C141.191 221.01 141.199 221.152 141.17 221.29C141.14 221.428 141.073 221.555 140.976 221.657C140.879 221.759 140.756 221.833 140.62 221.87C136.627 223.012 132.493 223.584 128.34 223.57ZM95.73 74C89.4893 74.019 83.3345 75.4548 77.7296 78.1991C72.1246 80.9434 67.216 84.9246 63.3739 89.8423C59.5318 94.7601 56.8564 100.486 55.5496 106.588C54.2428 112.691 54.3387 119.01 55.83 125.07C55.8643 125.206 55.861 125.348 55.8205 125.482C55.78 125.616 55.7038 125.736 55.6 125.83C51.3298 129.837 48.7143 135.298 48.2683 141.137C47.8222 146.976 49.578 152.771 53.19 157.38C54.7784 159.421 56.6904 161.187 58.85 162.61C58.9547 162.678 59.0418 162.769 59.1044 162.877C59.167 162.985 59.2031 163.106 59.21 163.23C59.481 170.089 62.3086 176.599 67.1367 181.479C71.9648 186.359 78.444 189.256 85.3 189.6C85.4715 189.61 85.6351 189.676 85.7653 189.788C85.8955 189.9 85.985 190.052 86.02 190.22C88.23 200.39 95.22 209.63 105.18 215.57C115.272 221.656 127.361 223.504 138.81 220.71C128.08 210.71 126.08 197.05 126.34 187.25C126.344 187.136 126.372 187.025 126.423 186.923C126.474 186.822 126.545 186.732 126.633 186.66C126.721 186.588 126.824 186.536 126.933 186.506C127.043 186.477 127.158 186.471 127.27 186.49C136.489 188.233 146.025 186.394 153.934 181.347C161.843 176.3 167.528 168.425 169.83 159.33C169.865 159.177 169.947 159.039 170.063 158.933C170.179 158.828 170.324 158.76 170.48 158.74C175.029 158.111 179.295 156.169 182.756 153.15C186.216 150.132 188.721 146.169 189.962 141.748C191.203 137.327 191.127 132.64 189.743 128.262C188.359 123.883 185.727 120.004 182.17 117.1C182.047 117 181.957 116.866 181.913 116.714C181.868 116.562 181.871 116.4 181.92 116.25C183.66 111.039 184.01 105.464 182.937 100.076C181.864 94.6877 179.404 89.6726 175.8 85.5257C172.197 81.3788 167.574 78.2434 162.388 76.4291C157.202 74.6147 151.633 74.1842 146.23 75.18C146.053 75.2142 145.87 75.1861 145.711 75.1004C145.552 75.0148 145.428 74.8768 145.36 74.71C143.794 70.9101 141.131 67.6629 137.712 65.3824C134.292 63.1019 130.271 61.8914 126.161 61.9054C122.051 61.9193 118.039 63.1571 114.635 65.4607C111.231 67.7644 108.591 71.0296 107.05 74.84C106.977 75.0144 106.844 75.1573 106.676 75.2434C106.508 75.3294 106.314 75.353 106.13 75.31C102.732 74.4379 99.238 73.9978 95.73 74Z" fill="#262D40"/>
<path d="M100.59 140L86.78 143.25L86.46 141.87C85.9372 139.943 85.7511 137.94 85.91 135.95C86.0996 134.351 86.5845 132.801 87.34 131.38C89.0309 128.572 90.9015 125.876 92.94 123.31C94.53 121.24 95.17 119.55 94.85 118.22C94.7518 117.639 94.5306 117.086 94.2011 116.598C93.8717 116.11 93.4417 115.698 92.94 115.39C91.743 114.807 90.3668 114.71 89.1 115.12C88.3032 115.281 87.5483 115.605 86.8824 116.071C86.2165 116.538 85.654 117.136 85.23 117.83C84.37 119.24 84.12 121.39 84.47 124.3L70 125.84C69.1545 121.056 70.1015 116.129 72.66 112C75.2 108.06 79.8667 105.293 86.66 103.7C91.94 102.453 96.4633 102.55 100.23 103.99C105.337 105.93 108.477 109.386 109.65 114.36C110.138 116.467 110.034 118.668 109.35 120.72C108.683 122.9 106.907 125.786 104.02 129.38C102.02 131.9 100.843 133.82 100.49 135.14C100.116 136.743 100.15 138.414 100.59 140ZM87.17 147L101.97 143.52L105 156.56L90.25 160L87.17 147Z" fill="#262D40"/>
<path d="M135.75 110.79L126.17 107.87L126.46 106.87C126.827 105.509 127.422 104.221 128.22 103.06C128.903 102.15 129.751 101.377 130.72 100.78C132.748 99.6802 134.846 98.7148 137 97.8897C138.7 97.223 139.7 96.413 140 95.4597C140.147 95.0698 140.208 94.653 140.181 94.2373C140.153 93.8217 140.037 93.4167 139.84 93.0497C139.313 92.271 138.508 91.7235 137.59 91.5197C137.046 91.3383 136.471 91.2705 135.9 91.3204C135.329 91.3703 134.774 91.5368 134.27 91.8097C132.971 92.7005 132.002 93.9935 131.51 95.4897L122.09 91.2997C123.28 88.0806 125.616 85.4137 128.65 83.8097C131.597 82.2963 135.423 82.2597 140.13 83.6997C143.301 84.4976 146.154 86.2415 148.31 88.6997C149.469 89.9887 150.271 91.5584 150.635 93.2529C151 94.9474 150.916 96.7079 150.39 98.3597C149.938 99.8192 149.094 101.127 147.95 102.14C146.045 103.62 143.906 104.769 141.62 105.54C140.099 106.043 138.678 106.808 137.42 107.8C136.624 108.643 136.051 109.67 135.75 110.79ZM125.07 110.32L135.33 113.44L132.58 122.5L122.31 119.38L125.07 110.32Z" fill="#262D40"/>
<path d="M250 427.56C357.082 427.56 443.89 422.492 443.89 416.24C443.89 409.988 357.082 404.92 250 404.92C142.918 404.92 56.11 409.988 56.11 416.24C56.11 422.492 142.918 427.56 250 427.56Z" fill="#1F2433"/>
<path d="M157.61 247.44L156.69 247.05C157.413 245.462 157.902 243.778 158.14 242.05L159.14 242.16C158.889 243.985 158.374 245.764 157.61 247.44ZM157.22 236C156.29 233.922 154.843 232.117 153.017 230.757C151.191 229.396 149.047 228.527 146.79 228.23L146.95 227.23C149.371 227.552 151.67 228.488 153.627 229.95C155.584 231.412 157.134 233.35 158.13 235.58L157.22 236Z" fill="#004FFF"/>
<path d="M152 257.5L142.14 262L141.7 261C141.026 259.641 140.589 258.177 140.41 256.67C140.315 255.443 140.447 254.209 140.8 253.03C141.654 250.682 142.656 248.391 143.8 246.17C144.68 244.39 144.903 243.027 144.47 242.08C144.309 241.661 144.061 241.281 143.742 240.966C143.423 240.65 143.041 240.406 142.62 240.25C141.638 240.001 140.598 240.133 139.71 240.62C139.139 240.863 138.624 241.22 138.196 241.668C137.768 242.117 137.436 242.649 137.22 243.23C136.787 244.397 136.92 246.043 137.62 248.17L127 251.49C125.672 248.03 125.672 244.2 127 240.74C128.333 237.407 131.407 234.65 136.22 232.47C139.98 230.75 143.38 230.16 146.41 230.67C148.267 230.894 150.033 231.598 151.535 232.711C153.038 233.824 154.225 235.309 154.98 237.02C155.655 238.524 155.904 240.184 155.7 241.82C155.217 244.375 154.304 246.83 153 249.08C152.123 250.571 151.52 252.207 151.22 253.91C151.178 255.153 151.446 256.387 152 257.5ZM143 264.74L153.54 260L157.77 269.29L147.23 274L143 264.74Z" fill="#004FFF"/>
<path d="M127.64 279.73L122.64 286.53L122 286C121.025 285.324 120.17 284.489 119.47 283.53C118.939 282.731 118.562 281.838 118.36 280.9C118.037 278.979 117.847 277.037 117.79 275.09C117.71 273.54 117.34 272.53 116.69 272.09C116.417 271.858 116.096 271.689 115.751 271.594C115.405 271.499 115.043 271.481 114.69 271.54C113.925 271.74 113.266 272.227 112.85 272.9C112.552 273.281 112.336 273.719 112.213 274.187C112.091 274.654 112.066 275.142 112.14 275.62C112.487 276.899 113.242 278.029 114.29 278.84L108.29 285.15C106.068 283.297 104.605 280.692 104.18 277.83C103.813 275.07 104.86 272.02 107.32 268.68C108.846 266.391 111.028 264.617 113.58 263.59C114.93 263.032 116.402 262.837 117.851 263.023C119.3 263.209 120.675 263.77 121.84 264.65C122.875 265.417 123.677 266.456 124.16 267.65C124.802 269.584 125.113 271.612 125.08 273.65C125.046 275.01 125.256 276.365 125.7 277.65C126.163 278.495 126.83 279.21 127.64 279.73ZM124.27 288.09L129.63 280.81L136.05 285.54L130.69 292.82L124.27 288.09Z" fill="#004FFF"/>
<path d="M234.09 412.64C233.265 412.641 232.455 412.415 231.749 411.986C231.044 411.557 230.47 410.943 230.09 410.21C226.09 402.45 221.02 393.34 211.94 383.48C211.417 382.914 211.05 382.222 210.875 381.472C210.699 380.722 210.722 379.939 210.94 379.2C214.31 367.49 219.61 351.48 219.66 351.32C219.829 350.742 220.114 350.203 220.495 349.737C220.877 349.27 221.349 348.886 221.883 348.606C222.417 348.326 223.002 348.156 223.602 348.107C224.203 348.058 224.808 348.13 225.38 348.319C225.952 348.509 226.48 348.811 226.933 349.209C227.386 349.607 227.754 350.092 228.015 350.635C228.277 351.179 228.426 351.769 228.454 352.371C228.482 352.973 228.389 353.575 228.18 354.14C228.13 354.29 223.56 368.08 220.25 379.29C227.306 387.429 233.295 396.435 238.07 406.09C238.421 406.776 238.59 407.54 238.561 408.309C238.532 409.079 238.306 409.828 237.905 410.485C237.503 411.143 236.94 411.686 236.268 412.063C235.597 412.44 234.84 412.639 234.07 412.64H234.09Z" fill="#004FFF"/>
<path d="M241.56 416.24H206.77L225.21 405.78L240.66 406.38L241.56 416.24Z" fill="#1F2433"/>
<path d="M238.239 374.093C254.074 369.143 263.584 354.489 259.481 341.364C255.378 328.238 239.215 321.611 223.38 326.561C207.545 331.511 198.034 346.165 202.138 359.29C206.241 372.416 222.404 379.043 238.239 374.093Z" fill="#1F2433"/>
<path d="M151.65 334C150.615 333.996 149.612 333.634 148.813 332.976C148.014 332.318 147.467 331.403 147.264 330.388C147.062 329.372 147.217 328.318 147.703 327.404C148.188 326.489 148.975 325.771 149.93 325.37C150.707 325.045 151.39 324.529 151.914 323.87C152.438 323.211 152.788 322.43 152.93 321.6C153.02 320.624 153.427 319.704 154.09 318.981C154.753 318.259 155.635 317.773 156.6 317.6C157.714 317.373 158.815 317.089 159.9 316.75C165.98 314.98 173.51 312.75 197.21 319.41C220.59 306.34 220.86 281.82 220.86 280.76C220.86 279.572 221.33 278.432 222.167 277.589C223.005 276.746 224.142 276.268 225.33 276.26C226.514 276.26 227.65 276.728 228.491 277.561C229.332 278.395 229.809 279.526 229.82 280.71C229.82 282.02 229.68 312.8 199.82 328.21C198.802 328.738 197.62 328.853 196.52 328.53C173.92 322.01 167.52 323.87 162.45 325.36L161.07 325.76C160.403 327.527 159.381 329.139 158.067 330.496C156.753 331.853 155.175 332.927 153.43 333.65C152.866 333.886 152.261 334.005 151.65 334Z" fill="#1F2433"/>
<path d="M204.08 301.89C195.57 268.07 172.9 180.83 245.55 175.5C310.73 170.71 328.61 257.5 332.96 287.5C335.138 302.68 336.32 317.986 336.5 333.32C336.583 341.077 333.955 348.619 329.069 354.644C324.183 360.669 317.347 364.799 309.74 366.32C274.23 373.54 240.63 374.56 217.99 365.63C215.016 364.43 212.511 362.301 210.847 359.559C209.184 356.818 208.451 353.612 208.76 350.42C209.63 340.74 209.65 324 204.08 301.89Z" fill="#004FFF"/>
<path opacity="0.1" d="M333 287.52C328.9 259.2 312.78 180.52 256.34 175.52C253.12 175.194 249.876 175.828 247.017 177.342C244.157 178.857 241.809 181.184 240.27 184.03C237.75 188.91 237.83 194.82 241.6 200.67C254 220 283.67 286.67 279.19 323C277.19 339.53 266.78 352.73 275.8 371.31C287.202 370.312 298.535 368.642 309.74 366.31C317.347 364.789 324.183 360.659 329.069 354.634C333.955 348.609 336.583 341.067 336.5 333.31C336.332 317.987 335.163 302.691 333 287.52Z" fill="black"/>
<path d="M323.24 333.79C323.122 333.79 323.009 333.744 322.925 333.662C322.841 333.58 322.793 333.468 322.79 333.35C322.62 318.036 321.441 302.749 319.26 287.59C308.46 212.93 279.39 175.18 235.16 178.44C235.101 178.444 235.042 178.437 234.985 178.418C234.929 178.399 234.877 178.369 234.833 178.33C234.788 178.291 234.752 178.243 234.725 178.19C234.699 178.137 234.684 178.079 234.68 178.02C234.674 177.901 234.715 177.785 234.793 177.696C234.872 177.606 234.982 177.55 235.1 177.54C279.85 174.24 309.27 212.26 320.1 287.46C322.279 302.66 323.462 317.986 323.64 333.34C323.64 333.46 323.593 333.574 323.508 333.658C323.424 333.743 323.309 333.79 323.19 333.79H323.24Z" fill="#1F2433"/>
<path d="M322.561 376.475C338.396 371.525 347.906 356.872 343.803 343.746C339.7 330.621 323.537 323.993 307.702 328.944C291.867 333.894 282.357 348.547 286.46 361.673C290.563 374.798 306.726 381.425 322.561 376.475Z" fill="#262D40"/>
<path d="M325.3 412.64C324.474 412.642 323.664 412.416 322.958 411.987C322.253 411.559 321.679 410.944 321.3 410.21C317.3 402.45 312.23 393.34 303.14 383.48C302.621 382.912 302.257 382.22 302.082 381.47C301.907 380.721 301.927 379.939 302.14 379.2C305.52 367.49 310.81 351.48 310.87 351.32C311.055 350.761 311.349 350.244 311.733 349.799C312.118 349.354 312.587 348.989 313.113 348.724C313.639 348.46 314.212 348.302 314.799 348.259C315.386 348.217 315.976 348.29 316.535 348.475C317.094 348.66 317.611 348.954 318.056 349.339C318.501 349.723 318.867 350.192 319.131 350.718C319.395 351.244 319.553 351.817 319.596 352.404C319.638 352.992 319.565 353.581 319.38 354.14C319.33 354.29 314.77 368.08 311.46 379.29C318.517 387.426 324.502 396.433 329.27 406.09C329.621 406.776 329.79 407.54 329.761 408.309C329.732 409.079 329.506 409.828 329.105 410.485C328.703 411.143 328.14 411.686 327.468 412.063C326.797 412.44 326.04 412.639 325.27 412.64H325.3Z" fill="#004FFF"/>
<path d="M315.88 275.91C314.877 275.911 313.903 275.575 313.112 274.958C312.322 274.34 311.761 273.475 311.52 272.502C311.278 271.528 311.369 270.502 311.779 269.586C312.189 268.671 312.893 267.919 313.78 267.45C314.64 266.99 334.17 256.32 339.65 230.68C326.65 225.24 303.23 212.95 298.11 206.77C297.606 206.173 297.262 205.457 297.11 204.69C296.519 200.997 296.862 197.216 298.11 193.69L295.75 189.13C295.204 188.069 295.101 186.835 295.465 185.698C295.829 184.562 296.629 183.616 297.69 183.07C298.751 182.524 299.985 182.421 301.122 182.785C302.258 183.149 303.204 183.949 303.75 185.01L307.14 191.57C307.505 192.257 307.684 193.027 307.659 193.804C307.635 194.581 307.407 195.338 307 196C306.085 197.828 305.697 199.874 305.88 201.91C311.65 207.12 334.88 219.45 346.31 223.68C347.279 224.039 348.094 224.722 348.617 225.613C349.14 226.504 349.339 227.549 349.18 228.57C344.11 261.34 319.04 274.84 317.98 275.4C317.332 275.739 316.611 275.914 315.88 275.91Z" fill="#262D40"/>
<path d="M301.57 206.15C301.167 206.148 300.771 206.038 300.425 205.83C300.079 205.623 299.794 205.327 299.602 204.972C299.41 204.617 299.317 204.217 299.332 203.814C299.348 203.411 299.471 203.019 299.69 202.68C299.85 202.44 303.55 196.85 309.19 195.34C309.474 195.264 309.771 195.244 310.063 195.283C310.354 195.321 310.636 195.417 310.891 195.564C311.146 195.711 311.369 195.907 311.548 196.141C311.727 196.374 311.859 196.641 311.935 196.925C312.011 197.209 312.031 197.506 311.992 197.798C311.954 198.089 311.858 198.371 311.711 198.626C311.564 198.881 311.368 199.104 311.134 199.283C310.901 199.462 310.634 199.594 310.35 199.67C306.42 200.73 303.47 205.09 303.45 205.13C303.247 205.443 302.968 205.701 302.64 205.879C302.311 206.057 301.944 206.15 301.57 206.15Z" fill="#1F2433"/>
<path d="M332.77 416.24H297.98L316.42 405.78L331.87 406.38L332.77 416.24Z" fill="#1F2433"/>
<path d="M259.917 282.254C273.077 281.089 282.894 270.542 281.845 258.698C280.797 246.854 269.279 238.196 256.12 239.361C242.96 240.527 233.143 251.073 234.192 262.917C235.241 274.762 246.758 283.419 259.917 282.254Z" fill="#F2F4F7"/>
<path d="M255.448 274.447C258.938 273.453 260.3 267.497 258.49 261.144C256.68 254.792 252.384 250.448 248.895 251.442C245.405 252.436 244.043 258.392 245.853 264.744C247.662 271.097 251.958 275.441 255.448 274.447Z" fill="#1F2433"/>
<path d="M230.8 264.86C245.9 262.92 275.8 254.39 280.73 250.95C276.85 239.59 258.73 229.87 242.61 235.35C228 240.28 230.8 264.86 230.8 264.86Z" fill="#1F2433"/>
<path d="M233.73 272.16C252.48 268.6 276.85 262.62 283.82 258.79C283.39 271.01 279.82 283.4 260.7 287.59C245.06 291 233.73 272.16 233.73 272.16Z" fill="#1F2433"/>
<path d="M218.285 283.906C225.065 279.421 225.959 268.828 220.282 260.247C214.604 251.666 204.505 248.346 197.725 252.832C190.946 257.318 190.052 267.911 195.729 276.492C201.407 285.073 211.505 288.392 218.285 283.906Z" fill="#F2F4F7"/>
<path d="M208.34 268.68C209.47 274.04 208.49 278.51 206.14 278.68C203.79 278.85 200.97 274.62 199.83 269.26C198.69 263.9 199.68 259.44 202.02 259.26C204.36 259.08 207.2 263.32 208.34 268.68Z" fill="#1F2433"/>
<path d="M189.75 266.63C199.88 267.82 220 266.49 223.34 264.63C220.87 255 208.89 244 198 245.4C188.18 246.66 189.75 266.63 189.75 266.63Z" fill="#1F2433"/>
<path d="M191.63 272.94C204.22 273.51 220.63 273.19 225.31 271.42C224.88 281.03 222.36 290.19 209.5 290.04C199 289.92 191.63 272.94 191.63 272.94Z" fill="#1F2433"/>
<path d="M264.09 229.3C252.647 229.363 241.456 225.945 232 219.5C231.052 218.783 230.428 217.718 230.264 216.541C230.101 215.363 230.413 214.169 231.13 213.22C231.847 212.272 232.912 211.648 234.09 211.485C235.268 211.322 236.462 211.633 237.41 212.35C247.993 219.253 260.833 221.8 273.25 219.46C273.828 219.351 274.423 219.356 274.999 219.476C275.576 219.596 276.123 219.829 276.609 220.16C277.096 220.492 277.512 220.916 277.835 221.408C278.158 221.901 278.38 222.452 278.49 223.03C278.6 223.609 278.594 224.203 278.474 224.78C278.354 225.356 278.122 225.903 277.79 226.39C277.459 226.876 277.035 227.293 276.542 227.616C276.05 227.938 275.498 228.161 274.92 228.27C271.35 228.95 267.724 229.295 264.09 229.3Z" fill="#1F2433"/>
<path d="M183.88 221.57C183.162 221.567 182.455 221.391 181.819 221.059C181.183 220.726 180.635 220.246 180.222 219.659C179.809 219.072 179.542 218.394 179.445 217.683C179.347 216.972 179.421 216.247 179.66 215.57C182.03 208.95 185.98 204.66 191.38 202.8C201.16 199.43 211.7 205.98 212.15 206.26C213.132 206.906 213.822 207.911 214.072 209.059C214.321 210.208 214.111 211.408 213.485 212.403C212.859 213.398 211.868 214.108 210.725 214.38C209.582 214.653 208.377 214.466 207.37 213.86C205.37 212.59 199 209.65 194.27 211.29C191.55 212.24 189.53 214.63 188.1 218.61C187.786 219.477 187.212 220.227 186.457 220.756C185.702 221.286 184.802 221.57 183.88 221.57Z" fill="#1F2433"/>
<path d="M219.23 297.25C219.104 297.25 218.979 297.229 218.86 297.19C218.521 297.094 218.233 296.868 218.06 296.56C217.888 296.253 217.845 295.889 217.94 295.55C218.337 294.468 218.945 293.476 219.728 292.63C220.51 291.783 221.452 291.1 222.5 290.62C227.64 287.97 235.5 288.52 245.81 292.25C245.977 292.31 246.13 292.403 246.261 292.523C246.391 292.642 246.497 292.787 246.571 292.948C246.646 293.109 246.687 293.283 246.694 293.46C246.701 293.637 246.672 293.814 246.61 293.98C246.551 294.146 246.459 294.299 246.34 294.43C246.221 294.56 246.078 294.666 245.918 294.741C245.758 294.815 245.584 294.857 245.408 294.864C245.231 294.87 245.055 294.842 244.89 294.78C233.06 290.5 226.89 291.42 223.89 292.96C222.392 293.595 221.201 294.79 220.57 296.29C220.484 296.576 220.306 296.825 220.064 296.998C219.821 297.172 219.528 297.26 219.23 297.25Z" fill="#1F2433"/>
<path d="M176.88 292.32C161.233 293.711 146.015 298.18 132.1 305.47C139.82 304.01 167.45 338.2 174.55 364.56C187.66 359.71 202.94 356.4 219.23 353.81C209.36 326.64 191.31 295.85 176.88 292.32Z" fill="#004FFF"/>
<path opacity="0.6" d="M176.88 292.32C161.233 293.711 146.015 298.18 132.1 305.47C139.82 304.01 167.45 338.2 174.55 364.56C187.66 359.71 202.94 356.4 219.23 353.81C209.36 326.64 191.31 295.85 176.88 292.32Z" fill="#262D40"/>
<path d="M176.88 292.32C159.8 290.39 132.07 304.69 132.07 304.69C127.16 307.82 128.49 313.69 131.17 316.18C133.74 312.49 162.4 302.89 173.17 301.6C167.82 296.64 172.8 293 176.88 292.32Z" fill="#004FFF"/>
<path opacity="0.2" d="M176.88 292.32C159.8 290.39 132.07 304.69 132.07 304.69C127.16 307.82 128.49 313.69 131.17 316.18C133.74 312.49 162.4 302.89 173.17 301.6C167.82 296.64 172.8 293 176.88 292.32Z" fill="#262D40"/>
<path d="M151.66 334C150.915 334.003 150.182 333.822 149.524 333.473C148.866 333.124 148.305 332.618 147.89 332C144.64 327 146.67 319.41 147.11 317.93C147.485 316.832 148.27 315.922 149.301 315.39C150.332 314.858 151.528 314.746 152.64 315.077C153.752 315.408 154.693 316.157 155.265 317.166C155.837 318.175 155.997 319.366 155.71 320.49C154.98 323 154.83 326.21 155.41 327.09C156.059 328.087 156.286 329.302 156.04 330.466C155.795 331.631 155.097 332.65 154.1 333.3C153.374 333.769 152.525 334.013 151.66 334Z" fill="#262D40"/>
<path d="M136.33 137.94H121.19V131.11L136.33 113.11H143.57V131.5H147.32V137.94H143.57V143.53H136.33V137.94ZM136.33 131.5V122.09L128.33 131.5H136.33Z" fill="#004FFF"/>
<path d="M149.91 128.46C149.91 122.78 150.933 118.803 152.98 116.53C155.027 114.256 158.143 113.12 162.33 113.12C164.028 113.062 165.723 113.317 167.33 113.87C168.503 114.292 169.579 114.949 170.49 115.8C171.256 116.535 171.907 117.381 172.42 118.31C172.922 119.283 173.301 120.314 173.55 121.38C174.115 123.67 174.393 126.021 174.38 128.38C174.38 133.8 173.463 137.77 171.63 140.29C169.797 142.81 166.623 144.046 162.11 144C160.01 144.087 157.92 143.676 156.01 142.8C154.446 141.983 153.127 140.765 152.19 139.27C151.359 137.878 150.79 136.346 150.51 134.75C150.096 132.679 149.895 130.571 149.91 128.46ZM158.15 128.46C158.15 132.273 158.483 134.873 159.15 136.26C159.369 136.864 159.766 137.388 160.29 137.761C160.813 138.134 161.437 138.339 162.08 138.35C162.486 138.357 162.89 138.283 163.266 138.13C163.643 137.977 163.984 137.749 164.27 137.46C164.986 136.679 165.459 135.706 165.63 134.66C165.986 132.681 166.133 130.67 166.07 128.66C166.07 124.66 165.74 122.02 165.07 120.66C164.827 120.065 164.411 119.557 163.876 119.2C163.342 118.844 162.713 118.656 162.07 118.66C161.412 118.642 160.766 118.835 160.226 119.211C159.686 119.588 159.281 120.127 159.07 120.75C158.463 122.13 158.157 124.706 158.15 128.48V128.46Z" fill="#004FFF"/>
<path d="M177.77 128.46C177.77 122.78 178.793 118.803 180.84 116.53C182.887 114.256 186.003 113.12 190.19 113.12C191.888 113.062 193.583 113.317 195.19 113.87C196.363 114.292 197.439 114.949 198.35 115.8C199.119 116.532 199.77 117.379 200.28 118.31C200.782 119.283 201.161 120.314 201.41 121.38C201.978 123.669 202.26 126.021 202.25 128.38C202.25 133.8 201.33 137.77 199.49 140.29C197.65 142.81 194.487 144.046 190 144C187.9 144.087 185.81 143.676 183.9 142.8C182.336 141.986 181.021 140.767 180.09 139.27C179.251 137.881 178.678 136.348 178.4 134.75C177.976 132.68 177.765 130.572 177.77 128.46ZM186.01 128.46C186.01 132.273 186.343 134.873 187.01 136.26C187.229 136.864 187.626 137.388 188.15 137.761C188.673 138.134 189.297 138.339 189.94 138.35C190.346 138.357 190.75 138.283 191.126 138.13C191.503 137.977 191.844 137.749 192.13 137.46C192.846 136.677 193.322 135.705 193.5 134.66C193.85 132.68 193.998 130.669 193.94 128.66C193.94 124.66 193.607 121.993 192.94 120.66C192.694 120.067 192.278 119.56 191.744 119.204C191.21 118.848 190.582 118.658 189.94 118.66C189.283 118.644 188.637 118.838 188.098 119.213C187.558 119.589 187.153 120.127 186.94 120.75C186.313 122.13 186 124.706 186 128.48L186.01 128.46Z" fill="#004FFF"/>
<path d="M220.89 113.63H245.65V120H230.15V124.76H244.53V130.86H230.15V136.75H246.1V143.52H220.89V113.63Z" fill="#C2D5FF"/>
<path d="M251.2 143.53V113.63H266.6C268.808 113.552 271.015 113.801 273.15 114.37C274.639 114.838 275.925 115.797 276.8 117.09C277.462 118.039 277.921 119.115 278.148 120.25C278.376 121.385 278.368 122.554 278.124 123.685C277.88 124.817 277.406 125.886 276.731 126.826C276.056 127.766 275.194 128.557 274.2 129.15C273.187 129.71 272.095 130.112 270.96 130.34C271.811 130.584 272.62 130.955 273.36 131.44C273.914 131.902 274.411 132.429 274.84 133.01C275.334 133.585 275.77 134.208 276.14 134.87L280.61 143.53H270.17L265.23 134.39C264.841 133.515 264.272 132.731 263.56 132.09C262.896 131.631 262.107 131.39 261.3 131.4H260.48V143.53H251.2ZM260.48 125.75H264.38C265.204 125.685 266.02 125.547 266.82 125.34C267.419 125.223 267.954 124.888 268.32 124.4C268.769 123.81 268.983 123.075 268.922 122.336C268.861 121.598 268.529 120.908 267.99 120.4C266.952 119.78 265.743 119.51 264.54 119.63H260.48V125.75Z" fill="#C2D5FF"/>
<path d="M283.69 143.53V113.63H299.09C301.298 113.551 303.505 113.8 305.64 114.37C307.129 114.838 308.415 115.797 309.29 117.09C309.949 118.04 310.406 119.115 310.633 120.249C310.86 121.383 310.852 122.551 310.609 123.681C310.366 124.812 309.894 125.88 309.222 126.821C308.549 127.762 307.691 128.554 306.7 129.15C305.685 129.712 304.588 130.113 303.45 130.34C305.045 130.684 306.439 131.643 307.33 133.01C307.824 133.585 308.26 134.208 308.63 134.87L313.1 143.53H302.66L297.72 134.39C297.331 133.515 296.762 132.731 296.05 132.09C295.386 131.631 294.597 131.39 293.79 131.4H293V143.53H283.69ZM293 125.75H296.9C297.724 125.685 298.54 125.548 299.34 125.34C299.941 125.228 300.477 124.892 300.84 124.4C301.289 123.81 301.503 123.075 301.442 122.337C301.381 121.598 301.049 120.908 300.51 120.4C299.473 119.778 298.263 119.507 297.06 119.63H293V125.75Z" fill="#C2D5FF"/>
<path d="M314.18 128.6C314.18 123.72 315.54 119.92 318.26 117.2C320.98 114.48 324.767 113.12 329.62 113.12C334.6 113.12 338.437 114.453 341.13 117.12C343.823 119.786 345.157 123.53 345.13 128.35C345.266 131.331 344.673 134.3 343.4 137C342.257 139.21 340.481 141.031 338.3 142.23C335.729 143.518 332.872 144.127 330 144C327.125 144.098 324.264 143.547 321.63 142.39C319.366 141.268 317.491 139.491 316.25 137.29C314.795 134.63 314.08 131.629 314.18 128.6ZM323.42 128.6C323.42 131.62 323.983 133.79 325.11 135.11C325.703 135.73 326.415 136.223 327.204 136.561C327.993 136.898 328.842 137.072 329.7 137.072C330.558 137.072 331.407 136.898 332.196 136.561C332.985 136.223 333.697 135.73 334.29 135.11C335.377 133.816 335.923 131.483 335.93 128.11C335.93 125.303 335.36 123.246 334.22 121.94C333.643 121.293 332.928 120.784 332.129 120.448C331.33 120.112 330.466 119.959 329.6 120C328.75 119.97 327.905 120.135 327.129 120.482C326.353 120.828 325.665 121.348 325.12 122C324 123.41 323.42 125.6 323.42 128.64V128.6Z" fill="#C2D5FF"/>
<path d="M350.27 143.53V113.63H365.66C367.868 113.551 370.075 113.8 372.21 114.37C373.7 114.835 374.988 115.795 375.86 117.09C376.819 118.518 377.306 120.211 377.25 121.93C377.291 123.433 376.924 124.918 376.19 126.23C375.48 127.435 374.475 128.44 373.27 129.15C372.257 129.71 371.165 130.112 370.03 130.34C370.881 130.584 371.69 130.955 372.43 131.44C372.982 131.904 373.479 132.431 373.91 133.01C374.402 133.585 374.834 134.208 375.2 134.87L379.68 143.53H369.24L364.3 134.39C363.906 133.517 363.338 132.734 362.63 132.09C361.963 131.631 361.17 131.39 360.36 131.4H359.55V143.53H350.27ZM359.55 125.75H363.44C364.267 125.685 365.087 125.548 365.89 125.34C366.489 125.224 367.024 124.889 367.39 124.4C367.775 123.906 367.98 123.296 367.97 122.67C367.995 122.253 367.925 121.836 367.766 121.45C367.606 121.063 367.362 120.718 367.05 120.44C366.013 119.818 364.803 119.547 363.6 119.67H359.55V125.75Z" fill="#C2D5FF"/>
<path d="M162.29 96.9998V74.7398H170.65C172.045 74.6869 173.437 74.9183 174.74 75.4198C175.744 75.8441 176.59 76.5713 177.16 77.4998C177.725 78.3772 178.03 79.3964 178.04 80.4398C178.042 81.3925 177.771 82.3258 177.26 83.1298C176.682 84.0016 175.871 84.6944 174.92 85.1298C176.147 85.4407 177.238 86.1428 178.03 87.1298C178.756 88.101 179.136 89.2874 179.11 90.4998C179.119 91.508 178.893 92.5044 178.45 93.4098C178.079 94.2227 177.521 94.9356 176.82 95.4898C176.088 96.015 175.258 96.3889 174.38 96.5898C173.203 96.8593 171.997 96.9836 170.79 96.9598L162.29 96.9998ZM165.29 84.0798H170.11C171.054 84.1207 171.999 84.0333 172.92 83.8198C173.59 83.6503 174.184 83.2634 174.61 82.7198C175.005 82.1484 175.205 81.4643 175.18 80.7698C175.208 80.0651 175.023 79.3683 174.65 78.7698C174.305 78.2081 173.763 77.7947 173.13 77.6098C172.019 77.354 170.879 77.2497 169.74 77.2998H165.29V84.0798ZM165.29 94.3698H170.84C171.508 94.388 172.177 94.3545 172.84 94.2698C173.44 94.1764 174.017 93.9693 174.54 93.6598C175.019 93.3525 175.408 92.9249 175.67 92.4198C175.971 91.8396 176.122 91.1934 176.11 90.5398C176.13 89.7704 175.906 89.0143 175.47 88.3798C175.047 87.758 174.421 87.3021 173.7 87.0898C172.639 86.7986 171.54 86.6704 170.44 86.7098H165.29V94.3698Z" fill="#EBF1FF"/>
<path d="M193.36 94.9998C192.492 95.7683 191.502 96.3867 190.43 96.8298C189.47 97.1844 188.454 97.3639 187.43 97.3598C185.954 97.4597 184.496 96.995 183.35 96.0598C182.883 95.6447 182.513 95.1322 182.266 94.5586C182.019 93.985 181.901 93.3641 181.92 92.7398C181.913 92.0063 182.084 91.2821 182.421 90.6303C182.757 89.9784 183.248 89.4187 183.85 88.9998C184.46 88.5878 185.137 88.2834 185.85 88.0998C186.651 87.9119 187.462 87.775 188.28 87.6898C189.934 87.5388 191.568 87.2239 193.16 86.7498C193.16 86.3698 193.16 86.1398 193.16 86.0298C193.206 85.6059 193.161 85.177 193.028 84.7718C192.896 84.3666 192.678 83.9943 192.39 83.6798C191.499 82.9982 190.389 82.6672 189.27 82.7498C188.273 82.6785 187.278 82.916 186.42 83.4298C185.682 84.0488 185.18 84.9036 185 85.8498L182.33 85.4898C182.509 84.4826 182.92 83.5308 183.53 82.7098C184.183 81.9466 185.04 81.3848 186 81.0898C187.181 80.6901 188.423 80.4973 189.67 80.5198C190.799 80.4868 191.926 80.6492 193 80.9998C193.729 81.2388 194.384 81.6626 194.9 82.2298C195.328 82.7728 195.62 83.4107 195.75 84.0898C195.866 84.9245 195.912 85.7674 195.89 86.6098V90.2598C195.845 91.8684 195.902 93.4783 196.06 95.0798C196.18 95.7606 196.413 96.4163 196.75 97.0198H193.9C193.599 96.3847 193.416 95.7003 193.36 94.9998ZM193.13 88.8898C191.683 89.3932 190.183 89.7288 188.66 89.8898C187.845 89.9769 187.043 90.1581 186.27 90.4298C185.833 90.6176 185.458 90.9264 185.19 91.3198C184.879 91.8094 184.754 92.394 184.836 92.968C184.919 93.542 185.204 94.0676 185.64 94.4498C186.335 94.9783 187.198 95.2376 188.07 95.1798C189.052 95.1941 190.02 94.9529 190.88 94.4798C191.666 94.0542 192.299 93.3933 192.69 92.5898C193.027 91.7173 193.176 90.7839 193.13 89.8498V88.8898Z" fill="#EBF1FF"/>
<path d="M210.61 96.9998V94.9998C210.143 95.7699 209.476 96.3994 208.68 96.8219C207.885 97.2444 206.99 97.444 206.09 97.3998C204.83 97.4041 203.597 97.0314 202.55 96.3298C201.443 95.5916 200.571 94.5501 200.04 93.3298C199.421 91.9542 199.117 90.4578 199.15 88.9498C199.131 87.4485 199.402 85.9578 199.95 84.5598C200.426 83.3332 201.272 82.2849 202.37 81.5598C203.445 80.8791 204.698 80.5312 205.97 80.5598C206.874 80.5409 207.769 80.7508 208.57 81.1698C209.304 81.5588 209.94 82.1093 210.43 82.7798V74.7798H213.15V96.9998H210.61ZM202 88.9998C201.876 90.6494 202.34 92.2897 203.31 93.6298C203.672 94.104 204.138 94.4892 204.672 94.7561C205.206 95.023 205.793 95.1645 206.39 95.1698C206.977 95.1719 207.556 95.0407 208.084 94.786C208.613 94.5314 209.076 94.1599 209.44 93.6998C210.373 92.4048 210.816 90.8208 210.69 89.2298C210.83 87.5095 210.382 85.7928 209.42 84.3598C209.05 83.8755 208.574 83.4835 208.027 83.2146C207.481 82.9456 206.879 82.8071 206.27 82.8098C205.69 82.8139 205.118 82.9503 204.598 83.2084C204.078 83.4666 203.624 83.8398 203.27 84.2998C202.328 85.678 201.88 87.3346 202 88.9998Z" fill="#EBF1FF"/>
<path d="M226.49 96.9998V74.7398H236.37C237.903 74.6735 239.437 74.8766 240.9 75.3398C241.94 75.7493 242.814 76.4957 243.38 77.4598C244 78.47 244.322 79.6346 244.31 80.8198C244.329 81.555 244.202 82.2866 243.938 82.973C243.674 83.6593 243.277 84.2868 242.77 84.8198C241.464 86.0349 239.78 86.7625 238 86.8798C238.652 87.1681 239.261 87.545 239.81 87.9998C240.751 88.8912 241.575 89.8994 242.26 90.9998L246.13 96.9998H242.42L239.47 92.3698C238.61 91.0298 237.9 90.0098 237.35 89.2998C236.932 88.7265 236.426 88.2236 235.85 87.8098C235.436 87.5365 234.98 87.3337 234.5 87.2098C233.958 87.1265 233.409 87.0931 232.86 87.1098H229.44V96.9998H226.49ZM229.44 84.5498H235.78C236.849 84.5924 237.917 84.4538 238.94 84.1398C239.651 83.8959 240.263 83.4251 240.68 82.7998C241.067 82.2047 241.272 81.5097 241.27 80.7998C241.283 80.3083 241.186 79.8201 240.987 79.3705C240.789 78.9208 240.492 78.521 240.12 78.1998C239.073 77.4408 237.788 77.0857 236.5 77.1998H229.44V84.5498Z" fill="#EBF1FF"/>
<path d="M259.63 91.8299L262.46 92.1699C262.098 93.6887 261.231 95.0393 260 95.9999C258.444 97.0169 256.595 97.4891 254.742 97.3425C252.889 97.1959 251.137 96.4388 249.76 95.1899C248.297 93.4986 247.554 91.3019 247.69 89.0699C247.546 86.7708 248.298 84.5054 249.79 82.7499C250.482 82.0065 251.326 81.4209 252.265 81.0326C253.204 80.6444 254.215 80.4627 255.23 80.4999C256.218 80.4669 257.201 80.6463 258.114 81.0258C259.026 81.4053 259.847 81.9762 260.52 82.6999C261.973 84.4271 262.707 86.6468 262.57 88.8999C262.57 89.0599 262.57 89.3099 262.57 89.6299H250.57C250.544 91.1201 251.051 92.5706 252 93.7199C252.429 94.1813 252.952 94.5464 253.533 94.7911C254.114 95.0359 254.74 95.1548 255.37 95.1399C256.29 95.1683 257.194 94.8904 257.94 94.3499C258.736 93.6921 259.324 92.8164 259.63 91.8299ZM250.63 87.3999H259.63C259.608 86.3063 259.26 85.2442 258.63 84.3499C258.226 83.8413 257.71 83.4338 257.122 83.1596C256.533 82.8853 255.889 82.7519 255.24 82.7699C254.656 82.7509 254.074 82.8501 253.53 83.0615C252.985 83.2728 252.488 83.592 252.07 83.9999C251.181 84.9111 250.673 86.1271 250.65 87.3999H250.63Z" fill="#EBF1FF"/>
<path d="M276.18 103.21V95.3096C275.712 95.9391 275.102 96.4495 274.4 96.7997C273.645 97.1881 272.809 97.3904 271.96 97.3896C271.017 97.3915 270.085 97.1864 269.23 96.7891C268.374 96.3917 267.617 95.8116 267.01 95.0896C265.542 93.3337 264.798 91.0845 264.93 88.7997C264.908 87.3031 265.198 85.8184 265.78 84.4397C266.274 83.2333 267.13 82.2098 268.23 81.5096C269.281 80.8495 270.499 80.5026 271.74 80.5096C272.675 80.4823 273.601 80.6972 274.428 81.1335C275.255 81.5698 275.955 82.2127 276.46 82.9996V80.8796H278.92V103.21H276.18ZM267.75 88.9097C267.626 90.5702 268.086 92.2219 269.05 93.5796C269.421 94.0611 269.896 94.4517 270.44 94.722C270.984 94.9923 271.583 95.1351 272.19 95.1396C272.769 95.1352 273.34 94.9998 273.86 94.7435C274.379 94.4872 274.834 94.1167 275.19 93.6597C276.136 92.355 276.586 90.7561 276.46 89.1496C276.581 87.4287 276.112 85.7179 275.13 84.2997C274.768 83.8067 274.297 83.4034 273.754 83.1208C273.212 82.8382 272.612 82.6839 272 82.6696C271.416 82.6727 270.841 82.8117 270.321 83.0755C269.8 83.3394 269.348 83.7208 269 84.1897C268.058 85.5749 267.617 87.2399 267.75 88.9097Z" fill="#EBF1FF"/>
<path d="M293.78 96.9999V94.6499C293.236 95.51 292.478 96.2145 291.581 96.6947C290.684 97.1749 289.677 97.4144 288.66 97.3899C287.741 97.3979 286.831 97.2105 285.99 96.8399C285.269 96.5537 284.638 96.0808 284.16 95.4699C283.733 94.8736 283.443 94.1908 283.31 93.4699C283.175 92.6236 283.118 91.7666 283.14 90.9099V80.9099H285.88V89.9099C285.849 90.8764 285.906 91.8437 286.05 92.7999C286.192 93.4813 286.58 94.0865 287.14 94.4999C287.746 94.9219 288.472 95.136 289.21 95.1099C290.023 95.1119 290.821 94.8942 291.52 94.4799C292.21 94.0961 292.749 93.4898 293.05 92.7599C293.396 91.7474 293.549 90.6788 293.5 89.6099V80.8799H296.23V96.9999H293.78Z" fill="#EBF1FF"/>
<path d="M311.57 91.8296L314.4 92.1696C314.029 93.6896 313.155 95.0395 311.92 95.9996C310.364 97.0166 308.515 97.4888 306.662 97.3422C304.809 97.1956 303.057 96.4385 301.68 95.1896C300.217 93.4983 299.474 91.3016 299.61 89.0696C299.467 86.7724 300.216 84.5087 301.7 82.7496C302.395 82.007 303.241 81.422 304.181 81.0339C305.121 80.6458 306.134 80.4636 307.15 80.4996C308.138 80.4666 309.121 80.646 310.034 81.0255C310.946 81.405 311.767 81.9759 312.44 82.6996C313.893 84.4268 314.627 86.6465 314.49 88.8996C314.49 89.0596 314.49 89.3096 314.49 89.6296H302.49C302.486 91.1239 303.023 92.5692 304 93.6996C304.429 94.162 304.951 94.5278 305.532 94.7726C306.113 95.0175 306.74 95.1358 307.37 95.1196C308.29 95.148 309.194 94.8701 309.94 94.3296C310.711 93.6692 311.277 92.8016 311.57 91.8296ZM302.57 87.3996H311.57C311.548 86.306 311.2 85.2439 310.57 84.3496C310.165 83.8422 309.649 83.4355 309.061 83.1614C308.472 82.8873 307.829 82.7531 307.18 82.7696C306.594 82.7493 306.011 82.8478 305.464 83.0592C304.918 83.2706 304.42 83.5905 304 83.9996C303.115 84.9124 302.611 86.1282 302.59 87.3996H302.57Z" fill="#EBF1FF"/>
<path d="M316.74 92.2099L319.44 91.7799C319.532 92.7411 319.986 93.6313 320.71 94.2698C321.547 94.8937 322.578 95.2018 323.62 95.1399C324.614 95.2165 325.605 94.9442 326.42 94.3699C326.7 94.1597 326.927 93.8881 327.085 93.5759C327.243 93.2638 327.327 92.9196 327.33 92.5699C327.335 92.278 327.264 91.9898 327.124 91.7338C326.983 91.4778 326.779 91.2627 326.53 91.1099C325.637 90.6893 324.697 90.3771 323.73 90.1799C322.304 89.8676 320.908 89.4292 319.56 88.8699C318.847 88.5517 318.243 88.0319 317.821 87.3744C317.4 86.7169 317.181 85.9506 317.19 85.1698C317.186 84.4717 317.358 83.7838 317.69 83.1699C318.005 82.5668 318.453 82.0435 319 81.6399C319.532 81.28 320.12 81.0098 320.74 80.8398C321.511 80.6232 322.309 80.5155 323.11 80.5198C324.243 80.4978 325.372 80.6807 326.44 81.0598C327.278 81.3374 328.015 81.8556 328.56 82.5499C329.085 83.293 329.428 84.1495 329.56 85.0499L326.88 85.4099C326.846 85.0226 326.734 84.6461 326.552 84.3026C326.37 83.9591 326.121 83.6555 325.82 83.4099C325.099 82.9065 324.228 82.6632 323.35 82.7199C322.41 82.6368 321.469 82.8539 320.66 83.3398C320.42 83.502 320.222 83.7191 320.083 83.973C319.944 84.2269 319.868 84.5104 319.86 84.7999C319.85 85.1615 319.967 85.5152 320.19 85.7999C320.47 86.1311 320.832 86.3829 321.24 86.5299C321.51 86.6299 322.32 86.8599 323.66 87.2199C325.035 87.5602 326.387 87.9843 327.71 88.4898C328.434 88.7907 329.058 89.2899 329.51 89.9299C329.964 90.6236 330.191 91.4413 330.16 92.2698C330.159 93.1892 329.884 94.0874 329.37 94.8499C328.783 95.6967 327.958 96.3509 327 96.7299C325.925 97.1842 324.767 97.409 323.6 97.3899C321.898 97.5041 320.208 97.0427 318.8 96.0799C317.65 95.0959 316.914 93.7135 316.74 92.2099Z" fill="#EBF1FF"/>
<path d="M339.37 94.5798L339.77 96.9897C339.091 97.1468 338.397 97.2306 337.7 97.2397C336.901 97.2847 336.105 97.1192 335.39 96.7598C334.879 96.488 334.471 96.0558 334.23 95.5297C333.945 94.4782 333.833 93.3872 333.9 92.2998V82.9997H331.9V80.8797H333.9V76.8797L336.62 75.2397V80.8797H339.37V82.9997H336.62V92.4398C336.591 92.944 336.638 93.4497 336.76 93.9398C336.86 94.1624 337.023 94.3503 337.23 94.4798C337.521 94.6242 337.845 94.6897 338.17 94.6697C338.572 94.6666 338.972 94.6365 339.37 94.5798Z" fill="#EBF1FF"/>
</svg>
