<svg width="112" height="112" viewBox="0 0 112 112" fill="none" xmlns="http://www.w3.org/2000/svg">
<g clip-path="url(#clip0_192_810)">
<rect width="112" height="112" rx="56" fill="#0F121A"/>
<path d="M79.3333 43.8667C79.3333 56.7533 68.8867 67.2 56 67.2C43.1134 67.2 32.6667 56.7533 32.6667 43.8667C32.6667 30.98 43.1134 20.5333 56 20.5333C68.8867 20.5333 79.3333 30.98 79.3333 43.8667Z" fill="#171B26"/>
<path d="M102.667 95.2C102.667 104.533 93.3333 113.867 56 113.867C18.6667 113.867 9.33334 104.533 9.33334 95.2C9.33334 85.8667 18.6667 76.5333 56 76.5333C93.3333 76.5333 102.667 85.8667 102.667 95.2Z" fill="#171B26"/>
</g>
<defs>
<clipPath id="clip0_192_810">
<rect width="112" height="112" rx="56" fill="white"/>
</clipPath>
</defs>
</svg>
