<svg width="500" height="500" viewBox="0 0 500 500" fill="none" xmlns="http://www.w3.org/2000/svg">
<path d="M449.901 398.494H416.779V398.744H449.901V398.494Z" fill="#1F2433"/>
<path d="M331.22 401.208H322.527V401.458H331.22V401.208Z" fill="#1F2433"/>
<path d="M415.778 389.208H396.586V389.458H415.778V389.208Z" fill="#1F2433"/>
<path d="M95.652 390.888H52.459V391.138H95.652V390.888Z" fill="#1F2433"/>
<path d="M110.889 390.888H104.556V391.138H110.889V390.888Z" fill="#1F2433"/>
<path d="M225.147 395.111H131.471V395.361H225.147V395.111Z" fill="#1F2433"/>
<path d="M238.401 337.8H45.302C42.155 337.8 39.594 335.239 39.594 332.092V60.66C39.594 57.513 42.155 54.952 45.302 54.952H238.401C241.547 54.952 244.108 57.513 244.108 60.66V332.092C244.108 335.239 241.547 337.8 238.401 337.8ZM45.302 55.203C42.292 55.203 39.844 57.651 39.844 60.661V332.093C39.844 335.103 42.292 337.551 45.302 337.551H238.401C241.41 337.551 243.858 335.103 243.858 332.093V60.66C243.858 57.651 241.41 55.202 238.401 55.202L45.302 55.203Z" fill="#1F2433"/>
<path d="M454.698 337.8H261.599C258.453 337.8 255.892 335.239 255.892 332.092V60.66C255.892 57.513 258.453 54.952 261.599 54.952H454.698C457.846 54.952 460.406 57.513 460.406 60.66V332.092C460.406 335.239 457.845 337.8 454.698 337.8ZM261.599 55.203C258.59 55.203 256.142 57.651 256.142 60.661V332.093C256.142 335.103 258.59 337.551 261.599 337.551H454.698C457.708 337.551 460.156 335.103 460.156 332.093V60.66C460.156 57.651 457.708 55.202 454.698 55.202L261.599 55.203Z" fill="#1F2433"/>
<path d="M500 382.398H0V382.648H500V382.398Z" fill="#1F2433"/>
<path d="M130.675 118.436L137.973 113.758L141.954 121.459L150.614 121.056L150.211 129.715L157.912 133.696L153.233 140.994L157.912 148.292L150.211 152.273L150.614 160.933L141.954 160.53L137.973 168.231L130.675 163.552L123.377 168.231L119.396 160.53L110.737 160.933L111.14 152.273L103.439 148.292L108.117 140.994L103.439 133.696L111.14 129.715L110.737 121.056L119.396 121.459L123.377 113.758L130.675 118.436Z" fill="#171B26"/>
<path d="M127.91 152.134L119.24 143.464C118.247 142.472 118.247 140.862 119.24 139.87C120.233 138.877 121.842 138.877 122.834 139.87L127.91 144.946L138.518 134.338C139.51 133.345 141.12 133.345 142.112 134.338C143.104 135.33 143.104 136.94 142.112 137.932L127.91 152.134Z" fill="#1F2433"/>
<path d="M401.861 194.979L407.583 191.31L410.705 197.349L417.496 197.033L417.18 203.823L423.219 206.945L419.55 212.668L423.219 218.391L417.18 221.513L417.496 228.303L410.705 227.987L407.583 234.026L401.861 230.357L396.138 234.026L393.016 227.987L386.225 228.303L386.541 221.513L380.503 218.391L384.171 212.668L380.503 206.945L386.541 203.823L386.225 197.033L393.016 197.349L396.138 191.31L401.861 194.979Z" fill="#171B26"/>
<path d="M399.692 221.403L392.893 214.604C392.115 213.826 392.115 212.564 392.893 211.786C393.671 211.008 394.933 211.008 395.712 211.786L399.693 215.766L408.011 207.448C408.789 206.67 410.051 206.67 410.829 207.448C411.607 208.226 411.607 209.488 410.829 210.266L399.692 221.403Z" fill="#1F2433"/>
<path d="M131.412 290.98L142.564 296.668C144.447 297.628 146.738 297.224 148.179 295.678L156.713 286.519C157.726 285.432 158.17 283.932 157.912 282.469L153.477 257.315C152.752 253.203 148.831 250.458 144.719 251.183L130.597 253.673C126.485 254.398 123.74 258.319 124.465 262.431L128.9 287.585C129.158 289.047 130.088 290.305 131.412 290.98ZM144.113 289.033C145.405 288.805 146.636 289.668 146.864 290.959C147.092 292.251 146.229 293.482 144.938 293.71C143.646 293.938 142.415 293.075 142.187 291.784C141.959 290.493 142.821 289.261 144.113 289.033Z" fill="#171B26"/>
<path d="M131.971 283.193L153.553 279.388L153.142 277.056L131.56 280.861L131.971 283.193Z" fill="#1F2433"/>
<path d="M128.313 262.453L149.895 258.648L149.484 256.316L127.902 260.121L128.313 262.453Z" fill="#1F2433"/>
<path d="M169.524 128.142L177.197 136.377C178.493 137.767 180.553 138.131 182.246 137.267L192.273 132.153C193.463 131.546 194.299 130.416 194.531 129.1L198.519 106.484C199.171 102.787 196.702 99.262 193.006 98.61L180.309 96.371C176.612 95.719 173.087 98.188 172.435 101.884L168.447 124.5C168.214 125.817 168.613 127.165 169.524 128.142ZM180.853 130.403C182.014 130.608 182.79 131.715 182.585 132.876C182.38 134.037 181.273 134.813 180.112 134.608C178.951 134.403 178.175 133.296 178.38 132.135C178.584 130.974 179.691 130.198 180.853 130.403Z" fill="#171B26"/>
<path d="M172.374 121.744L191.777 125.165L192.147 123.068L172.743 119.648L172.374 121.744Z" fill="#1F2433"/>
<path d="M175.662 103.098L195.066 106.518L195.436 104.421L176.032 101.001L175.662 103.098Z" fill="#1F2433"/>
<path d="M355.384 103.746C352.419 99.512 346.584 98.483 342.35 101.448L338.386 104.224L335.61 100.26C332.645 96.026 326.81 94.997 322.576 97.962C318.342 100.927 317.313 106.762 320.278 110.996L333.79 130.293L353.087 116.781C357.32 113.816 358.349 107.98 355.384 103.746Z" fill="#1F2433"/>
<path d="M383.124 105.546C381.673 103.473 378.816 102.969 376.743 104.421L374.802 105.78L373.443 103.839C371.991 101.766 369.134 101.262 367.062 102.714C364.989 104.165 364.485 107.022 365.937 109.095L372.552 118.542L381.999 111.927C384.072 110.476 384.575 107.619 383.124 105.546Z" fill="#1F2433"/>
<path d="M87.364 197.361C73.922 201.215 66.15 215.237 70.005 228.678C72.509 237.409 87.817 252.045 98.241 261.231C102.887 265.325 110.218 263.223 111.987 257.289C115.958 243.975 121.185 223.45 118.682 214.719C114.827 201.279 100.805 193.507 87.364 197.361ZM97.564 232.933C91.36 234.712 84.888 231.125 83.109 224.921C81.33 218.717 84.917 212.245 91.122 210.466C97.326 208.687 103.798 212.274 105.577 218.478C107.355 224.682 103.768 231.154 97.564 232.933Z" fill="#171B26"/>
<path d="M91.3239 196.225C77.8819 200.079 70.1099 214.101 73.9649 227.542C76.4679 236.273 91.7769 250.909 102.201 260.095C106.847 264.189 114.178 262.087 115.947 256.153C119.919 242.839 125.145 222.314 122.642 213.584C118.787 200.143 104.765 192.371 91.3239 196.225ZM101.524 231.797C95.3199 233.576 88.8479 229.989 87.0689 223.785C85.2899 217.581 88.8769 211.109 95.0819 209.33C101.286 207.551 107.758 211.138 109.537 217.342C111.316 223.546 107.728 230.018 101.524 231.797Z" fill="#0F121A"/>
<path d="M382.911 133.028C371.207 129.672 358.998 136.439 355.642 148.144C353.462 155.746 358.013 173.618 361.471 185.211C363.012 190.378 369.396 192.208 373.441 188.643C382.517 180.644 395.847 167.9 398.027 160.297C401.383 148.593 394.615 136.384 382.911 133.028ZM374.03 164.002C368.628 162.453 365.504 156.818 367.053 151.416C368.602 146.014 374.237 142.89 379.64 144.439C385.042 145.988 388.166 151.623 386.617 157.025C385.068 162.427 379.432 165.551 374.03 164.002Z" fill="#171B26"/>
<path d="M386.359 134.017C374.655 130.661 362.446 137.428 359.09 149.133C356.91 156.735 361.461 174.606 364.919 186.2C366.46 191.367 372.844 193.197 376.889 189.632C385.965 181.633 399.295 168.889 401.475 161.287C404.831 149.582 398.063 137.373 386.359 134.017ZM377.478 164.991C372.076 163.442 368.952 157.807 370.501 152.405C372.05 147.003 377.685 143.879 383.087 145.428C388.489 146.977 391.613 152.612 390.064 158.014C388.515 163.416 382.88 166.54 377.478 164.991Z" fill="#0F121A"/>
<path d="M250 427.016C357.082 427.016 443.889 421.947 443.889 415.693C443.889 409.439 357.082 404.37 250 404.37C142.918 404.37 56.111 409.439 56.111 415.693C56.111 421.947 142.918 427.016 250 427.016Z" fill="#0F121A"/>
<path d="M188.499 187.875H199.202C201.493 187.875 203.187 189.732 202.987 192.023L201.012 214.593C200.812 216.884 198.792 218.741 196.501 218.741H185.798C183.507 218.741 181.813 216.884 182.013 214.593L183.988 192.023C184.188 189.732 186.208 187.875 188.499 187.875Z" fill="#004FFF"/>
<path opacity="0.2" d="M308.2 183.052H324.924C328.503 183.052 331.151 185.954 330.838 189.533L328.776 213.099C328.463 216.678 325.307 219.58 321.728 219.58H305.004C301.425 219.58 298.777 216.678 299.09 213.099L301.152 189.533C301.466 185.954 304.621 183.052 308.2 183.052Z" fill="#08090D"/>
<path opacity="0.2" d="M304.774 222.214H321.498C325.077 222.214 327.725 225.116 327.412 228.695L325.35 252.261C325.037 255.84 321.881 258.742 318.302 258.742H301.578C297.999 258.742 295.351 255.841 295.664 252.261L297.726 228.695C298.039 225.116 301.195 222.214 304.774 222.214Z" fill="#08090D"/>
<path d="M218.508 138.865H311.671C324.617 138.865 334.193 149.359 333.06 162.305L313.185 389.477C312.052 402.423 300.64 412.917 287.694 412.917H194.531C181.585 412.917 172.009 402.422 173.142 389.477L193.017 162.305C194.149 149.359 205.562 138.865 218.508 138.865Z" fill="#004FFF"/>
<path opacity="0.2" d="M218.508 138.865H311.671C324.617 138.865 334.193 149.359 333.06 162.305L313.185 389.477C312.052 402.423 300.64 412.917 287.694 412.917H194.531C181.585 412.917 172.009 402.422 173.142 389.477L193.017 162.305C194.149 149.359 205.562 138.865 218.508 138.865Z" fill="#08090D"/>
<path d="M215.503 138.865H308.666C321.612 138.865 331.188 149.359 330.055 162.305L310.18 389.477C309.047 402.423 297.635 412.917 284.689 412.917H191.526C178.58 412.917 169.004 402.422 170.137 389.477L190.012 162.305C191.145 149.359 202.557 138.865 215.503 138.865Z" fill="#004FFF"/>
<path d="M327.261 162.305L307.387 389.468C306.389 400.87 296.337 410.114 284.935 410.114H191.772C180.37 410.114 171.935 400.871 172.933 389.468L192.807 162.305C193.805 150.903 203.857 141.659 215.259 141.659H308.422C319.824 141.659 328.258 150.903 327.261 162.305Z" fill="#F2F4F7"/>
<g opacity="0.1">
<path d="M191.771 410.114H227.087L284.149 141.659H239.149L182.572 407.835C185.267 409.282 188.383 410.114 191.771 410.114Z" fill="#08090D"/>
<path d="M305.751 141.659H297.185L240.124 410.114H248.689L305.751 141.659Z" fill="#08090D"/>
</g>
<path d="M234.531 140.994C234.226 144.642 236.921 147.596 240.568 147.609H282.07C285.719 147.595 288.931 144.641 289.264 140.994H234.531Z" fill="#004FFF"/>
<path d="M306.729 148.973H316.147C316.933 148.973 317.514 149.61 317.445 150.395L317.086 154.502C317.017 155.287 316.325 155.924 315.539 155.924H306.121C305.335 155.924 304.754 155.287 304.823 154.502L305.182 150.395C305.251 149.61 305.944 148.973 306.729 148.973Z" fill="#004FFF"/>
<path d="M206.151 148.973H218.759C219.647 148.973 220.304 149.693 220.226 150.58L219.899 154.317C219.821 155.205 219.039 155.925 218.151 155.925H205.543C204.655 155.925 203.998 155.205 204.076 154.317L204.403 150.58C204.481 149.693 205.264 148.973 206.151 148.973Z" fill="#004FFF"/>
<path opacity="0.4" d="M206.151 148.973H218.759C219.647 148.973 220.304 149.693 220.226 150.58L219.899 154.317C219.821 155.205 219.039 155.925 218.151 155.925H205.543C204.655 155.925 203.998 155.205 204.076 154.317L204.403 150.58C204.481 149.693 205.264 148.973 206.151 148.973Z" fill="#F2F4F7"/>
<path d="M304.218 150.16H305.699C305.987 150.16 306.2 150.394 306.175 150.682L305.866 154.217C305.841 154.505 305.587 154.739 305.298 154.739H303.817C303.529 154.739 303.316 154.505 303.341 154.217L303.65 150.682C303.676 150.394 303.93 150.16 304.218 150.16Z" fill="#004FFF"/>
<path d="M314.285 150.16H315.766C316.054 150.16 316.267 150.394 316.242 150.682L315.933 154.217C315.908 154.505 315.654 154.739 315.365 154.739H313.884C313.596 154.739 313.383 154.505 313.408 154.217L313.717 150.682C313.742 150.394 313.996 150.16 314.285 150.16Z" fill="#F2F4F7"/>
<path d="M311.095 150.16H312.576C312.864 150.16 313.077 150.394 313.052 150.682L312.743 154.217C312.718 154.505 312.464 154.739 312.176 154.739H310.695C310.407 154.739 310.194 154.505 310.219 154.217L310.528 150.682C310.552 150.394 310.806 150.16 311.095 150.16Z" fill="#F2F4F7"/>
<path d="M327.827 212.939L325.795 236.169C327.75 235.808 329.353 234.123 329.531 232.095L330.851 217.013C331.027 214.984 329.719 213.299 327.827 212.939Z" fill="#004FFF"/>
<path opacity="0.2" d="M327.827 212.939L325.795 236.169C327.75 235.808 329.353 234.123 329.531 232.095L330.851 217.013C331.027 214.984 329.719 213.299 327.827 212.939Z" fill="#08090D"/>
<path d="M330.02 187.875L327.988 211.105C329.943 210.744 331.546 209.059 331.724 207.031L333.044 191.948C333.22 189.921 331.911 188.235 330.02 187.875Z" fill="#004FFF"/>
<path opacity="0.2" d="M330.02 187.875L327.988 211.105C329.943 210.744 331.546 209.059 331.724 207.031L333.044 191.948C333.22 189.921 331.911 188.235 330.02 187.875Z" fill="#08090D"/>
<path d="M273.506 157.62H242.348C237.134 157.62 232.538 161.847 232.082 167.06L230.468 185.507C230.012 190.721 233.869 194.947 239.082 194.947H247.997L247.369 202.125C247.213 203.907 249.29 204.799 250.66 203.539L260.005 194.946H270.241C275.455 194.946 280.051 190.719 280.507 185.506L282.121 167.059C282.576 161.846 278.719 157.62 273.506 157.62Z" fill="#004FFF"/>
<path d="M264.194 166.438C263.385 166.438 262.981 166.438 262.172 166.438C259.989 166.438 258.896 166.438 256.714 166.438C255.905 166.438 255.501 166.438 254.692 166.438C252.509 166.438 251.418 166.438 249.235 166.438C249.196 165.199 249.176 164.579 249.137 163.34C245.844 163.34 244.199 163.34 240.907 163.34C241.02 164.048 241.076 164.402 241.189 165.11C243.564 165.11 244.752 165.11 247.127 165.11C247.161 165.641 247.178 165.906 247.213 166.437C247.382 169.056 247.467 170.366 247.636 172.985C247.682 173.693 247.705 174.047 247.751 174.755C247.92 177.374 248.005 178.684 248.174 181.303C248.265 182.702 248.31 183.402 248.4 184.802C254.971 184.802 258.251 184.802 264.822 184.802C265.047 184.094 265.16 183.74 265.385 183.032C259.132 183.032 256.011 183.032 249.76 183.032C249.738 182.341 249.727 181.995 249.705 181.303C251.359 181.303 252.185 181.303 253.839 181.303C254.452 181.303 254.758 181.303 255.37 181.303C257.023 181.303 257.851 181.303 259.504 181.303C260.116 181.303 260.423 181.303 261.035 181.303C263.301 181.303 264.434 181.303 266.701 181.303C267.577 178.684 268.015 177.374 268.891 174.755C269.128 174.047 269.246 173.693 269.483 172.985C270.359 170.366 270.796 169.056 271.672 166.437C268.682 166.438 267.186 166.438 264.194 166.438ZM249.292 168.208C251.412 168.208 252.472 168.208 254.591 168.208C254.481 170.119 254.427 171.075 254.317 172.986C252.368 172.986 251.393 172.986 249.443 172.986C249.382 171.074 249.352 170.119 249.292 168.208ZM249.651 179.533C249.59 177.622 249.56 176.666 249.499 174.755C251.386 174.755 252.329 174.755 254.215 174.755C254.106 176.666 254.051 177.622 253.941 179.533C252.225 179.533 251.367 179.533 249.651 179.533ZM259.823 179.533C258.106 179.533 257.248 179.533 255.531 179.533C255.704 177.622 255.79 176.666 255.962 174.755C257.849 174.755 258.793 174.755 260.68 174.755C260.338 176.666 260.166 177.622 259.823 179.533ZM260.998 172.985C259.048 172.985 258.073 172.985 256.123 172.985C256.296 171.074 256.382 170.118 256.555 168.207C258.675 168.207 259.736 168.207 261.856 168.207C261.512 170.119 261.341 171.074 260.998 172.985ZM265.704 179.533C263.987 179.533 263.129 179.533 261.412 179.533C261.818 177.622 262.021 176.666 262.427 174.755C264.313 174.755 265.257 174.755 267.144 174.755C266.569 176.666 266.281 177.622 265.704 179.533ZM267.678 172.985C265.728 172.985 264.753 172.985 262.804 172.985C263.21 171.074 263.413 170.118 263.819 168.207C265.939 168.207 266.999 168.207 269.119 168.207C268.542 170.119 268.254 171.074 267.678 172.985Z" fill="#F2F4F7"/>
<path d="M249.279 186.461C248.118 186.461 247.095 187.402 246.993 188.563C246.891 189.724 247.75 190.665 248.911 190.665C250.072 190.665 251.095 189.724 251.197 188.563C251.299 187.402 250.44 186.461 249.279 186.461Z" fill="#F2F4F7"/>
<path d="M264.214 186.461C263.053 186.461 262.03 187.402 261.928 188.563C261.826 189.724 262.685 190.665 263.846 190.665C265.007 190.665 266.03 189.724 266.132 188.563C266.233 187.402 265.375 186.461 264.214 186.461Z" fill="#F2F4F7"/>
<path d="M295.896 288.178H260.266V323.808H295.896V288.178Z" fill="#004FFF"/>
<path d="M317.766 288.178H295.886V323.808H317.766V288.178Z" fill="#004FFF"/>
<path d="M289.086 279.238H253.456L260.266 288.178H295.886L289.086 279.238Z" fill="#004FFF"/>
<path opacity="0.3" d="M317.766 288.178H295.886V323.808H317.766V288.178Z" fill="#F2F4F7"/>
<path opacity="0.4" d="M289.086 279.238H253.456L260.266 288.178H295.886L289.086 279.238Z" fill="#F2F4F7"/>
<path d="M302.336 279.238H324.216L317.776 288.178H295.886L302.336 279.238Z" fill="#004FFF"/>
<path opacity="0.6" d="M295.896 288.178H260.266V323.808H295.896V288.178Z" fill="#F2F4F7"/>
<path opacity="0.2" d="M302.336 279.238H324.216L317.776 288.178H295.886L302.336 279.238Z" fill="#F2F4F7"/>
<path d="M396.147 322.927H306.348V412.726H396.147V322.927Z" fill="#004FFF"/>
<path opacity="0.4" d="M396.147 322.927H306.348V412.726H396.147V322.927Z" fill="#F2F4F7"/>
<path d="M306.332 322.927H251.174V412.726H306.332V322.927Z" fill="#004FFF"/>
<path opacity="0.6" d="M306.332 322.927H251.174V412.726H306.332V322.927Z" fill="#F2F4F7"/>
<path opacity="0.5" d="M268.21 322.927V347.047L270.401 348.203L272.292 346.627L275.279 348.203L278.116 346.627L280.322 348.203L282.844 346.627L284.269 347.917V322.927H268.21Z" fill="#F2F4F7"/>
<path opacity="0.5" d="M284.269 412.727V388.607L282.078 387.451L280.187 389.027L277.2 387.451L274.363 389.027L272.157 387.451L269.636 389.027L268.21 387.737V412.727H284.269Z" fill="#F2F4F7"/>
<path d="M342.98 359.546C343.487 361.599 343.74 362.625 344.247 364.679C344.384 365.234 344.452 365.511 344.589 366.066C345.096 368.119 345.349 369.145 345.856 371.199C347.633 371.199 348.521 371.199 350.298 371.199C350.778 371.199 351.018 371.199 351.498 371.199C352.794 371.199 353.442 371.199 354.738 371.199C355.218 371.199 355.458 371.199 355.938 371.199C357.234 371.199 357.882 371.199 359.178 371.199C359.113 371.741 359.081 372.012 359.017 372.554C354.117 372.554 351.67 372.554 346.769 372.554C346.897 373.109 346.961 373.386 347.089 373.941C352.24 373.941 354.811 373.941 359.962 373.941C360.129 372.844 360.212 372.296 360.379 371.199C360.691 369.146 360.848 368.12 361.16 366.066C361.245 365.511 361.287 365.234 361.371 364.679C361.683 362.626 361.84 361.6 362.152 359.546C362.215 359.13 362.247 358.922 362.31 358.505C364.172 358.505 365.103 358.505 366.965 358.505C367.102 357.95 367.171 357.672 367.308 357.118C364.727 357.118 363.438 357.118 360.857 357.118C360.741 358.089 360.684 358.575 360.568 359.546C358.857 359.546 358.002 359.546 356.291 359.546C355.657 359.546 355.34 359.546 354.706 359.546C352.995 359.546 352.138 359.546 350.427 359.546C349.793 359.546 349.476 359.546 348.842 359.546C346.498 359.546 345.325 359.546 342.98 359.546ZM359.957 364.678C358.429 364.678 357.665 364.678 356.137 364.678C356.182 363.18 356.205 362.431 356.25 360.933C357.911 360.933 358.742 360.933 360.404 360.933C360.225 362.431 360.135 363.18 359.957 364.678ZM355.981 369.811C356.026 368.313 356.049 367.564 356.094 366.066C357.573 366.066 358.312 366.066 359.791 366.066C359.613 367.564 359.523 368.313 359.344 369.811C357.999 369.811 357.327 369.811 355.981 369.811ZM351.027 366.065C352.506 366.065 353.246 366.065 354.725 366.065C354.729 367.563 354.731 368.312 354.735 369.81C353.389 369.81 352.716 369.81 351.371 369.81C351.233 368.313 351.164 367.564 351.027 366.065ZM350.555 360.933C352.217 360.933 353.048 360.933 354.71 360.933C354.714 362.431 354.717 363.18 354.721 364.678C353.193 364.678 352.428 364.678 350.899 364.678C350.762 363.18 350.693 362.431 350.555 360.933ZM345.96 366.065C347.439 366.065 348.179 366.065 349.658 366.065C349.845 367.563 349.939 368.312 350.126 369.81C348.781 369.81 348.108 369.81 346.762 369.81C346.44 368.313 346.28 367.564 345.96 366.065ZM344.862 360.933C346.524 360.933 347.355 360.933 349.016 360.933C349.203 362.431 349.297 363.18 349.484 364.678C347.956 364.678 347.192 364.678 345.663 364.678C345.343 363.18 345.182 362.431 344.862 360.933Z" fill="#F2F4F7"/>
<path d="M359.161 378.537C360.071 378.537 360.809 377.799 360.809 376.889C360.809 375.979 360.071 375.241 359.161 375.241C358.251 375.241 357.513 375.979 357.513 376.889C357.513 377.799 358.251 378.537 359.161 378.537Z" fill="#F2F4F7"/>
<path d="M347.455 378.537C348.365 378.537 349.103 377.799 349.103 376.889C349.103 375.979 348.365 375.241 347.455 375.241C346.545 375.241 345.807 375.979 345.807 376.889C345.807 377.799 346.545 378.537 347.455 378.537Z" fill="#F2F4F7"/>
<g opacity="0.5">
<path d="M266.589 359.546C267.096 361.599 267.349 362.625 267.856 364.679C267.993 365.234 268.061 365.511 268.198 366.066C268.705 368.119 268.958 369.145 269.465 371.199C271.242 371.199 272.13 371.199 273.906 371.199C274.386 371.199 274.626 371.199 275.106 371.199C276.402 371.199 277.05 371.199 278.346 371.199C278.826 371.199 279.066 371.199 279.546 371.199C280.842 371.199 281.49 371.199 282.786 371.199C282.721 371.741 282.689 372.012 282.624 372.554C277.724 372.554 275.277 372.554 270.376 372.554C270.504 373.109 270.568 373.386 270.696 373.941C275.847 373.941 278.418 373.941 283.569 373.941C283.736 372.844 283.819 372.296 283.986 371.199C284.298 369.146 284.455 368.12 284.767 366.066C284.852 365.511 284.894 365.234 284.978 364.679C285.29 362.626 285.446 361.6 285.759 359.546C285.822 359.13 285.854 358.922 285.917 358.505C287.779 358.505 288.71 358.505 290.572 358.505C290.709 357.95 290.778 357.672 290.915 357.118C288.334 357.118 287.045 357.118 284.464 357.118C284.348 358.089 284.291 358.575 284.175 359.546C282.464 359.546 281.609 359.546 279.898 359.546C279.264 359.546 278.947 359.546 278.313 359.546C276.602 359.546 275.745 359.546 274.034 359.546C273.4 359.546 273.083 359.546 272.449 359.546C270.107 359.546 268.935 359.546 266.589 359.546ZM283.566 364.678C282.038 364.678 281.274 364.678 279.746 364.678C279.791 363.18 279.814 362.431 279.859 360.933C281.52 360.933 282.351 360.933 284.013 360.933C283.834 362.431 283.745 363.18 283.566 364.678ZM279.591 369.811C279.636 368.313 279.659 367.564 279.704 366.066C281.183 366.066 281.922 366.066 283.401 366.066C283.223 367.564 283.133 368.313 282.955 369.811C281.609 369.811 280.936 369.811 279.591 369.811ZM274.636 366.065C276.115 366.065 276.855 366.065 278.334 366.065C278.338 367.563 278.34 368.312 278.344 369.81C276.998 369.81 276.325 369.81 274.98 369.81C274.843 368.313 274.774 367.564 274.636 366.065ZM274.164 360.933C275.826 360.933 276.657 360.933 278.319 360.933C278.323 362.431 278.325 363.18 278.33 364.678C276.801 364.678 276.037 364.678 274.508 364.678C274.371 363.18 274.302 362.431 274.164 360.933ZM269.569 366.065C271.048 366.065 271.788 366.065 273.266 366.065C273.453 367.563 273.547 368.312 273.734 369.81C272.388 369.81 271.716 369.81 270.37 369.81C270.05 368.313 269.889 367.564 269.569 366.065ZM268.471 360.933C270.133 360.933 270.964 360.933 272.625 360.933C272.812 362.431 272.906 363.18 273.093 364.678C271.565 364.678 270.801 364.678 269.272 364.678C268.952 363.18 268.792 362.431 268.471 360.933Z" fill="#F2F4F7"/>
<path d="M282.77 378.537C283.68 378.537 284.418 377.799 284.418 376.889C284.418 375.979 283.68 375.241 282.77 375.241C281.86 375.241 281.122 375.979 281.122 376.889C281.122 377.799 281.86 378.537 282.77 378.537Z" fill="#F2F4F7"/>
<path d="M271.064 378.537C271.974 378.537 272.712 377.799 272.712 376.889C272.712 375.979 271.974 375.241 271.064 375.241C270.154 375.241 269.416 375.979 269.416 376.889C269.416 377.799 270.154 378.537 271.064 378.537Z" fill="#F2F4F7"/>
</g>
<path d="M363.361 251.47C363.361 251.47 366.475 273.86 369.276 277.716C372.076 281.572 384.661 292.258 384.661 292.258L392.607 291.1L397.937 296.143L394.081 298.815L389.831 296.907C389.831 296.907 386.662 297.334 382.607 297.081C378.552 296.828 362.693 286.116 359.768 280.474C356.844 274.831 353.549 254.095 353.549 254.095L363.361 251.47Z" fill="#FFADAD"/>
<path d="M366.025 257.939L365.231 258.084C364.678 252.825 362.478 236.837 356.454 240.943C350.662 244.891 352.285 256.098 353.13 260.288L352.174 260.462L353.055 263.226L366.382 260.671L366.025 257.939Z" fill="#004FFF"/>
<path opacity="0.2" d="M360.997 247.365L359.532 244.213L354.916 248.848C354.916 248.848 353.607 250.823 352.274 252.844C352.34 255.836 352.793 258.62 353.129 260.288L352.173 260.462L353.054 263.226L360.57 261.785C361.936 253.964 360.997 247.365 360.997 247.365Z" fill="#08090D"/>
<path d="M361.459 207.194C361.459 207.194 377.357 210.625 368.91 218.183L361.931 212.068L361.459 207.194Z" fill="#171B26"/>
<path d="M383.528 375.082L373.411 399.869L366.391 397.141L372.047 372.5L383.528 375.082Z" fill="#FFADAD"/>
<path opacity="0.2" d="M372.547 370.75L368.56 388.118L377.207 390.049L384.028 373.322L372.547 370.75Z" fill="#08090D"/>
<path d="M375.035 399.293C376.324 402.217 377.19 404.63 382.466 407.756C383.617 408.417 381.672 411.456 378.804 410.17C374.064 408.031 375.303 407.99 371.237 406.226C367.825 404.723 365.294 403.809 362.511 402.653C362.439 402.622 362.372 402.582 362.311 402.533C362.305 402.529 362.3 402.525 362.294 402.52C361.803 402.151 361.704 401.453 362.074 400.962L366.172 395.351C366.356 395.093 366.694 394.999 366.985 395.125L373.629 397.988C374.242 398.236 374.742 398.7 375.035 399.293Z" fill="#171B26"/>
<path d="M406.18 316.82C404.89 332.83 381.91 385.71 381.91 385.71L368.27 381.91C368.27 381.91 378.69 331.1 385.49 322.69C385.49 322.69 383.27 322.73 379.7 322.76C367.27 322.87 338.46 322.85 330.15 320.64C324.22 319.06 311.83 315.89 315.1 296.05L330.46 295.52L348.35 294.9C348.35 294.9 407.95 294.95 406.18 316.82Z" fill="#171B26"/>
<path opacity="0.2" d="M379.7 322.76C367.27 322.87 338.46 322.85 330.15 320.64C324.22 319.06 311.83 315.89 315.1 296.05L330.46 295.52C342.55 296.95 358.35 299.34 369.12 303.97C374.36 306.22 378 310.28 379.07 315.06C379.38 316.46 379.61 319.83 379.7 322.76Z" fill="#08090D"/>
<path d="M359.807 374.203L354.749 399.473L347.141 399.116L348.044 373.846L359.807 374.203Z" fill="#FFADAD"/>
<path opacity="0.2" d="M359.807 374.203L348.044 373.846L347.516 388.958L356.787 389.285L359.807 374.203Z" fill="#08090D"/>
<path d="M355.911 400.068C357.151 403.103 357.961 405.586 363.238 408.93C364.382 409.67 362.304 412.717 359.434 411.3C354.673 408.972 355.936 408.975 351.853 407.052C348.4 405.417 345.856 404.406 343.062 403.144L342.846 403.037L342.842 403.034C342.344 402.645 342.256 401.926 342.646 401.428L346.997 395.817C347.194 395.563 347.542 395.481 347.831 395.62L354.487 398.732C355.112 398.984 355.62 399.461 355.911 400.068Z" fill="#171B26"/>
<path d="M306.166 296.031C306.166 296.031 301.821 311.657 309.01 317.827C319.063 326.464 355.373 323.837 355.373 323.837C349.103 343.913 346.3 383.784 346.3 383.784H359.913C359.913 383.784 378.449 329.241 375.71 315.137C372.971 301.033 324.331 296.051 324.331 296.051L306.166 296.031Z" fill="#171B26"/>
<path d="M367.062 383.488L382.5 387.382L385.649 380.77L368.688 375.964L367.062 383.488Z" fill="#004FFF"/>
<path d="M344.946 385.681L360.698 386.489L362.335 379.563L344.946 378.755V385.681Z" fill="#004FFF"/>
<path d="M352.174 274.391C356.137 262.605 361.181 253.634 361.746 243.583C348.056 223.822 321.29 235.502 321.29 235.502C305.087 265.896 306.166 296.031 306.166 296.031C342.98 296.031 345.089 295.403 345.089 295.403C345.089 295.403 345.224 290.196 352.174 274.391Z" fill="#004FFF"/>
<path opacity="0.2" d="M339.81 234.921C340.4 238.396 341.63 244.676 343.089 245.589C345.115 246.806 348.113 245.103 348.113 245.103C348.113 245.103 350.54 248.389 353.132 246.198C354.572 244.816 355.697 243.139 356.43 241.282C355.672 242.568 354.717 243.728 353.6 244.719C350.996 246.901 348.57 243.625 348.57 243.625C348.57 243.625 345.571 245.318 343.546 244.112C342.237 243.321 340.701 238.346 339.81 234.921Z" fill="#08090D"/>
<path d="M343.109 230.12L346.765 231.373L343.902 233.877L343.109 230.12Z" fill="#004FFF"/>
<path opacity="0.2" d="M343.109 230.12L346.765 231.373L343.902 233.877L343.109 230.12Z" fill="#08090D"/>
<path d="M354.712 233.878L355.725 236.827C355.725 236.827 350.508 242.287 349.006 242.349C347.504 242.41 343.109 232.082 343.109 232.082C348.917 229.453 348.384 226.563 348.384 226.563L354.712 233.878Z" fill="#FFADAD"/>
<path opacity="0.2" d="M352.815 239.669C354.354 238.262 355.726 236.828 355.726 236.828L354.713 233.879L349.064 227.348C348.34 230.189 347.62 236.134 352.815 239.669Z" fill="#08090D"/>
<path d="M357.692 238.956C356.747 241.157 355.356 243.137 353.606 244.771C351.002 246.953 348.576 243.677 348.576 243.677C348.576 243.677 345.587 245.369 343.562 244.162C341.537 242.956 339 231.889 339 231.889L343.109 230.12L348.769 242.077L356.403 235.771L357.692 238.956Z" fill="#004FFF"/>
<path d="M348.156 216.474C348.148 214.701 348.605 212.958 349.483 211.418C352.25 206.558 358.434 204.861 363.294 207.628C370.547 211.543 370.746 222.963 368.59 229.656C368.005 231.603 366.842 233.325 365.254 234.595C360.936 238.048 354.636 237.347 351.183 233.029C347.617 228.651 348.078 224.157 348.175 216.451L348.156 216.474Z" fill="#FFADAD"/>
<path d="M361.682 221.25C362.103 221.284 362.355 221.856 362.252 222.467C362.149 223.078 361.769 223.495 361.359 223.451C360.949 223.407 360.686 222.845 360.789 222.234C360.881 221.612 361.262 221.216 361.682 221.25Z" fill="#171B26"/>
<path d="M368.615 222.548C369.036 222.592 369.299 223.143 369.196 223.764C369.093 224.385 368.713 224.792 368.292 224.748C367.871 224.704 367.629 224.152 367.722 223.531C367.824 222.921 368.194 222.504 368.615 222.548Z" fill="#171B26"/>
<path d="M359.824 219.792C360.548 219.23 361.5 219.053 362.378 219.317C362.382 219.318 362.385 219.32 362.389 219.321C362.576 219.384 362.778 219.284 362.841 219.097C362.9 218.909 362.804 218.707 362.621 218.633C361.488 218.287 360.257 218.526 359.335 219.271C359.184 219.397 359.163 219.621 359.288 219.772C359.335 219.81 359.39 219.837 359.449 219.85C359.575 219.911 359.724 219.887 359.824 219.792Z" fill="#171B26"/>
<path d="M370.359 221.74C370.526 221.633 370.578 221.412 370.476 221.242C369.901 220.203 368.867 219.499 367.689 219.346C367.531 219.354 367.397 219.465 367.36 219.618C367.36 219.621 367.359 219.623 367.358 219.625C367.312 219.822 367.434 220.02 367.632 220.066C368.583 220.212 369.41 220.795 369.866 221.642C369.926 221.747 370.034 221.816 370.154 221.826C370.23 221.821 370.302 221.79 370.359 221.74Z" fill="#171B26"/>
<path d="M364.496 229.372C365.456 229.811 366.56 229.808 367.518 229.366C366.593 227.505 365.915 225.53 365.502 223.493L364.496 229.372Z" fill="#FF7070"/>
<path d="M347.68 221.465C344.694 210.557 349.533 207.717 354.773 205.765C360.014 203.813 362.915 205.683 364.59 207.524C365.109 208.096 366.153 209.84 362.791 210.07C360.755 210.15 358.716 209.994 356.715 209.604C355.903 209.458 355.077 209.783 354.582 210.443C353.421 211.958 351.545 214.796 351.565 217.282C351.712 219.193 351.001 221.07 349.625 222.404L347.68 221.465Z" fill="#171B26"/>
<path d="M343.902 276.239C343.905 276.239 343.909 276.239 343.912 276.239C344.642 276.245 345.229 276.842 345.224 277.572C345.219 278.302 344.622 278.89 343.891 278.884C343.161 278.878 342.573 278.282 342.579 277.551C342.586 276.824 343.176 276.239 343.902 276.239Z" fill="#004FFF"/>
<path d="M341.017 290.196C341.024 290.196 341.031 290.196 341.038 290.196C341.768 290.202 342.355 290.798 342.35 291.529C342.344 292.259 341.748 292.847 341.017 292.841C340.287 292.835 339.699 292.239 339.705 291.508C339.705 290.783 340.292 290.196 341.017 290.196Z" fill="#004FFF"/>
<path d="M347.765 218.969C349.879 219.355 350.896 222.345 350.917 224.304C350.942 226.41 349.419 227.992 347.547 226.739C346.126 225.763 345.128 224.285 344.753 222.602C344.341 220.523 345.651 218.583 347.765 218.969Z" fill="#FFADAD"/>
<path d="M357.445 229.258C357.445 229.258 359.325 229.651 364.097 231.852C362.876 233.028 361.293 233.718 358.859 232.568C356.425 231.418 357.445 229.258 357.445 229.258Z" fill="#171B26"/>
<path d="M360.513 231.963C359.339 231.408 358.362 231.284 357.531 231.429C357.762 231.841 358.179 232.244 358.859 232.565C360.033 233.12 361.002 233.249 361.836 233.097C361.603 232.685 361.193 232.285 360.513 231.963Z" fill="#FF7070"/>
<path d="M357.68 229.318C357.674 229.686 357.667 230.054 358.099 230.374C359.062 230.9 361.738 231.791 362.487 231.964C362.958 232.094 363.4 232.117 363.89 231.757C360.211 230.071 358.304 229.486 357.68 229.318Z" fill="#F2F4F7"/>
<path d="M365.293 302.717L383.396 302.813L383.411 299.907L365.308 299.811L365.293 302.717Z" fill="#171B26"/>
<path d="M343.782 302.589L366.813 302.712L366.828 299.806L342.436 299.676L342.428 301.22C342.423 301.972 343.03 302.585 343.782 302.589Z" fill="#171B26"/>
<path opacity="0.3" d="M343.782 302.589L366.813 302.712L366.828 299.806L342.436 299.676L342.428 301.22C342.423 301.972 343.03 302.585 343.782 302.589Z" fill="#F2F4F7"/>
<path d="M360.257 301.722L363.165 301.738L363.171 300.706L360.263 300.69L360.257 301.722Z" fill="#171B26"/>
<path d="M355.717 301.711L358.625 301.727L358.63 300.695L355.722 300.679L355.717 301.711Z" fill="#171B26"/>
<path d="M370.283 299.824L368.35 299.814L376.051 273.587L377.984 273.597L370.283 299.824Z" fill="#171B26"/>
<path opacity="0.3" d="M370.283 299.824L368.35 299.814L376.051 273.587L377.984 273.597L370.283 299.824Z" fill="#F2F4F7"/>
<path d="M369.57 299.82L403.54 300.002L411.241 273.775L377.271 273.593L369.57 299.82Z" fill="#171B26"/>
<path opacity="0.6" d="M369.57 299.82L403.54 300.002L411.241 273.775L377.271 273.593L369.57 299.82Z" fill="#F2F4F7"/>
<path d="M367.907 299.811C368.279 299.813 402.897 299.998 403.269 300C403.865 300.003 404.344 300.656 404.34 301.459C404.336 302.261 403.849 302.909 403.253 302.906C402.658 302.903 368.487 302.72 367.891 302.717C367.295 302.714 366.816 302.061 366.82 301.258C366.825 300.456 367.311 299.808 367.907 299.811Z" fill="#171B26"/>
<path opacity="0.5" d="M367.907 299.811C368.279 299.813 402.897 299.998 403.269 300C403.865 300.003 404.344 300.656 404.34 301.459C404.336 302.261 403.849 302.909 403.253 302.906C402.658 302.903 368.487 302.72 367.891 302.717C367.295 302.714 366.816 302.061 366.82 301.258C366.825 300.456 367.311 299.808 367.907 299.811Z" fill="#F2F4F7"/>
<path d="M366.821 301.259C366.817 302.062 367.296 302.715 367.892 302.718C368.488 302.721 368.974 302.073 368.978 301.271C368.982 300.469 368.503 299.815 367.907 299.812C367.311 299.808 366.825 300.456 366.821 301.259Z" fill="#171B26"/>
<path opacity="0.3" d="M366.821 301.259C366.817 302.062 367.296 302.715 367.892 302.718C368.488 302.721 368.974 302.073 368.978 301.271C368.982 300.469 368.503 299.815 367.907 299.812C367.311 299.808 366.825 300.456 366.821 301.259Z" fill="#F2F4F7"/>
<path opacity="0.2" d="M333.435 275.532C331.804 273.286 330.071 264.987 328.863 258.13L330.431 257.829L330.061 254.993L329.237 255.143C328.673 249.776 326.453 233.662 320.439 237.155C318.694 240.563 317.155 243.979 315.809 247.358C315.599 251.303 316.233 255.268 316.669 257.432L315.676 257.613L316.591 260.483L318.716 260.075C319.991 266.697 321.838 275.07 323.562 278.396C325.824 282.759 335.531 290.039 342.081 293.582C349.413 292.281 351.097 291.361 351.097 291.361C351.097 291.361 350.86 291.076 350.596 290.46L349.413 290.632C349.413 290.632 336.343 279.536 333.435 275.532Z" fill="#08090D"/>
<path d="M331.64 248.377C331.64 248.377 333.78 271.755 336.496 275.891C339.213 280.028 351.747 291.726 351.747 291.726L360.046 290.912L365.329 296.403L361.199 298.987L356.883 296.801C356.883 296.801 353.574 297.09 349.38 296.63C345.186 296.17 329.256 284.285 326.498 278.29C323.739 272.294 321.333 250.622 321.333 250.622L331.64 248.377Z" fill="#FFADAD"/>
<path d="M333.498 253.422L332.674 253.572C332.1 248.111 329.815 231.507 323.558 235.772C317.543 239.872 319.228 251.51 320.106 255.861L319.113 256.042L320.028 258.912L333.868 256.258L333.498 253.422Z" fill="#004FFF"/>
<path d="M405.292 240.878H385.656C382.37 240.878 379.706 243.542 379.706 246.828V258.454C379.706 261.74 382.37 264.403 385.655 264.403H391.273V268.927C391.273 270.05 392.631 270.612 393.425 269.818L398.84 264.403H405.291C408.577 264.403 411.241 261.739 411.241 258.453V246.828C411.241 243.542 408.578 240.878 405.292 240.878Z" fill="#004FFF"/>
<path d="M400.54 246.436C400.03 246.436 399.776 246.436 399.266 246.436C397.89 246.436 397.202 246.436 395.826 246.436C395.316 246.436 395.061 246.436 394.552 246.436C393.177 246.436 392.489 246.436 391.113 246.436C391.02 245.655 390.974 245.265 390.881 244.484C388.806 244.484 387.769 244.484 385.694 244.484C385.804 244.93 385.859 245.153 385.969 245.599C387.466 245.599 388.214 245.599 389.711 245.599C389.762 245.934 389.787 246.101 389.838 246.436C390.089 248.087 390.214 248.912 390.466 250.563C390.534 251.009 390.568 251.232 390.636 251.679C390.887 253.33 391.013 254.155 391.264 255.805C391.398 256.687 391.466 257.128 391.6 258.01C395.742 258.01 397.808 258.01 401.95 258.01C402.053 257.564 402.104 257.341 402.207 256.894C398.266 256.894 396.299 256.894 392.359 256.894C392.307 256.458 392.281 256.24 392.229 255.805C393.271 255.805 393.792 255.805 394.834 255.805C395.22 255.805 395.413 255.805 395.799 255.805C396.841 255.805 397.362 255.805 398.404 255.805C398.79 255.805 398.983 255.805 399.369 255.805C400.797 255.805 401.511 255.805 402.94 255.805C403.348 254.154 403.552 253.329 403.959 251.679C404.069 251.233 404.124 251.01 404.234 250.563C404.641 248.912 404.845 248.087 405.253 246.436C403.368 246.436 402.426 246.436 400.54 246.436ZM391.246 247.551C392.582 247.551 393.25 247.551 394.585 247.551C394.621 248.755 394.64 249.358 394.676 250.562C393.447 250.562 392.833 250.562 391.604 250.562C391.461 249.358 391.389 248.756 391.246 247.551ZM392.096 254.689C391.952 253.485 391.881 252.882 391.737 251.678C392.926 251.678 393.52 251.678 394.709 251.678C394.745 252.882 394.764 253.485 394.8 254.689C393.719 254.689 393.178 254.689 392.096 254.689ZM398.507 254.689C397.425 254.689 396.884 254.689 395.802 254.689C395.805 253.485 395.807 252.882 395.81 251.678C396.999 251.678 397.594 251.678 398.783 251.678C398.673 252.882 398.618 253.484 398.507 254.689ZM398.887 250.562C397.658 250.562 397.043 250.562 395.814 250.562C395.817 249.358 395.819 248.755 395.823 247.551C397.159 247.551 397.828 247.551 399.164 247.551C399.053 248.756 398.997 249.358 398.887 250.562ZM402.214 254.689C401.132 254.689 400.591 254.689 399.509 254.689C399.66 253.485 399.735 252.882 399.885 251.678C401.074 251.678 401.668 251.678 402.858 251.678C402.6 252.882 402.472 253.484 402.214 254.689ZM403.097 250.562C401.868 250.562 401.254 250.562 400.025 250.562C400.176 249.358 400.251 248.755 400.401 247.551C401.737 247.551 402.405 247.551 403.741 247.551C403.483 248.756 403.354 249.358 403.097 250.562Z" fill="#F2F4F7"/>
<path d="M392.244 259.055C391.512 259.055 390.919 259.648 390.919 260.38C390.919 261.112 391.512 261.705 392.244 261.705C392.976 261.705 393.569 261.112 393.569 260.38C393.569 259.648 392.976 259.055 392.244 259.055Z" fill="#F2F4F7"/>
<path d="M401.656 261.704C402.388 261.704 402.981 261.111 402.981 260.379C402.981 259.647 402.388 259.054 401.656 259.054C400.924 259.054 400.331 259.647 400.331 260.379C400.331 261.111 400.924 261.704 401.656 261.704Z" fill="#F2F4F7"/>
<path d="M131.219 333.557L128.826 333.431L129.395 322.592C129.782 315.216 136.098 309.216 143.474 309.216C147.072 309.216 150.385 310.62 152.805 313.169C155.228 315.723 156.458 319.114 156.27 322.718L155.703 333.557L153.309 333.431L153.876 322.592C154.03 319.651 153.033 316.89 151.066 314.818C149.104 312.75 146.408 311.612 143.474 311.612C137.351 311.612 132.109 316.594 131.788 322.719L131.219 333.557Z" fill="#171B26"/>
<path d="M182.494 328.737H111.816L109.421 412.586L119.902 410.19L130.384 412.586H184.89L182.494 328.737Z" fill="#004FFF"/>
<path opacity="0.6" d="M182.494 328.737H111.816L109.421 412.586L119.902 410.19L130.384 412.586H184.89L182.494 328.737Z" fill="#F2F4F7"/>
<path d="M130.384 412.586L119.902 410.19L109.421 412.586L111.816 328.737H127.988L130.384 412.586Z" fill="#004FFF"/>
<path opacity="0.3" d="M130.384 412.586L119.902 410.19L109.421 412.586L111.816 328.737H127.988L130.384 412.586Z" fill="#F2F4F7"/>
<path d="M167.527 333.557L166.958 322.718C166.639 316.594 161.397 311.611 155.272 311.611C152.338 311.611 149.642 312.749 147.68 314.817C145.713 316.889 144.716 319.65 144.87 322.591L145.438 333.43L143.045 333.556L142.477 322.717C142.289 319.113 143.519 315.721 145.942 313.168C148.361 310.619 151.674 309.215 155.273 309.215C162.65 309.215 168.966 315.216 169.352 322.592L169.921 333.429L167.527 333.557Z" fill="#171B26"/>
<g opacity="0.2">
<path d="M167.527 333.557L166.958 322.718C166.639 316.594 161.397 311.611 155.272 311.611C152.338 311.611 149.642 312.749 147.68 314.817C145.713 316.889 144.716 319.65 144.87 322.591L145.438 333.43L143.045 333.556L142.477 322.717C142.289 319.113 143.519 315.721 145.942 313.168C148.361 310.619 151.674 309.215 155.273 309.215C162.65 309.215 168.966 315.216 169.352 322.592L169.921 333.429L167.527 333.557Z" fill="#F2F4F7"/>
</g>
<path d="M172.939 367.351H140.087C139.345 367.351 138.743 366.749 138.743 366.007V360.708C138.743 359.966 139.345 359.365 140.087 359.365H172.939C173.681 359.365 174.282 359.967 174.282 360.708V366.007C174.283 366.75 173.681 367.351 172.939 367.351Z" fill="#F2F4F7"/>
<path d="M98.738 359.608L97.134 359.523L97.515 352.257C97.775 347.313 102.009 343.29 106.953 343.29C109.365 343.29 111.586 344.231 113.208 345.94C114.832 347.652 115.657 349.925 115.531 352.342L115.151 359.608L113.547 359.523L113.927 352.257C114.031 350.286 113.361 348.435 112.043 347.046C110.728 345.659 108.92 344.896 106.953 344.896C102.848 344.896 99.334 348.236 99.119 352.341L98.738 359.608Z" fill="#171B26"/>
<path d="M133.11 356.377H85.731L84.125 412.586L91.151 410.98L98.178 412.586H134.717L133.11 356.377Z" fill="#004FFF"/>
<path d="M98.178 412.586L91.151 410.98L84.125 412.586L85.731 356.377H96.572L98.178 412.586Z" fill="#004FFF"/>
<path opacity="0.2" d="M98.178 412.586L91.151 410.98L84.125 412.586L85.731 356.377H96.572L98.178 412.586Z" fill="#08090D"/>
<path d="M123.077 359.608L122.696 352.342C122.482 348.237 118.968 344.897 114.862 344.897C112.895 344.897 111.088 345.66 109.772 347.047C108.454 348.436 107.785 350.287 107.888 352.258L108.269 359.524L106.665 359.609L106.284 352.343C106.158 349.927 106.983 347.653 108.607 345.941C110.229 344.232 112.45 343.291 114.862 343.291C119.807 343.291 124.041 347.314 124.3 352.259L124.681 359.524L123.077 359.608Z" fill="#171B26"/>
<g opacity="0.2">
<path d="M123.077 359.608L122.696 352.342C122.482 348.237 118.968 344.897 114.862 344.897C112.895 344.897 111.088 345.66 109.772 347.047C108.454 348.436 107.785 350.287 107.888 352.258L108.269 359.524L106.665 359.609L106.284 352.343C106.158 349.927 106.983 347.653 108.607 345.941C110.229 344.232 112.45 343.291 114.862 343.291C119.807 343.291 124.041 347.314 124.3 352.259L124.681 359.524L123.077 359.608Z" fill="#F2F4F7"/>
</g>
<path d="M126.262 382.262H105.125C104.383 382.262 103.782 381.66 103.782 380.919V378.252C103.782 377.51 104.383 376.909 105.125 376.909H126.262C127.004 376.909 127.605 377.511 127.605 378.252V380.919C127.606 381.661 127.004 382.262 126.262 382.262Z" fill="#F2F4F7"/>
<path d="M171.678 407.101L164.068 406.306L164.446 388.529L172.056 389.324L171.678 407.101Z" fill="#FFADAD"/>
<path d="M236.064 381.595L229.246 385.068L219.012 370.394L225.83 366.922L236.064 381.595Z" fill="#FFADAD"/>
<path d="M227.828 384.121L234.826 379.129C235.081 378.947 235.413 378.977 235.627 379.2L240.374 384.168C240.866 384.683 240.76 385.579 240.166 385.988C237.696 387.687 236.418 388.382 233.34 390.577C231.447 391.928 228.821 394.098 226.206 395.963C223.649 397.787 221.608 395.342 222.529 394.331C226.662 389.799 226.4 387.801 227.059 385.246C227.179 384.786 227.455 384.387 227.828 384.121Z" fill="#171B26"/>
<path d="M163.421 405.347L171.971 406.24C172.282 406.273 172.512 406.515 172.524 406.823L172.791 413.689C172.819 414.401 172.146 415.002 171.43 414.915C168.454 414.552 167.036 414.227 163.276 413.834C160.963 413.592 154.294 413.138 151.1 412.805C147.976 412.479 148.065 409.295 149.426 409.148C155.524 408.489 159.915 407.159 162.101 405.682C162.495 405.416 162.966 405.3 163.421 405.347Z" fill="#171B26"/>
<g opacity="0.2">
<path d="M164.447 388.534L164.251 397.697L171.865 398.492L172.061 389.329L164.447 388.534Z" fill="#08090D"/>
<path d="M225.834 366.925L219.013 370.399L224.292 377.961L231.113 374.487L225.834 366.925Z" fill="#08090D"/>
</g>
<path d="M168.089 234.932C168.089 234.932 160.198 293.656 159.963 316.995C159.719 341.271 162.803 395.767 162.803 395.767L173.094 396.842C173.094 396.842 177.269 343.243 178.935 319.446C180.751 293.504 190.835 235.649 190.835 235.649L168.089 234.932Z" fill="#171B26"/>
<path d="M173.948 397.304L161.873 396.043L161.39 392.099L174.961 393.04L173.948 397.304Z" fill="#004FFF"/>
<path opacity="0.6" d="M181.025 250.013C172.912 265.12 178.126 293.309 180.495 303.81C182.372 288.21 185.308 269.161 187.569 255.175C186.664 247.194 184.766 243.048 181.025 250.013Z" fill="#08090D"/>
<path d="M176.292 235.191C176.292 235.191 181.396 296.662 186.089 316.493C191.661 340.037 221.842 377.224 221.842 377.224L231.14 372.489C231.14 372.489 210.692 331.167 206.257 318.715C196.791 292.141 206.837 253.301 199.15 235.913L176.292 235.191Z" fill="#171B26"/>
<path d="M232.459 372.428L220.924 378.303L217.849 375.303L231.106 367.78L232.459 372.428Z" fill="#004FFF"/>
<path d="M225.145 387.259C225.114 387.258 225.083 387.256 225.053 387.252C224.709 387.211 224.439 387.005 224.25 386.642C224.108 386.368 224.17 386.151 224.247 386.018C224.738 385.173 227.501 385.045 227.814 385.033C227.891 385.029 227.953 385.071 227.985 385.136C228.016 385.201 228.006 385.279 227.958 385.333C227.308 386.076 226.097 387.289 225.145 387.259ZM227.389 385.421C226.286 385.505 224.819 385.756 224.56 386.201C224.528 386.257 224.5 386.339 224.57 386.476C224.702 386.73 224.874 386.866 225.095 386.893C225.613 386.953 226.459 386.41 227.389 385.421Z" fill="#004FFF"/>
<path d="M227.557 385.402C226.607 385.372 224.878 384.865 224.553 384.143C224.484 383.989 224.419 383.686 224.756 383.377C224.97 383.181 225.23 383.097 225.521 383.129C226.626 383.246 227.914 385.033 227.968 385.109C228.006 385.161 228.012 385.23 227.986 385.289C227.959 385.348 227.904 385.388 227.84 385.395C227.757 385.403 227.662 385.405 227.557 385.402ZM225.428 383.485C225.264 383.48 225.124 383.532 225.001 383.644C224.829 383.801 224.848 383.914 224.884 383.994C225.103 384.483 226.53 384.988 227.46 385.039C227 384.466 226.142 383.558 225.484 383.489C225.465 383.487 225.446 383.486 225.428 383.485Z" fill="#004FFF"/>
<path d="M160.426 406.379C159.669 406.3 158.984 406.11 158.629 405.718C158.404 405.469 158.325 405.162 158.395 404.806C158.437 404.593 158.56 404.439 158.751 404.359C159.736 403.946 162.609 405.812 162.933 406.026C162.997 406.069 163.028 406.147 163.009 406.221C162.99 406.296 162.927 406.35 162.85 406.357C162.189 406.418 161.264 406.466 160.426 406.379ZM159.234 404.663C159.094 404.648 158.978 404.657 158.891 404.693C158.812 404.726 158.769 404.782 158.751 404.876C158.703 405.117 158.752 405.313 158.898 405.475C159.316 405.938 160.561 406.142 162.277 406.038C161.285 405.427 159.955 404.738 159.234 404.663Z" fill="#004FFF"/>
<path d="M162.814 406.357C162.789 406.354 162.764 406.347 162.742 406.333C161.878 405.828 160.254 403.999 160.485 403.152C160.54 402.951 160.711 402.712 161.215 402.714C161.587 402.715 161.913 402.855 162.181 403.129C163.055 404.026 163.016 406.093 163.014 406.18C163.012 406.244 162.977 406.303 162.921 406.334C162.888 406.353 162.85 406.361 162.814 406.357ZM161.323 403.082C161.288 403.078 161.251 403.076 161.214 403.076C160.881 403.075 160.846 403.204 160.835 403.247C160.697 403.756 161.78 405.174 162.646 405.831C162.619 405.225 162.494 403.97 161.921 403.382C161.748 403.205 161.552 403.106 161.323 403.082Z" fill="#004FFF"/>
<path d="M164.811 203.707C161.922 207.53 158.889 210.937 155.327 214.208C153.544 215.836 151.66 217.401 149.346 218.781C148.182 219.464 146.915 220.131 145.295 220.583C144.485 220.805 143.568 220.976 142.506 220.961C141.984 220.959 141.413 220.893 140.843 220.766C140.557 220.7 140.265 220.613 139.981 220.513C139.678 220.391 139.471 220.328 139.026 220.083C138.253 219.66 137.623 219.07 137.215 218.53C136.797 217.987 136.504 217.449 136.308 216.981C135.894 216.018 135.736 215.214 135.62 214.461C135.408 212.966 135.419 211.671 135.474 210.412C135.598 207.908 135.99 205.588 136.432 203.297C137.355 198.724 138.629 194.369 140.193 190.027L144.334 191.098C143.735 195.452 143.19 199.886 142.859 204.188C142.694 206.334 142.614 208.481 142.697 210.46C142.738 211.44 142.844 212.394 143.026 213.106C143.113 213.453 143.231 213.744 143.284 213.802C143.338 213.9 143.296 213.589 142.697 213.216C142.494 213.117 142.557 213.134 142.513 213.117C142.495 213.103 142.474 213.093 142.461 213.086C142.44 213.066 142.428 213.067 142.467 213.051C142.527 213.035 142.722 212.993 142.983 212.89C143.508 212.686 144.245 212.303 144.977 211.799C146.459 210.788 147.997 209.426 149.485 207.996C150.977 206.553 152.406 204.976 153.822 203.374C155.239 201.797 156.643 200.075 157.927 198.492L164.811 203.707Z" fill="#FFADAD"/>
<path d="M163.144 192.698C160.006 191.835 150.719 203.694 150.719 203.694L159.598 213.599C159.598 213.599 170.014 204.203 169.622 199.989C169.213 195.602 167.723 193.957 163.144 192.698Z" fill="#004FFF"/>
<path d="M144.436 189.979L144.089 183.746L138.081 188.691C138.081 188.691 138.987 193.52 142.02 194.479L143.892 191.854C144.282 191.309 144.473 190.648 144.436 189.979Z" fill="#FFADAD"/>
<path d="M140.184 178.634L135.378 183.046L138.082 188.691L144.089 183.746L140.184 178.634Z" fill="#FFADAD"/>
<path d="M137.739 190.683L136.354 190.179C135.575 189.895 135.115 189.089 135.269 188.274L137.379 177.053L141.166 178.432L140.003 189.272C139.886 190.366 138.773 191.059 137.739 190.683Z" fill="#171B26"/>
<path d="M147.735 176.427C147.971 175.778 148.197 175.136 148.415 174.5C147.82 173.39 146.641 172.201 145.063 171.058C144.559 172.291 144.059 173.576 143.573 174.911C143.087 176.246 142.643 177.552 142.237 178.821C144.181 178.96 145.849 178.808 147.018 178.34C147.258 177.713 147.498 177.076 147.735 176.427Z" fill="#171B26"/>
<path d="M145.222 175.516C145.885 173.695 146.321 171.986 146.491 170.696L134.058 166.169L130.675 175.46L143.115 179.989C143.809 178.895 144.566 177.32 145.222 175.516Z" fill="#004FFF"/>
<path opacity="0.6" d="M145.222 175.516C145.885 173.695 146.321 171.986 146.491 170.696L134.058 166.169L130.675 175.46L143.115 179.989C143.809 178.895 144.566 177.32 145.222 175.516Z" fill="#F2F4F7"/>
<path d="M137.293 166.478C136.728 166.272 123.328 152.452 121.792 151.893C120.158 151.298 116.661 156.78 113.982 164.138C111.303 171.496 110.456 177.943 112.09 178.538C113.626 179.097 132.775 177.128 133.34 177.334C134.006 177.576 135.43 175.343 136.522 172.345C137.613 169.347 137.958 166.721 137.293 166.478Z" fill="#004FFF"/>
<path opacity="0.4" d="M137.293 166.478C136.728 166.272 123.328 152.452 121.792 151.893C120.158 151.298 116.661 156.78 113.982 164.138C111.303 171.496 110.456 177.943 112.09 178.538C113.626 179.097 132.775 177.128 133.34 177.334C134.006 177.576 135.43 175.343 136.522 172.345C137.613 169.347 137.958 166.721 137.293 166.478Z" fill="#F2F4F7"/>
<path d="M119.9 166.293C117.221 173.651 113.725 179.133 112.09 178.538C110.456 177.943 111.303 171.496 113.982 164.138C116.661 156.78 120.157 151.298 121.792 151.893C123.426 152.488 122.579 158.935 119.9 166.293Z" fill="#004FFF"/>
<path d="M115.946 164.853C115.769 165.34 115.601 165.823 115.439 166.3C116.061 167.197 117.23 168.193 118.765 169.179C119.153 168.257 119.534 167.294 119.899 166.292C120.264 165.29 120.591 164.308 120.886 163.352C119.076 163.12 117.54 163.131 116.487 163.418C116.305 163.888 116.123 164.366 115.946 164.853Z" fill="#171B26"/>
<path opacity="0.7" d="M115.946 164.853C115.769 165.34 115.601 165.823 115.439 166.3C116.061 167.197 117.23 168.193 118.765 169.179C119.153 168.257 119.534 167.294 119.899 166.292C120.264 165.29 120.591 164.308 120.886 163.352C119.076 163.12 117.54 163.131 116.487 163.418C116.305 163.888 116.123 164.366 115.946 164.853Z" fill="#F2F4F7"/>
<path opacity="0.2" d="M160.524 199.671C160.984 206.32 159.427 210.278 158.333 212.189L159.598 213.6C159.598 213.6 165.473 208.3 168.232 203.876C165.13 199.282 160.04 192.684 160.524 199.671Z" fill="#08090D"/>
<path d="M195.478 161.846C199.647 161.846 203.026 158.467 203.026 154.298C203.026 150.129 199.647 146.75 195.478 146.75C191.309 146.75 187.93 150.129 187.93 154.298C187.93 158.467 191.309 161.846 195.478 161.846Z" fill="#171B26"/>
<path d="M194.665 157.742C194.665 160.36 192.543 162.483 189.924 162.483C187.306 162.483 185.183 160.361 185.183 157.742C185.183 155.124 187.305 153.001 189.924 153.001C192.543 153.001 194.665 155.124 194.665 157.742Z" fill="#004FFF"/>
<path d="M174.842 151.849C174.842 151.849 164.808 151.03 164.826 168.231C164.839 180.01 170.548 185.461 177.561 181.5C177.561 181.5 193.025 180.231 194.804 166.084C196.583 151.937 185.652 146.663 174.842 151.849Z" fill="#171B26"/>
<path d="M161.097 193.157C161.097 193.157 157.554 194.702 168.093 238.953C180.392 238.059 193.103 237.135 199.088 236.7C197.651 224.123 197.071 216.345 201.218 190.018C201.218 190.018 194.621 189.077 187.93 189.241C182.696 189.369 178.41 189.513 173.856 190.265C167.85 191.256 161.097 193.157 161.097 193.157Z" fill="#004FFF"/>
<path d="M185.383 173.495C184.824 178.088 184.542 186.45 187.93 189.241C187.93 189.241 187.026 193.925 178.611 194.537C169.358 195.21 173.855 190.265 173.855 190.265C178.817 188.692 178.414 184.955 177.279 181.5L185.383 173.495Z" fill="#FFADAD"/>
<path opacity="0.2" d="M182.079 176.761L177.282 181.496C177.554 182.313 177.779 183.146 177.898 183.963C179.807 183.544 182.303 181.234 182.361 179.199C182.39 178.183 182.277 177.218 182.079 176.761Z" fill="#08090D"/>
<path d="M190.561 165.85C188.827 173.243 188.25 176.41 183.822 179.601C177.161 184.401 168.459 180.653 167.95 172.891C167.491 165.904 170.405 154.987 178.226 153.262C185.931 151.563 192.295 158.457 190.561 165.85Z" fill="#FFADAD"/>
<path d="M177.815 165.8C177.711 166.408 177.305 166.846 176.907 166.779C176.509 166.711 176.271 166.163 176.375 165.555C176.479 164.947 176.885 164.508 177.283 164.576C177.681 164.644 177.919 165.192 177.815 165.8Z" fill="#171B26"/>
<path d="M170.938 164.626C170.834 165.234 170.428 165.672 170.03 165.605C169.632 165.537 169.394 164.989 169.498 164.38C169.602 163.772 170.008 163.333 170.406 163.401C170.804 163.469 171.042 164.018 170.938 164.626Z" fill="#171B26"/>
<path d="M170.576 163.465L169.187 162.794C169.187 162.794 169.742 164.064 170.576 163.465Z" fill="#171B26"/>
<path d="M173.362 166.084C173.362 166.084 171.882 168.527 170.53 169.597C171.205 170.484 172.629 170.374 172.629 170.374L173.362 166.084Z" fill="#FF7070"/>
<path d="M191.415 173.047C190.635 174.414 189.296 175.294 188.043 175.615C186.158 176.098 185.257 174.401 185.816 172.644C186.319 171.062 187.907 168.905 189.782 169.201C191.63 169.493 192.308 171.484 191.415 173.047Z" fill="#FFADAD"/>
<path d="M180.814 164.871C180.661 164.869 180.521 164.769 180.474 164.615C179.98 163.012 177.932 162.327 177.912 162.321C177.722 162.259 177.618 162.054 177.68 161.864C177.742 161.674 177.945 161.569 178.137 161.632C178.236 161.664 180.564 162.444 181.167 164.402C181.226 164.593 181.119 164.796 180.927 164.855C180.889 164.866 180.851 164.871 180.814 164.871Z" fill="#171B26"/>
<path d="M169.414 161.097C169.29 161.095 169.171 161.03 169.105 160.915C169.006 160.741 169.066 160.52 169.24 160.42C170.979 159.424 172.479 160.168 172.541 160.2C172.719 160.291 172.79 160.51 172.699 160.688C172.609 160.865 172.391 160.936 172.213 160.846C172.164 160.821 170.99 160.253 169.601 161.048C169.542 161.082 169.477 161.098 169.414 161.097Z" fill="#171B26"/>
<path d="M177.453 164.639L176.064 163.968C176.064 163.968 176.618 165.238 177.453 164.639Z" fill="#171B26"/>
<path d="M173.234 172.259C173.234 172.259 175.245 171.693 180.955 171.417C180.369 173.166 179.188 174.627 176.262 174.741C173.337 174.854 173.234 172.259 173.234 172.259Z" fill="#171B26"/>
<path d="M177.553 173.326C176.141 173.381 175.137 173.752 174.407 174.31C174.837 174.592 175.441 174.77 176.259 174.738C177.671 174.683 178.669 174.321 179.398 173.755C178.968 173.473 178.371 173.294 177.553 173.326Z" fill="#FF7070"/>
<path d="M173.491 172.197C173.671 172.555 173.849 172.914 174.427 173.005C175.621 173.029 178.649 172.543 179.459 172.333C179.979 172.222 180.417 172.022 180.708 171.428C176.312 171.652 174.178 172.046 173.491 172.197Z" fill="#F2F4F7"/>
<path d="M169.24 160.42C169.24 160.42 173.079 158.863 174.977 155.926C174.977 155.926 175.012 161.248 177.15 160.84C179.288 160.432 176.064 155.921 176.064 155.921C176.064 155.921 181.075 158.138 182.773 162.483C184.471 166.828 186.428 171.557 190.283 170.378C194.138 169.2 193.287 156.901 187.605 153.831L179.566 152.394L177.21 152.735C176 152.91 174.838 153.331 173.795 153.971C172.214 154.942 170.973 156.378 170.241 158.083L169.24 160.42Z" fill="#171B26"/>
<path d="M187.914 161.064C187.545 160.284 185.772 160.348 183.955 161.207C182.137 162.067 182.062 162.876 182.431 163.657C182.8 164.437 183.474 164.893 185.291 164.033C187.108 163.174 188.283 161.844 187.914 161.064ZM183.625 163.092C183.361 162.534 183.415 161.955 184.714 161.341C186.013 160.727 187.28 160.681 187.543 161.239C187.807 161.797 186.967 162.747 185.669 163.361C184.37 163.975 183.889 163.65 183.625 163.092Z" fill="#004FFF"/>
<path opacity="0.2" d="M197.799 200.284L195.448 198.264L193.706 199.048C193.706 199.048 192.298 207.693 198.136 216.497C198.29 213.17 198.603 209.418 199.127 204.937C198.396 202.255 197.799 200.284 197.799 200.284Z" fill="#08090D"/>
<path d="M229.481 224.648L228.215 224.781L227.613 219.046C227.203 215.144 230.019 211.47 233.889 210.857C235.777 210.558 237.632 211.019 239.114 212.156C240.598 213.295 241.525 214.972 241.726 216.879L242.329 222.613L241.063 222.746L240.46 217.012C240.297 215.456 239.543 214.09 238.339 213.167C237.138 212.245 235.628 211.872 234.089 212.115C230.876 212.624 228.54 215.674 228.88 218.914L229.481 224.648Z" fill="#171B26"/>
<path d="M205.914 198.957C206.085 199.818 206.333 200.881 206.559 201.853C206.797 202.846 207.058 203.838 207.338 204.822C207.898 206.79 208.486 208.748 209.197 210.639C210.62 214.407 212.334 218.039 214.587 220.942L214.799 221.212L214.904 221.347C214.879 221.317 214.827 221.265 214.783 221.232C214.608 221.075 214.375 220.969 214.235 220.922C213.932 220.835 213.942 220.919 214.139 220.918C214.544 220.944 215.388 220.766 216.213 220.481C217.907 219.889 219.77 219.003 221.573 218.013C225.205 216.038 228.872 213.732 232.427 211.416L235.192 214.68C232.055 217.908 228.767 220.848 225.068 223.543C223.194 224.863 221.278 226.161 218.949 227.224C217.762 227.744 216.519 228.262 214.753 228.484C213.872 228.573 212.768 228.591 211.446 228.119C210.793 227.887 210.098 227.477 209.519 226.96C209.379 226.832 209.229 226.685 209.108 226.559L208.948 226.385L208.629 226.037C206.926 224.176 205.53 222.162 204.334 220.093C203.119 218.03 202.12 215.899 201.246 213.743C200.376 211.586 199.599 209.413 198.967 207.202C198.654 206.096 198.365 204.985 198.099 203.864C197.826 202.722 197.607 201.662 197.399 200.383L205.914 198.957Z" fill="#FFADAD"/>
<path d="M201.217 190.018C204.391 190.737 209.943 202.203 209.943 202.203L197.477 210.648C197.477 210.648 192.435 202.041 193.448 197.933C194.503 193.653 197.595 189.198 201.217 190.018Z" fill="#004FFF"/>
<path d="M231.9 211.444L239.138 207.451L237.621 215.083C237.621 215.083 232.937 216.568 230.658 214.349L231.9 211.444Z" fill="#FFADAD"/>
<path d="M245.489 208.475L243.874 214.796L237.621 215.083L239.138 207.451L245.489 208.475Z" fill="#FFADAD"/>
<path d="M248.532 221.631L247.333 215.991C246.657 212.804 243.492 210.625 240.278 211.134C238.738 211.378 237.418 212.199 236.561 213.448C235.701 214.699 235.407 216.23 235.733 217.761L236.932 223.401L235.687 223.666L234.488 218.026C234.09 216.15 234.454 214.269 235.513 212.727C236.571 211.188 238.192 210.176 240.081 209.877C243.952 209.264 247.765 211.888 248.58 215.726L249.779 221.365L248.532 221.631Z" fill="#171B26"/>
<g opacity="0.3">
<path d="M248.532 221.631L247.333 215.991C246.657 212.804 243.492 210.625 240.278 211.134C238.738 211.378 237.418 212.199 236.561 213.448C235.701 214.699 235.407 216.23 235.733 217.761L236.932 223.401L235.687 223.666L234.488 218.026C234.09 216.15 234.454 214.269 235.513 212.727C236.571 211.188 238.192 210.176 240.081 209.877C243.952 209.264 247.765 211.888 248.58 215.726L249.779 221.365L248.532 221.631Z" fill="#F2F4F7"/>
</g>
<path d="M255.986 217.858L218.899 223.732L224.611 267.928L229.912 265.8L235.611 266.186L264.211 261.656L255.986 217.858Z" fill="#004FFF"/>
<path opacity="0.6" d="M255.986 217.858L218.899 223.732L224.611 267.928L229.912 265.8L235.611 266.186L264.211 261.656L255.986 217.858Z" fill="#F2F4F7"/>
<path d="M235.611 266.186L229.912 265.8L224.611 267.928L218.899 223.732L227.385 222.388L235.611 266.186Z" fill="#004FFF"/>
<path opacity="0.3" d="M235.611 266.186L229.912 265.8L224.611 267.928L218.899 223.732L227.385 222.388L235.611 266.186Z" fill="#F2F4F7"/>
<path d="M252.843 240.02L237.506 242.449C236.682 242.58 235.909 242.018 235.778 241.194L235.757 241.06C235.626 240.236 236.188 239.463 237.012 239.332L252.349 236.903C253.173 236.772 253.946 237.335 254.077 238.158L254.098 238.292C254.229 239.116 253.667 239.889 252.843 240.02Z" fill="#F2F4F7"/>
</svg>
