<svg width="500" height="500" viewBox="0 0 500 500" fill="none" xmlns="http://www.w3.org/2000/svg">
<path d="M500 382.398H0V382.648H500V382.398Z" fill="#262D40"/>
<path d="M449.901 398.494H416.779V398.744H449.901V398.494Z" fill="#262D40"/>
<path d="M331.22 401.208H322.527V401.458H331.22V401.208Z" fill="#262D40"/>
<path d="M415.778 389.208H396.586V389.458H415.778V389.208Z" fill="#262D40"/>
<path d="M95.652 390.888H52.459V391.138H95.652V390.888Z" fill="#262D40"/>
<path d="M110.889 390.888H104.556V391.138H110.889V390.888Z" fill="#262D40"/>
<path d="M225.147 395.111H131.471V395.361H225.147V395.111Z" fill="#262D40"/>
<path d="M237.014 337.8H43.915C40.768 337.8 38.207 335.239 38.207 332.092V60.66C38.207 57.513 40.768 54.952 43.915 54.952H237.014C240.16 54.952 242.721 57.513 242.721 60.66V332.092C242.721 335.239 240.16 337.8 237.014 337.8ZM43.915 55.203C40.905 55.203 38.457 57.651 38.457 60.661V332.093C38.457 335.103 40.905 337.551 43.915 337.551H237.014C240.023 337.551 242.471 335.103 242.471 332.093V60.66C242.471 57.651 240.023 55.202 237.014 55.202L43.915 55.203Z" fill="#262D40"/>
<path d="M453.31 337.8H260.212C257.065 337.8 254.505 335.239 254.505 332.092V60.66C254.505 57.513 257.066 54.952 260.212 54.952H453.31C456.458 54.952 459.018 57.513 459.018 60.66V332.092C459.019 335.239 456.458 337.8 453.31 337.8ZM260.212 55.203C257.203 55.203 254.755 57.651 254.755 60.661V332.093C254.755 335.103 257.203 337.551 260.212 337.551H453.31C456.32 337.551 458.768 335.103 458.768 332.093V60.66C458.768 57.651 456.32 55.202 453.31 55.202L260.212 55.203Z" fill="#262D40"/>
<path d="M409.527 123.787L327.197 229.061L266.776 241.186L204.114 286.837L165.985 258.695L85.598 382.235H107.072L170.659 284.516L204.044 309.157L274.186 258.057L337.272 245.398L423.706 134.876L409.527 123.787Z" fill="#171B26"/>
<path d="M427.507 110.462L392.439 119.655L425.664 146.668L427.507 110.462Z" fill="#171B26"/>
<path d="M137.548 168.014C160.065 168.014 178.319 149.76 178.319 127.243C178.319 104.726 160.065 86.472 137.548 86.472C115.031 86.472 96.777 104.726 96.777 127.243C96.777 149.76 115.031 168.014 137.548 168.014Z" fill="#171B26"/>
<path d="M137.548 127.243L174.131 109.244C176.886 114.844 178.319 121.002 178.319 127.243C178.319 149.609 159.914 168.014 137.548 168.014C115.182 168.014 96.777 149.609 96.777 127.243C96.777 115.896 101.514 105.049 109.837 97.337L137.548 127.243Z" fill="#262D40"/>
<path d="M137.548 127.243L129.096 167.129C110.324 163.151 96.776 146.433 96.776 127.243C96.776 115.896 101.513 105.049 109.836 97.337L137.548 127.243Z" fill="#0F121A"/>
<path d="M137.548 149.278C149.718 149.278 159.583 139.413 159.583 127.243C159.583 115.073 149.718 105.208 137.548 105.208C125.378 105.208 115.513 115.073 115.513 127.243C115.513 139.413 125.378 149.278 137.548 149.278Z" fill="#EBF1FF"/>
<path d="M101.471 238.031H69.017V259.301H101.471V238.031Z" fill="#0F121A"/>
<path d="M101.471 238.031H69.017V242.515H101.471V238.031Z" fill="#171B26"/>
<path d="M436.362 328.942H403.908V350.212H436.362V328.942Z" fill="#0F121A"/>
<path d="M436.362 328.942H403.908V333.426H436.362V328.942Z" fill="#171B26"/>
<path d="M339.207 80.916H306.753V102.186H339.207V80.916Z" fill="#0F121A"/>
<path d="M339.207 80.916H306.753V85.4H339.207V80.916Z" fill="#171B26"/>
<path d="M274.144 338.087H241.69V359.357H274.144V338.087Z" fill="#0F121A"/>
<path d="M274.144 338.087H241.69V342.571H274.144V338.087Z" fill="#171B26"/>
<path d="M250 427.561C357.082 427.561 443.889 422.492 443.889 416.238C443.889 409.985 357.082 404.915 250 404.915C142.918 404.915 56.111 409.985 56.111 416.238C56.111 422.492 142.918 427.561 250 427.561Z" fill="#0F121A"/>
<path d="M331.163 313.997H94.942C92.223 313.997 90.02 311.793 90.02 309.075V126.655C90.02 123.936 92.224 121.733 94.942 121.733H331.163C333.882 121.733 336.085 123.937 336.085 126.655V309.074C336.086 311.793 333.882 313.997 331.163 313.997Z" fill="#004FFF"/>
<path opacity="0.8" d="M336.081 135.491V309.071C336.081 311.791 333.881 314.001 331.161 314.001H94.941C92.221 314.001 90.021 311.791 90.021 309.071V135.491H336.081Z" fill="#EBF1FF"/>
<path d="M110.984 166.423H149.556" stroke="#171B26" stroke-miterlimit="10"/>
<path d="M110.984 170.182H149.556" stroke="#171B26" stroke-miterlimit="10"/>
<path d="M110.984 173.94H149.556" stroke="#171B26" stroke-miterlimit="10"/>
<path d="M110.984 177.698H149.556" stroke="#171B26" stroke-miterlimit="10"/>
<path d="M110.984 181.456H149.556" stroke="#171B26" stroke-miterlimit="10"/>
<path d="M110.984 185.215H137.548" stroke="#171B26" stroke-miterlimit="10"/>
<path opacity="0.6" d="M154.797 161.38H105.742V190.259H154.797V161.38Z" fill="#EBF1FF"/>
<path d="M171.162 147.652H199.727" stroke="#171B26" stroke-miterlimit="10"/>
<path d="M171.162 151.41H199.727" stroke="#171B26" stroke-miterlimit="10"/>
<path d="M171.162 155.169H199.727" stroke="#171B26" stroke-miterlimit="10"/>
<path d="M171.162 158.927H191.722" stroke="#171B26" stroke-miterlimit="10"/>
<path opacity="0.6" d="M204.969 143.203H165.92V163.376H204.969V143.203Z" fill="#EBF1FF"/>
<path d="M288.753 243.385H317.318" stroke="#171B26" stroke-miterlimit="10"/>
<path d="M288.753 247.144H317.318" stroke="#171B26" stroke-miterlimit="10"/>
<path d="M288.753 250.902H317.318" stroke="#171B26" stroke-miterlimit="10"/>
<path d="M288.753 254.66H309.313" stroke="#171B26" stroke-miterlimit="10"/>
<path opacity="0.6" d="M322.56 238.936H283.511V259.109H322.56V238.936Z" fill="#EBF1FF"/>
<path d="M292.355 300.255C297.665 298.056 300.186 291.969 297.987 286.659C295.787 281.349 289.7 278.828 284.39 281.027C279.081 283.227 276.559 289.314 278.759 294.624C280.958 299.933 287.045 302.455 292.355 300.255Z" fill="#004FFF"/>
<path opacity="0.3" d="M291.772 298.847C296.304 296.97 298.456 291.774 296.579 287.242C294.702 282.71 289.506 280.558 284.974 282.435C280.442 284.312 278.29 289.508 280.167 294.04C282.044 298.572 287.24 300.724 291.772 298.847Z" fill="#EBF1FF"/>
<path d="M288.998 295.43V296.929H287.9V295.444C286.589 295.363 285.317 294.935 284.621 294.333L285.223 292.981C285.879 293.516 286.883 293.904 287.9 293.998V291.322C286.415 290.961 284.822 290.479 284.822 288.618C284.822 287.253 285.812 286.062 287.9 285.862V284.35H288.997V285.835C289.987 285.889 290.991 286.183 291.714 286.651L291.165 288.003C290.456 287.588 289.707 287.36 288.997 287.28V289.983C290.482 290.344 292.101 290.813 292.101 292.673C292.102 294.039 291.099 295.216 288.998 295.43ZM287.9 289.703V287.321C286.95 287.469 286.548 287.95 286.548 288.539C286.549 289.181 287.124 289.475 287.9 289.703ZM290.389 292.794C290.389 292.138 289.8 291.831 288.997 291.603V293.971C289.975 293.824 290.389 293.37 290.389 292.794Z" fill="#004FFF"/>
<path d="M305.127 222.337L299.084 218.315L293.042 222.337V205.726H305.127V222.337Z" fill="#004FFF"/>
<path d="M299.084 196.286L300.03 195.546L300.829 196.443L301.892 195.884L302.518 196.909L303.664 196.549L304.096 197.669L305.288 197.52L305.514 198.699L306.713 198.765L306.725 199.965L307.892 200.244L307.69 201.427L308.789 201.91L308.378 203.038L309.374 203.71L308.768 204.747L309.628 205.585L308.847 206.497L309.543 207.475L308.612 208.233L309.122 209.32L308.07 209.899L308.378 211.06L307.24 211.442L307.336 212.639L306.148 212.812L306.028 214.006L304.828 213.964L304.497 215.118L303.324 214.863L302.793 215.939L301.684 215.479L300.969 216.443L299.96 215.791L299.084 216.612L298.208 215.791L297.2 216.443L296.484 215.479L295.376 215.939L294.844 214.863L293.671 215.118L293.34 213.964L292.14 214.006L292.021 212.812L290.833 212.639L290.928 211.442L289.79 211.06L290.098 209.899L289.047 209.32L289.557 208.233L288.626 207.475L289.322 206.497L288.541 205.585L289.4 204.747L288.795 203.71L289.79 203.038L289.379 201.91L290.479 201.427L290.276 200.244L291.444 199.965L291.456 198.765L292.655 198.699L292.881 197.52L294.072 197.669L294.505 196.549L295.651 196.909L296.276 195.884L297.339 196.443L298.138 195.546L299.084 196.286Z" fill="#004FFF"/>
<path opacity="0.3" d="M299.084 196.286L300.03 195.546L300.829 196.443L301.892 195.884L302.518 196.909L303.664 196.549L304.096 197.669L305.288 197.52L305.514 198.699L306.713 198.765L306.725 199.965L307.892 200.244L307.69 201.427L308.789 201.91L308.378 203.038L309.374 203.71L308.768 204.747L309.628 205.585L308.847 206.497L309.543 207.475L308.612 208.233L309.122 209.32L308.07 209.899L308.378 211.06L307.24 211.442L307.336 212.639L306.148 212.812L306.028 214.006L304.828 213.964L304.497 215.118L303.324 214.863L302.793 215.939L301.684 215.479L300.969 216.443L299.96 215.791L299.084 216.612L298.208 215.791L297.2 216.443L296.484 215.479L295.376 215.939L294.844 214.863L293.671 215.118L293.34 213.964L292.14 214.006L292.021 212.812L290.833 212.639L290.928 211.442L289.79 211.06L290.098 209.899L289.047 209.32L289.557 208.233L288.626 207.475L289.322 206.497L288.541 205.585L289.4 204.747L288.795 203.71L289.79 203.038L289.379 201.91L290.479 201.427L290.276 200.244L291.444 199.965L291.456 198.765L292.655 198.699L292.881 197.52L294.072 197.669L294.505 196.549L295.651 196.909L296.276 195.884L297.339 196.443L298.138 195.546L299.084 196.286Z" fill="#EBF1FF"/>
<path d="M299.084 214.247C303.595 214.247 307.252 210.59 307.252 206.079C307.252 201.568 303.595 197.911 299.084 197.911C294.573 197.911 290.916 201.568 290.916 206.079C290.916 210.59 294.573 214.247 299.084 214.247Z" fill="#004FFF"/>
<path opacity="0.3" d="M295.124 205.761L298.806 208.985L303.036 203.279" stroke="#EBF1FF" stroke-width="2" stroke-miterlimit="10"/>
<path d="M254.143 152.668C252.093 150.628 249.413 149.598 246.733 149.598C244.053 149.598 241.373 150.628 239.323 152.668C235.223 156.768 235.223 163.398 239.323 167.498L246.733 174.908L254.143 167.498C258.243 163.398 258.243 156.768 254.143 152.668ZM250.163 163.508C249.213 164.448 247.973 164.928 246.733 164.928C245.493 164.928 244.253 164.448 243.303 163.508C241.413 161.618 241.413 158.548 243.303 156.658C244.253 155.708 245.493 155.228 246.733 155.228C247.973 155.228 249.213 155.708 250.163 156.658C252.053 158.548 252.053 161.618 250.163 163.508Z" fill="#004FFF"/>
<path opacity="0.3" d="M243.303 156.658C241.413 158.548 241.413 161.618 243.303 163.508C244.253 164.448 245.493 164.928 246.733 164.928V174.908L239.323 167.498C235.223 163.398 235.223 156.768 239.323 152.668C241.373 150.628 244.053 149.598 246.733 149.598V155.228C245.493 155.228 244.253 155.708 243.303 156.658Z" fill="#EBF1FF"/>
<path d="M130.73 228.181C123.18 226.011 115.6 213.421 121.32 209.081C126.9 204.831 130.56 210.741 130.72 211.021C130.73 211.031 130.73 211.031 130.73 211.031C130.73 211.031 134.43 204.731 140.15 209.081C145.87 213.421 138.29 226.011 130.73 228.181Z" fill="#004FFF"/>
<path opacity="0.3" d="M130.73 211.031V228.181C123.18 226.011 115.6 213.421 121.32 209.081C126.9 204.831 130.56 210.741 130.72 211.021C130.73 211.031 130.73 211.031 130.73 211.031Z" fill="#EBF1FF"/>
<path d="M207.32 270.374C228.658 270.374 245.955 253.077 245.955 231.739C245.955 210.401 228.658 193.104 207.32 193.104C185.983 193.104 168.685 210.401 168.685 231.739C168.685 253.077 185.983 270.374 207.32 270.374Z" stroke="#004FFF" stroke-linecap="round" stroke-linejoin="round" stroke-dasharray="11.65 9.71 24.27 2.91"/>
<path d="M246.733 181.375C257.294 181.375 265.855 172.814 265.855 162.253C265.855 151.692 257.294 143.131 246.733 143.131C236.172 143.131 227.611 151.692 227.611 162.253C227.611 172.814 236.172 181.375 246.733 181.375Z" stroke="#004FFF" stroke-linecap="round" stroke-linejoin="round" stroke-dasharray="14.41 12.01 30.03 3.6"/>
<path d="M317.396 214.449C314.355 224.562 303.69 230.295 293.577 227.254C283.464 224.212 277.731 213.548 280.772 203.435C283.814 193.322 294.478 187.589 304.591 190.63C314.705 193.672 320.438 204.336 317.396 214.449Z" stroke="#004FFF" stroke-linecap="round" stroke-linejoin="round" stroke-dasharray="14.41 12.01 30.03 3.6"/>
<path d="M292.618 309.282C282.322 311.632 272.07 305.191 269.72 294.895C267.369 284.599 273.811 274.347 284.107 271.997C294.403 269.647 304.655 276.088 307.005 286.384C309.355 296.68 302.914 306.932 292.618 309.282Z" stroke="#004FFF" stroke-linecap="round" stroke-linejoin="round" stroke-dasharray="14.41 12.01 30.03 3.6"/>
<path d="M149.378 213.609C151.728 223.905 145.287 234.157 134.991 236.507C124.695 238.857 114.443 232.416 112.092 222.12C109.742 211.824 116.183 201.572 126.479 199.222C136.775 196.872 147.027 203.313 149.378 213.609Z" stroke="#004FFF" stroke-linecap="round" stroke-linejoin="round" stroke-dasharray="14.41 12.01 30.03 3.6"/>
<path d="M226.381 198.133L237.298 178.886" stroke="#004FFF" stroke-miterlimit="10" stroke-linecap="round" stroke-linejoin="round"/>
<path d="M149.555 221.274L169.301 224.852" stroke="#004FFF" stroke-miterlimit="10" stroke-linecap="round" stroke-linejoin="round"/>
<path d="M238.571 254.452L272.895 279.398" stroke="#004FFF" stroke-miterlimit="10" stroke-linecap="round" stroke-linejoin="round"/>
<path d="M280.526 213.553L244.822 222.422" stroke="#004FFF" stroke-miterlimit="10" stroke-linecap="round" stroke-linejoin="round"/>
<path d="M233.057 230.06C237.101 226.852 240.957 230.852 243.813 235.686" stroke="#171B26" stroke-width="0.7602" stroke-miterlimit="10" stroke-linecap="round" stroke-linejoin="round"/>
<path d="M250.805 239.807C250.805 239.807 243.84 227.602 233.883 230.343" stroke="#171B26" stroke-width="0.7602" stroke-miterlimit="10" stroke-linecap="round" stroke-linejoin="round"/>
<path d="M245.45 247.193C245.377 247.279 245.268 247.332 245.147 247.327C244.937 247.321 244.773 247.145 244.779 246.935C244.783 246.798 245.109 233.15 235.591 230.389C234.162 229.974 233.048 230.152 232.183 230.932C228.454 234.31 230.775 247.398 230.799 247.531C230.836 247.737 230.7 247.935 230.493 247.973C230.286 248.01 230.088 247.873 230.051 247.667C229.95 247.112 227.612 234.015 231.675 230.368C232.736 229.411 234.125 229.172 235.804 229.659C245.89 232.586 245.545 246.817 245.54 246.96C245.537 247.049 245.503 247.13 245.45 247.193Z" fill="#004FFF"/>
<path d="M240.133 251.569C240.043 251.676 239.897 251.729 239.753 251.694C239.549 251.644 239.424 251.439 239.473 251.235C239.51 251.08 243.161 235.71 238.981 231.007C238.044 229.952 236.803 229.534 235.189 229.728C225.348 230.91 226.062 251.057 226.07 251.261C226.078 251.47 225.915 251.648 225.706 251.656C225.496 251.665 225.319 251.502 225.311 251.292C225.275 250.433 224.562 230.239 235.098 228.973C236.952 228.75 238.45 229.265 239.551 230.502C243.994 235.5 240.37 250.766 240.213 251.414C240.198 251.473 240.17 251.526 240.133 251.569Z" fill="#004FFF"/>
<path d="M224.718 213.585C225.649 216.763 226.545 219.99 227.436 223.185C228.358 226.344 229.249 229.629 230.258 232.502L230.416 232.946C230.384 232.903 230.327 232.816 230.235 232.728C230.057 232.535 229.749 232.416 229.68 232.426C229.517 232.463 230.042 232.537 230.6 232.412C231.776 232.179 233.245 231.62 234.642 230.955C236.071 230.311 237.504 229.554 238.917 228.744C240.339 227.957 241.773 227.096 243.156 226.266L243.21 226.234C244.061 225.723 245.165 225.999 245.676 226.851C246.108 227.57 245.976 228.471 245.411 229.041C242.937 231.536 240.312 233.72 237.316 235.731C235.782 236.692 234.218 237.645 232.148 238.3C231.093 238.589 229.899 238.943 228.091 238.577C227.208 238.388 226.136 237.836 225.402 237.013C225.034 236.609 224.745 236.167 224.537 235.743L224.203 235.028C223.43 233.327 222.831 231.729 222.243 230.102C221.654 228.488 221.121 226.869 220.604 225.249C219.56 222.011 218.6 218.781 217.754 215.481C217.259 213.55 218.423 211.584 220.354 211.088C222.243 210.604 224.166 211.707 224.712 213.563L224.718 213.585Z" fill="#FFADAD"/>
<path d="M242.847 227.212L245.355 221.52L249.917 224.479C249.917 224.479 248.723 228.704 245.118 229.051L242.847 227.212Z" fill="#FFADAD"/>
<path d="M248.833 218.78L251.706 221.8L249.918 224.479L245.355 221.519L248.833 218.78Z" fill="#FFADAD"/>
<path d="M233.883 230.344C224.912 232.815 238.593 248.077 238.593 248.077" stroke="#171B26" stroke-width="0.7602" stroke-miterlimit="10" stroke-linecap="round" stroke-linejoin="round"/>
<path d="M254.214 235.857L281.202 260.674L280.581 269.938L255.768 286.246L230.184 254.917L232.969 248.705L254.214 235.857Z" fill="#004FFF"/>
<path opacity="0.1" d="M254.214 235.857L281.202 260.674L280.581 269.938L255.768 286.246L230.184 254.917L251.719 243.117L254.214 235.857Z" fill="#EBF1FF"/>
<path opacity="0.1" d="M251.719 243.117L280.581 269.938L255.768 286.246L230.184 254.917L251.719 243.117Z" fill="#EBF1FF"/>
<path opacity="0.2" d="M232.969 248.705L230.184 254.917L251.719 243.117L254.214 235.857L232.969 248.705Z" fill="#08090D"/>
<path d="M243.813 235.686C246.702 240.576 248.567 246.32 248.567 246.32" stroke="#171B26" stroke-width="0.7602" stroke-miterlimit="10" stroke-linecap="round" stroke-linejoin="round"/>
<path d="M236.485 253.691C236.485 253.691 224.923 236.513 233.057 230.061" stroke="#171B26" stroke-width="0.7602" stroke-miterlimit="10" stroke-linecap="round" stroke-linejoin="round"/>
<path d="M235.4 230.342C235.518 230.217 235.63 230.087 235.768 229.984C235.878 229.901 236.004 229.84 236.12 229.765C236.013 229.731 235.912 229.691 235.803 229.659C234.124 229.172 232.735 229.411 231.674 230.368C227.611 234.015 229.95 247.112 230.05 247.667C230.087 247.873 230.285 248.011 230.492 247.973C230.699 247.935 230.836 247.737 230.798 247.531C230.774 247.399 228.453 234.31 232.182 230.932C233.008 230.188 234.064 229.999 235.4 230.342Z" fill="#004FFF"/>
<path d="M241.953 234.078C241.769 234.252 241.578 234.421 241.384 234.586C244.951 239.593 244.782 246.835 244.779 246.935C244.772 247.145 244.937 247.321 245.147 247.327C245.268 247.331 245.377 247.279 245.45 247.193C245.503 247.13 245.537 247.049 245.54 246.96C245.543 246.856 245.722 239.317 241.953 234.078Z" fill="#004FFF"/>
<path d="M250.132 245.367L260.129 280.642L254.751 288.208L225.071 289.11L219.679 249.023L225.305 245.189L250.132 245.367Z" fill="#171B26"/>
<path opacity="0.2" d="M250.132 245.367L260.129 280.642L254.751 288.208L225.071 289.11L219.679 249.023L225.305 245.189L250.132 245.367Z" fill="#EBF1FF"/>
<path opacity="0.2" d="M250.132 245.367L260.129 280.642L254.751 288.208L225.071 289.11L219.679 249.023L244.204 250.245L250.132 245.367Z" fill="#EBF1FF"/>
<path opacity="0.2" d="M244.204 250.245L254.751 288.208L225.071 289.11L219.679 249.023L244.204 250.245Z" fill="#EBF1FF"/>
<path d="M236.232 229.695C236.597 229.473 236.981 229.28 237.386 229.129C236.697 228.93 235.936 228.871 235.097 228.972C224.561 230.238 225.275 250.432 225.31 251.291C225.318 251.501 225.495 251.664 225.705 251.655C225.914 251.647 226.077 251.469 226.069 251.26C226.061 251.057 225.347 230.909 235.188 229.727C235.556 229.684 235.902 229.676 236.232 229.695Z" fill="#004FFF"/>
<path d="M241.241 234.714C241.061 234.862 240.87 234.986 240.673 235.101C241.794 241.453 239.502 251.112 239.473 251.234C239.424 251.438 239.549 251.643 239.753 251.693C239.898 251.728 240.043 251.675 240.133 251.568C240.17 251.525 240.197 251.472 240.212 251.413C240.337 250.897 242.659 241.104 241.351 234.615C241.314 234.648 241.279 234.683 241.241 234.714Z" fill="#004FFF"/>
<path d="M219.125 186.143C219.125 186.143 222.456 198.209 217.853 206.32C213.249 214.431 197.914 226.047 186.065 220.905C174.216 215.763 179.87 205.598 186.736 203.545C193.602 201.492 194.188 200.395 193.46 193.572C192.732 186.748 198.08 177.926 207.941 179.106C217.802 180.286 219.125 186.143 219.125 186.143Z" fill="#171B26"/>
<path d="M223.884 284.631V284.641L222.414 288.681L220.324 294.401L218.854 298.451L216.704 305.901L214.374 314.001H201.214C201.434 311.751 201.714 309.231 202.064 306.581C202.484 303.451 202.994 300.151 203.624 296.901C203.774 296.111 203.934 295.321 204.104 294.541V294.531C204.144 294.361 204.174 294.201 204.214 294.031C204.364 293.371 204.514 292.701 204.664 292.041C205.144 289.981 205.674 287.901 206.244 285.841V285.831L210.384 285.551L223.884 284.631Z" fill="#FFADAD"/>
<path opacity="0.1" d="M223.884 284.641L222.414 288.681L220.324 294.401L218.854 298.451L216.704 305.901L214.374 314.001H201.174C201.394 311.711 201.674 309.161 202.024 306.501C202.444 303.361 202.964 300.071 203.604 296.901C203.764 296.121 203.934 295.331 204.104 294.541V294.531C204.144 294.361 204.174 294.201 204.214 294.031C204.364 293.371 204.514 292.701 204.664 292.041C205.144 289.981 205.674 287.901 206.244 285.841L210.384 285.561L223.884 284.641Z" fill="#08090D"/>
<path opacity="0.2" d="M223.882 284.638L220.325 294.404C216.358 295.009 209.654 296.021 203.603 296.904C203.797 295.953 203.999 294.995 204.215 294.028C204.809 291.328 205.482 288.57 206.241 285.836L223.882 284.638Z" fill="#08090D"/>
<path d="M219.034 314.001H205.744C204.564 311.641 203.324 309.121 202.064 306.581C202.054 306.551 202.044 306.531 202.024 306.501C201.234 304.881 200.434 303.251 199.654 301.651C198.904 300.111 198.164 298.541 197.444 296.931C196.954 295.851 196.484 294.761 196.024 293.671C194.934 291.081 193.934 288.461 193.074 285.871C191.514 281.201 190.424 276.611 190.104 272.461L206.664 274.371L209.894 284.081L210.384 285.551V285.561L212.384 291.561L213.664 295.411L213.864 296.011L216.704 305.901L219.034 314.001Z" fill="#FFADAD"/>
<path opacity="0.2" d="M212.383 291.561L197.441 296.935C195.807 293.305 194.296 289.56 193.07 285.872L209.894 284.08L212.383 291.561Z" fill="#08090D"/>
<path d="M161.642 269.644C161.642 269.644 169.751 258.166 163.052 250.306C157.016 243.224 148.98 262.081 148.98 262.081" stroke="#171B26" stroke-width="0.7602" stroke-miterlimit="10" stroke-linecap="round" stroke-linejoin="round"/>
<path d="M166.664 271.06L155.605 306.016L146.95 309.376L121.671 293.8L139.223 257.358L146.031 257.252L166.664 271.06Z" fill="#004FFF"/>
<path opacity="0.1" d="M166.664 271.06L155.605 306.016L146.95 309.376L121.671 293.8L139.223 257.358L159.03 271.873L166.664 271.06Z" fill="#EBF1FF"/>
<path opacity="0.1" d="M159.03 271.873L146.95 309.376L121.671 293.8L139.223 257.358L159.03 271.873Z" fill="#EBF1FF"/>
<path opacity="0.2" d="M139.223 257.358L159.03 271.873L166.664 271.06L146.031 257.252L139.223 257.358Z" fill="#08090D"/>
<path d="M143.002 262.548C143.002 262.548 153.67 244.801 162.959 249.439C172.249 254.076 154.794 270.374 154.794 270.374" stroke="#171B26" stroke-width="0.7602" stroke-miterlimit="10" stroke-linecap="round" stroke-linejoin="round"/>
<path d="M223.247 216.314C223.268 216.731 223.283 217.18 223.302 217.674C223.467 222.791 220.538 224.65 218.915 240.35L199.643 240.982C199.602 238.699 196.737 231.64 194.888 226.737C194.228 224.984 193.693 223.504 193.458 222.621C193.271 221.887 193.067 221.131 192.854 220.353C192.589 219.365 192.306 218.341 192.005 217.272C191.61 215.836 191.171 214.304 190.688 212.691C191.975 212.345 193.28 212.035 194.579 211.756C196.689 211.308 198.814 210.958 200.961 210.705C204.624 210.228 208.319 210.007 212.01 210.046C214.432 210.14 217.039 210.39 219.005 210.614L219.006 210.622C220.91 210.828 222.225 211.02 222.225 211.02C222.225 211.02 222.993 211.242 223.247 216.314Z" fill="#FFADAD"/>
<path d="M224.526 268.427C224.698 270.624 224.812 272.979 224.87 275.504C224.871 275.755 224.881 276.006 224.884 276.265C224.904 277.453 224.911 278.687 224.898 279.953C224.894 280.455 224.884 280.975 224.873 281.493C224.863 282.134 224.846 282.783 224.823 283.447C224.799 284.203 224.775 284.982 224.729 285.77C224.701 286.587 224.65 287.414 224.602 288.263L193.181 294.215C192.773 293.252 192.389 292.31 192.037 291.389C191.743 290.647 191.473 289.927 191.226 289.212C190.955 288.476 190.708 287.754 190.477 287.045C190.314 286.546 190.159 286.061 190.011 285.576C189.56 284.098 189.175 282.684 188.86 281.311C188.798 281.064 188.743 280.816 188.688 280.568C187.977 277.386 187.605 274.493 187.493 271.842C187.484 271.713 187.484 271.591 187.475 271.462C186.9 254.815 197.943 239.135 197.943 239.135L195.834 230.087C195.834 230.087 196.707 227.252 196.771 225.054C196.964 218.481 194.482 211.784 194.482 211.784C194.512 211.775 194.549 211.764 194.579 211.755C206.863 207.636 219.005 210.613 219.005 210.613V210.62C222.468 217.287 224.445 222.187 220.38 239.488C220.38 239.488 223.336 252.94 224.5 268.047C224.508 268.177 224.524 268.298 224.526 268.427Z" fill="#004FFF"/>
<path opacity="0.5" d="M224.526 268.427C224.698 270.624 224.812 272.979 224.87 275.504C224.871 275.755 224.881 276.006 224.884 276.265C224.904 277.453 224.911 278.687 224.898 279.953C224.894 280.455 224.884 280.975 224.873 281.493C224.863 282.134 224.846 282.783 224.823 283.447C224.799 284.203 224.775 284.982 224.729 285.77C224.701 286.587 224.65 287.414 224.602 288.263L193.181 294.215C192.773 293.252 192.389 292.31 192.037 291.389C191.743 290.647 191.473 289.927 191.226 289.212C190.955 288.476 190.708 287.754 190.477 287.045C190.314 286.546 190.159 286.061 190.011 285.576C189.56 284.098 189.175 282.684 188.86 281.311C188.798 281.064 188.743 280.816 188.688 280.568C187.977 277.386 187.605 274.493 187.493 271.842C187.484 271.713 187.484 271.591 187.475 271.462C186.9 254.815 197.943 239.135 197.943 239.135L195.834 230.087C195.834 230.087 196.707 227.252 196.771 225.054C196.964 218.481 194.482 211.784 194.482 211.784C194.512 211.775 194.549 211.764 194.579 211.755C206.863 207.636 219.005 210.613 219.005 210.613V210.62C222.468 217.287 224.445 222.187 220.38 239.488C220.38 239.488 223.336 252.94 224.5 268.047C224.508 268.177 224.524 268.298 224.526 268.427Z" fill="#EBF1FF"/>
<path d="M152.684 267.919C152.576 267.89 152.481 267.813 152.434 267.702C152.351 267.509 152.44 267.286 152.633 267.203C152.759 267.149 165.261 261.666 163.734 251.874C163.505 250.404 162.872 249.469 161.799 249.016C157.16 247.068 146.285 254.711 146.175 254.789C146.004 254.91 145.767 254.87 145.645 254.699C145.524 254.528 145.564 254.29 145.735 254.169C146.195 253.843 157.071 246.18 162.095 248.317C163.411 248.873 164.216 250.031 164.486 251.758C166.104 262.135 153.065 267.846 152.933 267.903C152.851 267.937 152.764 267.941 152.684 267.919Z" fill="#004FFF"/>
<path d="M156.32 271.388L128.594 295.378L119.462 293.709L106.081 267.201L140.116 245.346L145.971 248.82L156.32 271.388Z" fill="#171B26"/>
<path opacity="0.2" d="M156.32 271.388L128.594 295.378L119.462 293.709L106.081 267.201L140.116 245.346L145.971 248.82L156.32 271.388Z" fill="#EBF1FF"/>
<path opacity="0.2" d="M156.32 271.388L128.594 295.378L119.462 293.709L106.081 267.201L140.116 245.346L149.391 268.083L156.32 271.388Z" fill="#EBF1FF"/>
<path opacity="0.2" d="M149.391 268.083L119.462 293.709L106.081 267.201L140.116 245.346L149.391 268.083Z" fill="#EBF1FF"/>
<path d="M146.468 264.955C146.333 264.919 146.224 264.809 146.194 264.663C146.153 264.457 146.285 264.257 146.491 264.215C146.647 264.183 162.117 260.984 164.608 255.206C165.167 253.91 165.021 252.609 164.161 251.229C158.924 242.814 140.973 251.99 140.793 252.083C140.607 252.179 140.377 252.107 140.281 251.921C140.184 251.735 140.257 251.505 140.443 251.409C141.206 251.013 159.199 241.817 164.807 250.827C165.794 252.413 165.962 253.988 165.307 255.508C162.66 261.649 147.295 264.828 146.642 264.961C146.583 264.973 146.523 264.97 146.468 264.955Z" fill="#004FFF"/>
<path opacity="0.2" d="M196.021 223.346C196.133 224.436 195.912 225.662 194.888 226.737C194.228 224.984 193.693 223.504 193.458 222.621C193.271 221.887 193.067 221.131 192.854 220.353C193.498 220.302 194.175 220.278 194.884 220.291C194.884 220.291 195.853 221.658 196.021 223.346Z" fill="#08090D"/>
<path d="M195.507 216.589C194.959 220.325 194.277 224.006 193.516 227.705C193.152 229.556 192.735 231.399 192.288 233.258C192.067 234.19 191.833 235.115 191.562 236.068C191.437 236.535 191.289 237.025 191.136 237.519L191.019 237.9C190.946 238.113 190.871 238.344 190.783 238.533C190.613 238.937 190.42 239.278 190.223 239.596C189.423 240.847 188.551 241.637 187.698 242.359C186.841 243.071 185.981 243.665 185.119 244.217C183.386 245.299 181.646 246.204 179.879 247.012C176.337 248.619 172.794 249.946 169.079 250.999C168.125 251.269 167.133 250.715 166.863 249.762C166.628 248.934 167.015 248.077 167.745 247.689L167.792 247.664C169.392 246.812 171.046 245.954 172.634 245.045C174.243 244.168 175.825 243.253 177.351 242.292C178.875 241.334 180.371 240.358 181.71 239.311C182.38 238.795 183.014 238.261 183.549 237.726C184.08 237.201 184.529 236.636 184.697 236.284C184.737 236.201 184.766 236.128 184.767 236.097C184.778 236.073 184.761 236.077 184.766 236.07L184.831 235.775C184.923 235.367 185.015 234.954 185.098 234.51L185.593 231.85L186.525 226.405C187.129 222.757 187.718 219.074 188.382 215.435L188.385 215.419C188.743 213.458 190.622 212.158 192.583 212.516C194.501 212.864 195.785 214.676 195.507 216.589Z" fill="#FFADAD"/>
<path d="M169.235 247.813L163.07 246.987L163.218 252.423C163.218 252.423 167.446 253.606 169.621 250.71L169.235 247.813Z" fill="#FFADAD"/>
<path d="M158.919 248.528L159.999 252.553L163.217 252.423L163.07 246.987L158.919 248.528Z" fill="#FFADAD"/>
<path d="M205.572 209.402C200.99 209.813 199.75 211.979 204.218 217.92C208.686 223.861 212.828 226.223 212.828 226.223C212.828 226.223 219.02 208.197 205.572 209.402Z" stroke="#171B26" stroke-width="0.5" stroke-miterlimit="10"/>
<path d="M209.742 215.369C203.741 214.317 202.045 211.651 202.045 211.651C204.62 209.441 204.33 205.988 203.798 203.817C203.511 202.617 203.145 201.809 203.145 201.809L210.35 203.503C210.105 204.694 209.975 205.7 209.928 206.55C209.869 207.483 209.919 208.224 210.029 208.807C210.423 211.002 211.659 211.089 211.659 211.089C212.825 213.532 209.742 215.369 209.742 215.369Z" fill="#FFADAD"/>
<path opacity="0.2" d="M209.928 206.55C209.869 207.483 209.919 208.224 210.029 208.807C207.161 208.295 205.08 205.886 203.798 203.817C203.511 202.617 203.145 201.809 203.145 201.809L210.35 203.503C210.105 204.693 209.974 205.7 209.928 206.55Z" fill="#08090D"/>
<path d="M209.795 183.314C216.103 183.839 217.853 187.386 217.774 193.925C217.675 202.098 215.393 207.72 207.65 205.328C197.133 202.079 199.318 182.441 209.795 183.314Z" fill="#FFADAD"/>
<path d="M213.725 193.233C213.725 193.233 214.462 194.953 215.343 196.002C215.343 196.002 214.732 196.815 213.621 196.577L213.725 193.233Z" fill="#FF7070"/>
<path d="M209.907 192.395C209.876 192.914 209.57 193.318 209.224 193.298C208.878 193.277 208.622 192.84 208.653 192.32C208.684 191.801 208.99 191.397 209.336 191.417C209.682 191.438 209.938 191.876 209.907 192.395Z" fill="#171B26"/>
<path d="M209.19 191.434L210.346 191.059C210.346 191.059 209.727 191.975 209.19 191.434Z" fill="#171B26"/>
<path d="M216.368 192.673C216.337 193.192 216.031 193.596 215.684 193.576C215.338 193.555 215.083 193.117 215.114 192.598C215.145 192.079 215.451 191.674 215.797 191.695C216.143 191.716 216.399 192.154 216.368 192.673Z" fill="#171B26"/>
<path d="M215.651 191.712L216.807 191.336C216.807 191.336 216.188 192.253 215.651 191.712Z" fill="#171B26"/>
<path d="M210.206 188.033C210.206 188.033 208.453 187.655 207.391 188.759" stroke="#171B26" stroke-width="0.5382" stroke-miterlimit="10" stroke-linecap="round" stroke-linejoin="round"/>
<path d="M214.814 188.149C214.814 188.149 215.963 187.829 217.285 188.877" stroke="#171B26" stroke-width="0.5382" stroke-miterlimit="10" stroke-linecap="round" stroke-linejoin="round"/>
<path d="M202.015 193.372C202.015 193.372 205.396 188.435 205.283 184.396C205.283 184.396 218.21 180.33 217.77 193.07C217.77 193.07 219.93 181.904 209.105 180.751C198.299 179.599 197.007 195.466 202.214 200.66C202.214 200.66 199.921 196.462 202.015 193.372Z" fill="#171B26"/>
<path d="M202.935 194.789C202.977 193.77 202.072 191.964 200.166 192.012C198.193 192.063 196.927 195.998 201.71 197.368C202.396 197.565 202.846 196.916 202.935 194.789Z" fill="#FFADAD"/>
<path d="M206.438 178.974C209.899 178.182 219.017 178.475 220.735 188.003L219.44 188.578C219.44 188.578 216.478 186.793 212.699 186.238C212.699 186.238 212.003 184.811 211.044 183.625C211.044 183.625 211.1 185.149 210.933 186.03C210.933 186.03 204.949 186.627 202.176 188.924C197.825 192.529 197.461 194.922 197.461 194.922C197.461 194.922 195.173 181.551 206.438 178.974Z" fill="#171B26"/>
<path d="M212.254 199.364C212.557 199.427 212.882 199.467 213.23 199.476C213.324 199.479 213.397 199.402 213.393 199.305C213.389 199.209 213.312 199.129 213.215 199.125C210.671 199.059 209.403 197.198 209.391 197.18C209.336 197.097 209.23 197.071 209.153 197.122C209.076 197.173 209.058 197.281 209.113 197.363C209.162 197.436 210.182 198.935 212.254 199.364Z" fill="#171B26"/>
<path d="M212.743 225.7C212.743 225.7 215.28 228.749 213.158 228.893C211.037 229.038 212.743 225.7 212.743 225.7Z" fill="#004FFF"/>
<path opacity="0.5" d="M327.796 131.62C329.367 131.62 330.641 130.346 330.641 128.775C330.641 127.204 329.367 125.93 327.796 125.93C326.225 125.93 324.951 127.204 324.951 128.775C324.951 130.346 326.225 131.62 327.796 131.62Z" fill="#EBF1FF"/>
<path opacity="0.5" d="M319.321 131.62C320.892 131.62 322.166 130.346 322.166 128.775C322.166 127.204 320.892 125.93 319.321 125.93C317.75 125.93 316.476 127.204 316.476 128.775C316.476 130.346 317.75 131.62 319.321 131.62Z" fill="#EBF1FF"/>
<path opacity="0.5" d="M310.847 131.62C312.418 131.62 313.692 130.346 313.692 128.775C313.692 127.204 312.418 125.93 310.847 125.93C309.276 125.93 308.002 127.204 308.002 128.775C308.002 130.346 309.276 131.62 310.847 131.62Z" fill="#EBF1FF"/>
<path d="M154.222 283.339H192.793" stroke="#171B26" stroke-miterlimit="10"/>
<path d="M154.222 287.097H192.793" stroke="#171B26" stroke-miterlimit="10"/>
<path d="M154.222 290.855H192.793" stroke="#171B26" stroke-miterlimit="10"/>
<path d="M154.222 294.613H192.793" stroke="#171B26" stroke-miterlimit="10"/>
<path d="M154.222 298.372H192.793" stroke="#171B26" stroke-miterlimit="10"/>
<path d="M154.222 302.13H180.786" stroke="#171B26" stroke-miterlimit="10"/>
<path opacity="0.6" d="M198.035 278.295H148.98V307.174H198.035V278.295Z" fill="#EBF1FF"/>
<path d="M97.3059 348.722C97.3059 348.722 103.653 343.43 109.096 348.722C114.539 354.014 115.589 386.798 115.589 386.798" stroke="#004FFF" stroke-miterlimit="10"/>
<path d="M116.039 393.128C116.039 393.128 112.297 354.654 126.385 338.486" stroke="#004FFF" stroke-miterlimit="10"/>
<path d="M114.699 389.073C114.699 389.073 117.581 345.274 107.015 335.556" stroke="#004FFF" stroke-miterlimit="10"/>
<path d="M116.039 389.073C116.039 389.073 116.285 360.131 124.136 355.631C131.987 351.132 135.99 365.806 135.99 365.806" stroke="#004FFF" stroke-miterlimit="10"/>
<path d="M112.938 389.073C112.938 389.073 114.219 366.854 108.135 358.913C102.051 350.972 95.6489 362.315 95.6489 362.315" stroke="#004FFF" stroke-miterlimit="10"/>
<path d="M115.058 392.05C115.058 392.05 111.124 340.087 117.634 331.282" stroke="#004FFF" stroke-miterlimit="10"/>
<path d="M130.86 359.848C130.86 359.848 126.945 361.291 128.109 364.698C129.273 368.105 141.653 373.713 141.653 373.713C141.653 373.713 146.838 368.961 142.076 361.232C137.314 353.505 130.966 357.41 130.86 359.848Z" fill="#004FFF"/>
<path opacity="0.5" d="M130.86 359.848C130.86 359.848 126.945 361.291 128.109 364.698C129.273 368.105 141.653 373.713 141.653 373.713C141.653 373.713 146.838 368.961 142.076 361.232C137.314 353.505 130.966 357.41 130.86 359.848Z" fill="#EBF1FF"/>
<path d="M113.841 353.362C113.841 353.362 118.01 353.188 118.247 356.78C118.484 360.373 109.216 370.313 109.216 370.313C109.216 370.313 102.602 367.922 104.023 358.956C105.442 349.991 112.805 351.152 113.841 353.362Z" fill="#004FFF"/>
<path opacity="0.5" d="M113.841 353.362C113.841 353.362 118.01 353.188 118.247 356.78C118.484 360.373 109.216 370.313 109.216 370.313C109.216 370.313 102.602 367.922 104.023 358.956C105.442 349.991 112.805 351.152 113.841 353.362Z" fill="#EBF1FF"/>
<path d="M110.311 336.164C110.311 336.164 113.09 335.866 112.867 334.173C112.643 332.48 102.062 328.123 95.8199 335.169C95.8199 335.169 99.8169 342.035 105.596 342.125C111.373 342.214 110.311 336.164 110.311 336.164Z" fill="#004FFF"/>
<path opacity="0.5" d="M110.311 336.164C110.311 336.164 113.09 335.866 112.867 334.173C112.643 332.48 102.062 328.123 95.8199 335.169C95.8199 335.169 99.8169 342.035 105.596 342.125C111.373 342.214 110.311 336.164 110.311 336.164Z" fill="#EBF1FF"/>
<path d="M115.491 332.052C115.491 332.052 112.974 333.269 112.269 331.714C111.563 330.159 118.239 320.865 127.263 323.543C127.263 323.543 127.502 331.485 122.646 334.617C117.789 337.749 115.491 332.052 115.491 332.052Z" fill="#004FFF"/>
<path opacity="0.5" d="M115.491 332.052C115.491 332.052 112.974 333.269 112.269 331.714C111.563 330.159 118.239 320.865 127.263 323.543C127.263 323.543 127.502 331.485 122.646 334.617C117.789 337.749 115.491 332.052 115.491 332.052Z" fill="#EBF1FF"/>
<path d="M102.331 358.479C102.331 358.479 104.249 356.93 102.179 356.174C100.109 355.418 89.951 355.633 89.845 365.695C89.845 365.695 101.675 367.661 103.14 363.828C104.605 359.995 102.331 358.479 102.331 358.479Z" fill="#004FFF"/>
<path opacity="0.5" d="M102.331 358.479C102.331 358.479 104.249 356.93 102.179 356.174C100.109 355.418 89.951 355.633 89.845 365.695C89.845 365.695 101.675 367.661 103.14 363.828C104.605 359.995 102.331 358.479 102.331 358.479Z" fill="#EBF1FF"/>
<path d="M126.455 335.911C126.455 335.911 124.537 334.362 126.607 333.606C128.677 332.85 138.835 333.065 138.941 343.127C138.941 343.127 127.111 345.093 125.646 341.26C124.182 337.428 126.455 335.911 126.455 335.911Z" fill="#004FFF"/>
<path opacity="0.5" d="M126.455 335.911C126.455 335.911 124.537 334.362 126.607 333.606C128.677 332.85 138.835 333.065 138.941 343.127C138.941 343.127 127.111 345.093 125.646 341.26C124.182 337.428 126.455 335.911 126.455 335.911Z" fill="#EBF1FF"/>
<path d="M120.201 344.017C120.201 344.017 120.032 342.134 121.552 342.872C123.072 343.61 128.367 349.323 122.878 354.744C122.878 354.744 115.489 349.272 116.821 346.422C118.154 343.572 120.201 344.017 120.201 344.017Z" fill="#004FFF"/>
<path opacity="0.5" d="M120.201 344.017C120.201 344.017 120.032 342.134 121.552 342.872C123.072 343.61 128.367 349.323 122.878 354.744C122.878 354.744 115.489 349.272 116.821 346.422C118.154 343.572 120.201 344.017 120.201 344.017Z" fill="#EBF1FF"/>
<path d="M100.616 346.7C100.616 346.7 101.763 345.197 100.083 345.011C98.4039 344.825 90.8779 346.834 92.6299 354.347C92.6299 354.347 101.799 353.658 102.192 350.537C102.586 347.415 100.616 346.7 100.616 346.7Z" fill="#004FFF"/>
<path opacity="0.5" d="M100.616 346.7C100.616 346.7 101.763 345.197 100.083 345.011C98.4039 344.825 90.8779 346.834 92.6299 354.347C92.6299 354.347 101.799 353.658 102.192 350.537C102.586 347.415 100.616 346.7 100.616 346.7Z" fill="#EBF1FF"/>
<path d="M131.592 416.965H100.133L96.739 382.522H134.986L131.592 416.965Z" fill="#171B26"/>
<path opacity="0.2" d="M131.592 416.965H100.133L96.739 382.522H134.986L131.592 416.965Z" fill="#EBF1FF"/>
<path d="M136.665 378.721H95.059V386.321H136.665V378.721Z" fill="#171B26"/>
<path opacity="0.4" d="M136.665 378.721H95.059V386.321H136.665V378.721Z" fill="#EBF1FF"/>
<path d="M346.973 193.453C339.873 194.944 332.308 223.463 332.308 223.463L338.653 230.307L349.988 209.498L346.973 193.453Z" fill="#004FFF"/>
<path opacity="0.7" d="M349.99 209.498L349.75 209.938L340.27 227.328L338.65 230.308L332.31 223.458C332.31 223.458 339.87 194.948 346.97 193.448L349.99 209.498Z" fill="#EBF1FF"/>
<path opacity="0.1" d="M349.75 209.938L340.27 227.328C340.27 227.038 340.28 226.718 340.3 226.378C341.15 213.158 348.53 206.178 348.53 206.178C349.129 207.358 349.53 208.628 349.75 209.938Z" fill="#08090D"/>
<path d="M399.809 266.216C399.809 266.216 378.044 260.435 351.668 268.913C351.668 268.913 347.422 213.649 347.928 206.058C348.434 198.467 388.651 200.689 388.651 200.689C388.651 200.689 389.689 222.807 392.276 236.152C394.864 249.499 401.135 263.65 399.809 266.216Z" fill="#004FFF"/>
<path opacity="0.5" d="M399.809 266.216C399.809 266.216 378.044 260.435 351.668 268.913C351.668 268.913 347.422 213.649 347.928 206.058C348.434 198.467 388.651 200.689 388.651 200.689C388.651 200.689 389.689 222.807 392.276 236.152C394.864 249.499 401.135 263.65 399.809 266.216Z" fill="#EBF1FF"/>
<path d="M338.943 409.863L346.043 411.873L347.733 400.823L348.643 394.913L341.543 392.903L340.333 400.823L338.943 409.863Z" fill="#FFADAD"/>
<path d="M379.763 410.443L387.083 411.413L387.153 400.823L387.203 394.243L379.873 393.283L379.823 400.823L379.763 410.443Z" fill="#FFADAD"/>
<path opacity="0.2" d="M379.873 393.283L379.823 400.823H387.153L387.203 394.243L379.873 393.283Z" fill="#08090D"/>
<path opacity="0.2" d="M340.333 400.823H347.733L348.643 394.913L341.543 392.903L340.333 400.823Z" fill="#08090D"/>
<path d="M339.03 408.755L347.093 408.538C347.395 408.53 347.664 408.732 347.74 409.023L349.434 415.516C349.61 416.189 349.116 416.845 348.419 416.852C345.509 416.881 341.3 416.825 337.644 416.923C333.369 417.038 330.651 416.828 325.639 416.963C322.608 417.045 321.657 414.017 322.916 413.707C328.647 412.294 332.393 412.573 337.274 409.375C337.802 409.028 338.392 408.772 339.03 408.755Z" fill="#171B26"/>
<path d="M338.339 409.79C338.332 409.793 338.324 409.795 338.316 409.797C337.136 410.065 335.03 410.411 334.194 409.72C333.942 409.511 333.822 409.23 333.836 408.882C333.845 408.675 333.939 408.512 334.108 408.411C334.99 407.881 338.009 409.308 338.35 409.471C338.417 409.503 338.457 409.574 338.449 409.647C338.443 409.712 338.4 409.767 338.339 409.79ZM334.353 408.68C334.33 408.689 334.309 408.698 334.29 408.709C334.221 408.75 334.19 408.806 334.186 408.898C334.177 409.134 334.252 409.315 334.417 409.452C334.886 409.84 336.103 409.878 337.724 409.564C336.533 409.041 334.902 408.474 334.353 408.68Z" fill="#004FFF"/>
<path d="M338.339 409.79C338.298 409.806 338.252 409.806 338.21 409.788C337.305 409.414 335.482 407.872 335.587 407.038C335.612 406.841 335.742 406.597 336.221 406.534C336.577 406.488 336.906 406.58 337.202 406.806C338.169 407.548 338.439 409.522 338.45 409.606C338.458 409.667 338.433 409.728 338.383 409.766C338.37 409.776 338.355 409.784 338.339 409.79ZM336.092 406.919C335.949 406.973 335.939 407.052 335.935 407.083C335.872 407.584 337.117 408.8 338.046 409.32C337.93 408.744 337.625 407.567 336.99 407.08C336.769 406.91 336.533 406.844 336.269 406.878C336.194 406.888 336.137 406.903 336.092 406.919Z" fill="#004FFF"/>
<path d="M380.056 408.755L388.119 408.538C388.421 408.53 388.69 408.732 388.766 409.023L390.46 415.516C390.636 416.189 390.142 416.845 389.445 416.852C386.535 416.881 382.326 416.825 378.67 416.923C374.395 417.038 371.678 416.828 366.665 416.963C363.634 417.045 362.683 414.017 363.942 413.707C369.673 412.294 373.419 412.573 378.3 409.375C378.828 409.028 379.418 408.772 380.056 408.755Z" fill="#171B26"/>
<path d="M379.365 409.79C379.358 409.793 379.35 409.795 379.342 409.797C378.161 410.065 376.056 410.411 375.22 409.72C374.968 409.511 374.848 409.23 374.862 408.882C374.871 408.675 374.965 408.512 375.134 408.411C376.016 407.881 379.035 409.308 379.376 409.471C379.443 409.503 379.483 409.574 379.475 409.647C379.469 409.712 379.426 409.767 379.365 409.79ZM375.379 408.68C375.356 408.689 375.335 408.698 375.316 408.709C375.247 408.75 375.216 408.806 375.213 408.898C375.204 409.134 375.279 409.315 375.444 409.452C375.913 409.84 377.13 409.878 378.751 409.564C377.559 409.041 375.928 408.474 375.379 408.68Z" fill="#004FFF"/>
<path d="M379.365 409.79C379.324 409.806 379.278 409.806 379.236 409.788C378.331 409.414 376.508 407.872 376.613 407.038C376.638 406.841 376.768 406.597 377.247 406.534C377.603 406.488 377.933 406.58 378.228 406.806C379.195 407.548 379.465 409.522 379.476 409.606C379.484 409.667 379.459 409.728 379.409 409.766C379.396 409.776 379.381 409.784 379.365 409.79ZM377.118 406.919C376.975 406.973 376.965 407.052 376.961 407.083C376.898 407.584 378.143 408.8 379.072 409.32C378.956 408.744 378.651 407.567 378.016 407.08C377.795 406.91 377.559 406.844 377.296 406.878C377.22 406.888 377.163 406.903 377.118 406.919Z" fill="#004FFF"/>
<path d="M394.864 249.499C398.742 266.315 392.087 398.564 392.087 398.564H379.225L373.726 288.349L353.471 398.564L339.725 397.563C348.711 312.186 356.655 261.213 356.655 261.213L356.636 254.772L394.864 249.499Z" fill="#171B26"/>
<path d="M387.936 187.232C387.471 195.468 387.824 203.683 388.548 211.333C389.081 216.929 389.826 222.22 390.616 226.994C392.465 238.185 394.565 246.572 394.864 249.499C389.262 250.274 368.149 253.188 356.636 254.772C342.696 215.794 347.946 195.108 347.946 195.108L356.703 190.113C356.703 190.113 357.987 189.774 358.643 189.623C362.888 188.639 369.98 187.821 374.896 187.38C375.93 187.288 376.981 187.222 378.007 187.174C383.229 186.936 387.936 187.232 387.936 187.232Z" fill="#004FFF"/>
<path d="M373.55 187.198C373.55 187.198 364.78 194.118 362.14 194.088C360.29 194.068 357.61 191.038 357.61 191.038C358.96 190.348 359.9 189.568 360.5 188.728C362.33 186.218 361.27 183.168 359.78 180.378L367.47 169.688C367.58 171.828 367.87 174.658 368.46 177.438C368.46 177.448 368.46 177.448 368.46 177.448C369.329 181.608 370.889 185.668 373.55 187.198Z" fill="#FFADAD"/>
<path opacity="0.2" d="M368.46 177.438C368.46 177.448 368.46 177.448 368.46 177.448C367.66 182.118 365.62 187.508 360.5 188.728C362.33 186.218 361.27 183.168 359.78 180.378L367.47 169.688C367.579 171.828 367.87 174.658 368.46 177.438Z" fill="#08090D"/>
<path d="M345.535 165.434C345.223 168.327 346.811 173.823 350.25 171.245C353.688 168.667 346.071 160.462 345.535 165.434Z" fill="#171B26"/>
<path d="M365.88 165.187C367.698 172.098 369.115 176.053 366.823 180.629C363.376 187.512 353.947 187.089 350.09 180.842C346.619 175.219 344.229 164.862 350.005 160.039C355.695 155.288 364.062 158.277 365.88 165.187Z" fill="#FFADAD"/>
<path d="M360.215 162.366L358.651 154.552C358.651 154.552 366.845 152.27 367.327 156.6C372.391 157.963 372.664 168.531 367.18 173.284C363.246 171.249 361.309 161.668 361.309 161.668C360.975 161.904 360.603 162.136 360.215 162.366Z" fill="#171B26"/>
<path d="M370.357 169.971C370.391 171.894 369.527 173.646 368.404 174.756C366.714 176.427 364.696 175.193 364.184 172.996C363.723 171.018 364.047 167.766 366.216 166.923C368.352 166.092 370.318 167.773 370.357 169.971Z" fill="#FFADAD"/>
<path d="M356.176 170.376C356.358 170.928 356.212 171.469 355.849 171.584C355.487 171.7 355.045 171.346 354.863 170.794C354.681 170.242 354.827 169.701 355.19 169.586C355.553 169.471 355.994 169.824 356.176 170.376Z" fill="#171B26"/>
<path d="M349.909 172.375C350.091 172.927 349.945 173.468 349.582 173.583C349.219 173.699 348.778 173.345 348.596 172.793C348.414 172.241 348.56 171.7 348.923 171.585C349.286 171.47 349.727 171.823 349.909 172.375Z" fill="#171B26"/>
<path d="M351.992 172.014C351.992 172.014 351.711 175.491 350.801 177.426C352.053 177.979 353.583 177.03 353.583 177.03L351.992 172.014Z" fill="#FF7070"/>
<path d="M357.25 178.193C357.033 178.296 356.798 178.39 356.544 178.47C356.454 178.499 356.357 178.45 356.328 178.36C356.298 178.27 356.35 178.174 356.437 178.146C358.872 177.366 359.449 175.315 359.454 175.295C359.478 175.204 359.573 175.151 359.663 175.176C359.755 175.201 359.809 175.295 359.785 175.385C359.763 175.468 359.266 177.237 357.25 178.193Z" fill="#171B26"/>
<path d="M357.444 167.745C357.336 167.796 357.205 167.789 357.099 167.716C355.842 166.843 354.668 167.295 354.656 167.299C354.481 167.369 354.281 167.284 354.209 167.11C354.138 166.936 354.223 166.738 354.397 166.668C354.459 166.643 355.931 166.077 357.489 167.16C357.645 167.268 357.683 167.48 357.576 167.634C357.541 167.684 357.495 167.721 357.444 167.745Z" fill="#171B26"/>
<path d="M346.501 171.091C346.442 171.119 346.375 171.13 346.306 171.12C346.118 171.093 345.987 170.921 346.012 170.735C346.267 168.868 347.69 168.202 347.75 168.164C347.921 168.085 348.125 168.159 348.206 168.329C348.287 168.499 348.215 168.7 348.046 168.78C347.986 168.805 346.896 169.333 346.691 170.831C346.675 170.949 346.601 171.044 346.501 171.091Z" fill="#171B26"/>
<path d="M361.309 161.668C361.309 161.668 348.444 168.833 342.807 165.47C337.17 162.107 342.807 159.239 342.807 159.239C342.807 159.239 341.027 161.217 342.708 162.206C342.708 162.206 343.076 156.668 347.886 154.887C347.886 154.887 346.595 156.469 347.124 158.25C347.124 158.25 350.322 155.484 355.91 153.949C361.499 152.416 376.382 153.458 361.309 161.668Z" fill="#171B26"/>
<path d="M362.137 194.09C362.137 194.09 364.272 196.033 366.718 197.913C369.653 195.958 376.461 190.853 375.632 186.993C375.064 185.908 372.005 185.546 372.005 185.546C372.005 185.546 369.27 190.139 362.137 194.09Z" fill="#004FFF"/>
<path d="M362.137 194.09C362.137 194.09 359.922 196.279 358.625 198.879C356.145 197.666 356.437 190.261 357.185 189.356C358.874 188.043 361.02 187.845 361.02 187.845C361.02 187.845 359.781 191.347 362.137 194.09Z" fill="#004FFF"/>
<g opacity="0.2">
<path d="M362.137 194.09C362.137 194.09 364.272 196.033 366.718 197.913C369.653 195.958 376.461 190.853 375.632 186.993C375.064 185.908 372.005 185.546 372.005 185.546C372.005 185.546 369.27 190.139 362.137 194.09Z" fill="#EBF1FF"/>
<path d="M362.137 194.09C362.137 194.09 359.922 196.279 358.625 198.879C356.145 197.666 356.437 190.261 357.185 189.356C358.874 188.043 361.02 187.845 361.02 187.845C361.02 187.845 359.781 191.347 362.137 194.09Z" fill="#EBF1FF"/>
</g>
<path d="M375.633 186.993C375.633 186.993 375.963 200.013 379.373 215.243C379.383 215.273 379.383 215.283 379.383 215.283C382.203 227.883 387.143 241.993 395.773 251.463C395.773 251.463 399.793 260.693 398.483 268.783C398.483 268.783 401.113 267.703 401.643 266.213C402.173 264.733 394.523 246.393 392.673 232.483C390.833 218.583 389.773 186.993 389.773 186.993C389.773 186.993 386.263 186.343 380.233 186.623C378.833 186.693 377.293 186.803 375.633 186.993Z" fill="#004FFF"/>
<path opacity="0.7" d="M401.639 266.208C401.109 267.698 398.479 268.778 398.479 268.778C399.789 260.688 395.769 251.458 395.769 251.458C395.219 250.858 394.689 250.238 394.159 249.598C389.319 243.638 385.739 236.188 383.099 228.518C381.559 224.088 380.349 219.598 379.379 215.278C379.379 215.278 379.379 215.268 379.369 215.238C379.259 214.748 379.159 214.268 379.049 213.788C376.239 200.608 375.719 189.378 375.639 187.318C375.629 187.098 375.629 186.988 375.629 186.988C377.289 186.798 378.829 186.688 380.229 186.618C386.259 186.338 389.769 186.988 389.769 186.988C389.769 186.988 390.019 194.328 390.469 203.478C390.479 203.618 390.479 203.748 390.489 203.888C390.629 206.518 390.779 209.278 390.939 212.058L390.949 212.068C391.259 217.258 391.629 222.488 392.059 226.938C392.249 228.968 392.459 230.848 392.669 232.478C394.52 246.388 402.17 264.728 401.639 266.208Z" fill="#EBF1FF"/>
<path opacity="0.4" d="M375.633 186.993C375.633 186.993 375.963 200.013 379.373 215.243C379.383 215.273 379.383 215.283 379.383 215.283L384.433 195.123L379.093 194.613L384.433 191.473L380.233 186.623C378.833 186.693 377.293 186.803 375.633 186.993Z" fill="#EBF1FF"/>
<path d="M351.413 270.863L352.783 271.853C352.783 271.853 350.803 250.693 351.603 222.493C351.643 221.133 351.693 219.823 351.743 218.573C352.763 194.713 356.463 190.373 356.703 190.113L353.243 191.293L346.973 193.453C345.123 213.813 351.413 270.863 351.413 270.863Z" fill="#004FFF"/>
<path opacity="0.7" d="M351.413 270.863L352.783 271.853C352.783 271.853 350.803 250.693 351.603 222.493C351.643 221.133 351.693 219.823 351.743 218.573C352.763 194.713 356.463 190.373 356.703 190.113L353.243 191.293L346.973 193.453C345.123 213.813 351.413 270.863 351.413 270.863Z" fill="#EBF1FF"/>
<path opacity="0.4" d="M352.983 198.473L349.023 200.953C349.023 200.953 350.053 212.623 351.743 218.573C352.763 194.713 356.463 190.373 356.703 190.113L353.243 191.293C351.863 192.623 349.743 194.903 348.533 197.413L352.983 198.473Z" fill="#EBF1FF"/>
<path opacity="0.2" d="M388.653 204.233C388.653 204.233 388.953 208.653 390.943 212.063C390.783 209.283 390.633 206.523 390.493 203.893C389.923 203.863 389.303 203.973 388.653 204.233Z" fill="#08090D"/>
<path opacity="0.2" d="M369.413 311.803L373.723 288.353L372.893 275.943C372.893 275.943 366.983 297.463 369.413 311.803Z" fill="#08090D"/>
<path d="M335.683 200.492C338.123 200.33 338.254 203.333 337.128 204.434C336.002 205.534 332.257 204.748 332.309 203.072C332.361 201.396 333.505 200.636 335.683 200.492Z" fill="#004FFF"/>
<path opacity="0.5" d="M335.683 200.492C338.123 200.33 338.254 203.333 337.128 204.434C336.002 205.534 332.257 204.748 332.309 203.072C332.361 201.396 333.505 200.636 335.683 200.492Z" fill="#EBF1FF"/>
<path d="M338.175 202.836C338.175 202.836 350.632 228.974 357.106 234.422H335.609L319.708 206.165L338.175 202.836Z" fill="#EBF1FF"/>
<path d="M315.105 202.964L335.163 201.204C336.471 201.089 337.714 201.796 338.285 202.979L355.068 237.772C355.322 238.3 354.963 238.917 354.379 238.957L334.421 240.304C333.143 240.39 331.94 239.697 331.374 238.547L314.436 204.154C314.179 203.632 314.526 203.015 315.105 202.964Z" fill="#171B26"/>
<path opacity="0.2" d="M315.105 202.964L335.163 201.204C336.471 201.089 337.714 201.796 338.285 202.979L355.068 237.772C355.322 238.3 354.963 238.917 354.379 238.957L334.421 240.304C333.143 240.39 331.94 239.697 331.374 238.547L314.436 204.154C314.179 203.632 314.526 203.015 315.105 202.964Z" fill="#EBF1FF"/>
<path d="M319.777 223.222L321.724 227.459C325.104 231.565 328.395 228.428 328.395 228.428L330.957 227.87C331.826 227.681 332.071 226.677 331.538 225.497L330.198 222.534C329.587 221.183 328.185 220.095 327.09 220.12L324.629 220.178C323.913 220.195 323.293 220.401 322.823 220.777L319.777 223.222Z" fill="#FFADAD"/>
<path d="M335.778 223.031C335.731 223.269 335.675 223.508 335.611 223.738L314.971 225.311C314.971 225.311 315.964 215.142 314.605 208C313.636 202.939 315.86 202.518 315.86 202.518L335.714 200.476C335.706 200.476 335.69 200.484 335.682 200.492C333.538 201.311 337.613 214.403 335.778 223.031Z" fill="#EBF1FF"/>
<path d="M354.436 399.657H338.341L338.943 395.492H355.038L354.436 399.657Z" fill="#004FFF"/>
<path d="M393.543 395.492H378.043V399.657H393.543V395.492Z" fill="#004FFF"/>
<path opacity="0.1" d="M392.06 226.938C391.61 227.118 391.15 227.268 390.69 227.408C388.16 228.168 385.47 228.468 383.1 228.518C380.99 228.568 379.13 228.418 377.85 228.228C359.21 225.388 358.65 221.568 358.65 221.568C358.65 221.568 370.33 220.788 375.87 217.448C377.05 216.738 378.11 215.418 379.05 213.788C382.56 207.748 384.43 197.378 384.43 197.378C384.43 197.378 385.87 198.648 387.84 200.668C388.65 201.488 389.55 202.438 390.47 203.478C390.48 203.618 390.48 203.748 390.49 203.888C390.63 206.518 390.78 209.278 390.94 212.058L390.95 212.068C391.26 217.258 391.629 222.488 392.06 226.938Z" fill="#08090D"/>
<path d="M351.299 209.865L342.232 223.458" stroke="#171B26" stroke-width="1.1217" stroke-miterlimit="10" stroke-linecap="round" stroke-linejoin="round"/>
<path d="M357.536 215.452L357.743 220.181C356.186 224.904 350.459 221.852 350.459 221.852L347.113 221.496C345.979 221.375 345.097 220.322 345.03 219.006L344.86 215.701C344.783 214.195 345.791 212.894 347.095 212.818L350.026 212.647C350.879 212.597 351.731 212.76 352.506 213.119L357.536 215.452Z" fill="#FFADAD"/>
<path d="M389.773 186.993C400.928 190.113 391.698 224.395 387.609 225.539C379.865 227.704 356.703 223.463 356.703 223.463L356.655 214.422C356.655 214.422 378.953 216.61 380.83 215.77C383.263 214.681 384.444 201.74 384.971 195.628C385.499 189.515 389.773 186.993 389.773 186.993Z" fill="#004FFF"/>
<path opacity="0.7" d="M389.773 186.993C400.928 190.113 391.698 224.395 387.609 225.539C379.865 227.704 356.703 223.463 356.703 223.463L356.655 214.422C356.655 214.422 378.953 216.61 380.83 215.77C383.263 214.681 384.444 201.74 384.971 195.628C385.499 189.515 389.773 186.993 389.773 186.993Z" fill="#EBF1FF"/>
</svg>
