<svg width="500" height="500" viewBox="0 0 500 500" fill="none" xmlns="http://www.w3.org/2000/svg">
<path d="M500 382.398H0V382.648H500V382.398Z" fill="#171B26"/>
<path d="M449.901 398.494H416.779V398.744H449.901V398.494Z" fill="#171B26"/>
<path d="M331.22 401.208H322.527V401.458H331.22V401.208Z" fill="#171B26"/>
<path d="M415.778 389.208H396.586V389.458H415.778V389.208Z" fill="#171B26"/>
<path d="M95.652 390.888H52.459V391.138H95.652V390.888Z" fill="#171B26"/>
<path d="M110.889 390.888H104.556V391.138H110.889V390.888Z" fill="#171B26"/>
<path d="M225.147 395.111H131.471V395.361H225.147V395.111Z" fill="#171B26"/>
<path d="M237.014 337.8H43.915C40.768 337.8 38.207 335.239 38.207 332.092V60.6599C38.207 57.5129 40.768 54.9519 43.915 54.9519H237.014C240.16 54.9519 242.721 57.5129 242.721 60.6599V332.092C242.721 335.239 240.16 337.8 237.014 337.8ZM43.915 55.2029C40.905 55.2029 38.457 57.6509 38.457 60.6609V332.093C38.457 335.103 40.905 337.551 43.915 337.551H237.014C240.023 337.551 242.471 335.103 242.471 332.093V60.6599C242.471 57.6509 240.023 55.2019 237.014 55.2019L43.915 55.2029Z" fill="#171B26"/>
<path d="M453.31 337.8H260.212C257.065 337.8 254.505 335.239 254.505 332.092V60.6599C254.505 57.5129 257.066 54.9519 260.212 54.9519H453.31C456.458 54.9519 459.018 57.5129 459.018 60.6599V332.092C459.019 335.239 456.458 337.8 453.31 337.8ZM260.212 55.2029C257.203 55.2029 254.755 57.6509 254.755 60.6609V332.093C254.755 335.103 257.203 337.551 260.212 337.551H453.31C456.32 337.551 458.768 335.103 458.768 332.093V60.6599C458.768 57.6509 456.32 55.2019 453.31 55.2019L260.212 55.2029Z" fill="#171B26"/>
<path d="M280.825 176.206L276.692 181.58L284.959 185.3L280.825 176.206Z" fill="#0F121A"/>
<path d="M307.613 288.29L312.936 284.091L305.831 278.462L307.613 288.29Z" fill="#0F121A"/>
<path d="M240.818 169.72L240.417 162.952L231.736 165.562L240.818 169.72Z" fill="#0F121A"/>
<path d="M265.945 280.782L261.812 286.155L270.078 289.875L265.945 280.782Z" fill="#0F121A"/>
<path d="M260.158 208.447L266.772 208.86L265.945 216.3L258.091 214.234L260.158 208.447Z" fill="#0F121A"/>
<path d="M281.829 252.866L278.695 258.704L272.278 254.85L277.431 248.574L281.829 252.866Z" fill="#0F121A"/>
<path d="M240.745 297.133L247.359 297.546L246.532 304.986L238.678 302.92L240.745 297.133Z" fill="#0F121A"/>
<path d="M296.119 219.194L300.252 220.021C300.252 220.021 294.052 224.154 296.945 227.461C299.838 230.768 294.878 233.661 294.878 233.661L291.158 231.181C291.158 231.181 294.465 228.701 292.811 225.394C291.159 222.087 296.119 219.194 296.119 219.194Z" fill="#0F121A"/>
<path d="M304.568 165.268L300.772 170.885L309.251 174.091L304.568 165.268Z" fill="#0F121A"/>
<path d="M335.007 150.425L337.314 144.05L328.307 143.016L335.007 150.425Z" fill="#0F121A"/>
<path d="M333.297 175.801L334.509 169.286L341.794 171.009L338.79 178.554L333.297 175.801Z" fill="#0F121A"/>
<path d="M340.349 211.123L336.16 211.59C336.16 211.59 340.812 205.769 337.051 203.497C333.29 201.225 337.137 196.962 337.137 196.962L341.434 198.195C341.434 198.195 339.037 201.562 341.616 204.211C344.196 206.86 340.349 211.123 340.349 211.123Z" fill="#0F121A"/>
<path d="M271.247 316.347L275.38 317.174C275.38 317.174 269.18 321.307 272.073 324.614C274.966 327.921 270.006 330.814 270.006 330.814L266.286 328.334C266.286 328.334 269.593 325.854 267.939 322.547C266.287 319.24 271.247 316.347 271.247 316.347Z" fill="#0F121A"/>
<path d="M330.8 302.217L326.667 307.59L334.934 311.31L330.8 302.217Z" fill="#0F121A"/>
<path d="M345.428 255.593L352.042 256.006L351.215 263.446L343.361 261.38L345.428 255.593Z" fill="#0F121A"/>
<path d="M302.312 314.017L306.445 314.844C306.445 314.844 300.245 318.977 303.138 322.284C306.031 325.591 301.071 328.484 301.071 328.484L297.351 326.004C297.351 326.004 300.658 323.524 299.004 320.217C297.35 316.91 302.312 314.017 302.312 314.017Z" fill="#0F121A"/>
<path d="M271.765 157.553L269.167 158.161C269.167 158.161 270.277 152.654 267.044 150.747C263.811 148.84 264.914 144.788 264.914 144.788L268.152 145.725C268.152 145.725 267.703 148.898 270.285 151.199C272.867 153.5 271.765 157.553 271.765 157.553Z" fill="#0F121A"/>
<path d="M243.592 257.901L239.685 259.483C239.685 259.483 242.59 252.621 238.355 251.45C234.12 250.279 236.671 245.135 236.671 245.135L241.142 245.16C241.142 245.16 239.744 249.05 242.943 250.902C246.144 252.757 243.592 257.901 243.592 257.901Z" fill="#0F121A"/>
<path d="M226.678 217.747C226.678 219.459 225.29 220.847 223.578 220.847C221.866 220.847 220.478 219.459 220.478 217.747C220.478 216.035 221.866 214.647 223.578 214.647C225.29 214.647 226.678 216.035 226.678 217.747Z" fill="#0F121A"/>
<path d="M305.953 141.942C305.953 143.654 304.565 145.042 302.853 145.042C301.141 145.042 299.753 143.654 299.753 141.942C299.753 140.23 301.141 138.842 302.853 138.842C304.564 138.842 305.953 140.23 305.953 141.942Z" fill="#0F121A"/>
<path d="M207.979 167.793L203.046 172.444L210.62 177.426L207.979 167.793Z" fill="#0F121A"/>
<path d="M192.953 281.587L196.24 275.658L187.511 273.211L192.953 281.587Z" fill="#0F121A"/>
<path d="M151.619 290.761L149.883 297.314L158.945 297.551L151.619 290.761Z" fill="#0F121A"/>
<path d="M155.484 258.876L154.849 265.472L147.441 264.396L149.769 256.616L155.484 258.876Z" fill="#0F121A"/>
<path d="M186.433 223.946L190.565 223.111C190.565 223.111 186.443 229.319 190.39 231.251C194.336 233.183 190.879 237.768 190.879 237.768L186.49 236.918C186.49 236.918 188.582 233.353 185.779 230.942C182.976 228.531 186.433 223.946 186.433 223.946Z" fill="#0F121A"/>
<path d="M153.558 219.856L157.203 214.14L148.641 211.162L153.558 219.856Z" fill="#0F121A"/>
<path d="M177.649 195.025L171.025 195.195L171.193 187.711L179.198 189.078L177.649 195.025Z" fill="#0F121A"/>
<path d="M171.551 151.277L167.361 150.817C167.361 150.817 173.173 146.154 170 143.115C166.827 140.076 171.513 136.757 171.513 136.757L175.437 138.9C175.437 138.9 172.361 141.661 174.299 144.81C176.237 147.958 171.551 151.277 171.551 151.277Z" fill="#0F121A"/>
<path d="M206.157 305.372C206.006 303.667 207.267 302.162 208.972 302.011C210.677 301.86 212.182 303.121 212.333 304.826C212.484 306.531 211.223 308.036 209.518 308.187C207.813 308.338 206.308 307.077 206.157 305.372Z" fill="#0F121A"/>
<path d="M202.682 100.254L212.144 108.086L215.337 96.4229L202.682 100.254Z" fill="#171B26"/>
<path d="M219.564 95.2219L229.57 101.837L230.55 90.9019L219.564 95.2219Z" fill="#171B26"/>
<path d="M126.564 106.46L133.7 121.708L142.009 106.665L126.564 106.46Z" fill="#171B26"/>
<path d="M143.17 106.755L154.596 119.413L161.227 105.724L143.17 106.755Z" fill="#171B26"/>
<path d="M163.749 105.649L174.221 116.121L178.493 103.867L163.749 105.649Z" fill="#171B26"/>
<path d="M182.831 103.573L195.769 113.517L199.107 101.146L182.831 103.573Z" fill="#171B26"/>
<path d="M180.058 104.465C140.814 109.208 101.244 106.36 100.601 106.311L100.731 104.583C101.771 104.661 205.121 112.094 242.686 82.7048L243.753 84.0698C229.086 95.5458 204.633 101.495 180.058 104.465Z" fill="#1F2433"/>
<path d="M300.209 100.254L290.748 108.086L287.554 96.4229L300.209 100.254Z" fill="#171B26"/>
<path d="M283.327 95.2219L273.321 101.837L272.341 90.9019L283.327 95.2219Z" fill="#171B26"/>
<path d="M376.327 106.46L369.191 121.708L360.883 106.665L376.327 106.46Z" fill="#171B26"/>
<path d="M359.721 106.755L348.295 119.413L341.664 105.724L359.721 106.755Z" fill="#171B26"/>
<path d="M339.142 105.649L328.671 116.121L324.398 103.867L339.142 105.649Z" fill="#171B26"/>
<path d="M320.061 103.573L307.122 113.517L303.784 101.146L320.061 103.573Z" fill="#171B26"/>
<path d="M322.833 104.465C362.077 109.208 401.647 106.36 402.29 106.311L402.16 104.583C401.12 104.661 297.77 112.094 260.205 82.7048L259.138 84.0698C273.805 95.5458 298.258 101.495 322.833 104.465Z" fill="#1F2433"/>
<path d="M106.613 173.232C103.474 173.232 100.105 172.346 97.874 169.265C95.525 166.02 95.633 162.936 96.657 160.733C96.069 160.265 95.491 159.7 94.936 159.025C93.163 156.866 92.729 154.323 93.714 151.862C93.932 151.318 94.216 150.799 94.553 150.317C90.991 147.653 89.461 143.852 90.421 139.77C90.711 138.54 91.179 137.502 91.799 136.675C88.376 129.56 92.095 117.19 92.264 116.638L93.92 117.145C93.882 117.27 90.419 128.793 93.119 135.386C94.44 134.463 96.132 134.148 98.074 134.521C101.095 135.103 104.485 137.525 104.164 139.66C103.998 140.759 102.917 141.974 98.71 141.515C96.184 141.239 94.195 140.161 92.79 138.309C92.513 138.816 92.281 139.429 92.108 140.167C91.076 144.55 93.524 147.401 95.697 148.999C96.847 147.924 98.28 147.191 99.729 147.014C101.742 146.769 103.53 147.575 104.763 149.287C105.928 150.906 105.448 151.912 105.057 152.368C103.688 153.965 99.794 153.227 96.827 151.721C96.541 151.576 96.264 151.425 95.996 151.269C95.726 151.654 95.498 152.07 95.323 152.507C94.583 154.354 94.922 156.278 96.276 157.926C96.7 158.442 97.138 158.882 97.58 159.251C97.643 159.173 97.708 159.097 97.773 159.023C99.613 156.949 102.372 156.32 104.481 157.491C106.052 158.364 106.182 159.451 106.12 160.021C106.003 161.089 105.048 162.016 103.626 162.438C102.197 162.864 100.167 162.794 98.115 161.697C97.4 163.413 97.454 165.73 99.278 168.249C103.614 174.238 113.905 170.056 114.009 170.013L114.675 171.612C114.407 171.725 110.706 173.232 106.613 173.232ZM99.025 160.221C100.582 161.029 102.079 161.09 103.13 160.777C103.919 160.542 104.364 160.123 104.396 159.832C104.422 159.596 104.132 159.278 103.638 159.004C102.223 158.216 100.385 158.686 99.068 160.172C99.054 160.189 99.04 160.205 99.025 160.221ZM97.209 149.963C97.351 150.041 97.485 150.112 97.61 150.175C100.656 151.72 103.31 151.742 103.741 151.241C103.793 151.18 103.767 150.87 103.357 150.3C102.272 148.794 100.899 148.62 99.94 148.734C98.978 148.852 98.023 149.298 97.209 149.963ZM93.931 136.926C95.064 138.614 96.69 139.552 98.898 139.793C101.724 140.102 102.428 139.555 102.45 139.403C102.546 138.762 100.603 136.774 97.746 136.223C96.524 135.986 95.089 136.02 93.931 136.926Z" fill="#1F2433"/>
<path d="M79.803 175.065C75.264 173.601 73.122 168.49 73.053 164.36C73.03 163.011 73.21 161.767 73.567 160.679C71.714 158.351 71.502 155.171 72.034 152.718C72.328 151.36 72.834 150.145 73.482 149.153C72.817 146.86 72.876 144.004 73.603 141.529C74.006 140.156 74.572 139.027 75.264 138.174C75.129 131.093 84.505 122.607 84.975 122.186L86.131 123.477C86.031 123.566 78.154 130.694 77.099 136.692C77.914 136.313 78.814 136.198 79.77 136.374C82.405 136.862 83.471 138.747 83.59 140.349C83.728 142.221 82.747 143.951 81.255 144.464C80.308 144.789 78.416 144.878 76.378 141.82C76.129 141.447 75.926 141.063 75.765 140.67C75.533 141.176 75.37 141.658 75.265 142.017C74.749 143.772 74.618 145.795 74.886 147.536C75.688 146.861 76.586 146.461 77.513 146.415C79.235 146.324 80.663 147.15 81.329 148.611C81.956 149.988 81.734 151.637 80.788 152.62C79.812 153.635 78.265 153.814 76.541 153.108C75.634 152.737 74.908 152.055 74.356 151.169C74.091 151.755 73.876 152.401 73.727 153.085C73.326 154.931 73.402 157.117 74.414 158.867C75.126 157.755 76.093 156.939 77.262 156.517C79.187 155.824 80.9 156.246 81.846 157.643C82.811 159.07 82.693 161.097 81.57 162.36C80.988 163.016 79.28 164.361 76.015 162.671C75.648 162.481 75.309 162.271 74.996 162.044C74.836 162.801 74.772 163.587 74.784 164.33C74.843 167.863 76.605 172.212 80.334 173.415L79.803 175.065ZM75.586 160.3C75.941 160.613 76.348 160.893 76.812 161.133C78.373 161.94 79.603 161.967 80.276 161.21C80.868 160.544 80.929 159.38 80.411 158.615C79.924 157.894 79.012 157.729 77.85 158.148C76.806 158.524 76.073 159.318 75.586 160.3ZM75.405 149.467C75.811 150.442 76.407 151.181 77.198 151.505C78.244 151.934 79.075 151.902 79.54 151.42C79.998 150.944 80.087 150.065 79.753 149.33C79.538 148.859 78.978 148.093 77.599 148.146C76.84 148.183 76.07 148.673 75.405 149.467ZM77.041 138.805C77.146 139.531 77.395 140.221 77.82 140.858C78.823 142.362 79.897 143.096 80.692 142.825C81.415 142.577 81.939 141.523 81.862 140.477C81.818 139.881 81.495 138.456 79.455 138.078C78.454 137.895 77.661 138.237 77.041 138.805Z" fill="#1F2433"/>
<path d="M119.439 122.441C103.203 139.972 79.479 110.266 89.873 96.3558C100.267 82.4458 135.915 104.653 119.439 122.441Z" fill="#1F2433"/>
<path d="M87.747 135.031C64.03 132.129 74.227 95.5057 91.589 95.7897C108.952 96.0747 111.814 137.977 87.747 135.031Z" fill="#171B26"/>
<path d="M269.881 100.131C259.703 111.121 244.83 92.4989 251.346 83.7779C257.862 75.0579 280.209 88.9788 269.881 100.131Z" fill="#1F2433"/>
<path d="M234.349 100.131C244.527 111.121 259.4 92.4989 252.884 83.7779C246.368 75.0579 224.02 88.9788 234.349 100.131Z" fill="#1F2433"/>
<path d="M254.789 107.451C269.657 105.632 263.264 82.6729 252.38 82.8509C241.496 83.0289 239.702 109.297 254.789 107.451Z" fill="#171B26"/>
<path d="M395.457 173.232C391.364 173.232 387.664 171.724 387.396 171.612L388.062 170.013C388.166 170.056 398.457 174.237 402.793 168.249C404.617 165.73 404.671 163.413 403.956 161.697C401.904 162.794 399.874 162.864 398.446 162.438C397.024 162.015 396.069 161.088 395.952 160.021C395.89 159.45 396.02 158.363 397.591 157.491C399.7 156.32 402.459 156.949 404.299 159.023C404.364 159.097 404.429 159.173 404.492 159.251C404.934 158.882 405.371 158.443 405.796 157.926C407.15 156.278 407.488 154.354 406.749 152.507C406.574 152.07 406.346 151.655 406.076 151.269C405.808 151.425 405.531 151.576 405.245 151.721C402.278 153.227 398.384 153.968 397.015 152.368C396.624 151.912 396.144 150.906 397.309 149.287C398.542 147.575 400.331 146.773 402.343 147.014C403.792 147.191 405.225 147.924 406.375 148.999C408.548 147.401 410.996 144.549 409.964 140.167C409.79 139.43 409.558 138.816 409.282 138.309C407.877 140.162 405.888 141.24 403.362 141.515C399.153 141.976 398.074 140.76 397.908 139.66C397.586 137.525 400.977 135.103 403.998 134.521C405.941 134.147 407.632 134.463 408.953 135.386C411.654 128.793 408.19 117.27 408.152 117.145L409.809 116.638C409.978 117.19 413.696 129.559 410.274 136.674C410.894 137.501 411.363 138.539 411.652 139.769C412.612 143.851 411.082 147.653 407.52 150.316C407.857 150.799 408.141 151.317 408.359 151.861C409.344 154.322 408.91 156.865 407.137 159.024C406.582 159.699 406.004 160.264 405.416 160.732C406.44 162.935 406.548 166.019 404.199 169.264C401.964 172.346 398.595 173.232 395.457 173.232ZM399.904 158.627C399.39 158.627 398.889 158.75 398.431 159.004C397.937 159.278 397.647 159.595 397.673 159.832C397.705 160.124 398.15 160.542 398.939 160.777C399.991 161.09 401.486 161.029 403.044 160.221C403.03 160.205 403.015 160.188 403.001 160.172C402.11 159.167 400.98 158.627 399.904 158.627ZM401.652 148.704C400.748 148.704 399.628 149.028 398.713 150.299C398.302 150.87 398.276 151.179 398.328 151.24C398.759 151.742 401.413 151.72 404.459 150.174C404.584 150.111 404.719 150.04 404.86 149.962C404.046 149.297 403.091 148.851 402.13 148.733C401.981 148.716 401.82 148.704 401.652 148.704ZM405.555 136.099C405.133 136.099 404.717 136.147 404.323 136.223C401.466 136.773 399.523 138.762 399.619 139.403C399.642 139.555 400.345 140.102 403.171 139.793C405.38 139.552 407.005 138.614 408.138 136.926C407.354 136.312 406.442 136.099 405.555 136.099Z" fill="#1F2433"/>
<path d="M422.267 175.065L421.735 173.416C425.464 172.213 427.226 167.864 427.285 164.331C427.297 163.588 427.233 162.802 427.073 162.045C426.761 162.272 426.422 162.482 426.054 162.672C422.79 164.361 421.082 163.017 420.499 162.361C419.377 161.098 419.258 159.071 420.223 157.644C421.169 156.247 422.881 155.825 424.807 156.518C425.977 156.939 426.944 157.755 427.655 158.868C428.667 157.117 428.742 154.932 428.342 153.086C428.194 152.402 427.978 151.755 427.712 151.17C427.16 152.056 426.434 152.738 425.526 153.11C423.803 153.814 422.257 153.636 421.28 152.622C420.334 151.639 420.112 149.99 420.74 148.613C421.406 147.151 422.837 146.329 424.556 146.417C425.483 146.463 426.381 146.864 427.182 147.538C427.45 145.797 427.318 143.774 426.803 142.019C426.697 141.66 426.534 141.177 426.303 140.672C426.142 141.065 425.939 141.449 425.69 141.821C423.652 144.878 421.76 144.791 420.813 144.465C419.322 143.952 418.34 142.222 418.478 140.35C418.597 138.748 419.662 136.864 422.298 136.375C423.254 136.199 424.154 136.313 424.969 136.693C423.914 130.695 416.037 123.567 415.937 123.478L417.093 122.187C417.563 122.607 426.939 131.094 426.804 138.175C427.496 139.028 428.062 140.157 428.465 141.53C429.192 144.005 429.251 146.86 428.586 149.153C429.233 150.146 429.739 151.361 430.034 152.719C430.566 155.172 430.354 158.353 428.501 160.68C428.858 161.769 429.038 163.012 429.015 164.361C428.948 168.49 426.806 173.601 422.267 175.065ZM423.065 157.921C422.453 157.921 421.97 158.155 421.659 158.615C421.142 159.379 421.203 160.543 421.794 161.21C422.468 161.968 423.698 161.941 425.258 161.133C425.722 160.893 426.129 160.613 426.484 160.3C425.997 159.318 425.264 158.523 424.22 158.148C423.799 157.997 423.411 157.921 423.065 157.921ZM424.303 148.141C423.051 148.141 422.523 148.877 422.317 149.329C421.982 150.064 422.072 150.943 422.53 151.419C422.994 151.901 423.826 151.932 424.871 151.505C425.663 151.181 426.259 150.442 426.665 149.467C426 148.674 425.23 148.184 424.471 148.146C424.414 148.143 424.358 148.141 424.303 148.141ZM423.15 138.028C422.979 138.028 422.801 138.044 422.615 138.079C420.575 138.457 420.252 139.882 420.208 140.478C420.131 141.524 420.655 142.577 421.378 142.826C422.172 143.098 423.247 142.364 424.25 140.859C424.675 140.222 424.924 139.532 425.029 138.806C424.524 138.342 423.904 138.028 423.15 138.028Z" fill="#1F2433"/>
<path d="M383.923 122.441C400.159 139.972 423.883 110.266 413.489 96.3558C403.095 82.4458 367.448 104.653 383.923 122.441Z" fill="#1F2433"/>
<path d="M415.615 135.031C439.332 132.129 429.135 95.5057 411.773 95.7897C394.41 96.0747 391.548 137.977 415.615 135.031Z" fill="#171B26"/>
<path d="M358.747 307.703C353.251 309.23 347.367 306.741 344.692 301.463L338.13 288.516L341.455 286.831L348.017 299.778C350.102 303.891 354.998 305.564 359.163 303.583L370.5 298.192C374.531 296.276 376.373 291.535 374.694 287.4L372.166 281.175L375.619 279.772L378.147 285.997C380.568 291.959 377.912 298.794 372.1 301.557L360.763 306.948C360.102 307.264 359.427 307.514 358.747 307.703Z" fill="#0F121A"/>
<path d="M402.935 268.921L396.324 271.906L393.944 272.993L386.636 276.301L384.241 277.379L377.299 280.52L374.883 281.617L368.457 284.525L366.029 285.625L359.865 288.408L357.448 289.505L351.272 292.292L348.88 293.382L342.684 296.188L340.312 297.259L338.593 298.034L331.697 289.737L336.77 279.597L338.575 275.975L343.443 266.253L345.259 262.628L350.119 252.921L351.923 249.299L356.788 239.565L358.604 235.939L362.518 228.121L364.577 230.192L367.75 233.398L377.36 243.107L380.564 246.33L390.641 256.515L393.867 259.771L402.935 268.921Z" fill="#1F2433"/>
<path d="M331.695 289.742L325.1 292.935L334.538 304.256L338.589 298.029L331.695 289.742Z" fill="#0F121A"/>
<path d="M338.575 275.975L342.684 296.188L340.312 297.259L336.77 279.597L338.575 275.975Z" fill="#0F121A"/>
<path d="M345.259 262.628L351.272 292.292L348.88 293.382L343.443 266.253L345.259 262.628Z" fill="#0F121A"/>
<path d="M351.923 249.299L359.865 288.408L357.448 289.505L350.119 252.921L351.923 249.299Z" fill="#0F121A"/>
<path d="M358.604 235.939L368.457 284.525L366.029 285.625L356.788 239.565L358.604 235.939Z" fill="#0F121A"/>
<path d="M367.75 233.398L377.299 280.52L374.883 281.617L364.577 230.192L367.75 233.398Z" fill="#0F121A"/>
<path d="M380.564 246.33L386.636 276.301L384.241 277.379L377.36 243.107L380.564 246.33Z" fill="#0F121A"/>
<path d="M393.867 259.771L396.324 271.906L393.944 272.993L390.641 256.515L393.867 259.771Z" fill="#0F121A"/>
<path d="M372.442 222.813L375.799 200.624L380.201 201.781L372.442 222.813Z" fill="#0F121A"/>
<path d="M387.817 228.573L406.643 199.024L412.256 203.926L387.817 228.573Z" fill="#0F121A"/>
<path d="M401.342 241.139L429.605 222.911L432.211 229.839L401.342 241.139Z" fill="#0F121A"/>
<path d="M404.728 252.101L436.484 248.887L436.582 257.193L404.728 252.101Z" fill="#0F121A"/>
<path d="M137.733 307.703C143.229 309.23 149.113 306.741 151.788 301.463L158.35 288.516L155.025 286.831L148.463 299.778C146.378 303.891 141.482 305.564 137.317 303.583L125.98 298.192C121.949 296.276 120.107 291.535 121.786 287.4L124.314 281.175L120.861 279.772L118.333 285.997C115.912 291.959 118.568 298.794 124.38 301.557L135.717 306.948C136.378 307.264 137.053 307.514 137.733 307.703Z" fill="#0F121A"/>
<path d="M93.5449 268.921L100.156 271.906L102.536 272.993L109.844 276.301L112.239 277.379L119.181 280.52L121.597 281.617L128.023 284.525L130.451 285.625L136.615 288.408L139.032 289.505L145.208 292.292L147.6 293.382L153.796 296.188L156.168 297.259L157.887 298.034L164.783 289.737L159.709 279.597L157.905 275.975L153.037 266.253L151.221 262.628L146.361 252.921L144.557 249.299L139.692 239.565L137.876 235.939L133.962 228.121L131.903 230.192L128.73 233.398L119.12 243.107L115.916 246.33L105.839 256.515L102.613 259.771L93.5449 268.921Z" fill="#1F2433"/>
<path d="M164.785 289.742L171.38 292.935L161.942 304.256L157.891 298.029L164.785 289.742Z" fill="#0F121A"/>
<path d="M157.905 275.975L153.796 296.188L156.168 297.259L159.709 279.597L157.905 275.975Z" fill="#0F121A"/>
<path d="M151.221 262.628L145.208 292.292L147.6 293.382L153.037 266.253L151.221 262.628Z" fill="#0F121A"/>
<path d="M144.557 249.299L136.615 288.408L139.032 289.505L146.361 252.921L144.557 249.299Z" fill="#0F121A"/>
<path d="M137.876 235.939L128.023 284.525L130.451 285.625L139.692 239.565L137.876 235.939Z" fill="#0F121A"/>
<path d="M128.73 233.398L119.181 280.52L121.597 281.617L131.903 230.192L128.73 233.398Z" fill="#0F121A"/>
<path d="M115.916 246.33L109.844 276.301L112.239 277.379L119.12 243.107L115.916 246.33Z" fill="#0F121A"/>
<path d="M102.613 259.771L100.156 271.906L102.536 272.993L105.839 256.515L102.613 259.771Z" fill="#0F121A"/>
<path d="M124.038 222.813L120.681 200.624L116.279 201.781L124.038 222.813Z" fill="#0F121A"/>
<path d="M108.663 228.573L89.837 199.024L84.224 203.926L108.663 228.573Z" fill="#0F121A"/>
<path d="M95.1379 241.139L66.8739 222.911L64.2689 229.839L95.1379 241.139Z" fill="#0F121A"/>
<path d="M91.7519 252.101L59.9959 248.887L59.8979 257.193L91.7519 252.101Z" fill="#0F121A"/>
<path d="M250 427.561C357.082 427.561 443.889 422.492 443.889 416.238C443.889 409.985 357.082 404.915 250 404.915C142.918 404.915 56.111 409.985 56.111 416.238C56.111 422.492 142.918 427.561 250 427.561Z" fill="#0F121A"/>
<path d="M392.388 381.37C392.388 381.37 397.247 393.078 401.348 395.879C401.348 395.879 405.818 390.536 414.717 388.624" stroke="#171B26" stroke-width="0.7429" stroke-miterlimit="10" stroke-linecap="round" stroke-linejoin="round"/>
<path d="M404.955 386.988C404.955 386.988 402.55 379.457 397.469 379.478C392.387 379.499 393.221 375.508 391.683 374.289C390.145 373.07 387.534 377.918 391.133 381.542C394.732 385.165 392.154 384.28 394.068 387.9C395.982 391.519 406.527 393.304 404.955 386.988Z" fill="#004FFF"/>
<path opacity="0.2" d="M404.955 386.988C404.955 386.988 402.55 379.457 397.469 379.478C392.387 379.499 393.221 375.508 391.683 374.289C390.145 373.07 387.534 377.918 391.133 381.542C394.732 385.165 392.154 384.28 394.068 387.9C395.982 391.519 406.527 393.304 404.955 386.988Z" fill="#F2F4F7"/>
<path d="M407.94 391.792C404.244 382.553 397.377 374.572 397.693 364.131C397.903 357.197 400.554 350.469 402.709 343.958C404.723 337.872 406.909 331.762 408.038 325.434C409.088 319.554 408.97 313.432 406.039 308.081" stroke="#171B26" stroke-width="0.7354" stroke-miterlimit="10" stroke-linecap="round" stroke-linejoin="round"/>
<path d="M408.575 313.058C408.575 313.058 410.813 300.141 401.557 301.242C392.301 302.342 404.16 312.367 408.575 313.058Z" fill="#004FFF"/>
<path d="M401.965 323.709C401.965 323.709 397.567 312.912 391.372 316.239C385.177 319.566 395.473 324.877 401.965 323.709Z" fill="#004FFF"/>
<path d="M413.207 323.043C413.207 323.043 410.903 314.249 417.82 313.048C424.737 311.848 422.804 320.154 413.207 323.043Z" fill="#004FFF"/>
<path d="M411.276 341.959C411.276 341.959 419.37 332.279 423.632 337.967C427.893 343.655 417.704 346.473 411.276 341.959Z" fill="#004FFF"/>
<path d="M394.573 342.915C394.573 342.915 390.788 329.377 383.899 334.814C377.01 340.251 388.219 345.261 394.573 342.915Z" fill="#004FFF"/>
<path d="M390.862 363.644C390.862 363.644 394.363 348.886 384.271 351.978C374.178 355.069 383.076 361.335 390.862 363.644Z" fill="#004FFF"/>
<path d="M407.437 366.283C407.437 366.283 414.643 354.725 421.787 357.001C428.931 359.276 424.99 370.291 407.437 366.283Z" fill="#004FFF"/>
<g opacity="0.2">
<path d="M408.575 313.058C408.575 313.058 410.813 300.141 401.557 301.242C392.301 302.342 404.16 312.367 408.575 313.058Z" fill="#F2F4F7"/>
<path d="M401.965 323.709C401.965 323.709 397.567 312.912 391.372 316.239C385.177 319.566 395.473 324.877 401.965 323.709Z" fill="#F2F4F7"/>
<path d="M413.207 323.043C413.207 323.043 410.903 314.249 417.82 313.048C424.737 311.848 422.804 320.154 413.207 323.043Z" fill="#F2F4F7"/>
<path d="M411.276 341.959C411.276 341.959 419.37 332.279 423.632 337.967C427.893 343.655 417.704 346.473 411.276 341.959Z" fill="#F2F4F7"/>
<path d="M394.573 342.915C394.573 342.915 390.788 329.377 383.899 334.814C377.01 340.251 388.219 345.261 394.573 342.915Z" fill="#F2F4F7"/>
<path d="M390.862 363.644C390.862 363.644 394.363 348.886 384.271 351.978C374.178 355.069 383.076 361.335 390.862 363.644Z" fill="#F2F4F7"/>
<path d="M407.437 366.283C407.437 366.283 414.643 354.725 421.787 357.001C428.931 359.276 424.99 370.291 407.437 366.283Z" fill="#F2F4F7"/>
</g>
<path d="M415.086 319.772C415.086 319.772 411.989 326.249 407.011 330.086C407.011 330.086 402.402 323.691 399.355 322.425" stroke="#171B26" stroke-width="0.7354" stroke-miterlimit="10" stroke-linecap="round" stroke-linejoin="round"/>
<path d="M418.309 340.079C418.309 340.079 408.177 341.24 401.085 348.451C401.085 348.451 395.546 341.592 389.227 339.025" stroke="#171B26" stroke-width="0.7354" stroke-miterlimit="10" stroke-linecap="round" stroke-linejoin="round"/>
<path d="M386.849 357.491C386.849 357.491 392.857 368.246 399.037 371.864C399.037 371.864 409.513 363.535 417.901 362.129" stroke="#171B26" stroke-width="0.7354" stroke-miterlimit="10" stroke-linecap="round" stroke-linejoin="round"/>
<path d="M402.462 388.855C402.462 388.855 398.968 384.156 403.5 381.402C408.032 378.648 409.075 380.614 411.866 378.658C414.656 376.703 416.611 372.22 417.252 374.986C417.893 377.752 414.644 379.524 415.892 380.738C417.14 381.953 408.557 390.731 402.462 388.855Z" fill="#004FFF"/>
<path d="M402.058 386.278C402.058 386.278 397.803 383.258 394.665 383.876C391.527 384.494 388.898 381.674 388.66 384.124C388.422 386.573 394.124 392.005 402.058 386.278Z" fill="#004FFF"/>
<path d="M383.051 384.924L384.284 395.556L384.448 396.96L384.96 401.417L385.332 404.567L385.569 406.617L386.766 416.959H417.552L418.748 406.617L418.986 404.567L419.357 401.417L419.87 396.96L420.033 395.556L421.266 384.924H383.051Z" fill="#171B26"/>
<path opacity="0.4" d="M384.96 401.417L385.332 404.567H418.986L419.357 401.417H384.96Z" fill="#08090D"/>
<path opacity="0.4" d="M385.569 406.617L386.766 416.959H417.552L418.748 406.617H385.569Z" fill="#08090D"/>
<path opacity="0.4" d="M384.284 395.556L384.448 396.96H419.87L420.033 395.556H384.284Z" fill="#08090D"/>
<path d="M122.553 262.362H117.669V416.954H122.553V262.362Z" fill="#171B26"/>
<path opacity="0.5" d="M122.553 262.359H117.673V416.959H122.553V262.359Z" fill="#F2F4F7"/>
<path opacity="0.2" d="M122.553 263.339V299.909L117.673 298.149V263.339H122.553Z" fill="#08090D"/>
<path d="M146.088 238.627H94.134V288.059H146.088V238.627Z" fill="#004FFF"/>
<path d="M143.466 241.392V285.293H96.757V241.392H143.466ZM144.516 240.342H143.466H96.757H95.707V241.392V285.293V286.343H96.757H143.466H144.516V285.293V241.392V240.342Z" fill="#F2F4F7"/>
<path d="M125.08 264.369H115.143V273.867H109.698L120.111 283.009L130.525 273.867H125.08V264.369Z" fill="#F2F4F7"/>
<path d="M113.335 249.319H114.778V252.089C114.027 252.654 112.994 252.957 112.019 252.957C109.874 252.957 108.294 251.484 108.294 249.427C108.294 247.37 109.874 245.898 112.048 245.898C113.247 245.898 114.242 246.307 114.905 247.078L113.891 248.014C113.393 247.488 112.818 247.244 112.126 247.244C110.8 247.244 109.893 248.131 109.893 249.428C109.893 250.705 110.8 251.612 112.106 251.612C112.535 251.612 112.935 251.534 113.335 251.319V249.319Z" fill="#F2F4F7"/>
<path d="M116.237 246.015H117.817V252.84H116.237V246.015Z" fill="#F2F4F7"/>
<path d="M125.957 246.015L123.003 252.84H121.443L118.498 246.015H120.205L122.282 250.89L124.388 246.015H125.957Z" fill="#F2F4F7"/>
<path d="M131.805 251.572V252.84H126.52V246.015H131.678V247.283H128.09V248.765H131.259V249.994H128.09V251.574H131.805V251.572Z" fill="#F2F4F7"/>
<path d="M109.538 260.377H106.369L105.765 261.84H104.146L107.188 255.015H108.748L111.8 261.84H110.142L109.538 260.377ZM109.041 259.178L107.959 256.565L106.877 259.178H109.041Z" fill="#F2F4F7"/>
<path d="M122.455 255.015L120.222 261.84H118.526L117.025 257.218L115.475 261.84H113.788L111.545 255.015H113.183L114.724 259.812L116.333 255.015H117.795L119.355 259.851L120.944 255.015H122.455Z" fill="#F2F4F7"/>
<path d="M127.599 260.377H124.43L123.826 261.84H122.207L125.25 255.015H126.81L129.862 261.84H128.204L127.599 260.377ZM127.102 259.178L126.019 256.565L124.937 259.178H127.102Z" fill="#F2F4F7"/>
<path d="M133.427 259.422V261.84H131.847V259.402L129.204 255.014H130.881L132.704 258.046L134.527 255.014H136.077L133.427 259.422Z" fill="#F2F4F7"/>
<path d="M158.541 335.713C155.13 336.067 143.791 336.925 139.859 332.493C138.93 331.445 137.964 329.759 138.645 327.035C139.493 323.644 142.022 321.966 145.585 321.966C145.587 321.966 145.588 321.966 145.59 321.966C150.244 321.966 156.417 325.141 159.609 328.983C161.715 325.325 165.843 319.772 172.042 320.406C176.539 320.856 179.938 324.28 179.618 328.04C179.445 330.069 177.55 336.436 160.642 335.657L159.378 338.983L158.541 335.713ZM145.592 325.733C145.592 325.733 145.59 325.733 145.588 325.733C143.743 325.733 142.729 326.299 142.299 328.018C141.996 329.229 142.342 329.617 142.677 329.994C144.777 332.361 152.242 332.698 157.38 332.246C155.502 329.24 149.707 325.733 145.592 325.733ZM162.158 331.944C172.61 332.206 175.726 329.382 175.868 327.722C175.994 326.248 174.225 324.409 171.669 324.153C171.472 324.133 171.277 324.124 171.084 324.124C166.589 324.124 163.446 329.342 162.158 331.944Z" fill="#171B26"/>
<g opacity="0.7">
<path d="M158.541 335.713C155.13 336.067 143.791 336.925 139.859 332.493C138.93 331.445 137.964 329.759 138.645 327.035C139.493 323.644 142.022 321.966 145.585 321.966C145.587 321.966 145.588 321.966 145.59 321.966C150.244 321.966 156.417 325.141 159.609 328.983C161.715 325.325 165.843 319.772 172.042 320.406C176.539 320.856 179.938 324.28 179.618 328.04C179.445 330.069 177.55 336.436 160.642 335.657L159.378 338.983L158.541 335.713ZM145.592 325.733C145.592 325.733 145.59 325.733 145.588 325.733C143.743 325.733 142.729 326.299 142.299 328.018C141.996 329.229 142.342 329.617 142.677 329.994C144.777 332.361 152.242 332.698 157.38 332.246C155.502 329.24 149.707 325.733 145.592 325.733ZM162.158 331.944C172.61 332.206 175.726 329.382 175.868 327.722C175.994 326.248 174.225 324.409 171.669 324.153C171.472 324.133 171.277 324.124 171.084 324.124C166.589 324.124 163.446 329.342 162.158 331.944Z" fill="#F2F4F7"/>
</g>
<path d="M123.054 384.096H196.439V333.683H123.054V384.096Z" fill="#004FFF"/>
<path opacity="0.2" d="M123.054 384.096H196.439V333.683H123.054V384.096Z" fill="#F2F4F7"/>
<path opacity="0.2" d="M123.054 384.096H196.439V351.101H123.054V384.096Z" fill="#08090D"/>
<path d="M141.57 384.096H147.533V333.683H141.57V384.096Z" fill="#171B26"/>
<path opacity="0.2" d="M167.28 384.096H196.439V333.683H167.28V384.096Z" fill="#08090D"/>
<path d="M181.757 384.096H186.135V333.683H181.757V384.096Z" fill="#171B26"/>
<path opacity="0.8" d="M141.57 384.096H147.533V333.683H141.57V384.096Z" fill="#F2F4F7"/>
<path opacity="0.7" d="M181.757 384.096H186.135V333.683H181.757V384.096Z" fill="#F2F4F7"/>
<path d="M124.845 357.855C124.843 357.853 124.841 357.853 124.839 357.853C122.36 356.957 100.579 348.885 99.3569 341.168C99.0749 339.39 99.8229 337.797 101.58 336.432C103.459 334.97 105.552 334.51 107.797 335.049C112.686 336.233 117.468 342.14 120.903 347.477C119.062 341.034 117.631 333.172 120.148 329.531C121.182 328.037 122.732 327.33 124.793 327.372C126.869 327.437 128.456 328.285 129.509 329.889C132.186 333.97 130.622 342.441 128.81 348.903C132.772 342.633 138.365 335.105 142.252 335.441C143.243 335.518 144.597 336.109 145.42 338.473C146.178 340.646 146.015 342.841 144.938 344.995C141.015 352.837 126.067 357.663 125.432 357.864C125.43 357.864 125.428 357.866 125.427 357.866C125.337 357.895 125.245 357.907 125.155 357.907C125.047 357.906 124.946 357.892 124.845 357.855ZM127.136 355.298C131.431 353.649 140.575 349.604 143.292 344.171C144.151 342.456 144.278 340.789 143.682 339.079C143.08 337.353 142.347 337.294 142.106 337.276C142.063 337.272 142.019 337.271 141.975 337.271C138.53 337.27 131.538 347.535 127.136 355.298ZM102.708 337.884C101.505 338.82 101.003 339.801 101.173 340.882C101.977 345.958 115.832 352.376 123.28 355.298C120.737 350.4 113.927 338.425 107.363 336.837C106.901 336.726 106.453 336.67 106.016 336.67C104.845 336.67 103.753 337.072 102.708 337.884ZM121.66 330.577C118.722 334.828 122.598 347.667 125.131 354.419C127.463 347.854 130.934 335.414 127.97 330.898C127.255 329.808 126.196 329.256 124.734 329.211C124.671 329.209 124.61 329.207 124.549 329.207C123.242 329.208 122.296 329.658 121.66 330.577Z" fill="#171B26"/>
<g opacity="0.3">
<path d="M124.845 357.855C124.843 357.853 124.841 357.853 124.839 357.853C122.36 356.957 100.579 348.885 99.3569 341.168C99.0749 339.39 99.8229 337.797 101.58 336.432C103.459 334.97 105.552 334.51 107.797 335.049C112.686 336.233 117.468 342.14 120.903 347.477C119.062 341.034 117.631 333.172 120.148 329.531C121.182 328.037 122.732 327.33 124.793 327.372C126.869 327.437 128.456 328.285 129.509 329.889C132.186 333.97 130.622 342.441 128.81 348.903C132.772 342.633 138.365 335.105 142.252 335.441C143.243 335.518 144.597 336.109 145.42 338.473C146.178 340.646 146.015 342.841 144.938 344.995C141.015 352.837 126.067 357.663 125.432 357.864C125.43 357.864 125.428 357.866 125.427 357.866C125.337 357.895 125.245 357.907 125.155 357.907C125.047 357.906 124.946 357.892 124.845 357.855ZM127.136 355.298C131.431 353.649 140.575 349.604 143.292 344.171C144.151 342.456 144.278 340.789 143.682 339.079C143.08 337.353 142.347 337.294 142.106 337.276C142.063 337.272 142.019 337.271 141.975 337.271C138.53 337.27 131.538 347.535 127.136 355.298ZM102.708 337.884C101.505 338.82 101.003 339.801 101.173 340.882C101.977 345.958 115.832 352.376 123.28 355.298C120.737 350.4 113.927 338.425 107.363 336.837C106.901 336.726 106.453 336.67 106.016 336.67C104.845 336.67 103.753 337.072 102.708 337.884ZM121.66 330.577C118.722 334.828 122.598 347.667 125.131 354.419C127.463 347.854 130.934 335.414 127.97 330.898C127.255 329.808 126.196 329.256 124.734 329.211C124.671 329.209 124.61 329.207 124.549 329.207C123.242 329.208 122.296 329.658 121.66 330.577Z" fill="#08090D"/>
</g>
<path d="M171.869 354.175H80.476V416.959H171.869V354.175Z" fill="#004FFF"/>
<path opacity="0.6" d="M171.869 354.175H80.476V416.959H171.869V354.175Z" fill="#F2F4F7"/>
<path opacity="0.1" d="M171.869 375.867H80.476V416.958H171.869V375.867Z" fill="#08090D"/>
<path opacity="0.2" d="M116.79 354.175H80.476V416.959H116.79V354.175Z" fill="#F2F4F7"/>
<path d="M148.809 354.175H141.383V416.959H148.809V354.175Z" fill="#171B26"/>
<path d="M98.762 354.175H93.308V416.959H98.762V354.175Z" fill="#171B26"/>
<path opacity="0.2" d="M148.809 354.175H141.383V416.959H148.809V354.175Z" fill="#08090D"/>
<path opacity="0.1" d="M98.762 354.175H93.308V416.959H98.762V354.175Z" fill="#08090D"/>
<path d="M181.361 368.576C177.95 368.93 166.611 369.788 162.679 365.357C161.75 364.309 160.784 362.623 161.465 359.899C162.313 356.508 164.843 354.83 168.406 354.83C168.408 354.83 168.409 354.83 168.411 354.83C173.065 354.83 179.238 358.005 182.43 361.847C184.536 358.189 188.664 352.635 194.863 353.27C199.36 353.72 202.759 357.144 202.439 360.904C202.266 362.933 200.371 369.301 183.463 368.521L182.199 371.847L181.361 368.576ZM168.411 358.595C168.411 358.595 168.409 358.595 168.407 358.595C166.562 358.595 165.548 359.161 165.118 360.88C164.815 362.091 165.161 362.479 165.496 362.856C167.596 365.223 175.061 365.56 180.199 365.108C178.322 362.103 172.527 358.595 168.411 358.595ZM184.977 364.807C195.429 365.07 198.545 362.245 198.687 360.585C198.813 359.111 197.044 357.272 194.488 357.016C194.291 356.996 194.097 356.987 193.903 356.987C189.408 356.987 186.265 362.205 184.977 364.807Z" fill="#004FFF"/>
<path d="M145.874 416.959H219.259V366.546H145.874V416.959Z" fill="#171B26"/>
<path opacity="0.5" d="M145.874 416.959H219.259V366.546H145.874V416.959Z" fill="#F2F4F7"/>
<path opacity="0.2" d="M145.874 416.959H219.259V383.964H145.874V416.959Z" fill="#08090D"/>
<path d="M164.391 416.959H170.354V366.546H164.391V416.959Z" fill="#004FFF"/>
<path d="M204.577 416.959H208.956V366.546H204.577V416.959Z" fill="#004FFF"/>
<path opacity="0.2" d="M190.1 416.959H219.259V366.546H190.1V416.959Z" fill="#08090D"/>
<path opacity="0.2" d="M164.391 416.959H170.354V366.546H164.391V416.959Z" fill="#F2F4F7"/>
<path d="M106.959 389.964C106.511 388.766 106.469 386.912 108.814 384.874C110.135 383.725 111.652 383.278 113.315 383.542C117.742 384.241 122.061 389.991 123.763 392.514C126.197 389.163 133.114 380.262 137.493 381.047C138.966 381.31 139.98 382.49 140.505 384.556C141.123 386.981 140.756 389.127 139.414 390.933C135.699 395.93 125.706 396.416 125.283 396.434L125.243 396.435C117.359 396.435 108.547 394.212 106.959 389.964ZM124.542 394.589C124.768 394.594 124.993 394.595 125.221 394.595C125.685 394.571 134.806 394.048 137.938 389.835C138.947 388.478 139.204 386.898 138.723 385.008C138.391 383.705 137.868 382.981 137.17 382.856C137.071 382.838 136.968 382.829 136.862 382.829C133.813 382.83 127.784 389.903 124.542 394.589ZM110.021 386.261C108.777 387.342 108.327 388.371 108.682 389.321C109.545 391.631 115.093 394.106 122.88 394.532C122.294 393.59 117.479 386.06 113.027 385.357C112.818 385.324 112.614 385.308 112.414 385.308C111.543 385.308 110.755 385.623 110.021 386.261Z" fill="#1F2433"/>
<path d="M85.901 416.958H159.286V394.152H85.901V416.958Z" fill="#004FFF"/>
<path opacity="0.2" d="M85.901 416.958H159.286V394.152H85.901V416.958Z" fill="#F2F4F7"/>
<path opacity="0.2" d="M85.901 416.958H159.286V402.368H85.901V416.958Z" fill="#08090D"/>
<path d="M104.417 416.958H110.38V394.152H104.417V416.958Z" fill="#F2F4F7"/>
<path d="M144.603 416.958H148.982V394.152H144.603V416.958Z" fill="#F2F4F7"/>
<path opacity="0.2" d="M130.127 416.958H159.286V394.152H130.127V416.958Z" fill="#08090D"/>
<path d="M367.128 416.959H242.424C237.24 416.959 233.236 412.744 233.48 407.546L245.882 143.818C246.126 138.619 250.527 134.405 255.711 134.405H380.415C385.599 134.405 389.603 138.619 389.359 143.818L376.958 407.546C376.712 412.744 372.312 416.959 367.128 416.959Z" fill="#004FFF"/>
<path opacity="0.4" d="M367.128 416.959H242.424C237.24 416.959 233.236 412.744 233.48 407.546L245.882 143.818C246.126 138.619 250.527 134.405 255.711 134.405H380.415C385.599 134.405 389.603 138.619 389.359 143.818L376.958 407.546C376.712 412.744 372.312 416.959 367.128 416.959Z" fill="#F2F4F7"/>
<path opacity="0.2" d="M367.128 416.959H242.424C237.24 416.959 233.236 412.744 233.48 407.546L245.882 143.818C246.126 138.619 250.527 134.405 255.711 134.405H380.415C385.599 134.405 389.603 138.619 389.359 143.818L376.958 407.546C376.712 412.744 372.312 416.959 367.128 416.959Z" fill="#08090D"/>
<path d="M357.122 416.959H232.418C227.234 416.959 223.23 412.744 223.474 407.546L235.876 143.818C236.12 138.619 240.521 134.405 245.705 134.405H370.409C375.593 134.405 379.597 138.619 379.353 143.818L366.951 407.546C366.707 412.744 362.306 416.959 357.122 416.959Z" fill="#004FFF"/>
<path opacity="0.4" d="M357.122 416.959H232.418C227.234 416.959 223.23 412.744 223.474 407.546L235.876 143.818C236.12 138.619 240.521 134.405 245.705 134.405H370.409C375.593 134.405 379.597 138.619 379.353 143.818L366.951 407.546C366.707 412.744 362.306 416.959 357.122 416.959Z" fill="#F2F4F7"/>
<path opacity="0.6" d="M307.74 140.671C307.688 141.781 306.823 142.681 305.809 142.681C304.795 142.681 304.015 141.781 304.067 140.671C304.119 139.56 304.984 138.66 305.998 138.66C307.013 138.66 307.792 139.56 307.74 140.671Z" fill="#08090D"/>
<path opacity="0.6" d="M311.457 140.671C311.423 141.382 310.87 141.959 310.22 141.959C309.57 141.959 309.071 141.382 309.104 140.671C309.137 139.959 309.691 139.383 310.341 139.383C310.991 139.383 311.49 139.959 311.457 140.671Z" fill="#08090D"/>
<path d="M374.508 143.87L362.135 406.987C362.033 409.151 360.365 410.832 358.389 410.832H231.347C229.53 410.832 228.234 409.292 228.328 407.303L240.731 143.553C240.812 141.83 242.038 140.324 243.612 140.324H275.372C276.269 140.324 277.052 140.965 277.343 141.889L278.491 145.435C278.783 146.351 279.566 146.983 280.463 146.983H334.535C335.432 146.983 336.274 146.375 336.652 145.46L338.135 141.898C338.513 140.974 339.357 140.325 340.254 140.325H371.559C373.291 140.324 374.597 141.972 374.508 143.87Z" fill="#171B26"/>
<path opacity="0.3" d="M373.902 156.763L362.775 393.392H228.982L240.109 156.763H373.902Z" fill="#F2F4F7"/>
<path d="M369.164 187.31H241.974L232.441 390.042H359.631L369.164 187.31Z" fill="#004FFF"/>
<path opacity="0.8" d="M369.164 187.31H241.974L232.441 390.042H359.631L369.164 187.31Z" fill="#F2F4F7"/>
<path d="M296.288 403.953H294.475C293.51 403.953 292.765 403.169 292.811 402.202L292.919 399.895C292.965 398.928 293.783 398.144 294.748 398.144H296.561C297.525 398.144 298.27 398.928 298.225 399.895L298.117 402.202C298.072 403.169 297.253 403.953 296.288 403.953Z" stroke="#F2F4F7" stroke-width="0.8636" stroke-miterlimit="10"/>
<path d="M369.26 185.267H242.07L243.192 161.401H370.383L369.26 185.267Z" fill="#004FFF"/>
<path d="M363.872 169.262C363.844 169.852 363.385 170.33 362.846 170.33C362.307 170.33 361.893 169.852 361.921 169.262C361.949 168.672 362.408 168.194 362.947 168.194C363.486 168.194 363.9 168.672 363.872 169.262Z" fill="#F2F4F7"/>
<path d="M363.681 173.334C363.653 173.924 363.194 174.402 362.655 174.402C362.116 174.402 361.702 173.924 361.73 173.334C361.758 172.744 362.217 172.266 362.756 172.266C363.295 172.266 363.708 172.744 363.681 173.334Z" fill="#F2F4F7"/>
<path d="M363.489 177.406C363.461 177.996 363.002 178.474 362.463 178.474C361.924 178.474 361.51 177.996 361.538 177.406C361.566 176.816 362.025 176.338 362.564 176.338C363.103 176.338 363.517 176.816 363.489 177.406Z" fill="#F2F4F7"/>
<path d="M276.503 177.49H275.678L278.368 171.003H279.18L281.26 177.49H280.435L278.751 172.029H278.701L276.503 177.49ZM276.927 174.956H280.25L280.217 175.653H276.894L276.927 174.956ZM281.43 171.699L281.462 171.003H286.333L286.301 171.699H284.258L283.986 177.49H283.199L283.472 171.699H281.43ZM287.159 171.699L287.192 171.003H292.063L292.03 171.699H289.988L289.715 177.49H288.929L289.201 171.699H287.159ZM292.971 177.49L293.276 171.003H297.196L297.163 171.699H294.03L293.927 173.891H296.857L296.824 174.588H293.894L293.79 176.793H296.974L296.941 177.49H292.971ZM303.763 171.003L303.458 177.49H302.697L299.398 172.396H299.334L299.095 177.49H298.308L298.613 171.003H299.375L302.686 176.109H302.749L302.99 171.003H303.763ZM307.036 177.49H305.032L305.337 171.003H307.43C308.06 171.003 308.593 171.132 309.029 171.392C309.465 171.65 309.791 172.02 310.007 172.504C310.223 172.985 310.316 173.562 310.284 174.234C310.252 174.909 310.104 175.491 309.841 175.979C309.577 176.465 309.208 176.838 308.735 177.1C308.262 177.36 307.696 177.49 307.036 177.49ZM305.851 176.793H307.018C307.555 176.793 308.005 176.689 308.368 176.483C308.73 176.276 309.007 175.981 309.199 175.599C309.39 175.217 309.498 174.761 309.523 174.234C309.548 173.71 309.483 173.259 309.33 172.881C309.176 172.501 308.934 172.209 308.604 172.007C308.273 171.802 307.854 171.699 307.346 171.699H306.091L305.851 176.793ZM311.411 177.49H310.587L313.277 171.003H314.088L316.168 177.49H315.343L313.66 172.029H313.609L311.411 177.49ZM311.835 174.956H315.158L315.125 175.653H311.802L311.835 174.956ZM322.635 171.003L322.329 177.49H321.568L318.269 172.396H318.206L317.966 177.49H317.18L317.485 171.003H318.246L321.557 176.109H321.621L321.861 171.003H322.635ZM329.339 173.03H328.552C328.517 172.804 328.445 172.605 328.336 172.434C328.23 172.263 328.097 172.12 327.938 172.004C327.781 171.885 327.604 171.797 327.408 171.737C327.212 171.678 327.007 171.649 326.791 171.649C326.398 171.649 326.037 171.748 325.708 171.946C325.382 172.145 325.115 172.437 324.909 172.824C324.705 173.21 324.589 173.684 324.563 174.246C324.537 174.808 324.607 175.282 324.775 175.668C324.945 176.055 325.184 176.347 325.492 176.546C325.802 176.744 326.153 176.844 326.546 176.844C326.762 176.844 326.971 176.814 327.172 176.755C327.374 176.696 327.559 176.608 327.727 176.492C327.897 176.374 328.044 176.229 328.166 176.058C328.29 175.885 328.381 175.686 328.438 175.463H329.224C329.15 175.794 329.028 176.091 328.859 176.353C328.69 176.614 328.485 176.837 328.244 177.021C328.003 177.203 327.735 177.341 327.441 177.436C327.149 177.531 326.84 177.579 326.512 177.579C325.958 177.579 325.472 177.443 325.053 177.173C324.635 176.903 324.313 176.518 324.09 176.02C323.866 175.522 323.77 174.93 323.802 174.246C323.834 173.562 323.986 172.971 324.256 172.472C324.527 171.974 324.885 171.59 325.329 171.319C325.773 171.049 326.272 170.914 326.825 170.914C327.153 170.914 327.459 170.961 327.742 171.056C328.027 171.151 328.281 171.291 328.505 171.475C328.729 171.656 328.913 171.878 329.057 172.14C329.202 172.399 329.295 172.696 329.339 173.03ZM330.4 177.49L330.705 171.003H334.625L334.592 171.699H331.459L331.356 173.891H334.286L334.253 174.588H331.323L331.219 176.793H334.403L334.37 177.49H330.4Z" fill="#F2F4F7"/>
<path d="M291.182 382.017L296.27 385.054L301.644 382.017" stroke="#F2F4F7" stroke-width="0.8636" stroke-miterlimit="10" stroke-linecap="round" stroke-linejoin="round"/>
<path d="M291.353 378.396L296.441 381.432L301.814 378.396" stroke="#F2F4F7" stroke-width="0.8636" stroke-miterlimit="10" stroke-linecap="round" stroke-linejoin="round"/>
<path opacity="0.6" d="M255.128 150.928H256.78L256.894 148.516H255.241L255.128 150.928Z" fill="#F2F4F7"/>
<path opacity="0.6" d="M252.434 150.928H254.087L254.238 147.711H252.586L252.434 150.928Z" fill="#F2F4F7"/>
<path opacity="0.6" d="M249.741 150.928H251.394L251.583 146.906H249.93L249.741 150.928Z" fill="#F2F4F7"/>
<path opacity="0.6" d="M247.048 150.928H248.701L248.928 146.101H247.275L247.048 150.928Z" fill="#F2F4F7"/>
<path opacity="0.6" d="M359.076 150.048H358.096L358.21 147.635H359.189L359.076 150.048Z" fill="#F2F4F7"/>
<path opacity="0.6" d="M359.708 150.928H367.512L367.708 146.755H359.904L359.708 150.928Z" fill="#F2F4F7"/>
<path d="M328.669 218.912C316.105 216.928 305.811 232.953 302.767 238.273C299.723 232.953 289.429 216.928 276.865 218.912C261.945 221.268 262.273 246.765 302.767 240.11C343.261 246.766 343.589 221.268 328.669 218.912ZM274.887 227.171C280.724 221.423 297.479 237.936 297.479 237.936C297.479 237.936 269.051 232.92 274.887 227.171ZM308.055 237.936C308.055 237.936 324.81 221.423 330.647 227.171C336.484 232.92 308.055 237.936 308.055 237.936Z" fill="#004FFF"/>
<path opacity="0.6" d="M328.665 218.909C316.105 216.929 305.815 232.949 302.765 238.269C299.725 232.949 289.425 216.929 276.865 218.909C266.685 220.519 263.605 232.909 275.555 238.499C281.105 241.099 289.915 242.219 302.765 240.109C315.615 242.219 324.415 241.099 329.975 238.499C341.935 232.919 338.855 220.519 328.665 218.909ZM274.885 227.169C280.725 221.419 297.475 237.939 297.475 237.939C297.475 237.939 269.055 232.919 274.885 227.169ZM308.055 237.939C308.055 237.939 324.815 221.419 330.645 227.169C336.485 232.919 308.055 237.939 308.055 237.939Z" fill="#F2F4F7"/>
<path d="M344.355 241.959L343.705 255.699L343.575 258.559L341.055 312.139H256.595L259.115 258.559L259.245 255.699L259.895 241.959H344.355Z" fill="#004FFF"/>
<path d="M346.445 239.959L345.706 255.699H257.245L257.985 239.959H346.445Z" fill="#004FFF"/>
<path opacity="0.7" d="M308.326 239.959L308.226 241.959L307.586 255.699L304.926 312.139H291.926L294.576 255.699L295.226 241.959L295.316 239.959H308.326Z" fill="#F2F4F7"/>
<path opacity="0.2" d="M343.705 255.699L343.575 258.559H259.115L259.245 255.699H343.705Z" fill="#08090D"/>
<path d="M320.238 352.201H273.571C271.055 352.201 269.103 350.154 269.212 347.629L269.761 334.927C269.87 332.402 271.999 330.355 274.515 330.355H321.182C323.699 330.355 325.65 332.402 325.541 334.927L324.992 347.629C324.883 350.154 322.754 352.201 320.238 352.201Z" fill="#004FFF"/>
<path opacity="0.2" d="M320.238 352.201H273.571C271.055 352.201 269.103 350.154 269.212 347.629L269.761 334.927C269.87 332.402 271.999 330.355 274.515 330.355H321.182C323.699 330.355 325.65 332.402 325.541 334.927L324.992 347.629C324.883 350.154 322.754 352.201 320.238 352.201Z" fill="#F2F4F7"/>
<path d="M278.09 341.279C278.199 338.764 280.196 336.946 282.775 336.946C284.142 336.946 285.296 337.44 286.036 338.354L284.987 339.305C284.404 338.644 283.663 338.318 282.787 338.318C281.048 338.318 279.735 339.546 279.66 341.279C279.585 343.011 280.792 344.239 282.531 344.239C283.406 344.239 284.176 343.914 284.817 343.24L285.783 344.203C284.964 345.117 283.767 345.611 282.388 345.611C279.821 345.611 277.981 343.793 278.09 341.279Z" fill="#F2F4F7"/>
<path d="M287.595 337.066H289.154L288.847 344.166H293.237L293.18 345.49H287.231L287.595 337.066Z" fill="#F2F4F7"/>
<path d="M300.008 343.54H295.81L294.899 345.49H293.292L297.434 337.066H298.969L302.395 345.49H300.764L300.008 343.54ZM299.545 342.313L298.121 338.631L296.39 342.313H299.545Z" fill="#F2F4F7"/>
<path d="M303.831 337.066H305.39L305.026 345.49H303.467L303.831 337.066Z" fill="#F2F4F7"/>
<path d="M315.007 345.49L315.236 339.906L312.278 344.527H311.582L309.02 339.978L308.782 345.49H307.295L307.659 337.066H308.942L312.034 342.65L315.55 337.066H316.833L316.481 345.49H315.007Z" fill="#F2F4F7"/>
<path opacity="0.2" d="M367.455 140.32L234.365 278.906L240.73 143.55C240.811 141.831 242.039 140.32 243.609 140.32H275.37C276.271 140.32 277.05 140.962 277.346 141.885L278.493 145.432C278.781 146.346 279.569 146.979 280.462 146.979H334.538C335.431 146.979 336.277 146.373 336.651 145.459L338.133 141.894C338.515 140.971 339.356 140.32 340.257 140.32H367.455Z" fill="#F2F4F7"/>
<path opacity="0.2" d="M373.47 166.01L372.935 177.385L232.251 323.871L232.785 312.505L373.47 166.01Z" fill="#F2F4F7"/>
<path d="M354.978 161.401H236.611V185.267H354.978V161.401Z" fill="#F2F4F7"/>
<g opacity="0.2">
<path d="M369.26 185.267H242.07L243.192 161.401H370.383L369.26 185.267Z" fill="#F2F4F7"/>
<path d="M363.872 169.262C363.844 169.852 363.385 170.33 362.846 170.33C362.307 170.33 361.893 169.852 361.921 169.262C361.949 168.672 362.408 168.194 362.947 168.194C363.486 168.194 363.9 168.672 363.872 169.262Z" fill="#F2F4F7"/>
<path d="M363.681 173.334C363.653 173.924 363.194 174.402 362.655 174.402C362.116 174.402 361.702 173.924 361.73 173.334C361.758 172.744 362.217 172.266 362.756 172.266C363.295 172.266 363.708 172.744 363.681 173.334Z" fill="#F2F4F7"/>
<path d="M363.489 177.406C363.461 177.996 363.002 178.474 362.463 178.474C361.924 178.474 361.51 177.996 361.538 177.406C361.566 176.816 362.025 176.338 362.564 176.338C363.103 176.338 363.517 176.816 363.489 177.406Z" fill="#F2F4F7"/>
</g>
<path d="M252.965 190.522C255.868 187.62 255.868 182.914 252.965 180.012C250.063 177.11 245.357 177.11 242.455 180.012C239.553 182.914 239.553 187.62 242.455 190.522C245.357 193.425 250.063 193.425 252.965 190.522Z" fill="#F2F4F7"/>
<path d="M284.783 186.457C285.441 182.405 282.689 178.588 278.638 177.93C274.586 177.272 270.769 180.024 270.111 184.075C269.453 188.127 272.205 191.945 276.257 192.602C280.308 193.26 284.126 190.508 284.783 186.457Z" fill="#F2F4F7"/>
<path d="M314.405 186.998C315.348 183.003 312.875 179 308.88 178.057C304.885 177.114 300.883 179.588 299.939 183.582C298.996 187.577 301.47 191.58 305.464 192.523C309.459 193.466 313.462 190.992 314.405 186.998Z" fill="#F2F4F7"/>
<path d="M342.146 190.523C345.048 187.621 345.048 182.915 342.146 180.013C339.243 177.11 334.538 177.11 331.635 180.013C328.733 182.915 328.733 187.621 331.635 190.523C334.538 193.425 339.243 193.425 342.146 190.523Z" fill="#F2F4F7"/>
<path d="M359.189 185.267C359.189 185.267 361.261 165.985 370.383 161.401L369.261 185.267H359.189Z" fill="#004FFF"/>
<path d="M355.519 161.401C348.209 165.074 345.429 178.179 344.612 183.243C344.43 183.887 344.326 184.564 344.326 185.267C344.326 189.371 347.653 192.699 351.758 192.699C355.863 192.699 359.19 189.372 359.19 185.267C359.19 185.267 361.262 165.985 370.384 161.401H355.519Z" fill="#004FFF"/>
<path d="M314.885 183.243C314.703 183.887 314.599 184.564 314.599 185.267C314.599 189.371 317.926 192.699 322.031 192.699C326.136 192.699 329.463 189.372 329.463 185.267C329.463 185.267 331.535 165.985 340.657 161.401H325.793C318.482 165.074 315.702 178.179 314.885 183.243Z" fill="#004FFF"/>
<path d="M285.158 183.243C284.976 183.887 284.872 184.563 284.872 185.265V185.266C284.872 189.37 288.199 192.698 292.304 192.698C296.409 192.698 299.736 189.371 299.736 185.266C299.737 185.258 301.81 165.983 310.93 161.401H296.066C288.754 165.074 285.974 178.18 285.158 183.243Z" fill="#004FFF"/>
<path d="M255.43 183.244C255.248 183.887 255.144 184.563 255.144 185.265V185.267C255.144 189.371 258.471 192.699 262.576 192.699C266.681 192.699 270.008 189.372 270.008 185.267C270.01 185.251 272.083 165.983 281.202 161.401H266.338C259.027 165.074 256.247 178.181 255.43 183.244Z" fill="#004FFF"/>
<path d="M225.704 183.243C225.522 183.887 225.418 184.564 225.418 185.267C225.418 189.371 228.745 192.699 232.85 192.699C236.955 192.699 240.282 189.372 240.282 185.267C240.283 185.259 242.356 165.984 251.476 161.402H236.612C229.301 165.074 226.52 178.179 225.704 183.243Z" fill="#004FFF"/>
<path opacity="0.2" d="M359.189 185.267C359.189 185.267 361.261 165.985 370.383 161.401L369.261 185.267H359.189Z" fill="#08090D"/>
<path d="M193.917 239.972C192.535 241.109 191.206 242.045 189.831 243.034C188.458 243.998 187.047 244.901 185.633 245.798C182.814 247.606 179.869 249.224 176.863 250.735L176.634 250.85C175.019 251.661 173.105 251.23 171.977 249.919C171.34 249.179 171.013 248.448 170.799 247.825C170.583 247.186 170.501 246.66 170.441 246.161C170.338 245.184 170.378 244.375 170.452 243.618C170.61 242.117 170.91 240.818 171.241 239.55C171.913 237.035 172.793 234.718 173.71 232.436C174.649 230.165 175.659 227.954 176.734 225.78C177.834 223.612 178.933 221.483 180.181 219.368C180.792 218.332 182.128 217.988 183.163 218.599C184.06 219.128 184.438 220.201 184.126 221.151L184.114 221.186C183.39 223.398 182.624 225.646 181.937 227.885C181.231 230.121 180.544 232.354 179.933 234.579C179.309 236.794 178.769 239.025 178.39 241.149C178.209 242.202 178.078 243.249 178.072 244.121C178.07 244.55 178.102 244.935 178.148 245.139C178.165 245.352 178.334 245.27 177.873 244.663L172.988 243.847C175.648 242.154 178.258 240.371 180.866 238.587C182.17 237.695 183.443 236.755 184.726 235.838C186.005 234.944 187.305 233.961 188.494 233.101L188.569 233.046C190.527 231.63 193.262 232.069 194.679 234.027C196.042 235.909 195.681 238.514 193.917 239.972Z" fill="#FFADAD"/>
<path d="M196.487 228.816C190.238 228.694 180.814 236.145 180.814 236.145C180.814 236.145 182.628 248.215 185.761 249.328C188.895 250.441 196.487 228.816 196.487 228.816Z" fill="#004FFF"/>
<path opacity="0.7" d="M196.49 228.821C196.49 228.821 191.409 243.256 187.846 247.922C187.053 248.979 186.327 249.532 185.758 249.328C184.537 248.893 183.51 246.777 182.72 244.37C181.489 240.622 180.816 236.148 180.816 236.148C180.816 236.148 190.237 228.694 196.49 228.821Z" fill="#F2F4F7"/>
<path opacity="0.1" d="M187.846 247.922C187.053 248.979 186.327 249.532 185.758 249.328C184.537 248.893 183.51 246.777 182.72 244.37C184.765 241.785 188.066 239.953 188.066 239.953C188.87 242.019 188.666 245.262 187.846 247.922Z" fill="#08090D"/>
<path d="M181.339 235.465L185.302 248.782L183.572 249.229L179.848 236.531L181.339 235.465Z" fill="#004FFF"/>
<path d="M209.373 192.381C209.373 192.381 204.046 190.742 200.67 195.233C197.294 199.725 199.244 207.651 199.244 207.651C199.244 207.651 201.767 213.67 197.443 217.524C193.65 220.905 196.805 224.484 202.943 227.144C209.081 229.805 221.321 230.704 225.069 227.643C228.817 224.581 224.008 220.216 225.863 213.424C227.718 206.632 229.061 200.131 222.503 195.162C217.14 191.098 212.312 191.072 209.373 192.381Z" fill="#171B26"/>
<path d="M157.036 416.954C162.481 416.954 163.201 416.87 166.26 416.767C168.88 416.673 169.507 417.001 171.612 416.954C173.371 416.917 173.306 415.233 172.763 413.296C172.492 412.323 172.073 410.267 171.699 408.695L163.722 408.116C162.599 410.259 160.067 413.315 156.998 413.727C154.069 414.12 154.865 416.954 157.036 416.954Z" fill="#004FFF"/>
<path d="M197.314 416.954C202.759 416.954 203.478 416.87 206.538 416.767C209.158 416.673 209.785 417.001 211.89 416.954C213.649 416.917 213.583 415.233 213.041 413.296C212.77 412.323 212.351 410.267 211.977 408.695L204 408.116C202.877 410.259 200.345 413.315 197.276 413.727C194.346 414.12 195.143 416.954 197.314 416.954Z" fill="#004FFF"/>
<path d="M183.964 271.921C183.964 271.921 176.867 312.582 175.704 334.487C174.482 357.492 167.107 394.337 163.208 408.733C164.305 409.719 169.462 410.131 171.901 408.913C171.901 408.913 193.183 366.42 190.415 339.855C208.209 289.75 203.905 271.006 203.905 271.006L183.964 271.921Z" fill="#171B26"/>
<path opacity="0.2" d="M195.683 323.912C198.214 315.566 200.039 308.339 201.327 302.14C200.048 297.292 198.232 293.141 195.763 290.646C195.763 290.646 192.212 304.153 195.683 323.912Z" fill="#08090D"/>
<path d="M191.533 267.896C191.533 267.896 197.355 312.946 200.691 334.627C204.195 357.396 204.64 393.931 203.764 408.82C205.039 409.561 209.689 410.457 212.201 409.672C212.201 409.672 224.074 363.622 216.188 336.875C224.768 296.437 212.644 275.122 212.644 275.122L191.533 267.896Z" fill="#171B26"/>
<path d="M186.206 239.404C185.802 242.216 185.209 244.324 184.844 251.103C184.427 256.829 184.189 262.483 183.964 271.922L212.663 275.141C212.993 266.992 214.968 257.884 222.162 240.272C223.83 236.189 221.62 231.839 217.414 230.93C216.29 230.687 215.095 230.456 213.864 230.257C209.078 229.485 205.15 228.888 200.832 228.796C199.401 228.765 197.913 228.779 196.488 228.816C191.344 228.952 186.929 234.364 186.206 239.404Z" fill="#004FFF"/>
<path opacity="0.7" d="M222.164 240.27C222.002 240.678 221.84 241.075 221.678 241.473C219.716 246.337 218.155 250.532 216.931 254.241C213.911 263.357 212.897 269.479 212.663 275.146L183.968 271.922C184.191 262.482 184.425 256.826 184.846 251.101C185.209 244.328 185.805 242.218 186.208 239.407C186.93 234.369 191.34 228.954 196.489 228.82C197.908 228.776 199.4 228.768 200.832 228.793C205.15 228.887 209.072 229.481 213.861 230.254C215.092 230.458 216.283 230.685 217.415 230.934C221.622 231.835 223.831 236.19 222.164 240.27Z" fill="#F2F4F7"/>
<path d="M181.328 212.606L183.123 213.798C183.798 214.246 184.215 214.993 184.242 215.803L184.368 219.588C184.418 221.101 183.733 222.545 182.528 223.462L181.782 224.03C178.67 222.257 176.613 218.047 176.613 218.047L175.894 216.912C175.254 215.901 175.506 214.635 176.475 214.003L178.705 212.548C179.476 212.046 180.519 212.069 181.328 212.606Z" fill="#FFADAD"/>
<path d="M186.705 208.601C188.587 206.05 191.727 205.174 193.719 206.643C195.711 208.112 195.801 211.372 193.919 213.922C192.037 216.473 188.897 217.349 186.905 215.88C184.913 214.411 184.823 211.152 186.705 208.601Z" fill="#004FFF"/>
<path d="M170.492 196.779L176.996 187.739C176.996 187.739 179.683 196.114 184.61 199.748L181.313 204.218L180.794 204.922L177.492 209.398C172.565 205.764 163.773 205.666 163.773 205.666L170.492 196.779Z" fill="#004FFF"/>
<path opacity="0.8" d="M186.705 208.601C188.587 206.05 191.727 205.174 193.719 206.643C195.711 208.112 195.801 211.372 193.919 213.922C192.037 216.473 188.897 217.349 186.905 215.88C184.913 214.411 184.823 211.152 186.705 208.601Z" fill="#F2F4F7"/>
<path opacity="0.8" d="M170.492 196.779L176.996 187.739C176.996 187.739 179.683 196.114 184.61 199.748L181.313 204.218L180.794 204.922L177.492 209.398C172.565 205.764 163.773 205.666 163.773 205.666L170.492 196.779Z" fill="#F2F4F7"/>
<path d="M186.346 214.33C186.346 214.33 181.831 219.376 178.011 220.943C177.742 221.053 177.434 220.939 177.282 220.692L174.721 216.537C174.512 216.199 174.677 215.757 175.058 215.644C176.645 215.174 180.36 213.906 182.682 211.776C185.698 209.008 186.346 214.33 186.346 214.33Z" fill="#004FFF"/>
<path opacity="0.3" d="M186.346 214.33C186.346 214.33 181.831 219.376 178.011 220.943C177.742 221.053 177.434 220.939 177.282 220.692L174.721 216.537C174.512 216.199 174.677 215.757 175.058 215.644C176.645 215.174 180.36 213.906 182.682 211.776C185.698 209.008 186.346 214.33 186.346 214.33Z" fill="#08090D"/>
<path d="M163.79 205.952C164.919 206.785 168.853 203.368 172.576 198.321C176.299 193.273 178.402 188.506 177.273 187.673C176.144 186.84 172.21 190.257 168.487 195.304C164.763 200.352 162.66 205.119 163.79 205.952Z" fill="#F2F4F7"/>
<path opacity="0.4" d="M164.487 204.412C165.331 205.035 168.403 202.345 171.489 198.307C171.667 198.08 171.844 197.841 172.02 197.601C172.233 197.313 172.44 197.031 172.636 196.751C175.519 192.651 177.145 189.003 176.307 188.385C175.406 187.721 172.027 190.77 168.761 195.197C165.502 199.618 163.586 203.748 164.487 204.412Z" fill="#08090D"/>
<path d="M187.269 216.952C187.269 216.952 188.692 216.19 191.59 212.26C194.727 208.008 194.818 206.717 194.818 206.717L183.821 198.605C183.821 198.605 183.469 200.248 180.528 204.236C177.607 208.195 176.272 208.84 176.272 208.84L187.269 216.952Z" fill="#004FFF"/>
<path d="M171.49 198.307C171.668 198.08 171.845 197.841 172.021 197.601C172.234 197.313 172.441 197.031 172.637 196.751L171.461 196.209C171.192 196.087 170.922 196.203 170.751 196.435L170.632 196.597C170.461 196.829 170.43 197.122 170.626 197.342L171.49 198.307Z" fill="#F2F4F7"/>
<path opacity="0.2" d="M171.49 198.307C171.668 198.08 171.845 197.841 172.021 197.601C172.234 197.313 172.441 197.031 172.637 196.751L171.461 196.209C171.192 196.087 170.922 196.203 170.751 196.435L170.632 196.597C170.461 196.829 170.43 197.122 170.626 197.342L171.49 198.307Z" fill="#08090D"/>
<path d="M214.595 215.481C212.99 219.547 210.735 227.073 213.147 230.177C213.147 230.177 209.242 229.135 200.225 233.404C198.176 229.628 200.115 228.715 200.115 228.715C204.999 228.132 205.526 224.679 205.32 221.356L214.595 215.481Z" fill="#FFADAD"/>
<path opacity="0.2" d="M210.813 217.879L205.324 221.354C205.375 222.14 205.382 222.933 205.294 223.693C207.128 223.637 209.948 221.968 210.487 220.135C210.756 219.22 210.884 218.327 210.813 217.879Z" fill="#08090D"/>
<path d="M219.119 207.467C217.087 214.095 216.369 216.935 212.141 219.749C205.782 223.982 198.088 220.502 198.099 213.514C198.109 207.224 201.43 197.442 208.657 195.989C215.778 194.559 221.151 200.839 219.119 207.467Z" fill="#FFADAD"/>
<path d="M210.346 207.625C210.2 208.189 209.786 208.59 209.422 208.522C209.058 208.454 208.882 207.942 209.029 207.378C209.175 206.814 209.589 206.413 209.953 206.481C210.316 206.549 210.492 207.062 210.346 207.625Z" fill="#171B26"/>
<path d="M203.304 206.08C203.158 206.644 202.744 207.045 202.38 206.977C202.016 206.909 201.84 206.397 201.986 205.833C202.132 205.269 202.546 204.868 202.91 204.936C203.274 205.004 203.45 205.516 203.304 206.08Z" fill="#171B26"/>
<path d="M203.063 204.997L201.828 204.356C201.828 204.356 202.238 205.543 203.063 204.997Z" fill="#171B26"/>
<path d="M205.106 206.877C205.106 206.877 203.531 209.126 202.188 210.102C202.742 210.934 204.074 210.851 204.074 210.851L205.106 206.877Z" fill="#FF7070"/>
<path d="M212.309 204.289C212.221 204.281 212.139 204.237 212.085 204.162C211.246 202.98 210.003 203.074 209.988 203.075C209.804 203.089 209.648 202.954 209.646 202.769C209.644 202.584 209.793 202.421 209.98 202.404C210.045 202.399 211.605 202.28 212.647 203.747C212.751 203.893 212.709 204.105 212.554 204.22C212.48 204.274 212.392 204.297 212.309 204.289Z" fill="#171B26"/>
<path d="M201.364 201.826C201.28 201.829 201.197 201.801 201.135 201.741C201.006 201.617 201.01 201.404 201.144 201.266C202.49 199.878 204.014 200.095 204.079 200.106C204.261 200.134 204.375 200.306 204.332 200.49C204.29 200.674 204.109 200.799 203.928 200.772C203.868 200.763 202.683 200.611 201.613 201.715C201.543 201.785 201.452 201.823 201.364 201.826Z" fill="#171B26"/>
<path d="M210.105 206.543L208.87 205.902C208.87 205.902 209.281 207.088 210.105 206.543Z" fill="#171B26"/>
<path d="M202.738 213.522C202.9 214.381 202.825 216.736 202.823 216.738C203.008 216.78 203.195 216.824 203.38 216.856C205.879 217.369 207.337 216.451 208.014 215.787C208.389 215.391 208.556 214.95 208.653 214.529C208.766 214.056 208.774 213.593 208.775 213.59C207.822 212.785 204.9 212.534 203.604 213.127C203.046 213.327 202.738 213.526 202.738 213.522Z" fill="#171B26"/>
<path d="M203.604 213.126C203.624 213.46 203.643 213.806 203.661 214.163C206.215 213.919 208.053 214.584 208.652 214.528C208.765 214.055 208.773 213.592 208.774 213.589C207.821 212.784 204.899 212.533 203.604 213.126Z" fill="#F2F4F7"/>
<path d="M203.38 216.855C205.879 217.368 207.337 216.45 208.014 215.786C207.252 215.357 206.145 215.163 205.103 215.535C204.307 215.809 203.764 216.36 203.38 216.855Z" fill="#FF7070"/>
<path d="M216.557 212.293C216.557 212.293 214.66 204.707 215.94 198.675C215.94 198.675 208.207 194.735 203.226 199.197C203.226 199.197 204.986 194.595 212.29 194.76C219.593 194.925 226.618 204.933 216.557 212.293Z" fill="#171B26"/>
<path d="M220.012 213.402C218.924 214.621 217.445 215.22 216.194 215.27C214.312 215.345 213.922 213.419 214.907 211.755C215.794 210.257 217.842 208.413 219.509 209.129C221.152 209.833 221.256 212.008 220.012 213.402Z" fill="#FFADAD"/>
<path d="M209.193 196.598C209.193 196.598 209.823 209.66 218.004 208.145C226.186 206.63 220.731 192.797 209.193 196.598Z" fill="#171B26"/>
<path opacity="0.1" d="M221.678 241.473C219.716 246.337 218.155 250.532 216.931 254.241C213.367 248.046 216.447 239.818 216.447 239.818C218.341 238.961 220.15 239.78 221.678 241.473Z" fill="#08090D"/>
<path d="M223.669 237.505C224.197 239.085 224.815 240.908 225.483 242.582C226.145 244.288 226.827 245.985 227.586 247.634C228.347 249.283 229.171 250.879 230.022 252.442C230.9 253.986 231.837 255.454 232.842 256.839L232.242 256.255C231.943 256.03 231.623 256.004 231.619 256.025C231.588 256.046 231.763 256.075 232.02 256.05C232.543 256.004 233.317 255.787 234.097 255.479C235.679 254.856 237.387 253.969 239.048 252.988C240.725 252.015 242.394 250.943 244.056 249.842C245.725 248.759 247.387 247.58 249.006 246.455L249.052 246.423C250.041 245.736 251.4 245.98 252.087 246.969C252.667 247.803 252.582 248.902 251.948 249.637C250.545 251.264 249.089 252.732 247.577 254.215C246.054 255.674 244.464 257.076 242.773 258.417C241.061 259.739 239.293 261.032 237.165 262.133C236.091 262.679 234.944 263.201 233.459 263.552C232.714 263.721 231.86 263.845 230.812 263.76C229.792 263.69 228.472 263.314 227.359 262.465C227.182 262.33 227.022 262.18 226.88 262.019L226.76 261.88C225.337 260.249 224.034 258.554 222.896 256.792C221.758 255.035 220.716 253.235 219.806 251.392C218.891 249.551 218.025 247.698 217.272 245.801C216.902 244.85 216.545 243.895 216.209 242.929C215.858 241.949 215.569 241.026 215.259 239.919C214.607 237.593 215.965 235.179 218.291 234.528C220.544 233.897 222.879 235.15 223.615 237.343L223.669 237.505Z" fill="#FFADAD"/>
<path d="M219.139 231.551C225.046 233.508 231.207 248.164 231.207 248.164C231.207 248.164 226.552 252.198 221.006 255.078C221.006 255.078 212.454 242.54 213.918 236.869C215.383 231.198 219.139 231.551 219.139 231.551Z" fill="#004FFF"/>
<path opacity="0.7" d="M219.139 231.551C225.046 233.508 231.207 248.164 231.207 248.164C231.207 248.164 226.552 252.198 221.006 255.078C221.006 255.078 212.454 242.54 213.918 236.869C215.383 231.198 219.139 231.551 219.139 231.551Z" fill="#F2F4F7"/>
<path d="M249.979 251.494L256.964 247.57L252.602 242.09C252.602 242.09 247.334 244.147 247.339 248.812L249.979 251.494Z" fill="#FFADAD"/>
<path d="M260.042 242.77L255.813 239.463L252.602 242.09L256.964 247.57L260.042 242.77Z" fill="#FFADAD"/>
<path d="M220.279 254.562L231.206 246.792L232.251 249.314L221.318 255.976L220.279 254.562Z" fill="#004FFF"/>
<path d="M199.094 228.78C194.555 235.466 196.224 247.59 196.224 247.59C196.224 247.59 199.882 238.735 211.592 231.883" stroke="#171B26" stroke-width="0.5" stroke-miterlimit="10" stroke-linecap="round" stroke-linejoin="round"/>
<path d="M202.115 232.553C204.848 233.26 205.247 237.552 205.247 237.552C205.247 237.552 212.447 233.582 214.934 230.492C214.002 229.862 212.671 228.672 212.671 228.672C212.671 228.672 203.917 231.132 202.115 232.553Z" fill="#004FFF"/>
<path d="M199.525 231.81C199.525 231.81 197.053 232.188 195.806 235.465C195.857 229.278 198.829 228.558 198.829 228.558C198.829 228.558 199.77 228.034 201.381 228.477C199.049 229.392 199.525 231.81 199.525 231.81Z" fill="#004FFF"/>
<path d="M197.918 255.444L193.88 255.186C193.546 255.165 193.293 254.877 193.314 254.543L193.772 247.371C193.793 247.037 194.081 246.784 194.415 246.805L198.453 247.063C198.787 247.084 199.04 247.372 199.018 247.706L198.56 254.878C198.539 255.212 198.251 255.465 197.918 255.444Z" fill="#F2F4F7"/>
<path opacity="0.2" d="M197.479 248.52L195.208 248.375L195.017 251.369L197.288 251.514L197.479 248.52Z" fill="#08090D"/>
<path opacity="0.2" d="M197.86 252.376L194.34 252.151L194.313 252.579L197.833 252.804L197.86 252.376Z" fill="#08090D"/>
<path opacity="0.2" d="M197.788 253.401L194.268 253.176L194.24 253.604L197.76 253.829L197.788 253.401Z" fill="#08090D"/>
</svg>
