<svg width="500" height="500" viewBox="0 0 500 500" fill="none" xmlns="http://www.w3.org/2000/svg">
<path d="M500 382.398H0V382.648H500V382.398Z" fill="#262D40"/>
<path d="M73.667 391.922H52.459V392.172H73.667V391.922Z" fill="#262D40"/>
<path d="M256.111 389.208H171.14V389.458H256.111V389.208Z" fill="#262D40"/>
<path d="M105.775 401.208H67.667V401.458H105.775V401.208Z" fill="#262D40"/>
<path d="M449.901 399.528H406.708V399.778H449.901V399.528Z" fill="#262D40"/>
<path d="M403.444 399.528H391.471V399.778H403.444V399.528Z" fill="#262D40"/>
<path d="M370.889 395.306H347.889V395.556H370.889V395.306Z" fill="#262D40"/>
<path d="M336.333 395.306H287.889V395.556H336.333V395.306Z" fill="#262D40"/>
<path d="M237.014 337.8H43.915C40.768 337.8 38.207 335.239 38.207 332.092V60.6601C38.207 57.5131 40.768 54.9521 43.915 54.9521H237.014C240.16 54.9521 242.721 57.5131 242.721 60.6601V332.092C242.721 335.239 240.16 337.8 237.014 337.8ZM43.915 55.2031C40.905 55.2031 38.457 57.6511 38.457 60.6611V332.093C38.457 335.103 40.905 337.551 43.915 337.551H237.014C240.023 337.551 242.471 335.103 242.471 332.093V60.6601C242.471 57.6511 240.023 55.2021 237.014 55.2021L43.915 55.2031Z" fill="#262D40"/>
<path d="M453.31 337.8H260.212C257.065 337.8 254.505 335.239 254.505 332.092V60.6601C254.505 57.5131 257.066 54.9521 260.212 54.9521H453.31C456.458 54.9521 459.018 57.5131 459.018 60.6601V332.092C459.019 335.239 456.458 337.8 453.31 337.8ZM260.212 55.2031C257.203 55.2031 254.755 57.6511 254.755 60.6611V332.093C254.755 335.103 257.203 337.551 260.212 337.551H453.31C456.32 337.551 458.768 335.103 458.768 332.093V60.6601C458.768 57.6511 456.32 55.2021 453.31 55.2021L260.212 55.2031Z" fill="#262D40"/>
<path d="M53.6141 382.398H87.3781L87.3781 241.42H53.6141L53.6141 382.398Z" fill="#1F2433"/>
<path d="M59.233 382.398H53.613V369.713H65.124L59.233 382.398Z" fill="#0F121A"/>
<path d="M277.182 382.398H310.947V241.42H277.182V382.398Z" fill="#1F2433"/>
<path d="M53.6134 377.527H282.086V241.42L53.6134 241.42L53.6134 377.527Z" fill="#0F121A"/>
<path d="M57.9734 284.779H277.727V247.453L57.9734 247.453V284.779Z" fill="#1F2433"/>
<path d="M57.9734 252.538L277.727 252.538V247.453L57.9734 247.453V252.538Z" fill="#171B26"/>
<path d="M276.467 382.398H282.086V369.713H270.575L276.467 382.398Z" fill="#0F121A"/>
<path d="M57.9734 328.137H277.727V290.811H57.9734V328.137Z" fill="#1F2433"/>
<path d="M57.9734 295.896H277.727V290.811H57.9734V295.896Z" fill="#171B26"/>
<path d="M57.9734 371.495H277.727V334.169H57.9734V371.495Z" fill="#1F2433"/>
<path d="M57.9734 339.254H277.727V334.169H57.9734V339.254Z" fill="#171B26"/>
<path d="M358.025 382.398H436.3L443.247 136.516H364.972L358.025 382.398Z" fill="#171B26"/>
<path d="M355.633 382.398H433.908L440.855 136.516H362.58L355.633 382.398Z" fill="#1F2433"/>
<path d="M429.218 375.408L435.77 143.506H367.27L360.718 375.408H429.218Z" fill="#0F121A"/>
<path d="M81.1666 203.146L306.946 203.146V77.2225L81.1666 77.2225L81.1666 203.146Z" fill="#1F2433"/>
<path d="M73.0343 203.146L303.145 203.146V77.2225L73.0343 77.2225L73.0343 203.146Z" fill="#171B26"/>
<path d="M291.758 192.671V87.6963L84.4214 87.6963L84.4214 192.671L291.758 192.671Z" fill="#0F121A"/>
<path d="M83.8891 235.778C88.1848 235.778 91.6671 232.296 91.6671 228C91.6671 223.704 88.1848 220.222 83.8891 220.222C79.5934 220.222 76.1111 223.704 76.1111 228C76.1111 232.296 79.5934 235.778 83.8891 235.778Z" fill="#0F121A"/>
<path d="M104.007 233.386C104.994 229.206 102.406 225.016 98.225 224.029C94.0445 223.042 89.8552 225.631 88.8681 229.811C87.8809 233.992 90.4697 238.181 94.6502 239.168C98.8308 240.155 103.02 237.567 104.007 233.386Z" fill="#171B26"/>
<path d="M114.897 227.996C115.884 223.815 113.296 219.626 109.115 218.639C104.935 217.652 100.745 220.241 99.7582 224.421C98.7711 228.602 101.36 232.791 105.54 233.778C109.721 234.765 113.91 232.176 114.897 227.996Z" fill="#0F121A"/>
<path d="M120.544 230.904C120.544 230.904 119.858 241.42 93.5441 241.42C67.2301 241.42 66.5441 230.904 66.5441 230.904H120.544Z" fill="#1F2433"/>
<path d="M250 427.561C357.082 427.561 443.889 422.492 443.889 416.238C443.889 409.985 357.082 404.915 250 404.915C142.918 404.915 56.111 409.985 56.111 416.238C56.111 422.492 142.918 427.561 250 427.561Z" fill="#0F121A"/>
<path d="M377.256 416.238H272.938C265.626 416.238 259.875 410.256 260.159 402.944L271.801 102.519C272.084 95.2071 278.299 89.2251 285.61 89.2251H389.928C397.24 89.2251 402.991 95.2071 402.707 102.519L391.065 402.944C390.782 410.256 384.568 416.238 377.256 416.238Z" fill="#000614"/>
<path d="M261.244 120.27L260.245 120.231L260.936 102.383C261.292 93.1981 269.056 85.7251 278.243 85.7251V86.7251C269.586 86.7251 262.271 93.7671 261.935 102.422L261.244 120.27Z" fill="#004FFF"/>
<path d="M293.833 85.7251H285.333V86.7251H293.833V85.7251Z" fill="#004FFF"/>
<path d="M369.888 416.238H265.571C258.259 416.238 252.508 410.256 252.792 402.944L264.434 102.519C264.717 95.2071 270.932 89.2251 278.243 89.2251H382.56C389.872 89.2251 395.623 95.2071 395.339 102.519L383.697 402.944C383.414 410.256 377.2 416.238 369.888 416.238Z" fill="#004FFF"/>
<path d="M373.207 381.684H264.93C260.839 381.684 257.622 378.337 257.781 374.247L267.881 113.606C268.04 109.515 271.516 106.169 275.607 106.169H383.885C387.976 106.169 391.193 109.516 391.034 113.606L380.934 374.247C380.775 378.337 377.298 381.684 373.207 381.684Z" fill="#171B26"/>
<path d="M327.238 381.684H300.241L345.782 106.168H372.779L327.238 381.684Z" fill="#0F121A"/>
<path d="M295.489 381.684H281.991L327.532 106.168H341.03L295.489 381.684Z" fill="#0F121A"/>
<path d="M344.607 301.124H291.367C288.91 301.124 286.956 298.428 286.848 294.889L285.343 245.459C285.219 241.389 287.562 237.861 290.387 237.861H350.39C353.215 237.861 355.29 241.39 354.857 245.459L349.599 294.889C349.223 298.427 347.064 301.124 344.607 301.124Z" fill="#004FFF"/>
<path d="M344.607 302.995H291.367C287.864 302.995 285.118 299.534 284.978 294.945L283.473 245.515C283.384 242.576 284.385 239.733 286.151 237.911C287.354 236.671 288.858 235.988 290.387 235.988H350.39C351.941 235.988 353.423 236.685 354.561 237.952C356.227 239.805 357.033 242.684 356.717 245.656L351.459 295.086C350.98 299.595 348.034 302.995 344.607 302.995ZM290.387 239.731C289.736 239.731 289.185 240.159 288.837 240.517C287.777 241.61 287.154 243.482 287.213 245.402L288.718 294.832C288.792 297.27 289.981 299.253 291.367 299.253H344.607C345.885 299.253 347.448 297.42 347.739 294.69L352.997 245.26C353.2 243.357 352.733 241.515 351.779 240.454C351.347 239.974 350.88 239.73 350.39 239.73H290.387V239.731Z" fill="#004FFF"/>
<path d="M349.602 296.76C349.536 296.76 349.469 296.756 349.402 296.749C348.374 296.64 347.63 295.718 347.739 294.69L353.518 240.361C354.421 231.871 359.771 225.468 365.962 225.468H370.035C371.068 225.468 371.906 226.306 371.906 227.339C371.906 228.372 371.068 229.21 370.035 229.21H365.962C361.759 229.21 357.927 234.281 357.238 240.757L351.459 295.086C351.357 296.047 350.546 296.76 349.602 296.76Z" fill="#004FFF"/>
<path d="M302.315 319.509C300.291 319.509 298.388 318.645 296.813 317.008C294.366 314.467 293.005 310.318 293.172 305.907C293.456 298.442 297.991 292.369 303.283 292.369C305.308 292.369 307.211 293.234 308.786 294.87C311.232 297.411 312.593 301.56 312.426 305.97C312.144 313.435 307.608 319.509 302.315 319.509ZM303.284 294C298.858 294 295.053 299.369 294.802 305.97C294.651 309.945 295.842 313.649 297.988 315.877C299.249 317.185 300.745 317.878 302.316 317.878C306.742 317.878 310.548 312.508 310.798 305.907C310.949 301.932 309.758 298.229 307.613 296.002C306.352 294.692 304.855 294 303.284 294Z" fill="#004FFF"/>
<path d="M331.411 319.509C329.386 319.509 327.483 318.644 325.908 317.008C323.461 314.466 322.1 310.317 322.268 305.907C322.552 298.442 327.087 292.369 332.379 292.369C334.403 292.369 336.306 293.233 337.881 294.87C340.328 297.411 341.689 301.56 341.522 305.97C341.238 313.435 336.703 319.509 331.411 319.509ZM332.379 294C327.953 294 324.148 299.369 323.898 305.97C323.747 309.945 324.938 313.649 327.083 315.876C328.344 317.185 329.84 317.878 331.411 317.878C335.837 317.878 339.642 312.508 339.892 305.907C340.043 301.932 338.852 298.229 336.706 296.001C335.446 294.692 333.95 294 332.379 294Z" fill="#004FFF"/>
<path d="M343.564 189.257C344.825 171.838 336.118 157.013 324.116 156.144C312.114 155.276 301.362 168.692 300.101 186.111C298.841 203.53 307.548 218.355 319.55 219.224C331.552 220.093 342.303 206.676 343.564 189.257Z" fill="#004FFF"/>
<path d="M320.647 221.148C315.675 221.148 311.001 219.022 307.13 215.002C301.1 208.738 297.746 198.505 298.159 187.628C298.857 169.223 310.021 154.249 323.045 154.249C328.016 154.249 332.69 156.375 336.562 160.395C342.593 166.659 345.947 176.892 345.534 187.77C344.835 206.174 333.67 221.148 320.647 221.148ZM323.044 157.99C312.007 157.99 302.521 171.348 301.897 187.769C301.522 197.65 304.485 206.859 309.825 212.405C312.974 215.676 316.716 217.405 320.646 217.405C331.683 217.405 341.17 204.047 341.793 187.627C342.168 177.746 339.204 168.536 333.864 162.99C330.716 159.719 326.975 157.99 323.044 157.99Z" fill="#C2D5FF"/>
<path d="M306.946 187.027C306.946 187.027 315.25 195.016 318.608 205.307C321.507 197.276 325.837 186.103 336.151 173.552C323.678 181.83 318.93 192.22 318.93 192.22C318.93 192.22 314.686 188.381 306.946 187.027Z" fill="#C2D5FF"/>
<path d="M318.111 406.931C316.365 406.931 314.745 406.206 313.426 404.836C311.602 402.94 310.624 400.082 310.744 396.996C310.956 391.541 314.587 387.103 318.838 387.103C320.584 387.103 322.204 387.828 323.523 389.199C325.347 391.095 326.325 393.952 326.205 397.037C325.993 402.492 322.362 406.931 318.111 406.931ZM318.838 388.162C315.148 388.162 311.992 392.143 311.802 397.037C311.694 399.837 312.564 402.412 314.189 404.101C315.303 405.259 316.66 405.872 318.111 405.872C321.801 405.872 324.957 401.89 325.147 396.996C325.255 394.196 324.385 391.622 322.76 389.932C321.646 388.774 320.29 388.162 318.838 388.162Z" fill="#000614"/>
<path d="M329.942 101.618C329.145 101.618 328.377 101.276 327.781 100.656C326.968 99.8109 326.532 98.5479 326.585 97.1869C326.679 94.7669 328.319 92.7969 330.243 92.7969C331.04 92.7969 331.807 93.1389 332.404 93.7589C333.217 94.6039 333.653 95.8669 333.6 97.2279C333.505 99.6479 331.865 101.618 329.942 101.618ZM330.243 93.8559C328.881 93.8559 327.715 95.3689 327.643 97.2279C327.602 98.2859 327.939 99.2929 328.544 99.9219C328.945 100.339 329.428 100.559 329.942 100.559C331.303 100.559 332.47 99.0459 332.542 97.1869C332.583 96.1279 332.246 95.1219 331.641 94.4929C331.24 94.0759 330.756 93.8559 330.243 93.8559Z" fill="#000614"/>
<path d="M188.696 124.249C177.245 122.72 171.06 129.658 174.317 142.247C177.385 154.109 171.449 152.528 170.355 163.759C169.261 174.989 178.484 175.446 181.487 184.618C184.49 193.79 201.132 204.21 207.631 199.506C214.13 194.802 227.033 195.89 228.209 180.369C229.385 164.847 217.115 164.008 221.326 155.528C226.798 144.507 214.663 147.208 214.663 133.186C214.662 121.897 198.292 109.668 188.696 124.249Z" fill="#000614"/>
<path d="M174.295 184.037C174.043 188.826 173.598 193.458 172.899 198.174C172.191 202.897 171.407 207.558 169.71 212.507C169.261 213.756 168.749 215.026 167.926 216.441C167.497 217.151 166.997 217.915 166.144 218.755L165.786 219.077L165.6 219.234L165.486 219.318L165.071 219.61L164.24 220.191C162.02 221.634 159.825 222.739 157.593 223.712C153.133 225.653 148.658 227.096 143.975 228.167L142.357 223.735C146.313 221.547 150.329 219.312 154.063 216.99C155.914 215.812 157.738 214.616 159.258 213.347L159.804 212.877L160.077 212.644C160.095 212.628 160.134 212.594 160.134 212.594L160.109 212.607L160.07 212.636C160.028 212.654 160.177 212.45 160.315 212.156C160.613 211.551 160.934 210.654 161.205 209.712C161.766 207.81 162.193 205.673 162.548 203.518C162.927 201.359 163.235 199.148 163.501 196.923C164.007 192.483 164.445 187.916 164.786 183.489L174.295 184.037Z" fill="#FFADAD"/>
<path d="M145.326 223.844L137.693 221.479L139.117 230.721C139.117 230.721 144.076 230.105 146.526 227.307L145.326 223.844Z" fill="#FFADAD"/>
<path d="M131.448 227.43L131.873 228.641C132.367 230.051 133.728 230.969 135.221 230.901L139.118 230.721L137.694 221.479L133.405 223.161C131.71 223.826 130.845 225.712 131.448 227.43Z" fill="#FFADAD"/>
<path d="M183.318 175.075C183.338 177.958 181.923 183.654 180.727 187.929C179.852 191.015 179.109 193.35 179.109 193.35L177.363 192.911L162.905 189.249C162.676 181.832 162.974 173.669 170.352 168.793C174.989 165.727 183.277 169.928 183.318 175.075Z" fill="#004FFF"/>
<g opacity="0.5">
<path d="M183.318 175.075C183.338 177.958 181.923 183.654 180.727 187.929C179.852 191.015 179.109 193.35 179.109 193.35L177.363 192.911L162.905 189.249C162.676 181.832 162.974 173.669 170.352 168.793C174.989 165.727 183.277 169.928 183.318 175.075Z" fill="#000614"/>
</g>
<path opacity="0.3" d="M183.298 175.569C182.357 174.606 180.223 174.397 175.558 175.876C168.879 177.993 167.007 185.314 166.923 190.27L177.365 192.907L178.264 193.135L179.108 193.345C179.108 193.345 179.48 192.177 180.003 190.399C180.016 190.389 180.016 190.389 180.016 190.389C180.224 189.659 180.48 188.821 180.73 187.925C181.861 183.887 183.185 178.57 183.298 175.569Z" fill="#000614"/>
<path d="M153.656 407.273L144.844 404.176L150.381 385.08L159.192 388.177L153.656 407.273Z" fill="#FFADAD"/>
<path d="M271.48 384.636L264.305 389.982L249.617 375.086L256.792 369.74L271.48 384.636Z" fill="#FFADAD"/>
<path d="M261.372 387.805L269.123 381.403C269.405 381.17 269.796 381.177 270.063 381.419L276.011 386.822C276.628 387.382 276.578 388.436 275.918 388.962C273.177 391.147 271.744 392.064 268.336 394.88C266.239 396.612 261.855 400.751 258.96 403.143C256.128 405.482 253.545 402.799 254.537 401.544C258.983 395.916 260.013 392.216 260.57 389.182C260.67 388.634 260.96 388.146 261.372 387.805Z" fill="#0041CC"/>
<path d="M144.242 401.429L154.035 405.523C154.391 405.672 154.61 406.054 154.56 406.442L153.45 415.081C153.335 415.977 152.434 416.469 151.607 416.132C148.143 414.72 146.513 414.021 142.206 412.221C139.556 411.113 132.702 408.247 129.043 406.718C125.464 405.222 126.229 401.291 127.846 401.582C135.1 402.888 139.774 402.462 142.631 401.386C143.146 401.191 143.72 401.211 144.242 401.429Z" fill="#004FFF"/>
<path opacity="0.2" d="M150.381 385.086L147.526 394.928L156.113 398.811L159.196 388.184L150.381 385.086Z" fill="#000614"/>
<path opacity="0.2" d="M256.797 369.742L249.62 375.091L257.194 382.767L264.372 377.418L256.797 369.742Z" fill="#000614"/>
<path d="M210.442 221.775C203.427 221.875 188.522 222.082 174.109 222.29C169.119 194.176 167.961 180.745 167.959 174.334C167.958 171.009 170.29 168.141 173.554 167.507C175.772 167.076 178.532 166.583 181.304 166.202C182.252 166.07 183.208 165.952 184.146 165.854C189.522 165.286 194.532 165.405 200.645 165.611C201.46 165.635 202.269 165.682 203.077 165.729C206.758 165.971 210.221 166.438 212.65 166.821C214.535 167.118 215.778 168.94 215.382 170.807C214.321 175.813 213.451 180.203 212.753 184.132C211.636 190.376 210.938 195.433 210.526 199.864C209.777 208.108 210.021 214.196 210.442 221.775Z" fill="#004FFF"/>
<path opacity="0.3" d="M210.526 199.862C208.701 194.378 208.796 183.002 210.765 179.31L212.753 184.131C211.636 190.375 210.938 195.432 210.526 199.862Z" fill="#000614"/>
<path d="M197.934 154.338C197.764 158.802 198.294 163.43 200.649 165.613C200.649 165.613 196.75 170.697 187.572 175.699C182.714 171.024 184.149 165.849 184.149 165.849C190.049 164.351 190.107 160.423 188.416 153.896L193.102 152.02C195.031 150.325 198.032 151.771 197.934 154.338Z" fill="#FFADAD"/>
<path opacity="0.2" d="M193.106 152.018C194.924 150.418 197.707 151.62 197.92 153.929C195.734 157.041 193.096 159.561 189.298 160.952C189.559 159.084 189.156 156.731 188.421 153.893L193.106 152.018Z" fill="#000614"/>
<path d="M206.383 141.239C203.216 149.535 202.053 153.115 196.422 156.119C187.952 160.639 178.454 154.935 179.078 145.859C179.64 137.69 184.724 125.495 194.058 124.72C203.253 123.957 209.55 132.943 206.383 141.239Z" fill="#FFADAD"/>
<path d="M190.49 124.675C184.597 132.992 201.454 130.951 200.65 136.811C200.161 140.37 195.082 147.002 204.002 148.237C212.922 149.472 215.127 134.92 210.541 129.452C205.955 123.984 196.279 120.428 190.49 124.675Z" fill="#000614"/>
<path d="M192.359 124.425C191.139 127.482 184.651 131.539 182.28 130.775C183.009 127.189 189.052 123.779 192.359 124.425Z" fill="#000614"/>
<path d="M205.839 149.708C204.897 151.29 203.312 152.289 201.84 152.636C199.625 153.159 198.61 151.156 199.302 149.114C199.925 147.276 201.828 144.789 204.014 145.176C206.167 145.558 206.916 147.899 205.839 149.708Z" fill="#FFADAD"/>
<path d="M174.105 222.294C174.105 222.294 167.959 275.166 162.291 308.094C157.853 333.881 146.627 387.58 146.627 387.58L161.188 392.739C161.188 392.739 177.866 336.747 180.787 312.857C192.546 278.403 200.976 221.947 200.976 221.947L174.105 222.294Z" fill="#000614"/>
<path d="M144.262 391.21L161.119 397.154L163.374 391.74L145.094 384.755L144.262 391.21Z" fill="#001A52"/>
<path opacity="0.3" d="M192.518 238.012L187.082 248.443C185.135 256.295 185.565 275.408 188.073 287.529C192.602 269.295 196.222 250.118 198.466 237.249L192.518 238.012Z" fill="#001A52"/>
<path d="M182.042 222.288C182.042 222.288 188.55 281.469 200.698 314.324C206.792 330.809 252 379.662 252 379.662L262.195 371.502C262.195 371.502 233.525 322.205 221.002 309.329C215.887 280.696 222.313 237.826 210.442 221.775L182.042 222.288Z" fill="#000614"/>
<path d="M252.828 383.166L264.793 373.359L261.561 368.062L248.46 379.459L252.828 383.166Z" fill="#001A52"/>
<path d="M210.956 219.635L212.641 222.864C212.772 223.115 212.477 223.376 212.056 223.382L173.949 223.926C173.621 223.931 173.348 223.774 173.324 223.568L172.95 220.32C172.924 220.095 173.205 219.9 173.564 219.895L210.36 219.37C210.63 219.367 210.871 219.474 210.956 219.635Z" fill="#000614"/>
<path d="M206.072 223.82L207.057 223.806C207.253 223.803 207.401 223.7 207.386 223.576L206.863 219.357C206.848 219.234 206.675 219.135 206.478 219.138L205.492 219.152C205.296 219.155 205.148 219.258 205.163 219.382L205.685 223.601C205.703 223.724 205.876 223.823 206.072 223.82Z" fill="#004FFF"/>
<path d="M176.723 224.239L177.709 224.225C177.905 224.222 178.053 224.119 178.038 223.995L177.516 219.776C177.501 219.652 177.328 219.554 177.131 219.557L176.146 219.571C175.95 219.574 175.802 219.677 175.817 219.801L176.339 224.02C176.354 224.143 176.527 224.242 176.723 224.239Z" fill="#004FFF"/>
<path d="M191.398 224.03L192.384 224.016C192.58 224.013 192.728 223.91 192.713 223.786L192.191 219.567C192.176 219.444 192.003 219.345 191.806 219.348L190.821 219.362C190.625 219.365 190.477 219.468 190.492 219.592L191.015 223.811C191.029 223.934 191.202 224.033 191.398 224.03Z" fill="#004FFF"/>
<path d="M191.785 139.208C191.569 139.897 191.03 140.341 190.579 140.2C190.129 140.059 189.939 139.386 190.154 138.698C190.37 138.009 190.909 137.565 191.359 137.706C191.81 137.846 192 138.519 191.785 139.208Z" fill="#000614"/>
<path d="M183.999 136.771C183.784 137.46 183.244 137.904 182.793 137.763C182.343 137.622 182.153 136.95 182.368 136.261C182.583 135.572 183.123 135.128 183.574 135.269C184.025 135.41 184.215 136.083 183.999 136.771Z" fill="#000614"/>
<path d="M183.761 135.369L182.256 134.374C182.256 134.374 182.701 135.933 183.761 135.369Z" fill="#000614"/>
<path d="M185.923 138.591C185.923 138.591 183.826 141.191 182.092 142.219C182.736 143.352 184.403 143.448 184.403 143.448L185.923 138.591Z" fill="#FF7070"/>
<path d="M186.695 147.267C186.632 147.214 186.604 147.126 186.63 147.042C186.665 146.93 186.784 146.868 186.896 146.903C189.91 147.846 191.992 146.179 192.012 146.162C192.103 146.088 192.239 146.104 192.31 146.191C192.384 146.281 192.371 146.415 192.281 146.489C192.19 146.564 190.01 148.322 186.768 147.307C186.741 147.298 186.717 147.284 186.695 147.267Z" fill="#000614"/>
<path d="M194.768 137.35C194.713 137.304 194.67 137.243 194.644 137.17C194.006 135.391 192.491 135.012 192.475 135.008C192.248 134.955 192.107 134.726 192.161 134.498C192.215 134.27 192.444 134.13 192.671 134.184C192.752 134.203 194.649 134.676 195.442 136.884C195.521 137.104 195.407 137.347 195.186 137.426C195.038 137.479 194.88 137.445 194.768 137.35Z" fill="#000614"/>
<path d="M181.682 132.305C181.673 132.28 181.666 132.255 181.661 132.228C181.62 131.998 181.774 131.777 182.004 131.736C184.313 131.325 185.668 132.736 185.725 132.796C185.886 132.967 185.877 133.235 185.706 133.395C185.536 133.555 185.268 133.547 185.108 133.377C185.057 133.324 183.99 132.243 182.153 132.57C181.949 132.607 181.753 132.491 181.682 132.305Z" fill="#000614"/>
<path d="M147.176 171.797C145.701 169.41 144.423 164.743 146.949 162.096C149.476 159.45 151.446 158.706 150.821 154.083C150.195 149.46 157.235 149.598 157.813 146.115C161.324 149.155 165.043 156.144 163.052 159.321C161.061 162.498 162.13 164.939 161.699 168.828C161.268 172.717 152.777 180.859 147.176 171.797Z" fill="#004FFF"/>
<path opacity="0.5" d="M147.176 171.797C145.701 169.41 144.423 164.743 146.949 162.096C149.476 159.45 151.446 158.706 150.821 154.083C150.195 149.46 157.235 149.598 157.813 146.115C161.324 149.155 165.043 156.144 163.052 159.321C161.061 162.498 162.13 164.939 161.699 168.828C161.268 172.717 152.777 180.859 147.176 171.797Z" fill="#EBF1FF"/>
<path d="M158.107 153.506C156.411 164.194 153.282 176.662 148.787 185.931C150.217 186.033 151.684 184.593 151.684 184.593C151.684 184.593 158.794 165.28 158.107 153.506Z" fill="#004FFF"/>
<path d="M143.815 177.048C141.565 175.372 138.659 171.502 140.034 168.112C141.409 164.722 142.968 163.305 140.684 159.237C138.401 155.169 144.997 152.706 144.253 149.254C148.636 150.788 154.666 155.918 153.984 159.605C153.302 163.292 155.194 165.168 156.225 168.943C157.256 172.717 152.358 183.413 143.815 177.048Z" fill="#004FFF"/>
<path opacity="0.6" d="M143.815 177.048C141.565 175.372 138.659 171.502 140.034 168.112C141.409 164.722 142.968 163.305 140.684 159.237C138.401 155.169 144.997 152.706 144.253 149.254C148.636 150.788 154.666 155.918 153.984 159.605C153.302 163.292 155.194 165.168 156.225 168.943C157.256 172.717 152.358 183.413 143.815 177.048Z" fill="#EBF1FF"/>
<path d="M159.88 180.269C162.244 180.1 166.074 178.669 166.639 175.63C167.204 172.591 166.739 170.873 170.216 169.017C173.693 167.161 170.12 162.406 172.221 160.288C168.403 159.384 161.776 160.291 160.584 163.225C159.391 166.159 157.191 166.633 154.738 168.851C152.285 171.068 150.902 180.91 159.88 180.269Z" fill="#004FFF"/>
<path opacity="0.7" d="M159.88 180.269C162.244 180.1 166.074 178.669 166.639 175.63C167.204 172.591 166.739 170.873 170.216 169.017C173.693 167.161 170.12 162.406 172.221 160.288C168.403 159.384 161.776 160.291 160.584 163.225C159.391 166.159 157.191 166.633 154.738 168.851C152.285 171.068 150.902 180.91 159.88 180.269Z" fill="#EBF1FF"/>
<path d="M146.73 160.388C148.523 169.742 149.379 180.869 147.683 189.546C149.255 189.365 150.345 187.873 150.345 187.873C150.345 187.873 151.454 170.215 146.73 160.388Z" fill="#004FFF"/>
<path d="M165.422 165.504C159.162 172.362 152.475 181.133 148.665 189.109C147.831 188.205 148.012 186.449 148.012 186.449C148.012 186.449 157.158 171.345 165.422 165.504Z" fill="#004FFF"/>
<path d="M137.183 174.88C134.354 173.332 128.757 177.658 131.699 182.688C134.64 187.718 140.659 190.048 143.501 187.351C147.357 186.655 149.038 180.425 146.723 175.077C144.407 169.73 137.609 171.684 137.183 174.88Z" fill="#004FFF"/>
<path d="M137.183 174.88C137.183 174.88 136.191 171.634 137.829 170.594C138.208 171.066 138.447 171.469 138.447 171.469C138.447 171.469 137.334 171.777 137.183 174.88Z" fill="#000614"/>
<path d="M169.168 166.402C168.825 173.265 161.772 178.486 154.098 180.168C153.732 180.413 153.256 181.292 153.063 181.897C152.87 182.501 153.301 182.764 153.301 182.764C153.301 182.764 154.52 183.76 155.347 183.798C156.174 183.835 161.076 184.124 166.469 179.945C170.424 176.88 174.115 170.824 172.971 168.015C171.826 165.206 170.909 166.145 170.473 164.032C170.037 161.919 170.162 161.375 170.162 161.375C170.162 161.375 169.157 161.845 168.909 162.448C169.227 163.249 169.28 164.163 169.168 166.402Z" fill="#004FFF"/>
<path opacity="0.2" d="M172.975 168.014C172.513 166.877 172.085 166.351 171.711 165.999C171.785 168.263 171.212 171.032 168.737 174.991C166.132 179.167 159.135 182.894 153.094 182.526C153.178 182.69 153.299 182.766 153.299 182.766C153.299 182.766 154.524 183.76 155.35 183.8C156.178 183.835 161.077 184.125 166.472 179.945C170.428 176.881 174.114 170.825 172.975 168.014Z" fill="#000614"/>
<path d="M169.194 163.798C169.194 163.798 168.86 162.672 168.671 162.279C169.224 161.474 170.268 161.13 170.268 161.13L170.25 162.777C170.25 162.777 169.721 163.732 169.194 163.798Z" fill="#000614"/>
<path d="M153.344 181.22C153.344 181.22 153.047 181.545 152.91 181.749C152.801 182.355 152.95 182.622 153.247 182.866C153.544 183.11 153.734 183.083 153.734 183.083C153.734 183.083 153.334 182.433 153.314 182.088C153.295 181.743 153.344 181.22 153.344 181.22Z" fill="#000614"/>
<path d="M174.665 169.495C172.896 176.135 164.908 179.767 157.052 179.808C156.643 179.971 155.994 180.731 155.679 181.282C155.364 181.833 155.73 182.18 155.73 182.18C155.73 182.18 156.714 183.409 157.515 183.619C158.316 183.829 163.05 185.135 169.197 182.175C173.705 180.004 178.58 174.853 178.048 171.867C177.516 168.881 176.423 169.607 176.437 167.45C176.452 165.292 176.688 164.786 176.688 164.786C176.688 164.786 175.608 165.035 175.238 165.574C175.381 166.424 175.242 167.33 174.665 169.495Z" fill="#004FFF"/>
<path opacity="0.2" d="M178.051 171.866C177.836 170.658 177.528 170.054 177.236 169.631C176.836 171.86 175.697 174.449 172.449 177.803C169.029 181.342 161.407 183.525 155.577 181.903C155.625 182.081 155.727 182.18 155.727 182.18C155.727 182.18 156.717 183.408 157.516 183.62C158.318 183.827 163.048 185.134 169.198 182.174C173.708 180.005 178.578 174.854 178.051 171.866Z" fill="#000614"/>
<path d="M175.234 166.954C175.234 166.954 175.142 165.783 175.039 165.359C175.748 164.687 176.841 164.569 176.841 164.569L176.479 166.176C176.479 166.176 175.764 167 175.234 166.954Z" fill="#000614"/>
<path d="M156.094 180.68C156.094 180.68 155.736 180.936 155.56 181.107C155.326 181.677 155.416 181.969 155.656 182.27C155.896 182.571 156.087 182.584 156.087 182.584C156.087 182.584 155.831 181.864 155.884 181.524C155.937 181.182 156.094 180.68 156.094 180.68Z" fill="#000614"/>
<path d="M179.325 176.947L130.512 183.653L138.017 238.286L186.831 231.581L179.325 176.947Z" fill="#004FFF"/>
<path opacity="0.8" d="M179.325 176.947L130.512 183.653L138.017 238.286L186.831 231.581L179.325 176.947Z" fill="#EBF1FF"/>
<path opacity="0.2" d="M179.326 176.946L164.92 178.925L172.425 233.558L186.831 231.579L179.326 176.946Z" fill="#004FFF"/>
<path opacity="0.2" d="M186.828 231.582L178.904 227.321L172.12 177.938L179.323 176.949L186.828 231.582Z" fill="#004FFF"/>
<path opacity="0.3" d="M178.904 227.321L172.422 233.561L186.828 231.582L178.904 227.321Z" fill="#004FFF"/>
<path d="M194.698 223.919L187.263 220.992L187.995 230.314C187.995 230.314 192.986 230.069 195.638 227.461L194.698 223.919Z" fill="#FFADAD"/>
<path d="M218.172 177.466C220.177 183.068 221.889 188.632 223.369 194.385C224.106 197.257 224.81 200.152 225.339 203.145C225.609 204.642 225.848 206.16 226.029 207.732C226.203 209.315 226.322 210.921 226.243 212.772C226.184 213.715 226.117 214.685 225.742 215.971C225.339 217.37 224.549 218.554 223.795 219.415C222.242 221.134 220.642 222.05 219.122 222.858C216.069 224.409 213.1 225.267 210.14 226.013C204.201 227.387 198.385 228.14 192.407 228.381L191.825 223.699C194.547 223.045 197.341 222.332 200.053 221.566C202.779 220.821 205.463 219.972 208.044 219.024C210.613 218.094 213.135 217.015 215.154 215.769C216.145 215.161 216.982 214.431 217.325 213.951C217.487 213.701 217.489 213.632 217.457 213.627C217.477 213.519 217.521 213.033 217.51 212.534C217.499 211.491 217.334 210.209 217.134 208.926C216.926 207.632 216.658 206.301 216.355 204.963C215.735 202.287 215.036 199.566 214.263 196.854C212.7 191.445 210.952 185.962 209.187 180.626L218.172 177.466Z" fill="#FFADAD"/>
<path d="M180.361 225.604L180.94 227.756C181.319 229.166 182.579 230.16 184.038 230.202L187.994 230.314L187.262 220.992L183.176 221.461C181.169 221.691 179.836 223.652 180.361 225.604Z" fill="#FFADAD"/>
<path d="M213.929 167.053C218.105 168.746 221.533 182.494 221.533 182.494L209.984 191.519C209.984 191.519 201.801 178.708 203.472 173.151C204.891 168.434 208.609 164.897 213.929 167.053Z" fill="#004FFF"/>
<path d="M258.539 391.685C258.49 391.688 258.442 391.689 258.394 391.687C257.989 391.667 257.657 391.45 257.406 391.042C257.217 390.734 257.272 390.476 257.352 390.314C257.855 389.288 261.066 388.909 261.431 388.87C261.516 388.86 261.596 388.903 261.638 388.976C261.68 389.05 261.674 389.141 261.622 389.208C260.935 390.118 259.645 391.61 258.539 391.685ZM260.968 389.357C259.688 389.546 257.998 389.961 257.733 390.501C257.7 390.569 257.674 390.667 257.768 390.82C257.943 391.105 258.155 391.25 258.415 391.263C259.028 391.295 259.966 390.588 260.968 389.357Z" fill="#EBF1FF"/>
<path d="M261.256 389.317C260.172 389.391 258.006 388.941 257.555 388.101C257.462 387.928 257.361 387.579 257.728 387.191C257.962 386.945 258.254 386.826 258.6 386.838C259.899 386.883 261.548 388.861 261.618 388.945C261.666 389.003 261.679 389.083 261.653 389.153C261.627 389.224 261.565 389.275 261.491 389.288C261.421 389.302 261.341 389.311 261.256 389.317ZM258.497 387.263C258.315 387.275 258.164 387.348 258.036 387.483C257.848 387.681 257.88 387.81 257.928 387.9C258.224 388.452 259.93 388.924 261.019 388.906C260.435 388.276 259.36 387.288 258.586 387.261C258.555 387.261 258.526 387.261 258.497 387.263Z" fill="#EBF1FF"/>
<path d="M139.222 401.229C138.465 400.913 137.809 400.501 137.501 399.972C137.291 399.611 137.256 399.225 137.398 398.824C137.503 398.526 137.711 398.426 137.866 398.394C139.007 398.165 141.707 401.073 142.237 401.658C142.298 401.725 142.309 401.824 142.265 401.903C142.221 401.982 142.131 402.025 142.042 402.009C141.266 401.87 140.166 401.624 139.222 401.229ZM138.369 398.888C138.201 398.818 138.059 398.788 137.95 398.81C137.898 398.82 137.839 398.847 137.798 398.965C137.699 399.248 137.721 399.507 137.868 399.759C138.26 400.433 139.59 401.057 141.479 401.466C140.493 400.439 139.155 399.216 138.369 398.888Z" fill="#EBF1FF"/>
<path d="M141.999 401.996C141.974 401.986 141.951 401.97 141.931 401.95C141.015 401.035 139.533 398.316 140.044 397.445C140.156 397.254 140.401 397.058 140.929 397.208C142.974 397.792 142.317 401.671 142.289 401.836C142.275 401.914 142.22 401.978 142.144 402.002C142.096 402.018 142.044 402.016 141.999 401.996ZM140.949 397.664C140.906 397.646 140.861 397.63 140.814 397.617C140.599 397.556 140.463 397.57 140.41 397.66C140.113 398.166 141.063 400.221 141.931 401.311C142.031 400.35 142.121 398.155 140.949 397.664Z" fill="#EBF1FF"/>
<path d="M191.547 137.806L190.042 136.811C190.042 136.811 190.486 138.369 191.547 137.806Z" fill="#000614"/>
</svg>
