<svg width="500" height="500" viewBox="0 0 500 500" fill="none" xmlns="http://www.w3.org/2000/svg">
<path d="M500 382.398H0V382.648H500V382.398Z" fill="#171B26"/>
<path d="M449.901 398.494H416.779V398.744H449.901V398.494Z" fill="#171B26"/>
<path d="M331.22 401.208H322.527V401.458H331.22V401.208Z" fill="#171B26"/>
<path d="M415.778 389.208H396.586V389.458H415.778V389.208Z" fill="#171B26"/>
<path d="M95.652 390.888H52.459V391.138H95.652V390.888Z" fill="#171B26"/>
<path d="M110.889 390.888H104.556V391.138H110.889V390.888Z" fill="#F2F4F7"/>
<path d="M225.147 395.111H131.471V395.361H225.147V395.111Z" fill="#171B26"/>
<path d="M237.014 337.8H43.915C40.768 337.8 38.207 335.239 38.207 332.092V60.6601C38.207 57.5131 40.768 54.9521 43.915 54.9521H237.014C240.16 54.9521 242.721 57.5131 242.721 60.6601V332.092C242.721 335.239 240.16 337.8 237.014 337.8ZM43.915 55.2031C40.905 55.2031 38.457 57.6511 38.457 60.6611V332.093C38.457 335.103 40.905 337.551 43.915 337.551H237.014C240.023 337.551 242.471 335.103 242.471 332.093V60.6601C242.471 57.6511 240.023 55.2021 237.014 55.2021L43.915 55.2031Z" fill="#171B26"/>
<path d="M453.31 337.8H260.212C257.065 337.8 254.505 335.239 254.505 332.092V60.6601C254.505 57.5131 257.066 54.9521 260.212 54.9521H453.31C456.458 54.9521 459.018 57.5131 459.018 60.6601V332.092C459.019 335.239 456.458 337.8 453.31 337.8ZM260.212 55.2031C257.203 55.2031 254.755 57.6511 254.755 60.6611V332.093C254.755 335.103 257.203 337.551 260.212 337.551H453.31C456.32 337.551 458.768 335.103 458.768 332.093V60.6601C458.768 57.6511 456.32 55.2021 453.31 55.2021L260.212 55.2031Z" fill="#171B26"/>
<path d="M253.209 157.815C251.633 150.213 248.621 143.145 244.501 136.868L252.002 127.808L235.967 111.772L226.907 119.272C220.63 115.154 213.562 112.14 205.961 110.565L204.861 98.8882H182.183L181.083 110.565C173.482 112.141 166.413 115.154 160.137 119.272L151.077 111.772L135.041 127.808L142.541 136.868C138.422 143.144 135.409 150.212 133.833 157.814L122.156 158.915V181.591L133.833 182.692C135.41 190.293 138.422 197.36 142.541 203.637L135.041 212.697L151.077 228.733L160.137 221.232C166.413 225.353 173.482 228.364 181.083 229.941L182.183 241.619H204.861L205.961 229.943C213.562 228.367 220.63 225.354 226.907 221.233L235.967 228.734L252.002 212.698L244.501 203.639C248.621 197.361 251.633 190.294 253.209 182.693L264.886 181.592V158.916L253.209 157.815ZM224.22 170.254C224.22 187.208 210.475 200.954 193.52 200.954C176.565 200.954 162.82 187.209 162.82 170.254C162.82 153.299 176.565 139.554 193.52 139.554C210.476 139.554 224.22 153.299 224.22 170.254Z" fill="#171B26"/>
<path d="M318.25 266.651L319.04 275.042H335.334L336.123 266.653C341.586 265.52 346.664 263.355 351.174 260.395L357.684 265.785L369.206 254.262L363.817 247.753C366.778 243.243 368.941 238.164 370.075 232.703L378.463 231.913V215.62L370.075 214.829C368.942 209.366 366.778 204.288 363.817 199.78L369.206 193.27L357.684 181.747L351.174 187.136C346.664 184.178 341.586 182.012 336.123 180.879L335.334 172.492L319.04 172.49L318.25 180.88C312.788 182.014 307.71 184.179 303.199 187.137L296.69 181.748L285.168 193.271L290.557 199.781C287.597 204.291 285.433 209.368 284.3 214.83L275.91 215.621V231.915L284.3 232.705C285.432 238.165 287.597 243.245 290.556 247.755L285.167 254.264L296.689 265.787L303.198 260.397C307.71 263.355 312.788 265.52 318.25 266.651ZM327.186 245.824C315.005 245.824 305.129 235.948 305.129 223.766C305.129 211.584 315.005 201.709 327.186 201.709C339.369 201.709 349.244 211.584 349.244 223.766C349.244 235.948 339.369 245.824 327.186 245.824Z" fill="#171B26"/>
<path d="M110.511 346.924L110.914 351.203H119.224L119.626 346.925C122.412 346.347 125.002 345.243 127.302 343.734L130.622 346.483L136.498 340.607L133.749 337.287C135.259 334.987 136.362 332.396 136.941 329.612L141.219 329.209V320.899L136.941 320.496C136.363 317.71 135.259 315.12 133.749 312.821L136.498 309.501L130.622 303.625L127.302 306.373C125.002 304.864 122.412 303.76 119.626 303.182L119.224 298.905L110.914 298.904L110.511 303.183C107.726 303.761 105.136 304.865 102.835 306.374L99.516 303.626L93.64 309.5L96.388 312.82C94.879 315.12 93.775 317.709 93.197 320.495L88.918 320.898V329.208L93.197 329.611C93.774 332.396 94.878 334.986 96.388 337.286L93.64 340.606L99.516 346.482L102.835 343.733C105.135 345.243 107.725 346.347 110.511 346.924ZM115.068 336.302C108.856 336.302 103.819 331.266 103.819 325.053C103.819 318.841 108.856 313.804 115.068 313.804C121.281 313.804 126.317 318.84 126.317 325.053C126.317 331.266 121.282 336.302 115.068 336.302Z" fill="#171B26"/>
<path d="M409.249 326.16L409.581 329.682H416.42L416.751 326.161C419.044 325.685 421.175 324.777 423.068 323.535L425.8 325.797L430.636 320.961L428.374 318.229C429.617 316.336 430.525 314.204 431.001 311.912L434.522 311.58V304.741L431 304.409C430.525 302.116 429.616 299.985 428.373 298.092L430.635 295.36L425.799 290.524L423.067 292.786C421.174 291.544 419.043 290.635 416.75 290.16L416.419 286.64L409.58 286.639L409.248 290.161C406.956 290.637 404.824 291.545 402.931 292.787L400.199 290.525L395.363 295.361L397.625 298.093C396.383 299.986 395.474 302.117 394.999 304.41L391.478 304.742V311.581L395 311.913C395.475 314.205 396.384 316.337 397.626 318.23L395.364 320.962L400.2 325.798L402.932 323.536C404.825 324.776 406.957 325.685 409.249 326.16ZM413 317.418C407.887 317.418 403.742 313.273 403.742 308.16C403.742 303.047 407.887 298.902 413 298.902C418.113 298.902 422.258 303.047 422.258 308.16C422.258 313.273 418.113 317.418 413 317.418Z" fill="#171B26"/>
<path d="M231.725 380.751H251.125L252.065 370.763C258.568 369.415 264.613 366.836 269.982 363.313L277.732 369.729L291.449 356.013L285.034 348.263C288.557 342.894 291.134 336.848 292.482 330.344L302.47 329.404V310.005L292.482 309.065C291.133 302.562 288.556 296.516 285.034 291.147L291.449 283.397L277.732 269.681L269.982 276.096C264.612 272.573 258.567 269.995 252.065 268.646L251.125 258.658H231.725L230.785 268.646C224.282 269.995 218.237 272.573 212.866 276.096L205.117 269.681L191.399 283.397L197.816 291.147C194.292 296.517 191.714 302.562 190.366 309.065L180.377 310.005V329.404L190.366 330.344C191.714 336.848 194.292 342.894 197.816 348.262L191.399 356.014L205.117 369.73L212.866 363.314C218.237 366.837 224.282 369.416 230.785 370.764L231.725 380.751ZM241.425 345.964C226.921 345.964 215.164 334.207 215.164 319.703C215.164 305.201 226.921 293.443 241.425 293.443C255.929 293.443 267.686 305.201 267.686 319.703C267.686 334.208 255.929 345.964 241.425 345.964Z" fill="#171B26"/>
<path d="M340.16 345.256L339.133 343.299C335.788 336.927 327.882 334.463 321.509 337.809L316.835 340.263C310.46 343.609 307.997 351.516 311.342 357.888L312.369 359.845L309.11 361.556L320.862 383.944L355.172 365.933L343.42 343.545L340.16 345.256ZM333.014 362.385L335.064 366.291L332.576 367.597L330.526 363.692C329.591 363.635 328.702 363.152 328.235 362.262C327.524 360.908 328.046 359.233 329.399 358.523C330.754 357.812 332.428 358.333 333.139 359.687C333.607 360.576 333.498 361.583 333.014 362.385ZM335.008 347.96L317.521 357.14L316.494 355.183C314.64 351.651 316.007 347.269 319.54 345.415L324.214 342.961C327.746 341.107 332.127 342.471 333.981 346.003L335.008 347.96Z" fill="#171B26"/>
<path d="M100.313 226.354L101.038 224.266C103.399 217.467 99.788 210.015 92.989 207.654L88.002 205.922C81.2 203.56 73.748 207.172 71.387 213.97L70.662 216.058L67.185 214.851L58.891 238.737L95.497 251.448L103.791 227.562L100.313 226.354ZM82.93 232.856L81.483 237.023L78.828 236.101L80.275 231.934C79.677 231.213 79.422 230.234 79.752 229.285C80.254 227.84 81.832 227.076 83.276 227.577C84.722 228.079 85.486 229.657 84.985 231.102C84.655 232.051 83.846 232.661 82.93 232.856ZM94.817 224.445L76.16 217.967L76.885 215.879C78.194 212.111 82.326 210.111 86.094 211.419L91.081 213.151C94.849 214.46 96.851 218.589 95.542 222.357L94.817 224.445Z" fill="#171B26"/>
<path d="M427.928 214.667L425.789 213.987C430.49 213.138 434.592 209.841 436.14 204.971C438.367 197.963 434.491 190.475 427.483 188.248C420.474 186.02 412.986 189.896 410.759 196.905C409.211 201.775 410.657 206.835 414.006 210.242L411.868 209.563C405.359 207.494 398.404 211.094 396.335 217.604L394.195 224.338L433.827 236.934L435.967 230.2C438.035 223.69 434.437 216.736 427.928 214.667Z" fill="#171B26"/>
<path d="M284.189 93.9023L282.857 94.4623C284.807 92.0833 285.441 88.7553 284.166 85.7213C282.332 81.3563 277.306 79.3043 272.941 81.1383C268.575 82.9723 266.524 87.9983 268.358 92.3633C269.633 95.3963 272.454 97.2733 275.518 97.5453L274.186 98.1043C270.132 99.8073 268.226 104.476 269.93 108.53L271.693 112.725L296.378 102.353L294.616 98.1583C292.91 94.1053 288.243 92.1993 284.189 93.9023Z" fill="#171B26"/>
<path d="M105.5 122.02L104.085 121.725C107.04 120.872 109.451 118.491 110.122 115.27C111.088 110.635 108.112 106.094 103.477 105.128C98.841 104.162 94.3 107.137 93.335 111.772C92.664 114.993 93.923 118.139 96.292 120.101L94.878 119.806C90.573 118.909 86.355 121.672 85.458 125.978L84.53 130.432L110.742 135.893L111.67 131.439C112.567 127.134 109.805 122.917 105.5 122.02Z" fill="#171B26"/>
<path d="M250 427.561C357.082 427.561 443.889 422.492 443.889 416.238C443.889 409.985 357.082 404.915 250 404.915C142.918 404.915 56.111 409.985 56.111 416.238C56.111 422.492 142.918 427.561 250 427.561Z" fill="#0F121A"/>
<path d="M369.182 367.73H190.263C186.223 367.73 182.947 364.455 182.947 360.414V140.736C182.947 136.696 186.222 133.42 190.263 133.42H369.182C373.222 133.42 376.498 136.695 376.498 140.736V360.414C376.498 364.455 373.223 367.73 369.182 367.73Z" fill="#004FFF"/>
<path d="M369.182 367.73H190.263C186.223 367.73 182.947 364.455 182.947 360.414V140.736C182.947 136.696 186.222 133.42 190.263 133.42H369.182C373.222 133.42 376.498 136.695 376.498 140.736V360.414C376.498 364.455 373.223 367.73 369.182 367.73Z" fill="#004FFF"/>
<path d="M345.141 277.77H214.304V300.173H345.141V277.77Z" fill="#08090D"/>
<path d="M220.896 288.528C220.896 286.647 222.326 285.262 224.261 285.262C225.197 285.262 226.04 285.575 226.609 286.198L226.178 286.63C225.655 286.098 225.013 285.868 224.28 285.868C222.73 285.868 221.566 287.006 221.566 288.528C221.566 290.05 222.731 291.187 224.28 291.187C225.013 291.187 225.656 290.958 226.178 290.416L226.609 290.847C226.041 291.471 225.197 291.792 224.252 291.792C222.326 291.793 220.896 290.408 220.896 288.528Z" fill="#8C99BA"/>
<path d="M227.224 289.326C227.224 287.895 228.269 286.877 229.681 286.877C231.094 286.877 232.13 287.895 232.13 289.326C232.13 290.756 231.094 291.783 229.681 291.783C228.27 291.783 227.224 290.756 227.224 289.326ZM231.47 289.326C231.47 288.197 230.709 287.445 229.681 287.445C228.654 287.445 227.884 288.197 227.884 289.326C227.884 290.454 228.655 291.206 229.681 291.206C230.709 291.206 231.47 290.454 231.47 289.326Z" fill="#8C99BA"/>
<path d="M237.898 288.94V291.737H237.247V289.005C237.247 287.986 236.715 287.464 235.798 287.464C234.761 287.464 234.11 288.107 234.11 289.206V291.737H233.459V286.914H234.082V287.804C234.431 287.217 235.082 286.877 235.917 286.877C237.092 286.877 237.898 287.556 237.898 288.94Z" fill="#8C99BA"/>
<path d="M241.237 284.887C241.594 284.887 241.962 284.989 242.2 285.19L241.98 285.676C241.797 285.52 241.54 285.438 241.265 285.438C240.706 285.438 240.412 285.749 240.412 286.346V286.914H241.897V287.464H240.43V291.737H239.779V287.464H238.917V286.914H239.779V286.317C239.779 285.456 240.292 284.887 241.237 284.887ZM244.318 285.383C244.318 285.649 244.116 285.86 243.841 285.86C243.575 285.86 243.364 285.649 243.364 285.392C243.364 285.144 243.575 284.933 243.841 284.933C244.107 284.933 244.318 285.135 244.318 285.383ZM243.512 286.914H244.163V291.737H243.512V286.914Z" fill="#8C99BA"/>
<path d="M248.409 286.877V287.51C248.354 287.51 248.299 287.501 248.253 287.501C247.244 287.501 246.63 288.143 246.63 289.28V291.737H245.979V286.914H246.603V287.858C246.905 287.217 247.52 286.877 248.409 286.877Z" fill="#8C99BA"/>
<path d="M257.543 288.94V291.737H256.892V289.005C256.892 287.986 256.378 287.464 255.507 287.464C254.517 287.464 253.893 288.107 253.893 289.206V291.737H253.242V289.005C253.242 287.986 252.728 287.464 251.848 287.464C250.867 287.464 250.234 288.107 250.234 289.206V291.737H249.583V286.914H250.207V287.794C250.546 287.217 251.17 286.877 251.977 286.877C252.775 286.877 253.398 287.217 253.692 287.895C254.041 287.271 254.729 286.877 255.6 286.877C256.773 286.877 257.543 287.556 257.543 288.94Z" fill="#8C99BA"/>
<path d="M267.219 285.318V291.737H266.66L262.534 286.528V291.737H261.855V285.318H262.415L266.551 290.527V285.318H267.219Z" fill="#8C99BA"/>
<path d="M273.373 289.527H269.338C269.412 290.536 270.182 291.206 271.236 291.206C271.823 291.206 272.346 290.995 272.713 290.573L273.08 290.995C272.649 291.508 271.979 291.783 271.219 291.783C269.715 291.783 268.688 290.756 268.688 289.326C268.688 287.895 269.688 286.877 271.045 286.877C272.402 286.877 273.383 287.877 273.383 289.326C273.382 289.381 273.373 289.454 273.373 289.527ZM269.337 289.041H272.758C272.676 288.097 271.987 287.437 271.043 287.437C270.108 287.436 269.42 288.097 269.337 289.041Z" fill="#8C99BA"/>
<path d="M281.699 286.914L279.874 291.737H279.26L277.737 287.785L276.215 291.737H275.601L273.785 286.914H274.409L275.922 291.013L277.472 286.914H278.031L279.572 291.013L281.104 286.914H281.699Z" fill="#8C99BA"/>
<path d="M290.247 287.52C290.247 288.886 289.257 289.711 287.624 289.711H285.9V291.737H285.221V285.318H287.624C289.257 285.318 290.247 286.144 290.247 287.52ZM289.568 287.52C289.568 286.493 288.89 285.906 287.606 285.906H285.9V289.116H287.606C288.89 289.115 289.568 288.528 289.568 287.52Z" fill="#8C99BA"/>
<path d="M295.172 288.748V291.737H294.548V290.985C294.255 291.48 293.686 291.783 292.888 291.783C291.797 291.783 291.127 291.215 291.127 290.38C291.127 289.638 291.604 289.014 292.989 289.014H294.52V288.721C294.52 287.896 294.052 287.446 293.154 287.446C292.53 287.446 291.944 287.667 291.549 288.015L291.255 287.529C291.741 287.116 292.456 286.878 293.217 286.878C294.466 286.877 295.172 287.501 295.172 288.748ZM294.521 290.289V289.5H293.008C292.072 289.5 291.77 289.867 291.77 290.362C291.77 290.921 292.219 291.269 292.99 291.269C293.723 291.27 294.264 290.921 294.521 290.289Z" fill="#8C99BA"/>
<path d="M296.273 291.188L296.567 290.674C296.952 290.977 297.604 291.215 298.282 291.215C299.2 291.215 299.576 290.903 299.576 290.426C299.576 289.17 296.449 290.16 296.449 288.253C296.449 287.464 297.128 286.877 298.357 286.877C298.98 286.877 299.659 287.052 300.062 287.326L299.778 287.849C299.356 287.555 298.852 287.436 298.357 287.436C297.485 287.436 297.101 287.775 297.101 288.234C297.101 289.536 300.228 288.555 300.228 290.408C300.228 291.242 299.495 291.783 298.238 291.783C297.438 291.783 296.668 291.526 296.273 291.188Z" fill="#8C99BA"/>
<path d="M300.757 291.188L301.051 290.674C301.436 290.977 302.088 291.215 302.766 291.215C303.684 291.215 304.06 290.903 304.06 290.426C304.06 289.17 300.932 290.16 300.932 288.253C300.932 287.464 301.611 286.877 302.84 286.877C303.464 286.877 304.142 287.052 304.546 287.326L304.262 287.849C303.84 287.555 303.336 287.436 302.841 287.436C301.969 287.436 301.585 287.775 301.585 288.234C301.585 289.536 304.712 288.555 304.712 290.408C304.712 291.242 303.979 291.783 302.722 291.783C301.922 291.783 301.152 291.526 300.757 291.188Z" fill="#8C99BA"/>
<path d="M312.899 286.914L311.074 291.737H310.46L308.938 287.785L307.416 291.737H306.802L304.986 286.914H305.609L307.122 291.013L308.672 286.914H309.232L310.773 291.013L312.305 286.914H312.899Z" fill="#8C99BA"/>
<path d="M313.258 289.326C313.258 287.895 314.303 286.877 315.715 286.877C317.128 286.877 318.164 287.895 318.164 289.326C318.164 290.756 317.128 291.783 315.715 291.783C314.303 291.783 313.258 290.756 313.258 289.326ZM317.504 289.326C317.504 288.197 316.743 287.445 315.715 287.445C314.688 287.445 313.918 288.197 313.918 289.326C313.918 290.454 314.689 291.206 315.715 291.206C316.743 291.206 317.504 290.454 317.504 289.326Z" fill="#8C99BA"/>
<path d="M321.924 286.877V287.51C321.869 287.51 321.814 287.501 321.768 287.501C320.759 287.501 320.145 288.143 320.145 289.28V291.737H319.494V286.914H320.118V287.858C320.42 287.217 321.035 286.877 321.924 286.877Z" fill="#8C99BA"/>
<path d="M327.455 284.933V291.738H326.831V290.785C326.437 291.435 325.768 291.784 324.97 291.784C323.594 291.784 322.567 290.785 322.567 289.327C322.567 287.868 323.594 286.878 324.97 286.878C325.74 286.878 326.401 287.208 326.804 287.832V284.934L327.455 284.933ZM326.813 289.326C326.813 288.197 326.043 287.445 325.024 287.445C323.997 287.445 323.227 288.197 323.227 289.326C323.227 290.454 323.997 291.206 325.024 291.206C326.043 291.206 326.813 290.454 326.813 289.326Z" fill="#8C99BA"/>
<path opacity="0.2" d="M345.141 321.605H214.304V344.008H345.141V321.605Z" fill="#08090D"/>
<g opacity="0.5">
<path d="M215.106 224.797V226.304H217.089V226.655H215.106V228.282H214.701V224.447H217.33V224.798H215.106V224.797Z" fill="#C2D5FF"/>
<path d="M217.699 226.841C217.699 225.986 218.323 225.378 219.167 225.378C220.01 225.378 220.629 225.986 220.629 226.841C220.629 227.695 220.01 228.309 219.167 228.309C218.324 228.309 217.699 227.695 217.699 226.841ZM220.235 226.841C220.235 226.167 219.78 225.718 219.167 225.718C218.553 225.718 218.093 226.167 218.093 226.841C218.093 227.515 218.553 227.964 219.167 227.964C219.781 227.964 220.235 227.515 220.235 226.841Z" fill="#C2D5FF"/>
<path d="M222.878 225.378V225.756C222.845 225.756 222.812 225.75 222.785 225.75C222.182 225.75 221.815 226.134 221.815 226.814V228.282H221.426V225.4H221.798V225.964C221.98 225.581 222.347 225.378 222.878 225.378Z" fill="#C2D5FF"/>
<path d="M226.221 225.399V227.93C226.221 228.921 225.734 229.37 224.781 229.37C224.255 229.37 223.74 229.212 223.439 228.927L223.636 228.631C223.91 228.877 224.327 229.026 224.77 229.026C225.499 229.026 225.833 228.692 225.833 227.979V227.613C225.592 227.979 225.181 228.172 224.71 228.172C223.888 228.172 223.264 227.597 223.264 226.77C223.264 225.943 223.888 225.378 224.71 225.378C225.192 225.378 225.608 225.575 225.849 225.953V225.399H226.221ZM225.843 226.77C225.843 226.145 225.383 225.718 224.747 225.718C224.112 225.718 223.657 226.145 223.657 226.77C223.657 227.394 224.112 227.827 224.747 227.827C225.383 227.826 225.843 227.394 225.843 226.77Z" fill="#C2D5FF"/>
<path d="M227.023 226.841C227.023 225.986 227.647 225.378 228.491 225.378C229.334 225.378 229.953 225.986 229.953 226.841C229.953 227.695 229.334 228.309 228.491 228.309C227.648 228.309 227.023 227.695 227.023 226.841ZM229.56 226.841C229.56 226.167 229.105 225.718 228.492 225.718C227.878 225.718 227.418 226.167 227.418 226.841C227.418 227.515 227.878 227.964 228.492 227.964C229.105 227.964 229.56 227.515 229.56 226.841Z" fill="#C2D5FF"/>
<path d="M232.268 228.105C232.115 228.243 231.885 228.308 231.66 228.308C231.118 228.308 230.816 228.001 230.816 227.47V225.728H230.301V225.399H230.816V224.769H231.205V225.399H232.081V225.728H231.205V227.448C231.205 227.788 231.38 227.974 231.704 227.974C231.863 227.974 232.021 227.924 232.131 227.826L232.268 228.105Z" fill="#C2D5FF"/>
<path d="M237.497 225.762C237.497 226.577 236.905 227.071 235.93 227.071H234.9V228.282H234.495V224.447H235.93C236.905 224.446 237.497 224.939 237.497 225.762ZM237.091 225.762C237.091 225.148 236.685 224.797 235.919 224.797H234.9V226.715H235.919C236.686 226.715 237.091 226.364 237.091 225.762Z" fill="#C2D5FF"/>
<path d="M240.44 226.495V228.281H240.068V227.832C239.893 228.128 239.553 228.309 239.076 228.309C238.424 228.309 238.024 227.969 238.024 227.471C238.024 227.027 238.309 226.655 239.136 226.655H240.051V226.48C240.051 225.987 239.772 225.718 239.235 225.718C238.863 225.718 238.512 225.849 238.277 226.058L238.102 225.767C238.393 225.521 238.82 225.378 239.274 225.378C240.019 225.378 240.44 225.75 240.44 226.495ZM240.052 227.416V226.944H239.148C238.589 226.944 238.408 227.164 238.408 227.46C238.408 227.794 238.677 228.002 239.137 228.002C239.575 228.002 239.898 227.794 240.052 227.416Z" fill="#C2D5FF"/>
<path d="M241.101 227.952L241.276 227.645C241.506 227.826 241.895 227.968 242.3 227.968C242.847 227.968 243.072 227.782 243.072 227.497C243.072 226.746 241.204 227.338 241.204 226.198C241.204 225.727 241.609 225.377 242.343 225.377C242.716 225.377 243.121 225.482 243.362 225.646L243.192 225.959C242.94 225.783 242.639 225.712 242.343 225.712C241.823 225.712 241.593 225.915 241.593 226.189C241.593 226.967 243.461 226.381 243.461 227.488C243.461 227.986 243.023 228.309 242.272 228.309C241.796 228.309 241.336 228.155 241.101 227.952Z" fill="#C2D5FF"/>
<path d="M243.781 227.952L243.956 227.645C244.186 227.826 244.575 227.968 244.981 227.968C245.528 227.968 245.753 227.782 245.753 227.497C245.753 226.746 243.885 227.338 243.885 226.198C243.885 225.727 244.29 225.377 245.024 225.377C245.397 225.377 245.802 225.482 246.043 225.646L245.873 225.959C245.621 225.783 245.32 225.712 245.024 225.712C244.504 225.712 244.273 225.915 244.273 226.189C244.273 226.967 246.141 226.381 246.141 227.488C246.141 227.986 245.702 228.309 244.952 228.309C244.477 228.309 244.017 228.155 243.781 227.952Z" fill="#C2D5FF"/>
<path d="M251.036 225.399L249.946 228.281H249.579L248.67 225.92L247.761 228.281H247.394L246.31 225.399H246.683L247.587 227.848L248.513 225.399H248.847L249.767 227.848L250.682 225.399H251.036Z" fill="#C2D5FF"/>
<path d="M251.252 226.841C251.252 225.986 251.877 225.378 252.72 225.378C253.563 225.378 254.182 225.986 254.182 226.841C254.182 227.695 253.563 228.309 252.72 228.309C251.877 228.309 251.252 227.695 251.252 226.841ZM253.789 226.841C253.789 226.167 253.334 225.718 252.721 225.718C252.107 225.718 251.647 226.167 251.647 226.841C251.647 227.515 252.107 227.964 252.721 227.964C253.334 227.964 253.789 227.515 253.789 226.841Z" fill="#C2D5FF"/>
<path d="M256.432 225.378V225.756C256.399 225.756 256.366 225.75 256.339 225.75C255.736 225.75 255.369 226.134 255.369 226.814V228.282H254.98V225.4H255.352V225.964C255.533 225.581 255.9 225.378 256.432 225.378Z" fill="#C2D5FF"/>
<path d="M259.736 224.217V228.281H259.364V227.712C259.128 228.101 258.728 228.309 258.252 228.309C257.431 228.309 256.817 227.712 256.817 226.841C256.817 225.97 257.431 225.378 258.252 225.378C258.712 225.378 259.107 225.575 259.348 225.947V224.217H259.736ZM259.353 226.841C259.353 226.167 258.893 225.718 258.285 225.718C257.671 225.718 257.211 226.167 257.211 226.841C257.211 227.515 257.671 227.964 258.285 227.964C258.893 227.964 259.353 227.515 259.353 226.841Z" fill="#C2D5FF"/>
<path d="M262.57 225.428C262.57 225.033 262.247 224.759 261.688 224.759C261.223 224.759 260.883 224.912 260.642 225.203L260.352 224.983C260.648 224.622 261.102 224.414 261.716 224.414C262.483 224.414 262.976 224.781 262.976 225.367C262.976 226.303 261.973 226.347 261.973 227.131H261.567C261.568 226.227 262.57 226.145 262.57 225.428ZM261.486 228.023C261.486 227.865 261.612 227.744 261.771 227.744C261.936 227.744 262.061 227.865 262.061 228.023C262.061 228.176 261.935 228.308 261.771 228.308C261.612 228.309 261.486 228.177 261.486 228.023Z" fill="#C2D5FF"/>
</g>
<path d="M345.141 320.234H214.304V342.637H345.141V320.234Z" fill="#4782FF"/>
<path d="M242.831 334.039L243.236 333.185C243.806 333.701 244.781 334.073 245.767 334.073C247.093 334.073 247.662 333.558 247.662 332.89C247.662 331.016 243.017 332.2 243.017 329.351C243.017 328.167 243.937 327.16 245.953 327.16C246.851 327.16 247.783 327.401 248.418 327.84L248.057 328.716C247.389 328.289 246.633 328.092 245.953 328.092C244.649 328.092 244.09 328.64 244.09 329.308C244.09 331.181 248.735 330.009 248.735 332.825C248.735 333.998 247.793 335.006 245.766 335.006C244.595 335.004 243.444 334.609 242.831 334.039Z" fill="#85ABFF"/>
<path d="M255.413 332.363H250.702C250.834 333.381 251.655 334.061 252.806 334.061C253.485 334.061 254.055 333.831 254.482 333.36L255.063 334.039C254.537 334.653 253.737 334.981 252.773 334.981C250.899 334.981 249.65 333.744 249.65 332.012C249.65 330.292 250.888 329.054 252.565 329.054C254.241 329.054 255.435 330.259 255.435 332.045C255.435 332.133 255.424 332.265 255.413 332.363ZM250.702 331.607H254.427C254.318 330.631 253.583 329.942 252.565 329.942C251.557 329.942 250.811 330.621 250.702 331.607Z" fill="#85ABFF"/>
<path d="M260.161 334.576C259.844 334.85 259.361 334.981 258.89 334.981C257.718 334.981 257.05 334.335 257.05 333.163V329.975H256.064V329.11H257.05V327.839H258.102V329.11H259.767V329.975H258.102V333.12C258.102 333.745 258.431 334.096 259.011 334.096C259.318 334.096 259.614 333.997 259.833 333.822L260.161 334.576Z" fill="#85ABFF"/>
<path d="M270.728 329.92C270.728 331.586 269.523 332.594 267.529 332.594H265.634V334.916H264.538V327.247H267.529C269.522 327.247 270.728 328.255 270.728 329.92ZM269.632 329.92C269.632 328.824 268.898 328.2 267.496 328.2H265.634V331.64H267.496C268.898 331.641 269.632 331.016 269.632 329.92Z" fill="#85ABFF"/>
<path d="M276.737 331.41V334.916H275.74V334.149C275.39 334.674 274.743 334.981 273.834 334.981C272.519 334.981 271.687 334.28 271.687 333.272C271.687 332.341 272.29 331.574 274.02 331.574H275.686V331.366C275.686 330.478 275.171 329.964 274.13 329.964C273.44 329.964 272.739 330.205 272.29 330.589L271.851 329.8C272.454 329.318 273.319 329.055 274.25 329.055C275.838 329.055 276.737 329.821 276.737 331.41ZM275.685 333.142V332.331H274.063C273.022 332.331 272.726 332.736 272.726 333.229C272.726 333.81 273.208 334.171 274.008 334.171C274.797 334.171 275.422 333.81 275.685 333.142Z" fill="#85ABFF"/>
<path d="M277.957 334.303L278.396 333.47C278.889 333.821 279.678 334.073 280.434 334.073C281.409 334.073 281.814 333.777 281.814 333.284C281.814 331.98 278.144 333.109 278.144 330.798C278.144 329.757 279.075 329.056 280.565 329.056C281.321 329.056 282.175 329.253 282.679 329.581L282.23 330.414C281.704 330.074 281.123 329.954 280.554 329.954C279.634 329.954 279.185 330.294 279.185 330.754C279.185 332.123 282.866 331.006 282.866 333.263C282.866 334.315 281.902 334.983 280.357 334.983C279.393 334.981 278.44 334.685 277.957 334.303Z" fill="#85ABFF"/>
<path d="M283.45 334.303L283.888 333.47C284.381 333.821 285.17 334.073 285.926 334.073C286.901 334.073 287.307 333.777 287.307 333.284C287.307 331.98 283.637 333.109 283.637 330.798C283.637 329.757 284.568 329.056 286.058 329.056C286.814 329.056 287.668 329.253 288.172 329.581L287.723 330.414C287.197 330.074 286.617 329.954 286.047 329.954C285.127 329.954 284.677 330.294 284.677 330.754C284.677 332.123 288.359 331.006 288.359 333.263C288.359 334.315 287.395 334.983 285.85 334.983C284.885 334.981 283.932 334.685 283.45 334.303Z" fill="#85ABFF"/>
<path d="M298.353 329.109L296.184 334.916H295.176L293.5 330.512L291.802 334.916H290.794L288.636 329.109H289.633L291.321 333.732L293.074 329.109H293.961L295.681 333.755L297.412 329.109H298.353Z" fill="#85ABFF"/>
<path d="M298.721 332.013C298.721 330.282 300.003 329.055 301.745 329.055C303.487 329.055 304.758 330.282 304.758 332.013C304.758 333.744 303.487 334.982 301.745 334.982C300.003 334.981 298.721 333.744 298.721 332.013ZM303.695 332.013C303.695 330.775 302.862 329.975 301.745 329.975C300.628 329.975 299.784 330.775 299.784 332.013C299.784 333.251 300.628 334.062 301.745 334.062C302.863 334.061 303.695 333.251 303.695 332.013Z" fill="#85ABFF"/>
<path d="M309.343 329.055V330.074C309.255 330.063 309.178 330.063 309.102 330.063C307.974 330.063 307.272 330.753 307.272 332.024V334.917H306.22V329.11H307.228V330.086C307.601 329.405 308.324 329.055 309.343 329.055Z" fill="#85ABFF"/>
<path d="M316.061 326.787V334.916H315.053V333.996C314.582 334.653 313.837 334.981 312.983 334.981C311.285 334.981 310.046 333.787 310.046 332.012C310.046 330.238 311.284 329.054 312.983 329.054C313.804 329.054 314.527 329.361 315.01 329.986V326.787H316.061ZM315.021 332.013C315.021 330.775 314.177 329.975 313.071 329.975C311.954 329.975 311.11 330.775 311.11 332.013C311.11 333.251 311.954 334.062 313.071 334.062C314.177 334.061 315.021 333.251 315.021 332.013Z" fill="#85ABFF"/>
<g opacity="0.6">
<path d="M238.409 168.17L236.598 165.591C236.43 165.603 236.25 165.615 236.071 165.615H233.996V168.17H232.797V159.775H236.071C238.254 159.775 239.573 160.879 239.573 162.701C239.573 163.996 238.901 164.932 237.726 165.352L239.717 168.17H238.409ZM238.374 162.701C238.374 161.502 237.57 160.818 236.035 160.818H233.996V164.596H236.035C237.57 164.596 238.374 163.901 238.374 162.701Z" fill="#EBF1FF"/>
<path d="M247.074 165.376H241.917C242.061 166.491 242.961 167.235 244.22 167.235C244.963 167.235 245.587 166.983 246.055 166.467L246.691 167.211C246.115 167.883 245.239 168.242 244.184 168.242C242.133 168.242 240.766 166.887 240.766 164.992C240.766 163.109 242.121 161.754 243.956 161.754C245.791 161.754 247.099 163.073 247.099 165.028C247.098 165.124 247.085 165.268 247.074 165.376ZM241.917 164.548H245.995C245.875 163.481 245.072 162.725 243.956 162.725C242.852 162.726 242.036 163.469 241.917 164.548Z" fill="#EBF1FF"/>
<path d="M247.893 167.499L248.373 166.587C248.912 166.971 249.776 167.247 250.604 167.247C251.671 167.247 252.115 166.923 252.115 166.383C252.115 164.956 248.097 166.191 248.097 163.661C248.097 162.521 249.117 161.754 250.747 161.754C251.575 161.754 252.51 161.97 253.062 162.33L252.57 163.242C251.994 162.87 251.359 162.738 250.735 162.738C249.728 162.738 249.235 163.11 249.235 163.613C249.235 165.113 253.265 163.889 253.265 166.36C253.265 167.511 252.209 168.243 250.518 168.243C249.464 168.242 248.42 167.919 247.893 167.499Z" fill="#EBF1FF"/>
<path d="M260.429 165.376H255.272C255.415 166.491 256.315 167.235 257.575 167.235C258.318 167.235 258.942 166.983 259.41 166.467L260.046 167.211C259.47 167.883 258.594 168.242 257.539 168.242C255.488 168.242 254.121 166.887 254.121 164.992C254.121 163.109 255.476 161.754 257.311 161.754C259.146 161.754 260.454 163.073 260.454 165.028C260.453 165.124 260.441 165.268 260.429 165.376ZM255.272 164.548H259.35C259.23 163.481 258.427 162.725 257.311 162.725C256.207 162.726 255.392 163.469 255.272 164.548Z" fill="#EBF1FF"/>
<path d="M265.626 167.799C265.278 168.099 264.751 168.242 264.235 168.242C262.951 168.242 262.22 167.534 262.22 166.251V162.761H261.14V161.814H262.22V160.423H263.371V161.814H265.194V162.761H263.371V166.203C263.371 166.887 263.731 167.27 264.367 167.27C264.702 167.27 265.027 167.162 265.266 166.97L265.626 167.799Z" fill="#EBF1FF"/>
<path d="M277.192 162.701C277.192 164.524 275.873 165.628 273.69 165.628H271.615V168.17H270.416V159.775H273.69C275.873 159.775 277.192 160.878 277.192 162.701ZM275.993 162.701C275.993 161.502 275.189 160.818 273.654 160.818H271.615V164.584H273.654C275.19 164.585 275.993 163.901 275.993 162.701Z" fill="#EBF1FF"/>
<path d="M283.769 164.333V168.171H282.678V167.332C282.294 167.908 281.587 168.243 280.591 168.243C279.152 168.243 278.24 167.475 278.24 166.372C278.24 165.352 278.9 164.513 280.795 164.513H282.618V164.285C282.618 163.313 282.054 162.75 280.915 162.75C280.159 162.75 279.392 163.014 278.9 163.434L278.421 162.57C279.08 162.043 280.028 161.755 281.047 161.755C282.786 161.754 283.769 162.593 283.769 164.333ZM282.618 166.227V165.339H280.843C279.704 165.339 279.38 165.783 279.38 166.322C279.38 166.958 279.907 167.354 280.783 167.354C281.647 167.355 282.33 166.959 282.618 166.227Z" fill="#EBF1FF"/>
<path d="M285.104 167.499L285.584 166.587C286.123 166.971 286.987 167.247 287.815 167.247C288.882 167.247 289.326 166.923 289.326 166.383C289.326 164.956 285.308 166.191 285.308 163.661C285.308 162.521 286.328 161.754 287.958 161.754C288.786 161.754 289.721 161.97 290.273 162.33L289.781 163.242C289.205 162.87 288.57 162.738 287.946 162.738C286.939 162.738 286.447 163.11 286.447 163.613C286.447 165.113 290.476 163.889 290.476 166.36C290.476 167.511 289.421 168.243 287.73 168.243C286.675 168.242 285.632 167.919 285.104 167.499Z" fill="#EBF1FF"/>
<path d="M291.116 167.499L291.596 166.587C292.136 166.971 292.999 167.247 293.827 167.247C294.894 167.247 295.338 166.923 295.338 166.383C295.338 164.956 291.32 166.191 291.32 163.661C291.32 162.521 292.34 161.754 293.97 161.754C294.798 161.754 295.733 161.97 296.285 162.33L295.793 163.242C295.217 162.87 294.582 162.738 293.958 162.738C292.951 162.738 292.459 163.11 292.459 163.613C292.459 165.113 296.488 163.889 296.488 166.36C296.488 167.511 295.433 168.243 293.742 168.243C292.687 168.242 291.644 167.919 291.116 167.499Z" fill="#EBF1FF"/>
<path d="M307.43 161.814L305.055 168.17H303.951L302.116 163.349L300.257 168.17H299.153L296.79 161.814H297.882L299.729 166.875L301.648 161.814H302.62L304.503 166.899L306.398 161.814H307.43Z" fill="#EBF1FF"/>
<path d="M307.832 164.992C307.832 163.097 309.235 161.754 311.142 161.754C313.049 161.754 314.44 163.097 314.44 164.992C314.44 166.887 313.048 168.242 311.142 168.242C309.235 168.242 307.832 166.887 307.832 164.992ZM313.277 164.992C313.277 163.637 312.365 162.761 311.142 162.761C309.918 162.761 308.995 163.637 308.995 164.992C308.995 166.347 309.918 167.235 311.142 167.235C312.365 167.235 313.277 166.348 313.277 164.992Z" fill="#EBF1FF"/>
<path d="M319.457 161.754V162.869C319.361 162.857 319.277 162.857 319.193 162.857C317.958 162.857 317.19 163.612 317.19 165.003V168.169H316.039V161.813H317.142V162.88C317.551 162.138 318.342 161.754 319.457 161.754Z" fill="#EBF1FF"/>
<path d="M326.812 159.271V168.17H325.709V167.163C325.193 167.883 324.377 168.242 323.442 168.242C321.583 168.242 320.228 166.935 320.228 164.992C320.228 163.049 321.583 161.754 323.442 161.754C324.342 161.754 325.133 162.09 325.661 162.774V159.272H326.812V159.271ZM325.673 164.992C325.673 163.637 324.75 162.761 323.538 162.761C322.315 162.761 321.391 163.637 321.391 164.992C321.391 166.347 322.315 167.235 323.538 167.235C324.75 167.235 325.673 166.348 325.673 164.992Z" fill="#EBF1FF"/>
</g>
<path d="M345.141 244.165H214.304V266.568H345.141V244.165Z" fill="#08090D"/>
<path d="M226.829 251.713V258.133H226.269L222.143 252.924V258.133H221.464V251.713H222.023L226.159 256.922V251.713H226.829Z" fill="#8C99BA"/>
<path d="M232.983 255.923H228.948C229.022 256.932 229.792 257.601 230.846 257.601C231.433 257.601 231.956 257.39 232.323 256.968L232.69 257.39C232.259 257.904 231.589 258.179 230.829 258.179C229.325 258.179 228.298 257.152 228.298 255.721C228.298 254.29 229.297 253.273 230.655 253.273C232.012 253.273 232.993 254.272 232.993 255.721C232.992 255.775 232.983 255.849 232.983 255.923ZM228.948 255.436H232.369C232.286 254.492 231.598 253.832 230.654 253.832C229.718 253.832 229.03 254.492 228.948 255.436Z" fill="#8C99BA"/>
<path d="M241.31 253.309L239.485 258.133H238.871L237.349 254.18L235.827 258.133H235.213L233.397 253.309H234.021L235.534 257.409L237.084 253.309H237.644L239.184 257.409L240.716 253.309H241.31Z" fill="#8C99BA"/>
<path d="M249.858 253.914C249.858 255.28 248.868 256.105 247.236 256.105H245.512V258.132H244.833V251.712H247.236C248.868 251.713 249.858 252.538 249.858 253.914ZM249.179 253.914C249.179 252.887 248.501 252.3 247.217 252.3H245.511V255.51H247.217C248.501 255.51 249.179 254.923 249.179 253.914Z" fill="#8C99BA"/>
<path d="M254.783 255.143V258.133H254.159V257.381C253.866 257.876 253.297 258.179 252.499 258.179C251.408 258.179 250.738 257.61 250.738 256.776C250.738 256.033 251.215 255.41 252.6 255.41H254.131V255.116C254.131 254.291 253.663 253.842 252.765 253.842C252.141 253.842 251.554 254.062 251.16 254.41L250.867 253.924C251.353 253.512 252.068 253.274 252.829 253.274C254.077 253.273 254.783 253.895 254.783 255.143ZM254.132 256.684V255.895H252.619C251.683 255.895 251.381 256.262 251.381 256.757C251.381 257.317 251.83 257.665 252.601 257.665C253.334 257.665 253.875 257.316 254.132 256.684Z" fill="#8C99BA"/>
<path d="M255.883 257.582L256.176 257.068C256.561 257.371 257.213 257.609 257.891 257.609C258.809 257.609 259.184 257.298 259.184 256.821C259.184 255.564 256.056 256.555 256.056 254.647C256.056 253.859 256.735 253.272 257.964 253.272C258.588 253.272 259.266 253.446 259.67 253.721L259.386 254.243C258.964 253.95 258.46 253.831 257.965 253.831C257.093 253.831 256.709 254.17 256.709 254.629C256.709 255.931 259.836 254.949 259.836 256.802C259.836 257.637 259.103 258.178 257.846 258.178C257.048 258.179 256.278 257.922 255.883 257.582Z" fill="#8C99BA"/>
<path d="M260.368 257.582L260.661 257.068C261.046 257.371 261.698 257.609 262.376 257.609C263.293 257.609 263.669 257.298 263.669 256.821C263.669 255.564 260.542 256.555 260.542 254.647C260.542 253.859 261.221 253.272 262.45 253.272C263.074 253.272 263.752 253.446 264.156 253.721L263.872 254.243C263.45 253.95 262.946 253.831 262.451 253.831C261.579 253.831 261.195 254.17 261.195 254.629C261.195 255.931 264.322 254.949 264.322 256.802C264.322 257.637 263.589 258.178 262.332 258.178C261.533 258.179 260.763 257.922 260.368 257.582Z" fill="#8C99BA"/>
<path d="M272.51 253.309L270.685 258.133H270.071L268.549 254.18L267.027 258.133H266.413L264.597 253.309H265.221L266.734 257.409L268.284 253.309H268.844L270.385 257.409L271.917 253.309H272.51Z" fill="#8C99BA"/>
<path d="M272.869 255.721C272.869 254.29 273.914 253.273 275.326 253.273C276.739 253.273 277.775 254.29 277.775 255.721C277.775 257.152 276.739 258.179 275.326 258.179C273.914 258.179 272.869 257.151 272.869 255.721ZM277.115 255.721C277.115 254.593 276.354 253.841 275.327 253.841C274.3 253.841 273.53 254.593 273.53 255.721C273.53 256.849 274.3 257.601 275.327 257.601C276.353 257.601 277.115 256.849 277.115 255.721Z" fill="#8C99BA"/>
<path d="M281.535 253.273V253.906C281.48 253.906 281.425 253.896 281.379 253.896C280.37 253.896 279.756 254.539 279.756 255.675V258.133H279.105V253.309H279.728V254.254C280.031 253.611 280.646 253.273 281.535 253.273Z" fill="#8C99BA"/>
<path d="M287.065 251.328V258.133H286.441V257.179C286.047 257.83 285.377 258.179 284.58 258.179C283.204 258.179 282.177 257.179 282.177 255.721C282.177 254.263 283.204 253.273 284.58 253.273C285.35 253.273 286.011 253.603 286.414 254.226V251.328H287.065ZM286.423 255.721C286.423 254.593 285.652 253.841 284.634 253.841C283.607 253.841 282.837 254.593 282.837 255.721C282.837 256.849 283.608 257.601 284.634 257.601C285.653 257.601 286.423 256.849 286.423 255.721Z" fill="#8C99BA"/>
<path d="M345.141 193.549H214.304V215.952H345.141V193.549Z" fill="#08090D"/>
<path d="M220.896 204.307C220.896 202.436 222.326 201.042 224.27 201.042C226.196 201.042 227.636 202.427 227.636 204.307C227.636 206.187 226.196 207.572 224.27 207.572C222.326 207.572 220.896 206.178 220.896 204.307ZM226.958 204.307C226.958 202.775 225.812 201.647 224.271 201.647C222.721 201.647 221.566 202.775 221.566 204.307C221.566 205.838 222.721 206.966 224.271 206.966C225.811 206.966 226.958 205.838 226.958 204.307Z" fill="#8C99BA"/>
<path d="M229.021 200.712H229.672V207.517H229.021V200.712Z" fill="#8C99BA"/>
<path d="M235.89 200.712V207.517H235.266V206.563C234.872 207.214 234.202 207.562 233.405 207.562C232.029 207.562 231.002 206.563 231.002 205.104C231.002 203.646 232.029 202.655 233.405 202.655C234.175 202.655 234.836 202.985 235.239 203.609V200.711H235.89V200.712ZM235.249 205.105C235.249 203.977 234.478 203.225 233.461 203.225C232.434 203.225 231.664 203.977 231.664 205.105C231.664 206.233 232.435 206.985 233.461 206.985C234.478 206.985 235.249 206.233 235.249 205.105Z" fill="#8C99BA"/>
<path d="M245.272 203.298C245.272 204.664 244.282 205.489 242.649 205.489H240.925V207.516H240.246V201.097H242.649C244.282 201.097 245.272 201.922 245.272 203.298ZM244.593 203.298C244.593 202.271 243.915 201.684 242.631 201.684H240.925V204.894H242.631C243.915 204.894 244.593 204.307 244.593 203.298Z" fill="#8C99BA"/>
<path d="M250.197 204.527V207.517H249.573V206.765C249.28 207.26 248.711 207.563 247.913 207.563C246.822 207.563 246.152 206.994 246.152 206.16C246.152 205.417 246.629 204.794 248.014 204.794H249.545V204.5C249.545 203.675 249.077 203.225 248.179 203.225C247.555 203.225 246.968 203.445 246.574 203.794L246.28 203.308C246.766 202.895 247.481 202.657 248.242 202.657C249.491 202.656 250.197 203.28 250.197 204.527ZM249.546 206.068V205.279H248.033C247.097 205.279 246.795 205.646 246.795 206.141C246.795 206.7 247.244 207.049 248.015 207.049C248.748 207.049 249.289 206.7 249.546 206.068Z" fill="#8C99BA"/>
<path d="M251.298 206.966L251.591 206.452C251.976 206.755 252.628 206.993 253.306 206.993C254.223 206.993 254.599 206.681 254.599 206.204C254.599 204.948 251.472 205.938 251.472 204.031C251.472 203.243 252.151 202.656 253.38 202.656C254.004 202.656 254.682 202.83 255.086 203.105L254.802 203.628C254.38 203.335 253.876 203.215 253.381 203.215C252.509 203.215 252.125 203.554 252.125 204.013C252.125 205.315 255.252 204.334 255.252 206.186C255.252 207.021 254.519 207.562 253.262 207.562C252.463 207.563 251.692 207.306 251.298 206.966Z" fill="#8C99BA"/>
<path d="M255.783 206.966L256.077 206.452C256.462 206.755 257.114 206.993 257.792 206.993C258.71 206.993 259.086 206.681 259.086 206.204C259.086 204.948 255.958 205.938 255.958 204.031C255.958 203.243 256.637 202.656 257.866 202.656C258.49 202.656 259.168 202.83 259.572 203.105L259.288 203.628C258.866 203.335 258.362 203.215 257.867 203.215C256.996 203.215 256.611 203.554 256.611 204.013C256.611 205.315 259.738 204.334 259.738 206.186C259.738 207.021 259.005 207.562 257.748 207.562C256.948 207.563 256.177 207.306 255.783 206.966Z" fill="#8C99BA"/>
<path d="M267.924 202.693L266.099 207.517H265.485L263.962 203.564L262.44 207.517H261.826L260.01 202.693H260.633L262.146 206.792L263.696 202.693H264.255L265.796 206.792L267.328 202.693H267.924Z" fill="#8C99BA"/>
<path d="M268.283 205.105C268.283 203.674 269.328 202.656 270.74 202.656C272.153 202.656 273.189 203.674 273.189 205.105C273.189 206.535 272.153 207.563 270.74 207.563C269.329 207.563 268.283 206.535 268.283 205.105ZM272.529 205.105C272.529 203.977 271.768 203.225 270.74 203.225C269.713 203.225 268.943 203.977 268.943 205.105C268.943 206.233 269.714 206.985 270.74 206.985C271.768 206.985 272.529 206.233 272.529 205.105Z" fill="#8C99BA"/>
<path d="M276.949 202.656V203.289C276.894 203.289 276.839 203.28 276.793 203.28C275.784 203.28 275.17 203.922 275.17 205.059V207.517H274.519V202.693H275.143V203.638C275.445 202.996 276.06 202.656 276.949 202.656Z" fill="#8C99BA"/>
<path d="M282.479 200.712V207.517H281.855V206.563C281.461 207.214 280.792 207.562 279.994 207.562C278.618 207.562 277.591 206.563 277.591 205.104C277.591 203.646 278.618 202.655 279.994 202.655C280.764 202.655 281.424 202.985 281.828 203.609V200.711H282.479V200.712ZM281.838 205.105C281.838 203.977 281.068 203.225 280.049 203.225C279.022 203.225 278.252 203.977 278.252 205.105C278.252 206.233 279.022 206.985 280.049 206.985C281.067 206.985 281.838 206.233 281.838 205.105Z" fill="#8C99BA"/>
<path d="M398.558 376.189C398.558 376.189 392.382 377.011 389.744 376.189C387.107 375.367 388.09 363.389 385.396 363.141C379.195 362.571 380.25 378.48 382.887 381.832C385.524 385.184 399.117 383.758 399.117 383.758L398.558 376.189Z" fill="#004FFF"/>
<path opacity="0.2" d="M398.558 376.189C398.558 376.189 392.382 377.011 389.744 376.189C387.107 375.367 388.09 363.389 385.396 363.141C379.195 362.571 380.25 378.48 382.887 381.832C385.524 385.184 399.117 383.758 399.117 383.758L398.558 376.189Z" fill="#F2F4F7"/>
<path d="M399.071 404.404C399.071 404.404 389.921 323.162 400.844 322.227C411.767 321.292 414.401 349.941 410.183 403.372L399.071 404.404Z" fill="#004FFF"/>
<path opacity="0.3" d="M399.071 404.404C399.071 404.404 389.921 323.162 400.844 322.227C411.767 321.292 414.401 349.941 410.183 403.372L399.071 404.404Z" fill="#F2F4F7"/>
<path d="M386.244 394.566H422.171L419.171 417.553H389.244L386.244 394.566Z" fill="#0F121A"/>
<path d="M409.92 348.86C409.92 348.86 419.875 349.391 420.172 348.86C420.469 348.329 420.469 336.831 424.689 337.511C428.909 338.19 427.063 352.031 424.689 353.641C422.315 355.25 409.92 356.121 409.92 356.121C409.92 356.121 408.259 351.017 409.92 348.86Z" fill="#004FFF"/>
<path opacity="0.4" d="M409.92 348.86C409.92 348.86 419.875 349.391 420.172 348.86C420.469 348.329 420.469 336.831 424.689 337.511C428.909 338.19 427.063 352.031 424.689 353.641C422.315 355.25 409.92 356.121 409.92 356.121C409.92 356.121 408.259 351.017 409.92 348.86Z" fill="#F2F4F7"/>
<path d="M403.611 396.986C402.24 384.607 401.09 372.201 400.272 359.768C399.853 353.552 399.558 347.327 399.445 341.091C399.397 337.973 399.395 334.852 399.55 331.728C399.63 330.166 399.748 328.603 399.989 327.041C400.116 326.26 400.26 325.479 400.522 324.702C400.671 324.315 400.806 323.923 401.096 323.55C401.155 323.455 401.239 323.365 401.341 323.281C401.432 323.194 401.529 323.11 401.684 323.053C401.755 323.023 401.825 322.993 401.898 322.972C401.983 322.967 402.071 322.967 402.157 322.973C402.343 322.968 402.459 323.066 402.6 323.135C403.052 323.476 403.211 323.878 403.393 324.253C403.555 324.635 403.682 325.018 403.793 325.402C404.008 326.17 404.18 326.941 404.321 327.714C404.609 329.259 404.812 330.81 404.993 332.362C405.345 335.466 405.586 338.575 405.79 341.686C406.182 347.908 406.446 354.133 406.592 360.361C406.747 366.588 406.84 372.816 406.886 379.044C406.906 385.272 406.889 391.5 406.821 397.727C406.762 391.5 406.651 385.274 406.504 379.049C406.379 372.824 406.22 366.6 405.992 360.379C405.751 354.159 405.509 347.939 405.081 341.733C404.866 338.631 404.614 335.531 404.252 332.448C404.067 330.908 403.86 329.37 403.571 327.855C403.431 327.097 403.26 326.347 403.052 325.618C402.946 325.255 402.825 324.898 402.682 324.565C402.541 324.243 402.346 323.912 402.17 323.785C402.134 323.78 402.096 323.721 402.077 323.748C402.067 323.75 402.057 323.746 402.045 323.737C402.028 323.747 402.01 323.761 401.991 323.769C401.955 323.77 401.905 323.814 401.856 323.864C401.805 323.902 401.754 323.951 401.711 324.024C401.515 324.265 401.38 324.619 401.252 324.955C401.012 325.653 400.868 326.408 400.743 327.162C400.503 328.677 400.38 330.222 400.295 331.769C400.129 334.864 400.119 337.974 400.156 341.082C400.234 347.3 400.545 353.517 400.871 359.733C401.212 365.948 401.639 372.159 402.109 378.367C402.558 384.576 403.052 390.783 403.611 396.986Z" fill="#004FFF"/>
<path d="M411.173 351.589L416.957 351.145C417.916 351.052 418.877 350.985 419.823 350.857C420.294 350.794 420.768 350.733 421.213 350.628C421.427 350.576 421.658 350.511 421.795 350.436C421.797 350.428 421.866 350.39 421.822 350.42C421.804 350.438 421.817 350.443 421.796 350.483C421.773 350.517 421.788 350.603 421.799 350.601C421.778 350.45 421.744 350.263 421.75 350.139C421.856 348.109 422.256 346.248 422.667 344.341C423.106 342.454 423.528 340.555 424.23 338.738C424.024 339.684 423.869 340.637 423.724 341.594L423.258 344.453L422.828 347.312C422.697 348.256 422.546 349.231 422.531 350.13C422.525 350.247 422.548 350.299 422.545 350.389C422.558 350.447 422.568 350.593 422.544 350.688C422.522 350.789 422.474 350.834 422.428 350.903C422.321 351.039 422.263 351.041 422.173 351.11C421.88 351.26 421.636 351.31 421.382 351.373C420.883 351.48 420.396 351.544 419.907 351.591C418.93 351.677 417.961 351.737 416.989 351.743C415.046 351.776 413.108 351.742 411.173 351.589Z" fill="#004FFF"/>
<path d="M411.173 354.244C413.347 353.878 415.527 353.58 417.702 353.268L420.961 352.805C422.016 352.637 423.189 352.481 424.085 352.187C424.12 352.176 424.293 351.969 424.373 351.742C424.472 351.518 424.55 351.267 424.622 351.014C424.762 350.504 424.865 349.971 424.955 349.437C425.141 348.367 425.242 347.277 425.381 346.191C425.623 344.013 425.797 341.821 426.007 339.627C426.121 341.83 426.097 344.035 425.979 346.241C425.934 347.346 425.811 348.445 425.656 349.548C425.574 350.099 425.482 350.651 425.342 351.205C425.269 351.482 425.191 351.76 425.074 352.042C424.947 352.313 424.853 352.635 424.404 352.898C423.773 353.124 423.263 353.174 422.702 353.277L421.057 353.508C419.961 353.643 418.868 353.784 417.769 353.862C415.575 354.051 413.378 354.198 411.173 354.244Z" fill="#004FFF"/>
<path d="M395.483 378.412C393.647 378.507 391.809 378.469 389.969 378.298C389.045 378.21 388.133 378.097 387.197 377.796C387.075 377.747 386.972 377.728 386.833 377.653C386.673 377.568 386.553 377.463 386.46 377.351C386.265 377.129 386.151 376.898 386.043 376.669C385.841 376.211 385.72 375.751 385.61 375.292C385.22 373.451 385.104 371.61 385.068 369.77C385.038 367.931 385.079 366.094 385.26 364.264C385.404 366.096 385.513 367.921 385.668 369.739C385.842 371.551 385.984 373.379 386.371 375.119C386.579 375.94 386.784 376.967 387.448 377.104C388.243 377.407 389.161 377.538 390.046 377.706C391.84 377.996 393.661 378.185 395.483 378.412Z" fill="#004FFF"/>
<path d="M383.418 365.711L384.067 372.102C384.297 374.224 384.475 376.36 384.88 378.431C384.972 378.948 385.079 379.464 385.233 379.938C385.311 380.155 385.415 380.417 385.507 380.508L385.754 380.684C385.854 380.737 385.972 380.782 386.08 380.833C387 381.211 388.081 381.349 389.115 381.541C391.215 381.863 393.348 382.057 395.482 382.272C393.337 382.381 391.188 382.338 389.038 382.137C387.959 382.03 386.892 381.887 385.811 381.491C385.675 381.432 385.54 381.383 385.404 381.313C385.266 381.221 385.128 381.128 384.995 381.027C384.712 380.725 384.647 380.459 384.528 380.185C384.34 379.645 384.217 379.111 384.113 378.576C383.761 376.43 383.574 374.293 383.47 372.147C383.375 370.002 383.335 367.857 383.418 365.711Z" fill="#004FFF"/>
<path d="M360.968 139.568C367.444 128.262 381.91 124.334 393.216 130.81L392.25 132.496L398.949 130.677L397.13 123.978L396.164 125.664C382.021 117.562 363.923 122.478 355.821 136.621C349.545 147.577 350.918 161.315 359.238 170.805L363.698 166.896C357.048 159.307 355.951 148.326 360.968 139.568Z" fill="#0F121A"/>
<path d="M404.025 132.195L399.501 136.03C405.909 143.591 406.903 154.453 401.973 163.058C395.497 174.364 381.031 178.292 369.725 171.816L370.691 170.13L363.992 171.949L365.811 178.648L366.777 176.963C380.92 185.065 399.018 180.149 407.12 166.006C413.286 155.242 412.042 141.654 404.025 132.195Z" fill="#0F121A"/>
<g opacity="0.6">
<path d="M360.968 139.568C367.444 128.262 381.91 124.334 393.216 130.81L392.25 132.496L398.949 130.677L397.13 123.978L396.164 125.664C382.021 117.562 363.923 122.478 355.821 136.621C349.545 147.577 350.918 161.315 359.238 170.805L363.698 166.896C357.048 159.307 355.951 148.326 360.968 139.568Z" fill="#262D40"/>
<path d="M404.025 132.195L399.501 136.03C405.909 143.591 406.903 154.453 401.973 163.058C395.497 174.364 381.031 178.292 369.725 171.816L370.691 170.13L363.992 171.949L365.811 178.648L366.777 176.963C380.92 185.065 399.018 180.149 407.12 166.006C413.286 155.242 412.042 141.654 404.025 132.195Z" fill="#262D40"/>
</g>
<path d="M377.216 123.29H370.697V103.281C370.697 95.6331 364.475 89.4111 356.827 89.4111C349.179 89.4111 342.957 95.6341 342.957 103.281V123.29H336.438V103.281C336.438 92.0381 345.584 82.8911 356.827 82.8911C368.07 82.8911 377.216 92.0371 377.216 103.281V123.29Z" fill="#0F121A"/>
<g opacity="0.3">
<path d="M377.216 123.29H370.697V103.281C370.697 95.6331 364.475 89.4111 356.827 89.4111C349.179 89.4111 342.957 95.6341 342.957 103.281V123.29H336.438V103.281C336.438 92.0381 345.584 82.8911 356.827 82.8911C368.07 82.8911 377.216 92.0371 377.216 103.281V123.29Z" fill="#262D40"/>
</g>
<path d="M384.687 118.199V150.929C384.687 153.029 382.987 154.729 380.887 154.729H332.747C330.667 154.729 328.967 153.029 328.967 150.929V118.199C328.967 116.099 330.667 114.399 332.747 114.399H380.887C381.537 114.399 382.157 114.559 382.687 114.859C383.877 115.489 384.687 116.749 384.687 118.199Z" fill="#004FFF"/>
<path opacity="0.2" d="M382.687 114.859V146.929C382.687 149.029 380.987 150.719 378.887 150.719H330.747C330.107 150.719 329.497 150.559 328.967 150.269V118.199C328.967 116.099 330.667 114.399 332.747 114.399H380.887C381.538 114.399 382.158 114.559 382.687 114.859Z" fill="#F2F4F7"/>
<path opacity="0.5" d="M363.996 130.455C363.996 126.42 360.787 123.149 356.827 123.149C352.867 123.149 349.658 126.42 349.658 130.455C349.658 133.592 351.609 136.245 354.333 137.28L353.959 145.978H359.695L358.839 137.433C361.812 136.543 363.996 133.773 363.996 130.455Z" fill="#08090D"/>
<path d="M127.369 139.575L130.687 150.235L134.005 139.575H127.369Z" fill="#004FFF"/>
<path d="M157.831 142.823H103.542C98.797 142.823 94.95 138.976 94.95 134.231V122.667C94.95 117.922 98.797 114.075 103.542 114.075H157.831C162.576 114.075 166.423 117.922 166.423 122.667V134.231C166.423 138.976 162.577 142.823 157.831 142.823Z" fill="#004FFF"/>
<path d="M111.752 128.436L113.633 129.496L113.143 130.365L111.23 129.243L111.246 131.393H110.298L110.314 129.243L108.401 130.365L107.911 129.496L109.808 128.436L107.911 127.393L108.401 126.508L110.314 127.63L110.298 125.496H111.246L111.23 127.63L113.143 126.508L113.633 127.393L111.752 128.436Z" fill="#85ABFF"/>
<path d="M118.39 128.436L120.271 129.496L119.781 130.365L117.869 129.243L117.885 131.393H116.937L116.953 129.243L115.04 130.365L114.55 129.496L116.447 128.436L114.55 127.393L115.04 126.508L116.953 127.63L116.937 125.496H117.885L117.869 127.63L119.781 126.508L120.271 127.393L118.39 128.436Z" fill="#85ABFF"/>
<path d="M125.029 128.436L126.91 129.496L126.42 130.365L124.507 129.243L124.523 131.393H123.575L123.591 129.243L121.678 130.365L121.188 129.496L123.085 128.436L121.188 127.393L121.678 126.508L123.591 127.63L123.575 125.496H124.523L124.507 127.63L126.42 126.508L126.91 127.393L125.029 128.436Z" fill="#85ABFF"/>
<path d="M131.667 128.436L133.548 129.496L133.058 130.365L131.145 129.243L131.161 131.393H130.213L130.229 129.243L128.316 130.365L127.826 129.496L129.723 128.436L127.826 127.393L128.316 126.508L130.229 127.63L130.213 125.496H131.161L131.145 127.63L133.058 126.508L133.548 127.393L131.667 128.436Z" fill="#85ABFF"/>
<path d="M138.306 128.436L140.187 129.496L139.697 130.365L137.784 129.243L137.8 131.393H136.852L136.868 129.243L134.955 130.365L134.465 129.496L136.362 128.436L134.465 127.393L134.955 126.508L136.868 127.63L136.852 125.496H137.8L137.784 127.63L139.697 126.508L140.187 127.393L138.306 128.436Z" fill="#85ABFF"/>
<path d="M144.944 128.436L146.825 129.496L146.335 130.365L144.422 129.243L144.438 131.393H143.49L143.506 129.243L141.593 130.365L141.103 129.496L143 128.436L141.103 127.393L141.593 126.508L143.506 127.63L143.49 125.496H144.438L144.422 127.63L146.335 126.508L146.825 127.393L144.944 128.436Z" fill="#85ABFF"/>
<path d="M151.583 128.436L153.464 129.496L152.974 130.365L151.061 129.243L151.077 131.393H150.129L150.145 129.243L148.232 130.365L147.742 129.496L149.639 128.436L147.742 127.393L148.232 126.508L150.145 127.63L150.129 125.496H151.077L151.061 127.63L152.974 126.508L153.464 127.393L151.583 128.436Z" fill="#85ABFF"/>
<path d="M174.072 214.066L180.173 210.118L173.304 205.902C173.304 205.902 168.073 209.753 170.17 212.364L174.072 214.066Z" fill="#FFADAD"/>
<path d="M183.3 203.635L176.163 202.015L173.304 205.902L180.173 210.118L183.3 203.635Z" fill="#FFADAD"/>
<path d="M148.948 201.245C150.868 204.328 152.93 207.534 155.015 210.53C156.051 212.042 157.134 213.503 158.218 214.875C159.283 216.231 160.471 217.532 161.416 218.335C161.641 218.526 161.845 218.673 161.944 218.744C162.04 218.821 161.995 218.768 161.608 218.761C161.407 218.807 161.513 218.91 161.917 218.747C162.726 218.424 163.962 217.306 165.028 216.065C166.119 214.801 167.164 213.345 168.162 211.84C168.65 211.082 169.151 210.315 169.611 209.547L170.23 208.474C170.245 208.454 170.264 208.419 170.264 208.447C170.275 208.424 170.247 208.543 170.246 208.601C170.236 208.662 170.216 208.84 170.219 208.956L170.227 209.151C170.318 209.241 170.002 208.975 170.622 210.349C171.35 211.7 173.364 211.606 173.354 211.477C173.595 211.425 173.853 211.329 174.088 211.19C174.324 211.052 174.533 210.875 174.695 210.69L174.794 210.569C174.843 210.504 174.888 210.435 174.928 210.364L174.94 210.332C174.951 210.302 174.946 210.3 174.934 210.314C174.92 210.32 174.893 210.354 174.866 210.386C174.757 210.525 174.63 210.717 174.508 210.903L170.099 209.021C170.167 208.765 170.233 208.515 170.33 208.22C170.356 208.144 170.38 208.07 170.422 207.969C170.437 207.929 170.461 207.873 170.502 207.792L170.558 207.682C170.615 207.586 170.677 207.493 170.743 207.403C170.787 207.348 170.714 207.43 170.856 207.264C171.024 207.075 171.239 206.892 171.48 206.75C171.721 206.607 171.984 206.505 172.231 206.448C172.227 206.315 174.245 206.234 174.977 207.589C175.603 208.968 175.286 208.71 175.376 208.807L175.383 209.025C175.384 209.156 175.364 209.349 175.352 209.425L175.294 209.755L175.226 210.075C175.085 210.709 174.961 211.183 174.82 211.702C174.542 212.712 174.24 213.696 173.876 214.665C173.164 216.609 172.308 218.515 171.185 220.403C170.025 222.28 168.749 224.201 166.274 225.926C165.045 226.761 163.254 227.545 161.116 227.483C159.765 227.411 158.794 227.033 158.028 226.689C157.265 226.331 156.658 225.953 156.106 225.576C153.964 224.067 152.525 222.511 151.084 220.953C149.671 219.393 148.417 217.788 147.195 216.182C144.781 212.928 142.639 209.672 140.603 206.148L148.948 201.245Z" fill="#FFADAD"/>
<path d="M145.917 196.859C149.884 198.184 158.035 216.609 158.035 216.609L144.251 223.154C144.251 223.154 141.446 208.674 141.961 204.034C142.478 199.393 145.917 196.859 145.917 196.859Z" fill="#004FFF"/>
<path opacity="0.7" d="M145.917 196.859C149.884 198.184 158.035 216.609 158.035 216.609L144.251 223.154C144.251 223.154 141.446 208.674 141.961 204.034C142.478 199.393 145.917 196.859 145.917 196.859Z" fill="#F2F4F7"/>
<path d="M162.12 410.53L155.099 412.517L153.428 401.591L152.528 395.748L159.549 393.76L160.745 401.591L162.12 410.53Z" fill="#FFADAD"/>
<path d="M121.757 411.104L114.52 412.063L114.451 401.591L114.401 395.085L121.649 394.136L121.698 401.591L121.757 411.104Z" fill="#FFADAD"/>
<path opacity="0.2" d="M121.649 394.136L121.698 401.591H114.451L114.401 395.085L121.649 394.136Z" fill="#08090D"/>
<path opacity="0.2" d="M160.745 401.591H153.428L152.528 395.748L159.549 393.76L160.745 401.591Z" fill="#08090D"/>
<path d="M162.034 409.435L154.061 409.22C153.763 409.212 153.497 409.411 153.422 409.699L151.747 416.119C151.573 416.785 152.061 417.433 152.751 417.44C155.629 417.469 159.791 417.413 163.405 417.51C167.632 417.624 170.319 417.416 175.276 417.55C178.273 417.631 179.214 414.637 177.969 414.33C172.303 412.933 168.599 413.209 163.772 410.047C163.247 409.705 162.664 409.452 162.034 409.435Z" fill="#171B26"/>
<path d="M162.607 410.316C162.599 410.243 162.639 410.173 162.705 410.142C163.043 409.981 166.028 408.57 166.9 409.094C167.068 409.194 167.16 409.355 167.169 409.56C167.182 409.904 167.064 410.183 166.815 410.389C165.989 411.073 163.907 410.73 162.74 410.465C162.732 410.463 162.725 410.461 162.717 410.458C162.656 410.435 162.613 410.381 162.607 410.316ZM163.325 410.236C164.927 410.546 166.131 410.509 166.595 410.125C166.758 409.99 166.833 409.811 166.823 409.577C166.819 409.486 166.789 409.431 166.721 409.39C166.702 409.379 166.682 409.369 166.659 409.361C166.115 409.156 164.502 409.717 163.325 410.236Z" fill="#004FFF"/>
<path d="M162.673 410.434C162.624 410.397 162.599 410.337 162.607 410.276C162.618 410.193 162.885 408.241 163.841 407.507C164.133 407.283 164.459 407.193 164.811 407.238C165.284 407.3 165.413 407.542 165.438 407.737C165.542 408.562 163.74 410.086 162.845 410.456C162.803 410.473 162.758 410.473 162.717 410.458C162.701 410.452 162.686 410.445 162.673 410.434ZM164.764 407.58C164.504 407.546 164.271 407.612 164.051 407.779C163.424 408.261 163.121 409.425 163.007 409.994C163.926 409.48 165.156 408.278 165.094 407.782C165.09 407.751 165.08 407.673 164.939 407.62C164.894 407.603 164.837 407.589 164.764 407.58Z" fill="#004FFF"/>
<path d="M121.468 409.435L113.495 409.22C113.196 409.212 112.931 409.411 112.856 409.699L111.181 416.119C111.007 416.785 111.495 417.433 112.185 417.44C115.063 417.469 119.224 417.413 122.839 417.51C127.066 417.624 129.753 417.416 134.71 417.55C137.707 417.631 138.648 414.637 137.403 414.33C131.737 412.933 128.033 413.209 123.206 410.047C122.682 409.705 122.098 409.452 121.468 409.435Z" fill="#171B26"/>
<path d="M122.041 410.316C122.033 410.243 122.073 410.173 122.139 410.142C122.477 409.981 125.462 408.57 126.334 409.094C126.502 409.194 126.594 409.355 126.603 409.56C126.617 409.904 126.498 410.183 126.249 410.389C125.423 411.073 123.341 410.73 122.173 410.465C122.165 410.463 122.158 410.461 122.151 410.458C122.091 410.435 122.048 410.381 122.041 410.316ZM122.759 410.236C124.361 410.546 125.565 410.509 126.029 410.125C126.192 409.99 126.267 409.811 126.257 409.577C126.253 409.486 126.223 409.431 126.155 409.39C126.136 409.379 126.116 409.369 126.093 409.361C125.549 409.156 123.937 409.717 122.759 410.236Z" fill="#004FFF"/>
<path d="M122.107 410.434C122.058 410.397 122.033 410.337 122.041 410.276C122.052 410.193 122.319 408.241 123.275 407.507C123.567 407.283 123.893 407.193 124.245 407.238C124.718 407.3 124.847 407.542 124.872 407.737C124.976 408.562 123.174 410.086 122.279 410.456C122.237 410.473 122.192 410.473 122.151 410.458C122.135 410.452 122.121 410.445 122.107 410.434ZM124.198 407.58C123.938 407.546 123.705 407.612 123.486 407.779C122.858 408.261 122.556 409.425 122.442 409.994C123.361 409.48 124.591 408.278 124.529 407.782C124.525 407.751 124.515 407.673 124.374 407.62C124.329 407.603 124.272 407.589 124.198 407.58Z" fill="#004FFF"/>
<path d="M106.826 251.965C102.992 268.592 109.572 399.357 109.572 399.357H122.29L127.727 290.378L147.755 399.357L161.347 398.368C152.462 313.949 144.607 263.548 144.607 263.548L144.625 257.179L106.826 251.965Z" fill="#171B26"/>
<path opacity="0.2" d="M161.348 398.368L147.752 399.357L131.991 313.571L127.729 290.384L122.291 399.357H109.575C109.575 399.357 102.99 268.591 106.826 251.97L144.627 257.181L144.607 263.549C144.607 263.549 152.459 313.946 161.348 398.368Z" fill="#0F121A"/>
<path d="M105.967 195.792C107.392 203.824 108.011 211.93 108.199 219.525C108.333 225.082 108.224 230.363 108.01 235.143C107.511 246.347 106.434 254.828 106.485 257.737C112.076 257.839 133.147 258.218 144.636 258.42C153.74 218.514 145.918 196.858 145.918 196.858C145.918 196.858 141.805 195.655 136.957 194.943C136.319 194.845 135.668 194.766 135.006 194.694C130.723 194.227 123.664 194.257 118.786 194.403C117.76 194.435 116.721 194.493 115.708 194.566C110.553 194.948 105.967 195.792 105.967 195.792Z" fill="#004FFF"/>
<path d="M136.194 195.965C136.194 195.965 133.92 199.259 132.096 199.489C129.518 199.834 120.08 194.068 120.08 194.068C122.263 192.454 123.329 188.952 123.799 185.24C124.205 182.011 124.153 178.631 123.992 176.164L132.803 185.745C131.638 188.735 130.951 191.949 133.23 194.198C133.243 194.209 133.255 194.207 133.255 194.207C133.934 194.896 134.894 195.488 136.194 195.965Z" fill="#FFADAD"/>
<path opacity="0.2" d="M133.229 194.2C129.514 192.172 125.752 188.736 123.798 185.241C124.204 182.012 124.152 178.632 123.991 176.165L132.802 185.746C131.637 188.738 130.95 191.951 133.229 194.2Z" fill="#08090D"/>
<path d="M143.034 167.556C143.778 170.335 143.062 175.947 139.311 173.95C135.559 171.954 141.754 162.78 143.034 167.556Z" fill="#0F121A"/>
<path d="M123.119 170.406C122.393 177.434 121.61 181.514 124.544 185.637C128.958 191.838 138.106 189.992 140.925 183.302C143.462 177.281 144.223 166.799 137.847 162.964C131.565 159.186 123.845 163.378 123.119 170.406Z" fill="#FFADAD"/>
<path d="M128.225 166.789L128.565 158.916C128.565 158.916 120.213 157.931 120.4 162.236C115.66 164.337 117.541 171.652 123.622 175.462C127.157 172.875 127.05 166.273 127.05 166.273C127.412 166.453 127.811 166.623 128.225 166.789Z" fill="#0F121A"/>
<path d="M119.472 175.761C119.731 177.644 120.841 179.225 122.108 180.14C124.013 181.515 125.797 180.003 125.963 177.779C126.113 175.777 125.302 172.648 123.055 172.154C120.841 171.666 119.175 173.607 119.472 175.761Z" fill="#FFADAD"/>
<path d="M133.388 174.002C133.294 174.569 133.519 175.075 133.891 175.133C134.263 175.191 134.64 174.778 134.734 174.211C134.828 173.644 134.603 173.138 134.231 173.08C133.859 173.022 133.482 173.435 133.388 174.002Z" fill="#0F121A"/>
<path d="M139.815 175.002C139.721 175.569 139.946 176.075 140.318 176.133C140.69 176.191 141.067 175.778 141.161 175.211C141.255 174.644 141.03 174.138 140.658 174.08C140.286 174.023 139.909 174.436 139.815 175.002Z" fill="#0F121A"/>
<path d="M137.725 174.966C137.725 174.966 138.528 178.321 139.711 180.072C138.572 180.803 136.933 180.107 136.933 180.107L137.725 174.966Z" fill="#FF7070"/>
<path d="M133.526 181.802C133.754 181.87 133.998 181.926 134.258 181.966C134.35 181.98 134.437 181.917 134.453 181.826C134.469 181.734 134.404 181.648 134.314 181.634C131.817 181.242 130.941 179.326 130.933 179.307C130.896 179.222 130.795 179.185 130.71 179.222C130.624 179.26 130.585 179.36 130.623 179.445C130.657 179.521 131.412 181.174 133.526 181.802Z" fill="#0F121A"/>
<path d="M131.749 171.624C131.862 171.658 131.99 171.631 132.082 171.543C133.177 170.499 134.393 170.762 134.405 170.764C134.587 170.805 134.77 170.692 134.813 170.511C134.856 170.33 134.743 170.149 134.562 170.108C134.498 170.093 132.974 169.763 131.616 171.059C131.48 171.188 131.475 171.401 131.603 171.535C131.645 171.578 131.695 171.608 131.749 171.624Z" fill="#0F121A"/>
<path d="M142.949 173.23C143.011 173.248 143.078 173.249 143.144 173.229C143.323 173.174 143.425 172.986 143.372 172.808C142.839 171.023 141.348 170.588 141.283 170.56C141.104 170.509 140.915 170.612 140.862 170.791C140.809 170.969 140.91 171.155 141.087 171.207C141.15 171.223 142.294 171.572 142.722 173.005C142.757 173.117 142.845 173.199 142.949 173.23Z" fill="#0F121A"/>
<path d="M120.4 162.236C120.4 162.236 116.078 157.949 130.743 158.341C145.408 158.733 147.843 166.947 141.124 168.856L140.815 167.519C140.815 167.519 137.362 169.544 133.294 167.899L134.357 167.239C134.357 167.239 124.354 168.265 120.4 162.236Z" fill="#0F121A"/>
<path d="M132.101 199.493C132.101 199.493 130.233 201.652 128.053 203.784C124.941 202.209 117.657 197.999 118.018 194.111C118.448 192.979 121.408 192.264 121.408 192.264C121.408 192.264 124.633 196.452 132.101 199.493Z" fill="#004FFF"/>
<path d="M132.101 199.493C132.101 199.493 134.533 201.382 136.111 203.782C138.403 202.3 137.246 195.064 136.406 194.264C134.593 193.173 132.464 193.231 132.464 193.231C132.464 193.231 134.091 196.523 132.101 199.493Z" fill="#004FFF"/>
<g opacity="0.5">
<path d="M132.101 199.493C132.101 199.493 130.233 201.652 128.053 203.784C124.941 202.209 117.657 197.999 118.018 194.111C118.448 192.979 121.408 192.264 121.408 192.264C121.408 192.264 124.633 196.452 132.101 199.493Z" fill="#F2F4F7"/>
<path d="M132.101 199.493C132.101 199.493 134.533 201.382 136.111 203.782C138.403 202.3 137.246 195.064 136.406 194.264C134.593 193.173 132.464 193.231 132.464 193.231C132.464 193.231 134.091 196.523 132.101 199.493Z" fill="#F2F4F7"/>
</g>
<path opacity="0.2" d="M131.992 313.57L127.73 290.383L128.551 278.112C128.551 278.112 134.394 299.391 131.992 313.57Z" fill="#08090D"/>
<path d="M109.963 206.385L103.407 217.077C102.319 218.854 101.259 220.645 100.227 222.415C99.202 224.182 98.201 225.986 97.392 227.653C96.988 228.485 96.697 229.191 96.434 229.995C96.173 230.873 95.902 231.817 95.659 232.793C95.181 234.751 94.731 236.791 94.295 238.833C93.418 242.922 92.548 247.087 91.59 251.214L86.815 250.791C86.642 246.458 86.682 242.172 86.938 237.841C87.077 235.674 87.234 233.508 87.531 231.288C87.68 230.176 87.84 229.039 88.09 227.855C88.357 226.601 88.774 225.3 89.214 224.182C90.071 221.939 91.037 219.972 92.023 217.998C92.998 216.023 94.047 214.126 95.095 212.23C97.22 208.45 99.429 204.798 101.816 201.165L109.963 206.385Z" fill="#FFADAD"/>
<path d="M105.967 195.792C100.601 197.177 91.0229 216.48 91.0229 216.48L102.429 223.87L112.723 213.882C112.723 213.882 113.757 209.098 112.067 203.035C110.376 196.971 105.967 195.792 105.967 195.792Z" fill="#004FFF"/>
<path opacity="0.7" d="M105.967 195.792C100.601 197.177 91.0229 216.48 91.0229 216.48L102.429 223.87L112.723 213.882C112.723 213.882 113.757 209.098 112.067 203.035C110.376 196.971 105.967 195.792 105.967 195.792Z" fill="#F2F4F7"/>
<path d="M198.13 179.534L118.862 263.596L110.05 255.286L189.318 171.224C191.112 169.321 194.109 169.233 196.012 171.027L197.934 172.839C199.836 174.634 199.924 177.631 198.13 179.534Z" fill="#171B26"/>
<path opacity="0.6" d="M198.13 179.534L118.862 263.596L110.05 255.286L189.318 171.224C191.112 169.321 194.109 169.233 196.012 171.027L197.934 172.839C199.836 174.634 199.924 177.631 198.13 179.534Z" fill="#262D40"/>
<path opacity="0.2" d="M196.603 171.591L197.929 172.842C199.832 174.637 199.926 177.632 198.132 179.535L118.863 263.599L117.537 262.348L196.807 178.284C198.601 176.381 198.506 173.386 196.603 171.591Z" fill="#08090D"/>
<path d="M171.309 204.144L186 217.997L187.913 215.968L186.011 214.175L189.033 210.969L187.919 209.918L192.456 205.107L193.571 206.158L196.405 203.153L198.307 204.946L200.285 202.847L199.171 201.796L202.015 198.779L199.786 196.676L201.641 194.709L204.986 197.863L208.387 194.256L193.696 180.403L171.309 204.144Z" fill="#171B26"/>
<path opacity="0.6" d="M171.309 204.144L186 217.997L187.913 215.968L186.011 214.175L189.033 210.969L187.919 209.918L192.456 205.107L193.571 206.158L196.405 203.153L198.307 204.946L200.285 202.847L199.171 201.796L202.015 198.779L199.786 196.676L201.641 194.709L204.986 197.863L208.387 194.256L193.696 180.403L171.309 204.144Z" fill="#1F2433"/>
<g opacity="0.2">
<path opacity="0.6" d="M186.586 214.705L184.679 216.728L186.005 217.979L187.912 215.956L186.586 214.705Z" fill="#08090D"/>
<path opacity="0.6" d="M193.575 206.156L192.461 205.105L187.921 209.919L189.035 210.97L186.009 214.179L184.683 212.929L187.709 209.719L186.595 208.669L191.135 203.855L192.249 204.905L195.081 201.901L196.408 203.152L193.575 206.156Z" fill="#08090D"/>
<path opacity="0.6" d="M197.84 200.544L200.685 197.526L202.018 198.783L199.173 201.8L200.287 202.851L198.311 204.946L196.984 203.696L198.96 201.6L197.84 200.544Z" fill="#08090D"/>
<path opacity="0.6" d="M200.313 193.473L198.456 195.442L199.782 196.693L201.639 194.723L200.313 193.473Z" fill="#08090D"/>
<path opacity="0.6" d="M207.063 192.992L203.661 196.6L204.988 197.85L208.389 194.243L207.063 192.992Z" fill="#08090D"/>
</g>
<path d="M197.57 181.68L173.27 207.45C172.868 207.876 172.198 207.895 171.772 207.494L162.952 199.177C162.526 198.775 162.507 198.105 162.908 197.679L187.208 171.909C187.61 171.483 188.28 171.464 188.706 171.865L197.526 180.182C197.952 180.583 197.971 181.254 197.57 181.68Z" fill="#171B26"/>
<path d="M119.322 290.773C111.564 299 98.606 299.38 90.379 291.622L83.741 285.363C75.514 277.605 75.134 264.647 82.892 256.42C90.65 248.193 103.608 247.813 111.835 255.57L118.473 261.829C126.7 269.587 127.08 282.546 119.322 290.773Z" fill="#171B26"/>
<path d="M111.688 283.573C107.827 287.668 101.377 287.857 97.2819 283.996L90.9489 278.024C86.8539 274.163 86.6649 267.713 90.5259 263.618C94.3869 259.523 100.837 259.334 104.932 263.195L111.265 269.166C115.36 273.028 115.549 279.478 111.688 283.573Z" fill="#0F121A"/>
<path opacity="0.5" d="M197.57 181.68L173.27 207.45C172.868 207.876 172.198 207.895 171.772 207.494L162.952 199.177C162.526 198.775 162.507 198.105 162.908 197.679L187.208 171.909C187.61 171.483 188.28 171.464 188.706 171.865L197.526 180.182C197.952 180.583 197.971 181.254 197.57 181.68Z" fill="#1F2433"/>
<path opacity="0.2" d="M194.873 177.677L197.525 180.178C197.956 180.584 197.976 181.254 197.569 181.685L173.27 207.454C172.87 207.878 172.2 207.898 171.769 207.492L169.117 204.991C169.541 205.391 170.211 205.372 170.612 204.947L194.911 179.178C195.317 178.747 195.298 178.077 194.873 177.677Z" fill="#08090D"/>
<g opacity="0.2">
<path d="M102.948 261.319L104.937 263.195C102.888 261.263 100.256 260.347 97.641 260.424C95.038 260.5 92.459 261.576 90.526 263.625C86.668 267.716 86.851 274.165 90.949 278.029L88.96 276.153C84.862 272.289 84.672 265.834 88.531 261.742C90.463 259.693 93.043 258.618 95.652 258.548C98.26 258.465 100.898 259.387 102.948 261.319Z" fill="#08090D"/>
<path d="M116.486 259.954L118.475 261.83C126.698 269.584 127.078 282.545 119.318 290.775C111.564 298.998 98.603 299.378 90.38 291.624L88.391 289.748C96.614 297.502 109.575 297.121 117.329 288.899C125.09 280.669 124.709 267.708 116.486 259.954Z" fill="#08090D"/>
</g>
<g opacity="0.2">
<path d="M102.948 261.319L104.937 263.195C102.888 261.263 100.256 260.347 97.641 260.424C95.038 260.5 92.459 261.576 90.526 263.625C86.668 267.716 86.851 274.165 90.949 278.029L88.96 276.153C84.862 272.289 84.672 265.834 88.531 261.742C90.463 259.693 93.043 258.618 95.652 258.548C98.26 258.465 100.898 259.387 102.948 261.319Z" fill="#08090D"/>
<path d="M102.948 261.319L104.937 263.195C102.888 261.263 100.256 260.347 97.641 260.424C95.038 260.5 92.459 261.576 90.526 263.625C86.668 267.716 86.851 274.165 90.949 278.029L88.96 276.153C84.862 272.289 84.672 265.834 88.531 261.742C90.463 259.693 93.043 258.618 95.652 258.548C98.26 258.465 100.898 259.387 102.948 261.319Z" fill="#08090D"/>
</g>
<path d="M87.785 262.21L95.128 260.372L94.314 255.002L85.348 256.809L87.785 262.21Z" fill="#FFADAD"/>
<path d="M87.056 249.785L85.348 256.808L94.315 255.002C94.315 255.002 94.436 248.712 91.088 248.301L87.056 249.785Z" fill="#FFADAD"/>
</svg>
