<svg width="500" height="373" viewBox="0 0 500 373" fill="none" xmlns="http://www.w3.org/2000/svg">
<path d="M500 327.837H0V328.087H500V327.837Z" fill="#0F121A"/>
<path d="M449.901 343.933H416.779V344.183H449.901V343.933Z" fill="#0F121A"/>
<path d="M331.22 346.647H322.527V346.897H331.22V346.647Z" fill="#0F121A"/>
<path d="M415.778 334.647H396.586V334.897H415.778V334.647Z" fill="#0F121A"/>
<path d="M95.652 336.327H52.459V336.577H95.652V336.327Z" fill="#0F121A"/>
<path d="M110.889 336.327H104.556V336.577H110.889V336.327Z" fill="#0F121A"/>
<path d="M225.147 340.55H131.471V340.8H225.147V340.55Z" fill="#0F121A"/>
<path d="M237.014 283.239H43.915C40.768 283.239 38.207 280.678 38.207 277.531V6.09911C38.207 2.95211 40.768 0.391113 43.915 0.391113H237.014C240.16 0.391113 242.721 2.95211 242.721 6.09911V277.531C242.721 280.678 240.16 283.239 237.014 283.239ZM43.915 0.642113C40.905 0.642113 38.457 3.09011 38.457 6.10011V277.532C38.457 280.542 40.905 282.99 43.915 282.99H237.014C240.023 282.99 242.471 280.542 242.471 277.532V6.09911C242.471 3.09011 240.023 0.641113 237.014 0.641113L43.915 0.642113Z" fill="#0F121A"/>
<path d="M453.31 283.239H260.212C257.065 283.239 254.505 280.678 254.505 277.531V6.09911C254.505 2.95211 257.066 0.391113 260.212 0.391113H453.31C456.458 0.391113 459.018 2.95211 459.018 6.09911V277.531C459.019 280.678 456.458 283.239 453.31 283.239ZM260.212 0.642113C257.203 0.642113 254.755 3.09011 254.755 6.10011V277.532C254.755 280.542 257.203 282.99 260.212 282.99H453.31C456.32 282.99 458.768 280.542 458.768 277.532V6.09911C458.768 3.09011 456.32 0.641113 453.31 0.641113L260.212 0.642113Z" fill="#0F121A"/>
<path d="M378.273 265.089V279.289L384.271 283.65H356.268L365.214 280.334V266.08L378.273 265.089Z" fill="#171B26"/>
<path d="M302.74 283.241V327.971H427.736V283.241H302.74ZM304.991 286.139H402.828V300.759H304.991V286.139Z" fill="#171B26"/>
<path d="M302.74 283.241V327.971H405.838V283.241H302.74ZM304.991 286.139H402.828V300.759H304.991V286.139Z" fill="#0F121A"/>
<path d="M304.989 300.759H325.154V286.142H304.989V300.759Z" fill="#171B26"/>
<path d="M377.88 300.759H402.828V293.451H377.88V300.759Z" fill="#171B26"/>
<path d="M357.26 300.758H376.041V296.417H357.26V300.758Z" fill="#171B26"/>
<path d="M335.027 300.76H352.919V291.88H335.027V300.76Z" fill="#171B26"/>
<path d="M385.095 303.942L385.631 305.689H392.812L393.348 303.942H402.828V323.348H371.363V303.942H385.095Z" fill="#171B26"/>
<path d="M347.703 303.942L348.239 305.689H355.42L355.956 303.942H369.688V323.348H338.223V303.942H347.703Z" fill="#171B26"/>
<path d="M318.816 303.942L319.352 305.689H326.533L327.069 303.942H336.548V323.348H305.083V303.942H318.816Z" fill="#171B26"/>
<path d="M321.02 273.574H414.01C415.96 273.574 417.54 271.993 417.54 270.044V216.65C417.54 214.7 415.959 213.12 414.01 213.12H321.02C319.07 213.12 317.49 214.701 317.49 216.65V270.044C317.49 271.993 319.071 273.574 321.02 273.574Z" fill="#171B26"/>
<path d="M318.669 273.574H411.659C413.609 273.574 415.189 271.993 415.189 270.044V216.65C415.189 214.7 413.608 213.12 411.659 213.12H318.669C316.719 213.12 315.139 214.701 315.139 216.65V270.044C315.139 271.993 316.719 273.574 318.669 273.574Z" fill="#0F121A"/>
<path d="M412.249 270.635V216.059L318.077 216.059V270.635H412.249Z" fill="#0F121A"/>
<path d="M191.146 53.0811H72.512V175.663H191.146V53.0811Z" fill="#0F121A"/>
<path d="M195.291 53.0811H76.657V175.663H195.291V53.0811Z" fill="#0F121A"/>
<path d="M192.146 55.9868H79.648V172.815H192.146V55.9868Z" fill="#171B26"/>
<path d="M189.335 55.9858H79.646V172.812H189.335V55.9858Z" fill="#171B26"/>
<path d="M135.626 55.9868H133.399V172.815H135.626V55.9868Z" fill="#0F121A"/>
<path d="M148.407 55.9858L179.671 172.811H182.672L151.408 55.9858H148.407Z" fill="#1F2433"/>
<path d="M136.58 54.1851H134.671V175.054H136.58V54.1851Z" fill="#0F121A"/>
<path d="M159.754 55.9858L189.335 166.545V105.774L176.016 55.9858H159.754Z" fill="#1F2433"/>
<path d="M79.646 66.5859V77.8009L105.075 172.811H108.076L79.646 66.5859Z" fill="#1F2433"/>
<path d="M79.646 89.231V150.001L85.747 172.811H102.009L79.646 89.231Z" fill="#1F2433"/>
<path d="M399.546 60.0659H327.718V147.467H399.546V60.0659Z" fill="#0F121A"/>
<path d="M383.113 125.818L345.366 88.72L386.203 81.981L383.113 125.818Z" fill="#171B26"/>
<path d="M346.278 117.024L344.409 88.5747L372.828 95.5547L374.892 117.323L346.278 117.024Z" fill="#0F121A"/>
<path d="M391.565 85.1072C396.045 80.6267 396.045 73.3625 391.565 68.8821C387.084 64.4016 379.82 64.4016 375.34 68.8821C370.859 73.3625 370.859 80.6267 375.34 85.1072C379.82 89.5876 387.084 89.5876 391.565 85.1072Z" fill="#171B26"/>
<path d="M349.989 127.167C349.989 124.094 347.498 121.603 344.425 121.603C341.352 121.603 338.861 124.094 338.861 127.167C338.861 130.24 341.352 132.731 344.425 132.731C347.498 132.731 349.989 130.24 349.989 127.167Z" fill="#171B26"/>
<path d="M345.746 136.946L361.814 127.167L348.307 116.039L345.746 136.946Z" fill="#171B26"/>
<path d="M364.724 140.974H367.882V71.1831H364.724V140.974Z" fill="#171B26"/>
<path d="M334.463 137.887H338.549V71.1837H334.463V137.887Z" fill="#0F121A"/>
<path d="M371.459 138.201H392.337V117.323H371.459V138.201Z" fill="#0F121A"/>
<path d="M132.903 284.011L119.684 245.91C119.684 245.91 138.019 259.503 137.897 244.432C137.775 229.361 129.544 241.065 126.686 235.497C123.828 229.929 134.82 229.99 130.963 221.548C127.106 213.106 116.145 226.077 114.208 218.598C112.272 211.119 109.185 207.316 101.203 207.987C101.203 207.987 96.889 217.827 102.177 224.935C107.465 232.043 89.097 226.349 90.963 233.5C92.829 240.651 98.962 246.893 101.664 241.857C104.365 236.821 107.793 246.471 103.176 248.955C98.559 251.439 109.213 262.208 111.55 256.564C113.888 250.919 117.552 245.893 117.552 245.893L129.735 286.658L132.903 284.011Z" fill="#0F121A"/>
<path d="M146.527 284.347L161.43 259.981C161.43 259.981 146.689 266.616 149.051 256.207C151.413 245.798 155.339 255.139 158.158 251.719C160.977 248.299 153.362 246.679 157.306 241.421C161.25 236.162 166.875 246.793 169.345 241.911C171.815 237.029 174.525 234.863 179.947 236.534C179.947 236.534 181.446 243.994 176.712 248.114C171.979 252.233 185.549 251.068 183.177 255.734C180.805 260.4 175.618 263.792 174.51 259.9C173.401 256.007 169.572 262.166 172.391 264.583C175.211 267 166.212 272.841 165.447 268.582C164.682 264.323 162.906 260.292 162.906 260.292L148.317 286.658L146.527 284.347Z" fill="#0F121A"/>
<path d="M136.49 284.581L143.315 245.331C143.315 245.331 127.602 261.501 125.323 246.788C123.044 232.075 132.93 242.176 134.831 236.293C136.731 230.41 126.024 232.218 128.441 223.374C130.858 214.529 143.609 225.431 144.306 217.831C145.004 210.231 147.408 206.032 155.297 205.416C155.297 205.416 161.069 214.323 157.044 222.094C153.019 229.866 170.021 221.391 169.34 228.66C168.658 235.929 163.672 242.99 160.237 238.511C156.802 234.031 154.995 243.985 159.893 245.672C164.79 247.359 156.117 259.554 152.939 254.423C149.762 249.292 145.389 244.975 145.389 244.975L139.999 286.658L136.49 284.581Z" fill="#171B26"/>
<path d="M128.036 328.711H151.464C153.102 328.711 154.457 327.436 154.558 325.801L157.041 285.393C157.151 283.61 155.734 282.103 153.947 282.103H125.552C123.765 282.103 122.348 283.61 122.458 285.393L124.941 325.801C125.042 327.437 126.398 328.711 128.036 328.711Z" fill="#0F121A"/>
<path d="M122.753 286.657H157.038C158.612 286.657 159.937 285.477 160.117 283.913C160.33 282.072 158.891 280.458 157.038 280.458H122.753C120.9 280.458 119.461 282.073 119.674 283.913C119.854 285.477 121.178 286.657 122.753 286.657Z" fill="#171B26"/>
<path d="M250 373C357.082 373 443.889 367.931 443.889 361.677C443.889 355.423 357.082 350.354 250 350.354C142.918 350.354 56.111 355.423 56.111 361.677C56.111 367.931 142.918 373 250 373Z" fill="#171B26"/>
<path d="M356.331 65.072V346.539C356.331 349.01 354.345 350.93 351.873 350.93H200.627C198.355 350.93 196.644 349.172 196.644 346.9V64.71C196.644 62.743 198.089 61.022 200.056 61.022H235.967C237.088 61.022 238.106 61.754 238.524 62.809L240.168 66.858C240.586 67.904 241.603 68.626 242.725 68.626H310.335C311.457 68.626 312.474 67.932 312.892 66.887L314.536 62.819C314.954 61.764 315.971 61.023 317.093 61.023H352.433C354.601 61.023 356.331 62.905 356.331 65.072Z" fill="#171B26"/>
<path d="M356.332 79.7949H196.645V330.969H356.332V79.7949Z" fill="#004FFF"/>
<path opacity="0.7" d="M356.332 79.7949H196.645V330.969H356.332V79.7949Z" fill="#1F2433"/>
<path opacity="0.6" d="M215.512 73.1328H217.578V70.3778H215.512V73.1328Z" fill="#8C99BA"/>
<path opacity="0.6" d="M212.145 73.1318H214.211V69.4578H212.145V73.1318Z" fill="#8C99BA"/>
<path opacity="0.6" d="M208.777 73.1318H210.843V68.5388H208.777V73.1318Z" fill="#8C99BA"/>
<path opacity="0.6" d="M205.41 73.1318H207.476V67.6198H205.41V73.1318Z" fill="#8C99BA"/>
<path opacity="0.6" d="M337.83 69.3721H336.605V72.1271H337.83V69.3721Z" fill="#8C99BA"/>
<path opacity="0.6" d="M338.672 73.1323H348.43V68.3673H338.672V73.1323Z" fill="#8C99BA"/>
<path d="M253.788 113.588C253.788 117.846 252.686 121.839 250.746 125.308C250.603 125.565 250.461 125.812 250.309 126.059C248.874 128.435 247.049 130.536 244.901 132.275C244.863 132.313 244.825 132.341 244.777 132.38C242.762 134.005 240.471 135.308 238 136.22C237.981 136.22 237.971 136.229 237.962 136.229C235.377 137.18 232.592 137.693 229.683 137.693C228.771 137.693 227.877 137.645 226.993 137.541C225.472 137.379 223.999 137.066 222.573 136.628C219.028 135.535 215.824 133.643 213.191 131.153C213.181 131.153 213.172 131.144 213.163 131.134C208.496 126.743 205.578 120.507 205.578 113.588C205.578 100.271 216.367 89.4829 229.683 89.4829C242.991 89.4829 253.788 100.271 253.788 113.588Z" fill="#000614"/>
<path d="M250.747 125.308C250.604 125.565 250.462 125.812 250.31 126.059C244.712 125.869 238.942 126.753 233.942 127.913C233.334 128.056 232.725 128.208 232.145 128.35C231.736 128.455 231.328 128.569 230.929 128.673C229.398 129.082 227.973 129.509 226.68 129.918C226.48 129.985 226.29 130.042 226.11 130.108C225.967 130.146 225.834 130.193 225.701 130.241H225.692C224.2 130.735 222.935 131.192 221.957 131.562C220.512 132.104 219.685 132.465 219.685 132.465C219.685 132.465 219.143 131.809 218.383 130.545C218.364 130.507 218.345 130.479 218.317 130.441C218.317 130.441 218.317 130.441 218.317 130.431C216.15 126.79 212.348 118.397 214.125 106.468C216.112 93.1227 227.195 93.9687 231.13 94.7097C231.995 94.8617 232.518 95.0237 232.518 95.0237C232.518 95.0237 244.913 97.9517 245.369 105.67C245.426 106.63 245.559 107.666 245.749 108.75C246.831 115.061 249.777 122.856 250.747 125.308Z" fill="#171B26"/>
<path d="M238.001 136.22C237.982 136.22 237.972 136.229 237.963 136.229C235.378 137.18 232.593 137.693 229.684 137.693C228.772 137.693 227.878 137.645 226.994 137.541C225.473 137.379 224 137.066 222.574 136.628L221.804 130.336L221.433 127.323L237.925 129.661L237.944 131.068L237.992 135.212V135.516L238.001 136.22Z" fill="#004FFF"/>
<path d="M244.778 132.38C242.763 134.005 240.472 135.308 238.001 136.22C237.982 136.22 237.972 136.229 237.963 136.229C235.378 137.18 232.593 137.693 229.684 137.693C228.772 137.693 227.878 137.645 226.994 137.541C225.473 137.379 224 137.066 222.574 136.628C219.029 135.535 215.825 133.643 213.192 131.153C213.182 131.153 213.173 131.144 213.164 131.134C213.924 131.02 214.694 130.925 215.464 130.83L215.654 130.811C216.557 130.707 217.469 130.621 218.382 130.545C219.456 130.459 220.53 130.393 221.614 130.345C221.681 130.345 221.737 130.335 221.804 130.335C222.232 130.316 222.678 130.307 223.116 130.287C223.648 130.268 224.171 130.259 224.694 130.249C225.017 130.239 225.359 130.239 225.692 130.239H226.528C228.562 130.249 230.587 130.315 232.611 130.458C233.305 130.506 233.999 130.563 234.683 130.629C235.044 130.667 235.405 130.696 235.766 130.734C236.289 130.81 236.821 130.886 237.353 130.981C237.467 130.991 237.581 131.01 237.695 131.029L237.942 131.067H237.961C238.589 131.172 239.206 131.286 239.815 131.39C240.11 131.438 240.395 131.504 240.69 131.552C240.87 131.59 241.051 131.618 241.241 131.657C241.431 131.695 241.64 131.733 241.831 131.771C242.173 131.837 242.487 131.904 242.81 131.971C243.048 132.019 243.285 132.066 243.513 132.114C243.96 132.209 244.388 132.304 244.778 132.38Z" fill="#171B26"/>
<path d="M233.778 136.473C226.907 135.301 224.952 132.26 224.952 132.26C227.886 129.718 227.536 125.769 226.916 123.289C226.581 121.917 226.158 120.994 226.158 120.994L234.409 122.894C234.135 124.258 233.991 125.41 233.942 126.383C233.88 127.451 233.941 128.298 234.07 128.965C234.532 131.474 235.947 131.567 235.947 131.567C237.295 134.356 233.778 136.473 233.778 136.473Z" fill="#FFADAD"/>
<path opacity="0.2" d="M233.943 126.383C233.881 127.451 233.942 128.298 234.071 128.965C230.787 128.394 228.394 125.649 226.916 123.29C226.581 121.918 226.158 120.995 226.158 120.995L234.409 122.895C234.135 124.258 233.992 125.41 233.943 126.383Z" fill="#0F121A"/>
<path d="M232.823 99.2614C240.632 99.5964 242.966 103.885 243.192 111.957C243.475 122.044 240.939 129.093 231.267 126.526C218.133 123.039 219.855 98.7044 232.823 99.2614Z" fill="#FFADAD"/>
<path d="M238.163 111.303C238.163 111.303 239.158 113.389 240.296 114.639C240.296 114.639 239.582 115.672 238.2 115.434L238.163 111.303Z" fill="#FF7070"/>
<path fill-rule="evenodd" clip-rule="evenodd" d="M233.564 105.063C233.626 104.706 233.626 104.706 233.626 104.706L233.564 105.063Z" fill="#171B26"/>
<path fill-rule="evenodd" clip-rule="evenodd" d="M239.365 105.322C239.364 105.322 239.363 105.322 239.363 105.323L239.363 105.323C239.363 105.323 239.363 105.323 239.363 105.323C239.363 105.323 239.363 105.323 239.363 105.323L239.364 105.322L239.364 105.322L239.365 105.322ZM239.368 105.321L239.363 105.323C239.173 105.382 238.97 105.278 238.909 105.088C238.848 104.898 238.952 104.693 239.143 104.632L239.254 104.977C239.143 104.632 239.143 104.632 239.143 104.632L239.144 104.632L239.145 104.631L239.147 104.631L239.153 104.629L239.172 104.623C239.187 104.619 239.208 104.614 239.233 104.608C239.285 104.595 239.356 104.58 239.447 104.567C239.627 104.541 239.881 104.521 240.191 104.543C240.814 104.589 241.651 104.804 242.552 105.46C242.714 105.578 242.75 105.805 242.632 105.966C242.514 106.128 242.287 106.164 242.126 106.046C241.343 105.475 240.638 105.302 240.139 105.266C239.888 105.248 239.687 105.264 239.552 105.284C239.484 105.294 239.434 105.305 239.402 105.312C239.386 105.316 239.375 105.319 239.368 105.321Z" fill="#171B26"/>
<path d="M223.724 112.056C223.724 112.056 227.65 105.797 227.31 100.82C227.31 100.82 243.056 95.163 243.145 110.902C243.145 110.902 245.256 97.02 231.845 96.133C218.456 95.247 217.649 114.887 224.33 121.036C224.33 121.036 221.293 115.971 223.724 112.056Z" fill="#171B26"/>
<path d="M224.929 113.759C224.931 112.499 223.725 110.316 221.376 110.471C218.945 110.631 217.578 115.549 223.546 117.002C224.402 117.21 224.925 116.387 224.929 113.759Z" fill="#FFADAD"/>
<path d="M238.354 117.736C237.726 118.572 236.929 120.22 236.929 120.22C236.766 120.175 236.604 120.129 236.445 120.075C234.259 119.404 233.467 118.371 233.251 117.428C233.135 116.912 233.198 116.419 233.3 116.033C233.413 115.585 233.596 115.291 233.596 115.291C234.542 116.339 236.532 117.122 237.612 117.495C238.063 117.657 238.354 117.736 238.354 117.736Z" fill="#171B26"/>
<path d="M237.613 117.495L237.174 118.216C235.117 117.579 233.754 116.854 233.301 116.032C233.414 115.584 233.597 115.29 233.597 115.29C234.543 116.34 236.532 117.122 237.613 117.495Z" fill="#F2F4F7"/>
<path d="M236.445 120.075C234.259 119.404 233.467 118.371 233.251 117.428C233.987 117.685 234.846 118.077 235.531 118.654C236.055 119.093 236.314 119.601 236.445 120.075Z" fill="#FF7070"/>
<path d="M232.636 99.8431C232.636 99.8431 228.938 112.557 220.855 112.045C212.772 111.533 225.955 95.8001 225.955 95.8001C225.955 95.8001 239.372 91.3851 245.585 98.6761C251.798 105.967 243.145 110.901 243.145 110.901C243.145 110.901 244.07 100.972 232.636 99.8431Z" fill="#171B26"/>
<path fill-rule="evenodd" clip-rule="evenodd" d="M232.581 98.6778C232.718 98.6688 232.837 98.7731 232.846 98.9109L232.597 98.9273C232.846 98.9109 232.846 98.911 232.846 98.9112L232.847 98.9117L232.847 98.9132L232.847 98.9188L232.848 98.9393C232.849 98.9571 232.85 98.9831 232.852 99.0168C232.854 99.0843 232.858 99.1827 232.859 99.3084C232.862 99.5598 232.859 99.9207 232.835 100.362C232.786 101.244 232.653 102.451 232.311 103.748C231.629 106.339 230.107 109.33 226.741 110.775C226.614 110.829 226.467 110.771 226.412 110.644C226.358 110.517 226.417 110.37 226.543 110.316C229.71 108.956 231.165 106.138 231.828 103.621C232.158 102.365 232.288 101.193 232.336 100.335C232.359 99.9057 232.362 99.5561 232.359 99.3145C232.358 99.1938 232.355 99.1001 232.352 99.037C232.351 99.0055 232.35 98.9817 232.349 98.9659L232.348 98.9485L232.348 98.9445L232.348 98.9436L232.348 98.9436L232.348 98.9435C232.339 98.8058 232.443 98.6868 232.581 98.6778Z" fill="#171B26"/>
<path d="M233.558 110.856C233.63 111.46 233.362 111.988 232.959 112.036C232.556 112.084 232.172 111.633 232.1 111.029C232.028 110.425 232.296 109.897 232.699 109.849C233.102 109.802 233.486 110.252 233.558 110.856Z" fill="#171B26"/>
<path d="M232.535 109.899L233.787 109.228C233.787 109.228 233.264 110.41 232.535 109.899Z" fill="#171B26"/>
<path d="M241.051 109.838C241.123 110.442 240.855 110.97 240.452 111.018C240.049 111.066 239.665 110.615 239.593 110.011C239.521 109.407 239.789 108.879 240.192 108.831C240.594 108.783 240.979 109.234 241.051 109.838Z" fill="#171B26"/>
<path d="M240.027 108.88L241.279 108.209C241.279 108.209 240.757 109.392 240.027 108.88Z" fill="#171B26"/>
<path d="M244.901 132.275C244.863 132.313 244.825 132.341 244.777 132.38C242.762 134.005 240.471 135.308 238 136.22C237.981 136.22 237.971 136.229 237.962 136.229L237.991 135.516L238 135.24L237.991 135.211L236.679 132.559L237.354 130.981L237.924 129.66L238.504 130.915L244.901 132.275Z" fill="#004FFF"/>
<path opacity="0.6" d="M244.901 132.275C244.863 132.313 244.825 132.341 244.777 132.38C242.762 134.005 240.471 135.308 238 136.22C237.981 136.22 237.971 136.229 237.962 136.229L237.991 135.516L238 135.24L237.991 135.211L236.679 132.559L237.354 130.981L237.924 129.66L238.504 130.915L244.901 132.275Z" fill="#F2F4F7"/>
<path d="M229.874 132.351L227.136 135.782L226.993 137.54C225.472 137.378 223.999 137.065 222.573 136.627C219.028 135.534 215.824 133.642 213.191 131.152L215.463 130.829L215.653 130.81L220.463 130.126L221.432 127.322L226.327 130.24L229.863 132.35H229.874V132.351Z" fill="#004FFF"/>
<path opacity="0.6" d="M229.864 132.351L227.136 135.782L226.993 137.54C225.472 137.378 223.999 137.065 222.573 136.627C219.028 135.534 215.824 133.642 213.191 131.152L215.653 130.81L220.463 130.135V130.126L221.432 127.322L226.327 130.24L229.864 132.351Z" fill="#F2F4F7"/>
<path d="M254.478 133.967C254.478 137.054 251.975 139.557 248.888 139.557C245.801 139.557 243.298 137.054 243.298 133.967C243.298 130.88 245.801 128.377 248.888 128.377C251.975 128.377 254.478 130.88 254.478 133.967Z" fill="#004FFF"/>
<path fill-rule="evenodd" clip-rule="evenodd" d="M252.159 132.088L248.671 136.879L245.69 134.253L246.351 133.503L248.509 135.403L251.351 131.5L252.159 132.088Z" fill="#EBF1FF"/>
<path d="M268.592 104.736H321.145C321.764 104.736 322.266 104.234 322.266 103.615C322.266 102.996 321.764 102.494 321.145 102.494H268.592C267.973 102.494 267.471 102.996 267.471 103.615C267.47 104.234 267.973 104.736 268.592 104.736Z" fill="#85ABFF"/>
<path d="M333.096 108.906H268.298C267.841 108.906 267.471 109.276 267.471 109.733C267.471 110.19 267.841 110.56 268.298 110.56H333.096C333.553 110.56 333.923 110.19 333.923 109.733C333.923 109.276 333.552 108.906 333.096 108.906Z" fill="#85ABFF"/>
<path d="M314.085 113.637H268.297C267.84 113.637 267.47 114.007 267.47 114.464C267.47 114.921 267.84 115.291 268.297 115.291H314.085C314.542 115.291 314.912 114.921 314.912 114.464C314.913 114.007 314.542 113.637 314.085 113.637Z" fill="#85ABFF"/>
<path d="M354.425 144.235H198.549V300.111H354.425V144.235Z" fill="#004FFF"/>
<path d="M349.413 316.98L345.017 313.191L340.62 316.98V306.555H349.413V316.98Z" fill="#004FFF"/>
<path d="M333.552 306.555H326.934C326.028 306.555 325.293 307.29 325.293 308.196V312.722C325.293 313.628 326.028 314.363 326.934 314.363H329.182V316.98L330.889 314.363H333.552C334.458 314.363 335.193 313.628 335.193 312.722V308.196C335.193 307.29 334.458 306.555 333.552 306.555Z" fill="#004FFF"/>
<path d="M320.284 307.802C319.063 305.793 316.703 306.549 315.478 308.097C314.27 306.535 311.92 305.752 310.676 307.747C308.578 311.11 312.843 314.261 314.859 315.497C315.087 315.639 315.276 315.756 315.434 315.848C315.593 315.758 315.783 315.643 316.013 315.504C318.042 314.291 322.342 311.189 320.284 307.802Z" fill="#004FFF"/>
<g opacity="0.3">
<path opacity="0.7" d="M322.604 157.362H328.499L325.552 165.01L322.604 157.362Z" fill="#1F2433"/>
<path opacity="0.7" d="M341.614 195.436L343.398 201.054L335.217 200.561L341.614 195.436Z" fill="#1F2433"/>
<path d="M339.307 170.778L336.506 177.649L345.017 180.614V175.054L339.307 170.778Z" fill="#1F2433"/>
<path d="M228.971 155.516H233.303L228.971 161.186V155.516Z" fill="#1F2433"/>
<path d="M212.69 183.472L217.595 182.351L218.956 186.562L213.309 188.526L212.69 183.472Z" fill="#1F2433"/>
<path d="M262.275 161.186C263.331 161.186 264.187 160.33 264.187 159.274C264.187 158.218 263.331 157.362 262.275 157.362C261.219 157.362 260.363 158.218 260.363 159.274C260.363 160.33 261.219 161.186 262.275 161.186Z" fill="#1F2433"/>
<path d="M234.445 287.346C234.445 289.438 232.749 291.134 230.657 291.134C228.565 291.134 226.869 289.438 226.869 287.346C226.869 285.254 228.565 283.558 230.657 283.558C232.749 283.557 234.445 285.254 234.445 287.346Z" fill="#1F2433"/>
<path d="M216.187 254.417L217.595 256.79L210.819 259.691L209.276 258.109L216.187 254.417Z" fill="#1F2433"/>
<path d="M260.363 293.222L259.044 289.868H264.187L260.363 293.222Z" fill="#1F2433"/>
<path d="M315.072 289.868L315.469 286.139L322.527 288.004V293.45L315.072 289.868Z" fill="#1F2433"/>
<path d="M330.243 270.635H336.548L333.396 274.37L330.243 270.635Z" fill="#1F2433"/>
<path d="M340.62 232.263L339.307 240.175L340.761 241.494L342.121 232.263H340.62Z" fill="#1F2433"/>
<path d="M205.229 209.054L210.819 213.119L206.824 216.06L205.229 209.054Z" fill="#1F2433"/>
<path d="M230.031 176.915C230.377 176.915 230.657 176.634 230.657 176.289C230.657 175.943 230.377 175.663 230.031 175.663C229.685 175.663 229.405 175.943 229.405 176.289C229.405 176.634 229.685 176.915 230.031 176.915Z" fill="#1F2433"/>
<path d="M310.991 169.412C311.478 169.412 311.873 169.017 311.873 168.53C311.873 168.043 311.478 167.648 310.991 167.648C310.504 167.648 310.109 168.043 310.109 168.53C310.109 169.017 310.504 169.412 310.991 169.412Z" fill="#1F2433"/>
<path d="M287.374 289.153C287.374 289.548 287.054 289.868 286.659 289.868C286.264 289.868 285.945 289.548 285.945 289.153C285.945 288.758 286.265 288.439 286.659 288.439C287.054 288.439 287.374 288.759 287.374 289.153Z" fill="#1F2433"/>
<path d="M295.703 152.087L302.74 151.032V154.461L295.703 155.516V152.087Z" fill="#1F2433"/>
<path d="M342.121 155.516H344.425L343.273 158.351L342.121 155.516Z" fill="#1F2433"/>
<path d="M209.276 159.274H212.69L210.983 161.186L209.276 159.274Z" fill="#1F2433"/>
<path d="M338.549 293.222L338.223 286.657L343.273 288.439L338.549 293.222Z" fill="#1F2433"/>
<path d="M343.398 255.472L340.761 253.362V255.472L343.398 257.054V255.472Z" fill="#1F2433"/>
<path d="M208.024 234.373L210.983 236.879L209.504 239.12L205.578 235.976L208.024 234.373Z" fill="#1F2433"/>
<path d="M205.578 175.663H209.276L205.229 176.915L205.578 175.663Z" fill="#1F2433"/>
</g>
<path d="M270.069 169.666L276.755 163.378L283.381 169.73L291.422 165.303L296.26 173.103L305.149 170.815L307.895 179.573L317.073 179.567L317.555 188.733L326.447 191.01L324.634 200.007L332.68 204.424L328.687 212.688L335.382 218.967L329.459 225.979L334.382 233.725L326.901 239.044L329.743 247.771L321.174 251.062L321.757 260.222L312.639 261.278L310.925 270.296L301.831 269.051L297.928 277.359L289.43 273.892L283.584 280.968L276.214 275.497L268.792 280.897L263.014 273.765L254.482 277.149L250.66 268.804L241.555 269.961L239.928 260.927L230.821 259.783L231.492 250.629L222.955 247.255L225.882 238.556L218.452 233.165L223.45 225.467L217.595 218.398L224.35 212.184L220.437 203.882L228.525 199.543L226.799 190.528L235.713 188.337L236.283 179.177L245.461 179.271L248.292 170.54L257.158 172.914L262.071 165.161L270.069 169.666Z" fill="#004FFF"/>
<path opacity="0.4" d="M330.459 227.979L336.382 220.967L329.687 214.688L333.681 206.424L325.635 202.007L327.448 193.009L318.556 190.732L318.074 181.566L308.895 181.572L306.149 172.814L297.26 175.102L292.422 167.302L284.381 171.729L277.755 165.377L271.068 171.665L263.071 167.16L258.158 174.913L249.292 172.539L246.461 181.27L237.283 181.175L236.713 190.336L227.8 192.527L229.526 201.542L221.437 205.881L225.35 214.183L218.595 220.397L224.45 227.465L219.452 235.164L226.881 240.554L223.955 249.254L232.491 252.627L231.82 261.781L240.927 262.925L242.554 271.958L251.659 270.802L255.481 279.147L264.013 275.762L269.79 282.894L277.212 277.494L284.582 282.965L290.428 275.889L298.927 279.356L302.83 271.048L311.924 272.292L313.638 263.275L322.756 262.219L322.174 253.059L330.742 249.768L327.9 241.041L335.381 235.723L330.459 227.979ZM328.616 234.401L322.009 239.097L324.519 246.805L316.952 249.71L317.466 257.801L309.413 258.734L307.899 266.698L299.868 265.599L296.421 272.936L288.915 269.874L283.752 276.123L277.243 271.291L270.688 276.061L265.585 269.761L258.05 272.75L254.674 265.381L246.633 266.402L245.196 258.424L237.153 257.413L237.746 249.328L230.206 246.35L232.791 238.665L226.23 233.905L230.644 227.106L225.473 220.863L231.439 215.376L227.983 208.043L235.126 204.211L233.602 196.25L241.474 194.315L241.977 186.224L250.082 186.308L252.582 178.597L260.413 180.694L264.752 173.847L271.815 177.826L277.721 172.273L283.573 177.882L290.673 173.972L294.946 180.861L302.797 178.84L305.222 186.575L313.328 186.57L313.753 194.666L321.606 196.676L320.005 204.623L327.111 208.523L323.584 215.821L329.497 221.367L324.266 227.558L328.616 234.401Z" fill="#F2F4F7"/>
<path opacity="0.4" d="M270.069 169.666L276.755 163.378L283.381 169.73L291.422 165.303L296.26 173.103L305.149 170.815L307.895 179.573L317.073 179.567L317.555 188.733L326.447 191.01L324.634 200.007L332.68 204.424L328.687 212.688L335.382 218.967L329.459 225.979L334.382 233.725L326.901 239.044L329.743 247.771L321.174 251.062L321.757 260.222L312.639 261.278L310.925 270.296L301.831 269.051L297.928 277.359L289.43 273.892L283.584 280.968L276.214 275.497L268.792 280.897L263.014 273.765L254.482 277.149L250.66 268.804L241.555 269.961L239.928 260.927L230.821 259.783L231.492 250.629L222.955 247.255L225.882 238.556L218.452 233.165L223.45 225.467L217.595 218.398L224.35 212.184L220.437 203.882L228.525 199.543L226.799 190.528L235.713 188.337L236.283 179.177L245.461 179.271L248.292 170.54L257.158 172.914L262.071 165.161L270.069 169.666Z" fill="#F2F4F7"/>
<path d="M329.459 225.979L335.382 218.967L328.687 212.688L332.681 204.424L324.635 200.007L326.448 191.009L317.556 188.732L317.074 179.566L307.895 179.572L305.149 170.814L296.26 173.102L291.422 165.302L283.381 169.729L276.755 163.377L270.068 169.665L262.071 165.16L257.158 172.913L248.292 170.539L245.461 179.27L236.283 179.175L235.713 188.336L226.8 190.527L228.526 199.542L220.437 203.881L224.35 212.183L217.595 218.397L223.45 225.465L218.452 233.164L225.881 238.554L222.955 247.254L231.491 250.627L230.82 259.781L239.927 260.925L241.554 269.958L250.659 268.802L254.481 277.147L263.013 273.762L268.79 280.894L276.212 275.494L283.582 280.965L289.428 273.889L297.927 277.356L301.83 269.048L310.924 270.292L312.638 261.275L321.756 260.219L321.174 251.059L329.742 247.768L326.9 239.041L334.381 233.723L329.459 225.979ZM327.616 232.401L321.009 237.097L323.519 244.805L315.952 247.71L316.466 255.801L308.413 256.734L306.899 264.698L298.868 263.599L295.421 270.936L287.915 267.874L282.752 274.123L276.243 269.291L269.688 274.061L264.585 267.761L257.05 270.75L253.674 263.381L245.633 264.402L244.196 256.424L236.153 255.413L236.746 247.328L229.206 244.35L231.791 236.665L225.23 231.905L229.644 225.106L224.473 218.863L230.439 213.376L226.983 206.043L234.126 202.211L232.602 194.25L240.474 192.315L240.977 184.224L249.082 184.308L251.582 176.597L259.413 178.694L263.752 171.847L270.815 175.826L276.721 170.273L282.573 175.882L289.673 171.972L293.946 178.861L301.797 176.84L304.222 184.575L312.328 184.57L312.753 192.666L320.606 194.676L319.005 202.623L326.111 206.523L322.584 213.821L328.497 219.367L323.266 225.558L327.616 232.401Z" fill="#004FFF"/>
<path opacity="0.6" d="M329.459 225.979L335.382 218.967L328.687 212.688L332.681 204.424L324.635 200.007L326.448 191.009L317.556 188.732L317.074 179.566L307.895 179.572L305.149 170.814L296.26 173.102L291.422 165.302L283.381 169.729L276.755 163.377L270.068 169.665L262.071 165.16L257.158 172.913L248.292 170.539L245.461 179.27L236.283 179.175L235.713 188.336L226.8 190.527L228.526 199.542L220.437 203.881L224.35 212.183L217.595 218.397L223.45 225.465L218.452 233.164L225.881 238.554L222.955 247.254L231.491 250.627L230.82 259.781L239.927 260.925L241.554 269.958L250.659 268.802L254.481 277.147L263.013 273.762L268.79 280.894L276.212 275.494L283.582 280.965L289.428 273.889L297.927 277.356L301.83 269.048L310.924 270.292L312.638 261.275L321.756 260.219L321.174 251.059L329.742 247.768L326.9 239.041L334.381 233.723L329.459 225.979ZM327.616 232.401L321.009 237.097L323.519 244.805L315.952 247.71L316.466 255.801L308.413 256.734L306.899 264.698L298.868 263.599L295.421 270.936L287.915 267.874L282.752 274.123L276.243 269.291L269.688 274.061L264.585 267.761L257.05 270.75L253.674 263.381L245.633 264.402L244.196 256.424L236.153 255.413L236.746 247.328L229.206 244.35L231.791 236.665L225.23 231.905L229.644 225.106L224.473 218.863L230.439 213.376L226.983 206.043L234.126 202.211L232.602 194.25L240.474 192.315L240.977 184.224L249.082 184.308L251.582 176.597L259.413 178.694L263.752 171.847L270.815 175.826L276.721 170.273L282.573 175.882L289.673 171.972L293.946 178.861L301.797 176.84L304.222 184.575L312.328 184.57L312.753 192.666L320.606 194.676L319.005 202.623L326.111 206.523L322.584 213.821L328.497 219.367L323.266 225.558L327.616 232.401Z" fill="#F2F4F7"/>
<path opacity="0.4" d="M247.103 219.245C247.103 219.245 252.204 218.365 254.709 219.245C257.214 220.125 267.835 238.281 267.835 238.281C267.835 238.281 288.444 209.943 304.913 197.553C304.913 197.553 283.537 216.69 271.147 248.816C271.147 248.816 266.976 250.662 264.032 247.366C263.179 246.411 253.605 230.062 251.764 229.448C250.308 228.963 245.63 229.203 245.63 229.203L247.103 219.245Z" fill="#F2F4F7"/>
<path d="M246.103 218.245C246.103 218.245 251.204 217.365 253.709 218.245C256.214 219.125 266.835 237.281 266.835 237.281C266.835 237.281 287.444 208.943 303.913 196.553C303.913 196.553 282.537 215.69 270.147 247.816C270.147 247.816 265.976 249.662 263.032 246.366C262.179 245.411 252.605 229.062 250.764 228.448C249.308 227.963 244.63 228.203 244.63 228.203L246.103 218.245Z" fill="#85ABFF"/>
<path d="M388.077 333.991C388.077 333.991 382.251 321.28 388.908 308.749C395.565 296.218 397.494 293.267 393.25 290.7C389.007 288.133 387.06 300.724 387.06 300.724C387.06 300.724 383.483 292.062 386.437 282.996C389.39 273.931 391.242 259.165 387.209 257.581C383.176 255.997 386.439 276.001 382.939 282.819C382.939 282.819 380 275.228 379.516 267.947C379.032 260.666 379.788 249.039 376.603 246.056C373.418 243.074 371.378 245.137 374.508 261.206C377.638 277.275 377.615 290.337 377.615 290.337C377.615 290.337 370.702 269.259 366.062 268.644C361.422 268.029 361.428 274.855 365.4 280.776C369.372 286.697 377.031 297.303 378.287 302.761C378.287 302.761 370.699 286.899 363.873 291.76C357.047 296.621 369.814 306.203 375.505 309.665C381.195 313.127 385.147 334.829 385.147 334.829L388.077 333.991Z" fill="#004FFF"/>
<path opacity="0.2" d="M388.077 333.991C388.077 333.991 382.251 321.28 388.908 308.749C395.565 296.218 397.494 293.267 393.25 290.7C389.007 288.133 387.06 300.724 387.06 300.724C387.06 300.724 383.483 292.062 386.437 282.996C389.39 273.931 391.242 259.165 387.209 257.581C383.176 255.997 386.439 276.001 382.939 282.819C382.939 282.819 380 275.228 379.516 267.947C379.032 260.666 379.788 249.039 376.603 246.056C373.418 243.074 371.378 245.137 374.508 261.206C377.638 277.275 377.615 290.337 377.615 290.337C377.615 290.337 370.702 269.259 366.062 268.644C361.422 268.029 361.428 274.855 365.4 280.776C369.372 286.697 377.031 297.303 378.287 302.761C378.287 302.761 370.699 286.899 363.873 291.76C357.047 296.621 369.814 306.203 375.505 309.665C381.195 313.127 385.147 334.829 385.147 334.829L388.077 333.991Z" fill="#0F121A"/>
<path d="M383.478 339.204C383.478 339.204 389.151 326.407 382.345 313.977C375.539 301.547 373.574 298.624 377.786 295.994C381.998 293.364 384.096 305.925 384.096 305.925C384.096 305.925 387.569 297.21 384.507 288.19C381.445 279.169 379.416 264.433 383.43 262.789C387.444 261.145 384.421 281.196 388.002 287.961C388.002 287.961 390.85 280.327 391.246 273.039C391.642 265.751 390.747 254.137 393.896 251.107C397.045 248.077 399.11 250.11 396.173 266.224C393.236 282.338 393.416 295.398 393.416 295.398C393.416 295.398 400.076 274.218 404.708 273.535C409.34 272.851 409.416 279.677 405.516 285.656C401.616 291.635 394.085 302.355 392.894 307.831C392.894 307.831 400.291 291.857 407.175 296.616C414.059 301.375 401.408 311.146 395.759 314.693C390.111 318.239 386.42 339.998 386.42 339.998L383.478 339.204Z" fill="#004FFF"/>
<path d="M409.642 330.082H362.779L366.572 363.618H405.85L409.642 330.082Z" fill="#171B26"/>
<path d="M99.155 340.876L127.968 338.044V302.552H139.387V338.033L168.316 340.876C171.188 341.158 173.377 343.573 173.377 346.459V350.786H134.794H132.677H94.093V346.459C94.093 343.573 96.283 341.158 99.155 340.876Z" fill="#171B26"/>
<path opacity="0.1" d="M99.155 340.876L127.968 338.044V302.552H139.387V338.033L168.316 340.876C171.188 341.158 173.377 343.573 173.377 346.459V350.786H134.794H132.677H94.093V346.459C94.093 343.573 96.283 341.158 99.155 340.876Z" fill="#1F2433"/>
<path d="M171.533 363.524C175.603 362.864 178.367 359.029 177.706 354.959C177.046 350.888 173.211 348.124 169.141 348.785C165.07 349.445 162.306 353.28 162.967 357.351C163.627 361.421 167.463 364.185 171.533 363.524Z" fill="#171B26"/>
<path d="M104.519 357.354C105.18 353.284 102.416 349.449 98.3458 348.788C94.2756 348.128 90.4406 350.892 89.78 354.962C89.1195 359.032 91.8835 362.867 95.9537 363.528C100.024 364.188 103.859 361.424 104.519 357.354Z" fill="#171B26"/>
<path d="M130.134 311.255H137.22C139.503 311.255 141.353 309.405 141.353 307.122V275.189H126.001V307.122C126.001 309.405 127.851 311.255 130.134 311.255Z" fill="#171B26"/>
<path opacity="0.2" d="M130.134 311.255H137.22C139.503 311.255 141.353 309.405 141.353 307.122V275.189H126.001V307.122C126.001 309.405 127.851 311.255 130.134 311.255Z" fill="#1F2433"/>
<path d="M93.798 212.582C93.798 212.582 102.354 265.993 119.235 275.189H102.072C102.072 275.189 85.118 256.993 79.953 212.582H93.798Z" fill="#171B26"/>
<path opacity="0.1" d="M93.798 212.582C93.798 212.582 102.354 265.993 119.235 275.189H102.072C102.072 275.189 85.118 256.993 79.953 212.582H93.798Z" fill="#1F2433"/>
<path d="M168.146 267.638H101.225C98.464 267.638 96.225 269.877 96.225 272.638V279.327H173.146V272.638C173.146 269.876 170.908 267.638 168.146 267.638Z" fill="#004FFF"/>
<path d="M174.341 273.482H95.03C93.919 273.482 93.019 274.383 93.019 275.493V277.315C93.019 278.426 93.92 279.326 95.03 279.326H174.341C175.452 279.326 176.352 278.425 176.352 277.315V275.493C176.352 274.383 175.452 273.482 174.341 273.482Z" fill="#171B26"/>
<path opacity="0.6" d="M174.341 273.482H95.03C93.919 273.482 93.019 274.383 93.019 275.493V277.315C93.019 278.426 93.92 279.326 95.03 279.326H174.341C175.452 279.326 176.352 278.425 176.352 277.315V275.493C176.352 274.383 175.452 273.482 174.341 273.482Z" fill="#1F2433"/>
<path d="M77.924 223.435H105.419C113.474 223.435 118.705 216.976 117.105 209.009L114.968 198.374C113.367 190.407 105.54 183.948 97.486 183.948H69.991C61.936 183.948 56.705 190.407 58.305 198.374L60.442 209.009C62.043 216.976 69.87 223.435 77.924 223.435Z" fill="#004FFF"/>
<path d="M103.814 170.778H121.332L122.941 181.23L107.356 183.948L103.814 170.778Z" fill="#004FFF"/>
<path d="M220.151 315.946L213.864 318.406L209.339 309.883L205.229 302.129L212.2 297.952L216.41 307.468L220.151 315.946Z" fill="#FFADAD"/>
<path opacity="0.2" d="M216.41 307.468L209.339 309.883L205.229 302.129L212.2 297.952L216.41 307.468Z" fill="#0F121A"/>
<path d="M215.105 302.82L206.548 307.412C206.548 307.412 174.223 250.572 169.25 251.044C164.278 251.516 117.12 281.573 102.738 270.473C88.358 259.383 102.351 225.956 102.351 225.956C102.351 225.956 130.45 215.276 133.676 221.814C134.303 223.078 136.796 227.789 137.458 229.965C138.092 232.014 138.572 233.741 138.572 233.741C138.572 233.741 138.582 233.74 138.59 233.728C139.497 233.362 168.88 221.313 181.999 227.771C195.325 234.341 215.105 302.82 215.105 302.82Z" fill="#004FFF"/>
<path opacity="0.3" d="M215.105 302.82L206.548 307.412C206.548 307.412 174.223 250.572 169.25 251.044C164.278 251.516 117.12 281.573 102.738 270.473C88.358 259.383 102.351 225.956 102.351 225.956C102.351 225.956 130.45 215.276 133.676 221.814C134.303 223.078 136.796 227.789 137.458 229.965C138.092 232.014 138.572 233.741 138.572 233.741C138.572 233.741 138.582 233.74 138.59 233.728C139.497 233.362 168.88 221.313 181.999 227.771C195.325 234.341 215.105 302.82 215.105 302.82Z" fill="#1F2433"/>
<path d="M168.629 349.171L161.922 348.402L161.891 338.936L161.876 330.253L169.986 329.87L169.272 340.089L168.629 349.171Z" fill="#FFADAD"/>
<path opacity="0.2" d="M169.248 340.296L161.87 339.12L161.866 330.345L169.981 329.916L169.248 340.296Z" fill="#0F121A"/>
<path d="M202.366 304.588L214.886 298.318L216.187 303.622L206.709 308.513L202.366 304.588Z" fill="#171B26"/>
<path d="M124.956 270.563C124.956 270.563 127.018 270.329 158.643 264.47C158.643 264.47 159.356 304.917 160.857 335.064L170.598 335.378C170.598 335.378 184.571 268.462 182.93 258.361C181.289 248.26 169.264 246.891 169.264 246.891C169.264 246.891 148.388 263.109 124.956 270.563Z" fill="#004FFF"/>
<path opacity="0.4" d="M124.956 270.563C124.956 270.563 127.018 270.329 158.643 264.47C158.643 264.47 159.356 304.917 160.857 335.064L170.598 335.378C170.598 335.378 184.571 268.462 182.93 258.361C181.289 248.26 169.264 246.891 169.264 246.891C169.264 246.891 148.388 263.109 124.956 270.563Z" fill="#1F2433"/>
<path opacity="0.3" d="M124.956 270.563C124.956 270.563 127.018 270.329 158.643 264.47C158.643 264.47 159.356 304.917 160.857 335.064L170.598 335.378C170.598 335.378 184.571 268.462 182.93 258.361C181.289 248.26 169.264 246.891 169.264 246.891C169.264 246.891 148.388 263.109 124.956 270.563Z" fill="#0F121A"/>
<path d="M159.068 332.368L172.354 332.058L170.536 337.533L159.759 337.631L159.068 332.368Z" fill="#171B26"/>
<path opacity="0.3" d="M138.572 233.741L121.331 239.879C121.331 239.879 130.395 233.112 137.458 229.965C138.093 232.014 138.572 233.741 138.572 233.741Z" fill="#0F121A"/>
<path d="M101.242 223.56L100.989 228.677L133.304 221.827L132.551 216.174L101.242 223.56Z" fill="#171B26"/>
<path opacity="0.2" d="M101.242 223.56L100.989 228.677L133.304 221.827L132.551 216.174L101.242 223.56Z" fill="#0F121A"/>
<path d="M111.052 220.415L109.443 220.714L110.963 228.906L112.571 228.607L111.052 220.415Z" fill="#004FFF"/>
<path d="M125.166 218.33L118.113 219.92L119.319 225.27L126.372 223.679L125.166 218.33Z" fill="#1F2433"/>
<path d="M130.69 215.574L129.082 215.873L130.6 224.065L132.209 223.766L130.69 215.574Z" fill="#004FFF"/>
<path opacity="0.3" d="M111.052 220.415L109.443 220.714L110.963 228.906L112.571 228.607L111.052 220.415Z" fill="#1F2433"/>
<path opacity="0.3" d="M130.69 215.574L129.082 215.873L130.6 224.065L132.209 223.766L130.69 215.574Z" fill="#1F2433"/>
<path d="M232.652 327.095C231.601 326.776 230.5 326.652 229.404 326.729C229.404 326.729 225.345 325.034 220.442 316.959L216.253 317.51C214.806 317.726 213.648 318.822 213.354 320.255C213.311 320.45 213.298 320.651 213.315 320.851C213.496 321.857 213.742 322.849 214.051 323.823C214.858 326.902 217.851 333.334 217.851 333.334L218.535 333.056L216.387 326.988C215.667 324.925 218.178 326.668 219.506 328.666C220.834 330.664 222.717 332.599 227.194 330.907C232.41 328.907 234.474 327.832 232.652 327.095Z" fill="#004FFF"/>
<path d="M219.376 314.814C219.376 314.814 226.105 325.032 229.405 326.729C229.405 326.729 225.701 329.689 220.764 324.912C214.38 318.734 213.316 320.851 213.316 320.851C213.316 320.851 213.22 318.45 213.485 317.232C213.995 314.886 219.376 314.814 219.376 314.814Z" fill="#FFADAD"/>
<path d="M178.667 361.066C177.722 360.507 176.682 360.125 175.599 359.94C175.599 359.94 172.058 357.331 169.21 348.324L165.01 347.866C163.553 347.732 162.168 348.523 161.543 349.845C161.455 350.025 161.394 350.217 161.364 350.414C161.302 351.434 161.305 352.457 161.374 353.476C161.428 356.659 162.811 363.617 162.811 363.617L163.542 363.509L162.894 357.105C162.684 354.93 164.71 357.219 165.526 359.474C166.342 361.73 167.712 364.056 172.463 363.474C178.001 362.768 180.262 362.214 178.667 361.066Z" fill="#004FFF"/>
<path d="M168.682 345.987C168.682 345.987 172.796 357.51 175.599 359.941C175.599 359.941 171.299 361.939 167.636 356.127C162.899 348.612 161.364 350.416 161.364 350.416C161.364 350.416 161.841 348.061 162.386 346.94C163.437 344.78 168.682 345.987 168.682 345.987Z" fill="#FFADAD"/>
<path d="M119.266 135.423C119.266 135.423 103.48 127.748 98.256 144.267C93.032 160.786 99.728 172.193 99.728 172.193C99.728 172.193 117.995 167.509 133.383 170.778C133.383 170.778 130.059 156.701 130.858 148.615C131.656 140.53 119.266 135.423 119.266 135.423Z" fill="#171B26"/>
<path d="M131.587 172.826C135.056 172.984 149.597 192.509 149.597 192.509L154.997 185.489C154.997 185.489 163.322 201.663 159.205 209.362C155.088 217.061 133.385 196.016 133.385 196.016L131.587 172.826Z" fill="#004FFF"/>
<path opacity="0.6" d="M131.585 172.828L133.017 188.401L133.383 196.014C133.383 196.014 136.951 199.473 141.462 203.068C148.087 208.357 156.751 213.938 159.204 209.363C163.321 201.668 154.995 185.491 154.995 185.491L149.597 192.509L149.56 192.454C148.736 191.274 134.943 172.974 131.585 172.828Z" fill="#1F2433"/>
<path opacity="0.2" d="M133.017 188.401L133.383 196.014C133.383 196.014 136.951 199.473 141.462 203.068C141.892 193.927 133.383 180.615 133.383 180.615L133.017 188.401Z" fill="#0F121A"/>
<path opacity="0.2" d="M149.596 192.509L148.82 193.996L151.083 202.803C151.083 202.803 144.841 197.123 148.82 191.556L149.596 192.509Z" fill="#0F121A"/>
<path d="M133.41 190.249C133.41 190.489 133.41 190.739 133.4 190.989C133.38 192.069 133.36 193.209 133.33 194.419C133.33 194.519 133.33 194.619 133.32 194.729C133.3 195.379 133.29 196.049 133.27 196.739C133.27 196.859 133.26 196.969 133.26 197.089C133.22 198.059 133.19 199.069 133.15 200.129C133.14 200.269 133.14 200.409 133.13 200.549C133.08 201.909 133.02 203.339 132.95 204.849C132.79 208.239 132.6 211.999 132.36 216.169V216.179L131.91 216.289L101.36 223.529L101.24 223.559C101.24 223.559 102.47 207.219 100.36 197.969C100.34 197.889 100.33 197.809 100.3 197.729C100.27 197.589 100.24 197.449 100.2 197.309C100.13 197.049 100.06 196.789 100 196.519C99.93 196.249 99.86 195.979 99.78 195.699C99.51 194.709 99.22 193.679 98.91 192.599C98.71 191.879 98.49 191.139 98.26 190.379C98.22 190.249 98.18 190.129 98.14 189.999C97.87 189.099 97.58 188.169 97.28 187.209C97.19 186.929 97.11 186.659 97.02 186.369C96.58 184.999 96.11 183.549 95.6 182.029C95.04 180.319 94.43 178.499 93.76 176.579C97.27 175.459 100.83 174.569 104.45 173.899C104.96 173.799 105.48 173.709 106 173.619C106.55 173.519 107.1 173.429 107.64 173.349C110.38 172.909 113.15 172.599 115.92 172.399C117.03 172.319 118.14 172.259 119.25 172.219C119.92 172.219 120.61 172.219 121.3 172.239H121.58C122.25 172.259 122.91 172.279 123.56 172.299C123.87 172.309 124.18 172.329 124.49 172.339C124.69 172.349 124.88 172.359 125.08 172.369C125.29 172.379 125.51 172.389 125.72 172.399C126.08 172.419 126.42 172.439 126.76 172.459C127.02 172.479 127.27 172.489 127.52 172.509C128.01 172.539 128.47 172.569 128.89 172.599C129.08 172.619 129.26 172.629 129.43 172.649C129.6 172.659 129.76 172.669 129.91 172.679C130.07 172.699 130.21 172.709 130.35 172.719C130.48 172.729 130.6 172.739 130.71 172.749C131.21 172.789 131.52 172.819 131.58 172.829C131.58 172.829 131.58 172.829 131.59 172.839C131.59 172.839 131.62 172.839 131.67 172.889L131.74 172.959C131.79 173.019 131.85 173.099 131.91 173.219C132.09 173.549 132.32 174.159 132.56 175.269C132.6 175.469 132.64 175.689 132.69 175.929C132.75 176.279 132.81 176.679 132.88 177.119C132.93 177.429 132.97 177.759 133.01 178.119C133.04 178.439 133.08 178.769 133.11 179.129C133.35 181.699 133.47 185.239 133.41 190.249Z" fill="#171B26"/>
<path d="M116.817 178.748C109.543 177.815 107.356 174.704 107.356 174.704C110.33 171.904 109.79 167.768 109.03 165.188C108.618 163.761 108.133 162.809 108.133 162.809L116.889 164.447C116.66 165.893 116.56 167.11 116.55 168.134C116.532 169.259 116.632 170.147 116.797 170.842C117.392 173.459 118.883 173.495 118.883 173.495C120.422 176.369 116.817 178.748 116.817 178.748Z" fill="#FFADAD"/>
<path opacity="0.2" d="M116.551 168.134C116.533 169.259 116.633 170.147 116.798 170.842C113.321 170.384 110.686 167.603 109.03 165.187C108.618 163.76 108.133 162.808 108.133 162.808L116.889 164.446C116.661 165.892 116.56 167.109 116.551 168.134Z" fill="#0F121A"/>
<path d="M118.884 139.879C126.941 141.523 128.654 146.366 127.55 154.789C126.171 165.315 122.366 172.218 112.744 167.946C99.677 162.145 105.504 137.149 118.884 139.879Z" fill="#FFADAD"/>
<path d="M122.434 153.276C122.434 153.276 123.121 155.608 124.097 157.096C124.097 157.096 123.184 158.051 121.787 157.574L122.434 153.276Z" fill="#FF7070"/>
<path fill-rule="evenodd" clip-rule="evenodd" d="M118.691 146.031C118.809 145.688 118.808 145.688 118.808 145.688L118.691 146.031Z" fill="#171B26"/>
<path fill-rule="evenodd" clip-rule="evenodd" d="M124.617 146.885L124.562 146.527C124.364 146.558 124.228 146.743 124.259 146.94C124.29 147.138 124.474 147.274 124.672 147.243L124.67 147.243L124.677 147.243C124.684 147.242 124.696 147.241 124.714 147.239C124.748 147.237 124.804 147.234 124.876 147.235C125.021 147.236 125.234 147.253 125.493 147.314C126.008 147.434 126.715 147.732 127.436 148.458C127.577 148.599 127.807 148.6 127.948 148.459C128.09 148.318 128.091 148.089 127.95 147.947C127.126 147.118 126.295 146.757 125.658 146.608C125.342 146.534 125.075 146.512 124.885 146.51C124.789 146.509 124.713 146.512 124.658 146.517C124.631 146.519 124.609 146.521 124.592 146.523L124.573 146.525L124.566 146.526L124.563 146.527L124.562 146.527C124.561 146.527 124.562 146.527 124.617 146.885Z" fill="#171B26"/>
<path d="M107.308 151.662C107.308 151.662 112.426 145.811 112.898 140.584C112.898 140.584 130.195 137.319 127.676 153.686C127.676 153.686 132.172 139.614 118.388 136.468C104.625 133.326 100.528 153.596 106.449 161.092C106.449 161.092 104.132 155.326 107.308 151.662Z" fill="#171B26"/>
<path d="M108.277 153.631C108.488 152.323 107.597 149.854 105.131 149.625C102.579 149.388 100.343 154.271 106.302 156.77C107.156 157.129 107.837 156.36 108.277 153.631Z" fill="#FFADAD"/>
<path d="M121.564 159.99C120.773 160.754 119.671 162.334 119.671 162.334C119.51 162.26 119.349 162.186 119.192 162.103C117.032 161.043 116.381 159.838 116.313 158.824C116.278 158.269 116.426 157.767 116.596 157.383C116.788 156.936 117.027 156.662 117.027 156.662C117.836 157.908 119.773 159.051 120.834 159.618C121.275 159.86 121.564 159.99 121.564 159.99Z" fill="#171B26"/>
<path d="M120.834 159.618L120.258 160.294C118.226 159.291 116.931 158.312 116.596 157.383C116.788 156.936 117.027 156.662 117.027 156.662C117.837 157.908 119.774 159.051 120.834 159.618Z" fill="#1F2433"/>
<path d="M119.192 162.103C117.032 161.043 116.381 159.838 116.313 158.824C117.035 159.213 117.862 159.763 118.478 160.476C118.951 161.019 119.136 161.589 119.192 162.103Z" fill="#FF7070"/>
<path d="M118.593 140.453C118.593 140.453 112.642 153.048 104.329 151.175C96.016 149.302 112.323 135.145 112.323 135.145C112.323 135.145 126.995 132.784 132.239 141.39C137.484 149.996 127.675 153.686 127.675 153.686C127.675 153.686 130.284 143.524 118.593 140.453Z" fill="#171B26"/>
<path fill-rule="evenodd" clip-rule="evenodd" d="M118.727 139.246C118.865 139.259 118.966 139.381 118.953 139.518L118.704 139.495C118.953 139.518 118.953 139.518 118.953 139.518L118.953 139.519L118.953 139.521L118.952 139.526L118.95 139.548C118.948 139.566 118.945 139.594 118.941 139.629C118.932 139.699 118.919 139.802 118.9 139.933C118.862 140.194 118.799 140.568 118.7 141.022C118.504 141.93 118.165 143.161 117.595 144.451C116.457 147.028 114.382 149.878 110.65 150.819C110.516 150.853 110.38 150.772 110.347 150.638C110.313 150.504 110.394 150.368 110.528 150.335C114.049 149.447 116.031 146.756 117.138 144.249C117.69 142.998 118.02 141.801 118.212 140.916C118.307 140.475 118.368 140.112 118.405 139.86C118.424 139.734 118.436 139.636 118.444 139.57C118.448 139.537 118.451 139.512 118.453 139.495L118.455 139.477L118.455 139.473L118.455 139.472L118.455 139.472" fill="#171B26"/>
<path d="M117.723 152.048C117.697 152.687 117.331 153.192 116.905 153.175C116.479 153.158 116.154 152.626 116.18 151.987C116.206 151.348 116.572 150.843 116.998 150.86C117.424 150.876 117.749 151.408 117.723 152.048Z" fill="#171B26"/>
<path d="M116.819 150.883L118.231 150.393C118.231 150.393 117.492 151.535 116.819 150.883Z" fill="#171B26"/>
<path d="M125.676 152.233C125.65 152.872 125.284 153.377 124.858 153.36C124.432 153.343 124.107 152.811 124.133 152.171C124.159 151.532 124.525 151.027 124.951 151.044C125.377 151.062 125.702 151.594 125.676 152.233Z" fill="#171B26"/>
<path d="M124.772 151.068L126.184 150.578C126.184 150.578 125.445 151.721 124.772 151.068Z" fill="#171B26"/>
<path d="M136.882 185.721C136.829 186.185 137.167 186.561 137.637 186.561H146C146.47 186.561 146.894 186.185 146.947 185.721L148.814 169.216C148.867 168.752 148.529 168.261 148.059 168.261H139.696C139.226 168.261 138.802 168.752 138.749 169.216L136.882 185.721Z" fill="#171B26"/>
<path opacity="0.5" d="M139.677 169.108L137.785 185.772C137.731 186.242 137.976 186.561 138.443 186.561H145.534C146.01 186.561 146.881 186.299 146.935 185.829L148.827 169.108C148.88 168.638 148.069 168.262 147.593 168.262H140.502C140.035 168.262 139.73 168.638 139.677 169.108Z" fill="#1F2433"/>
<path d="M154.4 187.095L150.041 179.699C150.041 179.699 150.054 175.81 149.673 174.895C149.292 173.98 145.022 171.915 144.183 172.223C143.344 172.531 143.039 180.16 143.802 181.187C144.564 182.214 147.233 183.358 147.233 183.358L147.051 184.807L149.597 192.508L154.4 187.095Z" fill="#FFADAD"/>
<path d="M156.154 186.257L154.705 184.808L147.842 192.509L148.82 195.559L156.154 186.257Z" fill="#004FFF"/>
<path d="M121.332 170.778L120.464 173.977L122.234 176.579L126.155 213.142L136.877 211.56C136.141 183.069 135.83 182.919 131.745 172.667L122.127 171.999L121.332 170.778Z" fill="#004FFF"/>
<path opacity="0.6" d="M121.332 170.778L120.464 173.977L122.234 176.579L126.155 213.142L136.877 211.56C136.141 183.069 135.83 182.919 131.745 172.667L122.127 171.999L121.332 170.778Z" fill="#1F2433"/>
<path d="M103.814 170.778L113.342 174.768L111 178.748L113.311 216.174L98.868 220.395C98.868 220.395 88.387 192.895 93.759 176.579L103.219 173.845L103.814 170.778Z" fill="#004FFF"/>
<path opacity="0.6" d="M112.94 210.249L113.31 216.179L106.87 218.059L98.87 220.399C98.87 220.399 94.23 208.219 92.71 195.259C91.94 188.749 91.96 182.039 93.76 176.579L103.22 173.849L103.81 170.779L113.34 174.769L111 178.749L111.92 193.609L112.94 210.249Z" fill="#1F2433"/>
<path opacity="0.2" d="M121.39 198.559C121.39 198.559 117.8 203.789 112.94 210.249C111.06 212.749 108.99 215.429 106.87 218.059L98.87 220.399C98.87 220.399 94.23 208.219 92.71 195.259C96.63 191.329 101.43 186.569 101.43 186.569C101.43 186.569 103.63 193.369 102.66 199.279L111.92 193.609L114.8 191.849L121.39 198.559Z" fill="#0F121A"/>
<path d="M113.575 194.335L123.483 186.561C123.483 186.561 124.983 182.39 125.586 181.666C126.189 180.942 134.877 177.736 135.6 177.65C136.324 177.564 135.644 184.768 134.514 185.992C133.384 187.217 126.43 189.632 126.43 189.632L116.055 199.402L113.575 194.335Z" fill="#FFADAD"/>
<path d="M93.759 176.579C87.941 179.494 85.353 212.356 95.457 218.031C105.561 223.705 120.66 198.065 120.66 198.065L114.795 191.841C114.795 191.841 102.494 202.139 101.01 201.193C99.525 200.247 101.214 190.183 101.214 190.183C101.214 190.183 102.943 187.137 99.304 182.351C95.663 177.564 93.759 176.579 93.759 176.579Z" fill="#004FFF"/>
<path opacity="0.6" d="M93.759 176.579C87.941 179.494 85.353 212.356 95.457 218.031C105.561 223.705 120.66 198.065 120.66 198.065L114.795 191.841C114.795 191.841 102.494 202.139 101.01 201.193C99.525 200.247 101.214 190.183 101.214 190.183C101.214 190.183 102.943 187.137 99.304 182.351C95.663 177.564 93.759 176.579 93.759 176.579Z" fill="#1F2433"/>
<path d="M120.774 200.347L122.53 199.292L115.941 189.632L113.522 190.981L120.774 200.347Z" fill="#004FFF"/>
</svg>
