<svg width="500" height="373" viewBox="0 0 500 373" fill="none" xmlns="http://www.w3.org/2000/svg">
<path d="M500 327.837H0V328.087H500V327.837Z" fill="#171B26"/>
<path d="M124.826 342.967H91.704V343.217H124.826V342.967Z" fill="#171B26"/>
<path d="M81.222 342.967H62.029V343.217H81.222V342.967Z" fill="#171B26"/>
<path d="M210.554 346.647H191.362V346.897H210.554V346.647Z" fill="#171B26"/>
<path d="M310.616 352.23H267.423V352.48H310.616V352.23Z" fill="#171B26"/>
<path d="M258.52 352.23H252.187V352.48H258.52V352.23Z" fill="#171B26"/>
<path d="M453.343 346.647H359.667V346.897H453.343V346.647Z" fill="#171B26"/>
<path d="M237.014 283.239H43.915C40.768 283.239 38.207 280.678 38.207 277.531V6.09911C38.207 2.95211 40.768 0.391113 43.915 0.391113H237.014C240.16 0.391113 242.721 2.95211 242.721 6.09911V277.531C242.721 280.678 240.16 283.239 237.014 283.239ZM43.915 0.642113C40.905 0.642113 38.457 3.09011 38.457 6.10011V277.532C38.457 280.542 40.905 282.99 43.915 282.99H237.014C240.023 282.99 242.471 280.542 242.471 277.532V6.09911C242.471 3.09011 240.023 0.641113 237.014 0.641113L43.915 0.642113Z" fill="#171B26"/>
<path d="M453.31 283.239H260.212C257.066 283.239 254.505 280.678 254.505 277.531V6.09911C254.505 2.95211 257.066 0.391113 260.212 0.391113H453.31C456.458 0.391113 459.018 2.95211 459.018 6.09911V277.531C459.019 280.678 456.458 283.239 453.31 283.239ZM260.212 0.642113C257.203 0.642113 254.755 3.09011 254.755 6.10011V277.532C254.755 280.542 257.203 282.99 260.212 282.99H453.31C456.32 282.99 458.768 280.542 458.768 277.532V6.09911C458.768 3.09011 456.32 0.641113 453.31 0.641113L260.212 0.642113Z" fill="#171B26"/>
<path d="M267.399 242.416H245.41V329.65H267.399V242.416Z" fill="#0F121A"/>
<path d="M263.223 329.651H267.399V317.771H258.844L263.223 329.651Z" fill="#171B26"/>
<path d="M171.044 242.416H149.055V329.65H171.044V242.416Z" fill="#0F121A"/>
<path d="M267.4 242.416H167.399V322.361H267.4V242.416Z" fill="#171B26"/>
<path d="M263.773 246.346V267.497H171.025V246.346H263.773ZM264.159 245.96H170.638V267.884H264.159V245.96Z" fill="#0F121A"/>
<path d="M171.575 329.651H167.399V317.771H175.954L171.575 329.651Z" fill="#171B26"/>
<path d="M215.187 256.921C215.187 258.142 216.177 259.133 217.399 259.133C218.62 259.133 219.611 258.143 219.611 256.921C219.611 255.7 218.621 254.709 217.399 254.709C216.178 254.71 215.187 255.7 215.187 256.921Z" fill="#171B26"/>
<path d="M263.773 271.813V292.964H171.025V271.813H263.773ZM264.159 271.427H170.638V293.351H264.159V271.427Z" fill="#0F121A"/>
<path d="M215.187 282.388C215.187 283.609 216.177 284.6 217.399 284.6C218.62 284.6 219.611 283.61 219.611 282.388C219.611 281.166 218.621 280.176 217.399 280.176C216.178 280.177 215.187 281.167 215.187 282.388Z" fill="#171B26"/>
<path d="M263.773 297.28V318.431H171.025V297.28H263.773ZM264.159 296.894H170.638V318.818H264.159V296.894Z" fill="#0F121A"/>
<path d="M215.187 307.856C215.187 309.077 216.177 310.068 217.399 310.068C218.62 310.068 219.611 309.078 219.611 307.856C219.611 306.634 218.621 305.644 217.399 305.644C216.178 305.644 215.187 306.634 215.187 307.856Z" fill="#171B26"/>
<path d="M157.61 191.755H135.621V329.651H157.61V191.755Z" fill="#0F121A"/>
<path d="M153.434 329.651H157.61V317.771H149.055L153.434 329.651Z" fill="#171B26"/>
<path d="M75.427 191.755H53.438V329.651H75.427V191.755Z" fill="#0F121A"/>
<path d="M157.61 191.755H71.783V322.361H157.61V191.755Z" fill="#171B26"/>
<path d="M153.915 195.453V225.023H75.478V195.453H153.915ZM154.37 194.998H75.023V225.479H154.37V194.998Z" fill="#0F121A"/>
<path d="M153.915 228.617V307.053H116.554V228.617H153.915ZM154.37 228.162H116.098V307.51H154.37V228.162Z" fill="#0F121A"/>
<path d="M112.839 228.617V307.053H75.478V228.617H112.839ZM113.295 228.162H75.023V307.51H113.295V228.162Z" fill="#0F121A"/>
<path d="M75.959 329.651H71.783V317.771H80.338L75.959 329.651Z" fill="#171B26"/>
<path d="M112.485 210.238C112.485 211.46 113.475 212.45 114.697 212.45C115.918 212.45 116.909 211.46 116.909 210.238C116.909 209.017 115.919 208.026 114.697 208.026C113.475 208.027 112.485 209.017 112.485 210.238Z" fill="#171B26"/>
<path d="M120.403 265.965C120.403 267.186 121.393 268.177 122.615 268.177C123.837 268.177 124.827 267.187 124.827 265.965C124.827 264.744 123.837 263.753 122.615 263.753C121.393 263.753 120.403 264.743 120.403 265.965Z" fill="#171B26"/>
<path d="M104.566 265.965C104.566 267.186 105.556 268.177 106.778 268.177C107.999 268.177 108.99 267.187 108.99 265.965C108.99 264.744 108 263.753 106.778 263.753C105.557 263.753 104.566 264.743 104.566 265.965Z" fill="#171B26"/>
<path d="M102.075 153.308H92.799C92.799 153.308 94.409 161.883 94.409 166.929C94.409 171.975 87.353 191.755 97.437 191.755C107.52 191.755 100.465 171.974 100.465 166.929C100.464 161.882 102.075 153.308 102.075 153.308Z" fill="#0F121A"/>
<path d="M66.803 173.587V179.614C66.803 186.291 72.266 191.754 78.944 191.754H84.971C91.648 191.754 97.111 186.291 97.111 179.614V173.587H66.803Z" fill="#171B26"/>
<path d="M195.667 229.704C195.667 236.696 203.498 242.417 213.069 242.417H221.708C231.28 242.417 239.111 236.696 239.111 229.704H195.667Z" fill="#0F121A"/>
<path d="M424.606 219.469C419.366 223.746 412.134 231.578 405.507 242.597C401.093 249.935 398.433 257.624 397.265 267.782C397.29 256.283 397.326 243.928 397.366 232.268C398.697 229.267 401.737 222.352 403.918 216.888C411.195 198.657 413.905 194.174 420.45 178.449C429.179 157.475 438.124 132.588 435.563 134.577C430.344 138.629 410.343 176.081 408.181 181.442C400.745 199.882 398.674 213.323 397.387 226.294C397.427 215.342 397.47 205.286 397.512 197.527C397.646 172.219 398.077 164.051 398.287 161.532C399.096 160.252 400.052 158.76 400.608 157.956C405.306 151.163 407.118 145.376 411.545 135.244C417.818 120.887 423.22 95.3971 421.641 96.6831C415.065 102.036 409.878 113.545 403.062 128.21C396.247 142.875 398.195 151.308 396.843 163.833C396.559 166.291 396.342 175.566 396.185 188.421C394.417 174.726 391.101 165.701 385.051 157.5C377.609 147.413 370.41 140.599 365.128 137.04C359.846 133.482 374.249 158.26 381.137 169.075C387.271 178.706 392.921 187.205 396.107 195.575C395.938 212.997 395.86 235.059 395.86 255.595C394.28 246.249 391.7 236.186 388.258 228.393C384.122 219.03 377.759 204.669 372.694 199.798C371.477 198.628 377.99 226.558 382.169 233.985C386.349 241.412 389.417 248.411 392.048 252.621C392.662 253.603 394.698 257.391 395.861 259.569C395.872 284.639 396 306.761 396.218 314.291H397.301C397.227 312.348 397.215 299.595 397.238 282.716C399.846 273.551 405.811 263.093 410.733 253.552C416.106 243.136 429.847 215.191 424.606 219.469Z" fill="#0F121A"/>
<path d="M412.44 329.651H381.097L378.731 298.927H414.806L412.44 329.651Z" fill="#0F121A"/>
<path d="M417.142 302.507H376.395L375.228 292.141H418.309L417.142 302.507Z" fill="#171B26"/>
<path d="M124.26 20.9361H68.208V82.4851H124.26V20.9361Z" fill="#0F121A"/>
<path d="M130.331 20.9361H72.433V82.4851H130.331V20.9361Z" fill="#171B26"/>
<path d="M125.48 77.6344V25.7864H77.2827V77.6344H125.48Z" fill="#0F121A"/>
<path d="M113.798 65.0684V38.3544H88.9657V65.0684H113.798Z" fill="#171B26"/>
<path d="M410.051 28.1111H357.981V85.2881H410.051V28.1111Z" fill="#0F121A"/>
<path d="M415.691 28.1111H361.906V85.2881H415.691V28.1111Z" fill="#171B26"/>
<path d="M411.185 80.7826V32.6176H366.412V80.7826H411.185Z" fill="#0F121A"/>
<path d="M388.798 70.6681C396.512 70.6681 402.766 64.4144 402.766 56.7001C402.766 48.9858 396.512 42.7321 388.798 42.7321C381.084 42.7321 374.83 48.9858 374.83 56.7001C374.83 64.4144 381.084 70.6681 388.798 70.6681Z" fill="#171B26"/>
<path d="M182.489 57.6361H140.909V103.294H182.489V57.6361Z" fill="#0F121A"/>
<path d="M186.994 57.6361H144.044V103.294H186.994V57.6361Z" fill="#171B26"/>
<path d="M183.396 99.6966V61.2346H147.643V99.6966H183.396Z" fill="#0F121A"/>
<path d="M165.519 70.7421L155.741 87.6791H175.297L165.519 70.7421Z" fill="#171B26"/>
<path d="M250 373C357.082 373 443.889 367.931 443.889 361.677C443.889 355.424 357.082 350.354 250 350.354C142.918 350.354 56.111 355.424 56.111 361.677C56.111 367.931 142.918 373 250 373Z" fill="#171B26"/>
<path d="M349.246 108.871L339.327 104.849C339.327 104.849 326.237 128.722 322.488 129.927C317.386 131.567 306.835 136.126 300.565 136.98C299.72 137.968 298.326 141.084 298.459 142.22C306.871 145.025 325.351 141.3 329.307 138.363C338.325 131.664 349.246 108.871 349.246 108.871Z" fill="#FFADAD"/>
<path d="M352.3 103.454C354.145 110.293 344.126 124.03 344.126 124.03L330.964 116.647C330.964 116.647 333.418 111 336.422 105.249C341.273 95.9621 350.193 95.6491 352.3 103.454Z" fill="#004FFF"/>
<path d="M352.3 103.454C354.145 110.293 344.126 124.03 344.126 124.03L330.964 116.647C330.964 116.647 333.418 111 336.422 105.249C341.273 95.9621 350.193 95.6491 352.3 103.454Z" fill="#000614"/>
<path d="M336.212 119.587L341.381 122.485L342.285 106.619C339.285 108.931 337.157 115.888 336.212 119.587Z" fill="#000614"/>
<path d="M343.662 98.3021C343.662 98.3021 333.443 121.038 339.401 163.379C351.535 163.379 373.767 163.379 379.671 163.379C380.311 157.197 378.195 127.041 385.865 97.9141C385.865 97.9141 379.043 96.5291 372.484 96.2121C367.353 95.9641 359.913 95.8001 355.365 96.2131C349.369 96.7571 343.662 98.3021 343.662 98.3021Z" fill="#004FFF"/>
<path d="M343.662 98.3021C343.662 98.3021 333.443 121.038 339.401 163.379C351.535 163.379 373.767 163.379 379.671 163.379C380.311 157.197 378.195 127.041 385.865 97.9141C385.865 97.9141 379.043 96.5291 372.484 96.2121C367.353 95.9641 359.913 95.8001 355.365 96.2131C349.369 96.7571 343.662 98.3021 343.662 98.3021Z" fill="#000614"/>
<path d="M334.323 362.581C334.26 363.655 349.528 364.525 368.425 364.525C387.322 364.525 402.692 363.655 402.755 362.581C402.818 361.507 387.55 360.637 368.653 360.637C349.756 360.636 334.386 361.507 334.323 362.581Z" fill="#0F121A"/>
<path d="M362.141 335.597L354.975 338.358L361.12 354.307L368.286 351.546L362.141 335.597Z" fill="#FFADAD"/>
<path d="M393.051 354.893H385.522L382.76 337.457H390.289L393.051 354.893Z" fill="#FFADAD"/>
<path d="M385.038 354.021H393.497C393.805 354.021 394.059 354.235 394.108 354.535L395.203 361.227C395.317 361.921 394.733 362.578 394.022 362.566C391.072 362.515 389.647 362.342 385.928 362.342C383.64 362.342 378.911 362.58 375.75 362.58C372.659 362.58 372.36 359.455 373.671 359.172C379.546 357.903 381.834 356.153 383.789 354.484C384.141 354.183 384.588 354.021 385.038 354.021Z" fill="#000614"/>
<path d="M359.972 351.385L367.993 349.053C368.293 348.966 368.602 349.095 368.735 349.364L371.707 355.36C372.015 355.981 371.651 356.761 370.955 356.951C368.05 357.744 366.097 358.24 362.46 359.297C359.947 360.027 357.391 361.217 354.908 362.009C353.189 362.557 349.152 362.579 347.061 362.579C343.97 362.579 343.281 359.32 344.606 359.171C347.959 358.795 348.409 358.969 350.26 358.041C353.32 356.506 355.687 355.235 358.336 352.46C358.798 351.978 359.339 351.569 359.972 351.385Z" fill="#000614"/>
<path d="M301.833 136.908L293.548 133.422L290.137 142.6C290.137 142.6 294.918 143.467 300.378 142.6L301.833 136.908Z" fill="#FFADAD"/>
<path d="M287.391 133.197L287.172 139.304L290.137 142.6L293.548 133.422L287.391 133.197Z" fill="#FFADAD"/>
<path d="M362.168 335.579L355.001 338.345L358.173 346.565L365.341 343.799L362.168 335.579Z" fill="#FF7070"/>
<path d="M390.291 337.462H382.759L384.187 346.449H391.719L390.291 337.462Z" fill="#FF7070"/>
<path d="M338.123 151.926C338.267 153.735 338.442 155.584 338.657 157.485L368.602 147.764C373.278 146.366 377.347 143.427 380.122 139.41C380.235 136.738 380.389 133.933 380.615 131.004C380.718 129.576 380.841 128.116 380.975 126.637C381.119 125.096 381.283 123.523 381.468 121.941L338.123 151.926Z" fill="#000614"/>
<path d="M347.9 119.127L346.88 119.006C347.474 114.016 351.199 110.072 355.134 110.166L355.104 111.194C351.707 111.095 348.434 114.652 347.9 119.127Z" fill="#0F121A"/>
<path d="M353.228 128.361C353.172 128.361 353.116 128.36 353.059 128.359L353.089 127.331C356.528 127.457 359.759 123.872 360.293 119.397L361.313 119.519C360.727 124.438 357.12 128.361 353.228 128.361Z" fill="#0F121A"/>
<path d="M371.918 76.9361C370.515 82.4441 368.846 92.5371 372.484 96.2121C372.484 96.2121 369.943 101.798 359.708 101.798C350.355 101.798 355.365 96.2111 355.365 96.2111C361.593 94.7441 361.702 90.1871 360.883 85.9071L371.918 76.9361Z" fill="#FFADAD"/>
<path d="M367.419 80.5971L360.888 85.9041C361.085 86.9171 361.225 87.9441 361.238 88.9421C363.147 90.8431 366.979 86.0271 367.372 83.5701C367.567 82.3461 367.585 81.1681 367.419 80.5971Z" fill="#FF7070"/>
<path d="M349.664 76.8681C350.621 78.5821 352.31 79.6491 353.906 80.0041C356.307 80.5391 357.514 78.3301 356.852 76.1071C356.256 74.1061 354.289 71.4171 351.876 71.8781C349.499 72.3331 348.569 74.9081 349.664 76.8681Z" fill="#FF7070"/>
<path d="M353.626 59.2391C349.886 60.9531 348.568 75.8101 353.27 78.0071C357.972 80.2031 360.71 55.9941 353.626 59.2391Z" fill="#000614"/>
<path d="M373.059 68.6471C372.164 76.1051 372.017 80.4941 368.026 84.3221C362.022 90.0801 353.016 86.6651 351.673 79.2201C350.464 72.5191 352.131 61.4481 359.606 58.4801C366.97 55.5561 373.954 61.1891 373.059 68.6471Z" fill="#FFADAD"/>
<path d="M360.774 63.1041C366.306 61.6891 370.378 60.7251 368.925 65.3431C366.989 71.4951 364.667 77.4551 367.782 77.7331C369.676 77.9021 378.077 74.3371 377.01 70.7331C376.081 67.5931 379.986 66.7461 380.706 65.1451C383.299 59.3791 375.89 60.1281 377.208 56.6391C378.492 53.2421 371.239 47.5011 367.22 50.3061C360.715 54.8471 349.535 54.7821 355.413 47.3341C359.622 42.0001 352.112 43.0951 352.112 43.0951C352.112 43.0951 356.648 45.7861 349.013 49.9461C340.919 54.3541 348.328 66.2881 360.774 63.1041Z" fill="#000614"/>
<path d="M375.946 76.8681C374.787 78.5821 372.974 79.6491 371.336 80.0041C368.872 80.5391 367.925 78.3301 368.847 76.1071C369.678 74.1061 371.96 71.4171 374.319 71.8781C376.642 72.3331 377.27 74.9081 375.946 76.8681Z" fill="#FFADAD"/>
<path d="M339.401 163.379C339.401 163.379 332.642 223.876 332.114 246.836C331.566 270.718 355.022 345.23 355.022 345.23L367.033 340.186C367.033 340.186 353.048 272.113 354.991 248.658C357.109 223.089 365.872 163.378 365.872 163.378L339.401 163.379Z" fill="#004FFF"/>
<path d="M356.199 179.99C350.814 191.17 354.442 213.274 357.36 226.377C358.47 217.128 359.785 207.089 361.039 197.799C360.916 183.515 359.806 172.489 356.199 179.99Z" fill="#000614"/>
<path d="M366.49 336.265C366.546 336.242 367.914 340.093 367.914 340.093L354.07 345.906L351.889 341.851L366.49 336.265Z" fill="#004FFF"/>
<path d="M353.686 163.379C353.686 163.379 358.857 220.917 362.284 242.473C366.037 266.078 380.779 344.709 380.779 344.709H394.569C394.569 344.709 386.306 267.984 384.745 244.613C383.051 219.247 379.671 163.379 379.671 163.379L353.686 163.379Z" fill="#004FFF"/>
<path d="M394.78 341.116C394.839 341.116 395.241 344.97 395.241 344.97H380.084L379.002 340.546L394.78 341.116Z" fill="#004FFF"/>
<path d="M389.497 336.561C389.432 336.561 389.377 336.512 389.37 336.447C389.295 335.749 381.844 266.48 380.442 245.482C378.921 222.695 375.862 172.17 375.831 171.662C375.827 171.591 375.881 171.53 375.951 171.526C375.954 171.526 375.957 171.526 375.959 171.526C376.026 171.526 376.084 171.579 376.088 171.647C376.118 172.154 379.177 222.679 380.699 245.464C382.1 266.458 389.55 335.722 389.625 336.419C389.633 336.49 389.582 336.553 389.512 336.56C389.506 336.561 389.501 336.561 389.497 336.561Z" fill="#000614"/>
<path d="M361.624 70.7321C361.588 71.3391 361.238 71.8321 360.841 71.8321C360.444 71.8321 360.151 71.3401 360.187 70.7321C360.222 70.1251 360.573 69.6321 360.97 69.6321C361.367 69.6321 361.66 70.1251 361.624 70.7321Z" fill="#000614"/>
<path d="M354.76 70.7321C354.724 71.3391 354.374 71.8321 353.977 71.8321C353.58 71.8321 353.287 71.3401 353.323 70.7321C353.359 70.1251 353.709 69.6321 354.106 69.6321C354.503 69.6321 354.796 70.1251 354.76 70.7321Z" fill="#000614"/>
<path d="M356.924 71.0341C356.924 71.0341 355.338 74.5381 353.718 76.2281C354.734 77.2311 356.587 76.7721 356.587 76.7721L356.924 71.0341Z" fill="#FF7070"/>
<path d="M357.099 79.3201C357.001 79.3201 356.925 79.2401 356.931 79.1421C356.937 79.0441 357.022 78.9641 357.12 78.9641C359.786 78.9641 361.139 77.1021 361.153 77.0831C361.213 77.0011 361.325 76.9771 361.403 77.0311C361.482 77.0851 361.499 77.1951 361.44 77.2781C361.38 77.3601 359.956 79.3201 357.099 79.3201Z" fill="#000614"/>
<path d="M362.845 68.8851C362.742 68.9251 362.626 68.9191 362.53 68.8581C361.218 68.0321 359.995 68.5861 359.983 68.5931C359.815 68.6791 359.592 68.6041 359.517 68.4261C359.442 68.2481 359.53 68.0351 359.712 67.9501C359.777 67.9191 361.308 67.2241 362.936 68.2491C363.099 68.3521 363.139 68.5711 363.027 68.7391C362.981 68.8071 362.916 68.8571 362.845 68.8851Z" fill="#000614"/>
<path d="M352.106 66.8901C352.057 66.8761 352.009 66.8511 351.97 66.8131C351.83 66.6831 351.83 66.4581 351.97 66.3101C353.366 64.8351 354.984 65.0601 355.052 65.0701C355.242 65.0911 355.369 65.2801 355.328 65.4751C355.287 65.6691 355.099 65.8031 354.907 65.7751C354.853 65.7671 353.59 65.6061 352.475 66.7831C352.376 66.8891 352.231 66.9261 352.106 66.8901Z" fill="#000614"/>
<path d="M389.73 107.756L379.327 104.987C379.327 104.987 369.127 130.095 365.524 131.734C360.621 133.965 348.207 141.681 342.931 145.402C342.638 146.646 342.868 149.962 343.532 150.865C352.503 149.235 369.762 142.6 373.361 139.227C381.567 131.538 389.73 107.756 389.73 107.756Z" fill="#FFADAD"/>
<path d="M382.471 355.336C381.898 355.336 381.368 355.238 381.044 354.953C380.787 354.726 380.682 354.408 380.731 354.01C380.767 353.713 380.932 353.572 381.066 353.506C381.915 353.08 384.264 354.57 384.529 354.742C384.587 354.781 384.615 354.852 384.6 354.923C384.584 354.993 384.528 355.05 384.457 355.066C383.926 355.192 383.167 355.336 382.471 355.336ZM381.444 353.778C381.351 353.778 381.272 353.792 381.21 353.823C381.161 353.848 381.102 353.894 381.086 354.032C381.051 354.316 381.117 354.528 381.29 354.68C381.681 355.027 382.661 355.073 383.955 354.815C383.133 354.323 382.021 353.778 381.444 353.778Z" fill="#004FFF"/>
<path d="M384.415 355.071C384.386 355.071 384.357 355.064 384.331 355.05C383.576 354.626 382.167 352.977 382.376 352.137C382.413 351.985 382.541 351.722 382.971 351.67C383.252 351.635 383.501 351.713 383.717 351.898C384.55 352.613 384.602 354.786 384.604 354.878C384.606 354.943 384.571 355.006 384.514 355.041C384.483 355.061 384.449 355.071 384.415 355.071ZM383.075 352.019C383.049 352.019 383.022 352.022 382.994 352.025C382.761 352.053 382.734 352.16 382.723 352.205C382.599 352.701 383.486 353.948 384.226 354.536C384.175 353.901 384.009 352.634 383.476 352.176C383.353 352.07 383.222 352.019 383.075 352.019Z" fill="#004FFF"/>
<path d="M355.917 354.092C355.181 354.27 354.479 354.323 354.031 354.08C353.746 353.926 353.582 353.668 353.544 353.317C353.521 353.107 353.592 352.924 353.747 352.787C354.553 352.07 357.815 352.841 358.185 352.931C358.257 352.949 358.308 353.011 358.311 353.087C358.314 353.163 358.27 353.234 358.199 353.267C357.594 353.541 356.734 353.894 355.917 354.092ZM354.291 352.904C354.154 352.937 354.046 352.984 353.975 353.047C353.912 353.103 353.889 353.167 353.899 353.259C353.925 353.497 354.029 353.663 354.215 353.765C354.746 354.054 355.979 353.825 357.566 353.161C356.451 352.927 354.993 352.733 354.291 352.904Z" fill="#004FFF"/>
<path d="M358.166 353.277C358.141 353.283 358.116 353.283 358.091 353.28C357.122 353.1 355.052 351.95 355.033 351.089C355.028 350.888 355.123 350.612 355.597 350.448C355.941 350.319 356.295 350.345 356.627 350.508C357.714 351.044 358.282 352.964 358.306 353.045C358.323 353.105 358.307 353.171 358.263 353.22C358.236 353.249 358.202 353.268 358.166 353.277ZM355.801 350.751C355.767 350.759 355.732 350.771 355.696 350.782C355.386 350.891 355.389 351.018 355.389 351.06C355.401 351.576 356.838 352.526 357.853 352.846C357.651 352.294 357.165 351.18 356.453 350.829C356.239 350.723 356.024 350.697 355.801 350.751Z" fill="#004FFF"/>
<path d="M343.778 144.811L333.35 149.611L332.14 152.553L335.994 155.146C335.994 155.146 343.186 154.363 345.235 149.742L343.778 144.811Z" fill="#FFADAD"/>
<path d="M344.222 151.035C343.57 147.161 342.296 145.394 342.284 145.377L343.928 144.144C343.992 144.229 345.503 146.269 346.249 150.694L344.222 151.035Z" fill="#000614"/>
<path d="M345.998 146.23C346.336 147.067 345.793 148.075 344.784 148.483C343.775 148.891 342.684 148.543 342.346 147.706C342.008 146.869 342.551 145.861 343.56 145.453C344.568 145.046 345.66 145.393 345.998 146.23Z" fill="#000614"/>
<path d="M326.304 153.487L327.689 154.89L337.046 150.888L333.35 149.612L326.304 153.487Z" fill="#FFADAD"/>
<path d="M366.49 336.265C366.546 336.242 367.914 340.093 367.914 340.093L354.07 345.906L351.889 341.851L366.49 336.265Z" fill="#000614"/>
<path d="M394.78 341.116C394.839 341.116 395.241 344.97 395.241 344.97H380.084L379.002 340.546L394.78 341.116Z" fill="#000614"/>
<path d="M392.441 104.878C395.192 113.745 384.481 125.858 384.481 125.858L369.633 119.798C369.633 119.798 371.725 113.356 375.706 104.725C380.232 94.9161 389.664 95.9291 392.441 104.878Z" fill="#004FFF"/>
<path d="M392.441 104.878C395.192 113.745 384.481 125.858 384.481 125.858L369.633 119.798C369.633 119.798 371.725 113.356 375.706 104.725C380.232 94.9161 389.664 95.9291 392.441 104.878Z" fill="#000614"/>
<path d="M244.874 16.0091H238.487V17.0371H244.874V16.0091Z" fill="#004FFF"/>
<path d="M327.603 56.7696L326.83 73.9284L327.856 73.9746L328.629 56.8158L327.603 56.7696Z" fill="#004FFF"/>
<path d="M325.613 20.6331H207.614L196.629 266.352H314.628L325.613 20.6331Z" fill="#004FFF"/>
<path d="M322.09 24.0051H204.091L193.107 269.724H311.106L322.09 24.0051Z" fill="#171B26"/>
<path d="M318.567 27.3771H200.569L189.584 273.096H307.583L318.567 27.3771Z" fill="#004FFF"/>
<path d="M305.136 134.545H204.419L203.578 153.351H304.296L305.136 134.545Z" fill="#0F121A"/>
<path d="M259.815 120.829H205.032L204.656 129.243H259.438L259.815 120.829Z" fill="#004FFF"/>
<path d="M302.868 185.288H202.15L201.309 204.094H302.027L302.868 185.288Z" fill="#0F121A"/>
<path d="M284.398 229.475H216.669L215.662 252.014H283.39L284.398 229.475Z" fill="#004FFF"/>
<path d="M279.868 255.505H212.14C212.108 255.505 212.077 255.491 212.054 255.468C212.032 255.445 212.02 255.413 212.022 255.381L213.03 232.842C213.032 232.778 213.085 232.728 213.148 232.728H280.876C280.908 232.728 280.939 232.742 280.962 232.765C280.984 232.788 280.996 232.82 280.994 232.852L279.986 255.391C279.984 255.455 279.931 255.505 279.868 255.505ZM212.264 255.267H279.754L280.75 232.966H213.26L212.264 255.267Z" fill="#0F121A"/>
<path d="M247.978 171.573H202.763L202.387 179.987H247.601L247.978 171.573Z" fill="#004FFF"/>
<path d="M283.106 73.8181C282.854 79.4491 280.813 84.6491 277.541 88.8731C272.6 95.2751 264.861 99.4371 256.342 99.4371C247.823 99.4371 240.466 95.2751 236.098 88.8731C233.204 84.6491 231.628 79.4501 231.88 73.8181C232.513 59.6681 244.493 48.2001 258.633 48.2001C272.783 48.1991 283.738 59.6681 283.106 73.8181Z" fill="#0F121A"/>
<path d="M285.515 53.5621C285.448 55.0581 284.906 56.4401 284.036 57.5621C282.723 59.2631 280.667 60.3691 278.403 60.3691C276.139 60.3691 274.185 59.2631 273.024 57.5621C272.255 56.4401 271.836 55.0581 271.903 53.5621C272.071 49.8021 275.255 46.7551 279.012 46.7551C282.772 46.7551 285.683 49.8021 285.515 53.5621Z" fill="#004FFF"/>
<path d="M213.03 143.452C212.956 145.116 211.546 146.465 209.882 146.465C208.218 146.465 206.929 145.116 207.003 143.452C207.077 141.788 208.487 140.439 210.151 140.439C211.816 140.438 213.105 141.788 213.03 143.452Z" fill="#F2F4F7"/>
<path d="M226.03 143.452C225.956 145.116 224.546 146.465 222.882 146.465C221.218 146.465 219.929 145.116 220.003 143.452C220.077 141.788 221.487 140.439 223.151 140.439C224.815 140.439 226.105 141.788 226.03 143.452Z" fill="#F2F4F7"/>
<path d="M239.03 143.452C238.956 145.116 237.546 146.465 235.882 146.465C234.218 146.465 232.929 145.116 233.003 143.452C233.077 141.788 234.487 140.439 236.151 140.439C237.815 140.438 239.104 141.788 239.03 143.452Z" fill="#F2F4F7"/>
<path d="M212.997 194.453C212.923 196.117 211.513 197.466 209.849 197.466C208.185 197.466 206.896 196.117 206.97 194.453C207.044 192.789 208.454 191.439 210.118 191.439C211.782 191.44 213.071 192.789 212.997 194.453Z" fill="#F2F4F7"/>
<path d="M226.03 194.453C225.956 196.117 224.546 197.466 222.882 197.466C221.218 197.466 219.929 196.117 220.003 194.453C220.077 192.789 221.487 191.439 223.151 191.439C224.816 191.44 226.104 192.789 226.03 194.453Z" fill="#F2F4F7"/>
<path d="M239.971 194.691C239.897 196.355 238.487 197.704 236.823 197.704C235.159 197.704 233.87 196.355 233.944 194.691C234.018 193.027 235.428 191.677 237.092 191.677C238.756 191.677 240.046 193.027 239.971 194.691Z" fill="#F2F4F7"/>
<path d="M253.459 194.691C253.385 196.355 251.975 197.704 250.311 197.704C248.647 197.704 247.358 196.355 247.432 194.691C247.506 193.027 248.916 191.677 250.58 191.677C252.244 191.678 253.533 193.027 253.459 194.691Z" fill="#F2F4F7"/>
<path d="M266.946 194.691C266.872 196.355 265.462 197.704 263.798 197.704C262.134 197.704 260.845 196.355 260.919 194.691C260.993 193.027 262.403 191.677 264.067 191.677C265.731 191.678 267.02 193.027 266.946 194.691Z" fill="#F2F4F7"/>
<path d="M268.236 65.2551C267.98 70.9771 263.134 75.6161 257.411 75.6161C251.689 75.6161 247.257 70.9771 247.513 65.2551C247.769 59.5321 252.615 54.8941 258.338 54.8941C264.06 54.8941 268.492 59.5331 268.236 65.2551Z" fill="#004FFF"/>
<path d="M277.541 88.8721C272.6 95.2741 264.861 99.4361 256.342 99.4361C247.823 99.4361 240.466 95.2741 236.098 88.8721C240.959 84.0321 248.653 80.8881 257.172 80.8881C265.7 80.8881 273.113 84.0321 277.541 88.8721Z" fill="#004FFF"/>
<path d="M268.236 65.2551C267.98 70.9771 263.134 75.6161 257.411 75.6161C251.689 75.6161 247.257 70.9771 247.513 65.2551C247.769 59.5321 252.615 54.8941 258.338 54.8941C264.06 54.8941 268.492 59.5331 268.236 65.2551Z" fill="#262D40"/>
<path d="M277.541 88.8721C272.6 95.2741 264.861 99.4361 256.342 99.4361C247.823 99.4361 240.466 95.2741 236.098 88.8721C240.959 84.0321 248.653 80.8881 257.172 80.8881C265.7 80.8881 273.113 84.0321 277.541 88.8721Z" fill="#262D40"/>
<path d="M130.407 157.882C129.46 159.959 128.463 162.244 127.588 164.473C126.706 166.723 125.826 168.975 125.059 171.259C123.569 175.827 122.172 180.437 121.484 185.06L121.256 186.532C121.238 186.709 121.251 186.961 121.329 187.277C121.475 187.912 121.871 188.762 122.428 189.596C123.554 191.283 125.15 192.991 126.871 194.577C128.588 196.188 130.453 197.729 132.391 199.192C134.31 200.668 136.334 202.113 138.314 203.467L136.45 206.976C131.692 204.896 127.261 202.409 122.969 199.288C120.859 197.68 118.775 195.949 116.929 193.609C116.019 192.429 115.124 191.096 114.538 189.336C114.254 188.458 114.056 187.465 114.055 186.391C114.062 186.144 114.075 185.797 114.092 185.631L114.141 185.134L114.241 184.14C114.785 178.839 115.959 173.744 117.506 168.802C118.286 166.334 119.118 163.891 120.068 161.494C121.038 159.081 121.995 156.765 123.208 154.336L130.407 157.882Z" fill="#FFADAD"/>
<path d="M136.914 202.871L143.98 199.286L142.155 207.052C142.155 207.052 137.303 208.407 135.046 206.053L136.914 202.871Z" fill="#FFADAD"/>
<path d="M150.451 200.561L148.571 206.981L142.154 207.053L143.98 199.286L150.451 200.561Z" fill="#FFADAD"/>
<path d="M160.432 120.44C160.432 120.44 161.045 122.694 162.017 124.393C161.182 125.173 160.432 124.902 160.432 124.902V120.44Z" fill="#FF7070"/>
<path d="M160.223 120.499C160.637 120.499 160.972 119.986 160.972 119.353C160.972 118.72 160.637 118.207 160.223 118.207C159.809 118.207 159.474 118.72 159.474 119.353C159.474 119.986 159.809 120.499 160.223 120.499Z" fill="#000614"/>
<path d="M160.04 118.242L161.56 117.804C161.56 117.804 160.78 118.992 160.04 118.242Z" fill="#000614"/>
<path d="M140.897 127.775C141.81 132.43 142.721 140.96 139.463 144.066C139.463 144.066 140.736 148.788 149.386 148.788C158.898 148.788 153.932 144.066 153.932 144.066C148.741 142.826 148.875 138.975 149.779 135.358L140.897 127.775Z" fill="#FFADAD"/>
<path d="M138.373 117.181C138.85 124.953 138.886 128.252 142.812 132.241C148.716 138.241 158.157 135.955 160.012 128.198C161.681 121.215 160.62 109.679 153.013 106.586C145.517 103.539 137.895 109.409 138.373 117.181Z" fill="#FFADAD"/>
<path d="M139.139 108.387C135.242 109.808 130.043 108.751 132.083 120.78C134.243 133.517 130.918 137.707 130.918 137.707C130.918 137.707 145.71 140.858 160.81 137.519C160.81 137.519 156.2 129.457 157.494 123.574C159.144 116.071 157.836 113.298 157.836 113.298C157.836 113.298 144.619 106.389 139.139 108.387Z" fill="#000614"/>
<path d="M155.64 121.231C155.624 122.771 156.164 124.322 156.864 125.399C157.917 127.02 159.167 126.36 159.48 124.677C159.762 123.163 159.553 120.495 158.204 119.46C156.876 118.442 155.659 119.471 155.64 121.231Z" fill="#FFADAD"/>
<path d="M135.754 109.748C134.629 106.603 139.973 101.766 151.271 103.778C162.569 105.79 163.065 115.186 163.065 115.186L160.779 112.473L160.882 115.33L149.271 117.561L135.754 109.748Z" fill="#000614"/>
<path d="M136.712 144.595C136.556 143.634 137.202 142.729 138.162 142.571C141.68 141.99 149.676 140.814 153.701 141.371C156.691 141.785 157.482 143.531 157.608 144.959C157.702 146.018 156.826 146.911 155.764 146.863L138.375 146.077C137.54 146.039 136.845 145.421 136.712 144.595Z" fill="#004FFF"/>
<path d="M136.712 144.595C136.556 143.634 137.202 142.729 138.162 142.571C141.68 141.99 149.676 140.814 153.701 141.371C156.691 141.785 157.482 143.531 157.608 144.959C157.702 146.018 156.826 146.911 155.764 146.863L138.375 146.077C137.54 146.039 136.845 145.421 136.712 144.595Z" fill="#000614"/>
<path d="M146.76 319.301L153.205 323.775L163.997 309.149L157.552 304.675L146.76 319.301Z" fill="#FFADAD"/>
<path d="M131.715 319.005L138.533 322.888L148.084 307.419L141.267 303.537L131.715 319.005Z" fill="#FFADAD"/>
<path d="M163.992 309.152L158.431 316.692L151.984 312.216L157.545 304.676L163.992 309.152Z" fill="#FF7070"/>
<path d="M141.263 303.54L148.083 307.424L143.156 315.396L136.336 311.512L141.263 303.54Z" fill="#FF7070"/>
<path d="M152.198 193.427C152.198 193.427 177.378 225.162 172.654 255.509C168.838 280.021 146.741 313.212 146.741 313.212L136.351 308.048C136.351 308.048 147.64 285.99 155.053 262.607C158.162 252.801 156.837 241.998 151.025 233.51C138.27 214.88 117.835 225.965 131.581 193.428L152.198 193.427Z" fill="#004FFF"/>
<path d="M152.198 193.427C152.198 193.427 177.378 225.162 172.654 255.509C168.838 280.021 146.741 313.212 146.741 313.212L136.351 308.048C136.351 308.048 147.64 285.99 155.053 262.607C158.162 252.801 156.837 241.998 151.025 233.51C138.27 214.88 117.835 225.965 131.581 193.428L152.198 193.427Z" fill="#000614"/>
<path d="M164.549 213.819L160.891 210.181C160.891 210.469 167.982 254.235 169.975 266.535C171.177 262.764 172.102 259.044 172.657 255.509C174.969 240.65 170.108 225.452 164.549 213.819Z" fill="#000614"/>
<path d="M163.444 193.427C163.444 193.427 193.763 233.307 194.616 257.222C195.331 277.26 161.591 315.967 161.591 315.967L151.796 309.63C151.796 309.63 171.525 282.113 176.492 259.619C174.598 237.354 133.95 193.426 133.95 193.426H163.444V193.427Z" fill="#004FFF"/>
<path d="M163.444 193.427C163.444 193.427 193.763 233.307 194.616 257.222C195.331 277.26 161.591 315.967 161.591 315.967L151.796 309.63C151.796 309.63 171.525 282.113 176.492 259.619C174.598 237.354 133.95 193.426 133.95 193.426H163.444V193.427Z" fill="#000614"/>
<path d="M125.933 145.849C122.686 146.615 119.583 158.402 119.583 158.402L132.246 166.855C132.246 166.855 136.466 157.539 134.993 153.458C133.458 149.208 130.033 144.882 125.933 145.849Z" fill="#004FFF"/>
<path d="M128.411 153.433L127.526 163.702L132.24 166.857C132.24 166.857 134.449 161.976 135.107 157.722L128.411 153.433Z" fill="#000614"/>
<path d="M167.193 146.076C167.193 146.076 170.93 147.392 163.444 193.427C150.8 193.427 137.733 193.428 131.581 193.428C132.116 180.46 132.131 172.462 125.933 145.849C125.933 145.849 132.609 144.397 139.463 144.066C144.825 143.808 149.218 143.636 153.932 144.067C160.146 144.634 167.193 146.076 167.193 146.076Z" fill="#004FFF"/>
<path d="M170.429 153.386C171.151 155.381 171.915 157.539 172.71 159.611C173.473 161.714 174.265 163.813 175.082 165.903L177.534 172.184L178.154 173.754L178.465 174.539L178.621 174.931C178.648 175.001 178.643 174.995 178.633 174.988C178.59 174.969 178.553 174.771 177.933 174.364C177.629 174.175 177.119 173.993 176.627 173.983C176.132 173.965 175.74 174.086 175.515 174.184C175.064 174.399 175.057 174.492 175.067 174.477C175.096 174.462 175.189 174.373 175.291 174.25C175.728 173.725 176.256 172.82 176.719 171.92C177.192 171.003 177.639 170.023 178.084 169.029C178.969 167.036 179.774 164.956 180.593 162.873C181.403 160.784 182.166 158.664 182.922 156.538L185.198 150.156L189.051 151.127C188.289 155.692 187.303 160.163 186.128 164.65C185.554 166.898 184.89 169.127 184.131 171.377C183.753 172.504 183.33 173.628 182.844 174.774C182.339 175.929 181.838 177.068 180.944 178.391C180.709 178.726 180.443 179.08 180.072 179.47C179.68 179.854 179.227 180.318 178.25 180.757C177.764 180.966 177.088 181.151 176.308 181.12C175.531 181.098 174.743 180.822 174.198 180.484C173.09 179.776 172.707 179.102 172.379 178.596C172.227 178.342 172.097 178.08 172.007 177.891L171.437 176.727L170.681 175.174C169.693 173.093 168.725 171.001 167.808 168.886C166.9 166.766 166.015 164.634 165.157 162.486C164.336 160.305 163.524 158.192 162.801 155.872L170.429 153.386Z" fill="#FFADAD"/>
<path d="M167.193 146.076C171.023 146.988 175.326 158.304 175.326 158.304L163.944 168.003C163.944 168.003 156.567 155.664 158.06 151.59C159.614 147.347 162.19 144.884 167.193 146.076Z" fill="#004FFF"/>
<path d="M186.976 146.628L190.971 143.287L193.75 147.616L191.703 151.231C191.703 151.231 188.443 154.215 185.557 152.697C184.625 150.584 185.204 148.11 186.976 146.628Z" fill="#FFADAD"/>
<path d="M198.222 143.297L197.923 144.386L191.594 145.449L190.971 143.287L198.222 143.297Z" fill="#FFADAD"/>
<path d="M162.402 316.492L150.983 309.106L153.028 305.55L165.861 313.439L162.402 316.492Z" fill="#004FFF"/>
<path d="M142.983 322.365C142.075 322.365 140.88 321.789 140.156 321.387C140.091 321.351 140.054 321.28 140.062 321.205C140.069 321.132 140.12 321.07 140.19 321.046C140.498 320.949 143.207 320.119 143.974 320.763C144.095 320.865 144.23 321.053 144.187 321.366C144.131 321.781 143.941 322.074 143.623 322.232C143.439 322.324 143.221 322.365 142.983 322.365ZM140.734 321.274C141.976 321.906 142.976 322.139 143.457 321.9C143.662 321.798 143.78 321.607 143.82 321.316C143.841 321.159 143.786 321.09 143.735 321.048C143.332 320.709 141.83 320.973 140.734 321.274Z" fill="#000614"/>
<path d="M140.247 321.409C140.197 321.409 140.149 321.389 140.114 321.353C140.068 321.305 140.051 321.237 140.069 321.173C140.095 321.081 140.719 318.909 141.746 318.414C142.02 318.283 142.298 318.276 142.57 318.389C143.002 318.571 143.045 318.887 143.03 319.058C142.96 319.957 141.127 321.199 140.291 321.403C140.277 321.407 140.262 321.409 140.247 321.409ZM142.185 318.682C142.093 318.682 142 318.705 141.906 318.75C141.294 319.045 140.78 320.217 140.534 320.93C141.414 320.56 142.615 319.578 142.658 319.03C142.665 318.941 142.645 318.825 142.424 318.733C142.345 318.699 142.265 318.682 142.185 318.682Z" fill="#000614"/>
<path d="M157.268 326.686C156.142 326.686 154.572 325.239 153.713 324.35C153.658 324.293 153.645 324.208 153.68 324.137C153.716 324.067 153.806 324.027 153.87 324.036C154.266 324.087 157.744 324.557 158.235 325.539C158.329 325.729 158.321 325.931 158.212 326.124C158.028 326.448 157.761 326.634 157.42 326.677C157.371 326.683 157.32 326.686 157.268 326.686ZM154.371 324.484C155.635 325.712 156.739 326.392 157.374 326.307C157.596 326.279 157.764 326.16 157.889 325.94C157.937 325.856 157.941 325.782 157.902 325.705C157.635 325.171 155.778 324.71 154.371 324.484Z" fill="#000614"/>
<path d="M154.481 324.453C154.224 324.453 153.994 324.437 153.813 324.403C153.749 324.391 153.695 324.346 153.672 324.285C153.65 324.223 153.661 324.153 153.703 324.102C153.76 324.033 155.113 322.402 156.391 322.29C156.791 322.259 157.13 322.365 157.42 322.613C157.813 322.95 157.786 323.25 157.694 323.442C157.377 324.108 155.649 324.453 154.481 324.453ZM154.223 324.078C155.34 324.14 157.126 323.769 157.359 323.282C157.379 323.241 157.438 323.117 157.179 322.896C156.963 322.711 156.713 322.634 156.424 322.66C155.585 322.734 154.648 323.624 154.223 324.078Z" fill="#000614"/>
<path d="M140.521 320.357L132.039 317.959C131.73 317.872 131.419 318.015 131.291 318.304L128.428 324.741C128.131 325.409 128.543 326.237 129.259 326.426C132.23 327.211 133.704 327.44 137.434 328.495C139.729 329.144 143.014 330.33 146.183 331.225C149.282 332.101 150.406 329.035 149.167 328.378C143.61 325.433 143.172 323.414 141.652 321.177C141.378 320.774 140.973 320.485 140.521 320.357Z" fill="#004FFF"/>
<path d="M153.944 323.182L146.704 318.155C146.44 317.972 146.1 318.007 145.884 318.238L141.082 323.394C140.584 323.929 140.705 324.846 141.32 325.257C143.874 326.966 145.194 327.662 148.378 329.873C150.337 331.233 154.247 334.249 156.952 336.127C159.598 337.964 161.658 335.43 160.7 334.406C156.404 329.814 155.456 326.936 154.747 324.325C154.618 323.855 154.329 323.449 153.944 323.182Z" fill="#004FFF"/>
<path d="M148.075 313.875L135.018 307.386L136.37 303.853L150.306 310.684L148.075 313.875Z" fill="#004FFF"/>
<path d="M131.104 191.557L129.999 194.409C129.887 194.63 130.149 194.856 130.518 194.856H163.601C163.888 194.856 164.126 194.715 164.144 194.535L164.431 191.683C164.451 191.485 164.202 191.318 163.888 191.318H131.622C131.386 191.318 131.176 191.415 131.104 191.557Z" fill="#004FFF"/>
<path d="M131.104 191.557L129.999 194.409C129.887 194.63 130.149 194.856 130.518 194.856H163.601C163.888 194.856 164.126 194.715 164.144 194.535L164.431 191.683C164.451 191.485 164.202 191.318 163.888 191.318H131.622C131.386 191.318 131.176 191.415 131.104 191.557Z" fill="#0F121A"/>
<path d="M136.307 195.165H135.443C135.271 195.165 135.14 195.076 135.152 194.968L135.557 191.263C135.569 191.155 135.719 191.066 135.892 191.066H136.756C136.928 191.066 137.059 191.155 137.047 191.263L136.642 194.968C136.63 195.077 136.479 195.165 136.307 195.165Z" fill="#004FFF"/>
<path d="M156.714 195.165H155.85C155.678 195.165 155.547 195.076 155.559 194.968L155.964 191.263C155.976 191.155 156.126 191.066 156.299 191.066H157.163C157.335 191.066 157.466 191.155 157.454 191.263L157.049 194.968C157.037 195.077 156.886 195.165 156.714 195.165Z" fill="#004FFF"/>
<path d="M135.546 364.526C150.342 364.526 162.337 363.656 162.337 362.582C162.337 361.508 150.342 360.638 135.546 360.638C120.75 360.638 108.755 361.508 108.755 362.582C108.755 363.656 120.75 364.526 135.546 364.526Z" fill="#171B26"/>
<path d="M151.873 359.839C147.133 358.463 141.916 356.69 138.688 354.805C138.598 354.753 138.503 354.715 138.412 354.667V333.238H147.946C149.523 333.238 150.801 331.96 150.801 330.383C150.801 328.807 149.523 327.529 147.946 327.529H138.412V229.706H132.703V327.529H123.169C121.593 327.529 120.315 328.807 120.315 330.383C120.315 331.96 121.593 333.238 123.169 333.238H132.703V354.666C132.612 354.714 132.517 354.751 132.427 354.804C129.199 356.689 123.982 358.462 119.242 359.838C117.687 360.289 118.015 362.58 119.634 362.58H151.48C153.1 362.581 153.428 360.29 151.873 359.839Z" fill="#0F121A"/>
<path d="M153.34 240.686H117.775C114.926 240.686 112.595 238.355 112.595 235.506V224.933C112.595 222.084 114.926 219.753 117.775 219.753H153.34C156.189 219.753 158.52 222.084 158.52 224.933V235.506C158.52 238.355 156.189 240.686 153.34 240.686Z" fill="#004FFF"/>
<path d="M117.448 240.686V242.506C117.448 244.006 119.081 245.234 121.076 245.234H150.039C152.034 245.234 153.667 244.007 153.667 242.506V240.686H117.448Z" fill="#004FFF"/>
<path d="M117.448 240.686V242.506C117.448 244.006 119.081 245.234 121.076 245.234H150.039C152.034 245.234 153.667 244.007 153.667 242.506V240.686H117.448Z" fill="#0F121A"/>
</svg>
