<svg width="57" height="57" viewBox="0 0 57 57" fill="none" xmlns="http://www.w3.org/2000/svg">
<path fill-rule="evenodd" clip-rule="evenodd" d="M7.84102 17.8151C7.84102 8.92689 17.6305 1.22403 24.7632 0.0817871C20.343 5.25718 17.6817 11.9277 17.6817 19.208C17.6817 24.544 19.1113 29.5524 21.6152 33.8846C16.0744 31.4015 7.84102 25.3423 7.84102 17.8151ZM30.9101 4.28179C38.9831 0.742758 49.1902 6.33538 53.0677 12.4886C46.607 10.4542 39.4887 10.6447 32.8762 13.5435C28.0297 15.6681 24.05 18.9867 21.1121 23.0314C21.1613 16.9095 24.0734 7.27889 30.9101 4.28179ZM54.5621 41.043C57.6956 34.4717 56.5986 24.0749 49.3654 19.0118C43.2398 14.7241 34.0237 15.9898 28.8467 19.1746C33.7986 19.564 38.6887 21.2303 43.0311 24.2698C48.9558 28.417 52.8683 34.4258 54.5621 41.043ZM47.5199 41.6813C46.4765 50.5069 36.6997 55.8016 29.4832 56.0818C34.4798 51.4722 37.9053 45.1673 38.7599 37.9383C39.3863 32.64 38.5547 27.4958 36.577 22.8943C41.7872 26.0234 48.4035 34.2072 47.5199 41.6813ZM5.53315 42.9276C9.46763 49.0437 19.1794 54.0971 27.2191 50.4818C34.0277 47.42 37.3971 38.2045 37.3894 32.0824C34.4892 36.1548 30.5405 39.5109 25.714 41.6813C19.1286 44.6427 12.0124 44.9006 5.53315 42.9276ZM8.76379 40.2151C0.854408 36.3176 -1.1035 25.9869 1.00779 19.0118C3.67493 25.2934 8.44384 30.634 14.9224 33.8265C19.6707 36.1664 24.7544 37.065 29.7075 36.692C25.0682 40.6323 15.462 43.5159 8.76379 40.2151Z" fill="#F2F4F7"/>
</svg>
