<svg width="500" height="500" viewBox="0 0 500 500" fill="none" xmlns="http://www.w3.org/2000/svg">
<rect width="500" height="500" rx="250" fill="#004FFF"/>
<path fill-rule="evenodd" clip-rule="evenodd" d="M339.34 287.064C328.317 331.144 295.253 343.333 250 343.333C194 343.333 156.667 324.667 156.667 250C156.667 175.333 194 156.667 250 156.667C295.253 156.667 328.317 168.856 339.34 212.936C322.217 213.674 309.281 215.952 299.813 220.009C293.646 222.652 287.928 226.48 283.801 232.107C279.499 237.974 278 244.333 278 250C278 255.667 279.499 262.026 283.801 267.893C287.928 273.52 293.646 277.347 299.813 279.991C309.281 284.048 322.217 286.326 339.34 287.064ZM203.333 212.667C203.333 207.512 207.512 203.333 212.667 203.333H250C255.155 203.333 259.333 207.512 259.333 212.667C259.333 217.821 255.155 222 250 222H212.667C207.512 222 203.333 217.821 203.333 212.667Z" fill="#F2F4F7"/>
<path d="M342.472 268.503C304.609 267.219 296.667 258.61 296.667 250C296.667 241.39 304.609 232.78 342.472 231.497C343.042 237.245 343.333 243.404 343.333 250C343.333 256.596 343.042 262.755 342.472 268.503Z" fill="#F2F4F7"/>
</svg>
