<svg width="50" height="50" viewBox="0 0 50 50" fill="none" xmlns="http://www.w3.org/2000/svg">
<g clip-path="url(#clip0_106_16653)">
<path d="M-0.000976562 13.3005H49.9989V9.48271C49.9989 9.00664 49.6129 8.62061 49.1368 8.62061H0.861131C0.385058 8.62061 -0.000976562 9.00664 -0.000976562 9.48271V13.3005Z" fill="#73AF00"/>
<path d="M49.9989 13.3008H-0.000976562V17.9808H49.9989V13.3008Z" fill="#F5F5F5"/>
<path d="M49.9989 17.9805H-0.000976562V22.6604H49.9989V17.9805Z" fill="#73AF00"/>
<path d="M49.9989 22.6602H-0.000976562V27.3401H49.9989V22.6602Z" fill="#F5F5F5"/>
<path d="M49.9989 27.3408H-0.000976562V32.0208H49.9989V27.3408Z" fill="#73AF00"/>
<path d="M49.9989 32.0195H-0.000976562V36.6995H49.9989V32.0195Z" fill="#F5F5F5"/>
<path d="M0.861131 41.3791H49.1369C49.613 41.3791 49.999 40.9931 49.999 40.517V36.6992H-0.000976562V40.517C-0.000976562 40.9932 0.385058 41.3791 0.861131 41.3791Z" fill="#73AF00"/>
<path d="M0.861131 22.66H24.1369C24.6129 22.66 24.999 22.274 24.999 21.7979V9.48271C24.999 9.00664 24.6129 8.62061 24.1369 8.62061H0.861131C0.385058 8.62061 -0.000976562 9.00664 -0.000976562 9.48271V21.7979C-0.000976562 22.274 0.385058 22.66 0.861131 22.66Z" fill="#FF4B55"/>
<path d="M13.2552 21.5515H11.8653C11.7389 21.5515 11.6257 21.4728 11.5819 21.3542L11.1343 20.146C10.9596 19.6743 10.8812 19.1724 10.9037 18.6699L11.0595 15.1802C11.0635 15.0916 11.1204 15.0142 11.2037 14.9839C11.3466 14.9319 11.498 15.0378 11.498 15.1901V16.7792C11.498 16.8236 11.534 16.8597 11.5785 16.8597C11.6213 16.8597 11.6567 16.8261 11.6588 16.7832L11.7837 14.2492C11.7888 14.1463 11.8662 14.0615 11.9681 14.047C12.0945 14.0289 12.2087 14.1243 12.2135 14.2521L12.2998 16.6145C12.3015 16.6619 12.3435 16.6977 12.3906 16.6917C12.4304 16.6867 12.4606 16.6532 12.4614 16.613L12.5132 13.9879C12.5161 13.8446 12.6571 13.745 12.7931 13.7904C12.8764 13.8182 12.934 13.8942 12.9382 13.9819L13.0664 16.6352C13.0677 16.6647 13.085 16.6911 13.1114 16.7043C13.1647 16.7311 13.2278 16.6935 13.2295 16.6337L13.2938 14.5779C13.2987 14.4226 13.4613 14.3235 13.6015 14.3903C13.6723 14.4239 13.7192 14.4936 13.7238 14.5719L13.8734 17.0951L14.2737 18.2628C14.2962 18.3284 14.3883 18.3296 14.4121 18.2646C14.5255 17.9551 14.7829 17.3772 15.1957 17.1227C15.2689 17.0777 15.3626 17.0834 15.4314 17.135C15.5325 17.2109 15.5443 17.357 15.4579 17.4491C15.2566 17.6634 14.9631 18.1137 14.9843 18.9054C14.9871 19.0062 14.9579 19.1052 14.8983 19.1865L13.7704 20.7274C13.6575 20.8816 13.585 21.0618 13.5597 21.2514L13.5546 21.2892C13.5349 21.4394 13.4068 21.5515 13.2552 21.5515Z" fill="#F5F5F5"/>
<path d="M12.564 9.8012L12.7905 10.4803L13.5063 10.4858C13.5617 10.4862 13.5847 10.557 13.5401 10.59L12.9642 11.0152L13.1801 11.6977C13.1968 11.7506 13.1366 11.7944 13.0915 11.762L12.5091 11.3457L11.9267 11.762C11.8816 11.7943 11.8214 11.7505 11.8381 11.6977L12.054 11.0152L11.4782 10.59C11.4335 10.557 11.4565 10.4862 11.5119 10.4858L12.2278 10.4803L12.4542 9.8012C12.4719 9.74856 12.5464 9.74856 12.564 9.8012Z" fill="#F5F5F5"/>
<path d="M9.19632 10.7783L9.42278 11.4574L10.1386 11.4629C10.1941 11.4633 10.217 11.5341 10.1724 11.5671L9.59651 11.9923L9.81243 12.6748C9.82913 12.7277 9.76897 12.7715 9.72385 12.7392L9.14143 12.3228L8.55901 12.7392C8.5139 12.7714 8.45374 12.7276 8.47044 12.6748L8.68636 11.9923L8.11048 11.5671C8.06585 11.5341 8.0888 11.4633 8.14427 11.4629L8.86009 11.4574L9.08655 10.7783C9.10442 10.7256 9.17874 10.7256 9.19632 10.7783Z" fill="#F5F5F5"/>
<path d="M16.0132 10.7783L16.2397 11.4574L16.9555 11.4629C17.011 11.4633 17.0339 11.5341 16.9893 11.5671L16.4134 11.9923L16.6293 12.6748C16.646 12.7277 16.5859 12.7715 16.5407 12.7392L15.9583 12.3228L15.3759 12.7392C15.3308 12.7714 15.2706 12.7276 15.2873 12.6748L15.5033 11.9923L14.9274 11.5671C14.8827 11.5341 14.9057 11.4633 14.9612 11.4629L15.677 11.4574L15.9034 10.7783C15.9213 10.7256 15.9956 10.7256 16.0132 10.7783Z" fill="#F5F5F5"/>
<path d="M18.2715 13.3461L18.498 14.0252L19.2138 14.0307C19.2693 14.0311 19.2922 14.1019 19.2476 14.1349L18.6717 14.5601L18.8876 15.2426C18.9043 15.2955 18.8442 15.3393 18.799 15.307L18.2166 14.8906L17.6342 15.307C17.5891 15.3392 17.5289 15.2954 17.5456 15.2426L17.7616 14.5601L17.1857 14.1349C17.141 14.1019 17.164 14.0311 17.2195 14.0307L17.9353 14.0252L18.1617 13.3461C18.1796 13.2935 18.2539 13.2935 18.2715 13.3461Z" fill="#F5F5F5"/>
<path d="M6.75003 13.3461L6.97649 14.0252L7.69231 14.0307C7.74778 14.0311 7.77073 14.1019 7.7261 14.1349L7.15022 14.5601L7.36614 15.2426C7.38284 15.2955 7.32268 15.3393 7.27756 15.307L6.69514 14.8906L6.11272 15.307C6.06761 15.3392 6.00745 15.2954 6.02415 15.2426L6.24007 14.5601L5.66419 14.1349C5.61956 14.1019 5.64251 14.0311 5.69798 14.0307L6.4138 14.0252L6.64026 13.3461C6.65794 13.2935 6.73245 13.2935 6.75003 13.3461Z" fill="#F5F5F5"/>
<path d="M18.9209 16.7143L19.1474 17.3934L19.8632 17.3989C19.9187 17.3992 19.9416 17.47 19.897 17.503L19.3211 17.9282L19.537 18.6108C19.5537 18.6637 19.4936 18.7074 19.4485 18.6751L18.866 18.2588L18.2836 18.6751C18.2385 18.7073 18.1783 18.6636 18.195 18.6108L18.411 17.9282L17.8351 17.503C17.7905 17.47 17.8134 17.3992 17.8689 17.3989L18.5847 17.3934L18.8112 16.7143C18.8288 16.6616 18.9033 16.6616 18.9209 16.7143Z" fill="#F5F5F5"/>
<path d="M5.87258 16.7143L6.09905 17.3934L6.81487 17.3989C6.87034 17.3992 6.89329 17.47 6.84866 17.503L6.27278 17.9282L6.4887 18.6108C6.5054 18.6637 6.44524 18.7074 6.40012 18.6751L5.8177 18.2588L5.23528 18.6751C5.19016 18.7073 5.13001 18.6636 5.14671 18.6108L5.36263 17.9282L4.78675 17.503C4.74212 17.47 4.76507 17.3992 4.82054 17.3989L5.53636 17.3934L5.76282 16.7143C5.78059 16.6616 5.85501 16.6616 5.87258 16.7143Z" fill="#F5F5F5"/>
</g>
<defs>
<clipPath id="clip0_106_16653">
<rect width="50" height="50" fill="white"/>
</clipPath>
</defs>
</svg>
