<svg width="50" height="50" viewBox="0 0 50 50" fill="none" xmlns="http://www.w3.org/2000/svg">
<g clip-path="url(#clip0_106_16619)">
<path d="M16.6667 41.3792H0.86211C0.386035 41.3792 0 40.9932 0 40.5171V9.48271C0 9.00664 0.386035 8.62061 0.86211 8.62061H16.6667V41.3792Z" fill="#464655"/>
<path d="M33.334 8.62061H16.667V41.3794H33.334V8.62061Z" fill="#FF4B55"/>
<path d="M49.1381 41.3792H33.3335V8.62061H49.1381C49.6142 8.62061 50.0002 9.00664 50.0002 9.48271V40.5171C50.0002 40.9933 49.6142 41.3792 49.1381 41.3792Z" fill="#73AF00"/>
<path d="M27.251 26.6899H22.7515L23.0015 26.1899H27.001L27.251 26.6899Z" fill="#F5F5F5"/>
<path d="M27.251 22.6899H22.7515L23.0015 23.1899H27.001L27.251 22.6899Z" fill="#F5F5F5"/>
<path d="M26.2512 22.9398H23.7515L24.2515 22.4399H25.7513L26.2512 22.9398Z" fill="#F5F5F5"/>
<path d="M23.7509 25.4399H23.001V25.9399H23.7509V25.4399Z" fill="#F5F5F5"/>
<path d="M23.7509 24.6899H23.001V25.1899H23.7509V24.6899Z" fill="#F5F5F5"/>
<path d="M23.7509 23.4399H23.001V23.9399H23.7509V23.4399Z" fill="#F5F5F5"/>
<path d="M23.7509 24.1899H23.001V24.4399H23.7509V24.1899Z" fill="#F5F5F5"/>
<path d="M27.0009 25.4399H26.251V25.9399H27.0009V25.4399Z" fill="#F5F5F5"/>
<path d="M27.0009 24.6899H26.251V25.1899H27.0009V24.6899Z" fill="#F5F5F5"/>
<path d="M27.0009 23.4399H26.251V23.9399H27.0009V23.4399Z" fill="#F5F5F5"/>
<path d="M27.0009 24.1899H26.251V24.4399H27.0009V24.1899Z" fill="#F5F5F5"/>
<path d="M23.751 21.4399H23.251V22.4398H23.751V21.4399Z" fill="#F5F5F5"/>
<path d="M23.751 21.1904H23.251V20.9404C23.251 20.8023 23.3629 20.6904 23.501 20.6904C23.6391 20.6904 23.751 20.8023 23.751 20.9404V21.1904Z" fill="#F5F5F5"/>
<path d="M26.751 21.4399H26.251V22.4398H26.751V21.4399Z" fill="#F5F5F5"/>
<path d="M26.751 21.1904H26.251V20.9404C26.251 20.8023 26.3629 20.6904 26.501 20.6904C26.6391 20.6904 26.751 20.8023 26.751 20.9404V21.1904Z" fill="#F5F5F5"/>
<path d="M25.0009 23.4399C24.4486 23.4399 24.001 23.8876 24.001 24.4398V25.9397H26.0008V24.4398C26.0008 23.8876 25.5532 23.4399 25.0009 23.4399Z" fill="#F5F5F5"/>
<path d="M23.3462 25.0146L21.9852 23.4269C21.9939 23.4012 22.0015 23.3748 22.0015 23.3462C22.0015 23.2081 21.8896 23.0962 21.7515 23.0962C21.6134 23.0962 21.5015 23.2081 21.5015 23.3462C21.5015 23.4843 21.6134 23.5962 21.7515 23.5962C21.7665 23.5962 21.7796 23.5901 21.7938 23.5877L21.9347 23.7521L21.2515 25.3461L22.0014 26.096L22.6489 24.5853L23.1564 25.1773L23.3462 25.0146ZM22.1301 25.5368L21.5317 24.9385L21.8017 24.3085L22.4 24.9068L22.1301 25.5368Z" fill="#F5F5F5"/>
<path d="M26.8519 25.1773L27.3594 24.5853L28.0069 26.096L28.7568 25.3461L28.0736 23.7521L28.2145 23.5877C28.2288 23.5902 28.2418 23.5962 28.2568 23.5962C28.3949 23.5962 28.5068 23.4843 28.5068 23.3462C28.5068 23.2081 28.3949 23.0962 28.2568 23.0962C28.1187 23.0962 28.0068 23.2081 28.0068 23.3462C28.0068 23.3749 28.0143 23.4013 28.0231 23.4269L26.6621 25.0146L26.8519 25.1773ZM27.6082 24.907L28.2065 24.3087L28.4765 24.9387L27.8781 25.537L27.6082 24.907Z" fill="#F5F5F5"/>
<path d="M25.2843 20.9839C25.2058 20.9607 25.1356 20.9179 25.0913 20.8491C25.0617 20.8031 25.0315 20.7509 25.0014 20.6904C24.9712 20.7509 24.941 20.8031 24.9114 20.8491C24.867 20.918 24.797 20.9608 24.7185 20.9839C24.3043 21.1059 24.0015 21.4866 24.0015 21.9402C24.0015 22.0271 24.016 22.1099 24.0368 22.1902H25.9659C25.9867 22.1099 26.0013 22.0271 26.0013 21.9402C26.0012 21.4866 25.6984 21.1059 25.2843 20.9839Z" fill="#F5F5F5"/>
<path d="M19.2733 24.6604C19.2606 24.505 19.2524 24.3484 19.2524 24.1897C19.2524 23.8687 19.2815 23.5528 19.3331 23.243C19.4052 23.2929 19.4807 23.3478 19.5591 23.4094C19.5225 23.6657 19.5023 23.9261 19.5023 24.1897C19.5023 24.3745 19.5118 24.5572 19.5297 24.7374L20.0581 24.8961C20.0251 24.6646 20.0022 24.4301 20.0022 24.1897C20.0022 24.0702 20.0094 23.9521 20.0188 23.8345C20.2948 24.1405 20.5126 24.5103 20.5126 24.9188C20.5126 24.9293 21.3146 23.7314 19.8564 22.4087L19.846 22.9711L19.0062 22.9623C18.9305 22.9615 18.8639 23.0152 18.8507 23.0897C18.7868 23.449 18.7524 23.8164 18.7524 24.1897C18.7524 24.2959 18.7553 24.4014 18.7604 24.5063L19.2733 24.6604Z" fill="#F5F5F5"/>
<path d="M21.4905 19.6381C21.5998 19.5538 21.6199 19.3969 21.5355 19.2875C21.451 19.1781 21.2941 19.1584 21.1849 19.2426C20.0535 20.1163 19.2771 21.3167 18.9409 22.6613L19.4562 22.668C19.7805 21.4779 20.482 20.4171 21.4905 19.6381Z" fill="#F5F5F5"/>
<path d="M21.1556 20.2618C20.6119 20.7942 20.2004 21.4209 19.9204 22.1015C20.075 22.2286 20.2017 22.3569 20.3068 22.4846C20.5588 21.7905 20.9601 21.1533 21.5055 20.6192C21.6041 20.5225 21.6058 20.3643 21.5092 20.2658C21.4122 20.1669 21.2542 20.1651 21.1556 20.2618Z" fill="#F5F5F5"/>
<path d="M20.287 27.4671C19.9163 26.9352 19.633 26.3387 19.4571 25.6979L19.7478 25.8048C19.9293 26.3895 20.2048 26.9332 20.5575 27.4177L21.1093 27.3167C20.7978 26.9295 20.5417 26.496 20.3547 26.0278L20.6809 26.1477C20.867 26.5563 21.1053 26.9321 21.3894 27.2655L21.9635 27.1604C21.7377 26.9299 21.5402 26.6704 21.3701 26.3905L21.0375 25.7253C20.9348 25.5198 20.7519 25.3659 20.5318 25.3L19.7449 25.0635L19.563 25.0089L19.3011 24.9301L18.7801 24.7735L18.502 24.6899L18.674 25.2063C18.7118 25.3197 18.7883 25.4144 18.8877 25.4765C19.0468 26.2318 19.3418 26.9376 19.7471 27.5662L20.287 27.4671Z" fill="#F5F5F5"/>
<path d="M30.1567 22.9711L30.1462 22.4087C28.688 23.7314 29.4901 24.9293 29.4901 24.9188C29.4901 24.5103 29.7079 24.1405 29.9838 23.8345C29.9933 23.9521 30.0004 24.0703 30.0004 24.1897C30.0004 24.4302 29.9776 24.6647 29.9446 24.8961L30.473 24.7374C30.4909 24.5572 30.5003 24.3746 30.5003 24.1897C30.5003 23.926 30.4802 23.6656 30.4435 23.4094C30.5219 23.3479 30.5975 23.2929 30.6695 23.243C30.7212 23.5527 30.7502 23.8688 30.7502 24.1897C30.7502 24.3483 30.742 24.505 30.7293 24.6604L31.242 24.5063C31.2473 24.4014 31.2501 24.2959 31.2501 24.1897C31.2501 23.8164 31.2156 23.449 31.1518 23.0897C31.1385 23.0151 31.0719 22.9615 30.9963 22.9623L30.1567 22.9711Z" fill="#F5F5F5"/>
<path d="M30.5461 22.668L31.0613 22.6614C30.725 21.3167 29.9487 20.1163 28.8174 19.2426C28.7081 19.1583 28.5514 19.1782 28.4667 19.2875C28.3823 19.3969 28.4024 19.5539 28.5117 19.6381C29.5202 20.417 30.2218 21.4779 30.5461 22.668Z" fill="#F5F5F5"/>
<path d="M30.0819 22.1016C29.8018 21.4209 29.3904 20.7942 28.8467 20.2618C28.7481 20.1651 28.5901 20.1669 28.4933 20.2657C28.3966 20.3643 28.3984 20.5225 28.497 20.6191C29.0424 21.1532 29.4437 21.7903 29.6956 22.4845C29.8006 22.3569 29.9272 22.2286 30.0819 22.1016Z" fill="#F5F5F5"/>
<path d="M31.2225 24.7733L30.7015 24.9299L30.4395 25.0087L30.2576 25.0633L29.4707 25.2998C29.2507 25.3658 29.0677 25.5197 28.965 25.7251L28.6324 26.3903C28.4624 26.6702 28.2648 26.9297 28.0391 27.1602L28.6132 27.2653C28.8973 26.9319 29.1356 26.5562 29.3217 26.1475L29.6478 26.0276C29.4607 26.4958 29.2047 26.9294 28.8933 27.3165L29.445 27.4175C29.7979 26.9329 30.0732 26.3893 30.2548 25.8046L30.5454 25.6978C30.3695 26.3385 30.0862 26.9351 29.7155 27.4669L30.2555 27.5657C30.6607 26.9369 30.9557 26.2313 31.1148 25.476C31.2143 25.4138 31.2907 25.3191 31.3285 25.2059L31.5006 24.6895L31.2225 24.7733Z" fill="#F5F5F5"/>
<path d="M27.6064 27.5372L27.5936 27.5486C26.8663 28.1099 25.9631 28.4394 25.0014 28.4394C24.0396 28.4394 23.1364 28.1099 22.4092 27.5486L22.3963 27.5372C22.3019 27.4334 22.16 27.3869 22.0225 27.4146L19.502 27.9395L20.0612 28.4298C20.2108 28.5609 20.403 28.622 20.5941 28.6108C21.0442 29.0591 21.5611 29.44 22.1296 29.736L21.9658 30.0383C22.8688 30.5293 23.9031 30.8085 25.0014 30.8085C26.0996 30.8085 27.1338 30.5293 28.0369 30.0383L27.8731 29.736C28.4416 29.44 28.9585 29.059 29.4086 28.6108C29.5997 28.622 29.792 28.5608 29.9416 28.4298L30.5009 27.9395L27.9804 27.4146C27.8428 27.3869 27.7008 27.4335 27.6064 27.5372ZM22.3685 29.2947C21.9153 29.059 21.5005 28.7612 21.1271 28.4187L21.3698 28.303C21.7088 28.603 22.0816 28.8657 22.4868 29.076L22.3685 29.2947ZM28.8752 28.4189C28.502 28.7613 28.087 29.059 27.6339 29.2949L27.5154 29.0762C27.9206 28.866 28.2934 28.6033 28.6324 28.3033L28.8752 28.4189ZM25.0012 29.1893C23.8105 29.1893 22.7196 28.7669 21.8606 28.0689L22.1101 27.95C22.9211 28.5747 23.9289 28.9393 25.001 28.9393C26.073 28.9393 27.081 28.5747 27.8919 27.95L28.1413 28.0689C27.2829 28.7671 26.1918 29.1893 25.0012 29.1893Z" fill="#F5F5F5"/>
<path d="M22.2583 27.1831C22.3656 27.2739 22.477 27.3599 22.593 27.4397H27.4096C27.5256 27.3598 27.6369 27.2739 27.7442 27.1831L27.5011 26.9399H22.5017L22.2583 27.1831Z" fill="#F5F5F5"/>
</g>
<defs>
<clipPath id="clip0_106_16619">
<rect width="50" height="50" fill="white"/>
</clipPath>
</defs>
</svg>
