<svg width="50" height="50" viewBox="0 0 50 50" fill="none" xmlns="http://www.w3.org/2000/svg">
<g clip-path="url(#clip0_106_16615)">
<path d="M49.1373 41.3791H0.861619C0.385546 41.3791 -0.000488281 40.9931 -0.000488281 40.517V9.48271C-0.000488281 9.00664 0.385546 8.62061 0.861619 8.62061H49.1374C49.6135 8.62061 49.9995 9.00664 49.9995 9.48271V40.517C49.9994 40.9932 49.6134 41.3791 49.1373 41.3791Z" fill="#4173CD"/>
<path d="M49.9994 20.6895H22.4132V8.62061H13.7926V20.6895H-0.000488281V29.3102H13.7926V41.3791H22.4132V29.3102H49.9994V20.6895Z" fill="#FFE15A"/>
<path d="M49.9994 23.2758H19.827V8.62061H16.3788V23.2758H-0.000488281V26.724H16.3788V41.3791H19.827V26.724H49.9994V23.2758Z" fill="#FF4B55"/>
</g>
<defs>
<clipPath id="clip0_106_16615">
<rect width="50" height="50" fill="white"/>
</clipPath>
</defs>
</svg>
