<svg width="50" height="50" viewBox="0 0 50 50" fill="none" xmlns="http://www.w3.org/2000/svg">
<g clip-path="url(#clip0_106_16612)">
<path d="M49.1383 41.3791H0.862596C0.386523 41.3791 0.000488281 40.9931 0.000488281 40.517V9.48271C0.000488281 9.00664 0.386523 8.62061 0.862596 8.62061H49.1384C49.6145 8.62061 50.0005 9.00664 50.0005 9.48271V40.517C50.0004 40.9932 49.6144 41.3791 49.1383 41.3791Z" fill="#FF4B55"/>
<path d="M34.4293 29.0814C33.9578 28.7851 33.675 29.2565 33.675 29.2565L32.301 29.4181L32.988 28.8389C33.4863 28.8794 33.5537 28.7312 33.6883 28.5292C33.823 28.3271 34.3887 28.4214 34.3887 28.4214C34.3079 27.8018 33.5266 28.152 33.5266 28.152C32.8935 28.0846 32.7858 28.5965 32.7858 28.5965L31.8025 29.3508L29.6385 28.7096C29.863 28.4624 30.0392 28.2187 30.0649 28.0712C30.108 27.8234 28.4666 27.4066 27.9636 26.8858C27.4608 26.3649 27.2812 25.5388 27.5147 25.3233C27.7481 25.1078 27.9458 25.7183 28.1971 26.2213C28.4485 26.7242 28.9156 27.1192 29.2209 26.8678C29.5261 26.6165 28.8976 26.2393 28.6102 25.7005C28.3229 25.1617 28.8258 24.964 29.0592 25.0179C29.2927 25.0718 29.4364 26.1854 29.9932 26.76C30.5499 27.3347 31.0528 27.2269 31.1067 26.8677C31.1606 26.5086 30.1879 26.066 29.9902 25.7606C29.7926 25.4553 29.7417 24.8562 30.065 24.8383C30.3882 24.8204 31.5736 26.587 32.5795 27.2629C33.675 27.9993 34.5549 27.1372 34.4114 26.778C34.2677 26.4187 33.6032 26.5625 32.8309 26.3648C32.0587 26.1672 31.2684 25.1256 31.0349 24.5509C30.8014 23.9762 30.9945 23.9762 31.1293 24.0301C31.2639 24.084 31.7758 24.8383 32.7591 25.4175C33.7424 25.9967 34.4294 25.4445 34.5102 25.3098C34.5911 25.1752 34.9017 24.5705 33.8906 24.7127C32.7413 24.8743 32.0856 24.1919 31.6142 23.8282C31.1427 23.4645 30.9542 22.9661 31.1697 22.764C31.3852 22.562 32.0946 23.4734 33.1721 23.7608C34.162 24.0247 34.564 23.5992 34.537 23.2086C34.51 22.8179 34.281 22.9796 33.163 22.8718C32.0451 22.7641 31.2638 21.7134 31.2234 21.6461C31.183 21.5787 31.1964 21.2015 31.7622 21.5652C32.3279 21.9289 33.3381 22.1444 33.9308 22.1175C34.5235 22.0905 34.6447 21.2958 34.3619 21.1611C34.0791 21.0264 34.0117 21.2285 33.3651 21.3632C32.7185 21.4978 31.5063 20.8379 31.2099 20.528C30.9135 20.2181 31.2369 20.0162 31.385 20.043C31.5332 20.0699 32.503 20.6357 33.3651 20.6088C34.2272 20.5818 34.5909 19.7871 34.5639 19.5446C34.537 19.3021 34.2945 19.1001 33.9308 19.3426C33.5671 19.585 33.0822 19.8678 32.2741 19.7332C31.4659 19.5985 31.0887 19.0596 31.1965 18.8577C31.3043 18.6556 32.0855 19.0058 33.3248 18.8712C34.564 18.7365 34.6178 17.6454 34.4966 17.4299C34.3754 17.2143 34.0791 17.2817 33.6615 17.6723C33.2439 18.063 32.4357 18.1438 31.8027 18.1438C31.1696 18.1438 31.1561 17.8341 31.2505 17.6185C31.3448 17.403 32.0182 17.4569 32.9611 17.1605C33.904 16.8642 34.4427 16.1098 34.591 15.6385C34.7392 15.1671 34.3754 14.8033 34.2273 14.8033C34.0792 14.8033 34.1734 14.5878 33.5269 15.5172C32.8803 16.4466 31.1832 16.8102 31.1832 16.8102C31.062 16.5812 30.8734 16.5005 30.8734 16.5005C29.7285 16.7295 28.3474 17.718 28.3474 17.718C28.3474 17.718 28.5909 18.4989 28.2867 19.1075C27.895 19.8909 26.5524 19.4015 26.9176 18.1643C27.2216 17.1341 28.3982 16.5112 29.3923 16.3996C30.3862 16.2881 30.4369 15.9128 30.4369 15.9128C30.4369 15.9128 29.3931 16.2526 29.3745 15.7861C29.59 15.8299 29.9077 15.8489 30.447 15.8012C31.2483 15.7303 31.6946 15.1622 31.3396 15.0405C30.9846 14.9188 31.1368 15.284 30.5282 15.568C30.0941 15.7705 29.6385 15.6793 29.4105 15.61C29.6212 15.1501 30.5079 15.3853 30.5079 15.3853C30.518 14.5841 29.4549 14.8707 29.4549 14.8707C28.988 13.8648 26.258 15.0323 26.258 15.0323L26.9046 15.5531C25.3241 16.4331 25.0008 18.1033 25.0008 18.1033C25.0008 18.1033 24.6775 16.4331 23.097 15.553L23.7435 15.0322C23.7435 15.0322 21.0136 13.8647 20.5467 14.8706C20.5467 14.8706 19.4834 14.5841 19.4936 15.3852C19.4936 15.3852 20.3804 15.15 20.5911 15.6099C20.3631 15.6793 19.9075 15.7704 19.4734 15.5679C18.8649 15.2838 19.0171 14.9188 18.662 15.0404C18.307 15.1621 18.7533 15.7301 19.5546 15.8011C20.0939 15.8488 20.4116 15.8299 20.6271 15.786C20.6085 16.2525 19.5647 15.9127 19.5647 15.9127C19.5647 15.9127 19.6155 16.2879 20.6094 16.3995C21.6033 16.5111 22.7801 17.134 23.0841 18.1642C23.4491 19.4015 22.1066 19.8907 21.7149 19.1074C21.4106 18.4989 21.6542 17.7179 21.6542 17.7179C21.6542 17.7179 20.2731 16.7294 19.1282 16.5004C19.1282 16.5004 18.9396 16.5812 18.8184 16.8101C18.8184 16.8101 17.1213 16.4465 16.4747 15.5171C15.8281 14.5877 15.9225 14.8032 15.7743 14.8032C15.6262 14.8032 15.2625 15.1669 15.4106 15.6384C15.5588 16.1098 16.0976 16.8641 17.0405 17.1604C17.9835 17.4567 18.6569 17.4029 18.7512 17.6184C18.8455 17.834 18.832 18.1437 18.1989 18.1437C17.5658 18.1437 16.7576 18.0629 16.3401 17.6722C15.9226 17.2816 15.6263 17.2142 15.505 17.4298C15.3838 17.6453 15.4376 18.7363 16.6769 18.8711C17.9161 19.0057 18.6974 18.6555 18.8051 18.8576C18.9128 19.0596 18.5356 19.5984 17.7275 19.7331C16.9193 19.8677 16.4345 19.5849 16.0708 19.3425C15.7071 19.1 15.4646 19.302 15.4377 19.5445C15.4107 19.787 15.7744 20.5817 16.6365 20.6087C17.4986 20.6356 18.4684 20.0699 18.6166 20.0429C18.7647 20.016 19.0881 20.218 18.7917 20.5278C18.4954 20.8376 17.2831 21.4976 16.6365 21.363C15.9899 21.2283 15.9227 21.0262 15.6397 21.1609C15.3568 21.2956 15.4781 22.0903 16.0708 22.1173C16.6635 22.1442 17.6737 21.9287 18.2394 21.565C18.8052 21.2013 18.8186 21.5785 18.7782 21.6459C18.7378 21.7133 17.9565 22.7638 16.8386 22.8716C15.7206 22.9794 15.4916 22.8177 15.4646 23.2084C15.4377 23.599 15.8397 24.0246 16.8296 23.7606C17.9071 23.4732 18.6167 22.5618 18.8321 22.7638C19.0476 22.9659 18.8591 23.4642 18.3876 23.828C17.9161 24.1917 17.2605 24.8741 16.1112 24.7125C15.1001 24.5704 15.4108 25.175 15.4916 25.3096C15.5724 25.4443 16.2594 25.9965 17.2427 25.4173C18.226 24.8382 18.7378 24.0839 18.8726 24.0299C19.0072 23.976 19.2004 23.976 18.9669 24.5507C18.7334 25.1255 17.9432 26.1672 17.1709 26.3646C16.3986 26.5623 15.7341 26.4185 15.5904 26.7778C15.4468 27.137 16.3268 27.999 17.4224 27.2627C18.4282 26.5867 19.6135 24.8201 19.9368 24.8381C20.26 24.8559 20.2091 25.455 20.0116 25.7603C19.814 26.0657 18.8412 26.5083 18.8951 26.8674C18.949 27.2266 19.4517 27.3343 20.0086 26.7597C20.5653 26.185 20.709 25.0714 20.9426 25.0176C21.176 24.9637 21.6789 25.1614 21.3915 25.7002C21.1042 26.2389 20.4756 26.6161 20.7809 26.8675C21.0862 27.1189 21.5532 26.7239 21.8047 26.221C22.056 25.718 22.2536 25.1075 22.4871 25.323C22.7206 25.5385 22.541 26.3646 22.0381 26.8855C21.5352 27.4063 19.8936 27.8231 19.9368 28.0709C19.9625 28.2184 20.1387 28.462 20.3632 28.7093L18.1992 29.3504L17.2159 28.5962C17.2159 28.5962 17.1082 28.0843 16.4751 28.1516C16.4751 28.1516 15.6938 27.8014 15.613 28.4211C15.613 28.4211 16.1787 28.3267 16.3134 28.5288C16.448 28.7308 16.5154 28.879 17.0138 28.8385L17.7006 29.4178L16.3267 29.2562C16.3267 29.2562 16.0437 28.7847 15.5724 29.0811C15.5724 29.0811 14.9797 28.8925 14.8315 29.4583C14.8315 29.4583 15.3434 29.3639 15.4781 29.4313C15.4781 29.4313 15.6802 29.8893 16.3268 29.6199L17.6872 29.6873L16.9194 30.0644C16.9194 30.0644 15.9496 29.7546 15.99 30.5627C15.99 30.5627 15.7071 30.886 15.9631 31.2093C15.9631 31.2093 16.017 30.8591 16.2728 30.711C16.2728 30.711 16.7712 30.913 17.0945 30.3204L18.0778 29.7277L19.0476 30.1992C19.0476 30.1992 19.0207 30.7245 19.7346 30.5089C19.7346 30.5089 19.977 30.6706 20.0443 30.8861C20.0443 30.8861 20.3541 30.5494 19.8558 30.1587C19.8558 30.1587 19.7346 29.7007 19.1419 29.8758L18.5896 29.5929L20.6331 28.9866C20.9869 29.3235 21.3686 29.5998 21.5022 29.5535C21.7659 29.4622 21.9688 29.1884 22.1513 28.803C22.3338 28.4175 23.1554 27.0789 23.561 27.0891C23.9667 27.0993 24.1493 27.4237 24.0478 28.0019C23.9465 28.5799 23.1558 29.6874 22.6439 29.9164C22.1321 30.1454 22.0513 30.2531 21.5798 30.2127C21.1083 30.1722 20.9467 30.3743 21.0545 30.6437C21.1622 30.9131 21.6926 31.0844 22.2129 30.8862C22.7786 30.6707 22.9941 30.3744 23.2097 30.5495C23.4252 30.7246 22.9806 31.3577 22.3745 31.5462C21.7683 31.7348 21.3103 31.6136 21.4047 31.9908C21.499 32.3679 22.1455 32.3949 22.5631 32.1524C22.9806 31.9099 23.452 31.2365 23.5733 31.452C23.6945 31.6675 23.6138 32.2198 23.2097 32.5162C22.8056 32.8125 22.3459 32.6381 22.2533 32.9068C22.1186 33.2974 22.59 33.5534 22.9537 33.4051C23.3174 33.257 23.7349 32.799 23.9235 32.3949C24.1121 31.9908 24.4623 32.341 24.3546 32.7181C24.2469 33.0953 24.3366 33.405 23.5642 33.9977L25.0011 36.2067L26.4379 33.9976C25.6656 33.4049 25.7554 33.0952 25.6475 32.718C25.5398 32.3409 25.89 31.9907 26.0786 32.3948C26.2672 32.7989 26.6847 33.2569 27.0484 33.405C27.4121 33.5532 27.8836 33.2973 27.7488 32.9067C27.6562 32.638 27.1966 32.8124 26.7925 32.5161C26.3884 32.2198 26.3075 31.6674 26.4288 31.4519C26.55 31.2364 27.0215 31.9099 27.439 32.1523C27.8566 32.3948 28.5032 32.3678 28.5974 31.9907C28.6917 31.6135 28.2338 31.7347 27.6276 31.5461C27.0215 31.3576 26.5769 30.7245 26.7925 30.5494C27.008 30.3743 27.2235 30.6706 27.7892 30.8861C28.3096 31.0843 28.8399 30.913 28.9476 30.6436C29.0553 30.3742 28.8937 30.1721 28.4223 30.2126C27.9509 30.253 27.8701 30.1452 27.3582 29.9163C26.8463 29.6874 26.0557 28.5799 25.9543 28.0018C25.8528 27.4237 26.0354 27.0991 26.4411 27.089C26.8468 27.0788 27.6682 28.4174 27.8509 28.8029C28.0334 29.1883 28.2362 29.4622 28.4999 29.5535C28.6336 29.5998 29.0154 29.3235 29.369 28.9866L31.4125 29.5929L30.8602 29.8758C30.2675 29.7007 30.1464 30.1587 30.1464 30.1587C29.648 30.5494 29.9578 30.8861 29.9578 30.8861C30.0252 30.6706 30.2675 30.5089 30.2675 30.5089C30.9814 30.7245 30.9545 30.1992 30.9545 30.1992L31.9243 29.7277L32.9076 30.3204C33.2308 30.913 33.7293 30.711 33.7293 30.711C33.9852 30.8591 34.039 31.2093 34.039 31.2093C34.295 30.8861 34.0121 30.5627 34.0121 30.5627C34.0525 29.7546 33.0827 30.0645 33.0827 30.0645L32.3145 29.6876L33.675 29.6202C34.3215 29.8896 34.5236 29.4316 34.5236 29.4316C34.6583 29.3642 35.1702 29.4586 35.1702 29.4586C35.0219 28.8928 34.4293 29.0814 34.4293 29.0814Z" fill="#464655"/>
</g>
<defs>
<clipPath id="clip0_106_16612">
<rect width="50" height="50" fill="white"/>
</clipPath>
</defs>
</svg>
