<svg width="50" height="50" viewBox="0 0 50 50" fill="none" xmlns="http://www.w3.org/2000/svg">
<g clip-path="url(#clip0_106_16606)">
<path d="M24.9995 41.3793H0.861623C0.385548 41.3793 -0.000488281 40.9932 -0.000488281 40.5172V9.48272C-0.000488281 9.00664 0.385548 8.62061 0.861623 8.62061H24.9996V41.3793H24.9995Z" fill="#73AF00"/>
<path d="M24.9995 8.62061H49.1375C49.6135 8.62061 49.9996 9.00664 49.9996 9.48272V40.5172C49.9996 40.9932 49.6135 41.3793 49.1375 41.3793H24.9995V8.62061Z" fill="#F5F5F5"/>
<path d="M29.1602 21.8656L27.6656 23.8208L25.3319 23.0396C25.2014 22.996 25.0904 23.1435 25.1685 23.2567L26.5662 25.2824L25.102 27.2605C25.0201 27.3711 25.1261 27.5223 25.2581 27.4829L27.6165 26.7796L29.0454 28.7834C29.1252 28.8955 29.3018 28.8413 29.3051 28.7038L29.365 26.2435L31.7122 25.5037C31.8434 25.4623 31.8464 25.2777 31.7167 25.232L29.3954 24.4147L29.4171 21.9537C29.4184 21.8162 29.2437 21.7563 29.1602 21.8656Z" fill="#FF4B55"/>
<path d="M26.5491 30.9207C23.2816 30.9207 20.6311 28.2702 20.6311 24.9998C20.6311 21.7354 23.2816 19.0789 26.5491 19.0789C27.7648 19.0789 28.8858 19.4528 29.8201 20.0856C29.9632 20.1824 30.1265 19.9945 30.0067 19.8699C28.6104 18.4182 26.6341 17.5326 24.4431 17.6074C20.6786 17.7358 17.5623 20.7541 17.3218 24.513C17.0462 28.8186 20.4555 32.3966 24.7001 32.3966C26.7909 32.3966 28.67 31.5225 30.0119 30.1249C30.1305 30.0014 29.9668 29.8163 29.8252 29.9123C28.8899 30.5464 27.7669 30.9207 26.5491 30.9207Z" fill="#FF4B55"/>
</g>
<defs>
<clipPath id="clip0_106_16606">
<rect width="50" height="50" fill="white"/>
</clipPath>
</defs>
</svg>
