<svg width="50" height="50" viewBox="0 0 50 50" fill="none" xmlns="http://www.w3.org/2000/svg">
<g clip-path="url(#clip0_106_16588)">
<path d="M49.1383 41.3791H0.862596C0.386523 41.3791 0.000488281 40.9931 0.000488281 40.517V9.48271C0.000488281 9.00664 0.386523 8.62061 0.862596 8.62061H49.1384C49.6145 8.62061 50.0005 9.00664 50.0005 9.48271V40.517C50.0004 40.9932 49.6144 41.3791 49.1383 41.3791Z" fill="#41479B"/>
<path d="M50.0004 40.5169V39.5647L5.53886 24.9998L50.0004 10.4349V9.48262C50.0004 9.1709 49.8263 8.91025 49.5784 8.75879L0.000488281 24.9998L49.5784 41.2408C49.8263 41.0894 50.0004 40.8287 50.0004 40.5169Z" fill="#FF4B55"/>
<path d="M5.53906 25L50.0006 39.5649V10.4351L5.53906 25Z" fill="#F5F5F5"/>
<path d="M44.7366 20.7572C44.7366 20.7572 47.6887 20.8823 47.9639 20.6571C48.2391 20.432 48.2891 18.9309 47.3135 18.7059C46.3379 18.4808 43.686 19.9317 43.686 19.9317L44.7366 20.7572Z" fill="#FFF5DC"/>
<path d="M38.9587 23.084C38.9587 23.084 38.9253 23.1674 38.9087 23.5343C38.892 23.9012 38.9587 24.8519 40.1095 25.2687L39.8428 26.3862L41.0602 27.12C41.0602 27.12 41.9609 25.7857 42.0109 24.6683C42.0608 23.551 38.9587 23.084 38.9587 23.084Z" fill="#D27D69"/>
<path d="M35.3063 22.3336L35.7816 21.8583C35.7816 21.8583 34.8086 22.452 34.4391 21.9167C33.9555 21.2163 34.6059 20.4824 35.2813 20.1571C35.9567 19.832 37.3077 20.0821 37.3077 20.0821L38.1583 22.2586L35.5815 23.8847L35.3063 22.3336Z" fill="#D27D69"/>
<path d="M43.287 18.181L45.5887 17.9058C45.5887 17.9058 44.9133 18.8814 43.5873 19.6069C43.5873 19.6069 44.9633 19.6069 45.3635 20.0822C45.7638 20.5575 44.9632 21.0079 44.6631 21.158C44.3629 21.3081 41.7611 22.9092 41.7611 22.9092L39.4346 22.634L43.287 18.181Z" fill="#D27D69"/>
<path d="M44.9967 16.4129C44.9967 16.4129 45.497 15.2454 45.4803 14.4282L43.7958 15.5957C43.7958 15.5957 44.1794 15.4123 44.046 14.7451L38.5423 17.7305L37.4248 19.7151L40.8271 20.7659L44.9967 16.4129Z" fill="#D27D69"/>
<path d="M40.847 25.5107L40.2716 26.4239C40.2716 26.4239 39.2458 26.1988 38.8956 26.4489C38.5454 26.6991 38.5079 27.6373 39.1207 27.7123C39.1207 27.7123 39.546 27.975 39.7961 27.7623C39.7961 27.7623 40.3089 27.9624 40.3965 27.6372C40.4841 27.312 40.3715 27.0368 40.3715 27.0368H40.7342L41.3721 25.8985L40.847 25.5107Z" fill="#FFE15A"/>
<path d="M35.706 23.5343C35.706 23.5343 37.3071 22.7338 37.3071 21.5329C37.3071 20.332 35.8227 20.2653 34.6219 20.6656C34.6219 20.6656 33.9049 20.0986 34.5052 19.5314C35.3283 18.7541 38.9083 17.1299 38.9083 17.1299L38.508 19.1312C38.508 19.1312 39.9339 19.8817 40.5093 19.5315C40.9928 19.2372 45.7128 15.5288 45.7128 15.5288C45.7128 15.5288 45.3126 17.5302 42.5107 19.5315L42.2138 21.016C42.1486 21.3422 41.9365 21.6199 41.6389 21.7685L40.5093 22.3333C40.5093 22.3333 43.7115 22.7336 43.7115 23.1338C43.7115 23.534 42.911 25.5354 41.3099 26.3359L40.5093 25.5354L40.9096 24.3346C40.9096 24.3346 39.7087 23.9343 38.9083 23.534C38.9083 23.534 37.7074 23.9343 36.9069 23.9343C36.1064 23.9343 35.706 23.5343 35.706 23.5343Z" fill="#B95546"/>
<path d="M33.3042 25.5357V24.7041C33.3042 24.4678 33.398 24.241 33.5652 24.0739L35.3057 22.3335L35.7059 23.134H37.307L36.9067 23.5343V23.9346L34.9054 25.1354L33.3042 25.5357Z" fill="#FFF5DC"/>
<path d="M34.1031 25.1354H33.3025C33.3025 25.1354 32.5021 26.3363 33.3025 26.3363C33.3025 26.3363 34.5034 25.5357 34.9036 25.1354C34.9036 25.1354 34.9036 24.7352 34.1031 25.1354Z" fill="#FFE15A"/>
<path d="M43.8673 26.9112H38.3338C38.2882 26.8621 38.2244 26.8304 38.1521 26.8304C38.1521 26.8304 37.1829 26.4286 37.045 26.4286H36.9314C36.7936 26.4286 36.6818 26.5403 36.6818 26.6782V26.9112H35.4169V26.6782C35.4169 26.5404 35.3052 26.4286 35.1673 26.4286H35.0537C34.9159 26.4286 34.8041 26.5403 34.8041 26.6782V26.6824C34.262 26.6604 33.1029 26.5912 32.5024 26.3911L29.3003 27.1917L32.5024 27.9922C33.1027 27.7921 34.2618 27.7228 34.8041 27.7008V27.705C34.8041 27.8428 34.9158 27.9546 35.0537 27.9546H35.1673C35.3051 27.9546 35.4169 27.8429 35.4169 27.705V27.472H36.6818V27.705C36.6818 27.8428 36.7935 27.9546 36.9314 27.9546H37.045C37.1828 27.9546 38.1521 27.5528 38.1521 27.5528C38.2244 27.5528 38.2883 27.5212 38.3338 27.472H43.8673C44.0222 27.472 44.1477 27.3463 44.1477 27.1915C44.1477 27.0367 44.0221 26.9112 43.8673 26.9112Z" fill="#FFE15A"/>
<path d="M43.6267 27.9871C43.2931 27.9204 39.4739 28.5875 39.4739 28.5875C39.4739 28.5875 39.2404 28.354 39.9408 27.7035L39.6073 27.6201C39.6073 27.6201 38.8735 28.1371 38.5732 28.2038C38.3147 28.2612 37.7371 28.5421 37.613 28.917L35.2876 29.3046L35.3376 29.5047L37.6185 29.2373C37.7273 29.5877 38.0859 29.6592 38.3396 29.5547C38.3396 29.5547 38.6732 29.6881 38.9734 29.4546C38.9734 29.4546 39.5738 29.5547 39.6071 29.0043L43.7933 28.3705C43.7934 28.3708 43.9602 28.0538 43.6267 27.9871Z" fill="#FFE15A"/>
<path d="M41.2584 30.8062C41.2584 30.8062 40.9415 31.2231 40.1576 30.8562C39.3738 30.4893 38.4565 30.8896 37.9562 30.7728C37.4559 30.656 36.7053 30.3559 36.0049 30.6227C35.3045 30.8895 34.9208 30.8729 35.0709 30.5393C35.221 30.2058 35.3044 29.9557 35.0709 29.839L35.3377 29.5054L35.2877 29.3053C35.2877 29.3053 33.9534 28.7883 33.053 29.5054C32.1523 30.2224 32.4193 31.857 33.9202 31.9737C33.9202 31.9737 34.3872 32.5574 35.538 32.3906C35.538 32.3906 36.2885 32.9076 37.5727 32.6741C37.5727 32.6741 37.6227 32.8242 38.4567 32.7575C39.2906 32.6908 40.2245 32.7909 40.0577 33.3579C40.0577 33.3579 40.6748 33.2412 40.3079 32.6741C40.3079 32.6741 41.0417 32.6407 41.5421 33.0744C41.5421 33.0744 41.5755 32.5741 41.0918 32.3071C41.0918 32.3071 41.9091 32.0236 42.3594 32.3071C42.3594 32.3071 42.0592 31.6734 41.2586 31.7567C41.2586 31.7567 41.8423 31.2897 42.1092 31.4065C42.1092 31.4065 41.859 31.1063 41.1251 31.4065C41.125 31.4066 41.592 31.1231 41.2584 30.8062Z" fill="#FFE15A"/>
</g>
<defs>
<clipPath id="clip0_106_16588">
<rect width="50" height="50" fill="white"/>
</clipPath>
</defs>
</svg>
