<svg width="50" height="50" viewBox="0 0 50 50" fill="none" xmlns="http://www.w3.org/2000/svg">
<g clip-path="url(#clip0_106_16531)">
<path d="M16.6662 41.3792H0.861621C0.385547 41.3792 -0.000488281 40.9932 -0.000488281 40.5171V9.48271C-0.000488281 9.00664 0.385547 8.62061 0.861621 8.62061H16.6662V41.3792Z" fill="#41479B"/>
<path d="M33.334 8.62061H16.667V41.3794H33.334V8.62061Z" fill="#FFE15A"/>
<path d="M49.1376 41.3792H33.333V8.62061H49.1376C49.6137 8.62061 49.9997 9.00664 49.9997 9.48271V40.5171C49.9997 40.9933 49.6137 41.3792 49.1376 41.3792Z" fill="#FF4B55"/>
<path d="M30.8611 27.8015C30.8611 27.5513 30.6582 27.3483 30.408 27.3483C30.3537 27.3483 30.3023 27.3595 30.254 27.3771C30.0297 27.1776 29.6234 26.6828 30.0311 25.9841C30.0862 26.027 30.1546 26.0535 30.2298 26.0535C30.4096 26.0535 30.5552 25.9078 30.5552 25.7281C30.5552 25.5861 30.4637 25.4666 30.3369 25.4222C30.6719 25.2513 31.1498 24.8885 31.1251 24.2101C31.0901 23.2479 30.302 22.7169 29.8185 22.9292C29.8203 22.9157 29.8226 22.9024 29.8226 22.8886C29.8226 22.7113 29.6789 22.5677 29.5017 22.5677C29.3927 22.5677 29.2968 22.6223 29.2389 22.7053C29.2192 22.6091 29.2215 22.4305 29.4452 22.2374C29.8605 21.8787 30.3325 21.0197 29.4735 20.4156C28.9978 20.0812 28.0886 19.9209 27.7839 20.3779C27.6518 20.5761 27.7578 20.8608 27.9086 20.9248C27.6656 21.0604 27.2044 21.2638 26.8401 21.1048C26.3209 20.8783 26.6207 20.4284 26.7363 20.227C26.9392 19.8729 26.8119 19.2925 26.1322 19.2925C25.679 19.2925 25.4526 19.7456 24.9996 19.7456C24.5465 19.7456 24.32 19.2925 23.8669 19.2925C23.1873 19.2925 23.0599 19.8729 23.2628 20.227C23.3784 20.4283 23.6782 20.8782 23.159 21.1048C22.7947 21.2639 22.3336 21.0604 22.0905 20.9248C22.2413 20.8609 22.3473 20.5762 22.2152 20.3779C21.9106 19.921 21.0013 20.0812 20.5256 20.4156C19.6666 21.0197 20.1387 21.8786 20.5539 22.2374C20.7776 22.4305 20.7799 22.6092 20.7602 22.7053C20.7022 22.6223 20.6063 22.5677 20.4974 22.5677C20.3202 22.5677 20.1765 22.7113 20.1765 22.8886C20.1765 22.9024 20.1789 22.9158 20.1806 22.9292C19.6971 22.7168 18.9089 23.2479 18.874 24.2101C18.8493 24.8884 19.3272 25.2512 19.6622 25.4222C19.5354 25.4667 19.4439 25.5861 19.4439 25.7281C19.4439 25.9079 19.5896 26.0535 19.7693 26.0535C19.8445 26.0535 19.9128 26.0271 19.968 25.9841C20.3757 26.6828 19.9695 27.1776 19.7452 27.3771C19.6969 27.3595 19.6455 27.3483 19.5912 27.3483C19.341 27.3483 19.138 27.5512 19.138 27.8015C19.138 28.0363 19.3174 28.2272 19.5464 28.2501C19.2341 28.5709 18.9539 29.2779 19.5628 30.0811C20.2283 30.9589 21.814 30.8881 22.5786 30.9164C23.0633 30.9344 23.428 31.1854 23.6304 31.3669C23.501 31.4467 23.4139 31.5885 23.4139 31.7517C23.4139 31.9805 23.5841 32.1677 23.8045 32.1984C23.8846 32.3266 24.0257 32.4124 24.1879 32.4124C24.3692 32.4124 24.5244 32.3053 24.5969 32.1514C24.8362 32.3485 24.9998 32.4312 24.9998 32.4312C24.9998 32.4312 25.1633 32.3486 25.4026 32.1514C25.475 32.3052 25.6303 32.4124 25.8116 32.4124C25.9738 32.4124 26.1149 32.3266 26.195 32.1984C26.4154 32.1677 26.5856 31.9805 26.5856 31.7517C26.5856 31.5884 26.4985 31.4466 26.3691 31.3669C26.5714 31.1854 26.9361 30.9343 27.4209 30.9164C28.1855 30.8881 29.7712 30.9589 30.4367 30.0811C31.0455 29.2779 30.7654 28.5708 30.4531 28.2501C30.6817 28.2271 30.8611 28.0363 30.8611 27.8015Z" fill="#DCBE82"/>
<path d="M20.9219 21.9823V28.552C20.9219 29.3026 21.5304 29.9112 22.2812 29.9112H24.0935C24.773 29.9112 24.9996 30.3644 24.9996 30.3644C24.9996 30.3644 25.2261 29.9112 25.9058 29.9112H27.7181C28.4688 29.9112 29.0773 29.3027 29.0773 28.552V21.9823C29.0773 21.8572 28.976 21.7559 28.8509 21.7559H21.1486C21.0232 21.7559 20.9219 21.8572 20.9219 21.9823Z" fill="#D2AA73"/>
<path d="M24.773 22.2085H21.375V25.6065H24.773V22.2085Z" fill="#FF4B55"/>
<path d="M24.7735 29.4581C22.8968 29.4581 21.3755 27.9368 21.3755 26.0601H24.7735V29.4581Z" fill="#FF4B55"/>
<path d="M25.2266 29.4581V26.0601H28.6246C28.6245 27.9366 27.1031 29.4581 25.2266 29.4581Z" fill="#FFE15A"/>
<path d="M25.7125 22.2085H25.2271V25.6065H25.7125V22.2085Z" fill="#FFE15A"/>
<path d="M26.1969 22.2085H25.7114V25.6065H26.1969V22.2085Z" fill="#FF4B55"/>
<path d="M26.6822 22.2085H26.1968V25.6065H26.6822V22.2085Z" fill="#FFE15A"/>
<path d="M27.169 22.2085H26.6836V25.6065H27.169V22.2085Z" fill="#FF4B55"/>
<path d="M27.6534 22.2085H27.168V25.6065H27.6534V22.2085Z" fill="#FFE15A"/>
<path d="M28.6236 22.2085H28.1382V25.6065H28.6236V22.2085Z" fill="#FFE15A"/>
<path d="M28.1402 22.2085H27.6548V25.6065H28.1402V22.2085Z" fill="#FF4B55"/>
<path d="M22.8858 26.0601H22.5083V29.4581H22.8858V26.0601Z" fill="#FF4B55"/>
<path d="M23.2647 26.0605H22.8872V29.4586H23.2647V26.0605Z" fill="#FFE15A"/>
<path d="M24.0211 26.0605H23.6436V29.4586H24.0211V26.0605Z" fill="#FFE15A"/>
<path d="M23.6402 26.0601H23.2627V29.4581H23.6402V26.0601Z" fill="#FF4B55"/>
<path d="M24.7726 26.0601H24.395V29.4581H24.7726V26.0601Z" fill="#FFE15A"/>
<path d="M24.3956 26.0601H24.0181V29.4581H24.3956V26.0601Z" fill="#FF4B55"/>
<path d="M21.753 29.2853V26.0601H21.3755V28.552C21.3755 28.8544 21.5252 29.1206 21.753 29.2853Z" fill="#FFE15A"/>
<path d="M22.1305 29.443V26.0601H21.7529V29.2853C21.8629 29.3647 21.9909 29.4194 22.1305 29.443Z" fill="#FF4B55"/>
<path d="M22.1304 26.0601V29.443C22.1797 29.4513 22.2296 29.4582 22.2814 29.4582H22.5079V26.0602H22.1304V26.0601Z" fill="#FFE15A"/>
<path d="M21.8799 25.4142C21.863 25.4142 21.8459 25.4094 21.8308 25.3994C21.608 25.252 21.595 25.0984 21.6071 25.0201C21.6234 24.9143 21.7022 24.8265 21.8077 24.7963C21.9081 24.7681 22.0082 24.7977 22.0759 24.8763C22.2165 25.0397 22.3617 25.1041 22.484 25.0589C22.5808 25.023 22.6385 24.9276 22.6385 24.8563C22.6385 24.807 22.6783 24.7671 22.7277 24.7671C22.7772 24.7671 22.817 24.8069 22.817 24.8563C22.817 25.0124 22.7031 25.168 22.5461 25.2262C22.4314 25.2686 22.2006 25.2947 21.9406 24.9927C21.9127 24.9604 21.8799 24.9614 21.8567 24.9679C21.825 24.977 21.79 25.0051 21.7835 25.0472C21.774 25.1087 21.8272 25.1827 21.9292 25.2504C21.9704 25.2775 21.9816 25.333 21.9544 25.3741C21.9372 25.3999 21.9089 25.4142 21.8799 25.4142Z" fill="#F5F5F5"/>
<path d="M24.2759 25.414C24.247 25.414 24.2186 25.3998 24.2015 25.3741C24.1743 25.3329 24.1855 25.2775 24.2267 25.2504C24.3287 25.1827 24.3818 25.1087 24.3724 25.0472C24.3658 25.0051 24.3309 24.977 24.2992 24.9679C24.276 24.9614 24.2431 24.9604 24.2152 24.9927C23.9553 25.2949 23.7244 25.2687 23.6098 25.2262C23.4527 25.168 23.3389 25.0123 23.3389 24.8563C23.3389 24.807 23.3787 24.7671 23.4281 24.7671C23.4774 24.7671 23.5174 24.8069 23.5174 24.8563C23.5174 24.9276 23.5751 25.0229 23.6719 25.0589C23.7941 25.1043 23.9395 25.0397 24.08 24.8763C24.1477 24.7973 24.2479 24.7679 24.3481 24.7963C24.4536 24.8265 24.5324 24.9143 24.5487 25.0201C24.5608 25.0983 24.5478 25.252 24.3251 25.3994C24.31 25.409 24.2928 25.414 24.2759 25.414Z" fill="#F5F5F5"/>
<path d="M21.8309 25.5202C21.8121 25.5202 21.7931 25.5142 21.7769 25.5021C21.7376 25.4721 21.7301 25.4163 21.7599 25.377L23.6997 22.8263C23.7183 22.7928 23.7253 22.7464 23.7333 22.693C23.7483 22.5928 23.767 22.4681 23.92 22.3761C24.0197 22.3164 24.1379 22.318 24.2369 22.3812C24.346 22.4509 24.4104 22.5808 24.3971 22.7043C24.3891 22.7794 24.3453 22.9165 24.142 22.9917C24.0956 23.009 24.0444 22.9852 24.0274 22.9392C24.0103 22.893 24.0338 22.8416 24.0799 22.8246C24.1392 22.8026 24.2116 22.7606 24.2196 22.6854C24.2257 22.6284 24.1933 22.5654 24.1407 22.5316C24.1113 22.5127 24.0651 22.4966 24.0119 22.5291C23.9309 22.5778 23.9229 22.6311 23.9096 22.7195C23.9002 22.7821 23.8896 22.853 23.8478 22.9251L21.9018 25.485C21.8845 25.5081 21.8579 25.5202 21.8309 25.5202Z" fill="#FFE15A"/>
<path d="M23.0853 22.7148L22.1929 23.7857L22.5498 24.8566H23.6207L23.9776 23.7857L23.0853 22.7148Z" fill="#FFE15A"/>
<path d="M23.0865 22.5752L22.0938 23.7665L22.4867 24.9456H23.6861L24.0791 23.7665L23.0865 22.5752ZM22.2944 23.8045L22.9973 22.9611V24.7671H22.6153L22.2944 23.8045ZM23.5576 24.7672H23.1757V22.9612L23.8785 23.8046L23.5576 24.7672Z" fill="#F5F5F5"/>
<path d="M27.7889 27.1328L27.8023 26.9349C27.8023 26.9349 27.9779 26.8089 27.8923 26.6919C27.8068 26.5749 27.7078 26.5524 27.5008 26.5794C27.2938 26.6065 26.9697 26.602 26.8303 26.6109C26.6907 26.62 26.6188 26.6963 26.3982 26.6334L26.4567 26.4984C26.4567 26.4984 26.3533 26.5075 26.2902 26.5389C26.2559 26.5562 26.1732 26.4444 26.0923 26.4624C26.0116 26.4803 25.9304 26.6469 25.8042 26.7324L25.8717 26.8675C25.8717 26.8675 25.9481 26.8315 26.0067 26.872C26.0652 26.9125 26.0832 26.9395 26.1823 26.9395L26.2454 26.9665C26.2454 26.9665 26.2229 27.1105 26.3174 27.1781C26.3174 27.1781 26.2094 27.3176 26.2229 27.34C26.2363 27.3625 26.3263 27.5335 26.3624 27.6324L26.4435 27.4794C26.4435 27.4794 26.3219 27.3714 26.3444 27.3578C26.367 27.3444 26.4479 27.3264 26.4344 27.2904C26.4209 27.2543 26.4975 27.2949 26.5829 27.3083C26.5829 27.3083 26.5874 27.4434 26.6055 27.4614C26.6235 27.4793 26.6505 27.5513 26.646 27.6279C26.6415 27.7043 26.574 27.7269 26.574 27.7269L26.6956 27.7629C26.6956 27.7629 26.7271 27.7179 26.7496 27.7224C26.7496 27.7224 26.7405 27.3489 26.7901 27.2904C26.7901 27.2904 27.0826 27.3489 27.2176 27.2769C27.2176 27.2769 27.2349 27.2987 27.2686 27.3194C27.2551 27.3507 27.2437 27.382 27.2487 27.3911C27.2601 27.4116 27.2962 27.4092 27.3052 27.3866C27.3086 27.3782 27.3139 27.3607 27.3191 27.3426C27.3355 27.348 27.3533 27.3522 27.3737 27.3542C27.3718 27.3826 27.3716 27.4088 27.3781 27.4149C27.3951 27.4306 27.4288 27.4172 27.4304 27.3929C27.431 27.385 27.4306 27.37 27.4302 27.354C27.4534 27.3521 27.4782 27.348 27.5056 27.3399L27.3525 27.5919L27.2761 27.6234L27.3751 27.6729L27.465 27.6368C27.465 27.6368 27.5505 27.4208 27.69 27.3578C27.69 27.3578 27.7846 27.5828 27.6675 27.7044L27.7709 27.7629L27.8204 27.6594C27.8204 27.6594 27.8024 27.457 27.8699 27.3264L27.7889 27.1328Z" fill="#FF4B55"/>
<path d="M26.0959 26.4898C26.0959 26.4898 26.0508 26.447 26.0395 26.3905C26.0281 26.3341 26.0146 26.3092 25.9648 26.2935C25.9648 26.2935 25.9964 26.3296 25.992 26.386C25.9875 26.4425 25.992 26.5193 26.0235 26.5441L26.0959 26.4898Z" fill="#4173CD"/>
<path d="M26.4889 26.649C26.4889 26.649 26.4274 26.8578 26.247 26.9664L26.1841 26.9394C26.1841 26.9394 26.3768 26.7747 26.4001 26.6333L26.4889 26.649Z" fill="#4173CD"/>
<path d="M26.1815 26.5394C26.1751 26.5327 26.2606 26.5078 26.2402 26.44C26.2198 26.3723 26.2198 26.3226 26.2606 26.291C26.2606 26.291 26.2651 26.3475 26.2967 26.3836C26.3283 26.4197 26.3464 26.5101 26.2945 26.562C26.2945 26.562 26.2424 26.6026 26.1815 26.5394Z" fill="#4173CD"/>
<path d="M26.1914 27.155C26.1807 27.1498 26.1761 27.1366 26.1814 27.1258L26.2087 27.0704C26.2246 27.0379 26.2141 26.9974 26.1827 26.9794C26.1482 26.9595 26.1049 26.9732 26.0877 27.0083L26.0594 27.0659C26.0541 27.0766 26.0409 27.0812 26.0302 27.0758L26.0132 27.1104C26.0132 27.1104 26.0382 27.1227 26.0685 27.1376L26.0678 27.1388C26.0608 27.1528 26.0667 27.1698 26.0807 27.1766C26.0946 27.1836 26.1116 27.1777 26.1185 27.1637L26.1191 27.1625C26.1494 27.1773 26.1744 27.1896 26.1744 27.1896L26.1914 27.155Z" fill="#4173CD"/>
<path d="M26.4097 27.5356L26.4773 27.5492L26.4208 27.7231L26.3638 27.6324L26.4097 27.5356Z" fill="#4173CD"/>
<path d="M26.5756 27.7266L26.5342 27.7996H26.6968L26.6971 27.7626L26.5756 27.7266Z" fill="#4173CD"/>
<path d="M27.3765 27.6728V27.7162H27.1919L27.2812 27.627L27.3765 27.6728Z" fill="#4173CD"/>
<path d="M27.6687 27.7041L27.5776 27.7954H27.7694L27.7723 27.7627L27.6687 27.7041Z" fill="#4173CD"/>
<path d="M27.7889 28.543L27.8023 28.345C27.8023 28.345 27.9779 28.2191 27.8923 28.1021C27.8068 27.9851 27.7078 27.9625 27.5008 27.9896C27.2938 28.0166 26.9697 28.0121 26.8303 28.021C26.6907 28.0301 26.6188 28.1065 26.3982 28.0436L26.4567 27.9085C26.4567 27.9085 26.3533 27.9176 26.2902 27.9491C26.2559 27.9663 26.1732 27.8545 26.0923 27.8726C26.0116 27.8905 25.9304 28.0571 25.8042 28.1426L25.8717 28.2777C25.8717 28.2777 25.9481 28.2416 26.0067 28.2822C26.0652 28.3227 26.0832 28.3496 26.1823 28.3496L26.2454 28.3767C26.2454 28.3767 26.2229 28.5206 26.3174 28.5882C26.3174 28.5882 26.2094 28.7278 26.2229 28.7501C26.2363 28.7727 26.3263 28.9437 26.3624 29.0426L26.4435 28.8896C26.4435 28.8896 26.3219 28.7816 26.3444 28.768C26.367 28.7545 26.4479 28.7366 26.4344 28.7005C26.4209 28.6645 26.4975 28.705 26.5829 28.7185C26.5829 28.7185 26.5874 28.8535 26.6055 28.8715C26.6235 28.8895 26.6505 28.9615 26.646 29.038C26.6415 29.1145 26.574 29.137 26.574 29.137L26.6956 29.1731C26.6956 29.1731 26.7271 29.1281 26.7496 29.1325C26.7496 29.1325 26.7405 28.759 26.7901 28.7005C26.7901 28.7005 27.0826 28.759 27.2176 28.687C27.2176 28.687 27.2349 28.7088 27.2686 28.7295C27.2551 28.7609 27.2437 28.7921 27.2487 28.8013C27.2601 28.8217 27.2962 28.8194 27.3052 28.7968C27.3086 28.7883 27.3139 28.7708 27.3191 28.7528C27.3355 28.7581 27.3533 28.7623 27.3737 28.7644C27.3718 28.7928 27.3716 28.819 27.3781 28.825C27.3951 28.8407 27.4288 28.8274 27.4304 28.8031C27.431 28.7951 27.4306 28.7802 27.4302 28.7642C27.4534 28.7622 27.4782 28.7581 27.5056 28.75L27.3525 29.0021L27.2761 29.0335L27.3751 29.083L27.465 29.047C27.465 29.047 27.5505 28.831 27.69 28.768C27.69 28.768 27.7846 28.993 27.6675 29.1146L27.7709 29.1731L27.8204 29.0696C27.8204 29.0696 27.8024 28.8671 27.8699 28.7365L27.7889 28.543Z" fill="#FF4B55"/>
<path d="M26.0959 27.9C26.0959 27.9 26.0508 27.8571 26.0395 27.8007C26.0281 27.7442 26.0146 27.7193 25.9648 27.7036C25.9648 27.7036 25.9964 27.7397 25.992 27.7962C25.9875 27.8526 25.992 27.9295 26.0235 27.9543L26.0959 27.9Z" fill="#4173CD"/>
<path d="M26.4886 28.0592C26.4886 28.0592 26.4272 28.268 26.2467 28.3766L26.1836 28.3495C26.1836 28.3495 26.3763 28.1849 26.3996 28.0435L26.4886 28.0592Z" fill="#4173CD"/>
<path d="M26.1815 27.9495C26.1751 27.9429 26.2606 27.918 26.2402 27.8502C26.2198 27.7824 26.2198 27.7327 26.2606 27.7012C26.2606 27.7012 26.2651 27.7576 26.2967 27.7937C26.3283 27.8299 26.3464 27.9202 26.2945 27.9722C26.2945 27.9722 26.2424 28.0127 26.1815 27.9495Z" fill="#4173CD"/>
<path d="M26.1914 28.5652C26.1807 28.5599 26.1761 28.5467 26.1814 28.536L26.2087 28.4805C26.2246 28.448 26.2141 28.4076 26.1827 28.3895C26.1482 28.3697 26.1049 28.3834 26.0877 28.4184L26.0594 28.476C26.0541 28.4868 26.0409 28.4914 26.0302 28.486L26.0132 28.5206C26.0132 28.5206 26.0382 28.5329 26.0685 28.5477L26.0678 28.549C26.0608 28.5629 26.0667 28.5799 26.0807 28.5868C26.0946 28.5937 26.1116 28.5879 26.1185 28.5739L26.1191 28.5726C26.1494 28.5875 26.1744 28.5998 26.1744 28.5998L26.1914 28.5652Z" fill="#4173CD"/>
<path d="M26.4097 28.9458L26.4773 28.9594L26.4208 29.1333L26.3638 29.0426L26.4097 28.9458Z" fill="#4173CD"/>
<path d="M26.5756 29.1367L26.5342 29.2098H26.6968L26.6971 29.1727L26.5756 29.1367Z" fill="#4173CD"/>
<path d="M27.3765 29.0829V29.1264H27.1919L27.2812 29.0371L27.3765 29.0829Z" fill="#4173CD"/>
<path d="M27.6687 29.1143L27.5776 29.2056H27.7694L27.7723 29.1728L27.6687 29.1143Z" fill="#4173CD"/>
</g>
<defs>
<clipPath id="clip0_106_16531">
<rect width="50" height="50" fill="white"/>
</clipPath>
</defs>
</svg>
