<svg width="50" height="50" viewBox="0 0 50 50" fill="none" xmlns="http://www.w3.org/2000/svg">
<g clip-path="url(#clip0_106_20796)">
<path d="M49.9999 25.0004H0V9.4832C0 9.00713 0.386034 8.62109 0.862108 8.62109H49.1379C49.614 8.62109 50 9.00713 50 9.4832L49.9999 25.0004Z" fill="#FF4B55"/>
<path d="M0 25H49.9999V40.5172C49.9999 40.9932 49.6139 41.3793 49.1378 41.3793H0.862108C0.386034 41.3793 0 40.9932 0 40.5172V25Z" fill="#464655"/>
<path d="M23.037 17.8018L23.6264 19.569L25.4893 19.5835C25.6337 19.5845 25.6935 19.7688 25.5774 19.8545L24.0788 20.9611L24.6407 22.7373C24.6843 22.8749 24.5275 22.9886 24.4101 22.9049L22.8945 21.8216L21.3789 22.9049C21.2614 22.9888 21.1048 22.8749 21.1483 22.7373L21.7102 20.9611L20.2116 19.8545C20.0956 19.7687 20.1554 19.5845 20.2997 19.5835L22.1626 19.569L22.752 17.8018C22.7977 17.665 22.9914 17.665 23.037 17.8018Z" fill="#FFE15A"/>
<path d="M31.0043 32.8066C31.0043 32.8066 20.3397 24.7613 20.0249 24.4969C19.5383 24.0882 19.1628 23.3654 19.1448 22.4854C19.1448 22.4854 17.9947 23.6635 18.2199 24.883C18.4803 26.2928 19.2886 26.7957 20.3302 27.4781C21.0623 27.9577 26.8817 31.628 30.279 33.769L31.0043 32.8066Z" fill="#FFE15A"/>
<path d="M34.195 35.1647C34.056 35.0655 32.939 34.2399 31.3893 33.0918L30.8269 34.1145C31.9647 34.8313 32.7223 35.3085 32.7223 35.3085C32.7223 35.3085 32.83 36.7094 33.9616 36.4759C34.3694 36.3917 34.6978 35.524 34.195 35.1647Z" fill="#FFE15A"/>
<path d="M24.9862 31.4505C24.1799 31.7342 23.3165 31.8965 22.4133 31.8965C20.1241 31.8965 18.073 30.8992 16.6529 29.3223L15.3904 30.4585C15.8135 30.9284 16.2654 31.3713 16.7747 31.7492L16.5233 32.1847L18.3897 33.2622L18.6368 32.8342C19.4799 33.2009 20.3864 33.4476 21.3358 33.5552V34.0516H23.491V33.5552C24.4404 33.4476 25.3468 33.2009 26.19 32.8342L26.437 33.2622L27.1787 32.834C26.4544 32.3772 25.7124 31.9092 24.9862 31.4505Z" fill="#FFE15A"/>
<path d="M31.8308 23.06C31.7233 22.1106 31.4765 21.2042 31.1098 20.3611L31.5378 20.1141L30.4603 18.2476L30.0248 18.4989C29.4674 17.7478 28.8033 17.0837 28.0521 16.5263L28.3035 16.0908L26.4371 15.0133L26.19 15.4413C25.4906 15.1371 24.7458 14.9211 23.9709 14.793L23.6877 16.4926C27.3651 17.1017 30.1721 20.2877 30.1721 24.1377C30.1721 26.2107 29.354 28.0892 28.0293 29.4811C28.4875 29.8271 28.9423 30.1705 29.3919 30.5099C29.6097 30.2715 29.8318 30.0366 30.0249 29.7764L30.4604 30.0278L31.5379 28.1614L31.1099 27.9143C31.4766 27.0712 31.7234 26.1647 31.8309 25.2154H32.3272V23.0602H31.8307L31.8308 23.06Z" fill="#FFE15A"/>
</g>
<defs>
<clipPath id="clip0_106_20796">
<rect width="50" height="50" fill="white"/>
</clipPath>
</defs>
</svg>
