<svg width="50" height="50" viewBox="0 0 50 50" fill="none" xmlns="http://www.w3.org/2000/svg">
<path d="M49.1378 8.6543H0.862108C0.386034 8.6543 0 9.03955 0 9.51466V40.4862C0 40.9613 0.386034 41.3466 0.862108 41.3466H49.1379C49.614 41.3466 50 40.9613 50 40.4862V9.51466C49.9999 9.03955 49.6139 8.6543 49.1378 8.6543Z" fill="#464655"/>
<path d="M24.5191 10.5771L25.5978 16.2123L28.7507 11.4189L27.5908 17.0378L32.3381 13.8159L29.1162 18.5632L34.7351 17.4033L29.9417 20.5563L35.5768 21.6349L29.9417 22.7135L34.7351 25.8665L29.1162 24.7065L32.3381 29.4538L27.5908 26.2319L28.7507 31.851L25.5978 27.0575L24.5191 32.6925L23.4406 27.0575L20.2875 31.851L21.4475 26.2319L16.7002 29.4538L19.9221 24.7065L14.3032 25.8665L19.0965 22.7135L13.4614 21.6349L19.0965 20.5563L14.3032 17.4033L19.9221 18.5632L16.7002 13.8159L21.4475 17.0378L20.2875 11.4189L23.4406 16.2123L24.5191 10.5771Z" fill="#FFE15A"/>
<path d="M0 9.22615V40.4784C0 40.9579 0.386035 41.3466 0.862109 41.3466H25L0.224414 8.6543C0.0888672 8.80761 0 9.00469 0 9.22615Z" fill="#FF4B55"/>
<path d="M25 41.3466H49.1379C49.614 41.3466 50 40.9579 50 40.4784V9.22625C50 9.00479 49.9111 8.80771 49.7756 8.6543L25 41.3466Z" fill="#FF4B55"/>
<path d="M14.7995 27.8851H34.2393L39.4232 21.1543H9.61548L14.7995 27.8851Z" fill="#4173CD"/>
<path d="M15.3845 28.8457L25.4806 41.3457L35.5768 28.8457H15.3845Z" fill="#F5F5F5"/>
</svg>
