<svg width="50" height="50" viewBox="0 0 50 50" fill="none" xmlns="http://www.w3.org/2000/svg">
<g clip-path="url(#clip0_106_20765)">
<path d="M49.9994 19.5407H-0.000488281V9.4832C-0.000488281 9.00713 0.385546 8.62109 0.861619 8.62109H49.1374C49.6135 8.62109 49.9995 9.00713 49.9995 9.4832L49.9994 19.5407Z" fill="#82AFFF"/>
<path d="M49.1366 41.3795H0.860887C0.384814 41.3795 -0.0012207 40.9934 -0.0012207 40.5174V30.46H49.9987V40.5174C49.9987 40.9935 49.6126 41.3795 49.1366 41.3795Z" fill="#82AFFF"/>
<path d="M49.9992 19.54H-0.000732422V30.459H49.9992V19.54Z" fill="#F5F5F5"/>
<path d="M29.3096 24.7844H26.2057C26.2636 24.7404 26.3094 24.6972 26.3508 24.6563C26.4266 24.5822 26.4869 24.5233 26.6467 24.4576C26.8075 24.3902 26.8916 24.3894 26.9982 24.3878C27.1265 24.3869 27.2718 24.3845 27.5092 24.2867C27.7462 24.1882 27.8497 24.0871 27.9411 23.9979C28.0169 23.9238 28.0772 23.8649 28.2374 23.7983C28.3969 23.7318 28.4808 23.731 28.5868 23.7302C28.7148 23.7284 28.8599 23.7268 29.0973 23.6283L28.9315 23.2309C28.772 23.2974 28.6881 23.2982 28.5822 23.299C28.4541 23.3008 28.309 23.3023 28.072 23.4001C27.8351 23.4986 27.7315 23.5997 27.6401 23.6889C27.5643 23.763 27.504 23.8219 27.3442 23.8876C27.1834 23.955 27.0993 23.9558 26.9927 23.9574C26.8644 23.9583 26.7191 23.9607 26.4817 24.0593C26.2448 24.1569 26.1412 24.2589 26.0497 24.348C25.9751 24.4206 25.9135 24.4787 25.7601 24.5435L28.1995 22.1044L27.8948 21.7996L25.699 23.9952C25.7086 23.9234 25.7113 23.8596 25.7119 23.8017C25.7131 23.6947 25.714 23.6113 25.7805 23.4506C25.847 23.2898 25.9059 23.23 25.9801 23.1543C26.0702 23.0625 26.1716 22.9582 26.2701 22.7208C26.3681 22.4834 26.3699 22.3386 26.3711 22.2106C26.3724 22.1046 26.3733 22.0203 26.4393 21.8604C26.5058 21.7005 26.5643 21.6407 26.6384 21.5649C26.7281 21.4731 26.8294 21.3695 26.9277 21.133L26.5295 20.9681C26.463 21.128 26.4045 21.1878 26.3304 21.2636C26.2408 21.3554 26.1394 21.459 26.0412 21.6955C25.9431 21.9329 25.9413 22.0777 25.9401 22.2057C25.9388 22.3117 25.9379 22.396 25.8719 22.5559C25.8054 22.7166 25.7465 22.7765 25.6723 22.8521C25.5823 22.9439 25.4808 23.0482 25.3824 23.2856C25.2843 23.523 25.2826 23.6687 25.281 23.7967C25.2801 23.9005 25.2772 23.9844 25.215 24.1385V20.6895H24.7839V23.7933C24.74 23.7357 24.6968 23.69 24.6564 23.6486C24.582 23.5728 24.5234 23.5122 24.4568 23.3523C24.3903 23.1916 24.389 23.1074 24.3877 23.0004C24.3865 22.8724 24.3848 22.7268 24.2864 22.4894C24.1883 22.2528 24.0868 22.1493 23.9971 22.0574C23.923 21.9816 23.8646 21.9219 23.798 21.7619C23.732 21.602 23.7311 21.5178 23.7298 21.4117C23.7286 21.2837 23.7269 21.139 23.6288 20.9023L23.2306 21.0673C23.2966 21.2272 23.2975 21.3106 23.2988 21.4166C23.3 21.5446 23.3017 21.6894 23.3998 21.9268C23.4979 22.1633 23.5995 22.2668 23.6891 22.3587C23.7632 22.4345 23.8216 22.4942 23.8882 22.6542C23.9547 22.8149 23.956 22.8991 23.9573 23.0061C23.9585 23.1342 23.9602 23.2798 24.0586 23.5172C24.1567 23.7546 24.2582 23.8581 24.3479 23.9499C24.4209 24.0241 24.4788 24.0861 24.5436 24.2392L22.104 21.7998L21.7992 22.1046L24.235 24.5401C24.1014 24.4795 24.037 24.4237 23.9669 24.3558C23.8748 24.2657 23.7708 24.1639 23.5326 24.0653C23.2952 23.9677 23.1499 23.9651 23.0215 23.9635C22.9146 23.9626 22.8305 23.961 22.6684 23.8936C22.5063 23.8271 22.4457 23.7683 22.3687 23.6934C22.2766 23.6041 22.1721 23.5023 21.9334 23.4029C21.6952 23.3044 21.5495 23.3027 21.4208 23.3011C21.3134 23.2993 21.2289 23.2977 21.0667 23.2304L20.9018 23.6294C21.1401 23.7279 21.2858 23.7296 21.4145 23.7312C21.5218 23.733 21.6064 23.7346 21.7685 23.8019C21.931 23.8684 21.9916 23.9273 22.0686 24.0022C22.1607 24.0923 22.2652 24.1933 22.5034 24.2919C22.7416 24.3912 22.8873 24.393 23.0157 24.3946C23.1226 24.3964 23.2067 24.3971 23.368 24.4644C23.5292 24.5309 23.5895 24.5898 23.6657 24.6641C23.7048 24.7024 23.7486 24.7431 23.8015 24.7845H20.6887V25.2155H24.1315C23.9955 25.2673 23.9104 25.2738 23.8128 25.2753C23.6845 25.2762 23.5392 25.2786 23.3014 25.3764C23.0636 25.4749 22.9591 25.5766 22.867 25.666C22.7904 25.7409 22.7302 25.7998 22.569 25.8663C22.4069 25.9337 22.3223 25.9353 22.215 25.937C22.0862 25.9388 21.9406 25.9403 21.7023 26.0389C21.4636 26.1382 21.3592 26.2392 21.267 26.3293C21.19 26.4042 21.1294 26.4631 20.9673 26.5296L21.1323 26.9286C21.3706 26.8293 21.475 26.7283 21.567 26.6382C21.6441 26.5633 21.7046 26.5044 21.8671 26.4379C22.0292 26.3705 22.1138 26.3688 22.2211 26.3672C22.3499 26.3654 22.4956 26.3639 22.7343 26.2644C22.9717 26.1659 23.0757 26.0648 23.1678 25.9748C23.244 25.9007 23.3046 25.8418 23.4664 25.7752C23.6271 25.7078 23.7118 25.707 23.8183 25.7054C23.8728 25.7051 23.9342 25.7015 24.0007 25.6933L21.7987 27.895L22.1035 28.1998L24.5381 25.7655C24.4782 25.8985 24.4228 25.9627 24.3546 26.0329C24.265 26.1247 24.1636 26.229 24.065 26.4664C23.9664 26.7038 23.9643 26.8504 23.9631 26.9782C23.9614 27.0851 23.9607 27.1692 23.8936 27.3309C23.8267 27.4934 23.7673 27.554 23.6928 27.6307C23.6028 27.7224 23.5013 27.8276 23.4024 28.0659C23.3035 28.3042 23.3017 28.4499 23.3001 28.5786C23.2984 28.6855 23.2972 28.7705 23.2303 28.9321L23.6285 29.0971C23.7274 28.8588 23.7291 28.7131 23.7307 28.5844C23.7325 28.4774 23.7336 28.3925 23.8005 28.2308C23.8674 28.0683 23.9268 28.0078 24.0013 27.9311C24.0914 27.8393 24.1928 27.7342 24.2917 27.4959C24.3903 27.2585 24.3924 27.1119 24.3936 26.9841C24.3954 26.8771 24.396 26.7931 24.4631 26.6313C24.5296 26.4697 24.5885 26.4099 24.663 26.3333C24.7013 26.294 24.742 26.2502 24.7834 26.1971V29.3101H25.2145V25.8676C25.2659 26.0033 25.2724 26.0882 25.2739 26.186C25.2751 26.3141 25.2772 26.4597 25.3757 26.6971C25.4738 26.9353 25.5756 27.0397 25.6654 27.1314C25.7398 27.2081 25.7988 27.2686 25.8657 27.4303C25.9326 27.5919 25.9338 27.6769 25.9355 27.7838C25.9372 27.9126 25.9388 28.0582 26.0377 28.2965C26.1367 28.5347 26.238 28.64 26.3282 28.7317C26.4026 28.8084 26.462 28.8689 26.5289 29.0314L26.9271 28.8665C26.8282 28.6282 26.7268 28.5229 26.6367 28.4312C26.5622 28.3546 26.5029 28.294 26.4359 28.1315C26.369 27.9699 26.3677 27.8848 26.3661 27.778C26.3643 27.6492 26.3627 27.5036 26.2638 27.2653C26.1653 27.027 26.0639 26.9226 25.9742 26.8309C25.8997 26.7543 25.8408 26.6937 25.7739 26.5321C25.707 26.3714 25.7061 26.2872 25.7043 26.1802C25.7038 26.1258 25.7002 26.0642 25.692 25.9977L27.8944 28.1999L28.1992 27.8951L26.0037 25.7C26.0749 25.7095 26.1388 25.7123 26.1963 25.7131C26.3028 25.714 26.3867 25.7148 26.5474 25.7812C26.7081 25.8486 26.7684 25.9066 26.8446 25.9815C26.9364 26.0708 27.0403 26.1725 27.2778 26.2712C27.5148 26.3688 27.66 26.3705 27.7879 26.3714C27.894 26.3731 27.9778 26.3738 28.1377 26.4404C28.2977 26.506 28.3575 26.565 28.4332 26.6391C28.525 26.7284 28.6286 26.8302 28.8656 26.9288L29.0305 26.5298C28.8705 26.4641 28.8108 26.4052 28.735 26.331C28.6432 26.2418 28.5396 26.14 28.3027 26.0414C28.0658 25.9437 27.9204 25.9421 27.7925 25.9412C27.6865 25.9394 27.6027 25.9388 27.4427 25.8722C27.282 25.8057 27.2217 25.7475 27.1455 25.6725C27.0537 25.5833 26.9498 25.4815 26.7123 25.3838C26.4749 25.2845 26.3297 25.2827 26.2013 25.2819C26.0968 25.2802 26.0121 25.2782 25.8572 25.2154H29.3093V24.7844H29.3096Z" fill="#F09146"/>
<path d="M24.9993 27.1553C26.1896 27.1553 27.1545 26.1903 27.1545 25C27.1545 23.8097 26.1896 22.8447 24.9993 22.8447C23.8089 22.8447 22.844 23.8097 22.844 25C22.844 26.1903 23.8089 27.1553 24.9993 27.1553Z" fill="#FFE15A"/>
</g>
<defs>
<clipPath id="clip0_106_20765">
<rect width="50" height="50" fill="white"/>
</clipPath>
</defs>
</svg>
