<svg width="50" height="50" viewBox="0 0 50 50" fill="none" xmlns="http://www.w3.org/2000/svg">
<g clip-path="url(#clip0_106_20754)">
<path d="M49.1373 41.3796H0.861619C0.385546 41.3796 -0.000488281 40.9936 -0.000488281 40.5175V9.4832C-0.000488281 9.00713 0.385546 8.62109 0.861619 8.62109H49.1374C49.6135 8.62109 49.9995 9.00713 49.9995 9.4832V40.5175C49.9994 40.9937 49.6134 41.3796 49.1373 41.3796Z" fill="#4173CD"/>
<path d="M49.9994 31.0342H-0.000488281V32.7583H49.9994V31.0342Z" fill="#FFE15A"/>
<path d="M49.9989 34.4824H-0.000976562V36.2065H49.9989V34.4824Z" fill="#FFE15A"/>
<path d="M6.36992 17.1813L3.16211 16.0859L6.36992 14.9906L7.46532 11.7832L8.56063 14.9906L11.7684 16.0859L8.56063 17.1813L7.46532 20.3888L6.36992 17.1813Z" fill="#FF4B55"/>
<path d="M7.46493 12.3602L8.41356 15.138L11.1914 16.0866L8.41356 17.0352L7.46493 19.8131L6.5163 17.0352L3.73847 16.0866L6.5163 15.138L7.46493 12.3602ZM7.46493 11.207L7.1122 12.2396L6.22275 14.8444L3.61806 15.7339L2.58545 16.0866L3.61806 16.4391L6.22275 17.3286L7.1122 19.9333L7.46493 20.9659L7.81767 19.9333L8.70712 17.3286L11.3118 16.4391L12.3444 16.0866L11.3118 15.7341L8.70712 14.8446L7.81767 12.2399L7.46493 11.207Z" fill="#F5F5F5"/>
</g>
<defs>
<clipPath id="clip0_106_20754">
<rect width="50" height="50" fill="white"/>
</clipPath>
</defs>
</svg>
