<svg width="50" height="50" viewBox="0 0 50 50" fill="none" xmlns="http://www.w3.org/2000/svg">
<g clip-path="url(#clip0_106_20726)">
<path d="M0.000976562 30.46H50.0009V40.5174C50.0009 40.9934 49.6148 41.3795 49.1388 41.3795H0.863084C0.387011 41.3795 0.000976562 40.9934 0.000976562 40.5174V30.46Z" fill="#73AF00"/>
<path d="M0.863084 8.62109H49.1389C49.6149 8.62109 50.001 9.00713 50.001 9.4832V19.5406H0.000976562V9.4832C0.000976562 9.00713 0.387011 8.62109 0.863084 8.62109Z" fill="#82AFFF"/>
<path d="M50.0009 19.54H0.000976562V30.459H50.0009V19.54Z" fill="#FF4B55"/>
<path d="M26.1763 28.5748C24.2418 28.5748 22.6723 27.0053 22.6723 25.0691C22.6723 23.1363 24.2418 21.5634 26.1763 21.5634C26.8961 21.5634 27.5599 21.7847 28.113 22.1594C28.1977 22.2169 28.2944 22.1054 28.2235 22.0317C27.3967 21.1722 26.2266 20.6477 24.9294 20.6921C22.7005 20.7681 20.8553 22.555 20.7129 24.7807C20.5497 27.3299 22.5682 29.4485 25.0815 29.4485C26.3194 29.4485 27.432 28.9309 28.2266 28.1035C28.2967 28.0304 28.1999 27.9208 28.1161 27.9776C27.5624 28.3532 26.8974 28.5748 26.1763 28.5748Z" fill="#F5F5F5"/>
<path d="M29.2439 22.9112L29.6075 23.9334L30.5874 23.4677C30.6612 23.4325 30.7383 23.5096 30.7031 23.5834L30.2374 24.5633L31.2595 24.9269C31.3366 24.9542 31.3366 25.0632 31.2595 25.0905L30.2374 25.4541L30.7031 26.434C30.7383 26.5078 30.6612 26.5849 30.5874 26.5497L29.6075 26.084L29.2439 27.1061C29.2166 27.1832 29.1076 27.1832 29.0802 27.1061L28.7167 26.084L27.7368 26.5497C27.663 26.5849 27.5859 26.5078 27.6211 26.434L28.0868 25.4541L27.0646 25.0905C26.9876 25.0632 26.9876 24.9542 27.0646 24.9269L28.0868 24.5633L27.6211 23.5834C27.5859 23.5096 27.663 23.4325 27.7368 23.4677L28.7167 23.9334L29.0802 22.9112C29.1077 22.8343 29.2166 22.8343 29.2439 22.9112Z" fill="#F5F5F5"/>
</g>
<defs>
<clipPath id="clip0_106_20726">
<rect width="50" height="50" fill="white"/>
</clipPath>
</defs>
</svg>
