<svg width="50" height="50" viewBox="0 0 50 50" fill="none" xmlns="http://www.w3.org/2000/svg">
<g clip-path="url(#clip0_106_20696)">
<path d="M19.8276 41.3797H0.862111C0.386036 41.3797 0 40.9937 0 40.5176V9.4832C0 9.00713 0.386036 8.62109 0.862111 8.62109H19.8276V41.3797Z" fill="#41479B"/>
<path d="M49.1376 41.2719H19.8271V8.62109H49.1375C49.6135 8.62109 49.9996 9.00713 49.9996 9.4832V40.4099C49.9997 40.886 49.6136 41.2719 49.1376 41.2719Z" fill="#F5F5F5"/>
<path d="M25.6428 24.8118C25.2799 24.8118 24.9279 24.9354 24.6445 25.162L22.9255 26.5372C22.6421 26.764 22.2901 26.8874 21.9272 26.8874H21.45V26.613C21.45 26.1914 21.7917 25.8496 22.2134 25.8496H23.0068V25.4797C23.0068 25.1108 22.7077 24.8118 22.3389 24.8118H21.969C21.969 24.5253 21.7366 24.293 21.4501 24.293C20.0172 24.293 18.8556 25.4546 18.8556 26.8875H17.8595C17.4967 26.8875 17.1445 26.764 16.8612 26.5373L15.1422 25.1621C14.8588 24.9354 14.5067 24.8119 14.144 24.8119H6.57392C6.31884 24.8119 6.1912 25.1202 6.37157 25.3006L8.9916 27.9206C9.32685 28.2559 9.78154 28.4442 10.2556 28.4442H12.1097L13.6317 29.5859C13.991 29.8554 14.4279 30.0009 14.8772 30.0009H16.7799C17.1066 30.0009 17.4142 29.8471 17.6101 29.5859L17.8176 29.3091V30.5198L16.5371 33.081C16.4102 33.3348 16.5947 33.6333 16.8785 33.6333H21.0683C21.279 33.6333 21.4499 33.4624 21.4499 33.2517V28.6173L22.1764 29.5859C22.3724 29.8473 22.6799 30.001 23.0067 30.001H24.9094C25.3585 30.001 25.7955 29.8553 26.1548 29.5859L27.6769 28.4443H29.531C30.0051 28.4443 30.4598 28.256 30.795 27.9207L33.415 25.3007C33.5953 25.1204 33.4675 24.812 33.2126 24.812H25.6428V24.8118Z" fill="#FFE15A"/>
<path d="M19.9936 16.4043L20.2416 17.1482L21.0258 17.1542C21.1273 17.155 21.1694 17.2846 21.0877 17.3449L20.4568 17.8107L20.6934 18.5583C20.7239 18.6551 20.6138 18.7352 20.5312 18.6761L19.8933 18.2201L19.2554 18.6761C19.1729 18.7352 19.0626 18.6551 19.0932 18.5583L19.3297 17.8107L18.6988 17.3449C18.6172 17.2845 18.6593 17.155 18.7608 17.1542L19.5449 17.1482L19.793 16.4043C19.8252 16.3079 19.9614 16.3079 19.9936 16.4043Z" fill="#FFE15A"/>
<path d="M8.47519 21.0916L9.17656 21.4422L9.73525 20.892C9.80751 20.8208 9.929 20.8827 9.91396 20.9831L9.79726 21.7584L10.4932 22.1199C10.5832 22.1666 10.5619 22.3012 10.4618 22.3178L9.68828 22.4465L9.55956 23.2201C9.54287 23.3202 9.40839 23.3416 9.36161 23.2514L9.00019 22.5555L8.2248 22.6722C8.12441 22.6873 8.06249 22.566 8.13378 22.4935L8.68398 21.9348L8.33339 21.2334C8.28808 21.1427 8.38437 21.0463 8.47519 21.0916Z" fill="#FFE15A"/>
<path d="M31.4525 21.2345L31.102 21.9358L31.6522 22.4945C31.7234 22.5668 31.6616 22.6883 31.5612 22.6732L30.7858 22.5565L30.4244 23.2524C30.3776 23.3425 30.2431 23.3212 30.2265 23.2211L30.0977 22.4476L29.3242 22.3188C29.2241 22.3021 29.2027 22.1677 29.2929 22.1209L29.9888 21.7595L29.8721 20.9841C29.857 20.8837 29.9783 20.8218 30.0507 20.8931L30.6094 21.4433L31.3107 21.0927C31.4016 21.0473 31.4979 21.1436 31.4525 21.2345Z" fill="#FFE15A"/>
<path d="M13.7679 17.603L14.2818 18.1954L15.0086 17.9009C15.1026 17.8627 15.1911 17.9663 15.1387 18.0533L14.7342 18.7251L15.2388 19.3253C15.3042 19.403 15.233 19.5191 15.134 19.4962L14.3702 19.319L13.9553 19.9845C13.9016 20.0706 13.7691 20.0388 13.7604 19.9377L13.6928 19.1564L12.9318 18.9675C12.8333 18.9431 12.8225 18.8072 12.9161 18.7676L13.6381 18.4619L13.5827 17.6797C13.5756 17.5786 13.7014 17.5265 13.7679 17.603Z" fill="#FFE15A"/>
<path d="M26.2033 17.6798L26.1478 18.462L26.8699 18.7677C26.9634 18.8073 26.9526 18.9431 26.8542 18.9676L26.0931 19.1566L26.0256 19.9378C26.0169 20.039 25.8844 20.0708 25.8306 19.9846L25.4158 19.3192L24.6519 19.4963C24.553 19.5193 24.4819 19.4032 24.5471 19.3254L25.0517 18.7252L24.6472 18.0534C24.5949 17.9665 24.6834 17.8629 24.7774 17.901L25.5042 18.1955L26.018 17.6032C26.0845 17.5264 26.2104 17.5785 26.2033 17.6798Z" fill="#FFE15A"/>
<path d="M16.8219 16.697L17.2103 17.3782L17.9806 17.2312C18.0803 17.2122 18.1469 17.331 18.0785 17.4061L17.5507 17.9861L17.9285 18.6732C17.9774 18.7622 17.885 18.8622 17.7924 18.8204L17.0777 18.4976L16.541 19.0693C16.4715 19.1433 16.3478 19.0863 16.359 18.9853L16.4451 18.2059L15.7355 17.8721C15.6436 17.829 15.6597 17.6937 15.7592 17.6731L16.527 17.5141L16.6252 16.7361C16.638 16.6353 16.7717 16.6087 16.8219 16.697Z" fill="#FFE15A"/>
<path d="M29.0032 19.1984L28.7962 19.9548L29.4448 20.3955C29.5288 20.4526 29.4918 20.5837 29.3904 20.5884L28.6071 20.6252L28.3884 21.3782C28.3601 21.4758 28.224 21.4811 28.1882 21.3861L27.911 20.6526L27.1273 20.6774C27.0258 20.6806 26.9787 20.5527 27.0579 20.4893L27.67 19.999L27.4043 19.2613C27.3699 19.1658 27.4769 19.0815 27.5617 19.1372L28.2171 19.5678L28.8366 19.0871C28.9168 19.0248 29.03 19.1005 29.0032 19.1984Z" fill="#FFE15A"/>
<path d="M10.9496 19.0871L11.5691 19.5677L12.2245 19.1372C12.3092 19.0815 12.4163 19.1657 12.3819 19.2613L12.1162 19.999L12.7283 20.4892C12.8075 20.5527 12.7604 20.6805 12.6588 20.6773L11.8752 20.6526L11.598 21.3861C11.5622 21.481 11.426 21.4757 11.3977 21.3782L11.1791 20.6252L10.3958 20.5883C10.2944 20.5836 10.2574 20.4525 10.3414 20.3955L10.99 19.9547L10.783 19.1984C10.756 19.1005 10.8693 19.0249 10.9496 19.0871Z" fill="#FFE15A"/>
<path d="M23.1614 16.7361L23.2596 17.5141L24.0274 17.6731C24.1269 17.6937 24.1429 17.829 24.0511 17.8721L23.3415 18.2059L23.4276 18.9853C23.4388 19.0862 23.315 19.1433 23.2456 19.0693L22.7089 18.4976L21.9942 18.8204C21.9016 18.8622 21.8092 18.7621 21.8581 18.6732L22.2359 17.9861L21.7081 17.4061C21.6397 17.331 21.7063 17.2122 21.806 17.2312L22.5763 17.3782L22.9647 16.697C23.0151 16.6087 23.1486 16.6353 23.1614 16.7361Z" fill="#FFE15A"/>
<path d="M7.04874 12.3228V14.5541C7.04874 15.4769 6.29796 16.2276 5.3752 16.2276C4.45245 16.2276 3.70166 15.4769 3.70166 14.5541V12.3228H7.04874ZM7.60646 11.207H3.14385C2.83574 11.207 2.58594 11.4568 2.58594 11.7649V14.5542C2.58594 16.0946 3.83477 17.3435 5.3752 17.3435C6.91563 17.3435 8.16447 16.0946 8.16447 14.5542V11.7649C8.16437 11.4568 7.91456 11.207 7.60646 11.207Z" fill="#FF4B55"/>
<path d="M7.04874 12.3223V14.5536C7.04874 15.4764 6.29795 16.2272 5.3752 16.2272C4.45244 16.2272 3.70166 15.4764 3.70166 14.5536V12.3223H7.04874Z" fill="#F5F5F5"/>
<path d="M3.13975 12.0432C3.29378 12.0432 3.41865 11.9183 3.41865 11.7643C3.41865 11.6102 3.29378 11.4854 3.13975 11.4854C2.98571 11.4854 2.86084 11.6102 2.86084 11.7643C2.86084 11.9183 2.98571 12.0432 3.13975 12.0432Z" fill="#FFE15A"/>
<path d="M7.60215 12.0432C7.75618 12.0432 7.88106 11.9183 7.88106 11.7643C7.88106 11.6102 7.75618 11.4854 7.60215 11.4854C7.44811 11.4854 7.32324 11.6102 7.32324 11.7643C7.32324 11.9183 7.44811 12.0432 7.60215 12.0432Z" fill="#FFE15A"/>
<path d="M3.13926 14.2746C3.29329 14.2746 3.41816 14.1497 3.41816 13.9957C3.41816 13.8417 3.29329 13.7168 3.13926 13.7168C2.98522 13.7168 2.86035 13.8417 2.86035 13.9957C2.86035 14.1497 2.98522 14.2746 3.13926 14.2746Z" fill="#FFE15A"/>
<path d="M7.60215 14.2746C7.75618 14.2746 7.88106 14.1497 7.88106 13.9957C7.88106 13.8417 7.75618 13.7168 7.60215 13.7168C7.44811 13.7168 7.32324 13.8417 7.32324 13.9957C7.32324 14.1497 7.44811 14.2746 7.60215 14.2746Z" fill="#FFE15A"/>
<path d="M5.3707 12.0432C5.52474 12.0432 5.64961 11.9183 5.64961 11.7643C5.64961 11.6102 5.52474 11.4854 5.3707 11.4854C5.21667 11.4854 5.0918 11.6102 5.0918 11.7643C5.0918 11.9183 5.21667 12.0432 5.3707 12.0432Z" fill="#FFE15A"/>
<path d="M7.04453 16.3313C7.19857 16.3313 7.32344 16.2064 7.32344 16.0523C7.32344 15.8983 7.19857 15.7734 7.04453 15.7734C6.8905 15.7734 6.76562 15.8983 6.76562 16.0523C6.76562 16.2064 6.8905 16.3313 7.04453 16.3313Z" fill="#FFE15A"/>
<path d="M3.7291 16.3313C3.88314 16.3313 4.00801 16.2064 4.00801 16.0523C4.00801 15.8983 3.88314 15.7734 3.7291 15.7734C3.57507 15.7734 3.4502 15.8983 3.4502 16.0523C3.4502 16.2064 3.57507 16.3313 3.7291 16.3313Z" fill="#FFE15A"/>
<path d="M5.73467 13.8545V14.3349C5.73467 14.5335 5.57305 14.6951 5.37441 14.6951C5.17578 14.6951 5.01416 14.5335 5.01416 14.3349V13.8545H5.73467Z" fill="#41479B"/>
<path d="M5.73467 12.7158V13.1962C5.73467 13.3948 5.57305 13.5564 5.37441 13.5564C5.17578 13.5564 5.01416 13.3948 5.01416 13.1962V12.7158H5.73467Z" fill="#41479B"/>
<path d="M5.73467 15.0049V15.4853C5.73467 15.6839 5.57305 15.8455 5.37441 15.8455C5.17578 15.8455 5.01416 15.6839 5.01416 15.4853V15.0049H5.73467Z" fill="#41479B"/>
<path d="M6.70537 13.8545V14.3349C6.70537 14.5335 6.54375 14.6951 6.34512 14.6951C6.14648 14.6951 5.98486 14.5335 5.98486 14.3349V13.8545H6.70537Z" fill="#41479B"/>
<path d="M4.76446 13.8545V14.3349C4.76446 14.5335 4.60283 14.6951 4.4042 14.6951C4.20557 14.6951 4.04395 14.5335 4.04395 14.3349V13.8545H4.76446Z" fill="#41479B"/>
</g>
<defs>
<clipPath id="clip0_106_20696">
<rect width="50" height="50" fill="white"/>
</clipPath>
</defs>
</svg>
