<svg width="50" height="50" viewBox="0 0 50 50" fill="none" xmlns="http://www.w3.org/2000/svg">
<g clip-path="url(#clip0_106_20690)">
<path d="M49.9999 19.5407H0V9.4832C0 9.00713 0.386034 8.62109 0.862108 8.62109H49.1379C49.614 8.62109 50 9.00713 50 9.4832L49.9999 19.5407Z" fill="#82AFFF"/>
<path d="M49.1378 41.3795H0.862108C0.386034 41.3795 0 40.9934 0 40.5174V30.46H49.9999V40.5174C49.9999 40.9935 49.6139 41.3795 49.1378 41.3795Z" fill="#82AFFF"/>
<path d="M49.9999 19.54H0V30.459H49.9999V19.54Z" fill="#FFE15A"/>
<path d="M0.317968 41.1708L20.1266 25.4467C20.4143 25.2184 20.4143 24.7815 20.1266 24.5531L0.317968 8.8291C0.128027 8.98721 0 9.21631 0 9.48271V40.5171C0 40.7836 0.128027 41.0127 0.317968 41.1708Z" fill="#464655"/>
</g>
<defs>
<clipPath id="clip0_106_20690">
<rect width="50" height="50" fill="white"/>
</clipPath>
</defs>
</svg>
