<svg width="50" height="50" viewBox="0 0 50 50" fill="none" xmlns="http://www.w3.org/2000/svg">
<g clip-path="url(#clip0_106_20687)">
<path d="M20.6887 41.3797H0.861135C0.385059 41.3797 -0.000976562 40.9937 -0.000976562 40.5176V9.4832C-0.000976562 9.00713 0.385059 8.62109 0.861135 8.62109H20.6887V41.3797Z" fill="#F5F5F5"/>
<path d="M13.7925 8.62119L20.6891 10.6686L13.7925 12.7159L20.6891 14.7633L13.7925 16.8107L20.6891 18.858L13.7925 20.9054L20.6891 22.9528L13.7925 25.0001L20.6891 27.0475L13.7925 29.0949L20.6891 31.1422L13.7925 33.1896L20.6891 35.237L13.7925 37.2843L20.6891 39.3317L13.7925 41.3791H49.1373C49.6134 41.3791 49.9994 40.993 49.9994 40.517V9.4832C49.9994 9.00713 49.6134 8.62109 49.1373 8.62109L13.7925 8.62119Z" fill="#FF4B55"/>
</g>
<defs>
<clipPath id="clip0_106_20687">
<rect width="50" height="50" fill="white"/>
</clipPath>
</defs>
</svg>
