<svg width="50" height="50" viewBox="0 0 50 50" fill="none" xmlns="http://www.w3.org/2000/svg">
<g clip-path="url(#clip0_106_20671)">
<path d="M49.1373 41.3796H0.861619C0.385546 41.3796 -0.000488281 40.9936 -0.000488281 40.5175V9.4832C-0.000488281 9.00713 0.385546 8.62109 0.861619 8.62109H49.1374C49.6135 8.62109 49.9995 9.00713 49.9995 9.4832V40.5175C49.9994 40.9937 49.6134 41.3796 49.1373 41.3796Z" fill="#73AF00"/>
<path d="M21.5513 36.207C27.7407 36.207 32.7583 31.1894 32.7583 25C32.7583 18.8105 27.7407 13.793 21.5513 13.793C15.3618 13.793 10.3442 18.8105 10.3442 25C10.3442 31.1894 15.3618 36.207 21.5513 36.207Z" fill="#FF4B55"/>
</g>
<defs>
<clipPath id="clip0_106_20671">
<rect width="50" height="50" fill="white"/>
</clipPath>
</defs>
</svg>
