<svg width="50" height="50" viewBox="0 0 50 50" fill="none" xmlns="http://www.w3.org/2000/svg">
<path d="M16.3462 41.3466H0.845529C0.378611 41.3466 0 40.9613 0 40.4862V9.51466C0 9.03955 0.378611 8.6543 0.845529 8.6543H16.3462V41.3466Z" fill="#41479B"/>
<path d="M32.6923 8.6543H16.3462V41.3466H32.6923V8.6543Z" fill="#FFE15A"/>
<path d="M49.1544 41.3466H33.6538V8.6543H49.1544C49.6214 8.6543 50 9.03955 50 9.51466V40.4862C50 40.9614 49.6214 41.3466 49.1544 41.3466Z" fill="#41479B"/>
<path d="M31.7306 20.3346C31.7306 20.3346 29.3894 20.3346 27.6336 22.1509H28.804C28.804 22.1509 27.6701 24.2698 27.0848 27.9023L25.8777 27.6984V22.1328L27.0482 22.5293L24.9998 17.3076L22.9513 22.5293L24.1218 22.1255V27.6984L22.9148 27.9022C22.3295 24.2698 21.1955 22.1508 21.1955 22.1508H22.366C20.6102 20.3346 18.269 20.3346 18.269 20.3346C21.1954 23.967 21.1954 30.0212 21.1954 30.0212L24.1217 29.5168V33.6538H25.8776V29.5168L28.8039 30.0212C28.8041 30.0213 28.8041 23.9672 31.7306 20.3346Z" fill="#464655"/>
</svg>
