<svg width="50" height="50" viewBox="0 0 50 50" fill="none" xmlns="http://www.w3.org/2000/svg">
<path d="M49.1379 41.3462H0.862109C0.386035 41.3462 0 40.9587 0 40.4808V32.6924H50V40.4808C50 40.9588 49.614 41.3462 49.1379 41.3462Z" fill="#73AF00"/>
<path d="M49.1379 8.6543H0.862109C0.386035 8.6543 0 9.03874 0 9.51285V32.6928H50V9.51285C50 9.03874 49.614 8.6543 49.1379 8.6543Z" fill="#FF4B55"/>
<path d="M6.73077 41.3466H0.841382C0.376754 41.3466 0 40.9613 0 40.4862V9.51466C0 9.03955 0.376754 8.6543 0.841382 8.6543H6.73077V41.3466Z" fill="#F5F5F5"/>
<path d="M0.961426 39.8196H1.24483V38.9724H0.961426V39.8196ZM3.22343 39.8196H3.50693V38.9724H3.22343V39.8196ZM5.48689 39.8196H5.76903V38.9724H5.48689V39.8196ZM2.09388 37.5482H2.37448V36.8421H2.09388V37.5482ZM4.35725 37.5482H4.63939V36.8421H4.35725V37.5482ZM0.961426 35.7064H1.24483V34.8592H0.961426V35.7064ZM3.22343 35.7064H3.50693V34.8592H3.22343V35.7064ZM5.48689 35.7064H5.76903V34.8592H5.48689V35.7064ZM1.52979 36.8421H1.81038V36.1298H2.09388V35.4238H2.37448V36.1298H2.65943V36.8421H2.94002V37.5482H2.65943V38.2602H2.37448V38.9722H2.09388V38.2602H1.81038V37.5482H1.52979V36.8421ZM3.79188 36.8421H4.07529V36.1298H4.35734V35.4238H4.63948V36.1298H4.92152V36.8421H5.20493V37.5482H4.92152V38.2602H4.63948V38.9722H4.35734V38.2602H4.07529V37.5482H3.79188V36.8421ZM4.35725 34.0059V34.7119H4.07248V35.4239H3.79188V36.1299H3.50693V36.8422H3.22343V36.1299H2.93993V35.4239H2.65934V34.7119H2.37439V34.0059H2.09379V34.7119H1.81029V35.4239H1.5297V36.1299H1.24474V36.8422H0.961426V37.5483H1.24483V38.2603H1.52979V38.9723H1.81038V39.6783H2.09388V40.3845H2.37738V39.6783H2.65943V38.9723H2.94002V38.2603H3.22352V37.5483H3.50702V38.2603H3.79197V38.9723H4.07538V39.6783H4.35743V40.3845H4.63957V39.6783H4.92162V38.9723H5.20502V38.2603H5.48852V37.5483H5.76912V36.8422H5.48698V36.1299H5.20502V35.4239H4.92162V34.7119H4.63957V34.0059H4.35725ZM5.05805 33.3H5.19912V33.0177H5.34155V33.3H5.48398V33.5823H5.34155V33.8708H5.19912V33.5823H5.05805V33.3ZM5.05805 32.3115V32.7291H4.91853V33.1588H4.7761V33.7236H4.91853V34.1471H5.05805V34.5706H5.48408V34.1471H5.62514V33.7236H5.76467V33.1588H5.62514V32.7291H5.48408V32.3115H5.05805ZM1.24483 33.2937H1.38727V33.0115H1.5297V33.2937H1.66777V33.5823H1.5297V33.8646H1.38727V33.5823H1.24483V33.2937ZM1.24483 32.3053V32.729H1.10377V33.1525H0.961426V33.7234H1.10377V34.1469H1.24483V34.5704H1.66786V34.1469H1.81029V33.7234H1.94855V33.1525H1.81029V32.729H1.66786V32.3053H1.24483ZM2.80032 33.2937H2.93984V33.0115H3.08382V33.2937H3.22334V33.5823H3.08382V33.8646H2.93984V33.5823H2.80032V33.2937ZM3.50693 33.2937H3.64936V33.0115H3.79179V33.2937H3.93132V33.5823H3.79179V33.8646H3.64936V33.5823H3.50693V33.2937ZM3.50693 32.3053V32.729H3.22343V32.3053H2.80041V32.729H2.65934V33.1525H2.51691V33.7234H2.65934V34.1469H2.80041V34.5704H3.22343V34.1469H3.50693V34.5704H3.93141V34.1469H4.07529V33.7234H4.21355V33.1525H4.07529V32.729H3.93141V32.3053H3.50693ZM0.961426 32.0168H1.24483V31.1697H0.961426V32.0168ZM3.22343 32.0168H3.50693V31.1697H3.22343V32.0168ZM5.48689 32.0168H5.76903V31.1697H5.48689V32.0168ZM0.961426 28.4744H1.24483V27.9098H0.961426V28.4744ZM5.48689 28.4744H5.76903V27.9098H5.48689V28.4744ZM3.22343 26.4915H3.50693V25.7855H3.22343V26.4915ZM0.961426 24.5763V24.9998V25.0059V25.4294H1.24483V25.0059V24.9998V24.5763H0.961426ZM2.51682 24.5763V24.9998V25.0059V25.4294H2.80032V25.0059V24.9998V24.5763H2.51682ZM3.93141 24.5763V24.9998V25.0059V25.4294H4.21346V25.0059V24.9998V24.5763H3.93141ZM5.48689 24.5763V24.9998V25.0059V25.4294H5.76903V25.0059V24.9998V24.5763H5.48689ZM3.64936 24.0791V24.3615H3.50693V24.5763H3.22343V24.3615H3.08391V24.0791H2.80041V24.5026H2.93993V24.7175H3.08391V24.9998V25.0059V25.2822H2.93993V25.4971H2.80041V25.9206H3.08391V25.6383H3.22343V25.4295H3.50693V25.6383H3.64936V25.9206H3.93141V25.4971H3.79188V25.2822H3.64945V25.0059V24.9998V24.7175H3.79188V24.5026H3.93141V24.0791H3.64936ZM3.22343 24.2201H3.50693V23.5141H3.22343V24.2201ZM0.961426 22.0959H1.24483V21.5313H0.961426V22.0959ZM5.48689 22.0959H5.76903V21.5313H5.48689V22.0959ZM0.961426 18.8361H1.24483V17.9829H0.961426V18.8361ZM3.22343 18.8361H3.50693V17.9829H3.22343V18.8361ZM5.48689 18.8361H5.76903V17.9829H5.48689V18.8361ZM2.09388 25.0121V24.9937V24.7174H2.37448V24.2262H2.65943V23.6552H3.08391V22.9862H3.22343V22.6608H3.36595H3.50693V22.98H3.64936V23.6553H4.0752V23.9377V24.2262H4.35725V24.7174H4.63939V24.9998V25.2821H4.35725V25.7855H4.0752V26.0678V26.3502H3.64936V27.0194H3.50693V27.3386H3.36595H3.22343V27.0194H3.08391V26.3502H2.65943V25.7853H2.37448V25.2819H2.09388V25.0121ZM4.35725 17.1296V17.8416H4.07248V18.5476H3.79188V19.2599H3.50693V19.8246V19.9659H3.22343V19.2598H2.93993V18.5475H2.65934V17.8415H2.37439V17.1295H2.09379V17.8415H1.81029V18.5475H1.52679V19.2598H1.24474V19.8245V19.9658H0.961426V20.6778H1.24483V21.3898H1.52688V22.0958H1.81038V22.802H2.09388V22.0958H2.37448V21.3898H2.65943V20.6778H2.37448V19.8244H2.65943V19.9657V20.3954H2.94002V21.5312H3.084V22.231L2.65952 22.2371V22.802H2.37457V23.2254H2.09397V23.9375H1.81047V23.2254H1.52697V22.802H1.24493V22.3783H0.961426V23.6551H1.24483V24.2261H1.52688V24.7173H1.81038V24.9998V25.0059V25.2822H1.52688V25.7856H1.24483V26.3505H0.961426V27.6273H1.24483V27.1976H1.52688V26.7741H1.81038V26.068H2.09388V26.7741H2.37448V27.1976H2.65943V27.7685L3.08391 27.7746V28.4744H2.93993V29.6103H2.65934V30.0337V30.1812H2.37439V29.3217H2.65934V28.6157H2.37439V27.9097H2.09379V27.1974H1.81029V27.9097H1.52679V28.6157H1.24474V29.3217H0.961426V30.0337H1.24483V30.1812V30.7398H1.52979V31.4521H1.81038V32.1641H2.09388V32.8701H2.37448V32.1641H2.65943V31.4521H2.94002V30.7398H3.22352V30.0337H3.50702V30.1812V30.7398H3.79197V31.4521H4.07538V32.1641H4.35743V32.8701H4.63957V32.1641H4.92162V31.4521H5.20502V30.7398H5.48698V30.0337H5.76903V29.3217H5.48689V28.6157H5.20493V27.9097H4.92152V27.1974H4.63948V27.9097H4.35734V28.6157H4.07257V29.3217H4.35734V30.0337V30.1812H4.07257V30.0337V29.6103H3.79197V28.4744H3.75158H3.64954V27.7684H3.75158H3.82792H3.9315H4.07538V27.1975H4.35743V26.774H4.63957V26.0679H4.92162V26.774H5.20502V27.1975H5.48852V27.6272H5.76912V26.3504H5.48843V25.7855H5.20493V25.2821H4.92152V25.0059V24.9998V24.7175H5.20493V24.2263H5.48843V23.6553H5.76912V22.3785H5.48843V22.8021H5.20493V23.2256H4.92152V23.9377H4.63948V23.2256H4.35734V22.8021H4.07529V22.2373H3.93141H3.82783H3.75149H3.64945V21.5313H3.75149H3.79188V20.3954H4.07248V19.9658V19.8245H4.35725V19.9658V20.6778H4.07248V21.3898H4.35725V22.0958H4.63939V22.802H4.92143V22.0958H5.20484V21.3898H5.4868V20.6778H5.76912V19.9658H5.48698V19.2597H5.20502V18.5474H4.92162V17.8414H4.63957V17.1294H4.35725V17.1296ZM1.24483 16.4235H1.38454V16.1412H1.52979V16.4235H1.66786V16.7059H1.52979V16.9944H1.38454V16.7059H1.24483V16.4235ZM1.24483 15.8526H1.10377V16.2823H0.961426V16.8471H1.10377V17.2768H1.24483V17.7005H1.66786V17.2768H1.81029V16.8471H1.94855V16.2823H1.81029V15.8526H1.66786V15.4352H1.24483V15.8526ZM2.80032 16.4235H2.93984V16.1412H3.08382V16.4235H3.22334V16.7059H3.08382V16.9944H2.93984V16.7059H2.80032V16.4235ZM3.50693 16.4235H3.64936V16.1412H3.79179V16.4235H3.93132V16.7059H3.79179V16.9944H3.64936V16.7059H3.50693V16.4235ZM2.80032 15.8526H2.65925V16.2823H2.51682V16.8471H2.65925V17.2768H2.80032V17.7005H3.22334V17.2768H3.50684V17.7005H3.93132V17.2768H4.0752V16.8471H4.21346V16.2823H4.0752V15.8526H3.93132V15.4352H3.50684V15.8526H3.22334V15.4352H2.80032V15.8526ZM5.05805 16.4174H5.19912V16.1411H5.34155V16.4174H5.48398V16.706H5.34155V16.9882H5.19912V16.706H5.05805V16.4174ZM5.05805 15.4291V15.8526H4.91853V16.2823H4.7761V16.8471H4.91853V17.2706H5.05805V17.6943H5.48408V17.2706H5.62514V16.8471H5.76467V16.2823H5.62514V15.8526H5.48408V15.4291H5.05805ZM0.961426 15.1467H1.24483V14.2995H0.961426V15.1467ZM3.22343 15.1467H3.50693V14.2995H3.22343V15.1467ZM5.48689 15.1467H5.76903V14.2995H5.48689V15.1467ZM2.09388 13.1637H2.37448V12.4514H2.09388V13.1637ZM4.35725 13.1637H4.63939V12.4514H4.35725V13.1637ZM0.961426 11.0335H1.24483V10.1863H0.961426V11.0335ZM3.22343 11.0335H3.50693V10.1863H3.22343V11.0335ZM5.48689 11.0335H5.76903V10.1863H5.48689V11.0335ZM1.52979 12.4515H1.81038V11.7455H2.09388V11.0335H2.37448V11.7455H2.65943V12.4515H2.94002V13.1638H2.65943V13.8699H2.37448V14.5819H2.09388V13.8699H1.81038V13.1638H1.52979V12.4515ZM3.79188 12.4515H4.07529V11.7455H4.35734V11.0335H4.63948V11.7455H4.92152V12.4515H5.20493V13.1638H4.92152V13.8699H4.63948V14.5819H4.35734V13.8699H4.07529V13.1638H3.79188V12.4515ZM4.35725 9.61523V10.3276H4.0752V11.0336H3.79179V11.7456H3.50684V12.4516H3.22334V11.7456H2.93984V11.0336H2.65925V10.3276H2.37729V9.61523H2.09379V10.3276H1.81029V11.0336H1.5297V11.7456H1.24474V12.4516H0.961426V13.1639H1.24483V13.87H1.52979V14.582H1.81038V15.294H2.09388V16H2.37448V15.294H2.65943V14.582H2.94002V13.87H3.22352V13.1639H3.50702V13.87H3.79197V14.582H4.07257V15.294H4.35734V16H4.63948V15.294H4.92152V14.582H5.20493V13.87H5.48689V13.1639H5.76903V12.4516H5.48834V11.7456H5.20484V11.0336H4.92143V10.3276H4.63939V9.61523H4.35725Z" fill="#FF4B55"/>
</svg>
