<svg width="50" height="50" viewBox="0 0 50 50" fill="none" xmlns="http://www.w3.org/2000/svg">
<path d="M49.9999 12.5005H0V9.61589C0 9.08488 0.386034 8.6543 0.862108 8.6543H49.1379C49.614 8.6543 50 9.08488 50 9.61589L49.9999 12.5005Z" fill="#FF4B55"/>
<path d="M0 37.5H50V40.3846C50 40.9156 49.614 41.3462 49.1379 41.3462H0.862109C0.386035 41.3462 0 40.9156 0 40.3846V37.5Z" fill="#FF4B55"/>
<path d="M50 12.5H0V38.4615H50V12.5Z" fill="#41479B"/>
<path d="M24.5191 35.5773C30.6261 35.5773 35.5768 30.6266 35.5768 24.5196C35.5768 18.4126 30.6261 13.4619 24.5191 13.4619C18.4121 13.4619 13.4614 18.4126 13.4614 24.5196C13.4614 30.6266 18.4121 35.5773 24.5191 35.5773Z" fill="#F5F5F5"/>
<path d="M23.0769 30.4896L21.527 30.7644C21.3317 30.7991 21.1538 30.6389 21.1538 30.428V29.8076H23.0768L23.0769 30.4896Z" fill="#82AFFF"/>
<path d="M26.9229 30.4896L28.4727 30.7644C28.668 30.7991 28.8459 30.6389 28.8459 30.428V29.8076H26.9229V30.4896H26.9229Z" fill="#82AFFF"/>
<path d="M25.0001 19.2311H24.828C24.6215 19.2311 24.4357 19.1254 24.3431 18.956L24.0386 18.3966L24.3148 18.2695L24.6193 18.8289C24.6591 18.9021 24.7392 18.9475 24.828 18.9475H25.0001V19.2311Z" fill="#965032"/>
<path d="M22.5453 19.1296L22.1152 18.2695L21.8754 18.3895L22.3054 19.2495L22.5453 19.1296Z" fill="#965032"/>
<path d="M25.9612 23.0772L25.1946 22.3689C25.028 22.2149 24.9324 22.0019 24.9324 21.784V21.5456C24.9324 21.4581 24.9099 21.3703 24.8676 21.292L24.6765 20.9388C24.6366 20.8652 24.5565 20.8192 24.4673 20.8192H23.8075C23.6113 20.8192 23.435 20.7186 23.3474 20.5565L23.0767 20.0561L23.3276 19.9399L23.5983 20.4404C23.6382 20.5139 23.7183 20.5599 23.8075 20.5599H24.4673C24.6635 20.5599 24.8398 20.6606 24.9275 20.8226L25.1185 21.1758C25.1804 21.2903 25.2131 21.4179 25.2131 21.5456V21.784C25.2131 21.9335 25.2787 22.0798 25.393 22.1851L25.6808 22.4511V21.2431C25.6808 20.9156 25.5588 20.5945 25.3373 20.3386C25.0763 20.0366 24.9326 19.6582 24.9326 19.272V18.2695H25.2131V19.272C25.2131 19.5995 25.3351 19.9206 25.5565 20.1765C25.8176 20.4784 25.9613 20.8568 25.9613 21.2431V23.0772H25.9612Z" fill="#965032"/>
<path d="M25.0001 23.0768H24.6363C24.4119 23.0768 24.2089 22.8785 24.1307 22.5837L24.0386 22.2352L24.2683 22.1152L24.3604 22.4637C24.4031 22.6249 24.5139 22.7328 24.6363 22.7328H25.0001V23.0768Z" fill="#965032"/>
<path d="M26.2069 18.3778L25.9614 18.2695L24.4095 21.7887L24.655 21.8969L26.2069 18.3778Z" fill="#965032"/>
<path d="M25.9615 21.1545H25V20.8249H25.7627V19.2314H25.9615V21.1545Z" fill="#965032"/>
<path d="M23.5579 22.1149H22.5965C22.331 22.1149 22.1157 21.8997 22.1157 21.6341C22.1157 21.3686 22.3309 21.1533 22.5965 21.1533H23.558C23.8235 21.1533 24.0388 21.3685 24.0388 21.6341C24.0387 21.8997 23.8235 22.1149 23.5579 22.1149Z" fill="#73AF00"/>
<path d="M26.4423 22.1149H25.4808C25.2153 22.1149 25 21.8997 25 21.6341C25 21.3686 25.2152 21.1533 25.4808 21.1533H26.4423C26.7078 21.1533 26.9231 21.3685 26.9231 21.6341C26.9231 21.8997 26.7077 22.1149 26.4423 22.1149Z" fill="#73AF00"/>
<path d="M28.2284 21.1539H26.5801C26.2387 21.1539 25.9619 20.9388 25.9619 20.6732C25.9619 20.4076 26.2386 20.1924 26.5801 20.1924H28.2284C28.5698 20.1924 28.8465 20.4076 28.8465 20.6732C28.8464 20.9387 28.5698 21.1539 28.2284 21.1539Z" fill="#73AF00"/>
<path d="M28.2692 20.192H25.5769C25.2583 20.192 25 19.9768 25 19.7112C25 19.4457 25.2582 19.2305 25.5769 19.2305H28.2692C28.5878 19.2305 28.8462 19.4456 28.8462 19.7112C28.8462 19.9767 28.5878 20.192 28.2692 20.192Z" fill="#73AF00"/>
<path d="M26.3461 18.2692H25.5769C25.2583 18.2692 25 18.054 25 17.7884C25 17.5229 25.2582 17.3076 25.5769 17.3076H26.3461C26.6648 17.3076 26.9231 17.5228 26.9231 17.7884C26.9231 18.0539 26.6646 18.2692 26.3461 18.2692Z" fill="#73AF00"/>
<path d="M21.7548 19.2311H21.5144C21.3153 19.2311 21.1538 19.0159 21.1538 18.7503C21.1538 18.4848 21.3152 18.2695 21.5144 18.2695H21.7548C21.9539 18.2695 22.1153 18.4847 22.1153 18.7503C22.1153 19.0159 21.9538 19.2311 21.7548 19.2311Z" fill="#73AF00"/>
<path d="M24.5195 18.2692H23.5579C23.2924 18.2692 23.0771 18.054 23.0771 17.7884C23.0771 17.5229 23.2923 17.3076 23.5579 17.3076H24.5195C24.785 17.3076 25.0002 17.5228 25.0002 17.7884C25 18.054 24.7849 18.2692 24.5195 18.2692Z" fill="#73AF00"/>
<path d="M23.5576 20.192H21.6346C21.3691 20.192 21.1538 19.9768 21.1538 19.7112C21.1538 19.4457 21.369 19.2305 21.6346 19.2305H23.5576C23.8231 19.2305 24.0384 19.4456 24.0384 19.7112C24.0384 19.9768 23.8231 20.192 23.5576 20.192Z" fill="#73AF00"/>
<path d="M30.9957 27.8848H19.9662C19.5601 27.8848 19.231 28.1717 19.231 28.5258C19.231 28.8798 19.5601 29.1668 19.9662 29.1668H22.9074C22.9074 29.5209 23.2366 29.8078 23.6427 29.8078H27.3192C27.7253 29.8078 28.0545 29.5209 28.0545 29.1668H30.9957C31.4018 29.1668 31.731 28.8798 31.731 28.5258C31.731 28.1718 31.4018 27.8848 30.9957 27.8848Z" fill="#73AF00"/>
<path d="M31.7111 22.4314C31.6861 22.3712 31.5559 22.4427 31.4745 22.4064C30.4653 21.9559 29.1103 21.1351 28.2246 20.5756L28.0468 20.2375L26.368 19.2577C26.2611 19.1954 26.1324 19.2434 26.0737 19.3673L25.9909 19.542C25.9278 19.6754 25.9695 19.845 26.0827 19.9158L27.6812 20.9145L28.1329 20.8744L29.8886 21.9585C29.8886 21.9585 31.0815 22.6913 31.1449 22.7451C31.2083 22.7989 31.2447 23.1003 31.363 23.0751C31.4479 23.057 31.8192 22.6921 31.7111 22.4314Z" fill="#BE7855"/>
<path d="M20.1208 28.9204C20.1208 28.9204 20.2755 29.6692 20.1304 29.7535C19.9854 29.8379 19.2119 29.8379 19.2313 29.6587C19.2506 29.4794 19.3571 28.8467 19.3571 28.8467L20.1208 28.9204Z" fill="#FFBE3C"/>
<path d="M21.1847 27.8848C21.1847 27.8848 21.0611 28.2795 21.3084 28.2944C21.5556 28.3093 22.9532 28.3019 22.9914 28.2722C23.0295 28.2425 23.0769 28.1679 23.0769 28.1679L21.7837 27.8848H21.1847Z" fill="#FFBE3C"/>
<path d="M19.9205 23.0771C19.9205 23.0771 19.619 23.7576 19.5093 26.1155C19.4801 26.7428 19.5599 26.5958 19.231 28.6134L19.6213 28.8069C19.735 28.8631 19.8714 28.8591 19.9811 28.796L20.3611 28.5774C20.3611 28.5774 20.1755 26.3198 20.7828 25.0227C20.7828 25.0227 21.1034 25.5832 21.1034 25.9994C21.1034 26.4157 21.0866 28.4172 21.0866 28.4172C21.0866 28.4172 21.7951 28.5293 22.1156 28.4973C22.1156 28.4973 21.9131 24.154 21.7107 23.1312L19.9205 23.0771Z" fill="#EAF3F5"/>
<path d="M20.2705 23.0762C20.2705 23.0762 20.1451 23.1544 20.2111 23.3442C20.2111 23.3442 21.1742 23.6962 22.0779 23.3945C22.0779 23.3945 22.1768 23.2716 22.0516 23.1208L20.2705 23.0762Z" fill="#965032"/>
<path d="M19.3976 20.9032C18.9327 21.0781 18.2263 21.5148 18.2711 21.8622C18.3159 22.2096 18.559 22.1249 18.6349 22.0395C18.7109 21.9542 18.9286 21.6805 18.9967 21.6319C19.0648 21.5833 20.1643 21.0119 20.1643 21.0119L23.0758 19.4967C23.0758 19.4967 23.0981 19.3495 22.9247 19.2305C22.9246 19.2305 21.1434 20.2462 19.3976 20.9032Z" fill="#965032"/>
<path d="M20.0866 19.3855L20.0694 19.5017C20.0694 19.5017 20.0235 20.2463 20.2873 20.4469C20.2873 20.4469 20.3446 20.6 20.2529 20.674C20.1612 20.748 19.2554 21.1703 19.2554 21.1703C19.2554 21.1703 19.0202 21.6192 19.0259 21.8725C19.0259 21.8725 18.8023 21.7933 18.8253 21.693C18.8481 21.5927 18.9801 21.3287 18.9399 21.2019C18.8998 21.0752 18.7507 21.1122 18.7507 21.1122C18.7507 21.1122 18.6762 21.1862 18.7966 21.2336L18.7564 21.392L18.269 21.656L18.378 21.7774C18.378 21.7774 18.3837 22.7067 18.9799 22.828C18.9799 22.828 19.2952 22.8491 19.668 22.1944C19.668 22.1944 19.8686 22.5217 19.7998 22.8069C19.7998 22.8069 20.4533 23.1342 21.3477 22.8492L21.3593 22.2789C21.3593 22.2789 21.4969 23.1554 21.9669 23.0709C21.9669 23.0709 23.2693 22.6092 23.0524 22.4337C22.5478 22.0254 21.9386 22.3705 21.9386 22.3705C21.909 21.7774 21.8552 21.0101 21.7719 20.9272C21.6343 20.7899 21.21 20.8638 21.1259 20.6878C21.0419 20.5118 21.0648 20.2021 21.1565 19.843C21.2482 19.4839 20.782 19.2305 20.782 19.2305L20.0866 19.3855Z" fill="#FFBE3C"/>
<path d="M20.213 19.8192C20.213 19.8192 20.5904 19.9383 20.8862 19.7923L21.0156 20.192H21.0895C21.0895 20.192 21.2678 19.4522 21.0311 19.4609C21.0311 19.4609 21.0302 19.2207 20.617 19.2308C20.2621 19.2394 20.139 19.5271 20.213 19.8192Z" fill="#464655"/>
<path d="M29.8793 28.9204C29.8793 28.9204 29.7246 29.6692 29.8697 29.7535C30.0147 29.8379 30.7882 29.8379 30.7688 29.6587C30.7494 29.4795 30.643 28.8467 30.643 28.8467L29.8793 28.9204Z" fill="#965032"/>
<path d="M28.815 27.8848C28.815 27.8848 28.9387 28.2795 28.6914 28.2944C28.4442 28.3093 27.0465 28.3019 27.0084 28.2722C26.9702 28.2424 26.9229 28.1679 26.9229 28.1679L28.216 27.8848H28.815Z" fill="#965032"/>
<path d="M30.0798 23.0771C30.0798 23.0771 30.3814 23.7576 30.4911 26.1155C30.5202 26.7428 30.4404 26.5958 30.7694 28.6134L30.379 28.8069C30.2654 28.8631 30.1289 28.8591 30.0192 28.796L29.6392 28.5774C29.6392 28.5774 29.8248 26.3198 29.2175 25.0227C29.2175 25.0227 28.8969 25.5832 28.8969 25.9994C28.8969 26.4157 28.9137 28.4172 28.9137 28.4172C28.9137 28.4172 28.2052 28.5293 27.8848 28.4973C27.8848 28.4973 28.0872 24.154 28.2896 23.1312L30.0798 23.0771Z" fill="#EAF3F5"/>
<path d="M29.7293 23.0771C29.7293 23.0771 29.8546 23.1554 29.7887 23.3452C29.7887 23.3452 28.8256 23.6972 27.9219 23.3955C27.9219 23.3955 27.8229 23.2726 27.9482 23.1218L29.7293 23.0771Z" fill="#BE7855"/>
<path d="M29.913 19.3855L29.9302 19.5017C29.9302 19.5017 29.9761 20.2463 29.7123 20.4469C29.7123 20.4469 29.655 20.6 29.7467 20.674C29.8384 20.748 30.7442 21.1703 30.7442 21.1703C30.7442 21.1703 30.9793 21.6192 30.9736 21.8725C30.9736 21.8725 31.1972 21.7933 31.1743 21.693C31.1514 21.5927 31.0194 21.3287 31.0596 21.2019C31.0998 21.0752 31.2489 21.1122 31.2489 21.1122C31.2489 21.1122 31.3234 21.1862 31.203 21.2336L31.2431 21.392L31.7305 21.656L31.6216 21.7774C31.6216 21.7774 31.6159 22.7067 31.0196 22.828C31.0196 22.828 30.7043 22.8491 30.3316 22.1944C30.3316 22.1944 30.131 22.5217 30.1998 22.8069C30.1998 22.8069 29.5462 23.1342 28.6518 22.8492L28.6403 22.2789C28.6403 22.2789 28.5027 23.1554 28.0327 23.0709C28.0327 23.0709 26.7303 22.6092 26.9472 22.4337C27.4517 22.0254 28.061 22.3705 28.061 22.3705C28.0906 21.7774 28.1444 21.0101 28.2277 20.9272C28.3653 20.7899 28.7894 20.8638 28.8736 20.6878C28.9578 20.5118 28.9348 20.2021 28.8431 19.843C28.7514 19.4839 29.2176 19.2305 29.2176 19.2305L29.913 19.3855Z" fill="#965032"/>
<path d="M29.7871 19.8192C29.7871 19.8192 29.4097 19.9383 29.1139 19.7923L28.9845 20.192H28.9106C28.9106 20.192 28.7323 19.4522 28.969 19.4609C28.969 19.4609 28.9699 19.2207 29.383 19.2308C29.738 19.2394 29.8611 19.5271 29.7871 19.8192Z" fill="#464655"/>
<path d="M22.1243 19.4843C22.0957 19.4203 22.1437 19.4027 22.1437 19.4027C22.1437 19.4027 22.4903 19.2275 22.5306 19.2305C22.5972 19.2355 22.679 19.3433 22.679 19.4354C22.679 19.5274 22.8092 19.7663 23.0768 19.8258C23.0768 19.8258 22.7428 20.2437 22.2791 20.1866C22.2791 20.1865 22.3102 19.9006 22.1243 19.4843Z" fill="#EAF3F5"/>
<path d="M22.3762 23.0771C22.2321 23.0771 22.1152 23.1862 22.1152 23.3207V26.106C22.1152 26.7791 22.4759 29.1349 24.9999 29.8079C27.5238 29.1348 27.8845 26.779 27.8845 26.106V23.3207C27.8845 23.1862 27.7676 23.0771 27.6235 23.0771H22.3762Z" fill="#82AFFF"/>
<path d="M27.8846 26.2604V23.3331C27.8846 23.1917 27.7678 23.0771 27.6237 23.0771H25V25.5531L27.5355 27.8848C27.8162 27.2033 27.8846 26.5664 27.8846 26.2604Z" fill="#FFE15A"/>
<path d="M22.1152 26.2604V23.3331C22.1152 23.1917 22.2321 23.0771 22.3762 23.0771H24.9999V25.5531L22.4643 27.8848C22.1836 27.2033 22.1152 26.5664 22.1152 26.2604Z" fill="#EAF3F5"/>
<path d="M23.0771 27.8848L23.7364 28.8463H25.5725L25.9618 28.1582L25.514 28.4052H24.0301L23.0771 27.8848Z" fill="#8C5A28"/>
<path d="M24.0387 26.9229L23.8655 27.8844L23.0771 27.7187C23.0771 27.7187 23.4399 27.2553 24.0387 26.9229Z" fill="#F5F5F5"/>
<path d="M25.0637 25.9619H25V27.885H25.0637V25.9619Z" fill="#8C5A28"/>
<path d="M26.0251 25.9619H25.9614V27.885H26.0251V25.9619Z" fill="#8C5A28"/>
<path d="M24.1022 25.9619H24.0386V27.885H24.1022V25.9619Z" fill="#8C5A28"/>
<path d="M25.8666 27.266H25.095C25.0426 27.266 25 27.2423 25 27.2131V26.9758C25 26.9466 25.0426 26.9229 25.095 26.9229H25.8666C25.919 26.9229 25.9615 26.9466 25.9615 26.9758V27.2131C25.9614 27.2423 25.919 27.266 25.8666 27.266Z" fill="#F5F5F5"/>
<path d="M25.8666 27.266H25.095C25.0426 27.266 25 27.2423 25 27.2131V26.9758C25 26.9466 25.0426 26.9229 25.095 26.9229H25.8666C25.919 26.9229 25.9615 26.9466 25.9615 26.9758V27.2131C25.9614 27.2423 25.919 27.266 25.8666 27.266Z" fill="#F5F5F5"/>
<path d="M25.8666 27.266H25.095C25.0426 27.266 25 27.2423 25 27.2131V26.9758C25 26.9466 25.0426 26.9229 25.095 26.9229H25.8666C25.919 26.9229 25.9615 26.9466 25.9615 26.9758V27.2131C25.9614 27.2423 25.919 27.266 25.8666 27.266Z" fill="#F5F5F5"/>
<path d="M25.7304 27.6996H25.3728C25.3436 27.6996 25.3198 27.6759 25.3198 27.6467V27.4094C25.3198 27.3802 25.3436 27.3564 25.3728 27.3564H25.7304C25.7596 27.3564 25.7833 27.3802 25.7833 27.4094V27.6467C25.7832 27.6759 25.7596 27.6996 25.7304 27.6996Z" fill="#F5F5F5"/>
<path d="M25.7304 27.2786H25.3728C25.3436 27.2786 25.3198 27.2549 25.3198 27.2257V27.0422C25.3198 27.013 25.3436 26.9893 25.3728 26.9893H25.7304C25.7596 26.9893 25.7833 27.013 25.7833 27.0422V27.2257C25.7832 27.255 25.7596 27.2786 25.7304 27.2786Z" fill="#F5F5F5"/>
<path d="M25.7304 26.8611H25.3728C25.3436 26.8611 25.3198 26.8374 25.3198 26.8082V26.6711C25.3198 26.6419 25.3436 26.6182 25.3728 26.6182H25.7304C25.7596 26.6182 25.7833 26.6419 25.7833 26.6711V26.8082C25.7832 26.8375 25.7596 26.8611 25.7304 26.8611Z" fill="#F5F5F5"/>
<path d="M24.5536 27.6996H24.196C24.1668 27.6996 24.1431 27.6759 24.1431 27.6467V27.4094C24.1431 27.3802 24.1668 27.3564 24.196 27.3564H24.5536C24.5828 27.3564 24.6065 27.3802 24.6065 27.4094V27.6467C24.6065 27.6759 24.5828 27.6996 24.5536 27.6996Z" fill="#F5F5F5"/>
<path d="M24.5536 27.2786H24.196C24.1668 27.2786 24.1431 27.2549 24.1431 27.2257V27.0422C24.1431 27.013 24.1668 26.9893 24.196 26.9893H24.5536C24.5828 26.9893 24.6065 27.013 24.6065 27.0422V27.2257C24.6065 27.255 24.5828 27.2786 24.5536 27.2786Z" fill="#F5F5F5"/>
<path d="M24.5536 26.8611H24.196C24.1668 26.8611 24.1431 26.8374 24.1431 26.8082V26.6711C24.1431 26.6419 24.1668 26.6182 24.196 26.6182H24.5536C24.5828 26.6182 24.6065 26.6419 24.6065 26.6711V26.8082C24.6065 26.8375 24.5828 26.8611 24.5536 26.8611Z" fill="#F5F5F5"/>
<path d="M25.521 26.3662V26.5586L25.2378 26.4606L25.521 26.3662Z" fill="#FF4B55"/>
<path d="M24.3446 26.3662V26.5586L24.0615 26.4606L24.3446 26.3662Z" fill="#FF4B55"/>
<path d="M24.9341 26.2275V26.4199L24.6509 26.322L24.9341 26.2275Z" fill="#FF4B55"/>
<path d="M27.1215 28.0332H22.8652C22.9286 28.1538 22.9981 28.2731 23.0761 28.3907H26.9104C26.9887 28.2732 27.058 28.1538 27.1215 28.0332Z" fill="#4173CD"/>
<path d="M26.9106 28.3906H23.0762C23.2455 28.6455 23.4531 28.8876 23.702 29.1057H26.2847C26.5337 28.8876 26.7412 28.6454 26.9106 28.3906Z" fill="#73AF00"/>
<path d="M23.7017 29.1055C24.0447 29.4062 24.4659 29.6598 24.9931 29.8205C25.5203 29.6599 25.9413 29.4061 26.2845 29.1055H23.7017Z" fill="#FFE15A"/>
<path d="M24.5341 25.3822C24.5341 25.3822 24.5079 25.3914 24.4798 25.3882C24.458 25.3788 24.4135 25.3774 24.4403 25.2948C24.4534 25.2539 24.4807 25.1961 24.4609 25.1812C24.4449 25.1626 24.4275 25.1425 24.4089 25.121C24.3717 25.078 24.3299 25.0294 24.2841 24.9764C24.1901 24.8729 24.0788 24.7539 23.9489 24.6366C23.8842 24.5778 23.8173 24.517 23.7491 24.4553C23.6786 24.3959 23.6136 24.3293 23.5368 24.274C23.4933 24.2512 23.4382 24.2397 23.3899 24.2219C23.3429 24.2029 23.3133 24.1671 23.2788 24.1367C23.2113 24.0744 23.145 24.0131 23.0807 23.9537C22.9503 23.8369 22.8357 23.7211 22.7378 23.6215C22.6428 23.5265 22.5659 23.4439 22.5118 23.3837C22.4601 23.3264 22.4635 23.2391 22.5189 23.1856L22.6777 23.0324C22.7332 22.9789 22.8205 22.9787 22.8759 23.0323C22.9341 23.0886 23.0139 23.1683 23.1054 23.2667C23.2014 23.3682 23.3131 23.4868 23.4251 23.6213C23.4821 23.6877 23.5409 23.7562 23.6009 23.8258C23.63 23.8613 23.6646 23.8921 23.682 23.9397C23.6982 23.9886 23.7077 24.0441 23.7289 24.0884C23.7814 24.1671 23.8456 24.2345 23.9025 24.3071C23.9618 24.3772 24.0201 24.4464 24.0765 24.5132C24.1891 24.6472 24.3041 24.7626 24.4043 24.8601C24.4555 24.9078 24.5025 24.9513 24.5442 24.99C24.565 25.0094 24.5846 25.0274 24.6026 25.0442C24.6169 25.0646 24.6756 25.0392 24.7169 25.0277C24.8004 25.0038 24.8002 25.0484 24.8088 25.0705C24.8109 25.0987 24.8009 25.1246 24.8009 25.1246L24.5341 25.3822Z" fill="#BE7855"/>
<path d="M22.7833 25.6641C22.7557 25.6641 22.7279 25.6557 22.7039 25.638C22.6444 25.594 22.6316 25.5101 22.6756 25.4505L23.9494 23.7226C23.9932 23.6632 24.0766 23.6499 24.1369 23.6943C24.1963 23.7383 24.2091 23.8222 24.1651 23.8818L22.8914 25.6098C22.865 25.6452 22.8244 25.6641 22.7833 25.6641Z" fill="#965032"/>
<path d="M23.8032 23.6087L24.4662 24.0481L24.7491 23.6533L24.131 23.1543L23.8032 23.6087Z" fill="#F5F5F5"/>
<path d="M25.5654 23.4386L27.2643 25.5335C27.2643 25.5335 27.503 25.5443 27.4705 25.3544L25.712 23.292L25.5654 23.4386Z" fill="#965032"/>
<path d="M25.1851 23.7262C25.1851 23.7262 25.6627 23.6394 25.8635 23.3408L26.1349 23.661C26.1349 23.661 25.6898 23.9758 25.6464 24.3177C25.6464 24.3178 25.2828 24.2201 25.1851 23.7262Z" fill="#EAF3F5"/>
<path d="M27.019 23.5201C26.9878 23.5201 26.9578 23.5032 26.9422 23.4736C26.8938 23.382 26.8855 23.2993 26.9174 23.2274C26.962 23.1266 27.067 23.0971 27.0787 23.0941C27.126 23.0835 27.1725 23.1104 27.1846 23.1565C27.1964 23.2026 27.1689 23.2498 27.123 23.262C27.1134 23.265 27.0849 23.2776 27.0759 23.2983C27.0674 23.3187 27.0745 23.3523 27.0959 23.3929C27.1183 23.4353 27.102 23.4878 27.0595 23.5103C27.0465 23.517 27.0327 23.5201 27.019 23.5201Z" fill="#965032"/>
<path d="M25.6236 24.813C25.6236 24.7817 25.6067 24.7518 25.5771 24.7361C25.4855 24.6878 25.4028 24.6795 25.3309 24.7113C25.2301 24.756 25.2006 24.8609 25.1976 24.8727C25.187 24.9199 25.2139 24.9664 25.26 24.9785C25.3061 24.9903 25.3534 24.9629 25.3655 24.917C25.3685 24.9073 25.3811 24.8788 25.4018 24.8698C25.4222 24.8613 25.4558 24.8685 25.4964 24.8898C25.5388 24.9123 25.5913 24.896 25.6138 24.8534C25.6205 24.8404 25.6236 24.8267 25.6236 24.813Z" fill="#965032"/>
<path d="M27.0777 23.3242L25.4785 24.8945L25.8548 25.3143L27.4179 23.7367L27.0777 23.3242Z" fill="#EAF3F5"/>
<path d="M18.9544 21.0614C19.0615 21.0366 19.1555 21.1806 19.0587 21.285C18.9618 21.3892 18.682 21.5776 18.5969 21.5606C18.448 21.5307 18.3437 21.2028 18.9544 21.0614Z" fill="#FFBE3C"/>
<path d="M31.0887 21.2118C30.9894 21.187 30.9023 21.3309 30.9921 21.4353C31.0818 21.5396 31.3413 21.728 31.4203 21.711C31.5584 21.681 31.6552 21.3533 31.0887 21.2118Z" fill="#965032"/>
<path d="M27.4322 22.67C27.5662 22.67 27.6748 22.7858 27.6748 22.9287V25.8877C27.6748 26.6027 27.3395 29.1055 24.9934 29.8204C22.6472 29.1054 22.3119 26.6026 22.3119 25.8877V22.9287C22.3119 22.7858 22.4205 22.67 22.5545 22.67H27.4322ZM27.4322 22.4912H22.5546C22.3223 22.4912 22.1333 22.6874 22.1333 22.9287V25.8877C22.1333 26.0585 22.1563 26.9599 22.6111 27.9301C23.0946 28.9614 23.9005 29.6742 24.9415 29.9916L24.9936 30.0074L25.0458 29.9916C26.0868 29.6743 26.8927 28.9614 27.3762 27.9301C27.8309 26.96 27.854 26.0586 27.854 25.8877V22.9287C27.8535 22.6876 27.6645 22.4912 27.4322 22.4912Z" fill="#464655"/>
<path d="M29.2854 29.8622C28.5258 29.6076 27.7106 29.725 26.9419 30.2379C25.9594 30.8928 25.3081 30.8928 24.995 30.8928C24.6819 30.8928 24.0307 30.8928 23.0481 30.2379C22.2796 29.7254 21.4642 29.6077 20.7046 29.8621V30.6285C21.1833 30.3997 21.858 30.3039 22.6515 30.8327C23.8142 31.6078 24.6417 31.6078 24.995 31.6078C25.3483 31.6078 26.1759 31.6078 27.3386 30.8327C28.132 30.3034 28.8067 30.3994 29.2854 30.6284V29.8622Z" fill="#EAF3F5"/>
<path d="M24.9953 33.932C19.9683 33.932 15.8784 29.8421 15.8784 24.8151C15.8784 19.7882 19.9684 15.6982 24.9953 15.6982C30.0222 15.6982 34.1122 19.7882 34.1122 24.8151C34.1122 29.8421 30.0223 33.932 24.9953 33.932ZM24.9953 16.0557C20.1653 16.0557 16.2358 19.985 16.2358 24.8151C16.2358 29.6453 20.1653 33.5746 24.9953 33.5746C29.8253 33.5746 33.7548 29.6453 33.7548 24.8151C33.7548 19.985 29.8253 16.0557 24.9953 16.0557Z" fill="#965032"/>
<path d="M15.0212 25.5743C15.0212 25.5743 14.9838 24.457 16.0565 24.457C16.0565 24.457 16.0788 24.8965 15.6916 25.0901C15.3784 25.2467 15.0212 25.5743 15.0212 25.5743Z" fill="#73AF00"/>
<path d="M17.0922 25.5743C17.0922 25.5743 17.1295 24.457 16.0569 24.457C16.0569 24.457 16.0346 24.8965 16.4218 25.0901C16.7351 25.2467 17.0922 25.5743 17.0922 25.5743Z" fill="#73AF00"/>
<path d="M34.9609 24.457C34.9609 24.457 34.9982 25.5743 33.9255 25.5743C33.9255 25.5743 33.9033 25.1349 34.2905 24.9412C34.6037 24.7846 34.9609 24.457 34.9609 24.457Z" fill="#73AF00"/>
<path d="M32.8898 24.457C32.8898 24.457 32.8525 25.5743 33.9252 25.5743C33.9252 25.5743 33.9474 25.1349 33.5602 24.9412C33.2468 24.7846 32.8898 24.457 32.8898 24.457Z" fill="#73AF00"/>
<path d="M25.5499 34.9858C25.5499 34.9858 24.4326 35.0231 24.4326 33.9504C24.4326 33.9504 24.8721 33.9282 25.0657 34.3154C25.2224 34.6286 25.5499 34.9858 25.5499 34.9858Z" fill="#73AF00"/>
<path d="M25.5499 32.9142C25.5499 32.9142 24.4326 32.8769 24.4326 33.9496C24.4326 33.9496 24.8721 33.9718 25.0657 33.5846C25.2224 33.2714 25.5499 32.9142 25.5499 32.9142Z" fill="#73AF00"/>
<path d="M24.4326 15.0461C24.4326 15.0461 25.5499 15.0088 25.5499 16.0814C25.5499 16.0814 25.1104 16.1037 24.9168 15.7165C24.7601 15.4032 24.4326 15.0461 24.4326 15.0461Z" fill="#73AF00"/>
<path d="M24.4326 17.1166C24.4326 17.1166 25.5499 17.1539 25.5499 16.0813C25.5499 16.0813 25.1104 16.059 24.9168 16.4462C24.7601 16.7594 24.4326 17.1166 24.4326 17.1166Z" fill="#73AF00"/>
<path d="M18.3362 32.4605C18.3362 32.4605 17.5198 31.6969 18.2782 30.9385C18.2782 30.9385 18.6047 31.2334 18.4679 31.6441C18.3573 31.9764 18.3362 32.4605 18.3362 32.4605Z" fill="#73AF00"/>
<path d="M19.8004 30.9959C19.8004 30.9959 19.0367 30.1795 18.2783 30.9379C18.2783 30.9379 18.5732 31.2644 18.984 31.1275C19.3161 31.0168 19.8004 30.9959 19.8004 30.9959Z" fill="#73AF00"/>
<path d="M31.6456 17.5713C31.6456 17.5713 32.462 18.335 31.7036 19.0934C31.7036 19.0934 31.3772 18.7984 31.514 18.3877C31.6246 18.0555 31.6456 17.5713 31.6456 17.5713Z" fill="#73AF00"/>
<path d="M30.1812 19.0353C30.1812 19.0353 30.9448 19.8517 31.7032 19.0933C31.7032 19.0933 31.4083 18.7668 30.9976 18.9036C30.6654 19.0143 30.1812 19.0353 30.1812 19.0353Z" fill="#73AF00"/>
<path d="M32.4356 31.67C32.4356 31.67 31.672 32.4864 30.9136 31.728C30.9136 31.728 31.2085 31.4016 31.6192 31.5384C31.9515 31.6491 32.4356 31.67 32.4356 31.67Z" fill="#73AF00"/>
<path d="M30.9715 30.2061C30.9715 30.2061 30.1551 30.9697 30.9135 31.7281C30.9135 31.7281 31.2399 31.4332 31.1031 31.0225C30.9924 30.6902 30.9715 30.2061 30.9715 30.2061Z" fill="#73AF00"/>
<path d="M17.5464 18.3611C17.5464 18.3611 18.3101 17.5447 19.0685 18.3031C19.0685 18.3031 18.7735 18.6296 18.3628 18.4928C18.0306 18.382 17.5464 18.3611 17.5464 18.3611Z" fill="#73AF00"/>
<path d="M19.0104 19.8258C19.0104 19.8258 19.8268 19.0621 19.0684 18.3037C19.0684 18.3037 18.7419 18.5986 18.8787 19.0094C18.9895 19.3416 19.0104 19.8258 19.0104 19.8258Z" fill="#73AF00"/>
<path d="M15.9938 29.3474C15.9938 29.3474 15.5318 28.3294 16.5228 27.9189C16.5228 27.9189 16.7115 28.3163 16.4278 28.6436C16.1983 28.908 15.9938 29.3474 15.9938 29.3474Z" fill="#73AF00"/>
<path d="M17.9075 28.5547C17.9075 28.5547 17.5145 27.5082 16.5234 27.9187C16.5234 27.9187 16.671 28.3332 17.1029 28.3639C17.452 28.3887 17.9075 28.5547 17.9075 28.5547Z" fill="#73AF00"/>
<path d="M33.988 20.6846C33.988 20.6846 34.4499 21.7025 33.459 22.113C33.459 22.113 33.2702 21.7155 33.5539 21.3884C33.7833 21.1239 33.988 20.6846 33.988 20.6846Z" fill="#73AF00"/>
<path d="M32.0747 21.4766C32.0747 21.4766 32.4678 22.523 33.4588 22.1126C33.4588 22.1126 33.3112 21.698 32.8793 21.6674C32.5301 21.6426 32.0747 21.4766 32.0747 21.4766Z" fill="#73AF00"/>
<path d="M29.322 34.0134C29.322 34.0134 28.304 34.4753 27.8936 33.4844C27.8936 33.4844 28.2909 33.2956 28.6182 33.5793C28.8827 33.8087 29.322 34.0134 29.322 34.0134Z" fill="#73AF00"/>
<path d="M28.5298 32.0996C28.5298 32.0996 27.4833 32.4927 27.8938 33.4837C27.8938 33.4837 28.3083 33.3361 28.339 32.9042C28.3639 32.5549 28.5298 32.0996 28.5298 32.0996Z" fill="#73AF00"/>
<path d="M20.6597 16.0187C20.6597 16.0187 21.6776 15.5567 22.0881 16.5477C22.0881 16.5477 21.6906 16.7364 21.3635 16.4527C21.0989 16.2233 20.6597 16.0187 20.6597 16.0187Z" fill="#73AF00"/>
<path d="M21.4521 17.9319C21.4521 17.9319 22.4986 17.5389 22.0882 16.5479C22.0882 16.5479 21.6736 16.6954 21.643 17.1273C21.6181 17.4766 21.4521 17.9319 21.4521 17.9319Z" fill="#73AF00"/>
<path d="M21.6919 34.4407C21.6919 34.4407 20.6454 34.0477 21.0559 33.0566C21.0559 33.0566 21.4704 33.2042 21.5011 33.6361C21.5259 33.9854 21.6919 34.4407 21.6919 34.4407Z" fill="#73AF00"/>
<path d="M22.4841 32.5275C22.4841 32.5275 21.4661 32.0655 21.0557 33.0565C21.0557 33.0565 21.4531 33.2452 21.7803 32.9615C22.0447 32.7321 22.4841 32.5275 22.4841 32.5275Z" fill="#73AF00"/>
<path d="M28.29 15.5908C28.29 15.5908 29.3365 15.9839 28.9261 16.9749C28.9261 16.9749 28.5115 16.8273 28.4809 16.3954C28.456 16.0461 28.29 15.5908 28.29 15.5908Z" fill="#73AF00"/>
<path d="M27.4976 17.5046C27.4976 17.5046 28.5155 17.9665 28.926 16.9756C28.926 16.9756 28.5286 16.7868 28.2014 17.0705C27.9369 17.2999 27.4976 17.5046 27.4976 17.5046Z" fill="#73AF00"/>
<path d="M34.4153 28.3154C34.4153 28.3154 34.0223 29.3619 33.0312 28.9515C33.0312 28.9515 33.1788 28.5369 33.6107 28.5062C33.9601 28.4813 34.4153 28.3154 34.4153 28.3154Z" fill="#73AF00"/>
<path d="M32.5025 27.5225C32.5025 27.5225 32.0406 28.5404 33.0315 28.9509C33.0315 28.9509 33.2203 28.5535 32.9366 28.2263C32.7071 27.9617 32.5025 27.5225 32.5025 27.5225Z" fill="#73AF00"/>
<path d="M15.5664 21.7168C15.5664 21.7168 15.9595 20.6703 16.9505 21.0808C16.9505 21.0808 16.8029 21.4953 16.371 21.526C16.0217 21.551 15.5664 21.7168 15.5664 21.7168Z" fill="#73AF00"/>
<path d="M17.4797 22.5095C17.4797 22.5095 17.9416 21.4915 16.9507 21.0811C16.9507 21.0811 16.7619 21.4785 17.0456 21.8057C17.2751 22.0701 17.4797 22.5095 17.4797 22.5095Z" fill="#73AF00"/>
<path d="M15.3215 27.5088C15.3215 27.5088 15.067 26.4202 16.119 26.2109C16.119 26.2109 16.2267 26.6376 15.8846 26.903C15.6079 27.1178 15.3215 27.5088 15.3215 27.5088Z" fill="#73AF00"/>
<path d="M17.3525 27.1048C17.3525 27.1048 17.1711 26.0017 16.1191 26.211C16.1191 26.211 16.1829 26.6463 16.6006 26.7608C16.9384 26.8532 17.3525 27.1048 17.3525 27.1048Z" fill="#73AF00"/>
<path d="M34.6603 22.5225C34.6603 22.5225 34.9148 23.611 33.8627 23.8203C33.8627 23.8203 33.7551 23.3937 34.0972 23.1282C34.3739 22.9135 34.6603 22.5225 34.6603 22.5225Z" fill="#73AF00"/>
<path d="M32.6289 22.9268C32.6289 22.9268 32.8104 24.0299 33.8623 23.8206C33.8623 23.8206 33.7985 23.3853 33.3809 23.2708C33.0432 23.1783 32.6289 22.9268 32.6289 22.9268Z" fill="#73AF00"/>
<path d="M27.4839 34.6847C27.4839 34.6847 26.3953 34.9392 26.186 33.8871C26.186 33.8871 26.6127 33.7795 26.8781 34.1216C27.093 34.3983 27.4839 34.6847 27.4839 34.6847Z" fill="#73AF00"/>
<path d="M27.0799 32.6543C27.0799 32.6543 25.9768 32.8357 26.1861 33.8877C26.1861 33.8877 26.6214 33.8239 26.7359 33.4062C26.8284 33.0686 27.0799 32.6543 27.0799 32.6543Z" fill="#73AF00"/>
<path d="M22.498 15.3464C22.498 15.3464 23.5866 15.0919 23.7959 16.1439C23.7959 16.1439 23.3692 16.2516 23.1038 15.9095C22.889 15.6328 22.498 15.3464 22.498 15.3464Z" fill="#73AF00"/>
<path d="M22.9019 17.3779C22.9019 17.3779 24.005 17.1965 23.7957 16.1445C23.7957 16.1445 23.3604 16.2083 23.2459 16.626C23.1534 16.9637 22.9019 17.3779 22.9019 17.3779Z" fill="#73AF00"/>
<path d="M19.9165 33.6153C19.9165 33.6153 18.9668 33.0256 19.5627 32.1338C19.5627 32.1338 19.9405 32.3594 19.8863 32.789C19.8427 33.1365 19.9165 33.6153 19.9165 33.6153Z" fill="#73AF00"/>
<path d="M21.0672 31.8939C21.0672 31.8939 20.1589 31.2421 19.563 32.1339C19.563 32.1339 19.916 32.3966 20.2922 32.1821C20.5964 32.0089 21.0672 31.8939 21.0672 31.8939Z" fill="#73AF00"/>
<path d="M30.0654 16.416C30.0654 16.416 31.0151 17.0058 30.4192 17.8976C30.4192 17.8976 30.0414 17.672 30.0956 17.2424C30.1394 16.895 30.0654 16.416 30.0654 16.416Z" fill="#73AF00"/>
<path d="M28.915 18.1381C28.915 18.1381 29.8233 18.7899 30.4192 17.8981C30.4192 17.8981 30.0662 17.6354 29.69 17.8499C29.3858 18.0231 28.915 18.1381 28.915 18.1381Z" fill="#73AF00"/>
<path d="M33.5909 30.0898C33.5909 30.0898 33.0012 31.0395 32.1094 30.4437C32.1094 30.4437 32.3349 30.0658 32.7646 30.12C33.1119 30.1638 33.5909 30.0898 33.5909 30.0898Z" fill="#73AF00"/>
<path d="M31.8689 28.9395C31.8689 28.9395 31.2172 29.8478 32.109 30.4437C32.109 30.4437 32.3717 30.0906 32.1572 29.7145C31.9839 29.4102 31.8689 28.9395 31.8689 28.9395Z" fill="#73AF00"/>
<path d="M16.3911 19.9409C16.3911 19.9409 16.9809 18.9912 17.8727 19.5871C17.8727 19.5871 17.6471 19.9649 17.2175 19.9107C16.8701 19.867 16.3911 19.9409 16.3911 19.9409Z" fill="#73AF00"/>
<path d="M18.1128 21.0921C18.1128 21.0921 18.7645 20.1838 17.8727 19.5879C17.8727 19.5879 17.61 19.9409 17.8245 20.3171C17.9977 20.6213 18.1128 21.0921 18.1128 21.0921Z" fill="#73AF00"/>
<path d="M17.012 31.0188C17.012 31.0188 16.3603 30.1105 17.2521 29.5146C17.2521 29.5146 17.5147 29.8677 17.3003 30.2438C17.127 30.548 17.012 31.0188 17.012 31.0188Z" fill="#73AF00"/>
<path d="M18.7335 29.8686C18.7335 29.8686 18.1437 28.9189 17.252 29.5148C17.252 29.5148 17.4775 29.8927 17.9071 29.8385C18.2545 29.7947 18.7335 29.8686 18.7335 29.8686Z" fill="#73AF00"/>
<path d="M32.9702 19.0127C32.9702 19.0127 33.6219 19.921 32.7301 20.5169C32.7301 20.5169 32.4674 20.1639 32.6819 19.7877C32.8551 19.4835 32.9702 19.0127 32.9702 19.0127Z" fill="#73AF00"/>
<path d="M31.248 20.1631C31.248 20.1631 31.8378 21.1128 32.7296 20.5169C32.7296 20.5169 32.504 20.1391 32.0744 20.1933C31.727 20.237 31.248 20.1631 31.248 20.1631Z" fill="#73AF00"/>
<path d="M30.9944 32.9946C30.9944 32.9946 30.0861 33.6463 29.4902 32.7545C29.4902 32.7545 29.8433 32.4919 30.2194 32.7063C30.5236 32.8796 30.9944 32.9946 30.9944 32.9946Z" fill="#73AF00"/>
<path d="M29.8437 31.2734C29.8437 31.2734 28.894 31.8632 29.4899 32.755C29.4899 32.755 29.8678 32.5294 29.8137 32.0998C29.7698 31.7524 29.8437 31.2734 29.8437 31.2734Z" fill="#73AF00"/>
<path d="M18.9873 17.0364C18.9873 17.0364 19.8956 16.3847 20.4915 17.2765C20.4915 17.2765 20.1385 17.5392 19.7623 17.3247C19.4581 17.1515 18.9873 17.0364 18.9873 17.0364Z" fill="#73AF00"/>
<path d="M20.1382 18.7589C20.1382 18.7589 21.0879 18.1691 20.492 17.2773C20.492 17.2773 20.1142 17.5029 20.1684 17.9325C20.2121 18.2799 20.1382 18.7589 20.1382 18.7589Z" fill="#73AF00"/>
<path d="M23.5936 34.9033C23.5936 34.9033 22.4905 34.7219 22.6998 33.6699C22.6998 33.6699 23.1351 33.7337 23.2496 34.1514C23.3419 34.4891 23.5936 34.9033 23.5936 34.9033Z" fill="#73AF00"/>
<path d="M23.998 32.8718C23.998 32.8718 22.9095 32.6173 22.7002 33.6693C22.7002 33.6693 23.1269 33.777 23.3923 33.4349C23.607 33.1582 23.998 32.8718 23.998 32.8718Z" fill="#73AF00"/>
<path d="M26.3882 15.1289C26.3882 15.1289 27.4913 15.3104 27.282 16.3623C27.282 16.3623 26.8467 16.2985 26.7322 15.8809C26.6398 15.5432 26.3882 15.1289 26.3882 15.1289Z" fill="#73AF00"/>
<path d="M25.9839 17.1593C25.9839 17.1593 27.0725 17.4138 27.2817 16.3618C27.2817 16.3618 26.8551 16.2541 26.5897 16.5962C26.3749 16.8729 25.9839 17.1593 25.9839 17.1593Z" fill="#73AF00"/>
<path d="M34.8779 26.4131C34.8779 26.4131 34.6965 27.5162 33.6445 27.3069C33.6445 27.3069 33.7083 26.8716 34.126 26.7571C34.4638 26.6647 34.8779 26.4131 34.8779 26.4131Z" fill="#73AF00"/>
<path d="M32.8469 26.0088C32.8469 26.0088 32.5924 27.0974 33.6444 27.3066C33.6444 27.3066 33.752 26.88 33.41 26.6146C33.1331 26.3997 32.8469 26.0088 32.8469 26.0088Z" fill="#73AF00"/>
<path d="M15.1035 23.6185C15.1035 23.6185 15.285 22.5154 16.3369 22.7247C16.3369 22.7247 16.2731 23.16 15.8555 23.2745C15.5178 23.3669 15.1035 23.6185 15.1035 23.6185Z" fill="#73AF00"/>
<path d="M17.1349 24.0225C17.1349 24.0225 17.3894 22.9339 16.3373 22.7246C16.3373 22.7246 16.2297 23.1513 16.5718 23.4167C16.8485 23.6315 17.1349 24.0225 17.1349 24.0225Z" fill="#73AF00"/>
</svg>
