<svg width="50" height="50" viewBox="0 0 50 50" fill="none" xmlns="http://www.w3.org/2000/svg">
<g clip-path="url(#clip0_106_20447)">
<path d="M49.1378 41.3796H0.862108C0.386034 41.3796 0 40.9936 0 40.5175V9.4832C0 9.00713 0.386034 8.62109 0.862108 8.62109H49.1379C49.614 8.62109 50 9.00713 50 9.4832V40.5175C49.9999 40.9937 49.6139 41.3796 49.1378 41.3796Z" fill="#FF4B55"/>
<path d="M24.1378 25.0004H0.862108C0.386034 25.0004 0 24.6143 0 24.1383V9.4832C0 9.00713 0.386034 8.62109 0.862108 8.62109H24.1378C24.6139 8.62109 25 9.00713 25 9.4832V24.1384C24.9999 24.6145 24.614 25.0004 24.1378 25.0004Z" fill="#41479B"/>
<path d="M24.1378 8.62109H22.6405L14.6551 13.8528V8.62109H10.3448V13.8528L2.35947 8.62109H0.862108C0.386034 8.62109 0 9.00713 0 9.4832V10.167L6.85106 14.6556H0V18.9659H6.85106L0 23.4546V24.1383C0 24.6143 0.386034 25.0004 0.862108 25.0004H2.35947L10.3448 19.7686V25.0004H14.6551V19.7686L22.6404 25.0004H24.1377C24.6138 25.0004 24.9999 24.6143 24.9999 24.1383V23.4545L18.1489 18.9659H24.9999V14.6556H18.1488L24.9999 10.167V9.4832C24.9999 9.00713 24.614 8.62109 24.1378 8.62109Z" fill="#F5F5F5"/>
<path d="M24.9999 15.5167H13.793V8.62012H11.2068V15.5167H0V18.1028H11.2068V24.9994H13.793V18.1028H24.9999V15.5167Z" fill="#FF4B55"/>
<path d="M9.4827 14.6544L0.410839 8.76562C0.169433 8.91846 0 9.1751 0 9.48203V9.52676L7.8993 14.6544H9.4827Z" fill="#FF4B55"/>
<path d="M16.2387 14.6546L24.8689 9.05244C24.7189 8.79863 24.4543 8.62012 24.138 8.62012H23.9515L14.6553 14.6546H16.2387Z" fill="#FF4B55"/>
<path d="M8.73826 18.9648L0.124512 24.5562C0.273047 24.8162 0.541796 24.9993 0.862694 24.9993H1.02529L10.3217 18.9648H8.73826Z" fill="#FF4B55"/>
<path d="M24.9862 24.205L16.9134 18.9648H15.3301L24.4973 24.9154C24.7721 24.788 24.9603 24.5209 24.9862 24.205Z" fill="#FF4B55"/>
<path d="M31.3421 16.9951C31.1721 16.9951 31.0342 17.1329 31.0342 17.303V28.6946C31.0342 29.6182 31.6499 32.697 37.4997 33.6207C43.3495 32.697 43.9652 29.6182 43.9652 28.6946V17.3031C43.9652 17.1331 43.8274 16.9952 43.6573 16.9952L31.3421 16.9951Z" fill="#F5F5F5"/>
<path d="M37.4998 33.6209C42.383 32.8499 43.618 30.5779 43.8932 29.3105H31.1064C31.3815 30.5778 32.6166 32.85 37.4998 33.6209Z" fill="#73AF00"/>
<path d="M41.5022 23.4602C41.5022 23.4602 41.8101 23.1522 41.5022 22.5365L37.4998 22.3574L33.4974 22.5365C33.1895 23.1522 33.4974 23.4602 33.4974 23.4602C33.1895 23.7681 33.1895 24.0759 33.1895 24.0759H33.8052L34.4723 25.1791L37.4997 26.8468L40.5272 25.1791L41.1943 24.0759H41.81C41.8101 24.0759 41.8101 23.7681 41.5022 23.4602Z" fill="#82AFFF"/>
<path d="M40.5278 25.1796C40.5278 25.1796 40.3353 24.7562 39.8223 24.8076C39.8223 24.8076 39.54 24.4356 39.0653 24.5382C39.0653 24.5382 38.5137 24.2175 38.1931 24.8076C38.1931 24.8076 37.1731 24.7039 37.1187 25.4805C37.1187 25.4805 38.7061 27.8735 38.7447 27.8992C38.7832 27.9249 40.6433 27.912 40.6433 27.912L41.5029 26.9636L40.6561 25.744L40.5278 25.1796Z" fill="#F5F5F5"/>
<path d="M37.5386 25.9366C37.5386 25.9366 36.1919 23.7366 35.9991 23.5505C35.8131 23.3709 35.4475 23.2042 35.0754 23.512C35.0754 23.512 33.9594 23.4222 34.1132 24.2689L34.4339 25.5518C34.4339 25.5518 34.1517 26.437 34.0233 26.5268C33.8951 26.6166 33.4204 26.8603 33.4204 26.8603L33.6898 27.9251L37.2817 27.7455L37.5386 25.9366Z" fill="#F0C850"/>
<path d="M39.0904 24.9743L39.0862 24.9762L38.9869 24.7417C38.9789 24.7228 38.9637 24.7077 38.9445 24.7002C38.9255 24.6927 38.9042 24.693 38.8851 24.7014L38.2169 24.996L37.4222 23.695C37.4574 23.6648 37.4728 23.6153 37.4561 23.5692C37.4347 23.509 37.3685 23.4778 37.3085 23.4991L37.1313 23.5625L37.0115 23.2084C36.9978 23.1681 36.9544 23.1471 36.914 23.1601C36.8736 23.1739 36.852 23.2175 36.8657 23.2578L36.9864 23.6147L36.7971 23.6824C36.737 23.7041 36.7058 23.7702 36.7273 23.8301C36.7441 23.8773 36.7887 23.9069 36.836 23.9069C36.8427 23.9069 36.8495 23.9046 36.8562 23.9034L37.1182 25.4809L36.9492 25.5553C36.9124 25.5716 36.8941 25.6136 36.9078 25.6515L37.0036 25.9183C37.006 25.9632 37.0058 26.039 36.9904 26.1349L35.9156 24.2912C35.9607 24.263 35.9833 24.2081 35.9646 24.1562C35.943 24.096 35.8774 24.0645 35.817 24.0862L35.6398 24.1495L35.52 23.7954C35.5064 23.7551 35.4627 23.7335 35.4225 23.7471C35.3821 23.7609 35.3605 23.8045 35.3742 23.8448L35.4949 24.2017L35.3056 24.2695C35.2455 24.2911 35.2143 24.3572 35.2358 24.4171C35.2513 24.4602 35.2904 24.4856 35.333 24.4902L35.7995 27.4017C35.7393 27.427 35.6802 27.4526 35.6139 27.4763C35.6139 27.4763 35.3958 28.5154 35.5626 28.5667C35.7294 28.618 37.4483 29.144 37.4483 29.144C37.4483 29.144 39.8216 28.0151 39.8729 27.9895C39.9242 27.9638 40.0269 27.2197 40.0269 27.2197L39.0904 24.9743ZM38.9448 25.0369L38.7461 25.1223L38.6803 24.9599L38.8755 24.8738L38.9448 25.0369ZM37.7436 25.3729L37.907 25.3009L37.9698 25.4557L37.7969 25.53L37.7436 25.3729ZM37.6549 25.5908L37.4617 25.6738L37.401 25.524L37.6023 25.4353L37.6549 25.5908ZM38.1111 25.3949L38.0477 25.2388L38.2224 25.1618L38.2863 25.3198L38.1111 25.3949ZM38.3631 25.0998L38.5394 25.022L38.6048 25.183L38.4276 25.2591L38.3631 25.0998ZM37.2787 23.7553L38.0748 25.0586L37.6942 25.2264L37.2055 23.7815L37.2787 23.7553ZM37.0039 23.8537L37.0603 23.8335L37.5527 25.289L37.2634 25.4165L37.0039 23.8537ZM37.2602 25.5862L37.3204 25.7348L37.1305 25.8163L37.077 25.6671L37.2602 25.5862ZM35.7708 24.3481L36.9366 26.348C36.8779 26.5176 36.7672 26.7145 36.573 26.9077L35.714 24.3683L35.7708 24.3481ZM35.483 24.4512L35.5691 24.4203L36.4489 27.0211C36.3155 27.1318 36.1496 27.2387 35.9454 27.3366L35.483 24.4512Z" fill="#965032"/>
<path d="M41.7812 22.0707C41.6994 21.9408 41.437 21.9965 41.437 21.9965C41.437 21.9965 41.3621 21.8467 41.1642 21.8322C40.9662 21.8178 40.9299 21.994 40.9299 21.994C40.9299 21.994 40.8928 21.9665 40.6747 21.9729C40.4567 21.9794 40.5016 22.3386 40.5016 22.3386C40.5016 22.3386 40.4182 22.3386 40.136 22.2488C39.8537 22.159 39.6678 22.2231 39.6678 22.2231C39.655 22.0756 39.5781 21.9666 39.5781 21.9666C39.3408 22.0628 39.1547 21.9538 39.1099 21.8704C39.065 21.787 39.1805 21.6588 39.1805 21.5497C39.1805 21.4406 39.0297 21.4455 38.9768 21.3493C38.9239 21.2531 38.9768 21.2002 39.1163 21.1377C39.2559 21.0752 39.3858 20.8442 39.2991 20.6566C39.2123 20.469 38.9623 20.5026 38.9623 20.5026C39.049 20.5171 39.121 20.6807 38.9817 20.7143C38.8422 20.7478 38.7171 20.238 38.7171 20.238C39.0394 20.4545 39.2752 20.3246 39.3425 20.1369C39.4099 19.9492 39.2319 19.8194 39.2319 19.8194C39.0923 20.0455 38.8518 19.8483 38.9818 19.704C39.1117 19.5597 39.1228 19.3176 39.1228 19.3176C38.8341 19.4588 38.6546 19.2791 38.6546 19.2791C39.033 19.0162 38.9241 18.644 38.9241 18.644C38.783 18.5799 38.4815 18.6312 38.4815 18.6312C38.5456 18.5029 38.5327 18.272 38.5327 18.272C38.3724 18.2463 38.1928 18.3489 38.1928 18.3489C38.2441 18.1694 38.1735 17.8551 38.1735 17.8551C38.058 17.8744 37.84 17.9385 37.84 17.9385C37.7502 17.7332 37.5 17.6113 37.5 17.6113C37.5 17.6113 37.2499 17.7332 37.1601 17.9385C37.1601 17.9385 36.942 17.8743 36.8266 17.8551C36.8266 17.8551 36.756 18.1694 36.8073 18.3489C36.8073 18.3489 36.6277 18.2464 36.4673 18.272C36.4673 18.272 36.4545 18.5029 36.5186 18.6312C36.5186 18.6312 36.2171 18.58 36.076 18.644C36.076 18.644 35.9669 19.016 36.3454 19.2791C36.3454 19.2791 36.1659 19.4587 35.8773 19.3176C35.8773 19.3176 35.8885 19.5597 36.0183 19.704C36.1482 19.8483 35.9077 20.0456 35.7682 19.8194C35.7682 19.8194 35.5902 19.9493 35.6576 20.1369C35.7249 20.3245 35.9607 20.4544 36.2829 20.238C36.2829 20.238 36.1578 20.7479 36.0184 20.7143C35.8789 20.6807 35.951 20.5171 36.0377 20.5026C36.0377 20.5026 35.7876 20.4689 35.701 20.6566C35.6144 20.8442 35.7444 21.0752 35.8837 21.1377C36.0233 21.2002 36.0762 21.2531 36.0233 21.3493C35.9704 21.4455 35.8196 21.4407 35.8196 21.5497C35.8196 21.6588 35.935 21.787 35.8902 21.8704C35.8453 21.9538 35.6592 22.0629 35.422 21.9666C35.422 21.9666 35.3451 22.0757 35.3323 22.2231C35.3323 22.2231 35.1462 22.159 34.8641 22.2488C34.5819 22.3386 34.4985 22.3386 34.4985 22.3386C34.4985 22.3386 34.5434 21.9794 34.3253 21.9729C34.1073 21.9665 34.0702 21.994 34.0702 21.994C34.0702 21.994 34.0339 21.8178 33.8359 21.8322C33.6379 21.8468 33.563 21.9965 33.563 21.9965C33.563 21.9965 33.3006 21.9409 33.2189 22.0707C33.1372 22.2006 33.1275 22.3978 33.2814 22.4797C33.4354 22.5615 33.8442 22.903 33.8442 22.903L34.4214 23.1531L36.4419 22.2583L37.5002 22.5373L38.5585 22.2583L40.579 23.1531L41.1563 22.903C41.1563 22.903 41.5653 22.5614 41.7191 22.4797C41.8726 22.3977 41.863 22.2005 41.7812 22.0707Z" fill="#FF4B55"/>
<path d="M36.8696 18.8093C36.8696 18.8093 36.8914 19.081 37.2935 19.0085C37.2934 19.0085 37.2826 18.726 36.8696 18.8093Z" fill="#F5F5F5"/>
<path d="M35.3819 29.5411C35.3819 29.5411 35.0932 29.5315 34.7951 29.7527C34.4968 29.974 34.3653 29.8169 34.067 29.8169C33.7688 29.8169 33.6982 30.128 33.6982 30.128C33.6982 30.128 33.1209 30.2723 33.3519 30.6957C33.4979 30.9634 33.7011 30.9578 33.8312 30.9175C33.8247 31.0974 33.8656 31.2951 34.0735 31.3307C34.468 31.3981 34.6412 31.1864 34.5545 30.8592C34.5545 30.8592 34.6026 31.196 34.8624 31.1864C35.1222 31.1768 35.2955 31.0324 35.2665 30.6861C35.2376 30.3398 35.6996 30.5514 36.0554 30.0415L35.3819 29.5411Z" fill="#FF4B55"/>
<path d="M33.6961 30.7788C33.6961 30.7788 33.5161 31.0161 33.5676 31.247C33.5676 31.247 33.1818 31.1251 33.3875 30.5542C33.3874 30.5543 33.6512 30.4838 33.6961 30.7788Z" fill="#82AFFF"/>
<path d="M34.3 31.0899C34.3 31.0899 34.1941 31.3882 34.3384 31.6527C34.3384 31.6527 33.8574 31.6383 33.9537 31.0466C33.9537 31.0466 34.1076 30.8879 34.3 31.0899Z" fill="#82AFFF"/>
<path d="M34.7808 31.0609C34.7808 31.0609 34.8676 31.311 34.7808 31.5516C34.7808 31.5516 35.1763 31.5276 35.1088 30.9599C35.1087 30.9599 34.8965 30.883 34.7808 31.0609Z" fill="#82AFFF"/>
<path d="M34.4296 25.308C34.3932 25.0114 32.5342 24.8366 32.6496 26.3985C32.6496 26.3985 32.4434 26.3947 32.342 26.5867C32.2406 26.7786 32.0232 26.7316 31.958 26.6627C31.958 26.6627 31.9725 27.0105 32.4035 26.9959C32.4035 26.9959 32.2671 27.1033 32.2864 27.2604C32.3058 27.4174 32.4191 27.6154 32.412 27.7506C32.4049 27.8859 32.2768 28.0742 32.2768 28.0742C32.2768 28.0742 32.6076 27.9608 32.6293 27.7241C32.6511 27.4875 32.5979 27.2895 32.6631 27.1688C32.6631 27.1688 32.6317 27.3354 32.779 27.5455C32.9263 27.7557 32.9335 28.0115 32.8731 28.1709C32.8731 28.1709 33.2401 27.9898 33.1701 27.6397C33.1001 27.2896 33.0252 27.3209 33.059 27.1253C33.059 27.1253 33.4405 27.5141 33.3754 27.8449C33.3754 27.8449 33.4974 27.6989 33.4865 27.4237C33.4757 27.1484 33.2846 26.9632 33.2846 26.9632C33.2846 26.9632 34.5546 26.3279 34.4296 25.308Z" fill="#FF4B55"/>
<path d="M39.6179 29.5411C39.6179 29.5411 39.9065 29.5315 40.2047 29.7527C40.5029 29.974 40.6345 29.8169 40.9327 29.8169C41.2309 29.8169 41.3015 30.128 41.3015 30.128C41.3015 30.128 41.8788 30.2723 41.6478 30.6957C41.5018 30.9634 41.2986 30.9578 41.1685 30.9175C41.1751 31.0974 41.1342 31.2951 40.9263 31.3307C40.5317 31.3981 40.3586 31.1864 40.4452 30.8592C40.4452 30.8592 40.3972 31.196 40.1373 31.1864C39.8775 31.1768 39.7043 31.0324 39.7332 30.6861C39.7621 30.3398 39.3002 30.5514 38.9443 30.0415L39.6179 29.5411Z" fill="#FF4B55"/>
<path d="M41.3052 30.7788C41.3052 30.7788 41.4852 31.0161 41.4337 31.247C41.4337 31.247 41.8195 31.1251 41.6138 30.5542C41.6138 30.5543 41.3501 30.4838 41.3052 30.7788Z" fill="#82AFFF"/>
<path d="M40.7006 31.0899C40.7006 31.0899 40.8064 31.3882 40.6621 31.6527C40.6621 31.6527 41.1432 31.6382 41.0469 31.0466C41.0471 31.0466 40.8931 30.8879 40.7006 31.0899Z" fill="#82AFFF"/>
<path d="M40.2205 31.0609C40.2205 31.0609 40.1337 31.311 40.2205 31.5516C40.2205 31.5516 39.825 31.5276 39.8925 30.9599C39.8924 30.9599 40.1048 30.883 40.2205 31.0609Z" fill="#82AFFF"/>
<path d="M40.5702 25.308C40.6066 25.0114 42.4656 24.8366 42.3502 26.3985C42.3502 26.3985 42.5564 26.3947 42.6578 26.5867C42.7592 26.7786 42.9765 26.7316 43.0418 26.6627C43.0418 26.6627 43.0273 27.0105 42.5963 26.9959C42.5963 26.9959 42.7327 27.1033 42.7133 27.2604C42.694 27.4174 42.5804 27.6154 42.5878 27.7506C42.595 27.8859 42.723 28.0742 42.723 28.0742C42.723 28.0742 42.3922 27.9608 42.3705 27.7241C42.3487 27.4875 42.4018 27.2895 42.3367 27.1688C42.3367 27.1688 42.368 27.3354 42.2208 27.5455C42.0735 27.7557 42.0663 28.0115 42.1266 28.1709C42.1266 28.1709 41.7596 27.9898 41.8297 27.6397C41.8997 27.2896 41.9746 27.3209 41.9408 27.1253C41.9408 27.1253 41.5593 27.5141 41.6244 27.8449C41.6244 27.8449 41.5024 27.6989 41.5133 27.4237C41.5241 27.1484 41.7152 26.9632 41.7152 26.9632C41.7152 26.9632 40.4451 26.3279 40.5702 25.308Z" fill="#FF4B55"/>
<path d="M41.3304 22.6454C41.2597 22.5978 41.1641 22.6176 41.117 22.689C41.0197 22.836 40.8914 22.922 40.7251 22.9518C40.1742 23.0474 39.38 22.5051 39.1494 22.3354C38.8151 22.0897 38.4022 22.047 38.1281 22.2159C38.0187 22.2521 37.6843 22.3575 37.4998 22.3575C37.3152 22.3575 36.9808 22.252 36.8714 22.2159C36.5973 22.047 36.1843 22.0897 35.8502 22.3354C35.6196 22.5051 34.8254 23.0473 34.2745 22.9518C34.1081 22.922 33.9798 22.8361 33.8825 22.689C33.8354 22.6178 33.7398 22.598 33.6691 22.6454C33.5982 22.6923 33.5788 22.788 33.6256 22.8586C33.77 23.0769 33.9701 23.21 34.2205 23.2548C34.2838 23.2662 34.3484 23.2713 34.4142 23.2713C35.0017 23.2713 35.6665 22.8521 36.0322 22.5837C36.3042 22.384 36.609 22.3843 36.7464 22.5001C36.781 22.5295 36.8205 22.5759 36.811 22.6302C36.8059 22.66 36.7863 22.6868 36.7537 22.7093C36.7616 22.6622 36.7472 22.6119 36.7108 22.5753C36.6506 22.5151 36.5533 22.5151 36.4931 22.5753C36.4148 22.6532 36.4063 22.7797 36.4722 22.8826C36.5385 22.9857 36.6814 23.0611 36.8511 22.9983C36.9374 22.9662 37.0063 22.9048 37.0541 22.8296C37.288 22.7615 37.4999 22.761 37.4999 22.761C37.4999 22.761 37.7117 22.7614 37.9457 22.8296C37.9934 22.9048 38.0624 22.9662 38.1486 22.9983C38.3183 23.0611 38.4611 22.9857 38.5275 22.8826C38.5934 22.7798 38.5849 22.6532 38.5066 22.5753C38.4464 22.5151 38.3491 22.5151 38.2889 22.5753C38.2525 22.6119 38.2382 22.6621 38.2461 22.7093C38.2134 22.6868 38.1939 22.66 38.1887 22.6302C38.1793 22.5759 38.2187 22.5295 38.2534 22.5001C38.3907 22.3843 38.6955 22.3841 38.9675 22.5837C39.3333 22.8522 39.998 23.2713 40.5855 23.2713C40.6513 23.2713 40.716 23.2662 40.7793 23.2548C41.0296 23.2099 41.2297 23.0767 41.3741 22.8586C41.4208 22.788 41.4014 22.6923 41.3304 22.6454Z" fill="#FFE15A"/>
<path d="M33.5777 22.8156C33.5777 22.8156 33.5524 22.4715 33.5414 22.3592C33.5304 22.2469 33.3199 22.1636 33.2399 22.2759C33.1601 22.3882 33.1384 22.5947 33.5777 22.8156Z" fill="#82AFFF"/>
<path d="M33.6511 22.7048C33.6511 22.7048 33.955 22.4594 33.9163 22.3296C33.8778 22.1997 33.7958 22.1325 33.6945 22.1709C33.5931 22.2094 33.545 22.4451 33.6511 22.7048Z" fill="#82AFFF"/>
<path d="M34.2434 22.5125C34.287 22.469 34.3012 22.2575 34.1807 22.2335C34.0602 22.2095 33.901 22.3971 33.9106 22.6281C33.9106 22.628 34.1613 22.5944 34.2434 22.5125Z" fill="#82AFFF"/>
<path d="M34.1175 22.6324C33.9779 22.677 33.8433 22.796 33.8433 22.796C33.8433 22.796 34.0934 22.9787 34.2666 22.9211C34.4398 22.8634 34.3581 22.5554 34.1175 22.6324Z" fill="#82AFFF"/>
<path d="M38.1304 18.8093C38.1304 18.8093 38.1086 19.081 37.7065 19.0085C37.7065 19.0085 37.7175 18.726 38.1304 18.8093Z" fill="#F5F5F5"/>
<path d="M41.4229 22.8156C41.4229 22.8156 41.4482 22.4715 41.4592 22.3592C41.47 22.2469 41.6806 22.1636 41.7606 22.2759C41.8404 22.3882 41.8623 22.5947 41.4229 22.8156Z" fill="#82AFFF"/>
<path d="M41.3492 22.7048C41.3492 22.7048 41.0453 22.4594 41.084 22.3296C41.1225 22.1997 41.2045 22.1325 41.3058 22.1709C41.4072 22.2094 41.4552 22.4451 41.3492 22.7048Z" fill="#82AFFF"/>
<path d="M40.7572 22.5125C40.7135 22.469 40.6993 22.2575 40.8199 22.2335C40.9404 22.2095 41.0996 22.3971 41.09 22.6281C41.0899 22.628 40.8392 22.5944 40.7572 22.5125Z" fill="#82AFFF"/>
<path d="M40.8817 22.6324C41.0213 22.677 41.156 22.796 41.156 22.796C41.156 22.796 40.9059 22.9787 40.7326 22.9211C40.5593 22.8634 40.6412 22.5554 40.8817 22.6324Z" fill="#82AFFF"/>
<path d="M37.3412 19.45L37.4636 19.5721C37.4841 19.5926 37.5175 19.5926 37.538 19.5721L37.6604 19.45C37.6936 19.4169 37.6701 19.3604 37.6231 19.3604H37.3783C37.3315 19.3604 37.3081 19.4169 37.3412 19.45Z" fill="#464655"/>
<path d="M37.2764 19.9508C37.1858 19.9508 37.1075 19.9184 37.0543 19.8584C36.9992 19.7961 36.9759 19.7104 36.9898 19.6232C36.9947 19.594 37.024 19.5764 37.0515 19.5787C37.0809 19.5836 37.1008 19.6111 37.0961 19.6406C37.0873 19.6957 37.1014 19.7488 37.1349 19.7867C37.1694 19.8255 37.2223 19.8436 37.2871 19.8427C37.4225 19.8373 37.4451 19.705 37.4461 19.6996L37.4454 19.4581C37.4454 19.4283 37.4694 19.4043 37.4992 19.4043C37.529 19.4043 37.553 19.4283 37.553 19.4581V19.708C37.54 19.7943 37.4694 19.9432 37.2913 19.9504C37.2865 19.9508 37.2814 19.9508 37.2764 19.9508Z" fill="#464655"/>
<path d="M37.7224 19.9507C37.7174 19.9507 37.7123 19.9507 37.7071 19.9504C37.529 19.9432 37.4585 19.7943 37.446 19.7164L37.4453 19.4581C37.4453 19.4283 37.4693 19.4043 37.4991 19.4043C37.5289 19.4043 37.5529 19.4283 37.5529 19.4581V19.708C37.5548 19.7134 37.58 19.8376 37.7112 19.8427C37.7779 19.8438 37.8288 19.8262 37.8635 19.7867C37.897 19.7488 37.9111 19.6957 37.9022 19.6406C37.8977 19.6112 37.9175 19.5835 37.9469 19.5787C37.975 19.5752 38.0039 19.5937 38.0086 19.6232C38.0226 19.7104 37.9991 19.7961 37.9441 19.8584C37.8911 19.9183 37.8129 19.9507 37.7224 19.9507Z" fill="#464655"/>
<path d="M39.3472 27.771C39.3472 27.771 38.9624 27.1553 38.5134 27.5657C38.0643 27.9763 37.8976 28.4766 37.3845 28.438C37.1029 28.4169 36.9591 28.2883 36.8844 28.1759C37.0207 28.0637 37.1174 27.8933 37.0125 27.6426C36.7815 27.0909 35.935 27.2578 35.704 27.8607C35.704 27.8607 35.9734 26.9755 35.0369 27.2706C35.0369 27.2706 34.9215 26.6549 34.3827 26.8216C34.0897 26.9123 33.9813 27.0926 33.9411 27.2395C33.8277 27.2131 33.6821 27.2139 33.5488 27.3219L34.2287 29.1564L35.255 29.1691L35.4859 29.5154L36.8329 30.3621L37.0767 30.8753H37.9233C37.9233 30.8753 37.9875 30.3493 38.4365 30.1954C38.8855 30.0414 39.6167 29.7207 39.6937 29.4385C39.7707 29.1563 39.7707 29.1563 39.7707 29.1563L40.5917 29.1691C40.6814 29.1049 41.2845 28.1171 41.2845 28.1171L41.5643 26.8449C41.4098 26.8228 39.6416 26.5934 39.3472 27.771Z" fill="#F5F5F5"/>
<path d="M41.5664 26.835L41.564 26.8461C41.5714 26.8471 41.5799 26.8485 41.5799 26.8485L41.5664 26.835Z" fill="#F5F5F5"/>
<path d="M35.9788 29.7374C35.6462 29.6033 35.5275 29.4154 35.4864 29.3153C35.4482 29.2228 35.4557 29.1571 35.4662 29.1331C35.4873 29.0841 35.513 29.0528 35.537 29.0468C35.5595 29.0414 35.588 29.0543 35.5932 29.0575C35.6039 29.0698 35.6097 29.1089 35.5994 29.1186C35.5374 29.1769 35.5346 29.2742 35.5928 29.3362C35.6513 29.3982 35.7484 29.4009 35.8105 29.3428C35.8738 29.2833 35.9101 29.2 35.9125 29.1083C35.9155 29.0101 35.8794 28.912 35.8166 28.8458C35.7536 28.7791 35.6242 28.7184 35.4863 28.743C35.4579 28.748 35.4258 28.7596 35.3931 28.7754C35.4147 28.5621 35.3325 28.4529 35.2721 28.4089C35.1706 28.3352 35.0262 28.3335 34.9046 28.4047C34.7803 28.4777 34.7131 28.6056 34.7295 28.7379C34.7401 28.8224 34.8247 28.873 34.9074 28.8615C34.9917 28.8513 35.0581 28.7642 35.0477 28.68C35.0652 28.6641 35.0881 28.6587 35.0873 28.655C35.0876 28.6553 35.108 28.689 35.0834 28.7976C35.0451 28.9677 34.9551 29.0724 34.8159 29.1091C34.6425 29.1569 34.4205 29.0839 34.2892 28.9398C34.1067 28.7389 33.7247 27.6731 33.4975 26.9631C34.4712 26.5013 34.5909 25.734 34.5724 25.3065C34.5443 24.6552 34.1546 23.9889 33.7213 23.8515C33.5508 23.7977 33.2955 23.7865 33.1101 23.8822C33.0051 23.9369 32.9323 24.0207 32.8995 24.125C32.8326 24.3378 32.9665 24.5138 33.1266 24.5712C33.2924 24.6307 33.4598 24.5591 33.5242 24.4007C33.5561 24.3219 33.5212 24.2318 33.4425 24.1998C33.3633 24.1671 33.2771 24.2055 33.2454 24.284C33.2389 24.2875 33.2175 24.2795 33.2016 24.2614C33.1901 24.2482 33.1876 24.2353 33.1933 24.2176C33.1984 24.2013 33.21 24.1773 33.2524 24.1553C33.353 24.1028 33.5211 24.1108 33.6286 24.1447C33.8765 24.2232 34.2385 24.7082 34.2649 25.3195C34.2806 25.6848 34.1698 26.3544 33.2504 26.736C33.1767 26.7666 33.1387 26.8482 33.1625 26.9242C33.2226 27.1163 33.7581 28.813 34.0614 29.1464C34.2246 29.3259 34.4711 29.4302 34.707 29.4302C34.7708 29.4302 34.834 29.4227 34.8945 29.4067C34.9973 29.3794 35.0831 29.3264 35.1579 29.2598C35.1653 29.3162 35.1784 29.374 35.2022 29.4318C35.2617 29.5768 35.4268 29.8462 35.8877 30.0319C36.8201 30.406 36.9086 30.6561 36.9036 30.7466C36.9007 30.7962 36.8723 30.822 36.8492 30.835C36.8391 30.8407 36.8291 30.8442 36.8206 30.8464C36.855 30.7992 36.8613 30.7346 36.8309 30.6801C36.7894 30.6059 36.6958 30.5793 36.6215 30.6208C36.5167 30.6794 36.4437 30.8175 36.5063 30.9684C36.5551 31.0857 36.6695 31.1566 36.8015 31.1566C36.8227 31.1566 36.8444 31.1548 36.8662 31.1509C37.0579 31.1185 37.1995 30.9594 37.2109 30.7643C37.2372 30.2977 36.5334 29.9601 35.9788 29.7374Z" fill="#FFE15A"/>
<path d="M39.0208 29.7374C39.3535 29.6033 39.4722 29.4154 39.5133 29.3153C39.5515 29.2228 39.544 29.1571 39.5335 29.1331C39.5123 29.0841 39.4867 29.0528 39.4627 29.0468C39.4402 29.0414 39.4117 29.0543 39.4065 29.0575C39.3957 29.0698 39.39 29.1089 39.4003 29.1186C39.4623 29.1769 39.4651 29.2742 39.4069 29.3362C39.3484 29.3982 39.2513 29.4009 39.1892 29.3428C39.1259 29.2833 39.0896 29.2 39.0871 29.1083C39.0843 29.0101 39.1203 28.912 39.183 28.8458C39.2461 28.7791 39.3755 28.7184 39.5134 28.743C39.5418 28.748 39.5739 28.7596 39.6066 28.7754C39.585 28.5621 39.6672 28.4529 39.7276 28.4089C39.829 28.3352 39.9735 28.3335 40.0951 28.4047C40.2194 28.4777 40.2866 28.6056 40.2702 28.7379C40.2596 28.8224 40.1749 28.873 40.0923 28.8615C40.0079 28.8513 39.9416 28.7642 39.952 28.68C39.9345 28.6641 39.9116 28.6587 39.9123 28.655C39.912 28.6553 39.8917 28.689 39.9162 28.7976C39.9546 28.9677 40.0446 29.0724 40.1838 29.1091C40.3572 29.1569 40.5792 29.0839 40.7105 28.9398C40.893 28.7389 41.275 27.6731 41.5022 26.9631C40.5285 26.5013 40.4088 25.734 40.4273 25.3065C40.4554 24.6552 40.8451 23.9889 41.2784 23.8515C41.4489 23.7977 41.7042 23.7865 41.8896 23.8822C41.9946 23.9369 42.0674 24.0207 42.1002 24.125C42.1671 24.3378 42.0332 24.5138 41.8731 24.5712C41.7073 24.6307 41.5399 24.5591 41.4755 24.4007C41.4436 24.3219 41.4784 24.2318 41.5572 24.1998C41.6364 24.1671 41.7226 24.2055 41.7543 24.284C41.7608 24.2875 41.7822 24.2795 41.7981 24.2614C41.8096 24.2482 41.812 24.2353 41.8064 24.2176C41.8013 24.2013 41.7897 24.1773 41.7473 24.1553C41.6467 24.1028 41.4785 24.1108 41.3711 24.1447C41.1232 24.2232 40.7612 24.7082 40.7348 25.3195C40.7191 25.6848 40.8299 26.3544 41.7493 26.736C41.823 26.7666 41.861 26.8482 41.8371 26.9242C41.7771 27.1163 41.2416 28.813 40.9383 29.1464C40.7751 29.3259 40.5285 29.4302 40.2927 29.4302C40.2288 29.4302 40.1657 29.4227 40.1052 29.4067C40.0024 29.3794 39.9165 29.3264 39.8418 29.2598C39.8344 29.3162 39.8213 29.374 39.7975 29.4318C39.738 29.5768 39.5729 29.8462 39.112 30.0319C38.1796 30.406 38.0911 30.6561 38.0961 30.7466C38.0991 30.7962 38.1274 30.822 38.1505 30.835C38.1606 30.8407 38.1705 30.8442 38.179 30.8464C38.1447 30.7992 38.1384 30.7346 38.1688 30.6801C38.2103 30.6059 38.3038 30.5793 38.3782 30.6208C38.4829 30.6794 38.556 30.8175 38.4934 30.9684C38.4446 31.0857 38.3302 31.1566 38.1982 31.1566C38.177 31.1566 38.1553 31.1548 38.1334 31.1509C37.9417 31.1185 37.8001 30.9594 37.7888 30.7643C37.7623 30.2977 38.4663 29.9601 39.0208 29.7374Z" fill="#FFE15A"/>
</g>
<defs>
<clipPath id="clip0_106_20447">
<rect width="50" height="50" fill="white"/>
</clipPath>
</defs>
</svg>
