<svg width="50" height="50" viewBox="0 0 50 50" fill="none" xmlns="http://www.w3.org/2000/svg">
<g clip-path="url(#clip0_106_20415)">
<path d="M49.1368 8.62109H0.861131C0.385058 8.62109 -0.000976562 9.00713 -0.000976562 9.4832V40.5175C-0.000976562 40.9936 0.385058 41.3796 0.861131 41.3796H49.1369C49.613 41.3796 49.999 40.9936 49.999 40.5175V9.4832C49.9989 9.00713 49.6129 8.62109 49.1368 8.62109Z" fill="#FF6E55"/>
<path d="M0.316992 41.1713L49.6809 8.82949C49.5314 8.70518 49.3464 8.62109 49.1368 8.62109H0.861131C0.385058 8.62109 -0.000976562 9.00713 -0.000976562 9.4832V40.5175C-0.000976562 40.784 0.127051 41.0132 0.316992 41.1713Z" fill="#FFE15A"/>
<path d="M27.4904 17.3854C27.0572 17.4781 26.3767 17.2461 26.3767 17.2461C26.5169 17.4876 26.8919 17.6502 27.2301 17.7525C26.957 17.7798 26.6456 17.7952 26.2992 17.7876C24.9069 17.7565 24.2573 18.6693 24.2573 18.6693C24.7523 18.3599 25.2628 18.3599 26.0208 18.4683C26.7788 18.5766 28.3876 18.0971 28.3876 18.0971L28.5268 17.4783C28.5268 17.4782 27.9236 17.2926 27.4904 17.3854Z" fill="#FFF5DC"/>
<path d="M28.9212 14.4854C28.9212 14.4854 29.641 14.6379 30.3716 15.0571C30.3276 15.0802 30.2855 15.1084 30.2455 15.1415C30.0093 15.0241 29.7241 14.9291 29.3542 14.8914C29.3542 14.8914 29.7371 14.991 30.105 15.2791C30.0097 15.3913 29.9312 15.5189 29.8708 15.6324C29.0615 14.7646 28.1863 15.3438 28.1863 15.3438C29.2719 15.2613 29.5281 15.9589 29.5892 16.2958C29.379 16.1553 29.1809 16.0395 28.9952 15.9452C29.0224 15.9248 29.0362 15.9064 29.0681 15.8854C29.0681 15.8854 29.0002 15.8882 28.9058 15.9022C27.5203 15.2363 26.8405 15.7616 26.8405 15.7616C27.4558 15.6864 28.0245 15.8464 28.4757 16.0456C28.2774 16.1598 28.1431 16.3608 28.2539 16.7026C27.4768 16.4912 26.5003 16.2829 26.0206 16.4113C25.1543 16.6434 25.4328 17.4477 25.4328 17.4477C25.4328 17.4477 25.4483 16.9063 26.0361 16.7825C26.4762 16.6898 28.6658 17.3858 28.6658 17.3858L29.3773 17.0455L29.0835 16.7979C29.0835 16.7979 28.5186 16.5712 28.7608 16.1815C29.1658 16.3975 29.4237 16.6122 29.4237 16.6122L29.5978 16.3578C29.6063 16.4236 29.6093 16.473 29.6093 16.473L30.1044 16.2565L30.2127 16.1018C30.256 15.867 30.3277 15.7 30.4102 15.575C30.5534 15.755 30.6718 15.9772 30.7309 16.2524L31.1796 16.2989C31.1796 16.2989 31.1067 15.7804 30.6048 15.368C30.6493 15.3363 30.6932 15.3101 30.7365 15.2926C31.0671 15.5298 31.3754 15.8264 31.5894 16.1984L32.417 16.1868C32.4172 16.187 31.0558 14.671 28.9212 14.4854Z" fill="#FFF5DC"/>
<path d="M36.8182 22.8307C37.3906 22.8307 37.8546 22.3666 37.8546 21.7942C37.8546 21.2218 37.3906 20.7578 36.8182 20.7578C36.2458 20.7578 35.7817 21.2218 35.7817 21.7942C35.7817 22.3666 36.2458 22.8307 36.8182 22.8307Z" fill="#FFF5DC"/>
<path d="M34.3982 31.9088C35.1661 31.9088 35.7887 31.2863 35.7887 30.5184C35.7887 29.7504 35.1661 29.1279 34.3982 29.1279C33.6303 29.1279 33.0078 29.7504 33.0078 30.5184C33.0078 31.2863 33.6303 31.9088 34.3982 31.9088Z" fill="#FFF5DC"/>
<path d="M23.7988 30.9463C24.4075 30.9463 24.9009 30.4529 24.9009 29.8442C24.9009 29.2356 24.4075 28.7422 23.7988 28.7422C23.1902 28.7422 22.6968 29.2356 22.6968 29.8442C22.6968 30.4529 23.1902 30.9463 23.7988 30.9463Z" fill="#FFF5DC"/>
<path d="M21.2637 36.3496C21.9664 36.3496 22.5361 35.7799 22.5361 35.0771C22.5361 34.3744 21.9664 33.8047 21.2637 33.8047C20.5609 33.8047 19.9912 34.3744 19.9912 35.0771C19.9912 35.7799 20.5609 36.3496 21.2637 36.3496Z" fill="#FFF5DC"/>
<path d="M33.3842 19.0875C33.3842 19.0875 35.7672 19.9367 36.3426 20.2244C37.1548 20.6305 38.4309 19.4471 39.3242 20.3637C39.3242 20.3637 39.1694 19.7526 38.427 19.7062C38.427 19.7062 38.4426 19.1029 37.7465 19.134C37.7465 19.134 38.2569 19.5052 37.9631 19.7683C37.9631 19.7683 37.762 19.3196 37.1895 19.3971C37.1895 19.3971 37.6226 19.5672 37.5144 19.8302C37.5144 19.8302 36.8261 20.1627 36.5167 19.9462C36.2073 19.7296 33.7633 18.4108 32.9897 18.3799L33.3842 19.0875Z" fill="#FFF5DC"/>
<path d="M32.7739 19.8298C32.7739 19.8298 33.2844 19.9807 34.0269 20.7579C34.371 21.1182 35.2566 21.1408 35.1175 20.4446C34.9782 19.7485 33.2612 19.3193 33.0756 19.3193C32.89 19.3193 32.7739 19.8298 32.7739 19.8298Z" fill="#F5F5F5"/>
<path d="M36.4941 18.2988L35.5195 18.6237C35.5195 18.6237 35.6278 19.2851 35.0708 19.5751C34.7279 19.7538 34.4986 20.217 34.5139 20.5573C34.5139 20.5573 34.8388 20.1087 35.3028 19.8612C35.412 19.8029 35.5128 19.7519 35.6046 19.7C35.5862 19.9319 35.5813 20.1754 35.6122 20.3872C35.705 21.0214 35.5039 21.238 35.5039 21.238C35.5039 21.238 36.0454 20.8203 35.9834 20.1397C35.9596 19.8782 36.0025 19.693 36.0691 19.5523C36.117 20.0263 36.3701 20.2481 36.3701 20.2481C36.1844 19.8769 36.5711 19.4746 36.7259 19.1498C36.8808 18.8247 36.4941 18.2988 36.4941 18.2988Z" fill="#FFF5DC"/>
<path d="M38.9571 16.9527C38.5734 16.8222 38.203 17.0571 37.9825 17.2544C37.8886 17.3383 37.6414 17.381 37.3884 17.404C37.5573 17.2844 37.7372 17.1433 37.8318 17.0224C38.0406 16.7556 38.4235 16.7091 38.7483 16.6047C39.0732 16.5003 39.2125 16.0827 39.2125 16.0827C39.2125 16.0827 39.0384 16.3379 38.5511 16.3147C38.0638 16.2915 37.9014 16.2682 37.5765 16.6164C37.4766 16.7234 37.3368 16.8061 37.1918 16.8726C37.1949 16.7206 37.2081 16.5271 37.2516 16.396C37.3329 16.1523 37.7041 15.9551 37.7273 15.4678C37.7505 14.9805 37.7738 15.027 38.0522 14.7369C38.3306 14.4468 38.4119 13.9015 38.3306 14.0755C38.2494 14.2496 37.8782 14.4585 37.5649 14.7485C37.2516 15.0385 37.4721 15.3633 37.3096 15.6186C37.1472 15.8739 36.7644 15.9319 36.7411 16.4075C36.7179 16.8832 36.3814 17.1616 36.3814 17.1616C36.3814 17.1616 35.5577 17.614 36.5438 17.9738C37.5301 18.3335 38.3278 17.3329 38.8177 17.3589C39.9083 17.4169 40.1983 17.0573 40.1983 17.0573C40.0129 17.0572 39.5372 17.15 38.9571 16.9527Z" fill="#FFF5DC"/>
<path d="M26.9959 24.5943C26.934 24.5478 25.8667 23.3723 25.5108 23.202L25.5881 23.496C25.5881 23.496 25.3561 23.4805 24.9384 22.97C24.5208 22.4596 24.2114 22.3203 24.2114 22.3203C24.2114 22.3203 24.5053 22.7845 24.4898 23.0783C24.4898 23.0783 23.8555 23.0318 23.175 23.3567C23.175 23.3567 22.8656 22.7534 22.6027 22.6452C22.6027 22.6452 22.6955 23.2795 22.479 23.4341C22.2624 23.5889 24.5209 24.6561 24.8302 24.6871C25.1396 24.7181 26.9959 24.5943 26.9959 24.5943Z" fill="#FFF5DC"/>
<path d="M28.4036 22.2891C28.3816 22.2837 28.2675 22.3639 28.1202 22.4691C28.0552 22.0934 27.9241 21.334 27.9241 21.2991C27.9241 21.2526 26.8722 19.7832 26.8412 19.7213C26.8406 19.7202 26.8372 19.7201 26.8364 19.7191C26.9386 19.472 27.0486 19.0513 26.4235 19.3809C25.5727 19.8297 25.2324 20.866 25.2324 20.866C25.4264 20.6636 25.7648 20.5092 26.035 20.4088C26.0405 20.5349 26.0415 20.6847 25.8666 20.9433C25.5107 21.4692 25.7118 21.6704 25.7118 21.6704C25.9902 21.1909 26.609 21.1444 26.609 21.1444C26.5162 21.7168 26.841 22.0416 26.841 22.0416L27.1039 21.7322C27.0715 22.1751 27.3085 22.6503 27.4559 22.9C27.3977 22.9281 27.3445 22.9497 27.3051 22.9542C27.042 22.9852 26.6245 23.1862 26.6245 23.1862C26.6245 23.1862 26.963 23.114 27.1552 23.2625C27.3473 23.411 27.6531 23.5246 27.819 23.4896C27.819 23.4896 27.7403 23.8915 27.8277 24.0399C27.8277 24.0399 27.6093 23.9786 27.356 23.9875C27.1026 23.9963 26.9183 23.8205 26.9183 23.8205C26.9183 23.8205 27.3824 24.4855 27.7227 24.6248C28.0629 24.764 28.6508 24.2536 28.6508 24.2536C28.6508 24.2536 28.4655 22.3045 28.4036 22.2891Z" fill="#FFF5DC"/>
<path d="M20.406 31.9883C20.406 31.9883 20.1121 32.0192 19.8338 32.4369L19.7101 32.0038C19.7101 32.0038 19.3697 32.2513 18.9985 32.0966C18.9985 32.0966 19.3389 32.0192 19.4007 31.7098C19.4625 31.4005 19.5863 31.3695 19.5863 31.3695C19.5863 31.3695 19.3543 31.1219 19.1068 31.1375C19.1068 31.1375 19.7874 30.7816 20.1588 31.1219C20.5297 31.4623 20.406 31.9883 20.406 31.9883Z" fill="#FFF5DC"/>
<path d="M28.5892 28.5704C28.5892 28.5704 28.2952 28.6013 28.0169 29.019L27.8932 28.5858C27.8932 28.5858 27.5528 28.8334 27.1816 28.6786C27.1816 28.6786 27.522 28.6012 27.5838 28.2919C27.6456 27.9825 27.7694 27.9515 27.7694 27.9515C27.7694 27.9515 27.5374 27.704 27.2899 27.7195C27.2899 27.7195 27.9705 27.3636 28.3419 27.704C28.713 28.0444 28.5892 28.5704 28.5892 28.5704Z" fill="#FFF5DC"/>
<path d="M33.6064 24.1691C33.6064 24.1691 33.4629 24.4275 33.6449 24.8952L33.2192 24.7477C33.2192 24.7477 33.2264 25.1685 32.8865 25.3834C32.8865 25.3834 33.0187 25.0605 32.801 24.832C32.5833 24.6036 32.629 24.4846 32.629 24.4846C32.629 24.4846 32.2932 24.5323 32.1636 24.7439C32.1636 24.7439 32.2633 23.9823 32.7551 23.8739C33.247 23.7656 33.6064 24.1691 33.6064 24.1691Z" fill="#FFF5DC"/>
<path d="M35.0967 29.3965L35.3961 29.575C35.309 29.5001 35.2056 29.4439 35.0967 29.3965Z" fill="#FF6E55"/>
<path d="M18.2098 30.89C18.2098 30.89 16.8331 32.8236 15.2553 33.2413L15.8122 32.5298C15.8122 32.5298 15.0696 33.1795 14.2344 33.3186L15.2398 32.1585C15.2398 32.1585 12.9969 34.2469 10.1196 34.68C10.1196 34.68 12.3472 33.2723 12.7958 32.7772C12.7958 32.7772 11.7129 33.2104 10.7384 33.2259C10.7384 33.2259 13.5383 32.143 14.0023 31.7099C14.0023 31.7099 12.8886 31.9575 12.1925 31.7255C12.1925 31.7255 14.6057 31.0294 14.9459 31.1222C14.9459 31.1222 13.5536 30.5652 12.7184 30.6271C12.7184 30.6271 14.1415 30.2868 15.7967 30.6271L15.4408 30.2404C15.4408 30.2404 16.3845 29.9929 17.3126 29.931C18.2407 29.8692 17.7767 29.7918 17.7767 29.7918L17.885 29.4824C17.885 29.4824 17.2817 29.5598 16.7868 29.4824C16.7868 29.4824 18.2719 28.6471 18.6895 28.2759C19.1072 27.9047 18.8288 28.0748 18.8288 28.0748C18.8288 28.0748 18.0553 28.3377 17.7768 28.3842C17.7768 28.3842 18.4729 27.5798 18.6895 27.0538C18.6895 27.0538 18.0553 27.3014 17.5139 27.0538C17.5139 27.0538 18.1636 26.8682 18.4885 26.5434C18.8134 26.2185 19.2929 25.4102 19.2929 25.4102L18.7359 25.6539C18.7359 25.6539 19.2232 24.8186 19.6525 24.6098C19.6525 24.6098 18.9216 24.6678 18.6896 24.4937C18.6896 24.4937 19.467 24.3081 19.699 24.1226C19.931 23.9369 20.4416 23.4496 20.9636 23.6353C20.9636 23.6353 21.6945 22.9623 21.4509 22.5215C21.4509 22.5215 21.9265 22.5562 22.1702 22.8464C22.4138 23.1364 22.7967 23.3801 22.7967 23.3801L20.8089 24.9347L19.293 29.8538L18.2098 30.89Z" fill="#FFF5DC"/>
<path d="M37.6858 21.6092C38.2582 22.5373 37.5465 22.6302 37.5465 22.6302C37.4382 21.7484 36.6957 21.8568 36.6957 21.8568L36.8968 22.5065C35.6593 22.6613 35.7521 21.4236 35.7521 21.4236C35.5664 21.5784 35.2571 22.2125 35.2571 22.2125C35.2571 22.2125 31.9158 23.3263 29.6573 20.0159C29.6573 20.0159 29.5954 19.428 29.7811 19.1495L28.3888 18.0977L26.5944 18.3452C26.5944 18.3452 25.8829 19.9539 26.7492 20.944C27.6155 21.934 28.6364 23.3263 28.4507 23.976C28.3407 24.3611 28.0132 24.5179 27.5586 24.4851C27.2462 24.4626 26.874 24.3506 26.4708 24.1616C25.4808 23.6975 23.0676 22.7076 21.3351 23.5119C19.6026 24.3163 19.4146 25.7082 19.0766 26.7914C18.7774 27.7502 18.1134 30.198 13.3834 32.4313C13.1574 32.538 13.2723 32.8814 13.5148 32.8212C15.5652 32.3114 18.3606 31.462 19.2235 30.4576L19.9196 30.4807L19.6643 31.5481C19.6643 31.5481 20.5693 31.8265 20.7085 33.1492C20.7085 33.1492 19.1229 33.5823 20.0201 34.9436C20.0201 34.9436 20.1593 33.9536 21.2576 33.9072C21.2576 33.9072 21.5051 34.2321 22.0464 34.2784C22.0464 34.2784 22.3249 34.7271 22.1857 35.0983C22.1857 35.0983 23.2839 34.758 22.3558 33.443C22.3558 33.443 23.3922 33.1956 23.5315 34.495C23.5315 34.495 24.1967 32.3912 21.8222 32.5459C21.8222 32.5459 21.8222 32.1747 21.1958 31.5017C21.1958 31.5017 21.0412 31.1226 21.1958 30.5968C21.2423 30.4385 21.2844 30.2742 21.3196 30.1068C21.4486 30.1784 21.6469 30.263 21.9073 30.272C21.9073 30.272 22.294 30.9062 23.4387 30.7979C23.4387 30.7979 22.6034 30.4113 22.6807 29.6687C22.7581 28.9262 23.7327 28.524 24.1503 28.8179C24.1503 28.8179 24.042 27.8432 22.5261 28.4775C22.5261 28.4775 22.5261 27.7505 23.3305 27.7042C23.3305 27.7042 22.0312 26.7141 21.7372 28.6013L21.1995 28.7357C20.9368 28.0075 20.604 26.3167 22.0775 25.7009C23.6321 25.0512 25.2564 26.5131 28.1336 26.6522C28.1336 26.6522 27.8552 28.3461 28.7833 28.7638C29.7115 29.1814 31.9854 29.576 31.9854 29.576C31.9622 32.02 33.741 31.6951 33.741 31.6951C32.8777 31.1777 32.8777 30.1906 33.4106 29.614C34.1368 28.8283 35.3962 29.5758 35.3962 29.5758C35.3784 28.3861 33.7101 28.5702 33.7101 28.5702C33.973 27.7969 35.0094 27.5956 35.0094 27.5956C33.5708 27.0697 32.3797 28.6244 32.3797 28.6244L29.9433 27.9283C29.9433 27.9283 29.8505 27.441 30.4306 26.7914C31.0107 26.1418 31.498 25.0511 31.3356 23.891C31.3356 23.891 32.0085 23.4191 32.8438 23.8833C33.6791 24.3475 35.4735 23.3264 35.4735 23.3264C36.247 24.3163 38.0877 24.1308 38.3352 22.9397C38.583 21.7484 37.6858 21.6092 37.6858 21.6092Z" fill="#F5F5F5"/>
<path d="M35.1337 18.7626C34.6735 18.4941 33.8497 18.2676 33.5713 18.8863C33.2929 19.5051 32.9835 20.1238 32.0244 20.0929C31.0653 20.0619 30.6321 20.8817 29.967 20.6498C29.967 20.6498 30.5857 20.4487 30.7096 20.1548C30.8333 19.8608 31.3283 19.3194 31.3283 19.3194L31.2665 18.7625C31.2665 18.7625 30.1218 18.8242 29.7814 19.1491C29.4411 19.474 28.1572 18.8708 28.1572 18.8708L28.312 17.525C28.312 17.525 29.302 16.0091 30.6788 16.1174C32.0556 16.2257 32.2876 15.8698 32.9527 15.9163C33.618 15.9628 33.9582 16.6434 34.6697 16.7981C35.3812 16.9528 36.8044 16.6588 36.99 17.092C37.1757 17.5251 36.6342 17.6953 36.495 18.2985C36.3557 18.9018 36.0618 19.3041 35.1337 18.7626Z" fill="#F5F5F5"/>
<path d="M31.1119 18.375C31.1119 18.375 30.4467 18.8236 29.8898 18.6379C29.3329 18.4522 28.8379 18.5142 28.2656 18.6997C28.2656 18.6997 29.3176 18.576 29.7507 18.9781C30.1838 19.3803 31.2821 19.1174 31.3595 18.9472L31.1119 18.375Z" fill="#FFF5DC"/>
<path d="M31.4523 19.4119C31.4523 19.4119 30.8026 19.8761 30.153 19.7522C29.5033 19.6285 28.9155 19.8915 28.9155 19.8915C28.9155 19.8915 29.395 19.3655 30.0447 19.4584C30.6944 19.5512 30.9264 18.917 30.9264 18.917L31.3596 18.9479L31.4523 19.4119Z" fill="#FFF5DC"/>
<path d="M31.9782 19.7064C32.4567 19.7064 32.8446 19.3185 32.8446 18.84C32.8446 18.3615 32.4567 17.9736 31.9782 17.9736C31.4997 17.9736 31.1118 18.3615 31.1118 18.84C31.1118 19.3185 31.4997 19.7064 31.9782 19.7064Z" fill="#FFF5DC"/>
<path d="M31.4677 18.1893C31.4677 18.1893 31.1273 17.7562 30.2766 17.9264C29.4258 18.0965 29.2246 17.7871 29.2246 17.7871C29.2246 17.7871 29.6268 18.4059 30.261 18.3285C30.8953 18.2512 31.1582 18.6844 31.1582 18.6844L31.4677 18.1893Z" fill="#FFF5DC"/>
<path d="M34.3298 17.1065C34.4063 17.0011 34.5025 16.9006 34.6339 16.8242C34.7115 16.7791 34.7913 16.7505 34.8703 16.7271C34.8878 16.6096 34.8706 16.483 34.8036 16.3679C34.6574 16.1169 34.3534 16.0216 34.1245 16.155C33.8957 16.2883 33.8287 16.5999 33.9749 16.8508C34.057 16.9917 34.1894 17.0765 34.3298 17.1065Z" fill="#FFF5DC"/>
<path d="M33.57 18.1031C33.6136 17.9804 33.6773 17.8569 33.7817 17.7462C33.8433 17.681 33.9118 17.6312 33.9808 17.5862C33.9644 17.4687 33.9121 17.352 33.8152 17.2606C33.604 17.0612 33.2853 17.0558 33.1036 17.2484C32.9218 17.4409 32.9457 17.7587 33.157 17.958C33.2759 18.0703 33.4268 18.1143 33.57 18.1031Z" fill="#FFF5DC"/>
</g>
<defs>
<clipPath id="clip0_106_20415">
<rect width="50" height="50" fill="white"/>
</clipPath>
</defs>
</svg>
