<svg width="50" height="50" viewBox="0 0 50 50" fill="none" xmlns="http://www.w3.org/2000/svg">
<g clip-path="url(#clip0_106_20351)">
<path d="M0 30.46H49.9999V40.5174C49.9999 40.9934 49.6139 41.3795 49.1378 41.3795H0.862108C0.386034 41.3795 0 40.9934 0 40.5174V30.46Z" fill="#73AF00"/>
<path d="M0.862108 8.62109H49.1379C49.614 8.62109 50 9.00713 50 9.4832V19.5406H0V9.4832C0 9.00713 0.386034 8.62109 0.862108 8.62109Z" fill="#FF4B55"/>
<path d="M49.9999 19.54H0V30.459H49.9999V19.54Z" fill="#FFE15A"/>
<path d="M23.8867 20.1127C23.8867 20.1127 23.8645 20.1404 23.8229 20.1925C23.7882 20.2405 23.7362 20.3143 23.6794 20.4126C23.5675 20.6078 23.4502 20.9104 23.4469 21.2712C23.4458 21.4471 23.4821 21.6606 23.5421 21.8304C23.6071 22.0179 23.715 22.1972 23.8514 22.3574C23.988 22.519 24.1706 22.6436 24.3658 22.7356C24.4626 22.7847 24.5688 22.813 24.6742 22.8389C24.7264 22.8549 24.7821 22.8556 24.8357 22.8662C24.8627 22.8713 24.8906 22.869 24.9178 22.8712L24.959 22.873L24.9796 22.8741L24.9899 22.8747L24.9951 22.875L24.9976 22.8751C24.9893 22.8754 25.0198 22.8747 24.9796 22.8758C25.0464 22.8719 25.1275 22.8714 25.1826 22.8646C25.2306 22.8534 25.2711 22.8554 25.3261 22.839C25.4316 22.8131 25.5378 22.7848 25.6345 22.7357C25.8296 22.6437 26.0123 22.5191 26.1489 22.3575C26.2853 22.1973 26.3932 22.018 26.4583 21.8305C26.5206 21.6398 26.5539 21.4573 26.5534 21.2704C26.5503 20.9112 26.4329 20.6075 26.3211 20.4125C26.2646 20.3146 26.2124 20.2403 26.1752 20.1902C26.1365 20.1409 26.1159 20.1144 26.1159 20.1144L26.1107 20.1079C26.0735 20.0604 26.0819 19.992 26.1294 19.9548C26.1669 19.9255 26.2176 19.9246 26.2554 19.9488C26.2554 19.9488 26.2873 19.9692 26.3469 20.0074C26.4034 20.0498 26.4909 20.1097 26.5851 20.2065C26.7743 20.3938 27.0198 20.7274 27.1084 21.2122C27.1522 21.4442 27.157 21.7249 27.0965 22.0008C27.0379 22.2795 26.9191 22.5677 26.7272 22.8198C26.5387 23.0731 26.2855 23.2971 25.9844 23.4482C25.8359 23.5274 25.6743 23.5849 25.5085 23.625C25.429 23.6483 25.3281 23.658 25.2382 23.6721C25.1541 23.6814 25.0942 23.6816 25.0209 23.6868L24.9923 23.6869L24.9843 23.6865L24.9683 23.6857L24.9363 23.6841L24.8721 23.6806C24.8295 23.6772 24.7866 23.6778 24.7443 23.6705C24.66 23.6556 24.5743 23.6487 24.4921 23.625C24.3262 23.585 24.1645 23.5274 24.0161 23.4482C23.715 23.2971 23.4618 23.073 23.2733 22.8198C23.0815 22.5676 22.9627 22.2794 22.904 22.0008C22.8413 21.7039 22.8491 21.4543 22.8922 21.2113C22.9806 20.728 23.2263 20.3932 23.4154 20.2063C23.5092 20.1098 23.597 20.0494 23.6559 20.0051C23.7126 19.9695 23.7428 19.9505 23.7428 19.9505C23.7942 19.9182 23.862 19.9337 23.8942 19.985C23.9196 20.0259 23.915 20.0771 23.8867 20.1127Z" fill="#73AF00"/>
<path d="M24.7834 28.6973V30.0616C24.7834 30.1978 24.6188 30.2659 24.5227 30.1697L24.4476 30.0946C24.3852 30.0322 24.3501 29.9477 24.3501 29.8595V28.6973H24.7834Z" fill="#FF4B55"/>
<path d="M24.1338 28.4814V29.4718C24.1338 29.5312 24.1575 29.5884 24.1997 29.6305L24.3509 29.7813V28.4814H24.1338Z" fill="#FFE15A"/>
<path d="M23.917 28.4814V29.0129C23.917 29.0888 23.9472 29.1615 24.0009 29.2151L24.1341 29.348V28.4814H23.917Z" fill="#73AF00"/>
<path d="M25.2168 28.6973V30.0616C25.2168 30.1978 25.3813 30.2659 25.4775 30.1697L25.5526 30.0946C25.615 30.0322 25.6501 29.9477 25.6501 29.8595V28.6973H25.2168Z" fill="#FF4B55"/>
<path d="M25.8671 28.4814V29.4718C25.8671 29.5312 25.8434 29.5884 25.8012 29.6305L25.6499 29.7813V28.4814H25.8671Z" fill="#FFE15A"/>
<path d="M26.0839 28.4814V29.0129C26.0839 29.0888 26.0536 29.1615 26 29.2151L25.8667 29.348V28.4814H26.0839Z" fill="#73AF00"/>
<path d="M26.0832 24.5818L28.4663 22.8486V26.4129C28.4663 27.4357 27.6371 28.2648 26.6144 28.2648C26.2673 28.2648 25.9271 28.1673 25.6328 27.9834L24.3501 27.1816V24.5518L26.0832 24.5818Z" fill="#FF4B55"/>
<path d="M27.5998 23.4785V25.9792C27.5998 27.002 26.7706 27.8311 25.7479 27.8311C25.594 27.8311 25.4425 27.809 25.2947 27.7716L24.3501 27.1811V24.5513L26.0833 24.5813L27.5998 23.4785Z" fill="#FFE15A"/>
<path d="M26.9499 23.9512V25.5655C26.9499 26.5884 26.1207 27.4175 25.098 27.4175C24.9441 27.4175 24.7925 27.3953 24.6448 27.3579L24.3501 27.1737V24.5514L26.0833 24.5814L26.9499 23.9512Z" fill="#73AF00"/>
<path d="M28.5963 22.458L29.5496 21.9814L28.8563 22.8479H28.4663L28.5963 22.458Z" fill="#F5F5F5"/>
<path d="M27.383 25.6648L29.7661 23.9316V27.4959C29.7661 28.5187 28.9369 29.3478 27.9142 29.3478C27.5671 29.3478 27.2269 29.2503 26.9326 29.0664L25.6499 28.2646V25.6349L27.383 25.6648Z" fill="#FF4B55"/>
<path d="M28.2497 25.0342V26.6485C28.2497 27.6714 27.4205 28.5005 26.3978 28.5005C26.2439 28.5005 26.0924 28.4783 25.9446 28.4409L25.6499 28.2567V25.6344L27.3831 25.6645L28.2497 25.0342Z" fill="#73AF00"/>
<path d="M29.8961 23.5411L30.8494 23.0645L30.1561 23.9311H29.7661L29.8961 23.5411Z" fill="#F5F5F5"/>
<path d="M26.7331 25.2312L29.1162 23.498V27.0623C29.1162 28.0851 28.287 28.9142 27.2643 28.9142C26.9172 28.9142 26.577 28.8167 26.2827 28.6328L25 27.831V25.2012L26.7331 25.2312Z" fill="#FF4B55"/>
<path d="M28.2498 24.1279V26.6286C28.2498 27.6515 27.4206 28.4806 26.3978 28.4806C26.244 28.4806 26.0925 28.4584 25.9447 28.421L25 27.8307V25.2008L26.7332 25.2309L28.2498 24.1279Z" fill="#FFE15A"/>
<path d="M27.5998 24.6016V26.2159C27.5998 27.2388 26.7706 28.0679 25.7479 28.0679C25.594 28.0679 25.4425 28.0457 25.2947 28.0083L25 27.8242V25.2019L26.7332 25.2319L27.5998 24.6016Z" fill="#73AF00"/>
<path d="M29.2467 23.1085L30.1999 22.6318L29.5065 23.4984H29.1167L29.2467 23.1085Z" fill="#F5F5F5"/>
<path d="M23.9168 24.5818L21.5337 22.8486V26.4129C21.5337 27.4357 22.3629 28.2648 23.3856 28.2648C23.7327 28.2648 24.0728 28.1673 24.3672 27.9834L25.6499 27.1816V24.5518L23.9168 24.5818Z" fill="#FF4B55"/>
<path d="M22.4004 23.4785V25.9792C22.4004 27.002 23.2296 27.8311 24.2523 27.8311C24.4061 27.8311 24.5577 27.809 24.7055 27.7716L25.6501 27.1811V24.5513L23.9169 24.5813L22.4004 23.4785Z" fill="#FFE15A"/>
<path d="M23.0503 23.9512V25.5655C23.0503 26.5884 23.8795 27.4175 24.9022 27.4175C25.0561 27.4175 25.2077 27.3953 25.3554 27.3579L25.6501 27.1737V24.5514L23.9169 24.5814L23.0503 23.9512Z" fill="#73AF00"/>
<path d="M21.4039 22.458L20.4507 21.9814L21.144 22.8479H21.5339L21.4039 22.458Z" fill="#F5F5F5"/>
<path d="M22.617 25.6648L20.2339 23.9316V27.4959C20.2339 28.5187 21.0631 29.3478 22.0858 29.3478C22.4329 29.3478 22.773 29.2503 23.0674 29.0664L24.3501 28.2646V25.6349L22.617 25.6648Z" fill="#FF4B55"/>
<path d="M21.7505 25.0342V26.6485C21.7505 27.6714 22.5797 28.5005 23.6024 28.5005C23.7562 28.5005 23.9078 28.4783 24.0556 28.4409L24.3503 28.2567V25.6344L22.6171 25.6645L21.7505 25.0342Z" fill="#73AF00"/>
<path d="M20.1036 23.5411L19.1504 23.0645L19.8437 23.9311H20.2336L20.1036 23.5411Z" fill="#F5F5F5"/>
<path d="M23.2669 25.2312L20.8838 23.498V27.0623C20.8838 28.0851 21.713 28.9142 22.7357 28.9142C23.0828 28.9142 23.4229 28.8167 23.7173 28.6328L25 27.831V25.2012L23.2669 25.2312Z" fill="#FF4B55"/>
<path d="M21.7505 24.1279V26.6286C21.7505 27.6515 22.5797 28.4806 23.6024 28.4806C23.7562 28.4806 23.9078 28.4584 24.0556 28.421L25.0002 27.8306V25.2007L23.267 25.2308L21.7505 24.1279Z" fill="#FFE15A"/>
<path d="M22.4004 24.6016V26.2159C22.4004 27.2388 23.2296 28.0679 24.2523 28.0679C24.4062 28.0679 24.5577 28.0457 24.7055 28.0083L25.0002 27.8241V25.2018L23.267 25.2318L22.4004 24.6016Z" fill="#73AF00"/>
<path d="M22.163 28.452L21.8774 28.1664C21.7042 27.9933 21.7088 27.7109 21.8877 27.5436L26.616 23.1006L27.2288 23.7134L22.7858 28.4416C22.6185 28.6206 22.3363 28.6254 22.163 28.452Z" fill="#FFBE5A"/>
<path d="M22.0208 28.526C22.1404 28.526 22.2374 28.429 22.2374 28.3094C22.2374 28.1897 22.1404 28.0928 22.0208 28.0928C21.9012 28.0928 21.8042 28.1897 21.8042 28.3094C21.8042 28.429 21.9012 28.526 22.0208 28.526Z" fill="#FFBE5A"/>
<path d="M27.0757 23.2546C26.9065 23.0854 26.7008 23.0168 26.6162 23.1014C26.5316 23.186 26.6002 23.3917 26.7694 23.5609C26.9385 23.73 27.1443 23.7986 27.2288 23.714C27.3134 23.6294 27.2449 23.4237 27.0757 23.2546Z" fill="#F5F5F5"/>
<path d="M27.8372 28.452L28.1228 28.1664C28.296 27.9933 28.2914 27.7109 28.1125 27.5436L23.3843 23.1006L22.7715 23.7134L27.2144 28.4416C27.3818 28.6206 27.6641 28.6254 27.8372 28.452Z" fill="#FFBE5A"/>
<path d="M27.9798 28.526C28.0994 28.526 28.1964 28.429 28.1964 28.3094C28.1964 28.1897 28.0994 28.0928 27.9798 28.0928C27.8602 28.0928 27.7632 28.1897 27.7632 28.3094C27.7632 28.429 27.8602 28.526 27.9798 28.526Z" fill="#FFBE5A"/>
<path d="M23.2318 23.5615C23.401 23.3923 23.4695 23.1866 23.3849 23.102C23.3003 23.0175 23.0946 23.086 22.9255 23.2552C22.7563 23.4244 22.6877 23.6301 22.7723 23.7147C22.8569 23.7993 23.0626 23.7307 23.2318 23.5615Z" fill="#F5F5F5"/>
<path d="M25.0001 28.2654C26.0581 28.2654 26.9157 27.247 26.9157 25.9906C26.9157 24.7343 26.0581 23.7158 25.0001 23.7158C23.9421 23.7158 23.0845 24.7343 23.0845 25.9906C23.0845 27.247 23.9421 28.2654 25.0001 28.2654Z" fill="#FFBE5A"/>
<path d="M25.0001 23.9316L25.1018 24.373L25.335 23.9847L25.2952 24.4358L25.6369 24.1386L25.4598 24.5554L25.8766 24.3782L25.5792 24.7199L26.0304 24.6802L25.6421 24.9133L26.0834 25.0149L25.6421 25.1166L26.0304 25.3497L25.5792 25.3101L25.8766 25.6516L25.4598 25.4745L25.6369 25.8913L25.2952 25.594L25.335 26.0451L25.1018 25.6568L25.0001 26.0981L24.8985 25.6568L24.6654 26.0451L24.7051 25.594L24.3635 25.8913L24.5405 25.4745L24.1238 25.6516L24.4211 25.3101L23.97 25.3497L24.3582 25.1166L23.917 25.0149L24.3582 24.9133L23.97 24.6802L24.4211 24.7199L24.1238 24.3782L24.5405 24.5554L24.3635 24.1386L24.7051 24.4358L24.6654 23.9847L24.8985 24.373L25.0001 23.9316Z" fill="#FF4B55"/>
<path d="M27.3967 25.9487C27.3967 25.9487 26.679 26.1382 26.2119 25.7455C25.6928 25.3091 25.3035 25.1031 25.1367 25.0257C25.0796 24.9993 25.0157 24.9993 24.9585 25.0256C24.839 25.0808 24.619 25.1952 24.4245 25.3664C24.1401 25.617 23.2668 26.1112 23.0908 26.1112V27.1882L24.4651 28.3792L26.09 28.3318L27.3967 25.9487Z" fill="#73AF00"/>
<path d="M25.0003 28.8057C23.6265 28.8057 22.5088 27.5422 22.5088 25.9893C22.5088 24.4363 23.6264 23.1729 25.0003 23.1729C26.3742 23.1729 27.4918 24.4363 27.4918 25.9893C27.4918 27.5422 26.3741 28.8057 25.0003 28.8057ZM25.0003 23.8228C23.9849 23.8228 23.1588 24.7947 23.1588 25.9893C23.1588 27.1838 23.9849 28.1558 25.0003 28.1558C26.0157 28.1558 26.8418 27.1838 26.8418 25.9893C26.8418 24.7947 26.0157 23.8228 25.0003 23.8228Z" fill="#3CC8FF"/>
<path d="M24.6274 28.217L24.6752 28.3601L24.8261 28.3613C24.8456 28.3614 24.8536 28.3864 24.838 28.3979L24.7167 28.4876L24.7622 28.6314C24.7682 28.6501 24.7469 28.6655 24.731 28.6541L24.6082 28.5664L24.4854 28.6541C24.4696 28.6654 24.4483 28.65 24.4542 28.6314L24.4997 28.4876L24.3784 28.3979C24.3627 28.3863 24.3708 28.3614 24.3903 28.3613L24.5412 28.3601L24.589 28.217C24.5951 28.1985 24.6213 28.1985 24.6274 28.217Z" fill="#FFBE5A"/>
<path d="M23.9507 27.926L23.9984 28.0691L24.1493 28.0703C24.1688 28.0704 24.1768 28.0954 24.1612 28.1069L24.0399 28.1965L24.0854 28.3404C24.0914 28.359 24.0701 28.3745 24.0542 28.363L23.9314 28.2753L23.8087 28.363C23.7929 28.3744 23.7716 28.3589 23.7774 28.3404L23.8229 28.1965L23.7017 28.1069C23.6859 28.0953 23.694 28.0704 23.7136 28.0703L23.8644 28.0691L23.9122 27.926C23.9184 27.9075 23.9445 27.9075 23.9507 27.926Z" fill="#FFBE5A"/>
<path d="M23.4067 27.4319L23.4545 27.575L23.6054 27.5761C23.6249 27.5762 23.6329 27.6012 23.6173 27.6127L23.496 27.7024L23.5415 27.8462C23.5475 27.8649 23.5262 27.8803 23.5102 27.8689L23.3875 27.7812L23.2647 27.8689C23.2489 27.8802 23.2276 27.8648 23.2335 27.8462L23.279 27.7024L23.1577 27.6127C23.142 27.6011 23.1501 27.5762 23.1696 27.5761L23.3205 27.575L23.3683 27.4319C23.3744 27.4133 23.4006 27.4133 23.4067 27.4319Z" fill="#FFBE5A"/>
<path d="M23.0361 26.7737L23.0839 26.9167L23.2348 26.9179C23.2543 26.918 23.2623 26.943 23.2467 26.9545L23.1254 27.0442L23.1709 27.188C23.1769 27.2067 23.1556 27.2221 23.1396 27.2107L23.0169 27.123L22.8941 27.2107C22.8783 27.222 22.857 27.2066 22.8629 27.188L22.9084 27.0442L22.7871 26.9545C22.7714 26.9429 22.7795 26.918 22.799 26.9179L22.9499 26.9167L22.9977 26.7737C23.0038 26.7551 23.03 26.7551 23.0361 26.7737Z" fill="#FFBE5A"/>
<path d="M22.8711 26.009L22.9188 26.1521L23.0697 26.1533C23.0893 26.1534 23.0973 26.1784 23.0816 26.1899L22.9603 26.2795L23.0059 26.4234C23.0118 26.442 22.9905 26.4575 22.9746 26.446L22.8519 26.3583L22.7291 26.446C22.7133 26.4574 22.692 26.4419 22.6978 26.4234L22.7434 26.2795L22.6221 26.1899C22.6063 26.1783 22.6144 26.1534 22.634 26.1533L22.7849 26.1521L22.8326 26.009C22.8387 25.9905 22.8649 25.9905 22.8711 26.009Z" fill="#FFBE5A"/>
<path d="M25.3731 28.217L25.3254 28.3601L25.1745 28.3613C25.155 28.3614 25.1469 28.3864 25.1626 28.3979L25.2839 28.4876L25.2384 28.6314C25.2324 28.6501 25.2537 28.6655 25.2696 28.6541L25.3924 28.5664L25.5151 28.6541C25.5309 28.6654 25.5522 28.65 25.5464 28.6314L25.5009 28.4876L25.6222 28.3979C25.6379 28.3863 25.6298 28.3614 25.6102 28.3613L25.4594 28.3601L25.4116 28.217C25.4055 28.1985 25.3793 28.1985 25.3731 28.217Z" fill="#FFBE5A"/>
<path d="M26.0503 27.926L26.0026 28.0691L25.8517 28.0703C25.8322 28.0704 25.8242 28.0954 25.8398 28.1069L25.9611 28.1965L25.9156 28.3404C25.9096 28.359 25.9309 28.3745 25.9468 28.363L26.0696 28.2753L26.1923 28.363C26.2082 28.3744 26.2294 28.3589 26.2236 28.3404L26.1781 28.1965L26.2994 28.1069C26.3151 28.0953 26.307 28.0704 26.2874 28.0703L26.1366 28.0691L26.0888 27.926C26.0827 27.9075 26.0565 27.9075 26.0503 27.926Z" fill="#FFBE5A"/>
<path d="M26.5943 27.4319L26.5465 27.575L26.3957 27.5761C26.3761 27.5762 26.3681 27.6012 26.3837 27.6127L26.505 27.7024L26.4595 27.8462C26.4536 27.8649 26.4749 27.8803 26.4908 27.8689L26.6135 27.7812L26.7363 27.8689C26.7521 27.8802 26.7734 27.8648 26.7675 27.8462L26.722 27.7024L26.8433 27.6127C26.859 27.6011 26.8509 27.5762 26.8314 27.5761L26.6805 27.575L26.6328 27.4319C26.6267 27.4133 26.6004 27.4133 26.5943 27.4319Z" fill="#FFBE5A"/>
<path d="M26.9649 26.7737L26.9171 26.9167L26.7663 26.9179C26.7467 26.918 26.7387 26.943 26.7543 26.9545L26.8756 27.0442L26.8301 27.188C26.8242 27.2067 26.8455 27.2221 26.8614 27.2107L26.9841 27.123L27.1069 27.2107C27.1227 27.222 27.144 27.2066 27.1381 27.188L27.0926 27.0442L27.2139 26.9545C27.2296 26.9429 27.2215 26.918 27.202 26.9179L27.0511 26.9167L27.0034 26.7737C26.9972 26.7551 26.971 26.7551 26.9649 26.7737Z" fill="#FFBE5A"/>
<path d="M27.129 26.009L27.0812 26.1521L26.9303 26.1533C26.9108 26.1534 26.9028 26.1784 26.9184 26.1899L27.0397 26.2795L26.9942 26.4234C26.9882 26.442 27.0095 26.4575 27.0254 26.446L27.1482 26.3583L27.2709 26.446C27.2868 26.4574 27.3081 26.4419 27.3022 26.4234L27.2567 26.2795L27.378 26.1899C27.3937 26.1783 27.3856 26.1534 27.3661 26.1533L27.2152 26.1521L27.1674 26.009C27.1614 25.9905 27.1352 25.9905 27.129 26.009Z" fill="#FFBE5A"/>
<path d="M24.0589 27.3787L24.1309 27.723H24.1619V27.4881C24.1619 27.4881 24.2131 27.6519 24.2855 27.723H24.3441C24.3161 27.687 24.2657 27.6123 24.2657 27.5349C24.2657 27.4283 24.3505 27.4138 24.3505 27.2998H24.4231V27.7229H24.4656L24.5443 27.3459C24.5443 27.3459 24.6092 27.5817 24.7312 27.7229H24.7855C24.7464 27.6654 24.665 27.517 24.68 27.2926C24.68 27.2926 24.7963 27.2344 24.7963 27.0769V26.8529C24.7963 26.811 24.8304 26.777 24.8723 26.777H24.9245C24.9245 26.777 24.8468 26.6262 24.7637 26.6043V26.5098L24.7011 26.6044C24.6413 26.6173 24.6061 26.6726 24.6061 26.7317V26.8682C24.6061 26.9101 24.5721 26.9441 24.5301 26.9441H24.2585C24.1781 26.9441 24.0493 27.0245 24.0493 27.1275C24.0493 27.2306 24.1266 27.2981 24.1266 27.2981L24.0589 27.3787Z" fill="#F5F5F5"/>
<path d="M25.2756 27.0352H25.2507C25.0538 27.0459 24.9438 27.1754 24.9438 27.1754L25.1436 27.3751V27.7509H25.3825V27.3751L25.5822 27.1754C25.5823 27.1753 25.4725 27.0459 25.2756 27.0352Z" fill="#FFBE5A"/>
<path d="M25.7686 26.4209H25.6963V27.7523H25.7686V26.4209Z" fill="#F5F5F5"/>
<path d="M25.7343 26.4109L25.3449 26.8815C25.3449 26.8815 25.2941 26.6547 25.521 26.4313L25.02 26.5228C25.02 26.5228 25.1724 26.2384 25.5718 26.2688L25.1622 25.927C25.1622 25.927 25.5143 25.9067 25.6937 26.1707C25.6937 26.1707 25.7951 25.8661 26.0795 25.8525L25.8448 26.2091C25.8448 26.2091 26.0795 26.0895 26.4045 26.1944L25.9204 26.3231C25.9204 26.3231 26.1912 26.3502 26.3029 26.7463L25.8832 26.4586C25.8832 26.4586 26.0119 26.6109 25.9645 26.9088L25.7343 26.4109Z" fill="#F5F5F5"/>
<path d="M20.7541 23.1085L19.8008 22.6318L20.4941 23.4984H20.8841L20.7541 23.1085Z" fill="#F5F5F5"/>
<path d="M25.6779 22.5564L28.2499 21.765L26.8846 21.2531C26.6414 21.1618 26.3837 21.1152 26.1239 21.1152H25.8668C25.7472 21.1152 25.6502 21.2122 25.6502 21.3318V21.5484H25.0001H24.3502V21.3318C24.3502 21.2122 24.2532 21.1152 24.1336 21.1152H23.8765C23.6167 21.1152 23.359 21.162 23.1158 21.2531L21.7505 21.765L24.3225 22.5564C24.4504 22.5958 24.5123 22.7406 24.4525 22.8604L24.1336 23.4982H25.8668L25.5478 22.8604C25.488 22.7407 25.5499 22.5959 25.6779 22.5564Z" fill="#825546"/>
<path d="M25.0001 22.1975C25.2393 22.1975 25.4333 22.0035 25.4333 21.7643C25.4333 21.525 25.2393 21.3311 25.0001 21.3311C24.7608 21.3311 24.5669 21.525 24.5669 21.7643C24.5669 22.0035 24.7608 22.1975 25.0001 22.1975Z" fill="#F5F5F5"/>
<path d="M25.217 21.7655C25.217 21.8852 25.12 21.9821 25.0004 21.9821H24.1338L24.5036 21.6123C24.5442 21.5717 24.5993 21.5488 24.6568 21.5488H25.0003C25.12 21.5489 25.217 21.6459 25.217 21.7655Z" fill="#FFBE5A"/>
</g>
<defs>
<clipPath id="clip0_106_20351">
<rect width="50" height="50" fill="white"/>
</clipPath>
</defs>
</svg>
