<svg width="50" height="50" viewBox="0 0 50 50" fill="none" xmlns="http://www.w3.org/2000/svg">
<g clip-path="url(#clip0_106_20345)">
<path d="M49.1373 8.62109H0.861619C0.385546 8.62109 -0.000488281 9.00713 -0.000488281 9.4832V40.5175C-0.000488281 40.9936 0.385546 41.3796 0.861619 41.3796H49.1374C49.6135 41.3796 49.9995 40.9936 49.9995 40.5175V9.4832C49.9994 9.00713 49.6134 8.62109 49.1373 8.62109Z" fill="#41479B"/>
<path d="M0.31748 41.1713L49.6814 8.82949C49.5319 8.70518 49.3469 8.62109 49.1373 8.62109H0.861619C0.385546 8.62109 -0.000488281 9.00713 -0.000488281 9.4832V40.5175C-0.000488281 40.784 0.127539 41.0132 0.31748 41.1713Z" fill="#F5F5F5"/>
<path d="M21.9505 8.62109H0.861619C0.385546 8.62109 -0.000488281 9.00713 -0.000488281 9.4832V23.0029L21.9505 8.62109Z" fill="#FFE15A"/>
<path d="M19.7525 22.377C19.3613 19.7661 17.3024 17.7071 14.6914 17.3159L13.7923 15.5176L12.8932 17.3159C10.2822 17.7071 8.22334 19.7659 7.83203 22.377L6.03369 23.2762L7.83203 24.1753C8.22324 26.7862 10.2821 28.8452 12.8932 29.2364L13.7923 31.0347L14.6914 29.2364C17.3023 28.8452 19.3612 26.7864 19.7525 24.1753L21.5508 23.2762L19.7525 22.377ZM13.7923 28.4485C10.9356 28.4485 8.61992 26.1328 8.61992 23.2762C8.61992 20.4195 10.9356 18.1038 13.7923 18.1038C16.6489 18.1038 18.9646 20.4195 18.9646 23.2762C18.9646 26.1328 16.6489 28.4485 13.7923 28.4485Z" fill="#464655"/>
<path d="M13.7922 19.9609L14.7204 21.6682L16.663 21.6184L15.6485 23.2758L16.663 24.9332L14.7204 24.8834L13.7922 26.5907L12.8641 24.8834L10.9214 24.9332L11.9358 23.2758L10.9214 21.6184L12.8641 21.6682L13.7922 19.9609Z" fill="#FF4B55"/>
</g>
<defs>
<clipPath id="clip0_106_20345">
<rect width="50" height="50" fill="white"/>
</clipPath>
</defs>
</svg>
