<svg width="50" height="50" viewBox="0 0 50 50" fill="none" xmlns="http://www.w3.org/2000/svg">
<g clip-path="url(#clip0_106_20331)">
<path d="M49.1383 41.3796H0.862596C0.386523 41.3796 0.000488281 40.9936 0.000488281 40.5175V9.4832C0.000488281 9.00713 0.386523 8.62109 0.862596 8.62109H49.1384C49.6145 8.62109 50.0005 9.00713 50.0005 9.4832V40.5175C50.0004 40.9937 49.6144 41.3796 49.1383 41.3796Z" fill="#41479B"/>
<path d="M43.1036 8.62109V41.3796L10.3452 8.62109H43.1036Z" fill="#FFE15A"/>
<path d="M20.2498 20.8179L20.7467 22.3076L22.3169 22.3198C22.4385 22.3208 22.4889 22.476 22.3911 22.5482L21.1278 23.4811L21.6015 24.9783C21.6383 25.0942 21.5061 25.1902 21.4071 25.1195L20.1296 24.2063L18.852 25.1195C18.7531 25.1902 18.621 25.0943 18.6576 24.9783L19.1313 23.4811L17.868 22.5482C17.7702 22.476 17.8206 22.3208 17.9423 22.3198L19.5125 22.3076L20.0094 20.8179C20.048 20.7026 20.2112 20.7026 20.2498 20.8179Z" fill="#F5F5F5"/>
<path d="M16.658 17.2262L17.1549 18.7159L18.7251 18.7281C18.8467 18.729 18.8971 18.8843 18.7993 18.9565L17.536 19.8894L18.0097 21.3866C18.0465 21.5025 17.9143 21.5985 17.8153 21.5278L16.5378 20.6146L15.2602 21.5278C15.1613 21.5986 15.0292 21.5026 15.0658 21.3866L15.5395 19.8894L14.2763 18.9565C14.1784 18.8842 14.2288 18.729 14.3505 18.7281L15.9207 18.7159L16.4176 17.2262C16.4562 17.1108 16.6195 17.1108 16.658 17.2262Z" fill="#F5F5F5"/>
<path d="M13.0657 13.6344L13.5626 15.1241L15.1328 15.1363C15.2545 15.1373 15.3049 15.2924 15.207 15.3647L13.9437 16.2976L14.4175 17.7948C14.4542 17.9107 14.322 18.0067 14.223 17.936L12.9455 17.0228L11.6679 17.936C11.569 18.0068 11.4369 17.9108 11.4735 17.7948L11.9472 16.2976L10.684 15.3647C10.5861 15.2924 10.6365 15.1373 10.7582 15.1363L12.3284 15.1241L12.8253 13.6344C12.8639 13.519 13.0272 13.519 13.0657 13.6344Z" fill="#F5F5F5"/>
<path d="M9.4738 10.0426L9.97068 11.5323L11.5409 11.5445C11.6626 11.5455 11.713 11.7006 11.6151 11.7729L10.3519 12.7057L10.8257 14.2029C10.8624 14.3188 10.7302 14.4148 10.6312 14.3441L9.35369 13.4309L8.07615 14.3441C7.97722 14.4148 7.8451 14.3189 7.88172 14.2029L8.35545 12.7057L7.09217 11.7729C6.99432 11.7006 7.04471 11.5455 7.16639 11.5445L8.7366 11.5323L9.23347 10.0426C9.27205 9.9272 9.43523 9.9272 9.4738 10.0426Z" fill="#F5F5F5"/>
<path d="M34.6174 35.1862L35.1142 36.6758L36.6844 36.688C36.8061 36.689 36.8565 36.8442 36.7587 36.9164L35.4954 37.8494L35.9691 39.3465C36.0058 39.4624 35.8737 39.5585 35.7748 39.4877L34.4972 38.5746L33.2197 39.4877C33.1208 39.5585 32.9887 39.4625 33.0253 39.3465L33.499 37.8494L32.2357 36.9164C32.1379 36.8442 32.1883 36.689 32.3099 36.688L33.8802 36.6758L34.377 35.1862C34.4156 35.0708 34.5789 35.0708 34.6174 35.1862Z" fill="#F5F5F5"/>
<path d="M31.0256 31.5944L31.5224 33.084L33.0926 33.0962C33.2143 33.0972 33.2647 33.2524 33.1669 33.3247L31.9036 34.2576L32.3773 35.7547C32.414 35.8706 32.2819 35.9667 32.183 35.8959L30.9054 34.9828L29.6279 35.8959C29.529 35.9666 29.3969 35.8707 29.4335 35.7547L29.9072 34.2576L28.6439 33.3247C28.5461 33.2524 28.5965 33.0972 28.7181 33.0962L30.2884 33.084L30.7852 31.5944C30.8238 31.479 30.9871 31.479 31.0256 31.5944Z" fill="#F5F5F5"/>
<path d="M27.4334 28.0025L27.9302 29.4922L29.5005 29.5044C29.6221 29.5053 29.6725 29.6605 29.5747 29.7328L28.3114 30.6657L28.7851 32.1629C28.8218 32.2788 28.6897 32.3749 28.5907 32.304L27.3132 31.3908L26.0356 32.304C25.9367 32.3747 25.8046 32.2788 25.8412 32.1629L26.3149 30.6657L25.0516 29.7328C24.9538 29.6605 25.0042 29.5053 25.1259 29.5044L26.6961 29.4922L27.1929 28.0025C27.2317 27.8872 27.3949 27.8872 27.4334 28.0025Z" fill="#F5F5F5"/>
<path d="M23.8416 24.4098L24.3385 25.8995L25.9087 25.9117C26.0303 25.9126 26.0807 26.0678 25.9829 26.1401L24.7196 27.073L25.1933 28.5702C25.2301 28.6861 25.0979 28.7822 24.9989 28.7114L23.7214 27.7982L22.4438 28.7114C22.3449 28.7821 22.2128 28.6862 22.2494 28.5702L22.7231 27.073L21.4598 26.1401C21.362 26.0678 21.4124 25.9126 21.5341 25.9117L23.1043 25.8995L23.6011 24.4098C23.6398 24.2944 23.8031 24.2944 23.8416 24.4098Z" fill="#F5F5F5"/>
<path d="M4.09619 8.62109L4.76318 9.11367L4.28945 10.6108C4.25283 10.7268 4.38486 10.8227 4.48389 10.7521L5.76133 9.83896L7.03886 10.7521C7.13779 10.8228 7.26992 10.7269 7.2332 10.6108L6.75957 9.11367L7.42685 8.62109H4.09619Z" fill="#F5F5F5"/>
<path d="M40.2764 40.2798L38.7062 40.2676L38.2094 38.778C38.171 38.6625 38.0077 38.6625 37.9692 38.778L37.4724 40.2676L35.9022 40.2798C35.7805 40.2808 35.7302 40.4361 35.828 40.5083L37.008 41.3794H39.1712L40.3511 40.5083C40.4485 40.436 40.3981 40.2807 40.2764 40.2798Z" fill="#F5F5F5"/>
</g>
<defs>
<clipPath id="clip0_106_20331">
<rect width="50" height="50" fill="white"/>
</clipPath>
</defs>
</svg>
