<svg width="50" height="50" viewBox="0 0 50 50" fill="none" xmlns="http://www.w3.org/2000/svg">
<g clip-path="url(#clip0_106_20308)">
<path d="M49.1383 41.3797H0.862596C0.386523 41.3797 0.000488281 40.9937 0.000488281 40.5176V9.4832C0.000488281 9.00713 0.386523 8.62109 0.862596 8.62109H49.1384C49.6145 8.62109 50.0005 9.00713 50.0005 9.4832V40.5176C50.0004 40.9938 49.6144 41.3797 49.1383 41.3797Z" fill="#73AF00"/>
<path d="M24.5524 13.2038L6.38288 24.2635C5.83103 24.5993 5.83103 25.4003 6.38288 25.7362L24.5524 36.796C24.8277 36.9635 25.1735 36.9635 25.4489 36.796L43.6185 25.7363C44.1703 25.4005 44.1703 24.5995 43.6185 24.2636L25.4489 13.2038C25.1736 13.0362 24.8277 13.0362 24.5524 13.2038Z" fill="#FFE15A"/>
<path d="M25.0005 31.8965C28.8093 31.8965 31.8969 28.8088 31.8969 25C31.8969 21.1912 28.8093 18.1035 25.0005 18.1035C21.1917 18.1035 18.104 21.1912 18.104 25C18.104 28.8088 21.1917 31.8965 25.0005 31.8965Z" fill="#41479B"/>
<path d="M19.0825 21.4718C18.7571 22.0165 18.5059 22.6085 18.3398 23.2372C22.163 22.9495 27.8185 24.019 31.4181 27.5119C31.6531 26.9121 31.8082 26.2733 31.8664 25.6054C28.1495 22.4772 23.0109 21.3648 19.0825 21.4718Z" fill="#F5F5F5"/>
<path d="M25.2857 27.3533L25.4692 27.9039L26.0496 27.9083C26.1247 27.9089 26.1559 28.0048 26.0955 28.0495L25.6286 28.3943L25.8037 28.9476C25.8264 29.0193 25.7447 29.0786 25.6837 29.0348L25.2115 28.6973L24.7394 29.0348C24.6782 29.0786 24.5967 29.0193 24.6193 28.9476L24.7944 28.3943L24.3276 28.0495C24.2671 28.0048 24.2983 27.9089 24.3734 27.9083L24.9537 27.9039L25.1373 27.3533C25.161 27.282 25.2618 27.282 25.2857 27.3533Z" fill="#F5F5F5"/>
<path d="M27.5415 28.778L27.6205 29.0149L27.8703 29.0168C27.9027 29.017 27.9161 29.0583 27.8901 29.0776L27.6891 29.2259L27.7644 29.4641C27.7742 29.4949 27.7391 29.5204 27.7127 29.5016L27.5095 29.3564L27.3063 29.5016C27.28 29.5204 27.2449 29.4949 27.2546 29.4641L27.3299 29.2259L27.1289 29.0776C27.103 29.0584 27.1163 29.0171 27.1487 29.0168L27.3985 29.0149L27.4775 28.778C27.4878 28.7472 27.5313 28.7472 27.5415 28.778Z" fill="#F5F5F5"/>
<path d="M24.3106 26.3072L24.3896 26.5441L24.6394 26.546C24.6717 26.5462 24.6852 26.5875 24.6591 26.6068L24.4581 26.7551L24.5334 26.9933C24.5432 27.0242 24.5081 27.0497 24.4818 27.0308L24.2786 26.8856L24.0753 27.0308C24.0491 27.0497 24.0139 27.0242 24.0237 26.9933L24.099 26.7551L23.898 26.6068C23.872 26.5876 23.8854 26.5463 23.9177 26.546L24.1675 26.5441L24.2465 26.3072C24.2569 26.2765 24.3003 26.2765 24.3106 26.3072Z" fill="#F5F5F5"/>
<path d="M19.9351 26.0201L20.0141 26.257L20.2639 26.2589C20.2962 26.2591 20.3097 26.3004 20.2836 26.3197L20.0827 26.468L20.1579 26.7062C20.1677 26.7371 20.1327 26.7625 20.1063 26.7437L19.9031 26.5985L19.6998 26.7437C19.6736 26.7625 19.6384 26.7371 19.6482 26.7062L19.7235 26.468L19.5225 26.3197C19.4965 26.3005 19.5099 26.2592 19.5422 26.2589L19.792 26.257L19.871 26.0201C19.8815 25.9894 19.9248 25.9894 19.9351 26.0201Z" fill="#F5F5F5"/>
<path d="M23.5955 28.6958L23.6745 28.9327L23.9243 28.9346C23.9566 28.9348 23.9701 28.9761 23.944 28.9954L23.7431 29.1437L23.8183 29.3819C23.8281 29.4128 23.7931 29.4383 23.7667 29.4194L23.5635 29.2742L23.3602 29.4194C23.334 29.4383 23.2988 29.4128 23.3086 29.3819L23.3839 29.1437L23.1829 28.9954C23.1569 28.9762 23.1703 28.9349 23.2026 28.9346L23.4524 28.9327L23.5314 28.6958C23.5419 28.6652 23.5853 28.6652 23.5955 28.6958Z" fill="#F5F5F5"/>
<path d="M21.5814 25.8548L21.6461 26.0485L21.8504 26.0502C21.8767 26.0504 21.8878 26.0842 21.8666 26.0999L21.7022 26.2212L21.7638 26.4159C21.7718 26.4411 21.7431 26.462 21.7215 26.4466L21.5553 26.3278L21.3891 26.4466C21.3675 26.462 21.3389 26.4411 21.3468 26.4159L21.4085 26.2212L21.2441 26.0999C21.2229 26.0842 21.2338 26.0504 21.2603 26.0502L21.4646 26.0485L21.5293 25.8548C21.5376 25.8297 21.573 25.8297 21.5814 25.8548Z" fill="#F5F5F5"/>
<path d="M27.7169 21.8546L27.7978 22.097L28.0533 22.099C28.0864 22.0992 28.1 22.1415 28.0734 22.1611L27.8679 22.3128L27.945 22.5565C27.955 22.588 27.919 22.6141 27.8921 22.5949L27.6842 22.4462L27.4763 22.5949C27.4494 22.6142 27.4135 22.5879 27.4235 22.5565L27.5005 22.3128L27.2951 22.1611C27.2684 22.1415 27.2822 22.0993 27.3152 22.099L27.5707 22.097L27.6515 21.8546C27.6621 21.8232 27.7065 21.8232 27.7169 21.8546Z" fill="#F5F5F5"/>
<path d="M20.2164 24.6692L20.2811 24.863L20.4854 24.8646C20.5117 24.8648 20.5228 24.8986 20.5016 24.9143L20.3372 25.0356L20.3988 25.2303C20.4068 25.2555 20.3781 25.2764 20.3566 25.261L20.1903 25.1423L20.0241 25.261C20.0026 25.2764 19.9739 25.2555 19.9818 25.2303L20.0435 25.0356L19.8791 24.9143C19.8579 24.8986 19.8688 24.8649 19.8953 24.8646L20.0996 24.863L20.1643 24.6692C20.1726 24.6441 20.208 24.6441 20.2164 24.6692Z" fill="#F5F5F5"/>
<path d="M21.2027 27.4005L21.3006 27.694L21.61 27.6964C21.65 27.6967 21.6666 27.7478 21.6344 27.7716L21.3855 27.9554L21.4788 28.2503C21.4909 28.2885 21.4475 28.3201 21.4149 28.2968L21.1631 28.1169L20.9113 28.2968C20.8788 28.32 20.8353 28.2885 20.8474 28.2503L20.9407 27.9554L20.6918 27.7716C20.6596 27.7478 20.6762 27.6967 20.7162 27.6964L21.0256 27.694L21.1235 27.4005C21.1364 27.3626 21.1901 27.3626 21.2027 27.4005Z" fill="#F5F5F5"/>
<path d="M28.7997 28.8392L28.8612 29.0239L29.0558 29.0254C29.081 29.0256 29.0915 29.0577 29.0712 29.0726L28.9147 29.1883L28.9734 29.3738C28.981 29.3978 28.9537 29.4177 28.9331 29.403L28.7748 29.2898L28.6164 29.403C28.5959 29.4177 28.5685 29.3978 28.576 29.3738L28.6347 29.1883L28.4782 29.0726C28.458 29.0577 28.4684 29.0256 28.4936 29.0254L28.6882 29.0239L28.7498 28.8392C28.7579 28.8153 28.7918 28.8153 28.7997 28.8392Z" fill="#F5F5F5"/>
<path d="M29.4805 27.4303L29.5595 27.6672L29.8093 27.6692C29.8416 27.6694 29.8551 27.7107 29.829 27.7299L29.6281 27.8782L29.7034 28.1164C29.7131 28.1473 29.6781 28.1728 29.6517 28.1539L29.4485 28.0087L29.2452 28.1539C29.219 28.1728 29.1838 28.1473 29.1936 28.1164L29.2689 27.8782L29.0679 27.7299C29.0419 27.7108 29.0553 27.6695 29.0876 27.6692L29.3374 27.6672L29.4164 27.4303C29.4268 27.3995 29.4702 27.3995 29.4805 27.4303Z" fill="#F5F5F5"/>
</g>
<defs>
<clipPath id="clip0_106_20308">
<rect width="50" height="50" fill="white"/>
</clipPath>
</defs>
</svg>
