<svg width="50" height="50" viewBox="0 0 50 50" fill="none" xmlns="http://www.w3.org/2000/svg">
<g clip-path="url(#clip0_106_20285)">
<path d="M49.9996 24.9995H0.00561523V9.48408C0.00561523 9.0081 0.39155 8.62207 0.86762 8.62207H49.1376C49.6135 8.62207 49.9996 9.00801 49.9996 9.48408V24.9994V24.9995Z" fill="#41479B"/>
<path d="M0.00537109 25H49.9994V40.5153C49.9994 40.9913 49.6135 41.3773 49.1374 41.3773H0.867376C0.391403 41.3773 0.00537109 40.9914 0.00537109 40.5153V25Z" fill="#F5F5F5"/>
<path d="M49.1382 8.62305H43.9665L27.9978 13.8542V8.62305H22.0088V13.8542L6.03994 8.62305H0.868108C0.392136 8.62305 0.00610352 9.00898 0.00610352 9.48505V10.1688L13.7065 14.6569H0.00620117V18.9667H13.7066L0.00620117 23.4547V25.0004H6.03994L22.0087 19.7692V25.0004H27.9976V19.7692L43.9663 25.0004H50V23.4547L36.2997 18.9666H50V14.6568H36.2997L50 10.1687V9.48495C50.0001 9.00898 49.6142 8.62305 49.1382 8.62305Z" fill="#F5F5F5"/>
<path d="M49.9996 15.5186H0.00585938V18.1045H49.9996V15.5186Z" fill="#FF4B55"/>
<path d="M26.2956 8.62305H23.7097V25.0008H26.2956V8.62305Z" fill="#FF4B55"/>
<path d="M29.4218 15.3098L28.1502 15.9671L27.648 14.7989C27.5961 14.6783 27.3882 14.6568 27.2973 14.7625L26.2616 15.9671L25.1787 14.2876C25.106 14.175 24.899 14.175 24.8263 14.2876L23.7434 15.9671L22.7077 14.7625C22.6168 14.6568 22.4088 14.6783 22.357 14.7989L21.8548 15.9671L20.5832 15.3098C20.4151 15.223 20.2075 15.3651 20.2977 15.5051L21.5399 17.4318H21.4861C21.342 17.4318 21.2251 17.5224 21.2251 17.6342V18.2057C21.2251 18.3175 21.342 18.4081 21.4861 18.4081H28.5186C28.6627 18.4081 28.7796 18.3175 28.7796 18.2057V17.6342C28.7796 17.5224 28.6627 17.4318 28.5186 17.4318H28.4648L29.7069 15.5051C29.7976 15.3651 29.5898 15.223 29.4218 15.3098Z" fill="#FFE15A"/>
<path d="M17.4789 18.9658L0.00561523 24.6352V24.9997H2.05482L20.6453 18.9658H17.4789Z" fill="#FF4B55"/>
<path d="M49.9998 24.9997V24.2142L33.8286 18.9658H30.6621L49.2486 24.9997H49.9998Z" fill="#FF4B55"/>
<path d="M49.9938 29.7405C47.4906 29.7405 47.4906 28.9863 44.9873 28.9863C42.4858 28.9863 42.4858 29.7405 39.9843 29.7405C37.4849 29.7405 37.4849 28.9863 34.9855 28.9863C32.4865 28.9863 32.4865 29.7405 29.9875 29.7405C27.4878 29.7405 27.4878 28.9863 24.9881 28.9863C22.4884 28.9863 22.4884 29.7405 19.9887 29.7405C17.489 29.7405 17.489 28.9863 14.9893 28.9863C12.4907 28.9863 12.4907 29.7405 9.99211 29.7405C7.49476 29.7405 7.49477 28.9863 4.99732 28.9863C2.49852 28.9863 2.49852 29.7405 -0.000488281 29.7405V27.4778C2.49832 27.4778 2.49832 26.7236 4.99732 26.7236C7.49467 26.7236 7.49467 27.4778 9.99211 27.4778C12.4907 27.4778 12.4907 26.7236 14.9893 26.7236C17.489 26.7236 17.489 27.4778 19.9887 27.4778C22.4884 27.4778 22.4884 26.7236 24.9881 26.7236C27.4878 26.7236 27.4878 27.4778 29.9875 27.4778C32.4865 27.4778 32.4865 26.7236 34.9855 26.7236C37.4849 26.7236 37.4849 27.4778 39.9843 27.4778C42.4858 27.4778 42.4858 26.7236 44.9873 26.7236C47.4905 26.7236 47.4905 27.4778 49.9938 27.4778V29.7405Z" fill="#41479B"/>
<path d="M49.9936 34.2659C47.4904 34.2659 47.4904 33.5117 44.9871 33.5117C42.4856 33.5117 42.4856 34.2659 39.984 34.2659C37.4846 34.2659 37.4846 33.5117 34.9852 33.5117C32.4862 33.5117 32.4862 34.2659 29.9872 34.2659C27.4875 34.2659 27.4875 33.5117 24.9878 33.5117C22.4882 33.5117 22.4882 34.2659 19.9885 34.2659C17.4888 34.2659 17.4888 33.5117 14.9891 33.5117C12.4905 33.5117 12.4905 34.2659 9.99186 34.2659C7.49452 34.2659 7.49452 33.5117 4.99708 33.5117C2.49827 33.5117 2.49827 34.2659 -0.000732422 34.2659V32.0032C2.49808 32.0032 2.49808 31.249 4.99708 31.249C7.49442 31.249 7.49442 32.0032 9.99186 32.0032C12.4905 32.0032 12.4905 31.249 14.9891 31.249C17.4888 31.249 17.4888 32.0032 19.9885 32.0032C22.4882 32.0032 22.4882 31.249 24.9878 31.249C27.4875 31.249 27.4875 32.0032 29.9872 32.0032C32.4862 32.0032 32.4862 31.249 34.9852 31.249C37.4846 31.249 37.4846 32.0032 39.984 32.0032C42.4856 32.0032 42.4856 31.249 44.9871 31.249C47.4903 31.249 47.4903 32.0032 49.9936 32.0032V34.2659Z" fill="#41479B"/>
<path d="M49.9936 38.7913C47.4904 38.7913 47.4904 38.0371 44.9871 38.0371C42.4856 38.0371 42.4856 38.7913 39.984 38.7913C37.4846 38.7913 37.4846 38.0371 34.9852 38.0371C32.4862 38.0371 32.4862 38.7913 29.9872 38.7913C27.4875 38.7913 27.4875 38.0371 24.9878 38.0371C22.4882 38.0371 22.4882 38.7913 19.9885 38.7913C17.4888 38.7913 17.4888 38.0371 14.9891 38.0371C12.4905 38.0371 12.4905 38.7913 9.99186 38.7913C7.49452 38.7913 7.49452 38.0371 4.99708 38.0371C2.49827 38.0371 2.49827 38.7913 -0.000732422 38.7913V36.5286C2.49808 36.5286 2.49808 35.7744 4.99708 35.7744C7.49442 35.7744 7.49442 36.5286 9.99186 36.5286C12.4905 36.5286 12.4905 35.7744 14.9891 35.7744C17.4888 35.7744 17.4888 36.5286 19.9885 36.5286C22.4882 36.5286 22.4882 35.7744 24.9878 35.7744C27.4875 35.7744 27.4875 36.5286 29.9872 36.5286C32.4862 36.5286 32.4862 35.7744 34.9852 35.7744C37.4846 35.7744 37.4846 36.5286 39.984 36.5286C42.4856 36.5286 42.4856 35.7744 44.9871 35.7744C47.4903 35.7744 47.4903 36.5286 49.9936 36.5286V38.7913Z" fill="#41479B"/>
<path d="M18.969 14.6572L0.559566 8.68555C0.236717 8.81006 0.00585938 9.11855 0.00585938 9.48535V9.53007L15.8026 14.6572H18.969Z" fill="#FF4B55"/>
<path d="M32.4791 14.6568L49.8468 9.02265C49.6928 8.7876 49.4399 8.62305 49.1379 8.62305H47.903L29.3127 14.6568H32.4791Z" fill="#FF4B55"/>
<path d="M39.2236 40.2166C41.034 39.2842 41.6854 37.8857 41.9225 37.3662C42.2817 36.5792 43.9485 35.9446 43.9485 35.9446C43.9485 35.9446 41.8896 35.9542 40.7876 37.3849C39.7717 38.7038 37.9426 38.8173 36.1785 39.8265C36.0104 39.615 35.8373 39.4078 35.6577 39.2063L41.1544 32.5525L34.5005 38.0491C34.2401 37.8168 33.9707 37.5945 33.6936 37.3816C33.8688 36.9261 34.2144 36.2222 34.8931 35.4206C36.2089 33.8664 36.2755 32.3251 36.2957 31.7544C36.3266 30.8899 37.6233 29.6656 37.6233 29.6656C37.6233 29.6656 35.7248 30.4625 35.2542 32.2059C34.8206 33.8124 33.1757 34.6171 31.9323 36.223C31.6963 36.0916 31.4574 35.9651 31.2134 35.8469L33.7439 27.6011L29.7011 35.2233C29.3722 35.1086 29.0383 35.0047 28.699 34.914C28.6869 34.4259 28.7374 33.6447 29.0568 32.6468C29.6776 30.7073 29.1493 29.2579 28.9496 28.7228C28.6471 27.9123 29.3768 26.285 29.3768 26.285C29.3768 26.285 27.9277 27.7477 28.1601 29.5385C28.3743 31.1891 27.1618 32.5625 26.6278 34.5228C26.3607 34.4925 26.0919 34.4684 25.8206 34.453L25.0023 25.8623L24.1841 34.453C23.8327 34.4729 23.4857 34.5079 23.1415 34.5528C22.9434 34.1068 22.69 33.3646 22.603 32.3177C22.4344 30.2883 21.3916 29.1513 21.0025 28.7335C20.4128 28.1005 20.4642 26.3177 20.4642 26.3177C20.4642 26.3177 19.6852 28.2235 20.5853 29.7891C21.4147 31.2318 20.8205 32.9644 21.0769 34.9791C20.816 35.0535 20.5582 35.1346 20.3038 35.2234L16.2611 27.6012L18.7916 35.847C18.476 35.9996 18.169 36.1667 17.8668 36.3413C17.5131 36.0051 16.9954 35.4164 16.5149 34.4833C15.5825 32.6729 14.184 32.0215 13.6645 31.7844C12.8775 31.4253 12.2429 29.7586 12.2429 29.7586C12.2429 29.7586 12.2524 31.8174 13.6832 32.9194C15.0021 33.9353 15.1156 35.7645 16.1247 37.5285C15.9133 37.6967 15.7059 37.8697 15.5046 38.0493L8.85051 32.5523L14.3472 39.2061C14.1148 39.4666 13.8926 39.7359 13.6796 40.0131C13.2241 39.8379 12.5201 39.4921 11.7187 38.8136C10.1645 37.4978 8.62317 37.4312 8.05238 37.4109C7.18783 37.3802 5.96362 36.0833 5.96362 36.0833C5.96362 36.0833 6.76049 37.9818 8.50393 38.4524C9.94504 38.8414 10.7457 40.2033 12.0534 41.3775H37.5619C37.9143 41.0412 38.4427 40.6188 39.2236 40.2166Z" fill="#FFE15A"/>
<path d="M43.4384 41.3775L46.1056 39.9629L41.4958 41.3775H43.4384Z" fill="#FFE15A"/>
<path d="M3.89893 39.9629L6.56619 41.3775H8.50885L3.89893 39.9629Z" fill="#FFE15A"/>
</g>
<defs>
<clipPath id="clip0_106_20285">
<rect width="50" height="50" fill="white"/>
</clipPath>
</defs>
</svg>
