<svg width="50" height="50" viewBox="0 0 50 50" fill="none" xmlns="http://www.w3.org/2000/svg">
<g clip-path="url(#clip0_106_20265)">
<path d="M49.1385 41.3796H0.86284C0.386767 41.3796 0.000732422 40.9936 0.000732422 40.5175V9.4832C0.000732422 9.00713 0.386767 8.62109 0.86284 8.62109H49.1386C49.6147 8.62109 50.0007 9.00713 50.0007 9.4832V40.5175C50.0006 40.9937 49.6146 41.3796 49.1385 41.3796Z" fill="#F5F5F5"/>
<path d="M50.0013 34.4825C47.4985 34.4825 47.4985 33.6204 44.9959 33.6204C42.493 33.6204 42.493 34.4825 39.9904 34.4825C37.4893 34.4825 37.4893 33.6204 34.9884 33.6204C32.4894 33.6204 32.4894 34.4825 29.9906 34.4825C27.4904 34.4825 27.4904 33.6204 24.9902 33.6204C22.4906 33.6204 22.4906 34.4825 19.9911 34.4825C17.4916 34.4825 17.4915 33.6204 14.9921 33.6204C12.4927 33.6204 12.4925 34.4825 9.993 34.4825C7.49447 34.4825 7.49447 33.6204 4.99613 33.6204C2.49897 33.6204 2.49897 34.4825 0.00170898 34.4825V31.8963C2.49887 31.8963 2.49887 31.0342 4.99613 31.0342C7.49456 31.0342 7.49457 31.8963 9.993 31.8963C12.4926 31.8963 12.4926 31.0342 14.9921 31.0342C17.4916 31.0342 17.4917 31.8963 19.9911 31.8963C22.4907 31.8963 22.4907 31.0342 24.9902 31.0342C27.4904 31.0342 27.4904 31.8963 29.9906 31.8963C32.4895 31.8963 32.4895 31.0342 34.9884 31.0342C37.4894 31.0342 37.4894 31.8963 39.9904 31.8963C42.4932 31.8963 42.4932 31.0342 44.9959 31.0342C47.4987 31.0342 47.4987 31.8963 50.0013 31.8963V34.4825Z" fill="#41479B"/>
<path d="M50.0013 24.1377C47.4985 24.1377 47.4985 23.2756 44.9959 23.2756C42.493 23.2756 42.493 24.1377 39.9904 24.1377C37.4893 24.1377 37.4893 23.2756 34.9884 23.2756C32.4894 23.2756 32.4894 24.1377 29.9906 24.1377C27.4904 24.1377 27.4904 23.2756 24.9902 23.2756C22.4906 23.2756 22.4906 24.1377 19.9911 24.1377C17.4916 24.1377 17.4915 23.2756 14.9921 23.2756C12.4927 23.2756 12.4925 24.1377 9.993 24.1377C7.49447 24.1377 7.49447 23.2756 4.99613 23.2756C2.49897 23.2756 2.49897 24.1377 0.00170898 24.1377V21.5516C2.49887 21.5516 2.49887 20.6895 4.99613 20.6895C7.49456 20.6895 7.49457 21.5516 9.993 21.5516C12.4926 21.5516 12.4926 20.6895 14.9921 20.6895C17.4916 20.6895 17.4917 21.5516 19.9911 21.5516C22.4907 21.5516 22.4907 20.6895 24.9902 20.6895C27.4904 20.6895 27.4904 21.5516 29.9906 21.5516C32.4895 21.5516 32.4895 20.6895 34.9884 20.6895C37.4894 20.6895 37.4894 21.5516 39.9904 21.5516C42.4932 21.5516 42.4932 20.6895 44.9959 20.6895C47.4987 20.6895 47.4987 21.5516 50.0013 21.5516V24.1377Z" fill="#41479B"/>
<path d="M50.0013 18.9659C47.4985 18.9659 47.4985 18.1038 44.9959 18.1038C42.493 18.1038 42.493 18.9659 39.9904 18.9659C37.4893 18.9659 37.4893 18.1038 34.9884 18.1038C32.4894 18.1038 32.4894 18.9659 29.9906 18.9659C27.4904 18.9659 27.4904 18.1038 24.9902 18.1038C22.4906 18.1038 22.4906 18.9659 19.9911 18.9659C17.4916 18.9659 17.4915 18.1038 14.9921 18.1038C12.4927 18.1038 12.4925 18.9659 9.993 18.9659C7.49447 18.9659 7.49447 18.1038 4.99613 18.1038C2.49897 18.1038 2.49897 18.9659 0.00170898 18.9659V16.3797C2.49887 16.3797 2.49887 15.5176 4.99613 15.5176C7.49456 15.5176 7.49457 16.3797 9.993 16.3797C12.4926 16.3797 12.4926 15.5176 14.9921 15.5176C17.4916 15.5176 17.4917 16.3797 19.9911 16.3797C22.4907 16.3797 22.4907 15.5176 24.9902 15.5176C27.4904 15.5176 27.4904 16.3797 29.9906 16.3797C32.4895 16.3797 32.4895 15.5176 34.9884 15.5176C37.4894 15.5176 37.4894 16.3797 39.9904 16.3797C42.4932 16.3797 42.4932 15.5176 44.9959 15.5176C47.4987 15.5176 47.4987 16.3797 50.0013 16.3797V18.9659Z" fill="#41479B"/>
<path d="M50.0013 13.7931C47.4985 13.7931 47.4985 12.931 44.9959 12.931C42.493 12.931 42.493 13.7931 39.9904 13.7931C37.4893 13.7931 37.4893 12.931 34.9884 12.931C32.4894 12.931 32.4894 13.7931 29.9906 13.7931C27.4904 13.7931 27.4904 12.931 24.9902 12.931C22.4906 12.931 22.4906 13.7931 19.9911 13.7931C17.4916 13.7931 17.4915 12.931 14.9921 12.931C12.4927 12.931 12.4925 13.7931 9.993 13.7931C7.49447 13.7931 7.49447 12.931 4.99613 12.931C2.49897 12.931 2.49897 13.7931 0.00170898 13.7931V11.2068C2.49887 11.2068 2.49887 10.3447 4.99613 10.3447C7.49456 10.3447 7.49457 11.2068 9.993 11.2068C12.4926 11.2068 12.4926 10.3447 14.9921 10.3447C17.4916 10.3447 17.4917 11.2068 19.9911 11.2068C22.4907 11.2068 22.4907 10.3447 24.9902 10.3447C27.4904 10.3447 27.4904 11.2068 29.9906 11.2068C32.4895 11.2068 32.4895 10.3447 34.9884 10.3447C37.4894 10.3447 37.4894 11.2068 39.9904 11.2068C42.4932 11.2068 42.4932 10.3447 44.9959 10.3447C47.4987 10.3447 47.4987 11.2068 50.0013 11.2068V13.7931Z" fill="#41479B"/>
<path d="M50.0013 29.3106C47.4985 29.3106 47.4985 28.4485 44.9959 28.4485C42.493 28.4485 42.493 29.3106 39.9904 29.3106C37.4893 29.3106 37.4893 28.4485 34.9884 28.4485C32.4894 28.4485 32.4894 29.3106 29.9906 29.3106C27.4904 29.3106 27.4904 28.4485 24.9902 28.4485C22.4906 28.4485 22.4906 29.3106 19.9911 29.3106C17.4916 29.3106 17.4915 28.4485 14.9921 28.4485C12.4927 28.4485 12.4925 29.3106 9.993 29.3106C7.49447 29.3106 7.49447 28.4485 4.99613 28.4485C2.49897 28.4485 2.49897 29.3106 0.00170898 29.3106V26.7244C2.49887 26.7244 2.49887 25.8623 4.99613 25.8623C7.49456 25.8623 7.49457 26.7244 9.993 26.7244C12.4926 26.7244 12.4926 25.8623 14.9921 25.8623C17.4916 25.8623 17.4917 26.7244 19.9911 26.7244C22.4907 26.7244 22.4907 25.8623 24.9902 25.8623C27.4904 25.8623 27.4904 26.7244 29.9906 26.7244C32.4895 26.7244 32.4895 25.8623 34.9884 25.8623C37.4894 25.8623 37.4894 26.7244 39.9904 26.7244C42.4932 26.7244 42.4932 25.8623 44.9959 25.8623C47.4987 25.8623 47.4987 26.7244 50.0013 26.7244V29.3106Z" fill="#41479B"/>
<path d="M50.0013 39.6554C47.4985 39.6554 47.4985 38.7933 44.9959 38.7933C42.493 38.7933 42.493 39.6554 39.9904 39.6554C37.4893 39.6554 37.4893 38.7933 34.9884 38.7933C32.4894 38.7933 32.4894 39.6554 29.9906 39.6554C27.4904 39.6554 27.4904 38.7933 24.9902 38.7933C22.4906 38.7933 22.4906 39.6554 19.9911 39.6554C17.4916 39.6554 17.4915 38.7933 14.9921 38.7933C12.4927 38.7933 12.4925 39.6554 9.993 39.6554C7.49447 39.6554 7.49447 38.7933 4.99613 38.7933C2.49897 38.7933 2.49897 39.6554 0.00170898 39.6554V37.0691C2.49887 37.0691 2.49887 36.207 4.99613 36.207C7.49456 36.207 7.49457 37.0691 9.993 37.0691C12.4926 37.0691 12.4926 36.207 14.9921 36.207C17.4916 36.207 17.4917 37.0691 19.9911 37.0691C22.4907 37.0691 22.4907 36.207 24.9902 36.207C27.4904 36.207 27.4904 37.0691 29.9906 37.0691C32.4895 37.0691 32.4895 36.207 34.9884 36.207C37.4894 36.207 37.4894 37.0691 39.9904 37.0691C42.4932 37.0691 42.4932 36.207 44.9959 36.207C47.4987 36.207 47.4987 37.0691 50.0013 37.0691V39.6554Z" fill="#41479B"/>
<path d="M24.1386 25.0004H0.86284C0.386767 25.0004 0.000732422 24.6143 0.000732422 24.1383V9.4832C0.000732422 9.00713 0.386767 8.62109 0.86284 8.62109H24.1386C24.6147 8.62109 25.0007 9.00713 25.0007 9.4832V24.1384C25.0006 24.6145 24.6147 25.0004 24.1386 25.0004Z" fill="#41479B"/>
<path d="M24.1386 8.62109H22.6412L14.6559 13.8528V8.62109H10.3455V13.8528L2.3602 8.62109H0.86284C0.386767 8.62109 0.000732422 9.00713 0.000732422 9.4832V10.167L6.85179 14.6556H0.000732422V18.9659H6.85179L0.000732422 23.4546V24.1383C0.000732422 24.6143 0.386767 25.0004 0.86284 25.0004H2.3602L10.3455 19.7686V25.0004H14.6559V19.7686L22.6411 25.0004H24.1385C24.6146 25.0004 25.0006 24.6143 25.0006 24.1383V23.4545L18.1496 18.9659H25.0006V14.6556H18.1495L25.0006 10.167V9.4832C25.0006 9.00713 24.6147 8.62109 24.1386 8.62109Z" fill="#F5F5F5"/>
<path d="M25.0006 15.5167H13.7938V8.62012H11.2075V15.5167H0.000732422V18.1028H11.2075V24.9994H13.7938V18.1028H25.0006V15.5167Z" fill="#FF4B55"/>
<path d="M9.48416 14.6544L0.412304 8.76562C0.170898 8.91846 0.00146484 9.1751 0.00146484 9.48203V9.52676L7.90077 14.6544H9.48416Z" fill="#FF4B55"/>
<path d="M16.2401 14.6546L24.8704 9.05244C24.7204 8.79863 24.4557 8.62012 24.1394 8.62012H23.953L14.6567 14.6546H16.2401Z" fill="#FF4B55"/>
<path d="M8.73948 18.9648L0.125732 24.5562C0.274267 24.8162 0.543017 24.9993 0.863915 24.9993H1.02651L10.3229 18.9648H8.73948Z" fill="#FF4B55"/>
<path d="M24.9877 24.205L16.9148 18.9648H15.3315L24.4988 24.9154C24.7735 24.788 24.9618 24.5209 24.9877 24.205Z" fill="#FF4B55"/>
<path d="M37.9315 37.8303C37.6019 37.8303 37.3347 37.563 37.3347 37.2336V18.1367H38.5283V37.2337C38.5284 37.5632 38.2611 37.8303 37.9315 37.8303Z" fill="#965032"/>
<path d="M46.2865 20.5238L45.0929 19.927L40.6984 19.3778L43.4174 15.882L43.8393 14.616L42.5734 15.0381L39.0776 17.7569L38.5284 13.3626L37.9315 12.1689L37.3347 13.3626L36.7855 17.7569L33.2897 15.0381L32.0238 14.616L32.4458 15.882L35.1647 19.3778L30.7702 19.927L29.5767 20.5238L30.7702 21.1206L35.1647 21.67L32.4458 25.1656L32.0238 26.4317L33.2897 26.0097L37.0876 23.0558L37.9315 21.7175L38.7755 23.0558L42.5734 26.0097L43.8393 26.4317L43.4174 25.1656L40.6984 21.67L45.0929 21.1206L46.2865 20.5238Z" fill="#73AF00"/>
<path d="M40.5299 27.4747C39.9936 26.9394 38.8452 27.1361 38.2302 27.2914V26.7905C38.2302 26.6258 38.0966 26.4922 37.9319 26.4922C37.7671 26.4922 37.6335 26.6258 37.6335 26.7905V27.2913C37.0187 27.1356 35.8704 26.9389 35.3338 27.4747C34.8223 27.9859 35.1929 29.2186 35.5449 30.0757V30.8692C35.5449 31.0887 35.7227 31.2663 35.9419 31.2663H39.922C40.1413 31.2663 40.3191 31.0885 40.3191 30.8692V30.0757C40.6708 29.2186 41.0414 27.9858 40.5299 27.4747ZM40.1079 27.8967C40.3358 28.1247 40.0806 29.1239 39.6695 30.0728H38.2301V27.9078C38.9001 27.7181 39.8179 27.606 40.1079 27.8967ZM35.7557 27.8967C36.0456 27.6061 36.9633 27.7182 37.6335 27.9078V30.0727H36.1942C35.7831 29.1239 35.5279 28.1247 35.7557 27.8967Z" fill="#FFE15A"/>
</g>
<defs>
<clipPath id="clip0_106_20265">
<rect width="50" height="50" fill="white"/>
</clipPath>
</defs>
</svg>
