<svg width="50" height="50" viewBox="0 0 50 50" fill="none" xmlns="http://www.w3.org/2000/svg">
<g clip-path="url(#clip0_106_20220)">
<path d="M49.1376 41.3796H0.861864C0.38579 41.3796 -0.000244141 40.9936 -0.000244141 40.5175V9.4832C-0.000244141 9.00713 0.38579 8.62109 0.861864 8.62109H49.1376C49.6137 8.62109 49.9998 9.00713 49.9998 9.4832V40.5175C49.9997 40.9937 49.6136 41.3796 49.1376 41.3796Z" fill="#41479B"/>
<path d="M24.1376 8.62109H22.6402L14.6549 13.8528V8.62109H10.3446V13.8528L2.35922 8.62109H0.861864C0.38579 8.62109 -0.000244141 9.00713 -0.000244141 9.4832V10.167L6.85082 14.6556H-0.000244141V18.9659H6.85082L-0.000244141 23.4546V24.1383C-0.000244141 24.6143 0.38579 25.0004 0.861864 25.0004H2.35922L10.3446 19.7686V25.0004H14.6549V19.7686L22.6401 25.0004H24.1375C24.6136 25.0004 24.9996 24.6143 24.9996 24.1383V23.4545L18.1486 18.9659H24.9996V14.6556H18.1485L24.9996 10.167V9.4832C24.9996 9.00713 24.6138 8.62109 24.1376 8.62109Z" fill="#F5F5F5"/>
<path d="M24.9999 15.5167H13.793V8.62012H11.2068V15.5167H0V18.1028H11.2068V24.9994H13.793V18.1028H24.9999V15.5167Z" fill="#FF4B55"/>
<path d="M9.48245 14.6544L0.410595 8.76562C0.169189 8.91846 -0.000244141 9.1751 -0.000244141 9.48203V9.52676L7.89906 14.6544H9.48245Z" fill="#FF4B55"/>
<path d="M16.2384 14.6546L24.8687 9.05244C24.7187 8.79863 24.454 8.62012 24.1377 8.62012H23.9513L14.655 14.6546H16.2384Z" fill="#FF4B55"/>
<path d="M8.73704 18.9648L0.123291 24.5562C0.271826 24.8162 0.540575 24.9993 0.861473 24.9993H1.02407L10.3204 18.9648H8.73704Z" fill="#FF4B55"/>
<path d="M24.986 24.205L16.9131 18.9648H15.3298L24.4971 24.9154C24.7718 24.788 24.9601 24.5209 24.986 24.205Z" fill="#FF4B55"/>
<path d="M37.8661 16.7109H32.2219C32.2219 16.7109 32.2219 24.0151 32.2219 27.0032C32.2219 29.3272 37.8661 31.6513 37.8661 31.6513C37.8661 31.6513 43.5102 29.3273 43.5102 27.0032C43.5102 24.015 43.5102 16.7109 43.5102 16.7109H37.8661Z" fill="#73AF00"/>
<path d="M34.5614 24.5644C34.5614 24.5644 34.5299 24.4551 34.5579 24.3563C34.5861 24.2576 34.5137 24.1671 34.4981 24.0814C34.4559 23.8488 34.6528 23.7889 34.6633 23.5811C34.6633 23.5811 34.8039 23.7256 34.7513 23.8631C34.6985 24.0006 34.8286 24.0217 34.8111 24.152C34.7935 24.2824 34.6493 24.4199 34.6634 24.5362L34.5614 24.5644Z" fill="#FF4B55"/>
<path d="M36.7807 24.3432C36.6654 24.199 36.4631 24.3543 36.3151 24.4672C36.2945 24.483 36.277 24.4951 36.2587 24.5084L35.7126 23.7019C35.728 23.6788 35.739 23.6527 35.739 23.623C35.739 23.5427 35.674 23.4775 35.5935 23.4775C35.513 23.4775 35.448 23.5426 35.448 23.623C35.448 23.6528 35.4591 23.6789 35.4743 23.7019L34.911 24.5338H34.512C34.512 24.5338 34.4955 24.7817 34.9311 24.8118C34.9872 24.8969 35.0673 24.9645 35.1632 25.0028C35.1182 25.0102 35.0819 25.0449 35.0819 25.0921V25.1504C35.0819 25.1541 35.0854 25.1562 35.0858 25.1599H36.1005C36.1009 25.1563 36.1044 25.1542 36.1044 25.1504V25.0921C36.1044 25.0444 36.0675 25.0089 36.0217 25.0023C36.1915 24.934 36.3109 24.7751 36.331 24.5863C36.3468 24.5746 36.3616 24.5639 36.3787 24.5509C36.4859 24.4687 36.6472 24.3435 36.6987 24.409C36.7115 24.425 36.7102 24.4339 36.7097 24.4371C36.7038 24.4752 36.6225 24.5299 36.5572 24.5737C36.4543 24.6428 36.348 24.7145 36.3396 24.816C36.3371 24.845 36.3585 24.8701 36.3874 24.8728C36.3889 24.8728 36.3906 24.8728 36.3918 24.8728C36.4189 24.8728 36.4418 24.852 36.4441 24.8249C36.4483 24.7734 36.541 24.7111 36.6157 24.6611C36.7107 24.597 36.8004 24.5368 36.8133 24.4534C36.8193 24.4149 36.8082 24.3781 36.7807 24.3432ZM35.8472 24.5338C35.8171 24.4191 35.7462 24.309 35.6576 24.2691C35.7045 24.245 35.7376 24.1975 35.7376 24.1411C35.7376 24.0608 35.6726 23.9956 35.5921 23.9956C35.5118 23.9956 35.4466 24.0606 35.4466 24.1411C35.4466 24.1975 35.4796 24.245 35.5266 24.2691C35.438 24.3089 35.367 24.419 35.337 24.5338H35.0377L35.5605 23.7618C35.5713 23.7644 35.5819 23.7685 35.5936 23.7685C35.6053 23.7685 35.6158 23.7644 35.6267 23.7618L36.1494 24.5338H35.8472Z" fill="#FFE15A"/>
<path d="M37.5064 19.6439C37.5064 19.6439 36.9807 19.4883 36.7455 21.3282C36.7455 21.3282 35.459 22.964 35.4175 23.0608C35.376 23.1576 35.4141 23.8528 35.5525 23.7974C35.6908 23.742 35.9399 23.4204 35.926 23.1852C35.9121 22.9499 36.0183 22.8188 36.1231 22.701C36.3201 22.4797 37.4304 21.4768 37.4719 21.2554C37.5133 21.0342 37.5064 19.6439 37.5064 19.6439Z" fill="#FFC8B9"/>
<path d="M38.3212 19.2949C38.3212 19.2949 39.1339 19.1876 39.3726 20.0177C39.3726 20.0177 38.7051 20.3843 38.7881 20.8616C38.8711 21.3388 38.7777 23.5177 38.7777 23.5177C37.5016 23.9327 36.8271 23.4139 36.8271 23.4139C36.8271 23.4139 37.1592 22.1792 37.1073 21.1729C37.1073 21.1729 36.8064 20.9447 36.8791 20.6853C36.9518 20.4259 37.1385 20.1354 37.2008 19.9175C37.2631 19.6997 37.429 19.3365 37.8337 19.3053C38.2381 19.2741 38.3212 19.2949 38.3212 19.2949Z" fill="#F5F5F5"/>
<path d="M37.0628 23.1719C37.0628 23.1719 36.4265 25.579 36.6479 28.8575C36.6479 28.8575 38.633 29.1203 39.7121 28.7261C39.7121 28.7261 39.1519 24.8042 38.6123 23.2687L37.0628 23.1719Z" fill="#F5F5F5"/>
<path d="M37.4373 17.877V18.8741C37.4373 18.9836 37.526 19.0724 37.6355 19.0724H37.6533C37.7307 19.0724 37.7936 19.1352 37.7936 19.2127V19.4511C37.7936 19.4511 37.9272 19.8001 38.447 19.3917V17.8844L37.4373 17.877Z" fill="#FFC8B9"/>
<path d="M37.3195 17.6725C37.2872 17.753 37.3212 17.9716 37.52 17.956C37.7683 17.9366 38.0681 17.9352 38.1356 18.2102C38.1983 18.4658 38.1564 19.1042 38.433 19.1458C38.7098 19.1873 39.0235 19.0034 39.0175 18.4541C39.0123 17.9699 38.6958 17.3906 38.2532 17.4788C38.2532 17.4788 37.8606 17.2038 37.6306 17.5134C37.6308 17.5134 37.3887 17.4996 37.3195 17.6725Z" fill="#8C5A28"/>
<path d="M39.3737 20.0176C39.3737 20.0176 39.6569 21.8832 39.6435 22.0373C39.6297 22.1964 38.6405 23.725 38.6958 23.8911C38.7512 24.0571 38.8065 24.2785 38.5022 24.3615C38.1979 24.4445 38.229 23.9586 38.3119 23.7096C38.3949 23.4605 39.0901 22.1343 39.0901 21.9821C39.0901 21.83 38.6957 20.8478 38.7926 20.4604C38.8896 20.0729 39.3737 20.0176 39.3737 20.0176Z" fill="#FFC8B9"/>
<path d="M33.3164 18.6776C33.3164 18.6776 33.2849 18.5684 33.3129 18.4696C33.3411 18.3709 33.2687 18.2804 33.2532 18.1947C33.2111 17.9621 33.4079 17.9021 33.4184 17.6943C33.4184 17.6943 33.559 17.8389 33.5064 17.9764C33.4537 18.1139 33.5837 18.135 33.5662 18.2653C33.5487 18.3957 33.4044 18.5332 33.4185 18.6495L33.3164 18.6776Z" fill="#FF4B55"/>
<path d="M35.5356 18.4564C35.4202 18.3123 35.218 18.4676 35.0699 18.5805C35.0493 18.5963 35.0319 18.6084 35.0136 18.6217L34.4675 17.8151C34.4828 17.7921 34.4939 17.766 34.4939 17.7363C34.4939 17.656 34.4288 17.5908 34.3484 17.5908C34.2679 17.5908 34.2029 17.6559 34.2029 17.7363C34.2029 17.7661 34.214 17.7922 34.2292 17.8151L33.6659 18.6471H33.2669C33.2669 18.6471 33.2504 18.895 33.686 18.9251C33.7421 19.0102 33.8222 19.0778 33.9181 19.1161C33.8731 19.1234 33.8367 19.1582 33.8367 19.2054V19.2637C33.8367 19.2674 33.8403 19.2695 33.8407 19.2731H34.8554C34.8558 19.2696 34.8593 19.2675 34.8593 19.2637V19.2054C34.8593 19.1577 34.8224 19.1222 34.7766 19.1156C34.9464 19.0473 35.0657 18.8884 35.0859 18.6996C35.1017 18.6879 35.1164 18.6771 35.1336 18.6642C35.2407 18.5819 35.4021 18.4567 35.4535 18.5223C35.4663 18.5383 35.4651 18.5472 35.4646 18.5504C35.4587 18.5885 35.3774 18.6432 35.312 18.687C35.2092 18.7561 35.1029 18.8277 35.0945 18.9293C35.092 18.9583 35.1134 18.9834 35.1423 18.986C35.1438 18.986 35.1454 18.986 35.1467 18.986C35.1738 18.986 35.1967 18.9652 35.1989 18.9381C35.2031 18.8866 35.2959 18.8243 35.3705 18.7743C35.4655 18.7102 35.5553 18.65 35.5682 18.5666C35.5741 18.5282 35.5631 18.4913 35.5356 18.4564ZM34.6021 18.6471C34.572 18.5324 34.5011 18.4223 34.4125 18.3824C34.4594 18.3583 34.4925 18.3107 34.4925 18.2544C34.4925 18.1741 34.4275 18.1089 34.347 18.1089C34.2667 18.1089 34.2015 18.1739 34.2015 18.2544C34.2015 18.3107 34.2345 18.3583 34.2815 18.3824C34.1929 18.4222 34.1219 18.5323 34.0919 18.6471H33.7926L34.3154 17.8751C34.3262 17.8776 34.3366 17.8817 34.3485 17.8817C34.3602 17.8817 34.3706 17.8776 34.3816 17.8751L34.9043 18.6471H34.6021Z" fill="#FFE15A"/>
<path d="M33.3164 20.6405C33.3164 20.6405 33.2849 20.5312 33.3129 20.4325C33.3411 20.3338 33.2687 20.2433 33.2532 20.1576C33.2111 19.925 33.4079 19.865 33.4184 19.6572C33.4184 19.6572 33.559 19.8018 33.5064 19.9393C33.4536 20.0768 33.5837 20.0979 33.5662 20.2282C33.5487 20.3586 33.4044 20.4961 33.4185 20.6124L33.3164 20.6405Z" fill="#FF4B55"/>
<path d="M35.5356 20.4193C35.4202 20.2752 35.218 20.4305 35.0699 20.5434C35.0493 20.5592 35.0319 20.5713 35.0136 20.5846L34.4675 19.778C34.4828 19.755 34.4939 19.7289 34.4939 19.6992C34.4939 19.6188 34.4288 19.5537 34.3484 19.5537C34.2679 19.5537 34.2029 19.6188 34.2029 19.6992C34.2029 19.729 34.214 19.7551 34.2292 19.778L33.6659 20.61H33.2669C33.2669 20.61 33.2504 20.8579 33.686 20.888C33.7421 20.973 33.8222 21.0407 33.9181 21.079C33.8731 21.0863 33.8367 21.1211 33.8367 21.1683V21.2266C33.8367 21.2303 33.8403 21.2324 33.8407 21.236H34.8554C34.8558 21.2325 34.8593 21.2304 34.8593 21.2266V21.1683C34.8593 21.1206 34.8224 21.0851 34.7766 21.0785C34.9464 21.0102 35.0657 20.8513 35.0859 20.6625C35.1017 20.6508 35.1164 20.64 35.1336 20.627C35.2407 20.5448 35.4021 20.4196 35.4535 20.4852C35.4663 20.5012 35.4651 20.5101 35.4646 20.5133C35.4587 20.5514 35.3774 20.6061 35.312 20.6499C35.2092 20.7189 35.1029 20.7906 35.0945 20.8922C35.092 20.9212 35.1134 20.9463 35.1423 20.949C35.1438 20.949 35.1454 20.949 35.1467 20.949C35.1738 20.949 35.1967 20.9282 35.1989 20.9011C35.2031 20.8496 35.2959 20.7873 35.3705 20.7373C35.4655 20.6731 35.5553 20.613 35.5682 20.5296C35.5741 20.4909 35.5631 20.4541 35.5356 20.4193ZM34.6021 20.6099C34.572 20.4952 34.5011 20.3851 34.4125 20.3452C34.4594 20.3211 34.4925 20.2735 34.4925 20.2172C34.4925 20.1369 34.4275 20.0717 34.347 20.0717C34.2667 20.0717 34.2015 20.1367 34.2015 20.2172C34.2015 20.2735 34.2345 20.3211 34.2815 20.3452C34.1929 20.385 34.1219 20.4951 34.0919 20.6099H33.7926L34.3154 19.8379C34.3262 19.8404 34.3366 19.8445 34.3485 19.8445C34.3602 19.8445 34.3706 19.8404 34.3816 19.8379L34.9043 20.6099H34.6021Z" fill="#FFE15A"/>
<path d="M33.3164 22.6024C33.3164 22.6024 33.2849 22.4932 33.3129 22.3944C33.3411 22.2957 33.2687 22.2052 33.2532 22.1195C33.2111 21.8869 33.4079 21.827 33.4184 21.6191C33.4184 21.6191 33.559 21.7637 33.5064 21.9012C33.4537 22.0387 33.5837 22.0598 33.5662 22.1901C33.5487 22.3205 33.4044 22.458 33.4185 22.5743L33.3164 22.6024Z" fill="#FF4B55"/>
<path d="M35.5356 22.3812C35.4202 22.2371 35.218 22.3924 35.0699 22.5053C35.0493 22.5211 35.0319 22.5332 35.0136 22.5465L34.4675 21.7399C34.4828 21.7169 34.4939 21.6908 34.4939 21.6611C34.4939 21.5808 34.4288 21.5156 34.3484 21.5156C34.2679 21.5156 34.2029 21.5807 34.2029 21.6611C34.2029 21.6909 34.214 21.717 34.2292 21.7399L33.6659 22.5719H33.2669C33.2669 22.5719 33.2504 22.8198 33.686 22.8499C33.7421 22.935 33.8222 23.0026 33.9181 23.0409C33.8731 23.0482 33.8367 23.083 33.8367 23.1302V23.1885C33.8367 23.1922 33.8403 23.1943 33.8407 23.1979H34.8554C34.8558 23.1944 34.8593 23.1923 34.8593 23.1885V23.1302C34.8593 23.0825 34.8224 23.047 34.7766 23.0404C34.9464 22.9721 35.0657 22.8132 35.0859 22.6244C35.1017 22.6127 35.1164 22.602 35.1336 22.589C35.2407 22.5067 35.4021 22.3815 35.4535 22.4471C35.4663 22.4631 35.4651 22.472 35.4646 22.4752C35.4587 22.5133 35.3774 22.568 35.312 22.6118C35.2092 22.6809 35.1029 22.7525 35.0945 22.8541C35.092 22.8831 35.1134 22.9082 35.1423 22.9108C35.1438 22.9108 35.1454 22.9108 35.1467 22.9108C35.1738 22.9108 35.1967 22.89 35.1989 22.8629C35.2031 22.8114 35.2959 22.7491 35.3705 22.6991C35.4655 22.635 35.5553 22.5748 35.5682 22.4914C35.5741 22.4529 35.5631 22.4161 35.5356 22.3812ZM34.6021 22.5718C34.572 22.4571 34.5011 22.347 34.4125 22.3071C34.4594 22.283 34.4925 22.2354 34.4925 22.1791C34.4925 22.0988 34.4275 22.0336 34.347 22.0336C34.2667 22.0336 34.2015 22.0986 34.2015 22.1791C34.2015 22.2354 34.2345 22.283 34.2815 22.3071C34.1929 22.3469 34.1219 22.457 34.0919 22.5718H33.7926L34.3154 21.7998C34.3262 21.8023 34.3366 21.8064 34.3485 21.8064C34.3602 21.8064 34.3706 21.8023 34.3816 21.7998L34.9043 22.5718H34.6021Z" fill="#FFE15A"/>
<path d="M33.3164 26.5272C33.3164 26.5272 33.2849 26.418 33.3129 26.3192C33.3411 26.2205 33.2687 26.13 33.2532 26.0443C33.2111 25.8117 33.4079 25.7518 33.4184 25.5439C33.4184 25.5439 33.559 25.6885 33.5064 25.826C33.4538 25.9635 33.5837 25.9846 33.5662 26.1149C33.5487 26.2453 33.4044 26.3828 33.4185 26.4991L33.3164 26.5272Z" fill="#FF4B55"/>
<path d="M35.5356 26.3061C35.4202 26.1619 35.218 26.3172 35.0699 26.4301C35.0493 26.4459 35.0319 26.458 35.0136 26.4713L34.4675 25.6647C34.4828 25.6417 34.4939 25.6156 34.4939 25.5859C34.4939 25.5056 34.4288 25.4404 34.3484 25.4404C34.2679 25.4404 34.2029 25.5056 34.2029 25.5859C34.2029 25.6157 34.214 25.6418 34.2292 25.6647L33.6659 26.4967H33.2669C33.2669 26.4967 33.2504 26.7446 33.686 26.7747C33.7421 26.8598 33.8222 26.9274 33.9181 26.9657C33.8731 26.973 33.8367 27.0078 33.8367 27.055V27.1133C33.8367 27.117 33.8403 27.1191 33.8407 27.1228H34.8554C34.8558 27.1192 34.8593 27.1171 34.8593 27.1133V27.055C34.8593 27.0073 34.8224 26.9718 34.7766 26.9652C34.9464 26.8969 35.0657 26.738 35.0859 26.5492C35.1017 26.5375 35.1164 26.5269 35.1336 26.5138C35.2407 26.4315 35.4021 26.3063 35.4535 26.3719C35.4663 26.3879 35.4651 26.3968 35.4646 26.4C35.4587 26.4381 35.3774 26.4928 35.312 26.5366C35.2092 26.6057 35.1029 26.6773 35.0945 26.7789C35.092 26.8079 35.1134 26.833 35.1423 26.8357C35.1438 26.8357 35.1454 26.8357 35.1467 26.8357C35.1738 26.8357 35.1967 26.8149 35.1989 26.7878C35.2031 26.7363 35.2959 26.674 35.3705 26.624C35.4655 26.5599 35.5553 26.4997 35.5682 26.4163C35.5741 26.3777 35.5631 26.3408 35.5356 26.3061ZM34.6021 26.4967C34.572 26.382 34.5011 26.2719 34.4125 26.232C34.4594 26.2079 34.4925 26.1603 34.4925 26.104C34.4925 26.0237 34.4275 25.9585 34.347 25.9585C34.2667 25.9585 34.2015 26.0235 34.2015 26.104C34.2015 26.1603 34.2345 26.2079 34.2815 26.232C34.1929 26.2718 34.1219 26.3819 34.0919 26.4967H33.7926L34.3154 25.7247C34.3262 25.7272 34.3366 25.7313 34.3485 25.7313C34.3602 25.7313 34.3706 25.7272 34.3816 25.7247L34.9043 26.4967H34.6021Z" fill="#FFE15A"/>
<path d="M33.3164 28.4892C33.3164 28.4892 33.2849 28.3799 33.3129 28.2812C33.3411 28.1824 33.2687 28.0919 33.2532 28.0062C33.2111 27.7736 33.4079 27.7137 33.4184 27.5059C33.4184 27.5059 33.559 27.6504 33.5064 27.7879C33.4536 27.9254 33.5837 27.9465 33.5662 28.0769C33.5486 28.2072 33.4044 28.3447 33.4185 28.461L33.3164 28.4892Z" fill="#FF4B55"/>
<path d="M35.5356 28.268C35.4202 28.1238 35.218 28.2791 35.0699 28.392C35.0493 28.4078 35.0319 28.4199 35.0136 28.4331L34.4675 27.6267C34.4828 27.6036 34.4939 27.5775 34.4939 27.5479C34.4939 27.4675 34.4288 27.4023 34.3484 27.4023C34.2679 27.4023 34.2029 27.4675 34.2029 27.5479C34.2029 27.5776 34.214 27.6037 34.2292 27.6267L33.6659 28.4586H33.2669C33.2669 28.4586 33.2504 28.7065 33.686 28.7366C33.7421 28.8217 33.8222 28.8893 33.9181 28.9276C33.8731 28.935 33.8367 28.9697 33.8367 29.0169V29.0752C33.8367 29.0789 33.8403 29.081 33.8407 29.0847H34.8554C34.8558 29.0811 34.8593 29.0789 34.8593 29.0752V29.0169C34.8593 28.9692 34.8224 28.9337 34.7766 28.9271C34.9464 28.8588 35.0657 28.6999 35.0859 28.5111C35.1017 28.4994 35.1164 28.4887 35.1336 28.4757C35.2407 28.3935 35.4021 28.2683 35.4535 28.3338C35.4663 28.3498 35.4651 28.3587 35.4646 28.3619C35.4587 28.4 35.3774 28.4547 35.312 28.4985C35.2092 28.5676 35.1029 28.6393 35.0945 28.7408C35.092 28.7698 35.1134 28.7949 35.1423 28.7977C35.1438 28.7977 35.1454 28.7977 35.1467 28.7977C35.1738 28.7977 35.1967 28.7769 35.1989 28.7497C35.2031 28.6982 35.2959 28.6359 35.3705 28.5859C35.4655 28.5218 35.5553 28.4616 35.5682 28.3782C35.5741 28.3396 35.5631 28.3028 35.5356 28.268ZM34.6021 28.4585C34.572 28.3438 34.5011 28.2337 34.4125 28.1938C34.4594 28.1697 34.4925 28.1222 34.4925 28.0658C34.4925 27.9855 34.4275 27.9203 34.347 27.9203C34.2667 27.9203 34.2015 27.9854 34.2015 28.0658C34.2015 28.1222 34.2345 28.1697 34.2815 28.1938C34.1929 28.2336 34.1219 28.3437 34.0919 28.4585H33.7926L34.3154 27.6865C34.3262 27.6891 34.3366 27.6932 34.3485 27.6932C34.3602 27.6932 34.3706 27.6891 34.3816 27.6865L34.9043 28.4585H34.6021Z" fill="#FFE15A"/>
<path d="M40.1434 18.6776C40.1434 18.6776 40.1118 18.5684 40.1398 18.4696C40.168 18.3709 40.0955 18.2804 40.0801 18.1947C40.038 17.9621 40.2348 17.9021 40.2453 17.6943C40.2453 17.6943 40.3859 17.8389 40.3333 17.9764C40.2805 18.1139 40.4106 18.135 40.3931 18.2653C40.3756 18.3957 40.2313 18.5332 40.2454 18.6495L40.1434 18.6776Z" fill="#FF4B55"/>
<path d="M42.3625 18.4564C42.2472 18.3123 42.0449 18.4676 41.8969 18.5805C41.8763 18.5963 41.8588 18.6084 41.8405 18.6217L41.2944 17.8151C41.3097 17.7921 41.3208 17.766 41.3208 17.7363C41.3208 17.656 41.2557 17.5908 41.1753 17.5908C41.0948 17.5908 41.0298 17.6559 41.0298 17.7363C41.0298 17.7661 41.0409 17.7922 41.0561 17.8151L40.4928 18.6471H40.0938C40.0938 18.6471 40.0773 18.895 40.5129 18.9251C40.569 19.0102 40.6491 19.0778 40.745 19.1161C40.7 19.1234 40.6637 19.1582 40.6637 19.2054V19.2637C40.6637 19.2674 40.6672 19.2695 40.6676 19.2731H41.6823C41.6827 19.2696 41.6862 19.2675 41.6862 19.2637V19.2054C41.6862 19.1577 41.6493 19.1222 41.6035 19.1156C41.7733 19.0473 41.8927 18.8884 41.9128 18.6996C41.9286 18.6879 41.9433 18.6771 41.9605 18.6642C42.0677 18.5819 42.229 18.4567 42.2804 18.5223C42.2932 18.5383 42.292 18.5472 42.2915 18.5504C42.2856 18.5885 42.2043 18.6432 42.1389 18.687C42.0361 18.7561 41.9298 18.8277 41.9214 18.9293C41.9189 18.9583 41.9403 18.9834 41.9692 18.986C41.9707 18.986 41.9723 18.986 41.9736 18.986C42.0007 18.986 42.0236 18.9652 42.0259 18.9381C42.0301 18.8866 42.1228 18.8243 42.1974 18.7743C42.2925 18.7102 42.3822 18.65 42.3951 18.5666C42.4011 18.5282 42.3902 18.4913 42.3625 18.4564ZM41.4291 18.6471C41.399 18.5324 41.3281 18.4223 41.2395 18.3824C41.2864 18.3583 41.3195 18.3107 41.3195 18.2544C41.3195 18.1741 41.2544 18.1089 41.174 18.1089C41.0937 18.1089 41.0285 18.1739 41.0285 18.2544C41.0285 18.3107 41.0615 18.3583 41.1085 18.3824C41.0199 18.4222 40.9489 18.5323 40.9189 18.6471H40.6196L41.1424 17.8751C41.1532 17.8776 41.1637 17.8817 41.1755 17.8817C41.1872 17.8817 41.1976 17.8776 41.2086 17.8751L41.7313 18.6471H41.4291Z" fill="#FFE15A"/>
<path d="M40.1434 20.6405C40.1434 20.6405 40.1118 20.5312 40.1398 20.4325C40.168 20.3338 40.0955 20.2433 40.0801 20.1576C40.038 19.925 40.2348 19.865 40.2453 19.6572C40.2453 19.6572 40.3859 19.8018 40.3333 19.9393C40.2805 20.0768 40.4106 20.0979 40.3931 20.2282C40.3756 20.3586 40.2313 20.4961 40.2454 20.6124L40.1434 20.6405Z" fill="#FF4B55"/>
<path d="M42.3625 20.4193C42.2472 20.2752 42.0449 20.4305 41.8969 20.5434C41.8763 20.5592 41.8588 20.5713 41.8405 20.5846L41.2944 19.778C41.3097 19.755 41.3208 19.7289 41.3208 19.6992C41.3208 19.6188 41.2557 19.5537 41.1753 19.5537C41.0948 19.5537 41.0298 19.6188 41.0298 19.6992C41.0298 19.729 41.0409 19.7551 41.0561 19.778L40.4928 20.61H40.0938C40.0938 20.61 40.0773 20.8579 40.5129 20.888C40.569 20.973 40.6491 21.0407 40.745 21.079C40.7 21.0863 40.6637 21.1211 40.6637 21.1683V21.2266C40.6637 21.2303 40.6672 21.2324 40.6676 21.236H41.6823C41.6827 21.2325 41.6862 21.2304 41.6862 21.2266V21.1683C41.6862 21.1206 41.6493 21.0851 41.6035 21.0785C41.7733 21.0102 41.8927 20.8513 41.9128 20.6625C41.9286 20.6508 41.9433 20.64 41.9605 20.627C42.0677 20.5448 42.229 20.4196 42.2804 20.4852C42.2932 20.5012 42.292 20.5101 42.2915 20.5133C42.2856 20.5514 42.2043 20.6061 42.1389 20.6499C42.0361 20.7189 41.9298 20.7906 41.9214 20.8922C41.9189 20.9212 41.9403 20.9463 41.9692 20.949C41.9707 20.949 41.9723 20.949 41.9736 20.949C42.0007 20.949 42.0236 20.9282 42.0259 20.9011C42.0301 20.8496 42.1228 20.7873 42.1974 20.7373C42.2925 20.6731 42.3822 20.613 42.3951 20.5296C42.4011 20.4909 42.3902 20.4541 42.3625 20.4193ZM41.4291 20.6099C41.399 20.4952 41.3281 20.3851 41.2395 20.3452C41.2864 20.3211 41.3195 20.2735 41.3195 20.2172C41.3195 20.1369 41.2544 20.0717 41.174 20.0717C41.0937 20.0717 41.0285 20.1367 41.0285 20.2172C41.0285 20.2735 41.0615 20.3211 41.1085 20.3452C41.0199 20.385 40.9489 20.4951 40.9189 20.6099H40.6196L41.1424 19.8379C41.1532 19.8404 41.1637 19.8445 41.1755 19.8445C41.1872 19.8445 41.1976 19.8404 41.2086 19.8379L41.7313 20.6099H41.4291Z" fill="#FFE15A"/>
<path d="M40.1434 22.6024C40.1434 22.6024 40.1118 22.4932 40.1398 22.3944C40.168 22.2957 40.0955 22.2052 40.0801 22.1195C40.038 21.8869 40.2348 21.827 40.2453 21.6191C40.2453 21.6191 40.3859 21.7637 40.3333 21.9012C40.2805 22.0387 40.4106 22.0598 40.3931 22.1901C40.3756 22.3205 40.2313 22.458 40.2454 22.5743L40.1434 22.6024Z" fill="#FF4B55"/>
<path d="M42.3625 22.3812C42.2472 22.2371 42.0449 22.3924 41.8969 22.5053C41.8763 22.5211 41.8588 22.5332 41.8405 22.5465L41.2944 21.7399C41.3097 21.7169 41.3208 21.6908 41.3208 21.6611C41.3208 21.5808 41.2557 21.5156 41.1753 21.5156C41.0948 21.5156 41.0298 21.5807 41.0298 21.6611C41.0298 21.6909 41.0409 21.717 41.0561 21.7399L40.4928 22.5719H40.0938C40.0938 22.5719 40.0773 22.8198 40.5129 22.8499C40.569 22.935 40.6491 23.0026 40.745 23.0409C40.7 23.0482 40.6637 23.083 40.6637 23.1302V23.1885C40.6637 23.1922 40.6672 23.1943 40.6676 23.1979H41.6823C41.6827 23.1944 41.6862 23.1923 41.6862 23.1885V23.1302C41.6862 23.0825 41.6493 23.047 41.6035 23.0404C41.7733 22.9721 41.8927 22.8132 41.9128 22.6244C41.9286 22.6127 41.9433 22.602 41.9605 22.589C42.0677 22.5067 42.229 22.3815 42.2804 22.4471C42.2932 22.4631 42.292 22.472 42.2915 22.4752C42.2856 22.5133 42.2043 22.568 42.1389 22.6118C42.0361 22.6809 41.9298 22.7525 41.9214 22.8541C41.9189 22.8831 41.9403 22.9082 41.9692 22.9108C41.9707 22.9108 41.9723 22.9108 41.9736 22.9108C42.0007 22.9108 42.0236 22.89 42.0259 22.8629C42.0301 22.8114 42.1228 22.7491 42.1974 22.6991C42.2925 22.635 42.3822 22.5748 42.3951 22.4914C42.4011 22.4529 42.3902 22.4161 42.3625 22.3812ZM41.4291 22.5718C41.399 22.4571 41.3281 22.347 41.2395 22.3071C41.2864 22.283 41.3195 22.2354 41.3195 22.1791C41.3195 22.0988 41.2544 22.0336 41.174 22.0336C41.0937 22.0336 41.0285 22.0986 41.0285 22.1791C41.0285 22.2354 41.0615 22.283 41.1085 22.3071C41.0199 22.3469 40.9489 22.457 40.9189 22.5718H40.6196L41.1424 21.7998C41.1532 21.8023 41.1637 21.8064 41.1755 21.8064C41.1872 21.8064 41.1976 21.8023 41.2086 21.7998L41.7313 22.5718H41.4291Z" fill="#FFE15A"/>
<path d="M40.1434 24.5644C40.1434 24.5644 40.1118 24.4551 40.1398 24.3563C40.168 24.2576 40.0955 24.1671 40.0801 24.0814C40.038 23.8488 40.2348 23.7889 40.2453 23.5811C40.2453 23.5811 40.3859 23.7256 40.3333 23.8631C40.2805 24.0006 40.4106 24.0217 40.3931 24.152C40.3756 24.2824 40.2313 24.4199 40.2454 24.5362L40.1434 24.5644Z" fill="#FF4B55"/>
<path d="M42.3625 24.3432C42.2472 24.199 42.0449 24.3543 41.8969 24.4672C41.8763 24.483 41.8588 24.4951 41.8405 24.5084L41.2944 23.7019C41.3097 23.6788 41.3208 23.6527 41.3208 23.623C41.3208 23.5427 41.2557 23.4775 41.1753 23.4775C41.0948 23.4775 41.0298 23.5426 41.0298 23.623C41.0298 23.6528 41.0409 23.6789 41.0561 23.7019L40.4928 24.5338H40.0938C40.0938 24.5338 40.0773 24.7817 40.5129 24.8118C40.569 24.8969 40.6491 24.9645 40.745 25.0028C40.7 25.0102 40.6637 25.0449 40.6637 25.0921V25.1504C40.6637 25.1541 40.6672 25.1562 40.6676 25.1599H41.6823C41.6827 25.1563 41.6862 25.1542 41.6862 25.1504V25.0921C41.6862 25.0444 41.6493 25.0089 41.6035 25.0023C41.7733 24.934 41.8927 24.7751 41.9128 24.5863C41.9286 24.5746 41.9433 24.5639 41.9605 24.5509C42.0677 24.4687 42.229 24.3435 42.2804 24.409C42.2932 24.425 42.292 24.4339 42.2915 24.4371C42.2856 24.4752 42.2043 24.5299 42.1389 24.5737C42.0361 24.6428 41.9298 24.7145 41.9214 24.816C41.9189 24.845 41.9403 24.8701 41.9692 24.8728C41.9707 24.8728 41.9723 24.8728 41.9736 24.8728C42.0007 24.8728 42.0236 24.852 42.0259 24.8249C42.0301 24.7734 42.1228 24.7111 42.1974 24.6611C42.2925 24.597 42.3822 24.5368 42.3951 24.4534C42.4011 24.4149 42.3902 24.3781 42.3625 24.3432ZM41.4291 24.5338C41.399 24.4191 41.3281 24.309 41.2395 24.2691C41.2864 24.245 41.3195 24.1975 41.3195 24.1411C41.3195 24.0608 41.2544 23.9956 41.174 23.9956C41.0937 23.9956 41.0285 24.0606 41.0285 24.1411C41.0285 24.1975 41.0615 24.245 41.1085 24.2691C41.0199 24.3089 40.9489 24.419 40.9189 24.5338H40.6196L41.1424 23.7618C41.1532 23.7644 41.1637 23.7685 41.1755 23.7685C41.1872 23.7685 41.1976 23.7644 41.2086 23.7618L41.7313 24.5338H41.4291Z" fill="#FFE15A"/>
<path d="M40.1434 26.5272C40.1434 26.5272 40.1118 26.418 40.1398 26.3192C40.168 26.2205 40.0955 26.13 40.0801 26.0443C40.038 25.8117 40.2348 25.7518 40.2453 25.5439C40.2453 25.5439 40.3859 25.6885 40.3333 25.826C40.2805 25.9635 40.4106 25.9846 40.3931 26.1149C40.3756 26.2453 40.2313 26.3828 40.2454 26.4991L40.1434 26.5272Z" fill="#FF4B55"/>
<path d="M42.3625 26.3061C42.2472 26.1619 42.0449 26.3172 41.8969 26.4301C41.8763 26.4459 41.8588 26.458 41.8405 26.4713L41.2944 25.6647C41.3097 25.6417 41.3208 25.6156 41.3208 25.5859C41.3208 25.5056 41.2557 25.4404 41.1753 25.4404C41.0948 25.4404 41.0298 25.5056 41.0298 25.5859C41.0298 25.6157 41.0409 25.6418 41.0561 25.6647L40.4928 26.4967H40.0938C40.0938 26.4967 40.0773 26.7446 40.5129 26.7747C40.569 26.8598 40.6491 26.9274 40.745 26.9657C40.7 26.973 40.6637 27.0078 40.6637 27.055V27.1133C40.6637 27.117 40.6672 27.1191 40.6676 27.1228H41.6823C41.6827 27.1192 41.6862 27.1171 41.6862 27.1133V27.055C41.6862 27.0073 41.6493 26.9718 41.6035 26.9652C41.7733 26.8969 41.8927 26.738 41.9128 26.5492C41.9286 26.5375 41.9433 26.5269 41.9605 26.5138C42.0677 26.4315 42.229 26.3063 42.2804 26.3719C42.2932 26.3879 42.292 26.3968 42.2915 26.4C42.2856 26.4381 42.2043 26.4928 42.1389 26.5366C42.0361 26.6057 41.9298 26.6773 41.9214 26.7789C41.9189 26.8079 41.9403 26.833 41.9692 26.8357C41.9707 26.8357 41.9723 26.8357 41.9736 26.8357C42.0007 26.8357 42.0236 26.8149 42.0259 26.7878C42.0301 26.7363 42.1228 26.674 42.1974 26.624C42.2925 26.5599 42.3822 26.4997 42.3951 26.4163C42.4011 26.3777 42.3902 26.3408 42.3625 26.3061ZM41.4291 26.4967C41.399 26.382 41.3281 26.2719 41.2395 26.232C41.2864 26.2079 41.3195 26.1603 41.3195 26.104C41.3195 26.0237 41.2544 25.9585 41.174 25.9585C41.0937 25.9585 41.0285 26.0235 41.0285 26.104C41.0285 26.1603 41.0615 26.2079 41.1085 26.232C41.0199 26.2718 40.9489 26.3819 40.9189 26.4967H40.6196L41.1424 25.7247C41.1532 25.7272 41.1637 25.7313 41.1755 25.7313C41.1872 25.7313 41.1976 25.7272 41.2086 25.7247L41.7313 26.4967H41.4291Z" fill="#FFE15A"/>
<path d="M40.1434 28.4892C40.1434 28.4892 40.1118 28.3799 40.1398 28.2812C40.168 28.1824 40.0955 28.0919 40.0801 28.0062C40.038 27.7736 40.2348 27.7137 40.2453 27.5059C40.2453 27.5059 40.3859 27.6504 40.3333 27.7879C40.2805 27.9254 40.4106 27.9465 40.3931 28.0769C40.3755 28.2072 40.2313 28.3447 40.2454 28.461L40.1434 28.4892Z" fill="#FF4B55"/>
<path d="M42.3625 28.268C42.2472 28.1238 42.0449 28.2791 41.8969 28.392C41.8763 28.4078 41.8588 28.4199 41.8405 28.4331L41.2944 27.6267C41.3097 27.6036 41.3208 27.5775 41.3208 27.5479C41.3208 27.4675 41.2557 27.4023 41.1753 27.4023C41.0948 27.4023 41.0298 27.4675 41.0298 27.5479C41.0298 27.5776 41.0409 27.6037 41.0561 27.6267L40.4928 28.4586H40.0938C40.0938 28.4586 40.0773 28.7065 40.5129 28.7366C40.569 28.8217 40.6491 28.8893 40.745 28.9276C40.7 28.935 40.6637 28.9697 40.6637 29.0169V29.0752C40.6637 29.0789 40.6672 29.081 40.6676 29.0847H41.6823C41.6827 29.0811 41.6862 29.0789 41.6862 29.0752V29.0169C41.6862 28.9692 41.6493 28.9337 41.6035 28.9271C41.7733 28.8588 41.8927 28.6999 41.9128 28.5111C41.9286 28.4994 41.9433 28.4887 41.9605 28.4757C42.0677 28.3935 42.229 28.2683 42.2804 28.3338C42.2932 28.3498 42.292 28.3587 42.2915 28.3619C42.2856 28.4 42.2043 28.4547 42.1389 28.4985C42.0361 28.5676 41.9298 28.6393 41.9214 28.7408C41.9189 28.7698 41.9403 28.7949 41.9692 28.7977C41.9707 28.7977 41.9723 28.7977 41.9736 28.7977C42.0007 28.7977 42.0236 28.7769 42.0259 28.7497C42.0301 28.6982 42.1228 28.6359 42.1974 28.5859C42.2925 28.5218 42.3822 28.4616 42.3951 28.3782C42.4011 28.3396 42.3902 28.3028 42.3625 28.268ZM41.4291 28.4585C41.399 28.3438 41.3281 28.2337 41.2395 28.1938C41.2864 28.1697 41.3195 28.1222 41.3195 28.0658C41.3195 27.9855 41.2544 27.9203 41.174 27.9203C41.0937 27.9203 41.0285 27.9854 41.0285 28.0658C41.0285 28.1222 41.0615 28.1697 41.1085 28.1938C41.0199 28.2336 40.9489 28.3437 40.9189 28.4585H40.6196L41.1424 27.6865C41.1532 27.6891 41.1637 27.6932 41.1755 27.6932C41.1872 27.6932 41.1976 27.6891 41.2086 27.6865L41.7313 28.4585H41.4291Z" fill="#FFE15A"/>
<path d="M43.5095 16.7109C43.5095 16.7109 43.5095 24.0151 43.5095 27.0032C43.5095 29.3272 37.8653 31.6513 37.8653 31.6513C37.8653 31.6513 32.2212 29.3273 32.2212 27.0032C32.2212 24.015 32.2212 16.7109 32.2212 16.7109H37.8653H43.5095ZM43.8415 16.3789H43.5095H37.8653H32.2212H31.8892V16.7109V27.0032C31.8892 28.0899 32.8916 29.2601 34.8687 30.4813C36.2865 31.357 37.6803 31.9342 37.7389 31.9584L37.8652 32.0104L37.9916 31.9584C38.0502 31.9342 39.4439 31.357 40.8617 30.4813C42.8389 29.2601 43.8413 28.0899 43.8413 27.0032V16.7109L43.8415 16.3789Z" fill="#F5F5F5"/>
<path d="M43.8897 28.8335L45.3948 29.8716C43.6467 32.1141 40.9227 33.5602 37.8655 33.5602C34.8084 33.5602 32.0845 32.114 30.3362 29.8716L31.8413 28.8335C33.2571 30.6 35.4307 31.7342 37.8654 31.7342C40.3003 31.7341 42.4739 30.5999 43.8897 28.8335ZM43.8239 28.3848L43.6307 28.6258C42.2167 30.3901 40.1153 31.402 37.8657 31.402C35.6161 31.402 33.5147 30.3901 32.1007 28.6258L31.9075 28.3848L31.6532 28.5602L30.1481 29.5981L29.8584 29.7979L30.0748 30.0755C31.9657 32.5009 34.8055 33.8921 37.8658 33.8921C40.9262 33.8921 43.766 32.5011 45.6568 30.0755L45.8732 29.7979L45.5835 29.5981L44.0784 28.5602L43.8239 28.3848Z" fill="#F5F5F5"/>
<path d="M37.866 33.5606C40.9231 33.5606 43.647 32.1143 45.3953 29.872L43.8902 28.834C42.4744 30.6005 40.3008 31.7347 37.8661 31.7347C35.4314 31.7347 33.2578 30.6005 31.842 28.834L30.3369 29.872C32.085 32.1144 34.8089 33.5606 37.866 33.5606Z" fill="#FFE15A"/>
</g>
<defs>
<clipPath id="clip0_106_20220">
<rect width="50" height="50" fill="white"/>
</clipPath>
</defs>
</svg>
