<svg width="50" height="50" viewBox="0 0 50 50" fill="none" xmlns="http://www.w3.org/2000/svg">
<g clip-path="url(#clip0_106_20208)">
<path d="M49.1378 41.3796H0.862108C0.386034 41.3796 0 40.9936 0 40.5175V9.4832C0 9.00713 0.386034 8.62109 0.862108 8.62109H49.1379C49.614 8.62109 50 9.00713 50 9.4832V40.5175C49.9999 40.9937 49.6139 41.3796 49.1378 41.3796Z" fill="#FFE15A"/>
<path d="M0 9.48252V14.6549L49.9999 35.3445V29.31L0.388476 8.78125C0.159668 8.93613 0 9.18525 0 9.48252Z" fill="#F5F5F5"/>
<path d="M0 20.6897L49.6113 41.2185C49.8401 41.0635 49.9998 40.8144 49.9998 40.5172V35.3449L0 14.6553V20.6897Z" fill="#464655"/>
<path d="M29.8418 23.4695L29.8424 23.4451C29.8424 23.4451 29.831 23.327 29.8094 23.1055C29.8029 22.9947 29.7774 22.8599 29.7438 22.7026C29.7178 22.5441 29.6676 22.3668 29.6032 22.1711C29.4737 21.7827 29.2744 21.319 28.9302 20.8701C28.8886 20.8146 28.8394 20.7599 28.7941 20.7047C28.9893 20.4809 29.1797 20.2205 29.3593 19.9063C29.3593 19.9063 28.375 19.9515 27.2694 19.469C26.9045 19.279 26.5081 19.123 26.0733 19.0209L25.8671 18.196C25.8229 18.0196 25.6643 17.8958 25.4826 17.8958H25.1974V17.4995H26.5847L26.1884 16.7067L26.5847 15.914H25.1974V15.5176H24.8009V17.8958H24.5158C24.3339 17.8958 24.1754 18.0196 24.1313 18.196L23.9296 19.0031C23.6618 19.0602 23.3951 19.1325 23.1362 19.2426C22.9244 19.3273 22.7195 19.4336 22.5195 19.5525C21.5026 19.9429 20.6389 19.9064 20.6389 19.9064C20.8184 20.2204 21.0086 20.4807 21.2037 20.7044C21.1641 20.7524 21.1203 20.7956 21.082 20.845C20.812 21.2117 20.5964 21.624 20.4318 22.0618C20.2753 22.4869 20.1863 23.0265 20.1565 23.4209L20.1557 23.8022C20.1517 23.922 20.1654 24.0406 20.178 24.1597C20.1936 24.3996 20.2467 24.6338 20.2967 24.8697C20.4203 25.3344 20.6011 25.7864 20.8477 26.2014C21.3413 27.0328 22.094 27.6882 22.9381 28.0945C23.3741 28.2866 23.786 28.433 24.2775 28.5028C24.5393 28.5515 24.7024 28.5508 24.8964 28.5677L24.9316 28.5702L24.9493 28.5715L25.0068 28.5729L25.0893 28.5695L25.2538 28.5621C25.363 28.5548 25.4721 28.5561 25.5791 28.5402C26.4416 28.4456 27.219 28.1102 27.826 27.6748C28.433 27.2316 28.8689 26.6911 29.1675 26.1759C29.4709 25.6601 29.6273 25.1611 29.7238 24.7523C29.7699 24.5482 29.8042 24.3617 29.8167 24.1863C29.8363 24.0127 29.8477 23.8705 29.8425 23.7776C29.8421 23.5766 29.8418 23.4695 29.8418 23.4695ZM22.6379 26.263C22.3625 26.0483 22.1135 25.7925 21.8866 25.5102C21.6681 25.2213 21.4936 24.8953 21.3566 24.5487C21.2274 24.2096 21.1563 23.8018 21.1214 23.4695C21.1117 23.0083 21.1333 22.6937 21.2214 22.3005C21.3174 21.9269 21.4574 21.5613 21.6522 21.224C21.6635 21.2045 21.6789 21.1879 21.6905 21.1686C22.5916 21.8725 23.5429 21.8225 24.2064 21.4809V22.256C24.4253 22.256 24.6027 22.6997 24.6027 23.247C24.6027 23.7942 24.4253 24.2379 24.2064 24.2379V24.6342C24.9499 25.6253 24.6088 26.4616 24.1519 26.9492C23.9446 26.9042 23.7295 26.8436 23.5283 26.7644C23.2163 26.6431 22.9199 26.4683 22.6379 26.263ZM28.8764 23.425C28.8757 23.4308 28.8652 23.5327 28.8451 23.7269C28.839 23.8352 28.8151 23.9378 28.7875 24.0514C28.7677 24.1659 28.7258 24.3046 28.672 24.4618C28.5647 24.7698 28.4033 25.1376 28.1226 25.4899C27.8483 25.8433 27.4783 26.1924 27.0167 26.4655C26.6657 26.6738 26.2532 26.8147 25.8173 26.9148C25.3759 26.4229 25.0651 25.6035 25.7922 24.6343V24.238C25.5733 24.238 25.3959 23.7943 25.3959 23.2471C25.3959 22.6998 25.5733 22.2561 25.7922 22.2561V21.4809C26.4564 21.8229 27.4092 21.8728 28.3113 21.1664C28.3267 21.1924 28.3456 21.2187 28.3601 21.2445C28.6 21.6637 28.7185 22.0668 28.7928 22.395C28.8283 22.5607 28.8544 22.7086 28.8605 22.8399C28.8742 22.9699 28.8841 23.0799 28.8785 23.1704C28.8771 23.324 28.8765 23.4018 28.8764 23.425Z" fill="#FF4B55"/>
<path d="M24.9993 29.3908C23.5357 29.3908 22.2081 28.8207 21.2173 27.8941C21.0354 27.7241 20.7476 27.7447 20.5855 27.9338L19.0677 29.7046C18.9064 29.8929 19.0402 30.1836 19.2879 30.1836H20.2425L21.5151 30.8199C21.6939 30.9094 21.9113 30.8515 22.0222 30.6852L22.4318 30.0708C23.2234 30.3974 24.0897 30.58 24.9992 30.58C25.9086 30.58 26.7749 30.3974 27.5665 30.0708L27.9761 30.6852C28.0869 30.8516 28.3043 30.9093 28.4832 30.8199L29.7558 30.1836H30.7104C30.9582 30.1836 31.092 29.8929 30.9306 29.7046L29.4128 27.9338C29.2507 27.7446 28.9629 27.7241 28.781 27.8941C27.7905 28.8207 26.463 29.3908 24.9993 29.3908Z" fill="#FF4B55"/>
<path d="M19.45 27.805H17.468L17.8643 24.2375C17.8643 24.2375 16.4769 23.5437 16.6222 21.5074C16.6399 21.2598 16.8493 21.0664 17.0975 21.0664H17.4358C17.6694 21.0664 17.8652 21.2357 17.9039 21.4661C17.9873 21.9633 18.2467 22.7794 19.0535 23.0483L19.45 27.805Z" fill="#FF4B55"/>
<path d="M30.5486 27.805H32.5305L32.1342 24.2375C32.1342 24.2375 33.5216 23.5437 33.3763 21.5074C33.3586 21.2598 33.1493 21.0664 32.901 21.0664H32.5627C32.3291 21.0664 32.1333 21.2357 32.0947 21.4661C32.0113 21.9633 31.7518 22.7794 30.9451 23.0483L30.5486 27.805Z" fill="#FF4B55"/>
<path d="M19.6489 28.201H17.2707C17.1612 28.201 17.0725 28.1123 17.0725 28.0028C17.0725 27.8934 17.1612 27.8047 17.2707 27.8047H19.6489C19.7583 27.8047 19.847 27.8934 19.847 28.0028C19.847 28.1122 19.7582 28.201 19.6489 28.201Z" fill="#FFE15A"/>
<path d="M32.7285 28.201H30.3502C30.2408 28.201 30.1521 28.1123 30.1521 28.0028C30.1521 27.8934 30.2408 27.8047 30.3502 27.8047H32.7285C32.8379 27.8047 32.9266 27.8934 32.9266 28.0028C32.9266 28.1122 32.8379 28.201 32.7285 28.201Z" fill="#FFE15A"/>
</g>
<defs>
<clipPath id="clip0_106_20208">
<rect width="50" height="50" fill="white"/>
</clipPath>
</defs>
</svg>
