<svg width="50" height="50" viewBox="0 0 50 50" fill="none" xmlns="http://www.w3.org/2000/svg">
<g clip-path="url(#clip0_106_20200)">
<path d="M50.0001 25.0004H0.000244141V9.4832C0.000244141 9.00713 0.386279 8.62109 0.862352 8.62109H49.1381C49.6142 8.62109 50.0002 9.00713 50.0002 9.4832L50.0001 25.0004Z" fill="#FF4B55"/>
<path d="M0.000244141 25H50.0001V40.5172C50.0001 40.9932 49.6141 41.3793 49.138 41.3793H0.862352C0.386279 41.3793 0.000244141 40.9932 0.000244141 40.5172V25Z" fill="#73AF00"/>
<path d="M25.2624 20.2983L26.3469 23.5503L29.7749 23.5769C30.0405 23.579 30.1506 23.9179 29.937 24.0757L27.1794 26.1121L28.2134 29.3805C28.2935 29.6338 28.0052 29.8432 27.7892 29.6888L25.0003 27.6953L22.2114 29.6888C21.9954 29.8431 21.707 29.6337 21.7872 29.3805L22.8213 26.1121L20.0637 24.0757C19.85 23.918 19.9601 23.579 20.2258 23.5769L23.6537 23.5503L24.7383 20.2983C24.822 20.0464 25.1784 20.0464 25.2624 20.2983Z" fill="#FFE15A"/>
</g>
<defs>
<clipPath id="clip0_106_20200">
<rect width="50" height="50" fill="white"/>
</clipPath>
</defs>
</svg>
