<svg width="50" height="50" viewBox="0 0 50 50" fill="none" xmlns="http://www.w3.org/2000/svg">
<g clip-path="url(#clip0_106_20188)">
<path d="M49.1371 8.61621H0.861375C0.385302 8.61621 -0.000732422 9.00225 -0.000732422 9.47832V40.5126C-0.000732422 40.9887 0.385302 41.3747 0.861375 41.3747H49.1372C49.6132 41.3747 49.9993 40.9887 49.9993 40.5126V9.47832C49.9992 9.00225 49.6131 8.61621 49.1371 8.61621Z" fill="#73AF00"/>
<path d="M3.93164 8.61621L24.9993 22.4192L46.067 8.61621H3.93164Z" fill="#FF4B55"/>
<path d="M46.0675 41.385L24.9998 27.582L3.93213 41.385H46.0675Z" fill="#FF4B55"/>
<path d="M49.9992 9.47832C49.9992 9.00225 49.6131 8.61621 49.1371 8.61621H46.067L30.0476 19.1116C28.6902 17.9459 26.9289 17.237 24.9992 17.237C23.0695 17.237 21.3082 17.9458 19.9508 19.1116L3.93149 8.61621H0.861375C0.385302 8.61621 -0.000732422 9.00225 -0.000732422 9.47832V11.1926L17.583 22.7129C17.3611 23.4346 17.2405 24.201 17.2405 24.9955C17.2405 25.79 17.3611 26.5562 17.583 27.2781L-0.000732422 38.7985V40.5127C-0.000732422 40.9888 0.385302 41.3748 0.861375 41.3748H3.93149L19.9507 30.8795C21.3081 32.0453 23.0694 32.7543 24.9991 32.7543C26.9288 32.7543 28.6901 32.0455 30.0476 30.8795L46.0668 41.3748H49.1369C49.6129 41.3748 49.999 40.9888 49.999 40.5127V38.7985L32.4153 27.2782C32.6372 26.5564 32.7578 25.79 32.7578 24.9956C32.7578 24.201 32.6372 23.4348 32.4153 22.713L49.9991 11.1927L49.9992 9.47832Z" fill="#F5F5F5"/>
<path d="M24.4407 22.5143L23.2717 22.5445L23.8821 21.5469L23.2717 20.5493L24.4407 20.5796L24.9992 19.5518L25.5579 20.5796L26.7268 20.5493L26.1164 21.5469L26.7268 22.5445L25.5579 22.5143L24.9992 23.5421L24.4407 22.5143Z" fill="#FF4B55"/>
<path d="M24.9991 19.8227L25.4818 20.7105L26.4922 20.6847L25.9646 21.5468L26.4922 22.4089L25.4818 22.383L24.9991 23.2709L24.5164 22.383L23.5061 22.4089L24.0336 21.5468L23.5061 20.6847L24.5164 20.7105L24.9991 19.8227ZM24.9991 19.2812L24.7719 19.6991L24.3647 20.448L23.5126 20.4262L23.0371 20.414L23.2854 20.8198L23.7304 21.5469L23.2854 22.2739L23.0371 22.6798L23.5126 22.6676L24.3647 22.6457L24.7719 23.3946L24.9991 23.8125L25.2264 23.3946L25.6335 22.6457L26.4856 22.6676L26.9612 22.6798L26.713 22.2739L26.268 21.5469L26.713 20.8198L26.9612 20.414L26.4856 20.4262L25.6335 20.448L25.2264 19.6991L24.9991 19.2812Z" fill="#73AF00"/>
<path d="M21.2302 28.2281L20.0613 28.2585L20.6716 27.2608L20.0613 26.2633L21.2302 26.2936L21.7888 25.2656L22.3474 26.2936L23.5163 26.2633L22.9059 27.2608L23.5163 28.2585L22.3474 28.2281L21.7888 29.2559L21.2302 28.2281Z" fill="#FF4B55"/>
<path d="M21.789 25.5366L22.2717 26.4245L23.2821 26.3986L22.7545 27.2607L23.2821 28.1228L22.2717 28.097L21.789 28.9849L21.3063 28.097L20.2959 28.1228L20.8235 27.2607L20.2959 26.3986L21.3063 26.4245L21.789 25.5366ZM21.789 24.9951L21.5618 25.413L21.1546 26.1619L20.3025 26.14L19.8269 26.1278L20.0751 26.5337L20.5202 27.2607L20.0751 27.9878L19.8269 28.3936L20.3025 28.3814L21.1546 28.3596L21.5618 29.1085L21.789 29.5264L22.0163 29.1085L22.4234 28.3596L23.2755 28.3814L23.7511 28.3936L23.5029 27.9878L23.0579 27.2607L23.5029 26.5337L23.7511 26.1278L23.2755 26.14L22.4234 26.1619L22.0163 25.413L21.789 24.9951Z" fill="#73AF00"/>
<path d="M27.6509 28.2281L26.4819 28.2585L27.0923 27.2608L26.4819 26.2633L27.6509 26.2936L28.2094 25.2656L28.7681 26.2936L29.937 26.2633L29.3267 27.2608L29.937 28.2585L28.7681 28.2281L28.2094 29.2559L27.6509 28.2281Z" fill="#FF4B55"/>
<path d="M28.2097 25.5366L28.6924 26.4245L29.7027 26.3986L29.1752 27.2607L29.7027 28.1228L28.6924 28.097L28.2097 28.9849L27.7269 28.097L26.7166 28.1228L27.2441 27.2607L26.7166 26.3986L27.7269 26.4245L28.2097 25.5366ZM28.2097 24.9951L27.9824 25.413L27.5753 26.1619L26.7231 26.14L26.2476 26.1278L26.4958 26.5337L26.9408 27.2607L26.4958 27.9878L26.2476 28.3936L26.7231 28.3814L27.5753 28.3596L27.9824 29.1085L28.2097 29.5264L28.4369 29.1085L28.844 28.3596L29.6962 28.3814L30.1718 28.3936L29.9235 27.9878L29.4785 27.2607L29.9235 26.5337L30.1718 26.1278L29.6962 26.14L28.844 26.1619L28.4369 25.413L28.2097 24.9951Z" fill="#73AF00"/>
</g>
<defs>
<clipPath id="clip0_106_20188">
<rect width="50" height="50" fill="white"/>
</clipPath>
</defs>
</svg>
