<svg width="50" height="50" viewBox="0 0 50 50" fill="none" xmlns="http://www.w3.org/2000/svg">
<g clip-path="url(#clip0_106_20184)">
<path d="M49.1383 41.3796H0.862596C0.386523 41.3796 0.000488281 40.9936 0.000488281 40.5175V9.4832C0.000488281 9.00713 0.386523 8.62109 0.862596 8.62109H49.1384C49.6145 8.62109 50.0005 9.00713 50.0005 9.4832V40.5175C50.0004 40.9937 49.6144 41.3796 49.1383 41.3796Z" fill="#41479B"/>
<path d="M50.0004 16.3789H0.000488281V33.6201H50.0004V16.3789Z" fill="#FF4B55"/>
<path d="M36.4081 31.537V30.3145H36.0006V29.4997H35.5931V28.6849H35.1857V27.8701H33.9634V25.4256H33.9633L34.3709 25.0182V23.7959H33.9634V22.981H33.556V21.7588H33.1487V20.9439H32.7413V20.1291H32.3339V19.7217H31.5189V20.1291H31.1115V20.9439H30.7041V21.7588H30.2967V22.981H29.8893V23.7959H27.4447V22.5736H27.0374V21.3514H26.63V20.1291H26.2225V19.3143H25.8151V18.4994H25.4077V18.092H25.204V17.6846H24.7966V18.092H24.5928V18.4994H24.1854V19.3143H23.778V20.1291H23.3706V21.3514H22.9632V22.5736H22.5557V23.7959H20.1112V22.981H19.7038V21.7588H19.2964V20.9439H18.889V20.1291H18.4815V19.7217H17.6667V20.1291H17.2593V20.9439H16.8518V21.7588H16.4444V22.981H16.037V23.7959H15.6296V25.0182L16.0368 25.4256H16.037V27.8701H14.8148V28.6849H14.4074V29.4997H13.9999V30.3145H13.5925V31.537H13.1851V32.7591H36.8154V31.537H36.4081Z" fill="#F5F5F5"/>
</g>
<defs>
<clipPath id="clip0_106_20184">
<rect width="50" height="50" fill="white"/>
</clipPath>
</defs>
</svg>
