<svg width="50" height="50" viewBox="0 0 50 50" fill="none" xmlns="http://www.w3.org/2000/svg">
<g clip-path="url(#clip0_106_20178)">
<path d="M16.6662 41.3787H0.861621C0.385547 41.3787 -0.000488281 40.9927 -0.000488281 40.5166V9.48223C-0.000488281 9.00615 0.385547 8.62012 0.861621 8.62012H16.6662V41.3787Z" fill="#73AF00"/>
<path d="M33.3335 8.62109H16.6665V41.3799H33.3335V8.62109Z" fill="#FF4B55"/>
<path d="M49.1381 41.3787H33.3335V8.62012H49.1381C49.6142 8.62012 50.0002 9.00615 50.0002 9.48223V40.5166C50.0002 40.9928 49.6142 41.3787 49.1381 41.3787Z" fill="#FFE15A"/>
<path d="M25.1791 21.8399L25.9198 24.0607L28.2607 24.0788C28.442 24.0801 28.5172 24.3117 28.3713 24.4194L26.4881 25.81L27.1943 28.0421C27.2491 28.215 27.0522 28.358 26.9045 28.2525L25 26.8913L23.0955 28.2526C22.948 28.3581 22.7511 28.215 22.8058 28.0422L23.5119 25.8101L21.6287 24.4195C21.4828 24.3118 21.558 24.0802 21.7394 24.0789L24.0803 24.0608L24.8209 21.84C24.8784 21.6679 25.1217 21.6679 25.1791 21.8399Z" fill="#FFE15A"/>
</g>
<defs>
<clipPath id="clip0_106_20178">
<rect width="50" height="50" fill="white"/>
</clipPath>
</defs>
</svg>
