<svg width="50" height="50" viewBox="0 0 50 50" fill="none" xmlns="http://www.w3.org/2000/svg">
<g clip-path="url(#clip0_106_20170)">
<path d="M49.1383 41.3787H0.862596C0.386523 41.3787 0.000488281 40.9927 0.000488281 40.5166V9.48222C0.000488281 9.00615 0.386523 8.62012 0.862596 8.62012H49.1384C49.6145 8.62012 50.0005 9.00615 50.0005 9.48222V40.5166C50.0004 40.9928 49.6144 41.3787 49.1383 41.3787Z" fill="#F5F5F5"/>
<path d="M38.7939 8.62012H11.208V41.3788H38.7939V8.62012Z" fill="#F5F5F5"/>
<path d="M0.862596 8.62012C0.386523 8.62012 0.000488281 9.00605 0.000488281 9.48213V40.5165C0.000488281 40.9926 0.386523 41.3787 0.862596 41.3787H11.2074V8.62012H0.862596Z" fill="#FF4B55"/>
<path d="M49.1388 8.62012H38.7939V41.3787H49.1388C49.6148 41.3787 50.0009 40.9926 50.0009 40.5165V9.48213C50.0009 9.00605 49.6148 8.62012 49.1388 8.62012Z" fill="#FF4B55"/>
<path d="M30.2327 28.7843L35.3482 25.8612L34.1744 25.2743C33.8452 25.1097 33.6567 24.7542 33.7054 24.3892L34.0874 21.5258L31.9216 22.1558C31.4432 22.2951 30.9467 22.0008 30.8391 21.5143L30.6317 20.5768L28.5982 22.9567C28.3163 23.2866 27.7793 23.0347 27.8528 22.6069L28.7213 17.5573L27.3917 17.921C27.0033 18.0272 26.5931 17.8505 26.4038 17.4952L25.0037 14.8711V14.8672L25.0027 14.8691L25.0016 14.8672V14.8711L23.6015 17.4952C23.412 17.8504 23.0018 18.0271 22.6135 17.921L21.2838 17.5573L22.1522 22.6069C22.2258 23.0345 21.6887 23.2865 21.4067 22.9567L19.3732 20.5768L19.1658 21.5143C19.0582 22.0009 18.5617 22.295 18.0833 22.1558L15.9176 21.5258L16.2995 24.3892C16.3482 24.7541 16.1598 25.1097 15.8306 25.2743L14.6567 25.8612L19.7723 28.7844C20.3021 29.0872 20.5344 29.7294 20.3206 30.3009L19.8833 31.4706L24.2666 31.0964C24.5092 31.0757 24.7156 31.271 24.7085 31.5142L24.5704 36.206H25.4325L25.2943 31.514C25.2872 31.2707 25.4936 31.0755 25.7362 31.0962L30.1216 31.4706L29.6842 30.3009C29.4707 29.7293 29.7028 29.087 30.2327 28.7843Z" fill="#FF4B55"/>
</g>
<defs>
<clipPath id="clip0_106_20170">
<rect width="50" height="50" fill="white"/>
</clipPath>
</defs>
</svg>
