<svg width="50" height="50" viewBox="0 0 50 50" fill="none" xmlns="http://www.w3.org/2000/svg">
<g clip-path="url(#clip0_106_20142)">
<path d="M16.6662 41.3787H0.861621C0.385547 41.3787 -0.000488281 40.9927 -0.000488281 40.5166V9.48223C-0.000488281 9.00615 0.385547 8.62012 0.861621 8.62012H16.6662V41.3787Z" fill="#F5F5F5"/>
<path d="M33.3335 8.62109H16.6665V41.3799H33.3335V8.62109Z" fill="#4173CD"/>
<path d="M49.1376 41.3787H33.333V8.62012H49.1376C49.6137 8.62012 49.9997 9.00615 49.9997 9.48223V40.5166C49.9997 40.9928 49.6137 41.3787 49.1376 41.3787Z" fill="#FFE15A"/>
<path d="M22.3977 25.9566C22.3877 26.214 22.0017 26.3229 22.0017 26.3229C21.9621 25.8873 22.4076 25.0855 22.4966 25.0162C22.5857 24.9469 22.9421 24.6202 22.5857 24.6895C22.2294 24.7588 21.8828 25.5606 21.8036 25.6991C21.7244 25.8377 21.5363 25.8279 21.5363 25.8279C21.5363 25.8279 21.5363 25.1844 21.5363 25.0458C21.5363 24.9072 22.1501 24.6103 22.1501 24.6103C22.1501 24.6103 22.2491 24.0163 22.1601 23.957C22.0709 23.8976 21.8829 24.0659 21.6155 24.0857C21.3482 24.1055 21.0216 24.1155 20.7444 24.3728C20.4673 24.6302 20.4573 24.8083 20.4573 25.2439C20.4573 25.6794 20.4573 25.2439 20.4573 26.2932C20.4573 27.3425 19.4772 28.0751 19.111 28.4413C19.0113 28.541 18.9731 28.663 18.9698 28.7909C18.8962 28.8599 18.7338 28.9604 18.5981 28.9313C18.3896 28.8864 18.3586 28.5198 18.3586 28.3053C18.3586 28.2397 18.3055 28.1865 18.2398 28.1865C18.1742 28.1865 18.1211 28.2397 18.1211 28.3053C18.1211 29.0311 18.4301 29.1603 18.6141 29.1729C18.6242 29.1736 18.6343 29.1738 18.6446 29.1738C18.7666 29.1738 18.8978 29.1257 19.0065 29.0585C19.0773 29.3148 19.2265 29.553 19.2692 29.6491C19.3484 29.8274 18.9129 30.1145 18.9129 30.1145L19.2692 31.2133H19.7544C19.7544 30.9411 19.4229 30.9955 19.3732 30.9262C19.3238 30.8569 19.2645 30.2282 19.2645 30.2282L19.9527 29.6524C20.0059 29.6079 20.0365 29.5422 20.0365 29.473V29.1665C20.0365 29.1665 20.5414 29.2482 20.6677 29.3595C20.7938 29.4709 20.6825 29.805 20.6825 29.8494C20.6825 29.894 21.321 30.4582 21.321 30.4582H21.7591C21.7591 30.2578 21.5512 30.2653 21.4473 30.228C21.3433 30.1909 21.0315 29.8049 21.0315 29.8049C21.0315 29.8049 21.1999 29.2827 21.1999 29.154C21.1999 29.0253 20.4772 28.5007 20.4772 28.5007C20.4772 28.5007 20.5763 28.3323 21.3088 27.877C22.0413 27.4216 21.9819 26.9069 21.9819 26.9069L22.6155 26.1942V25.6794C22.6154 25.6793 22.4075 25.6991 22.3977 25.9566Z" fill="#C17400"/>
<path d="M27.6187 25.9566C27.6287 26.214 28.0147 26.3229 28.0147 26.3229C28.0543 25.8873 27.6088 25.0855 27.5198 25.0162C27.4307 24.9469 27.0743 24.6202 27.4307 24.6895C27.787 24.7588 28.1336 25.5606 28.2128 25.6991C28.292 25.8377 28.4801 25.8279 28.4801 25.8279C28.4801 25.8279 28.4801 25.1844 28.4801 25.0458C28.4801 24.9072 27.8663 24.6103 27.8663 24.6103C27.8663 24.6103 27.7673 24.0163 27.8563 23.957C27.9455 23.8976 28.1335 24.0659 28.4009 24.0857C28.6682 24.1055 28.9948 24.1155 29.272 24.3728C29.5491 24.6302 29.5591 24.8083 29.5591 25.2439C29.5591 25.6794 29.5591 25.2439 29.5591 26.2932C29.5591 27.3425 30.5391 28.0751 30.9054 28.4413C31.0051 28.541 31.0432 28.663 31.0465 28.7909C31.1201 28.8599 31.2825 28.9604 31.4182 28.9313C31.6266 28.8864 31.6577 28.5198 31.6577 28.3053C31.6577 28.2397 31.7108 28.1865 31.7765 28.1865C31.8421 28.1865 31.8952 28.2397 31.8952 28.3053C31.8952 29.0311 31.5862 29.1603 31.4022 29.1729C31.3921 29.1736 31.382 29.1738 31.3717 29.1738C31.2497 29.1738 31.1185 29.1257 31.0098 29.0585C30.939 29.3148 30.7898 29.553 30.7471 29.6491C30.6679 29.8274 31.1034 30.1145 31.1034 30.1145L30.7471 31.2133H30.2619C30.2619 30.9411 30.5935 30.9955 30.6431 30.9262C30.6926 30.8569 30.7518 30.2282 30.7518 30.2282L30.0636 29.6524C30.0104 29.6079 29.9798 29.5422 29.9798 29.473V29.1665C29.9798 29.1665 29.4749 29.2482 29.3486 29.3595C29.2224 29.4709 29.3338 29.805 29.3338 29.8494C29.3338 29.8939 28.6953 30.4582 28.6953 30.4582H28.2572C28.2572 30.2578 28.4651 30.2653 28.569 30.228C28.673 30.1909 28.9848 29.8049 28.9848 29.8049C28.9848 29.8049 28.8164 29.2827 28.8164 29.154C28.8164 29.0253 29.5391 28.5007 29.5391 28.5007C29.5391 28.5007 29.44 28.3323 28.7075 27.877C27.975 27.4216 28.0344 26.9069 28.0344 26.9069L27.4008 26.1942V25.6794C27.401 25.6793 27.6088 25.6991 27.6187 25.9566Z" fill="#C17400"/>
<path d="M24.056 25.2783L23.3433 25.991H24.7688L24.056 25.2783Z" fill="#C8C8C8"/>
<path d="M25.9563 25.2783L25.2437 25.991H26.669L25.9563 25.2783Z" fill="#C8C8C8"/>
<path d="M24.0555 26.4658L23.3428 27.1785H24.7684L24.0555 26.4658Z" fill="#C8C8C8"/>
<path d="M25.9563 26.4658L25.2437 27.1785H26.669L25.9563 26.4658Z" fill="#C8C8C8"/>
<path d="M24.0555 27.6543L23.3428 28.367H24.7684L24.0555 27.6543Z" fill="#C8C8C8"/>
<path d="M25.9563 27.6543L25.2437 28.367H26.669L25.9563 27.6543Z" fill="#C8C8C8"/>
<path d="M25.0059 28.8418L24.293 29.5545H25.7186L25.0059 28.8418Z" fill="#C8C8C8"/>
<path d="M25.1242 21.4775H24.8872V22.903H25.1242V21.4775Z" fill="#FFE15A"/>
<path d="M23.7029 22.9314C23.6989 22.916 23.6114 22.5513 23.8571 22.2855C24.0735 22.0511 24.4672 21.9796 25.0256 22.0728L24.9866 22.3072C24.5181 22.2287 24.188 22.2772 24.0316 22.4466C23.8746 22.6166 23.9328 22.8714 23.9334 22.874L23.7029 22.9314Z" fill="#FFE15A"/>
<path d="M23.052 23.7218C22.7551 23.5733 22.6092 23.1422 22.7333 22.7803C22.7854 22.6285 23.0194 22.1465 23.8412 22.3112L23.7946 22.5442C23.3604 22.4567 23.0562 22.5717 22.9581 22.8575C22.8735 23.1041 22.9689 23.4148 23.1582 23.5094L23.052 23.7218Z" fill="#FFE15A"/>
<path d="M26.3093 22.9315L26.0789 22.874L26.1941 22.9028L26.0787 22.8745C26.0794 22.872 26.1383 22.6158 25.9793 22.4453C25.8223 22.2769 25.4926 22.229 25.0258 22.3072L24.9868 22.0728C25.546 21.9795 25.939 22.0513 26.1553 22.2855C26.4008 22.5515 26.3131 22.9162 26.3093 22.9315Z" fill="#FFE15A"/>
<path d="M26.9597 23.7219L26.8534 23.5094C27.0428 23.4147 27.1382 23.104 27.0535 22.8574C26.9555 22.5718 26.6507 22.457 26.2171 22.5441L26.1704 22.3111C26.9929 22.1466 27.2263 22.6288 27.2783 22.7803C27.4025 23.1423 27.2565 23.5733 26.9597 23.7219Z" fill="#FFE15A"/>
<path d="M25.9566 22.9017C25.9566 22.9017 25.4814 22.6641 25.0063 22.6641C24.5312 22.6641 24.0561 22.9017 24.0561 22.9017C23.5809 22.6641 22.8682 22.9017 22.8682 23.3769C22.8682 23.852 23.5809 24.5647 23.5809 24.5647H25.0064H26.4319C26.4319 24.5647 27.1446 23.852 27.1446 23.3769C27.1446 22.9017 26.4318 22.6641 25.9566 22.9017Z" fill="#FF4B55"/>
<path d="M25.2442 21.5957H24.769V21.8333H25.2442V21.5957Z" fill="#FFE15A"/>
<path d="M27.383 20.2891H22.6309V21.2394H27.383V20.2891Z" fill="#C8C8C8"/>
<path d="M23.2189 21.5755L22.9937 20.8994L21.5682 21.3744L21.7934 22.0504L23.2189 21.5755Z" fill="#C8C8C8"/>
<path d="M28.447 21.3765L27.0215 20.9014L26.7962 21.5774L28.2217 22.0525L28.447 21.3765Z" fill="#C8C8C8"/>
<path d="M25.0064 30.3858C23.631 30.3858 22.5117 29.6931 22.5117 28.8416V24.8026C22.5117 24.6061 22.6716 24.4463 22.8681 24.4463H27.1446C27.3412 24.4463 27.501 24.6062 27.501 24.8026V28.8416C27.5011 29.6931 26.3819 30.3858 25.0064 30.3858ZM22.8681 24.6838C22.8025 24.6838 22.7493 24.7371 22.7493 24.8025V28.8415C22.7493 29.5619 23.7618 30.1481 25.0064 30.1481C26.2511 30.1481 27.2636 29.5618 27.2636 28.8415V24.8025C27.2636 24.7371 27.2104 24.6838 27.1448 24.6838H22.8681Z" fill="#464655"/>
</g>
<defs>
<clipPath id="clip0_106_20142">
<rect width="50" height="50" fill="white"/>
</clipPath>
</defs>
</svg>
