<svg width="50" height="50" viewBox="0 0 50 50" fill="none" xmlns="http://www.w3.org/2000/svg">
<g clip-path="url(#clip0_106_20125)">
<path d="M49.1388 41.3796H0.863084C0.387011 41.3796 0.000976562 40.9936 0.000976562 40.5175V9.4832C0.000976562 9.00713 0.387011 8.62109 0.863084 8.62109H49.1389C49.6149 8.62109 50.001 9.00713 50.001 9.4832V40.5175C50.0009 40.9937 49.6148 41.3796 49.1388 41.3796Z" fill="#41479B"/>
<path d="M50.0009 27.5859H0.000976562V29.8848H50.0009V27.5859Z" fill="#F5F5F5"/>
<path d="M50.0019 32.1846H0.00195312V34.4834H50.0019V32.1846Z" fill="#F5F5F5"/>
<path d="M50.0009 29.8848H0.000976562V32.1836H50.0009V29.8848Z" fill="#FF4B55"/>
<path d="M16.5685 22.9162L16.8329 23.709L17.6686 23.7154C17.7333 23.716 17.7602 23.7985 17.7081 23.837L17.0358 24.3335L17.2879 25.1302C17.3074 25.192 17.2371 25.243 17.1845 25.2053L16.5045 24.7193L15.8245 25.2053C15.7718 25.2429 15.7016 25.192 15.7211 25.1302L15.9732 24.3335L15.3009 23.837C15.2488 23.7985 15.2757 23.7159 15.3404 23.7154L16.1761 23.709L16.4405 22.9162C16.461 22.8548 16.5481 22.8548 16.5685 22.9162Z" fill="#FFE15A"/>
<path d="M16.5685 36.8478L16.8329 37.6406L17.6686 37.647C17.7333 37.6476 17.7602 37.7302 17.7081 37.7686L17.0358 38.2651L17.2879 39.0619C17.3074 39.1236 17.2371 39.1747 17.1845 39.137L16.5045 38.651L15.8245 39.137C15.7718 39.1746 15.7016 39.1236 15.7211 39.0619L15.9732 38.2651L15.3009 37.7686C15.2488 37.7302 15.2757 37.6475 15.3404 37.647L16.1761 37.6406L16.4405 36.8478C16.461 36.7864 16.5481 36.7864 16.5685 36.8478Z" fill="#FFE15A"/>
<path d="M12.0461 37.6259L12.718 37.129L13.4056 37.604C13.4588 37.6408 13.5284 37.5886 13.5079 37.5272L13.243 36.7345L13.9073 36.2273C13.9587 36.1879 13.9305 36.1058 13.8658 36.1064L13.0301 36.1133L12.753 35.3248C12.7315 35.2637 12.6447 35.2652 12.6252 35.3269L12.3735 36.1239L11.5381 36.1438C11.4733 36.1452 11.4478 36.2284 11.5006 36.266L12.1807 36.7515L11.9415 37.5523C11.9229 37.6145 11.9939 37.6645 12.0461 37.6259Z" fill="#FFE15A"/>
<path d="M13.3902 26.3005L12.7079 25.818L12.0305 26.3074C11.978 26.3453 11.9074 26.2946 11.9267 26.2327L12.1747 25.4347L11.4999 24.9416C11.4477 24.9034 11.474 24.8207 11.5388 24.8198L12.3744 24.8092L12.6349 24.0151C12.655 23.9536 12.7419 23.9532 12.7627 24.0144L13.0312 24.8059L13.8669 24.8082C13.9316 24.8084 13.9589 24.8908 13.9069 24.9295L13.2371 25.4293L13.4933 26.2249C13.5132 26.2863 13.4432 26.3378 13.3902 26.3005Z" fill="#FFE15A"/>
<path d="M19.6838 26.311L20.3557 25.8141L21.0433 26.2891C21.0965 26.3258 21.1661 26.2737 21.1456 26.2122L20.8807 25.4196L21.545 24.9123C21.5964 24.873 21.5682 24.7909 21.5035 24.7914L20.6678 24.7984L20.3907 24.0099C20.3692 23.9488 20.2824 23.9502 20.2629 24.0119L20.0112 24.8089L19.1757 24.8288C19.111 24.8303 19.0855 24.9134 19.1382 24.951L19.8184 25.4366L19.5792 26.2373C19.5606 26.2994 19.6317 26.3495 19.6838 26.311Z" fill="#FFE15A"/>
<path d="M21.0279 37.6159L20.3456 37.1334L19.6682 37.6228C19.6157 37.6607 19.5451 37.61 19.5644 37.5481L19.8124 36.7501L19.1376 36.257C19.0854 36.2188 19.1117 36.1361 19.1765 36.1352L20.0121 36.1246L20.2726 35.3306C20.2927 35.269 20.3796 35.2686 20.4004 35.3299L20.6689 36.1214L21.5046 36.1236C21.5693 36.1238 21.5966 36.2062 21.5446 36.2449L20.8748 36.7447L21.131 37.5403C21.1508 37.602 21.0808 37.6534 21.0279 37.6159Z" fill="#FFE15A"/>
<path d="M11.0467 32.7465L10.211 32.752L9.93525 31.9631C9.91397 31.902 9.82705 31.9033 9.80742 31.965L9.5544 32.7616L8.71885 32.7801C8.6541 32.7815 8.62842 32.8646 8.68115 32.9023L9.36055 33.389L9.11992 34.1893C9.10127 34.2512 9.17227 34.3014 9.22442 34.2629L9.89727 33.7672L10.5841 34.2434C10.6373 34.2802 10.7068 34.2282 10.6864 34.1667L10.4229 33.3737L11.0879 32.8676C11.1395 32.8283 11.1114 32.746 11.0467 32.7465Z" fill="#FFE15A"/>
<path d="M8.71901 28.451L9.55455 28.4352L9.81012 27.6395C9.82994 27.5779 9.91676 27.5769 9.93795 27.6382L10.2112 28.4279L11.0469 28.4251C11.1117 28.4249 11.1395 28.5072 11.0878 28.5462L10.4211 29.0501L10.6821 29.844C10.7023 29.9055 10.6327 29.9574 10.5796 29.9203L9.8943 29.442L9.21989 29.9355C9.16764 29.9738 9.09684 29.9234 9.11559 29.8615L9.35875 29.0619L8.68092 28.573C8.62838 28.5351 8.65436 28.4521 8.71901 28.451Z" fill="#FFE15A"/>
<path d="M24.2884 28.4204L23.4527 28.4258L23.177 27.637C23.1557 27.5759 23.0688 27.577 23.0491 27.6388L22.7961 28.4354L21.9605 28.454C21.8958 28.4553 21.8701 28.5384 21.9229 28.5761L22.6022 29.0629L22.3616 29.8632C22.343 29.9251 22.414 29.9753 22.4661 29.9369L23.139 29.4412L23.8258 29.9174C23.879 29.9542 23.9485 29.9021 23.9281 29.8407L23.6646 29.0476L24.3297 28.5416C24.3812 28.5022 24.3531 28.4199 24.2884 28.4204Z" fill="#FFE15A"/>
<path d="M21.9607 32.7771L22.7963 32.7614L23.0518 31.9657C23.0717 31.9041 23.1585 31.9031 23.1797 31.9643L23.4529 32.7541L24.2887 32.7512C24.3534 32.7511 24.3812 32.8334 24.3295 32.8723L23.6628 33.3762L23.9238 34.1702C23.944 34.2317 23.8744 34.2836 23.8213 34.2465L23.136 33.7681L22.4616 34.2617C22.4094 34.3 22.3386 34.2496 22.3573 34.1877L22.6005 33.3881L21.9226 32.8992C21.8701 32.8613 21.896 32.7785 21.9607 32.7771Z" fill="#FFE15A"/>
</g>
<defs>
<clipPath id="clip0_106_20125">
<rect width="50" height="50" fill="white"/>
</clipPath>
</defs>
</svg>
