<svg width="50" height="50" viewBox="0 0 50 50" fill="none" xmlns="http://www.w3.org/2000/svg">
<g clip-path="url(#clip0_106_20039)">
<path d="M49.1378 41.3796H0.862108C0.386034 41.3796 0 40.9936 0 40.5175V9.4832C0 9.00713 0.386034 8.62109 0.862108 8.62109H49.1379C49.614 8.62109 50 9.00713 50 9.4832V40.5175C49.9999 40.9937 49.6139 41.3796 49.1378 41.3796Z" fill="#41479B"/>
<path d="M24.1378 8.62109H22.6405L14.6551 13.8528V8.62109H10.3448V13.8528L2.35947 8.62109H0.862108C0.386034 8.62109 0 9.00713 0 9.4832V10.167L6.85106 14.6556H0V18.9659H6.85106L0 23.4546V24.1383C0 24.6143 0.386034 25.0004 0.862108 25.0004H2.35947L10.3448 19.7686V25.0004H14.6551V19.7686L22.6404 25.0004H24.1377C24.6138 25.0004 24.9999 24.6143 24.9999 24.1383V23.4545L18.1489 18.9659H24.9999V14.6556H18.1488L24.9999 10.167V9.4832C24.9999 9.00713 24.614 8.62109 24.1378 8.62109Z" fill="#F5F5F5"/>
<path d="M24.9994 15.5177H13.7926V8.62109H11.2063V15.5177H-0.000488281V18.1038H11.2063V25.0004H13.7926V18.1038H24.9994V15.5177Z" fill="#FF4B55"/>
<path d="M9.48221 14.6554L0.410351 8.7666C0.168945 8.91943 -0.000488281 9.17607 -0.000488281 9.48301V9.52773L7.89881 14.6554H9.48221Z" fill="#FF4B55"/>
<path d="M16.2382 14.6556L24.8684 9.05342C24.7184 8.79961 24.4538 8.62109 24.1375 8.62109H23.9511L14.6548 14.6556H16.2382Z" fill="#FF4B55"/>
<path d="M8.7368 18.9658L0.123047 24.5572C0.271582 24.8172 0.540331 25.0003 0.861229 25.0003H1.02383L10.3202 18.9658H8.7368Z" fill="#FF4B55"/>
<path d="M24.9857 24.2059L16.9129 18.9658H15.3296L24.4969 24.9164C24.7716 24.789 24.9598 24.5219 24.9857 24.2059Z" fill="#FF4B55"/>
<path d="M37.482 16.8183C37.482 16.8183 37.1216 15.3763 36.04 14.6553C36.04 14.6553 37.1215 16.4577 37.1215 17.8998L37.482 16.8183Z" fill="#FFE15A"/>
<path d="M35.8145 15.252C35.8145 15.252 36.5693 15.7138 36.9748 16.4687L36.6481 17.2235C36.6482 17.2235 36.3778 16.1533 35.8145 15.252Z" fill="#FFE15A"/>
<path d="M34.9805 15.4219C34.9805 15.4219 36.2873 15.8274 36.9068 16.6724L36.535 17.2356C36.5351 17.2356 36.0394 16.2781 34.9805 15.4219Z" fill="#FFE15A"/>
<path d="M34.7896 16.0752C34.7896 16.0752 36.164 16.2892 36.7836 16.9427L36.6259 17.5623C36.6259 17.5622 35.8711 16.6609 34.7896 16.0752Z" fill="#FFE15A"/>
<path d="M34.835 16.5254C34.835 16.5254 36.1643 16.6606 36.7727 17.359C37.381 18.0575 36.5474 17.8434 36.5474 17.8434C36.5474 17.8434 35.8488 17.0437 34.835 16.5254Z" fill="#FFE15A"/>
<path d="M37.4819 16.8183C37.4819 16.8183 37.8424 15.3763 38.9239 14.6553C38.9239 14.6553 37.8425 16.4577 37.8425 17.8998L37.4819 16.8183Z" fill="#FFE15A"/>
<path d="M39.1496 15.252C39.1496 15.252 38.3947 15.7138 37.9893 16.4687L38.316 17.2235C38.3159 17.2235 38.5863 16.1533 39.1496 15.252Z" fill="#FFE15A"/>
<path d="M39.983 15.4219C39.983 15.4219 38.6762 15.8274 38.0566 16.6724L38.4284 17.2356C38.4283 17.2356 38.924 16.2781 39.983 15.4219Z" fill="#FFE15A"/>
<path d="M40.1747 16.0752C40.1747 16.0752 38.8003 16.2892 38.1807 16.9427L38.3384 17.5623C38.3384 17.5622 39.0932 16.6609 40.1747 16.0752Z" fill="#FFE15A"/>
<path d="M40.1291 16.5254C40.1291 16.5254 38.7998 16.6606 38.1914 17.359C37.5831 18.0575 38.4167 17.8434 38.4167 17.8434C38.4167 17.8434 39.1153 17.0437 40.1291 16.5254Z" fill="#FFE15A"/>
<path d="M37.4816 14.6553C37.4816 14.6553 37.122 15.4138 37.4816 15.7931C37.8412 15.4139 37.4816 14.6553 37.4816 14.6553Z" fill="#FFE15A"/>
<path d="M37.123 14.8438C37.123 14.8438 37.0746 15.6822 37.5513 15.8979C37.7426 15.4107 37.123 14.8438 37.123 14.8438Z" fill="#FFE15A"/>
<path d="M37.841 14.8438C37.841 14.8438 37.8893 15.6822 37.4126 15.8979C37.2213 15.4107 37.841 14.8438 37.841 14.8438Z" fill="#FFE15A"/>
<path d="M37.9593 15.3271C37.9593 15.3271 37.6447 16.106 37.1216 16.0971C37.1568 15.575 37.9593 15.3271 37.9593 15.3271Z" fill="#FFE15A"/>
<path d="M37.0049 15.3271C37.0049 15.3271 37.3194 16.106 37.8426 16.0971C37.8073 15.575 37.0049 15.3271 37.0049 15.3271Z" fill="#FFE15A"/>
<path d="M37.4824 18.6203C38.08 18.6203 38.5644 17.9747 38.5644 17.1783C38.5644 16.3819 38.08 15.7363 37.4824 15.7363C36.8848 15.7363 36.4004 16.3819 36.4004 17.1783C36.4004 17.9747 36.8848 18.6203 37.4824 18.6203Z" fill="#FFD255"/>
<path d="M35.0123 18.651L34.7644 18.2678C34.7644 18.2678 34.0435 18.4406 33.8707 17.8999L33.5928 17.8773C33.5928 17.8773 33.6303 17.5094 33.9532 17.4567C33.9532 17.4567 34.1484 17.2164 34.4939 17.2615C34.8394 17.3065 35.0197 17.5994 35.2187 17.6746C35.4178 17.7497 35.4403 17.9975 35.4403 17.9975L36.9574 19.5521C36.9574 19.5521 36.5219 20.108 36.1312 20.2882C35.7406 20.4682 34.3062 19.5897 35.0123 18.651Z" fill="#73AF00"/>
<path d="M39.9394 18.9365C39.9394 18.9365 40.5703 19.3646 40.5928 20.5476H39.545C39.545 20.5476 39.5563 19.7477 39.3535 19.3196L39.9394 18.9365Z" fill="#73AF00"/>
<path d="M39.8047 18.9818C39.8047 18.9818 40.5933 19.241 41.0777 18.6214L40.2554 18.5088L39.8047 18.9818Z" fill="#73AF00"/>
<path d="M39.5678 18.1143L40.3686 18.3842C40.4695 18.4183 40.5052 18.5433 40.4344 18.6229C40.1306 18.9652 39.2237 19.7853 37.7615 19.7853C35.8576 19.7853 35.3657 18.5874 35.3432 18.4974C35.3206 18.4073 35.2192 17.675 35.2192 17.675L36.0304 17.585L39.5678 18.1143Z" fill="#73AF00"/>
<path d="M31.7809 29.1436H33.8778L32.7963 31.2384L31.7148 29.7963L31.7809 29.1436Z" fill="#FF4B55"/>
<path d="M43.1843 29.1436H41.0874L42.1688 31.2384L43.2503 29.7963L43.1843 29.1436Z" fill="#FF4B55"/>
<path d="M31.7722 32.6799C30.7377 32.6799 29.9461 32.1247 29.9053 32.0958L30.7389 30.9188C30.7458 30.9233 31.4442 31.3979 32.1564 31.1822C32.8771 30.9646 33.3503 30.1142 33.6204 29.4385L34.9593 29.9742C34.3913 31.3943 33.5811 32.2671 32.5519 32.5688C32.2828 32.6478 32.0204 32.6799 31.7722 32.6799Z" fill="#FFD25A"/>
<path d="M43.193 32.6799C44.2274 32.6799 45.019 32.1247 45.0599 32.0958L44.2263 30.9188C44.2193 30.9233 43.5209 31.3979 42.8087 31.1822C42.088 30.9646 41.6148 30.1142 41.3447 29.4385L40.0059 29.9742C40.5738 31.3943 41.384 32.2671 42.4132 32.5688C42.6823 32.6478 42.9448 32.6799 43.193 32.6799Z" fill="#FFD25A"/>
<path d="M42.1694 25.1092H32.7964V21.6453C32.7964 21.1692 33.1824 20.7832 33.6585 20.7832H41.3074C41.7835 20.7832 42.1695 21.1692 42.1695 21.6453V25.1092H42.1694Z" fill="#FF4B55"/>
<path d="M35.3538 23.3074L35.2412 22.5864C34.7117 22.5639 34.4076 21.9443 34.4076 21.9443L33.9795 22.1809C34.43 23.2624 35.3538 23.3074 35.3538 23.3074Z" fill="#FFE15A"/>
<path d="M40.9983 22.5643C41.1561 22.4441 41.5016 22.399 41.5016 22.399C41.2537 22.1437 40.9834 22.3239 40.9834 22.3239C41.2087 22.1137 41.0811 21.8133 41.0811 21.8133C41.0811 21.9109 40.9233 21.9785 40.9233 21.9785C40.9309 21.7833 40.7281 21.5954 40.7281 21.5954L40.623 21.7682C40.5554 21.6029 40.315 21.4753 40.315 21.4753L40.2174 21.8809C39.9921 21.6856 39.594 21.7006 39.594 21.7006L39.6691 21.8884C39.4288 21.8958 38.7754 22.0311 38.3923 22.0761C38.0092 22.1211 37.7014 22.016 37.7014 21.8434C37.7014 21.6986 38.0361 21.6808 38.181 21.6786C38.2834 21.7015 38.4122 21.7384 38.5933 21.7928C38.9312 21.8941 39.1291 21.7473 39.1291 21.7473C39.0108 21.7022 38.9977 21.6496 38.9977 21.6496C39.2511 21.5031 39.4889 21.5393 39.4889 21.5393C39.4044 21.3534 39.0382 21.3646 39.0382 21.3646C39.134 21.314 39.2071 21.1562 39.2071 21.1562C39.1846 21.1788 38.9765 21.2299 38.6923 21.268C38.4784 21.2968 38.2775 21.4594 38.1945 21.5346C37.9691 21.5173 37.3799 21.5102 37.4835 21.9187C37.6112 22.4219 38.6251 22.2416 39.2484 22.1439C39.8718 22.0463 40.1947 22.129 40.3299 22.2115C40.4651 22.2941 40.2724 22.574 39.639 22.4594C39.0916 22.3603 38.7901 22.3575 38.6246 22.3749C38.4411 22.3866 38.2847 22.436 38.1744 22.4594C37.9266 22.5119 36.9727 22.8499 36.7925 22.3617C36.6122 21.8734 35.7335 23.1578 35.7335 23.1578L35.8022 23.2395L35.5683 23.1841C35.2528 23.6065 34.3066 23.7361 34.3066 23.7361C34.3066 23.7361 34.1657 23.4827 34.0474 23.4488C33.929 23.415 33.8784 23.6009 33.8784 23.6009C33.8784 23.6009 33.7376 23.6064 33.7264 23.7361C33.7151 23.8656 33.8278 23.877 33.8278 23.877C33.8278 23.877 33.6925 24.0741 33.9178 24.1304C33.9178 24.1304 33.9009 24.4063 34.2332 24.2148C35.2205 24.3393 35.9404 23.8323 36.2522 23.5558C36.456 23.5688 36.7735 23.5623 37.0177 23.4356C37.4082 23.2328 37.8588 22.9774 38.1217 23.0752C38.1217 23.0752 38.332 23.7211 37.5059 23.736C37.5059 23.736 37.3837 23.5815 37.2608 23.5815C37.2077 23.5815 37.1526 23.6452 37.1695 23.7024C37.1695 23.7024 37.0254 23.6939 36.9999 23.7788C36.9791 23.8479 37.0295 23.9271 37.1356 23.9145C37.1356 23.9145 37.0635 24.0205 37.1356 24.0841C37.2076 24.1477 37.2968 24.0841 37.2968 24.0841C37.2968 24.0841 37.2586 24.2155 37.3477 24.2282C37.4238 24.2391 37.5247 24.1146 37.5536 24.0769C37.6859 24.0975 38.5879 24.2015 38.7827 23.2553C38.7827 23.2553 39.2334 23.4505 39.6765 23.413C40.1195 23.3755 40.5553 23.4431 40.5177 23.6608C40.4686 23.8187 40.3717 23.8083 40.3717 23.8083C40.2656 23.7658 40.0875 23.7701 40.0621 23.9228C40.0367 24.0756 40.2444 24.0798 40.2444 24.0798C40.3038 24.2197 40.4734 24.1603 40.4734 24.1603C40.6218 24.2664 40.7194 24.1519 40.7194 24.1519C40.7831 24.207 40.8487 24.2173 40.9103 24.1645C40.9696 24.1137 40.9363 23.7743 40.9307 23.6532C40.9213 23.4518 40.8931 22.9248 40.6002 22.9172C40.3073 22.9097 39.9317 23.0824 39.4136 22.6468C39.3865 22.624 39.3602 22.6096 39.3334 22.5902C39.5786 22.613 39.7543 22.6795 39.9243 22.7068C40.1572 22.7445 40.8407 22.6845 40.9983 22.5643Z" fill="#FFE15A"/>
<path d="M33.98 22.181C33.98 22.181 33.8363 22.1849 33.766 22.1641C33.6454 22.1285 33.6308 21.9388 33.7604 21.9049C33.7604 21.9049 33.6045 21.7989 33.676 21.6796C33.7332 21.5841 33.879 21.5844 33.9297 21.6407C33.9297 21.6407 33.8821 21.4836 34.0196 21.4318C34.129 21.3904 34.2168 21.5162 34.2168 21.6796C34.2168 21.6796 34.3803 21.5466 34.4646 21.6346C34.5234 21.6959 34.5065 21.7765 34.4083 21.9443C34.3079 22.1156 33.98 22.181 33.98 22.181Z" fill="#FFE15A"/>
<path d="M33.801 22.1116C33.801 22.1116 33.7249 22.2431 33.5049 22.1625C33.5049 22.1625 33.6952 22.0733 33.7206 21.9971L33.801 22.1116Z" fill="#41479B"/>
<path d="M33.7203 21.7254C33.7203 21.7254 33.6018 21.6492 33.4707 21.6534C33.4707 21.6534 33.6652 21.5092 33.8302 21.6365L33.7203 21.7254Z" fill="#41479B"/>
<path d="M33.9966 21.522C33.9966 21.522 34.0347 21.382 33.9585 21.3057C33.9585 21.3057 34.115 21.3735 34.1362 21.5007L33.9966 21.522Z" fill="#41479B"/>
<path d="M34.3442 21.6662C34.3442 21.6662 34.4203 21.4966 34.3527 21.416C34.3527 21.416 34.5557 21.5348 34.4712 21.7299L34.3442 21.6662Z" fill="#41479B"/>
<path d="M33.9457 23.5516C33.9457 23.5516 33.8643 23.3845 33.7593 23.3851C33.7593 23.3851 33.9802 23.3046 34.0757 23.4945L33.9457 23.5516Z" fill="#41479B"/>
<path d="M33.7676 23.7636C33.7676 23.7636 33.6224 23.6478 33.5278 23.6937C33.5278 23.6937 33.6927 23.5257 33.8604 23.656L33.7676 23.7636Z" fill="#41479B"/>
<path d="M33.8698 24.0648C33.8698 24.0648 33.6843 24.0628 33.6377 24.1572C33.6377 24.1572 33.665 23.9231 33.8771 23.9229L33.8698 24.0648Z" fill="#41479B"/>
<path d="M34.0393 24.2581C34.0393 24.2581 33.9632 24.3895 33.7432 24.309C33.7432 24.309 33.9335 24.2198 33.9589 24.1436L34.0393 24.2581Z" fill="#41479B"/>
<path d="M37.3924 24.1904C37.3924 24.1904 37.3301 24.2981 37.1499 24.2321C37.1499 24.2321 37.2962 24.1798 37.3169 24.1172L37.3924 24.1904Z" fill="#41479B"/>
<path d="M35.4854 21.8649C35.4854 21.8649 35.0797 22.5559 35.1773 23.5548C35.1773 23.5548 36.3732 23.3802 36.8915 22.186C36.8915 22.186 37.0178 22.135 37.0671 22.0123C37.109 21.908 37.1056 21.7362 36.9047 21.7372C36.9047 21.7372 36.9648 21.6171 37.038 21.5889C37.038 21.5889 36.9085 21.5382 36.7563 21.572C36.7563 21.572 36.8747 21.4536 36.8747 21.3016C36.8747 21.3016 36.6944 21.4199 36.5818 21.4311C36.5818 21.4311 36.5705 21.2452 36.6156 21.2227C36.6156 21.2227 36.3791 21.2452 36.2607 21.3691C36.2607 21.3691 36.1818 21.2621 36.1875 21.1494C36.1875 21.1494 35.9678 21.2452 35.8833 21.3859C35.8833 21.3859 35.8157 21.3127 35.8214 21.2395C35.8214 21.2395 35.6637 21.431 35.6299 21.5323C35.6299 21.5323 35.4813 21.4915 35.4159 21.6112C35.3686 21.6978 35.3794 21.7928 35.4854 21.8649Z" fill="#FFD255"/>
<path d="M37.2113 23.6878C37.2113 23.6878 37.1634 23.5973 37.0195 23.5776C37.0195 23.5776 37.2028 23.4928 37.3185 23.6143L37.2113 23.6878Z" fill="#41479B"/>
<path d="M40.193 24.0317C40.193 24.0317 40.0879 24.065 40.0386 24.2141C40.0386 24.2141 39.9847 24.0024 40.1361 23.9033L40.193 24.0317Z" fill="#41479B"/>
<path d="M40.4142 24.1095C40.4142 24.1095 40.3146 24.2064 40.3194 24.3635C40.3194 24.3635 40.1966 24.1832 40.3049 24.0381L40.4142 24.1095Z" fill="#41479B"/>
<path d="M40.8913 24.101C40.8913 24.101 40.8612 24.2037 40.9521 24.3133C40.9521 24.3133 40.7639 24.2532 40.7603 24.0889L40.8913 24.101Z" fill="#41479B"/>
<path d="M40.6675 24.1406C40.6675 24.1406 40.5876 24.2168 40.6088 24.3725C40.6088 24.3725 40.4603 24.2416 40.5528 24.0859L40.6675 24.1406Z" fill="#41479B"/>
<path d="M37.0576 23.8734C37.0576 23.8734 36.9614 23.8388 36.8418 23.9212C36.8418 23.9212 36.9204 23.7348 37.0875 23.7466L37.0576 23.8734Z" fill="#41479B"/>
<path d="M37.1894 24.0779C37.1894 24.0779 37.0905 24.052 36.9785 24.1445C36.9785 24.1445 36.9958 23.9646 37.1633 23.9619L37.1894 24.0779Z" fill="#41479B"/>
<path d="M42.1694 25.6906C41.3877 25.6906 41.3877 26.3958 40.6058 26.3958C39.8241 26.3958 39.8241 25.6906 39.0423 25.6906C38.261 25.6906 38.261 26.3958 37.4798 26.3958C36.6992 26.3958 36.6992 25.6906 35.9186 25.6906C35.1381 25.6906 35.1382 26.3958 34.3578 26.3958C33.5771 26.3958 33.5771 25.6906 32.7964 25.6906V24.3887C33.577 24.3887 33.577 25.0938 34.3578 25.0938C35.1383 25.0938 35.1383 24.3887 35.9186 24.3887C36.6992 24.3887 36.6992 25.0938 37.4798 25.0938C38.261 25.0938 38.261 24.3887 39.0423 24.3887C39.8241 24.3887 39.8241 25.0938 40.6058 25.0938C41.3877 25.0938 41.3877 24.3887 42.1694 24.3887V25.6906Z" fill="#F5F5F5"/>
<path d="M40.6058 26.3956C39.8241 26.3956 39.8241 25.6904 39.0423 25.6904C38.261 25.6904 38.261 26.3956 37.4798 26.3956C36.6992 26.3956 36.6992 25.6904 35.9186 25.6904C35.1381 25.6904 35.1382 26.3956 34.3578 26.3956C33.5787 26.3956 33.5766 25.6938 32.8008 25.6908C32.8115 26.0025 32.8474 26.4652 32.9387 27.0089C33.5729 27.0929 33.6306 27.6975 34.3577 27.6975C35.1382 27.6975 35.1382 26.9922 35.9185 26.9922C36.6991 26.9922 36.6991 27.6975 37.4797 27.6975C38.2609 27.6975 38.2609 26.9922 39.0422 26.9922C39.8239 26.9922 39.8239 27.6975 40.6057 27.6975C41.334 27.6975 41.3919 27.0927 42.0269 27.0089C42.1183 26.4652 42.1541 26.0025 42.1648 25.6908C41.3882 25.6938 41.386 26.3956 40.6058 26.3956Z" fill="#41479B"/>
<path d="M40.6055 27.6975C39.8238 27.6975 39.8238 26.9922 39.042 26.9922C38.2607 26.9922 38.2607 27.6975 37.4795 27.6975C36.6989 27.6975 36.6989 26.9922 35.9184 26.9922C35.1378 26.9922 35.1379 27.6975 34.3575 27.6975C33.6304 27.6975 33.5726 27.0929 32.9385 27.0089C33.0109 27.4397 33.1189 27.9201 33.2782 28.4169C33.6297 28.6187 33.7827 28.9994 34.3575 28.9994C35.138 28.9994 35.138 28.2942 35.9184 28.2942C36.6989 28.2942 36.6989 28.9994 37.4795 28.9994C38.2607 28.9994 38.2607 28.2942 39.042 28.2942C39.8237 28.2942 39.8237 28.9994 40.6055 28.9994C41.1816 28.9994 41.3345 28.6179 41.6872 28.4163C41.8464 27.9197 41.9543 27.4395 42.0268 27.0089C41.3917 27.0928 41.3338 27.6975 40.6055 27.6975Z" fill="#F5F5F5"/>
<path d="M40.6056 29.0001C39.8239 29.0001 39.8239 28.2949 39.0421 28.2949C38.2608 28.2949 38.2608 29.0001 37.4796 29.0001C36.699 29.0001 36.699 28.2949 35.9185 28.2949C35.1379 28.2949 35.138 29.0001 34.3576 29.0001C33.7829 29.0001 33.6298 28.6192 33.2783 28.4176C33.4767 29.0365 33.7553 29.6784 34.1441 30.277C34.2097 30.2905 34.2772 30.302 34.3576 30.302C35.1381 30.302 35.1381 29.5968 35.9185 29.5968C36.699 29.5968 36.699 30.302 37.4796 30.302C38.2608 30.302 38.2608 29.5968 39.0421 29.5968C39.8238 29.5968 39.8238 30.302 40.6056 30.302C40.6869 30.302 40.7554 30.2905 40.8215 30.2769C41.2103 29.678 41.4889 29.036 41.6873 28.4171C41.3347 28.6185 41.1817 29.0001 40.6056 29.0001Z" fill="#41479B"/>
<path d="M40.606 30.302C39.8243 30.302 39.8243 29.5967 39.0425 29.5967C38.2612 29.5967 38.2612 30.302 37.48 30.302C36.6994 30.302 36.6994 29.5967 35.9188 29.5967C35.1383 29.5967 35.1384 30.302 34.358 30.302C34.2776 30.302 34.2101 30.2904 34.1445 30.277C34.3916 30.6573 34.6842 31.019 35.0287 31.3464C35.2674 31.1447 35.457 30.8986 35.9189 30.8986C36.6995 30.8986 36.6995 31.6038 37.4801 31.6038C38.2613 31.6038 38.2613 30.8986 39.0426 30.8986C39.5063 30.8986 39.696 31.1459 39.936 31.3478C40.2812 31.02 40.5744 30.6578 40.8219 30.2768C40.7558 30.2903 40.6873 30.302 40.606 30.302Z" fill="#F5F5F5"/>
<path d="M39.9356 31.3477C39.6957 31.1457 39.5061 30.8984 39.0422 30.8984C38.2609 30.8984 38.2609 31.6036 37.4797 31.6036C36.6991 31.6036 36.6991 30.8984 35.9186 30.8984C35.4566 30.8984 35.2671 31.1445 35.0283 31.3462C35.6562 31.9429 36.4568 32.4237 37.4827 32.6803C38.5078 32.424 39.3079 31.9437 39.9356 31.3477Z" fill="#41479B"/>
<path d="M39.0413 24.3887C38.26 24.3887 38.26 25.0938 37.4788 25.0938C36.6982 25.0938 36.6982 24.3887 35.9177 24.3887C35.1371 24.3887 35.1372 25.0938 34.3568 25.0938C33.5762 25.0938 33.5762 24.3887 32.7954 24.3887C32.7954 24.8335 32.7954 25.2198 32.7954 25.4701C32.7954 25.5312 32.7968 25.6063 32.7997 25.691C33.5755 25.694 33.5777 26.3958 34.3567 26.3958C35.1372 26.3958 35.1372 25.6906 35.9176 25.6906C36.6981 25.6906 36.6981 26.3958 37.4787 26.3958C38.26 26.3958 38.26 25.6906 39.0412 25.6906C39.823 25.6906 39.823 26.3958 40.6048 26.3958C41.3849 26.3958 41.3871 25.694 42.164 25.691C42.167 25.6062 42.1683 25.5311 42.1683 25.4701C42.1683 25.2198 42.1683 24.8334 42.1683 24.3887C41.3865 24.3887 41.3865 25.0938 40.6048 25.0938C39.8231 25.0938 39.8231 24.3887 39.0413 24.3887Z" fill="#F5F5F5"/>
<path d="M41.8089 20.784C42.008 20.784 42.1693 20.9454 42.1693 21.1444V24.389V25.11C42.1693 25.2466 42.1693 25.3715 42.1693 25.4704C42.1693 25.5314 42.168 25.6066 42.165 25.6913C42.1543 26.003 42.1184 26.4657 42.0271 27.0094C41.9547 27.4399 41.8467 27.9202 41.6875 28.4168C41.4891 29.0358 41.2105 29.6779 40.8217 30.2765C40.5741 30.6577 40.2809 31.02 39.9358 31.3476C39.3081 31.9436 38.508 32.424 37.483 32.6803C36.4571 32.4238 35.6565 31.9428 35.0286 31.3462C34.6841 31.0188 34.3915 30.6572 34.1444 30.2767C33.7556 29.678 33.477 29.0362 33.2786 28.4173C33.1193 27.9205 33.0112 27.44 32.9389 27.0093C32.8475 26.4656 32.8117 26.0029 32.801 25.6912C32.798 25.6064 32.7967 25.5312 32.7967 25.4703C32.7967 25.3714 32.7967 25.2464 32.7967 25.1099V24.3889V21.1443C32.7967 20.9452 32.9581 20.7839 33.1571 20.7839H41.8091L41.8089 20.784ZM41.8089 20.5137H33.1568C32.809 20.5137 32.5259 20.7967 32.5259 21.1446V24.3892V25.1101V25.4706C32.5259 25.5342 32.5272 25.6125 32.5304 25.7009C32.5406 25.9951 32.5734 26.4687 32.6719 27.0544C32.7557 27.553 32.8731 28.0393 33.0208 28.5001C33.2493 29.2129 33.551 29.8603 33.9174 30.4243C34.1872 30.8396 34.4983 31.2159 34.842 31.5425C35.559 32.2238 36.4254 32.6949 37.4171 32.9428L37.4827 32.9593L37.5482 32.9428C38.5392 32.6951 39.405 32.2244 40.1218 31.5439C40.4663 31.2169 40.778 30.84 41.0482 30.424C41.4147 29.8598 41.7163 29.2124 41.9448 28.4993C42.0925 28.0389 42.2098 27.5527 42.2936 27.0543C42.3922 26.4686 42.425 25.9949 42.4351 25.7008C42.4382 25.6124 42.4396 25.5341 42.4396 25.4705V25.11V24.3891V21.1445C42.4397 20.7967 42.1567 20.5137 41.8089 20.5137Z" fill="#F5F5F5"/>
<path d="M37.4828 30.4998L36.4936 31.1881L36.8426 30.0345L35.8823 29.3065L37.087 29.282L37.4828 28.1436L37.8786 29.282L39.0833 29.3065L38.1231 30.0345L38.4722 31.1881L37.4828 30.4998Z" fill="#73AF00"/>
<path d="M37.4829 28.3667L37.8264 29.3545L38.8721 29.3758L38.0386 30.0077L38.3415 31.0088L37.483 30.4113L36.6245 31.0088L36.9274 30.0077L36.094 29.3759L37.1397 29.3546L37.4829 28.3667ZM37.4829 27.9219L37.345 28.3187L37.035 29.2106L36.0909 29.23L35.6709 29.2385L36.0057 29.4924L36.758 30.0629L36.4847 30.9667L36.363 31.3688L36.7079 31.1289L37.4829 30.5895L38.2579 31.1289L38.6028 31.3688L38.4812 30.9667L38.2078 30.0629L38.9602 29.4924L39.2949 29.2385L38.8749 29.23L37.9309 29.2106L37.6208 28.3187L37.4829 27.9219Z" fill="#FFE15A"/>
<path d="M35.3105 27.6883L34.3213 28.3765L34.6703 27.2229L33.71 26.4949L34.9148 26.4705L35.3105 25.332L35.7062 26.4705L36.9111 26.4949L35.9508 27.2229L36.2998 28.3765L35.3105 27.6883Z" fill="#73AF00"/>
<path d="M35.3101 25.5542L35.6535 26.542L36.6992 26.5633L35.8658 27.1951L36.1687 28.1962L35.3102 27.5987L34.4518 28.1962L34.7547 27.1951L33.9213 26.5633L34.967 26.542L35.3101 25.5542ZM35.3101 25.1094L35.1722 25.5063L34.8621 26.3981L33.9181 26.4175L33.498 26.426L33.8328 26.6799L34.5852 27.2504L34.3118 28.1542L34.1901 28.5563L34.5351 28.3164L35.3101 27.777L36.085 28.3164L36.43 28.5563L36.3083 28.1542L36.035 27.2504L36.7873 26.6799L37.1221 26.426L36.702 26.4175L35.758 26.3981L35.4479 25.5063L35.3101 25.1094Z" fill="#FFE15A"/>
<path d="M39.6366 27.6883L38.6475 28.3765L38.9964 27.2229L38.0361 26.4949L39.2408 26.4705L39.6366 25.332L40.0324 26.4705L41.2372 26.4949L40.2769 27.2229L40.6259 28.3765L39.6366 27.6883Z" fill="#73AF00"/>
<path d="M39.6357 25.5542L39.9792 26.542L41.0248 26.5633L40.1914 27.1951L40.4943 28.1962L39.6358 27.5987L38.7773 28.1962L39.0803 27.1951L38.2469 26.5633L39.2926 26.542L39.6357 25.5542ZM39.6357 25.1094L39.4978 25.5063L39.1878 26.3981L38.2437 26.4175L37.8237 26.426L38.1585 26.6799L38.9108 27.2504L38.6375 28.1542L38.5158 28.5563L38.8607 28.3164L39.6357 27.777L40.4107 28.3164L40.7557 28.5563L40.634 28.1542L40.3606 27.2504L41.113 26.6799L41.4477 26.426L41.0277 26.4175L40.0837 26.3981L39.7736 25.5063L39.6357 25.1094Z" fill="#FFE15A"/>
<path d="M43.1844 29.1436C42.2898 31.4215 40.0741 33.0408 37.4825 33.0408C34.8909 33.0408 32.6752 31.4214 31.7806 29.1436L30.439 29.6685C31.5441 32.4823 34.2811 34.4829 37.4825 34.4829C40.6839 34.4829 43.4209 32.4824 44.526 29.6685L43.1844 29.1436Z" fill="#FFE15A"/>
<path d="M38.2037 20.7836H37.1223L36.7617 19.7021H37.8433L38.2037 20.7836Z" fill="#F5F5F5"/>
<path d="M40.0062 20.7835H39.2853L39.0449 20.0625H39.374C39.6081 20.0625 39.8158 20.2123 39.8898 20.4343L40.0062 20.7835Z" fill="#F5F5F5"/>
<path d="M36.0408 20.7835H35.3198L35.2375 20.5369C35.1597 20.3035 35.3334 20.0625 35.5795 20.0625H35.8003L36.0408 20.7835Z" fill="#F5F5F5"/>
<path d="M39.2861 20.7836H38.2047L37.8442 19.7021H38.6659C38.8211 19.7021 38.9588 19.8014 39.0079 19.9487L39.2861 20.7836Z" fill="#41479B"/>
<path d="M37.1226 20.7836H36.0411L35.7976 20.0531C35.74 19.8805 35.8686 19.7021 36.0506 19.7021H36.7621L37.1226 20.7836Z" fill="#41479B"/>
<path d="M40.1304 18.2832C39.8487 18.6888 39.0601 19.1731 37.7759 19.1731C36.7177 19.1731 36.0371 18.5342 35.8099 18.2822C35.7545 18.2209 35.7256 18.1425 35.7256 18.0598V17.8139C35.7256 17.708 35.7805 17.6117 35.8719 17.5586C36.1008 17.4254 36.6299 17.2129 37.6744 17.2129C38.9701 17.2129 40.1304 18.2832 40.1304 18.2832Z" fill="#509664"/>
</g>
<defs>
<clipPath id="clip0_106_20039">
<rect width="50" height="50" fill="white"/>
</clipPath>
</defs>
</svg>
