<svg width="50" height="50" viewBox="0 0 50 50" fill="none" xmlns="http://www.w3.org/2000/svg">
<g clip-path="url(#clip0_106_20032)">
<path d="M49.1378 41.3791H0.862108C0.386034 41.3791 0 40.9931 0 40.517V33.1895H49.9999V40.517C49.9999 40.9932 49.6139 41.3791 49.1378 41.3791Z" fill="#FFE15A"/>
<path d="M49.9999 25H0V33.1894H49.9999V25Z" fill="#73AF00"/>
<path d="M49.9999 16.8105H0V25H49.9999V16.8105Z" fill="#F5F5F5"/>
<path d="M49.9999 16.8102H0V9.48271C0 9.00664 0.386034 8.62061 0.862108 8.62061H49.1379C49.614 8.62061 50 9.00664 50 9.48271L49.9999 16.8102Z" fill="#41479B"/>
<path d="M29.0947 8.62109H20.9053V41.3798H29.0947V8.62109Z" fill="#FF4B55"/>
<path d="M7.47066 9.72395L8.18999 11.8809L10.4636 11.8986C10.6398 11.8999 10.7127 12.1247 10.571 12.2294L8.74194 13.58L9.42768 15.7478C9.48081 15.9156 9.2896 16.0547 9.14634 15.9522L7.29663 14.6301L5.44693 15.9522C5.30357 16.0546 5.11246 15.9156 5.16558 15.7478L5.85132 13.58L4.02252 12.2294C3.88082 12.1248 3.95387 11.9 4.12994 11.8986L6.40357 11.8809L7.1229 9.72395C7.17857 9.55686 7.41489 9.55686 7.47066 9.72395Z" fill="#FFE15A"/>
</g>
<defs>
<clipPath id="clip0_106_20032">
<rect width="50" height="50" fill="white"/>
</clipPath>
</defs>
</svg>
