<svg width="50" height="50" viewBox="0 0 50 50" fill="none" xmlns="http://www.w3.org/2000/svg">
<g clip-path="url(#clip0_106_19987)">
<path d="M49.1368 41.3791H0.861131C0.385058 41.3791 -0.000976562 40.9931 -0.000976562 40.517V9.48271C-0.000976562 9.00664 0.385058 8.62061 0.861131 8.62061H49.1369C49.613 8.62061 49.999 9.00664 49.999 9.48271V40.517C49.9989 40.9932 49.6129 41.3791 49.1368 41.3791Z" fill="#F5F5F5"/>
<path d="M24.9987 25.0004V8.62109H0.860937C0.651367 8.62109 0.466308 8.70508 0.316895 8.82949L24.9987 25.0004Z" fill="#464655"/>
<path d="M49.6805 8.82959L24.9985 25.0005H49.9984V9.4833C49.9986 9.2168 49.8706 8.9876 49.6805 8.82959Z" fill="#464655"/>
<path d="M0.316503 41.1715L24.9984 25.0005H-0.00146484V40.5176C-0.00146484 40.7842 0.126562 41.0133 0.316503 41.1715Z" fill="#464655"/>
<path d="M24.9985 25.0005V41.3798H49.1364C49.3459 41.3798 49.531 41.2958 49.6804 41.1714L24.9985 25.0005Z" fill="#464655"/>
<path d="M27.068 23.7934V26.5519C27.068 27.6928 26.1398 28.6209 24.999 28.6209C23.8582 28.6209 22.9301 27.6928 22.9301 26.5519V23.7934H27.068ZM27.7576 22.4141H22.2404C21.8595 22.4141 21.5508 22.7228 21.5508 23.1037V26.5519C21.5508 28.4563 23.0946 30.0002 24.999 30.0002C26.9034 30.0002 28.4473 28.4563 28.4473 26.5519V23.1037C28.4473 22.7229 28.1385 22.4141 27.7576 22.4141Z" fill="#FF4B55"/>
<path d="M27.0681 23.793V26.5516C27.0681 27.6924 26.1399 28.6205 24.9991 28.6205C23.8583 28.6205 22.9302 27.6924 22.9302 26.5516V23.793H27.0681Z" fill="#F5F5F5"/>
<path d="M22.2364 23.4484C22.4269 23.4484 22.5812 23.2941 22.5812 23.1036C22.5812 22.9132 22.4269 22.7588 22.2364 22.7588C22.046 22.7588 21.8916 22.9132 21.8916 23.1036C21.8916 23.2941 22.046 23.4484 22.2364 23.4484Z" fill="#FFE15A"/>
<path d="M27.7521 23.4484C27.9425 23.4484 28.0969 23.2941 28.0969 23.1036C28.0969 22.9132 27.9425 22.7588 27.7521 22.7588C27.5616 22.7588 27.4072 22.9132 27.4072 23.1036C27.4072 23.2941 27.5616 23.4484 27.7521 23.4484Z" fill="#FFE15A"/>
<path d="M22.2354 26.2072C22.4259 26.2072 22.5803 26.0528 22.5803 25.8624C22.5803 25.672 22.4259 25.5176 22.2354 25.5176C22.045 25.5176 21.8906 25.672 21.8906 25.8624C21.8906 26.0528 22.045 26.2072 22.2354 26.2072Z" fill="#FFE15A"/>
<path d="M27.7521 26.2072C27.9425 26.2072 28.0969 26.0528 28.0969 25.8624C28.0969 25.672 27.9425 25.5176 27.7521 25.5176C27.5616 25.5176 27.4072 25.672 27.4072 25.8624C27.4072 26.0528 27.5616 26.2072 27.7521 26.2072Z" fill="#FFE15A"/>
<path d="M24.9933 23.4484C25.1837 23.4484 25.3381 23.2941 25.3381 23.1036C25.3381 22.9132 25.1837 22.7588 24.9933 22.7588C24.8028 22.7588 24.6484 22.9132 24.6484 23.1036C24.6484 23.2941 24.8028 23.4484 24.9933 23.4484Z" fill="#FFE15A"/>
<path d="M24.9933 29.6818C25.1837 29.6818 25.3381 29.5275 25.3381 29.337C25.3381 29.1466 25.1837 28.9922 24.9933 28.9922C24.8028 28.9922 24.6484 29.1466 24.6484 29.337C24.6484 29.5275 24.8028 29.6818 24.9933 29.6818Z" fill="#FFE15A"/>
<path d="M27.0636 28.7502C27.254 28.7502 27.4084 28.5958 27.4084 28.4054C27.4084 28.2149 27.254 28.0605 27.0636 28.0605C26.8731 28.0605 26.7188 28.2149 26.7188 28.4054C26.7188 28.5958 26.8731 28.7502 27.0636 28.7502Z" fill="#FFE15A"/>
<path d="M22.964 28.7502C23.1544 28.7502 23.3088 28.5958 23.3088 28.4054C23.3088 28.2149 23.1544 28.0605 22.964 28.0605C22.7735 28.0605 22.6191 28.2149 22.6191 28.4054C22.6191 28.5958 22.7735 28.7502 22.964 28.7502Z" fill="#FFE15A"/>
<path d="M25.4436 25.6875V26.2813C25.4436 26.527 25.2437 26.7268 24.9981 26.7268C24.7525 26.7268 24.5527 26.527 24.5527 26.2813V25.6875H25.4436Z" fill="#41479B"/>
<path d="M25.4436 24.2793V24.8731C25.4436 25.1187 25.2437 25.3186 24.9981 25.3186C24.7525 25.3186 24.5527 25.1187 24.5527 24.8731V24.2793H25.4436Z" fill="#41479B"/>
<path d="M25.4436 27.1099V27.7037C25.4436 27.9493 25.2437 28.1491 24.9981 28.1491C24.7525 28.1491 24.5527 27.9493 24.5527 27.7037V27.1099H25.4436Z" fill="#41479B"/>
<path d="M26.6434 25.6875V26.2813C26.6434 26.527 26.4436 26.7268 26.1979 26.7268C25.9523 26.7268 25.7524 26.527 25.7524 26.2813V25.6875H26.6434Z" fill="#41479B"/>
<path d="M24.2438 25.6875V26.2813C24.2438 26.527 24.044 26.7268 23.7984 26.7268C23.5528 26.7268 23.353 26.527 23.353 26.2813V25.6875H24.2438Z" fill="#41479B"/>
<path d="M28.3377 22.414H21.6947C21.4707 22.414 21.2891 22.2323 21.2891 22.0083V21.7548C21.2891 21.5308 21.4707 21.3491 21.6947 21.3491H28.3377C28.5617 21.3491 28.7433 21.5308 28.7433 21.7548V22.0083C28.7434 22.2324 28.5617 22.414 28.3377 22.414Z" fill="#FFE15A"/>
<path d="M25.0163 21.6152L24.4839 21.8814L25.0163 22.1478L25.5488 21.8814L25.0163 21.6152Z" fill="#FF4B55"/>
<path d="M26.746 22.1483C26.9665 22.1483 27.1453 22.0291 27.1453 21.882C27.1453 21.735 26.9665 21.6157 26.746 21.6157C26.5255 21.6157 26.3467 21.735 26.3467 21.882C26.3467 22.0291 26.5255 22.1483 26.746 22.1483Z" fill="#4173CD"/>
<path d="M23.286 22.1483C23.5066 22.1483 23.6853 22.0291 23.6853 21.882C23.6853 21.735 23.5066 21.6157 23.286 21.6157C23.0655 21.6157 22.8867 21.735 22.8867 21.882C22.8867 22.0291 23.0655 22.1483 23.286 22.1483Z" fill="#4173CD"/>
<path d="M25.9495 22.0152C26.023 22.0152 26.0826 21.9556 26.0826 21.8821C26.0826 21.8086 26.023 21.749 25.9495 21.749C25.876 21.749 25.8164 21.8086 25.8164 21.8821C25.8164 21.9556 25.876 22.0152 25.9495 22.0152Z" fill="#F5F5F5"/>
<path d="M27.5462 22.0152C27.6197 22.0152 27.6793 21.9556 27.6793 21.8821C27.6793 21.8086 27.6197 21.749 27.5462 21.749C27.4727 21.749 27.4131 21.8086 27.4131 21.8821C27.4131 21.9556 27.4727 22.0152 27.5462 22.0152Z" fill="#F5F5F5"/>
<path d="M24.0853 22.0152C24.1588 22.0152 24.2184 21.9556 24.2184 21.8821C24.2184 21.8086 24.1588 21.749 24.0853 21.749C24.0117 21.749 23.9521 21.8086 23.9521 21.8821C23.9521 21.9556 24.0117 22.0152 24.0853 22.0152Z" fill="#F5F5F5"/>
<path d="M22.4876 22.0152C22.5611 22.0152 22.6207 21.9556 22.6207 21.8821C22.6207 21.8086 22.5611 21.749 22.4876 21.749C22.4141 21.749 22.3545 21.8086 22.3545 21.8821C22.3545 21.9556 22.4141 22.0152 22.4876 22.0152Z" fill="#F5F5F5"/>
<path d="M21.2891 21.7483V22.0146L21.5553 22.1478L22.0878 21.8814L21.5553 21.6152L21.2891 21.7483Z" fill="#FF4B55"/>
<path d="M28.7431 22.0146V21.7483L28.4768 21.6152L27.9443 21.8814L28.4768 22.1478L28.7431 22.0146Z" fill="#FF4B55"/>
<path d="M23.2444 19.617C23.1594 19.5752 23.0585 19.601 22.9735 19.6667C23.0171 19.6021 23.0421 19.516 23.0373 19.4223C23.0277 19.2319 22.9007 19.0836 22.7539 19.0911C22.6071 19.0985 22.4959 19.259 22.5056 19.4494C22.5108 19.5506 22.5502 19.6377 22.607 19.698C22.4923 19.6421 22.3669 19.6474 22.2903 19.7242C22.1863 19.8281 22.2113 20.0218 22.3462 20.1565C22.481 20.2915 22.6746 20.3164 22.7786 20.2125C22.8076 20.1835 22.8243 20.1468 22.8336 20.1069C22.8548 20.1626 22.8875 20.2109 22.9393 20.2364C23.0712 20.3013 23.2464 20.2154 23.3307 20.0444C23.4149 19.8733 23.3763 19.6819 23.2444 19.617ZM22.853 19.809C22.8334 19.8486 22.822 19.8892 22.8153 19.9292C22.7954 19.8767 22.7675 19.825 22.7226 19.78C22.7149 19.7722 22.7055 19.7685 22.6973 19.7614C22.7265 19.7735 22.7569 19.7821 22.789 19.7804C22.8321 19.7782 22.8703 19.7598 22.9052 19.7345C22.8868 19.7581 22.8671 19.7803 22.853 19.809Z" fill="#F5F5F5"/>
<path d="M26.6667 20.0444C26.751 20.2154 26.9262 20.3014 27.0581 20.2364C27.11 20.2108 27.1426 20.1625 27.1638 20.1069C27.1731 20.1466 27.1897 20.1834 27.2187 20.2125C27.3227 20.3165 27.5163 20.2915 27.6512 20.1565C27.7859 20.0217 27.8109 19.8281 27.7071 19.7242C27.6304 19.6474 27.5051 19.6421 27.3904 19.698C27.4473 19.6377 27.4866 19.5506 27.4918 19.4494C27.5015 19.259 27.3903 19.0985 27.2435 19.0911C27.0966 19.0837 26.9697 19.2319 26.9601 19.4223C26.9553 19.5161 26.9803 19.6021 27.0239 19.6667C26.9389 19.6009 26.8379 19.5752 26.753 19.617C26.621 19.682 26.5824 19.8734 26.6667 20.0444ZM27.0921 19.7347C27.1269 19.7601 27.1651 19.7785 27.2083 19.7806C27.2404 19.7823 27.2708 19.7736 27.3 19.7616C27.2919 19.7686 27.2824 19.7723 27.2747 19.7801C27.2298 19.8251 27.2019 19.8769 27.182 19.9294C27.1754 19.8894 27.164 19.8487 27.1443 19.8092C27.1303 19.7804 27.1106 19.7582 27.0921 19.7347Z" fill="#F5F5F5"/>
<path d="M29.8577 18.8353C29.4742 18.6988 28.6675 18.6258 28.3604 19.3228C28.3012 19.4575 28.3622 19.6145 28.4967 19.6738C28.6267 19.7312 28.7762 19.6744 28.8397 19.5487L28.94 19.6676C28.856 19.9034 28.8224 20.1146 28.8129 20.1873C28.676 20.7551 28.1487 20.8167 27.9272 20.8167C27.5699 20.8167 27.3679 20.4337 27.3659 20.4299C27.3295 20.3594 27.263 20.3082 27.1853 20.2913C27.1074 20.2744 27.0262 20.2924 26.9638 20.3412C26.8179 20.4559 26.3641 20.7655 26.0218 20.8201C25.8567 20.8466 25.722 20.819 25.631 20.7411C25.5573 20.6782 25.5312 20.5992 25.5312 20.5506C25.5312 20.4312 25.678 20.2843 25.7976 20.2843C25.8881 20.2843 25.9227 20.3423 25.9227 20.3423C25.9859 20.4759 26.1447 20.5323 26.2775 20.4696C26.4105 20.4064 26.4672 20.2478 26.4043 20.115C26.3526 20.0059 26.2103 19.8375 25.9766 19.7765C26.1185 19.5511 26.2491 19.2771 26.3301 18.9532L25.5313 18.6869C25.5313 18.6869 25.7977 17.8882 24.9989 17.8882C24.2002 17.8882 24.4665 18.6869 24.4665 18.6869L23.6678 18.9532C23.7488 19.2771 23.8792 19.5512 24.0213 19.7765C23.7876 19.8375 23.6452 20.0059 23.5936 20.115C23.5307 20.2479 23.5873 20.4065 23.7203 20.4696C23.853 20.5322 24.0119 20.4759 24.0748 20.3428C24.0748 20.3428 24.1099 20.2843 24.2002 20.2843C24.3197 20.2843 24.4665 20.4311 24.4665 20.5506C24.4665 20.5992 24.4404 20.6783 24.3667 20.7411C24.2758 20.8191 24.141 20.8467 23.976 20.8201C23.6335 20.7655 23.1798 20.4559 23.034 20.3412C22.9716 20.2923 22.8903 20.2744 22.8124 20.2913C22.7349 20.3082 22.6683 20.3594 22.6318 20.4299C22.6299 20.4338 22.4278 20.8167 22.0705 20.8167C21.8489 20.8167 21.3219 20.7551 21.1849 20.1873C21.1755 20.1146 21.1418 19.9036 21.0578 19.6676L21.1581 19.5487C21.2217 19.6745 21.3712 19.7312 21.5012 19.6738C21.6357 19.6145 21.6967 19.4575 21.6374 19.3228C21.3304 18.6259 20.5236 18.6989 20.1401 18.8353C20.0304 18.8743 19.9586 18.9802 19.9631 19.0967C19.9675 19.2132 20.0474 19.313 20.1599 19.3435C20.486 19.4311 20.6324 20.0546 20.6579 20.2658C20.6591 20.2749 20.6608 20.2846 20.6628 20.2936C20.8116 20.9446 21.3512 21.3492 22.0704 21.3492C22.4828 21.3492 22.7679 21.1157 22.9333 20.9223C23.1665 21.076 23.5418 21.2901 23.8921 21.3458C23.9594 21.3564 24.0251 21.362 24.0893 21.362C24.3298 21.362 24.5462 21.2879 24.7122 21.1462C24.8917 20.9931 24.9988 20.7702 24.9988 20.5506C24.9988 20.7703 25.106 20.9931 25.2854 21.1462C25.4514 21.2879 25.6679 21.362 25.9084 21.362C25.9726 21.362 26.0384 21.3565 26.1056 21.3458C26.4559 21.2902 26.8312 21.076 27.0643 20.9223C27.2299 21.1157 27.5148 21.3492 27.9272 21.3492C28.6467 21.3492 29.186 20.9447 29.335 20.2936C29.3369 20.2846 29.3387 20.2749 29.3398 20.2658C29.3652 20.0544 29.5117 19.4311 29.8378 19.3435C29.9504 19.3131 30.0302 19.2132 30.0346 19.0967C30.0392 18.9801 29.9675 18.8743 29.8577 18.8353Z" fill="#FFE15A"/>
<path d="M20.3743 19.3824C20.2385 19.4387 20.1968 19.6496 20.2813 19.8533C20.3658 20.057 20.5444 20.1764 20.6803 20.1201C20.8161 20.0637 20.8578 19.8529 20.7733 19.6492C20.6888 19.4455 20.5102 19.326 20.3743 19.3824Z" fill="#4173CD"/>
<path d="M29.316 20.1215C29.4519 20.1778 29.6305 20.0583 29.715 19.8546C29.7995 19.6509 29.7578 19.4401 29.622 19.3838C29.4861 19.3274 29.3075 19.4469 29.223 19.6506C29.1385 19.8543 29.1802 20.0651 29.316 20.1215Z" fill="#4173CD"/>
<path d="M24.9984 20.018C25.219 20.018 25.3977 19.7796 25.3977 19.4855C25.3977 19.1915 25.219 18.9531 24.9984 18.9531C24.7779 18.9531 24.5991 19.1915 24.5991 19.4855C24.5991 19.7796 24.7779 20.018 24.9984 20.018Z" fill="#4173CD"/>
</g>
<defs>
<clipPath id="clip0_106_19987">
<rect width="50" height="50" fill="white"/>
</clipPath>
</defs>
</svg>
