<svg width="50" height="50" viewBox="0 0 50 50" fill="none" xmlns="http://www.w3.org/2000/svg">
<g clip-path="url(#clip0_106_19958)">
<path d="M0.861619 8.62061H49.1374C49.6135 8.62061 49.9995 9.00664 49.9995 9.48271V40.517C49.9995 40.9931 49.6135 41.3791 49.1374 41.3791H0.861619C0.385546 41.3791 -0.000488281 40.9931 -0.000488281 40.517V9.48271C-0.000488281 9.00664 0.385546 8.62061 0.861619 8.62061Z" fill="#41479B"/>
<path d="M49.6813 41.1708L0.317383 8.829C0.466797 8.70459 0.651855 8.62061 0.861425 8.62061H49.1372C49.6133 8.62061 49.9993 9.00664 49.9993 9.48271V40.517C49.9993 40.7835 49.8713 41.0127 49.6813 41.1708Z" fill="#73AF00"/>
<path d="M24.9995 30.1723C27.8561 30.1723 30.1719 27.8566 30.1719 25C30.1719 22.1434 27.8561 19.8276 24.9995 19.8276C22.1429 19.8276 19.8271 22.1434 19.8271 25C19.8271 27.8566 22.1429 30.1723 24.9995 30.1723Z" fill="#FFE15A"/>
<path d="M3.77034 25.0583L4.06956 25.8163L4.84866 25.5777C4.89202 25.5644 4.92903 25.611 4.90657 25.6503L4.50051 26.3568L5.17278 26.8171C5.21018 26.8427 5.1969 26.9007 5.15207 26.9077L4.34661 27.0307L4.40588 27.8433C4.40921 27.8884 4.35549 27.9143 4.32229 27.8836L3.72395 27.3306L3.12561 27.8836C3.09241 27.9143 3.0387 27.8885 3.04202 27.8433L3.1013 27.0307L2.29583 26.9077C2.2511 26.9008 2.23782 26.8427 2.27513 26.8171L2.94739 26.3568L2.54134 25.6503C2.51878 25.6111 2.55589 25.5645 2.59925 25.5777L3.37835 25.8163L3.67757 25.0583C3.69407 25.0164 3.75364 25.0164 3.77034 25.0583Z" fill="#F5F5F5"/>
<path d="M14.6663 23.0155L14.9656 23.7734L15.7447 23.5349C15.788 23.5216 15.825 23.5682 15.8026 23.6075L15.3965 24.314L16.0688 24.7743C16.1062 24.7999 16.0929 24.8579 16.0481 24.8648L15.2426 24.9879L15.3019 25.8005C15.3052 25.8456 15.2515 25.8715 15.2183 25.8408L14.6199 25.2878L14.0216 25.8408C13.9883 25.8715 13.9347 25.8457 13.938 25.8005L13.9973 24.9879L13.1918 24.8648C13.1471 24.858 13.1338 24.7999 13.1711 24.7743L13.8434 24.314L13.4373 23.6075C13.4148 23.5683 13.4519 23.5217 13.4952 23.5349L14.2743 23.7734L14.5736 23.0155C14.5902 22.9733 14.6497 22.9733 14.6663 23.0155Z" fill="#F5F5F5"/>
<path d="M9.21858 18.1024L9.5178 18.8603L10.2969 18.6217C10.3403 18.6084 10.3773 18.655 10.3548 18.6944L9.94876 19.4008L10.621 19.8612C10.6584 19.8867 10.6451 19.9447 10.6003 19.9517L9.79485 20.0747L9.85413 20.8873C9.85745 20.9324 9.80374 20.9583 9.77053 20.9277L9.1722 20.3746L8.57386 20.9277C8.54065 20.9583 8.48694 20.9325 8.49026 20.8873L8.54954 20.0747L7.74407 19.9517C7.69935 19.9448 7.68607 19.8867 7.72337 19.8612L8.39563 19.4008L7.98958 18.6944C7.96702 18.6551 8.00413 18.6085 8.04749 18.6217L8.82659 18.8603L9.12581 18.1024C9.14241 18.0603 9.20198 18.0603 9.21858 18.1024Z" fill="#F5F5F5"/>
<path d="M9.21858 35.9549L9.5178 36.7128L10.2969 36.4742C10.3403 36.461 10.3773 36.5075 10.3548 36.5469L9.94876 37.2533L10.621 37.7137C10.6584 37.7393 10.6451 37.7973 10.6003 37.8042L9.79485 37.9273L9.85413 38.7399C9.85745 38.785 9.80374 38.8109 9.77053 38.7802L9.1722 38.2272L8.57386 38.7802C8.54065 38.8109 8.48694 38.7851 8.49026 38.7399L8.54954 37.9273L7.74407 37.8042C7.69935 37.7974 7.68607 37.7393 7.72337 37.7137L8.39563 37.2533L7.98958 36.5469C7.96702 36.5076 8.00413 36.4611 8.04749 36.4742L8.82659 36.7128L9.12581 35.9549C9.14241 35.9128 9.20198 35.9128 9.21858 35.9549Z" fill="#F5F5F5"/>
<path d="M11.4483 25.7443L11.6571 26.3706L12.3173 26.3757C12.3685 26.3761 12.3896 26.4413 12.3486 26.4717L11.8174 26.864L12.0166 27.4934C12.032 27.5422 11.9765 27.5825 11.9349 27.5527L11.3978 27.1687L10.8607 27.5527C10.8191 27.5825 10.7636 27.5422 10.7791 27.4934L10.9782 26.864L10.447 26.4717C10.4058 26.4413 10.4271 26.376 10.4783 26.3757L11.1385 26.3706L11.3473 25.7443C11.3635 25.6959 11.4321 25.6959 11.4483 25.7443Z" fill="#F5F5F5"/>
<path d="M21.9306 22.775C21.719 22.7257 21.5064 23.2698 21.7421 23.4583C21.9777 23.6468 22.4018 24.0002 22.1427 24.2123C21.8835 24.4244 21.7892 24.4479 21.7421 24.7071C21.695 24.9663 21.7421 25.0135 21.53 25.1312C21.3179 25.249 20.823 25.4847 21.0351 25.7204C21.2473 25.9562 21.53 25.8147 21.7184 25.4377C21.7184 25.4377 23.038 25.3906 23.0851 25.4848C23.1322 25.5791 23.2501 25.9325 23.5329 25.8382C23.8156 25.7438 23.8156 25.7438 23.8156 25.7438C23.8156 25.7438 23.9806 25.6731 24.0983 25.8145C24.2161 25.956 24.4989 26.003 24.8288 26.003C25.1587 26.003 25.4414 26.1915 25.418 26.6393C25.4029 26.9261 25.3297 27.5224 25.2792 27.9139C25.2521 28.1234 25.3959 28.3164 25.6044 28.3512L26.2077 28.4518C26.3664 28.4781 26.5139 28.3649 26.5281 28.2047C26.5564 27.8824 26.5975 27.4101 26.5962 27.3934C26.5826 27.2239 26.9261 26.3566 26.9025 25.956C26.8789 25.5554 26.8789 25.5554 26.8789 25.5554C26.8789 25.5554 27.2323 25.5083 27.3737 25.2727C27.5151 25.037 27.8215 24.4479 28.4341 24.2359L28.599 23.8354C28.599 23.8354 28.1278 23.6232 28.2219 23.4819C28.3163 23.3405 28.3634 22.9635 28.2927 22.6572C28.2219 22.351 28.1983 21.9268 28.1983 21.9268C28.1983 21.9268 28.0303 21.8558 27.9949 21.9534C27.9595 22.0511 27.9239 22.1042 27.8352 22.0865C27.7466 22.0688 27.6135 22.0599 27.578 21.9801C27.5426 21.9002 27.4449 21.8204 27.3562 21.8648C27.2676 21.9092 27.1167 22.5034 26.9039 22.5655C26.9039 22.5655 26.8861 22.3083 26.7531 22.3615C26.6201 22.4147 26.6289 22.5389 26.6112 22.7606C26.5935 22.9824 25.1031 24.4815 23.7991 24.0824C23.7991 24.0824 23.6572 23.7986 23.3644 23.8252C23.0717 23.8519 22.7878 23.843 22.6193 23.6389C22.4507 23.4348 22.1822 22.8339 21.9306 22.775Z" fill="#73AF00"/>
<path d="M31.5264 25.2399C31.9194 25.6575 36.2372 26.8334 40.6018 24.5472C44.9663 22.2609 47.5641 21.6029 47.5641 21.6029C47.5641 21.6029 47.5987 21.0141 48.1357 20.9275C48.6725 20.8409 48.4129 20.6158 48.2743 20.4427C48.1357 20.2695 47.4603 19.8019 46.5423 20.2002C46.5423 20.2002 45.4743 20.2406 45.3127 18.7627C45.1511 17.2848 45.0817 15.7837 44.7123 15.1372C44.3428 14.4906 41.2946 11.2577 40.9251 11.5117C40.5556 11.7657 41.8488 14.9756 43.0497 16.1072C43.0497 16.1072 43.3269 18.0933 42.9804 18.1856C42.6339 18.2779 40.7174 16.5229 37.2996 16.1072C37.2996 16.1072 38.7545 18.0933 40.5326 18.9246C42.3107 19.756 42.7956 20.5181 42.7495 20.8413C42.7033 21.1646 42.1029 22.7118 41.11 23.4277C40.117 24.1436 37.6231 26.0833 31.9652 25.0673C31.9652 25.0668 31.3417 25.0437 31.5264 25.2399Z" fill="#FFE15A"/>
</g>
<defs>
<clipPath id="clip0_106_19958">
<rect width="50" height="50" fill="white"/>
</clipPath>
</defs>
</svg>
