<svg width="50" height="50" viewBox="0 0 50 50" fill="none" xmlns="http://www.w3.org/2000/svg">
<g clip-path="url(#clip0_106_19946)">
<path d="M49.1383 41.3791H0.862596C0.386523 41.3791 0.000488281 40.9931 0.000488281 40.517V9.48271C0.000488281 9.00664 0.386523 8.62061 0.862596 8.62061H49.1384C49.6145 8.62061 50.0005 9.00664 50.0005 9.48271V40.517C50.0004 40.9932 49.6144 41.3791 49.1383 41.3791Z" fill="#73AF00"/>
<path d="M27.6978 30.0437C24.9125 30.0437 22.6544 27.7857 22.6544 25.0003C22.6544 22.2148 24.9124 19.9568 27.6978 19.9568C28.0674 19.9568 28.4255 20.0011 28.7708 20.0803C28.9084 20.1119 28.9813 19.9272 28.8613 19.8529C27.805 19.198 26.5331 18.8584 25.1754 18.9688C22.22 19.2093 19.844 21.6186 19.6428 24.577C19.4024 28.1111 22.1979 31.0524 25.6805 31.0524C26.848 31.0524 27.9373 30.7208 28.8616 30.1476C28.9816 30.0732 28.909 29.8884 28.7712 29.9202C28.4258 29.9994 28.0675 30.0437 27.6978 30.0437Z" fill="#FFE15A"/>
<path d="M32.0935 20.7299L32.4723 21.6893L33.4585 21.3873C33.5133 21.3705 33.5604 21.4295 33.5318 21.4791L33.0179 22.3735L33.869 22.9562C33.9162 22.9885 33.8994 23.0622 33.8428 23.0707L32.8232 23.2266L32.8982 24.2552C32.9024 24.3123 32.8344 24.3451 32.7923 24.3062L32.0349 23.6062L31.2775 24.3062C31.2354 24.3451 31.1674 24.3123 31.1716 24.2552L31.2466 23.2266L30.227 23.0707C30.1703 23.0622 30.1536 22.9885 30.2008 22.9562L31.0519 22.3735L30.538 21.4791C30.5095 21.4294 30.5565 21.3706 30.6113 21.3873L31.5975 21.6893L31.9763 20.7299C31.9971 20.6766 32.0725 20.6766 32.0935 20.7299Z" fill="#FFE15A"/>
<path d="M45.8865 18.1434L46.2653 19.1028L47.2515 18.8008C47.3063 18.784 47.3533 18.843 47.3247 18.8926L46.8109 19.787L47.6619 20.3697C47.7092 20.402 47.6924 20.4757 47.6358 20.4842L46.6161 20.6401L46.6911 21.6688C46.6953 21.7259 46.6274 21.7587 46.5853 21.7198L45.8279 21.0198L45.0704 21.7198C45.0284 21.7587 44.9604 21.7259 44.9646 21.6688L45.0396 20.6401L44.02 20.4842C43.9633 20.4757 43.9466 20.402 43.9938 20.3697L44.8449 19.787L44.331 18.8926C44.3025 18.8429 44.3494 18.7841 44.4042 18.8008L45.3905 19.1028L45.7693 18.1434C45.7901 18.0902 45.8655 18.0902 45.8865 18.1434Z" fill="#FFE15A"/>
<path d="M38.99 11.9243L39.3688 12.8836L40.355 12.5816C40.4098 12.5648 40.4569 12.6239 40.4283 12.6735L39.9144 13.5678L40.7655 14.1505C40.8127 14.1829 40.7959 14.2565 40.7393 14.2651L39.7197 14.4209L39.7947 15.4496C39.7989 15.5067 39.7309 15.5394 39.6888 15.5005L38.9314 14.8005L38.174 15.5005C38.1319 15.5394 38.0639 15.5067 38.0681 15.4496L38.1431 14.4209L37.1235 14.2651C37.0668 14.2565 37.0501 14.1829 37.0973 14.1505L37.9484 13.5678L37.4345 12.6735C37.406 12.6238 37.4531 12.5649 37.5077 12.5816L38.494 12.8836L38.8728 11.9243C38.8935 11.8709 38.969 11.8709 38.99 11.9243Z" fill="#FFE15A"/>
<path d="M38.99 34.5228L39.3688 35.4822L40.355 35.1801C40.4098 35.1634 40.4569 35.2224 40.4283 35.272L39.9144 36.1664L40.7655 36.7491C40.8127 36.7814 40.7959 36.8551 40.7393 36.8636L39.7197 37.0195L39.7947 38.0481C39.7989 38.1052 39.7309 38.138 39.6888 38.0991L38.9314 37.3991L38.174 38.0991C38.1319 38.138 38.0639 38.1052 38.0681 38.0481L38.1431 37.0195L37.1235 36.8636C37.0668 36.8551 37.0501 36.7814 37.0973 36.7491L37.9484 36.1664L37.4345 35.272C37.406 35.2223 37.4531 35.1635 37.5077 35.1801L38.494 35.4822L38.8728 34.5228C38.8935 34.4696 38.969 34.4696 38.99 34.5228Z" fill="#FFE15A"/>
<path d="M41.8131 21.5978L42.0775 22.3906L42.9132 22.397C42.9779 22.3976 43.0048 22.4802 42.9527 22.5186L42.2805 23.0151L42.5325 23.8119C42.5521 23.8736 42.4817 23.9247 42.4291 23.887L41.7491 23.401L41.0692 23.887C41.0164 23.9246 40.9462 23.8736 40.9657 23.8119L41.2178 23.0151L40.5455 22.5186C40.4935 22.4802 40.5203 22.3975 40.5851 22.397L41.4207 22.3906L41.6852 21.5978C41.7057 21.5364 41.7925 21.5364 41.8131 21.5978Z" fill="#FFE15A"/>
<path d="M9.05272 23.2763C12.1475 23.2763 14.6562 20.7676 14.6562 17.6728C14.6562 14.5781 12.1475 12.0693 9.05272 12.0693C5.95799 12.0693 3.44922 14.5781 3.44922 17.6728C3.44922 20.7676 5.95799 23.2763 9.05272 23.2763Z" fill="#FFE15A"/>
<path d="M8.47607 22.0382H9.98935C9.98935 22.0382 10.8491 18.1862 10.0581 16.8105L9.57666 17.12C9.57666 17.12 10.3677 19.7682 8.47607 22.0382Z" fill="#964B50"/>
<path d="M8.5331 16.9825C8.5331 16.9825 7.66191 17.5786 7.93701 19.3442C7.93701 19.3442 8.60185 18.7939 8.96874 17.5786C8.96874 17.5786 8.4414 18.5874 9.17509 19.39C9.17509 19.39 9.95458 18.2894 9.83993 17.3264C9.83993 17.3264 12.4316 20.0328 11.8806 19.3441C11.7889 19.2294 12.0182 18.0829 11.1239 17.143C11.1239 17.143 12.5914 17.5098 13.1416 17.3723C13.1416 17.3723 13.1875 16.2029 11.7888 15.9965L12.1098 15.0794C12.1098 15.0794 11.0322 15.0107 10.4589 15.5609C10.4589 15.5609 10.3213 14.1393 10.8945 13.4515C10.8945 13.4515 9.19784 13.1992 9.129 15.4234C9.129 15.4234 8.50995 14.0018 6.60693 14.3458C6.60693 14.3458 7.68447 15.1253 7.86806 15.4694C7.86806 15.4694 6.35478 14.4376 5.64404 15.8821C5.64404 15.8821 6.85927 15.5611 7.29492 16.1343C7.29492 16.1343 5.346 15.928 5.18555 17.6018C5.18564 17.6017 6.99697 16.7532 8.5331 16.9825Z" fill="#73AF00"/>
</g>
<defs>
<clipPath id="clip0_106_19946">
<rect width="50" height="50" fill="white"/>
</clipPath>
</defs>
</svg>
