<svg width="50" height="50" viewBox="0 0 50 50" fill="none" xmlns="http://www.w3.org/2000/svg">
<g clip-path="url(#clip0_106_19930)">
<path d="M0.863084 8.62061H49.1389C49.6149 8.62061 50.001 9.00664 50.001 9.48271V16.8102H0.000976562V9.48271C0.000976562 9.00664 0.387011 8.62061 0.863084 8.62061Z" fill="#FFE15A"/>
<path d="M50.0009 16.8105H0.000976562V25H50.0009V16.8105Z" fill="#F5F5F5"/>
<path d="M50.0009 25H0.000976562V33.1894H50.0009V25Z" fill="#FF4B55"/>
<path d="M0.000976562 33.1899H50.0009V40.5175C50.0009 40.9935 49.6148 41.3796 49.1388 41.3796H0.863084C0.387011 41.3796 0.000976562 40.9935 0.000976562 40.5175V33.1899Z" fill="#4173CD"/>
<path d="M0.318945 41.1709L24.4774 25.3429C24.7245 25.181 24.7245 24.8189 24.4774 24.6569L0.318945 8.8291C0.129004 8.98711 0.000976562 9.21631 0.000976562 9.48281V40.5171C0.000976562 40.7836 0.129004 41.0128 0.318945 41.1709Z" fill="#73AF00"/>
<path d="M4.76953 25C4.76953 21.8829 6.80712 19.2454 9.62196 18.337C9.76991 18.2893 9.7493 18.0732 9.5951 18.053C9.30536 18.0151 9.01014 17.9946 8.70995 17.9946C4.84101 17.9946 1.70459 21.131 1.70459 25C1.70459 28.8689 4.84101 32.0053 8.70995 32.0053C9.01014 32.0053 9.30536 31.9848 9.5951 31.9469C9.7493 31.9267 9.76991 31.7107 9.62196 31.663C6.80712 30.7547 4.76953 28.1173 4.76953 25Z" fill="#F5F5F5"/>
<path d="M9.65817 19.649L9.85104 20.2272L10.4605 20.232C10.5394 20.2326 10.5721 20.3332 10.5087 20.3801L10.0183 20.7422L10.2021 21.3234C10.2259 21.3986 10.1403 21.4609 10.076 21.415L9.58015 21.0606L9.08425 21.415C9.01999 21.4609 8.93435 21.3986 8.95817 21.3234L9.14196 20.7422L8.65163 20.3801C8.58816 20.3332 8.62097 20.2324 8.69978 20.232L9.30925 20.2272L9.50212 19.649C9.52722 19.574 9.63317 19.574 9.65817 19.649Z" fill="#F5F5F5"/>
<path d="M9.65817 22.5795L9.85104 23.1578L10.4605 23.1625C10.5394 23.1632 10.5721 23.2638 10.5087 23.3107L10.0183 23.6728L10.2021 24.254C10.2259 24.3291 10.1403 24.3915 10.076 24.3456L9.58015 23.9912L9.08425 24.3456C9.01999 24.3915 8.93435 24.3291 8.95817 24.254L9.14196 23.6728L8.65163 23.3107C8.58816 23.2638 8.62097 23.163 8.69978 23.1625L9.30925 23.1578L9.50212 22.5795C9.52722 22.5047 9.63317 22.5047 9.65817 22.5795Z" fill="#F5F5F5"/>
<path d="M9.65817 25.5098L9.85104 26.088L10.4605 26.0928C10.5394 26.0935 10.5721 26.1941 10.5087 26.2409L10.0183 26.603L10.2021 27.1842C10.2259 27.2594 10.1403 27.3217 10.076 27.2758L9.58015 26.9214L9.08425 27.2758C9.01999 27.3217 8.93435 27.2594 8.95817 27.1842L9.14196 26.603L8.65163 26.2409C8.58816 26.1941 8.62097 26.0933 8.69978 26.0928L9.30925 26.088L9.50212 25.5098C9.52722 25.4349 9.63317 25.4349 9.65817 25.5098Z" fill="#F5F5F5"/>
<path d="M9.65817 28.44L9.85104 29.0182L10.4605 29.023C10.5394 29.0237 10.5721 29.1242 10.5087 29.1711L10.0183 29.5332L10.2021 30.1144C10.2259 30.1896 10.1403 30.2519 10.076 30.206L9.58015 29.8516L9.08425 30.206C9.01999 30.2519 8.93435 30.1896 8.95817 30.1144L9.14196 29.5332L8.65163 29.1711C8.58816 29.1242 8.62097 29.0235 8.69978 29.023L9.30925 29.0182L9.50212 28.44C9.52722 28.3651 9.63317 28.3651 9.65817 28.44Z" fill="#F5F5F5"/>
</g>
<defs>
<clipPath id="clip0_106_19930">
<rect width="50" height="50" fill="white"/>
</clipPath>
</defs>
</svg>
