<svg width="50" height="50" viewBox="0 0 50 50" fill="none" xmlns="http://www.w3.org/2000/svg">
<g clip-path="url(#clip0_106_19904)">
<path d="M49.1378 41.3791H0.862108C0.386034 41.3791 0 40.9931 0 40.517V9.48271C0 9.00664 0.386034 8.62061 0.862108 8.62061H49.1379C49.614 8.62061 50 9.00664 50 9.48271V40.517C49.9999 40.9932 49.6139 41.3791 49.1378 41.3791Z" fill="#41479B"/>
<path d="M24.1378 8.62061H22.6405L14.6551 13.8523V8.62061H10.3448V13.8523L2.35947 8.62061H0.862108C0.386034 8.62061 0 9.00664 0 9.48271V10.1665L6.85106 14.6551H0V18.9654H6.85106L0 23.4541V24.1378C0 24.6138 0.386034 24.9999 0.862108 24.9999H2.35947L10.3448 19.7681V24.9999H14.6551V19.7681L22.6404 24.9999H24.1377C24.6138 24.9999 24.9999 24.6138 24.9999 24.1378V23.454L18.1489 18.9654H24.9999V14.6551H18.1488L24.9999 10.1665V9.48271C24.9999 9.00664 24.614 8.62061 24.1378 8.62061Z" fill="#F5F5F5"/>
<path d="M24.9994 15.5177H13.7926V8.62109H11.2063V15.5177H-0.000488281V18.1038H11.2063V25.0004H13.7926V18.1038H24.9994V15.5177Z" fill="#FF4B55"/>
<path d="M9.48221 14.6554L0.410351 8.7666C0.168945 8.91943 -0.000488281 9.17607 -0.000488281 9.48301V9.52773L7.89881 14.6554H9.48221Z" fill="#FF4B55"/>
<path d="M16.2382 14.6556L24.8684 9.05342C24.7184 8.79961 24.4538 8.62109 24.1375 8.62109H23.9511L14.6548 14.6556H16.2382Z" fill="#FF4B55"/>
<path d="M8.7368 18.9658L0.123047 24.5572C0.271582 24.8172 0.540331 25.0003 0.861229 25.0003H1.02383L10.3202 18.9658H8.7368Z" fill="#FF4B55"/>
<path d="M24.9857 24.2059L16.9129 18.9658H15.3296L24.4969 24.9164C24.7716 24.789 24.9598 24.5219 24.9857 24.2059Z" fill="#FF4B55"/>
<path d="M36.8283 14.6596L37.1444 15.6076L38.1437 15.6153C38.2211 15.616 38.2532 15.7146 38.1909 15.7607L37.387 16.3544L37.6883 17.3072C37.7117 17.381 37.6277 17.4422 37.5646 17.3971L36.7515 16.8159L35.9384 17.3971C35.8754 17.4421 35.7915 17.381 35.8147 17.3072L36.1161 16.3544L35.3122 15.7607C35.2499 15.7147 35.282 15.6159 35.3593 15.6153L36.3587 15.6076L36.6748 14.6596C36.7 14.5861 36.8039 14.5861 36.8283 14.6596Z" fill="#F5F5F5"/>
<path d="M32.5792 15.8258L33.2537 16.5633L34.1697 16.164C34.2407 16.133 34.3102 16.2102 34.2719 16.2776L33.779 17.1468L34.4418 17.8946C34.4932 17.9527 34.4413 18.0426 34.3655 18.0271L33.3864 17.8269L32.88 18.6884C32.8408 18.7551 32.7392 18.7335 32.7304 18.6566L32.6182 17.6636L31.6423 17.4483C31.5667 17.4316 31.5559 17.3282 31.6264 17.2962L32.5362 16.8826L32.4394 15.888C32.4321 15.8109 32.527 15.7686 32.5792 15.8258Z" fill="#F5F5F5"/>
<path d="M29.1714 18.619L30.0874 19.0183L30.7619 18.2808C30.8141 18.2237 30.909 18.266 30.9015 18.343L30.8047 19.3377L31.7145 19.7512C31.785 19.7833 31.7741 19.8866 31.6986 19.9033L30.7227 20.1186L30.6105 21.1116C30.6018 21.1885 30.5001 21.2101 30.4609 21.1434L29.9545 20.2819L28.9754 20.4821C28.8996 20.4976 28.8476 20.4077 28.8991 20.3497L29.562 19.6018L29.069 18.7326C29.0309 18.6653 29.1003 18.5881 29.1714 18.619Z" fill="#F5F5F5"/>
<path d="M27.1944 22.5573L28.1937 22.5496L28.51 21.6015C28.5344 21.528 28.6383 21.528 28.6629 21.6015L28.979 22.5496L29.9783 22.5573C30.0557 22.558 30.0878 22.6566 30.0255 22.7027L29.2216 23.2964L29.5229 24.2492C29.5463 24.323 29.4623 24.3842 29.3992 24.339L28.5861 23.7579L27.773 24.339C27.71 24.3841 27.6261 24.323 27.6493 24.2492L27.9507 23.2964L27.1468 22.7027C27.085 22.6566 27.1171 22.5578 27.1944 22.5573Z" fill="#F5F5F5"/>
<path d="M26.9907 26.9587L27.9004 26.5451L27.8036 25.5505C27.7961 25.4734 27.8911 25.4313 27.9433 25.4883L28.6177 26.2258L29.5337 25.8265C29.6047 25.7955 29.6743 25.8727 29.636 25.9401L29.143 26.8094L29.8059 27.5572C29.8573 27.6152 29.8053 27.7052 29.7295 27.6897L28.7504 27.4895L28.2441 28.351C28.2048 28.4177 28.1033 28.3961 28.0945 28.3191L27.9823 27.3262L27.0064 27.1108C26.931 27.0941 26.9202 26.9907 26.9907 26.9587Z" fill="#F5F5F5"/>
<path d="M28.5943 31.063L29.2572 30.3152L28.7642 29.446C28.7261 29.3786 28.7956 29.3014 28.8665 29.3324L29.7825 29.7317L30.4569 28.9942C30.5092 28.9371 30.6041 28.9794 30.5966 29.0564L30.4998 30.051L31.4096 30.4646C31.4801 30.4966 31.4691 30.6 31.3936 30.6167L30.4178 30.832L30.3056 31.825C30.2969 31.9019 30.1952 31.9235 30.1559 31.8568L29.6496 30.9953L28.6705 31.1955C28.5949 31.2109 28.543 31.121 28.5943 31.063Z" fill="#F5F5F5"/>
<path d="M31.7288 34.1598L32.0301 33.207L31.2262 32.6134C31.1639 32.5674 31.1961 32.4685 31.2734 32.4679L32.2727 32.4602L32.5889 31.5122C32.6133 31.4386 32.7173 31.4386 32.7419 31.5122L33.058 32.4602L34.0573 32.4679C34.1346 32.4686 34.1668 32.5673 34.1045 32.6134L33.3006 33.207L33.6019 34.1598C33.6253 34.2337 33.5413 34.2948 33.4782 34.2497L32.6651 33.6685L31.852 34.2497C31.7896 34.2947 31.7055 34.2337 31.7288 34.1598Z" fill="#F5F5F5"/>
<path d="M35.852 35.7141L35.7398 34.7211L34.7639 34.5058C34.6882 34.4891 34.6775 34.3858 34.748 34.3538L35.6578 33.9402L35.561 32.9456C35.5535 32.8685 35.6484 32.8262 35.7006 32.8834L36.375 33.6209L37.2911 33.2215C37.3621 33.1906 37.4316 33.2677 37.3933 33.3351L36.9003 34.2044L37.5632 34.9522C37.6146 35.0102 37.5626 35.1001 37.4869 35.0846L36.5078 34.8844L36.0014 35.7459C35.9622 35.8126 35.8606 35.7911 35.852 35.7141Z" fill="#F5F5F5"/>
<path d="M40.2504 35.4574L39.7441 34.5959L38.765 34.796C38.6891 34.8116 38.6372 34.7216 38.6886 34.6636L39.3515 33.9158L38.8585 33.0465C38.8204 32.9792 38.8899 32.902 38.9608 32.933L39.8768 33.3323L40.5512 32.5948C40.6035 32.5377 40.6984 32.5799 40.6909 32.657L40.5941 33.6516L41.5039 34.0652C41.5744 34.0972 41.5634 34.2005 41.4879 34.2172L40.5121 34.4326L40.3998 35.4255C40.3914 35.5025 40.2897 35.5241 40.2504 35.4574Z" fill="#F5F5F5"/>
<path d="M44.1647 33.4333L43.3516 32.8521L42.5385 33.4333C42.4755 33.4783 42.3916 33.4173 42.4148 33.3434L42.7162 32.3906L41.9123 31.7969C41.85 31.751 41.8821 31.6521 41.9594 31.6515L42.9588 31.6438L43.275 30.6958C43.2994 30.6222 43.4033 30.6222 43.4279 30.6958L43.744 31.6438L44.7433 31.6515C44.8207 31.6522 44.8528 31.7509 44.7905 31.7969L43.9866 32.3906L44.2879 33.3434C44.3117 33.4172 44.2276 33.4783 44.1647 33.4333Z" fill="#F5F5F5"/>
<path d="M46.9172 29.9923L45.9381 29.7921L45.4318 30.6536C45.3925 30.7203 45.291 30.6987 45.2822 30.6218L45.17 29.6288L44.1941 29.4135C44.1184 29.3968 44.1077 29.2935 44.1782 29.2614L45.0879 28.8479L44.9912 27.8532C44.9836 27.7762 45.0786 27.734 45.1308 27.791L45.8052 28.5285L46.7212 28.1292C46.7922 28.0983 46.8618 28.1754 46.8235 28.2428L46.3305 29.112L46.9934 29.8599C47.0451 29.9179 46.9931 30.0078 46.9172 29.9923Z" fill="#F5F5F5"/>
<path d="M48.0321 25.7291L47.0562 25.9444L46.944 26.9374C46.9353 27.0143 46.8336 27.0359 46.7944 26.9692L46.288 26.1077L45.3089 26.3079C45.2331 26.3234 45.1811 26.2335 45.2326 26.1754L45.8955 25.4276L45.4025 24.5583C45.3643 24.4909 45.4338 24.4137 45.5047 24.4447L46.4207 24.844L47.0952 24.1065C47.1474 24.0494 47.2423 24.0917 47.2348 24.1687L47.138 25.1633L48.0478 25.5769C48.1185 25.609 48.1077 25.7125 48.0321 25.7291Z" fill="#F5F5F5"/>
<path d="M47.3164 21.3814L46.5125 21.9751L46.8138 22.9279C46.8372 23.0017 46.7532 23.0629 46.6901 23.0177L45.877 22.4366L45.0639 23.0177C45.0008 23.0628 44.917 23.0017 44.9402 22.9279L45.2416 21.9751L44.4377 21.3814C44.3754 21.3354 44.4075 21.2366 44.4848 21.236L45.4841 21.2283L45.8004 20.2802C45.8248 20.2067 45.9287 20.2067 45.9533 20.2802L46.2694 21.2283L47.2687 21.236C47.3465 21.2366 47.3787 21.3354 47.3164 21.3814Z" fill="#F5F5F5"/>
<path d="M44.8945 17.7002L44.4015 18.5696L45.0644 19.3174C45.1158 19.3754 45.0638 19.4654 44.988 19.4499L44.0089 19.2497L43.5026 20.1112C43.4633 20.1779 43.3618 20.1563 43.353 20.0793L43.2408 19.0864L42.2649 18.871C42.1892 18.8543 42.1785 18.751 42.249 18.719L43.1587 18.3054L43.062 17.3108C43.0544 17.2337 43.1494 17.1915 43.2016 17.2486L43.876 17.9861L44.792 17.5868C44.8631 17.5558 44.9327 17.633 44.8945 17.7002Z" fill="#F5F5F5"/>
<path d="M41.1847 15.3225L41.0879 16.3172L41.9977 16.7307C42.0682 16.7628 42.0573 16.8661 41.9818 16.8828L41.0059 17.0981L40.8937 18.0911C40.885 18.168 40.7833 18.1896 40.7441 18.1229L40.2377 17.2614L39.2586 17.4616C39.1828 17.4771 39.1308 17.3872 39.1823 17.3292L39.8452 16.5813L39.3522 15.712C39.314 15.6446 39.3835 15.5675 39.4544 15.5984L40.3705 15.9977L41.0449 15.2602C41.0973 15.2032 41.1922 15.2455 41.1847 15.3225Z" fill="#F5F5F5"/>
<path d="M36.8283 14.6596L37.1444 15.6076L38.1437 15.6153C38.2211 15.616 38.2532 15.7146 38.1909 15.7607L37.387 16.3544L37.6883 17.3072C37.7117 17.381 37.6277 17.4422 37.5646 17.3971L36.7515 16.8159L35.9384 17.3971C35.8754 17.4421 35.7915 17.381 35.8147 17.3072L36.1161 16.3544L35.3122 15.7607C35.2499 15.7147 35.282 15.6159 35.3593 15.6153L36.3587 15.6076L36.6748 14.6596C36.7 14.5861 36.8039 14.5861 36.8283 14.6596Z" fill="#F5F5F5"/>
</g>
<defs>
<clipPath id="clip0_106_19904">
<rect width="50" height="50" fill="white"/>
</clipPath>
</defs>
</svg>
