<svg width="50" height="50" viewBox="0 0 50 50" fill="none" xmlns="http://www.w3.org/2000/svg">
<g clip-path="url(#clip0_106_19901)">
<path d="M49.1378 41.3791H0.862108C0.386034 41.3791 0 40.9931 0 40.517V9.48271C0 9.00664 0.386034 8.62061 0.862108 8.62061H49.1379C49.614 8.62061 50 9.00664 50 9.48271V40.517C49.9999 40.9932 49.6139 41.3791 49.1378 41.3791Z" fill="#F5F5F5"/>
<path d="M13.891 26.6934C13.891 26.6934 13.9149 27.1506 13.5299 27.5597C13.1448 27.969 13.3373 28.4984 13.8428 28.7391C13.8428 28.7391 13.4939 29.5694 14.0113 29.9183C14.338 30.1388 14.7814 30.1109 14.7814 30.1109C14.7814 30.1109 15.0222 31.0977 14.8296 31.7233C14.637 32.3491 14.9018 34.154 19.3059 33.1192C19.3059 33.1192 19.3459 34.2744 21.1109 35.1728C22.8757 36.0713 22.5301 38.1996 22.5301 38.1996C22.5301 38.1996 24.9593 39.6061 27.6443 36.2818C30.3294 32.9576 30.5211 32.51 32.4389 31.7429C32.4389 31.7429 29.4343 28.6744 30.5212 25.9894C30.6642 25.6355 30.826 25.2642 30.9947 24.8824C31.3058 25.8929 31.9205 27.3686 33.0184 28.2269C33.36 28.4926 33.7816 28.5765 34.1891 28.6584C34.6266 28.7462 35.0042 28.8221 35.182 29.0919C35.3383 29.3321 35.3526 29.7558 35.2317 30.3421C33.9262 31.7663 32.6646 32.1458 32.6469 32.1503L32.3433 32.2323L32.9816 34.3374L31.0767 36.0899L31.1107 36.2597C31.3464 37.4344 32.0715 37.5902 32.3712 37.6042C32.3892 37.6042 32.4073 37.6063 32.4253 37.6063C33.1184 37.6063 33.8236 37.023 34.0474 36.2538C34.435 34.9254 35.6996 34.7736 35.7135 34.7736L35.9053 34.7516L35.9692 34.5698C35.9972 34.4898 36.6544 32.5959 36.978 30.6663C37.1081 29.8857 37.1329 29.2643 37.1063 28.7207C37.1164 28.7019 37.1278 28.6915 37.1377 28.6725L37.1047 28.6552C36.9827 26.5976 35.8666 26.05 34.7643 25.542C33.8247 25.1057 33.4558 24.6822 33.2733 24.3463C33.3112 24.3472 33.3434 24.3573 33.3819 24.3573C33.6816 24.3573 33.9972 24.3233 34.3168 24.2335C35.2077 23.9857 35.929 23.3764 36.4603 22.4236C36.7839 21.8403 39.1913 15.2357 39.4649 14.4847L39.6546 13.9632L36.5471 14.6264L36.7838 12.7366L32.7564 14.157L32.8523 14.4447C32.8663 14.4826 34.1489 18.3344 34.025 20.6856C33.991 21.303 33.7972 21.7504 33.4436 22.014C32.9991 22.3424 32.3965 22.3249 32.0819 22.291C32.7829 20.4286 33.2348 18.4719 32.5666 16.72C31.4595 13.8176 26.5573 11.1583 22.8496 11.5419C19.1419 11.9255 16.0688 12.8214 15.046 16.5293C14.0231 20.2371 14.3083 21.2168 14.4362 21.856C14.5641 22.4953 12.1559 25.3172 12.5913 26.1881C12.8802 26.7655 13.891 26.6934 13.891 26.6934ZM31.6641 23.3402C31.7286 23.1882 31.793 23.0368 31.8556 22.8828C31.9692 22.903 32.1376 22.9269 32.385 22.9269C32.8045 22.9269 33.3539 22.8469 33.8114 22.5053C34.3167 22.1278 34.5945 21.5264 34.6365 20.7175C34.7503 18.6079 33.8314 15.4973 33.5278 14.5364L36.0529 13.6474L35.4396 18.5459L36.0469 18.6218L36.4667 15.27L38.6999 14.794C37.6352 17.7107 36.1388 21.7401 35.925 22.1237C35.4756 22.9288 34.8783 23.4402 34.151 23.6421C33.059 23.9517 32.0188 23.5142 31.6641 23.3402ZM33.179 34.9897L33.4906 36.018C33.4826 36.043 33.4673 36.0563 33.4599 36.0819C33.3141 36.5813 32.8446 36.9909 32.427 36.9909C32.417 36.9909 32.4071 36.9909 32.399 36.9909C32.0195 36.9749 31.8376 36.6053 31.7517 36.3037L33.179 34.9897ZM36.4785 29.6836C36.4538 29.9593 36.4271 30.2385 36.3725 30.5662C36.1128 32.1184 35.6133 33.6926 35.4456 34.1981C35.1019 34.2785 34.3927 34.5214 33.8866 35.2084L33.1062 32.6398C33.7284 32.3926 35.1857 31.576 36.4785 29.6836ZM31.3924 23.9807C31.4042 23.954 31.4157 23.9296 31.4271 23.9028C31.6578 24.0122 32.0471 24.1729 32.5666 24.2744C32.7109 24.7039 33.049 25.4225 34.5066 26.0973C35.5174 26.564 36.3677 26.9598 36.5031 28.5221C36.3123 28.873 36.1033 29.1168 35.8996 29.4048C35.8698 29.1567 35.8122 28.9338 35.6953 28.7563C35.3756 28.2709 34.8102 28.157 34.3088 28.0571C33.9553 27.9852 33.6216 27.9193 33.396 27.7434C32.1059 26.7361 31.553 24.6886 31.3924 23.9807ZM15.4313 19.449C15.4313 19.449 15.5274 17.2832 16.4904 15.454L31.2192 22.2889L29.9676 24.9844L15.4313 19.449Z" fill="#464655"/>
</g>
<defs>
<clipPath id="clip0_106_19901">
<rect width="50" height="50" fill="white"/>
</clipPath>
</defs>
</svg>
