<svg width="50" height="50" viewBox="0 0 50 50" fill="none" xmlns="http://www.w3.org/2000/svg">
<g clip-path="url(#clip0_106_19766)">
<path d="M49.9989 15.1724H-0.000976562V9.48271C-0.000976562 9.00664 0.385058 8.62061 0.861131 8.62061H49.1369C49.613 8.62061 49.999 9.00664 49.999 9.48271L49.9989 15.1724Z" fill="#41479B"/>
<path d="M49.1363 41.3789H0.860643C0.38457 41.3789 -0.00146484 40.9929 -0.00146484 40.5168V34.8271H49.9984V40.5168C49.9984 40.993 49.6124 41.3789 49.1363 41.3789Z" fill="#41479B"/>
<path d="M49.9994 15.1729H-0.000488281V21.7246H49.9994V15.1729Z" fill="#F5F5F5"/>
<path d="M49.9994 21.7246H-0.000488281V28.2764H49.9994V21.7246Z" fill="#41479B"/>
<path d="M49.9994 28.2764H-0.000488281V34.8281H49.9994V28.2764Z" fill="#F5F5F5"/>
<path d="M0.322753 41.1743L25.2643 25.378C25.5417 25.2022 25.5417 24.7974 25.2643 24.6216L0.322753 8.8252C0.129883 8.9833 -0.000488281 9.21367 -0.000488281 9.48252V40.5168C-0.000488281 40.7857 0.12998 41.0161 0.322753 41.1743Z" fill="#FF4B55"/>
<path d="M8.64431 20.8436L9.52946 23.4975L12.327 23.5192C12.5437 23.5209 12.6336 23.7974 12.4592 23.9262L10.2088 25.5881L11.0526 28.2554C11.118 28.462 10.8827 28.6329 10.7064 28.5069L8.43044 26.8801L6.15447 28.507C5.9782 28.633 5.74285 28.462 5.80828 28.2555L6.65213 25.5883L4.40155 23.9264C4.22723 23.7976 4.31707 23.521 4.53377 23.5194L7.33133 23.4977L8.21648 20.8438C8.28494 20.638 8.57576 20.638 8.64431 20.8436Z" fill="#F5F5F5"/>
</g>
<defs>
<clipPath id="clip0_106_19766">
<rect width="50" height="50" fill="white"/>
</clipPath>
</defs>
</svg>
