<svg width="50" height="50" viewBox="0 0 50 50" fill="none" xmlns="http://www.w3.org/2000/svg">
<g clip-path="url(#clip0_106_19760)">
<path d="M49.1383 41.3792H0.862596C0.386523 41.3792 0.000488281 40.9932 0.000488281 40.5171V9.48271C0.000488281 9.00664 0.386523 8.62061 0.862596 8.62061H49.1384C49.6145 8.62061 50.0005 9.00664 50.0005 9.48271V40.5171C50.0004 40.9933 49.6144 41.3792 49.1383 41.3792Z" fill="#41479B"/>
<path d="M50.0004 31.0342H0.000488281V35.3447H50.0004V31.0342Z" fill="#FFE15A"/>
<path d="M11.6156 16.6863L10.7677 19.2287L8.0877 19.2495C7.83067 19.2514 7.72412 19.5795 7.93086 19.7321L10.0868 21.3241L9.27842 23.8793C9.20098 24.1243 9.47988 24.327 9.68896 24.1775L11.8693 22.6191L14.0497 24.1775C14.2588 24.3269 14.5378 24.1243 14.4602 23.8793L13.6518 21.3241L15.8078 19.7321C16.0146 19.5794 15.908 19.2515 15.651 19.2495L12.971 19.2287L12.123 16.6863C12.0418 16.4425 11.697 16.4425 11.6156 16.6863Z" fill="#F5F5F5"/>
<path d="M5.50731 11.9945L5.01659 13.4661L3.46542 13.4782C3.31669 13.4794 3.25497 13.6691 3.3747 13.7575L4.62255 14.679L4.15468 16.158C4.10985 16.2998 4.27128 16.4172 4.39227 16.3306L5.65418 15.4286L6.9161 16.3306C7.03709 16.4172 7.19862 16.2998 7.15369 16.158L6.68582 14.679L7.93367 13.7575C8.0533 13.6691 7.99168 13.4793 7.84295 13.4782L6.29178 13.4661L5.80106 11.9945C5.75399 11.8534 5.55438 11.8534 5.50731 11.9945Z" fill="#F5F5F5"/>
</g>
<defs>
<clipPath id="clip0_106_19760">
<rect width="50" height="50" fill="white"/>
</clipPath>
</defs>
</svg>
