<svg width="50" height="50" viewBox="0 0 50 50" fill="none" xmlns="http://www.w3.org/2000/svg">
<g clip-path="url(#clip0_106_19756)">
<path d="M0.31748 41.1709L24.9995 25L0.31748 8.8291C0.127539 8.98721 -0.000488281 9.21631 -0.000488281 9.48271V40.5172C-0.000488281 40.7837 0.127539 41.0128 0.31748 41.1709Z" fill="#41479B"/>
<path d="M0.31665 41.1709C0.466064 41.2953 0.651123 41.3793 0.860693 41.3793H49.1366C49.6126 41.3793 49.9987 40.9933 49.9987 40.5172V25H24.9987L0.31665 41.1709Z" fill="#FF4B55"/>
<path d="M0.31665 8.829C0.466064 8.70459 0.651123 8.62061 0.860693 8.62061H49.1366C49.6126 8.62061 49.9987 9.00664 49.9987 9.48271V24.9999H24.9987L0.31665 8.829Z" fill="#F5F5F5"/>
</g>
<defs>
<clipPath id="clip0_106_19756">
<rect width="50" height="50" fill="white"/>
</clipPath>
</defs>
</svg>
