<svg width="50" height="50" viewBox="0 0 50 50" fill="none" xmlns="http://www.w3.org/2000/svg">
<g clip-path="url(#clip0_106_19749)">
<path d="M49.1383 41.3792H0.862596C0.386523 41.3792 0.000488281 40.9932 0.000488281 40.5171V9.48271C0.000488281 9.00664 0.386523 8.62061 0.862596 8.62061H49.1384C49.6145 8.62061 50.0005 9.00664 50.0005 9.48271V40.5171C50.0004 40.9933 49.6144 41.3792 49.1383 41.3792Z" fill="#82AFFF"/>
<path d="M49.1383 8.62061H46.6671L0.000488281 32.7585V34.4826L49.6456 8.8041C49.5017 8.69639 49.3319 8.62061 49.1383 8.62061Z" fill="#FFE15A"/>
<path d="M0.863036 41.3791H3.33422L50.0008 17.2412V15.5171L0.355713 41.1956C0.499658 41.3033 0.669384 41.3791 0.863036 41.3791Z" fill="#FFE15A"/>
<path d="M49.6456 8.8042L0.000488281 34.4827V40.5171C0.000488281 40.7996 0.145312 41.0385 0.355273 41.1956L50.0004 15.5173V9.48271C50.0004 9.20019 49.8556 8.96143 49.6456 8.8042Z" fill="#FF4B55"/>
<path d="M9.04524 12.0097L10.2872 15.7338L14.2129 15.7642C14.4324 15.7659 14.5234 16.046 14.3469 16.1765L11.1888 18.5086L12.373 22.2515C12.4392 22.4608 12.2009 22.634 12.0223 22.5063L8.82844 20.2234L5.6346 22.5063C5.45608 22.6341 5.21771 22.4608 5.28392 22.2515L6.46809 18.5086L3.30999 16.1765C3.13333 16.0461 3.22445 15.7659 3.44398 15.7642L7.36965 15.7338L8.61164 12.0097C8.68127 11.8015 8.97571 11.8015 9.04524 12.0097Z" fill="#FFE15A"/>
</g>
<defs>
<clipPath id="clip0_106_19749">
<rect width="50" height="50" fill="white"/>
</clipPath>
</defs>
</svg>
