<svg width="50" height="50" viewBox="0 0 50 50" fill="none" xmlns="http://www.w3.org/2000/svg">
<g clip-path="url(#clip0_106_19741)">
<path d="M0.318701 41.1709L25.0007 25L0.318701 8.8291C0.12876 8.98721 0.000732422 9.21631 0.000732422 9.48271V40.5172C0.000732422 40.7837 0.12876 41.0128 0.318701 41.1709Z" fill="#F5F5F5"/>
<path d="M0.318848 41.1709C0.468262 41.2953 0.65332 41.3793 0.862891 41.3793H49.1388C49.6148 41.3793 50.0009 40.9933 50.0009 40.5172V25H25.0009L0.318848 41.1709Z" fill="#73AF00"/>
<path d="M0.318848 8.829C0.468262 8.70459 0.65332 8.62061 0.862891 8.62061H49.1388C49.6148 8.62061 50.0009 9.00664 50.0009 9.48271V24.9999H25.0009L0.318848 8.829Z" fill="#82AFFF"/>
<path d="M8.96238 21.1067L8.08933 23.7245L5.32986 23.746C5.17859 23.7471 5.11589 23.9403 5.23748 24.0301L7.4574 25.6695L6.62507 28.3005C6.57947 28.4449 6.74373 28.5641 6.86677 28.4761L9.11179 26.8715L11.3568 28.4761C11.4799 28.564 11.6441 28.4448 11.5985 28.3005L10.7662 25.6695L12.9858 24.03C13.1075 23.9402 13.0448 23.747 12.8934 23.7459L10.134 23.7244L9.26091 21.1066C9.21326 20.9631 9.01023 20.9631 8.96238 21.1067Z" fill="#FF4B55"/>
</g>
<defs>
<clipPath id="clip0_106_19741">
<rect width="50" height="50" fill="white"/>
</clipPath>
</defs>
</svg>
