<svg width="50" height="50" viewBox="0 0 50 50" fill="none" xmlns="http://www.w3.org/2000/svg">
<g clip-path="url(#clip0_106_19709)">
<path d="M49.1376 41.3791H0.861864C0.38579 41.3791 -0.000244141 40.9931 -0.000244141 40.517V9.48271C-0.000244141 9.00664 0.38579 8.62061 0.861864 8.62061H49.1376C49.6137 8.62061 49.9998 9.00664 49.9998 9.48271V40.517C49.9997 40.9933 49.6136 41.3791 49.1376 41.3791Z" fill="#73AF00"/>
<path d="M49.9997 21.5513H-0.000244141V23.8501H49.9997V21.5513Z" fill="#FFE15A"/>
<path d="M49.9997 23.8501H-0.000244141V26.1489H49.9997V23.8501Z" fill="#464655"/>
<path d="M49.9997 26.1489H-0.000244141V28.4478H49.9997V26.1489Z" fill="#F5F5F5"/>
<path d="M23.8506 8.62061H21.5518V41.3793H23.8506V8.62061Z" fill="#FFE15A"/>
<path d="M26.1492 8.62061H23.8503V41.3793H26.1492V8.62061Z" fill="#464655"/>
<path d="M28.4482 8.62061H26.1494V41.3793H28.4482V8.62061Z" fill="#F5F5F5"/>
<path d="M24.9997 33.6206C29.761 33.6206 33.6208 29.7608 33.6208 24.9995C33.6208 20.2382 29.761 16.3784 24.9997 16.3784C20.2385 16.3784 16.3787 20.2382 16.3787 24.9995C16.3787 29.7608 20.2385 33.6206 24.9997 33.6206Z" fill="#FF4B55"/>
<path d="M24.2598 26.4824C24.2598 26.4824 24.1592 27.1872 24.8438 28.2342H26.1727L25.8707 26.9657L24.2598 26.4824Z" fill="#73AF00"/>
<path d="M24.1658 21.7643C24.1658 21.7643 21.9914 25.3214 25.1859 27.4422L25.5215 25.4287L25.7362 22.8246L25.4007 21.7104L24.1658 21.7643Z" fill="#A561CD"/>
<path d="M24.1656 21.7643C24.1656 21.7643 23.917 22.178 23.7112 22.8006C23.9911 23.0932 24.7562 23.4557 25.697 23.2967L25.736 22.8246L25.4003 21.7104L24.1656 21.7643Z" fill="#73AF00"/>
<path d="M23.7495 21.2544C23.7495 21.2544 23.7763 20.543 24.4744 20.543C25.347 20.543 26.0584 20.7442 27.1858 23.0799C27.1858 23.0799 26.183 24.0643 25.5482 22.704C25.3603 22.3013 25.2932 21.8182 25.2932 21.8182C25.2932 21.8182 24.5146 22.0866 23.9777 21.7778L23.7495 21.2544Z" fill="#A561CD"/>
<path d="M24.0985 21.59L23.9374 21.1605C23.9374 21.1605 23.038 21.0129 23.4138 22.1002C23.4138 22.1002 23.4407 21.8854 23.6689 21.9123C23.8972 21.9391 24.1387 21.7645 24.0985 21.59Z" fill="#FFE15A"/>
<path d="M25.6015 25.6704C25.6015 25.6704 24.6553 26.4119 25.1855 28.1536C25.4674 29.0798 26.5949 30.0966 26.5949 30.0966C26.5949 30.0966 27.4304 27.912 27.1587 27.0664C26.9987 26.5687 25.6015 25.6704 25.6015 25.6704Z" fill="#73AF00"/>
<path d="M27.4005 28.4758C27.4005 28.4758 24.9576 26.1469 24.7964 24.3147C24.6353 22.4825 25.6918 22.7733 25.8837 22.8919C26.3401 23.1737 27.4945 24.3549 27.4005 28.4758Z" fill="#73AF00"/>
<path d="M27.0973 29.0094H23.0525C22.9685 29.0094 22.9004 28.9413 22.9004 28.8572V28.5574C22.9004 28.4733 22.9685 28.4053 23.0525 28.4053H27.0973C27.1813 28.4053 27.2494 28.4733 27.2494 28.5574V28.8572C27.2493 28.9412 27.1812 29.0094 27.0973 29.0094Z" fill="#B34900"/>
<path d="M26.112 28.4354C25.9711 28.4939 25.6891 28.5664 25.7596 28.818C25.8136 29.0107 26.1825 28.9891 26.112 29.2106C26.0643 29.3603 25.3152 29.3741 25.0247 29.3314C24.8467 29.3053 24.4609 29.2005 24.5146 28.7576C24.5683 28.3146 24.7293 28.2465 24.9308 28.167C25.1305 28.0881 26.0041 28.1056 26.1322 28.214C26.1975 28.2693 26.2186 28.3912 26.112 28.4354Z" fill="#FFE15A"/>
<path d="M25.0791 17.2979L25.2753 17.8862L25.8954 17.8911C25.9757 17.8918 26.009 17.9942 25.9444 18.0419L25.4455 18.4103L25.6326 19.0017C25.6568 19.0781 25.5697 19.1415 25.5044 19.0948L24.9998 18.7342L24.4953 19.0948C24.43 19.1415 24.3429 19.0782 24.3671 19.0017L24.5542 18.4103L24.0553 18.0419C23.9907 17.9941 24.024 17.8917 24.1043 17.8911L24.7244 17.8862L24.9206 17.2979C24.9459 17.2217 25.0536 17.2217 25.0791 17.2979Z" fill="#73AF00"/>
<path d="M25.0791 31.0532L25.2753 31.6416L25.8954 31.6465C25.9757 31.6472 26.009 31.7496 25.9444 31.7973L25.4455 32.1657L25.6326 32.757C25.6568 32.8335 25.5697 32.8969 25.5044 32.8502L24.9998 32.4895L24.4953 32.8502C24.43 32.8969 24.3429 32.8336 24.3671 32.757L24.5542 32.1657L24.0553 31.7973C23.9907 31.7495 24.024 31.6471 24.1043 31.6465L24.7244 31.6416L24.9206 31.0532C24.9459 30.9771 25.0536 30.9771 25.0791 31.0532Z" fill="#73AF00"/>
<path d="M25.0791 17.2979L25.2753 17.8862L25.8954 17.8911C25.9757 17.8918 26.009 17.9942 25.9444 18.0419L25.4455 18.4103L25.6326 19.0017C25.6568 19.0781 25.5697 19.1415 25.5044 19.0948L24.9998 18.7342L24.4953 19.0948C24.43 19.1415 24.3429 19.0782 24.3671 19.0017L24.5542 18.4103L24.0553 18.0419C23.9907 17.9941 24.024 17.8917 24.1043 17.8911L24.7244 17.8862L24.9206 17.2979C24.9459 17.2217 25.0536 17.2217 25.0791 17.2979Z" fill="#73AF00"/>
<path d="M25.0791 31.0532L25.2753 31.6416L25.8954 31.6465C25.9757 31.6472 26.009 31.7496 25.9444 31.7973L25.4455 32.1657L25.6326 32.757C25.6568 32.8335 25.5697 32.8969 25.5044 32.8502L24.9998 32.4895L24.4953 32.8502C24.43 32.8969 24.3429 32.8336 24.3671 32.757L24.5542 32.1657L24.0553 31.7973C23.9907 31.7495 24.024 31.6471 24.1043 31.6465L24.7244 31.6416L24.9206 31.0532C24.9459 30.9771 25.0536 30.9771 25.0791 31.0532Z" fill="#73AF00"/>
<path d="M20.2864 18.7096L20.4583 19.3055L19.9501 19.661C19.8843 19.707 19.915 19.8103 19.9952 19.8129L20.6151 19.8337L20.7962 20.4268C20.8197 20.5037 20.9274 20.5063 20.9547 20.4309L21.1659 19.8478L21.7861 19.8589C21.8663 19.8603 21.9023 19.7588 21.8389 19.7095L21.3495 19.3285L21.5516 18.742C21.5778 18.6661 21.4922 18.6005 21.4257 18.6455L20.9121 18.9931L20.417 18.6198C20.3529 18.5713 20.2641 18.6325 20.2864 18.7096Z" fill="#73AF00"/>
<path d="M28.0843 30.0405L28.2562 30.6364L27.748 30.9919C27.6822 31.0379 27.7128 31.1412 27.7931 31.1439L28.4129 31.1646L28.5941 31.7577C28.6176 31.8346 28.7252 31.8372 28.7526 31.7618L28.9638 31.1787L29.5839 31.1899C29.6642 31.1912 29.7001 31.0898 29.6367 31.0404L29.1474 30.6594L29.3495 30.0731C29.3757 29.9972 29.2902 29.9316 29.2237 29.9766L28.7101 30.3242L28.215 29.9509C28.1509 29.9024 28.0621 29.9635 28.0843 30.0405Z" fill="#73AF00"/>
<path d="M17.3715 22.6582L17.8666 23.0315L17.6737 23.621C17.6487 23.6972 17.7352 23.7615 17.801 23.7155L18.3092 23.3599L18.8102 23.7256C18.875 23.7728 18.9629 23.7105 18.9394 23.6337L18.7582 23.0406L19.2608 22.6772C19.3258 22.6302 19.2935 22.5273 19.2132 22.526L18.5931 22.5149L18.4028 21.9246C18.3781 21.8482 18.2704 21.8471 18.2443 21.9229L18.0422 22.5093L17.4221 22.5079C17.3417 22.5076 17.3075 22.6097 17.3715 22.6582Z" fill="#73AF00"/>
<path d="M30.4101 27.0395L30.9052 27.4129L30.7122 28.0023C30.6872 28.0786 30.7737 28.1428 30.8396 28.0969L31.3478 27.7413L31.8487 28.1069C31.9136 28.1542 32.0015 28.0918 31.9779 28.015L31.7968 27.422L32.2993 27.0586C32.3644 27.0115 32.332 26.9087 32.2518 26.9073L31.6317 26.8963L31.4413 26.3059C31.4166 26.2296 31.309 26.2285 31.2828 26.3043L31.0808 26.8906L30.4607 26.8892C30.3804 26.889 30.346 26.9912 30.4101 27.0395Z" fill="#73AF00"/>
<path d="M29.3859 18.7095L29.214 19.3054L29.7222 19.6609C29.788 19.7069 29.7574 19.8102 29.6771 19.8129L29.0573 19.8336L28.8761 20.4267C28.8526 20.5036 28.745 20.5062 28.7176 20.4308L28.5064 19.8477L27.8863 19.8589C27.806 19.8602 27.7701 19.7588 27.8334 19.7094L28.3228 19.3284L28.1206 18.7421C28.0945 18.6662 28.18 18.6006 28.2465 18.6456L28.7601 18.9932L29.2552 18.6199C29.3194 18.5713 29.4081 18.6324 29.3859 18.7095Z" fill="#73AF00"/>
<path d="M21.5883 30.0405L21.4164 30.6364L21.9246 30.9919C21.9904 31.0379 21.9597 31.1412 21.8795 31.1439L21.2597 31.1646L21.0785 31.7577C21.055 31.8346 20.9473 31.8372 20.92 31.7618L20.7088 31.1787L20.0887 31.1899C20.0084 31.1912 19.9724 31.0898 20.0358 31.0404L20.5252 30.6594L20.323 30.0731C20.2969 29.9972 20.3824 29.9316 20.4489 29.9766L20.9625 30.3242L21.4576 29.9509C21.5218 29.9024 21.6105 29.9635 21.5883 30.0405Z" fill="#73AF00"/>
<path d="M32.3007 22.6582L31.8056 23.0315L31.9985 23.621C32.0235 23.6972 31.937 23.7615 31.8712 23.7155L31.363 23.3599L30.862 23.7256C30.7972 23.7728 30.7093 23.7105 30.7328 23.6337L30.914 23.0406L30.4114 22.6772C30.3464 22.6302 30.3787 22.5273 30.459 22.526L31.0791 22.5149L31.2694 21.9246C31.2941 21.8482 31.4017 21.8471 31.4279 21.9229L31.63 22.5093L32.2501 22.5079C32.3305 22.5076 32.3648 22.6097 32.3007 22.6582Z" fill="#73AF00"/>
<path d="M19.2621 27.0395L18.767 27.4129L18.96 28.0023C18.985 28.0786 18.8984 28.1428 18.8326 28.0969L18.3244 27.7413L17.8234 28.1069C17.7586 28.1542 17.6707 28.0918 17.6942 28.015L17.8754 27.422L17.3728 27.0586C17.3078 27.0115 17.3401 26.9087 17.4204 26.9073L18.0405 26.8963L18.2309 26.3059C18.2556 26.2296 18.3632 26.2285 18.3893 26.3043L18.5914 26.8906L19.2115 26.8892C19.292 26.889 19.3263 26.9912 19.2621 27.0395Z" fill="#73AF00"/>
</g>
<defs>
<clipPath id="clip0_106_19709">
<rect width="50" height="50" fill="white"/>
</clipPath>
</defs>
</svg>
