<svg width="50" height="50" viewBox="0 0 50 50" fill="none" xmlns="http://www.w3.org/2000/svg">
<g clip-path="url(#clip0_106_19641)">
<path d="M49.1368 8.62061H0.861131C0.385058 8.62061 -0.000976562 9.00654 -0.000976562 9.48262V40.517C-0.000976562 40.9931 0.385058 41.3791 0.861131 41.3791H49.1369C49.613 41.3791 49.999 40.9931 49.999 40.517V9.48262C49.9989 9.00654 49.6129 8.62061 49.1368 8.62061Z" fill="#FF4B55"/>
<path d="M0.340331 41.1867L28.0618 25.5355C28.4786 25.3002 28.4786 24.7 28.0618 24.4647L0.340331 8.81348C0.137695 8.97119 -0.000976562 9.20625 -0.000976562 9.48281V40.5172C-0.000976562 40.7939 0.137793 41.0289 0.340331 41.1867Z" fill="#FFE15A"/>
<path d="M0.266699 41.137L19.1077 25.5929C19.4804 25.2854 19.4804 24.7144 19.1077 24.4068L0.266699 8.86279C0.103027 9.01982 -0.000976562 9.23799 -0.000976562 9.48262V40.517C-0.000976562 40.7618 0.103027 40.98 0.266699 41.137Z" fill="#464655"/>
<path d="M5.38324 20.9515L5.46537 24.0543L2.55629 25.1364C2.27729 25.2402 2.29096 25.6393 2.57641 25.7238L5.55267 26.6044L5.68295 29.7055C5.69545 30.003 6.07924 30.1132 6.24779 29.8679L8.00511 27.3094L10.9947 28.1438C11.2813 28.2239 11.5049 27.8928 11.3237 27.6568L9.43333 25.1949L11.1507 22.6095C11.3154 22.3616 11.0698 22.0467 10.7892 22.1462L7.8638 23.1831L5.93568 20.7508C5.75062 20.5175 5.37533 20.654 5.38324 20.9515Z" fill="#F5F5F5"/>
</g>
<defs>
<clipPath id="clip0_106_19641">
<rect width="50" height="50" fill="white"/>
</clipPath>
</defs>
</svg>
