<svg width="50" height="50" viewBox="0 0 50 50" fill="none" xmlns="http://www.w3.org/2000/svg">
<g clip-path="url(#clip0_106_19592)">
<path d="M49.9999 33.1899H0V40.5175C0 40.9935 0.386034 41.3796 0.862108 41.3796H49.1379C49.614 41.3796 50 40.9935 50 40.5175L49.9999 33.1899Z" fill="#FF4B55"/>
<path d="M49.9999 25H0V9.48271C0 9.00664 0.386034 8.62061 0.862108 8.62061H49.1379C49.614 8.62061 50 9.00664 50 9.48271L49.9999 25Z" fill="#FFE15A"/>
<path d="M49.9999 25H0V33.1894H49.9999V25Z" fill="#41479B"/>
<path d="M24.1006 25.4837L30.3975 20.0864V27.8976C30.3975 29.2141 29.3302 30.2812 28.0139 30.2812C27.425 30.2812 26.8569 30.0633 26.4192 29.6694L24.1006 27.5827V25.4837Z" fill="#FFE15A"/>
<path d="M27.4224 28.5551L25.6001 26.915V24.1987L28.8984 21.3716V23.3463V27.8977C28.8984 28.3853 28.5017 28.7821 28.0141 28.7821C27.7952 28.7821 27.5851 28.7015 27.4224 28.5551Z" fill="#FF4B55"/>
<path d="M26.4996 23.4276V26.5152L27.9988 27.8689V23.3274V22.1427L28.8984 21.3716V23.3463V27.8977C28.8984 28.3853 28.5017 28.7821 28.0141 28.7821C27.7952 28.7821 27.5851 28.7015 27.4224 28.5551L25.6001 26.915V24.1987L26.4996 23.4276Z" fill="#41479B"/>
<path d="M25.8999 25.4837L19.603 20.0864V27.8976C19.603 29.2141 20.6703 30.2812 21.9866 30.2812C22.5755 30.2812 23.1435 30.0633 23.5812 29.6694L25.8999 27.5827V25.4837Z" fill="#FFE15A"/>
<path d="M22.5781 28.5551L24.4004 26.915V24.1987L21.1021 21.3716V23.3463V27.8977C21.1021 28.3853 21.4988 28.7821 21.9864 28.7821C22.2053 28.7821 22.4154 28.7015 22.5781 28.5551Z" fill="#FF4B55"/>
<path d="M23.4999 23.4276V26.5152L22.0007 27.8689V23.3274V22.1427L21.1011 21.3716V23.3463V27.8977C21.1011 28.3853 21.4979 28.7821 21.9854 28.7821C22.2043 28.7821 22.4145 28.7016 22.5771 28.5551L24.3994 26.915V24.1987L23.4999 23.4276Z" fill="#41479B"/>
<path d="M30.6098 20.1133H30.1787V22.6962H30.6098V20.1133Z" fill="#41479B"/>
<path d="M19.8168 20.1133H19.3857V22.6962H19.8168V20.1133Z" fill="#41479B"/>
<path d="M24.1005 18.8872C24.1005 18.8872 24.7002 16.0386 22.6013 16.4134C20.5023 16.7882 20.5023 17.3878 18.1035 18.5873C18.1035 18.5873 20.8021 19.187 22.0016 18.8872C22.0016 18.8872 22.9012 20.0865 23.8007 20.3864H24.7003L24.1005 18.8872Z" fill="#5A4646"/>
<path d="M25.9001 18.8872C25.9001 18.8872 25.3004 16.0386 27.3993 16.4134C29.4982 16.7882 29.4982 17.3878 31.8971 18.5873C31.8971 18.5873 29.1984 19.187 27.999 18.8872C27.999 18.8872 27.0994 20.0865 26.1999 20.3864H25.3003L25.9001 18.8872Z" fill="#5A4646"/>
<path d="M25.8997 20.3866H24.1006V18.8763C24.1006 18.3855 24.4983 17.9878 24.9891 17.9878H25.0112C25.502 17.9878 25.8997 18.3855 25.8997 18.8763V20.3866Z" fill="#5A4646"/>
<path d="M25.0001 19.4865C25.3313 19.4865 25.5998 19.218 25.5998 18.8868C25.5998 18.5556 25.3313 18.2871 25.0001 18.2871C24.6689 18.2871 24.4004 18.5556 24.4004 18.8868C24.4004 19.218 24.6689 19.4865 25.0001 19.4865Z" fill="#E6E1CD"/>
<path d="M23.7134 18.5001L24.8409 19.1022C24.9355 19.1528 25.0521 19.1354 25.1277 19.0596C25.2229 18.9645 25.2229 18.8104 25.1277 18.7151L24.4004 17.9878H24.2255C23.9427 17.9878 23.7134 18.2171 23.7134 18.5001Z" fill="#FFD0AF"/>
<path d="M24.1044 18.5874H23.2012L23.5964 18.1247C23.6706 18.0379 23.7791 17.9878 23.8935 17.9878H24.4005V18.2913C24.4005 18.4548 24.2679 18.5874 24.1044 18.5874Z" fill="#FFAF94"/>
<path d="M27.5575 20.3871C27.3551 20.1471 27.312 19.8288 27.4106 19.553C27.6991 19.5026 28.0054 19.599 28.2077 19.8393C28.3805 20.0444 28.4306 20.3053 28.3819 20.5494C28.4419 20.6512 28.5151 20.782 28.5957 20.9365C28.5997 20.9145 28.5988 20.8928 28.605 20.8708C28.6757 20.6222 28.8729 20.4462 29.1065 20.3866C29.2738 20.5603 29.349 20.8137 29.2783 21.0622C29.2175 21.2761 29.0607 21.4311 28.8701 21.5096C28.9454 21.6823 29.0199 21.8686 29.0895 22.0652C29.0935 22.0537 29.0938 22.042 29.0985 22.0306C29.1962 21.7912 29.4116 21.6381 29.6503 21.6046C29.7973 21.7955 29.8442 22.0557 29.7466 22.295C29.6612 22.5044 29.4839 22.6425 29.2814 22.6975C29.3857 23.1089 29.4547 23.5454 29.4547 23.9849H29.1548C29.1548 23.6018 29.0961 23.2183 29.0073 22.8513C28.8222 22.911 28.6155 22.8982 28.4365 22.7887C28.2181 22.6549 28.1029 22.4197 28.1083 22.181C28.3186 22.0677 28.5804 22.0635 28.7988 22.1974C28.8067 22.2021 28.812 22.2092 28.8196 22.2143C28.7553 22.0297 28.687 21.8546 28.6168 21.6903C28.4368 21.7754 28.225 21.7885 28.0306 21.6973C27.7988 21.5883 27.6585 21.3673 27.6375 21.1294C27.8334 20.994 28.0923 20.9613 28.3233 21.0688C28.2408 20.9102 28.1663 20.7772 28.1079 20.678C27.9013 20.6542 27.7024 20.5591 27.5575 20.3871Z" fill="#8CB400"/>
<path d="M22.443 20.3871C22.6454 20.1471 22.6885 19.8288 22.5899 19.553C22.3014 19.5026 21.9951 19.599 21.7928 19.8393C21.62 20.0444 21.5699 20.3053 21.6186 20.5494C21.5587 20.6512 21.4854 20.782 21.4049 20.9365C21.4009 20.9145 21.4017 20.8928 21.3955 20.8708C21.3248 20.6222 21.1276 20.4462 20.894 20.3866C20.7267 20.5603 20.6515 20.8137 20.7222 21.0622C20.783 21.2761 20.9398 21.4311 21.1304 21.5096C21.0552 21.6823 20.9806 21.8686 20.911 22.0652C20.907 22.0537 20.9067 22.042 20.902 22.0306C20.8044 21.7912 20.5889 21.6381 20.3503 21.6046C20.2032 21.7955 20.1563 22.0557 20.254 22.295C20.3394 22.5044 20.5167 22.6425 20.7192 22.6975C20.6149 23.1089 20.5459 23.5454 20.5459 23.9849H20.8458C20.8458 23.6018 20.9046 23.2183 20.9933 22.8513C21.1784 22.911 21.3851 22.8982 21.5641 22.7887C21.7826 22.6549 21.8977 22.4197 21.8924 22.181C21.682 22.0677 21.4202 22.0635 21.2018 22.1974C21.1939 22.2021 21.1887 22.2092 21.181 22.2143C21.2453 22.0297 21.3136 21.8546 21.3839 21.6903C21.5638 21.7754 21.7757 21.7885 21.97 21.6973C22.2018 21.5883 22.3422 21.3673 22.3632 21.1294C22.1673 20.994 21.9084 20.9613 21.6773 21.0688C21.7598 20.9102 21.8344 20.7772 21.8927 20.678C22.0992 20.6542 22.2981 20.5591 22.443 20.3871Z" fill="#8CB400"/>
<path d="M25 26.9832L18.7031 21.5859V29.3972C18.7031 30.7137 19.7704 31.7807 21.0867 31.7807C21.6756 31.7807 22.2436 31.5628 22.6813 31.1689L25 29.0822V26.9832Z" fill="#FFE15A"/>
<path d="M21.6787 30.0546L23.501 28.4145V25.6982L20.2026 22.8711V24.8458V29.3973C20.2026 29.8848 20.5994 30.2816 21.087 30.2816C21.306 30.2816 21.516 30.2011 21.6787 30.0546Z" fill="#FF4B55"/>
<path d="M22.6015 24.9271V28.0147L21.1022 29.3684V24.8269V23.6422L20.2026 22.8711V24.8458V29.3973C20.2026 29.8848 20.5994 30.2816 21.087 30.2816C21.3059 30.2816 21.516 30.2011 21.6787 30.0546L23.501 28.4145V25.6982L22.6015 24.9271Z" fill="#41479B"/>
<path d="M25 26.9832L31.2969 21.5859V29.3972C31.2969 30.7137 30.2296 31.7807 28.9133 31.7807C28.3244 31.7807 27.7563 31.5628 27.3186 31.1689L25 29.0822V26.9832Z" fill="#FFE15A"/>
<path d="M28.3218 30.0546L26.4995 28.4145V25.6982L29.7978 22.8711V24.8458V29.3973C29.7978 29.8848 29.4011 30.2816 28.9135 30.2816C28.6944 30.2816 28.4845 30.2011 28.3218 30.0546Z" fill="#FF4B55"/>
<path d="M27.399 24.9271V28.0147L28.8982 29.3684V24.8269V23.6422L29.7978 22.8711V24.8458V29.3973C29.7978 29.8848 29.4011 30.2816 28.9135 30.2816C28.6946 30.2816 28.4845 30.2011 28.3218 30.0546L26.4995 28.4145V25.6982L27.399 24.9271Z" fill="#41479B"/>
<path d="M25 29.3818C26.656 29.3818 27.9985 27.368 27.9985 24.8838C27.9985 22.3996 26.656 20.3857 25 20.3857C23.344 20.3857 22.0015 22.3996 22.0015 24.8838C22.0015 27.368 23.344 29.3818 25 29.3818Z" fill="#69C3FF"/>
<path d="M22.3013 26.0838H27.6985L27.9984 24.8845L26.6319 25.1123C26.3578 25.158 26.0774 25.0799 25.8664 24.899L24.3152 23.5694C24.1767 23.4506 24 23.3853 23.8175 23.3853C23.6146 23.3853 23.42 23.4658 23.2767 23.6093L22.3013 24.5847V26.0838Z" fill="#009B64"/>
<path d="M24.7156 24.6826L25.2307 24.3535L24.3152 23.5689C24.1767 23.4501 24 23.3848 23.8175 23.3848C23.6146 23.3848 23.42 23.4653 23.2767 23.6088L22.3013 24.5842V24.8841L23.8005 24.5842L24.0655 24.7167C24.2733 24.8206 24.5201 24.8075 24.7156 24.6826Z" fill="#F5F5F5"/>
<path d="M22.3013 26.0835L22.6011 27.8825L24.1003 29.3818H24.9999L26.1992 29.082L27.3987 27.8825L27.6985 26.0835H22.3013Z" fill="#5AA0E6"/>
<path d="M25 29.6817C23.1812 29.6817 21.7017 27.5295 21.7017 24.8841C21.7017 22.2387 23.1812 20.0864 25 20.0864C26.8187 20.0864 28.2983 22.2387 28.2983 24.8841C28.2983 27.5295 26.8187 29.6817 25 29.6817ZM25 20.6863C23.5121 20.6863 22.3014 22.5695 22.3014 24.8843C22.3014 27.199 23.512 29.0822 25 29.0822C26.488 29.0822 27.6986 27.199 27.6986 24.8843C27.6986 22.5695 26.4879 20.6863 25 20.6863Z" fill="#FFC88C"/>
<path d="M22.885 29.355C22.6336 29.0079 22.2594 28.7822 21.8355 28.7822C21.4117 28.7822 21.0375 29.0079 20.7861 29.355C21.2148 29.4738 21.5656 29.8219 21.7317 30.2807C21.7986 30.4654 21.8356 30.6682 21.8356 30.8812C21.8355 30.1395 22.2837 29.5217 22.885 29.355Z" fill="#E1E1E1"/>
<path d="M22.0738 30.301C22.0738 30.301 22.0505 30.7008 21.8454 30.8882L21.8368 30.8812C21.6318 30.6937 21.6084 30.2939 21.6084 30.2939L22.0738 30.301Z" fill="#E1E1E1"/>
<path d="M28.7501 30.4312H21.2501C21.1683 30.4312 21.1021 30.3648 21.1021 30.2831V30.2794C21.1021 30.1976 21.1684 30.1313 21.2501 30.1313H28.7501C28.8319 30.1313 28.8981 30.1977 28.8981 30.2794V30.2831C28.8981 30.3648 28.8319 30.4312 28.7501 30.4312Z" fill="#966446"/>
<path d="M26.507 30.8811H23.4937C23.1666 30.8811 22.9014 30.6159 22.9014 30.2888V30.274C22.9014 29.9469 23.1666 29.6816 23.4937 29.6816H26.507C26.8342 29.6816 27.0994 29.9469 27.0994 30.274V30.2888C27.0993 30.6159 26.8341 30.8811 26.507 30.8811Z" fill="#BE915A"/>
<path d="M22.3014 30.1313H21.252C21.1692 30.1313 21.1021 30.1984 21.1021 30.2813C21.1021 30.3641 21.1691 30.4312 21.252 30.4312H22.3014V30.1313Z" fill="#B9B9B9"/>
<path d="M25.0001 30.8813V33.621L23.8008 33.2802L24.4004 30.8813H25.0001Z" fill="#FF4B55"/>
<path d="M24.7004 30.8813L24.1007 32.9804L22.9014 32.6805L23.801 30.8813H24.7004Z" fill="#41479B"/>
<path d="M23.5007 30.8813L22.6011 32.0808L23.5007 32.3806L24.1003 30.8813H23.5007Z" fill="#FFE15A"/>
<path d="M25 30.8813V33.621L26.1993 33.2802L25.5997 30.8813H25Z" fill="#FF4B55"/>
<path d="M25.3003 30.8813L25.9 32.9804L27.0993 32.6805L26.1997 30.8813H25.3003Z" fill="#41479B"/>
<path d="M26.499 30.8813L27.3986 32.0808L26.499 32.3806L25.8994 30.8813H26.499Z" fill="#FFE15A"/>
<path d="M18.9188 24.1682L18.4878 23.7338V21.5854H18.9188V24.1682Z" fill="#41479B"/>
<path d="M31.5092 23.7338L31.0781 24.1682V21.5854H31.5092V23.7338Z" fill="#41479B"/>
</g>
<defs>
<clipPath id="clip0_106_19592">
<rect width="50" height="50" fill="white"/>
</clipPath>
</defs>
</svg>
