<svg width="50" height="50" viewBox="0 0 50 50" fill="none" xmlns="http://www.w3.org/2000/svg">
<g clip-path="url(#clip0_106_19587)">
<path d="M49.9994 19.5402H-0.000488281V9.48271C-0.000488281 9.00664 0.385546 8.62061 0.861619 8.62061H49.1374C49.6135 8.62061 49.9995 9.00664 49.9995 9.48271L49.9994 19.5402Z" fill="#FF4B55"/>
<path d="M49.1373 41.3795H0.861619C0.385546 41.3795 -0.000488281 40.9934 -0.000488281 40.5174V30.46H49.9994V40.5174C49.9994 40.9935 49.6134 41.3795 49.1373 41.3795Z" fill="#464655"/>
<path d="M49.9994 19.54H-0.000488281V30.459H49.9994V19.54Z" fill="#F5F5F5"/>
<path d="M27.7517 23.298C27.7517 22.8706 27.3329 22.5686 26.9274 22.7039L26.1653 22.9579L25.9803 21.8403C25.8696 21.1737 25.2983 20.6899 24.6223 20.6899H23.9095L23.164 21.6075H24.1512L23.8749 22.972L23.0709 22.704C22.6653 22.5687 22.2466 22.8707 22.2466 23.2981V27.9344L23.3562 26.8247L22.8334 28.3931H22.2467V29.3107H27.7518V28.3931H27.1651L26.6423 26.8247L27.7519 27.9344V23.298H27.7517ZM24.5405 28.393H23.8009L24.3095 27.0347L24.5405 27.3297V28.393ZM25.4579 28.393V27.3297L25.689 27.0347L26.1975 28.393H25.4579ZM24.9992 26.73C24.9992 26.73 23.5799 25.7694 23.6373 23.9774C23.6373 23.9774 24.5119 23.8341 24.9992 23.0599C25.4866 23.834 26.3612 23.9774 26.3612 23.9774C26.4185 25.7695 24.9992 26.73 24.9992 26.73Z" fill="#F0C727"/>
</g>
<defs>
<clipPath id="clip0_106_19587">
<rect width="50" height="50" fill="white"/>
</clipPath>
</defs>
</svg>
