<svg width="50" height="50" viewBox="0 0 50 50" fill="none" xmlns="http://www.w3.org/2000/svg">
<g clip-path="url(#clip0_106_19492)">
<path d="M50.0004 19.5402H0.000488281V9.48271C0.000488281 9.00664 0.386523 8.62061 0.862596 8.62061H49.1384C49.6145 8.62061 50.0005 9.00664 50.0005 9.48271L50.0004 19.5402Z" fill="#73AF00"/>
<path d="M49.1383 41.3795H0.862596C0.386523 41.3795 0.000488281 40.9934 0.000488281 40.5174V30.46H50.0004V40.5174C50.0004 40.9935 49.6144 41.3795 49.1383 41.3795Z" fill="#FF4B55"/>
<path d="M50.0004 19.54H0.000488281V30.459H50.0004V19.54Z" fill="#F5F5F5"/>
<path d="M12.5097 25.5343C12.757 25.2212 12.757 24.7792 12.5097 24.466L0.228515 8.90967C0.0903319 9.0626 0.000488281 9.26064 0.000488281 9.48291V40.5173C0.000488281 40.7396 0.0903319 40.9377 0.228515 41.0906L12.5097 25.5343Z" fill="#4173CD"/>
<path d="M24.7934 25.7711C24.7934 25.7922 24.7864 27.8187 24.2682 28.8157H25.7245C25.2061 27.8188 25.1993 25.7922 25.1993 25.7711C25.1993 25.0729 25.923 24.518 25.9304 24.5125L25.6865 24.1881C25.6676 24.2023 25.4264 24.3872 25.1994 24.6875V24.1475H24.7935V24.6875C24.5665 24.3872 24.3254 24.2022 24.3063 24.1881L24.0625 24.5125C24.0698 24.518 24.7934 25.0728 24.7934 25.7711Z" fill="#B46446"/>
<path d="M27.0264 23.3356C27.014 23.3356 27.0025 23.3389 26.9902 23.3396C26.9075 23.1016 26.6836 22.9297 26.4174 22.9297C26.3214 22.9297 26.2318 22.9539 26.1511 22.9935C26.065 22.8354 25.8996 22.7268 25.707 22.7268C25.6516 22.7268 25.5994 22.7379 25.5495 22.7542C25.4415 22.4994 25.1892 22.3208 24.8952 22.3208C24.5338 22.3208 24.2388 22.5917 24.1939 22.9408C24.1576 22.9352 24.1212 22.9297 24.0834 22.9297C23.691 22.9297 23.3729 23.2478 23.3729 23.6401C23.3729 23.6862 23.3781 23.7311 23.3865 23.7747C23.2067 23.8339 23.0653 23.9728 23.0032 24.1512C22.9911 24.1501 22.9794 24.1475 22.967 24.1475C22.7428 24.1475 22.561 24.3293 22.561 24.5534C22.561 24.7776 22.7429 24.9594 22.967 24.9594C23.0705 24.9594 23.1641 24.9194 23.2357 24.8555C23.3328 24.921 23.4499 24.9594 23.576 24.9594C23.6875 24.9594 23.7905 24.9272 23.8804 24.8749C23.9702 24.9271 24.0733 24.9594 24.1848 24.9594C24.5211 24.9594 24.7937 24.6867 24.7937 24.3504C24.7937 24.3246 24.7893 24.3002 24.7862 24.2753C24.8808 24.3219 24.9856 24.3504 25.0983 24.3504C25.2395 24.3504 25.3702 24.308 25.4808 24.237C25.5846 24.4247 25.782 24.5533 26.0117 24.5533C26.061 24.5533 26.1085 24.5459 26.1544 24.5348C26.2661 24.669 26.4323 24.7563 26.6206 24.7563C26.8025 24.7563 26.964 24.675 27.0756 24.5484C27.3885 24.5231 27.6355 24.264 27.6355 23.9444C27.6352 23.6083 27.3627 23.3356 27.0264 23.3356Z" fill="#73AF00"/>
<path d="M26.4174 23.8429C26.4174 23.8218 26.4218 23.8019 26.4236 23.7812C26.315 23.8816 26.1711 23.9444 26.0114 23.9444C25.7993 23.9444 25.6131 23.8358 25.504 23.6714C25.3949 23.8358 25.2086 23.9444 24.9966 23.9444C24.8335 23.9444 24.6863 23.8795 24.577 23.7751C24.5137 24.1026 24.2262 24.3503 23.8802 24.3503C23.845 24.3503 23.8114 24.3449 23.7777 24.3399C23.7778 24.3435 23.7788 24.3468 23.7788 24.3503C23.7788 24.6157 23.608 24.8391 23.3711 24.9225C23.4353 24.9454 23.5037 24.9592 23.5759 24.9592C23.6874 24.9592 23.7904 24.927 23.8803 24.8747C23.9701 24.927 24.0732 24.9592 24.1847 24.9592C24.521 24.9592 24.7937 24.6865 24.7937 24.3502C24.7937 24.3244 24.7892 24.3 24.7861 24.2751C24.8807 24.3217 24.9855 24.3502 25.0982 24.3502C25.2395 24.3502 25.3701 24.3078 25.4807 24.2368C25.5845 24.4245 25.7819 24.5531 26.0116 24.5531C26.0609 24.5531 26.1084 24.5457 26.1543 24.5346C26.266 24.6688 26.4322 24.7562 26.6204 24.7562C26.8023 24.7562 26.9639 24.6748 27.0754 24.5482L27.0767 24.548C26.7086 24.5213 26.4174 24.2177 26.4174 23.8429Z" fill="#5FA000"/>
<path d="M24.9966 30.1095C24.964 30.1095 24.9351 30.0887 24.9244 30.058C24.9167 30.0351 24.7256 29.5008 23.9817 29.5008H22.9669C22.3652 29.5008 21.876 29.0113 21.876 28.4099V21.7118C21.876 21.6698 21.9101 21.6357 21.952 21.6357H28.2441C28.2861 21.6357 28.3202 21.6698 28.3202 21.7118V28.4099C28.3202 29.0115 27.8307 29.5008 27.2293 29.5008H26.0114C25.2631 29.5008 25.0706 30.0519 25.0688 30.0576C25.0584 30.0888 25.0295 30.1096 24.9968 30.1096L24.9966 30.1095ZM22.028 21.7877V28.4097C22.028 28.9272 22.4491 29.3484 22.9668 29.3484H23.9816C24.5841 29.3484 24.8757 29.672 24.9965 29.8663C25.1173 29.6718 25.4089 29.3484 26.0113 29.3484H27.2292C27.7469 29.3484 28.168 28.9272 28.168 28.4097V21.7877H22.028Z" fill="#464655"/>
<path d="M24.2172 19.9019L24.4102 20.2105L24.7739 20.2231L24.6029 20.5445L24.7739 20.8659L24.4102 20.8785L24.2172 21.1873L24.0244 20.8785L23.6606 20.8659L23.8315 20.5445L23.6606 20.2231L24.0244 20.2105L24.2172 19.9019Z" fill="#FFE15A"/>
<path d="M22.5022 20.1816L22.7619 20.4367L23.1186 20.3641L23.0273 20.7164L23.2687 20.9891L22.9179 21.0862L22.8025 21.4314L22.5429 21.1763L22.1862 21.249L22.2773 20.8966L22.0361 20.624L22.3869 20.5269L22.5022 20.1816Z" fill="#FFE15A"/>
<path d="M20.8572 20.6685L21.1658 20.8616L21.4983 20.7136L21.4854 21.0773L21.7799 21.2914L21.4584 21.4621L21.4202 21.8241L21.1116 21.631L20.7791 21.779L20.792 21.4152L20.4976 21.2012L20.819 21.0305L20.8572 20.6685Z" fill="#FFE15A"/>
<path d="M25.7828 19.9019L25.5898 20.2105L25.2261 20.2231L25.3971 20.5445L25.2261 20.8659L25.5898 20.8785L25.7828 21.1873L25.9756 20.8785L26.3394 20.8659L26.1685 20.5445L26.3394 20.2231L25.9756 20.2105L25.7828 19.9019Z" fill="#FFE15A"/>
<path d="M27.4979 20.1816L27.2382 20.4367L26.8815 20.3641L26.9728 20.7164L26.7314 20.9891L27.0822 21.0862L27.1976 21.4314L27.4572 21.1763L27.8139 21.249L27.7228 20.8966L27.964 20.624L27.6132 20.5269L27.4979 20.1816Z" fill="#FFE15A"/>
<path d="M29.1429 20.6685L28.8343 20.8616L28.5018 20.7136L28.5146 21.0773L28.2202 21.2914L28.5417 21.4621L28.5799 21.8241L28.8885 21.631L29.221 21.779L29.2081 21.4152L29.5025 21.2012L29.1811 21.0305L29.1429 20.6685Z" fill="#FFE15A"/>
</g>
<defs>
<clipPath id="clip0_106_19492">
<rect width="50" height="50" fill="white"/>
</clipPath>
</defs>
</svg>
