<svg width="50" height="50" viewBox="0 0 50 50" fill="none" xmlns="http://www.w3.org/2000/svg">
<g clip-path="url(#clip0_106_19487)">
<path d="M49.9994 25H-0.000488281V9.48271C-0.000488281 9.00664 0.385546 8.62061 0.861619 8.62061H49.1374C49.6135 8.62061 49.9995 9.00664 49.9995 9.48271L49.9994 25Z" fill="#73AF00"/>
<path d="M-0.000488281 25H49.9994V40.5173C49.9994 40.9933 49.6134 41.3794 49.1373 41.3794H0.861619C0.385546 41.3794 -0.000488281 40.9933 -0.000488281 40.5173V25Z" fill="#4173CD"/>
<path d="M-0.000488281 9.48301V40.5174C-0.000488281 40.8291 0.17373 41.09 0.421484 41.2412L49.9994 25.0003L0.421484 8.75928C0.173632 8.91064 -0.000488281 9.17129 -0.000488281 9.48301Z" fill="#FF4B55"/>
<path d="M18.4378 29.9211C18.4378 29.9211 20.8657 29.0356 21.5512 26.3792C21.5512 26.3792 20.4943 27.7503 19.7516 28.1502C19.7516 28.1502 21.3798 25.9793 21.037 23.8656C21.037 23.8656 20.837 24.7225 20.4371 25.0653C20.4371 25.0653 21.1512 22.009 20.2371 20.7236C20.2371 20.7236 20.2656 21.8091 19.8658 22.8945C19.8658 22.8945 20.0181 19.4572 18.4566 18.5813C18.4566 18.5813 19.066 19.6668 18.8089 20.5808C18.8089 20.5808 18.3804 18.6384 16.3904 17.8672C16.3904 17.8672 16.2666 18.01 16.2952 18.4385C16.2952 18.4385 15.7525 17.7814 14.4099 17.8101C14.4099 17.8101 14.4385 18.2956 14.7812 18.7526C14.7812 18.7526 14.2386 19.0383 13.8958 18.9526C13.8958 18.9526 14.4385 19.5525 16.3522 19.4953C16.3522 19.4953 16.0951 19.7238 15.581 19.781C15.581 19.781 16.3629 20.14 17.133 20.2094C18.1899 20.3045 18.6089 20.9235 18.8088 21.6947C18.8088 21.6947 17.9804 21.2092 17.6662 20.7235C17.6662 20.7235 17.6091 21.5518 19.18 23.1515L18.3802 22.8087C18.3802 22.8087 18.8944 24.294 19.5228 25.9793L18.8658 25.2651C18.8658 25.2651 18.723 26.4648 18.6087 28.6928L18.1516 27.6359C18.1516 27.6359 17.3518 30.2638 16.1236 30.6923C15.1621 31.0277 14.0986 31.2573 13.6807 31.3416C13.6416 29.8714 14.267 29.5497 14.267 29.5497C15.3809 29.6068 15.6381 28.3786 15.6381 28.3786C15.4096 28.6071 14.981 28.6071 14.981 28.6071C15.6381 27.9216 15.6381 26.9505 15.6381 26.9505C15.2382 27.7217 14.6097 27.8359 14.6097 27.8359L14.6669 27.0647C13.5051 27.9096 13.588 28.8992 13.6072 29.0442C13.581 28.8593 13.3741 27.4121 13.2673 27.0647C13.153 26.6934 13.41 25.9508 13.8099 26.0649C15.1044 26.4347 15.4095 25.4937 15.4095 25.4937C14.724 25.808 14.3241 25.5794 14.3241 25.5794C15.2096 24.7224 14.8383 23.9227 14.8383 23.9227C14.5526 24.7511 13.7528 24.8939 13.7528 24.8939L13.7243 23.98C13.353 24.18 13.0101 25.0654 13.0101 25.0654C13.0101 25.0654 12.9245 24.3513 13.1814 23.7228C13.4386 23.0944 14.0954 23.4086 14.0954 23.4086C15.2665 23.6371 15.6379 22.5231 15.6379 22.5231L14.8667 22.6374C15.7236 22.009 15.4666 21.2377 15.4666 21.2377C15.2666 21.7232 14.5526 21.809 14.5526 21.809L14.8954 20.895C14.1527 20.895 13.7243 21.8662 13.7243 21.8662L13.6672 20.9236C14.0099 19.6954 13.2101 19.1526 13.2101 19.1526C13.0389 19.3811 13.1245 19.8668 13.1245 19.8668C12.4103 19.2384 11.8677 19.981 11.8677 19.981C12.4103 20.5523 12.9246 20.4952 12.9246 20.4952C12.7533 20.6095 12.1248 20.6665 12.1248 20.6665C12.8389 21.2664 13.2388 21.152 13.2388 21.152C13.5815 22.6089 12.6675 23.2658 12.6675 23.2658C12.4962 22.1804 11.8391 21.6662 11.8391 21.6662L11.8677 22.3804C11.4392 22.1232 11.0965 21.352 11.0965 21.352C10.8108 22.4375 11.582 23.3801 11.582 23.3801L10.8679 23.3229C11.4963 24.7798 12.496 24.3227 12.496 24.3227C12.4103 25.3511 12.7531 27.0363 12.7531 27.0363C12.6103 26.865 11.0965 25.4367 11.0965 25.4367C11.0393 26.0079 11.582 26.7506 11.582 26.7506C11.2964 26.6934 10.4681 26.065 10.4681 26.065C10.5537 26.979 11.7534 27.5789 11.7534 27.5789C11.2964 27.636 10.4108 27.1219 10.4108 27.1219C10.925 29.3213 12.8101 28.3501 12.8101 28.3501L12.9548 31.3251C12.5565 31.2295 11.6857 31.0075 10.7821 30.6924C9.5539 30.2639 8.75409 27.636 8.75409 27.636L8.29706 28.6929C8.18281 26.4649 8.03994 25.2652 8.03994 25.2652L7.38291 25.9794C8.01132 24.2941 8.52548 22.8088 8.52548 22.8088L7.72568 23.1516C9.29726 21.5517 9.24003 20.7234 9.24003 20.7234C8.92577 21.209 8.09746 21.6946 8.09746 21.6946C8.29745 20.9234 8.92577 20.1236 9.69706 20.0665C10.4683 20.0094 11.3252 19.7809 11.3252 19.7809C10.811 19.7237 10.554 19.4952 10.554 19.4952C12.782 19.2952 13.0104 18.6954 13.0104 18.6954C12.6677 18.7811 11.6107 18.6669 11.6107 18.6669C12.4962 18.1813 13.953 17.7243 13.953 17.7243C12.1534 17.4101 10.611 18.4385 10.611 18.4385C10.8682 17.9529 11.3252 17.4102 11.3252 17.4102C9.12577 18.3813 8.09736 20.5808 8.09736 20.5808C7.84023 19.6668 8.4496 18.5812 8.4496 18.5812C6.88808 19.4572 7.04043 22.8944 7.04043 22.8944C6.64052 21.809 6.66914 20.7235 6.66914 20.7235C5.75517 22.0089 6.46914 25.0652 6.46914 25.0652C6.06924 24.7224 5.86924 23.8655 5.86924 23.8655C5.52646 25.9793 7.15459 28.1501 7.15459 28.1501C6.41191 27.7502 5.35498 26.3791 5.35498 26.3791C6.04053 29.0355 8.46845 29.921 8.46845 29.921C7.12588 29.4068 6.55468 29.8353 6.55468 29.8353C7.49726 30.0353 8.41132 30.6065 9.154 31.1492C9.89667 31.6919 10.8965 31.8062 11.7819 31.9204C12.1477 31.9676 12.4509 32.0291 12.6856 32.0853C12.2016 32.3221 11.8677 32.8179 11.8677 33.393H14.7812C14.7812 32.8396 14.4726 32.3583 14.018 32.1117C14.3106 32.0491 14.7004 31.975 15.124 31.9203C16.0095 31.806 16.9345 31.571 17.7519 31.1491C18.6374 30.6921 19.4086 30.0351 20.3512 29.8352C20.3515 29.8354 19.7801 29.4071 18.4378 29.9211Z" fill="#FFE15A"/>
</g>
<defs>
<clipPath id="clip0_106_19487">
<rect width="50" height="50" fill="white"/>
</clipPath>
</defs>
</svg>
