<svg width="50" height="50" viewBox="0 0 50 50" fill="none" xmlns="http://www.w3.org/2000/svg">
<g clip-path="url(#clip0_106_19475)">
<path d="M49.9999 19.5402H0V9.48271C0 9.00664 0.386034 8.62061 0.862108 8.62061H49.1379C49.614 8.62061 50 9.00664 50 9.48271L49.9999 19.5402Z" fill="#73AF00"/>
<path d="M49.1378 41.3795H0.862108C0.386034 41.3795 0 40.9934 0 40.5174V30.46H49.9999V40.5174C49.9999 40.9935 49.6139 41.3795 49.1378 41.3795Z" fill="#FF4B55"/>
<path d="M49.9999 19.54H0V30.459H49.9999V19.54Z" fill="#FFE15A"/>
<path d="M35.3457 25.0096C35.3457 30.7153 30.7133 35.3558 24.9995 35.3558C19.2856 35.3558 14.6533 30.7153 14.6533 25.0096C14.6533 19.2876 19.2856 14.6553 24.9995 14.6553C30.7133 14.6553 35.3457 19.2876 35.3457 25.0096Z" fill="#4173CD"/>
<path d="M17.1313 22.4087H23.1427L24.5029 18.2225L24.8641 19.3453L22.8888 25.4308L22.3003 25.0015L22.9156 23.1107H18.0811L17.1313 22.4087ZM20.1349 31.665L21.9928 25.9512L18.432 23.3583H19.6064L24.7817 27.1154L24.1934 27.5447L22.5812 26.3721L21.0847 30.9797L20.1349 31.665ZM29.8659 31.665L25.0005 28.1311L21.4417 30.7155L21.8051 29.6092L26.9762 25.8437L27.1971 26.5373L25.5889 27.7016L29.5007 30.5505L29.8659 31.665ZM32.8694 22.4087L28.008 25.9511L29.3684 30.1375L28.4188 29.4437L26.4453 23.3582H27.1679L27.7829 25.2574L31.6969 22.4086H32.8693V22.4087H32.8694ZM25.0005 16.6948L26.8584 22.4087H31.2615L30.3098 23.1107H23.9146L24.1397 22.4087H26.1337L24.6371 17.8095L25.0005 16.6948Z" fill="#F2DD30"/>
<path d="M25.1735 33.2834H24.8288V28.7998H25.1735V33.2834ZM32.8176 27.7179L28.5549 26.339L28.6623 26.017L32.9271 27.3959L32.8176 27.7179ZM17.1807 27.7179L17.0732 27.3959L21.34 26.017L21.4455 26.339L17.1807 27.7179ZM27.3721 22.0369L27.0912 21.8389L29.7274 18.2139L30.002 18.4121L27.3721 22.0369ZM22.6346 22.0369L19.9941 18.4121L20.2729 18.2139L22.907 21.8389L22.6346 22.0369Z" fill="#F2DD30"/>
</g>
<defs>
<clipPath id="clip0_106_19475">
<rect width="50" height="50" fill="white"/>
</clipPath>
</defs>
</svg>
