<svg width="50" height="50" viewBox="0 0 50 50" fill="none" xmlns="http://www.w3.org/2000/svg">
<g clip-path="url(#clip0_106_19460)">
<path d="M49.1378 41.3792H0.862108C0.386034 41.3792 0 40.9932 0 40.5171V9.48271C0 9.00664 0.386034 8.62061 0.862108 8.62061H49.1379C49.614 8.62061 50 9.00664 50 9.48271V40.5171C49.9999 40.9933 49.6139 41.3792 49.1378 41.3792Z" fill="#41479B"/>
<path d="M25.3507 12.3716L25.6964 13.4081L26.7888 13.4166C26.9303 13.4176 26.9889 13.5981 26.8752 13.6822L25.9963 14.3312L26.3258 15.3728C26.3684 15.5076 26.2149 15.6193 26.0998 15.537L25.211 14.9016L24.3222 15.537C24.2072 15.6192 24.0536 15.5077 24.0963 15.3728L24.4258 14.3312L23.5469 13.6822C23.4331 13.5981 23.4917 13.4176 23.6332 13.4166L24.7257 13.4081L25.0714 12.3716C25.116 12.2375 25.3059 12.2375 25.3507 12.3716Z" fill="#FFE15A"/>
<path d="M25.3507 34.6236L25.6964 35.66L26.7888 35.6685C26.9303 35.6696 26.9889 35.85 26.8752 35.9341L25.9963 36.5832L26.3258 37.6247C26.3684 37.7595 26.2149 37.8712 26.0998 37.7889L25.211 37.1536L24.3222 37.7889C24.2072 37.8711 24.0536 37.7596 24.0963 37.6247L24.4258 36.5832L23.5469 35.9341C23.4331 35.85 23.4917 35.6696 23.6332 35.6685L24.7257 35.66L25.0714 34.6236C25.116 34.4894 25.3059 34.4894 25.3507 34.6236Z" fill="#FFE15A"/>
<path d="M36.4766 23.4976L36.8223 24.534L37.9148 24.5425C38.0563 24.5436 38.1149 24.7241 38.0011 24.8082L37.1222 25.4572L37.4517 26.4988C37.4944 26.6335 37.3409 26.7453 37.2258 26.6629L36.337 26.0276L35.4482 26.6629C35.3332 26.7452 35.1796 26.6336 35.2222 26.4988L35.5517 25.4572L34.6728 24.8082C34.5591 24.7241 34.6177 24.5436 34.7592 24.5425L35.8516 24.534L36.1973 23.4976C36.242 23.3634 36.4319 23.3634 36.4766 23.4976Z" fill="#FFE15A"/>
<path d="M14.2242 23.4976L14.5699 24.534L15.6624 24.5425C15.8039 24.5436 15.8625 24.7241 15.7487 24.8082L14.8698 25.4572L15.1993 26.4988C15.242 26.6335 15.0885 26.7453 14.9733 26.6629L14.0845 26.0276L13.1958 26.6629C13.0807 26.7452 12.9271 26.6336 12.9698 26.4988L13.2993 25.4572L12.4204 24.8082C12.3066 24.7241 12.3652 24.5436 12.5067 24.5425L13.5992 24.534L13.9449 23.4976C13.9896 23.3634 14.1796 23.3634 14.2242 23.4976Z" fill="#FFE15A"/>
<path d="M15.8946 17.6875L16.2403 18.724L17.3328 18.7325C17.4743 18.7335 17.5329 18.914 17.4191 18.9981L16.5402 19.6471L16.8697 20.6887C16.9124 20.8235 16.7589 20.9352 16.6437 20.8529L15.755 20.2175L14.8662 20.8529C14.7512 20.9351 14.5975 20.8236 14.6402 20.6887L14.9697 19.6471L14.0908 18.9981C13.977 18.914 14.0356 18.7335 14.1771 18.7325L15.2696 18.724L15.6153 17.6875C15.66 17.5534 15.8498 17.5534 15.8946 17.6875Z" fill="#FFE15A"/>
<path d="M35.1651 28.8135L35.5108 29.85L36.6033 29.8584C36.7448 29.8595 36.8034 30.04 36.6896 30.1241L35.8107 30.7731L36.1402 31.8147C36.1829 31.9495 36.0294 32.0612 35.9142 31.9789L35.0255 31.3435L34.1367 31.9789C34.0217 32.0611 33.868 31.9496 33.9107 31.8147L34.2402 30.7731L33.3613 30.1241C33.2475 30.04 33.3061 29.8595 33.4476 29.8584L34.5401 29.85L34.8858 28.8135C34.9305 28.6793 35.1204 28.6793 35.1651 28.8135Z" fill="#FFE15A"/>
<path d="M31.0933 13.6153L31.439 14.6517L32.5315 14.6602C32.673 14.6613 32.7316 14.8417 32.6178 14.9258L31.7389 15.5748L32.0684 16.6164C32.1111 16.7512 31.9576 16.8629 31.8425 16.7806L30.9537 16.1453L30.0649 16.7806C29.9499 16.8628 29.7963 16.7513 29.8389 16.6164L30.1684 15.5748L29.2895 14.9258C29.1758 14.8417 29.2344 14.6613 29.3759 14.6602L30.4683 14.6517L30.814 13.6153C30.8587 13.4811 31.0484 13.4811 31.0933 13.6153Z" fill="#FFE15A"/>
<path d="M19.9669 32.8858L20.3126 33.9222L21.405 33.9307C21.5466 33.9318 21.6051 34.1123 21.4914 34.1963L20.6125 34.8454L20.942 35.887C20.9846 36.0217 20.8311 36.1334 20.716 36.0511L19.8272 35.4158L18.9385 36.0511C18.8234 36.1333 18.6698 36.0218 18.7125 35.887L19.042 34.8454L18.1631 34.1963C18.0493 34.1123 18.1079 33.9318 18.2494 33.9307L19.3419 33.9222L19.6876 32.8858C19.7323 32.7516 19.922 32.7516 19.9669 32.8858Z" fill="#FFE15A"/>
<path d="M34.8858 17.6875L34.5401 18.724L33.4476 18.7325C33.3061 18.7335 33.2475 18.914 33.3613 18.9981L34.2402 19.6471L33.9107 20.6887C33.868 20.8235 34.0216 20.9352 34.1367 20.8529L35.0255 20.2175L35.9142 20.8529C36.0293 20.9351 36.1829 20.8236 36.1402 20.6887L35.8107 19.6471L36.6896 18.9981C36.8034 18.914 36.7448 18.7335 36.6033 18.7325L35.5108 18.724L35.1651 17.6875C35.1204 17.5534 34.9305 17.5534 34.8858 17.6875Z" fill="#FFE15A"/>
<path d="M15.6153 28.8135L15.2696 29.85L14.1771 29.8584C14.0356 29.8595 13.977 30.04 14.0908 30.1241L14.9697 30.7731L14.6402 31.8147C14.5975 31.9495 14.7511 32.0612 14.8662 31.9789L15.755 31.3435L16.6437 31.9789C16.7588 32.0611 16.9124 31.9496 16.8697 31.8147L16.5402 30.7731L17.4191 30.1241C17.5329 30.04 17.4743 29.8595 17.3328 29.8584L16.2403 29.85L15.8946 28.8135C15.8498 28.6793 15.66 28.6793 15.6153 28.8135Z" fill="#FFE15A"/>
<path d="M19.6876 13.6153L19.3419 14.6517L18.2494 14.6602C18.1079 14.6613 18.0493 14.8417 18.1631 14.9258L19.042 15.5748L18.7125 16.6164C18.6698 16.7512 18.8233 16.8629 18.9385 16.7806L19.8272 16.1453L20.716 16.7806C20.831 16.8628 20.9846 16.7513 20.942 16.6164L20.6125 15.5748L21.4914 14.9258C21.6051 14.8417 21.5466 14.6613 21.405 14.6602L20.3126 14.6517L19.9669 13.6153C19.922 13.4811 19.7323 13.4811 19.6876 13.6153Z" fill="#FFE15A"/>
<path d="M30.8135 32.8858L30.4678 33.9222L29.3754 33.9307C29.2339 33.9318 29.1753 34.1123 29.289 34.1963L30.1679 34.8454L29.8385 35.887C29.7958 36.0217 29.9493 36.1334 30.0644 36.0511L30.9532 35.4158L31.842 36.0511C31.957 36.1333 32.1106 36.0218 32.0679 35.887L31.7384 34.8454L32.6174 34.1963C32.7311 34.1123 32.6725 33.9318 32.531 33.9307L31.4385 33.9222L31.0928 32.8858C31.048 32.7516 30.8583 32.7516 30.8135 32.8858Z" fill="#FFE15A"/>
</g>
<defs>
<clipPath id="clip0_106_19460">
<rect width="50" height="50" fill="white"/>
</clipPath>
</defs>
</svg>
