<svg width="50" height="50" viewBox="0 0 50 50" fill="none" xmlns="http://www.w3.org/2000/svg">
<g clip-path="url(#clip0_106_19418)">
<path d="M49.1368 41.3791H0.861131C0.385058 41.3791 -0.000976562 40.9931 -0.000976562 40.517V9.48271C-0.000976562 9.00664 0.385058 8.62061 0.861131 8.62061H49.1369C49.613 8.62061 49.999 9.00664 49.999 9.48271V40.517C49.9989 40.9932 49.6129 41.3791 49.1368 41.3791Z" fill="#41479B"/>
<path d="M24.1369 8.62061H22.6395L14.6542 13.8523V8.62061H10.3438V13.8523L2.35849 8.62061H0.861131C0.385058 8.62061 -0.000976562 9.00664 -0.000976562 9.48271V10.1665L6.85008 14.6551H-0.000976562V18.9654H6.85008L-0.000976562 23.4541V24.1378C-0.000976562 24.6138 0.385058 24.9999 0.861131 24.9999H2.35849L10.3438 19.7681V24.9999H14.6542V19.7681L22.6394 24.9999H24.1368C24.6128 24.9999 24.9989 24.6138 24.9989 24.1378V23.454L18.1479 18.9654H24.9989V14.6551H18.1478L24.9989 10.1665V9.48271C24.9989 9.00664 24.613 8.62061 24.1369 8.62061Z" fill="#F5F5F5"/>
<path d="M24.9984 15.5172H13.7916V8.62061H11.2054V15.5172H-0.00146484V18.1033H11.2054V24.9999H13.7916V18.1033H24.9984V15.5172Z" fill="#FF4B55"/>
<path d="M9.48123 14.6549L0.409374 8.76611C0.167968 8.91894 -0.00146484 9.17558 -0.00146484 9.48252V9.52724L7.89784 14.6549H9.48123Z" fill="#FF4B55"/>
<path d="M16.2372 14.6551L24.8675 9.05293C24.7175 8.79912 24.4528 8.62061 24.1365 8.62061H23.9501L14.6538 14.6551H16.2372Z" fill="#FF4B55"/>
<path d="M8.73582 18.9653L0.12207 24.5567C0.270605 24.8167 0.539355 24.9998 0.860253 24.9998H1.02285L10.3192 18.9653H8.73582Z" fill="#FF4B55"/>
<path d="M24.9847 24.2055L16.9119 18.9653H15.3286L24.4959 24.9159C24.7706 24.7885 24.9589 24.5214 24.9847 24.2055Z" fill="#FF4B55"/>
<path d="M32.2946 34.4131L31.89 33.4688L32.0923 33.941L31.8877 33.47C31.9729 33.4324 33.9756 32.5187 33.9756 29.832H35.0028C35.0028 33.2135 32.4053 34.3655 32.2946 34.4131Z" fill="#E67346"/>
<path d="M32.6965 32.1157L31.9702 31.3894C33.3588 30.0009 34.0804 29.62 34.1581 29.5811L34.6176 30.4999L34.3878 30.0404L34.6215 30.4978C34.6149 30.5014 33.9645 30.8477 32.6965 32.1157Z" fill="#EB7D4B"/>
<path d="M42.8503 34.4131L43.2549 33.4688L43.0526 33.941L43.2572 33.47C43.172 33.4324 41.1693 32.5187 41.1693 29.832H40.1421C40.1421 33.2135 42.7396 34.3655 42.8503 34.4131Z" fill="#E67346"/>
<path d="M42.4484 32.1157L43.1747 31.3894C41.7861 30.0009 41.0645 29.62 40.9868 29.5811L40.5273 30.4999L40.7571 30.0404L40.5234 30.4978C40.5299 30.5014 41.1803 30.8477 42.4484 32.1157Z" fill="#EB7D4B"/>
<path d="M37.5709 16.478H32.0923C32.0923 16.478 32.0923 22.984 32.0923 24.696C32.0923 26.408 32.4348 30.8594 37.5709 32.5715C42.7071 30.8593 43.0495 26.408 43.0495 24.696C43.0495 22.984 43.0495 16.478 43.0495 16.478H37.5709Z" fill="#4173CD"/>
<path d="M39.9679 18.5323H37.0241C36.7131 18.5323 36.4114 18.4265 36.1685 18.2322L35.0192 17.3127C34.8978 17.2156 34.747 17.1626 34.5914 17.1626H34.4893C34.111 17.1626 33.8045 17.4691 33.8045 17.8474H33.2909C33.0073 17.8474 32.7773 18.0773 32.7773 18.3609C32.7773 18.6445 33.0073 18.8745 33.2909 18.8745H33.8045C33.9936 18.8745 34.147 19.0278 34.147 19.217V20.9291C34.147 21.5666 34.5845 22.0976 35.1742 22.2503V23.326H35.859L36.1158 22.2987H39.2832L39.6257 22.6412V23.326H39.9682V22.2987H40.3106V23.326H40.6531V22.2038C40.857 22.0851 40.9956 21.8669 40.9956 21.614V19.5595C40.9951 18.9923 40.5352 18.5323 39.9679 18.5323Z" fill="#C8C8C8"/>
<path d="M33.8042 22.9839L34.4892 25.0383H40.6526L41.3374 22.9839H33.8042Z" fill="#73AF00"/>
<path d="M41.2186 24.3535C40.3057 24.3535 40.3057 25.0383 39.3929 25.0383C38.4803 25.0383 38.4803 24.3535 37.5676 24.3535C36.6551 24.3535 36.6551 25.0383 35.7425 25.0383C34.8297 25.0383 34.8297 24.3535 33.9168 24.3535C33.006 24.3535 33.0036 25.0352 32.0967 25.0381C32.1077 25.4195 32.1403 25.886 32.2246 26.4017C33.0051 26.3379 33.0514 25.7232 33.9169 25.7232C34.8297 25.7232 34.8297 26.408 35.7426 26.408C36.6551 26.408 36.6551 25.7232 37.5677 25.7232C38.4803 25.7232 38.4803 26.408 39.393 26.408C40.3058 26.408 40.3058 25.7232 41.2187 25.7232C42.0866 25.7232 42.1322 26.3392 42.9165 26.4018C43.0007 25.8862 43.0334 25.4196 43.0444 25.0382C42.1332 25.0366 42.132 24.3535 41.2186 24.3535Z" fill="#F5F5F5"/>
<path d="M41.2187 25.7231C40.3058 25.7231 40.3058 26.4079 39.393 26.4079C38.4804 26.4079 38.4804 25.7231 37.5677 25.7231C36.6552 25.7231 36.6552 26.4079 35.7426 26.4079C34.8298 26.4079 34.8298 25.7231 33.9169 25.7231C33.0514 25.7231 33.0052 26.3378 32.2246 26.4016C32.2916 26.8119 32.3923 27.2533 32.5396 27.7069C33.039 27.5325 33.1848 27.0927 33.9168 27.0927C34.8296 27.0927 34.8296 27.7774 35.7425 27.7774C36.655 27.7774 36.655 27.0927 37.5676 27.0927C38.4802 27.0927 38.4802 27.7774 39.3929 27.7774C40.3057 27.7774 40.3057 27.0927 41.2186 27.0927C41.9533 27.0927 42.0985 27.5343 42.6011 27.708C42.7485 27.254 42.8492 26.8123 42.9164 26.4017C42.1323 26.339 42.0867 25.7231 41.2187 25.7231Z" fill="#4173CD"/>
<path d="M41.2186 27.0928C40.3057 27.0928 40.3057 27.7775 39.3929 27.7775C38.4803 27.7775 38.4803 27.0928 37.5676 27.0928C36.6551 27.0928 36.6551 27.7775 35.7425 27.7775C34.8297 27.7775 34.8297 27.0928 33.9168 27.0928C33.1848 27.0928 33.039 27.5325 32.5396 27.707C32.6576 28.0707 32.8071 28.4421 32.9941 28.8122C33.2257 28.6386 33.4538 28.4624 33.9168 28.4624C34.8296 28.4624 34.8296 29.1472 35.7425 29.1472C36.655 29.1472 36.655 28.4624 37.5676 28.4624C38.4802 28.4624 38.4802 29.1472 39.3929 29.1472C40.3057 29.1472 40.3057 28.4624 41.2186 28.4624C41.6843 28.4624 41.9129 28.6399 42.1458 28.8144C42.3332 28.4438 42.4829 28.0721 42.6011 27.7081C42.0985 27.5344 41.9534 27.0928 41.2186 27.0928Z" fill="#F5F5F5"/>
<path d="M41.2186 28.4624C40.3058 28.4624 40.3057 29.1472 39.3929 29.1472C38.4803 29.1472 38.4803 28.4624 37.5676 28.4624C36.6551 28.4624 36.6551 29.1472 35.7425 29.1472C34.8297 29.1472 34.8297 28.4624 33.9168 28.4624C33.4539 28.4624 33.2256 28.6385 32.9941 28.8122C33.1724 29.1649 33.3854 29.5159 33.6399 29.8576C33.7227 29.842 33.8132 29.8322 33.9168 29.8322C34.8296 29.8322 34.8296 30.517 35.7425 30.517C36.655 30.517 36.655 29.8322 37.5676 29.8322C38.4802 29.8322 38.4802 30.517 39.3929 30.517C40.3057 30.517 40.3058 29.8322 41.2186 29.8322C41.3242 29.8322 41.4165 29.8422 41.5006 29.8583C41.7548 29.5172 41.9677 29.1667 42.1458 28.8145C41.913 28.6399 41.6844 28.4624 41.2186 28.4624Z" fill="#4173CD"/>
<path d="M41.5008 29.8581C41.4168 29.842 41.3245 29.832 41.2188 29.832C40.306 29.832 40.306 30.5168 39.3931 30.5168C38.4805 30.5168 38.4805 29.832 37.5678 29.832C36.6553 29.832 36.6553 30.5168 35.7427 30.5168C34.8299 30.5168 34.8299 29.832 33.917 29.832C33.8135 29.832 33.7229 29.8418 33.6401 29.8574C34.1951 30.6023 34.9479 31.3009 35.9666 31.8691C36.6604 31.7668 36.7375 31.2017 37.5676 31.2017C38.3996 31.2017 38.4752 31.7692 39.1732 31.8697C40.1926 31.3017 40.9456 30.6032 41.5008 29.8581Z" fill="#F5F5F5"/>
<path d="M37.7415 24.3535H37.3999V30.1748H37.7415V24.3535Z" fill="#FF965A"/>
<path d="M38.5981 25.209H36.5435V25.5515H38.5981V25.209Z" fill="#FF965A"/>
<path d="M38.5981 27.2637H36.5435V27.6062H38.5981V27.2637Z" fill="#FF965A"/>
<path d="M38.5977 25.5508H36.543V26.9053H38.5977V25.5508Z" fill="#FFE15A"/>
<path d="M37.3998 24.3535V25.0384L36.3726 24.696L37.3998 24.3535Z" fill="#FF4B55"/>
<path d="M40.0242 24.3535H39.6826V28.3769H40.0242V24.3535Z" fill="#FF965A"/>
<path d="M40.8809 25.209H38.8262V25.5515H40.8809V25.209Z" fill="#FF965A"/>
<path d="M40.8809 27.2637H38.8262V27.6062H40.8809V27.2637Z" fill="#FF965A"/>
<path d="M40.8809 25.5508H38.8262V26.9053H40.8809V25.5508Z" fill="#FFE15A"/>
<path d="M39.6825 24.3535V25.0384L38.6553 24.696L39.6825 24.3535Z" fill="#FF4B55"/>
<path d="M35.4436 24.3535H35.1021V28.3481H35.4436V24.3535Z" fill="#FF965A"/>
<path d="M36.3013 25.209H34.2466V25.5515H36.3013V25.209Z" fill="#FF965A"/>
<path d="M36.3013 27.2637H34.2466V27.6062H36.3013V27.2637Z" fill="#FF965A"/>
<path d="M36.3018 25.5508H34.2471V26.9053H36.3018V25.5508Z" fill="#FFE15A"/>
<path d="M35.1024 24.3535V25.0384L34.0752 24.696L35.1024 24.3535Z" fill="#FF4B55"/>
<path d="M39.2831 28.1199C39.2831 29.0639 38.515 29.832 37.571 29.832C36.6269 29.832 35.8589 29.064 35.8589 28.1199H35.5164H35.1768L32.8577 27.5962L32.7822 27.9303L33.8044 28.1611V28.4623L34.558 28.7637C34.8551 30.1547 36.0926 31.2015 37.5709 31.2015C39.0345 31.2015 40.2606 30.1748 40.5732 28.8046H41.6798V27.7773L39.2831 28.1199Z" fill="#FF965A"/>
<path d="M43.0499 16.4776C43.0499 16.4776 43.0499 22.9836 43.0499 24.6956C43.0499 26.4076 42.7074 30.8591 37.5712 32.5711C32.435 30.859 32.0926 26.4076 32.0926 24.6956C32.0926 22.9836 32.0926 16.4776 32.0926 16.4776H37.5712H43.0499ZM43.3922 16.1353H43.0497H37.5711H32.0925H31.75V16.4777V24.6957C31.75 28.7558 33.7789 31.668 37.4628 32.8961L37.5711 32.9322L37.6794 32.8961C41.3634 31.668 43.3922 28.7557 43.3922 24.6957V16.4777V16.1353Z" fill="#F5F5F5"/>
<path d="M37.5709 34.2832C35.0507 34.2832 32.7134 33.439 31.3188 32.0247L32.2939 31.063C33.4367 32.2216 35.4095 32.9135 37.571 32.9135C39.7325 32.9135 41.7053 32.2217 42.848 31.063L43.8231 32.0247C42.4284 33.4389 40.0912 34.2832 37.5709 34.2832Z" fill="#FF965A"/>
</g>
<defs>
<clipPath id="clip0_106_19418">
<rect width="50" height="50" fill="white"/>
</clipPath>
</defs>
</svg>
