<svg width="50" height="50" viewBox="0 0 50 50" fill="none" xmlns="http://www.w3.org/2000/svg">
<g clip-path="url(#clip0_106_19372)">
<path d="M49.1378 41.3792H0.862108C0.386034 41.3792 0 40.9932 0 40.5171V9.48271C0 9.00664 0.386034 8.62061 0.862108 8.62061H49.1379C49.614 8.62061 50 9.00664 50 9.48271V40.5171C49.9999 40.9933 49.6139 41.3792 49.1378 41.3792Z" fill="#82AFFF"/>
<path d="M24.1378 25H0.862108C0.386034 25 0 24.6139 0 24.1379V9.48271C0 9.00664 0.386034 8.62061 0.862108 8.62061H24.1379C24.614 8.62061 25.0001 9.00664 25.0001 9.48271V24.1379C25 24.6139 24.6139 25 24.1378 25Z" fill="#41479B"/>
<path d="M24.1378 8.62061H22.6404L14.655 13.8524V8.62061H10.3447V13.8524L2.35937 8.62061H0.862108C0.386034 8.62061 0 9.00654 0 9.48262V10.1664L6.85106 14.655H0V18.9653H6.85106L0 23.454V24.1378C0 24.6138 0.386034 24.9999 0.862108 24.9999H2.35957L10.3449 19.768V24.9999H14.6552V19.768L22.6405 24.9999H24.1379C24.614 24.9999 25.0001 24.6138 25.0001 24.1378V23.454L18.149 18.9654H25V14.6551H18.1489L25 10.1665V9.48271C25 9.00654 24.6139 8.62061 24.1378 8.62061Z" fill="#F5F5F5"/>
<path d="M25 15.5172H13.793V8.62061H11.2069V15.5172H0V18.1033H11.2069V24.9999H13.793V18.1033H25V15.5172Z" fill="#FF4B55"/>
<path d="M9.4827 14.6549L0.410839 8.76611C0.169433 8.91885 0 9.17558 0 9.48242V9.52715L7.8993 14.6549H9.4827Z" fill="#FF4B55"/>
<path d="M16.2387 14.6551L24.8689 9.05293C24.7189 8.79912 24.4543 8.62061 24.138 8.62061H23.9515L14.6553 14.6551H16.2387Z" fill="#FF4B55"/>
<path d="M8.73778 18.9653L0.124023 24.5567C0.272558 24.8167 0.541308 24.9998 0.862206 24.9998H1.0248L10.3213 18.9653H8.73778Z" fill="#FF4B55"/>
<path d="M24.9863 24.2054L16.9135 18.9653H15.3301L24.4974 24.916C24.7721 24.7886 24.9604 24.5215 24.9863 24.2054Z" fill="#FF4B55"/>
<path d="M31.4487 18.0288V27.4876C31.4487 31.3236 36.8372 33.2951 37.4938 33.521C38.1498 33.2951 43.5389 31.3204 43.5389 27.4876V18.0288H31.4487Z" fill="#F5F5F5"/>
<path d="M43.7522 22.3671V17.8154H31.2354V22.3671H36.6404V26.6342H31.2354V28.3411H36.6404V33.4615L37.4938 33.746L38.3472 33.4615V28.3411H43.7522V26.6342H38.3472V22.3671H43.7522Z" fill="#FF4B55"/>
<path d="M32.6385 21.3038C33.0318 21.3038 33.3507 20.9849 33.3507 20.5916C33.3507 20.1983 33.0318 19.8794 32.6385 19.8794C32.2451 19.8794 31.9263 20.1983 31.9263 20.5916C31.9263 20.9849 32.2451 21.3038 32.6385 21.3038Z" fill="#F5F5F5"/>
<path d="M34.0075 19.6287C33.7796 19.5034 33.3694 19.1672 33.2042 19.2242C33.039 19.2813 33.0021 19.3981 32.7709 19.4158C32.5457 19.4332 32.1901 19.6529 32.3383 19.8965C32.531 20.2135 33.1341 19.967 33.1739 19.8188C33.1739 19.8188 33.3221 19.8425 33.4466 19.8128C33.4466 19.8128 33.6944 20.1585 34.002 20.1357C34.3096 20.1129 34.4521 19.7313 34.3838 19.7313C34.3155 19.7313 34.0075 19.6287 34.0075 19.6287Z" fill="#FFE15A"/>
<path d="M34.9535 21.1386C34.9022 21.2325 34.5119 21.5663 33.8595 21.7197C33.7143 21.7539 33.7399 21.9248 33.5946 21.8394C33.4494 21.7539 33.0476 21.6854 32.6886 21.6685C32.3297 21.6514 32.294 21.3187 32.3553 21.1984C32.4332 21.0456 33.0062 20.9524 33.1088 21.1404C33.2113 21.3285 33.2882 21.2893 33.5433 21.3437C33.7014 21.3774 33.7057 21.4548 33.7057 21.4548C33.7057 21.4548 33.9964 21.1642 34.2442 21.0787C34.4921 20.9933 34.7057 20.8052 34.7484 20.8052C34.7912 20.8052 35.0133 20.8649 35.0133 20.8649L34.9535 21.1386Z" fill="#FFE15A"/>
<path d="M35.902 20.13C36.2781 20.2667 37.3891 20.2239 38.577 19.8394C39.7649 19.4548 40.1069 19.3864 40.688 19.6C41.2692 19.8136 41.5207 19.1386 41.1391 19.0244C40.5397 18.845 38.6856 19.9223 37.3431 19.3178C37.3431 19.3178 37.3036 19.4804 37.3462 19.5572C37.3462 19.5572 36.372 19.5914 36.6027 18.583C36.6027 18.583 36.6691 18.9512 37.1297 18.9089C38.0009 18.8289 38.1254 19.4423 39.97 18.8735C40.9942 18.5578 41.7899 18.7128 41.7969 19.211C41.8054 19.8109 40.9784 19.9504 40.9784 19.9504C40.9784 19.9504 41.3003 20.6085 41.9499 20.3179C42.5995 20.0272 42.6336 20.5286 42.6906 20.6997C42.7477 20.8707 42.8559 21.0359 42.9983 21.0529C42.9983 21.0529 43.1008 21.3605 43.061 21.4005C43.0211 21.4403 42.7533 21.7766 42.4856 21.7766C42.2178 21.7766 41.6366 21.7766 41.6366 21.7766C41.6366 21.7766 41.4827 21.3947 41.7791 21.3892C42.0753 21.3835 42.4344 21.3607 42.3888 21.2011C42.3432 21.0416 42.1096 20.9675 42.1153 20.7908C42.1153 20.7908 41.4258 21.2922 40.9986 20.6996L40.9871 20.9788C40.9871 20.9788 40.4686 20.8819 40.2807 20.466C40.2807 20.466 40.332 20.9333 39.8876 20.8648C39.8876 20.8648 39.9788 21.0016 40.1326 21.0984C40.2866 21.1953 40.1269 21.406 39.8307 21.5827C39.5345 21.7594 38.6228 22.2722 38.2069 21.7479C37.791 21.2238 38.2981 20.9218 38.4234 20.956C38.5487 20.9901 38.9076 21.5428 39.1527 21.4687C39.3977 21.3947 39.5173 21.1439 39.3121 20.9902C39.107 20.8365 38.9534 20.691 39.0827 20.5357C39.2606 20.3224 39.9161 20.3863 39.8933 20.2439C39.8705 20.1015 39.2609 20.1414 38.862 20.5401C38.4632 20.939 36.7311 21.8563 36.0416 21.2752C35.3523 20.694 35.902 20.13 35.902 20.13Z" fill="#FFE15A"/>
<path d="M35.6792 19.8739C35.6792 19.8739 36.2005 20.3867 37.0809 20.5491C37.0809 20.5491 36.9185 20.797 36.4484 20.7286C36.4484 20.7286 36.6365 20.891 36.7647 21.1645C36.7647 21.1645 36.4656 21.2328 36.2006 21.0875C36.2006 21.0875 36.2348 21.3097 36.363 21.4893C36.363 21.4893 36.0126 21.4893 35.7134 21.2243L35.5937 21.5661C35.5937 21.5661 35.3887 21.4294 35.2604 21.1644C35.2604 21.1644 35.0211 21.3524 34.7819 21.3524C34.7819 21.3524 34.8674 21.0961 34.8674 20.9507C34.8674 20.9507 34.5256 21.1558 34.2435 21.0789C34.2435 21.0789 34.252 20.7199 34.346 20.6174C34.346 20.6174 34.1238 20.6431 33.9785 20.5661C33.9785 20.5661 34.064 20.3695 34.1067 20.2413C34.1067 20.2413 33.8674 20.2498 33.7222 20.1131C33.7222 20.1131 34.1837 19.9336 34.2863 19.7627L35.6792 19.8739Z" fill="#FFD25A"/>
<path d="M34.8391 18.438C34.9416 18.495 35.1068 18.6203 35.1753 18.8311C35.1753 18.8311 35.3634 18.5575 35.6881 18.5063C35.6881 18.5063 35.8306 18.6657 35.7906 19.0816C35.7906 19.0816 36.1496 18.9791 36.3434 19.1671C36.3434 19.1671 35.9615 19.2525 35.785 19.5716C35.785 19.5716 35.7164 19.8976 35.8361 20.0913C35.8361 20.0913 35.7028 20.1091 35.5685 20.0503C35.5685 20.0503 35.5001 20.3751 35.5685 20.4776C35.5685 20.4776 35.3804 20.4548 35.2778 20.2555C35.2778 20.2555 35.1239 20.4891 35.1353 20.6315C35.1353 20.6315 34.9303 20.5119 34.9188 20.3353C34.9188 20.3353 34.7764 20.6031 34.6227 20.626C34.6227 20.626 34.6056 20.2499 34.5372 20.1074C34.5372 20.1074 34.4062 20.2499 34.2353 20.2441C34.2353 20.2441 34.2353 19.9535 34.3777 19.8168C34.3777 19.8168 34.1384 19.8908 34.0073 19.6287C34.0073 19.6287 34.4004 19.7426 34.4973 19.5034C34.5941 19.2641 34.6226 19.19 34.7594 19.059C34.8961 18.928 34.8391 18.438 34.8391 18.438Z" fill="#FFBE5A"/>
<path d="M35.6795 19.5405C35.6795 19.5405 35.1923 20.4721 34.748 20.1901C34.2611 19.8811 34.8676 19.156 34.9445 19.0791C34.9444 19.079 35.3034 19.173 35.6795 19.5405Z" fill="#FFE15A"/>
<path d="M33.9221 24.3117C33.9221 24.3117 33.871 23.6427 33.5083 23.4496C33.1673 23.2682 32.9658 23.1774 32.9268 22.9448C32.9268 22.9448 33.223 23.081 33.5362 23.166C33.8192 23.2429 34.0954 23.7219 34.0115 24.2606L33.9221 24.3117Z" fill="#5ABEA0"/>
<path d="M32.7773 24.862L32.8234 24.9471L32.8569 25.13L32.7898 25.3469C32.7898 25.3469 33.0563 25.4528 33.117 25.8147C33.1586 26.0631 33.268 26.1168 33.3351 26.0657C33.4021 26.0146 33.4428 25.9543 33.3728 25.6828C33.2833 25.3362 33.0414 25.0065 33.0414 25.0065L32.8527 24.7173L32.7773 24.862Z" fill="#B46446"/>
<path d="M33.0414 25.0062C32.7982 24.6915 32.1354 24.0364 32.0097 24.9295C32.0097 24.9295 31.75 24.177 32.2362 24.2064C32.7981 24.2406 33.0414 25.0062 33.0414 25.0062Z" fill="#5ABEA0"/>
<path d="M32.8235 24.9467C32.6139 24.717 32.5467 24.5468 32.4377 24.1215C32.3286 23.6963 32.2951 23.5685 32.1692 23.577C32.0434 23.5855 31.968 23.7216 31.968 23.9938C31.968 23.9938 31.5989 23.662 31.8505 23.3983C32.1021 23.1346 32.6641 23.2793 32.6977 23.7471C32.7311 24.215 32.7228 24.5297 32.8905 24.9212L32.8235 24.9467Z" fill="#5ABEA0"/>
<path d="M32.8821 24.7427C32.8821 24.7427 32.4376 23.7643 33.6874 23.2368C33.6874 23.2368 32.5801 22.939 32.7144 24.5129L32.8821 24.7427Z" fill="#5ABEA0"/>
<path d="M33.0249 25.0914C33.0249 25.0914 32.0855 24.7341 32.1694 25.6019C32.1694 25.6019 32.3287 25.1935 32.7901 25.3467L33.0249 25.0914Z" fill="#5ABEA0"/>
<path d="M34.0902 24.7482C34.0902 25.002 34.1901 25.7384 34.0484 25.8315C33.9771 25.8783 33.7757 25.84 33.7925 25.6614C33.8093 25.4828 33.889 24.6149 33.889 24.4023C33.889 24.1896 34.0902 24.7482 34.0902 24.7482Z" fill="#B46446"/>
<path d="M33.4923 25.3384C33.6545 25.174 33.7048 24.7997 33.6489 24.3006C33.6489 24.3006 33.9844 24.5331 34.0907 24.7486C34.0907 24.7486 34.1969 24.2551 33.8502 24.1247C33.5036 23.9942 33.319 24.068 33.2575 24.2267C33.1959 24.3855 33.3634 24.5631 33.4365 24.8222C33.5035 25.0605 33.4923 25.3384 33.4923 25.3384Z" fill="#5ABEA0"/>
<path d="M34.0681 24.6178C34.0681 24.6178 34.124 24.357 34.3085 24.2492C34.3085 24.2492 34.6888 24.5158 34.6608 24.8731C34.6608 24.8731 34.7614 24.3854 34.5545 24.1925C34.3476 23.9998 34.1127 23.9487 33.9953 24.1188C33.8779 24.2888 34.0681 24.6178 34.0681 24.6178Z" fill="#5ABEA0"/>
<path d="M34.1578 24.1187C34.1578 24.1187 34.2753 23.4211 34.5716 23.268C34.8679 23.1148 35.416 22.973 35.4495 22.939C35.4495 22.939 34.7953 22.973 34.6891 22.973C34.5828 22.973 33.9956 23.3983 33.9956 24.028C33.9956 24.6575 34.0516 24.2266 34.0684 24.2208C34.0851 24.2152 34.1578 24.1187 34.1578 24.1187Z" fill="#5ABEA0"/>
<path d="M34.4297 25.9637C34.4968 26.1041 34.6561 26.138 34.6897 26.0657C34.7232 25.9935 34.8742 25.4404 34.8742 25.4404L34.6603 25.3384L34.4297 25.9637Z" fill="#B46446"/>
<path d="M35.684 23.6425C35.9468 23.4894 36.1202 23.9432 36.1202 23.9432C36.1202 23.4089 35.9524 23.2399 35.533 23.4441C35.4067 23.5056 35.3143 23.6344 35.2463 23.7838C35.034 23.1737 34.5657 23.1831 34.5657 23.1831L34.4595 23.2568C34.8429 23.3306 35.0625 23.79 35.1554 24.0406C35.1053 24.2235 35.0811 24.4009 35.0707 24.5024C34.8194 24.7628 34.6607 25.3382 34.6607 25.3382C34.6607 25.3382 34.8411 25.4445 34.8746 25.4402C34.8746 25.4402 34.9921 25.0787 35.1389 25.0872C35.2856 25.0957 35.4576 25.3297 35.4618 25.4786C35.4618 25.4786 35.6799 25.0362 35.4199 24.8661C35.3223 24.8023 35.2441 24.7779 35.1811 24.7768L35.3738 24.5599C35.6884 24.6194 35.9064 24.9172 35.9064 24.9172C35.9128 24.3856 35.678 24.2817 35.4305 24.3263C35.4747 24.1122 35.5721 23.7077 35.684 23.6425Z" fill="#5ABEA0"/>
<path d="M40.8613 24.3789C40.8613 24.8248 40.8613 25.8137 40.8613 25.8866C40.8613 25.9596 40.542 26.2433 40.542 26.2433H41.3909C41.3909 26.2433 41.1183 25.927 41.1183 25.8866C41.1183 25.8462 41.1806 24.4923 41.1806 24.4923L40.8613 24.3789Z" fill="#B46446"/>
<path d="M40.916 24.5326C40.7136 24.5164 40.1527 24.9785 39.9892 25.6836C39.9892 25.6836 39.4906 24.873 40.7369 24.2001C40.7369 24.2001 40.1839 24.0379 39.3428 24.9135C39.2974 24.9608 39.2571 23.5922 40.7681 23.957C40.7681 23.957 40.1917 23.1219 39.0078 23.7787C39.0078 23.7787 39.7944 22.3681 40.955 23.6328C40.955 23.6328 40.9627 22.5383 40.9706 22.6518C40.9785 22.7653 41.0641 23.2678 41.0641 23.2678L41.2899 22.8707L41.1108 23.6813C41.1108 23.6813 42.1467 22.3032 43.0268 23.7381C43.0268 23.7381 41.8896 23.268 41.3445 23.7949C41.3445 23.7949 42.5129 23.4787 42.4193 24.8325C42.4193 24.8325 41.9599 24.0299 41.2121 24.1353C41.2121 24.1353 42.0923 24.5406 41.8118 25.635C41.8117 25.6351 41.2813 24.5618 40.916 24.5326Z" fill="#5ABEA0"/>
<path d="M33.4782 29.4043C33.4348 29.3456 33.3741 29.3174 33.3145 29.31C33.3374 29.2309 33.3528 29.1947 33.3466 29.1371C33.3648 29.1416 33.3822 29.1498 33.4008 29.152L33.4088 29.087C33.3397 29.0787 33.2643 29.0477 33.1869 29.0004C33.2346 28.9595 33.2692 28.8966 33.2692 28.8195C33.2692 28.7358 33.2308 28.6657 33.1762 28.626C33.1217 28.6658 33.0832 28.7359 33.0832 28.8195C33.0832 28.8823 33.109 28.9327 33.1428 28.973C33.114 28.9531 33.0849 28.9301 33.0557 28.9053C33.0482 28.8538 33.0285 28.802 32.9828 28.7604C32.9209 28.704 32.8433 28.6852 32.7771 28.6986C32.7698 28.7657 32.7957 28.8413 32.8576 28.8978C32.9053 28.9413 32.9616 28.9562 33.0156 28.9573C33.0279 28.9678 33.0408 28.9782 33.0543 28.9889C33.0172 28.9844 32.9773 28.9882 32.9373 29.0027C32.8586 29.0314 32.806 29.0914 32.7872 29.1562C32.8434 29.1938 32.9223 29.2061 33.0009 29.1773C33.0696 29.1523 33.1137 29.1021 33.1375 29.047C33.1835 29.0764 33.234 29.1009 33.2863 29.1205L33.278 29.1216C33.2762 29.1688 33.2793 29.1882 33.2559 29.2759C33.2031 29.2416 33.1331 29.2262 33.0592 29.2479C32.9789 29.2716 32.9226 29.3282 32.8997 29.3918C32.9535 29.4328 33.0314 29.45 33.1118 29.4263C33.1721 29.4085 33.213 29.3697 33.2422 29.3257C33.2312 29.359 33.2173 29.3934 33.2018 29.4284C33.1546 29.4502 33.1104 29.4838 33.0833 29.5395C33.0467 29.6146 33.0506 29.6945 33.0823 29.7542C33.1488 29.7423 33.2139 29.696 33.2506 29.6208C33.2788 29.5627 33.2774 29.5046 33.2631 29.4524C33.2697 29.4377 33.276 29.4224 33.2825 29.4063C33.2886 29.4432 33.3036 29.4805 33.3287 29.5146C33.3785 29.582 33.4508 29.6156 33.5184 29.6153C33.5385 29.5509 33.5279 29.4717 33.4782 29.4043Z" fill="#5ABEA0"/>
<path d="M33.0933 29.1944C33.3775 29.1944 33.7494 29.1836 33.7384 29.4678C33.7275 29.752 33.4104 30.7145 34.143 31.0097C34.8756 31.3049 34.9631 31.2611 34.9631 31.2611L35.2911 32.0156L36.0893 31.7313L35.3238 31.1189C35.3238 31.1189 35.2582 30.7034 35.0724 30.419C35.0724 30.419 35.5426 30.1784 35.7066 29.9707L35.3786 29.9488C35.3786 29.9488 35.8051 29.6755 36.0018 29.3693L35.7723 29.3912C35.7723 29.3912 36.0347 29.1287 36.1003 28.8226C36.1003 28.8226 35.6738 29.249 35.2364 29.3037C35.2364 29.3037 35.4223 28.8226 35.466 28.6367C35.466 28.6367 35.138 28.8444 34.9084 28.9319C34.6788 29.0194 34.3179 29.0303 34.4819 29.7739C34.4819 29.7739 34.2851 29.61 34.1648 29.26C34.0446 28.9101 34.0009 28.7788 33.8368 28.7788C33.5689 28.7788 33.465 29.0194 33.465 29.0194L33.0933 29.1944Z" fill="#FFECDE"/>
<path d="M41.1642 29.3351C41.2625 29.204 41.4593 28.7941 41.6314 28.9007C41.8036 29.0072 42.0332 29.2695 42.1725 29.1466C42.3117 29.0236 42.32 28.8678 42.1068 28.7941C41.8936 28.7204 41.656 28.5973 41.5085 28.6466C41.3609 28.6957 40.9102 29.1631 40.9102 29.1631L41.1642 29.3351Z" fill="#B46446"/>
<path d="M39.8934 29.6874C39.8852 29.4989 40.0125 28.6803 40.5247 28.7857C40.8034 28.8431 40.9405 29.1385 41.3035 29.2775C41.6887 29.425 41.9347 29.5152 41.8609 29.7693C41.7871 30.0234 41.6477 30.3267 41.328 30.4005C41.0083 30.4745 39.8934 29.6874 39.8934 29.6874Z" fill="#FFE15A"/>
<path d="M39.557 30.3623C39.4477 30.3842 39.0433 30.9744 39.5243 31.5756C39.5243 31.5756 40.1145 31.816 40.5845 31.4444C41.0545 31.0729 40.7047 30.887 40.7047 30.887L39.557 30.3623Z" fill="#5ABEA0"/>
<path d="M39.5981 30.4907C39.549 30.4168 39.5572 30.3622 39.5572 30.3622C39.5572 30.3622 39.5325 29.5152 39.8851 29.4988C40.2376 29.4824 41.5081 30.3185 41.5081 30.4579C41.5081 30.5972 41.0982 30.9989 40.7539 31.0808C40.4098 31.1628 39.5981 30.4907 39.5981 30.4907Z" fill="#5ABEA0"/>
<path d="M38.7295 32.5403C38.7295 32.5403 39.8492 32.0373 39.6388 31.628C39.4869 31.3328 39.1456 31.522 39.0916 31.7475C39.0241 32.0288 38.8053 32.4209 38.7295 32.5403Z" fill="#B46446"/>
<path d="M37.4938 33.9699L37.4291 33.9493C37.3642 33.9285 35.8184 33.4306 34.2472 32.395C32.1373 31.0046 31.022 29.3074 31.022 27.4876V17.6021H43.9656V27.4876C43.9656 29.3075 42.8503 31.0046 40.7404 32.395C39.1693 33.4306 37.6235 33.9285 37.5585 33.9493L37.4938 33.9699ZM31.4487 18.0288V27.4876C31.4487 31.3236 36.8372 33.2951 37.4938 33.521C38.1498 33.2951 43.5389 31.3204 43.5389 27.4876V18.0288H31.4487Z" fill="#464655"/>
</g>
<defs>
<clipPath id="clip0_106_19372">
<rect width="50" height="50" fill="white"/>
</clipPath>
</defs>
</svg>
