<svg width="50" height="50" viewBox="0 0 50 50" fill="none" xmlns="http://www.w3.org/2000/svg">
<g clip-path="url(#clip0_106_19339)">
<path d="M-0.000976562 32.7583H49.9989V40.5169C49.9989 40.993 49.6129 41.379 49.1368 41.379H0.861131C0.385058 41.379 -0.000976562 40.993 -0.000976562 40.5169V32.7583Z" fill="#FF4B55"/>
<path d="M0.861619 8.62061H49.1374C49.6135 8.62061 49.9995 9.00664 49.9995 9.48271V17.2413H-0.000488281V9.48261C-0.000488281 9.00654 0.385546 8.62061 0.861619 8.62061Z" fill="#FF4B55"/>
<path d="M49.9994 17.2412H-0.000488281V32.7588H49.9994V17.2412Z" fill="#F5F5F5"/>
<path d="M30.6827 22.7985L25.2104 25.0322C25.2083 25.0266 25.2057 25.0217 25.2031 25.0164L30.4881 22.3696C30.2791 21.9525 30.0253 21.5619 29.7307 21.2057L25.1744 24.9737C25.1699 24.9681 25.1673 24.9608 25.1621 24.9556L29.3388 20.7746C29.0409 20.4766 28.7115 20.2103 28.3576 19.9784L25.1239 24.9282C25.1166 24.9232 25.11 24.9176 25.102 24.9135L27.7441 19.6253C27.3198 19.4127 26.8675 19.2482 26.394 19.1382L25.0514 24.8966C25.0344 24.8925 25.0181 24.8861 24.9996 24.8861C24.9811 24.8861 24.965 24.8925 24.9478 24.8966L23.6052 19.1382C23.1316 19.2482 22.6794 19.4126 22.2551 19.6253L24.8972 24.9135C24.8892 24.9176 24.8826 24.9232 24.8753 24.9282L21.6416 19.9784C21.2876 20.2104 20.9583 20.4767 20.6603 20.7746L24.8371 24.9556C24.832 24.9608 24.8295 24.968 24.8248 24.9737L20.2685 21.2057C19.9739 21.5618 19.7201 21.9525 19.5111 22.3696L24.7961 25.0164C24.7935 25.0218 24.7909 25.0267 24.7888 25.0322L19.3165 22.7985C19.1516 23.203 19.0289 23.6291 18.9531 24.0715L24.7791 25.0802C24.7783 25.0852 24.7766 25.0898 24.7761 25.095L18.8954 24.4824C18.8742 24.6899 18.8633 24.9004 18.8633 25.1136C18.8633 25.4821 18.8976 25.8424 18.9599 26.1929L24.9995 25.5681L31.0392 26.1929C31.1015 25.8422 31.1358 25.482 31.1358 25.1136C31.1358 24.9004 31.1248 24.6899 31.1037 24.4824L25.2229 25.095C25.2225 25.0898 25.2207 25.0852 25.2199 25.0802L31.0458 24.0715C30.9703 23.6292 30.8475 23.2031 30.6827 22.7985Z" fill="#FFB955"/>
<path d="M19.0688 26.6909C19.1109 26.8496 19.1596 27.0057 19.2138 27.159H30.7854C30.8396 27.0057 30.8883 26.8496 30.9303 26.6909C30.3635 26.6177 30.293 26.25 29.6024 26.25C28.8357 26.25 28.8357 26.7045 28.0689 26.7045C27.3022 26.7045 27.3022 26.25 26.5354 26.25C25.7685 26.25 25.7685 26.7045 25.0015 26.7045C24.2349 26.7045 24.2349 26.25 23.4683 26.25C22.7011 26.25 22.7011 26.7045 21.934 26.7045C21.1663 26.7045 21.1663 26.25 20.3985 26.25C19.707 26.25 19.6367 26.6178 19.0688 26.6909Z" fill="#4173CD"/>
<path d="M29.4214 27.8407C28.6833 27.8406 28.6832 27.3862 27.945 27.3862C27.2066 27.3862 27.2066 27.8407 26.4682 27.8407C25.7299 27.8407 25.7299 27.3862 24.9915 27.3862C24.2529 27.3862 24.2529 27.8407 23.5144 27.8407C22.7763 27.8407 22.7763 27.3862 22.0382 27.3862C21.2994 27.3862 21.2994 27.8407 20.5606 27.8407C19.9052 27.8407 19.8298 27.4841 19.3062 27.403C19.4312 27.7136 19.5793 28.0123 19.7513 28.2953H29.4211H29.4217H30.2474C30.4197 28.0117 30.5682 27.7122 30.6934 27.4008C30.1541 27.4767 30.0837 27.8407 29.4214 27.8407Z" fill="#4173CD"/>
<path d="M30.0087 28.656C29.8658 28.5811 29.6966 28.5225 29.4322 28.5225C28.6938 28.5225 28.6938 28.977 27.9555 28.977C27.2171 28.977 27.2171 28.5225 26.4787 28.5225C25.7401 28.5225 25.7401 28.977 25.0017 28.977C24.2635 28.977 24.2635 28.5225 23.5254 28.5225C22.7866 28.5225 22.7866 28.977 22.0478 28.977C21.3085 28.977 21.3085 28.5225 20.5693 28.5225C20.304 28.5225 20.1344 28.5813 19.9912 28.6564C20.1868 28.9323 20.4035 29.192 20.6409 29.4316H29.3588C29.5962 29.1918 29.8131 28.932 30.0087 28.656Z" fill="#4173CD"/>
<path d="M28.7808 29.9447C28.5578 29.8154 28.3784 29.6592 27.9452 29.6592C27.2068 29.6592 27.2068 30.1137 26.4684 30.1137C25.7301 30.1137 25.7301 29.6592 24.9917 29.6592C24.2531 29.6592 24.2531 30.1137 23.5146 30.1137C22.7765 30.1137 22.7765 29.6592 22.0384 29.6592C21.6109 29.6592 21.4305 29.8111 21.2114 29.9395C21.5156 30.1786 21.8428 30.3894 22.1894 30.5684H27.8096C28.1537 30.3906 28.4785 30.1816 28.7808 29.9447Z" fill="#4173CD"/>
<path d="M23.5254 30.7954C23.2834 30.7954 23.1212 30.8444 22.9858 30.9101C23.6169 31.1292 24.294 31.2499 24.9997 31.2499H25.0009C24.2635 31.2496 24.2633 30.7954 23.5254 30.7954Z" fill="#4173CD"/>
<path d="M25.0049 31.2498C25.7097 31.2491 26.3858 31.1285 27.016 30.9092C26.881 30.8441 26.7192 30.7954 26.4785 30.7954C25.7411 30.7954 25.7397 31.2481 25.0049 31.2498Z" fill="#4173CD"/>
<path d="M25.8061 24.3366L23.8616 23.7747C23.7525 23.7432 23.677 23.6447 23.6755 23.5311C23.6665 22.8111 23.6353 20.2757 23.6353 19.8863C23.6353 19.4318 24.0897 18.75 24.9989 18.75H25.7157C25.7836 18.75 25.8041 18.8424 25.7417 18.869C25.4134 19.0098 24.999 19.303 24.999 19.8863C24.999 20.5789 25.6585 20.8758 25.9727 20.9779C26.0698 21.0095 26.1354 21.0986 26.1354 21.2008V24.0892C26.1352 24.2606 25.9709 24.3843 25.8061 24.3366Z" fill="#FF4B55"/>
<path d="M24.0908 26.8804C24.1621 26.8372 24.2467 26.9093 24.2145 26.9862C24.0242 27.4432 23.5577 28.2955 22.726 28.2955C21.5896 28.2955 21.3623 27.3864 21.3623 26.7046V21.8838C21.3623 21.7848 21.4426 21.7046 21.5415 21.7046H21.8648C21.9639 21.7046 22.044 21.7849 22.044 21.8838V26.4773C22.0443 27.0919 23.3365 27.3371 24.0908 26.8804Z" fill="#FF4B55"/>
<path d="M25.8114 26.8804C25.7401 26.8372 25.6556 26.9093 25.6877 26.9862C25.878 27.4432 26.3445 28.2955 27.1763 28.2955C28.3126 28.2955 28.5399 27.3864 28.5399 26.7046V21.8838C28.5399 21.7848 28.4597 21.7046 28.3607 21.7046H28.0374C27.9384 21.7046 27.8582 21.7849 27.8582 21.8838V26.4773C27.858 27.0919 26.5657 27.3371 25.8114 26.8804Z" fill="#FF4B55"/>
<path d="M27.3902 26.1364H22.6097C22.5491 26.1364 22.5 26.0873 22.5 26.0268V26.0188C22.5 25.9583 22.5491 25.9092 22.6097 25.9092H27.3902C27.4508 25.9092 27.4999 25.9583 27.4999 26.0188V26.0268C27.4999 26.0874 27.4508 26.1364 27.3902 26.1364Z" fill="#AA4650"/>
<path d="M22.9822 25.2789L23.2283 24.9508C23.266 24.9007 23.2558 24.8293 23.2056 24.7916C23.1555 24.7541 23.0841 24.7646 23.0465 24.8145L22.9507 24.9422V24.8539C22.9507 24.7911 22.8998 24.7402 22.837 24.7402C22.7742 24.7402 22.7234 24.7911 22.7234 24.8539V24.9339L22.6338 24.8145C22.5962 24.7644 22.525 24.7539 22.4747 24.7916C22.4244 24.8293 22.4143 24.9006 22.452 24.9508L22.6981 25.2789L22.452 25.607C22.4143 25.6571 22.4245 25.7285 22.4747 25.7662C22.4951 25.7815 22.5191 25.7889 22.5427 25.7889C22.5773 25.7889 22.6113 25.7731 22.6336 25.7434L22.8399 25.4683L23.0461 25.7434C23.0684 25.7731 23.1025 25.7889 23.137 25.7889C23.1608 25.7889 23.1847 25.7815 23.205 25.7662C23.2553 25.7285 23.2654 25.6572 23.2277 25.607L22.9822 25.2789Z" fill="#AA4650"/>
<path d="M25.1043 25.2784L25.3504 24.9503C25.3881 24.9002 25.3778 24.8288 25.3276 24.7911C25.2775 24.7536 25.2062 24.7641 25.1686 24.814L25.0728 24.9417V24.8534C25.0728 24.7906 25.0219 24.7397 24.9591 24.7397C24.8963 24.7397 24.8454 24.7906 24.8454 24.8534V24.9334L24.7559 24.814C24.7183 24.7639 24.6471 24.7534 24.5968 24.7911C24.5465 24.8288 24.5363 24.9001 24.574 24.9503L24.8201 25.2784L24.574 25.6065C24.5363 25.6566 24.5466 25.728 24.5968 25.7657C24.6172 25.7811 24.6411 25.7884 24.6648 25.7884C24.6993 25.7884 24.7334 25.7727 24.7557 25.7429L24.9619 25.4678L25.1682 25.7429C25.1904 25.7727 25.2245 25.7884 25.2591 25.7884C25.2828 25.7884 25.3067 25.7811 25.3271 25.7657C25.3774 25.728 25.3875 25.6567 25.3498 25.6065L25.1043 25.2784Z" fill="#AA4650"/>
<path d="M24.0438 25.2784L24.2899 24.9503C24.3276 24.9002 24.3173 24.8288 24.2671 24.7911C24.217 24.7536 24.1456 24.7641 24.108 24.814L24.0122 24.9417V24.8534C24.0122 24.7906 23.9613 24.7397 23.8985 24.7397C23.8358 24.7397 23.7849 24.7906 23.7849 24.8534V24.9334L23.6953 24.814C23.6577 24.7639 23.5865 24.7534 23.5362 24.7911C23.486 24.8288 23.4758 24.9001 23.5135 24.9503L23.7596 25.2784L23.5135 25.6065C23.4758 25.6566 23.486 25.728 23.5362 25.7657C23.5567 25.7811 23.5806 25.7884 23.6042 25.7884C23.6388 25.7884 23.6729 25.7727 23.6951 25.7429L23.9014 25.4678L24.1076 25.7429C24.1299 25.7727 24.164 25.7884 24.1985 25.7884C24.2223 25.7884 24.2462 25.7811 24.2665 25.7657C24.3168 25.728 24.327 25.6567 24.2893 25.6065L24.0438 25.2784Z" fill="#AA4650"/>
<path d="M26.1649 25.2784L26.4109 24.9503C26.4486 24.9002 26.4384 24.8288 26.3882 24.7911C26.3381 24.7536 26.2667 24.7641 26.2291 24.814L26.1333 24.9417V24.8534C26.1333 24.7906 26.0824 24.7397 26.0196 24.7397C25.9568 24.7397 25.906 24.7906 25.906 24.8534V24.9334L25.8164 24.814C25.7788 24.7639 25.7076 24.7534 25.6573 24.7911C25.607 24.8288 25.5969 24.9001 25.6346 24.9503L25.8807 25.2784L25.6346 25.6065C25.5969 25.6566 25.6071 25.728 25.6573 25.7657C25.6777 25.7811 25.7017 25.7884 25.7253 25.7884C25.7599 25.7884 25.794 25.7727 25.8162 25.7429L26.0225 25.4678L26.2287 25.7429C26.251 25.7727 26.2851 25.7884 26.3196 25.7884C26.3434 25.7884 26.3673 25.7811 26.3876 25.7657C26.4379 25.728 26.4481 25.6567 26.4104 25.6065L26.1649 25.2784Z" fill="#AA4650"/>
<path d="M27.2254 25.2784L27.4715 24.9503C27.5092 24.9002 27.4989 24.8288 27.4487 24.7911C27.3986 24.7536 27.3273 24.7641 27.2897 24.814L27.1939 24.9417V24.8534C27.1939 24.7906 27.143 24.7397 27.0802 24.7397C27.0174 24.7397 26.9665 24.7906 26.9665 24.8534V24.9334L26.877 24.814C26.8394 24.7639 26.7682 24.7534 26.7179 24.7911C26.6676 24.8288 26.6574 24.9001 26.6951 24.9503L26.9412 25.2784L26.6951 25.6065C26.6574 25.6566 26.6677 25.728 26.7179 25.7657C26.7383 25.7811 26.7622 25.7884 26.7859 25.7884C26.8204 25.7884 26.8545 25.7727 26.8768 25.7429L27.083 25.4678L27.2893 25.7429C27.3115 25.7727 27.3456 25.7884 27.3802 25.7884C27.4039 25.7884 27.4278 25.7811 27.4481 25.7657C27.4984 25.728 27.5086 25.6567 27.4709 25.6065L27.2254 25.2784Z" fill="#AA4650"/>
<path d="M22.7725 26.8384C22.9405 26.9119 23.9279 26.9225 24.18 26.6599C24.432 26.3973 24.3796 26.2817 24.3796 26.2817L23.182 26.2922L22.7725 26.8384Z" fill="#AA4650"/>
<path d="M27.179 26.8384C27.011 26.9119 26.0236 26.9225 25.7715 26.6599C25.5195 26.3973 25.5719 26.2817 25.5719 26.2817L26.7695 26.2922L27.179 26.8384Z" fill="#AA4650"/>
</g>
<defs>
<clipPath id="clip0_106_19339">
<rect width="50" height="50" fill="white"/>
</clipPath>
</defs>
</svg>
