<svg width="50" height="50" viewBox="0 0 50 50" fill="none" xmlns="http://www.w3.org/2000/svg">
<g clip-path="url(#clip0_106_19316)">
<path d="M49.1378 41.3792H0.862108C0.386034 41.3792 0 40.9932 0 40.5171V9.48271C0 9.00664 0.386034 8.62061 0.862108 8.62061H49.1379C49.614 8.62061 50 9.00664 50 9.48271V40.5171C49.9999 40.9933 49.6139 41.3792 49.1378 41.3792Z" fill="#F5F5F5"/>
<path d="M49.9999 22.4136H27.5862V8.62061H22.4137V22.4136H0V27.5861H22.4137V41.3791H27.5862V27.5861H49.9999V22.4136Z" fill="#FF4B55"/>
<path d="M14.6552 14.339C13.8013 14.4248 12.9647 14.5108 12.127 14.597C12.2132 13.7592 12.2991 12.9227 12.3851 12.0688C11.602 12.1701 10.8119 12.1701 10.0288 12.0688C10.1146 12.9227 10.2007 13.7593 10.2869 14.597C9.44912 14.5109 8.6125 14.4249 7.75879 14.339C7.86006 15.122 7.86006 15.9122 7.75879 16.6952C8.61269 16.6094 9.44922 16.5233 10.2869 16.4372C10.2008 17.275 10.1147 18.1115 10.0288 18.9653C10.8119 18.864 11.602 18.864 12.3851 18.9653C12.2993 18.1115 12.2132 17.2749 12.127 16.4372C12.9648 16.5232 13.8014 16.6093 14.6552 16.6952C14.554 15.9122 14.554 15.1219 14.6552 14.339Z" fill="#FF4B55"/>
<path d="M42.2411 14.339C41.3872 14.4248 40.5507 14.5108 39.713 14.597C39.7991 13.7592 39.885 12.9227 39.9711 12.0688C39.188 12.1701 38.3978 12.1701 37.6147 12.0688C37.7006 12.9227 37.7866 13.7593 37.8728 14.597C37.0351 14.5109 36.1984 14.4249 35.3447 14.339C35.446 15.122 35.446 15.9122 35.3447 16.6952C36.1986 16.6094 37.0352 16.5233 37.8728 16.4372C37.7867 17.275 37.7007 18.1115 37.6147 18.9653C38.3978 18.864 39.188 18.864 39.9711 18.9653C39.8852 18.1115 39.7991 17.2749 39.713 16.4372C40.5508 16.5232 41.3873 16.6093 42.2411 16.6952C42.1399 15.9122 42.1399 15.1219 42.2411 14.339Z" fill="#FF4B55"/>
<path d="M14.6552 33.3043C13.8013 33.3901 12.9647 33.4762 12.127 33.5623C12.2132 32.7245 12.2991 31.888 12.3851 31.0342C11.602 31.1354 10.8119 31.1354 10.0288 31.0342C10.1146 31.888 10.2007 32.7246 10.2869 33.5623C9.44912 33.4763 8.6125 33.3902 7.75879 33.3043C7.86006 34.0873 7.86006 34.8775 7.75879 35.6605C8.61269 35.5747 9.44922 35.4887 10.2869 35.4025C10.2008 36.2403 10.1147 37.0768 10.0288 37.9307C10.8119 37.8294 11.602 37.8294 12.3851 37.9307C12.2993 37.0768 12.2132 36.2402 12.127 35.4025C12.9648 35.4886 13.8014 35.5746 14.6552 35.6605C14.554 34.8776 14.554 34.0873 14.6552 33.3043Z" fill="#FF4B55"/>
<path d="M42.2411 33.3043C41.3872 33.3901 40.5507 33.4762 39.713 33.5623C39.7991 32.7245 39.885 31.888 39.9711 31.0342C39.188 31.1354 38.3978 31.1354 37.6147 31.0342C37.7006 31.888 37.7866 32.7246 37.8728 33.5623C37.0351 33.4763 36.1984 33.3902 35.3447 33.3043C35.446 34.0873 35.446 34.8775 35.3447 35.6605C36.1986 35.5747 37.0352 35.4887 37.8728 35.4025C37.7867 36.2403 37.7007 37.0768 37.6147 37.9307C38.3978 37.8294 39.188 37.8294 39.9711 37.9307C39.8852 37.0768 39.7991 36.2402 39.713 35.4025C40.5508 35.4886 41.3873 35.5746 42.2411 35.6605C42.1399 34.8776 42.1399 34.0873 42.2411 33.3043Z" fill="#FF4B55"/>
</g>
<defs>
<clipPath id="clip0_106_19316">
<rect width="50" height="50" fill="white"/>
</clipPath>
</defs>
</svg>
