<svg width="50" height="50" viewBox="0 0 50 50" fill="none" xmlns="http://www.w3.org/2000/svg">
<g clip-path="url(#clip0_106_19307)">
<path d="M49.9999 19.5407H0V9.4832C0 9.00713 0.386034 8.62109 0.862108 8.62109H49.1379C49.614 8.62109 50 9.00713 50 9.4832L49.9999 19.5407Z" fill="#FF4B55"/>
<path d="M49.1378 41.3795H0.862108C0.386034 41.3795 0 40.9934 0 40.5174V30.46H49.9999V40.5174C49.9999 40.9935 49.6139 41.3795 49.1378 41.3795Z" fill="#73AF00"/>
<path d="M49.9999 19.54H0V30.459H49.9999V19.54Z" fill="#FFE15A"/>
<path d="M25.3634 20.8899L26.2631 23.5874L29.1066 23.6095C29.4747 23.6123 29.6274 24.0821 29.3313 24.3009L27.0438 25.9901L27.9015 28.7014C28.0127 29.0523 27.613 29.3428 27.3134 29.1286L24.9999 27.4749L22.6864 29.1284C22.387 29.3426 21.9873 29.0522 22.0982 28.7012L22.9559 25.99L20.6684 24.3007C20.3724 24.082 20.5249 23.6122 20.8932 23.6093L23.7367 23.5872L24.6364 20.8897C24.7529 20.5406 25.2469 20.5406 25.3634 20.8899Z" fill="#464655"/>
</g>
<defs>
<clipPath id="clip0_106_19307">
<rect width="50" height="50" fill="white"/>
</clipPath>
</defs>
</svg>
