<svg width="50" height="50" viewBox="0 0 50 50" fill="none" xmlns="http://www.w3.org/2000/svg">
<g clip-path="url(#clip0_106_19294)">
<path d="M49.1368 41.3796H0.861131C0.385058 41.3796 -0.000976562 40.9936 -0.000976562 40.5175V9.4832C-0.000976562 9.00713 0.385058 8.62109 0.861131 8.62109H49.1369C49.613 8.62109 49.999 9.00713 49.999 9.4832V40.5175C49.9989 40.9937 49.6129 41.3796 49.1368 41.3796Z" fill="#F5F5F5"/>
<path d="M49.1363 41.3798H0.860643C0.38457 41.3798 -0.00146484 40.9937 -0.00146484 40.5177V30.1729H49.9984V40.5177C49.9984 40.9938 49.6124 41.3798 49.1363 41.3798Z" fill="#FF4B55"/>
<path d="M34.4811 20.6897V18.9656H32.757V14.6553H33.619V12.9311H28.4467V14.6553H29.3087V18.9656H26.7225V12.9311H27.5845V11.207H22.4122V12.9311H23.2742V18.9656H20.6881V14.6553H21.5501V12.9311H16.3777V14.6553H17.2397V18.9656H15.5156V20.6897H16.3777V27.5863H15.5156V29.3104H34.4811V27.5863H33.619V20.6897H34.4811Z" fill="#FF4B55"/>
<path d="M26.7222 28.4477H23.2739V24.9995C23.2739 24.0473 24.0458 23.2754 24.998 23.2754C25.9503 23.2754 26.7222 24.0473 26.7222 24.9995V28.4477Z" fill="#464655"/>
<path d="M24.9978 16.3789C24.5218 16.3789 24.1357 16.7649 24.1357 17.241V19.8272H25.8599V17.241C25.86 16.7649 25.4739 16.3789 24.9978 16.3789Z" fill="#464655"/>
<path d="M31.0325 17.2412C30.5564 17.2412 30.1704 17.6272 30.1704 18.1033V19.8274H31.8945V18.1033C31.8946 17.6271 31.5088 17.2412 31.0325 17.2412Z" fill="#464655"/>
<path d="M18.9637 17.2412C18.4876 17.2412 18.1016 17.6272 18.1016 18.1033V19.8274H19.8257V18.1033C19.8258 17.6271 19.4397 17.2412 18.9637 17.2412Z" fill="#464655"/>
<path d="M31.895 28.448H28.4468V25.8618C28.4468 24.9096 29.2187 24.1377 30.1709 24.1377C31.1231 24.1377 31.895 24.9096 31.895 25.8618V28.448Z" fill="#464655"/>
<path d="M21.5498 28.448H18.1016V25.8618C18.1016 24.9096 18.8734 24.1377 19.8257 24.1377C20.7779 24.1377 21.5498 24.9096 21.5498 25.8618V28.448Z" fill="#464655"/>
<path d="M27.3698 31.4659C27.3698 31.3219 27.2978 31.1872 27.1779 31.1073L25.4302 29.9423V29.5773L26.916 28.8343C27.1291 28.7279 27.2152 28.4689 27.1088 28.256C27.0018 28.0426 26.7438 27.9568 26.5305 28.0633L24.9991 28.829L23.4678 28.0633C23.2556 27.9569 22.9959 28.0427 22.8895 28.2561C22.783 28.4692 22.8692 28.728 23.0822 28.8344L24.5681 29.5773V29.9423L22.8203 31.1075C22.7004 31.1874 22.6284 31.322 22.6284 31.466C22.6284 31.6099 22.7004 31.7447 22.8203 31.8246L24.5681 32.9898V36.6384H22.8439V37.2985C22.8439 37.5368 23.0367 37.7295 23.275 37.7295C23.4399 37.7295 23.5835 37.637 23.656 37.5005H24.5682V38.3626H23.6484C23.574 38.2338 23.4347 38.1471 23.2751 38.1471C23.0368 38.1471 22.844 38.3399 22.844 38.5782V39.2248H24.5682V39.6558C24.5682 39.8941 24.7609 40.0869 24.9992 40.0869C25.2375 40.0869 25.4303 39.8941 25.4303 39.6558V39.2248V36.6385V32.9899L27.178 31.8247C27.2978 31.7445 27.3698 31.6098 27.3698 31.4659ZM24.9991 32.2409L23.8365 31.4659L24.9991 30.691L26.1617 31.4659L24.9991 32.2409Z" fill="#FFE15A"/>
</g>
<defs>
<clipPath id="clip0_106_19294">
<rect width="50" height="50" fill="white"/>
</clipPath>
</defs>
</svg>
