<svg width="50" height="50" viewBox="0 0 50 50" fill="none" xmlns="http://www.w3.org/2000/svg">
<g clip-path="url(#clip0_106_19283)">
<path d="M49.9999 12.2607H0V15.9004H49.9999V12.2607Z" fill="#F5F5F5"/>
<path d="M49.9999 19.54H0V23.1797H49.9999V19.54Z" fill="#F5F5F5"/>
<path d="M49.9999 26.8203H0V30.46H49.9999V26.8203Z" fill="#F5F5F5"/>
<path d="M49.9999 30.46H0V34.0996H49.9999V30.46Z" fill="#41479B"/>
<path d="M49.9999 34.0996H0V37.7393H49.9999V34.0996Z" fill="#F5F5F5"/>
<path d="M0.862108 41.3792H49.1379C49.614 41.3792 50 40.9932 50 40.5171V37.7393H0V40.5171C0 40.9933 0.386034 41.3792 0.862108 41.3792Z" fill="#41479B"/>
<path d="M49.9999 12.261V9.4832C49.9999 9.00713 49.6139 8.62109 49.1378 8.62109H0.862108C0.386034 8.62119 0 9.00713 0 9.4832V15.9009V19.5406V26.8204H49.9999V23.1805H17.2414V19.5407H49.9999V15.9009H17.2414V12.261H49.9999Z" fill="#41479B"/>
<path d="M17.2414 15.9008H10.4406V8.62109H6.80077V15.9008H0V19.5406H6.80077V26.8203H10.4406V19.5406H17.2414V15.9008Z" fill="#F5F5F5"/>
</g>
<defs>
<clipPath id="clip0_106_19283">
<rect width="50" height="50" fill="white"/>
</clipPath>
</defs>
</svg>
