<svg width="50" height="50" viewBox="0 0 50 50" fill="none" xmlns="http://www.w3.org/2000/svg">
<g clip-path="url(#clip0_106_19277)">
<path d="M49.9994 24.9995H-0.000488281V9.48222C-0.000488281 9.00615 0.385546 8.62012 0.861619 8.62012H49.1374C49.6135 8.62012 49.9995 9.00615 49.9995 9.48222L49.9994 24.9995Z" fill="#F5F5F5"/>
<path d="M-0.00146484 25H49.9984V40.5173C49.9984 40.9933 49.6124 41.3794 49.1363 41.3794H0.860643C0.38457 41.3794 -0.00146484 40.9933 -0.00146484 40.5173V25Z" fill="#FF4B55"/>
<path d="M17.2396 13.793C11.0502 13.793 6.03271 18.8105 6.03271 24.9999H28.4464C28.4464 18.8105 23.4291 13.793 17.2396 13.793Z" fill="#FF4B55"/>
<path d="M17.2406 36.2069C23.43 36.2069 28.4475 31.1893 28.4475 25H6.03369C6.03369 31.1894 11.0513 36.2069 17.2406 36.2069Z" fill="#F5F5F5"/>
</g>
<defs>
<clipPath id="clip0_106_19277">
<rect width="50" height="50" fill="white"/>
</clipPath>
</defs>
</svg>
