<svg width="50" height="50" viewBox="0 0 50 50" fill="none" xmlns="http://www.w3.org/2000/svg">
<g clip-path="url(#clip0_106_19260)">
<path d="M49.1383 41.3796H0.862596C0.386523 41.3796 0.000488281 40.9936 0.000488281 40.5175V9.4832C0.000488281 9.00713 0.386523 8.62109 0.862596 8.62109H49.1384C49.6145 8.62109 50.0005 9.00713 50.0005 9.4832V40.5175C50.0004 40.9937 49.6144 41.3796 49.1383 41.3796Z" fill="#FF4B55"/>
<path d="M44.8279 13.793V36.2067H5.17285V13.793H44.8279Z" fill="#FFE15A"/>
<path d="M5.17285 13.793L25.0004 24.9998L5.17285 36.2066V13.793Z" fill="#73AF00"/>
<path d="M44.828 13.793L25.0005 24.9998L44.828 36.2066V13.793Z" fill="#73AF00"/>
<path d="M25.0005 28.4482C26.9049 28.4482 28.4487 26.9044 28.4487 25C28.4487 23.0956 26.9049 21.5518 25.0005 21.5518C23.0961 21.5518 21.5522 23.0956 21.5522 25C21.5522 26.9044 23.0961 28.4482 25.0005 28.4482Z" fill="#FF4B55"/>
<path d="M25.2193 22.4734L25.7586 24.0904L27.4631 24.1037C27.6838 24.1055 27.7753 24.387 27.5978 24.5182L26.2266 25.5308L26.7408 27.1559C26.8074 27.3664 26.5679 27.5404 26.3882 27.4121L25.0014 26.4208L23.6147 27.4121C23.4352 27.5404 23.1956 27.3664 23.2621 27.1559L23.7764 25.5308L22.4052 24.5182C22.2277 24.387 22.3192 24.1055 22.5399 24.1037L24.2444 24.0904L24.7837 22.4734C24.8532 22.2641 25.1494 22.2641 25.2193 22.4734Z" fill="#FFE15A"/>
<path d="M25.1294 9.76464L25.448 10.72L26.4552 10.7277C26.5855 10.7287 26.6396 10.8952 26.5347 10.9725L25.7244 11.5708L26.0282 12.531C26.0676 12.6554 25.926 12.7582 25.8199 12.6823L25.0007 12.097L24.1812 12.6826C24.0752 12.7585 23.9336 12.6555 23.9729 12.5313L24.2767 11.5711L23.4665 10.9728C23.3616 10.8954 23.4156 10.729 23.546 10.728L24.5531 10.7203L24.8718 9.76493C24.9131 9.64091 25.0881 9.64091 25.1294 9.76464Z" fill="#FFE15A"/>
<path d="M36.4709 9.76467L36.7895 10.72L37.7967 10.7278C37.927 10.7287 37.9811 10.8952 37.8762 10.9726L37.0659 11.5708L37.3697 12.5311C37.4091 12.6554 37.2675 12.7582 37.1614 12.6823L36.342 12.0967L35.5225 12.6823C35.4165 12.7582 35.2749 12.6553 35.3142 12.5311L35.6181 11.5708L34.8078 10.9726C34.7029 10.8951 34.7569 10.7287 34.8873 10.7278L35.8944 10.72L36.2131 9.76467C36.2547 9.64094 36.4296 9.64094 36.4709 9.76467Z" fill="#FFE15A"/>
<path d="M13.7883 9.76467L14.1069 10.72L15.114 10.7278C15.2444 10.7287 15.2985 10.8952 15.1935 10.9726L14.3833 11.5708L14.6871 12.5311C14.7264 12.6554 14.5848 12.7582 14.4788 12.6823L13.6594 12.0967L12.8399 12.6823C12.7339 12.7582 12.5923 12.6553 12.6316 12.5311L12.9354 11.5708L12.1252 10.9726C12.0203 10.8951 12.0743 10.7287 12.2047 10.7278L13.2118 10.72L13.5304 9.76467C13.5721 9.64094 13.7471 9.64094 13.7883 9.76467Z" fill="#FFE15A"/>
<path d="M25.1294 37.3036L25.448 38.259L26.4552 38.2667C26.5855 38.2677 26.6396 38.4342 26.5347 38.5115L25.7244 39.1098L26.0282 40.07C26.0676 40.1943 25.926 40.2972 25.8199 40.2213L25.0007 39.6359L24.1812 40.2216C24.0752 40.2975 23.9336 40.1945 23.9729 40.0703L24.2767 39.1101L23.4665 38.5118C23.3616 38.4344 23.4156 38.268 23.546 38.267L24.5531 38.2593L24.8718 37.3039C24.9131 37.18 25.0881 37.18 25.1294 37.3036Z" fill="#FFE15A"/>
<path d="M36.4709 37.3037L36.7895 38.259L37.7967 38.2667C37.927 38.2677 37.9811 38.4342 37.8762 38.5116L37.0659 39.1098L37.3697 40.0701C37.4091 40.1944 37.2675 40.2972 37.1614 40.2213L36.342 39.6357L35.5225 40.2213C35.4165 40.2972 35.2749 40.1943 35.3142 40.0701L35.6181 39.1098L34.8078 38.5116C34.7029 38.4341 34.7569 38.2677 34.8873 38.2667L35.8944 38.259L36.2131 37.3037C36.2547 37.18 36.4296 37.18 36.4709 37.3037Z" fill="#FFE15A"/>
<path d="M13.7883 37.3037L14.1069 38.259L15.114 38.2667C15.2444 38.2677 15.2985 38.4342 15.1935 38.5116L14.3833 39.1098L14.6871 40.0701C14.7264 40.1944 14.5848 40.2972 14.4788 40.2213L13.6594 39.6357L12.8399 40.2213C12.7339 40.2972 12.5923 40.1943 12.6316 40.0701L12.9354 39.1098L12.1252 38.5116C12.0203 38.4341 12.0743 38.2677 12.2047 38.2667L13.2118 38.259L13.5304 37.3037C13.5721 37.18 13.7471 37.18 13.7883 37.3037Z" fill="#FFE15A"/>
<path d="M11.5311 22.8447H9.37598V24.9999C9.37598 26.1902 10.3408 27.1551 11.5311 27.1551C12.7215 27.1551 13.6863 26.1902 13.6863 24.9999C13.6863 23.8096 12.7214 22.8447 11.5311 22.8447Z" fill="#FFE15A"/>
<path d="M13.6854 27.1552L12.5007 26.9255L11.5303 25L13.4558 25.9706L13.6854 27.1552Z" fill="#FF4B55"/>
</g>
<defs>
<clipPath id="clip0_106_19260">
<rect width="50" height="50" fill="white"/>
</clipPath>
</defs>
</svg>
