<svg width="50" height="50" viewBox="0 0 50 50" fill="none" xmlns="http://www.w3.org/2000/svg">
<g clip-path="url(#clip0_106_19246)">
<path d="M49.1373 41.3796H0.861619C0.385546 41.3796 -0.000488281 40.9936 -0.000488281 40.5175V9.4832C-0.000488281 9.00713 0.385546 8.62109 0.861619 8.62109H49.1374C49.6135 8.62109 49.9995 9.00713 49.9995 9.4832V40.5175C49.9994 40.9937 49.6134 41.3796 49.1373 41.3796Z" fill="#41479B"/>
<path d="M24.9995 16.3789C21.7232 18.1026 19.5137 22.208 19.5137 24.9996C19.5137 27.7912 21.7232 31.8967 24.9995 33.6203C28.2758 31.8966 30.4853 27.7912 30.4853 24.9996C30.4853 22.208 28.2759 18.1026 24.9995 16.3789Z" fill="#3CC8FF"/>
<path d="M25.7067 22.0477C26.236 21.7687 27.1397 21.4617 28.1666 21.8386C28.1666 21.8386 27.1776 20.7369 25.8052 21.6345C26.1744 21.1867 26.7289 20.6324 27.3294 20.478C27.3294 20.478 26.1344 20.0317 25.4113 21.6254C25.5514 20.8216 25.5259 19.556 24.2303 18.8213C24.2303 18.8213 24.9547 20.3759 25.0259 21.6659C24.9838 21.437 24.8995 21.1977 24.677 20.9657C23.992 20.251 23.3964 20.1914 23.3964 20.1914C23.3964 20.1914 24.3462 21.2439 24.8129 22.2397C24.544 21.9181 24.0702 21.5061 23.307 21.5315C21.5199 21.5911 21.1328 22.6633 21.1328 22.6633C21.8736 22.3514 23.0493 22.196 23.9607 22.273C22.7841 22.4804 22.366 23.9463 22.366 23.9463C23.3108 22.7682 24.3421 22.5768 24.7538 22.5487C24.0017 23.1709 24.0475 24.3167 24.0475 24.3167C24.2223 23.6717 24.8994 22.9365 25.2294 22.607C26.1179 23.5683 26.223 24.6487 26.223 24.6487C26.223 24.6487 26.4175 24.3236 26.3278 23.662C26.2431 23.0374 25.8511 22.6273 25.5519 22.3864C27.1207 22.6026 28.1443 23.7405 28.1443 23.7405C27.6311 22.2433 26.3467 22.0482 25.7067 22.0477Z" fill="#73AF00"/>
<path d="M48.2752 10.3452V39.6554H1.72363V10.3452H48.2752ZM49.1373 8.62109H0.861619C0.385546 8.62109 -0.000488281 9.00713 -0.000488281 9.4832V40.5175C-0.000488281 40.9936 0.385546 41.3796 0.861619 41.3796H49.1374C49.6135 41.3796 49.9995 40.9936 49.9995 40.5175V9.4832C49.9994 9.00713 49.6134 8.62109 49.1373 8.62109Z" fill="#FF4B55"/>
<path d="M23.248 27.0839L24.0384 25.7188L30.5308 25.5752L30.0998 27.3711L23.248 27.0839Z" fill="#FF965A"/>
<path d="M19.75 26.7236C20.4008 29.2776 22.3507 32.2268 24.999 33.6202C27.6474 32.2268 29.5972 29.2776 30.248 26.7236H19.75Z" fill="#4173CD"/>
<path d="M20.6895 29.3104C20.6895 29.3104 22.5698 29.2173 23.6995 29.6812C23.9817 29.797 24.0183 30.1782 23.7634 30.3459C23.2131 30.708 22.4136 31.3313 22.4136 31.8966L20.6895 29.3104Z" fill="#FFE15A"/>
<path d="M23.9943 32.7587C23.9224 32.0402 24.5581 31.5178 25.431 31.1782C26.5625 30.7383 25.9428 30.0378 25.3771 29.5799C24.7024 29.0338 25.5747 28.8795 29.2384 28.8076L27.4424 31.6094L25 33.6209L23.9943 32.7587Z" fill="#FFE15A"/>
<path d="M24.9996 34.1078L24.7988 34.0017C21.3797 32.2035 19.0825 27.8949 19.0825 24.9997C19.0825 22.1046 21.3795 17.7958 24.7988 15.9977L24.9996 15.8916L25.2004 15.9977C28.6196 17.7959 30.9166 22.1045 30.9166 24.9997C30.9166 27.8948 28.6196 32.2036 25.2004 34.0017L24.9996 34.1078ZM24.9996 16.8698C21.9668 18.5822 19.9446 22.4127 19.9446 24.9996C19.9446 27.5865 21.9668 31.4172 24.9996 33.1294C28.0324 31.417 30.0546 27.5865 30.0546 24.9996C30.0546 22.4127 28.0325 18.5821 24.9996 16.8698Z" fill="#FF4B55"/>
<path d="M26.8313 29.9202C26.7917 29.9202 26.7521 29.9097 26.7167 29.8873C25.5452 29.1511 24.8735 27.9324 24.8735 26.5438V22.5749C24.8735 22.4559 24.97 22.3594 25.0891 22.3594C25.2081 22.3594 25.3046 22.4559 25.3046 22.5749V26.5438C25.3046 27.7809 25.9027 28.8666 26.9457 29.522C27.0468 29.5855 27.0771 29.7185 27.0139 29.8191C26.9728 29.8845 26.9028 29.9202 26.8313 29.9202Z" fill="#A54B37"/>
<path d="M25.0882 23.0602C25.3486 23.0602 25.5597 22.8491 25.5597 22.5887C25.5597 22.3283 25.3486 22.1172 25.0882 22.1172C24.8278 22.1172 24.6167 22.3283 24.6167 22.5887C24.6167 22.8491 24.8278 23.0602 25.0882 23.0602Z" fill="#A54B37"/>
</g>
<defs>
<clipPath id="clip0_106_19246">
<rect width="50" height="50" fill="white"/>
</clipPath>
</defs>
</svg>
