<svg width="50" height="50" viewBox="0 0 50 50" fill="none" xmlns="http://www.w3.org/2000/svg">
<g clip-path="url(#clip0_106_19167)">
<path d="M49.1373 41.3796H0.861619C0.385546 41.3796 -0.000488281 40.9936 -0.000488281 40.5175V9.4832C-0.000488281 9.00713 0.385546 8.62109 0.861619 8.62109H49.1374C49.6135 8.62109 49.9995 9.00713 49.9995 9.4832V40.5175C49.9994 40.9937 49.6134 41.3796 49.1373 41.3796Z" fill="#F5F5F5"/>
<path d="M49.9994 21.5521H28.4477V8.62109H21.5511V21.5521H-0.000488281V28.4486H21.5511V41.3796H28.4477V28.4486H49.9994V21.5521Z" fill="#FF4B55"/>
<path d="M35.3428 27.5865V22.4141L34.0498 23.7072H15.9464L14.6533 22.4141V27.5865L15.9464 26.2934H34.0498L35.3428 27.5865Z" fill="#FFE15A"/>
<path d="M22.4121 35.3449H27.5845L26.2914 34.0517V15.9484L27.5845 14.6553H22.4121L23.7052 15.9484V34.0517L22.4121 35.3449Z" fill="#FFE15A"/>
</g>
<defs>
<clipPath id="clip0_106_19167">
<rect width="50" height="50" fill="white"/>
</clipPath>
</defs>
</svg>
