<svg width="50" height="50" viewBox="0 0 50 50" fill="none" xmlns="http://www.w3.org/2000/svg">
<g clip-path="url(#clip0_106_19158)">
<path d="M50.0009 25.0005H0.000976562V9.4832C0.000976562 9.00713 0.387011 8.62109 0.863084 8.62109H49.1389C49.6149 8.62109 50.001 9.00713 50.001 9.4832L50.0009 25.0005Z" fill="#FFE15A"/>
<path d="M0.000976562 25H50.0009V40.5173C50.0009 40.9933 49.6148 41.3794 49.1388 41.3794H0.863084C0.387011 41.3794 0.000976562 40.9933 0.000976562 40.5173V25Z" fill="#73AF00"/>
<path d="M16.3802 8.62119V41.3797H0.863084C0.387011 41.3797 0.000976562 40.9937 0.000976562 40.5176V9.4832C0.000976562 9.00713 0.387011 8.62109 0.863084 8.62109H16.3802V8.62119Z" fill="#FF4B55"/>
<path d="M8.02778 20.6991L7.07749 23.5487L4.07369 23.572C3.90904 23.5732 3.84068 23.7834 3.9733 23.8812L6.3897 25.6656L5.48365 28.5295C5.43394 28.6865 5.61275 28.8163 5.74673 28.7207L8.19048 26.974L10.6342 28.7208C10.7682 28.8166 10.9469 28.6866 10.8973 28.5297L9.99126 25.6658L12.4077 23.8814C12.5401 23.7836 12.4719 23.5734 12.3073 23.5722L9.30347 23.5489L8.35317 20.6993C8.30083 20.543 8.07993 20.543 8.02778 20.6991Z" fill="#464655"/>
</g>
<defs>
<clipPath id="clip0_106_19158">
<rect width="50" height="50" fill="white"/>
</clipPath>
</defs>
</svg>
