<svg width="50" height="50" viewBox="0 0 50 50" fill="none" xmlns="http://www.w3.org/2000/svg">
<g clip-path="url(#clip0_106_19137)">
<path d="M49.9989 12.716H-0.000976562V9.4832C-0.000976562 9.00713 0.385058 8.62109 0.861131 8.62109H49.1369C49.613 8.62109 49.999 9.00713 49.999 9.4832L49.9989 12.716Z" fill="#F5F5F5"/>
<path d="M49.9989 12.7158H-0.000976562V16.8106H49.9989V12.7158Z" fill="#FF4B55"/>
<path d="M49.9989 16.8105H-0.000976562V20.9054H49.9989V16.8105Z" fill="#41479B"/>
<path d="M49.9989 20.9053H-0.000976562V25.0001H49.9989V20.9053Z" fill="#F5F5F5"/>
<path d="M49.9989 29.0946H-0.000976562V24.1377H1.07656V24.9998H49.9989V29.0946Z" fill="#FF4B55"/>
<path d="M49.9989 33.1895H-0.000976562V37.2843H49.9989V33.1895Z" fill="#F5F5F5"/>
<path d="M49.1368 41.379H0.861131C0.385058 41.379 -0.000976562 40.993 -0.000976562 40.5169V37.2842H49.9989V40.5169C49.9989 40.9931 49.6129 41.379 49.1368 41.379Z" fill="#FF4B55"/>
<path d="M49.9984 29.0947H-0.00146484V33.1895H49.9984V29.0947Z" fill="#41479B"/>
<path d="M24.1364 25.0005H0.860643C0.38457 25.0005 -0.00146484 24.6144 -0.00146484 24.1383V9.4832C-0.00146484 9.00713 0.38457 8.62109 0.860643 8.62109H24.1365C24.6125 8.62109 24.9986 9.00713 24.9986 9.4832V24.1383C24.9985 24.6144 24.6125 25.0005 24.1364 25.0005Z" fill="#41479B"/>
<path d="M24.1369 8.62109H22.6394L14.6541 13.8529V8.62109H10.3437V13.8529L2.35839 8.62109H0.861131C0.385058 8.62109 -0.000976562 9.00703 -0.000976562 9.4831V10.1669L6.85008 14.6555H-0.000976562V18.9658H6.85008L-0.000976562 23.4545V24.1383C-0.000976562 24.6143 0.385058 25.0004 0.861131 25.0004H2.35859L10.3439 19.7685V25.0004H14.6543V19.7685L22.6395 25.0004H24.137C24.613 25.0004 24.9991 24.6143 24.9991 24.1383V23.4545L18.148 18.9659H24.999V14.6556H18.1479L24.999 10.167V9.4832C24.999 9.00703 24.6129 8.62109 24.1369 8.62109Z" fill="#F5F5F5"/>
<path d="M24.9985 15.5177H13.7916V8.62109H11.2054V15.5177H-0.00146484V18.1038H11.2054V25.0004H13.7916V18.1038H24.9985V15.5177Z" fill="#FF4B55"/>
<path d="M9.48123 14.6554L0.409374 8.7666C0.167968 8.91934 -0.00146484 9.17607 -0.00146484 9.48291V9.52764L7.89784 14.6554H9.48123Z" fill="#FF4B55"/>
<path d="M16.2372 14.6556L24.8675 9.05342C24.7175 8.79961 24.4528 8.62109 24.1365 8.62109H23.9501L14.6538 14.6556H16.2372Z" fill="#FF4B55"/>
<path d="M8.73631 18.9658L0.122559 24.5572C0.271093 24.8172 0.539843 25.0003 0.860741 25.0003H1.02334L10.3198 18.9658H8.73631Z" fill="#FF4B55"/>
<path d="M24.9848 24.2059L16.912 18.9658H15.3286L24.496 24.9165C24.7706 24.7891 24.959 24.522 24.9848 24.2059Z" fill="#FF4B55"/>
</g>
<defs>
<clipPath id="clip0_106_19137">
<rect width="50" height="50" fill="white"/>
</clipPath>
</defs>
</svg>
