<svg width="50" height="50" viewBox="0 0 50 50" fill="none" xmlns="http://www.w3.org/2000/svg">
<g clip-path="url(#clip0_106_19126)">
<path d="M49.9999 19.5407H0V9.4832C0 9.00713 0.386034 8.62109 0.862108 8.62109H49.1379C49.614 8.62109 50 9.00713 50 9.4832L49.9999 19.5407Z" fill="#4173CD"/>
<path d="M49.1378 41.3795H0.862108C0.386034 41.3795 0 40.9934 0 40.5174V30.46H49.9999V40.5174C49.9999 40.9935 49.6139 41.3795 49.1378 41.3795Z" fill="#4173CD"/>
<path d="M49.9999 19.54H0V30.459H49.9999V19.54Z" fill="#F5F5F5"/>
<path d="M25.1246 23.5918L25.4331 24.5169L26.4082 24.5244C26.5345 24.5254 26.5867 24.6865 26.4853 24.7615L25.7008 25.3408L25.9949 26.2706C26.0329 26.391 25.896 26.4905 25.7932 26.4171L24.9999 25.8501L24.2066 26.417C24.1038 26.4904 23.9668 26.3909 24.0048 26.2705L24.299 25.3407L23.5145 24.7614C23.413 24.6864 23.4653 24.5253 23.5915 24.5243L24.5666 24.5168L24.8751 23.5917C24.9153 23.472 25.0846 23.472 25.1246 23.5918Z" fill="#4173CD"/>
<path d="M16.3186 26.0751L16.6271 27.0002L17.6022 27.0078C17.7284 27.0087 17.7807 27.1699 17.6792 27.2449L16.8948 27.8242L17.1889 28.7539C17.227 28.8744 17.09 28.9739 16.9871 28.9005L16.1938 28.3335L15.4004 28.9005C15.2977 28.9739 15.1607 28.8744 15.1987 28.7539L15.4928 27.8242L14.7083 27.2449C14.6069 27.1699 14.6591 27.0087 14.7854 27.0078L15.7605 27.0002L16.069 26.0751C16.1092 25.9554 16.2786 25.9554 16.3186 26.0751Z" fill="#4173CD"/>
<path d="M16.3191 21.1093L16.6276 22.0343L17.6027 22.0419C17.7289 22.0428 17.7812 22.204 17.6797 22.279L16.8952 22.8583L17.1894 23.7881C17.2275 23.9085 17.0905 24.008 16.9876 23.9346L16.1943 23.3676L15.4009 23.9346C15.2982 24.008 15.1612 23.9085 15.1991 23.7881L15.4933 22.8583L14.7088 22.279C14.6074 22.204 14.6596 22.0428 14.7859 22.0419L15.761 22.0343L16.0695 21.1093C16.1097 20.9896 16.2791 20.9896 16.3191 21.1093Z" fill="#4173CD"/>
<path d="M33.9305 26.0751L34.239 27.0002L35.2141 27.0078C35.3403 27.0087 35.3926 27.1699 35.2911 27.2449L34.5067 27.8242L34.8008 28.7539C34.8389 28.8744 34.7019 28.9739 34.599 28.9005L33.8057 28.3335L33.0123 28.9005C32.9096 28.9739 32.7726 28.8744 32.8106 28.7539L33.1047 27.8242L32.3202 27.2449C32.2186 27.1699 32.271 27.0087 32.3973 27.0078L33.3724 27.0002L33.6809 26.0751C33.7211 25.9554 33.8905 25.9554 33.9305 26.0751Z" fill="#4173CD"/>
<path d="M33.9305 21.1093L34.239 22.0343L35.2141 22.0419C35.3403 22.0428 35.3926 22.204 35.2911 22.279L34.5067 22.8583L34.8008 23.7881C34.8389 23.9085 34.7019 24.008 34.599 23.9346L33.8057 23.3676L33.0123 23.9346C32.9096 24.008 32.7726 23.9085 32.8106 23.7881L33.1047 22.8583L32.3202 22.279C32.2186 22.204 32.271 22.0428 32.3973 22.0419L33.3724 22.0343L33.6809 21.1093C33.7211 20.9896 33.8905 20.9896 33.9305 21.1093Z" fill="#4173CD"/>
</g>
<defs>
<clipPath id="clip0_106_19126">
<rect width="50" height="50" fill="white"/>
</clipPath>
</defs>
</svg>
