<svg width="50" height="50" viewBox="0 0 50 50" fill="none" xmlns="http://www.w3.org/2000/svg">
<g clip-path="url(#clip0_106_19118)">
<path d="M49.1371 41.3797H0.861375C0.385302 41.3797 -0.000732422 40.9937 -0.000732422 40.5176V9.4832C-0.000732422 9.00713 0.385302 8.62109 0.861375 8.62109H49.1372C49.6132 8.62109 49.9993 9.00713 49.9993 9.4832V40.5176C49.9992 40.9938 49.6131 41.3797 49.1371 41.3797Z" fill="#FF4B55"/>
<path d="M21.9203 26.2615C20.8335 26.2728 19.6132 25.9247 18.544 24.7461C18.4703 24.6649 18.4806 24.5368 18.5644 24.4658L18.5647 24.4655C18.6459 24.3967 18.7661 24.4073 18.8378 24.4862C20.4677 26.2759 22.4878 25.9625 23.6948 25.5301C23.2489 25.5499 22.6886 25.5164 22.3283 25.2796C20.8229 24.2901 21.5047 23.2373 20.5049 21.9648C19.5115 20.7003 18.6175 20.7313 17.2099 20.9447C15.8164 21.1558 15.3724 20.1336 15.2342 19.5663C15.2095 19.4647 15.0677 19.4583 15.0314 19.5563C13.2945 24.249 18.5171 30.0557 23.8791 25.8806C23.35 26.0754 22.6686 26.2539 21.9203 26.2615ZM18.0075 24.6691C17.977 24.7528 17.8574 24.7495 17.8315 24.6642L17.6315 24.0051L16.9431 23.981C16.854 23.9779 16.8202 23.8631 16.8933 23.8121L17.4584 23.4183L17.2686 22.7561C17.244 22.6704 17.3427 22.6028 17.4138 22.6565L17.963 23.0721L18.5341 22.6869C18.6081 22.637 18.703 22.71 18.6737 22.7943L18.4481 23.445L18.9909 23.8692C19.0611 23.9241 19.021 24.0368 18.9319 24.0351L18.2432 24.0216L18.0075 24.6691Z" fill="#F5F5F5"/>
<path d="M25.7669 23.1435C26.6298 22.4828 27.815 22.0295 29.3775 22.3313C29.4852 22.3521 29.5537 22.4606 29.5293 22.5677L29.5292 22.5681C29.5055 22.672 29.403 22.7355 29.2983 22.7153C26.9207 22.2606 25.492 23.7229 24.7857 24.7927C25.1306 24.5094 25.5991 24.2002 26.0294 24.1737C27.8275 24.0627 27.9131 25.3142 29.4765 25.7328C31.0297 26.1487 31.7265 25.588 32.7251 24.573C33.7136 23.5683 34.682 24.12 35.1326 24.4911C35.2133 24.5576 35.3306 24.4777 35.3009 24.3775C33.8765 19.5807 26.2148 18.0663 24.428 24.6229C24.7343 24.15 25.1727 23.5984 25.7669 23.1435ZM29.8531 22.0713C29.8272 21.9859 29.9249 21.9168 29.9968 21.9695L30.5521 22.377L31.1174 21.9834C31.1906 21.9324 31.2865 22.004 31.2586 22.0887L31.0427 22.7428L31.5916 23.1588C31.6627 23.2127 31.6243 23.3261 31.5352 23.3256L30.8464 23.3224L30.6204 23.973C30.5911 24.0573 30.4715 24.0558 30.4444 23.9709L30.2346 23.3148L29.5459 23.301C29.4568 23.2991 29.4212 23.185 29.4937 23.1329L30.0529 22.7307L29.8531 22.0713Z" fill="#F5F5F5"/>
<path d="M22.8893 23.5961C22.4654 22.5953 22.3229 21.3344 23.006 19.8971C23.053 19.798 23.1754 19.7589 23.2729 19.8093L23.2732 19.8095C23.3679 19.8585 23.4036 19.9737 23.3582 20.07C22.3232 22.2583 23.3817 24.0073 24.2408 24.9587C24.0527 24.5539 23.8707 24.0231 23.9525 23.5997C24.2948 21.831 25.5278 22.061 26.3242 20.652C27.1155 19.2521 26.7468 18.4373 26.0139 17.2167C25.2883 16.0083 26.0647 15.2088 26.5368 14.8652C26.6213 14.8037 26.5733 14.6702 26.4689 14.6739C21.4683 14.8533 18.0857 21.8926 23.9869 25.2626C23.6056 24.8475 23.1812 24.2852 22.8893 23.5961ZM22.8731 19.3716C22.784 19.3754 22.7416 19.2634 22.8106 19.2071L23.344 18.7714L23.1044 18.1256C23.0733 18.042 23.1667 17.967 23.2416 18.0152L23.8209 18.3879L24.3609 17.9604C24.4309 17.905 24.531 17.9706 24.5082 18.0569L24.3328 18.7229L24.9062 19.1045C24.9804 19.1539 24.949 19.2693 24.8601 19.2744L24.1724 19.3133L23.9867 19.9766C23.9627 20.0625 23.8432 20.0683 23.8108 19.9852L23.5612 19.3433L22.8731 19.3716Z" fill="#F5F5F5"/>
<path d="M26.7855 25.8665C27.6838 26.4782 28.4865 27.4611 28.6906 29.0393C28.7048 29.1482 28.623 29.2473 28.5138 29.2577H28.5132C28.4071 29.2679 28.3146 29.1903 28.3008 29.0848C27.9858 26.6847 26.1487 25.7876 24.9111 25.4529C25.2884 25.6914 25.729 26.0391 25.8895 26.4394C26.5596 28.1115 25.3984 28.5861 25.4919 30.2018C25.5848 31.807 26.3362 32.2924 27.6134 32.9217C28.8777 33.5446 28.6581 34.6371 28.4472 35.1817C28.4095 35.2793 28.5221 35.3654 28.6078 35.3058C32.7144 32.4468 31.7459 24.6973 24.9599 25.0602C25.5059 25.2025 26.1671 25.4453 26.7855 25.8665ZM29.087 29.4091C29.16 29.3577 29.2561 29.4288 29.2287 29.5136L29.0163 30.1688L29.5675 30.5819C29.6388 30.6354 29.6011 30.7489 29.5119 30.749L28.8231 30.7494L28.6006 31.4013C28.5718 31.4857 28.452 31.4848 28.4245 31.4L28.2112 30.745L27.5226 30.7348C27.4333 30.7335 27.3973 30.6193 27.4693 30.5669L28.0264 30.1616L27.8232 29.5034C27.797 29.4182 27.8942 29.3485 27.9664 29.401L28.5239 29.8055L29.087 29.4091Z" fill="#F5F5F5"/>
<path d="M24.5389 27.814C24.2295 28.8558 23.5376 29.9194 22.0963 30.5941C21.9968 30.6407 21.8776 30.5931 21.8344 30.4922L21.8342 30.4918C21.7923 30.3938 21.838 30.2822 21.9343 30.2368C24.1248 29.2064 24.4204 27.1836 24.3626 25.9028C24.2502 26.3349 24.0531 26.8603 23.7207 27.135C22.3317 28.2821 21.5263 27.3204 20.0157 27.9012C18.5147 28.4781 18.281 29.3416 18.0702 30.7497C17.8616 32.1436 16.7539 32.2668 16.1711 32.2317C16.0668 32.2255 16.0188 32.359 16.1017 32.4226C20.0748 35.4645 27.1621 32.1839 24.7515 25.8301C24.7822 26.3928 24.752 27.0965 24.5389 27.814ZM21.8645 31.0841C21.9356 31.138 21.8972 31.2512 21.8081 31.2509L21.1194 31.2478L20.8936 31.8986C20.8644 31.9829 20.7447 31.9813 20.7175 31.8965L20.5075 31.2404L19.8188 31.2268C19.7297 31.225 19.694 31.1107 19.7665 31.0587L20.3255 30.6562L20.1256 29.9971C20.0998 29.9117 20.1974 29.8426 20.2693 29.8953L20.8248 30.3025L21.39 29.9088C21.4631 29.8578 21.559 29.9294 21.5312 30.0141L21.3156 30.6682L21.8645 31.0841Z" fill="#F5F5F5"/>
</g>
<defs>
<clipPath id="clip0_106_19118">
<rect width="50" height="50" fill="white"/>
</clipPath>
</defs>
</svg>
