<svg width="50" height="50" viewBox="0 0 50 50" fill="none" xmlns="http://www.w3.org/2000/svg">
<g clip-path="url(#clip0_106_19110)">
<path d="M49.1373 41.3797H0.861619C0.385546 41.3797 -0.000488281 40.9937 -0.000488281 40.5176V9.4832C-0.000488281 9.00713 0.385546 8.62109 0.861619 8.62109H49.1374C49.6135 8.62109 49.9995 9.00713 49.9995 9.4832V40.5176C49.9994 40.9938 49.6134 41.3797 49.1373 41.3797Z" fill="#41479B"/>
<path d="M49.9994 20.69H22.4132V8.62109H13.7926V20.69H-0.000488281V29.3107H13.7926V41.3796H22.4132V29.3107H49.9994V20.69Z" fill="#F5F5F5"/>
<path d="M49.9994 22.4141H20.6891V8.62109H15.5168V22.4141H-0.000488281V27.5866H15.5168V41.3796H20.6891V27.5866H49.9994V22.4141Z" fill="#FF4B55"/>
</g>
<defs>
<clipPath id="clip0_106_19110">
<rect width="50" height="50" fill="white"/>
</clipPath>
</defs>
</svg>
