<svg width="50" height="50" viewBox="0 0 50 50" fill="none" xmlns="http://www.w3.org/2000/svg">
<g clip-path="url(#clip0_106_19085)">
<path d="M50.0004 19.5407H0.000488281V9.4832C0.000488281 9.00713 0.386523 8.62109 0.862596 8.62109H49.1384C49.6145 8.62109 50.0005 9.00713 50.0005 9.4832L50.0004 19.5407Z" fill="#FAB446"/>
<path d="M49.1383 41.3795H0.862596C0.386523 41.3795 0.000488281 40.9934 0.000488281 40.5174V30.46H50.0004V40.5174C50.0004 40.9935 49.6144 41.3795 49.1383 41.3795Z" fill="#73AF00"/>
<path d="M50.0004 19.54H0.000488281V30.459H50.0004V19.54Z" fill="#F5F5F5"/>
<path d="M25.0003 29.6334C22.4452 29.6334 20.3667 27.5549 20.3667 24.9998C20.3667 22.4447 22.4452 20.3662 25.0003 20.3662C27.5554 20.3662 29.6339 22.4447 29.6339 24.9998C29.6339 27.5549 27.5554 29.6334 25.0003 29.6334ZM25.0003 21.2282C22.9204 21.2282 21.2287 22.9199 21.2287 24.9998C21.2287 27.0797 22.9204 28.7714 25.0003 28.7714C27.0802 28.7714 28.7719 27.0797 28.7719 24.9998C28.7719 22.9199 27.0802 21.2282 25.0003 21.2282Z" fill="#41479B"/>
<path d="M25.0004 25.5252C25.2905 25.5252 25.5257 25.29 25.5257 24.9999C25.5257 24.7098 25.2905 24.4746 25.0004 24.4746C24.7103 24.4746 24.4751 24.7098 24.4751 24.9999C24.4751 25.29 24.7103 25.5252 25.0004 25.5252Z" fill="#41479B"/>
<path d="M25.0009 25.0785L23.6659 25.2133L20.7983 25.0785V24.9209L23.6659 24.7861L25.0009 24.9209V25.0785Z" fill="#41479B"/>
<path d="M25.0007 25.0785L26.3357 25.2133L29.2033 25.0785V24.9209L26.3357 24.7861L25.0007 24.9209V25.0785Z" fill="#41479B"/>
<path d="M24.9216 25.0004L24.7869 23.6654L24.9216 20.7979H25.0792L25.214 23.6654L25.0792 25.0004H24.9216Z" fill="#41479B"/>
<path d="M24.9216 25L24.7869 26.335L24.9216 29.2025H25.0792L25.214 26.335L25.0792 25H24.9216Z" fill="#41479B"/>
<path d="M24.9448 25.0557L23.9056 24.2071L21.9731 22.0841L22.0846 21.9727L24.2076 23.9051L25.0561 24.9443L24.9448 25.0557Z" fill="#41479B"/>
<path d="M24.9451 25.0557L25.7936 26.0949L27.9166 28.0273L28.0281 27.9159L26.0957 25.7929L25.0564 24.9443L24.9451 25.0557Z" fill="#41479B"/>
<path d="M24.9451 24.9443L25.7936 23.9051L27.9166 21.9727L28.0281 22.0841L26.0957 24.2071L25.0564 25.0557L24.9451 24.9443Z" fill="#41479B"/>
<path d="M24.9448 24.9443L23.9056 25.7929L21.9731 27.9159L22.0846 28.0273L24.2076 26.0949L25.0561 25.0557L24.9448 24.9443Z" fill="#41479B"/>
<path d="M25.0306 25.0725L23.8488 25.7078L21.148 26.6807L21.0876 26.5351L23.6854 25.3132L24.9703 24.9268L25.0306 25.0725Z" fill="#41479B"/>
<path d="M25.0306 25.0723L26.3154 24.6858L28.9132 23.464L28.8528 23.3184L26.152 24.2912L24.9702 24.9266L25.0306 25.0723Z" fill="#41479B"/>
<path d="M24.9275 25.0299L24.2922 23.848L23.3193 21.1473L23.4649 21.0869L24.6868 23.6847L25.0732 24.9695L24.9275 25.0299Z" fill="#41479B"/>
<path d="M24.9275 25.0301L25.3139 26.3149L26.5358 28.9127L26.6814 28.8523L25.7085 26.1516L25.0732 24.9697L24.9275 25.0301Z" fill="#41479B"/>
<path d="M24.9703 25.0723L23.6854 24.6858L21.0876 23.464L21.148 23.3184L23.8488 24.2912L25.0306 24.9266L24.9703 25.0723Z" fill="#41479B"/>
<path d="M24.9702 25.0725L26.152 25.7078L28.8528 26.6807L28.9132 26.5351L26.3154 25.3132L25.0306 24.9268L24.9702 25.0725Z" fill="#41479B"/>
<path d="M24.9275 24.9695L25.3139 23.6847L26.5358 21.0869L26.6814 21.1473L25.7085 23.848L25.0732 25.0299L24.9275 24.9695Z" fill="#41479B"/>
<path d="M24.9275 24.9697L24.2922 26.1516L23.3193 28.8523L23.4649 28.9127L24.6868 26.3149L25.0732 25.0301L24.9275 24.9697Z" fill="#41479B"/>
<path d="M25.0006 25.7092C25.3919 25.7092 25.7092 25.3919 25.7092 25.0006C25.7092 24.6092 25.3919 24.292 25.0006 24.292C24.6092 24.292 24.292 24.6092 24.292 25.0006C24.292 25.3919 24.6092 25.7092 25.0006 25.7092Z" fill="#F5F5F5"/>
<path d="M25.0006 25.425C25.2353 25.425 25.4255 25.2348 25.4255 25.0001C25.4255 24.7654 25.2353 24.5752 25.0006 24.5752C24.7659 24.5752 24.5757 24.7654 24.5757 25.0001C24.5757 25.2348 24.7659 25.425 25.0006 25.425Z" fill="#41479B"/>
</g>
<defs>
<clipPath id="clip0_106_19085">
<rect width="50" height="50" fill="white"/>
</clipPath>
</defs>
</svg>
