<svg width="50" height="50" viewBox="0 0 50 50" fill="none" xmlns="http://www.w3.org/2000/svg">
<g clip-path="url(#clip0_106_19036)">
<path d="M50.0009 19.5406H0.000976562V9.4832C0.000976562 9.00713 0.387011 8.62109 0.863084 8.62109H49.1389C49.6149 8.62109 50.001 9.00713 50.001 9.4832L50.0009 19.5406Z" fill="#73AF00"/>
<path d="M49.1388 41.3795H0.863084C0.387011 41.3795 0.000976562 40.9934 0.000976562 40.5174V30.46H50.0009V40.5174C50.0009 40.9934 49.6148 41.3795 49.1388 41.3795Z" fill="#FF4B55"/>
<path d="M50.0019 19.54H0.00195312V30.459H50.0019V19.54Z" fill="#F5F5F5"/>
<path d="M0.136621 18.9624H0.14414C0.219043 18.9624 0.279785 18.9018 0.279785 18.8268V18.533C0.279785 18.4581 0.340429 18.3974 0.415429 18.3974H0.984471C1.05937 18.3974 1.12012 18.458 1.12012 18.533V18.8268C1.12012 18.9017 1.18076 18.9624 1.25576 18.9624H2.379C2.4539 18.9624 2.51464 18.9018 2.51464 18.8268V18.2469C2.51464 18.172 2.454 18.1112 2.379 18.1112H1.81357C1.73867 18.1112 1.67793 18.1719 1.67793 18.2469V18.2617C1.67793 18.3366 1.73857 18.3974 1.81357 18.3974H2.10019C2.17509 18.3974 2.23584 18.458 2.23584 18.533V18.5478C2.23584 18.6227 2.17519 18.6834 2.10019 18.6834H1.53457C1.45967 18.6834 1.39892 18.6228 1.39892 18.5478V18.2469C1.39892 18.172 1.33828 18.1112 1.26328 18.1112H0.136621C0.0617186 18.1112 0.000976562 18.1719 0.000976562 18.2469V18.8268C0.000976562 18.9016 0.061621 18.9624 0.136621 18.9624ZM0.697948 18.9624H0.705663C0.780565 18.9624 0.841307 18.9018 0.841307 18.8268V18.819C0.841307 18.7441 0.780663 18.6834 0.705663 18.6834H0.697948C0.623046 18.6834 0.562304 18.744 0.562304 18.819V18.8268C0.562304 18.9016 0.623046 18.9624 0.697948 18.9624ZM0.136621 17.8252H3.49824C3.57314 17.8252 3.63388 17.7646 3.63388 17.6896V17.6747C3.63388 17.5998 3.57324 17.5391 3.49824 17.5391H0.136621C0.0617186 17.5391 0.000976562 17.5997 0.000976562 17.6747V17.6896C0.000976562 17.7646 0.061621 17.8252 0.136621 17.8252ZM3.49814 18.9624H2.93271C2.85781 18.9624 2.79707 18.9018 2.79707 18.8268V18.2469C2.79707 18.172 2.85771 18.1112 2.93271 18.1112H3.77724C3.85214 18.1112 3.91288 18.0506 3.91288 17.9756V17.6747C3.91288 17.5998 3.97353 17.5391 4.04853 17.5391H4.05605C4.13095 17.5391 4.19169 17.5997 4.19169 17.6747V18.5478C4.19169 18.6227 4.25234 18.6834 4.32734 18.6834H4.33505C4.40995 18.6834 4.4707 18.6228 4.4707 18.5478V17.6747C4.4707 17.5998 4.53134 17.5391 4.60634 17.5391H4.61386C4.68876 17.5391 4.7495 17.5997 4.7495 17.6747V18.5478C4.7495 18.6227 4.81015 18.6834 4.88515 18.6834H4.89638C4.97128 18.6834 5.03202 18.6228 5.03202 18.5478V17.6747C5.03202 17.5998 5.09267 17.5391 5.16767 17.5391H5.17177C5.24667 17.5391 5.30741 17.5997 5.30741 17.6747V18.8268C5.30741 18.9017 5.24677 18.9624 5.17177 18.9624H4.04853C3.97363 18.9624 3.91288 18.9018 3.91288 18.8268V18.533C3.91288 18.4581 3.85224 18.3974 3.77724 18.3974H3.21181C3.13691 18.3974 3.07617 18.458 3.07617 18.533V18.5478C3.07617 18.6227 3.13681 18.6834 3.21181 18.6834H3.49824C3.57314 18.6834 3.63388 18.744 3.63388 18.819V18.8268C3.63388 18.9016 3.57304 18.9624 3.49814 18.9624Z" fill="#F5F5F5"/>
<path d="M5.72598 18.9624H5.73721C5.81211 18.9624 5.87285 18.9018 5.87285 18.8268V18.533C5.87285 18.4581 5.9335 18.3974 6.0085 18.3974H6.57041C6.64531 18.3974 6.70605 18.458 6.70605 18.533V18.8268C6.70605 18.9017 6.7667 18.9624 6.8417 18.9624H7.96494C8.03984 18.9624 8.10058 18.9018 8.10058 18.8268V18.2469C8.10058 18.172 8.03994 18.1112 7.96494 18.1112H7.39951C7.32461 18.1112 7.26386 18.1719 7.26386 18.2469V18.2617C7.26386 18.3366 7.32451 18.3974 7.39951 18.3974H7.68613C7.76103 18.3974 7.82177 18.458 7.82177 18.533V18.5478C7.82177 18.6227 7.76113 18.6834 7.68613 18.6834H7.1207C7.0458 18.6834 6.98506 18.6228 6.98506 18.5478V18.2469C6.98506 18.172 6.92441 18.1112 6.84941 18.1112H5.72598C5.65107 18.1112 5.59033 18.1719 5.59033 18.2469V18.8268C5.59043 18.9016 5.65117 18.9624 5.72598 18.9624ZM6.28389 18.9624H6.2914C6.36631 18.9624 6.42705 18.9018 6.42705 18.8268V18.819C6.42705 18.7441 6.3664 18.6834 6.2914 18.6834H6.28389C6.20898 18.6834 6.14824 18.744 6.14824 18.819V18.8268C6.14834 18.9016 6.20898 18.9624 6.28389 18.9624ZM5.72598 17.8252H9.08417C9.15907 17.8252 9.21982 17.7646 9.21982 17.6896V17.6747C9.21982 17.5998 9.15917 17.5391 9.08417 17.5391H5.72598C5.65107 17.5391 5.59033 17.5997 5.59033 17.6747V17.6896C5.59043 17.7646 5.65117 17.8252 5.72598 17.8252ZM9.08417 18.9624H8.51513C8.44023 18.9624 8.37949 18.9018 8.37949 18.8268V18.2469C8.37949 18.172 8.44013 18.1112 8.51513 18.1112H9.35966C9.43456 18.1112 9.4953 18.0506 9.4953 17.9756V17.6747C9.4953 17.5998 9.55595 17.5391 9.63095 17.5391H9.64218C9.71708 17.5391 9.77782 17.5997 9.77782 17.6747V18.5478C9.77782 18.6227 9.83847 18.6834 9.91347 18.6834H9.9247C9.9996 18.6834 10.0603 18.6228 10.0603 18.5478V17.6747C10.0603 17.5998 10.121 17.5391 10.196 17.5391H10.2001C10.275 17.5391 10.3357 17.5997 10.3357 17.6747V18.5478C10.3357 18.6227 10.3964 18.6834 10.4714 18.6834H10.4826C10.5575 18.6834 10.6183 18.6228 10.6183 18.5478V17.6747C10.6183 17.5998 10.6789 17.5391 10.7539 17.5391H10.7614C10.8363 17.5391 10.8971 17.5997 10.8971 17.6747V18.8268C10.8971 18.9017 10.8364 18.9624 10.7614 18.9624H9.63114C9.55624 18.9624 9.4955 18.9018 9.4955 18.8268V18.533C9.4955 18.4581 9.43486 18.3974 9.35986 18.3974H8.79794C8.72304 18.3974 8.6623 18.458 8.6623 18.533V18.5478C8.6623 18.6227 8.72294 18.6834 8.79794 18.6834H9.08456C9.15947 18.6834 9.22021 18.744 9.22021 18.819V18.8268C9.21972 18.9016 9.15907 18.9624 9.08417 18.9624Z" fill="#F5F5F5"/>
<path d="M11.3119 18.9624H11.3194C11.3943 18.9624 11.4551 18.9018 11.4551 18.8268V18.533C11.4551 18.4581 11.5157 18.3974 11.5907 18.3974H12.1563C12.2312 18.3974 12.292 18.458 12.292 18.533V18.8268C12.292 18.9017 12.3526 18.9624 12.4276 18.9624H13.5544C13.6293 18.9624 13.69 18.9018 13.69 18.8268V18.2469C13.69 18.172 13.6294 18.1112 13.5544 18.1112H12.989C12.9141 18.1112 12.8533 18.1719 12.8533 18.2469V18.2617C12.8533 18.3366 12.914 18.3974 12.989 18.3974H13.2756C13.3505 18.3974 13.4112 18.458 13.4112 18.533V18.5478C13.4112 18.6227 13.3506 18.6834 13.2756 18.6834H12.7065C12.6316 18.6834 12.5709 18.6228 12.5709 18.5478V18.2469C12.5709 18.172 12.5103 18.1112 12.4353 18.1112H11.312C11.2371 18.1112 11.1764 18.1719 11.1764 18.2469V18.8268C11.1762 18.9016 11.237 18.9624 11.3119 18.9624ZM11.8697 18.9624H11.8772C11.9521 18.9624 12.0129 18.9018 12.0129 18.8268V18.819C12.0129 18.7441 11.9522 18.6834 11.8772 18.6834H11.8697C11.7948 18.6834 11.7341 18.744 11.7341 18.819V18.8268C11.7341 18.9016 11.7948 18.9624 11.8697 18.9624ZM11.3119 17.8252H14.6736C14.7485 17.8252 14.8093 17.7646 14.8093 17.6896V17.6747C14.8093 17.5998 14.7486 17.5391 14.6736 17.5391H11.3119C11.237 17.5391 11.1763 17.5997 11.1763 17.6747V17.6896C11.1762 17.7646 11.237 17.8252 11.3119 17.8252ZM14.6736 18.9624H14.1046C14.0297 18.9624 13.9689 18.9018 13.9689 18.8268V18.2469C13.9689 18.172 14.0296 18.1112 14.1046 18.1112H14.9489C15.0238 18.1112 15.0846 18.0506 15.0846 17.9756V17.6747C15.0846 17.5998 15.1452 17.5391 15.2202 17.5391H15.2279C15.3028 17.5391 15.3636 17.5997 15.3636 17.6747V18.5478C15.3636 18.6227 15.4242 18.6834 15.4992 18.6834H15.5104C15.5853 18.6834 15.6461 18.6228 15.6461 18.5478V17.6747C15.6461 17.5998 15.7067 17.5391 15.7817 17.5391H15.793C15.8679 17.5391 15.9286 17.5997 15.9286 17.6747V18.5478C15.9286 18.6227 15.9892 18.6834 16.0642 18.6834H16.0683C16.1433 18.6834 16.204 18.6228 16.204 18.5478V17.6747C16.204 17.5998 16.2646 17.5391 16.3396 17.5391H16.3472C16.4221 17.5391 16.4828 17.5997 16.4828 17.6747V18.8268C16.4828 18.9017 16.4222 18.9624 16.3472 18.9624H15.2202C15.1453 18.9624 15.0846 18.9018 15.0846 18.8268V18.533C15.0846 18.4581 15.0239 18.3974 14.9489 18.3974H14.3835C14.3086 18.3974 14.2478 18.458 14.2478 18.533V18.5478C14.2478 18.6227 14.3085 18.6834 14.3835 18.6834H14.6738C14.7487 18.6834 14.8095 18.744 14.8095 18.819V18.8268C14.8093 18.9016 14.7485 18.9624 14.6736 18.9624Z" fill="#F5F5F5"/>
<path d="M16.8969 18.9624H16.9044C16.9793 18.9624 17.04 18.9018 17.04 18.8268V18.533C17.04 18.4581 17.1007 18.3974 17.1757 18.3974H17.7411C17.816 18.3974 17.8768 18.458 17.8768 18.533V18.8268C17.8768 18.9017 17.9374 18.9624 18.0124 18.9624H19.1394C19.2143 18.9624 19.275 18.9018 19.275 18.8268V18.2469C19.275 18.172 19.2144 18.1112 19.1394 18.1112H18.5703C18.4954 18.1112 18.4347 18.1719 18.4347 18.2469V18.2617C18.4347 18.3366 18.4953 18.3974 18.5703 18.3974H18.8569C18.9318 18.3974 18.9926 18.458 18.9926 18.533V18.5478C18.9926 18.6227 18.9319 18.6834 18.8569 18.6834H18.2915C18.2166 18.6834 18.1559 18.6228 18.1559 18.5478V18.2469C18.1559 18.172 18.0952 18.1112 18.0202 18.1112H16.897C16.8221 18.1112 16.7613 18.1719 16.7613 18.2469V18.8268C16.7613 18.9016 16.8221 18.9624 16.8969 18.9624ZM17.4548 18.9624H17.4623C17.5372 18.9624 17.5979 18.9018 17.5979 18.8268V18.819C17.5979 18.7441 17.5373 18.6834 17.4623 18.6834H17.4548C17.3799 18.6834 17.3191 18.744 17.3191 18.819V18.8268C17.3192 18.9016 17.3799 18.9624 17.4548 18.9624ZM16.8969 17.8252H20.2551C20.33 17.8252 20.3907 17.7646 20.3907 17.6896V17.6747C20.3907 17.5998 20.3301 17.5391 20.2551 17.5391H16.8969C16.822 17.5391 16.7612 17.5997 16.7612 17.6747V17.6896C16.7613 17.7646 16.8221 17.8252 16.8969 17.8252ZM20.2551 18.9624H19.686C19.6111 18.9624 19.5504 18.9018 19.5504 18.8268V18.2469C19.5504 18.172 19.611 18.1112 19.686 18.1112H20.5377C20.6126 18.1112 20.6733 18.0506 20.6733 17.9756V17.6747C20.6733 17.5998 20.734 17.5391 20.809 17.5391H20.8165C20.8914 17.5391 20.9521 17.5997 20.9521 17.6747V18.5478C20.9521 18.6227 21.0128 18.6834 21.0878 18.6834H21.0919C21.1668 18.6834 21.2275 18.6228 21.2275 18.5478V17.6747C21.2275 17.5998 21.2882 17.5391 21.3632 17.5391H21.3744C21.4493 17.5391 21.5101 17.5997 21.5101 17.6747V18.5478C21.5101 18.6227 21.5707 18.6834 21.6457 18.6834H21.6534C21.7283 18.6834 21.7891 18.6228 21.7891 18.5478V17.6747C21.7891 17.5998 21.8497 17.5391 21.9247 17.5391H21.9322C22.0071 17.5391 22.0679 17.5997 22.0679 17.6747V18.8268C22.0679 18.9017 22.0072 18.9624 21.9322 18.9624H20.8085C20.7336 18.9624 20.6728 18.9018 20.6728 18.8268V18.533C20.6728 18.4581 20.6122 18.3974 20.5372 18.3974H19.9682C19.8933 18.3974 19.8325 18.458 19.8325 18.533V18.5478C19.8325 18.6227 19.8932 18.6834 19.9682 18.6834H20.2548C20.3297 18.6834 20.3904 18.744 20.3904 18.819V18.8268C20.3906 18.9016 20.33 18.9624 20.2551 18.9624Z" fill="#F5F5F5"/>
<path d="M22.4823 18.9624H22.49C22.5649 18.9624 22.6257 18.9018 22.6257 18.8268V18.533C22.6257 18.4581 22.6863 18.3974 22.7613 18.3974H23.3268C23.4017 18.3974 23.4624 18.458 23.4624 18.533V18.8268C23.4624 18.9017 23.523 18.9624 23.598 18.9624H24.725C24.7999 18.9624 24.8606 18.9018 24.8606 18.8268V18.2469C24.8606 18.172 24.8 18.1112 24.725 18.1112H24.156C24.0811 18.1112 24.0203 18.1719 24.0203 18.2469V18.2617C24.0203 18.3366 24.081 18.3974 24.156 18.3974H24.446C24.5209 18.3974 24.5816 18.458 24.5816 18.533V18.5478C24.5816 18.6227 24.521 18.6834 24.446 18.6834H23.8806C23.8057 18.6834 23.7449 18.6228 23.7449 18.5478V18.2469C23.7449 18.172 23.6843 18.1112 23.6093 18.1112H22.4823C22.4074 18.1112 22.3467 18.1719 22.3467 18.2469V18.8268C22.3468 18.9016 22.4074 18.9624 22.4823 18.9624ZM23.0438 18.9624H23.0479C23.1229 18.9624 23.1836 18.9018 23.1836 18.8268V18.819C23.1836 18.7441 23.1229 18.6834 23.0479 18.6834H23.0438C22.9689 18.6834 22.9082 18.744 22.9082 18.819V18.8268C22.9082 18.9016 22.9689 18.9624 23.0438 18.9624ZM22.4823 17.8252H25.8441C25.919 17.8252 25.9798 17.7646 25.9798 17.6896V17.6747C25.9798 17.5998 25.9191 17.5391 25.8441 17.5391H22.4823C22.4074 17.5391 22.3467 17.5997 22.3467 17.6747V17.6896C22.3468 17.7646 22.4074 17.8252 22.4823 17.8252ZM25.8442 18.9624H25.2752C25.2003 18.9624 25.1395 18.9018 25.1395 18.8268V18.2469C25.1395 18.172 25.2002 18.1112 25.2752 18.1112H26.1232C26.1981 18.1112 26.2589 18.0506 26.2589 17.9756V17.6747C26.2589 17.5998 26.3195 17.5391 26.3945 17.5391H26.402C26.4769 17.5391 26.5377 17.5997 26.5377 17.6747V18.5478C26.5377 18.6227 26.5983 18.6834 26.6733 18.6834H26.681C26.7559 18.6834 26.8167 18.6228 26.8167 18.5478V17.6747C26.8167 17.5998 26.8773 17.5391 26.9523 17.5391H26.9599C27.0348 17.5391 27.0955 17.5997 27.0955 17.6747V18.5478C27.0955 18.6227 27.1561 18.6834 27.2311 18.6834H27.2387C27.3136 18.6834 27.3743 18.6228 27.3743 18.5478V17.6747C27.3743 17.5998 27.435 17.5391 27.51 17.5391H27.5177C27.5926 17.5391 27.6533 17.5997 27.6533 17.6747V18.8268C27.6533 18.9017 27.5927 18.9624 27.5177 18.9624H26.3944C26.3195 18.9624 26.2588 18.9018 26.2588 18.8268V18.533C26.2588 18.4581 26.1981 18.3974 26.1231 18.3974H25.5541C25.4792 18.3974 25.4185 18.458 25.4185 18.533V18.5478C25.4185 18.6227 25.4791 18.6834 25.5541 18.6834H25.8441C25.919 18.6834 25.9798 18.744 25.9798 18.819V18.8268C25.9798 18.9016 25.9191 18.9624 25.8442 18.9624Z" fill="#F5F5F5"/>
<path d="M28.0673 18.9624H28.075C28.1499 18.9624 28.2106 18.9018 28.2106 18.8268V18.533C28.2106 18.4581 28.2713 18.3974 28.3463 18.3974H28.9117C28.9866 18.3974 29.0474 18.458 29.0474 18.533V18.8268C29.0474 18.9017 29.108 18.9624 29.183 18.9624H30.31C30.3849 18.9624 30.4456 18.9018 30.4456 18.8268V18.2469C30.4456 18.172 30.385 18.1112 30.31 18.1112H29.7443C29.6694 18.1112 29.6087 18.1719 29.6087 18.2469V18.2617C29.6087 18.3366 29.6693 18.3974 29.7443 18.3974H30.0274C30.1023 18.3974 30.1631 18.458 30.1631 18.533V18.5478C30.1631 18.6227 30.1024 18.6834 30.0274 18.6834H29.4655C29.3906 18.6834 29.3299 18.6228 29.3299 18.5478V18.2469C29.3299 18.172 29.2692 18.1112 29.1942 18.1112H28.0673C27.9924 18.1112 27.9316 18.1719 27.9316 18.2469V18.8268C27.9316 18.9016 27.9924 18.9624 28.0673 18.9624ZM28.6287 18.9624H28.6328C28.7077 18.9624 28.7685 18.9018 28.7685 18.8268V18.819C28.7685 18.7441 28.7078 18.6834 28.6328 18.6834H28.6287C28.5538 18.6834 28.4931 18.744 28.4931 18.819V18.8268C28.4932 18.9016 28.5538 18.9624 28.6287 18.9624ZM28.0673 17.8252H31.429C31.5039 17.8252 31.5646 17.7646 31.5646 17.6896V17.6747C31.5646 17.5998 31.504 17.5391 31.429 17.5391H28.0673C27.9924 17.5391 27.9316 17.5997 27.9316 17.6747V17.6896C27.9316 17.7646 27.9924 17.8252 28.0673 17.8252ZM31.4291 18.9624H30.8637C30.7888 18.9624 30.728 18.9018 30.728 18.8268V18.2469C30.728 18.172 30.7887 18.1112 30.8637 18.1112H31.708C31.7829 18.1112 31.8436 18.0506 31.8436 17.9756V17.6747C31.8436 17.5998 31.9043 17.5391 31.9793 17.5391H31.987C32.0619 17.5391 32.1226 17.5997 32.1226 17.6747V18.5478C32.1226 18.6227 32.1833 18.6834 32.2583 18.6834H32.2658C32.3407 18.6834 32.4015 18.6228 32.4015 18.5478V17.6747C32.4015 17.5998 32.4621 17.5391 32.5371 17.5391H32.5448C32.6197 17.5391 32.6805 17.5997 32.6805 17.6747V18.5478C32.6805 18.6227 32.7411 18.6834 32.8161 18.6834H32.8236C32.8985 18.6834 32.9593 18.6228 32.9593 18.5478V17.6747C32.9593 17.5998 33.0199 17.5391 33.0949 17.5391H33.1026C33.1775 17.5391 33.2383 17.5997 33.2383 17.6747V18.8268C33.2383 18.9017 33.1776 18.9624 33.1026 18.9624H31.9791C31.9042 18.9624 31.8434 18.9018 31.8434 18.8268V18.533C31.8434 18.4581 31.7828 18.3974 31.7078 18.3974H31.1389C31.064 18.3974 31.0032 18.458 31.0032 18.533V18.5478C31.0032 18.6227 31.0639 18.6834 31.1389 18.6834H31.4289C31.5038 18.6834 31.5645 18.744 31.5645 18.819V18.8268C31.5647 18.9016 31.5039 18.9624 31.4291 18.9624Z" fill="#F5F5F5"/>
<path d="M33.6527 18.9624H33.6604C33.7353 18.9624 33.7961 18.9018 33.7961 18.8268V18.533C33.7961 18.4581 33.8567 18.3974 33.9317 18.3974H34.5007C34.5756 18.3974 34.6363 18.458 34.6363 18.533V18.8268C34.6363 18.9017 34.697 18.9624 34.772 18.9624H35.8955C35.9704 18.9624 36.0311 18.9018 36.0311 18.8268V18.2469C36.0311 18.172 35.9705 18.1112 35.8955 18.1112H35.3299C35.255 18.1112 35.1942 18.1719 35.1942 18.2469V18.2617C35.1942 18.3366 35.2549 18.3974 35.3299 18.3974H35.6202C35.6951 18.3974 35.7559 18.458 35.7559 18.533V18.5478C35.7559 18.6227 35.6952 18.6834 35.6202 18.6834H35.0475C34.9726 18.6834 34.9118 18.6228 34.9118 18.5478V18.2469C34.9118 18.172 34.8512 18.1112 34.7762 18.1112H33.6529C33.578 18.1112 33.5173 18.1719 33.5173 18.2469V18.8268C33.5172 18.9016 33.5778 18.9624 33.6527 18.9624ZM34.2106 18.9624H34.2219C34.2968 18.9624 34.3575 18.9018 34.3575 18.8268V18.819C34.3575 18.7441 34.2969 18.6834 34.2219 18.6834H34.2106C34.1357 18.6834 34.075 18.744 34.075 18.819V18.8268C34.075 18.9016 34.1357 18.9624 34.2106 18.9624ZM33.6527 17.8252H37.0144C37.0893 17.8252 37.1501 17.7646 37.1501 17.6896V17.6747C37.1501 17.5998 37.0894 17.5391 37.0144 17.5391H33.6527C33.5778 17.5391 33.5171 17.5997 33.5171 17.6747V17.6896C33.5172 17.7646 33.5778 17.8252 33.6527 17.8252ZM37.0146 18.9624H36.4492C36.3743 18.9624 36.3136 18.9018 36.3136 18.8268V18.2469C36.3136 18.172 36.3742 18.1112 36.4492 18.1112H37.2935C37.3684 18.1112 37.4292 18.0506 37.4292 17.9756V17.6747C37.4292 17.5998 37.4898 17.5391 37.5648 17.5391H37.5725C37.6474 17.5391 37.7082 17.5997 37.7082 17.6747V18.5478C37.7082 18.6227 37.7688 18.6834 37.8438 18.6834H37.8514C37.9263 18.6834 37.987 18.6228 37.987 18.5478V17.6747C37.987 17.5998 38.0476 17.5391 38.1226 17.5391H38.1304C38.2053 17.5391 38.266 17.5997 38.266 17.6747V18.5478C38.266 18.6227 38.3266 18.6834 38.4016 18.6834H38.4129C38.4878 18.6834 38.5485 18.6228 38.5485 18.5478V17.6747C38.5485 17.5998 38.6092 17.5391 38.6842 17.5391H38.6881C38.763 17.5391 38.8237 17.5997 38.8237 17.6747V18.8268C38.8237 18.9017 38.7631 18.9624 38.6881 18.9624H37.5648C37.4899 18.9624 37.4292 18.9018 37.4292 18.8268V18.533C37.4292 18.4581 37.3685 18.3974 37.2935 18.3974H36.7316C36.6567 18.3974 36.596 18.458 36.596 18.533V18.5478C36.596 18.6227 36.6566 18.6834 36.7316 18.6834H37.0147C37.0896 18.6834 37.1504 18.744 37.1504 18.819V18.8268C37.1502 18.9016 37.0895 18.9624 37.0146 18.9624Z" fill="#F5F5F5"/>
<path d="M39.2421 18.9624H39.2462C39.3211 18.9624 39.3818 18.9018 39.3818 18.8268V18.533C39.3818 18.4581 39.4425 18.3974 39.5175 18.3974H40.0831C40.158 18.3974 40.2187 18.458 40.2187 18.533V18.8268C40.2187 18.9017 40.2794 18.9624 40.3544 18.9624H41.4811C41.556 18.9624 41.6168 18.9018 41.6168 18.8268V18.2469C41.6168 18.172 41.5561 18.1112 41.4811 18.1112H40.9194C40.8445 18.1112 40.7838 18.1719 40.7838 18.2469V18.2617C40.7838 18.3366 40.8444 18.3974 40.9194 18.3974H41.2059C41.2808 18.3974 41.3415 18.458 41.3415 18.533V18.5478C41.3415 18.6227 41.2809 18.6834 41.2059 18.6834H40.6369C40.562 18.6834 40.5013 18.6228 40.5013 18.5478V18.2469C40.5013 18.172 40.4406 18.1112 40.3656 18.1112H39.2421C39.1672 18.1112 39.1064 18.1719 39.1064 18.2469V18.8268C39.1063 18.9016 39.1672 18.9624 39.2421 18.9624ZM39.7999 18.9624H39.8076C39.8825 18.9624 39.9433 18.9018 39.9433 18.8268V18.819C39.9433 18.7441 39.8826 18.6834 39.8076 18.6834H39.7999C39.725 18.6834 39.6643 18.744 39.6643 18.819V18.8268C39.6643 18.9016 39.725 18.9624 39.7999 18.9624ZM39.2421 17.8252H42.6075C42.6824 17.8252 42.7432 17.7646 42.7432 17.6896V17.6747C42.7432 17.5998 42.6825 17.5391 42.6075 17.5391H39.2421C39.1672 17.5391 39.1064 17.5997 39.1064 17.6747V17.6896C39.1063 17.7646 39.1672 17.8252 39.2421 17.8252ZM42.6074 18.9624H42.0347C41.9598 18.9624 41.899 18.9018 41.899 18.8268V18.2469C41.899 18.172 41.9597 18.1112 42.0347 18.1112H42.8792C42.9541 18.1112 43.0148 18.0506 43.0148 17.9756V17.6747C43.0148 17.5998 43.0755 17.5391 43.1505 17.5391H43.1617C43.2366 17.5391 43.2974 17.5997 43.2974 17.6747V18.5478C43.2974 18.6227 43.358 18.6834 43.433 18.6834H43.4405C43.5154 18.6834 43.5762 18.6228 43.5762 18.5478V17.6747C43.5762 17.5998 43.6368 17.5391 43.7118 17.5391H43.7159C43.7908 17.5391 43.8516 17.5997 43.8516 17.6747V18.5478C43.8516 18.6227 43.9122 18.6834 43.9872 18.6834H43.9984C44.0733 18.6834 44.1341 18.6228 44.1341 18.5478V17.6747C44.1341 17.5998 44.1947 17.5391 44.2697 17.5391H44.2774C44.3523 17.5391 44.4131 17.5997 44.4131 17.6747V18.8268C44.4131 18.9017 44.3524 18.9624 44.2774 18.9624H43.1505C43.0756 18.9624 43.0148 18.9018 43.0148 18.8268V18.533C43.0148 18.4581 42.9542 18.3974 42.8792 18.3974H42.3138C42.2389 18.3974 42.1781 18.458 42.1781 18.533V18.5478C42.1781 18.6227 42.2388 18.6834 42.3138 18.6834H42.6075C42.6824 18.6834 42.7432 18.744 42.7432 18.819V18.8268C42.7432 18.9016 42.6823 18.9624 42.6074 18.9624Z" fill="#F5F5F5"/>
<path d="M44.8275 18.9624H44.8353C44.9102 18.9624 44.9709 18.9018 44.9709 18.8268V18.533C44.9709 18.4581 45.0315 18.3974 45.1065 18.3974H45.672C45.7469 18.3974 45.8076 18.458 45.8076 18.533V18.8268C45.8076 18.9017 45.8683 18.9624 45.9433 18.9624H47.0702C47.1451 18.9624 47.2059 18.9018 47.2059 18.8268V18.2469C47.2059 18.172 47.1452 18.1112 47.0702 18.1112H46.5083C46.4334 18.1112 46.3727 18.1719 46.3727 18.2469V18.2617C46.3727 18.3366 46.4333 18.3974 46.5083 18.3974H46.7949C46.8698 18.3974 46.9306 18.458 46.9306 18.533V18.5478C46.9306 18.6227 46.8699 18.6834 46.7949 18.6834H46.2222C46.1473 18.6834 46.0865 18.6228 46.0865 18.5478V18.2469C46.0865 18.172 46.0259 18.1112 45.9509 18.1112H44.8276C44.7527 18.1112 44.692 18.1719 44.692 18.2469V18.8268C44.692 18.9016 44.7527 18.9624 44.8275 18.9624ZM45.3854 18.9624H45.3932C45.4681 18.9624 45.5288 18.9018 45.5288 18.8268V18.819C45.5288 18.7441 45.4682 18.6834 45.3932 18.6834H45.3854C45.3105 18.6834 45.2498 18.744 45.2498 18.819V18.8268C45.2499 18.9016 45.3105 18.9624 45.3854 18.9624ZM44.8275 17.8252H48.1857C48.2606 17.8252 48.3214 17.7646 48.3214 17.6896V17.6747C48.3214 17.5998 48.2607 17.5391 48.1857 17.5391H44.8275C44.7526 17.5391 44.6919 17.5997 44.6919 17.6747V17.6896C44.692 17.7646 44.7527 17.8252 44.8275 17.8252ZM48.1857 18.9624H47.6203C47.5454 18.9624 47.4847 18.9018 47.4847 18.8268V18.2469C47.4847 18.172 47.5453 18.1112 47.6203 18.1112H48.472C48.5469 18.1112 48.6076 18.0506 48.6076 17.9756V17.6747C48.6076 17.5998 48.6683 17.5391 48.7433 17.5391H48.7436C48.8185 17.5391 48.8793 17.5997 48.8793 17.6747V18.5478C48.8793 18.6227 48.9399 18.6834 49.0149 18.6834H49.0298C49.1047 18.6834 49.1654 18.6228 49.1654 18.5478V17.6747C49.1654 17.5998 49.2261 17.5391 49.3011 17.5391H49.3015C49.3764 17.5391 49.4371 17.5997 49.4371 17.6747V18.5478C49.4371 18.6227 49.4977 18.6834 49.5727 18.6834H49.5805C49.6554 18.6834 49.7161 18.6228 49.7161 18.5478V17.6747C49.7161 17.5998 49.7767 17.5391 49.8517 17.5391H49.8665C49.9414 17.5391 50.0021 17.5997 50.0021 17.6747V18.8268C50.0021 18.9017 49.9415 18.9624 49.8665 18.9624H48.7433C48.6684 18.9624 48.6076 18.9018 48.6076 18.8268V18.533C48.6076 18.4581 48.547 18.3974 48.472 18.3974H47.8993C47.8244 18.3974 47.7637 18.458 47.7637 18.533V18.5478C47.7637 18.6227 47.8243 18.6834 47.8993 18.6834H48.1857C48.2606 18.6834 48.3214 18.744 48.3214 18.819V18.8268C48.3214 18.9016 48.2606 18.9624 48.1857 18.9624Z" fill="#F5F5F5"/>
<path d="M0.137597 19.8271H2.38007C2.45498 19.8271 2.51572 19.7664 2.51572 19.6914V19.3905C2.51572 19.3156 2.45507 19.2549 2.38007 19.2549H0.137597C0.0626952 19.2549 0.00195312 19.3155 0.00195312 19.3905V19.6914C0.00195312 19.7664 0.0625976 19.8271 0.137597 19.8271ZM2.93378 19.8271H5.17274C5.24765 19.8271 5.30839 19.7664 5.30839 19.6914V19.3905C5.30839 19.3156 5.24774 19.2549 5.17274 19.2549H2.93378C2.85888 19.2549 2.79814 19.3155 2.79814 19.3905V19.6914C2.79814 19.7664 2.85888 19.8271 2.93378 19.8271Z" fill="#F5F5F5"/>
<path d="M5.72598 19.8271H7.96494C8.03984 19.8271 8.10058 19.7664 8.10058 19.6914V19.3905C8.10058 19.3156 8.03994 19.2549 7.96494 19.2549H5.72598C5.65107 19.2549 5.59033 19.3155 5.59033 19.3905V19.6914C5.59043 19.7664 5.65117 19.8271 5.72598 19.8271ZM8.51513 19.8271H10.7612C10.8361 19.8271 10.8969 19.7664 10.8969 19.6914V19.3905C10.8969 19.3156 10.8362 19.2549 10.7612 19.2549H8.51513C8.44023 19.2549 8.37949 19.3155 8.37949 19.3905V19.6914C8.37949 19.7664 8.44023 19.8271 8.51513 19.8271Z" fill="#F5F5F5"/>
<path d="M11.3119 19.8271H13.5544C13.6293 19.8271 13.69 19.7664 13.69 19.6914V19.3905C13.69 19.3156 13.6294 19.2549 13.5544 19.2549H11.3119C11.237 19.2549 11.1763 19.3155 11.1763 19.3905V19.6914C11.1762 19.7664 11.237 19.8271 11.3119 19.8271ZM14.1045 19.8271H16.347C16.4219 19.8271 16.4826 19.7664 16.4826 19.6914V19.3905C16.4826 19.3156 16.422 19.2549 16.347 19.2549H14.1045C14.0296 19.2549 13.9688 19.3155 13.9688 19.3905V19.6914C13.9689 19.7664 14.0297 19.8271 14.1045 19.8271Z" fill="#F5F5F5"/>
<path d="M16.8969 19.8271H19.1394C19.2143 19.8271 19.275 19.7664 19.275 19.6914V19.3905C19.275 19.3156 19.2144 19.2549 19.1394 19.2549H16.8969C16.822 19.2549 16.7612 19.3155 16.7612 19.3905V19.6914C16.7613 19.7664 16.8221 19.8271 16.8969 19.8271ZM19.686 19.8271H21.9321C22.007 19.8271 22.0678 19.7664 22.0678 19.6914V19.3905C22.0678 19.3156 22.0071 19.2549 21.9321 19.2549H19.686C19.6111 19.2549 19.5504 19.3155 19.5504 19.3905V19.6914C19.5504 19.7664 19.611 19.8271 19.686 19.8271Z" fill="#F5F5F5"/>
<path d="M22.4823 19.8271H24.725C24.7999 19.8271 24.8606 19.7664 24.8606 19.6914V19.3905C24.8606 19.3156 24.8 19.2549 24.725 19.2549H22.4823C22.4074 19.2549 22.3467 19.3155 22.3467 19.3905V19.6914C22.3468 19.7664 22.4074 19.8271 22.4823 19.8271ZM25.275 19.8271H27.5177C27.5926 19.8271 27.6533 19.7664 27.6533 19.6914V19.3905C27.6533 19.3156 27.5927 19.2549 27.5177 19.2549H25.275C25.2001 19.2549 25.1393 19.3155 25.1393 19.3905V19.6914C25.1394 19.7664 25.2001 19.8271 25.275 19.8271Z" fill="#F5F5F5"/>
<path d="M28.0673 19.8271H30.31C30.3849 19.8271 30.4456 19.7664 30.4456 19.6914V19.3905C30.4456 19.3156 30.385 19.2549 30.31 19.2549H28.0673C27.9924 19.2549 27.9316 19.3155 27.9316 19.3905V19.6914C27.9316 19.7664 27.9924 19.8271 28.0673 19.8271ZM30.8637 19.8271H33.1026C33.1775 19.8271 33.2383 19.7664 33.2383 19.6914V19.3905C33.2383 19.3156 33.1776 19.2549 33.1026 19.2549H30.8637C30.7888 19.2549 30.728 19.3155 30.728 19.3905V19.6914C30.728 19.7664 30.7888 19.8271 30.8637 19.8271Z" fill="#F5F5F5"/>
<path d="M33.6527 19.8271H35.8954C35.9703 19.8271 36.031 19.7664 36.031 19.6914V19.3905C36.031 19.3156 35.9704 19.2549 35.8954 19.2549H33.6527C33.5778 19.2549 33.5171 19.3155 33.5171 19.3905V19.6914C33.5172 19.7664 33.5778 19.8271 33.6527 19.8271ZM36.4491 19.8271H38.6879C38.7628 19.8271 38.8235 19.7664 38.8235 19.6914V19.3905C38.8235 19.3156 38.7629 19.2549 38.6879 19.2549H36.4491C36.3742 19.2549 36.3135 19.3155 36.3135 19.3905V19.6914C36.3136 19.7664 36.3742 19.8271 36.4491 19.8271Z" fill="#F5F5F5"/>
<path d="M39.2421 19.8271H41.4811C41.556 19.8271 41.6167 19.7664 41.6167 19.6914V19.3905C41.6167 19.3156 41.5561 19.2549 41.4811 19.2549H39.2421C39.1672 19.2549 39.1064 19.3155 39.1064 19.3905V19.6914C39.1063 19.7664 39.1672 19.8271 39.2421 19.8271ZM42.0348 19.8271H44.2774C44.3523 19.8271 44.4131 19.7664 44.4131 19.6914V19.3905C44.4131 19.3156 44.3524 19.2549 44.2774 19.2549H42.0348C41.9599 19.2549 41.8991 19.3155 41.8991 19.3905V19.6914C41.8991 19.7664 41.9599 19.8271 42.0348 19.8271Z" fill="#F5F5F5"/>
<path d="M44.8275 19.8271H47.0702C47.1451 19.8271 47.2059 19.7664 47.2059 19.6914V19.3905C47.2059 19.3156 47.1452 19.2549 47.0702 19.2549H44.8275C44.7526 19.2549 44.6919 19.3155 44.6919 19.3905V19.6914C44.692 19.7664 44.7527 19.8271 44.8275 19.8271ZM47.6204 19.8271H49.8665C49.9414 19.8271 50.0021 19.7664 50.0021 19.6914V19.3905C50.0021 19.3156 49.9415 19.2549 49.8665 19.2549H47.6204C47.5455 19.2549 47.4848 19.3155 47.4848 19.3905V19.6914C47.4847 19.7664 47.5454 19.8271 47.6204 19.8271Z" fill="#F5F5F5"/>
<path d="M49.8661 31.0371H49.8586C49.7837 31.0371 49.7229 31.0978 49.7229 31.1728V31.4665C49.7229 31.5414 49.6623 31.6021 49.5873 31.6021H49.0183C48.9433 31.6021 48.8826 31.5415 48.8826 31.4665V31.1728C48.8826 31.0979 48.822 31.0371 48.747 31.0371H47.6237C47.5488 31.0371 47.4881 31.0978 47.4881 31.1728V31.7527C47.4881 31.8276 47.5487 31.8884 47.6237 31.8884H48.1892C48.2641 31.8884 48.3248 31.8277 48.3248 31.7527V31.7379C48.3248 31.663 48.2642 31.6022 48.1892 31.6022H47.9025C47.8276 31.6022 47.7669 31.5416 47.7669 31.4666V31.4519C47.7669 31.377 47.8275 31.3162 47.9025 31.3162H48.4682C48.5431 31.3162 48.6038 31.3769 48.6038 31.4519V31.7527C48.6038 31.8276 48.6644 31.8884 48.7394 31.8884H49.8662C49.9411 31.8884 50.0018 31.8277 50.0018 31.7527V31.1728C50.0017 31.0979 49.9411 31.0371 49.8661 31.0371ZM49.3048 31.0371H49.2971C49.2222 31.0371 49.1614 31.0978 49.1614 31.1728V31.1805C49.1614 31.2554 49.2221 31.3161 49.2971 31.3161H49.3048C49.3797 31.3161 49.4404 31.2555 49.4404 31.1805V31.1728C49.4404 31.0979 49.3797 31.0371 49.3048 31.0371ZM49.8661 32.1743H46.5045C46.4296 32.1743 46.3688 32.235 46.3688 32.31V32.3248C46.3688 32.3997 46.4295 32.4604 46.5045 32.4604H49.8661C49.941 32.4604 50.0017 32.3998 50.0017 32.3248V32.31C50.0017 32.235 49.9411 32.1743 49.8661 32.1743ZM46.5046 31.0371H47.07C47.1449 31.0371 47.2057 31.0978 47.2057 31.1728V31.7527C47.2057 31.8276 47.145 31.8884 47.07 31.8884H46.2255C46.1506 31.8884 46.0898 31.949 46.0898 32.024V32.3249C46.0898 32.3998 46.0292 32.4605 45.9542 32.4605H45.9467C45.8718 32.4605 45.811 32.3999 45.811 32.3249V31.4519C45.811 31.377 45.7504 31.3162 45.6754 31.3162H45.6677C45.5928 31.3162 45.532 31.3769 45.532 31.4519V32.3249C45.532 32.3998 45.4714 32.4605 45.3964 32.4605H45.3889C45.314 32.4605 45.2532 32.3999 45.2532 32.3249V31.4519C45.2532 31.377 45.1926 31.3162 45.1176 31.3162H45.1063C45.0314 31.3162 44.9707 31.3769 44.9707 31.4519V32.3249C44.9707 32.3998 44.9101 32.4605 44.8351 32.4605H44.831C44.7561 32.4605 44.6953 32.3999 44.6953 32.3249V31.1729C44.6953 31.098 44.756 31.0372 44.831 31.0372H45.9542C46.0291 31.0372 46.0898 31.0979 46.0898 31.1729V31.4666C46.0898 31.5415 46.1505 31.6022 46.2255 31.6022H46.7909C46.8658 31.6022 46.9266 31.5416 46.9266 31.4666V31.4519C46.9266 31.377 46.8659 31.3162 46.7909 31.3162H46.5045C46.4296 31.3162 46.3688 31.2556 46.3688 31.1806V31.1729C46.3688 31.0979 46.4297 31.0371 46.5046 31.0371Z" fill="#F5F5F5"/>
<path d="M44.2775 31.0371H44.2663C44.1914 31.0371 44.1307 31.0978 44.1307 31.1728V31.4665C44.1307 31.5414 44.07 31.6021 43.995 31.6021H43.4331C43.3582 31.6021 43.2975 31.5415 43.2975 31.4665V31.1728C43.2975 31.0979 43.2368 31.0371 43.1618 31.0371H42.0386C41.9637 31.0371 41.9029 31.0978 41.9029 31.1728V31.7527C41.9029 31.8276 41.9636 31.8884 42.0386 31.8884H42.604C42.6789 31.8884 42.7396 31.8277 42.7396 31.7527V31.7379C42.7396 31.663 42.679 31.6022 42.604 31.6022H42.3174C42.2425 31.6022 42.1817 31.5416 42.1817 31.4666V31.4519C42.1817 31.377 42.2424 31.3162 42.3174 31.3162H42.883C42.9579 31.3162 43.0186 31.3769 43.0186 31.4519V31.7527C43.0186 31.8276 43.0793 31.8884 43.1543 31.8884H44.2775C44.3524 31.8884 44.4132 31.8277 44.4132 31.7527V31.1728C44.4131 31.0979 44.3523 31.0371 44.2775 31.0371ZM43.7196 31.0371H43.7121C43.6372 31.0371 43.5765 31.0978 43.5765 31.1728V31.1805C43.5765 31.2554 43.6371 31.3161 43.7121 31.3161H43.7196C43.7945 31.3161 43.8553 31.2555 43.8553 31.1805V31.1728C43.8552 31.0979 43.7945 31.0371 43.7196 31.0371ZM44.2775 32.1743H40.9193C40.8444 32.1743 40.7837 32.235 40.7837 32.31V32.3248C40.7837 32.3997 40.8443 32.4604 40.9193 32.4604H44.2775C44.3524 32.4604 44.4132 32.3998 44.4132 32.3248V32.31C44.4131 32.235 44.3523 32.1743 44.2775 32.1743ZM40.9193 31.0371H41.4884C41.5633 31.0371 41.624 31.0978 41.624 31.1728V31.7527C41.624 31.8276 41.5634 31.8884 41.4884 31.8884H40.6438C40.5689 31.8884 40.5082 31.949 40.5082 32.024V32.3249C40.5082 32.3998 40.4476 32.4605 40.3726 32.4605H40.3613C40.2864 32.4605 40.2257 32.3999 40.2257 32.3249V31.4519C40.2257 31.377 40.165 31.3162 40.09 31.3162H40.0788C40.0039 31.3162 39.9432 31.3769 39.9432 31.4519V32.3249C39.9432 32.3998 39.8825 32.4605 39.8075 32.4605H39.8034C39.7285 32.4605 39.6678 32.3999 39.6678 32.3249V31.4519C39.6678 31.377 39.6071 31.3162 39.5321 31.3162H39.5209C39.446 31.3162 39.3853 31.3769 39.3853 31.4519V32.3249C39.3853 32.3998 39.3246 32.4605 39.2496 32.4605H39.2421C39.1672 32.4605 39.1064 32.3999 39.1064 32.3249V31.1729C39.1064 31.098 39.1671 31.0372 39.2421 31.0372H40.3725C40.4474 31.0372 40.5081 31.0979 40.5081 31.1729V31.4666C40.5081 31.5415 40.5687 31.6022 40.6437 31.6022H41.2057C41.2806 31.6022 41.3413 31.5416 41.3413 31.4666V31.4519C41.3413 31.377 41.2807 31.3162 41.2057 31.3162H40.919C40.8441 31.3162 40.7834 31.2556 40.7834 31.1806V31.1729C40.7837 31.0979 40.8444 31.0371 40.9193 31.0371Z" fill="#F5F5F5"/>
<path d="M38.6914 31.0371H38.6839C38.609 31.0371 38.5482 31.0978 38.5482 31.1728V31.4665C38.5482 31.5414 38.4876 31.6021 38.4126 31.6021H37.847C37.7721 31.6021 37.7113 31.5415 37.7113 31.4665V31.1728C37.7113 31.0979 37.6507 31.0371 37.5757 31.0371H36.4489C36.374 31.0371 36.3133 31.0978 36.3133 31.1728V31.7527C36.3133 31.8276 36.3739 31.8884 36.4489 31.8884H37.0144C37.0893 31.8884 37.15 31.8277 37.15 31.7527V31.7379C37.15 31.663 37.0894 31.6022 37.0144 31.6022H36.7277C36.6528 31.6022 36.5921 31.5416 36.5921 31.4666V31.4519C36.5921 31.377 36.6527 31.3162 36.7277 31.3162H37.2968C37.3717 31.3162 37.4324 31.3769 37.4324 31.4519V31.7527C37.4324 31.8276 37.4931 31.8884 37.5681 31.8884H38.6913C38.7662 31.8884 38.8269 31.8277 38.8269 31.7527V31.1728C38.8271 31.0979 38.7663 31.0371 38.6914 31.0371ZM38.1336 31.0371H38.1261C38.0512 31.0371 37.9904 31.0978 37.9904 31.1728V31.1805C37.9904 31.2554 38.0511 31.3161 38.1261 31.3161H38.1336C38.2085 31.3161 38.2692 31.2555 38.2692 31.1805V31.1728C38.2692 31.0979 38.2085 31.0371 38.1336 31.0371ZM38.6914 32.1743H35.3296C35.2547 32.1743 35.1939 32.235 35.1939 32.31V32.3248C35.1939 32.3997 35.2546 32.4604 35.3296 32.4604H38.6914C38.7663 32.4604 38.827 32.3998 38.827 32.3248V32.31C38.8271 32.235 38.7663 32.1743 38.6914 32.1743ZM35.3297 31.0371H35.8987C35.9736 31.0371 36.0344 31.0978 36.0344 31.1728V31.7527C36.0344 31.8276 35.9737 31.8884 35.8987 31.8884H35.0544C34.9795 31.8884 34.9187 31.949 34.9187 32.024V32.3249C34.9187 32.3998 34.8581 32.4605 34.7831 32.4605H34.7754C34.7005 32.4605 34.6397 32.3999 34.6397 32.3249V31.4519C34.6397 31.377 34.5791 31.3162 34.5041 31.3162H34.4929C34.418 31.3162 34.3572 31.3769 34.3572 31.4519V32.3249C34.3572 32.3998 34.2966 32.4605 34.2216 32.4605H34.2104C34.1354 32.4605 34.0747 32.3999 34.0747 32.3249V31.4519C34.0747 31.377 34.0141 31.3162 33.9391 31.3162H33.935C33.8601 31.3162 33.7993 31.3769 33.7993 31.4519V32.3249C33.7993 32.3998 33.7387 32.4605 33.6637 32.4605H33.6562C33.5813 32.4605 33.5205 32.3999 33.5205 32.3249V31.1729C33.5205 31.098 33.5812 31.0372 33.6562 31.0372H34.7831C34.858 31.0372 34.9187 31.0979 34.9187 31.1729V31.4666C34.9187 31.5415 34.9794 31.6022 35.0544 31.6022H35.6198C35.6947 31.6022 35.7555 31.5416 35.7555 31.4666V31.4519C35.7555 31.377 35.6948 31.3162 35.6198 31.3162H35.3295C35.2546 31.3162 35.1938 31.2556 35.1938 31.1806V31.1729C35.194 31.0979 35.2548 31.0371 35.3297 31.0371Z" fill="#F5F5F5"/>
<path d="M33.1065 31.0371H33.099C33.0241 31.0371 32.9634 31.0978 32.9634 31.1728V31.4665C32.9634 31.5414 32.9027 31.6021 32.8277 31.6021H32.2623C32.1874 31.6021 32.1267 31.5415 32.1267 31.4665V31.1728C32.1267 31.0979 32.066 31.0371 31.991 31.0371H30.8641C30.7892 31.0371 30.7284 31.0978 30.7284 31.1728V31.7527C30.7284 31.8276 30.7891 31.8884 30.8641 31.8884H31.4331C31.508 31.8884 31.5687 31.8277 31.5687 31.7527V31.7379C31.5687 31.663 31.5081 31.6022 31.4331 31.6022H31.1465C31.0716 31.6022 31.0108 31.5416 31.0108 31.4666V31.4519C31.0108 31.377 31.0715 31.3162 31.1465 31.3162H31.7119C31.7868 31.3162 31.8476 31.3769 31.8476 31.4519V31.7527C31.8476 31.8276 31.9082 31.8884 31.9832 31.8884H33.1064C33.1813 31.8884 33.2421 31.8277 33.2421 31.7527V31.1728C33.2421 31.0979 33.1813 31.0371 33.1065 31.0371ZM32.5486 31.0371H32.5411C32.4662 31.0371 32.4055 31.0978 32.4055 31.1728V31.1805C32.4055 31.2554 32.4661 31.3161 32.5411 31.3161H32.5486C32.6235 31.3161 32.6843 31.2555 32.6843 31.1805V31.1728C32.6842 31.0979 32.6235 31.0371 32.5486 31.0371ZM33.1065 32.1743H29.7483C29.6734 32.1743 29.6127 32.235 29.6127 32.31V32.3248C29.6127 32.3997 29.6733 32.4604 29.7483 32.4604H33.1065C33.1814 32.4604 33.2422 32.3998 33.2422 32.3248V32.31C33.2421 32.235 33.1813 32.1743 33.1065 32.1743ZM29.7483 31.0371H30.3174C30.3923 31.0371 30.453 31.0978 30.453 31.1728V31.7527C30.453 31.8276 30.3924 31.8884 30.3174 31.8884H29.4657C29.3908 31.8884 29.3301 31.949 29.3301 32.024V32.3249C29.3301 32.3998 29.2694 32.4605 29.1944 32.4605H29.1869C29.112 32.4605 29.0513 32.3999 29.0513 32.3249V31.4519C29.0513 31.377 28.9906 31.3162 28.9156 31.3162H28.9115C28.8366 31.3162 28.7759 31.3769 28.7759 31.4519V32.3249C28.7759 32.3998 28.7152 32.4605 28.6402 32.4605H28.629C28.5541 32.4605 28.4934 32.3999 28.4934 32.3249V31.4519C28.4934 31.377 28.4327 31.3162 28.3577 31.3162H28.35C28.2751 31.3162 28.2144 31.3769 28.2144 31.4519V32.3249C28.2144 32.3998 28.1537 32.4605 28.0787 32.4605H28.0712C27.9963 32.4605 27.9355 32.3999 27.9355 32.3249V31.1729C27.9355 31.098 27.9962 31.0372 28.0712 31.0372H29.1944C29.2693 31.0372 29.3301 31.0979 29.3301 31.1729V31.4666C29.3301 31.5415 29.3907 31.6022 29.4657 31.6022H30.0348C30.1097 31.6022 30.1704 31.5416 30.1704 31.4666V31.4519C30.1704 31.377 30.1098 31.3162 30.0348 31.3162H29.7481C29.6732 31.3162 29.6125 31.2556 29.6125 31.1806V31.1729C29.6128 31.0979 29.6734 31.0371 29.7483 31.0371Z" fill="#F5F5F5"/>
<path d="M27.5211 31.0371H27.5134C27.4385 31.0371 27.3777 31.0978 27.3777 31.1728V31.4665C27.3777 31.5414 27.3171 31.6021 27.2421 31.6021H26.6767C26.6018 31.6021 26.541 31.5415 26.541 31.4665V31.1728C26.541 31.0979 26.4804 31.0371 26.4054 31.0371H25.2784C25.2035 31.0371 25.1428 31.0978 25.1428 31.1728V31.7527C25.1428 31.8276 25.2034 31.8884 25.2784 31.8884H25.8475C25.9224 31.8884 25.9831 31.8277 25.9831 31.7527V31.7379C25.9831 31.663 25.9225 31.6022 25.8475 31.6022H25.5574C25.4825 31.6022 25.4218 31.5416 25.4218 31.4666V31.4519C25.4218 31.377 25.4824 31.3162 25.5574 31.3162H26.1228C26.1977 31.3162 26.2585 31.3769 26.2585 31.4519V31.7527C26.2585 31.8276 26.3191 31.8884 26.3941 31.8884H27.5211C27.596 31.8884 27.6567 31.8277 27.6567 31.7527V31.1728C27.6566 31.0979 27.596 31.0371 27.5211 31.0371ZM26.9596 31.0371H26.9555C26.8806 31.0371 26.8198 31.0978 26.8198 31.1728V31.1805C26.8198 31.2554 26.8805 31.3161 26.9555 31.3161H26.9596C27.0345 31.3161 27.0952 31.2555 27.0952 31.1805V31.1728C27.0952 31.0979 27.0345 31.0371 26.9596 31.0371ZM27.5211 32.1743H24.1593C24.0844 32.1743 24.0236 32.235 24.0236 32.31V32.3248C24.0236 32.3997 24.0843 32.4604 24.1593 32.4604H27.5211C27.596 32.4604 27.6567 32.3998 27.6567 32.3248V32.31C27.6566 32.235 27.596 32.1743 27.5211 32.1743ZM24.1592 31.0371H24.7282C24.8031 31.0371 24.8639 31.0978 24.8639 31.1728V31.7527C24.8639 31.8276 24.8032 31.8884 24.7282 31.8884H23.8802C23.8053 31.8884 23.7445 31.949 23.7445 32.024V32.3249C23.7445 32.3998 23.6839 32.4605 23.6089 32.4605H23.6014C23.5265 32.4605 23.4657 32.3999 23.4657 32.3249V31.4519C23.4657 31.377 23.4051 31.3162 23.3301 31.3162H23.3224C23.2475 31.3162 23.1867 31.3769 23.1867 31.4519V32.3249C23.1867 32.3998 23.1261 32.4605 23.0511 32.4605H23.0436C22.9687 32.4605 22.9079 32.3999 22.9079 32.3249V31.4519C22.9079 31.377 22.8473 31.3162 22.7723 31.3162H22.7647C22.6898 31.3162 22.6291 31.3769 22.6291 31.4519V32.3249C22.6291 32.3998 22.5685 32.4605 22.4935 32.4605H22.4857C22.4108 32.4605 22.3501 32.3999 22.3501 32.3249V31.1729C22.3501 31.098 22.4107 31.0372 22.4857 31.0372H23.609C23.6839 31.0372 23.7446 31.0979 23.7446 31.1729V31.4666C23.7446 31.5415 23.8053 31.6022 23.8803 31.6022H24.4493C24.5242 31.6022 24.585 31.5416 24.585 31.4666V31.4519C24.585 31.377 24.5243 31.3162 24.4493 31.3162H24.1593C24.0844 31.3162 24.0236 31.2556 24.0236 31.1806V31.1729C24.0236 31.0979 24.0843 31.0371 24.1592 31.0371Z" fill="#F5F5F5"/>
<path d="M21.9361 31.0371H21.9284C21.8535 31.0371 21.7928 31.0978 21.7928 31.1728V31.4665C21.7928 31.5414 21.7321 31.6021 21.6571 31.6021H21.0917C21.0168 31.6021 20.956 31.5415 20.956 31.4665V31.1728C20.956 31.0979 20.8954 31.0371 20.8204 31.0371H19.6935C19.6185 31.0371 19.5578 31.0978 19.5578 31.1728V31.7527C19.5578 31.8276 19.6185 31.8884 19.6935 31.8884H20.2591C20.334 31.8884 20.3947 31.8277 20.3947 31.7527V31.7379C20.3947 31.663 20.3341 31.6022 20.2591 31.6022H19.976C19.9011 31.6022 19.8403 31.5416 19.8403 31.4666V31.4519C19.8403 31.377 19.901 31.3162 19.976 31.3162H20.5379C20.6128 31.3162 20.6735 31.3769 20.6735 31.4519V31.7527C20.6735 31.8276 20.7342 31.8884 20.8092 31.8884H21.9361C22.011 31.8884 22.0718 31.8277 22.0718 31.7527V31.1728C22.0718 31.0979 22.011 31.0371 21.9361 31.0371ZM21.3747 31.0371H21.3706C21.2957 31.0371 21.235 31.0978 21.235 31.1728V31.1805C21.235 31.2554 21.2956 31.3161 21.3706 31.3161H21.3747C21.4496 31.3161 21.5103 31.2555 21.5103 31.1805V31.1728C21.5102 31.0979 21.4496 31.0371 21.3747 31.0371ZM21.9361 32.1743H18.5743C18.4994 32.1743 18.4387 32.235 18.4387 32.31V32.3248C18.4387 32.3997 18.4993 32.4604 18.5743 32.4604H21.936C22.0109 32.4604 22.0717 32.3998 22.0717 32.3248V32.31C22.0718 32.235 22.011 32.1743 21.9361 32.1743ZM18.5743 31.0371H19.1397C19.2146 31.0371 19.2754 31.0978 19.2754 31.1728V31.7527C19.2754 31.8276 19.2147 31.8884 19.1397 31.8884H18.2954C18.2205 31.8884 18.1598 31.949 18.1598 32.024V32.3249C18.1598 32.3998 18.0991 32.4605 18.0241 32.4605H18.0164C17.9415 32.4605 17.8808 32.3999 17.8808 32.3249V31.4519C17.8808 31.377 17.8201 31.3162 17.7451 31.3162H17.7376C17.6627 31.3162 17.602 31.3769 17.602 31.4519V32.3249C17.602 32.3998 17.5413 32.4605 17.4663 32.4605H17.4586C17.3837 32.4605 17.3229 32.3999 17.3229 32.3249V31.4519C17.3229 31.377 17.2623 31.3162 17.1873 31.3162H17.1798C17.1049 31.3162 17.0441 31.3769 17.0441 31.4519V32.3249C17.0441 32.3998 16.9835 32.4605 16.9085 32.4605H16.9008C16.8259 32.4605 16.7651 32.3999 16.7651 32.3249V31.1729C16.7651 31.098 16.8258 31.0372 16.9008 31.0372H18.0243C18.0992 31.0372 18.16 31.0979 18.16 31.1729V31.4666C18.16 31.5415 18.2206 31.6022 18.2956 31.6022H18.8645C18.9394 31.6022 19.0002 31.5416 19.0002 31.4666V31.4519C19.0002 31.377 18.9395 31.3162 18.8645 31.3162H18.5745C18.4996 31.3162 18.4389 31.2556 18.4389 31.1806V31.1729C18.4387 31.0979 18.4995 31.0371 18.5743 31.0371Z" fill="#F5F5F5"/>
<path d="M16.3503 31.0371H16.3426C16.2677 31.0371 16.2069 31.0978 16.2069 31.1728V31.4665C16.2069 31.5414 16.1463 31.6021 16.0713 31.6021H15.5023C15.4274 31.6021 15.3667 31.5415 15.3667 31.4665V31.1728C15.3667 31.0979 15.306 31.0371 15.231 31.0371H14.1075C14.0326 31.0371 13.9719 31.0978 13.9719 31.1728V31.7527C13.9719 31.8276 14.0325 31.8884 14.1075 31.8884H14.6731C14.748 31.8884 14.8088 31.8277 14.8088 31.7527V31.7379C14.8088 31.663 14.7481 31.6022 14.6731 31.6022H14.3828C14.3079 31.6022 14.2472 31.5416 14.2472 31.4666V31.4519C14.2472 31.377 14.3078 31.3162 14.3828 31.3162H14.9556C15.0305 31.3162 15.0912 31.3769 15.0912 31.4519V31.7527C15.0912 31.8276 15.1518 31.8884 15.2268 31.8884H16.3501C16.425 31.8884 16.4857 31.8277 16.4857 31.7527V31.1728C16.4858 31.0979 16.4252 31.0371 16.3503 31.0371ZM15.7924 31.0371H15.7811C15.7062 31.0371 15.6455 31.0978 15.6455 31.1728V31.1805C15.6455 31.2554 15.7061 31.3161 15.7811 31.3161H15.7924C15.8673 31.3161 15.928 31.2555 15.928 31.1805V31.1728C15.928 31.0979 15.8673 31.0371 15.7924 31.0371ZM16.3503 32.1743H12.9886C12.9137 32.1743 12.8529 32.235 12.8529 32.31V32.3248C12.8529 32.3997 12.9136 32.4604 12.9886 32.4604H16.3503C16.4252 32.4604 16.4859 32.3998 16.4859 32.3248V32.31C16.4858 32.235 16.4252 32.1743 16.3503 32.1743ZM12.9884 31.0371H13.5538C13.6287 31.0371 13.6894 31.0978 13.6894 31.1728V31.7527C13.6894 31.8276 13.6288 31.8884 13.5538 31.8884H12.7095C12.6346 31.8884 12.5738 31.949 12.5738 32.024V32.3249C12.5738 32.3998 12.5132 32.4605 12.4382 32.4605H12.4305C12.3556 32.4605 12.2948 32.3999 12.2948 32.3249V31.4519C12.2948 31.377 12.2342 31.3162 12.1592 31.3162H12.1517C12.0768 31.3162 12.016 31.3769 12.016 31.4519V32.3249C12.016 32.3998 11.9554 32.4605 11.8804 32.4605H11.8727C11.7978 32.4605 11.737 32.3999 11.737 32.3249V31.4519C11.737 31.377 11.6764 31.3162 11.6014 31.3162H11.5901C11.5152 31.3162 11.4545 31.3769 11.4545 31.4519V32.3249C11.4545 32.3998 11.3938 32.4605 11.3188 32.4605H11.3148C11.2399 32.4605 11.1792 32.3999 11.1792 32.3249V31.1729C11.1792 31.098 11.2398 31.0372 11.3148 31.0372H12.4381C12.513 31.0372 12.5737 31.0979 12.5737 31.1729V31.4666C12.5737 31.5415 12.6344 31.6022 12.7094 31.6022H13.2713C13.3462 31.6022 13.4069 31.5416 13.4069 31.4666V31.4519C13.4069 31.377 13.3463 31.3162 13.2713 31.3162H12.9882C12.9133 31.3162 12.8525 31.2556 12.8525 31.1806V31.1729C12.8528 31.0979 12.9135 31.0371 12.9884 31.0371Z" fill="#F5F5F5"/>
<path d="M10.7613 31.0371H10.7572C10.6823 31.0371 10.6216 31.0978 10.6216 31.1728V31.4665C10.6216 31.5414 10.5609 31.6021 10.4859 31.6021H9.9203C9.8454 31.6021 9.78466 31.5415 9.78466 31.4665V31.1728C9.78466 31.0979 9.72402 31.0371 9.64902 31.0371H8.52245C8.44755 31.0371 8.38681 31.0978 8.38681 31.1728V31.7527C8.38681 31.8276 8.44745 31.8884 8.52245 31.8884H9.08417C9.15907 31.8884 9.21982 31.8277 9.21982 31.7527V31.7379C9.21982 31.663 9.15917 31.6022 9.08417 31.6022H8.79775C8.72285 31.6022 8.6621 31.5416 8.6621 31.4666V31.4519C8.6621 31.377 8.72275 31.3162 8.79775 31.3162H9.36679C9.44169 31.3162 9.50243 31.3769 9.50243 31.4519V31.7527C9.50243 31.8276 9.56308 31.8884 9.63808 31.8884H10.7616C10.8365 31.8884 10.8973 31.8277 10.8973 31.7527V31.1728C10.8971 31.0979 10.8362 31.0371 10.7613 31.0371ZM10.2035 31.0371H10.1958C10.1209 31.0371 10.0601 31.0978 10.0601 31.1728V31.1805C10.0601 31.2554 10.1208 31.3161 10.1958 31.3161H10.2035C10.2784 31.3161 10.3392 31.2555 10.3392 31.1805V31.1728C10.3392 31.0979 10.2784 31.0371 10.2035 31.0371ZM10.7613 32.1743H7.39599C7.32109 32.1743 7.26035 32.235 7.26035 32.31V32.3248C7.26035 32.3997 7.32099 32.4604 7.39599 32.4604H10.7614C10.8363 32.4604 10.8971 32.3998 10.8971 32.3248V32.31C10.8971 32.235 10.8362 32.1743 10.7613 32.1743ZM7.39599 31.0371H7.96875C8.04365 31.0371 8.10439 31.0978 8.10439 31.1728V31.7527C8.10439 31.8276 8.04375 31.8884 7.96875 31.8884H7.12422C7.04931 31.8884 6.98857 31.949 6.98857 32.024V32.3249C6.98857 32.3998 6.92793 32.4605 6.85293 32.4605H6.8417C6.76679 32.4605 6.70605 32.3999 6.70605 32.3249V31.4519C6.70605 31.377 6.64541 31.3162 6.57041 31.3162H6.56289C6.48799 31.3162 6.42724 31.3769 6.42724 31.4519V32.3249C6.42724 32.3998 6.3666 32.4605 6.2916 32.4605H6.2875C6.2126 32.4605 6.15185 32.3999 6.15185 32.3249V31.4519C6.15185 31.377 6.09121 31.3162 6.01621 31.3162H6.00498C5.93008 31.3162 5.86934 31.3769 5.86934 31.4519V32.3249C5.86934 32.3998 5.80869 32.4605 5.73369 32.4605H5.72598C5.65107 32.4605 5.59033 32.3999 5.59033 32.3249V31.1729C5.59033 31.098 5.65098 31.0372 5.72598 31.0372H6.85293C6.92783 31.0372 6.98857 31.0979 6.98857 31.1729V31.4666C6.98857 31.5415 7.04922 31.6022 7.12422 31.6022H7.68964C7.76455 31.6022 7.82529 31.5416 7.82529 31.4666V31.4519C7.82529 31.377 7.76464 31.3162 7.68964 31.3162H7.39619C7.32129 31.3162 7.26054 31.2556 7.26054 31.1806V31.1729C7.26025 31.0979 7.32109 31.0371 7.39599 31.0371Z" fill="#F5F5F5"/>
<path d="M5.17636 31.0371H5.16864C5.09374 31.0371 5.033 31.0978 5.033 31.1728V31.4665C5.033 31.5414 4.97235 31.6021 4.89735 31.6021H4.33193C4.25702 31.6021 4.19628 31.5415 4.19628 31.4665V31.1728C4.19628 31.0979 4.13564 31.0371 4.06064 31.0371H2.93378C2.85888 31.0371 2.79814 31.0978 2.79814 31.1728V31.7527C2.79814 31.8276 2.85878 31.8884 2.93378 31.8884H3.4957C3.5706 31.8884 3.63134 31.8277 3.63134 31.7527V31.7379C3.63134 31.663 3.5707 31.6022 3.4957 31.6022H3.20908C3.13417 31.6022 3.07343 31.5416 3.07343 31.4666V31.4519C3.07343 31.377 3.13408 31.3162 3.20908 31.3162H3.78183C3.85673 31.3162 3.91747 31.3769 3.91747 31.4519V31.7527C3.91747 31.8276 3.97812 31.8884 4.05312 31.8884H5.17636C5.25126 31.8884 5.312 31.8277 5.312 31.7527V31.1728C5.312 31.0979 5.25126 31.0371 5.17636 31.0371ZM4.61855 31.0371H4.61083C4.53593 31.0371 4.47519 31.0978 4.47519 31.1728V31.1805C4.47519 31.2554 4.53583 31.3161 4.61083 31.3161H4.61855C4.69345 31.3161 4.75419 31.2555 4.75419 31.1805V31.1728C4.75409 31.0979 4.69345 31.0371 4.61855 31.0371ZM5.17636 32.1743H1.81826C1.74336 32.1743 1.68261 32.235 1.68261 32.31V32.3248C1.68261 32.3997 1.74326 32.4604 1.81826 32.4604H5.17646C5.25136 32.4604 5.3121 32.3998 5.3121 32.3248V32.31C5.312 32.235 5.25126 32.1743 5.17636 32.1743ZM1.81826 31.0371H2.38369C2.45859 31.0371 2.51933 31.0978 2.51933 31.1728V31.7527C2.51933 31.8276 2.45869 31.8884 2.38369 31.8884H1.53222C1.45732 31.8884 1.39658 31.949 1.39658 32.024V32.3249C1.39658 32.3998 1.33594 32.4605 1.26094 32.4605H1.26054C1.18564 32.4605 1.1249 32.3999 1.1249 32.3249V31.4519C1.1249 31.377 1.06426 31.3162 0.989256 31.3162H0.974217C0.899315 31.3162 0.838573 31.3769 0.838573 31.4519V32.3249C0.838573 32.3998 0.777928 32.4605 0.702928 32.4605H0.702635C0.627733 32.4605 0.566991 32.3999 0.566991 32.3249V31.4519C0.566991 31.377 0.506347 31.3162 0.431347 31.3162H0.423534C0.348632 31.3162 0.28789 31.3769 0.28789 31.4519V32.3249C0.28789 32.3998 0.227246 32.4605 0.152246 32.4605H0.137597C0.0626952 32.4605 0.00195312 32.3999 0.00195312 32.3249V31.1729C0.00195312 31.098 0.0625976 31.0372 0.137597 31.0372H1.26084C1.33574 31.0372 1.39648 31.0979 1.39648 31.1729V31.4666C1.39648 31.5415 1.45713 31.6022 1.53213 31.6022H2.10478C2.17968 31.6022 2.24043 31.5416 2.24043 31.4666V31.4519C2.24043 31.377 2.17978 31.3162 2.10478 31.3162H1.81836C1.74345 31.3162 1.68271 31.2556 1.68271 31.1806V31.1729C1.68261 31.0979 1.74336 31.0371 1.81826 31.0371Z" fill="#F5F5F5"/>
<path d="M49.8661 30.1719H47.6236C47.5487 30.1719 47.488 30.2325 47.488 30.3075V30.6084C47.488 30.6833 47.5486 30.744 47.6236 30.744H49.8661C49.941 30.744 50.0018 30.6834 50.0018 30.6084V30.3075C50.0018 30.2325 49.9411 30.1719 49.8661 30.1719ZM47.0699 30.1719H44.831C44.7561 30.1719 44.6953 30.2325 44.6953 30.3075V30.6084C44.6953 30.6833 44.756 30.744 44.831 30.744H47.0699C47.1448 30.744 47.2056 30.6834 47.2056 30.6084V30.3075C47.2056 30.2325 47.1448 30.1719 47.0699 30.1719Z" fill="#F5F5F5"/>
<path d="M44.2773 30.1719H42.0384C41.9635 30.1719 41.9027 30.2325 41.9027 30.3075V30.6084C41.9027 30.6833 41.9634 30.744 42.0384 30.744H44.2773C44.3522 30.744 44.413 30.6834 44.413 30.6084V30.3075C44.4129 30.2325 44.3521 30.1719 44.2773 30.1719ZM41.4882 30.1719H39.2421C39.1672 30.1719 39.1064 30.2325 39.1064 30.3075V30.6084C39.1064 30.6833 39.1671 30.744 39.2421 30.744H41.4882C41.5631 30.744 41.6238 30.6834 41.6238 30.6084V30.3075C41.6238 30.2325 41.5632 30.1719 41.4882 30.1719Z" fill="#F5F5F5"/>
<path d="M38.6917 30.1719H36.4492C36.3743 30.1719 36.3136 30.2325 36.3136 30.3075V30.6084C36.3136 30.6833 36.3742 30.744 36.4492 30.744H38.6917C38.7666 30.744 38.8273 30.6834 38.8273 30.6084V30.3075C38.8274 30.2325 38.7666 30.1719 38.6917 30.1719ZM35.8991 30.1719H33.6566C33.5817 30.1719 33.521 30.2325 33.521 30.3075V30.6084C33.521 30.6833 33.5816 30.744 33.6566 30.744H35.8991C35.974 30.744 36.0348 30.6834 36.0348 30.6084V30.3075C36.0348 30.2325 35.9739 30.1719 35.8991 30.1719Z" fill="#F5F5F5"/>
<path d="M33.1064 30.1719H30.864C30.7891 30.1719 30.7283 30.2325 30.7283 30.3075V30.6084C30.7283 30.6833 30.789 30.744 30.864 30.744H33.1064C33.1813 30.744 33.2421 30.6834 33.2421 30.6084V30.3075C33.242 30.2325 33.1812 30.1719 33.1064 30.1719ZM30.3173 30.1719H28.0712C27.9963 30.1719 27.9355 30.2325 27.9355 30.3075V30.6084C27.9355 30.6833 27.9962 30.744 28.0712 30.744H30.3173C30.3922 30.744 30.4529 30.6834 30.4529 30.6084V30.3075C30.4529 30.2325 30.3923 30.1719 30.3173 30.1719Z" fill="#F5F5F5"/>
<path d="M27.5211 30.1719H25.2784C25.2035 30.1719 25.1428 30.2325 25.1428 30.3075V30.6084C25.1428 30.6833 25.2034 30.744 25.2784 30.744H27.5211C27.596 30.744 27.6567 30.6834 27.6567 30.6084V30.3075C27.6566 30.2325 27.596 30.1719 27.5211 30.1719ZM24.7284 30.1719H22.4857C22.4108 30.1719 22.3501 30.2325 22.3501 30.3075V30.6084C22.3501 30.6833 22.4107 30.744 22.4857 30.744H24.7284C24.8033 30.744 24.8641 30.6834 24.8641 30.6084V30.3075C24.864 30.2325 24.8033 30.1719 24.7284 30.1719Z" fill="#F5F5F5"/>
<path d="M21.9361 30.1719H19.6935C19.6185 30.1719 19.5578 30.2325 19.5578 30.3075V30.6084C19.5578 30.6833 19.6185 30.744 19.6935 30.744H21.9361C22.011 30.744 22.0718 30.6834 22.0718 30.6084V30.3075C22.0718 30.2325 22.011 30.1719 21.9361 30.1719ZM19.1397 30.1719H16.9008C16.8259 30.1719 16.7651 30.2325 16.7651 30.3075V30.6084C16.7651 30.6833 16.8258 30.744 16.9008 30.744H19.1397C19.2146 30.744 19.2754 30.6834 19.2754 30.6084V30.3075C19.2754 30.2325 19.2146 30.1719 19.1397 30.1719Z" fill="#F5F5F5"/>
<path d="M16.3505 30.1719H14.1078C14.0329 30.1719 13.9722 30.2325 13.9722 30.3075V30.6084C13.9722 30.6833 14.0328 30.744 14.1078 30.744H16.3505C16.4254 30.744 16.4861 30.6834 16.4861 30.6084V30.3075C16.486 30.2325 16.4254 30.1719 16.3505 30.1719ZM13.5541 30.1719H11.3153C11.2404 30.1719 11.1797 30.2325 11.1797 30.3075V30.6084C11.1797 30.6833 11.2403 30.744 11.3153 30.744H13.5541C13.629 30.744 13.6897 30.6834 13.6897 30.6084V30.3075C13.6896 30.2325 13.629 30.1719 13.5541 30.1719Z" fill="#F5F5F5"/>
<path d="M10.7613 30.1719H8.52245C8.44755 30.1719 8.38681 30.2325 8.38681 30.3075V30.6084C8.38681 30.6833 8.44745 30.744 8.52245 30.744H10.7614C10.8363 30.744 10.8971 30.6834 10.8971 30.6084V30.3075C10.8971 30.2325 10.8362 30.1719 10.7613 30.1719ZM7.96865 30.1719H5.72598C5.65107 30.1719 5.59033 30.2325 5.59033 30.3075V30.6084C5.59033 30.6833 5.65098 30.744 5.72598 30.744H7.96865C8.04355 30.744 8.10429 30.6834 8.10429 30.6084V30.3075C8.10429 30.2325 8.04355 30.1719 7.96865 30.1719Z" fill="#F5F5F5"/>
<path d="M5.17636 30.1719H2.93378C2.85888 30.1719 2.79814 30.2325 2.79814 30.3075V30.6084C2.79814 30.6833 2.85878 30.744 2.93378 30.744H5.17646C5.25136 30.744 5.3121 30.6834 5.3121 30.6084V30.3075C5.312 30.2325 5.25126 30.1719 5.17636 30.1719ZM2.38359 30.1719H0.137597C0.0625976 30.1719 0.00195312 30.2325 0.00195312 30.3075V30.6084C0.00195312 30.6833 0.0625976 30.744 0.137597 30.744H2.38369C2.45859 30.744 2.51933 30.6834 2.51933 30.6084V30.3075C2.51933 30.2325 2.45859 30.1719 2.38359 30.1719Z" fill="#F5F5F5"/>
<path d="M24.2864 20.9257C24.5421 20.9939 24.8152 20.9188 25.0027 20.7278C25.2857 21.0144 25.7494 21.0212 26.0428 20.7416C26.2338 20.5574 26.3122 20.2777 26.244 20.0254C25.9951 20.4278 25.47 20.5574 25.0676 20.305C25.0471 20.2912 25.0198 20.2776 25.0029 20.264C24.6244 20.5436 24.0891 20.4686 23.8026 20.0936C23.7922 20.073 23.7719 20.0457 23.7581 20.0254C23.6557 20.4212 23.8944 20.8302 24.2864 20.9257Z" fill="#FF4B55"/>
<path d="M25.8752 28.8927C26.7918 28.3894 27.5567 27.5966 27.9762 26.5522C28.6904 24.7622 28.2406 22.7417 26.8743 21.4311C26.8273 21.3861 26.756 21.4464 26.79 21.5018C28.1376 23.6994 27.6067 26.5872 25.5215 28.1696L25.6212 21.7861C25.6226 21.6995 25.5839 21.617 25.5166 21.5624L25.1775 21.2883C25.0735 21.2043 24.9251 21.2048 24.8218 21.2892L24.4876 21.5624C24.4209 21.6169 24.3828 21.6989 24.3842 21.785L24.4811 28.173C22.3955 26.5914 21.8635 23.701 23.209 21.5019C23.243 21.4465 23.1716 21.3862 23.1247 21.4313C21.7611 22.7419 21.3084 24.7623 22.0226 26.5522C22.442 27.5964 23.2068 28.3893 24.1237 28.8926C23.5402 29.0926 22.927 29.1986 22.3069 29.1808C22.2413 29.179 22.2281 29.2712 22.2909 29.2901C23.0788 29.5293 23.8892 29.5457 24.6511 29.3749L24.9502 29.9552C24.9709 29.9953 25.0282 29.9955 25.049 29.9553L25.3502 29.3752C26.1121 29.5457 26.9228 29.529 27.7112 29.2898C27.7739 29.2709 27.7608 29.1787 27.6953 29.1805C27.0744 29.1986 26.4597 29.0926 25.8752 28.8927Z" fill="#FF4B55"/>
<path d="M29.606 22.9586C29.1368 22.0821 28.3577 21.4177 27.4303 21.0923C27.3722 21.0718 27.3269 21.1486 27.3743 21.1878C29.4218 22.8744 29.8322 25.8784 28.2489 28.0532C28.167 28.1624 28.0783 28.2783 27.9931 28.3736C29.9369 27.3301 30.6564 24.9023 29.606 22.9586Z" fill="#FF4B55"/>
<path d="M21.753 28.0531C20.1696 25.8783 20.5769 22.8744 22.6239 21.1877C22.6715 21.1485 22.6261 21.0719 22.568 21.0922C21.6417 21.4178 20.868 22.082 20.3958 22.9584C19.3388 24.9022 20.0652 27.33 22.0122 28.3734C21.9202 28.2781 21.8316 28.1622 21.753 28.0531Z" fill="#FF4B55"/>
</g>
<defs>
<clipPath id="clip0_106_19036">
<rect width="50" height="50" fill="white"/>
</clipPath>
</defs>
</svg>
