<svg width="50" height="50" viewBox="0 0 50 50" fill="none" xmlns="http://www.w3.org/2000/svg">
<g clip-path="url(#clip0_106_19024)">
<path d="M50.0009 19.5407H0.000976562V9.4832C0.000976562 9.00713 0.387011 8.62109 0.863084 8.62109H49.1389C49.6149 8.62109 50.001 9.00713 50.001 9.4832L50.0009 19.5407Z" fill="#FF4B55"/>
<path d="M49.1388 41.3795H0.863084C0.387011 41.3795 0.000976562 40.9934 0.000976562 40.5174V30.46H50.0009V40.5174C50.0009 40.9935 49.6148 41.3795 49.1388 41.3795Z" fill="#464655"/>
<path d="M50.0009 19.54H0.000976562V30.459H50.0009V19.54Z" fill="#F5F5F5"/>
<path d="M30.0853 22.8051C29.9946 22.7579 29.8873 22.5892 29.9208 22.5154C29.9561 22.4379 29.9012 22.4446 30.0864 22.4996C30.4214 22.5864 30.6382 22.5468 30.851 22.3656L31.0402 22.2159L31.261 22.3263C31.383 22.3814 31.5091 22.4207 31.5446 22.4128C31.6471 22.3892 31.8444 22.1369 31.8403 22.0502C31.8362 21.9323 31.923 21.9637 31.9663 22.0898C32.057 22.3263 31.8903 22.7342 31.6617 22.7894C31.5516 22.8208 31.449 22.813 31.2755 22.7579C31.0706 22.679 31.039 22.679 30.9288 22.7579C30.7001 22.9392 30.373 22.9551 30.0853 22.8051Z" fill="#73AF00"/>
<path d="M30.9481 21.8931C30.8375 21.7381 30.7046 21.1959 30.7435 21.0631C30.7821 20.9413 30.8208 20.9192 30.9259 20.9524C31.1141 21.0187 31.1585 21.1406 31.1362 21.5835C31.103 21.9152 31.0589 22.026 30.9481 21.8931Z" fill="#73AF00"/>
<path d="M23.5364 24.2901C23.0822 24.5485 22.4066 24.5929 22.4066 25.309C21.4174 25.3458 20.2508 25.3902 19.1986 25.368C19.4838 24.9996 21.2886 23.3316 22.0391 22.6704C22.1633 22.5611 22.2055 22.3493 22.1332 22.2004L22.1138 22.1604C22.0056 21.9372 21.7112 21.8841 21.5319 22.0555C20.7841 22.7709 20.043 23.4375 19.9223 23.5518C18.9541 24.5303 18.6701 24.8154 18.518 24.9686C18.4097 25.0777 18.3494 25.225 18.3502 25.3787V25.3888C18.352 25.7081 18.6112 25.966 18.9305 25.966H23.1669C23.4069 25.966 23.1117 25.1318 23.4217 25.1318C23.6372 25.1318 23.657 25.4311 23.6476 25.7482C23.6403 25.9894 23.4416 26.1802 23.2004 26.1805C21.3688 26.183 19.4622 26.2005 17.6681 26.2022C17.5199 26.2023 17.401 26.082 17.401 25.9338V25.611C17.401 25.3374 17.0971 25.1783 16.8684 25.3285C16.86 25.334 16.8518 25.3393 16.8436 25.3444C16.724 25.4191 16.6629 25.5653 16.7096 25.6983C16.7399 25.7846 16.753 25.8897 16.7559 25.9995C16.7598 26.1447 16.6415 26.2645 16.4963 26.269C15.9029 26.2871 15.2581 26.2925 15.075 25.9426C14.9717 25.7453 14.7519 25.6522 14.5526 25.7518L14.5261 25.7651C14.3163 25.8699 14.2323 26.1294 14.3472 26.3338C14.5657 26.7224 14.7652 27.1732 14.6616 27.8045C14.5773 28.0034 14.4183 28.128 14.246 28.2401C14.0546 28.3648 14.1747 28.6564 14.3992 28.6149C14.9436 28.5143 15.3187 28.0834 15.4334 27.5756H23.8728C24.1823 27.5756 24.4333 27.3246 24.4333 27.0151V25.1836C24.356 24.6371 23.7689 24.6593 23.5364 24.2901Z" fill="#73AF00"/>
<path d="M34.2411 21.8703C34.3656 21.9504 34.4903 22.0305 34.6293 22.0967C34.7812 22.1693 34.8394 22.3548 34.7505 22.4978C34.727 22.5356 34.7074 22.5779 34.6962 22.6293V26.2618C34.9444 26.3134 35.0869 26.2645 35.2001 26.1865C35.3278 26.0984 35.5005 26.1625 35.5408 26.3123C35.6265 26.6309 35.7667 26.9421 35.8415 27.2255C35.8883 27.4026 35.7553 27.5759 35.5721 27.5759H34.149C34.023 27.5759 33.9209 27.4738 33.9209 27.3478V22.0451C33.9208 21.8807 34.1028 21.7813 34.2411 21.8703Z" fill="#73AF00"/>
<path d="M32.518 22.7546C32.5191 23.7576 32.5308 24.8381 32.5325 25.9133C32.5327 26.0526 32.4197 26.1655 32.2803 26.1655H32.264C32.1249 26.1655 32.0121 26.0527 32.0121 25.9135V23.3657C32.0121 23.227 31.8491 23.1529 31.7448 23.2441L31.4108 23.5327C31.3425 23.5917 31.3032 23.6765 31.3029 23.7668C31.3018 24.1812 31.2981 25.3879 31.2967 25.9146C31.2963 26.0534 31.1836 26.1655 31.0447 26.1655H31.0219C30.8834 26.1655 30.7709 26.0543 30.7699 25.9158C30.7675 25.5651 30.7632 24.9152 30.7614 24.4277C30.7608 24.2875 30.595 24.2142 30.4895 24.3066C30.1435 24.6098 30.0637 24.6784 29.8821 24.866C29.8969 24.962 29.9708 24.866 30.015 24.9397V25.4271C28.7545 25.1898 28.6604 26.1968 28.7076 27.2773C28.7147 27.4397 28.848 27.5681 29.0105 27.5681H32.9681C33.1149 27.5681 33.2339 27.4492 33.2339 27.3024V22.3824C33.2339 22.218 33.0388 22.1337 32.9176 22.2447C32.8209 22.3332 32.7176 22.4218 32.629 22.5019C32.5579 22.5669 32.5179 22.6581 32.518 22.7546ZM29.6055 26.1287C29.528 25.9071 29.9637 25.8258 30.0152 26.0254C30.0337 26.2689 29.7015 26.2763 29.6055 26.1287Z" fill="#73AF00"/>
<path d="M16.5336 27.9668C16.685 27.9668 16.8067 28.0924 16.8067 28.2399C16.8067 28.3951 16.685 28.5132 16.5336 28.5132C16.3786 28.5132 16.2529 28.3951 16.2529 28.2399C16.253 28.0924 16.3787 27.9668 16.5336 27.9668Z" fill="#73AF00"/>
<path d="M25.532 21.9816C25.606 22.026 25.6819 22.0685 25.7629 22.1067C25.909 22.1757 25.9666 22.3573 25.8772 22.492C25.8504 22.5325 25.8274 22.5785 25.814 22.6367V26.2618C26.077 26.3203 26.2209 26.2629 26.3356 26.1781C26.4499 26.0936 26.6144 26.152 26.651 26.2892C26.7167 26.5353 26.8155 26.7787 26.8918 27.0097C26.9852 27.2922 26.7756 27.5834 26.478 27.5834H25.368C25.1882 27.5834 25.0425 27.4377 25.0425 27.2578V22.2624C25.0425 22.0112 25.3166 21.8522 25.532 21.9816Z" fill="#73AF00"/>
</g>
<defs>
<clipPath id="clip0_106_19024">
<rect width="50" height="50" fill="white"/>
</clipPath>
</defs>
</svg>
