<svg width="50" height="50" viewBox="0 0 50 50" fill="none" xmlns="http://www.w3.org/2000/svg">
<g clip-path="url(#clip0_106_18960)">
<path d="M49.1368 41.3797H0.861131C0.385058 41.3797 -0.000976562 40.9937 -0.000976562 40.5176V9.4832C-0.000976562 9.00713 0.385058 8.62109 0.861131 8.62109H49.1369C49.613 8.62109 49.999 9.00713 49.999 9.4832V40.5176C49.9989 40.9938 49.6129 41.3797 49.1368 41.3797Z" fill="#FF4B55"/>
<path d="M25.1226 25.0373L24.8838 25.1752C24.4701 24.5795 24.4928 23.1225 24.4928 23.1059C24.4971 23.0627 24.4712 23.0237 24.4323 23.0065L22.6426 22.2232L22.6528 22.0395C23.5861 22.1472 24.6651 22.5813 24.6801 22.5888C24.7168 22.6119 24.7632 22.6062 24.796 22.5791L26.2811 21.3408L26.6008 21.6265C26.1377 22.1952 25.011 22.9809 24.9965 22.989C24.9566 23.0062 24.9352 23.0477 24.939 23.09L25.1226 25.0373Z" fill="#FFE15A"/>
<path d="M31.617 16.2146C31.6534 16.2333 31.6973 16.2297 31.7303 16.2053L32.1184 15.918L31.9951 16.2762C31.9813 16.3169 31.9933 16.3624 32.0253 16.3919L32.208 16.5552C32.1537 16.6469 32.1322 16.7597 32.1301 16.8773L31.8593 17.0148C31.8363 17.0266 31.8183 17.0461 31.8083 17.0699L31.6063 17.5589L31.4957 17.1534C31.4814 17.1 31.4307 17.0674 31.377 17.0747L30.8896 17.1413L31.2853 16.6933C31.3064 16.6692 31.3157 16.6372 31.311 16.6059L31.2229 16.0142L31.617 16.2146Z" fill="#FFE15A"/>
<path d="M27.2023 32.1815C27.1684 32.2043 27.1502 32.2443 27.1555 32.2851L27.2183 32.7637L26.9649 32.482C26.936 32.4501 26.8905 32.4386 26.8491 32.4522L26.6177 32.5327C26.5639 32.4408 26.4757 32.3672 26.3738 32.3083L26.3851 32.0049C26.3859 31.9791 26.3776 31.9538 26.3617 31.9336L26.0322 31.5197L26.4404 31.6197C26.4939 31.6332 26.5473 31.6045 26.5668 31.5541L26.745 31.0957L26.9448 31.659C26.9556 31.6892 26.979 31.7128 27.0087 31.7239L27.5688 31.9341L27.2023 32.1815Z" fill="#FFE15A"/>
<path d="M15.3494 20.9569C15.3442 20.9164 15.3164 20.8822 15.2776 20.8688L14.8213 20.7111L15.1865 20.6104C15.2279 20.5987 15.2587 20.5632 15.2648 20.52L15.2962 20.2771C15.4024 20.27 15.5077 20.2239 15.606 20.1592L15.8725 20.3049C15.8951 20.3172 15.9214 20.3211 15.9467 20.3157L16.4643 20.206L16.1924 20.5265C16.1563 20.5684 16.1582 20.6287 16.1946 20.6688L16.5251 21.0332L15.9319 20.9603C15.9001 20.9563 15.8686 20.9668 15.8452 20.9884L15.4069 21.3956L15.3494 20.9569Z" fill="#FFE15A"/>
<path d="M24.8423 35.6094C24.5787 36.1408 24.0085 36.5814 23.8658 36.6074C23.8399 36.6117 23.8183 36.6031 23.7968 36.5814C23.732 36.5079 23.7018 36.3093 23.7882 36.0457C23.7968 36.0197 23.8056 35.9853 23.8185 35.9464L24.8423 35.6094Z" fill="#F5F5F5"/>
<path d="M25.0327 35.0605C24.9981 35.1643 24.9679 35.2679 24.9463 35.3457L23.8921 35.6957C23.9224 35.6007 23.9525 35.497 23.9828 35.3846L25.0327 35.0605Z" fill="#F5F5F5"/>
<path d="M25.2659 34.4688C25.2141 34.5854 25.1666 34.6978 25.1233 34.8058L24.0518 35.1341C24.082 35.0175 24.1166 34.8965 24.1468 34.7755L25.2659 34.4688Z" fill="#FFE15A"/>
<path d="M25.4782 34.041C25.448 34.0972 25.4178 34.1534 25.3875 34.2139L24.208 34.5336C24.2599 34.3306 24.303 34.1317 24.3376 33.959L25.4782 34.041Z" fill="#F5F5F5"/>
<path d="M25.8107 33.5914C25.7417 33.6563 25.6768 33.7383 25.612 33.8333L24.3721 33.7426C24.3894 33.6302 24.4022 33.5309 24.4022 33.4574C24.4022 33.4013 24.3979 33.3494 24.3937 33.2932C24.4412 33.2975 24.493 33.2975 24.5362 33.2975C24.8474 33.2975 25.0677 33.2413 25.2275 33.1592C25.4046 33.4186 25.6336 33.5353 25.8107 33.5914Z" fill="#F5F5F5"/>
<path d="M26.0615 33.4144C25.9837 33.4058 25.6382 33.3712 25.4047 33.0342C25.5214 32.9349 25.5775 32.8269 25.6034 32.7533C25.733 32.3904 24.8301 31.8244 24.277 31.522C24.0178 31.3794 23.8147 31.0986 23.6333 30.7745C23.6549 30.7788 23.6722 30.7788 23.6938 30.7788C23.9702 30.7788 24.1906 30.6492 24.3072 30.5498C24.4109 30.7227 24.506 30.8824 24.5924 31.0207C24.9855 31.6861 25.1671 31.9885 25.5861 32.2823C25.599 32.2909 25.6163 32.2996 25.6337 32.2996C25.8367 32.3256 26.4243 32.4551 26.4589 32.7144C26.5065 33.0686 26.3769 33.2934 26.0615 33.4144Z" fill="#F5F5F5"/>
<path d="M25.4007 32.6802C25.3531 32.8185 25.1545 33.1295 24.3681 33.0777C24.2989 32.6284 24.1002 32.3087 23.7848 32.1618C23.3743 31.9674 21.8404 30.87 21.1406 30.2175C21.2789 29.7768 21.6418 29.4183 22.156 29.228C22.2295 29.1978 22.2942 29.1719 22.3504 29.1416C22.4887 29.254 22.614 29.3792 22.7177 29.5218C22.8776 29.7465 23.0158 30.0315 23.1627 30.3341C23.4349 30.8871 23.7157 31.4618 24.1737 31.7123C25.0205 32.179 25.4395 32.5809 25.4007 32.6802Z" fill="#F5F5F5"/>
<path d="M24.1907 30.3642C24.1086 30.4463 23.8364 30.632 23.5081 30.537C23.4562 30.4377 23.4088 30.3383 23.3569 30.239C23.2058 29.9278 23.0632 29.6341 22.8903 29.3964C22.791 29.2538 22.6656 29.1285 22.5317 29.0162C22.7262 28.8477 22.7564 28.6662 22.765 28.5107C23.1063 28.8045 23.4262 29.1718 23.7199 29.6254C23.9055 29.9061 24.0567 30.148 24.1907 30.3642Z" fill="#F5F5F5"/>
<path d="M22.5619 28.3509C22.5576 28.3854 22.5533 28.4244 22.5533 28.4633C22.5447 28.6102 22.5317 28.7528 22.3589 28.8823C21.996 28.623 21.5769 28.4459 21.2183 28.3293C21.3825 28.1607 21.4904 27.9923 21.5423 27.8281C21.5423 27.8281 21.5423 27.8281 21.5466 27.8281C21.9008 27.9273 22.2422 28.1046 22.5619 28.3509Z" fill="#F5F5F5"/>
<path d="M22.1472 28.9949C22.1256 29.0035 22.1083 29.0165 22.0823 29.0251C21.5423 29.2238 21.1447 29.5911 20.9677 30.0448C20.756 29.8331 20.6048 29.643 20.4837 29.4918C20.3497 29.3189 20.2375 29.185 20.0991 29.0899C20.4879 28.8912 20.799 28.6924 21.0367 28.498C21.041 28.498 21.041 28.498 21.0453 28.498C21.3824 28.6018 21.7929 28.7572 22.1472 28.9949Z" fill="#F5F5F5"/>
<path d="M20.8337 28.3811C20.609 28.5583 20.2936 28.757 19.8485 28.973C19.7448 28.9471 19.6412 28.9255 19.5548 28.9083C19.3431 28.8694 19.2048 28.8391 19.0968 28.7182C19.0319 28.649 18.9066 28.4546 18.7856 28.2084C18.803 28.217 18.8202 28.2257 18.8375 28.23C18.9628 28.2602 19.1398 28.204 19.3603 28.1263C19.6324 28.0355 19.9651 27.9231 20.2676 27.962C20.5397 27.9966 20.6133 28.1046 20.6996 28.2256C20.7387 28.2774 20.7775 28.3336 20.8337 28.3811Z" fill="#F5F5F5"/>
<path d="M21.3477 27.7332C21.3131 27.8672 21.2181 28.0356 21.002 28.2387C20.9501 28.2041 20.9155 28.1565 20.8767 28.1004C20.7817 27.9664 20.6607 27.7979 20.2977 27.7504C19.9477 27.7028 19.5848 27.8239 19.291 27.9232C19.1268 27.9794 18.9539 28.0399 18.8849 28.0226C18.8113 28.0052 18.7163 27.8886 18.712 27.7719C18.7077 27.6379 18.8287 27.5774 18.928 27.5472C19.1527 27.4781 19.4249 27.5299 19.6928 27.5774C19.965 27.6293 20.2242 27.6768 20.4316 27.5947C20.5741 27.5386 20.7384 27.3614 20.937 27.1064C21.0753 27.1366 21.1919 27.1843 21.261 27.2836C21.3607 27.4264 21.3866 27.5777 21.3477 27.7332Z" fill="#FFE15A"/>
<path d="M20.6859 27.0767C20.552 27.2409 20.4353 27.3618 20.349 27.3964C20.2022 27.4568 19.9731 27.4137 19.7312 27.3661C19.4547 27.3143 19.1393 27.2581 18.867 27.3401C18.7027 27.3877 18.6121 27.4697 18.5602 27.5475C18.5126 27.3099 18.5126 27.0809 18.6206 26.8994C18.7286 26.7093 18.8712 26.5494 19.0182 26.3896C19.2126 26.4156 19.3551 26.4545 19.8477 26.8865C20.0162 27.0334 20.2884 27.0508 20.552 27.0637C20.5951 27.068 20.6427 27.0724 20.6859 27.0767Z" fill="#F5F5F5"/>
<path d="M24.6998 25.2921C24.2158 25.6118 22.06 27.0289 21.6105 27.2147C21.589 27.2233 21.5717 27.2407 21.5587 27.2579C21.5458 27.2795 21.5371 27.2968 21.5241 27.3184C21.5025 27.2622 21.4723 27.2103 21.4377 27.1586C21.3513 27.0333 21.2217 26.9642 21.0791 26.921C21.1439 26.8389 21.2087 26.7524 21.2778 26.6574C21.589 26.2297 21.9476 25.7501 22.358 25.3224C23.0623 24.5879 24.0041 24.1039 24.3195 23.957C24.3672 24.415 24.4708 24.9552 24.6998 25.2921Z" fill="#F5F5F5"/>
<path d="M24.2981 23.7285C24.0734 23.8278 23.0063 24.3334 22.2026 25.1716C21.7793 25.6123 21.4033 26.1178 21.1052 26.5282C21.0145 26.6492 20.928 26.7658 20.8459 26.8739C20.7509 26.8653 20.6559 26.8566 20.565 26.8523C20.3274 26.8351 20.1027 26.8221 19.9903 26.7227C19.5756 26.3599 19.3811 26.2518 19.1953 26.2043C19.2127 26.187 19.2256 26.1697 19.2429 26.1524C19.515 25.876 19.8002 25.5865 20.0249 25.1847C20.4137 24.4891 21.7143 22.9725 22.5611 22.4238L24.2765 23.1757C24.2765 23.2792 24.2809 23.4823 24.2981 23.7285Z" fill="#F5F5F5"/>
<path d="M13.3377 17.3145C12.9801 16.8412 12.8408 16.1341 12.8813 15.995C12.889 15.9699 12.9064 15.9543 12.9354 15.9448C13.0301 15.9197 13.2214 15.9814 13.4186 16.1764C13.4379 16.1957 13.4649 16.2189 13.4939 16.2479L13.3377 17.3145Z" fill="#F5F5F5"/>
<path d="M13.7434 17.73C13.6661 17.6527 13.5868 17.5793 13.5269 17.5252L13.685 16.4258C13.7565 16.4953 13.8357 16.5687 13.9227 16.6459L13.7434 17.73Z" fill="#F5F5F5"/>
<path d="M14.1688 18.2027C14.0876 18.1042 14.0084 18.0115 13.9312 17.9246L14.1163 16.8193C14.2071 16.8985 14.2999 16.9836 14.3946 17.0646L14.1688 18.2027Z" fill="#FFE15A"/>
<path d="M14.4572 18.583C14.4205 18.5309 14.3837 18.4787 14.3433 18.4246L14.5843 17.2266C14.7428 17.3637 14.9013 17.4911 15.0404 17.5993L14.4572 18.583Z" fill="#F5F5F5"/>
<path d="M14.7112 19.0812C14.6842 18.9903 14.6396 18.8957 14.5835 18.7953L15.2187 17.7266C15.3115 17.7922 15.3946 17.8482 15.4603 17.8811C15.5105 17.9062 15.559 17.9255 15.6111 17.9467C15.586 17.9873 15.5629 18.0336 15.5436 18.0724C15.4046 18.3507 15.3562 18.573 15.3583 18.7526C15.0473 18.7951 14.8406 18.9479 14.7112 19.0812Z" fill="#F5F5F5"/>
<path d="M14.757 19.3841C14.7995 19.3184 14.9848 19.0246 15.3906 18.9665C15.4273 19.1153 15.4989 19.2138 15.553 19.2698C15.8197 19.5479 16.7296 18.9931 17.2473 18.6335C17.4908 18.4653 17.8327 18.4092 18.2037 18.3916C18.1902 18.409 18.1825 18.4245 18.1727 18.4437C18.0491 18.691 18.0667 18.9461 18.1034 19.0949C17.9024 19.1104 17.7169 19.124 17.5546 19.1395C16.7837 19.1939 16.432 19.2211 15.9819 19.4647C15.9683 19.4725 15.9529 19.4841 15.9453 19.4995C15.8314 19.6695 15.4528 20.1373 15.2054 20.0524C14.8673 19.9366 14.7243 19.7203 14.757 19.3841Z" fill="#F5F5F5"/>
<path d="M15.7096 19.1217C15.6072 19.0174 15.4177 18.7006 15.8155 18.0203C16.2484 18.1592 16.6231 18.1243 16.8956 17.9078C17.2529 17.6275 18.9202 16.7457 19.8165 16.4111C20.1489 16.7317 20.3075 17.2167 20.2478 17.7615C20.2421 17.8407 20.2363 17.9103 20.2382 17.974C20.0759 18.0476 19.9079 18.1036 19.7339 18.1326C19.4615 18.1752 19.1446 18.1715 18.8084 18.1678C18.192 18.1641 17.5524 18.1586 17.1236 18.4563C16.3278 19.0056 15.781 19.2009 15.7096 19.1217Z" fill="#F5F5F5"/>
<path d="M18.3217 19.0741C18.285 18.964 18.2404 18.6375 18.4721 18.3862C18.5842 18.3842 18.6943 18.3861 18.8064 18.3842C19.1523 18.388 19.4788 18.3916 19.7687 18.3433C19.9406 18.3181 20.1086 18.262 20.2691 18.1924C20.3329 18.4416 20.4818 18.5497 20.617 18.627C20.2016 18.801 19.7303 18.9229 19.1931 18.983C18.8588 19.0237 18.5748 19.0509 18.3217 19.0741Z" fill="#F5F5F5"/>
<path d="M20.8511 18.5167C20.8221 18.4974 20.7893 18.4762 20.7544 18.4587C20.6269 18.3853 20.5051 18.31 20.4663 18.0975C20.8604 17.8887 21.2062 17.5929 21.4708 17.3242C21.5481 17.5464 21.6507 17.7183 21.7743 17.8381C21.7743 17.8381 21.7743 17.8381 21.7724 17.842C21.5254 18.1145 21.2143 18.3407 20.8511 18.5167Z" fill="#F5F5F5"/>
<path d="M20.4605 17.858C20.4625 17.8349 20.4586 17.8136 20.4625 17.7865C20.5261 17.2145 20.3751 16.6948 20.0483 16.3336C20.3324 16.2388 20.57 16.1885 20.7594 16.1479C20.9738 16.1053 21.1438 16.0646 21.2906 15.9834C21.2947 16.42 21.3334 16.7872 21.4012 17.0866C21.3992 17.0905 21.3992 17.0905 21.3973 17.0943C21.1539 17.3496 20.8314 17.6473 20.4605 17.858Z" fill="#F5F5F5"/>
<path d="M21.5963 16.957C21.5382 16.6769 21.5013 16.306 21.5069 15.8112C21.5764 15.7301 21.6422 15.6469 21.6962 15.5774C21.8256 15.4055 21.9143 15.2952 22.0709 15.2526C22.1617 15.2256 22.3916 15.2004 22.666 15.2022C22.6506 15.2139 22.635 15.2254 22.6235 15.239C22.5404 15.3376 22.5116 15.5211 22.4827 15.7529C22.4423 16.037 22.394 16.3849 22.2241 16.638C22.0716 16.866 21.9421 16.8835 21.7952 16.9067C21.7315 16.9184 21.6639 16.928 21.5963 16.957Z" fill="#F5F5F5"/>
<path d="M21.9462 17.7071C21.8418 17.6163 21.7336 17.456 21.6484 17.1719C21.7025 17.1409 21.7605 17.1313 21.828 17.1216C21.9903 17.0964 22.1951 17.0635 22.3998 16.7601C22.5987 16.4683 22.6527 16.0895 22.695 15.7823C22.7182 15.6103 22.7412 15.4285 22.7876 15.3745C22.8358 15.3165 22.9827 15.2836 23.089 15.3319C23.2107 15.3879 23.2107 15.5232 23.1934 15.6255C23.1548 15.8574 22.9868 16.0778 22.8245 16.2961C22.6565 16.5165 22.4981 16.7272 22.4789 16.9493C22.4654 17.1021 22.5506 17.328 22.6897 17.6197C22.601 17.7299 22.5062 17.8131 22.3865 17.8305C22.2148 17.8557 22.068 17.8113 21.9462 17.7071Z" fill="#FFE15A"/>
<path d="M22.828 17.4091C22.7409 17.2159 22.685 17.0574 22.6926 16.9646C22.7041 16.8062 22.8451 16.6207 22.9957 16.4254C23.1656 16.2013 23.3568 15.9441 23.4051 15.664C23.4359 15.4959 23.403 15.3779 23.3565 15.2969C23.5903 15.3605 23.7952 15.4629 23.9093 15.6406C24.0311 15.8222 24.1104 16.0212 24.1877 16.224C24.0775 16.3864 23.9791 16.4966 23.3725 16.744C23.1658 16.8292 23.0286 17.0649 22.8993 17.2949C22.8763 17.3317 22.8512 17.3724 22.828 17.4091Z" fill="#F5F5F5"/>
<path d="M22.6306 21.7971C22.5608 21.2213 22.2564 18.6593 22.291 18.1743C22.293 18.1512 22.2852 18.128 22.2755 18.1086C22.2619 18.0874 22.2504 18.072 22.2368 18.0506C22.2968 18.0564 22.3566 18.0525 22.4185 18.0447C22.5692 18.0234 22.689 17.9384 22.7913 17.8301C22.8358 17.9248 22.8841 18.0214 22.9383 18.1257C23.1819 18.5951 23.4507 19.1302 23.6499 19.6886C23.9923 20.6469 24.0042 21.7057 23.9947 22.0534C23.5716 21.9605 23.0814 21.8559 22.6306 21.7971Z" fill="#F5F5F5"/>
<path d="M24.2091 22.1361C24.2206 21.8907 24.2453 20.7101 23.8546 19.6166C23.6495 19.0408 23.3653 18.4787 23.1313 18.0285C23.0637 17.8933 22.9979 17.7639 22.938 17.6421C22.9882 17.5609 23.0384 17.4797 23.0828 17.4005C23.2045 17.1956 23.3164 17.0004 23.4556 16.9443C23.9656 16.7355 24.1491 16.6098 24.2746 16.4648C24.2823 16.488 24.2921 16.5073 24.2997 16.5306C24.4255 16.8976 24.5569 17.282 24.816 17.6627C25.2646 18.3214 26.04 20.1625 26.1525 21.1652L24.7136 22.3638C24.6207 22.3176 24.4371 22.2308 24.2091 22.1361Z" fill="#F5F5F5"/>
<path d="M35.7583 16.6142C36.3509 16.5867 37.0129 16.8715 37.1049 16.9836C37.1213 17.0042 37.1242 17.0272 37.1157 17.0566C37.083 17.149 36.9239 17.2719 36.6515 17.3242C36.6246 17.3293 36.5901 17.3385 36.55 17.346L35.7583 16.6142Z" fill="#F5F5F5"/>
<path d="M35.186 16.7142C35.2935 16.6941 35.3988 16.6702 35.4773 16.6514L36.295 17.4033C36.1973 17.423 36.0919 17.4469 35.979 17.475L35.186 16.7142Z" fill="#F5F5F5"/>
<path d="M34.5562 16.7977C34.6833 16.7863 34.8045 16.7734 34.9199 16.7588L35.7271 17.5362C35.6104 17.5664 35.4878 17.5948 35.3674 17.6271L34.5562 16.7977Z" fill="#FFE15A"/>
<path d="M34.0796 16.8209C34.1434 16.82 34.2071 16.8192 34.2747 16.8164L35.1267 17.6925C34.9239 17.7457 34.7292 17.8044 34.5613 17.858L34.0796 16.8209Z" fill="#F5F5F5"/>
<path d="M33.5257 16.748C33.6159 16.7771 33.7191 16.7938 33.8337 16.8044L34.3562 17.9326C34.2497 17.9721 34.1564 18.0089 34.0923 18.0445C34.0432 18.0718 33.9999 18.1007 33.9529 18.1317C33.9336 18.0881 33.9085 18.0428 33.8875 18.005C33.7365 17.733 33.5805 17.5676 33.4312 17.4677C33.5717 17.187 33.5625 16.9302 33.5257 16.748Z" fill="#F5F5F5"/>
<path d="M33.2488 16.6147C33.279 16.6868 33.4165 17.0059 33.2352 17.3734C33.0916 17.3196 32.9699 17.323 32.8932 17.3359C32.513 17.3987 32.4563 18.4629 32.4603 19.0932C32.4614 19.389 32.3145 19.7028 32.1192 20.0189C32.1126 19.9979 32.1042 19.9827 32.0937 19.9639C31.9595 19.7222 31.7392 19.5923 31.5957 19.5386C31.6965 19.364 31.7901 19.2033 31.869 19.0607C32.26 18.394 32.4364 18.0886 32.4898 17.5795C32.4911 17.564 32.4902 17.5447 32.4818 17.5296C32.406 17.3396 32.2341 16.7628 32.444 16.6068C32.7307 16.3932 32.99 16.3977 33.2488 16.6147Z" fill="#F5F5F5"/>
<path d="M32.9275 17.5491C33.0715 17.5235 33.4399 17.5463 33.7763 18.2591C33.417 18.5376 33.2338 18.8665 33.2585 19.2136C33.2877 19.6668 33.0727 21.5405 32.8418 22.469C32.3895 22.562 31.8997 22.4187 31.4839 22.0615C31.4218 22.0119 31.3677 21.9679 31.314 21.9335C31.3451 21.7581 31.3938 21.5877 31.4682 21.4279C31.587 21.1791 31.7692 20.9198 31.9623 20.6446C32.3137 20.1383 32.6799 19.6138 32.6768 19.0917C32.6738 18.1248 32.8218 17.5634 32.9275 17.5491Z" fill="#F5F5F5"/>
<path d="M31.4901 19.7305C31.6018 19.7624 31.8963 19.9103 31.9726 20.2434C31.9108 20.3369 31.847 20.4267 31.7853 20.5203C31.5866 20.8035 31.3989 21.0707 31.2751 21.3372C31.1987 21.4933 31.1499 21.6636 31.1167 21.8352C30.875 21.747 30.7018 21.8086 30.5615 21.8767C30.6528 21.4356 30.8187 20.9778 31.0728 20.5008C31.228 20.202 31.3662 19.9524 31.4901 19.7305Z" fill="#F5F5F5"/>
<path d="M30.52 22.1322C30.5523 22.1192 30.5884 22.1041 30.6223 22.0853C30.7549 22.0216 30.8859 21.9636 31.0831 22.0519C31.0325 22.4949 31.081 22.9475 31.1531 23.3176C30.926 23.2559 30.7263 23.2432 30.5576 23.2776C30.5576 23.2776 30.5576 23.2776 30.5555 23.2737C30.4706 22.9157 30.4598 22.5314 30.52 22.1322Z" fill="#F5F5F5"/>
<path d="M31.2843 22.1826C31.3022 22.1973 31.3219 22.2062 31.3422 22.2246C31.778 22.6004 32.2921 22.7696 32.7747 22.7044C32.6924 22.9922 32.5995 23.2168 32.5259 23.3959C32.4398 23.5969 32.3772 23.7602 32.3613 23.9271C31.9988 23.6836 31.6741 23.5081 31.3887 23.3947C31.3867 23.3909 31.3867 23.3909 31.3845 23.3872C31.3117 23.0421 31.2484 22.6077 31.2843 22.1826Z" fill="#F5F5F5"/>
<path d="M31.3854 23.6289C31.6492 23.7394 31.9761 23.9187 32.381 24.2029C32.4087 24.3062 32.4401 24.4073 32.4668 24.4913C32.5356 24.6953 32.5762 24.8309 32.5229 24.984C32.4939 25.0742 32.3847 25.278 32.228 25.5034C32.2272 25.4841 32.2263 25.4648 32.2218 25.4476C32.1874 25.3233 32.0524 25.1957 31.8774 25.0408C31.6659 24.8469 31.4063 24.6105 31.2934 24.3271C31.1915 24.0724 31.2503 23.9557 31.3142 23.8215C31.3409 23.7623 31.371 23.701 31.3854 23.6289Z" fill="#F5F5F5"/>
<path d="M30.5689 23.4937C30.7027 23.459 30.8962 23.4603 31.1786 23.5507C31.1735 23.6128 31.1487 23.6661 31.1185 23.7273C31.0475 23.8754 30.9589 24.063 31.0935 24.4034C31.2217 24.7325 31.5037 24.991 31.7331 25.1997C31.8619 25.316 31.9986 25.4378 32.0172 25.5066C32.0378 25.5793 31.9818 25.7189 31.8819 25.7794C31.767 25.8481 31.6553 25.7718 31.5807 25.6995C31.4111 25.5366 31.3244 25.2734 31.236 25.0162C31.1492 24.753 31.065 24.5034 30.8925 24.3619C30.7741 24.2644 30.5396 24.2069 30.2203 24.1568C30.1796 24.0213 30.1647 23.8963 30.218 23.7875C30.2943 23.6312 30.414 23.5351 30.5689 23.4937Z" fill="#FFE15A"/>
<path d="M30.3154 24.3906C30.5239 24.428 30.6863 24.4713 30.7585 24.5301C30.8826 24.6292 30.9561 24.8503 31.0318 25.085C31.1207 25.3519 31.2246 25.6549 31.4285 25.853C31.5497 25.9735 31.6656 26.013 31.7587 26.0206C31.574 26.1775 31.3738 26.2886 31.1627 26.2822C30.944 26.2801 30.7352 26.233 30.524 26.1821C30.4523 25.9996 30.4171 25.8561 30.556 25.2156C30.6026 24.997 30.4855 24.7507 30.369 24.5139C30.3518 24.4742 30.3325 24.4306 30.3154 24.3906Z" fill="#F5F5F5"/>
<path d="M26.8075 21.7471C27.322 22.0149 29.6073 23.2123 29.9878 23.5149C30.0058 23.5296 30.0293 23.5364 30.0507 23.5393C30.0759 23.5401 30.0952 23.5393 30.1204 23.5401C30.0818 23.5862 30.0511 23.6379 30.0226 23.6933C29.9549 23.8297 29.9573 23.9766 29.9889 24.1222C29.8856 24.1054 29.7786 24.0906 29.6619 24.0763C29.1369 24.0118 28.5436 23.9311 27.9704 23.7798C26.9864 23.5205 26.1062 22.9318 25.8247 22.7273C26.1354 22.4497 26.5462 22.0897 26.8075 21.7471Z" fill="#F5F5F5"/>
<path d="M25.6349 22.8574C25.8308 23.0056 26.7907 23.6935 27.9135 23.9893C28.5043 24.1456 29.1287 24.2289 29.6322 24.2903C29.782 24.3109 29.926 24.3299 30.0602 24.3493C30.0988 24.4366 30.1374 24.5239 30.1777 24.6054C30.2779 24.8216 30.3757 25.0242 30.3433 25.1707C30.2272 25.7095 30.2272 25.9319 30.2758 26.1175C30.2522 26.1106 30.2309 26.1078 30.2073 26.1011C29.8334 25.9973 29.4419 25.8885 28.9815 25.8869C28.1846 25.8846 26.2275 25.4835 25.3367 25.0094L25.1616 23.1448C25.2525 23.0943 25.4279 22.992 25.6349 22.8574Z" fill="#F5F5F5"/>
<path d="M37.3025 16.8945C37.292 16.8756 37.2836 16.8605 37.2714 16.8475C37.104 16.644 36.1247 16.2684 35.4301 16.4414C34.6801 16.6304 33.6591 16.6783 33.4061 16.4629C33.082 16.1762 32.7219 16.1649 32.366 16.4075L32.2223 16.2792L32.4355 15.6599C32.4455 15.6301 32.4421 15.5985 32.4276 15.5723C32.4201 15.559 32.41 15.5471 32.397 15.5376C32.3587 15.5096 32.307 15.5097 32.2688 15.5378L31.6548 15.9922L31.1336 15.7274C31.0976 15.709 31.0543 15.7123 31.0217 15.736C30.989 15.7595 30.972 15.7995 30.9781 15.8394L31.0896 16.5884L30.5351 17.2165C30.5052 17.2505 30.4995 17.2992 30.5208 17.3391C30.5423 17.3651 30.5859 17.4012 30.6306 17.3951L31.3118 17.302L31.4808 17.9215C31.4934 17.9673 31.5322 17.9982 31.5783 18.0009C31.6242 18.0038 31.6671 17.9772 31.6849 17.9344L31.9925 17.1899L32.1486 17.1107C32.1805 17.3182 32.2452 17.5072 32.2729 17.5811C32.2207 18.0301 32.0477 18.3238 31.6862 18.9543C31.4754 19.3135 31.218 19.7577 30.882 20.3989C30.3226 21.4654 30.1426 22.4499 30.3466 23.325C30.285 23.3296 30.1922 23.3316 30.0952 23.3262C29.5796 22.9404 26.917 21.562 26.8042 21.5012C26.798 21.498 26.3649 21.1261 26.3649 21.1261C26.2449 20.0761 25.4618 18.2311 24.9987 17.5417C24.7532 17.1824 24.6275 16.8154 24.5056 16.4598C24.3896 16.1314 24.285 15.8184 24.0937 15.5247C23.6684 14.8679 22.3372 14.9612 22.0164 15.0425C21.7883 15.1026 21.6647 15.2629 21.5238 15.4485C21.4677 15.522 21.404 15.6012 21.3249 15.692C21.1935 15.8389 21.01 15.8777 20.7143 15.9377C20.4825 15.9861 20.1907 16.0481 19.8101 16.1815C18.9175 16.4986 17.1403 17.4461 16.7616 17.74C16.3887 18.0319 15.8458 17.833 15.5559 17.6882C15.1462 17.4836 13.9091 16.3536 13.5728 16.0215C13.3388 15.7936 13.0742 15.6855 12.8791 15.7378C12.796 15.759 12.7302 15.8132 12.6956 15.8827C12.6859 15.9021 12.6782 15.9175 12.6744 15.9349C12.601 16.188 12.8449 17.2081 13.3803 17.6832C13.9602 18.195 14.5769 19.0102 14.5421 19.3407C14.4888 19.77 14.6831 20.0736 15.0845 20.23L15.0599 20.421L14.4287 20.5952C14.3985 20.6037 14.3743 20.6244 14.3609 20.6512C14.3541 20.6648 14.3501 20.68 14.3496 20.696C14.3481 20.7435 14.3775 20.7861 14.4223 20.8016L15.1442 21.0512L15.2204 21.631C15.2255 21.671 15.2528 21.7049 15.2908 21.7185C15.3287 21.7322 15.3712 21.7236 15.4008 21.696L15.9557 21.1806L16.7873 21.2828C16.8322 21.2883 16.8756 21.2654 16.8964 21.2254C16.9058 21.193 16.9109 21.1366 16.8806 21.1031L16.4185 20.5939L16.834 20.1043C16.8647 20.068 16.8682 20.0186 16.8445 19.9791C16.8209 19.9395 16.7747 19.9192 16.7294 19.9287L15.9413 20.0958L15.7878 20.0118C15.9411 19.8682 16.0601 19.708 16.1056 19.6434C16.5055 19.4326 16.8456 19.4093 17.5702 19.351C17.9856 19.3219 18.4976 19.283 19.2164 19.1978C20.4124 19.0563 21.3261 18.6482 21.9327 17.9853C21.9713 18.0335 22.0254 18.1089 22.0756 18.1919C22.0488 18.8354 22.4171 21.8108 22.4307 21.9384C22.4316 21.945 22.4244 22.2599 22.4244 22.2599C21.5389 22.8391 20.2443 24.3553 19.8354 25.0761C19.6237 25.4563 19.3514 25.7327 19.0878 26.0007C18.8459 26.2514 18.6126 26.4847 18.4355 26.787C18.0379 27.461 18.7164 28.6103 18.9324 28.8609C19.0878 29.0381 19.2867 29.077 19.5157 29.1202C19.6064 29.1375 19.7058 29.1591 19.8225 29.1893C20.0125 29.2411 20.1293 29.388 20.3151 29.6257C20.462 29.8114 20.6477 30.0447 20.9373 30.3256C21.6199 30.9824 23.2617 32.1488 23.6938 32.3562C24.1215 32.5594 24.1864 33.134 24.1864 33.458C24.1864 33.916 23.7284 35.5276 23.5815 35.9768C23.4822 36.288 23.5037 36.573 23.6376 36.7243C23.6938 36.7892 23.7716 36.8236 23.8494 36.8236C23.8709 36.8236 23.8882 36.8236 23.9055 36.8193C24.1648 36.7718 24.9683 36.0977 25.1542 35.4065C25.353 34.6591 25.8066 33.7432 26.1177 33.6265C26.5257 33.4823 26.7104 33.1729 26.6709 32.7439L26.8529 32.6806L27.2908 33.1676C27.3119 33.1907 27.3411 33.2032 27.3711 33.2032C27.3864 33.2032 27.4017 33.2001 27.4162 33.1933C27.4592 33.1734 27.4843 33.128 27.4784 33.081L27.379 32.3236L27.8636 31.9965C27.8971 31.9739 27.9154 31.9344 27.9105 31.8943C27.9059 31.8542 27.879 31.8201 27.8413 31.806L27.1323 31.5399L26.8521 30.7503C26.8369 30.7077 26.797 30.679 26.7519 30.6783C26.7188 30.6845 26.6661 30.7052 26.6495 30.7471L26.4002 31.3883L25.7766 31.2354C25.7304 31.2241 25.6846 31.2431 25.6599 31.282C25.635 31.3208 25.6375 31.3713 25.6663 31.4076L26.168 32.038L26.1616 32.2128C25.9646 32.1399 25.768 32.1049 25.6899 32.0932C25.3226 31.8296 25.1498 31.5358 24.774 30.9137C24.5622 30.5551 24.2987 30.1144 23.9012 29.5095C23.2401 28.5028 22.4667 27.8677 21.6026 27.6213C21.6286 27.5651 21.6717 27.483 21.7236 27.4009C22.3112 27.1373 24.8085 25.4782 24.9164 25.4091C24.9179 25.4081 24.9177 25.4057 24.9192 25.4046L25.257 25.2095C26.1934 25.7025 28.1509 26.0978 28.9795 26.1055C29.4147 26.1062 29.7886 26.2099 30.1506 26.3104C30.4871 26.4002 30.8044 26.491 31.1548 26.4991C31.937 26.5195 32.6127 25.3687 32.727 25.0582C32.8064 24.8362 32.7439 24.6436 32.6705 24.4225C32.6416 24.3348 32.6122 24.2373 32.5821 24.1206C32.5351 23.9292 32.607 23.756 32.7245 23.4781C32.8157 23.2596 32.9295 22.9838 33.0346 22.5945C33.2775 21.6789 33.5006 19.6773 33.4723 19.1989C33.4422 18.7263 33.9132 18.3907 34.1965 18.2335C34.5969 18.0113 36.2283 17.6295 36.6924 17.5399C37.0126 17.4757 37.2515 17.3186 37.3187 17.1281C37.3478 17.0473 37.3403 16.9625 37.3025 16.8945ZM32.1296 16.8781L31.8588 17.0156C31.8359 17.0273 31.8178 17.0468 31.8078 17.0706L31.6059 17.5596L31.4952 17.1541C31.481 17.1007 31.4302 17.0681 31.3766 17.0754L30.8892 17.142L31.2848 16.694C31.306 16.67 31.3153 16.6379 31.3106 16.6066L31.2224 16.0149L31.6165 16.2152C31.653 16.2338 31.6968 16.2302 31.7298 16.2059L32.1179 15.9186L31.9947 16.2768C31.9809 16.3175 31.9928 16.363 32.0248 16.3925L32.2075 16.5558C32.1532 16.6475 32.1319 16.7604 32.1296 16.8781ZM31.8686 19.0609C32.2595 18.3942 32.436 18.0888 32.4894 17.5797C32.4907 17.5642 32.4898 17.5449 32.4814 17.5297C32.4055 17.3396 32.2336 16.7629 32.4436 16.6069C32.7303 16.3933 32.9896 16.3977 33.2485 16.6148C33.2786 16.6869 33.4161 17.006 33.2348 17.3735C33.0912 17.3197 32.9696 17.3231 32.8928 17.336C32.5126 17.3988 32.456 18.463 32.4599 19.0933C32.4611 19.3892 32.3141 19.703 32.1189 20.019C32.1122 19.998 32.1038 19.9828 32.0933 19.964C31.9591 19.7223 31.7388 19.5924 31.5953 19.5387C31.6959 19.3642 31.7896 19.2035 31.8686 19.0609ZM31.0719 20.5013C31.2273 20.2026 31.3655 19.953 31.4894 19.7309C31.601 19.7628 31.8955 19.9107 31.9718 20.244C31.9101 20.3375 31.8462 20.4274 31.7845 20.5209C31.5859 20.8041 31.3982 21.0713 31.2742 21.3378C31.1979 21.4939 31.1491 21.6642 31.1158 21.8359C30.8741 21.7476 30.7009 21.8092 30.5607 21.8773C30.6519 21.4361 30.8178 20.9783 31.0719 20.5013ZM30.5195 22.1322C30.5518 22.1194 30.5879 22.1041 30.6218 22.0853C30.7544 22.0216 30.8854 21.9636 31.0825 22.0519C31.032 22.4949 31.0805 22.9475 31.1526 23.3176C30.9255 23.2559 30.7258 23.2432 30.5571 23.2776C30.5571 23.2776 30.5571 23.2776 30.5549 23.2737C30.4701 22.9157 30.4593 22.5314 30.5195 22.1322ZM30.0501 23.5391C30.0753 23.54 30.0947 23.5391 30.1199 23.54C30.0812 23.5861 30.0505 23.6377 30.022 23.6931C29.9544 23.8294 29.9568 23.9764 29.9883 24.122C29.8851 24.1052 29.7781 24.0904 29.6614 24.0761C29.1364 24.0116 28.543 23.931 27.9699 23.7796C26.9858 23.5203 26.1056 22.9317 25.8242 22.7272C26.0948 22.4693 26.4864 22.1655 26.8069 21.7468C27.3213 22.0147 29.6067 23.212 29.9871 23.5147C30.0053 23.5295 30.0288 23.5361 30.0501 23.5391ZM25.1226 25.0375L24.8838 25.1754C24.4702 24.5797 24.4928 23.1227 24.4928 23.1061C24.4971 23.0629 24.4712 23.0239 24.4324 23.0068L22.6426 22.2235L22.6529 22.0398C23.5862 22.1474 24.6652 22.5816 24.6801 22.589C24.7168 22.6121 24.7632 22.6064 24.796 22.5793L26.2812 21.341L26.6008 21.6267C26.1377 22.1954 25.0111 22.9811 24.9965 22.9892C24.9567 23.0065 24.9352 23.0479 24.939 23.0903L25.1226 25.0375ZM24.2756 16.4659C24.2833 16.4891 24.2931 16.5085 24.3007 16.5316C24.4265 16.8987 24.558 17.2832 24.817 17.6637C25.2656 18.3224 26.0411 20.1635 26.1535 21.1662L24.7145 22.3648C24.6217 22.3185 24.4381 22.2316 24.2101 22.1369C24.2216 21.8915 24.2463 20.711 23.8556 19.6174C23.6505 19.0416 23.3663 18.4795 23.1324 18.0293C23.0647 17.8941 22.999 17.7647 22.939 17.6429C22.9892 17.5617 23.0394 17.4805 23.0838 17.4013C23.2055 17.1964 23.3174 17.0012 23.4566 16.9451C23.9665 16.7367 24.15 16.6109 24.2756 16.4659ZM23.9101 15.641C24.0319 15.8226 24.1112 16.0216 24.1885 16.2244C24.0785 16.3868 23.98 16.497 23.3733 16.7445C23.1666 16.8296 23.0294 17.0654 22.9001 17.2953C22.877 17.3321 22.8519 17.3727 22.8287 17.4093C22.7415 17.2161 22.6856 17.0576 22.6932 16.9649C22.7047 16.8064 22.8457 16.6209 22.9964 16.4256C23.1664 16.2015 23.3576 15.9444 23.4058 15.6642C23.4368 15.4961 23.4038 15.3782 23.3573 15.2971C23.5911 15.361 23.7959 15.4634 23.9101 15.641ZM21.6957 15.5782C21.8251 15.4062 21.9139 15.2959 22.0705 15.2534C22.1613 15.2263 22.3912 15.2011 22.6656 15.203C22.6501 15.2146 22.6346 15.2261 22.6231 15.2397C22.54 15.3383 22.5112 15.5218 22.4823 15.7536C22.4417 16.0377 22.3936 16.3856 22.2237 16.6388C22.0711 16.8668 21.9416 16.8843 21.7948 16.9075C21.731 16.9192 21.6634 16.9287 21.5957 16.9578C21.5376 16.6777 21.5008 16.3068 21.5064 15.812C21.5759 15.7308 21.6416 15.6478 21.6957 15.5782ZM20.7587 16.1485C20.9732 16.1059 21.1432 16.0652 21.2901 15.984C21.2941 16.4206 21.3329 16.7878 21.4006 17.0872C21.3987 17.0911 21.3987 17.0911 21.3967 17.095C21.1534 17.3501 20.8308 17.6478 20.4599 17.8585C20.4619 17.8354 20.458 17.814 20.4619 17.787C20.5254 17.2151 20.3745 16.6953 20.0479 16.3341C20.3317 16.2395 20.5695 16.1891 20.7587 16.1485ZM16.895 17.9082C17.2523 17.628 18.9196 16.7461 19.8159 16.4116C20.1483 16.7322 20.3069 17.217 20.2472 17.7619C20.2416 17.8411 20.2357 17.9108 20.2376 17.9744C20.0753 18.048 19.9073 18.104 19.7334 18.133C19.4609 18.1756 19.144 18.1719 18.8078 18.1682C18.1914 18.1645 17.5518 18.159 17.123 18.4567C16.3271 19.0057 15.7804 19.2011 15.7088 19.1219C15.6064 19.0176 15.417 18.7008 15.8148 18.0205C16.2478 18.1597 16.6227 18.1247 16.895 17.9082ZM13.3376 17.3145C12.9799 16.8412 12.8406 16.1341 12.8811 15.995C12.8888 15.9699 12.9062 15.9544 12.9352 15.9448C13.0299 15.9197 13.2213 15.9814 13.4184 16.1764C13.4378 16.1957 13.4647 16.2189 13.4937 16.2479L13.3376 17.3145ZM13.7435 17.7297C13.6662 17.6525 13.587 17.579 13.527 17.5249L13.6851 16.4255C13.7566 16.4951 13.8359 16.5684 13.9228 16.6456L13.7435 17.7297ZM13.931 17.9247L14.1162 16.8195C14.207 16.8987 14.2998 16.9837 14.3945 17.0647L14.1688 18.2029C14.0876 18.1044 14.0084 18.0117 13.931 17.9247ZM14.4567 18.5835C14.42 18.5314 14.3832 18.4792 14.3427 18.4251L14.5838 17.2271C14.7422 17.3643 14.9007 17.4916 15.0399 17.5998L14.4567 18.5835ZM14.5825 18.796L15.2178 17.7273C15.3106 17.7929 15.3937 17.849 15.4594 17.8818C15.5096 17.9069 15.5581 17.9262 15.6102 17.9474C15.5851 17.9879 15.562 18.0343 15.5426 18.0731C15.4037 18.3514 15.3553 18.5737 15.3574 18.7532C15.0462 18.7958 14.8396 18.9487 14.7102 19.082C14.6831 18.9911 14.6385 18.8964 14.5825 18.796ZM15.8726 20.3049C15.8953 20.3172 15.9216 20.3212 15.9468 20.3157L16.4644 20.206L16.1925 20.5265C16.1565 20.5684 16.1584 20.6287 16.1948 20.6689L16.5253 21.0332L15.9321 20.9603C15.9003 20.9564 15.8687 20.9668 15.8455 20.9884L15.4072 21.3956L15.3496 20.9572C15.3444 20.9167 15.3166 20.8825 15.2778 20.8691L14.8214 20.7114L15.1867 20.6106C15.2281 20.5989 15.2588 20.5634 15.265 20.5202L15.2963 20.2773C15.4026 20.2702 15.5079 20.2241 15.6061 20.1594L15.8726 20.3049ZM18.1723 18.4449C18.0487 18.6922 18.0663 18.9473 18.103 19.0961C17.902 19.1116 17.7166 19.1252 17.5543 19.1407C16.7834 19.1951 16.4316 19.2223 15.9815 19.4659C15.9679 19.4736 15.9525 19.4853 15.9449 19.5007C15.831 19.6707 15.4524 20.1385 15.205 20.0536C14.8668 19.9378 14.7238 19.7214 14.7565 19.3852C14.799 19.3195 14.9843 19.0257 15.3901 18.9676C15.4268 19.1164 15.4984 19.2149 15.5525 19.2709C15.8192 19.549 16.7292 18.9942 17.2468 18.6346C17.4903 18.4664 17.8322 18.4103 18.2032 18.3927C18.1898 18.4101 18.1821 18.4255 18.1723 18.4449ZM19.1928 18.9836C18.8585 19.0243 18.5745 19.0515 18.3213 19.0748C18.2846 18.9647 18.2401 18.6382 18.4717 18.3869C18.5838 18.3849 18.6939 18.3868 18.806 18.3849C19.1519 18.3887 19.4785 18.3924 19.7683 18.344C19.9403 18.3189 20.1083 18.2627 20.2687 18.1931C20.3326 18.4423 20.4814 18.5504 20.6166 18.6277C20.2013 18.8016 19.7299 18.9235 19.1928 18.9836ZM21.7719 17.8427C21.5248 18.1153 21.2137 18.3414 20.8504 18.5174C20.8214 18.4981 20.7886 18.4769 20.7538 18.4594C20.6262 18.3861 20.5044 18.3107 20.4657 18.0982C20.8597 17.8894 21.2055 17.5937 21.4701 17.3249C21.5474 17.5471 21.6499 17.719 21.7736 17.8388C21.7739 17.8388 21.7739 17.8388 21.7719 17.8427ZM21.9457 17.7074C21.8415 17.6165 21.7332 17.4563 21.648 17.1722C21.7021 17.1412 21.7601 17.1316 21.8276 17.1219C21.9899 17.0967 22.1947 17.0638 22.3994 16.7604C22.5983 16.4686 22.6523 16.0898 22.6946 15.7826C22.7177 15.6106 22.7408 15.4288 22.7872 15.3748C22.8354 15.3168 22.9823 15.2839 23.0885 15.3322C23.2103 15.3882 23.2103 15.5235 23.1929 15.6258C23.1543 15.8577 22.9864 16.0781 22.8242 16.2964C22.6562 16.5168 22.4978 16.7275 22.4786 16.9496C22.4651 17.1024 22.5502 17.3283 22.6894 17.6201C22.6006 17.7303 22.5059 17.8135 22.3862 17.8309C22.2144 17.856 22.0675 17.8116 21.9457 17.7074ZM22.2917 18.1747C22.2937 18.1516 22.2859 18.1284 22.2762 18.109C22.2626 18.0878 22.2511 18.0724 22.2375 18.051C22.2975 18.0569 22.3574 18.053 22.4191 18.0451C22.5699 18.0239 22.6896 17.9388 22.7919 17.8305C22.8365 17.9252 22.8847 18.0218 22.9389 18.1261C23.1826 18.5956 23.4513 19.1306 23.6505 19.689C23.9929 20.6473 24.0048 21.7061 23.9954 22.0539C23.5765 21.963 23.1512 21.8685 22.6311 21.7975C22.5616 21.2218 22.2573 18.6598 22.2917 18.1747ZM19.2431 26.1522C19.5153 25.8757 19.8004 25.5862 20.0251 25.1844C20.4139 24.4888 21.7145 22.9722 22.5614 22.4236L24.2767 23.1754C24.2767 23.2791 24.281 23.4822 24.2983 23.7284C24.0736 23.8278 23.0065 24.3333 22.2028 25.1715C21.7794 25.6122 21.4035 26.1177 21.1053 26.5281C21.0146 26.6491 20.9282 26.7657 20.846 26.8738C20.751 26.8652 20.656 26.8566 20.5652 26.8523C20.3276 26.835 20.1029 26.822 19.9905 26.7227C19.5757 26.3598 19.3812 26.2518 19.1955 26.2042C19.2128 26.1867 19.2258 26.1694 19.2431 26.1522ZM18.5605 27.5478C18.5129 27.3102 18.5129 27.0812 18.6209 26.8997C18.729 26.7097 18.8715 26.5497 19.0185 26.39C19.2129 26.4159 19.3554 26.4548 19.848 26.8868C20.0166 27.0337 20.2887 27.0511 20.5523 27.064C20.5955 27.0683 20.643 27.0726 20.6863 27.0769C20.5523 27.2411 20.4356 27.362 20.3494 27.3966C20.2025 27.457 19.9735 27.4139 19.7315 27.3663C19.455 27.3145 19.1396 27.2583 18.8673 27.3403C18.7031 27.3878 18.6124 27.4699 18.5605 27.5478ZM18.9278 27.5478C19.1525 27.4787 19.4247 27.5305 19.6925 27.578C19.9647 27.6299 20.224 27.6774 20.4313 27.5953C20.5739 27.5392 20.7381 27.362 20.9368 27.107C21.075 27.1372 21.1916 27.1849 21.2608 27.2842C21.3601 27.4268 21.3861 27.5779 21.3472 27.7335C21.3126 27.8675 21.2176 28.0359 21.0015 28.239C20.9497 28.2044 20.9151 28.1568 20.8762 28.1007C20.7812 27.9667 20.6602 27.7983 20.2972 27.7507C19.9472 27.7031 19.5843 27.8242 19.2906 27.9235C19.1263 27.9797 18.9535 28.0402 18.8844 28.0229C18.8109 28.0055 18.7159 27.8889 18.7116 27.7722C18.7074 27.6385 18.8284 27.578 18.9278 27.5478ZM19.848 28.9734C19.7443 28.9475 19.6407 28.9259 19.5542 28.9087C19.3425 28.8698 19.2042 28.8396 19.0962 28.7186C19.0314 28.6494 18.9061 28.455 18.7851 28.2088C18.8025 28.2174 18.8197 28.2261 18.837 28.2304C18.9623 28.2607 19.1393 28.2044 19.3597 28.1267C19.6319 28.0359 19.9646 27.9235 20.267 27.9624C20.5392 27.997 20.6127 28.105 20.6991 28.226C20.7379 28.2778 20.7769 28.334 20.8331 28.3815C20.6084 28.5587 20.293 28.7574 19.848 28.9734ZM20.4832 29.492C20.3492 29.3191 20.237 29.1852 20.0986 29.0901C20.4874 28.8914 20.7985 28.6926 21.0362 28.4983C21.0405 28.4983 21.0405 28.4983 21.0448 28.4983C21.3817 28.602 21.7922 28.7575 22.1465 28.9951C22.1249 29.0037 22.1077 29.0167 22.0817 29.0253C21.5416 29.224 21.1441 29.5913 20.967 30.045C20.7553 29.8333 20.6041 29.6432 20.4832 29.492ZM23.7841 32.162C23.3737 31.9676 21.8398 30.8702 21.14 30.2177C21.2783 29.777 21.6412 29.4185 22.1553 29.2282C22.2289 29.198 22.2936 29.1721 22.3498 29.1418C22.488 29.2542 22.6133 29.3794 22.717 29.522C22.877 29.7467 23.0152 30.0317 23.1621 30.3343C23.4342 30.8873 23.7151 31.462 24.1731 31.7125C25.02 32.1791 25.439 32.581 25.4001 32.6803C25.3526 32.8186 25.1539 33.1296 24.3675 33.0778C24.2982 32.6287 24.0996 32.309 23.7841 32.162ZM23.8661 36.6079C23.8401 36.6122 23.8185 36.6036 23.797 36.5819C23.7322 36.5084 23.702 36.3098 23.7884 36.0462C23.797 36.0202 23.8058 35.9857 23.8187 35.9469L24.8427 35.6099C24.579 36.1413 24.0087 36.5821 23.8661 36.6079ZM24.9462 35.3463L23.892 35.6963C23.9223 35.6013 23.9525 35.4976 23.9828 35.3852L25.0327 35.0611C24.9981 35.1648 24.9679 35.2686 24.9462 35.3463ZM25.1234 34.8062L24.0518 35.1346C24.0821 35.018 24.1166 34.897 24.1468 34.776L25.2658 34.4691C25.2142 34.5859 25.1666 34.6982 25.1234 34.8062ZM25.3871 34.2143L24.2076 34.534C24.2594 34.331 24.3026 34.1321 24.3372 33.9594L25.4778 34.0415C25.4475 34.0978 25.4173 34.1538 25.3871 34.2143ZM25.6117 33.8341L24.3717 33.7434C24.389 33.631 24.4019 33.5316 24.4019 33.4582C24.4019 33.402 24.3976 33.3502 24.3933 33.2939C24.4409 33.2982 24.4926 33.2982 24.5359 33.2982C24.847 33.2982 25.0673 33.2421 25.2272 33.16C25.4043 33.4192 25.6333 33.5358 25.8105 33.592C25.7413 33.6569 25.6764 33.7391 25.6117 33.8341ZM26.0322 31.5204L26.4404 31.6204C26.4939 31.6339 26.5472 31.6052 26.5667 31.5548L26.745 31.0964L26.9448 31.6597C26.9555 31.6898 26.9789 31.7135 27.0086 31.7246L27.5688 31.9348L27.2023 32.1822C27.1683 32.205 27.1501 32.245 27.1554 32.2857L27.2182 32.7645L26.9649 32.4828C26.936 32.4509 26.8905 32.4394 26.8491 32.453L26.6176 32.5335C26.5638 32.4416 26.4756 32.368 26.3738 32.3091L26.385 32.0057C26.3859 31.9799 26.3776 31.9546 26.3617 31.9344L26.0322 31.5204ZM24.5919 31.0214C24.9851 31.6868 25.1666 31.9892 25.5857 32.283C25.5986 32.2916 25.6159 32.3003 25.6332 32.3003C25.8363 32.3263 26.4239 32.4558 26.4584 32.715C26.506 33.0693 26.3763 33.294 26.0609 33.4149C25.983 33.4063 25.6375 33.3718 25.4041 33.0348C25.5208 32.9354 25.577 32.8274 25.6029 32.7539C25.7325 32.391 24.8295 31.825 24.2765 31.5226C24.0172 31.38 23.8142 31.0992 23.6328 30.7751C23.6543 30.7794 23.6716 30.7794 23.6932 30.7794C23.9697 30.7794 24.1901 30.6498 24.3067 30.5504C24.4105 30.7233 24.5056 30.8832 24.5919 31.0214ZM23.7192 29.626C23.9049 29.9068 24.0561 30.1488 24.1901 30.3648C24.108 30.4469 23.8358 30.6326 23.5075 30.5376C23.4556 30.4383 23.4081 30.3389 23.3563 30.2396C23.2051 29.9284 23.0625 29.6347 22.8897 29.397C22.7904 29.2544 22.665 29.1291 22.5311 29.0168C22.7255 28.8482 22.7558 28.6668 22.7644 28.5113C23.1058 28.8051 23.4254 29.1723 23.7192 29.626ZM22.5614 28.3514C22.5571 28.3859 22.5528 28.4249 22.5528 28.4638C22.5442 28.6107 22.5312 28.7533 22.3583 28.8828C21.9955 28.6235 21.5763 28.4464 21.2177 28.3298C21.382 28.1612 21.4899 27.9928 21.5417 27.8286C21.5417 27.8286 21.5417 27.8286 21.546 27.8286C21.9002 27.9278 22.2416 28.1051 22.5614 28.3514ZM21.6108 27.215C21.5892 27.2236 21.5719 27.241 21.5589 27.2582C21.546 27.2798 21.5374 27.2971 21.5244 27.3187C21.5028 27.2625 21.4725 27.2107 21.4379 27.1589C21.3515 27.0336 21.2219 26.9645 21.0793 26.9213C21.1442 26.8392 21.2089 26.7527 21.2781 26.6577C21.5892 26.23 21.9478 25.7504 22.3582 25.3227C23.0625 24.5882 24.0043 24.1042 24.3198 23.9573C24.3673 24.4153 24.4709 24.9554 24.6999 25.2924C24.2161 25.612 22.0602 27.0292 21.6108 27.215ZM30.3429 25.1704C30.2269 25.7092 30.2267 25.9317 30.2754 26.1171C30.2519 26.1105 30.2305 26.1074 30.207 26.1007C29.833 25.9969 29.4415 25.8881 28.9812 25.8865C28.1843 25.8842 26.2272 25.4831 25.3364 25.009L25.1613 23.1445C25.2519 23.0942 25.4273 22.9917 25.6343 22.8571C25.8302 23.0053 26.7902 23.6932 27.913 23.989C28.5038 24.1453 29.1283 24.2286 29.6318 24.2901C29.7816 24.3108 29.9255 24.3296 30.0598 24.349C30.0984 24.4363 30.1369 24.5236 30.1773 24.6051C30.2776 24.8212 30.3752 25.024 30.3429 25.1704ZM31.1625 26.2819C30.9439 26.2798 30.735 26.2327 30.5239 26.1818C30.4522 25.9993 30.4169 25.8558 30.5558 25.2153C30.6025 24.9967 30.4854 24.7504 30.3689 24.5136C30.3516 24.4737 30.3324 24.4301 30.3153 24.3902C30.5238 24.4277 30.6862 24.4709 30.7583 24.5298C30.8825 24.6288 30.9559 24.85 31.0317 25.0847C31.1205 25.3516 31.2245 25.6546 31.4284 25.8527C31.5496 25.9733 31.6656 26.0127 31.7586 26.0203C31.5739 26.1773 31.3736 26.2884 31.1625 26.2819ZM31.8815 25.7791C31.7665 25.8479 31.6548 25.7715 31.5802 25.6992C31.4107 25.5363 31.324 25.2732 31.2355 25.0159C31.1488 24.7527 31.0645 24.503 30.892 24.3616C30.7737 24.2642 30.5391 24.2067 30.2199 24.1566C30.1791 24.021 30.1642 23.8959 30.2175 23.7872C30.2939 23.6312 30.4135 23.5351 30.5684 23.4936C30.7022 23.4588 30.8957 23.4602 31.1782 23.5505C31.1731 23.6126 31.1483 23.6659 31.1181 23.7272C31.0471 23.8752 30.9585 24.0628 31.0931 24.4032C31.2214 24.7323 31.5033 24.9908 31.7327 25.1995C31.8616 25.3158 31.9983 25.4376 32.0167 25.5065C32.0373 25.579 31.9815 25.7188 31.8815 25.7791ZM32.5222 24.9836C32.4932 25.0738 32.384 25.2777 32.2275 25.5031C32.2266 25.4838 32.2258 25.4645 32.2212 25.4473C32.1868 25.3231 32.0518 25.1954 31.8768 25.0405C31.6654 24.8466 31.4057 24.6103 31.2928 24.3269C31.1909 24.0721 31.2497 23.9554 31.3135 23.8212C31.34 23.762 31.3701 23.7007 31.3845 23.6286C31.6484 23.7391 31.9752 23.9184 32.3801 24.2027C32.4078 24.3059 32.4392 24.407 32.4661 24.491C32.535 24.6949 32.5756 24.8305 32.5222 24.9836ZM32.5253 23.3957C32.4392 23.5967 32.3766 23.76 32.3606 23.927C31.9981 23.6834 31.6734 23.5079 31.388 23.3945C31.386 23.3907 31.386 23.3907 31.3838 23.387C31.311 23.0421 31.2477 22.6077 31.2836 22.1826C31.3016 22.1973 31.3213 22.2062 31.3415 22.2246C31.7774 22.6004 32.2914 22.7696 32.774 22.7044C32.6916 22.992 32.5989 23.2166 32.5253 23.3957ZM33.2579 19.2138C33.2871 19.667 33.0721 21.5407 32.8412 22.4693C32.3889 22.5622 31.8991 22.419 31.4833 22.0617C31.4212 22.0121 31.3671 21.9681 31.3134 21.9337C31.3446 21.7583 31.3933 21.5879 31.4676 21.4281C31.5865 21.1793 31.7687 20.92 31.9617 20.6448C32.3131 20.1385 32.6793 19.614 32.6762 19.0919C32.6732 18.125 32.8211 17.5636 32.9269 17.5493C33.0708 17.5238 33.4393 17.5465 33.7756 18.2593C33.4164 18.5377 33.2333 18.8667 33.2579 19.2138ZM34.0914 18.0445C34.0423 18.0717 33.999 18.1006 33.9521 18.1317C33.9327 18.088 33.9076 18.0427 33.8866 18.0049C33.7357 17.7329 33.5796 17.5675 33.4303 17.4676C33.571 17.1869 33.5618 16.9301 33.525 16.748C33.6153 16.777 33.7185 16.7938 33.833 16.8043L34.3556 17.9325C34.2488 17.9719 34.1556 18.0088 34.0914 18.0445ZM34.5611 17.8578L34.0792 16.8206C34.143 16.8198 34.2068 16.819 34.2743 16.8161L35.1263 17.6922C34.9237 17.7455 34.7289 17.8043 34.5611 17.8578ZM35.3673 17.6278L34.556 16.7983C34.6831 16.7869 34.8045 16.7741 34.9197 16.7594L35.7269 17.5368C35.6103 17.567 35.4877 17.5955 35.3673 17.6278ZM35.9795 17.4757L35.1866 16.7151C35.2941 16.695 35.3994 16.6711 35.4779 16.6523L36.2956 17.4042C36.1979 17.4237 36.0925 17.4476 35.9795 17.4757ZM36.6519 17.3249C36.625 17.3299 36.5906 17.3392 36.5504 17.3467L35.7588 16.6149C36.3514 16.5874 37.0134 16.8722 37.1054 16.9843C37.1218 17.0049 37.1247 17.028 37.1162 17.0574C37.0834 17.1496 36.9242 17.2725 36.6519 17.3249Z" fill="#464655"/>
</g>
<defs>
<clipPath id="clip0_106_18960">
<rect width="50" height="50" fill="white"/>
</clipPath>
</defs>
</svg>
