<svg width="50" height="50" viewBox="0 0 50 50" fill="none" xmlns="http://www.w3.org/2000/svg">
<g clip-path="url(#clip0_106_18942)">
<path d="M49.1373 8.62109H0.861619C0.385546 8.62109 -0.000488281 9.00703 -0.000488281 9.4831V40.5175C-0.000488281 40.9936 0.385546 41.3796 0.861619 41.3796H49.1374C49.6135 41.3796 49.9995 40.9936 49.9995 40.5175V9.4831C49.9994 9.00703 49.6134 8.62109 49.1373 8.62109Z" fill="#73AF00"/>
<path d="M49.9994 9.48222C49.9994 9.00615 49.6134 8.62012 49.1373 8.62012H45.2798L24.9995 21.9074L4.71913 8.62021H0.861619C0.385546 8.62021 -0.000488281 9.00615 -0.000488281 9.48222V11.7123L20.2798 24.9995L-0.000488281 38.2867V40.5167C-0.000488281 40.9928 0.385546 41.3788 0.861619 41.3788H4.71913L24.9995 28.0916L45.2798 41.3787H49.1373C49.6134 41.3787 49.9994 40.9927 49.9994 40.5166V38.2866L29.7191 24.9995L49.9994 11.7123V9.48222Z" fill="#FFE15A"/>
<path d="M49.9991 11.7129V38.2873L29.7188 25.0001L49.9991 11.7129Z" fill="#464655"/>
<path d="M-0.000488281 38.2873V11.7129L20.2798 25.0001L-0.000488281 38.2873Z" fill="#464655"/>
</g>
<defs>
<clipPath id="clip0_106_18942">
<rect width="50" height="50" fill="white"/>
</clipPath>
</defs>
</svg>
