<svg width="50" height="50" viewBox="0 0 50 50" fill="none" xmlns="http://www.w3.org/2000/svg">
<g clip-path="url(#clip0_106_18939)">
<path d="M49.1383 41.3797H0.862596C0.386523 41.3797 0.000488281 40.9937 0.000488281 40.5176V9.4832C0.000488281 9.00713 0.386523 8.62109 0.862596 8.62109H49.1384C49.6145 8.62109 50.0005 9.00713 50.0005 9.4832V40.5176C50.0004 40.9938 49.6144 41.3797 49.1383 41.3797Z" fill="#F5F5F5"/>
<path d="M25.0005 34.4824C30.2375 34.4824 34.4829 30.237 34.4829 25C34.4829 19.763 30.2375 15.5176 25.0005 15.5176C19.7635 15.5176 15.5181 19.763 15.5181 25C15.5181 30.237 19.7635 34.4824 25.0005 34.4824Z" fill="#FF4B55"/>
</g>
<defs>
<clipPath id="clip0_106_18939">
<rect width="50" height="50" fill="white"/>
</clipPath>
</defs>
</svg>
