<svg width="50" height="50" viewBox="0 0 50 50" fill="none" xmlns="http://www.w3.org/2000/svg">
<g clip-path="url(#clip0_106_18886)">
<path d="M49.1373 41.3797H0.861619C0.385546 41.3797 -0.000488281 40.9937 -0.000488281 40.5176V9.4832C-0.000488281 9.00713 0.385546 8.62109 0.861619 8.62109H49.1374C49.6135 8.62109 49.9995 9.00713 49.9995 9.4832V40.5176C49.9994 40.9938 49.6134 41.3797 49.1373 41.3797Z" fill="#F5F5F5"/>
<path d="M49.9994 9.4832C49.9994 9.00713 49.6134 8.62109 49.1373 8.62109H46.8532L24.9995 22.9392L3.1456 8.62119H0.861619C0.385546 8.62119 -0.000488281 9.00713 -0.000488281 9.4832V10.6823L21.8534 25.0005L-0.000488281 39.3185V40.5176C-0.000488281 40.9937 0.385546 41.3797 0.861619 41.3797H3.1457L24.9995 27.0617L46.8533 41.3797H49.1374C49.6135 41.3797 49.9995 40.9937 49.9995 40.5176V39.3185L28.1456 25.0005L49.9994 10.6824V9.4832Z" fill="#FF4B55"/>
<path d="M27.5931 12.3888C27.5931 12.3888 27.3201 11.9793 26.9106 12.2522C26.9106 12.2522 27.3842 12.5936 27.0642 12.9519C26.7256 13.331 26.2601 12.9602 26.231 12.6884C26.3551 12.6789 26.4532 12.5763 26.4532 12.4497C26.4532 12.3168 26.3456 12.2092 26.2127 12.2092C26.0798 12.2092 25.9722 12.3168 25.9722 12.4497C25.9722 12.5534 26.0382 12.641 26.1302 12.6748C26.0715 12.9074 25.4613 13.0854 25.2854 12.7002C25.0874 12.2665 25.4007 11.8982 25.8229 11.9494C25.8229 11.9494 25.7419 11.412 25.1704 11.638C25.1704 11.638 25.4093 11.0237 24.9998 10.6143C24.5903 11.0237 24.8292 11.638 24.8292 11.638C24.2576 11.4119 24.1767 11.9494 24.1767 11.9494C24.5989 11.8982 24.9121 12.2663 24.7142 12.7002C24.5383 13.0854 23.9281 12.9074 23.8694 12.6748C23.9614 12.6411 24.0274 12.5535 24.0274 12.4497C24.0274 12.3168 23.9198 12.2092 23.7869 12.2092C23.654 12.2092 23.5464 12.3168 23.5464 12.4497C23.5464 12.5764 23.6445 12.6789 23.7686 12.6884C23.7395 12.9602 23.2739 13.331 22.9354 12.9519C22.6155 12.5936 23.089 12.2522 23.089 12.2522C22.6795 11.9793 22.4065 12.3888 22.4065 12.3888C22.27 11.8428 21.7241 11.9793 21.7241 11.9793C22.2701 12.6617 22.6716 14.0695 22.6716 14.0695H27.3285C27.3285 14.0695 27.7299 12.6618 28.276 11.9793C28.2755 11.9793 27.7295 11.8428 27.5931 12.3888Z" fill="#FFE15A"/>
<path d="M27.3276 14.0691C26.5743 13.8036 25.7867 13.6709 24.9992 13.6709C24.2117 13.6709 23.4241 13.8036 22.6708 14.0691C21.4494 19.4206 24.9992 20.851 24.9992 20.851C24.9992 20.851 28.549 19.4206 27.3276 14.0691Z" fill="#FF4B55"/>
<path d="M23.2954 15.9734C23.2954 15.9734 23.1835 15.9523 23.0862 16.0302C23.0862 16.0302 23.0521 15.8957 23.2272 15.8632C23.4025 15.8306 23.2954 15.9734 23.2954 15.9734Z" fill="#82AFFF"/>
<path d="M23.1609 15.8033C23.1609 15.8033 23.0723 15.7318 22.9497 15.7545C22.9497 15.7545 22.9833 15.6198 23.153 15.674C23.3228 15.7281 23.1609 15.8033 23.1609 15.8033Z" fill="#82AFFF"/>
<path d="M23.2341 15.8728C23.2341 15.8728 23.1118 15.8517 23.0054 15.9296C23.0054 15.9296 22.9682 15.7951 23.1596 15.7626C23.351 15.7301 23.2341 15.8728 23.2341 15.8728Z" fill="#82AFFF"/>
<path d="M25.3523 16.2299C25.3523 16.2299 25.2386 16.2353 25.1619 16.3336C25.1619 16.3336 25.0977 16.2106 25.2605 16.1385C25.4233 16.0663 25.3523 16.2299 25.3523 16.2299Z" fill="#82AFFF"/>
<path d="M25.1855 16.0839C25.1855 16.0839 25.0827 16.0349 24.9688 16.0853C24.9688 16.0853 24.9702 15.9464 25.1479 15.9599C25.3255 15.9734 25.1855 16.0839 25.1855 16.0839Z" fill="#82AFFF"/>
<path d="M25.2697 16.147C25.2697 16.147 25.1457 16.1547 25.0603 16.2551C25.0603 16.2551 24.9929 16.1329 25.1717 16.057C25.3505 15.9811 25.2697 16.147 25.2697 16.147Z" fill="#82AFFF"/>
<path d="M26.6522 16.3008C26.6522 16.3008 26.6096 16.3008 26.5333 16.3726C26.5333 16.3726 26.4788 16.2505 26.6395 16.1905C26.8004 16.1306 26.6522 16.3008 26.6522 16.3008Z" fill="#82AFFF"/>
<path d="M26.5708 16.1331C26.5708 16.1331 26.4748 16.0799 26.3623 16.1217C26.3623 16.1217 26.3718 15.9883 26.5418 16.0115C26.7118 16.0348 26.5708 16.1331 26.5708 16.1331Z" fill="#82AFFF"/>
<path d="M26.6477 16.1981C26.6477 16.1981 26.528 16.1984 26.4402 16.2899C26.4402 16.2899 26.3825 16.1683 26.5588 16.1057C26.7351 16.0432 26.6477 16.1981 26.6477 16.1981Z" fill="#82AFFF"/>
<path d="M23.1091 15.1285C23.1091 15.1285 23.0062 15.0602 22.876 15.0964C22.876 15.0964 22.8992 14.948 23.0879 14.9898C23.2767 15.0316 23.1091 15.1285 23.1091 15.1285Z" fill="#82AFFF"/>
<path d="M23.1002 14.8726C23.1002 14.8726 23.0338 14.7682 22.8921 14.759C22.8921 14.759 22.9838 14.6183 23.1448 14.7263C23.306 14.8341 23.1002 14.8726 23.1002 14.8726Z" fill="#82AFFF"/>
<path d="M23.1008 15.0088C23.1008 15.0088 22.9924 14.9287 22.8491 14.9582C22.8491 14.9582 22.8813 14.8017 23.0843 14.8595C23.2873 14.9175 23.1008 15.0088 23.1008 15.0088Z" fill="#82AFFF"/>
<path d="M26.3247 15.4774C26.5048 15.4823 26.7187 15.4109 26.7528 15.2244C26.792 15.0101 26.6084 14.9017 26.362 14.9113C26.1821 14.9185 25.7266 15.0218 25.4003 15.0103C25.0775 14.9989 25.0687 14.6796 25.5576 14.7135C26.2826 14.7638 26.3978 14.6697 26.3978 14.6697C26.0085 14.7427 25.8528 14.6064 25.4393 14.6064C25.0257 14.6064 24.9463 14.8929 25.1133 15.0492C25.3004 15.2244 25.9793 15.1076 26.1594 15.0735C26.3394 15.0395 26.5678 15.0377 26.5858 15.1644C26.6019 15.2779 26.3004 15.2718 26.0867 15.2636C25.7467 15.2505 25.2518 15.3428 24.8115 15.3655C24.4447 15.3845 24.3937 15.2811 24.3102 15.1751C24.3297 15.1398 24.3408 15.1005 24.3408 15.0589C24.3408 15.0379 24.3375 15.0176 24.3322 14.9979C24.36 14.9675 24.3891 14.9188 24.4023 14.8398C24.4023 14.8398 24.3085 14.8233 24.2376 14.8592C24.1808 14.8144 24.1055 14.7863 24.0222 14.7863C23.9388 14.7863 23.8636 14.8144 23.8067 14.8592C23.7358 14.8234 23.642 14.8398 23.642 14.8398C23.6554 14.9189 23.6845 14.9674 23.7121 14.9979C23.7068 15.0175 23.7035 15.0377 23.7035 15.0589C23.7035 15.1353 23.7402 15.2043 23.7995 15.2538C23.828 15.2777 23.8493 15.3092 23.8565 15.3457L23.8668 15.3976C23.8713 15.4203 23.8859 15.4381 23.905 15.4489C23.6026 15.4178 23.4595 15.2277 23.386 15.1221C23.3031 15.0029 23.2515 14.7394 23.1249 14.7102L23.0503 15.1076C23.0503 15.1076 23.2102 15.4773 23.5076 15.6282C23.8434 15.7984 23.9066 15.8034 24.0169 15.8521C24.0298 15.9104 23.8093 15.9461 23.5854 15.9008C23.4292 15.8691 23.2187 15.6422 23.0987 15.6584L23.2385 15.9688C23.618 16.2089 23.9497 16.214 24.2343 16.1635C24.4354 16.1278 24.5118 15.9641 24.5251 15.8939C24.6072 15.8787 24.6967 15.8617 24.9738 15.7937C25.0898 15.7651 25.2235 15.7501 25.3565 15.7438C25.394 15.8294 25.4798 15.939 25.775 15.9493C25.775 15.9493 25.8463 16.0629 25.6031 16.0401C25.3598 16.0174 25.2975 15.9416 25.1546 15.9578L25.2819 16.2607C25.2819 16.2607 25.5934 16.1537 25.9761 16.1927C25.9761 16.1927 26.0474 16.2122 26.0896 16.1506C26.1317 16.089 26.1124 16.0533 26.0733 15.9981C26.0515 15.9671 26.0388 15.8665 26.0319 15.7842C26.1722 15.8194 26.6023 15.7321 26.7578 15.7452C26.9135 15.7581 26.9362 15.9398 26.9005 16.0015C26.8648 16.0631 26.5389 16.0104 26.5389 16.0104L26.6483 16.3097C26.6483 16.3097 26.6812 16.2938 26.7643 16.2156C26.8318 16.152 27.1081 16.1735 27.1081 16.1248V15.5705C27.1081 15.5442 27.0853 15.5237 27.0591 15.526C26.4495 15.5791 26.3247 15.4774 26.3247 15.4774Z" fill="#FFE15A"/>
<path d="M23.8945 15.2803C23.9037 15.2981 23.9104 15.3176 23.9142 15.3382L23.9233 15.39C23.9266 15.4082 23.9409 15.4214 23.9575 15.4214H24.0989C24.1155 15.4214 24.1299 15.4082 24.1331 15.39L24.1423 15.3382C24.146 15.3176 24.1527 15.2982 24.1619 15.2803H23.8945Z" fill="#FF4B55"/>
<path d="M24.0276 15.3828C23.995 15.3828 23.9695 15.3868 23.973 15.4321L23.9862 15.626C23.9884 15.6556 24.0063 15.6781 24.0276 15.6781C24.0488 15.6781 24.0668 15.6556 24.069 15.626L24.0822 15.4321C24.0856 15.3868 24.0601 15.3828 24.0276 15.3828Z" fill="#82AFFF"/>
<path d="M23.6065 17.8878C23.6065 17.8878 23.5152 17.8706 23.4358 17.9341C23.4358 17.9341 23.4079 17.8244 23.5508 17.7978C23.6939 17.7715 23.6065 17.8878 23.6065 17.8878Z" fill="#82AFFF"/>
<path d="M23.4965 17.7489C23.4965 17.7489 23.4242 17.6906 23.3242 17.709C23.3242 17.709 23.3516 17.5991 23.49 17.6433C23.6285 17.6874 23.4965 17.7489 23.4965 17.7489Z" fill="#82AFFF"/>
<path d="M23.5566 17.8058C23.5566 17.8058 23.4568 17.7886 23.3701 17.8521C23.3701 17.8521 23.3397 17.7424 23.4958 17.7158C23.6519 17.6894 23.5566 17.8058 23.5566 17.8058Z" fill="#82AFFF"/>
<path d="M25.2841 18.0974C25.2841 18.0974 25.1914 18.1018 25.1289 18.1819C25.1289 18.1819 25.0764 18.0815 25.2093 18.0227C25.3423 17.964 25.2841 18.0974 25.2841 18.0974Z" fill="#82AFFF"/>
<path d="M25.148 17.9779C25.148 17.9779 25.0643 17.938 24.9712 17.979C24.9712 17.979 24.9724 17.8657 25.1173 17.8767C25.2622 17.8877 25.148 17.9779 25.148 17.9779Z" fill="#82AFFF"/>
<path d="M25.2166 18.0291C25.2166 18.0291 25.1155 18.0355 25.0458 18.1173C25.0458 18.1173 24.9908 18.0175 25.1366 17.9557C25.2826 17.8938 25.2166 18.0291 25.2166 18.0291Z" fill="#82AFFF"/>
<path d="M26.344 18.155C26.344 18.155 26.3094 18.155 26.2471 18.2135C26.2471 18.2135 26.2024 18.1139 26.3337 18.0651C26.4649 18.0162 26.344 18.155 26.344 18.155Z" fill="#82AFFF"/>
<path d="M26.2775 18.0182C26.2775 18.0182 26.1992 17.9749 26.1074 18.0091C26.1074 18.0091 26.1151 17.9003 26.2539 17.9192C26.3926 17.9381 26.2775 18.0182 26.2775 18.0182Z" fill="#82AFFF"/>
<path d="M26.3408 18.0718C26.3408 18.0718 26.2432 18.072 26.1714 18.1467C26.1714 18.1467 26.1244 18.0476 26.2682 17.9965C26.4121 17.9455 26.3408 18.0718 26.3408 18.0718Z" fill="#82AFFF"/>
<path d="M23.4538 17.1992C23.4538 17.1992 23.37 17.1436 23.2637 17.1731C23.2637 17.1731 23.2826 17.052 23.4366 17.0862C23.5905 17.1203 23.4538 17.1992 23.4538 17.1992Z" fill="#82AFFF"/>
<path d="M23.4471 16.9905C23.4471 16.9905 23.3929 16.9053 23.2773 16.8978C23.2773 16.8978 23.3521 16.7831 23.4835 16.8711C23.6148 16.9592 23.4471 16.9905 23.4471 16.9905Z" fill="#82AFFF"/>
<path d="M23.4475 17.1009C23.4475 17.1009 23.359 17.0356 23.2422 17.0597C23.2422 17.0597 23.2685 16.932 23.434 16.9792C23.5996 17.0264 23.4475 17.1009 23.4475 17.1009Z" fill="#82AFFF"/>
<path d="M26.0767 17.4828C26.2235 17.4868 26.3981 17.4286 26.4259 17.2765C26.4578 17.1017 26.3081 17.0132 26.107 17.0212C25.9603 17.0271 25.5887 17.1112 25.3226 17.1019C25.0593 17.0926 25.052 16.8321 25.4509 16.8598C26.0423 16.9008 26.1361 16.8241 26.1361 16.8241C25.8186 16.8836 25.6916 16.7725 25.3542 16.7725C25.0168 16.7725 24.9521 17.0061 25.0883 17.1337C25.2409 17.2766 25.7947 17.1813 25.9416 17.1535C26.0885 17.1257 26.2748 17.1242 26.2895 17.2276C26.3028 17.3202 26.0566 17.3152 25.8824 17.3086C25.605 17.2979 25.2014 17.3732 24.8422 17.3917C24.543 17.4071 24.5014 17.3228 24.4332 17.2364C24.4491 17.2076 24.4582 17.1757 24.4582 17.1417C24.4582 17.1246 24.4554 17.1081 24.4511 17.092C24.4737 17.0672 24.4974 17.0275 24.5083 16.9631C24.5083 16.9631 24.4316 16.9496 24.3739 16.9788C24.3276 16.9423 24.2662 16.9194 24.1981 16.9194C24.1301 16.9194 24.0687 16.9423 24.0224 16.9788C23.9646 16.9496 23.888 16.9631 23.888 16.9631C23.8988 17.0275 23.9226 17.0672 23.9452 17.092C23.9409 17.108 23.9381 17.1245 23.9381 17.1417C23.9381 17.204 23.9682 17.2604 24.0164 17.3007C24.0396 17.3202 24.057 17.3458 24.0629 17.3757L24.0713 17.4181C24.075 17.4366 24.0869 17.4511 24.1024 17.46C23.8558 17.4346 23.7391 17.2796 23.6792 17.1934C23.6116 17.0962 23.5694 16.8812 23.4661 16.8573L23.4053 17.1814C23.4053 17.1814 23.5357 17.4831 23.7783 17.6062C24.0521 17.745 24.1037 17.749 24.1937 17.7887C24.2043 17.8363 24.0244 17.8654 23.8418 17.8283C23.7144 17.8024 23.5427 17.6175 23.4447 17.6306L23.5587 17.8838C23.8683 18.0796 24.1389 18.0837 24.371 18.0425C24.535 18.0134 24.5974 17.8799 24.6082 17.8227C24.6751 17.8103 24.748 17.7964 24.9742 17.7408C25.0689 17.7176 25.1779 17.7053 25.2865 17.7002C25.3171 17.77 25.3871 17.8595 25.6278 17.8678C25.6278 17.8678 25.686 17.9603 25.4876 17.9418C25.2891 17.9232 25.2383 17.8614 25.1218 17.8747L25.2257 18.1218C25.2257 18.1218 25.4797 18.0345 25.792 18.0662C25.792 18.0662 25.8502 18.082 25.8846 18.0318C25.9189 17.9815 25.9031 17.9524 25.8713 17.9075C25.8534 17.8822 25.8432 17.8001 25.8375 17.7329C25.9519 17.7617 26.3028 17.6904 26.4295 17.701C26.5565 17.7115 26.575 17.8597 26.5459 17.9101C26.5168 17.9604 26.2509 17.9174 26.2509 17.9174L26.3402 18.1614C26.3402 18.1614 26.3671 18.1485 26.4349 18.0847C26.4899 18.0328 26.7153 18.0503 26.7153 18.0106V17.5585C26.7153 17.537 26.6967 17.5203 26.6754 17.5222C26.1785 17.5656 26.0767 17.4828 26.0767 17.4828Z" fill="#FFE15A"/>
<path d="M24.0942 17.3223C24.1017 17.3369 24.1073 17.3527 24.1102 17.3694L24.1176 17.4118C24.1201 17.4267 24.1319 17.4374 24.1454 17.4374H24.2607C24.2742 17.4374 24.2859 17.4267 24.2886 17.4118L24.296 17.3694C24.299 17.3527 24.3045 17.3368 24.3119 17.3223H24.0942Z" fill="#FF4B55"/>
<path d="M24.202 17.4062C24.1753 17.4062 24.1547 17.4095 24.1575 17.4466L24.1682 17.6047C24.1701 17.6289 24.1846 17.6473 24.202 17.6473C24.2195 17.6473 24.234 17.6289 24.2358 17.6047L24.2465 17.4466C24.2494 17.4095 24.2287 17.4062 24.202 17.4062Z" fill="#82AFFF"/>
<path d="M23.9503 19.4102C23.9503 19.4102 23.8819 19.3973 23.8224 19.4448C23.8224 19.4448 23.8016 19.3626 23.9087 19.3428C24.0157 19.323 23.9503 19.4102 23.9503 19.4102Z" fill="#82AFFF"/>
<path d="M23.8678 19.3057C23.8678 19.3057 23.8136 19.262 23.7388 19.2758C23.7388 19.2758 23.7593 19.1935 23.8629 19.2266C23.9666 19.2598 23.8678 19.3057 23.8678 19.3057Z" fill="#82AFFF"/>
<path d="M23.9129 19.3486C23.9129 19.3486 23.8382 19.3357 23.7733 19.3833C23.7733 19.3833 23.7505 19.3011 23.8674 19.2813C23.9843 19.2614 23.9129 19.3486 23.9129 19.3486Z" fill="#82AFFF"/>
<path d="M25.206 19.5671C25.206 19.5671 25.1364 19.5703 25.0897 19.6304C25.0897 19.6304 25.0504 19.5552 25.1499 19.5112C25.2494 19.4672 25.206 19.5671 25.206 19.5671Z" fill="#82AFFF"/>
<path d="M25.1041 19.4777C25.1041 19.4777 25.0413 19.4477 24.9717 19.4786C24.9717 19.4786 24.9727 19.3938 25.0811 19.4019C25.1896 19.4101 25.1041 19.4777 25.1041 19.4777Z" fill="#82AFFF"/>
<path d="M25.1555 19.5153C25.1555 19.5153 25.0798 19.5201 25.0276 19.5814C25.0276 19.5814 24.9864 19.5066 25.0956 19.4604C25.2048 19.4141 25.1555 19.5153 25.1555 19.5153Z" fill="#82AFFF"/>
<path d="M26 19.6093C26 19.6093 25.974 19.6093 25.9273 19.6531C25.9273 19.6531 25.8939 19.5785 25.9922 19.542C26.0904 19.5054 26 19.6093 26 19.6093Z" fill="#82AFFF"/>
<path d="M25.9506 19.5076C25.9506 19.5076 25.892 19.4752 25.8232 19.5007C25.8232 19.5007 25.8291 19.4192 25.9329 19.4333C26.0368 19.4474 25.9506 19.5076 25.9506 19.5076Z" fill="#82AFFF"/>
<path d="M25.9971 19.5469C25.9971 19.5469 25.9241 19.5471 25.8703 19.6031C25.8703 19.6031 25.835 19.5288 25.9427 19.4906C26.0504 19.4523 25.9971 19.5469 25.9971 19.5469Z" fill="#82AFFF"/>
<path d="M23.8357 18.8939C23.8357 18.8939 23.7729 18.8522 23.6934 18.8743C23.6934 18.8743 23.7076 18.7837 23.8228 18.8092C23.9381 18.8347 23.8357 18.8939 23.8357 18.8939Z" fill="#82AFFF"/>
<path d="M23.8307 18.7373C23.8307 18.7373 23.7901 18.6736 23.7036 18.6679C23.7036 18.6679 23.7597 18.5821 23.8579 18.6479C23.9563 18.7138 23.8307 18.7373 23.8307 18.7373Z" fill="#82AFFF"/>
<path d="M23.831 18.8206C23.831 18.8206 23.7646 18.7717 23.6772 18.7898C23.6772 18.7898 23.6969 18.6942 23.8209 18.7295C23.9449 18.7648 23.831 18.8206 23.831 18.8206Z" fill="#82AFFF"/>
<path d="M25.8009 19.1061C25.9108 19.1092 26.0416 19.0655 26.0624 18.9517C26.0863 18.8207 25.9742 18.7546 25.8237 18.7604C25.7138 18.7647 25.4356 18.8279 25.2363 18.8209C25.0393 18.814 25.0339 18.6189 25.3324 18.6396C25.7752 18.6703 25.8456 18.6129 25.8456 18.6129C25.6079 18.6575 25.5127 18.5742 25.2602 18.5742C25.0076 18.5742 24.9591 18.7491 25.061 18.8447C25.1753 18.9518 25.59 18.8804 25.6999 18.8596C25.8099 18.8388 25.9493 18.8377 25.9604 18.915C25.9704 18.9844 25.7861 18.9807 25.6556 18.9756C25.4478 18.9676 25.1457 19.0239 24.8767 19.0379C24.6526 19.0494 24.6214 18.9862 24.5704 18.9216C24.5823 18.9 24.5892 18.8761 24.5892 18.8507C24.5892 18.8379 24.5871 18.8255 24.5839 18.8135C24.6008 18.7948 24.6186 18.7652 24.6268 18.7169C24.6268 18.7169 24.5694 18.7068 24.5261 18.7286C24.4914 18.7013 24.4455 18.6841 24.3945 18.6841C24.3436 18.6841 24.2977 18.7012 24.263 18.7286C24.2196 18.7067 24.1623 18.7169 24.1623 18.7169C24.1705 18.7651 24.1883 18.7948 24.2052 18.8135C24.202 18.8254 24.1999 18.8378 24.1999 18.8507C24.1999 18.8974 24.2225 18.9395 24.2585 18.9697C24.276 18.9843 24.2889 19.0035 24.2933 19.0259L24.2995 19.0575C24.3022 19.0714 24.3112 19.0822 24.3228 19.0889C24.1381 19.0698 24.0507 18.9537 24.0059 18.8893C23.9552 18.8165 23.9236 18.6556 23.8464 18.6376L23.8008 18.8803C23.8008 18.8803 23.8985 19.1062 24.0801 19.1982C24.2852 19.3022 24.3237 19.3053 24.3911 19.335C24.3991 19.3706 24.2643 19.3924 24.1276 19.3647C24.0321 19.3453 23.9036 19.2067 23.8304 19.2167L23.9157 19.4063C24.1476 19.5529 24.3501 19.5561 24.5239 19.5252C24.6468 19.5034 24.6935 19.4034 24.7015 19.3606C24.7516 19.3514 24.8062 19.3409 24.9755 19.2993C25.0464 19.2818 25.1279 19.2727 25.2093 19.2689C25.2322 19.3212 25.2846 19.3881 25.4647 19.3943C25.4647 19.3943 25.5083 19.4637 25.3598 19.4498C25.2111 19.4359 25.173 19.3896 25.0858 19.3995L25.1637 19.5846C25.1637 19.5846 25.3539 19.5191 25.5876 19.543C25.5876 19.543 25.6311 19.5548 25.6569 19.5172C25.6827 19.4796 25.6708 19.4577 25.647 19.4241C25.6336 19.4052 25.6259 19.3436 25.6217 19.2935C25.7073 19.315 25.97 19.2616 26.065 19.2696C26.1601 19.2776 26.174 19.3885 26.1522 19.4261C26.1305 19.4637 25.9313 19.4315 25.9313 19.4315L25.9981 19.6143C25.9981 19.6143 26.0182 19.6046 26.0689 19.5568C26.1102 19.5181 26.279 19.5311 26.279 19.5014V19.1628C26.279 19.1468 26.2651 19.1343 26.249 19.1356C25.877 19.1684 25.8009 19.1061 25.8009 19.1061Z" fill="#FFE15A"/>
<path d="M24.3164 18.9863C24.322 18.9974 24.3261 19.0092 24.3283 19.0217L24.3339 19.0533C24.3358 19.0645 24.3446 19.0725 24.3547 19.0725H24.441C24.4512 19.0725 24.4599 19.0644 24.4618 19.0533L24.4674 19.0217C24.4696 19.0092 24.4737 18.9973 24.4793 18.9863H24.3164Z" fill="#FF4B55"/>
<path d="M24.3983 19.0488C24.3784 19.0488 24.3629 19.0512 24.3649 19.079L24.373 19.1974C24.3744 19.2154 24.3853 19.2293 24.3983 19.2293C24.4114 19.2293 24.4223 19.2155 24.4236 19.1974L24.4317 19.079C24.4338 19.0512 24.4182 19.0488 24.3983 19.0488Z" fill="#82AFFF"/>
</g>
<defs>
<clipPath id="clip0_106_18886">
<rect width="50" height="50" fill="white"/>
</clipPath>
</defs>
</svg>
