<svg width="50" height="50" viewBox="0 0 50 50" fill="none" xmlns="http://www.w3.org/2000/svg">
<g clip-path="url(#clip0_106_18880)">
<path d="M50.0009 19.5407H0.000976562V9.4832C0.000976562 9.00713 0.387011 8.62109 0.863084 8.62109H49.1389C49.6149 8.62109 50.001 9.00713 50.001 9.4832L50.0009 19.5407Z" fill="#464655"/>
<path d="M49.1388 41.3795H0.863084C0.387011 41.3795 0.000976562 40.9934 0.000976562 40.5174V30.46H50.0009V40.5174C50.0009 40.9935 49.6148 41.3795 49.1388 41.3795Z" fill="#73AF00"/>
<path d="M50.0009 19.54H0.000976562V30.459H50.0009V19.54Z" fill="#F5F5F5"/>
<path d="M0.318945 41.1708L29.529 25.3489C29.8062 25.1988 29.8062 24.801 29.529 24.6509L0.318945 8.8291C0.129004 8.98721 0.000976562 9.21631 0.000976562 9.48271V40.5171C0.000976562 40.7836 0.129004 41.0127 0.318945 41.1708Z" fill="#FF4B55"/>
<path d="M9.31713 22.7698L9.82953 23.8812L11.0179 23.5888C11.0921 23.5707 11.1536 23.6476 11.1193 23.716L10.5699 24.8095L11.5394 25.5564C11.5999 25.6031 11.578 25.6992 11.5032 25.7149L10.3056 25.9671L10.3262 27.1909C10.3275 27.2672 10.2386 27.31 10.1797 27.2615L9.23588 26.4825L8.29204 27.2615C8.23305 27.3101 8.14428 27.2673 8.14555 27.1909L8.16616 25.9671L6.9686 25.7149C6.8938 25.6992 6.87192 25.6031 6.93237 25.5564L7.9019 24.8095L7.35249 23.716C7.31821 23.6476 7.37964 23.5706 7.45385 23.5888L8.64223 23.8812L9.15463 22.7698C9.18647 22.7004 9.2851 22.7004 9.31713 22.7698Z" fill="#F5F5F5"/>
</g>
<defs>
<clipPath id="clip0_106_18880">
<rect width="50" height="50" fill="white"/>
</clipPath>
</defs>
</svg>
