<svg width="50" height="50" viewBox="0 0 50 50" fill="none" xmlns="http://www.w3.org/2000/svg">
<g clip-path="url(#clip0_106_18842)">
<path d="M49.1388 8.62109H0.863084C0.387011 8.62109 0.000976562 9.00703 0.000976562 9.4831V40.5175C0.000976562 40.9936 0.387011 41.3796 0.863084 41.3796H49.1389C49.6149 41.3796 50.001 40.9936 50.001 40.5175V9.4831C50.0009 9.00703 49.6148 8.62109 49.1388 8.62109Z" fill="#82C3D2"/>
<path d="M5.81298 12.5439C5.73495 12.2136 5.71552 12.0918 5.86376 11.9437C5.93603 11.8714 5.93603 11.7543 5.86376 11.682C5.7915 11.6098 5.67441 11.6098 5.60214 11.682C5.30214 11.9821 5.37373 12.2936 5.45136 12.6233C5.21484 12.5461 4.96953 12.6034 4.83808 12.7692C4.77285 12.852 4.64668 13.084 4.8831 13.4545C4.93808 13.5405 5.05175 13.5658 5.13857 13.5113C5.2248 13.4563 5.2499 13.3418 5.19492 13.2559C5.10625 13.1163 5.10361 13.0303 5.12841 12.9988C5.15771 12.9616 5.24853 12.942 5.34365 12.9757C5.40507 12.997 5.54785 13.0707 5.54785 13.2934C5.54785 13.4712 5.46562 13.6342 5.32226 13.74C5.17861 13.8463 4.99267 13.8763 4.81347 13.8206C4.59218 13.753 4.43759 13.5199 4.43759 13.2536C4.43759 13.0631 4.47841 12.8705 4.55341 12.7018C4.56533 12.6769 4.84814 12.091 4.92099 11.8727C5.06503 11.4407 4.91865 11.2235 4.81875 11.1328C4.68505 11.011 4.48964 10.9807 4.32148 11.0544C4.2959 11.0657 4.2748 11.0821 4.25263 11.0974C4.23047 11.082 4.20927 11.0657 4.18379 11.0544C4.01572 10.9807 3.82041 11.011 3.68652 11.1328C3.58662 11.2235 3.44023 11.4408 3.58428 11.8727C3.65713 12.091 3.93984 12.6769 3.94922 12.6964C4.02666 12.8706 4.06758 13.0632 4.06758 13.2537C4.06758 13.5201 3.91308 13.7531 3.6917 13.8207C3.51181 13.8763 3.32646 13.8467 3.18291 13.7401C3.03955 13.6342 2.95732 13.4713 2.95732 13.2935C2.95732 13.0708 3.1001 12.9972 3.16152 12.9758C3.25693 12.9422 3.34726 12.9616 3.37676 12.9989C3.40156 13.0304 3.39892 13.1164 3.31025 13.256C3.25527 13.342 3.28037 13.4565 3.3666 13.5114C3.45351 13.5664 3.56758 13.5407 3.62207 13.4546C3.8584 13.0841 3.73232 12.8521 3.66709 12.7693C3.53555 12.6035 3.29033 12.5462 3.05381 12.6234C3.13154 12.2938 3.20303 11.9822 2.90303 11.6821C2.83076 11.6099 2.71367 11.6099 2.64141 11.6821C2.56914 11.7544 2.56914 11.8715 2.64141 11.9438C2.78955 12.0919 2.77031 12.2137 2.69219 12.544C2.64531 12.742 2.58711 12.9889 2.58711 13.2932C2.58711 13.4956 2.6583 13.6893 2.77803 13.8483H2.77207C2.66982 13.8483 2.58701 13.9311 2.58701 14.0334C2.58701 14.1356 2.66973 14.2185 2.77207 14.2185H2.77803C2.6583 14.3775 2.58711 14.5711 2.58711 14.7735C2.58711 15.0778 2.64531 15.3247 2.69209 15.5227C2.77012 15.8531 2.78955 15.9749 2.64131 16.123C2.56904 16.1953 2.56904 16.3124 2.64131 16.3847C2.67744 16.4208 2.7248 16.4389 2.77217 16.4389C2.81943 16.4389 2.86689 16.4208 2.90303 16.3847C3.20303 16.0846 3.13144 15.773 3.05381 15.4434C3.29033 15.5203 3.53564 15.4633 3.66709 15.2975C3.73232 15.2147 3.85849 14.9827 3.62207 14.6122C3.56728 14.5262 3.45293 14.5006 3.3666 14.5554C3.28037 14.6103 3.25527 14.7249 3.31025 14.8108C3.39892 14.9504 3.40156 15.0364 3.37676 15.0679C3.34736 15.1047 3.25693 15.1242 3.16152 15.091C3.1001 15.0697 2.95732 14.996 2.95732 14.7733C2.95732 14.5955 3.03955 14.4325 3.18291 14.3267C3.32656 14.2204 3.5123 14.19 3.6917 14.2461C3.91299 14.3137 4.06758 14.5468 4.06758 14.8131C4.06758 15.0036 4.02676 15.1962 3.94922 15.3704L2.73721 18.0971C2.6376 18.3211 2.58701 18.5594 2.58701 18.8047C2.58701 19.1204 2.73057 19.4087 2.95654 19.5847C2.73066 19.7606 2.58701 20.0489 2.58701 20.3646C2.58701 20.61 2.6377 20.8482 2.73721 21.0722L3.94902 23.7987C4.02646 23.9729 4.06738 24.1655 4.06738 24.356C4.06738 24.6224 3.91289 24.8554 3.6915 24.923C3.51162 24.9791 3.32627 24.949 3.18271 24.8425C3.03935 24.7365 2.95713 24.5736 2.95713 24.3958C2.95713 24.1731 3.0999 24.0995 3.16133 24.0781C3.25674 24.0448 3.34707 24.0639 3.37656 24.1012C3.40137 24.1327 3.39873 24.2187 3.31006 24.3583C3.25508 24.4443 3.28017 24.5589 3.3664 24.6137C3.45332 24.6687 3.56738 24.6433 3.62187 24.5569C3.8582 24.1864 3.73213 23.9545 3.66689 23.8717C3.53535 23.7058 3.29014 23.6487 3.05361 23.7258C3.13135 23.3962 3.20283 23.0845 2.90283 22.7845C2.83057 22.7122 2.71348 22.7122 2.64121 22.7845C2.56895 22.8567 2.56895 22.9738 2.64121 23.0461C2.78936 23.1942 2.77012 23.316 2.69199 23.6464C2.64521 23.8444 2.58701 24.0913 2.58701 24.3956C2.58701 24.598 2.6582 24.7917 2.77793 24.9508H2.77197C2.66973 24.9508 2.58691 25.0335 2.58691 25.1358C2.58691 25.2382 2.66963 25.3209 2.77197 25.3209H2.77793C2.65811 25.48 2.58701 25.6735 2.58701 25.876C2.58701 26.1803 2.64521 26.4272 2.69199 26.6253C2.77002 26.9556 2.78945 27.0774 2.64121 27.2256C2.56895 27.2978 2.56895 27.4149 2.64121 27.4872C2.67734 27.5233 2.72471 27.5414 2.77207 27.5414C2.81934 27.5414 2.8668 27.5233 2.90293 27.4872C3.20293 27.1871 3.13135 26.8756 3.05371 26.5459C3.29023 26.6228 3.53555 26.5658 3.66699 26.4C3.73222 26.3173 3.8584 26.0852 3.62197 25.7147C3.56719 25.6287 3.45283 25.6031 3.3665 25.6579C3.28027 25.7129 3.25517 25.8274 3.31015 25.9134C3.39883 26.0529 3.40146 26.1389 3.37666 26.1704C3.34726 26.2076 3.25683 26.2272 3.16142 26.1935C3.1 26.1722 2.95723 26.0985 2.95723 25.8759C2.95723 25.698 3.03945 25.535 3.18281 25.4292C3.32646 25.3229 3.51221 25.2926 3.6916 25.3486C3.91289 25.4162 4.06748 25.6493 4.06748 25.9156C4.06748 26.1061 4.02666 26.2987 3.94912 26.4729L2.73721 29.1999C2.6376 29.4239 2.58701 29.6622 2.58701 29.9075C2.58701 30.2232 2.73057 30.5115 2.95654 30.6875C2.73066 30.8634 2.58701 31.1517 2.58701 31.4674C2.58701 31.7129 2.6377 31.951 2.73721 32.1751L3.94902 34.9015C4.02646 35.0757 4.06738 35.2683 4.06738 35.4588C4.06738 35.7253 3.91289 35.9583 3.6915 36.0258C3.51162 36.0819 3.32627 36.0515 3.18271 35.9453C3.03935 35.8393 2.95713 35.6764 2.95713 35.4986C2.95713 35.2759 3.0999 35.2023 3.16133 35.1809C3.25674 35.1476 3.34707 35.1668 3.37656 35.2041C3.40137 35.2355 3.39873 35.3215 3.31006 35.4611C3.25508 35.5471 3.28017 35.6616 3.3664 35.7166C3.45332 35.7715 3.56738 35.7461 3.62187 35.6597C3.8582 35.2892 3.73213 35.0573 3.66689 34.9745C3.53535 34.8082 3.29014 34.7513 3.05361 34.8286C3.13135 34.499 3.20283 34.1874 2.90283 33.8873C2.83057 33.815 2.71348 33.815 2.64121 33.8873C2.56895 33.9595 2.56895 34.0766 2.64121 34.1489C2.78936 34.297 2.77012 34.4188 2.69199 34.7492C2.64521 34.9472 2.58701 35.194 2.58701 35.4983C2.58701 35.7883 2.72598 36.0645 2.9583 36.2385C2.72598 36.4126 2.58701 36.6887 2.58701 36.9788C2.58701 37.2831 2.64521 37.5299 2.69199 37.728C2.77002 38.0583 2.78945 38.1801 2.64121 38.3283C2.56895 38.4005 2.56895 38.5176 2.64121 38.5899C2.67734 38.626 2.72471 38.6441 2.77207 38.6441C2.81934 38.6441 2.8668 38.626 2.90293 38.5899C3.20293 38.2898 3.13135 37.9783 3.05371 37.6486C3.29023 37.7255 3.53555 37.6685 3.66699 37.5027C3.73222 37.42 3.8584 37.1879 3.62197 36.8174C3.56719 36.7314 3.45283 36.7061 3.3665 36.7606C3.28027 36.8156 3.25517 36.9301 3.31015 37.0161C3.39883 37.1556 3.40146 37.2417 3.37666 37.2731C3.34726 37.3103 3.25683 37.3294 3.16142 37.2962C3.1 37.275 2.95723 37.2012 2.95723 36.9786C2.95723 36.8007 3.03945 36.6377 3.18281 36.5319C3.32646 36.4256 3.51221 36.3957 3.6916 36.4513C3.91289 36.5189 4.06748 36.752 4.06748 37.0183C4.06748 37.2088 4.02666 37.4014 3.95166 37.5702C3.93974 37.5951 3.65693 38.1809 3.58408 38.3993C3.44004 38.8312 3.58642 39.0484 3.68633 39.1391C3.77177 39.2168 3.88183 39.2577 3.99433 39.2577C4.0581 39.2577 4.12275 39.2443 4.18369 39.2176C4.20927 39.2063 4.23037 39.1899 4.25254 39.1747C4.2747 39.19 4.2959 39.2063 4.32138 39.2176C4.38222 39.2444 4.44697 39.2577 4.51074 39.2577C4.62295 39.2577 4.7332 39.2168 4.81875 39.1391C4.91865 39.0484 5.06503 38.8311 4.92099 38.3993C4.84814 38.1809 4.56543 37.5951 4.55605 37.5755C4.47861 37.4013 4.43769 37.2087 4.43769 37.0182C4.43769 36.7518 4.59218 36.5187 4.81357 36.4512C4.99355 36.3956 5.1788 36.4255 5.32236 36.5318C5.46572 36.6377 5.54794 36.8006 5.54794 36.9785C5.54794 37.2011 5.40517 37.2748 5.34374 37.2961C5.24873 37.3294 5.15771 37.3103 5.12851 37.273C5.10371 37.2416 5.10634 37.1555 5.19501 37.016C5.24999 36.9299 5.2249 36.8155 5.13867 36.7605C5.05224 36.7063 4.93828 36.7316 4.8832 36.8173C4.64687 37.1878 4.77295 37.4198 4.83818 37.5026C4.96972 37.6684 5.21494 37.7255 5.45146 37.6485C5.37373 37.9781 5.30224 38.2897 5.60224 38.5898C5.63837 38.6259 5.68574 38.644 5.7331 38.644C5.78046 38.644 5.82783 38.6259 5.86396 38.5898C5.93622 38.5175 5.93622 38.4004 5.86396 38.3282C5.71581 38.18 5.73505 38.0583 5.81318 37.7279C5.85996 37.5298 5.91816 37.283 5.91816 36.9787C5.91816 36.6886 5.77919 36.4125 5.54687 36.2384C5.77919 36.0644 5.91816 35.7883 5.91816 35.4982C5.91816 35.1939 5.85996 34.947 5.81318 34.749C5.73515 34.4187 5.71572 34.2968 5.86396 34.1487C5.93622 34.0764 5.93622 33.9593 5.86396 33.8871C5.79169 33.8148 5.6746 33.8148 5.60234 33.8871C5.30234 34.1872 5.37392 34.4986 5.45156 34.8284C5.21503 34.7511 4.96972 34.808 4.83828 34.9743C4.77304 35.057 4.64687 35.289 4.8833 35.6595C4.93828 35.7456 5.05195 35.7709 5.13876 35.7164C5.225 35.6614 5.25009 35.5468 5.19511 35.4609C5.10644 35.3213 5.1038 35.2353 5.12861 35.2039C5.15791 35.1667 5.24873 35.1475 5.34384 35.1807C5.40527 35.202 5.54804 35.2757 5.54804 35.4984C5.54804 35.6762 5.46582 35.8392 5.32246 35.9451C5.1788 36.0513 4.99287 36.0817 4.81367 36.0256C4.59238 35.9581 4.43779 35.725 4.43779 35.4586C4.43779 35.2681 4.47861 35.0755 4.55615 34.9013L5.76796 32.1749C5.86757 31.9508 5.91816 31.7126 5.91816 31.4672C5.91816 31.1515 5.7746 30.8632 5.54863 30.6873C5.77451 30.5113 5.91816 30.223 5.91816 29.9073C5.91816 29.6619 5.86747 29.4237 5.76796 29.1997L4.55625 26.4734C4.4788 26.2992 4.43789 26.1066 4.43789 25.9161C4.43789 25.6497 4.59238 25.4167 4.81377 25.3491C4.99375 25.2934 5.179 25.3234 5.32255 25.4297C5.46591 25.5356 5.54814 25.6985 5.54814 25.8763C5.54814 26.099 5.40537 26.1726 5.34394 26.194C5.24892 26.2276 5.15791 26.2082 5.12871 26.1709C5.1039 26.1394 5.10654 26.0534 5.19521 25.9138C5.25019 25.8278 5.22509 25.7134 5.13886 25.6584C5.05244 25.6042 4.93847 25.6295 4.88339 25.7152C4.64707 26.0857 4.77314 26.3176 4.83837 26.4005C4.96992 26.5663 5.21513 26.6234 5.45165 26.5464C5.37392 26.8759 5.30244 27.1876 5.60244 27.4877C5.63857 27.5238 5.68593 27.5419 5.7333 27.5419C5.78066 27.5419 5.82802 27.5238 5.86415 27.4877C5.93642 27.4154 5.93642 27.2983 5.86415 27.226C5.71601 27.0779 5.73525 26.9561 5.81337 26.6258C5.86015 26.4277 5.91835 26.1808 5.91835 25.8765C5.91835 25.6741 5.84716 25.4804 5.72744 25.3214H5.73339C5.83564 25.3214 5.91845 25.2386 5.91845 25.1363C5.91845 25.0341 5.83574 24.9512 5.73339 24.9512H5.72744C5.84726 24.7922 5.91835 24.5987 5.91835 24.3961C5.91835 24.0918 5.86015 23.8449 5.81337 23.6469C5.73535 23.3165 5.71591 23.1947 5.86415 23.0466C5.93642 22.9743 5.93642 22.8572 5.86415 22.7849C5.79189 22.7127 5.6748 22.7127 5.60253 22.7849C5.30253 23.085 5.37412 23.3966 5.45175 23.7262C5.21523 23.6493 4.96992 23.7063 4.83847 23.8721C4.77324 23.9549 4.64707 24.1869 4.88349 24.5574C4.93847 24.6434 5.05214 24.6684 5.13896 24.6142C5.22519 24.5593 5.25029 24.4447 5.19531 24.3588C5.10664 24.2192 5.104 24.1332 5.1288 24.1017C5.1581 24.0645 5.24892 24.0454 5.34404 24.0786C5.40546 24.0999 5.54824 24.1736 5.54824 24.3963C5.54824 24.5741 5.46601 24.7371 5.32265 24.8429C5.179 24.9492 4.99306 24.9792 4.81386 24.9235C4.59257 24.8559 4.43798 24.6228 4.43798 24.3565C4.43798 24.166 4.4788 23.9734 4.55634 23.7992L5.76816 21.0727C5.86777 20.8487 5.91835 20.6104 5.91835 20.3651C5.91835 20.0494 5.7748 19.7611 5.54882 19.5851C5.7747 19.4092 5.91835 19.1209 5.91835 18.8052C5.91835 18.5598 5.86767 18.3216 5.76816 18.0975L4.55634 15.3711C4.4789 15.1969 4.43798 15.0043 4.43798 14.8138C4.43798 14.5474 4.59248 14.3144 4.81386 14.2468C4.99384 14.1911 5.1791 14.2211 5.32265 14.3273C5.46601 14.4333 5.54824 14.5962 5.54824 14.774C5.54824 14.9967 5.40546 15.0703 5.34404 15.0917C5.24902 15.125 5.158 15.1054 5.1288 15.0685C5.104 15.0371 5.10664 14.9511 5.19531 14.8115C5.25029 14.7255 5.22519 14.6109 5.13896 14.556C5.05253 14.5019 4.93857 14.5268 4.88349 14.6128C4.64716 14.9833 4.77324 15.2152 4.83847 15.298C4.97002 15.4639 5.21523 15.521 5.45175 15.4439C5.37402 15.7735 5.30253 16.0851 5.60253 16.3852C5.63867 16.4214 5.68603 16.4394 5.73339 16.4394C5.78076 16.4394 5.82812 16.4214 5.86425 16.3852C5.93652 16.313 5.93652 16.1959 5.86425 16.1236C5.71611 15.9755 5.73535 15.8537 5.81347 15.5233C5.86025 15.3253 5.91845 15.0784 5.91845 14.7741C5.91845 14.5717 5.84726 14.378 5.72753 14.2189H5.73349C5.83574 14.2189 5.91855 14.1362 5.91855 14.0339C5.91855 13.9316 5.83583 13.8488 5.73349 13.8488H5.72753C5.84736 13.6897 5.91845 13.4963 5.91845 13.2936C5.91786 12.9889 5.85966 12.742 5.81298 12.5439ZM3.93506 11.7554C3.86933 11.5581 3.89228 11.4457 3.93564 11.4063C3.96396 11.3795 4.00693 11.3806 4.03418 11.3929C4.06758 11.4077 4.06758 11.4313 4.06758 11.4428C4.06758 11.545 4.15029 11.6278 4.25263 11.6278C4.35488 11.6278 4.43769 11.5451 4.43769 11.4428C4.43769 11.4313 4.43769 11.4077 4.47109 11.3929C4.49785 11.3806 4.54052 11.3795 4.56963 11.4063C4.61298 11.4457 4.63593 11.5581 4.57021 11.7554C4.52236 11.8984 4.34922 12.2709 4.25273 12.473C4.1582 12.2756 3.9832 11.8994 3.93506 11.7554ZM4.25254 19.3906C4.30566 19.4628 4.36572 19.53 4.43877 19.5847C4.36572 19.6394 4.30566 19.7065 4.25254 19.7787C4.19941 19.7065 4.13935 19.6393 4.06631 19.5847C4.13935 19.5299 4.19941 19.4629 4.25254 19.3906ZM4.25254 30.4933C4.30566 30.5655 4.36572 30.6327 4.43877 30.6874C4.36572 30.7422 4.30566 30.8092 4.25254 30.8814C4.19941 30.8092 4.13935 30.7421 4.06631 30.6874C4.13935 30.6326 4.19941 30.5657 4.25254 30.4933ZM4.56992 38.5167C4.63564 38.714 4.61269 38.8264 4.56933 38.8659C4.54023 38.8922 4.49755 38.8912 4.4708 38.8792C4.4374 38.8644 4.4374 38.841 4.4374 38.8293C4.4374 38.7271 4.35468 38.6443 4.25234 38.6443C4.15 38.6443 4.06728 38.727 4.06728 38.8293C4.06728 38.8409 4.06728 38.8644 4.03388 38.8792C4.00674 38.8912 3.96377 38.8923 3.93535 38.8659C3.89199 38.8264 3.86904 38.714 3.93476 38.5167C3.98261 38.3737 4.15576 38.0012 4.25224 37.7991C4.34677 37.9964 4.52177 38.3727 4.56992 38.5167ZM4.43701 36.2387C4.36699 36.2932 4.30488 36.3584 4.25254 36.4322C4.20029 36.3584 4.13808 36.2933 4.06806 36.2387C4.13808 36.1842 4.20019 36.119 4.25254 36.0453C4.30478 36.119 4.36689 36.1842 4.43701 36.2387ZM5.42939 32.0246L4.25244 34.6726L3.07549 32.0246C2.99805 31.8504 2.95713 31.6578 2.95713 31.4672C2.95713 31.2008 3.11162 30.9677 3.33301 30.9003C3.51289 30.8446 3.69844 30.8746 3.84179 30.9808C3.98515 31.0868 4.06738 31.2497 4.06738 31.4275C4.06738 31.6502 3.92461 31.7238 3.86318 31.7452C3.76777 31.7785 3.67705 31.7593 3.64795 31.722C3.62314 31.6906 3.62578 31.6046 3.71445 31.465C3.76943 31.379 3.74433 31.2644 3.6581 31.2095C3.57168 31.1553 3.45771 31.1806 3.40264 31.2664C3.16631 31.6369 3.29238 31.8688 3.35762 31.9516C3.4916 32.1208 3.74365 32.179 3.98467 32.0947C4.01211 32.0852 4.03994 32.0734 4.06738 32.0594V32.5274C4.06738 32.5273 4.06709 32.5271 4.06709 32.5271C4.06152 32.4297 3.98086 32.3528 3.88242 32.3528C3.78017 32.3528 3.69736 32.4355 3.69736 32.5379C3.69736 32.6586 3.78174 32.8679 4.06738 32.9328V33.278C4.06738 33.3802 4.15009 33.463 4.25244 33.463C4.35478 33.463 4.4375 33.3803 4.4375 33.278V32.9328C4.72314 32.8679 4.80752 32.6586 4.80752 32.5379C4.80752 32.4356 4.725 32.3467 4.62285 32.3467C4.5206 32.3467 4.43818 32.4234 4.43818 32.5256C4.43808 32.5259 4.4375 32.5264 4.4374 32.5267V32.0596C4.46484 32.0736 4.49267 32.0854 4.52011 32.0949C4.76113 32.1791 5.01308 32.1209 5.14716 31.9518C5.2124 31.8691 5.33857 31.6371 5.10214 31.2666C5.04716 31.1805 4.933 31.1552 4.84668 31.2097C4.76044 31.2647 4.73535 31.3793 4.79033 31.4652C4.879 31.6047 4.88164 31.6908 4.85683 31.7222C4.82753 31.7594 4.73681 31.7786 4.6416 31.7454C4.58017 31.7241 4.4374 31.6504 4.4374 31.4277C4.4374 31.2499 4.51963 31.0869 4.66298 30.981C4.80664 30.8748 4.99257 30.8444 5.17177 30.9005C5.39306 30.968 5.54765 31.2011 5.54765 31.4674C5.54785 31.6578 5.50703 31.8505 5.42939 32.0246ZM5.42939 29.3502C5.50683 29.5244 5.54775 29.717 5.54775 29.9075C5.54775 30.1739 5.39326 30.4069 5.17187 30.4745C4.99228 30.5305 4.80644 30.5002 4.66308 30.3939C4.51972 30.288 4.4375 30.1251 4.4375 29.9472C4.4375 29.7246 4.58027 29.6509 4.6417 29.6296C4.73691 29.5963 4.82773 29.6154 4.85693 29.6527C4.88173 29.6841 4.8791 29.7702 4.79043 29.9097C4.73545 29.9958 4.76054 30.1102 4.84677 30.1652C4.93369 30.2202 5.04775 30.1948 5.10224 30.1084C5.33857 29.7379 5.2125 29.5059 5.14726 29.4231C5.01318 29.254 4.76123 29.1965 4.52021 29.28C4.49277 29.2895 4.46494 29.3014 4.4375 29.3153V28.8472L4.43779 28.8478C4.44336 28.945 4.52402 29.022 4.62246 29.022C4.7247 29.022 4.80752 28.9393 4.80752 28.837C4.80752 28.7163 4.72314 28.5069 4.4375 28.4421V28.0968C4.4375 27.9946 4.35478 27.9118 4.25244 27.9118C4.15009 27.9118 4.06738 27.9945 4.06738 28.0968V28.4421C3.78174 28.5069 3.69736 28.7163 3.69736 28.837C3.69736 28.9392 3.77988 29.0281 3.88203 29.0281C3.98427 29.0281 4.0667 28.9514 4.0667 28.8492C4.06679 28.8489 4.06738 28.8484 4.06738 28.8484L4.06748 29.3152C4.04004 29.3012 4.0122 29.2894 3.98476 29.2799C3.74375 29.1965 3.4917 29.254 3.35771 29.423C3.29248 29.5057 3.16631 29.7378 3.40273 30.1083C3.45771 30.1943 3.57187 30.2193 3.6582 30.1651C3.74443 30.1101 3.76953 29.9956 3.71455 29.9096C3.62588 29.7701 3.62324 29.684 3.64804 29.6526C3.67715 29.6154 3.76787 29.5963 3.86328 29.6295C3.9247 29.6507 4.06748 29.7245 4.06748 29.9471C4.06748 30.125 3.98525 30.288 3.84189 30.3938C3.69824 30.5001 3.51269 30.5304 3.3331 30.4744C3.11182 30.4068 2.95723 30.1737 2.95723 29.9074C2.95723 29.7169 2.99805 29.5243 3.07559 29.3501L4.25254 26.702L5.42939 29.3502ZM4.43701 25.1361C4.36699 25.1906 4.30488 25.2558 4.25254 25.3296C4.20029 25.2558 4.13808 25.1907 4.06806 25.1361C4.13808 25.0816 4.20019 25.0164 4.25254 24.9427C4.30478 25.0163 4.36689 25.0815 4.43701 25.1361ZM5.42939 20.922L4.25244 23.57L3.07549 20.922C2.99805 20.7477 2.95713 20.5552 2.95713 20.3646C2.95713 20.0982 3.11162 19.8652 3.33301 19.7976C3.51289 19.742 3.69844 19.772 3.84179 19.8782C3.98515 19.9842 4.06738 20.1471 4.06738 20.3249C4.06738 20.5475 3.92461 20.6212 3.86318 20.6426C3.76777 20.6762 3.67705 20.6567 3.64795 20.6194C3.62314 20.588 3.62578 20.5019 3.71445 20.3624C3.76943 20.2764 3.74433 20.1618 3.6581 20.1069C3.57168 20.0524 3.45771 20.0776 3.40264 20.1638C3.16631 20.5343 3.29238 20.7662 3.35762 20.849C3.4916 21.0181 3.74365 21.076 3.98467 20.9921C4.01211 20.9826 4.03994 20.9708 4.06738 20.9568V21.4248L4.06709 21.4242C4.06152 21.327 3.98086 21.25 3.88242 21.25C3.78017 21.25 3.69736 21.3327 3.69736 21.435C3.69736 21.5557 3.78174 21.7651 4.06738 21.83V22.1752C4.06738 22.2774 4.15009 22.3602 4.25244 22.3602C4.35478 22.3602 4.4375 22.2775 4.4375 22.1752V21.83C4.72314 21.7651 4.80752 21.5557 4.80752 21.435C4.80752 21.3328 4.725 21.2438 4.62285 21.2438C4.5206 21.2438 4.43818 21.3205 4.43818 21.4227C4.43808 21.423 4.4375 21.4235 4.4375 21.4235L4.4374 20.9567C4.46484 20.9707 4.49267 20.9825 4.52011 20.992C4.76113 21.0758 5.01308 21.018 5.14716 20.8489C5.2124 20.7662 5.33857 20.5342 5.10214 20.1637C5.04716 20.0772 4.933 20.052 4.84668 20.1068C4.76044 20.1618 4.73535 20.2764 4.79033 20.3623C4.879 20.5018 4.88164 20.5879 4.85683 20.6193C4.82753 20.6565 4.73681 20.6762 4.6416 20.6425C4.58017 20.6212 4.4374 20.5474 4.4374 20.3248C4.4374 20.147 4.51963 19.984 4.66298 19.8781C4.80664 19.7719 4.99257 19.7419 5.17177 19.7975C5.39306 19.8651 5.54765 20.0982 5.54765 20.3645C5.54785 20.5552 5.50703 20.7477 5.42939 20.922ZM5.42939 18.2474C5.50683 18.4217 5.54775 18.6142 5.54775 18.8048C5.54775 19.0712 5.39326 19.3042 5.17187 19.3718C4.99228 19.4278 4.80644 19.3974 4.66308 19.2912C4.51972 19.1852 4.4375 19.0224 4.4375 18.8445C4.4375 18.6219 4.58027 18.5482 4.6417 18.5268C4.73691 18.4935 4.82773 18.5127 4.85693 18.55C4.88173 18.5814 4.8791 18.6675 4.79043 18.807C4.73545 18.8931 4.76054 19.0075 4.84677 19.0625C4.93369 19.117 5.04775 19.0921 5.10224 19.0057C5.33857 18.6351 5.2125 18.4032 5.14726 18.3204C5.01318 18.1513 4.76123 18.0934 4.52021 18.1773C4.49277 18.1868 4.46494 18.1986 4.4375 18.2126V17.7446C4.4375 17.7447 4.43779 17.7449 4.43779 17.7449C4.44336 17.8424 4.52402 17.9192 4.62246 17.9192C4.7247 17.9192 4.80752 17.8365 4.80752 17.7342C4.80752 17.6135 4.72314 17.4041 4.4375 17.3392V16.994C4.4375 16.8918 4.35478 16.809 4.25244 16.809C4.15009 16.809 4.06738 16.8917 4.06738 16.994V17.3392C3.78174 17.4041 3.69736 17.6135 3.69736 17.7342C3.69736 17.8364 3.77988 17.9254 3.88203 17.9254C3.98427 17.9254 4.0667 17.8487 4.0667 17.7465C4.06679 17.7462 4.06738 17.7457 4.06748 17.7454V18.2125C4.04004 18.1985 4.0122 18.1867 3.98476 18.1772C3.74375 18.0934 3.4917 18.1513 3.35771 18.3203C3.29248 18.403 3.16631 18.635 3.40273 19.0056C3.45771 19.0916 3.57187 19.1166 3.6582 19.0624C3.74443 19.0074 3.76953 18.8929 3.71455 18.8069C3.62588 18.6674 3.62324 18.5813 3.64804 18.5499C3.67715 18.5127 3.76787 18.4935 3.86328 18.5267C3.9247 18.548 4.06748 18.6218 4.06748 18.8444C4.06748 19.0223 3.98525 19.1852 3.84189 19.2911C3.69824 19.3973 3.51269 19.4277 3.3331 19.3717C3.11182 19.3041 2.95723 19.071 2.95723 18.8047C2.95723 18.6141 2.99805 18.4216 3.07559 18.2474L4.25254 15.5993L5.42939 18.2474ZM4.06797 14.0334C4.13799 13.9789 4.20009 13.9137 4.25244 13.8399C4.30468 13.9137 4.36689 13.9788 4.43691 14.0334C4.36689 14.0879 4.30478 14.1531 4.25244 14.2269C4.20019 14.1531 4.13808 14.0879 4.06797 14.0334Z" fill="#FFE15A"/>
<path d="M26.44 27.4064C28.8997 27.4064 30.8937 25.4124 30.8937 22.9527C30.8937 20.493 28.8997 18.499 26.44 18.499C23.9803 18.499 21.9863 20.493 21.9863 22.9527C21.9863 25.4124 23.9803 27.4064 26.44 27.4064Z" fill="#FFE15A"/>
<path d="M26.7746 17.2736C26.7746 17.4581 26.625 17.6077 26.4405 17.6077C26.2561 17.6077 26.1064 17.4581 26.1064 17.2736C26.1064 17.0892 26.4405 16.2715 26.4405 16.2715C26.4405 16.2715 26.7746 17.0892 26.7746 17.2736Z" fill="#FFE15A"/>
<path d="M26.1064 28.6319C26.1064 28.4475 26.2561 28.2979 26.4405 28.2979C26.625 28.2979 26.7746 28.4475 26.7746 28.6319C26.7746 28.8164 26.4405 29.6341 26.4405 29.6341C26.4405 29.6341 26.1064 28.8165 26.1064 28.6319Z" fill="#FFE15A"/>
<path d="M32.1192 23.2863C31.9348 23.2863 31.7852 23.1367 31.7852 22.9522C31.7852 22.7678 31.9348 22.6182 32.1192 22.6182C32.3037 22.6182 33.1214 22.9522 33.1214 22.9522C33.1214 22.9522 32.3037 23.2863 32.1192 23.2863Z" fill="#FFE15A"/>
<path d="M20.7614 22.6191C20.9459 22.6191 21.0955 22.7688 21.0955 22.9532C21.0955 23.1377 20.9459 23.2873 20.7614 23.2873C20.577 23.2873 19.7593 22.9532 19.7593 22.9532C19.7593 22.9532 20.577 22.6191 20.7614 22.6191Z" fill="#FFE15A"/>
<path d="M30.6924 19.1734C30.5619 19.3039 30.3505 19.3039 30.22 19.1734C30.0894 19.043 30.0895 18.8315 30.22 18.701C30.3504 18.5704 31.1648 18.2285 31.1648 18.2285C31.1648 18.2285 30.823 19.043 30.6924 19.1734Z" fill="#FFE15A"/>
<path d="M22.1887 26.7316C22.3191 26.6012 22.5306 26.6012 22.6611 26.7316C22.7917 26.8621 22.7916 27.0735 22.6611 27.2041C22.5307 27.3347 21.7163 27.6765 21.7163 27.6765C21.7163 27.6765 22.0582 26.8622 22.1887 26.7316Z" fill="#FFE15A"/>
<path d="M30.2199 27.2041C30.0895 27.0737 30.0895 26.8622 30.2199 26.7317C30.3504 26.6011 30.5618 26.6012 30.6924 26.7317C30.8229 26.8621 31.1648 27.6765 31.1648 27.6765C31.1648 27.6765 30.3504 27.3345 30.2199 27.2041Z" fill="#FFE15A"/>
<path d="M22.6612 18.7009C22.7917 18.8313 22.7917 19.0428 22.6612 19.1733C22.5308 19.3039 22.3193 19.3038 22.1888 19.1733C22.0582 19.0429 21.7163 18.2285 21.7163 18.2285C21.7163 18.2285 22.5308 18.5705 22.6612 18.7009Z" fill="#FFE15A"/>
<path d="M24.576 17.5784C24.6466 17.7489 24.5656 17.9442 24.3951 18.0148C24.2246 18.0854 24.0293 18.0045 23.9587 17.834C23.8881 17.6635 23.8838 16.7803 23.8838 16.7803C23.8838 16.7803 24.5054 17.4079 24.576 17.5784Z" fill="#FFE15A"/>
<path d="M28.3053 28.3272C28.2347 28.1567 28.3156 27.9614 28.4862 27.8907C28.6567 27.8201 28.852 27.9011 28.9226 28.0716C28.9932 28.2421 28.9975 29.1253 28.9975 29.1253C28.9975 29.1253 28.3758 28.4977 28.3053 28.3272Z" fill="#FFE15A"/>
<path d="M31.815 21.0887C31.6445 21.1593 31.4491 21.0783 31.3785 20.9078C31.3079 20.7373 31.3889 20.542 31.5594 20.4714C31.7299 20.4008 32.613 20.3965 32.613 20.3965C32.613 20.3965 31.9855 21.018 31.815 21.0887Z" fill="#FFE15A"/>
<path d="M21.0662 24.8175C21.2367 24.7469 21.432 24.8279 21.5026 24.9984C21.5732 25.1689 21.4923 25.3642 21.3218 25.4348C21.1513 25.5054 20.2681 25.5097 20.2681 25.5097C20.2681 25.5097 20.8957 24.8882 21.0662 24.8175Z" fill="#FFE15A"/>
<path d="M28.9225 17.8339C28.8519 18.0044 28.6565 18.0853 28.4861 18.0147C28.3156 17.9441 28.2348 17.7487 28.3053 17.5783C28.3759 17.4079 28.9973 16.7803 28.9973 16.7803C28.9973 16.7803 28.9931 17.6635 28.9225 17.8339Z" fill="#FFE15A"/>
<path d="M23.9586 28.0716C24.0292 27.9011 24.2246 27.8202 24.395 27.8907C24.5655 27.9613 24.6464 28.1567 24.5759 28.3271C24.5053 28.4976 23.8838 29.1252 23.8838 29.1252C23.8838 29.1252 23.888 28.2421 23.9586 28.0716Z" fill="#FFE15A"/>
<path d="M31.5594 25.4348C31.3889 25.3641 31.308 25.1687 31.3785 24.9983C31.4491 24.8278 31.6445 24.747 31.8149 24.8175C31.9853 24.888 32.613 25.5096 32.613 25.5096C32.613 25.5096 31.7297 25.5055 31.5594 25.4348Z" fill="#FFE15A"/>
<path d="M21.3217 20.4713C21.4922 20.5419 21.573 20.7373 21.5025 20.9077C21.4319 21.0781 21.2365 21.1591 21.0661 21.0886C20.8957 21.018 20.2681 20.3965 20.2681 20.3965C20.2681 20.3965 21.1514 20.4006 21.3217 20.4713Z" fill="#FFE15A"/>
<path d="M25.6603 17.3182C25.6964 17.4991 25.5789 17.675 25.3978 17.7109C25.2169 17.747 25.041 17.6295 25.0051 17.4484C24.969 17.2675 25.1372 16.4004 25.1372 16.4004C25.1372 16.4004 25.6243 17.1372 25.6603 17.3182Z" fill="#FFE15A"/>
<path d="M27.2209 28.5877C27.1848 28.4068 27.3023 28.2309 27.4834 28.195C27.6644 28.1589 27.8402 28.2764 27.8761 28.4575C27.9122 28.6384 27.744 29.5055 27.744 29.5055C27.744 29.5055 27.2568 28.7687 27.2209 28.5877Z" fill="#FFE15A"/>
<path d="M32.0755 22.1721C31.8946 22.2081 31.7187 22.0906 31.6828 21.9096C31.6467 21.7285 31.7642 21.5527 31.9453 21.5168C32.1262 21.4807 32.9933 21.6489 32.9933 21.6489C32.9933 21.6489 32.2565 22.1361 32.0755 22.1721Z" fill="#FFE15A"/>
<path d="M20.8055 23.7331C20.9864 23.697 21.1623 23.8145 21.1982 23.9956C21.2343 24.1766 21.1168 24.3524 20.9357 24.3883C20.7548 24.4244 19.8877 24.2562 19.8877 24.2562C19.8877 24.2562 20.6245 23.769 20.8055 23.7331Z" fill="#FFE15A"/>
<path d="M29.8736 18.4164C29.7711 18.5698 29.5636 18.611 29.4102 18.5085C29.2568 18.406 29.2156 18.1985 29.3181 18.0451C29.4205 17.8917 30.1526 17.3975 30.1526 17.3975C30.1526 17.3975 29.976 18.2629 29.8736 18.4164Z" fill="#FFE15A"/>
<path d="M23.008 27.4893C23.1104 27.3359 23.318 27.2947 23.4714 27.3972C23.6248 27.4996 23.666 27.7072 23.5635 27.8606C23.461 28.014 22.729 28.5082 22.729 28.5082C22.729 28.5082 22.9056 27.6428 23.008 27.4893Z" fill="#FFE15A"/>
<path d="M30.9766 26.3853C30.8232 26.2828 30.782 26.0753 30.8845 25.9219C30.987 25.7685 31.1945 25.7273 31.3479 25.8298C31.5013 25.9323 31.9955 26.6643 31.9955 26.6643C31.9955 26.6643 31.13 26.4877 30.9766 26.3853Z" fill="#FFE15A"/>
<path d="M21.9042 19.5202C22.0576 19.6227 22.0988 19.8302 21.9963 19.9836C21.8938 20.137 21.6863 20.1782 21.5329 20.0757C21.3795 19.9731 20.8853 19.2412 20.8853 19.2412C20.8853 19.2412 21.7509 19.4178 21.9042 19.5202Z" fill="#FFE15A"/>
<path d="M23.5635 18.045C23.6659 18.1984 23.6247 18.4059 23.4714 18.5084C23.3181 18.6109 23.1105 18.5696 23.008 18.4163C22.9056 18.2629 22.729 17.3975 22.729 17.3975C22.729 17.3975 23.461 17.8917 23.5635 18.045Z" fill="#FFE15A"/>
<path d="M29.318 27.8605C29.2156 27.7071 29.2568 27.4997 29.4101 27.3971C29.5634 27.2947 29.771 27.3359 29.8735 27.4892C29.9759 27.6426 30.1525 28.5081 30.1525 28.5081C30.1525 28.5081 29.4206 28.0138 29.318 27.8605Z" fill="#FFE15A"/>
<path d="M31.3478 20.0757C31.1944 20.1781 30.987 20.1369 30.8844 19.9836C30.782 19.8302 30.8232 19.6228 30.9765 19.5202C31.1299 19.4178 31.9954 19.2412 31.9954 19.2412C31.9954 19.2412 31.5012 19.9732 31.3478 20.0757Z" fill="#FFE15A"/>
<path d="M21.5333 25.8297C21.6867 25.7273 21.8941 25.7685 21.9967 25.9218C22.0991 26.0753 22.0579 26.2827 21.9046 26.3852C21.7512 26.4877 20.8857 26.6642 20.8857 26.6642C20.8857 26.6642 21.3799 25.9322 21.5333 25.8297Z" fill="#FFE15A"/>
<path d="M27.8761 17.4484C27.8401 17.6294 27.6643 17.747 27.4833 17.7109C27.3024 17.6749 27.1848 17.4991 27.2208 17.3182C27.2569 17.1372 27.744 16.4004 27.744 16.4004C27.744 16.4004 27.9121 17.2675 27.8761 17.4484Z" fill="#FFE15A"/>
<path d="M25.005 28.4575C25.0411 28.2765 25.2169 28.1589 25.3978 28.195C25.5788 28.231 25.6963 28.4068 25.6603 28.5877C25.6243 28.7687 25.1372 29.5055 25.1372 29.5055C25.1372 29.5055 24.9691 28.6384 25.005 28.4575Z" fill="#FFE15A"/>
<path d="M31.9453 24.3883C31.7643 24.3523 31.6467 24.1765 31.6828 23.9956C31.7188 23.8146 31.8946 23.697 32.0755 23.7331C32.2565 23.7691 32.9933 24.2562 32.9933 24.2562C32.9933 24.2562 32.1262 24.4243 31.9453 24.3883Z" fill="#FFE15A"/>
<path d="M20.9362 21.5168C21.1172 21.5528 21.2348 21.7286 21.1987 21.9095C21.1627 22.0905 20.9869 22.2081 20.806 22.172C20.625 22.136 19.8882 21.6489 19.8882 21.6489C19.8882 21.6489 20.7553 21.4808 20.9362 21.5168Z" fill="#FFE15A"/>
<path d="M36.9169 24.1246C36.7864 24.0697 36.6373 24.1326 36.5829 24.2623C36.5829 24.2629 36.5829 24.2629 36.5829 24.2629C36.5819 24.2653 36.5768 24.2773 36.5681 24.2978C36.3751 24.7488 35.9757 25.4079 35.5723 26.0279C35.948 24.8186 36.2915 23.527 36.3154 23.4362C36.3512 23.3006 36.271 23.1613 36.1355 23.1245C35.9999 23.0881 35.8604 23.167 35.8224 23.302C35.6471 23.9302 35.2886 24.7568 34.9579 25.4566C35.0185 24.6764 35.03 23.9535 35.0307 23.9012C35.0328 23.763 34.9245 23.6487 34.7863 23.6422C34.6563 23.6462 34.5309 23.741 34.5207 23.8791C34.1936 28.3779 29.8646 30.3904 29.4431 30.5756C29.2226 30.5975 28.1954 30.7133 27.2631 31.037C27.1574 31.0737 27.0674 31.1105 26.9777 31.147C26.9444 31.1345 26.9087 31.1275 26.8711 31.1298C24.0096 31.3368 21.7279 30.163 20.0881 27.6481C18.8491 25.7479 18.4606 23.7534 18.4567 23.7335C18.4306 23.5948 18.2978 23.5055 18.1585 23.53C18.0198 23.5563 17.9287 23.6895 17.955 23.8282C17.9653 23.8833 18.1358 24.7539 18.6054 25.8997C17.9772 24.908 17.5394 23.7066 17.3853 23.0809C17.3821 23.0684 17.3741 23.059 17.3694 23.0475C17.3622 23.0298 17.3562 23.012 17.3455 22.9967C17.338 22.9858 17.3281 22.9779 17.3192 22.9684C17.3053 22.9537 17.2919 22.9392 17.2748 22.9282C17.265 22.9219 17.2541 22.9187 17.2435 22.9138C17.2246 22.905 17.2062 22.8963 17.1852 22.8923C17.1706 22.8894 17.1558 22.8913 17.1406 22.891C17.1253 22.8908 17.1108 22.8869 17.0951 22.8896C17.0917 22.8902 17.0891 22.8926 17.0857 22.8934C17.0823 22.894 17.0792 22.893 17.0759 22.8936C17.0622 22.897 17.0518 22.9056 17.0393 22.9109C17.0233 22.9179 17.007 22.923 16.9931 22.9327C16.9793 22.9422 16.9691 22.9545 16.9576 22.9663C16.9462 22.978 16.9343 22.9884 16.9253 23.0019C16.9162 23.0157 16.9113 23.0312 16.9049 23.0466C16.8987 23.0615 16.8916 23.0756 16.8884 23.0917C16.8851 23.1082 16.8865 23.1252 16.8866 23.1425C16.8866 23.1562 16.8828 23.1694 16.8853 23.1835C16.8862 23.1895 16.8882 23.1956 16.8893 23.2015V23.2024C16.8896 23.2035 16.89 23.205 16.8902 23.2061C17.0483 24.1371 17.4248 25.1021 17.7653 25.8381C17.2246 25.2245 16.7728 24.5176 16.6126 24.0989C16.608 24.0867 16.5987 24.0782 16.5925 24.0673C16.583 24.0504 16.5747 24.0331 16.5619 24.0191C16.5528 24.0092 16.5418 24.0027 16.5315 23.9944C16.5159 23.9819 16.5012 23.9693 16.4832 23.9607C16.4717 23.9553 16.4592 23.9535 16.447 23.9497C16.4281 23.944 16.4099 23.9378 16.3899 23.9365C16.3741 23.9354 16.3585 23.9394 16.3426 23.9415C16.3278 23.9433 16.3133 23.9415 16.2986 23.9461C16.2958 23.947 16.2939 23.9492 16.2912 23.9502C16.2885 23.9511 16.2858 23.9505 16.283 23.9516C16.2692 23.9568 16.2593 23.9671 16.2469 23.9744C16.2323 23.983 16.2168 23.9901 16.2044 24.0013C16.1917 24.0127 16.1829 24.0268 16.173 24.0404C16.1635 24.0532 16.1529 24.0646 16.1459 24.0789C16.1386 24.0938 16.1359 24.11 16.1317 24.1262C16.1275 24.1419 16.1219 24.1565 16.1208 24.173C16.1196 24.1895 16.1237 24.206 16.1259 24.2227C16.1277 24.2372 16.1258 24.2516 16.1303 24.2658C16.4082 25.1623 17.0766 26.2289 17.6002 26.9803C17.1639 26.644 16.8432 26.2804 16.7501 26.1706C16.74 26.1587 16.7302 26.1467 16.7201 26.1348C16.6301 26.0265 16.471 26.011 16.3619 26.0993C16.2532 26.1881 16.2361 26.3478 16.324 26.4569C16.3288 26.463 16.348 26.4869 16.38 26.5243C16.7632 26.9803 17.1807 27.4057 17.5589 27.765L17.0415 27.5445C16.9235 27.4936 16.7849 27.5395 16.7203 27.6517C16.6557 27.764 16.6849 27.9061 16.7884 27.984C16.8388 28.0214 17.755 28.7058 18.5482 29.1104C18.4733 29.1149 18.3856 29.1095 18.2873 29.1019C18.1674 29.0904 18.0494 29.1762 18.0202 29.2979C17.9915 29.4201 18.0554 29.5449 18.1714 29.5928C18.1909 29.6008 18.4326 29.7005 18.7311 29.8067C18.6614 29.8351 18.6061 29.8935 18.5831 29.9693C18.5487 30.0826 18.5971 30.2053 18.6998 30.2641C18.7266 30.2797 19.0876 30.4867 19.5344 30.6702C19.5225 30.6886 19.5127 30.7086 19.5054 30.7305C19.4704 30.8378 19.5104 30.9555 19.6034 31.0199C19.681 31.0732 21.4158 32.2506 23.442 32.2506C23.575 32.2506 23.7094 32.2456 23.8445 32.2346C23.985 32.2236 24.09 32.1005 24.0788 31.9597C24.0676 31.819 23.9456 31.7128 23.8037 31.7258C22.5309 31.8296 21.3046 31.3516 20.5753 30.9864C20.6716 30.9629 20.727 30.9415 20.7407 30.936C20.8532 30.8901 20.9181 30.7719 20.8961 30.6526C20.8741 30.5335 20.7714 30.4461 20.6499 30.4435C20.3538 30.4375 19.9438 30.2933 19.5905 30.1386C19.7239 30.0719 19.8019 30.0079 19.8087 30.0024C19.8856 29.9381 19.918 29.8353 19.8918 29.7386C19.8654 29.6423 19.785 29.5699 19.6863 29.554C19.5778 29.536 19.4426 29.5011 19.301 29.4582C19.4387 29.3789 19.4973 29.2916 19.5197 29.2471C19.5552 29.1763 19.556 29.0934 19.522 29.0221C19.4878 28.9509 19.4228 28.8994 19.3453 28.8829C19.2785 28.8684 19.2028 28.844 19.1211 28.8121C19.136 28.7971 19.1498 28.7802 19.1609 28.7607C19.226 28.6505 19.1991 28.5088 19.0982 28.4295C19.0929 28.4255 18.8946 28.2699 18.5944 28.0109C18.6421 27.9934 18.6842 27.961 18.7147 27.9172C18.779 27.8244 18.7746 27.7002 18.7039 27.6123C18.6982 27.6053 18.4997 27.3556 18.2261 26.9765C18.3164 27.0467 18.4066 27.1183 18.4969 27.1763C18.5394 27.2033 18.5874 27.2168 18.6351 27.2168C18.6997 27.2168 18.7635 27.1924 18.8126 27.1449C18.8328 27.1254 18.8486 27.1029 18.8611 27.079C19.0161 27.2445 19.1789 27.3948 19.3499 27.523C19.3722 27.5397 19.3992 27.5394 19.4242 27.5478C19.4967 27.6693 19.5721 27.791 19.6512 27.9127C21.2022 30.2992 23.3893 31.5775 26.0123 31.6543C25.7708 31.801 25.5086 31.9525 25.0934 32.1142C25.0028 32.1496 24.9227 32.1849 24.8423 32.2204C24.8034 32.228 24.767 32.2421 24.7366 32.2662C24.012 32.6016 23.712 32.9331 23.5903 33.1649C23.4688 33.3954 23.5736 33.6318 23.722 33.7546C23.7681 33.7924 23.8268 33.8119 23.8855 33.8119C23.926 33.8119 23.9664 33.8029 24.003 33.7844C24.0934 33.7395 24.1537 33.6442 24.1497 33.544C24.1602 33.5326 24.2046 33.4957 24.3437 33.4911C24.4452 33.4826 24.6588 33.5055 24.908 33.5255C25.1451 33.545 25.4295 33.5672 25.7318 33.5827C25.5427 33.8032 25.3228 34.0588 25.3228 34.0588C25.2568 34.1356 25.2423 34.2443 25.2862 34.3356C25.3304 34.4274 25.4255 34.4843 25.5252 34.4807C25.727 34.4737 25.8642 34.4697 25.9542 34.4678C26.0327 34.5707 26.1291 34.6115 26.1912 34.6274C26.3669 34.6723 26.542 34.602 26.6738 34.5187C26.7736 34.5906 26.8734 34.621 26.9525 34.6325C27.1308 34.6569 27.296 34.605 27.4154 34.5462C27.5391 34.626 27.6603 34.6465 27.7527 34.6465C27.754 34.6465 27.7555 34.6465 27.7569 34.6465C27.9562 34.6455 28.1307 34.5492 28.254 34.4549C28.3631 34.5197 28.4673 34.5406 28.5478 34.5442C28.7307 34.5507 28.8823 34.4803 28.9831 34.4144C29.3431 34.4867 29.6533 34.3172 29.8584 34.13C29.9519 34.1844 30.0409 34.1979 30.1118 34.1944C30.2941 34.188 30.433 34.0771 30.5222 33.9779C30.9303 34.0272 31.2231 33.9519 31.3924 33.7509C31.4846 33.6417 31.5222 33.5185 31.5323 33.4062C32.6645 33.3998 32.767 32.7816 32.7753 32.7052C32.7827 32.6358 32.7616 32.5666 32.7165 32.5133C32.6716 32.4599 32.6064 32.4269 32.5369 32.4229L29.5685 32.2444C29.4443 32.2354 29.3335 32.3187 29.3047 32.44C29.3041 32.442 29.2535 32.6305 29.0952 32.7813C28.8821 32.9847 28.539 33.0922 28.1659 33.1491C28.1673 33.1149 28.1625 33.0801 28.1494 33.0462C28.0985 32.9145 27.9504 32.8506 27.8191 32.9001C27.2063 33.1379 26.2142 33.108 25.438 33.054C25.557 32.9567 25.7004 32.8603 25.8149 32.7974C25.9117 32.7441 25.9637 32.6348 25.9432 32.5261C25.9283 32.4471 25.8712 32.3922 25.8022 32.3568C26.0181 32.2478 26.195 32.1426 26.3629 32.0402C26.6543 31.8617 26.9296 31.6934 27.4309 31.5194C28.3987 31.1832 29.5187 31.0809 29.53 31.0799C29.5554 31.0778 29.5804 31.0714 29.604 31.0619C29.6438 31.0454 32.803 29.7219 34.2914 26.6682C34.2719 26.7605 34.251 26.8449 34.2282 26.9186C34.1893 27.0444 34.2521 27.1786 34.3733 27.2294C34.4671 27.2688 34.5736 27.2483 34.6458 27.1815C34.5517 27.4295 34.4667 27.6245 34.3972 27.7397C34.3264 27.857 34.3606 28.0092 34.4746 28.0849C34.5013 28.1024 34.53 28.1143 34.5593 28.1214C34.4441 28.29 34.3273 28.4496 34.2108 28.5958C34.1333 28.693 34.1378 28.8318 34.2188 28.9236C34.0188 29.1331 33.8415 29.3057 33.7067 29.4155C33.6187 29.4868 33.59 29.606 33.6304 29.7079C33.5005 29.7822 33.3937 29.8346 33.3197 29.857C33.1955 29.8944 33.1192 30.0196 33.1427 30.1473C33.1549 30.2147 33.1928 30.2716 33.2451 30.309C33.0889 30.3509 32.918 30.3913 32.7325 30.4281C32.628 30.449 32.5473 30.5324 32.5303 30.6376C32.5134 30.7428 32.5633 30.8476 32.6556 30.9005C32.6637 30.905 32.7509 30.9544 32.8845 31.0112C32.3903 31.2102 31.5081 31.4702 30.0603 31.6129C29.9201 31.6268 29.8174 31.7521 29.8313 31.8923C29.845 32.0325 29.9663 32.1298 30.1107 32.1217C32.859 31.8499 33.7076 31.162 33.7423 31.1325C33.8216 31.0661 33.853 30.9579 33.8216 30.8592C33.8007 30.7938 33.7548 30.741 33.6958 30.7104C34.5738 30.4341 34.9508 30.1282 34.9705 30.1118C35.0668 30.0319 35.091 29.8938 35.0276 29.7855C34.9637 29.6772 34.8308 29.6303 34.7148 29.6772C34.6822 29.6897 34.6301 29.7026 34.5641 29.7156C35.1534 29.3121 35.7789 28.8315 36.054 28.6171C36.1023 28.5812 36.1463 28.5467 36.1849 28.5142C36.2918 28.4245 36.3067 28.2657 36.2185 28.1576C36.131 28.0499 35.9716 28.0318 35.8623 28.1181C35.8224 28.1496 35.7809 28.182 35.7381 28.2154C35.6111 28.3097 35.4487 28.4165 35.2716 28.5262C35.9403 27.7669 36.6135 26.9437 36.8058 26.7073C36.8233 26.6858 36.8405 26.6644 36.858 26.643C36.9463 26.5332 36.9291 26.3725 36.8193 26.2843C36.7092 26.1945 36.5484 26.213 36.4603 26.3222L36.4597 26.3227L36.4595 26.3233C36.4548 26.3288 36.4332 26.3557 36.3967 26.4007C36.1953 26.6466 35.9832 26.8847 35.7739 27.107C36.4551 25.8723 36.971 24.657 37.0466 24.4769C37.0493 24.4705 37.0518 24.4641 37.0546 24.4574C37.1087 24.3282 37.0471 24.1785 36.9169 24.1246ZM24.9452 32.7346L25.0149 32.7437C24.9294 32.8237 24.8598 32.9134 24.8045 33.0059C24.6832 32.9962 24.5731 32.9876 24.4869 32.9838C24.6058 32.9061 24.7587 32.8218 24.9452 32.7346Z" fill="#FFE15A"/>
</g>
<defs>
<clipPath id="clip0_106_18842">
<rect width="50" height="50" fill="white"/>
</clipPath>
</defs>
</svg>
