<svg width="50" height="50" viewBox="0 0 50 50" fill="none" xmlns="http://www.w3.org/2000/svg">
<g clip-path="url(#clip0_106_18823)">
<path d="M0 30.46H49.9999V40.5174C49.9999 40.9934 49.6139 41.3795 49.1378 41.3795H0.862108C0.386034 41.3795 0 40.9934 0 40.5174V30.46Z" fill="#73AF00"/>
<path d="M0.862108 8.62109H49.1379C49.614 8.62109 50 9.00713 50 9.4832V19.5406H0V9.4831C0 9.00703 0.386034 8.62109 0.862108 8.62109Z" fill="#464655"/>
<path d="M49.9999 19.54H0V30.459H49.9999V19.54Z" fill="#C8414B"/>
<path d="M49.9999 18.9658H0V20.6899H49.9999V18.9658Z" fill="#F5F5F5"/>
<path d="M49.9999 29.3105H0V31.0347H49.9999V29.3105Z" fill="#F5F5F5"/>
<path d="M29.6162 17.7363C30.3103 16.305 31.0346 12.9893 31.0346 12.9893C31.0346 12.9893 28.8792 15.6108 28.1848 17.0421C28.0393 17.3421 28.1011 17.6871 28.3112 17.9205L20.4043 34.2226L20.941 34.483L28.8479 18.1809C29.1616 18.2015 29.4708 18.0363 29.6162 17.7363Z" fill="#F5F5F5"/>
<path d="M20.3838 17.7363C19.6896 16.305 18.9653 12.9893 18.9653 12.9893C18.9653 12.9893 21.1208 15.6108 21.8151 17.0421C21.9606 17.3421 21.8989 17.6871 21.6888 17.9205L29.5957 34.2226L29.059 34.483L21.152 18.1809C20.8384 18.2015 20.5292 18.0363 20.3838 17.7363Z" fill="#F5F5F5"/>
<path d="M29.3101 24.9996C29.3101 29.7607 25.7934 33.6203 24.9998 33.6203C24.2062 33.6203 20.6895 29.7607 20.6895 24.9996C20.6895 20.2385 24.2062 16.3789 24.9998 16.3789C25.7934 16.3789 29.3101 20.2385 29.3101 24.9996Z" fill="#C8414B"/>
<path d="M28.448 29.1594C28.9558 27.9259 29.3102 26.509 29.3102 25.0001C29.3102 23.4912 28.9559 22.0744 28.448 20.8408C27.9403 22.0743 27.5859 23.4912 27.5859 25.0001C27.5859 26.509 27.9403 27.9259 28.448 29.1594Z" fill="#464655"/>
<path d="M21.5516 20.8408C21.0438 22.0743 20.6895 23.4912 20.6895 25.0001C20.6895 26.509 21.0437 27.9258 21.5516 29.1594C22.0593 27.9259 22.4137 26.509 22.4137 25.0001C22.4137 23.4912 22.0593 22.0744 21.5516 20.8408Z" fill="#464655"/>
<path d="M25.0008 26.2932C25.4769 26.2932 25.8629 25.7142 25.8629 25.0001C25.8629 24.286 25.4769 23.707 25.0008 23.707C24.5247 23.707 24.1387 24.286 24.1387 25.0001C24.1387 25.7142 24.5247 26.2932 25.0008 26.2932Z" fill="#F5F5F5"/>
<path d="M25.1299 16.3789V23.7064C25.3649 23.2172 25.7818 21.7714 25.7818 20.0427C25.7818 18.3139 25.3649 16.8682 25.1299 16.3789Z" fill="#F5F5F5"/>
<path d="M24.8712 16.3789C24.6361 16.8682 24.2192 18.3139 24.2192 20.0427C24.2192 21.7715 24.6361 23.2173 24.8712 23.7064V16.3789Z" fill="#F5F5F5"/>
<path d="M25.1299 26.293V33.6205C25.3649 33.1312 25.7818 31.6854 25.7818 29.9567C25.7818 28.2279 25.3649 26.7822 25.1299 26.293Z" fill="#F5F5F5"/>
<path d="M24.8712 26.293C24.6361 26.7822 24.2192 28.2279 24.2192 29.9567C24.2192 31.6855 24.6361 33.1313 24.8712 33.6205V26.293Z" fill="#F5F5F5"/>
</g>
<defs>
<clipPath id="clip0_106_18823">
<rect width="50" height="50" fill="white"/>
</clipPath>
</defs>
</svg>
