<svg width="50" height="50" viewBox="0 0 50 50" fill="none" xmlns="http://www.w3.org/2000/svg">
<g clip-path="url(#clip0_106_18809)">
<path d="M49.1367 41.3796H0.861129C0.385057 41.3796 -0.000976562 40.9935 -0.000976562 40.5175V9.4832C-0.000976562 9.00713 0.385057 8.62109 0.861129 8.62109H49.1368C49.6129 8.62109 49.9989 9.00713 49.9989 9.4832V40.5175C49.9988 40.9937 49.6128 41.3796 49.1367 41.3796Z" fill="#FF4B55"/>
<path d="M29.8296 25.2713C29.611 25.0832 29.3629 24.9463 29.114 24.8462C30.5211 24.5687 31.6528 23.3798 31.6528 23.3798C30.9687 23.6799 30.6507 23.7406 29.562 23.3828C29.288 23.2928 29.0065 23.2611 28.7382 23.2639C29.932 22.469 30.5226 20.9378 30.5226 20.9378C30.0055 21.4767 29.7349 21.6547 28.5921 21.7407C28.3045 21.7624 28.0324 21.8409 27.7855 21.9462C28.5843 20.7551 28.5439 19.1141 28.5439 19.1141C28.2724 19.81 28.0906 20.0778 27.0676 20.5945C26.8102 20.7246 26.5887 20.9015 26.401 21.0931C26.6831 19.6869 26.0178 18.1865 26.0178 18.1865C26.0334 18.9333 25.9677 19.2504 25.2206 20.1193C25.0325 20.338 24.8956 20.586 24.7955 20.835C24.518 19.4278 23.3291 18.2962 23.3291 18.2962C23.6292 18.9803 23.6899 19.2982 23.3321 20.387C23.2421 20.6609 23.2104 20.9425 23.2133 21.2107C22.4183 20.017 20.8871 19.4264 20.8871 19.4264C21.4261 19.9434 21.604 20.2141 21.69 21.3568C21.7117 21.6444 21.7902 21.9166 21.8954 22.1634C20.7041 21.3646 19.0634 21.4051 19.0634 21.4051C19.7593 21.6765 20.0271 21.8584 20.5438 22.8813C20.6739 23.1388 20.8508 23.3601 21.0425 23.5479C19.6362 23.2658 18.1357 23.9311 18.1357 23.9311C18.8826 23.9156 19.1996 23.9812 20.0686 24.7284C20.2873 24.9165 20.5353 25.0533 20.7843 25.1535C19.3771 25.4309 18.2455 26.6199 18.2455 26.6199C18.9296 26.3198 19.2476 26.259 20.3363 26.6169C20.6103 26.7069 20.8919 26.7385 21.1601 26.7357C19.9664 27.5305 19.3757 29.062 19.3757 29.062C19.8928 28.523 20.1634 28.3451 21.3061 28.259C21.5937 28.2374 21.8659 28.1588 22.1127 28.0537C21.314 29.245 21.3544 30.8857 21.3544 30.8857C21.6259 30.1897 21.8077 29.9219 22.8306 29.4051C23.0881 29.2751 23.3095 29.0982 23.4972 28.9066C23.2151 30.3128 23.8804 31.8132 23.8804 31.8132C23.8649 31.0664 23.9305 30.7494 24.6777 29.8803C24.8658 29.6617 25.0027 29.4136 25.1028 29.1647C25.3802 30.5717 26.5692 31.7035 26.5692 31.7035C26.2691 31.0194 26.2084 30.7013 26.5662 29.6126C26.6562 29.3387 26.6879 29.0572 26.685 28.7889C27.4799 29.9827 29.0112 30.5733 29.0112 30.5733C28.4722 30.0562 28.2943 29.7856 28.2083 28.6428C28.1866 28.3553 28.1081 28.0831 28.0029 27.8363C29.194 28.635 30.8349 28.5946 30.8349 28.5946C30.139 28.323 29.8711 28.1413 29.3543 27.1183C29.2243 26.8609 29.0474 26.6394 28.8558 26.4517C30.2621 26.7338 31.7624 26.0685 31.7624 26.0685C31.0157 26.0841 30.6986 26.0187 29.8296 25.2713Z" fill="#FFE15A"/>
<path d="M28.4566 25.6877L31.8955 24.9999L28.4566 24.3121L31.3706 22.3607L27.9302 23.0412L29.8756 20.1232L26.9577 22.0686L27.6382 18.6283L25.6869 21.5422L24.999 18.1035L24.3113 21.5424L22.3599 18.6285L23.0405 22.0688L20.1226 20.1234L22.068 23.0414L18.6276 22.3609L21.5416 24.3123L18.1025 25L21.5414 25.6878L18.6274 27.6391L22.0678 26.9586L20.1224 29.8765L23.0403 27.9311L22.3597 31.3714L24.3111 28.4576L24.999 31.8963L25.6868 28.4575L27.6381 31.3713L26.9576 27.931L29.8755 29.8764L27.9301 26.9585L31.3705 27.639L28.4566 25.6877Z" fill="#FFD25A"/>
<path d="M24.999 28.4482C26.9034 28.4482 28.4472 26.9044 28.4472 25C28.4472 23.0956 26.9034 21.5518 24.999 21.5518C23.0946 21.5518 21.5508 23.0956 21.5508 25C21.5508 26.9044 23.0946 28.4482 24.999 28.4482Z" fill="#FFE15A"/>
<path d="M9.98531 35.345C12.4863 35.345 12.4863 36.2071 14.9873 36.2071C17.4902 36.2071 17.4902 35.345 19.9928 35.345C22.4954 35.345 22.4956 36.2071 24.9982 36.2071C27.4954 36.2071 27.4954 35.345 29.9927 35.345C32.4912 35.345 32.4912 36.2071 34.9896 36.2071C37.4892 36.2071 37.4892 35.345 39.9887 35.345C42.4882 35.345 42.4882 36.2071 44.9877 36.2071C47.4873 36.2071 47.4873 35.345 49.9869 35.345C49.9909 35.345 49.9942 35.3452 49.9982 35.3452V32.759C49.9942 32.759 49.9909 32.7588 49.9869 32.7588C47.4873 32.7588 47.4873 33.6209 44.9877 33.6209C42.4883 33.6209 42.4883 32.7588 39.9887 32.7588C37.4891 32.7588 37.4891 33.6209 34.9896 33.6209C32.4911 33.6209 32.4911 32.7588 29.9927 32.7588C27.4955 32.7588 27.4955 33.6209 24.9982 33.6209C22.4954 33.6209 22.4954 32.7588 19.9928 32.7588C17.4902 32.7588 17.49 33.6209 14.9873 33.6209C12.4863 33.6209 12.4863 32.7588 9.98531 32.7588C7.48649 32.7588 7.48649 33.6209 4.98758 33.6209C2.4914 33.6209 2.48671 32.7618 -0.00146484 32.7591V35.3453C2.48681 35.3481 2.4914 36.2071 4.98758 36.2071C7.48649 36.2071 7.48649 35.345 9.98531 35.345Z" fill="#41479B"/>
<path d="M-0.00146484 30.1725C2.48681 30.1753 2.4914 31.0343 4.98758 31.0343C7.48649 31.0343 7.48649 30.1722 9.98531 30.1722C12.4863 30.1722 12.4863 31.0343 14.9873 31.0343C17.4902 31.0343 17.4902 30.1722 19.9928 30.1722C22.4954 30.1722 22.4956 31.0343 24.9982 31.0343C27.4954 31.0343 27.4954 30.1722 29.9927 30.1722C32.4912 30.1722 32.4912 31.0343 34.9896 31.0343C37.4892 31.0343 37.4892 30.1722 39.9887 30.1722C42.4882 30.1722 42.4882 31.0343 44.9877 31.0343C47.4873 31.0343 47.4873 30.1722 49.9869 30.1722C49.9909 30.1722 49.9942 30.1724 49.9982 30.1724V27.5861C49.9942 27.5861 49.9909 27.5859 49.9869 27.5859C47.4873 27.5859 47.4873 28.448 44.9877 28.448C42.4883 28.448 42.4883 27.5859 39.9887 27.5859C37.4891 27.5859 37.4891 28.448 34.9896 28.448C32.4911 28.448 32.4911 27.5859 29.9927 27.5859C27.4955 27.5859 27.4955 28.448 24.9982 28.448C22.4954 28.448 22.4954 27.5859 19.9928 27.5859C17.4902 27.5859 17.49 28.448 14.9873 28.448C12.4863 28.448 12.4863 27.5859 9.98531 27.5859C7.48649 27.5859 7.48649 28.448 4.98758 28.448C2.4914 28.448 2.48671 27.589 -0.00146484 27.5862L-0.00146484 30.1725Z" fill="#41479B"/>
<path d="M-0.00146484 37.9313C2.48681 37.9341 2.4914 38.7931 4.98758 38.7931C7.48649 38.7931 7.48649 37.9309 9.98531 37.9309C12.4863 37.9309 12.4863 38.7931 14.9873 38.7931C17.4902 38.7931 17.4902 37.9309 19.9928 37.9309C22.4954 37.9309 22.4956 38.7931 24.9982 38.7931C27.4954 38.7931 27.4954 37.9309 29.9927 37.9309C32.4912 37.9309 32.4912 38.7931 34.9896 38.7931C37.4892 38.7931 37.4892 37.9309 39.9887 37.9309C42.4882 37.9309 42.4882 38.7931 44.9877 38.7931C47.4873 38.7931 47.4873 37.9309 49.9869 37.9309C49.9909 37.9309 49.9942 37.9311 49.9982 37.9311V35.3449C49.9942 35.3449 49.9909 35.3447 49.9869 35.3447C47.4873 35.3447 47.4873 36.2068 44.9877 36.2068C42.4883 36.2068 42.4883 35.3447 39.9887 35.3447C37.4891 35.3447 37.4891 36.2068 34.9896 36.2068C32.4911 36.2068 32.4911 35.3447 29.9927 35.3447C27.4955 35.3447 27.4955 36.2068 24.9982 36.2068C22.4954 36.2068 22.4954 35.3447 19.9928 35.3447C17.4902 35.3447 17.49 36.2068 14.9873 36.2068C12.4863 36.2068 12.4863 35.3447 9.98531 35.3447C7.48649 35.3447 7.48649 36.2068 4.98758 36.2068C2.4914 36.2068 2.48671 35.3478 -0.00146484 35.345L-0.00146484 37.9313Z" fill="#F5F5F5"/>
<path d="M-0.00146484 32.7585C2.48681 32.7612 2.4914 33.6202 4.98758 33.6202C7.48649 33.6202 7.48649 32.7581 9.98531 32.7581C12.4863 32.7581 12.4863 33.6202 14.9873 33.6202C17.4902 33.6202 17.4902 32.7581 19.9928 32.7581C22.4954 32.7581 22.4956 33.6202 24.9982 33.6202C27.4954 33.6202 27.4954 32.7581 29.9927 32.7581C32.4912 32.7581 32.4912 33.6202 34.9896 33.6202C37.4892 33.6202 37.4892 32.7581 39.9887 32.7581C42.4882 32.7581 42.4882 33.6202 44.9877 33.6202C47.4873 33.6202 47.4873 32.7581 49.9869 32.7581C49.9909 32.7581 49.9942 32.7583 49.9982 32.7583V30.1721C49.9942 30.1721 49.9909 30.1719 49.9869 30.1719C47.4873 30.1719 47.4873 31.034 44.9877 31.034C42.4883 31.034 42.4883 30.1719 39.9887 30.1719C37.4891 30.1719 37.4891 31.034 34.9896 31.034C32.4911 31.034 32.4911 30.1719 29.9927 30.1719C27.4955 30.1719 27.4955 31.034 24.9982 31.034C22.4954 31.034 22.4954 30.1719 19.9928 30.1719C17.4902 30.1719 17.49 31.034 14.9873 31.034C12.4863 31.034 12.4863 30.1719 9.98531 30.1719C7.48649 30.1719 7.48649 31.034 4.98758 31.034C2.4914 31.034 2.48671 30.1749 -0.00146484 30.1722L-0.00146484 32.7585Z" fill="#F5F5F5"/>
<path d="M-0.00146484 27.5866C2.48681 27.5893 2.4914 28.4483 4.98758 28.4483C7.48649 28.4483 7.48649 27.5862 9.98531 27.5862C12.4863 27.5862 12.4863 28.4483 14.9873 28.4483C17.4902 28.4483 17.4902 27.5862 19.9928 27.5862C22.4954 27.5862 22.4956 28.4483 24.9982 28.4483C27.4954 28.4483 27.4954 27.5862 29.9927 27.5862C32.4912 27.5862 32.4912 28.4483 34.9896 28.4483C37.4892 28.4483 37.4892 27.5862 39.9887 27.5862C42.4882 27.5862 42.4882 28.4483 44.9877 28.4483C47.4873 28.4483 47.4873 27.5862 49.9869 27.5862C49.9909 27.5862 49.9942 27.5864 49.9982 27.5864V25.0002C49.9942 25.0002 49.9909 25 49.9869 25C47.4873 25 47.4873 25.8621 44.9877 25.8621C42.4883 25.8621 42.4883 25 39.9887 25C37.4891 25 37.4891 25.8621 34.9896 25.8621C32.4911 25.8621 32.4911 25 29.9927 25C27.4955 25 27.4955 25.8621 24.9982 25.8621C22.4954 25.8621 22.4954 25 19.9928 25C17.4902 25 17.49 25.8621 14.9873 25.8621C12.4863 25.8621 12.4863 25 9.98531 25C7.48649 25 7.48649 25.8621 4.98758 25.8621C2.4914 25.8621 2.48671 25.003 -0.00146484 25.0003L-0.00146484 27.5866Z" fill="#F5F5F5"/>
<path d="M44.9886 38.7933C42.4892 38.7933 42.4892 37.9312 39.9896 37.9312C37.49 37.9312 37.49 38.7933 34.9905 38.7933C32.492 38.7933 32.492 37.9312 29.9935 37.9312C27.4964 37.9312 27.4964 38.7933 24.9992 38.7933C22.4964 38.7933 22.4964 37.9312 19.9938 37.9312C17.4911 37.9312 17.4909 38.7933 14.9883 38.7933C12.4873 38.7933 12.4873 37.9312 9.98629 37.9312C7.48747 37.9312 7.48747 38.7933 4.98855 38.7933C2.49237 38.7933 2.48769 37.9342 -0.000488281 37.9314V40.5174C-0.000488281 40.9934 0.385545 41.3795 0.861618 41.3795H49.1373C49.6073 41.3795 49.9862 41.0022 49.9959 40.5346C49.997 39.0178 49.9981 37.9315 49.9993 37.9315C49.9953 37.9315 49.992 37.9313 49.988 37.9313C47.4882 37.9312 47.4882 38.7933 44.9886 38.7933Z" fill="#41479B"/>
<path d="M26.794 13.1998C30.9861 13.0377 33.1168 11.208 33.1168 11.208C32.8158 11.3237 28.1142 11.7175 26.7709 11.8333C25.9225 11.9063 24.8642 12.8736 24.1977 13.5779C24.0182 13.0902 23.6674 12.5844 22.9725 12.4818C21.5597 12.2734 17.8077 12.0419 16.8813 11.6017C16.8813 11.6017 17.4793 12.526 20.5697 12.945C22.0504 13.1458 22.8668 13.6536 23.2555 13.9993L22.9031 13.9872C22.9031 13.9872 22.9031 13.9872 22.301 13.686C21.6988 13.385 21.0966 13.8944 21.0966 13.8944H20.1374C20.0173 13.8944 19.9487 14.0316 20.0208 14.1276L20.1131 14.2507C20.2072 14.3764 20.3552 14.4503 20.5122 14.4503H21.4902C21.8377 15.0524 23.1578 15.6778 24.2464 15.6778C25.3348 15.6778 28.6701 14.1956 28.9943 14.1956L25.9773 14.0924L26.794 13.1998Z" fill="#FFE15A"/>
</g>
<defs>
<clipPath id="clip0_106_18809">
<rect width="50" height="50" fill="white"/>
</clipPath>
</defs>
</svg>
