<svg width="50" height="50" viewBox="0 0 50 50" fill="none" xmlns="http://www.w3.org/2000/svg">
<g clip-path="url(#clip0_106_18799)">
<path d="M49.1378 41.3797H0.862108C0.386034 41.3797 0 40.9937 0 40.5176V9.4832C0 9.00713 0.386034 8.62109 0.862108 8.62109H49.1379C49.614 8.62109 50 9.00713 50 9.4832V40.5176C49.9999 40.9938 49.6139 41.3797 49.1378 41.3797Z" fill="#41479B"/>
<path d="M26.1048 19.7734C25.6064 19.6791 25.0003 19.0461 25.2158 18.6959C25.4313 18.3457 25.0272 17.5644 24.5423 17.8337C24.0573 18.1032 23.7341 18.4264 23.2761 18.5341C22.818 18.6419 22.4409 18.9921 22.7911 19.3154C23.1413 19.6386 23.6801 20.2852 23.1682 20.9587C22.6564 21.6323 22.818 21.1743 22.1984 21.4706C21.5788 21.7668 21.1477 22.3595 21.3363 22.7098C21.5249 23.06 21.6865 23.1948 21.1477 23.4372C20.609 23.6795 20.3665 23.518 19.9354 23.6257C19.5044 23.7334 18.4538 24.2723 18.1305 24.7302C17.8072 25.1882 17.1067 24.7572 16.8104 24.7033C16.5142 24.6494 15.9215 24.8649 15.7867 25.2151C15.652 25.5653 15.8944 25.8886 16.4063 26.0502C16.9182 26.2119 17.1337 26.2388 16.8913 26.6699C16.6489 27.1009 16.8104 27.9361 17.2145 28.1785C17.6186 28.4209 18.3999 29.1752 18.3999 29.6871C18.3999 30.1989 18.2922 30.9533 19.0465 31.061C19.8008 31.1687 20.9592 31.492 21.3633 32.1924C21.7674 32.8928 21.8751 33.2969 21.9559 33.728C22.0368 34.159 22.1176 34.5092 22.36 34.9942C22.6025 35.4791 22.7641 36.3142 22.5217 36.5028C22.2792 36.6913 22.0906 36.826 22.2792 37.1897C22.4678 37.5533 22.5082 37.688 22.8584 37.486C23.2086 37.2839 23.2086 37.4994 23.3971 37.459C23.5857 37.4186 24.4478 37.1088 24.2861 36.6912C24.1245 36.2737 23.7743 35.3173 24.2726 34.819C24.771 34.3206 25.4445 34.2398 25.8756 33.9031C26.3066 33.5663 27.0205 33.5124 27.5727 32.9737C28.125 32.4349 28.7176 32.7581 28.812 33.1353C28.9063 33.5124 29.0545 34.2398 29.4855 34.2263C29.9166 34.2128 30.0108 34.2128 30.0917 33.6875C30.1725 33.1622 30.846 31.9904 31.1154 32.1385C31.3848 32.2867 31.6272 32.1655 31.6407 31.9365C31.6542 31.7075 32.166 31.5054 32.3815 31.8287C32.597 32.152 33.0684 32.4079 33.055 32.0038C33.0416 31.5997 32.4893 31.6536 32.4758 31.2091C32.4624 30.7646 32.9204 30.4818 33.3245 30.2932C33.7286 30.1046 33.4861 29.6197 33.6074 29.3503C33.7286 29.0809 34.3886 28.7442 34.4156 28.4747C34.4425 28.2053 34.254 28.0976 34.5368 28.0302C34.8197 27.9628 35.1699 27.8416 34.9678 27.5319C34.7658 27.2221 34.8332 26.9931 35.0487 26.845C35.2642 26.6968 35.3653 25.9936 35.0509 25.9022C34.7365 25.8109 34.1686 26.0747 34.0266 26.247C33.8846 26.4195 33.3066 25.6791 33.0327 25.4964C32.7588 25.3139 30.9941 25.4254 31.0347 25.1212C31.0754 24.817 31.816 23.7065 31.4927 23.5314C31.1695 23.3563 30.6576 23.1003 30.24 22.9657C29.8224 22.831 29.9168 23.2889 29.6878 22.9252C29.4588 22.5616 29.378 21.2684 29.122 21.2684C28.8661 21.2684 28.6775 21.8072 28.5698 21.6051C28.4621 21.4031 28.6102 20.0022 28.0175 19.9752C27.4249 19.9483 27.4114 20.2985 27.0747 20.0426C26.7379 19.7869 26.7861 19.9022 26.1048 19.7734Z" fill="#FF9B55"/>
<path d="M22.4447 12.1107L21.9971 13.4525L20.5826 13.4636C20.5051 13.4643 20.473 13.5632 20.5354 13.6092L21.6732 14.4494L21.2465 15.798C21.2232 15.872 21.3073 15.9332 21.3704 15.888L22.5211 15.0654L23.6719 15.888C23.735 15.933 23.8192 15.872 23.7958 15.798L23.3692 14.4494L24.507 13.6092C24.5694 13.5632 24.5372 13.4642 24.4597 13.4636L23.0452 13.4525L22.5977 12.1107C22.5733 12.0373 22.4692 12.0373 22.4447 12.1107Z" fill="#F5F5F5"/>
<path d="M27.4285 12.1107L26.981 13.4525L25.5665 13.4636C25.489 13.4643 25.4569 13.5632 25.5193 13.6092L26.6571 14.4494L26.2304 15.798C26.2071 15.872 26.2911 15.9332 26.3543 15.888L27.5051 15.0654L28.6559 15.888C28.719 15.933 28.8031 15.872 28.7798 15.798L28.3531 14.4494L29.4909 13.6092C29.5533 13.5632 29.5211 13.4642 29.4437 13.4636L28.0292 13.4525L27.5817 12.1107C27.5571 12.0373 27.453 12.0373 27.4285 12.1107Z" fill="#F5F5F5"/>
<path d="M17.5277 12.9321L17.0801 14.2739L15.6657 14.2849C15.5881 14.2856 15.556 14.3845 15.6184 14.4305L16.7562 15.2708L16.3295 16.6194C16.3062 16.6933 16.3903 16.7546 16.4534 16.7093L17.6042 15.8868L18.755 16.7093C18.8181 16.7544 18.9023 16.6933 18.8789 16.6194L18.4523 15.2708L19.5901 14.4305C19.6525 14.3845 19.6203 14.2855 19.5428 14.2849L18.1283 14.2739L17.6808 12.9321C17.6563 12.8586 17.5522 12.8586 17.5277 12.9321Z" fill="#F5F5F5"/>
<path d="M12.8763 14.6234L12.4287 15.9652L11.0143 15.9763C10.9367 15.9769 10.9046 16.0759 10.967 16.1219L12.1048 16.9621L11.6782 18.3107C11.6548 18.3847 11.7389 18.4459 11.8021 18.4007L12.9529 17.5781L14.1036 18.4007C14.1667 18.4457 14.2509 18.3847 14.2276 18.3107L13.8009 16.9621L14.9387 16.1219C15.0011 16.0759 14.969 15.9769 14.8914 15.9763L13.477 15.9652L13.0294 14.6234C13.0049 14.55 12.9008 14.55 12.8763 14.6234Z" fill="#F5F5F5"/>
<path d="M32.4845 12.9321L32.9321 14.2739L34.3465 14.2849C34.424 14.2856 34.4562 14.3845 34.3938 14.4305L33.256 15.2708L33.6826 16.6194C33.706 16.6933 33.6219 16.7546 33.5587 16.7093L32.4079 15.8868L31.2572 16.7093C31.1941 16.7544 31.1099 16.6933 31.1332 16.6194L31.5599 15.2708L30.4221 14.4305C30.3597 14.3845 30.3918 14.2855 30.4694 14.2849L31.8837 14.2739L32.3313 12.9321C32.3559 12.8586 32.46 12.8586 32.4845 12.9321Z" fill="#F5F5F5"/>
<path d="M37.1363 14.6234L37.5839 15.9652L38.9983 15.9763C39.0759 15.9769 39.108 16.0759 39.0456 16.1219L37.9078 16.9621L38.3345 18.3107C38.3578 18.3847 38.2737 18.4459 38.2105 18.4007L37.0598 17.5781L35.909 18.4007C35.8459 18.4457 35.7617 18.3847 35.7851 18.3107L36.2117 16.9621L35.0739 16.1219C35.0115 16.0759 35.0438 15.9769 35.1212 15.9763L36.5356 15.9652L36.9832 14.6234C37.0077 14.55 37.1118 14.55 37.1363 14.6234Z" fill="#F5F5F5"/>
</g>
<defs>
<clipPath id="clip0_106_18799">
<rect width="50" height="50" fill="white"/>
</clipPath>
</defs>
</svg>
