<svg width="50" height="50" viewBox="0 0 50 50" fill="none" xmlns="http://www.w3.org/2000/svg">
<g clip-path="url(#clip0_106_18794)">
<path d="M49.9994 19.5407H-0.000488281V9.4832C-0.000488281 9.00713 0.385546 8.62109 0.861619 8.62109H49.1374C49.6135 8.62109 49.9995 9.00713 49.9995 9.4832L49.9994 19.5407Z" fill="#73AF00"/>
<path d="M49.1373 41.3795H0.861619C0.385546 41.3795 -0.000488281 40.9934 -0.000488281 40.5174V30.46H49.9994V40.5174C49.9994 40.9935 49.6134 41.3795 49.1373 41.3795Z" fill="#FF4B55"/>
<path d="M49.9994 19.54H-0.000488281V30.459H49.9994V19.54Z" fill="#F5F5F5"/>
<path d="M0.31748 41.1708L13.7926 30.4744L13.7923 19.5252L0.31748 8.8291C0.127539 8.98721 -0.000488281 9.21631 -0.000488281 9.48271V40.5171C-0.000488281 40.7836 0.127539 41.0127 0.31748 41.1708Z" fill="#464655"/>
</g>
<defs>
<clipPath id="clip0_106_18794">
<rect width="50" height="50" fill="white"/>
</clipPath>
</defs>
</svg>
