<svg width="50" height="50" viewBox="0 0 50 50" fill="none" xmlns="http://www.w3.org/2000/svg">
<g clip-path="url(#clip0_106_18774)">
<path d="M49.1383 41.3797H0.862596C0.386523 41.3797 0.000488281 40.9937 0.000488281 40.5176V9.4832C0.000488281 9.00713 0.386523 8.62109 0.862596 8.62109H49.1384C49.6145 8.62109 50.0005 9.00713 50.0005 9.4832V40.5176C50.0004 40.9938 49.6144 41.3797 49.1383 41.3797Z" fill="#FF4B55"/>
<path d="M34.1188 27.5707C34.1188 27.5707 32.4014 27.2843 31.1293 26.2294C30.754 25.9181 30.2093 25.6803 29.6789 25.5046C30.1053 25.4856 30.5577 25.4975 30.9851 25.584C32.7558 25.942 34.4727 25.0825 34.4727 25.0825C34.4727 25.0825 32.7404 25.2573 31.2359 24.5734C30.829 24.3885 30.3012 24.3013 29.7861 24.2646C30.1566 24.1581 30.5498 24.0747 30.938 24.0532C32.7418 23.9532 34.1865 22.6887 34.1865 22.6887C34.1865 22.6887 32.5543 23.2945 30.926 23.012C30.4517 22.9297 29.8696 22.9913 29.3279 23.1002C29.6843 22.8764 30.0766 22.6672 30.4838 22.5325C32.1988 21.965 33.2633 20.3671 33.2633 20.3671C33.2633 20.3671 31.8458 21.3781 30.2002 21.5306C29.7115 21.5758 29.155 21.7952 28.6527 22.0478C28.9425 21.7302 29.2732 21.4157 29.6394 21.1727C31.1446 20.1738 31.7509 18.352 31.7509 18.352C31.7509 18.352 30.6497 19.7006 29.1021 20.2808C28.6803 20.4391 28.243 20.7558 27.8504 21.0973C28.0381 20.756 28.2587 20.4147 28.5208 20.1216C29.7248 18.7748 29.851 16.859 29.851 16.859C29.851 16.859 29.1262 18.442 27.7756 19.3944C27.3818 19.6722 27.0138 20.128 26.7078 20.5888C26.8013 20.178 26.9305 19.752 27.1232 19.3682C27.9337 17.7536 27.5553 15.8713 27.5553 15.8713C27.5553 15.8713 27.2689 17.5887 26.2139 18.8608C25.9027 19.2361 25.6649 19.7808 25.4891 20.3114C25.4702 19.885 25.4821 19.4326 25.5685 19.0052C25.9265 17.2345 25.0671 15.5176 25.0671 15.5176C25.0671 15.5176 25.2419 17.2499 24.5579 18.7544C24.3729 19.1613 24.2858 19.6891 24.2491 20.2042C24.1426 19.8337 24.0592 19.4405 24.0377 19.0523C23.9377 17.2485 22.6731 15.8038 22.6731 15.8038C22.6731 15.8038 23.279 17.436 22.9965 19.0643C22.9141 19.5386 22.9758 20.1207 23.0847 20.6625C22.8608 20.3061 22.6516 19.9138 22.517 19.5065C21.9495 17.7915 20.3516 16.727 20.3516 16.727C20.3516 16.727 21.3626 18.1445 21.515 19.7901C21.5602 20.2788 21.7797 20.8355 22.0324 21.3377C21.7147 21.0479 21.4003 20.7172 21.1572 20.3509C20.1583 18.8457 18.3365 18.2394 18.3365 18.2394C18.3365 18.2394 19.6851 19.3407 20.2653 20.8883C20.4235 21.3101 20.7403 21.7474 21.0817 22.14C20.7405 21.9523 20.3992 21.7317 20.106 21.4696C18.7593 20.2656 16.8435 20.1393 16.8435 20.1393C16.8435 20.1393 18.4265 20.8642 19.3789 22.2149C19.6564 22.6086 20.1124 22.9766 20.5729 23.2827C20.1623 23.1891 19.7363 23.0599 19.3525 22.8673C17.738 22.0568 15.8557 22.4352 15.8557 22.4352C15.8557 22.4352 17.573 22.7216 18.8452 23.7765C19.2205 24.0878 19.7651 24.3256 20.2958 24.5013C19.8693 24.5203 19.417 24.5084 18.9895 24.422C17.2188 24.0639 15.502 24.9234 15.502 24.9234C15.502 24.9234 17.2343 24.7486 18.7388 25.4326C19.1457 25.6176 19.6734 25.7047 20.1886 25.7414C19.8181 25.8479 19.4249 25.9313 19.0367 25.9528C17.2329 26.0528 15.7882 27.3174 15.7882 27.3174C15.7882 27.3174 17.4204 26.7115 19.0487 26.994C19.5229 27.0763 20.1051 27.0147 20.6469 26.9058C20.2905 27.1297 19.8981 27.3388 19.4909 27.4735C17.7759 28.041 16.7114 29.6389 16.7114 29.6389C16.7114 29.6389 18.1289 28.6279 19.7745 28.4755C20.2632 28.4302 20.8199 28.2108 21.3221 27.9581C21.0323 28.2758 20.7016 28.5902 20.3352 28.8333C18.8301 29.8322 18.2237 31.654 18.2237 31.654C18.2237 31.654 19.325 30.3054 20.8726 29.7252C21.2943 29.567 21.7316 29.2502 22.1242 28.9088C21.9366 29.2499 21.7159 29.5913 21.454 29.8843C20.25 31.2311 20.1237 33.1469 20.1237 33.1469C20.1237 33.1469 20.8486 31.5639 22.1993 30.6115C22.5931 30.3338 22.961 29.8779 23.2671 29.4174C23.1735 29.8281 23.0443 30.254 22.8516 30.6379C22.0412 32.2524 22.4196 34.1347 22.4196 34.1347C22.4196 34.1347 22.7059 32.4173 23.7609 31.1452C24.0722 30.7699 24.3099 30.2253 24.4857 29.6946C24.5047 30.1213 24.4928 30.5735 24.4063 31.0009C24.0483 32.7716 24.9078 34.4884 24.9078 34.4884C24.9078 34.4884 24.733 32.7562 25.417 31.2517C25.6019 30.8448 25.689 30.317 25.7258 29.8019C25.8323 30.1724 25.9157 30.5656 25.9372 30.9538C26.0372 32.7576 27.3017 34.2023 27.3017 34.2023C27.3017 34.2023 26.6959 32.57 26.9784 30.9418C27.0607 30.4675 26.9991 29.8854 26.8902 29.3437C27.114 29.7001 27.3232 30.0924 27.4579 30.4996C28.0254 32.2146 29.6233 33.2791 29.6233 33.2791C29.6233 33.2791 28.6123 31.8616 28.4598 30.2159C28.4146 29.7272 28.1952 29.1705 27.9425 28.6683C28.2601 28.9581 28.5746 29.2888 28.8177 29.6551C29.8166 31.1603 31.6384 31.7667 31.6384 31.7667C31.6384 31.7667 30.2898 30.6654 29.7095 29.1178C29.5513 28.6961 29.2345 28.2588 28.8931 27.8662C29.2343 28.0538 29.5756 28.2745 29.8687 28.5364C31.2155 29.7404 33.1313 29.8667 33.1313 29.8667C33.1313 29.8667 31.5483 29.1418 30.5959 27.7911C30.3181 27.3973 29.8623 27.0293 29.4015 26.7233C29.8123 26.8169 30.2382 26.9461 30.622 27.1387C32.2365 27.9491 34.1188 27.5707 34.1188 27.5707ZM24.9983 29.377C22.581 29.377 20.6215 27.4175 20.6215 25.0002C20.6215 22.5829 22.581 20.6233 24.9983 20.6233C27.4156 20.6233 29.3752 22.5829 29.3752 25.0002C29.3752 27.4175 27.4156 29.377 24.9983 29.377Z" fill="#FFE15A"/>
<path d="M23.611 23.2292C23.7044 23.1563 23.7973 23.0832 23.8916 23.0182C23.2715 22.7361 22.7133 22.6007 22.3217 22.54C22.2594 22.6078 22.2031 22.6806 22.146 22.7528C22.5306 22.8275 23.0473 22.9701 23.611 23.2292Z" fill="#FFE15A"/>
<path d="M22.5103 22.3469C22.9311 22.3944 23.5402 22.5197 24.2161 22.8104C24.3294 22.7429 24.4421 22.6831 24.555 22.6254C23.8252 22.3258 23.1664 22.2142 22.713 22.1797C22.6448 22.235 22.5741 22.2869 22.5103 22.3469Z" fill="#FFE15A"/>
<path d="M24.7015 24.3758C24.6142 24.2934 24.5258 24.2153 24.4366 24.1416C23.6172 24.9215 22.9003 26.0589 22.5767 27.7092C22.6943 27.8144 22.8111 27.9209 22.9417 28.0104C23.1795 26.332 23.8765 25.1735 24.7015 24.3758Z" fill="#FFE15A"/>
<path d="M24.3839 23.6499C24.4768 23.5752 24.5695 23.5002 24.6637 23.4334C24.549 23.3603 24.4348 23.296 24.3209 23.2334C24.2233 23.3002 24.1257 23.3648 24.0293 23.4399C24.1473 23.5049 24.2652 23.574 24.3839 23.6499Z" fill="#FFE15A"/>
<path d="M26.6479 23.4394C27.3505 24.0564 27.9927 24.9254 28.4496 26.1301C28.5669 25.7724 28.6462 25.3974 28.6462 25.0005C28.6462 24.247 28.4172 23.5471 28.0257 22.9658C27.6634 23.0379 27.177 23.1787 26.6479 23.4394Z" fill="#FFE15A"/>
<path d="M24.728 23.8852C24.8195 23.9531 24.9092 24.0299 24.9992 24.1054C25.0892 24.0298 25.1788 23.9531 25.2704 23.8852C25.1804 23.8102 25.0905 23.7363 24.9992 23.6689C24.9079 23.7364 24.8182 23.8102 24.728 23.8852Z" fill="#FFE15A"/>
<path d="M24.9992 22.8291C24.8847 22.8872 24.77 22.9527 24.6548 23.0209C24.7694 23.0811 24.8839 23.1458 24.9992 23.2166C25.1146 23.1459 25.2291 23.0812 25.3437 23.0209C25.2284 22.9526 25.1138 22.8872 24.9992 22.8291Z" fill="#FFE15A"/>
<path d="M22.1794 27.287C22.5652 25.7113 23.2926 24.6318 24.1065 23.8893C23.9928 23.8089 23.8794 23.7352 23.7657 23.667C22.9824 24.3558 22.2736 25.3511 21.8369 26.7851C21.9376 26.963 22.0514 27.1295 22.1794 27.287Z" fill="#FFE15A"/>
<path d="M23.3499 23.4395C22.8209 23.1787 22.3345 23.0381 21.9721 22.9658C21.5806 23.5471 21.3516 24.247 21.3516 25.0005C21.3516 25.3974 21.4309 25.7724 21.5481 26.1301C22.0052 24.9254 22.6473 24.0565 23.3499 23.4395Z" fill="#FFE15A"/>
<path d="M24.9994 22.4191C25.7754 22.0985 26.4912 21.9847 27.0003 21.9546C26.4254 21.5761 25.7392 21.3525 24.9994 21.3525C24.2597 21.3525 23.5734 21.5762 22.9985 21.9546C23.5076 21.9847 24.2234 22.0984 24.9994 22.4191Z" fill="#FFE15A"/>
<path d="M24.9987 24.6836C24.2713 25.4897 23.6709 26.6472 23.4761 28.3048C23.9407 28.5194 24.4533 28.6474 24.9987 28.6474C25.5442 28.6474 26.0567 28.5194 26.5214 28.3048C26.3266 26.6473 25.7262 25.4897 24.9987 24.6836Z" fill="#FFE15A"/>
<path d="M26.2329 23.667C26.1193 23.7354 26.006 23.8089 25.8921 23.8893C26.706 24.6317 27.4334 25.7113 27.8192 27.287C27.9473 27.1294 28.061 26.963 28.1617 26.7851C27.7251 25.3512 27.0162 24.3558 26.2329 23.667Z" fill="#FFE15A"/>
<path d="M27.4212 27.7092C27.0976 26.0589 26.3807 24.9216 25.5612 24.1416C25.472 24.2153 25.3837 24.2934 25.2964 24.3758C26.1214 25.1735 26.8184 26.332 27.0561 28.0103C27.1867 27.9209 27.3035 27.8144 27.4212 27.7092Z" fill="#FFE15A"/>
<path d="M25.4429 22.6255C25.5558 22.6832 25.6686 22.7431 25.7817 22.8105C26.4576 22.5198 27.0668 22.3945 27.4876 22.347C27.4237 22.287 27.353 22.2351 27.2849 22.1797C26.8314 22.2144 26.1727 22.326 25.4429 22.6255Z" fill="#FFE15A"/>
<path d="M25.6143 23.6499C25.7329 23.574 25.8509 23.505 25.9688 23.4399C25.8726 23.3648 25.7748 23.3002 25.6772 23.2334C25.5634 23.2961 25.4492 23.3603 25.3345 23.4334C25.4285 23.5002 25.5214 23.5753 25.6143 23.6499Z" fill="#FFE15A"/>
<path d="M26.3867 23.2291C26.9505 22.97 27.4672 22.8274 27.8516 22.7528C27.7944 22.6806 27.7383 22.6077 27.6759 22.54C27.2843 22.6007 26.7261 22.736 26.106 23.0182C26.2005 23.083 26.2935 23.1562 26.3867 23.2291Z" fill="#FFE15A"/>
</g>
<defs>
<clipPath id="clip0_106_18774">
<rect width="50" height="50" fill="white"/>
</clipPath>
</defs>
</svg>
