<svg width="50" height="50" viewBox="0 0 50 50" fill="none" xmlns="http://www.w3.org/2000/svg">
<g clip-path="url(#clip0_106_18768)">
<path d="M49.9994 15.5178H-0.000488281V9.4832C-0.000488281 9.00713 0.385546 8.62109 0.861619 8.62109H49.1374C49.6135 8.62109 49.9995 9.00713 49.9995 9.4832L49.9994 15.5178Z" fill="#FF4B55"/>
<path d="M49.1368 41.38H0.861131C0.385058 41.38 -0.000976562 40.9939 -0.000976562 40.5179V34.4834H49.9989V40.5179C49.9989 40.994 49.6129 41.38 49.1368 41.38Z" fill="#FF4B55"/>
<path d="M49.9994 15.5176H-0.000488281V34.4834H49.9994V15.5176Z" fill="#41479B"/>
<path d="M24.9995 31.8965C28.8083 31.8965 31.896 28.8088 31.896 25C31.896 21.1912 28.8083 18.1035 24.9995 18.1035C21.1907 18.1035 18.103 21.1912 18.103 25C18.103 28.8088 21.1907 31.8965 24.9995 31.8965Z" fill="#F5F5F5"/>
</g>
<defs>
<clipPath id="clip0_106_18768">
<rect width="50" height="50" fill="white"/>
</clipPath>
</defs>
</svg>
