<svg width="50" height="50" viewBox="0 0 50 50" fill="none" xmlns="http://www.w3.org/2000/svg">
<g clip-path="url(#clip0_106_18759)">
<path d="M49.9999 15.5178H0V9.4832C0 9.00713 0.386034 8.62109 0.862108 8.62109H49.1379C49.614 8.62109 50 9.00713 50 9.4832L49.9999 15.5178Z" fill="#FF4B55"/>
<path d="M49.1373 41.38H0.861619C0.385546 41.38 -0.000488281 40.9939 -0.000488281 40.5179V34.4834H49.9994V40.5179C49.9994 40.994 49.6134 41.38 49.1373 41.38Z" fill="#FF4B55"/>
<path d="M49.9994 15.5176H-0.000488281V34.4834H49.9994V15.5176Z" fill="#F5F5F5"/>
<path d="M26.8414 30.7983L34.8083 29.2049C35.3833 29.0899 35.64 28.4132 35.2859 27.9457C35.1615 27.7815 34.9783 27.672 34.7748 27.6403L26.2874 26.317C26.0529 26.2804 25.8867 26.06 25.9261 25.8166C25.9643 25.5808 26.2033 25.4306 26.44 25.4618L32.3246 26.2361C32.8029 26.299 33.0963 25.7275 32.7663 25.3756L32.2939 24.8717C32.117 24.683 31.8852 24.555 31.6313 24.5058L26.7154 23.5538L30.9069 23.8557C31.2281 23.8789 31.4143 23.4991 31.1991 23.2593L30.9842 23.0197C30.8542 22.875 30.6817 22.7754 30.4912 22.7356L26.3298 21.866L29.2872 21.7805C29.5488 21.7729 29.6818 21.4628 29.507 21.2682L29.3743 21.1204C29.2704 21.0047 29.1361 20.9205 28.9866 20.8776L26.349 20.1203H28.4218C28.6269 20.1203 28.7648 19.9101 28.6832 19.7221L28.6133 19.5607C28.5294 19.3672 28.3677 19.2181 28.1681 19.1502L26.2512 18.498L27.194 18.495C27.4741 18.4941 27.662 18.2068 27.5506 17.9499C27.4609 17.7428 27.3025 17.5729 27.1021 17.469L24.9994 16.3789L22.8965 17.4692C22.6962 17.5731 22.5377 17.743 22.448 17.9501C22.3366 18.2072 22.5244 18.4944 22.8046 18.4952L23.7474 18.4983L21.8305 19.1505C21.6308 19.2184 21.4691 19.3675 21.3853 19.561L21.3154 19.7224C21.2338 19.9105 21.3717 20.1206 21.5768 20.1206H23.6496L21.012 20.8779C20.8625 20.9208 20.7282 21.005 20.6243 21.1207L20.4916 21.2684C20.3169 21.4632 20.4499 21.7732 20.7114 21.7808L23.6688 21.8663L19.5074 22.7359C19.3169 22.7757 19.1442 22.8753 19.0144 23.02L18.7995 23.2596C18.5842 23.4993 18.7704 23.8792 19.0917 23.856L23.2832 23.5541L18.3673 24.5061C18.1134 24.5553 17.8816 24.6833 17.7047 24.872L17.2323 25.3759C16.9023 25.7278 17.1957 26.2994 17.674 26.2364L23.5586 25.4621C23.7953 25.4309 24.0344 25.5811 24.0725 25.8169C24.1119 26.0605 23.9457 26.2807 23.7112 26.3173L15.2238 27.6406C15.0204 27.6722 14.8372 27.7818 14.7127 27.9459C14.3586 28.4133 14.6153 29.09 15.1903 29.2051L23.1572 30.7985V31.7928C23.1572 32.3356 22.9415 32.8562 22.5577 33.24L21.3155 34.4825H24.9994H28.6835L27.4409 33.2399C27.0572 32.8561 26.8415 32.3355 26.8415 31.7927V30.7983H26.8414Z" fill="#73AF00"/>
</g>
<defs>
<clipPath id="clip0_106_18759">
<rect width="50" height="50" fill="white"/>
</clipPath>
</defs>
</svg>
