<svg width="50" height="50" viewBox="0 0 50 50" fill="none" xmlns="http://www.w3.org/2000/svg">
<g clip-path="url(#clip0_106_18754)">
<path d="M0.000976562 30.46H50.0009V40.5174C50.0009 40.9934 49.6148 41.3795 49.1388 41.3795H0.863084C0.387011 41.3795 0.000976562 40.9934 0.000976562 40.5174V30.46Z" fill="#73AF00"/>
<path d="M0.863084 8.62109H49.1389C49.6149 8.62109 50.001 9.00713 50.001 9.4832V19.5406H0.000976562V9.4831C0.000976562 9.00703 0.387011 8.62109 0.863084 8.62109Z" fill="#41479B"/>
<path d="M50.0009 19.54H0.000976562V30.459H50.0009V19.54Z" fill="#F5F5F5"/>
<path d="M27.9772 26.9443L27.7768 27.0464C27.7496 27.0602 27.7202 27.0722 27.6924 27.0857L25.9222 24.8496C26.286 24.0587 26.5017 22.9792 26.5017 22.4885C26.5017 21.6821 25.9726 21.0104 25.2764 20.8683C25.2298 20.7631 25.1249 20.6895 25.0024 20.6895C24.88 20.6895 24.7751 20.7631 24.7285 20.8683C24.0324 21.0104 23.5032 21.6822 23.5032 22.4885C23.5032 22.9792 23.7189 24.0586 24.0827 24.8496L22.3126 27.0857C22.2851 27.0723 22.2557 27.0604 22.2285 27.0466L22.0281 26.9445L21.2803 28.4146L21.4807 28.5166C22.5013 29.0357 23.719 29.3101 25.0024 29.3101C26.2859 29.3101 27.5041 29.0355 28.5249 28.5165L28.7253 28.4145L27.9772 26.9443ZM26.2017 22.4885C26.2017 22.8532 26.0663 23.6199 25.8153 24.3227C25.7822 24.4153 25.7483 24.5031 25.7136 24.5863L25.4521 24.256V23.0882H25.9019L25.3022 22.4885V21.1835C25.8186 21.3339 26.2017 21.861 26.2017 22.4885ZM24.1894 24.3226C23.9385 23.6198 23.803 22.8531 23.803 22.4884C23.803 21.861 24.1861 21.3339 24.7026 21.1834V22.4884L24.1029 23.0881H24.5527V24.2559L24.2913 24.5862C24.2564 24.5031 24.2226 24.4152 24.1894 24.3226ZM22.173 27.6512L22.2343 27.903L22.0145 27.963L22.173 27.6512ZM21.9114 28.2243L22.2875 28.1218L22.3565 28.4059C22.2049 28.3499 22.0558 28.2904 21.9114 28.2243ZM22.4816 27.6514C22.6527 27.7191 22.8308 27.7788 23.0138 27.832L23.0679 27.9978L22.5943 28.1146L22.4816 27.6514ZM22.693 28.5206L22.6474 28.3332L23.1378 28.2122L23.2898 28.6781C23.0864 28.6339 22.8874 28.581 22.693 28.5206ZM23.3586 27.9222C23.5468 27.9661 23.7384 28.0039 23.934 28.0325L24.0154 28.1782L23.4949 28.3404L23.3586 27.9222ZM23.6264 28.743L23.5647 28.5543L24.1275 28.3789L24.3826 28.835C24.1261 28.8159 23.8737 28.7854 23.6264 28.743ZM24.3024 28.0767C24.5335 28.0986 24.7672 28.1107 25.0023 28.1107C25.0524 28.1107 25.1022 28.108 25.1522 28.1069L25.2148 28.2029L24.523 28.4713L24.3024 28.0767ZM25.0023 28.8603C24.9132 28.8603 24.8252 28.8565 24.7368 28.8538L24.6338 28.6695L25.3403 28.3955L25.6267 28.8346C25.4208 28.8499 25.2131 28.8603 25.0023 28.8603ZM25.5002 28.0918C25.7379 28.0759 25.9727 28.0488 26.2032 28.0106L26.2707 28.0969L25.723 28.4334L25.5002 28.0918ZM25.9639 28.8027L25.8459 28.6218L26.4101 28.2751L26.7238 28.6762C26.4762 28.7305 26.2225 28.7725 25.9639 28.8027ZM26.5348 27.9478C26.7308 27.9055 26.9228 27.8559 27.1088 27.7978L27.1786 27.8883L26.7805 28.262L26.5348 27.9478ZM27.0445 28.5995L26.9195 28.4397L27.3167 28.067L27.5935 28.4255C27.4145 28.4899 27.2322 28.5493 27.0445 28.5995ZM27.4084 27.6952C27.5347 27.6483 27.6588 27.599 27.7781 27.5448L27.8367 27.6601L27.6451 28.0019L27.4084 27.6952ZM27.8855 28.3131L27.7946 28.1953L27.9595 27.9013L28.1184 28.2138C28.0424 28.2489 27.9637 28.2806 27.8855 28.3131Z" fill="#464655"/>
</g>
<defs>
<clipPath id="clip0_106_18754">
<rect width="50" height="50" fill="white"/>
</clipPath>
</defs>
</svg>
