<svg width="50" height="50" viewBox="0 0 50 50" fill="none" xmlns="http://www.w3.org/2000/svg">
<g clip-path="url(#clip0_106_18740)">
<path d="M50.0009 11.5987H0.000976562V9.48271C0.000976562 9.00664 0.387011 8.62061 0.863084 8.62061H49.1389C49.6149 8.62061 50.001 9.00664 50.001 9.48271L50.0009 11.5987Z" fill="#FF4B55"/>
<path d="M50.0009 11.5996H0.000976562V14.5776H50.0009V11.5996Z" fill="#F5F5F5"/>
<path d="M50.0009 14.5762H0.000976562V17.5542H50.0009V14.5762Z" fill="#FF4B55"/>
<path d="M50.0009 17.5547H0.000976562V20.5327H50.0009V17.5547Z" fill="#F5F5F5"/>
<path d="M50.0009 23.5112H0.863084C0.387011 23.5112 0.000976562 23.1252 0.000976562 22.6491V20.5332H50.0009V23.5112Z" fill="#FF4B55"/>
<path d="M50.0009 26.4893H0.000976562V22.4141H0.862889L0.863084 23.5113H50.0009V26.4893Z" fill="#F5F5F5"/>
<path d="M50.0009 26.4893H0.000976562V29.4673H50.0009V26.4893Z" fill="#FF4B55"/>
<path d="M50.0009 29.4668H0.000976562V32.4448H50.0009V29.4668Z" fill="#F5F5F5"/>
<path d="M50.0009 32.4453H0.000976562V35.4233H50.0009V32.4453Z" fill="#FF4B55"/>
<path d="M50.0009 35.4238H0.000976562V38.4018H50.0009V35.4238Z" fill="#F5F5F5"/>
<path d="M49.1388 41.3794H0.863084C0.387011 41.3794 0.000976562 40.9934 0.000976562 40.5173V38.4014H50.0009V40.5173C50.0009 40.9935 49.6148 41.3794 49.1388 41.3794Z" fill="#FF4B55"/>
<path d="M13.794 23.511H0.863084C0.387011 23.511 0.000976562 23.125 0.000976562 22.6489V9.48271C0.000976562 9.00664 0.387011 8.62061 0.863084 8.62061H13.7941C14.2702 8.62061 14.6562 9.00664 14.6562 9.48271V22.6489C14.6561 23.125 14.2701 23.511 13.794 23.511Z" fill="#41479B"/>
<path d="M7.08193 12.4744L6.25889 14.9422L3.65753 14.9623C3.40811 14.9643 3.3046 15.2825 3.50528 15.4308L5.59795 16.9762L4.81328 19.4564C4.73809 19.6942 5.00889 19.891 5.21182 19.746L7.32842 18.2333L9.44482 19.746C9.64775 19.891 9.91855 19.6942 9.84335 19.4564L9.05869 16.9762L11.1514 15.4308C11.352 15.2826 11.2485 14.9642 10.9991 14.9623L8.39775 14.9422L7.57471 12.4744C7.4956 12.2377 7.16094 12.2377 7.08193 12.4744Z" fill="#F5F5F5"/>
</g>
<defs>
<clipPath id="clip0_106_18740">
<rect width="50" height="50" fill="white"/>
</clipPath>
</defs>
</svg>
