<svg width="50" height="50" viewBox="0 0 50 50" fill="none" xmlns="http://www.w3.org/2000/svg">
<g clip-path="url(#clip0_106_18733)">
<path d="M0 32.7588H49.9999V40.5174C49.9999 40.9934 49.6139 41.3795 49.1378 41.3795H0.862108C0.386034 41.3795 0 40.9934 0 40.5174V32.7588Z" fill="#73AF00"/>
<path d="M0.862108 8.62061H49.1379C49.614 8.62061 50 9.00664 50 9.48271V17.2413H0V9.48262C0 9.00654 0.386034 8.62061 0.862108 8.62061Z" fill="#FF4B55"/>
<path d="M49.9999 17.2412H0V32.7588H49.9999V17.2412Z" fill="#464655"/>
<path d="M29.8892 22.2102L31.1866 23.9074L33.2125 23.2293C33.3258 23.1914 33.4221 23.3195 33.3543 23.4177L32.141 25.1761L33.4119 26.8932C33.4829 26.9892 33.3909 27.1205 33.2765 27.0863L31.2293 26.4758L29.989 28.2152C29.9195 28.3124 29.7663 28.2654 29.7634 28.146L29.7113 26.0104L27.6738 25.3683C27.56 25.3325 27.5572 25.1722 27.6699 25.1325L29.685 24.4231L29.6661 22.2869C29.6651 22.1673 29.8166 22.1153 29.8892 22.2102Z" fill="#F5F5F5"/>
<path d="M26.3672 29.1891C24.0555 29.1891 22.1801 27.3138 22.1801 24.9999C22.1801 22.6903 24.0554 20.8107 26.3672 20.8107C27.2273 20.8107 28.0205 21.0753 28.6815 21.523C28.7827 21.5916 28.8983 21.4586 28.8136 21.3705C27.8257 20.3434 26.4274 19.7168 24.8771 19.7697C22.2137 19.8605 20.0088 21.996 19.8387 24.6555C19.6438 27.7018 22.0558 30.2335 25.0589 30.2335C26.5382 30.2335 27.8677 29.615 28.8172 28.6261C28.901 28.5387 28.7852 28.4078 28.6849 28.4757C28.0232 28.9242 27.2288 29.1891 26.3672 29.1891Z" fill="#F5F5F5"/>
</g>
<defs>
<clipPath id="clip0_106_18733">
<rect width="50" height="50" fill="white"/>
</clipPath>
</defs>
</svg>
