<svg width="50" height="50" viewBox="0 0 50 50" fill="none" xmlns="http://www.w3.org/2000/svg">
<g clip-path="url(#clip0_106_18722)">
<path d="M49.9989 25H-0.000976562V9.48271C-0.000976562 9.00664 0.385058 8.62061 0.861131 8.62061H49.1369C49.613 8.62061 49.999 9.00664 49.999 9.48271L49.9989 25Z" fill="#41479B"/>
<path d="M-0.000976562 25H49.9989V40.5173C49.9989 40.9933 49.6129 41.3794 49.1368 41.3794H0.861131C0.385058 41.3794 -0.000976562 40.9933 -0.000976562 40.5173V25Z" fill="#FF4B55"/>
<path d="M16.0177 18.4264C16.0065 18.3932 15.9812 18.3663 15.9486 18.3532C15.9453 18.3519 15.8776 18.3262 15.769 18.2956C15.8168 18.2309 15.8505 18.1552 15.8505 18.0688C15.8505 17.9948 15.8242 17.9295 15.7882 17.8705C15.9075 17.8038 15.9916 17.681 15.9916 17.535C15.9916 17.4193 15.9385 17.3182 15.858 17.2468C15.9545 17.1759 16.0213 17.067 16.0213 16.9385C16.0213 16.795 15.9396 16.6746 15.8237 16.607C15.8845 16.5383 15.9246 16.4504 15.9246 16.3516C15.9246 16.1796 15.8106 16.0379 15.6555 15.9865C15.6909 15.9279 15.7168 15.863 15.7168 15.7896C15.7168 15.5783 15.5469 15.4075 15.3367 15.4021C15.3454 15.3697 15.3567 15.3382 15.3567 15.303C15.3567 15.0883 15.182 14.9136 14.9672 14.9136C14.9309 14.9136 14.8983 14.925 14.865 14.9343C14.8656 14.9257 14.87 14.9184 14.87 14.9095C14.87 14.6947 14.6953 14.52 14.4805 14.52C14.4067 14.52 14.3417 14.5461 14.2827 14.5818C14.2373 14.4172 14.0926 14.2934 13.9137 14.2934C13.8064 14.2934 13.7092 14.337 13.6387 14.4075C13.5727 14.2858 13.4482 14.2 13.3004 14.2C13.1654 14.2 13.0522 14.2731 12.9823 14.3775C12.9112 14.3019 12.8121 14.2534 12.7004 14.2534C12.5562 14.2534 12.4351 14.3357 12.3679 14.4523C12.2966 14.3725 12.1957 14.3199 12.0804 14.3199C11.9378 14.3199 11.8182 14.4006 11.7504 14.515C11.6841 14.4629 11.6043 14.4268 11.5137 14.4268C11.35 14.4268 11.2108 14.5289 11.1533 14.6724C11.0832 14.6046 10.9886 14.5618 10.8835 14.5618C10.7349 14.5618 10.6098 14.6483 10.5442 14.7709C10.5155 14.7531 10.4862 14.7391 10.4533 14.7292C10.5354 14.6079 10.5834 14.4616 10.5834 14.3044C10.5834 13.9992 10.4015 13.7373 10.1415 13.6163L10.2507 13.3978C10.2676 13.3642 10.2676 13.3241 10.2507 13.2903L10.1192 13.0274C10.1288 13.0187 10.1379 13.0097 10.1466 13.0001L10.4098 13.1315C10.4266 13.1399 10.4449 13.144 10.4633 13.144C10.4816 13.144 10.5 13.1396 10.5168 13.1312L11.1568 12.8112C11.1976 12.7908 11.2232 12.7494 11.2232 12.704C11.2232 12.6586 11.1975 12.6172 11.1568 12.5968L10.5168 12.2768C10.4831 12.2599 10.4432 12.2599 10.4096 12.2768L10.1467 12.4082C10.1379 12.3985 10.1287 12.3894 10.1191 12.3805L10.2506 12.1176C10.2675 12.0839 10.2675 12.0438 10.2506 12.0101L9.93055 11.37C9.88993 11.2888 9.75643 11.2888 9.71581 11.37L9.39579 12.0101C9.37889 12.0437 9.37889 12.0839 9.39579 12.1176L9.52723 12.3805C9.51766 12.3892 9.50858 12.3982 9.49989 12.4078L9.23671 12.2764C9.20302 12.2595 9.16317 12.2598 9.12948 12.2767L8.48944 12.5967C8.44862 12.6171 8.42304 12.6585 8.42304 12.7039C8.42304 12.7493 8.44872 12.7907 8.48944 12.8111L9.12948 13.1311C9.14638 13.1395 9.16464 13.1439 9.183 13.1439C9.20145 13.1439 9.21971 13.1395 9.23651 13.1311L9.4994 12.9997C9.50819 13.0094 9.51737 13.0186 9.52694 13.0274L9.3955 13.2903C9.3786 13.324 9.3786 13.3642 9.3955 13.3978L9.50468 13.6163C9.24462 13.7372 9.06278 13.9992 9.06278 14.3044C9.06278 14.4584 9.10956 14.6014 9.18856 14.7212C9.141 14.7303 9.09794 14.7462 9.05809 14.771C8.99247 14.6484 8.86737 14.5619 8.71884 14.5619C8.61386 14.5619 8.51913 14.6046 8.44901 14.6725C8.39159 14.529 8.25243 14.4268 8.08866 14.4268C7.99794 14.4268 7.91806 14.463 7.85194 14.5151C7.78407 14.4007 7.66444 14.32 7.52196 14.32C7.40663 14.32 7.30575 14.3726 7.23447 14.4524C7.16708 14.3357 7.04609 14.2535 6.90195 14.2535C6.79033 14.2535 6.69111 14.3021 6.62001 14.3776C6.55009 14.2732 6.43681 14.2001 6.30195 14.2001C6.1541 14.2001 6.02968 14.2859 5.96367 14.4076C5.89316 14.3371 5.79589 14.2935 5.68857 14.2935C5.50966 14.2935 5.36494 14.4173 5.31963 14.5819C5.26084 14.5462 5.1956 14.5201 5.12177 14.5201C4.90703 14.5201 4.73232 14.6948 4.73232 14.9096C4.73232 14.9183 4.73672 14.9258 4.7373 14.9344C4.704 14.9251 4.67138 14.9137 4.63515 14.9137C4.42031 14.9137 4.2456 15.0884 4.2456 15.3031C4.2456 15.3383 4.25693 15.3698 4.26562 15.4022C4.05537 15.4076 3.88555 15.5784 3.88555 15.7897C3.88555 15.8631 3.91143 15.928 3.94678 15.9866C3.7917 16.038 3.67773 16.1796 3.67773 16.3517C3.67773 16.4505 3.71768 16.5384 3.77861 16.6071C3.66279 16.6747 3.58105 16.795 3.58105 16.9386C3.58105 17.0673 3.64785 17.176 3.74434 17.2469C3.66387 17.3183 3.61074 17.4194 3.61074 17.5351C3.61074 17.6811 3.69492 17.8039 3.81416 17.8706C3.77812 17.9297 3.75186 17.9949 3.75186 18.0689C3.75186 18.1599 3.78809 18.2399 3.84043 18.3062C3.75371 18.3319 3.70049 18.3521 3.69756 18.3533C3.66494 18.3665 3.63955 18.3932 3.62842 18.4265C3.61719 18.4599 3.62119 18.4965 3.63916 18.5267C3.64863 18.5424 4.59228 20.1269 4.90468 21.6887C4.9124 21.7273 4.94043 21.7522 4.97343 21.7679C5.21338 22.092 7.29238 22.3453 9.82303 22.3453C12.3537 22.3453 14.4326 22.092 14.6726 21.7679C14.7056 21.7521 14.7338 21.7273 14.7414 21.6887C15.0535 20.1281 15.9973 18.5424 16.0069 18.5267C16.025 18.4965 16.029 18.4598 16.0177 18.4264Z" fill="#FFE15A"/>
<path d="M16.0177 18.4264C16.0065 18.3932 15.9812 18.3663 15.9486 18.3532C15.9453 18.3519 15.8776 18.3262 15.769 18.2956C15.8168 18.2309 15.8505 18.1552 15.8505 18.0688C15.8505 17.9948 15.8242 17.9295 15.7882 17.8705C15.9075 17.8038 15.9916 17.681 15.9916 17.535C15.9916 17.4193 15.9385 17.3182 15.858 17.2468C15.9545 17.1759 16.0213 17.067 16.0213 16.9385C16.0213 16.795 15.9396 16.6746 15.8237 16.607C15.8845 16.5383 15.9246 16.4504 15.9246 16.3516C15.9246 16.1796 15.8106 16.0379 15.6555 15.9865C15.6909 15.9279 15.7168 15.863 15.7168 15.7896C15.7168 15.5783 15.5469 15.4075 15.3367 15.4021C15.3454 15.3697 15.3567 15.3382 15.3567 15.303C15.3567 15.0883 15.182 14.9136 14.9672 14.9136C14.9309 14.9136 14.8983 14.925 14.865 14.9343C14.8656 14.9257 14.87 14.9184 14.87 14.9095C14.87 14.6947 14.6953 14.52 14.4805 14.52C14.4067 14.52 14.3417 14.5461 14.2827 14.5818C14.2373 14.4172 14.0926 14.2934 13.9137 14.2934C13.8064 14.2934 13.7092 14.337 13.6387 14.4075C13.5727 14.2858 13.4482 14.2 13.3004 14.2C13.1654 14.2 13.0522 14.2731 12.9823 14.3775C12.9112 14.3019 12.8121 14.2534 12.7004 14.2534C12.5562 14.2534 12.4351 14.3357 12.3679 14.4523C12.2966 14.3725 12.1957 14.3199 12.0804 14.3199C11.9378 14.3199 11.8182 14.4006 11.7504 14.515C11.6841 14.4629 11.6043 14.4268 11.5137 14.4268C11.35 14.4268 11.2108 14.5289 11.1533 14.6724C11.0832 14.6046 10.9886 14.5618 10.8835 14.5618C10.7349 14.5618 10.6098 14.6483 10.5442 14.7709C10.5155 14.7531 10.4862 14.7391 10.4533 14.7292C10.5354 14.6079 10.5834 14.4616 10.5834 14.3044C10.5834 13.9992 10.4015 13.7373 10.1415 13.6163L10.2507 13.3978C10.2676 13.3642 10.2676 13.3241 10.2507 13.2903L10.1192 13.0274C10.1288 13.0187 10.1379 13.0097 10.1466 13.0001L10.4098 13.1315C10.4266 13.1399 10.4449 13.144 10.4633 13.144C10.4816 13.144 10.5 13.1396 10.5168 13.1312L11.1568 12.8112C11.1976 12.7908 11.2232 12.7494 11.2232 12.704C11.2232 12.6586 11.1975 12.6172 11.1568 12.5968L10.5168 12.2768C10.4831 12.2599 10.4432 12.2599 10.4096 12.2768L10.1467 12.4082C10.1379 12.3985 10.1287 12.3894 10.1191 12.3805L10.2506 12.1176C10.2675 12.0839 10.2675 12.0438 10.2506 12.0101L9.93055 11.37C9.88993 11.2888 9.75643 11.2888 9.71581 11.37L9.39579 12.0101C9.37889 12.0437 9.37889 12.0839 9.39579 12.1176L9.52723 12.3805C9.51766 12.3892 9.50858 12.3982 9.49989 12.4078L9.23671 12.2764C9.20302 12.2595 9.16317 12.2598 9.12948 12.2767L8.48944 12.5967C8.44862 12.6171 8.42304 12.6585 8.42304 12.7039C8.42304 12.7493 8.44872 12.7907 8.48944 12.8111L9.12948 13.1311C9.14638 13.1395 9.16464 13.1439 9.183 13.1439C9.20145 13.1439 9.21971 13.1395 9.23651 13.1311L9.4994 12.9997C9.50819 13.0094 9.51737 13.0186 9.52694 13.0274L9.3955 13.2903C9.3786 13.324 9.3786 13.3642 9.3955 13.3978L9.50468 13.6163C9.24462 13.7372 9.06278 13.9992 9.06278 14.3044C9.06278 14.4584 9.10956 14.6014 9.18856 14.7212C9.141 14.7303 9.09794 14.7462 9.05809 14.771C8.99247 14.6484 8.86737 14.5619 8.71884 14.5619C8.61386 14.5619 8.51913 14.6046 8.44901 14.6725C8.39159 14.529 8.25243 14.4268 8.08866 14.4268C7.99794 14.4268 7.91806 14.463 7.85194 14.5151C7.78407 14.4007 7.66444 14.32 7.52196 14.32C7.40663 14.32 7.30575 14.3726 7.23447 14.4524C7.16708 14.3357 7.04609 14.2535 6.90195 14.2535C6.79033 14.2535 6.69111 14.3021 6.62001 14.3776C6.55009 14.2732 6.43681 14.2001 6.30195 14.2001C6.1541 14.2001 6.02968 14.2859 5.96367 14.4076C5.89316 14.3371 5.79589 14.2935 5.68857 14.2935C5.50966 14.2935 5.36494 14.4173 5.31963 14.5819C5.26084 14.5462 5.1956 14.5201 5.12177 14.5201C4.90703 14.5201 4.73232 14.6948 4.73232 14.9096C4.73232 14.9183 4.73672 14.9258 4.7373 14.9344C4.704 14.9251 4.67138 14.9137 4.63515 14.9137C4.42031 14.9137 4.2456 15.0884 4.2456 15.3031C4.2456 15.3383 4.25693 15.3698 4.26562 15.4022C4.05537 15.4076 3.88555 15.5784 3.88555 15.7897C3.88555 15.8631 3.91143 15.928 3.94678 15.9866C3.7917 16.038 3.67773 16.1796 3.67773 16.3517C3.67773 16.4505 3.71768 16.5384 3.77861 16.6071C3.66279 16.6747 3.58105 16.795 3.58105 16.9386C3.58105 17.0673 3.64785 17.176 3.74434 17.2469C3.66387 17.3183 3.61074 17.4194 3.61074 17.5351C3.61074 17.6811 3.69492 17.8039 3.81416 17.8706C3.77812 17.9297 3.75186 17.9949 3.75186 18.0689C3.75186 18.1599 3.78809 18.2399 3.84043 18.3062C3.75371 18.3319 3.70049 18.3521 3.69756 18.3533C3.66494 18.3665 3.63955 18.3932 3.62842 18.4265C3.61719 18.4599 3.62119 18.4965 3.63916 18.5267C3.64863 18.5424 4.59228 20.1269 4.90468 21.6887C4.9124 21.7273 4.94043 21.7522 4.97343 21.7679C5.21338 22.092 7.29238 22.3453 9.82303 22.3453C12.3537 22.3453 14.4326 22.092 14.6726 21.7679C14.7056 21.7521 14.7338 21.7273 14.7414 21.6887C15.0535 20.1281 15.9973 18.5424 16.0069 18.5267C16.025 18.4965 16.029 18.4598 16.0177 18.4264ZM12.625 17.6533V15.7751C12.7772 15.7619 12.9253 15.7577 13.0677 15.7627V17.7139C12.9352 17.6499 12.7857 17.6312 12.625 17.6533ZM11.2435 15.0951C11.2469 15.0983 11.2515 15.0997 11.255 15.1028C11.2499 15.1039 11.2448 15.105 11.2396 15.1061C11.2413 15.1024 11.2422 15.0987 11.2435 15.0951ZM15.4609 17.9194C15.5432 17.9194 15.6102 17.9863 15.6102 18.0687C15.6102 18.1513 15.5432 18.2181 15.4609 18.2181C15.3786 18.2181 15.3116 18.1512 15.3116 18.0687C15.3116 17.9863 15.3786 17.9194 15.4609 17.9194ZM15.6018 17.6844C15.5195 17.6844 15.4525 17.6175 15.4525 17.535C15.4525 17.4525 15.5195 17.3857 15.6018 17.3857C15.6844 17.3857 15.7514 17.4526 15.7514 17.535C15.7514 17.6176 15.6844 17.6844 15.6018 17.6844ZM15.4824 16.9384C15.4824 16.8558 15.5494 16.7891 15.6317 16.7891C15.714 16.7891 15.781 16.8559 15.781 16.9384C15.781 17.0209 15.714 17.0877 15.6317 17.0877C15.5494 17.0877 15.4824 17.0209 15.4824 16.9384ZM11.0194 18.4264C10.8761 17.8813 10.69 17.0609 10.6115 16.2408C10.694 16.2119 10.8358 16.1645 11.0194 16.109V18.4264ZM9.01884 16.2506C8.93436 17.1233 8.72821 17.9975 8.583 18.5357V16.1088C8.78886 16.1711 8.94325 16.2237 9.01884 16.2506ZM9.97255 15.2644C9.97255 15.347 9.90555 15.4138 9.82323 15.4138C9.74091 15.4138 9.67391 15.3469 9.67391 15.2644C9.67391 15.1819 9.74091 15.1151 9.82323 15.1151C9.90555 15.1149 9.97255 15.1819 9.97255 15.2644ZM8.35897 15.0959L8.358 15.0957C8.358 15.0957 8.35858 15.0954 8.35878 15.0951C8.35888 15.0954 8.35888 15.0957 8.35897 15.0959ZM3.9706 16.7891C4.05293 16.7891 4.11992 16.8559 4.11992 16.9384C4.11992 17.0209 4.05293 17.0877 3.9706 17.0877C3.88828 17.0877 3.82129 17.0208 3.82129 16.9384C3.82119 16.8558 3.88828 16.7891 3.9706 16.7891ZM4.1498 17.535C4.1498 17.6176 4.08281 17.6844 4.00049 17.6844C3.91797 17.6844 3.85088 17.6175 3.85088 17.535C3.85088 17.4525 3.91787 17.3857 4.00049 17.3857C4.08281 17.3856 4.1498 17.4524 4.1498 17.535ZM4.14141 17.9194C4.22373 17.9194 4.29072 17.9863 4.29072 18.0687C4.29072 18.1513 4.22373 18.2181 4.14141 18.2181C4.05908 18.2181 3.99209 18.1512 3.99209 18.0687C3.99199 17.9863 4.05908 17.9194 4.14141 17.9194ZM4.75771 15.8974C4.99267 15.5173 5.45127 15.0643 6.30263 15.0643C7.13388 15.0643 8.30673 15.3184 9.0579 15.5051C9.05819 15.668 9.05077 15.835 9.03925 16.0029C8.52675 15.8245 6.48837 15.1721 5.62138 15.7654C4.64023 16.4383 4.95029 17.7218 5.13359 18.2533C4.97754 18.211 4.81972 18.1919 4.66865 18.1889C4.31426 17.4778 4.3498 16.5574 4.75771 15.8974ZM5.43379 18.3697C5.34941 18.1735 4.80986 16.8165 5.61191 16.0826V18.4769C5.55429 18.4357 5.49453 18.4009 5.43379 18.3697ZM5.85195 15.9136C5.97871 15.8478 6.12812 15.8053 6.29462 15.7826V17.9183C6.0539 18.1624 5.94687 18.4982 5.8997 18.7508C5.88447 18.7316 5.86767 18.7162 5.85185 18.6983V15.9136H5.85195ZM6.53476 15.7625C6.67714 15.7575 6.82519 15.7617 6.97743 15.7749V17.6512C6.95126 17.6488 6.92392 17.6421 6.89833 17.6421C6.78036 17.6421 6.66962 17.6668 6.56904 17.7174C6.55663 17.7235 6.54658 17.7319 6.53466 17.7385V15.7624H6.53476V15.7625ZM7.21747 15.8007C7.3662 15.8204 7.51464 15.8463 7.66015 15.8754V17.9298C7.5078 17.8247 7.35956 17.7487 7.21747 17.7023V15.8007ZM7.90028 15.9269C8.05761 15.9632 8.20614 16.0012 8.34296 16.0393V18.5796C8.21064 18.4121 8.05819 18.2537 7.90028 18.1159V15.9269ZM9.29686 15.5657C9.47733 15.6126 9.61971 15.6516 9.70321 15.6751V17.7106C9.37792 17.7435 9.12938 17.9097 8.93974 18.1139C9.10868 17.4101 9.29061 16.4498 9.29686 15.5657ZM9.94315 15.6751C10.0245 15.6522 10.161 15.6147 10.3347 15.5696C10.3413 16.4447 10.5197 17.3935 10.6871 18.0946C10.4998 17.8997 10.2578 17.7426 9.94325 17.7108V15.6752H9.94315V15.6751ZM11.2595 16.0395C11.3964 16.0015 11.5448 15.9634 11.7021 15.9271V18.1348C11.7021 18.1403 11.7046 18.1452 11.7054 18.1507C11.5437 18.2967 11.3907 18.4641 11.2595 18.6379V16.0395ZM11.9422 15.8756C12.0878 15.8465 12.2361 15.8206 12.3848 15.8009V17.7136C12.2425 17.7658 12.0939 17.8487 11.9422 17.9584V15.8756ZM13.3077 15.7828C13.4743 15.8055 13.6236 15.8478 13.7504 15.9137V18.725C13.7504 18.7312 13.7529 18.7367 13.7539 18.7427C13.7515 18.7457 13.7488 18.7479 13.7465 18.7509C13.6967 18.4841 13.5781 18.1261 13.3077 17.8799V15.7828ZM13.9904 16.0828C14.8497 16.8695 14.1652 18.3782 14.1578 18.3942C14.157 18.3959 14.1572 18.3975 14.1566 18.3992C14.0996 18.4316 14.0444 18.4697 13.9904 18.5116V16.0828ZM13.9808 15.7654C13.131 15.1834 11.1514 15.8006 10.5913 15.9932C10.5803 15.8298 10.5731 15.6675 10.5734 15.5089C11.3238 15.3217 12.5068 15.0643 13.3435 15.0643C14.1949 15.0643 14.6536 15.5173 14.8885 15.8974C15.2964 16.5575 15.332 17.4778 14.9776 18.189C14.8106 18.1923 14.6356 18.2158 14.4637 18.2681C14.6463 17.7455 14.9709 16.4443 13.9808 15.7654ZM15.535 16.5009C15.4527 16.5009 15.3857 16.434 15.3857 16.3516C15.3857 16.269 15.4527 16.2022 15.535 16.2022C15.6176 16.2022 15.6846 16.2691 15.6846 16.3516C15.6846 16.434 15.6175 16.5009 15.535 16.5009ZM15.4767 15.7894C15.4767 15.872 15.4097 15.9392 15.3271 15.9392C15.2448 15.9392 15.1778 15.8719 15.1778 15.7894C15.1778 15.7069 15.2448 15.6401 15.3271 15.6401C15.4097 15.6401 15.4767 15.7069 15.4767 15.7894ZM15.1168 15.3028C15.1168 15.3853 15.0498 15.4521 14.9672 15.4521C14.8848 15.4521 14.8178 15.3852 14.8178 15.3028C14.8178 15.2203 14.8848 15.1535 14.9672 15.1535C15.0496 15.1534 15.1168 15.2204 15.1168 15.3028ZM14.4805 14.76C14.5629 14.76 14.6299 14.8268 14.6299 14.9093C14.6299 14.9918 14.5629 15.059 14.4805 15.059C14.398 15.059 14.3309 14.9917 14.3309 14.9093C14.3309 14.8268 14.398 14.76 14.4805 14.76ZM13.9137 14.5333C13.9961 14.5333 14.0631 14.6002 14.0631 14.6826C14.0631 14.7651 13.9961 14.8319 13.9137 14.8319C13.8314 14.8319 13.7644 14.765 13.7644 14.6826C13.7643 14.6002 13.8314 14.5333 13.9137 14.5333ZM13.3004 14.4398C13.3827 14.4398 13.4497 14.5067 13.4497 14.5892C13.4497 14.6717 13.3827 14.7389 13.3004 14.7389C13.2179 14.7389 13.1508 14.6716 13.1508 14.5892C13.1508 14.5068 13.2179 14.4398 13.3004 14.4398ZM12.7003 14.4934C12.7826 14.4934 12.8496 14.5602 12.8496 14.6427C12.8496 14.7251 12.7826 14.792 12.7003 14.792C12.6178 14.792 12.5507 14.7251 12.5507 14.6427C12.5507 14.5602 12.6178 14.4934 12.7003 14.4934ZM12.0803 14.56C12.1626 14.56 12.2296 14.6268 12.2296 14.7093C12.2296 14.7918 12.1626 14.859 12.0803 14.859C11.9977 14.859 11.9306 14.7917 11.9306 14.7093C11.9306 14.6268 11.9976 14.56 12.0803 14.56ZM11.5134 14.6668C11.5957 14.6668 11.6627 14.7337 11.6627 14.8161C11.6627 14.8985 11.5957 14.9654 11.5134 14.9654C11.431 14.9654 11.364 14.8985 11.364 14.8161C11.364 14.7337 11.431 14.6668 11.5134 14.6668ZM10.8834 14.8018C10.9657 14.8018 11.0327 14.8687 11.0327 14.9512C11.0327 15.0336 10.9657 15.1005 10.8834 15.1005C10.8011 15.1005 10.7341 15.0336 10.7341 14.9512C10.7341 14.8687 10.8009 14.8018 10.8834 14.8018ZM10.3432 15.2456C10.2609 15.2456 10.1939 15.1787 10.1939 15.0963C10.1939 15.0138 10.2609 14.947 10.3432 14.947C10.4256 14.947 10.4926 15.0139 10.4926 15.0963C10.4926 15.1788 10.4256 15.2456 10.3432 15.2456ZM9.62313 12.704C9.62313 12.5936 9.71278 12.504 9.82313 12.504C9.93348 12.504 10.0231 12.5936 10.0231 12.704C10.0231 12.8144 9.93348 12.904 9.82313 12.904C9.71288 12.9041 9.62313 12.8144 9.62313 12.704ZM10.4632 12.5181L10.8349 12.7041L10.4632 12.8901L10.2549 12.7859C10.2599 12.7593 10.2632 12.7321 10.2632 12.7041C10.2632 12.6761 10.2599 12.6488 10.2549 12.6222L10.4632 12.5181ZM9.63729 12.0639L9.82303 11.6922L10.0088 12.0639L9.90458 12.2722C9.87811 12.2671 9.85087 12.2639 9.82294 12.2639C9.79491 12.2639 9.76776 12.2671 9.7413 12.2722L9.63729 12.0639ZM9.183 12.8899L8.81122 12.7039L9.183 12.5179L9.3913 12.6221C9.38622 12.6487 9.383 12.6759 9.383 12.7039C9.383 12.7319 9.38622 12.7592 9.3913 12.7858L9.183 12.8899ZM9.63729 13.344L9.74149 13.1357C9.76796 13.1408 9.7952 13.144 9.82313 13.144C9.85106 13.144 9.87831 13.1408 9.90477 13.1357L10.009 13.344L9.90487 13.5523C9.87772 13.5494 9.85116 13.544 9.82323 13.544C9.7952 13.544 9.76874 13.5493 9.74159 13.5523L9.63729 13.344ZM9.82313 13.7842C10.1098 13.7842 10.3432 14.0174 10.3432 14.3042C10.3432 14.5911 10.1098 14.8242 9.82313 14.8242C9.53641 14.8242 9.30311 14.591 9.30311 14.3042C9.30311 14.0174 9.53632 13.7842 9.82313 13.7842ZM9.25917 14.9469C9.34149 14.9469 9.40848 15.0138 9.40848 15.0962C9.40848 15.1787 9.34149 15.2455 9.25917 15.2455C9.17684 15.2455 9.10985 15.1786 9.10985 15.0962C9.10975 15.0137 9.17675 14.9469 9.25917 14.9469ZM8.71913 14.8018C8.80145 14.8018 8.86845 14.8687 8.86845 14.9512C8.86845 15.0336 8.80145 15.1005 8.71913 15.1005C8.63681 15.1005 8.56981 15.0336 8.56981 14.9512C8.56981 14.8687 8.63671 14.8018 8.71913 14.8018ZM8.08896 14.6668C8.17128 14.6668 8.23827 14.7337 8.23827 14.8161C8.23827 14.8985 8.17128 14.9654 8.08896 14.9654C8.00663 14.9654 7.93964 14.8985 7.93964 14.8161C7.93964 14.7337 8.00663 14.6668 8.08896 14.6668ZM7.52226 14.56C7.60478 14.56 7.67187 14.6268 7.67187 14.7093C7.67187 14.7918 7.60487 14.859 7.52226 14.859C7.43993 14.859 7.37294 14.7917 7.37294 14.7093C7.37275 14.6268 7.43984 14.56 7.52226 14.56ZM6.90214 14.4934C6.98466 14.4934 7.05175 14.5602 7.05175 14.6427C7.05175 14.7251 6.98476 14.792 6.90214 14.792C6.81982 14.792 6.75283 14.7251 6.75283 14.6427C6.75283 14.5602 6.81982 14.4934 6.90214 14.4934ZM6.30195 14.4398C6.38447 14.4398 6.45156 14.5067 6.45156 14.5892C6.45156 14.6717 6.38456 14.7389 6.30195 14.7389C6.21962 14.7389 6.15263 14.6716 6.15263 14.5892C6.15263 14.5068 6.21962 14.4398 6.30195 14.4398ZM5.68867 14.5333C5.77099 14.5333 5.83798 14.6002 5.83798 14.6826C5.83798 14.7651 5.77099 14.8319 5.68867 14.8319C5.60634 14.8319 5.53935 14.765 5.53935 14.6826C5.53925 14.6002 5.60634 14.5333 5.68867 14.5333ZM5.12187 14.76C5.20439 14.76 5.27148 14.8268 5.27148 14.9093C5.27148 14.9918 5.20449 15.059 5.12187 15.059C5.03955 15.059 4.97256 14.9917 4.97256 14.9093C4.97246 14.8268 5.03945 14.76 5.12187 14.76ZM4.63525 15.1534C4.71758 15.1534 4.78457 15.2203 4.78457 15.3027C4.78457 15.3852 4.71758 15.452 4.63525 15.452C4.55273 15.452 4.48564 15.3851 4.48564 15.3027C4.48574 15.2204 4.55273 15.1534 4.63525 15.1534ZM4.27519 15.6401C4.35752 15.6401 4.42451 15.707 4.42451 15.7894C4.42451 15.872 4.35752 15.9392 4.27519 15.9392C4.19267 15.9392 4.12558 15.8719 4.12558 15.7894C4.12558 15.7069 4.19277 15.6401 4.27519 15.6401ZM4.06728 16.202C4.14961 16.202 4.2166 16.2689 4.2166 16.3514C4.2166 16.4339 4.14961 16.5007 4.06728 16.5007C3.98476 16.5007 3.91768 16.4338 3.91768 16.3514C3.91787 16.2688 3.98486 16.202 4.06728 16.202ZM14.5284 21.5408C13.975 21.2671 12.0811 21.0651 9.82323 21.0651C7.56532 21.0651 5.67138 21.2671 5.11797 21.5408C4.83174 20.2157 4.14736 18.9337 3.91924 18.5307C4.29932 18.4141 5.3874 18.1829 5.87529 19.1587C5.90029 19.2084 5.95644 19.2347 6.01025 19.2219C6.06445 19.2091 6.10283 19.1606 6.10283 19.105C6.10283 19.0963 6.10937 18.2157 6.67656 17.932C7.23818 17.6526 8.14677 18.5802 8.43583 19.1588C8.43583 19.1588 8.43612 19.159 8.43612 19.1592C8.4456 19.178 8.46142 19.1926 8.47968 19.2043C8.48349 19.2066 8.487 19.2088 8.4911 19.2106C8.49628 19.2132 8.50038 19.2172 8.50604 19.219C8.51845 19.2231 8.53095 19.225 8.54315 19.225C8.5454 19.225 8.54726 19.223 8.5495 19.2229C8.55185 19.2229 8.5537 19.2244 8.55614 19.2243C8.56747 19.223 8.57577 19.2153 8.58593 19.2111C8.59667 19.2068 8.60751 19.2048 8.61659 19.1976C8.62772 19.189 8.63358 19.1764 8.6412 19.1641C8.64618 19.156 8.65448 19.1513 8.65761 19.1419C8.66112 19.1308 8.67606 19.0843 8.69813 19.0116C8.80302 18.7084 9.13534 17.9449 9.82352 17.9449C10.4076 17.9449 10.7352 18.495 10.8853 18.847C10.9343 19.016 10.9687 19.1243 10.9745 19.1419C10.9911 19.1929 11.0381 19.225 11.0888 19.225C11.101 19.225 11.1135 19.2231 11.1259 19.219C11.128 19.2182 11.1296 19.2166 11.1317 19.2158C11.1651 19.2073 11.1953 19.1906 11.2112 19.1588C11.5005 18.5799 12.4098 17.6545 12.9705 17.932C13.0082 17.9509 13.043 17.9727 13.0759 17.9965C13.1084 18.0239 13.1304 18.0442 13.1675 18.074C13.5371 18.4348 13.5442 19.0973 13.5442 19.105C13.5443 19.1605 13.5827 19.2091 13.6368 19.2219C13.6913 19.2344 13.7469 19.2084 13.7718 19.1587C14.2587 18.185 15.3469 18.4148 15.7277 18.5311C15.4988 18.9344 14.8146 20.2161 14.5284 21.5408Z" fill="#464655"/>
<path d="M10.2972 18.9026C10.2817 18.9154 10.2666 18.929 10.2515 18.9431C10.1351 19.0526 9.94362 18.9666 9.94362 18.8066V18.7851C9.94362 18.7187 9.88981 18.665 9.8236 18.665C9.75739 18.665 9.70358 18.7188 9.70358 18.7851V18.8066C9.70358 18.9666 9.51218 19.0526 9.39567 18.9431C9.38083 18.9291 9.3655 18.9156 9.34997 18.9026C9.29899 18.8607 9.22321 18.867 9.18102 18.9186C9.13864 18.9695 9.14567 19.0452 9.19675 19.0876C9.52468 19.3592 9.70339 20.0015 9.70339 20.2553V20.3853C9.70339 20.4517 9.75719 20.5054 9.82341 20.5054C9.88962 20.5054 9.94342 20.4516 9.94342 20.3853V20.2553C9.94342 20.0015 10.1222 19.3593 10.4501 19.0876C10.5011 19.0451 10.5082 18.9695 10.4658 18.9186C10.4239 18.8675 10.3482 18.8608 10.2972 18.9026Z" fill="#464655"/>
<path d="M13.0185 19.4064C13.0043 19.4053 12.9903 19.4049 12.9762 19.4053C12.8638 19.413 12.754 19.2534 12.8085 19.1296C12.8107 19.1244 12.8131 19.1192 12.8154 19.1139C12.8364 19.066 12.8204 18.9877 12.7804 18.9368C12.7404 18.8861 12.6886 18.8888 12.6638 18.9451C12.6612 18.9511 12.6585 18.957 12.6558 18.9631C12.5991 19.0918 12.4359 19.0534 12.4103 18.8642C12.407 18.8399 12.4037 18.8152 12.3999 18.7906C12.3873 18.7106 12.3413 18.6551 12.2923 18.6773C12.2436 18.6986 12.2107 18.7883 12.2224 18.8696C12.2918 19.4061 12.2122 19.9719 12.1213 20.1777C12.1054 20.214 12.0893 20.2503 12.0733 20.2867C12.0486 20.3428 12.0802 20.3862 12.1445 20.3815C12.209 20.3766 12.279 20.3324 12.3001 20.2846C12.3141 20.253 12.328 20.2212 12.3419 20.1895C12.428 19.9932 12.7889 19.5579 13.0845 19.5805C13.132 19.5802 13.1523 19.5492 13.1333 19.5028C13.1145 19.4567 13.0644 19.4103 13.0185 19.4064Z" fill="#464655"/>
<path d="M14.799 19.7801C14.7873 19.7801 14.7757 19.7808 14.7639 19.7822C14.6695 19.7979 14.5896 19.6515 14.644 19.5277C14.6463 19.5225 14.6486 19.5172 14.651 19.512C14.672 19.4641 14.6644 19.3894 14.6347 19.3432C14.6051 19.297 14.5616 19.3034 14.5368 19.3597C14.5343 19.3658 14.5315 19.3716 14.5288 19.3777C14.4722 19.5064 14.3389 19.481 14.3312 19.2999C14.3303 19.2765 14.3292 19.2529 14.3279 19.2294C14.3233 19.1529 14.289 19.1025 14.2464 19.1276C14.2041 19.1518 14.1702 19.2411 14.1741 19.3188C14.1929 19.8332 14.0853 20.3866 13.9943 20.5923C13.9784 20.6287 13.9623 20.665 13.9464 20.7014C13.9217 20.7575 13.9449 20.7971 13.9989 20.7879C14.0531 20.7785 14.1147 20.7306 14.1357 20.6828C14.1497 20.6511 14.1637 20.6194 14.1775 20.5877C14.2637 20.3914 14.5965 19.9438 14.8414 19.9441C14.8812 19.9403 14.9002 19.9089 14.8879 19.8653C14.8756 19.8218 14.8371 19.7804 14.799 19.7801Z" fill="#464655"/>
<path d="M7.52463 20.1782C7.43371 19.9725 7.35412 19.4066 7.42355 18.8701C7.43527 18.7889 7.40236 18.6993 7.35363 18.6778C7.30461 18.6556 7.25852 18.7111 7.24602 18.791C7.24221 18.8157 7.23889 18.8402 7.23566 18.8647C7.20988 19.0538 7.0468 19.0921 6.99016 18.9636C6.98742 18.9576 6.98488 18.9515 6.98215 18.9455C6.95734 18.8892 6.90568 18.8866 6.86555 18.9373C6.82561 18.9882 6.80949 19.0664 6.83049 19.1144C6.83273 19.1197 6.83508 19.1249 6.83742 19.1301C6.89191 19.2539 6.78205 19.4135 6.66975 19.4058C6.65559 19.4054 6.64162 19.4058 6.62746 19.4069C6.58156 19.4108 6.53137 19.4571 6.51242 19.5034C6.49348 19.5498 6.51369 19.5807 6.56125 19.5811C6.85686 19.5584 7.2177 19.9937 7.30383 20.1901C7.3177 20.2217 7.33176 20.2534 7.34563 20.2852C7.36662 20.333 7.43664 20.3772 7.50119 20.3821C7.56564 20.3868 7.59709 20.3435 7.57238 20.2873C7.55656 20.2508 7.54064 20.2145 7.52463 20.1782Z" fill="#464655"/>
<path d="M5.65129 20.5919C5.56047 20.3862 5.45276 19.8327 5.47151 19.3183C5.47541 19.2406 5.44133 19.1514 5.39924 19.1271C5.35666 19.102 5.32229 19.1524 5.3177 19.2289C5.31633 19.2524 5.31535 19.2759 5.31448 19.2994C5.30686 19.4805 5.17356 19.5058 5.11682 19.3772C5.11409 19.3712 5.11155 19.3651 5.10881 19.3592C5.08401 19.3029 5.04065 19.2965 5.01096 19.3427C4.98137 19.3889 4.97356 19.4636 4.99465 19.5115C4.9969 19.5168 4.99924 19.522 5.00159 19.5272C5.05608 19.651 4.976 19.7974 4.88176 19.7817C4.86995 19.7803 4.85823 19.7796 4.84661 19.7796C4.80852 19.7799 4.77014 19.8213 4.75764 19.8647C4.74524 19.9083 4.76448 19.9397 4.80413 19.9435C5.04905 19.9432 5.38196 20.3907 5.46799 20.5871C5.48186 20.6187 5.49592 20.6504 5.50979 20.6822C5.53078 20.73 5.5925 20.7779 5.6466 20.7874C5.70071 20.7966 5.72385 20.757 5.69914 20.7008C5.68332 20.6646 5.66731 20.6282 5.65129 20.5919Z" fill="#464655"/>
</g>
<defs>
<clipPath id="clip0_106_18722">
<rect width="50" height="50" fill="white"/>
</clipPath>
</defs>
</svg>
