<svg width="50" height="50" viewBox="0 0 50 50" fill="none" xmlns="http://www.w3.org/2000/svg">
<g clip-path="url(#clip0_106_18699)">
<path d="M49.1383 41.3792H0.862596C0.386523 41.3792 0.000488281 40.9932 0.000488281 40.5171V9.48271C0.000488281 9.00664 0.386523 8.62061 0.862596 8.62061H49.1384C49.6145 8.62061 50.0005 9.00664 50.0005 9.48271V40.5171C50.0004 40.9933 49.6144 41.3792 49.1383 41.3792Z" fill="#5AA587"/>
<path d="M27.0634 29.454C28.0299 29.685 29.0615 29.703 30.0933 29.4469C31.9109 28.9956 33.3485 27.8105 34.184 26.289C32.7338 25.3349 30.9088 24.96 29.0912 25.4112C28.1141 25.6539 27.2569 26.1191 26.5343 26.7247C26.5411 26.7156 26.5468 26.7067 26.5536 26.6976C29.2301 24.2841 32.2181 25.0633 32.2181 25.0633L32.925 24.4593C32.925 24.4593 29.9112 23.418 27.2115 25.6511C28.8823 22.4163 27.0794 19.6415 27.0794 19.6415L26.6636 20.473C26.6636 20.473 28.1629 23.2225 26.4088 26.4304C26.4068 26.4327 26.4047 26.4352 26.4027 26.4376C26.8301 25.579 27.0794 24.6165 27.0794 23.5916C27.0794 21.7188 26.2758 20.0379 25.0003 18.8604C23.7249 20.0379 22.9212 21.7188 22.9212 23.5916C22.9212 24.6166 23.1704 25.579 23.598 26.4376C23.5959 26.4352 23.5939 26.4326 23.5918 26.4304C21.8377 23.2225 23.337 20.473 23.337 20.473L22.9212 19.6415C22.9212 19.6415 21.1184 22.4163 22.7891 25.6511C20.0895 23.4181 17.0756 24.4593 17.0756 24.4593L17.7826 25.0633C17.7826 25.0633 20.7704 24.284 23.447 26.6976C23.4538 26.7067 23.4595 26.7156 23.4663 26.7247C22.7439 26.1191 21.8866 25.6539 20.9094 25.4112C19.0918 24.96 17.2668 25.3349 15.8167 26.289C16.6521 27.8105 18.0898 28.9955 19.9075 29.4469C20.9391 29.703 21.9708 29.685 22.9373 29.454C19.3363 30.4608 16.981 28.2918 16.981 28.2918L16.0737 28.4949C16.0737 28.4949 19.7132 32.3976 25.0003 28.5691C30.2874 32.3975 33.927 28.4949 33.927 28.4949L33.0196 28.2918C33.0198 28.2918 30.6645 30.4607 27.0634 29.454Z" fill="#F5F5F5"/>
<path d="M19.7468 33.9463C20.1226 34.1796 20.5155 34.3875 20.9222 34.57H29.0803C29.4872 34.3875 29.88 34.1796 30.2557 33.9463H19.7468Z" fill="#F5F5F5"/>
<path d="M21.6531 34.8647C22.6999 35.2376 23.8264 35.4421 25.0012 35.4421C26.176 35.4421 27.3026 35.2375 28.3494 34.8647H21.6531Z" fill="#F5F5F5"/>
<path d="M17.5344 32.0811C17.6604 32.2229 17.7892 32.3623 17.9229 32.4969H32.0791C32.2128 32.3623 32.3416 32.223 32.4676 32.0811H17.5344Z" fill="#F5F5F5"/>
<path d="M18.4473 32.9849C18.6556 33.1665 18.8705 33.3405 19.0936 33.5046H30.9092C31.1321 33.3404 31.3472 33.1664 31.5554 32.9849H18.4473Z" fill="#F5F5F5"/>
<path d="M29.159 30.9723C26.8302 30.9723 25.2369 29.4158 25.2209 29.4L25.0002 29.1807L24.7803 29.4004C24.7645 29.4162 23.1814 30.9723 20.8427 30.9723H16.6809C16.8229 31.1864 16.9739 31.3939 17.1317 31.596H20.8429C22.9349 31.596 24.4537 30.5017 25.001 30.0404C25.5482 30.5018 27.067 31.596 29.1591 31.596H32.8703C33.028 31.3939 33.179 31.1864 33.3211 30.9723H29.159Z" fill="#F5F5F5"/>
<path d="M24.8918 14.6368L24.5269 15.7309L23.3737 15.7399C23.2631 15.7407 23.2172 15.8819 23.3062 15.9475L24.234 16.6326L23.8862 17.7322C23.8528 17.8377 23.9729 17.9249 24.0629 17.8606L25.0012 17.19L25.9395 17.8606C26.0294 17.9249 26.1496 17.8376 26.1163 17.7322L25.7684 16.6326L26.6962 15.9475C26.7852 15.8818 26.7393 15.7406 26.6288 15.7399L25.4755 15.7309L25.1107 14.6368C25.0751 14.5319 24.9267 14.5319 24.8918 14.6368Z" fill="#FFE15A"/>
<path d="M19.4338 16.8763L19.645 17.6433L18.9877 18.0914C18.9246 18.1344 18.9526 18.2329 19.0289 18.2363L19.8237 18.2726L20.0468 19.0362C20.0683 19.1095 20.1705 19.1133 20.1974 19.0419L20.4774 18.2972L21.2726 18.321C21.3488 18.3233 21.3841 18.2272 21.3245 18.1796L20.7027 17.6831L20.9712 16.9342C20.997 16.8623 20.9164 16.7991 20.8527 16.8411L20.1885 17.279L19.5592 16.7923C19.4985 16.7456 19.4135 16.8028 19.4338 16.8763Z" fill="#FFE15A"/>
<path d="M16.2519 20.7394L16.8272 21.289L16.4935 22.0112C16.4614 22.0805 16.536 22.1506 16.6031 22.1144L17.3035 21.7371L17.8872 22.2778C17.9432 22.3296 18.0329 22.2803 18.0193 22.2053L17.877 21.4226L18.5715 21.0344C18.6381 20.9972 18.619 20.8966 18.5434 20.8865L17.7549 20.78L17.6004 19.9995C17.5856 19.9246 17.484 19.9118 17.451 19.9806L17.1061 20.6975L16.3161 20.6032C16.2403 20.5941 16.1967 20.6867 16.2519 20.7394Z" fill="#FFE15A"/>
<path d="M30.7489 16.8763L30.5376 17.6433L31.1949 18.0914C31.258 18.1344 31.2301 18.2329 31.1537 18.2363L30.3589 18.2726L30.1359 19.0362C30.1144 19.1095 30.0121 19.1133 29.9853 19.0419L29.7053 18.2972L28.9101 18.321C28.8338 18.3233 28.7986 18.2272 28.8581 18.1796L29.4799 17.6831L29.2115 16.9342C29.1857 16.8623 29.2662 16.7991 29.3299 16.8411L29.9942 17.279L30.6235 16.7923C30.6841 16.7456 30.7691 16.8028 30.7489 16.8763Z" fill="#FFE15A"/>
<path d="M33.9307 20.7394L33.3554 21.289L33.6891 22.0112C33.7211 22.0805 33.6465 22.1506 33.5794 22.1144L32.879 21.7371L32.2953 22.2778C32.2394 22.3296 32.1496 22.2803 32.1632 22.2053L32.3056 21.4226L31.6111 21.0344C31.5445 20.9972 31.5635 20.8966 31.6392 20.8865L32.4277 20.78L32.5821 19.9995C32.5969 19.9246 32.6986 19.9118 32.7316 19.9806L33.0765 20.6975L33.8664 20.6032C33.9422 20.5941 33.9859 20.6867 33.9307 20.7394Z" fill="#FFE15A"/>
</g>
<defs>
<clipPath id="clip0_106_18699">
<rect width="50" height="50" fill="white"/>
</clipPath>
</defs>
</svg>
