<svg width="50" height="50" viewBox="0 0 50 50" fill="none" xmlns="http://www.w3.org/2000/svg">
<g clip-path="url(#clip0_106_18689)">
<path d="M33.3337 8.62061H49.1383C49.6144 8.62061 50.0004 9.00664 50.0004 9.48271V40.5172C50.0004 40.9933 49.6144 41.3793 49.1383 41.3793H33.3337V8.62061Z" fill="#41479B"/>
<path d="M33.3345 8.62109H16.6675V41.3799H33.3345V8.62109Z" fill="#FFE15A"/>
<path d="M0.862598 8.62061H16.6672V41.3792H0.862598C0.386524 41.3792 0.000488281 40.9932 0.000488281 40.5171V9.48262C0.000488281 9.00654 0.386524 8.62061 0.862598 8.62061Z" fill="#41479B"/>
<path d="M29.3109 22.8446H27.1557V20.6895L28.4488 18.9653H27.1557H22.8454H21.5523L22.8454 20.6895V22.8446H20.6902L18.9661 21.5516V22.8446V27.155V28.448L20.6902 27.155H22.8454V29.3102L21.5523 31.0343H22.8454H27.1557H28.4488L27.1557 29.3102V27.155H29.3109L31.035 28.448V27.155V22.8446V21.5516L29.3109 22.8446Z" fill="#FF4B55"/>
<path d="M29.3109 24.1377H25.8626V20.6895H24.1384V24.1377H20.6902V25.8619H24.1384V29.3102H25.8626V25.8619H29.3109V24.1377Z" fill="#F5F5F5"/>
</g>
<defs>
<clipPath id="clip0_106_18689">
<rect width="50" height="50" fill="white"/>
</clipPath>
</defs>
</svg>
