<svg width="50" height="50" viewBox="0 0 50 50" fill="none" xmlns="http://www.w3.org/2000/svg">
<g clip-path="url(#clip0_106_18641)">
<path d="M0.000976562 30.46H50.0009V40.5174C50.0009 40.9934 49.6148 41.3795 49.1388 41.3795H0.863084C0.387011 41.3795 0.000976562 40.9934 0.000976562 40.5174V30.46Z" fill="#73AF00"/>
<path d="M0.863084 8.62061H49.1389C49.6149 8.62061 50.001 9.00664 50.001 9.48271V19.5401H0.000976562V9.48262C0.000976562 9.00654 0.387011 8.62061 0.863084 8.62061Z" fill="#464655"/>
<path d="M50.0014 19.54H0.00146484V30.459H50.0014V19.54Z" fill="#FF4B55"/>
<path d="M31.699 18.5106C30.3535 16.2072 27.8615 14.6553 25.0014 14.6553C22.1412 14.6553 19.6492 16.2072 18.3037 18.5106H31.699Z" fill="#FF4B55"/>
<path d="M25.447 10.9914C25.447 11.3782 25.0016 13.7932 25.0016 13.7932C25.0016 13.7932 24.5562 11.3783 24.5562 10.9914C24.5562 10.6046 24.7556 10.291 25.0016 10.291C25.2476 10.291 25.447 10.6045 25.447 10.9914Z" fill="#FF4B55"/>
<path d="M33.3741 14.644C33.1006 14.9176 31.0781 16.3102 31.0781 16.3102C31.0781 16.3102 32.4708 14.2877 32.7443 14.0142C33.0179 13.7407 33.3807 13.6599 33.5546 13.834C33.7284 14.0077 33.6477 14.3706 33.3741 14.644Z" fill="#FF4B55"/>
<path d="M17.2588 14.0144C17.5323 14.2879 18.925 16.3104 18.925 16.3104C18.925 16.3104 16.9024 14.9177 16.629 14.6441C16.3555 14.3706 16.2747 14.0078 16.4487 13.8339C16.6224 13.66 16.9852 13.7407 17.2588 14.0144Z" fill="#FF4B55"/>
<path d="M21.0525 11.6883C21.2005 12.0457 21.7131 14.4473 21.7131 14.4473C21.7131 14.4473 20.3775 12.3866 20.2295 12.0293C20.0816 11.672 20.1457 11.306 20.373 11.2117C20.6001 11.1175 20.9043 11.3309 21.0525 11.6883Z" fill="#FF4B55"/>
<path d="M29.7736 12.0294C29.6256 12.3868 28.29 14.4473 28.29 14.4473C28.29 14.4473 28.8026 12.0459 28.9507 11.6884C29.0987 11.3309 29.4029 11.1176 29.6302 11.2117C29.8574 11.3058 29.9218 11.6719 29.7736 12.0294Z" fill="#FF4B55"/>
<path d="M23.1732 11.1301C23.2501 11.5092 23.2936 13.9645 23.2936 13.9645C23.2936 13.9645 22.3771 11.6863 22.3001 11.3071C22.2232 10.928 22.3564 10.5811 22.5974 10.5321C22.8386 10.4832 23.0964 10.7509 23.1732 11.1301Z" fill="#FF4B55"/>
<path d="M31.6681 13.1342C31.4544 13.4567 29.749 15.2235 29.749 15.2235C29.749 15.2235 30.7118 12.9646 30.9255 12.6421C31.1392 12.3196 31.4786 12.1684 31.6837 12.3043C31.8888 12.4402 31.8817 12.8117 31.6681 13.1342Z" fill="#FF4B55"/>
<path d="M15.7484 15.7201C16.0709 15.9338 17.8378 17.6391 17.8378 17.6391C17.8378 17.6391 15.5788 16.6763 15.2564 16.4627C14.9339 16.249 14.7826 15.9095 14.9186 15.7045C15.0545 15.4995 15.4261 15.5064 15.7484 15.7201Z" fill="#FF4B55"/>
<path d="M19.0042 12.6869C19.2204 13.0077 20.2001 15.2595 20.2001 15.2595C20.2001 15.2595 18.4816 13.5055 18.2655 13.1847C18.0492 12.8639 18.0395 12.4923 18.2436 12.3549C18.4475 12.2175 18.7881 12.3661 19.0042 12.6869Z" fill="#FF4B55"/>
<path d="M34.701 16.3895C34.3802 16.6057 32.1284 17.5854 32.1284 17.5854C32.1284 17.5854 33.8824 15.8668 34.2032 15.6507C34.524 15.4345 34.8956 15.4247 35.033 15.6288C35.1705 15.8328 35.0218 16.1735 34.701 16.3895Z" fill="#FF4B55"/>
<path d="M27.6198 11.2874C27.5458 11.667 26.6465 13.952 26.6465 13.952C26.6465 13.952 26.6715 11.4965 26.7456 11.1169C26.8197 10.7373 27.0754 10.4675 27.3168 10.5146C27.5583 10.5617 27.6938 10.9077 27.6198 11.2874Z" fill="#FF4B55"/>
<path d="M27.8847 11.3532C27.7723 11.7233 27.4971 14.1636 27.4971 14.1636C27.4971 14.1636 28.6246 11.9822 28.737 11.6119C28.8494 11.2418 28.7496 10.8838 28.5143 10.8123C28.279 10.7408 27.9971 10.9831 27.8847 11.3532Z" fill="#FF4B55"/>
<path d="M19.239 12.5457C19.4213 12.8869 20.9521 14.8069 20.9521 14.8069C20.9521 14.8069 20.207 12.4671 20.0247 12.1259C19.8424 11.7847 19.5188 11.602 19.3018 11.718C19.0847 11.834 19.0566 12.2044 19.239 12.5457Z" fill="#FF4B55"/>
<path d="M34.8423 16.6242C34.5012 16.8065 32.5811 18.3374 32.5811 18.3374C32.5811 18.3374 34.9209 17.5923 35.2621 17.4099C35.6032 17.2276 35.7859 16.904 35.67 16.687C35.5542 16.47 35.1836 16.4419 34.8423 16.6242Z" fill="#FF4B55"/>
<path d="M31.8881 13.2966C31.6426 13.5956 30.4546 15.7446 30.4546 15.7446C30.4546 15.7446 32.3312 14.1608 32.5767 13.8617C32.8222 13.5627 32.867 13.1938 32.6769 13.0377C32.4868 12.8816 32.1336 12.9975 31.8881 13.2966Z" fill="#FF4B55"/>
<path d="M15.9113 15.5003C16.2104 15.7458 18.3594 16.9338 18.3594 16.9338C18.3594 16.9338 16.7756 15.0571 16.4765 14.8117C16.1773 14.5663 15.8086 14.5214 15.6524 14.7115C15.4964 14.9017 15.6122 15.2549 15.9113 15.5003Z" fill="#FF4B55"/>
<path d="M23.4433 11.0897C23.4811 11.4747 24.1607 13.8344 24.1607 13.8344C24.1607 13.8344 24.3677 11.3875 24.3298 11.0025C24.292 10.6174 24.0628 10.3249 23.8181 10.349C23.5733 10.3731 23.4055 10.7046 23.4433 11.0897Z" fill="#FF4B55"/>
<path d="M25.6909 11.0033C25.6524 11.3882 25.8555 13.8354 25.8555 13.8354C25.8555 13.8354 26.5387 11.4768 26.5772 11.0919C26.6157 10.7069 26.4484 10.3751 26.2036 10.3505C25.9589 10.3261 25.7294 10.6184 25.6909 11.0033Z" fill="#FF4B55"/>
<path d="M17.4398 13.8503C17.6848 14.1496 19.5588 15.7364 19.5588 15.7364C19.5588 15.7364 18.3741 13.5855 18.1292 13.2861C17.8842 12.9868 17.5313 12.8704 17.3409 13.0261C17.1505 13.1818 17.1947 13.5509 17.4398 13.8503Z" fill="#FF4B55"/>
<path d="M33.5385 14.825C33.2392 15.07 31.6523 16.944 31.6523 16.944C31.6523 16.944 33.8033 15.7593 34.1026 15.5144C34.4019 15.2695 34.5184 14.9165 34.3627 14.7261C34.2069 14.5358 33.838 14.5799 33.5385 14.825Z" fill="#FF4B55"/>
<path d="M29.9946 12.1338C29.8117 12.4748 29.063 14.8133 29.063 14.8133C29.063 14.8133 30.5968 12.8957 30.7797 12.5548C30.9626 12.2139 30.935 11.8433 30.7183 11.727C30.5015 11.6107 30.1775 11.7928 29.9946 12.1338Z" fill="#FF4B55"/>
<path d="M14.7485 17.3938C15.0895 17.5767 17.428 18.3255 17.428 18.3255C17.428 18.3255 15.5104 16.7917 15.1695 16.6088C14.8286 16.4259 14.458 16.4535 14.3417 16.6703C14.2255 16.887 14.4076 17.2109 14.7485 17.3938Z" fill="#FF4B55"/>
<path d="M21.282 11.6059C21.3938 11.9763 22.5181 14.1594 22.5181 14.1594C22.5181 14.1594 22.2468 11.7188 22.1349 11.3486C22.0232 10.9782 21.7415 10.7357 21.5061 10.8068C21.2706 10.8778 21.1702 11.2356 21.282 11.6059Z" fill="#FF4B55"/>
</g>
<defs>
<clipPath id="clip0_106_18641">
<rect width="50" height="50" fill="white"/>
</clipPath>
</defs>
</svg>
