<svg width="50" height="50" viewBox="0 0 50 50" fill="none" xmlns="http://www.w3.org/2000/svg">
<g clip-path="url(#clip0_106_18637)">
<path d="M49.1388 41.3792H0.863084C0.387011 41.3792 0.000976562 40.9932 0.000976562 40.5171V9.48271C0.000976562 9.00664 0.387011 8.62061 0.863084 8.62061H49.1389C49.6149 8.62061 50.001 9.00664 50.001 9.48271V40.5171C50.0009 40.9933 49.6148 41.3792 49.1388 41.3792Z" fill="#FF4B55"/>
<path d="M43.1042 15.5171V34.4826H6.89746V15.5171H43.1042Z" fill="#73AF00"/>
<path d="M23.2801 25.0024C23.2801 21.7383 25.5034 19.0047 28.5132 18.2129C28.6134 18.1865 28.6061 18.0416 28.5034 18.0284C28.2304 17.9933 27.9526 17.9731 27.6701 17.9731C23.7849 17.9731 20.6396 21.1179 20.6396 25.0024C20.6396 28.8702 23.7849 32.0235 27.6701 32.0235C27.9531 32.0235 28.2311 32.0031 28.5045 31.9679C28.6072 31.9547 28.6143 31.8098 28.5142 31.7835C25.5039 30.9904 23.2801 28.2528 23.2801 25.0024Z" fill="#F5F5F5"/>
</g>
<defs>
<clipPath id="clip0_106_18637">
<rect width="50" height="50" fill="white"/>
</clipPath>
</defs>
</svg>
