<svg width="50" height="50" viewBox="0 0 50 50" fill="none" xmlns="http://www.w3.org/2000/svg">
<g clip-path="url(#clip0_106_18621)">
<path d="M49.1369 8.62061H24.999V41.3792H49.1369C49.613 41.3792 49.999 40.9932 49.999 40.5171V9.48262C49.999 9.00654 49.613 8.62061 49.1369 8.62061Z" fill="#FF4B55"/>
<path d="M0.861133 41.3792H24.999V8.62061H0.861133C0.385059 8.62061 -0.000976562 9.00654 -0.000976562 9.48262V40.5171C-0.000976562 40.9933 0.385059 41.3792 0.861133 41.3792Z" fill="#F5F5F5"/>
<path d="M7.18301 10.6321V12.9388C7.31006 12.9438 7.45176 13.0014 7.56953 13.1191C7.6873 13.2369 7.74512 13.3786 7.7499 13.5057H10.0565V15.8045H7.7498C7.74482 15.9315 7.68721 16.0732 7.56943 16.191C7.45166 16.3088 7.30996 16.3664 7.18291 16.3714V18.678H4.88408V16.3714C4.75703 16.3664 4.61533 16.3088 4.49756 16.191C4.37979 16.0732 4.32217 15.9315 4.31719 15.8045H2.01055V13.5058H4.31719C4.32217 13.3787 4.37979 13.237 4.49756 13.1192C4.61533 13.0015 4.75703 12.9438 4.88408 12.9389V10.6322H7.18301V10.6321ZM7.47021 10.3447H7.18281H4.88398H4.59668V10.6321V12.7125C4.48701 12.7574 4.38408 12.8263 4.29434 12.9159C4.20459 13.0057 4.13584 13.1086 4.09082 13.2183H2.01055H1.72314V13.5057V15.8045V16.0919H2.01055H4.09092C4.13594 16.2016 4.20469 16.3046 4.29443 16.3942C4.38408 16.4839 4.48701 16.5527 4.59668 16.5977V18.678V18.9653H4.88408H7.18291H7.47031V18.6779V16.5976C7.57998 16.5526 7.68291 16.4838 7.77266 16.394C7.8623 16.3044 7.93115 16.2015 7.97607 16.0918H10.0564H10.3438V15.8044V13.5056V13.2182H10.0563H7.97617C7.93125 13.1085 7.8624 13.0056 7.77266 12.9158C7.68301 12.8262 7.58008 12.7573 7.47031 12.7124V10.6321L7.47021 10.3447Z" fill="#FF4B55"/>
<path d="M10.0566 13.5058H7.1832V10.6323H4.88428V13.5058H2.01074V15.8047H4.88428V18.6782H7.1832V15.8047H10.0566V13.5058Z" fill="#CDCDCD"/>
<path d="M6.03467 15.8047C6.66947 15.8047 7.18408 15.2901 7.18408 14.6553C7.18408 14.0205 6.66947 13.5059 6.03467 13.5059C5.39986 13.5059 4.88525 14.0205 4.88525 14.6553C4.88525 15.2901 5.39986 15.8047 6.03467 15.8047Z" fill="#B4A08C"/>
<path d="M5.00481 15.6854C4.8052 15.4858 4.53014 15.4373 4.39045 15.577C4.25075 15.7166 4.29932 15.9917 4.49893 16.1913C4.69854 16.3909 4.9736 16.4395 5.11329 16.2998C5.25299 16.1601 5.20442 15.885 5.00481 15.6854Z" fill="#B4A08C"/>
<path d="M7.57091 16.1904C7.77052 15.9907 7.81909 15.7157 7.6794 15.576C7.5397 15.4363 7.26464 15.4849 7.06504 15.6845C6.86543 15.8841 6.81686 16.1591 6.95655 16.2988C7.09625 16.4385 7.37131 16.39 7.57091 16.1904Z" fill="#B4A08C"/>
<path d="M7.06404 13.6256C7.26364 13.8252 7.5387 13.8738 7.6784 13.7341C7.81809 13.5944 7.76953 13.3193 7.56992 13.1197C7.37031 12.9201 7.09525 12.8715 6.95556 13.0112C6.81586 13.1509 6.86443 13.426 7.06404 13.6256Z" fill="#B4A08C"/>
<path d="M4.49793 13.1192C4.29832 13.3188 4.24976 13.5939 4.38945 13.7336C4.52915 13.8733 4.8042 13.8247 5.00381 13.6251C5.20342 13.4255 5.25199 13.1504 5.11229 13.0107C4.9726 12.871 4.69754 12.9196 4.49793 13.1192Z" fill="#B4A08C"/>
<path d="M6.03447 16.2286C5.1668 16.2286 4.46094 15.5229 4.46094 14.6551C4.46094 13.7872 5.1668 13.0815 6.03447 13.0815C6.90215 13.0815 7.60801 13.7874 7.60801 14.6551C7.60801 15.5228 6.90215 16.2286 6.03447 16.2286ZM6.03447 13.2253C5.24619 13.2253 4.60469 13.8668 4.60469 14.6551C4.60469 15.4434 5.24619 16.0849 6.03447 16.0849C6.82275 16.0849 7.46426 15.4434 7.46426 14.6551C7.46426 13.8668 6.82275 13.2253 6.03447 13.2253Z" fill="#B4A08C"/>
</g>
<defs>
<clipPath id="clip0_106_18621">
<rect width="50" height="50" fill="white"/>
</clipPath>
</defs>
</svg>
