<svg width="50" height="50" viewBox="0 0 50 50" fill="none" xmlns="http://www.w3.org/2000/svg">
<g clip-path="url(#clip0_106_18616)">
<path d="M49.1378 41.3792H0.862108C0.386034 41.3792 0 40.9932 0 40.5171V9.48271C0 9.00664 0.386034 8.62061 0.862108 8.62061H49.1379C49.614 8.62061 50 9.00664 50 9.48271V40.5171C49.9999 40.9933 49.6139 41.3792 49.1378 41.3792Z" fill="#41479B"/>
<path d="M0.388476 41.2186L49.9999 20.6897V14.6553L0 40.5173C0 40.8145 0.159668 41.0635 0.388476 41.2186Z" fill="#F5F5F5"/>
<path d="M49.6735 8.82324L0 39.655V40.5171L49.9999 14.6551V9.48262C49.9999 9.2124 49.868 8.98135 49.6735 8.82324Z" fill="#FF9B55"/>
<path d="M14.2485 20.5244L19.8277 19.8276L14.2485 19.1309L17.0761 17.3967L13.5579 18.2569L15.6991 15.3356L12.7779 17.4768L13.6381 13.9586L11.9039 16.7862L11.2071 11.207L10.5103 16.7862L8.77606 13.9586L9.63631 17.4768L6.71503 15.3356L8.85624 18.2569L5.33798 17.3967L8.16561 19.1309L2.58643 19.8276L8.16561 20.5244L5.33798 22.2587L8.85624 21.3984L6.71503 24.3197L9.63631 22.1785L8.77606 25.6967L10.5103 22.8691L11.2071 28.4483L11.9039 22.8691L13.6381 25.6967L12.7779 22.1785L15.6991 24.3197L13.5579 21.3984L17.0761 22.2587L14.2485 20.5244Z" fill="#F5F5F5"/>
</g>
<defs>
<clipPath id="clip0_106_18616">
<rect width="50" height="50" fill="white"/>
</clipPath>
</defs>
</svg>
