<svg width="50" height="50" viewBox="0 0 50 50" fill="none" xmlns="http://www.w3.org/2000/svg">
<g clip-path="url(#clip0_106_18608)">
<path d="M49.1373 41.3791H0.861619C0.385546 41.3791 -0.000488281 40.9931 -0.000488281 40.517V9.48271C-0.000488281 9.00664 0.385546 8.62061 0.861619 8.62061H49.1374C49.6135 8.62061 49.9995 9.00664 49.9995 9.48271V40.517C49.9994 40.9932 49.6134 41.3791 49.1373 41.3791Z" fill="#41479B"/>
<path d="M49.9994 23.2758H26.7236V8.62061H23.2752V23.2758H-0.000488281V26.724H23.2752V41.3791H26.7236V26.724H49.9994V23.2758Z" fill="#F5F5F5"/>
<path d="M16.8354 19.8355C16.8107 19.6888 16.755 19.5151 16.6847 19.4033C16.545 19.2101 16.3833 19.0749 16.2266 18.9907C14.9923 18.4237 13.959 18.5348 12.973 18.5309C11.9991 18.556 11.088 18.724 10.3483 18.8859C10.1475 18.9263 9.9736 18.9565 9.78757 18.9915C9.87956 18.8014 10.2168 18.5636 10.6709 18.4195C11.7779 18.0414 13.0416 17.8895 14.2836 17.6475C14.5972 17.5861 14.9152 17.5141 15.2408 17.4216C15.4161 17.3615 15.5636 17.3146 15.7701 17.2187C15.9025 17.1438 16.0329 17.0496 16.1444 16.9489C16.2631 16.8421 16.2541 16.8122 16.3152 16.7401C16.5972 16.2033 16.3302 15.8211 16.1064 15.6215C15.8907 15.4444 15.7089 15.3753 15.536 15.3041C15.2003 15.1863 14.8892 15.1125 14.589 15.0499C14.0106 14.9342 13.442 14.8204 12.8852 14.709C12.6208 14.6477 12.365 14.5798 12.1406 14.4973C11.9424 14.4445 11.6625 14.2487 11.7041 14.3021C11.1924 14.258 12.4047 13.6874 13.2789 13.3686C13.5112 13.2661 13.7421 13.1626 13.9788 13.0165C14.2109 12.8631 14.4501 12.7329 14.708 12.3032C14.7587 12.2141 14.7565 12.1924 14.7831 12.1341L14.8126 12.06C14.8765 11.8315 14.8414 11.8932 14.8562 11.7941C14.8864 11.5545 14.7923 11.2983 14.6435 11.085C14.3397 10.7566 14.0376 10.6627 13.8131 10.5998C12.885 10.3799 12.2173 10.44 11.6371 10.4423C10.5369 10.494 9.90808 10.5235 9.90808 10.5235L9.86559 10.5255C9.86433 10.5256 9.86315 10.5256 9.86179 10.5257C9.51013 10.5463 9.24187 10.8479 9.26247 11.1995C9.26442 11.2339 9.28054 11.2627 9.28767 11.2952C8.78943 11.4325 8.00105 11.5729 7.22107 11.3891C7.10232 11.3617 6.99265 11.4331 6.96521 11.5468C6.93787 11.6614 7.00925 11.776 7.12292 11.8026C7.42937 11.8749 7.73337 11.9032 8.02322 11.9032C8.63894 11.9032 9.16491 11.7779 9.52409 11.6679C9.63991 11.7539 9.78073 11.8081 9.93601 11.799C9.93601 11.799 10.5714 11.7618 11.6833 11.6968C12.2039 11.678 12.9035 11.6506 13.4808 11.7862C13.5286 11.7936 13.5542 11.8085 13.5858 11.8219C13.5903 11.7707 13.4926 11.9148 13.34 11.989C13.1919 12.0846 12.9991 12.1762 12.7985 12.2672C12.3883 12.453 11.919 12.6128 11.3987 12.8928C11.1475 13.041 10.837 13.1916 10.579 13.6321C10.4584 13.8362 10.4011 14.1662 10.4645 14.3988L10.4833 14.4936L10.4939 14.5405L10.4996 14.5638C10.4596 14.4808 10.5603 14.7038 10.5524 14.6837L10.6045 14.7704C10.6507 14.8364 10.6434 14.8638 10.7544 14.979C10.8433 15.0753 10.9438 15.1675 11.0474 15.2479C11.1382 15.3104 11.206 15.3399 11.2878 15.3862C11.4488 15.4811 11.595 15.5251 11.7475 15.5849C12.0483 15.6909 12.3412 15.7629 12.6337 15.8275C13.1982 15.9338 13.7751 16.0423 14.3617 16.1527C14.6077 16.2003 14.8379 16.2602 15.0506 16.3258C14.7781 16.424 14.3966 16.523 14.0676 16.5864C12.8709 16.8389 11.6018 16.9917 10.3111 17.445C9.98806 17.5679 9.6571 17.7149 9.33259 17.9635C9.02702 18.195 8.70583 18.6568 8.74694 19.1641C8.63747 19.1795 8.51169 19.2018 8.41052 19.2131C7.3156 19.358 6.85544 19.1652 6.88513 19.1596C6.74216 19.0753 6.55789 19.1225 6.47351 19.2656C6.38904 19.4085 6.4364 19.5928 6.57937 19.6772C6.57937 19.6772 6.76707 19.8047 7.10212 19.8781C7.43552 19.9535 7.90456 19.9881 8.47585 19.943C8.63318 19.9323 8.81745 19.9088 8.9905 19.8905C9.11013 20.063 9.24948 20.2532 9.37927 20.3454C9.68093 20.5984 10.0004 20.7602 10.3187 20.9019C11.6003 21.3976 12.8811 21.5017 14.1299 21.4526C14.7569 21.4055 15.3739 21.3324 16.0075 21.0497C16.3029 20.9119 16.7084 20.6949 16.8335 20.0673C16.8339 19.9869 16.8477 19.9503 16.8354 19.8355ZM15.9137 20.0332C15.8974 19.9404 15.8463 20.1509 15.6071 20.2089C15.1953 20.3898 14.6332 20.4726 14.0806 20.5017C12.9664 20.5384 11.7496 20.4083 10.7062 19.9851C10.5423 19.9093 10.4085 19.8139 10.2677 19.7227C10.3451 19.7109 10.4122 19.7027 10.4915 19.6902C11.2668 19.5667 12.0749 19.4213 13.0031 19.4059C13.8872 19.3897 15.0129 19.4019 15.7605 19.7738C15.8473 19.8206 15.8853 19.8693 15.914 19.8987C15.914 19.8987 15.8892 19.8689 15.9169 19.85C15.9292 19.8689 15.9137 19.9748 15.9137 20.0332Z" fill="#F5F5F5"/>
<path d="M43.5599 19.8355C43.5352 19.6888 43.4795 19.5151 43.4092 19.4033C43.2695 19.2101 43.1078 19.0749 42.9511 18.9907C41.7168 18.4237 40.6836 18.5348 39.6975 18.5309C38.7236 18.556 37.8125 18.724 37.0728 18.8859C36.872 18.9263 36.6981 18.9565 36.5121 18.9915C36.6041 18.8014 36.9413 18.5636 37.3954 18.4195C38.5024 18.0414 39.7661 17.8895 41.0081 17.6475C41.3217 17.5861 41.6397 17.5141 41.9653 17.4216C42.1406 17.3615 42.2881 17.3146 42.4946 17.2187C42.627 17.1438 42.7574 17.0496 42.8689 16.9489C42.9876 16.8421 42.9786 16.8122 43.0397 16.7401C43.3217 16.2033 43.0548 15.8211 42.8309 15.6215C42.6152 15.4444 42.4335 15.3753 42.2605 15.3041C41.9248 15.1863 41.6137 15.1125 41.3135 15.0499C40.7351 14.9342 40.1665 14.8204 39.6097 14.709C39.3453 14.6477 39.0895 14.5798 38.8651 14.4973C38.667 14.4445 38.387 14.2487 38.4286 14.3021C37.917 14.258 39.1293 13.6874 40.0034 13.3686C40.2357 13.2661 40.4667 13.1626 40.7033 13.0165C40.9354 12.8631 41.1746 12.7329 41.4325 12.3032C41.4832 12.2141 41.481 12.1924 41.5076 12.1341L41.5371 12.06C41.601 11.8315 41.5659 11.8932 41.5807 11.7941C41.6109 11.5545 41.5169 11.2983 41.368 11.085C41.0642 10.7566 40.7621 10.6627 40.5377 10.5998C39.6095 10.3799 38.9418 10.44 38.3616 10.4423C37.2614 10.494 36.6326 10.5235 36.6326 10.5235L36.5901 10.5255C36.5888 10.5256 36.5877 10.5256 36.5863 10.5257C36.2346 10.5463 35.9664 10.8479 35.987 11.1995C35.9889 11.2339 36.005 11.2627 36.0122 11.2952C35.5139 11.4325 34.7256 11.5729 33.9456 11.3891C33.8268 11.3617 33.7172 11.4331 33.6897 11.5468C33.6624 11.6614 33.7338 11.776 33.8474 11.8026C34.1539 11.8749 34.4579 11.9032 34.7477 11.9032C35.3634 11.9032 35.8894 11.7779 36.2486 11.6679C36.3644 11.7539 36.5052 11.8081 36.6605 11.799C36.6605 11.799 37.2959 11.7618 38.4078 11.6968C38.9284 11.678 39.628 11.6506 40.2053 11.7862C40.2531 11.7936 40.2787 11.8085 40.3103 11.8219C40.3148 11.7707 40.2171 11.9148 40.0645 11.989C39.9164 12.0846 39.7236 12.1762 39.523 12.2672C39.1129 12.453 38.6435 12.6128 38.1232 12.8928C37.872 13.041 37.5615 13.1916 37.3035 13.6321C37.1829 13.8362 37.1257 14.1662 37.189 14.3988L37.2078 14.4936L37.2184 14.5405L37.2242 14.5638C37.1842 14.4808 37.2849 14.7038 37.277 14.6837L37.3291 14.7704C37.3753 14.8364 37.368 14.8638 37.479 14.979C37.5679 15.0753 37.6684 15.1675 37.772 15.2479C37.8629 15.3104 37.9306 15.3399 38.0124 15.3862C38.1734 15.4811 38.3196 15.5251 38.4721 15.5849C38.7729 15.6909 39.0658 15.7629 39.3583 15.8275C39.9228 15.9338 40.4997 16.0423 41.0863 16.1527C41.3323 16.2003 41.5625 16.2602 41.7752 16.3258C41.5027 16.424 41.1212 16.523 40.7922 16.5864C39.5955 16.8389 38.3264 16.9917 37.0357 17.445C36.7127 17.5679 36.3817 17.7149 36.0572 17.9635C35.7516 18.195 35.4304 18.6568 35.4716 19.1641C35.3621 19.1795 35.2363 19.2018 35.1351 19.2131C34.0402 19.358 33.5801 19.1652 33.6097 19.1596C33.4668 19.0753 33.2825 19.1225 33.1981 19.2656C33.1136 19.4085 33.161 19.5928 33.304 19.6772C33.304 19.6772 33.4917 19.8047 33.8267 19.8781C34.1601 19.9535 34.6292 19.9881 35.2005 19.943C35.3578 19.9323 35.5421 19.9088 35.7151 19.8905C35.8347 20.063 35.9741 20.2532 36.1039 20.3454C36.4055 20.5984 36.725 20.7602 37.0433 20.9019C38.3249 21.3976 39.6058 21.5017 40.8545 21.4526C41.4815 21.4055 42.0985 21.3324 42.7321 21.0497C43.0275 20.9119 43.433 20.6949 43.5582 20.0673C43.5583 19.9869 43.572 19.9503 43.5599 19.8355ZM42.6381 20.0332C42.6218 19.9404 42.5708 20.1509 42.3315 20.2089C41.9197 20.3898 41.3576 20.4726 40.805 20.5017C39.6908 20.5384 38.474 20.4083 37.4306 19.9851C37.2667 19.9093 37.1329 19.8139 36.9922 19.7227C37.0695 19.7109 37.1366 19.7027 37.2159 19.6902C37.9912 19.5667 38.7993 19.4213 39.7275 19.4059C40.6116 19.3897 41.7374 19.4019 42.4849 19.7738C42.5717 19.8206 42.6097 19.8693 42.6384 19.8987C42.6384 19.8987 42.6136 19.8689 42.6413 19.85C42.6536 19.8689 42.6382 19.9748 42.6381 20.0332Z" fill="#F5F5F5"/>
<path d="M16.8354 37.939C16.8107 37.7924 16.755 37.6186 16.6847 37.5068C16.545 37.3136 16.3833 37.1784 16.2266 37.0942C14.9923 36.5272 13.959 36.6384 12.973 36.6345C11.9991 36.6595 11.088 36.8275 10.3483 36.9894C10.1475 37.0299 9.9736 37.06 9.78757 37.095C9.87956 36.905 10.2168 36.6672 10.6709 36.523C11.7779 36.1449 13.0416 35.993 14.2836 35.7511C14.5972 35.6896 14.9152 35.6177 15.2408 35.5251C15.4161 35.465 15.5636 35.4181 15.7701 35.3222C15.9025 35.2473 16.0329 35.1531 16.1444 35.0524C16.2631 34.9456 16.2541 34.9157 16.3152 34.8436C16.5972 34.3068 16.3302 33.9246 16.1064 33.725C15.8907 33.5479 15.7089 33.4788 15.536 33.4076C15.2003 33.2898 14.8892 33.216 14.589 33.1534C14.0106 33.0377 13.442 32.9239 12.8852 32.8125C12.6208 32.7513 12.365 32.6833 12.1406 32.6009C11.9424 32.548 11.6625 32.3522 11.7041 32.4056C11.1924 32.3615 12.4047 31.7909 13.2789 31.4722C13.5112 31.3696 13.7421 31.266 13.9788 31.12C14.2109 30.9666 14.4501 30.8364 14.708 30.4067C14.7587 30.3176 14.7565 30.2959 14.7831 30.2376L14.8126 30.1635C14.8765 29.935 14.8414 29.9967 14.8562 29.8976C14.8864 29.658 14.7923 29.4018 14.6435 29.1885C14.3397 28.8601 14.0376 28.7662 13.8131 28.7033C12.885 28.4834 12.2173 28.5435 11.6371 28.5458C10.5369 28.5976 9.90808 28.627 9.90808 28.627L9.86559 28.629C9.86433 28.6291 9.86315 28.6291 9.86179 28.6292C9.51013 28.6498 9.24187 28.9515 9.26247 29.303C9.26442 29.3374 9.28054 29.3662 9.28767 29.3987C8.78943 29.536 8.00105 29.6765 7.22107 29.4926C7.10232 29.4652 6.99265 29.5366 6.96521 29.6503C6.93787 29.7649 7.00925 29.8795 7.12292 29.9061C7.42937 29.9784 7.73337 30.0067 8.02322 30.0067C8.63894 30.0067 9.16491 29.8814 9.52409 29.7714C9.63991 29.8574 9.78073 29.9116 9.93601 29.9025C9.93601 29.9025 10.5714 29.8653 11.6833 29.8003C12.2039 29.7815 12.9035 29.7541 13.4808 29.8897C13.5286 29.8972 13.5542 29.912 13.5858 29.9254C13.5903 29.8742 13.4926 30.0183 13.34 30.0925C13.1919 30.1881 12.9991 30.2797 12.7985 30.3707C12.3883 30.5565 11.919 30.7163 11.3987 30.9962C11.1475 31.1444 10.837 31.295 10.579 31.7355C10.4584 31.9396 10.4011 32.2696 10.4645 32.5022L10.4833 32.5971L10.4939 32.6439L10.4996 32.6672C10.4596 32.5843 10.5603 32.8072 10.5524 32.7871L10.6045 32.8738C10.6507 32.9398 10.6434 32.9672 10.7544 33.0824C10.8433 33.1788 10.9438 33.2709 11.0474 33.3513C11.1382 33.4138 11.206 33.4433 11.2878 33.4896C11.4488 33.5846 11.595 33.6285 11.7475 33.6884C12.0483 33.7943 12.3412 33.8663 12.6337 33.9309C13.1982 34.0372 13.7751 34.1457 14.3617 34.2561C14.6077 34.3037 14.8379 34.3637 15.0506 34.4292C14.7781 34.5274 14.3966 34.6264 14.0676 34.6898C12.8709 34.9424 11.6018 35.0951 10.3111 35.5484C9.98806 35.6714 9.6571 35.8183 9.33259 36.0669C9.02702 36.2984 8.70583 36.7602 8.74694 37.2676C8.63747 37.2829 8.51169 37.3052 8.41052 37.3165C7.3156 37.4614 6.85544 37.2686 6.88513 37.2631C6.74216 37.1787 6.55789 37.226 6.47351 37.369C6.38904 37.5119 6.4364 37.6963 6.57937 37.7806C6.57937 37.7806 6.76707 37.9081 7.10212 37.9815C7.43552 38.0569 7.90456 38.0914 8.47585 38.0465C8.63318 38.0357 8.81745 38.0122 8.9905 37.9939C9.11013 38.1664 9.24948 38.3566 9.37927 38.4488C9.68093 38.7018 10.0004 38.8636 10.3187 39.0053C11.6003 39.501 12.8811 39.6051 14.1299 39.556C14.7569 39.509 15.3739 39.4358 16.0075 39.1531C16.3029 39.0153 16.7084 38.7983 16.8335 38.1707C16.8339 38.0905 16.8477 38.0539 16.8354 37.939ZM15.9137 38.1368C15.8974 38.044 15.8463 38.2545 15.6071 38.3125C15.1953 38.4934 14.6332 38.5762 14.0806 38.6053C12.9664 38.642 11.7496 38.5119 10.7062 38.0887C10.5423 38.013 10.4085 37.9176 10.2677 37.8263C10.3451 37.8145 10.4122 37.8063 10.4915 37.7938C11.2668 37.6703 12.0749 37.5249 13.0031 37.5095C13.8872 37.4934 15.0129 37.5055 15.7605 37.8774C15.8473 37.9242 15.8853 37.9729 15.914 38.0023C15.914 38.0023 15.8892 37.9725 15.9169 37.9536C15.9292 37.9725 15.9137 38.0784 15.9137 38.1368Z" fill="#F5F5F5"/>
<path d="M43.5599 37.939C43.5352 37.7924 43.4795 37.6186 43.4092 37.5068C43.2695 37.3136 43.1078 37.1784 42.9511 37.0942C41.7168 36.5272 40.6836 36.6384 39.6975 36.6345C38.7236 36.6595 37.8125 36.8275 37.0728 36.9894C36.872 37.0299 36.6981 37.06 36.5121 37.095C36.6041 36.905 36.9413 36.6672 37.3954 36.523C38.5024 36.1449 39.7661 35.993 41.0081 35.7511C41.3217 35.6896 41.6397 35.6177 41.9653 35.5251C42.1406 35.465 42.2881 35.4181 42.4946 35.3222C42.627 35.2473 42.7574 35.1531 42.8689 35.0524C42.9876 34.9456 42.9786 34.9157 43.0397 34.8436C43.3217 34.3068 43.0548 33.9246 42.8309 33.725C42.6152 33.5479 42.4335 33.4788 42.2605 33.4076C41.9248 33.2898 41.6137 33.216 41.3135 33.1534C40.7351 33.0377 40.1665 32.9239 39.6097 32.8125C39.3453 32.7513 39.0895 32.6833 38.8651 32.6009C38.667 32.548 38.387 32.3522 38.4286 32.4056C37.917 32.3615 39.1293 31.7909 40.0034 31.4722C40.2357 31.3696 40.4667 31.266 40.7033 31.12C40.9354 30.9666 41.1746 30.8364 41.4325 30.4067C41.4832 30.3176 41.481 30.2959 41.5076 30.2376L41.5371 30.1635C41.601 29.935 41.5659 29.9967 41.5807 29.8976C41.6109 29.658 41.5169 29.4018 41.368 29.1885C41.0642 28.8601 40.7621 28.7662 40.5377 28.7033C39.6095 28.4834 38.9418 28.5435 38.3616 28.5458C37.2614 28.5976 36.6326 28.627 36.6326 28.627L36.5901 28.629C36.5888 28.6291 36.5877 28.6291 36.5863 28.6292C36.2346 28.6498 35.9664 28.9515 35.987 29.303C35.9889 29.3374 36.005 29.3662 36.0122 29.3987C35.5139 29.536 34.7256 29.6765 33.9456 29.4926C33.8268 29.4652 33.7172 29.5366 33.6897 29.6503C33.6624 29.7649 33.7338 29.8795 33.8474 29.9061C34.1539 29.9784 34.4579 30.0067 34.7477 30.0067C35.3634 30.0067 35.8894 29.8814 36.2486 29.7714C36.3644 29.8574 36.5052 29.9116 36.6605 29.9025C36.6605 29.9025 37.2959 29.8653 38.4078 29.8003C38.9284 29.7815 39.628 29.7541 40.2053 29.8897C40.2531 29.8972 40.2787 29.912 40.3103 29.9254C40.3148 29.8742 40.2171 30.0183 40.0645 30.0925C39.9164 30.1881 39.7236 30.2797 39.523 30.3707C39.1129 30.5565 38.6435 30.7163 38.1232 30.9962C37.872 31.1444 37.5615 31.295 37.3035 31.7355C37.1829 31.9396 37.1257 32.2696 37.189 32.5022L37.2078 32.5971L37.2184 32.6439L37.2242 32.6672C37.1842 32.5843 37.2849 32.8072 37.277 32.7871L37.3291 32.8738C37.3753 32.9398 37.368 32.9672 37.479 33.0824C37.5679 33.1788 37.6684 33.2709 37.772 33.3513C37.8629 33.4138 37.9306 33.4433 38.0124 33.4896C38.1734 33.5846 38.3196 33.6285 38.4721 33.6884C38.7729 33.7943 39.0658 33.8663 39.3583 33.9309C39.9228 34.0372 40.4997 34.1457 41.0863 34.2561C41.3323 34.3037 41.5625 34.3637 41.7752 34.4292C41.5027 34.5274 41.1212 34.6264 40.7922 34.6898C39.5955 34.9424 38.3264 35.0951 37.0357 35.5484C36.7127 35.6714 36.3817 35.8183 36.0572 36.0669C35.7516 36.2984 35.4304 36.7602 35.4716 37.2676C35.3621 37.2829 35.2363 37.3052 35.1351 37.3165C34.0402 37.4614 33.5801 37.2686 33.6097 37.2631C33.4668 37.1787 33.2825 37.226 33.1981 37.369C33.1136 37.5119 33.161 37.6963 33.304 37.7806C33.304 37.7806 33.4917 37.9081 33.8267 37.9815C34.1601 38.0569 34.6292 38.0914 35.2005 38.0465C35.3578 38.0357 35.5421 38.0122 35.7151 37.9939C35.8347 38.1664 35.9741 38.3566 36.1039 38.4488C36.4055 38.7018 36.725 38.8636 37.0433 39.0053C38.3249 39.501 39.6058 39.6051 40.8545 39.556C41.4815 39.509 42.0985 39.4358 42.7321 39.1531C43.0275 39.0153 43.433 38.7983 43.5582 38.1707C43.5583 38.0905 43.572 38.0539 43.5599 37.939ZM42.6381 38.1368C42.6218 38.044 42.5708 38.2545 42.3315 38.3125C41.9197 38.4934 41.3576 38.5762 40.805 38.6053C39.6908 38.642 38.474 38.5119 37.4306 38.0887C37.2667 38.013 37.1329 37.9176 36.9922 37.8263C37.0695 37.8145 37.1366 37.8063 37.2159 37.7938C37.9912 37.6703 38.7993 37.5249 39.7275 37.5095C40.6116 37.4934 41.7374 37.5055 42.4849 37.8774C42.5717 37.9242 42.6097 37.9729 42.6384 38.0023C42.6384 38.0023 42.6136 37.9725 42.6413 37.9536C42.6536 37.9725 42.6382 38.0784 42.6381 38.1368Z" fill="#F5F5F5"/>
</g>
<defs>
<clipPath id="clip0_106_18608">
<rect width="50" height="50" fill="white"/>
</clipPath>
</defs>
</svg>
