<svg width="50" height="50" viewBox="0 0 50 50" fill="none" xmlns="http://www.w3.org/2000/svg">
<g clip-path="url(#clip0_106_18603)">
<path d="M49.1383 41.3792H0.862596C0.386523 41.3792 0.000488281 40.9932 0.000488281 40.5171V9.48271C0.000488281 9.00664 0.386523 8.62061 0.862596 8.62061H49.1384C49.6145 8.62061 50.0005 9.00664 50.0005 9.48271V40.5171C50.0004 40.9933 49.6144 41.3792 49.1383 41.3792Z" fill="#73AF00"/>
<path d="M34.2828 21.9705C34.2597 21.8233 34.0462 21.8306 34.0294 21.9787C33.5151 26.5102 29.6714 30.0308 25.0009 30.0308C20.3318 30.0308 16.4867 26.5102 15.9724 21.9789C15.9556 21.8308 15.742 21.8234 15.7189 21.9707C15.6475 22.4266 15.6084 22.8927 15.6084 23.3687C15.6083 28.5511 19.8143 32.7584 25.0009 32.7584C30.1891 32.7584 34.3934 28.5511 34.3934 23.3687C34.3932 22.8927 34.3541 22.4265 34.2828 21.9705Z" fill="#FFE15A"/>
<path d="M24.8843 18.0925L24.2051 20.129L22.0583 20.1456C21.9406 20.1465 21.8918 20.2967 21.9865 20.3666L23.7136 21.6419L23.066 23.6888C23.0305 23.801 23.1583 23.8939 23.2541 23.8254L25.0005 22.5771L26.747 23.8254C26.8428 23.8939 26.9706 23.8011 26.9351 23.6888L26.2876 21.6419L28.0146 20.3666C28.1093 20.2967 28.0605 20.1465 27.9428 20.1456L25.7961 20.129L25.1169 18.0925C25.0795 17.9809 24.9215 17.9809 24.8843 18.0925Z" fill="#FFE15A"/>
</g>
<defs>
<clipPath id="clip0_106_18603">
<rect width="50" height="50" fill="white"/>
</clipPath>
</defs>
</svg>
