<svg width="50" height="50" viewBox="0 0 50 50" fill="none" xmlns="http://www.w3.org/2000/svg">
<g clip-path="url(#clip0_106_18511)">
<path d="M49.1383 41.3791H0.862596C0.386523 41.3791 0.000488281 40.9931 0.000488281 40.517V9.48271C0.000488281 9.00664 0.386523 8.62061 0.862596 8.62061H49.1384C49.6145 8.62061 50.0005 9.00664 50.0005 9.48271V40.517C50.0004 40.9932 49.6144 41.3791 49.1383 41.3791Z" fill="#4173CD"/>
<path d="M21.145 33.6204C21.0725 34.9083 21.925 35.067 22.3869 35.0739C22.8487 35.081 23.5485 35.2839 24.1994 35.4168C24.8502 35.5498 25.0601 35.0108 25.0601 35.0108C25.4451 35.5147 25.8205 35.3608 25.8205 35.3608C26.1285 35.0529 26.9496 34.8989 27.2715 34.8778C27.5934 34.8567 27.5164 34.416 27.5164 34.416C27.8537 34.2284 28.082 34.0135 28.2451 33.7962C28.2522 33.7993 28.2583 33.8042 28.2653 33.8072C28.8181 34.0451 29.2451 33.5413 29.336 33.3523C29.3922 33.2355 29.4952 33.1838 29.5689 33.1586L29.595 33.4503C29.8328 33.1074 30.3508 33.2334 30.3508 33.2334C29.8189 32.4147 29.2801 32.7926 29.2801 32.7926L29.4889 32.9909C29.1721 33.1506 28.984 33.7827 28.5173 33.5974C28.4775 33.5815 28.4437 33.5588 28.4081 33.538C28.5965 33.1645 28.6027 32.8121 28.5523 32.6107C28.4614 32.2469 27.9014 32.1629 27.6285 32.5338C27.4378 32.7931 27.5585 33.1936 27.835 33.4939C27.689 33.5958 27.5026 33.6905 27.2577 33.7585C26.5019 33.9685 25.3683 32.9747 24.5845 32.9327C23.8007 32.8907 23.1149 33.5485 22.723 33.9684C22.3311 34.3883 21.8052 34.0163 21.8132 33.7444L21.145 33.6204ZM28.0065 32.6806C28.1534 32.6177 28.2164 32.7296 28.2374 32.9115C28.2462 32.9878 28.2043 33.1126 28.1016 33.2467C27.9396 32.9977 27.913 32.7206 28.0065 32.6806Z" fill="#73AF00"/>
<path d="M23.3651 35.1738L22.9473 35.3889L23.0641 35.1001L23.3651 35.1738Z" fill="#F5F5F5"/>
<path d="M22.9757 35.0739L22.5894 35.2728L22.6974 35.0059L22.9757 35.0739Z" fill="#F5F5F5"/>
<path d="M22.615 35.0014L22.3296 35.1624L22.4033 34.958L22.615 35.0014Z" fill="#F5F5F5"/>
<path d="M25.8212 35.3609L25.3662 35.4794L25.5435 35.2231L25.8212 35.3609Z" fill="#F5F5F5"/>
<path d="M25.5052 35.1927L25.0815 35.2887L25.2527 35.0571L25.5052 35.1927Z" fill="#F5F5F5"/>
<path d="M25.2098 35.0374L24.9189 35.1887L24.9995 34.9868L25.2098 35.0374Z" fill="#F5F5F5"/>
<path d="M19.1844 19.517C19.0953 19.5797 19.0894 19.7248 19.1712 19.8411C19.2531 19.9574 19.3916 20.0009 19.4807 19.9382C19.5699 19.8755 19.5757 19.7304 19.4939 19.6141C19.4121 19.4978 19.2735 19.4543 19.1844 19.517Z" fill="#F5F5F5"/>
<path d="M30.5222 19.9395C30.6113 20.0022 30.7499 19.9587 30.8317 19.8424C30.9136 19.7261 30.9077 19.581 30.8186 19.5183C30.7295 19.4556 30.5909 19.4991 30.509 19.6154C30.4272 19.7317 30.4331 19.8769 30.5222 19.9395Z" fill="#F5F5F5"/>
<path d="M27.7061 23.9934V29.0161C27.7061 30.5074 26.4929 31.7206 25.0017 31.7206C23.5104 31.7206 22.2972 30.5073 22.2972 29.0161V23.9934H27.7061ZM29.2515 22.0615H20.7516C20.5382 22.0615 20.3652 22.2345 20.3652 22.4479V29.016C20.3652 31.5765 22.441 33.6523 25.0016 33.6523C27.5621 33.6523 29.6379 31.5765 29.6379 29.016V22.4479C29.638 22.2345 29.4649 22.0615 29.2515 22.0615Z" fill="#F5F5F5"/>
<path d="M22.2965 23.9938H20.3647V22.9241C20.3647 22.448 20.7508 22.062 21.2269 22.062H22.2966L22.2965 23.9938Z" fill="#FF4B55"/>
<path d="M25.9674 22.0615H24.0356V23.9933H25.9674V22.0615Z" fill="#FF4B55"/>
<path d="M22.297 25.9258H20.3652V27.8575H22.297V25.9258Z" fill="#FF4B55"/>
<path d="M29.6388 25.9258H27.707V27.8575H29.6388V25.9258Z" fill="#FF4B55"/>
<path d="M29.6378 23.9937H27.7061V22.062H28.7758C29.2519 22.062 29.6379 22.448 29.6379 22.9241V23.9937H29.6378Z" fill="#FF4B55"/>
<path d="M26.6453 33.3473L25.9021 31.5635C25.62 31.6636 25.3178 31.7208 25.0019 31.7208C24.6859 31.7208 24.3837 31.6635 24.1016 31.5635L23.3584 33.3473C23.8699 33.5416 24.4224 33.6526 25.002 33.6526C25.5813 33.6526 26.1338 33.5416 26.6453 33.3473Z" fill="#FF4B55"/>
<path d="M21.5815 32.1387L23.0926 30.93C22.7102 30.5485 22.4434 30.0529 22.3429 29.5L20.4805 30.0321C20.6598 30.833 21.047 31.5534 21.5815 32.1387Z" fill="#FF4B55"/>
<path d="M29.5227 30.0321L27.6604 29.5C27.56 30.0529 27.293 30.5485 26.9106 30.93L28.4217 32.1387C28.9562 31.5535 29.3435 30.8331 29.5227 30.0321Z" fill="#FF4B55"/>
<path d="M21.7161 22.4482H20.9434V23.6073H21.7161V22.4482Z" fill="#FFE15A"/>
<path d="M21.7161 26.3115H20.9434V27.4706H21.7161V26.3115Z" fill="#FFE15A"/>
<path d="M22.1028 30.1758H21.3301V31.3349H22.1028V30.1758Z" fill="#FFE15A"/>
<path d="M28.6702 30.1758H27.8975V31.3349H28.6702V30.1758Z" fill="#FFE15A"/>
<path d="M29.0569 22.4482H28.2842V23.6073H29.0569V22.4482Z" fill="#FFE15A"/>
<path d="M21.7161 24.3672H20.9434V25.5263H21.7161V24.3672Z" fill="#FF4B55"/>
<path d="M29.0569 24.3672H28.2842V25.5263H29.0569V24.3672Z" fill="#FF4B55"/>
<path d="M21.7161 28.1992H20.9434V29.3583H21.7161V28.1992Z" fill="#FF4B55"/>
<path d="M23.3812 31.6162H22.6084V32.7753H23.3812V31.6162Z" fill="#FF4B55"/>
<path d="M27.3899 31.6162H26.6172V32.7753H27.3899V31.6162Z" fill="#FF4B55"/>
<path d="M29.0569 28.1992H28.2842V29.3583H29.0569V28.1992Z" fill="#FF4B55"/>
<path d="M25.3865 22.4482H24.6138V23.6073H25.3865V22.4482Z" fill="#FFE15A"/>
<path d="M23.5501 22.4482H22.7773V23.6073H23.5501V22.4482Z" fill="#FF4B55"/>
<path d="M27.1888 22.4482H26.416V23.6073H27.1888V22.4482Z" fill="#FF4B55"/>
<path d="M29.0579 26.3115H28.2852V27.4706H29.0579V26.3115Z" fill="#FFE15A"/>
<path d="M25.387 32.1069H24.6143V33.266H25.387V32.1069Z" fill="#FFE15A"/>
<path d="M25.0006 24.7299C25.7463 24.7299 26.3528 25.3364 26.3528 26.0821C26.3528 26.8278 25.7462 27.4344 25.0006 27.4344C24.255 27.4344 23.6483 26.8278 23.6483 26.0821C23.6483 25.3365 24.2551 24.7299 25.0006 24.7299ZM25.0006 24.5366C24.1471 24.5366 23.4551 25.2285 23.4551 26.0821C23.4551 26.9356 24.147 27.6276 25.0006 27.6276C25.8542 27.6276 26.5461 26.9357 26.5461 26.0821C26.5461 25.2285 25.8542 24.5366 25.0006 24.5366Z" fill="#FFE15A"/>
<path d="M24.7668 25.9735C24.3836 25.9735 24.1443 26.0814 23.9946 26.2154C24.0562 25.912 24.1842 25.5871 24.4528 25.5871C24.5061 25.5871 24.5494 25.5437 24.5494 25.4905C24.5494 25.4373 24.5062 25.3939 24.4528 25.3939C24.1864 25.3939 24.0207 25.5795 23.917 25.8123C23.8533 24.5453 23.6565 24.5405 23.5836 24.5405C23.5303 24.5405 23.487 24.584 23.487 24.6371C23.487 24.6836 23.5194 24.7221 23.5631 24.7314C23.6034 24.7797 23.638 24.9422 23.666 25.1675C23.541 24.902 23.3594 24.7096 23.0927 24.7096C23.0394 24.7096 22.9961 24.753 22.9961 24.8062C22.9961 24.8593 23.0393 24.9027 23.0927 24.9027C23.3564 24.9027 23.5185 25.2245 23.6151 25.6111C23.4298 25.3468 23.1501 25.1525 22.7387 25.1525C22.6854 25.1525 22.6421 25.196 22.6421 25.2491C22.6421 25.3022 22.6853 25.3457 22.7387 25.3457C23.166 25.3457 23.4112 25.5922 23.5526 25.877C23.3869 25.7367 23.1506 25.6354 22.811 25.6354C22.7577 25.6354 22.7145 25.6789 22.7145 25.732C22.7145 25.7852 22.7576 25.8286 22.811 25.8286C23.7301 25.8286 23.7445 26.6934 23.7446 26.7304C23.7446 26.7443 23.7542 26.7543 23.7596 26.7664C23.7645 26.7769 23.7646 26.79 23.7728 26.798L23.7729 26.7983C23.7904 26.8158 23.8145 26.8267 23.8411 26.8267H23.8413C23.8513 26.8266 23.8577 26.8189 23.8667 26.8161C23.8962 26.8069 23.9165 26.7869 23.9263 26.7577C23.9295 26.7482 23.9376 26.7414 23.9377 26.7309C23.9381 26.7078 23.9543 26.1667 24.7668 26.1667C24.8201 26.1667 24.8634 26.1232 24.8634 26.0701C24.8634 26.0168 24.8202 25.9735 24.7668 25.9735Z" fill="#73AF00"/>
<path d="M25.2411 25.9735C25.6243 25.9735 25.8636 26.0814 26.0133 26.2154C25.9518 25.912 25.8237 25.5871 25.5551 25.5871C25.5018 25.5871 25.4585 25.5437 25.4585 25.4905C25.4585 25.4373 25.5017 25.3939 25.5551 25.3939C25.8215 25.3939 25.9872 25.5795 26.0909 25.8123C26.1546 24.5453 26.3514 24.5405 26.4243 24.5405C26.4776 24.5405 26.5209 24.584 26.5209 24.6371C26.5209 24.6836 26.4885 24.7221 26.4448 24.7314C26.4045 24.7797 26.3699 24.9422 26.3419 25.1675C26.4669 24.902 26.6485 24.7096 26.9152 24.7096C26.9685 24.7096 27.0118 24.753 27.0118 24.8062C27.0118 24.8593 26.9686 24.9027 26.9152 24.9027C26.6515 24.9027 26.4894 25.2245 26.3928 25.6111C26.5781 25.3468 26.8578 25.1525 27.2692 25.1525C27.3226 25.1525 27.3658 25.196 27.3658 25.2491C27.3658 25.3022 27.3226 25.3457 27.2692 25.3457C26.8419 25.3457 26.5967 25.5922 26.4553 25.877C26.621 25.7367 26.8573 25.6354 27.1969 25.6354C27.2502 25.6354 27.2935 25.6789 27.2935 25.732C27.2935 25.7852 27.2503 25.8286 27.1969 25.8286C26.2778 25.8286 26.2634 26.6934 26.2633 26.7304C26.2633 26.7443 26.2537 26.7543 26.2483 26.7664C26.2435 26.7769 26.2433 26.79 26.2352 26.798L26.235 26.7983C26.2175 26.8158 26.1934 26.8267 26.1668 26.8267H26.1666C26.1566 26.8266 26.1502 26.8189 26.1412 26.8161C26.1117 26.8069 26.0914 26.7869 26.0816 26.7577C26.0784 26.7482 26.0703 26.7414 26.0702 26.7309C26.0699 26.7078 26.0536 26.1667 25.2411 26.1667C25.1878 26.1667 25.1445 26.1232 25.1445 26.0701C25.1445 26.0168 25.1877 25.9735 25.2411 25.9735Z" fill="#73AF00"/>
<path d="M23.5093 26.4688C23.6815 27.1342 24.2809 27.6278 25.0001 27.6278C25.7193 27.6278 26.3185 27.1342 26.4909 26.4688H23.5093Z" fill="#FF4B55"/>
<path d="M25.001 27.6278C25.7203 27.6278 26.3194 27.1342 26.4918 26.4688H25.001V27.6278Z" fill="#FFE15A"/>
<path d="M25.0011 28.2315C25.7468 28.2315 26.3533 28.8381 26.3533 29.5838C26.3533 30.3295 25.7467 30.936 25.0011 30.936C24.2555 30.936 23.6488 30.3295 23.6488 29.5838C23.6488 28.8383 24.2556 28.2315 25.0011 28.2315ZM25.0011 28.0386C24.1476 28.0386 23.4556 28.7305 23.4556 29.5841C23.4556 30.4376 24.1475 31.1296 25.0011 31.1296C25.8547 31.1296 26.5466 30.4377 26.5466 29.5841C26.5466 28.7304 25.8547 28.0386 25.0011 28.0386Z" fill="#FFE15A"/>
<path d="M24.7668 29.475C24.3836 29.475 24.1443 29.5829 23.9946 29.7169C24.0562 29.4135 24.1842 29.0886 24.4528 29.0886C24.5061 29.0886 24.5494 29.0451 24.5494 28.992C24.5494 28.9388 24.5062 28.8954 24.4528 28.8954C24.1864 28.8954 24.0207 29.081 23.917 29.3138C23.8533 28.0468 23.6565 28.042 23.5836 28.042C23.5303 28.042 23.487 28.0854 23.487 28.1386C23.487 28.1851 23.5194 28.2235 23.5631 28.2329C23.6034 28.2812 23.638 28.4436 23.666 28.6689C23.541 28.4035 23.3594 28.211 23.0927 28.211C23.0394 28.211 22.9961 28.2545 22.9961 28.3076C22.9961 28.3608 23.0393 28.4042 23.0927 28.4042C23.3564 28.4042 23.5185 28.726 23.6151 29.1126C23.4298 28.8482 23.1501 28.654 22.7387 28.654C22.6854 28.654 22.6421 28.6975 22.6421 28.7506C22.6421 28.8038 22.6853 28.8472 22.7387 28.8472C23.166 28.8472 23.4112 29.0937 23.5526 29.3785C23.3869 29.2382 23.1506 29.1369 22.811 29.1369C22.7577 29.1369 22.7145 29.1804 22.7145 29.2335C22.7145 29.2866 22.7576 29.3301 22.811 29.3301C23.7301 29.3301 23.7445 30.1948 23.7446 30.2318C23.7446 30.2458 23.7542 30.2558 23.7596 30.2677C23.7645 30.2782 23.7646 30.2913 23.7728 30.2993L23.7729 30.2996C23.7904 30.3171 23.8145 30.3279 23.8411 30.3279H23.8413C23.8513 30.3278 23.8577 30.3202 23.8667 30.3174C23.8962 30.3082 23.9165 30.2882 23.9263 30.259C23.9295 30.2495 23.9376 30.2427 23.9377 30.2321C23.9381 30.2091 23.9543 29.668 24.7668 29.668C24.8201 29.668 24.8634 29.6245 24.8634 29.5714C24.8634 29.5185 24.8202 29.475 24.7668 29.475Z" fill="#73AF00"/>
<path d="M25.2411 29.475C25.6243 29.475 25.8636 29.5829 26.0133 29.7169C25.9518 29.4135 25.8237 29.0886 25.5551 29.0886C25.5018 29.0886 25.4585 29.0451 25.4585 28.992C25.4585 28.9388 25.5017 28.8954 25.5551 28.8954C25.8215 28.8954 25.9872 29.081 26.0909 29.3138C26.1546 28.0468 26.3514 28.042 26.4243 28.042C26.4776 28.042 26.5209 28.0854 26.5209 28.1386C26.5209 28.1851 26.4885 28.2235 26.4448 28.2329C26.4045 28.2812 26.3699 28.4436 26.3419 28.6689C26.4669 28.4035 26.6485 28.211 26.9152 28.211C26.9685 28.211 27.0118 28.2545 27.0118 28.3076C27.0118 28.3608 26.9686 28.4042 26.9152 28.4042C26.6515 28.4042 26.4894 28.726 26.3928 29.1126C26.5781 28.8482 26.8578 28.654 27.2692 28.654C27.3226 28.654 27.3658 28.6975 27.3658 28.7506C27.3658 28.8038 27.3226 28.8472 27.2692 28.8472C26.8419 28.8472 26.5967 29.0937 26.4553 29.3785C26.621 29.2382 26.8573 29.1369 27.1969 29.1369C27.2502 29.1369 27.2935 29.1804 27.2935 29.2335C27.2935 29.2866 27.2503 29.3301 27.1969 29.3301C26.2778 29.3301 26.2634 30.1948 26.2633 30.2318C26.2633 30.2458 26.2537 30.2558 26.2483 30.2677C26.2435 30.2782 26.2433 30.2913 26.2352 30.2993L26.235 30.2996C26.2175 30.3171 26.1934 30.3279 26.1668 30.3279H26.1666C26.1566 30.3278 26.1502 30.3202 26.1412 30.3174C26.1117 30.3082 26.0914 30.2882 26.0816 30.259C26.0784 30.2495 26.0703 30.2427 26.0702 30.2321C26.0699 30.2091 26.0536 29.668 25.2411 29.668C25.1878 29.668 25.1445 29.6245 25.1445 29.5714C25.1445 29.5185 25.1877 29.475 25.2411 29.475Z" fill="#73AF00"/>
<path d="M23.5093 29.9702C23.6815 30.6356 24.2809 31.1293 25.0001 31.1293C25.7193 31.1293 26.3185 30.6356 26.4909 29.9702H23.5093Z" fill="#FF4B55"/>
<path d="M25.0005 31.1293C25.7198 31.1293 26.3189 30.6356 26.4913 29.9702H25.0005V31.1293Z" fill="#FFE15A"/>
<path d="M19.5925 23.2209V22.4482H17.6606V23.2209H18.047V31.721H17.6606V32.4936H18.047H19.2061H19.5925V31.721H19.2061V23.2209H19.5925Z" fill="#F5F5F5"/>
<path d="M32.3425 23.2209V22.4482H30.4106V23.2209H30.797V31.721H30.4106V32.4936H30.797H31.956H32.3425V31.721H31.956V23.2209H32.3425Z" fill="#F5F5F5"/>
<path d="M29.2503 22.0616H20.7503C20.3235 22.0616 19.9775 21.7156 19.9775 21.2889C19.9775 20.8621 20.3235 20.5161 20.7503 20.5161H29.2503C29.677 20.5161 30.023 20.8621 30.023 21.2889C30.023 21.7157 29.6771 22.0616 29.2503 22.0616Z" fill="#FFE15A"/>
<path d="M25.2906 21.579H24.7111C24.5511 21.579 24.4214 21.4492 24.4214 21.2893C24.4214 21.1292 24.5512 20.9995 24.7111 20.9995H25.2906C25.4507 20.9995 25.5804 21.1293 25.5804 21.2893C25.5804 21.4492 25.4506 21.579 25.2906 21.579Z" fill="#FF4B55"/>
<path d="M28.1895 21.579H27.6101C27.45 21.579 27.3203 21.4492 27.3203 21.2893C27.3203 21.1292 27.4501 20.9995 27.6101 20.9995H28.1895C28.3496 20.9995 28.4793 21.1293 28.4793 21.2893C28.4794 21.4492 28.3496 21.579 28.1895 21.579Z" fill="#73AF00"/>
<path d="M22.3941 21.579H21.8146C21.6546 21.579 21.5249 21.4492 21.5249 21.2893C21.5249 21.1292 21.6547 20.9995 21.8146 20.9995H22.3941C22.5542 20.9995 22.6839 21.1293 22.6839 21.2893C22.684 21.4492 22.5543 21.579 22.3941 21.579Z" fill="#73AF00"/>
<path d="M30.4257 18.9145L29.8622 19.1077L29.9165 19.6452C29.2942 20.3523 28.9819 20.3979 28.8533 20.3532C28.6941 20.2982 28.6208 20.0714 28.5912 19.8976L28.8237 20.1301C29.9828 18.971 29.3187 17.2686 29.3187 17.2686C28.9928 17.3289 28.8478 17.6308 28.8478 17.6308C28.546 17.6066 28.2321 17.6308 28.2321 17.6308C28.208 17.8964 28.3046 18.2706 28.3046 18.2706C27.642 18.4072 27.3692 18.7663 27.3692 18.7663C27.4829 19.0845 27.8459 19.3572 27.8459 19.3572C27.7373 19.6228 27.87 19.9367 27.87 19.9367C28.0358 19.9367 28.1793 19.8867 28.2807 19.8377C27.848 20.3771 27.6443 20.39 27.5753 20.3641C27.3662 20.2865 27.3132 19.669 27.3426 19.2554C27.3456 19.2131 27.3205 19.1737 27.2809 19.1584C27.2417 19.1436 27.1966 19.1557 27.1702 19.189L26.837 19.6138C25.4466 17.7613 26.546 16.6526 26.546 16.6526V15.8799H26.1597V16.2662H25.8285V15.8799H25.4973V16.2662H25.1662V15.8799H24.835V16.2662H24.5039V15.8799H24.1727V16.2662H23.8416V15.8799H23.4553V16.6526C23.4553 16.6526 24.5546 17.7611 23.1642 19.6138L22.831 19.189C22.8047 19.1554 22.7595 19.143 22.7203 19.1584C22.6807 19.1737 22.6557 19.2132 22.6587 19.2554C22.6881 19.669 22.6353 20.2864 22.426 20.3641C22.3566 20.3892 22.1526 20.3767 21.719 19.8358C21.8207 19.8856 21.9653 19.9368 22.1334 19.9368C22.1334 19.9368 22.2663 19.6229 22.1575 19.3573C22.1575 19.3573 22.5204 19.0846 22.6342 18.7664C22.6342 18.7664 22.3614 18.4073 21.6988 18.2707C21.6988 18.2707 21.7954 17.8965 21.7713 17.6309C21.7713 17.6309 21.4574 17.6067 21.1556 17.6309C21.1556 17.6309 21.0106 17.329 20.6847 17.2686C20.6847 17.2686 20.0205 18.971 21.1797 20.1302L21.4096 19.9003C21.3797 20.0739 21.3063 20.2986 21.1479 20.3534C21.0186 20.3982 20.7074 20.3526 20.0867 19.6477L20.1412 19.108L19.5777 18.9148C19.288 18.0375 18.5957 18.1421 18.5957 18.1421C19.0545 18.5365 19.1511 19.5426 19.1511 19.5426L20.3424 20.7017L20.4068 20.5165C20.3802 20.3617 20.3388 20.2406 20.2941 20.1426C20.6679 20.4878 20.9713 20.6199 21.2114 20.5357C21.4472 20.4541 21.5472 20.1877 21.5894 19.9866C21.9063 20.3782 22.1609 20.5667 22.3735 20.5667C22.415 20.5667 22.4549 20.5595 22.4932 20.5451C22.797 20.4327 22.8556 19.8968 22.8599 19.5387L23.0691 19.8055V20.5165H24.6146C24.6146 20.3031 24.7876 20.1302 25.001 20.1302C25.2143 20.1302 25.3873 20.3031 25.3873 20.5165H26.9328V19.8055L27.1421 19.5387C27.1464 19.8968 27.2052 20.4327 27.5088 20.5451C27.5471 20.5595 27.5869 20.5667 27.6284 20.5667C27.841 20.5667 28.0955 20.378 28.4125 19.9866C28.4548 20.1877 28.5548 20.4541 28.7905 20.5357C29.0318 20.6199 29.3362 20.487 29.7113 20.1395C29.6663 20.2382 29.6241 20.3601 29.5971 20.5166L29.6616 20.7017L30.8529 19.5427C30.8529 19.5427 30.9495 18.5365 31.4083 18.1422C31.4076 18.1418 30.7154 18.0372 30.4257 18.9145Z" fill="#FFE15A"/>
<path d="M23.5515 21.579C23.3914 21.579 23.2617 21.4492 23.2617 21.2893C23.2617 21.1292 23.3915 20.9995 23.5515 20.9995C23.7115 20.9995 23.8412 21.1293 23.8412 21.2893C23.8412 21.4492 23.7114 21.579 23.5515 21.579Z" fill="#F5F5F5"/>
<path d="M26.4499 21.579C26.2898 21.579 26.1602 21.4492 26.1602 21.2893C26.1602 21.1292 26.2899 20.9995 26.4499 20.9995C26.61 20.9995 26.7397 21.1293 26.7397 21.2893C26.7397 21.4492 26.61 21.579 26.4499 21.579Z" fill="#F5F5F5"/>
<path d="M29.3483 21.579C29.1883 21.579 29.0586 21.4492 29.0586 21.2893C29.0586 21.1292 29.1884 20.9995 29.3483 20.9995C29.5084 20.9995 29.6381 21.1293 29.6381 21.2893C29.6381 21.4492 29.5084 21.579 29.3483 21.579Z" fill="#FF4B55"/>
<path d="M20.6555 21.579C20.4954 21.579 20.3657 21.4492 20.3657 21.2893C20.3657 21.1292 20.4955 20.9995 20.6555 20.9995C20.8155 20.9995 20.9452 21.1293 20.9452 21.2893C20.9452 21.4492 20.8154 21.579 20.6555 21.579Z" fill="#FF4B55"/>
<path d="M24.9996 18.5847C25.213 18.5847 25.3859 18.4117 25.3859 18.1983C25.3859 17.985 25.213 17.812 24.9996 17.812C24.7862 17.812 24.6133 17.985 24.6133 18.1983C24.6133 18.4117 24.7862 18.5847 24.9996 18.5847Z" fill="#F5F5F5"/>
<path d="M21.0512 18.5529C20.9176 18.5866 20.841 18.7398 20.8801 18.8949C20.9193 19.0501 21.0594 19.1485 21.193 19.1148C21.3267 19.0811 21.4033 18.9279 21.3642 18.7728C21.325 18.6176 21.1849 18.5192 21.0512 18.5529Z" fill="#F5F5F5"/>
<path d="M28.8102 19.1147C28.9438 19.1484 29.0839 19.0499 29.1231 18.8948C29.1623 18.7396 29.0856 18.5865 28.952 18.5528C28.8183 18.519 28.6782 18.6175 28.6391 18.7726C28.5999 18.9278 28.6765 19.0809 28.8102 19.1147Z" fill="#F5F5F5"/>
<path d="M20.3634 25.7998C19.9984 25.7307 19.5122 25.6803 18.9785 25.7367C18.4558 25.7918 17.8452 25.9543 17.2725 26.3433V28.7907C18.0722 26.8578 19.8556 27.2314 20.3634 27.3847V25.7998Z" fill="#F5F5F5"/>
<path d="M29.6357 25.7998C30.0007 25.7307 30.4869 25.6803 31.0206 25.7367C31.5434 25.7918 32.1539 25.9543 32.7267 26.3433V28.7907C31.9269 26.8578 30.1436 27.2314 29.6357 27.3847V25.7998Z" fill="#F5F5F5"/>
<path d="M22.8926 32.3387C22.8926 32.3387 22.4763 32.992 22.2655 33.0553C22.2655 33.0553 21.9799 33.2634 21.9219 33.2424L22.9242 32.0806L22.8926 32.3387Z" fill="#FF4B55"/>
<path d="M22.8561 32.7157C22.6602 32.6947 22.5062 32.8066 22.4083 32.9396C22.3103 33.0726 22.0465 33.1164 22.0191 32.9436C21.9945 32.7882 22.5419 32.3027 22.5419 32.3027C22.5419 32.3027 22.451 32.139 22.201 32.2027C21.9633 32.2632 21.7295 32.6457 21.7295 32.6457C21.7295 32.6457 21.4919 32.5527 21.301 32.7117L20.4839 33.6463C20.4839 33.6463 21.4875 34.5038 22.7652 33.2404L22.5483 33.1704C22.6182 32.9046 22.8561 32.7157 22.8561 32.7157Z" fill="#73AF00"/>
<path d="M21.649 33.052C21.7014 33.052 21.7438 33.0095 21.7438 32.9571C21.7438 32.9048 21.7014 32.8623 21.649 32.8623C21.5967 32.8623 21.5542 32.9048 21.5542 32.9571C21.5542 33.0095 21.5967 33.052 21.649 33.052Z" fill="#F5F5F5"/>
<path d="M17.6592 16.4244C18.846 16.4203 20.0237 16.6278 21.1364 17.0392V15.8285C20.0196 15.4435 18.8428 15.2607 17.6592 15.2896V16.4244Z" fill="#F5F5F5"/>
<path d="M27.318 15.1073C25.7941 14.7415 24.2054 14.7415 22.6816 15.1073C22.6816 14.7209 22.6816 14.3345 22.6816 13.9482C24.2055 13.5824 25.7942 13.5824 27.318 13.9482C27.318 14.3345 27.318 14.7208 27.318 15.1073Z" fill="#F5F5F5"/>
<path d="M23.068 14.2241C22.1227 14.3119 21.1917 14.5333 20.3042 14.8877C20.3598 15.27 20.4153 15.6524 20.4709 16.0348C21.3061 15.7013 22.1802 15.4881 23.068 15.3903V14.2241Z" fill="#F5F5F5"/>
<path d="M17.2725 17.7478C17.7988 17.6008 18.3348 17.4925 18.8772 17.4329V16.2666C18.3354 16.3169 17.7995 16.4164 17.2725 16.5543V17.7478Z" fill="#F5F5F5"/>
<path d="M32.341 16.4244C31.1542 16.4203 29.9765 16.6278 28.8638 17.0392V15.8285C29.9806 15.4435 31.1574 15.2607 32.341 15.2896V16.4244Z" fill="#F5F5F5"/>
<path d="M26.9316 14.2241C27.8769 14.3119 28.8079 14.5333 29.6954 14.8877C29.6398 15.27 29.5843 15.6524 29.5287 16.0348C28.6935 15.7013 27.8194 15.4881 26.9316 15.3903V14.2241Z" fill="#F5F5F5"/>
<path d="M32.7269 17.7478C32.2005 17.6008 31.6645 17.4925 31.1221 17.4329V16.2666C31.6639 16.3169 32.1998 16.4164 32.7269 16.5543V17.7478Z" fill="#F5F5F5"/>
</g>
<defs>
<clipPath id="clip0_106_18511">
<rect width="50" height="50" fill="white"/>
</clipPath>
</defs>
</svg>
