<svg width="50" height="50" viewBox="0 0 50 50" fill="none" xmlns="http://www.w3.org/2000/svg">
<g clip-path="url(#clip0_106_18479)">
<path d="M49.1388 41.3792H0.863084C0.387011 41.3792 0.000976562 40.9932 0.000976562 40.5171V9.48271C0.000976562 9.00664 0.387011 8.62061 0.863084 8.62061H49.1389C49.6149 8.62061 50.001 9.00664 50.001 9.48271V40.5171C50.0009 40.9933 49.6148 41.3792 49.1388 41.3792Z" fill="#82AFFF"/>
<path d="M24.8882 13.3367L24.224 15.3281L22.1249 15.3444C22.0099 15.3453 21.9621 15.4922 22.0547 15.5606L23.7434 16.8076L23.1102 18.8089C23.0755 18.9186 23.2004 19.0095 23.294 18.9425L25.0017 17.7218L26.7096 18.9425C26.8032 19.0094 26.9281 18.9187 26.8934 18.8089L26.2602 16.8076L27.9488 15.5606C28.0414 15.4923 27.9936 15.3454 27.8786 15.3444L25.7795 15.3281L25.1153 13.3367C25.079 13.2276 24.9245 13.2276 24.8882 13.3367Z" fill="#F5F5F5"/>
<path d="M24.8882 31.1161L24.224 33.1075L22.1249 33.1238C22.0099 33.1247 21.9621 33.2715 22.0547 33.34L23.7434 34.587L23.1102 36.5883C23.0755 36.698 23.2004 36.7889 23.294 36.7219L25.0017 35.5012L26.7096 36.7219C26.8032 36.7888 26.9281 36.6981 26.8934 36.5883L26.2602 34.587L27.9488 33.34C28.0414 33.2716 27.9936 33.1248 27.8786 33.1238L25.7795 33.1075L25.1153 31.1161C25.079 31.0069 24.9245 31.0069 24.8882 31.1161Z" fill="#F5F5F5"/>
<path d="M36.6648 24.8862L34.6734 24.2221L34.6571 22.123C34.6562 22.0079 34.5094 21.9602 34.4409 22.0527L33.1939 23.7414L31.1926 23.1082C31.0829 23.0735 30.9921 23.1984 31.059 23.292L32.2797 24.9997L31.059 26.7076C30.9921 26.8013 31.0828 26.9262 31.1926 26.8914L33.1939 26.2582L34.4409 27.9469C34.5093 28.0394 34.6561 27.9917 34.6571 27.8767L34.6734 25.7775L36.6648 25.1134C36.7739 25.0771 36.7739 24.9226 36.6648 24.8862Z" fill="#F5F5F5"/>
<path d="M13.3386 24.8862L15.3301 24.2221L15.3464 22.123C15.3472 22.0079 15.4941 21.9602 15.5626 22.0527L16.8095 23.7414L18.8109 23.1082C18.9206 23.0735 19.0115 23.1984 18.9445 23.292L17.7238 24.9998L18.9445 26.7077C19.0114 26.8014 18.9207 26.9263 18.8109 26.8915L16.8095 26.2583L15.5626 27.947C15.4942 28.0395 15.3473 27.9918 15.3464 27.8768L15.3301 25.7776L13.3386 25.1135C13.2296 25.0771 13.2296 24.9226 13.3386 24.8862Z" fill="#F5F5F5"/>
</g>
<defs>
<clipPath id="clip0_106_18479">
<rect width="50" height="50" fill="white"/>
</clipPath>
</defs>
</svg>
