<svg width="50" height="50" viewBox="0 0 50 50" fill="none" xmlns="http://www.w3.org/2000/svg">
<g clip-path="url(#clip0_106_18429)">
<path d="M33.3345 8.62061H49.1391C49.6151 8.62061 50.0012 9.00664 50.0012 9.48271V40.5172C50.0012 40.9933 49.6151 41.3793 49.1391 41.3793H33.3345V8.62061Z" fill="#FF4B55"/>
<path d="M33.335 8.62109H16.668V41.3799H33.335V8.62109Z" fill="#FFE15A"/>
<path d="M0.863086 8.62061H16.6677V41.3792H0.863086C0.387012 41.3792 0.000976562 40.9932 0.000976562 40.5171V9.48262C0.000976562 9.00654 0.387012 8.62061 0.863086 8.62061Z" fill="#41479B"/>
<path d="M28.056 30.9077L28.4849 30.5581L26.5307 28.1614L26.1018 28.511L28.056 30.9077Z" fill="#FFCD5A"/>
<path d="M26.7453 29.7413L27.603 29.0425L26.7434 27.9873L25.8856 28.686L26.7453 29.7413Z" fill="#FFBE5A"/>
<path d="M24.1402 28.5113L23.7114 28.1616L21.7572 30.5584L22.1861 30.908L24.1402 28.5113Z" fill="#FFCD5A"/>
<path d="M24.3538 28.6866L23.4961 27.9878L22.6365 29.043L23.4942 29.7418L24.3538 28.6866Z" fill="#FFBE5A"/>
<path d="M24.4285 29.061L23.0454 31.8273L24.9817 33.2104V29.3377L24.4285 29.061Z" fill="#FFE15A"/>
<path d="M25.5353 29.061L26.9184 31.8273L24.9819 33.2104V29.3377L25.5353 29.061Z" fill="#FFCD5A"/>
<path d="M21.1094 29.061V21.8687H21.9393C21.9393 21.8687 21.9393 26.5714 21.9393 27.4012C21.9393 28.2312 21.1094 29.061 21.1094 29.061Z" fill="#FFBE5A"/>
<path d="M20.5557 30.4442V21.8687H21.3855C21.3855 21.8687 21.3855 27.9545 21.3855 28.7844C21.3854 29.6143 20.5557 30.4442 20.5557 30.4442Z" fill="#FFCD5A"/>
<path d="M20.0024 31.5507V21.8687H20.8323C20.8323 21.8687 20.8323 29.061 20.8323 29.8909C20.8323 30.7207 20.0024 31.5507 20.0024 31.5507Z" fill="#FFE15A"/>
<path d="M21.939 22.145C21.939 22.145 21.939 26.0869 21.939 27.401C21.939 28.7842 23.9445 28.5997 24.9818 29.614C26.0192 28.5996 28.0247 28.7841 28.0247 27.401C28.0247 26.087 28.0247 22.145 28.0247 22.145H21.939Z" fill="#FF4B55"/>
<path d="M21.939 25.1881C21.939 26.0639 21.939 26.9135 21.939 27.4012C21.939 28.7844 23.9445 28.5999 24.9818 29.6142C26.0192 28.5998 28.0247 28.7843 28.0247 27.4011C28.0247 26.9135 28.0247 26.0638 28.0247 25.188L21.939 25.1881Z" fill="#41479B"/>
<path d="M24.9812 28.784L24.1514 28.2308V27.9541L24.428 27.6775V26.0177L23.5981 25.4645L24.428 24.3579H24.7046L24.9812 24.6347L25.2579 24.3579H25.5346L26.3645 25.4645L25.5346 26.0177V27.6775L25.8111 27.9541V28.2308L24.9812 28.784Z" fill="#FFE15A"/>
<path d="M23.8745 22.4219C23.8745 22.4219 22.7681 22.6985 22.7681 23.8051C22.7681 24.9116 23.8745 25.4648 23.8745 25.4648L24.4277 24.635C22.768 24.0816 23.8745 22.4219 23.8745 22.4219Z" fill="#FFE15A"/>
<path d="M26.0874 22.4219C26.0874 22.4219 27.1938 22.6985 27.1938 23.8051C27.1938 24.9116 26.0874 25.4648 26.0874 25.4648L25.5342 24.635C27.1938 24.0816 26.0874 22.4219 26.0874 22.4219Z" fill="#FFE15A"/>
<path d="M22.2148 25.1883L22.7681 25.4648L23.3214 25.1883L22.7681 24.9116L22.2148 25.1883Z" fill="#FFE15A"/>
<path d="M26.6411 25.1883L27.1943 25.4648L27.7477 25.1883L27.1943 24.9116L26.6411 25.1883Z" fill="#FFE15A"/>
<path d="M24.9811 22.5601L25.1822 22.7661L25.47 22.7626L25.4667 23.0505L25.6727 23.2517L25.4667 23.4527L25.47 23.7406L25.1822 23.7372L24.9811 23.9433L24.78 23.7372L24.492 23.7406L24.4955 23.4527L24.2896 23.2517L24.4955 23.0505L24.492 22.7626L24.78 22.7661L24.9811 22.5601Z" fill="#FFE15A"/>
<path d="M23.1032 26.3963L23.3026 26.6181L23.58 26.5082C23.7236 26.4512 23.8584 26.6074 23.781 26.7412L23.6317 26.9995L23.8221 27.2294C23.9206 27.3483 23.8137 27.5249 23.6626 27.4926L23.3708 27.4303L23.211 27.6824C23.1283 27.8129 22.9274 27.7657 22.9113 27.612L22.8803 27.3152L22.5913 27.2412C22.4416 27.2028 22.4244 26.9972 22.5655 26.9345L22.8382 26.8134L22.8193 26.5157C22.8098 26.3612 23 26.2813 23.1032 26.3963Z" fill="#FFE15A"/>
<path d="M26.7868 27.027C26.8479 26.7123 27.1074 26.4896 27.4101 26.456C27.348 26.4226 27.2819 26.3949 27.2092 26.3809C26.8217 26.3058 26.4467 26.559 26.3716 26.9464C26.2965 27.3339 26.5496 27.7089 26.9371 27.784C27.01 27.7981 27.0816 27.7973 27.1515 27.7895C26.8834 27.6452 26.7259 27.3416 26.7868 27.027Z" fill="#FFE15A"/>
<path d="M23.8745 22.1451L24.4277 19.3788L23.3213 18.5489L23.5979 18.2723H24.1512C24.1512 18.2723 24.4278 17.9956 24.9811 17.9956C25.5343 17.9956 26.0875 18.2723 26.0875 19.1021C26.0875 19.9318 26.3642 22.1449 26.3642 22.1449H23.8745V22.1451Z" fill="#FFE15A"/>
<path d="M21.939 21.0386C21.3278 21.0386 20.8325 21.534 20.8325 22.145H23.0456C23.0455 21.534 22.55 21.0386 21.939 21.0386Z" fill="#FFAA5A"/>
<path d="M21.6622 22.1454H20.0024V20.3041C20.0024 19.946 20.2928 19.6558 20.6508 19.6558H21.0139C21.372 19.6558 21.6622 19.9461 21.6622 20.3041V22.1454Z" fill="#FFBE5A"/>
<path d="M28.8538 29.061V21.8687H28.0239C28.0239 21.8687 28.0239 26.5714 28.0239 27.4012C28.0239 28.2312 28.8538 29.061 28.8538 29.061Z" fill="#FFBE5A"/>
<path d="M29.408 30.4442V21.8687H28.5781C28.5781 21.8687 28.5781 27.9545 28.5781 28.7844C28.5781 29.6143 29.408 30.4442 29.408 30.4442Z" fill="#FFCD5A"/>
<path d="M29.9612 31.5507V21.8687H29.1313C29.1313 21.8687 29.1313 29.061 29.1313 29.8909C29.1313 30.7207 29.9612 31.5507 29.9612 31.5507Z" fill="#FFE15A"/>
<path d="M28.0246 21.0386C28.6357 21.0386 29.1311 21.534 29.1311 22.145H26.918C26.9181 21.534 27.4135 21.0386 28.0246 21.0386Z" fill="#FFAA5A"/>
<path d="M28.3013 22.1454H29.961V20.3041C29.961 19.946 29.6707 19.6558 29.3127 19.6558H28.9497C28.5916 19.6558 28.3014 19.9461 28.3014 20.3041L28.3013 22.1454Z" fill="#FFBE5A"/>
<path d="M31.5048 25.2959L31.1504 25.0801L27.2766 31.4416L27.631 31.6574L31.5048 25.2959Z" fill="#FFAA5A"/>
<path d="M28.1265 31.2916L28.8174 30.4272L28.1415 29.8869L27.4505 30.7513L28.1265 31.2916Z" fill="#FFE15A"/>
<path d="M31.6186 25.3679L31.0278 25.0083L30.198 26.3717L30.7888 26.7312L31.6186 25.3679Z" fill="#FFCD5A"/>
<path d="M22.8769 31.4362L18.9722 25.396L18.7398 25.5462L22.6446 31.5864L22.8769 31.4362Z" fill="#73AF00"/>
<path d="M21.4285 28.2603C21.3293 28.3728 21.2635 28.5434 21.2469 28.74C21.1104 28.6023 20.9538 28.5146 20.8079 28.4911C20.7694 28.6338 20.7851 28.8127 20.8547 28.9936C20.6685 28.9279 20.486 28.9179 20.3428 28.9622C20.3831 29.1661 20.5492 29.3874 20.8038 29.5393C21.0583 29.6912 21.332 29.7322 21.5306 29.6709L21.5874 29.6342C21.7248 29.4782 21.7997 29.2119 21.7657 28.9175C21.7314 28.623 21.5978 28.3808 21.4285 28.2603Z" fill="#73AF00"/>
<path d="M21.5584 29.9298C21.7112 29.9298 21.8351 29.8059 21.8351 29.6531C21.8351 29.5003 21.7112 29.3765 21.5584 29.3765C21.4056 29.3765 21.2817 29.5003 21.2817 29.6531C21.2817 29.8059 21.4056 29.9298 21.5584 29.9298Z" fill="#FF4B55"/>
<path d="M20.3768 26.6338C20.2775 26.7463 20.2117 26.9169 20.1951 27.1136C20.0587 26.9759 19.9021 26.8882 19.7562 26.8646C19.7177 27.0073 19.7333 27.1862 19.8029 27.3671C19.6167 27.3015 19.4343 27.2914 19.291 27.3357C19.3313 27.5397 19.4975 27.7609 19.7521 27.9128C20.0065 28.0647 20.2803 28.1058 20.4788 28.0444L20.5356 28.0077C20.673 27.8518 20.748 27.5854 20.714 27.291C20.6798 26.9965 20.5461 26.7542 20.3768 26.6338Z" fill="#73AF00"/>
<path d="M20.5076 28.3038C20.6604 28.3038 20.7843 28.1799 20.7843 28.0271C20.7843 27.8744 20.6604 27.7505 20.5076 27.7505C20.3548 27.7505 20.231 27.8744 20.231 28.0271C20.231 28.1799 20.3548 28.3038 20.5076 28.3038Z" fill="#FF4B55"/>
<path d="M19.3255 25.0078C19.2263 25.1203 19.1604 25.2909 19.1438 25.4876C19.0074 25.3499 18.8508 25.2622 18.7049 25.2387C18.6664 25.3813 18.682 25.5603 18.7517 25.7411C18.5654 25.6755 18.383 25.6654 18.2397 25.7098C18.2801 25.9137 18.4462 26.135 18.7008 26.2868C18.9553 26.4388 19.229 26.4798 19.4275 26.4185L19.4844 26.3817C19.6218 26.2258 19.6967 25.9595 19.6627 25.665C19.6283 25.3705 19.4947 25.1282 19.3255 25.0078Z" fill="#73AF00"/>
<path d="M19.4559 26.6778C19.6087 26.6778 19.7325 26.554 19.7325 26.4012C19.7325 26.2484 19.6087 26.1245 19.4559 26.1245C19.3031 26.1245 19.1792 26.2484 19.1792 26.4012C19.1792 26.554 19.3031 26.6778 19.4559 26.6778Z" fill="#FF4B55"/>
<path d="M22.79 30.752L22.0991 29.8877L21.4232 30.428L22.1141 31.2923L22.79 30.752Z" fill="#FFE15A"/>
<path d="M23.5991 17.4429H23.3218V19.3793H23.5991V17.4429Z" fill="#FFE15A"/>
<path d="M23.8743 17.7192H23.0444V17.9959H23.8743V17.7192Z" fill="#FFE15A"/>
<path d="M23.3223 18.549L24.1521 19.1715V18.2725H23.5989L23.3223 18.549Z" fill="#FF875A"/>
<path d="M23.5985 17.4423V17.7189H23.8751V17.9956H23.5985V18.2723H24.1517C24.1517 18.2723 24.4283 17.9956 24.9816 17.9956C25.5348 17.9956 26.088 18.2723 26.088 19.1021C26.088 19.9319 26.3647 22.1449 26.3647 22.1449H26.9179C26.9179 21.5338 27.4133 21.0385 28.0243 21.0385C28.1204 21.0385 28.212 21.0545 28.301 21.0776V20.4853C28.301 20.027 28.6726 19.6554 29.1309 19.6554C29.5892 19.6554 29.9608 20.027 29.9608 20.4853V21.8685V22.1451V27.0305L30.318 26.4437L30.1999 26.3718L31.0298 25.0083L31.1479 25.0802L31.3251 25.1882L31.6205 25.368L30.7907 26.7314L30.6725 26.6596L29.9608 27.8289V31.5509C29.9608 31.5509 29.3002 30.8885 29.1588 30.1557C29.0577 30.0258 28.9413 29.8602 28.8389 29.6721L28.5223 30.1922L28.8166 30.4274L28.1257 31.2918L27.9422 31.1451L27.6295 31.6589L27.2751 31.4431L27.6155 30.8839L27.4502 30.7518L27.6855 30.4573L26.9596 29.5671L26.745 29.7419L26.0996 28.9499C25.9279 29.0189 25.758 29.0948 25.5947 29.1815L26.9176 31.8275L24.9812 33.2107L23.0448 31.8275L24.3677 29.1815C24.27 29.1297 24.1708 29.0806 24.0694 29.0358L23.4941 29.7419L23.2795 29.5671L22.5536 30.4573L22.7889 30.7518L22.5539 30.9395L22.875 31.4362L22.6427 31.5864L22.3367 31.1132L22.1134 31.2917L21.4225 30.4273L21.7329 30.1792L21.5684 29.9246C21.5645 29.9247 21.5607 29.9248 21.5568 29.9248C21.4663 29.9248 21.3778 29.8845 21.3251 29.8029C21.3027 29.7683 21.2906 29.7304 21.2852 29.6921C21.2331 29.689 21.1804 29.6815 21.1255 29.6685C21.0227 29.858 20.9055 30.0249 20.8038 30.1557C20.6625 30.8886 20.0019 31.5509 20.0019 31.5509V28.0221C19.9183 27.9958 19.834 27.9624 19.7511 27.9129C19.4966 27.7609 19.3304 27.5396 19.2901 27.3358C19.3483 27.3179 19.4128 27.3089 19.4816 27.3089C19.5822 27.3089 19.6915 27.3283 19.8021 27.3672C19.766 27.2734 19.745 27.1807 19.7381 27.0928L19.466 26.6719C19.4621 26.672 19.4583 26.6721 19.4544 26.6721C19.364 26.6721 19.2754 26.6317 19.2228 26.5502C19.2003 26.5155 19.1882 26.4776 19.1827 26.4394C19.0296 26.4302 18.8618 26.3833 18.7 26.2868C18.4455 26.1349 18.2793 25.9136 18.239 25.7098C18.2972 25.6918 18.3618 25.6828 18.4305 25.6828C18.5311 25.6828 18.6405 25.7021 18.751 25.7411C18.6814 25.5602 18.6658 25.3813 18.7042 25.2387C18.8501 25.2622 19.0068 25.3499 19.1432 25.4876C19.1598 25.2909 19.2256 25.1203 19.3247 25.0078C19.4941 25.1283 19.6277 25.3706 19.6617 25.6651C19.6833 25.8524 19.6572 26.0246 19.6026 26.1681C19.6353 26.1889 19.6649 26.2153 19.6872 26.2501C19.7422 26.3352 19.7403 26.4374 19.6983 26.5219L19.9703 26.9428C19.9809 26.9486 19.9912 26.9557 20.0018 26.9622V22.1454V21.8687V20.4855C20.0018 20.0272 20.3734 19.6557 20.8317 19.6557C21.29 19.6557 21.6616 20.0272 21.6616 20.4855V21.0779C21.7504 21.0549 21.842 21.0388 21.9382 21.0388C22.5493 21.0388 23.0447 21.5342 23.0447 22.1452H23.8745L24.4278 19.3789L24.1511 19.1715L23.5979 18.7565V19.379H23.3212V17.9958H23.0446V17.7191H23.3212V17.4425H23.599L23.5985 17.4423ZM28.0391 30.0148L28.1412 29.887L28.1956 29.9305L28.6415 29.1979C28.6027 29.0625 28.5778 28.9235 28.5778 28.7842C28.5778 28.7706 28.5778 28.752 28.5778 28.7355C28.3364 28.418 28.0245 27.9099 28.0245 27.401C28.0245 27.9836 27.6669 28.2871 27.1775 28.5203L27.6033 29.0429L27.3889 29.2175L28.0391 30.0148ZM21.9507 30.0051L22.0986 29.8869L22.2007 30.0147L22.8509 29.2172L22.6366 29.0426L22.9886 28.6105C22.3977 28.3638 21.9386 28.0614 21.9386 27.4009C21.9386 27.7713 21.7733 28.1409 21.5903 28.4376C21.6772 28.5651 21.7427 28.7282 21.7646 28.9171C21.7863 29.1044 21.7601 29.2766 21.7055 29.42C21.7382 29.4408 21.7678 29.4673 21.7902 29.502C21.8451 29.5871 21.8432 29.6893 21.8012 29.7738L21.9507 30.0051ZM23.5985 17.2349H23.3218C23.2073 17.2349 23.1144 17.3277 23.1144 17.4423V17.5114H23.0452C22.9307 17.5114 22.8378 17.6043 22.8378 17.7188V17.9955C22.8378 18.1101 22.9307 18.2029 23.0452 18.2029H23.1144V19.3786C23.1144 19.4932 23.2073 19.586 23.3218 19.586H23.5985C23.713 19.586 23.8059 19.4932 23.8059 19.3786V19.1712L24.0272 19.3371L24.1991 19.4661L23.7048 21.9374H23.2362C23.1364 21.3111 22.5925 20.831 21.9385 20.831C21.9156 20.831 21.8926 20.8317 21.8694 20.8331V20.4852C21.8694 19.9132 21.4039 19.4478 20.832 19.4478C20.26 19.4478 19.7946 19.9132 19.7946 20.4852V21.8684V22.145V25.3265C19.7197 25.1199 19.5979 24.9471 19.4452 24.8384C19.4089 24.8125 19.3668 24.7999 19.3251 24.7999C19.2674 24.7999 19.2102 24.8239 19.1695 24.8701C19.1056 24.9427 19.0531 25.031 19.0139 25.1306C18.9231 25.0813 18.8296 25.0481 18.7374 25.0333C18.7263 25.0314 18.7153 25.0306 18.7043 25.0306C18.612 25.0306 18.529 25.0923 18.5042 25.184C18.4799 25.274 18.4718 25.3729 18.4794 25.4759C18.4631 25.4751 18.4469 25.4747 18.4308 25.4747C18.3409 25.4747 18.2559 25.4869 18.1781 25.5109C18.0766 25.5423 18.0152 25.6452 18.0357 25.7494C18.0894 26.0205 18.298 26.2879 18.5939 26.4644C18.7304 26.5458 18.8786 26.6017 19.0291 26.6289C19.0352 26.6403 19.0417 26.6515 19.0488 26.6623C19.1168 26.7677 19.2237 26.8401 19.3458 26.8672L19.497 27.1011C19.4919 27.101 19.4869 27.101 19.482 27.101C19.3921 27.101 19.3071 27.1132 19.2292 27.1372C19.1278 27.1686 19.0663 27.2715 19.0868 27.3757C19.1406 27.6468 19.3492 27.9142 19.645 28.0906C19.6923 28.1188 19.7415 28.1438 19.7947 28.1664V31.55C19.7947 31.634 19.8453 31.7097 19.9229 31.7417C19.9486 31.7522 19.9754 31.7574 20.0021 31.7574C20.0562 31.7574 20.1093 31.7363 20.1491 31.6964C20.1773 31.6682 20.828 31.0087 20.9976 30.2434C21.0673 30.1517 21.1318 30.0592 21.1904 29.9666C21.2572 30.0437 21.3475 30.097 21.4485 30.1194L21.4575 30.1332L21.2936 30.2643C21.2506 30.2986 21.223 30.3486 21.2169 30.4034C21.2108 30.458 21.2267 30.513 21.2611 30.556L21.952 31.4203C21.9864 31.4633 22.0364 31.4909 22.0911 31.497C22.0988 31.4979 22.1065 31.4982 22.1141 31.4982C22.161 31.4982 22.2067 31.4824 22.2436 31.4528L22.2877 31.4176L22.4691 31.6981C22.499 31.7443 22.5459 31.7769 22.5997 31.7884C22.6142 31.7915 22.6287 31.793 22.6433 31.793C22.6829 31.793 22.7222 31.7816 22.7559 31.7597L22.8901 31.6729L22.8597 31.7338C22.814 31.8251 22.8416 31.936 22.9246 31.9954L24.8611 33.3786C24.8972 33.4044 24.9394 33.4173 24.9817 33.4173C25.024 33.4173 25.0661 33.4044 25.1023 33.3786L27.0387 31.9954C27.1218 31.936 27.1493 31.8252 27.1036 31.7338L25.8735 29.2733C25.9256 29.2487 25.98 29.2243 26.0369 29.1998L26.5847 29.872C26.6257 29.9223 26.6855 29.9483 26.7457 29.9483C26.7918 29.9483 26.8382 29.933 26.8767 29.9017L26.9305 29.8579L27.4194 30.4575L27.2887 30.621C27.2543 30.664 27.2385 30.7188 27.2446 30.7735C27.2507 30.8283 27.2783 30.8783 27.3212 30.9127L27.3439 30.9308L27.0984 31.334C27.0388 31.4318 27.0699 31.5594 27.1677 31.619L27.5221 31.8349C27.5548 31.8548 27.5922 31.8651 27.6301 31.8651C27.6465 31.8651 27.663 31.8632 27.6791 31.8592C27.7325 31.8461 27.7787 31.8125 27.8074 31.7654L27.9975 31.453C28.0357 31.4832 28.081 31.4979 28.1262 31.4979C28.187 31.4979 28.2474 31.4711 28.2884 31.4199L28.9793 30.5556C29.0047 30.5237 29.0193 30.4867 29.0235 30.4491C29.2489 31.1232 29.7889 31.6704 29.8145 31.6961C29.8541 31.7358 29.9074 31.7571 29.9615 31.7571C29.9882 31.7571 30.015 31.752 30.0407 31.7414C30.1182 31.7093 30.1689 31.6337 30.1689 31.5497V27.8859L30.7487 26.9336C30.7628 26.9365 30.777 26.938 30.7911 26.938C30.8612 26.938 30.9295 26.9025 30.9686 26.8383L31.7985 25.4748C31.8272 25.4278 31.8359 25.3714 31.8228 25.3179C31.8097 25.2645 31.776 25.2183 31.729 25.1896L31.4336 25.0099L31.2565 24.902L31.1381 24.83C31.1045 24.8095 31.0672 24.7998 31.0306 24.7998C30.9606 24.7998 30.8922 24.8353 30.8533 24.8995L30.169 26.0237V22.1443V21.8677V20.485C30.169 19.913 29.7035 19.4476 29.1316 19.4476C28.5596 19.4476 28.0942 19.913 28.0942 20.485V20.8329C28.071 20.8315 28.048 20.8308 28.025 20.8308C27.371 20.8308 26.8272 21.3109 26.7274 21.9372H26.549C26.4835 21.3926 26.296 19.7719 26.296 19.1018C26.296 18.133 25.6172 17.7878 24.9821 17.7878C24.5116 17.7878 24.2081 17.9671 24.078 18.0645H24.0711C24.0787 18.0428 24.0829 18.0195 24.0829 17.9953V17.7187C24.0829 17.6041 23.9901 17.5112 23.8755 17.5112H23.8064V17.4421C23.8059 17.3277 23.713 17.2349 23.5985 17.2349ZM21.8317 28.4373C21.8848 28.3438 21.9311 28.2517 21.9709 28.1608C22.1439 28.393 22.3927 28.558 22.6575 28.6887L22.4759 28.9116C22.4411 28.9543 22.4247 29.009 22.4303 29.0638C22.4359 29.1186 22.4629 29.1688 22.5056 29.2035L22.5589 29.2471L22.1893 29.7004C22.1682 29.69 22.1452 29.6834 22.1214 29.6807C22.1138 29.6798 22.106 29.6794 22.0985 29.6794C22.0778 29.6794 22.0575 29.6825 22.0378 29.6885C22.0473 29.5842 22.0226 29.4795 21.9645 29.3895C21.9575 29.3786 21.9499 29.368 21.942 29.3578C21.9789 29.2095 21.9889 29.0514 21.9707 28.8934C21.952 28.7312 21.9044 28.5759 21.8317 28.4373ZM27.4986 28.586C27.6813 28.4795 27.8587 28.3445 27.9933 28.1632C28.0992 28.4051 28.2385 28.6251 28.3703 28.8047C28.372 28.9202 28.3878 29.0392 28.4183 29.1654L28.1033 29.6829C28.0852 29.6862 28.0672 29.6921 28.0503 29.7004L27.6807 29.2471L27.734 29.2035C27.7767 29.1687 27.8037 29.1185 27.8093 29.0638C27.8149 29.0091 27.7986 28.9543 27.7637 28.9116L27.4986 28.586ZM23.4944 29.9489C23.5546 29.9489 23.6143 29.9228 23.6554 29.8726L24.0053 29.4433L23.0583 31.3372C23.0558 31.3324 23.053 31.3277 23.0499 31.323L22.8308 30.9839L22.9192 30.9132C22.9621 30.8788 22.9898 30.8288 22.9958 30.774C23.002 30.7194 22.9861 30.6645 22.9517 30.6216L22.821 30.4581L23.3099 29.8584L23.3637 29.9021C23.4019 29.9338 23.4483 29.9489 23.4944 29.9489ZM28.7946 30.1436L28.8397 30.0693C28.8793 30.1277 28.9213 30.1859 28.9655 30.2439C28.9694 30.2614 28.9735 30.2787 28.9779 30.2961C28.9687 30.2848 28.9581 30.2743 28.9463 30.2648L28.7946 30.1436Z" fill="#FFAA5A"/>
</g>
<defs>
<clipPath id="clip0_106_18429">
<rect width="50" height="50" fill="white"/>
</clipPath>
</defs>
</svg>
