<svg width="50" height="50" viewBox="0 0 50 50" fill="none" xmlns="http://www.w3.org/2000/svg">
<g clip-path="url(#clip0_106_18410)">
<path d="M33.3325 8.62061H49.1371C49.6132 8.62061 49.9992 9.00664 49.9992 9.48271V40.5172C49.9992 40.9933 49.6132 41.3793 49.1371 41.3793H33.3325V8.62061Z" fill="#FF4B55"/>
<path d="M33.333 8.62109H16.666V41.3799H33.333V8.62109Z" fill="#41479B"/>
<path d="M0.861133 8.62061H16.6657V41.3792H0.861133C0.385059 41.3792 -0.000976562 40.9932 -0.000976562 40.5171V9.48262C-0.000976562 9.00654 0.385059 8.62061 0.861133 8.62061Z" fill="#FF4B55"/>
<path d="M8.36631 22.1703C7.06348 22.1703 5.94678 21.3854 5.45478 20.2642C5.45449 20.2813 5.44971 20.2972 5.44971 20.3143C5.44971 21.925 6.75557 23.2309 8.36631 23.2309C9.97705 23.2309 11.2828 21.925 11.2828 20.3143C11.2828 20.2972 11.278 20.2813 11.2777 20.2643C10.7857 21.3854 9.66904 22.1703 8.36631 22.1703Z" fill="#F9CF02"/>
<path d="M8.36621 21.6406C9.53766 21.6406 10.4873 20.691 10.4873 19.5195C10.4873 18.3481 9.53766 17.3984 8.36621 17.3984C7.19476 17.3984 6.24512 18.3481 6.24512 19.5195C6.24512 20.691 7.19476 21.6406 8.36621 21.6406Z" fill="#F9CF02"/>
<path d="M7.04053 15.5421C7.04053 16.2742 7.63408 16.8678 8.36621 16.8678C9.09834 16.8678 9.6919 16.2742 9.6919 15.5421C9.6919 15.0118 9.36045 14.9455 9.36045 14.7467C9.36045 14.5479 9.55928 14.2827 9.16162 13.9513C9.36045 14.2827 9.0291 14.349 9.0291 14.6804C9.0291 15.0117 9.16162 15.0118 9.16162 15.277C9.16162 15.4234 9.04287 15.542 8.89658 15.542C8.7501 15.542 8.63154 15.4232 8.63154 15.277C8.63154 15.0119 8.89658 14.7467 8.89658 14.3489C8.89658 13.9512 8.83027 13.8187 8.63154 13.4872C8.43272 13.1558 8.10127 12.8906 8.3665 12.6255C7.96875 12.758 8.16768 13.2883 8.16768 13.6198C8.16768 13.9513 7.90264 14.1501 7.90264 14.5479C7.90264 14.9456 8.10146 15.0118 8.10146 15.277C8.10146 15.4234 7.98272 15.542 7.83643 15.542C7.69014 15.542 7.57139 15.4232 7.57139 15.277C7.57139 15.0119 7.70391 15.0119 7.70391 14.6804C7.70391 14.3488 7.37246 14.2826 7.57139 13.9513C7.17363 14.2827 7.37256 14.5479 7.37256 14.7467C7.37197 14.9455 7.04053 15.0117 7.04053 15.5421Z" fill="#F9CF02"/>
<path d="M2.5332 23.9801V36.2689C2.5332 36.3898 2.63125 36.4878 2.75205 36.4878H4.96563C5.08652 36.4878 5.18447 36.3897 5.18447 36.2689V23.9801C5.18447 23.8592 5.08643 23.7612 4.96563 23.7612H2.75205C2.63125 23.7611 2.5332 23.8592 2.5332 23.9801Z" fill="#F9CF02"/>
<path d="M11.5479 23.9801V36.2689C11.5479 36.3898 11.6459 36.4878 11.7667 36.4878H13.9803C14.1012 36.4878 14.1991 36.3897 14.1991 36.2689V23.9801C14.1991 23.8592 14.1011 23.7612 13.9803 23.7612H11.7667C11.6458 23.7611 11.5479 23.8592 11.5479 23.9801Z" fill="#F9CF02"/>
<path d="M5.71484 26.1012V26.7239C5.71484 26.8448 5.81289 26.9428 5.93369 26.9428H10.7986C10.9195 26.9428 11.0175 26.8447 11.0175 26.7239V26.1012C11.0175 25.9803 10.9194 25.8823 10.7986 25.8823H5.93369C5.81279 25.8823 5.71484 25.9804 5.71484 26.1012Z" fill="#F9CF02"/>
<path d="M5.71484 33.525V34.1478C5.71484 34.2687 5.81289 34.3666 5.93369 34.3666H10.7986C10.9195 34.3666 11.0175 34.2686 11.0175 34.1478V33.525C11.0175 33.4041 10.9194 33.3062 10.7986 33.3062H5.93369C5.81279 33.3062 5.71484 33.4041 5.71484 33.525Z" fill="#F9CF02"/>
<path d="M6.11008 23.7612H10.6226C10.7336 23.7612 10.774 23.9074 10.6789 23.9646L8.53537 25.2508C8.43137 25.3132 8.30139 25.3132 8.19758 25.2508L6.05383 23.9646C5.95861 23.9074 5.99914 23.7612 6.11008 23.7612Z" fill="#F9CF02"/>
<path d="M6.1101 34.8975H10.6226C10.7336 34.8975 10.7741 35.0437 10.6789 35.1008L8.5352 36.3869C8.4312 36.4493 8.30121 36.4493 8.19741 36.3869L6.05375 35.1007C5.95864 35.0436 5.99916 34.8975 6.1101 34.8975Z" fill="#F9CF02"/>
<path d="M8.62549 27.494C8.54189 27.486 8.46094 27.4688 8.37529 27.4688C6.91719 27.4688 5.73096 28.655 5.73096 30.1131C5.73096 30.9785 6.15371 31.7402 6.79961 32.2208C6.87393 32.2761 6.97217 32.1962 6.93604 32.1107C6.85859 31.9272 6.81504 31.7262 6.81504 31.5145C6.81504 30.6526 7.51748 29.9518 8.38008 29.9544C8.8335 29.9558 9.26816 29.7318 9.46885 29.3252C9.88398 28.4843 9.37744 27.6484 8.62549 27.494ZM8.37529 29.2404C8.0833 29.2404 7.84639 29.0037 7.84639 28.7115C7.84639 28.4195 8.0832 28.1827 8.37529 28.1827C8.66728 28.1827 8.9041 28.4194 8.9041 28.7115C8.904 29.0037 8.66728 29.2404 8.37529 29.2404Z" fill="#F9CF02"/>
<path d="M9.95057 28.0051C9.87625 27.9498 9.77801 28.0298 9.81414 28.1151C9.89168 28.2986 9.93514 28.4997 9.93514 28.7113C9.93514 29.5732 9.2326 30.2741 8.3701 30.2715C7.91668 30.2701 7.48191 30.494 7.28133 30.9007C6.86639 31.7417 7.37293 32.5776 8.12488 32.7318C8.20848 32.7398 8.28943 32.7571 8.37508 32.7571C9.83309 32.7571 11.0194 31.5709 11.0194 30.1128C11.0192 29.2475 10.5965 28.4857 9.95057 28.0051ZM8.37508 32.0432C8.08309 32.0432 7.84617 31.8064 7.84617 31.5142C7.84617 31.2223 8.08299 30.9854 8.37508 30.9854C8.66707 30.9854 8.90389 31.2222 8.90389 31.5142C8.90379 31.8063 8.66707 32.0432 8.37508 32.0432Z" fill="#F9CF02"/>
</g>
<defs>
<clipPath id="clip0_106_18410">
<rect width="50" height="50" fill="white"/>
</clipPath>
</defs>
</svg>
