<svg width="50" height="50" viewBox="0 0 50 50" fill="none" xmlns="http://www.w3.org/2000/svg">
<g clip-path="url(#clip0_106_18366)">
<path d="M49.1373 41.3792H0.861619C0.385546 41.3792 -0.000488281 40.9932 -0.000488281 40.5171V9.48271C-0.000488281 9.00664 0.385546 8.62061 0.861619 8.62061H49.1374C49.6135 8.62061 49.9995 9.00664 49.9995 9.48271V40.5171C49.9994 40.9933 49.6134 41.3792 49.1373 41.3792Z" fill="#41479B"/>
<path d="M24.1374 8.62061H22.6399L14.6546 13.8524V8.62061H10.3442V13.8524L2.35888 8.62061H0.861619C0.385546 8.62061 -0.000488281 9.00654 -0.000488281 9.48262V10.1664L6.85057 14.655H-0.000488281V18.9653H6.85057L-0.000488281 23.454V24.1378C-0.000488281 24.6138 0.385546 24.9999 0.861619 24.9999H2.35908L10.3444 19.768V24.9999H14.6548V19.768L22.64 24.9999H24.1375C24.6135 24.9999 24.9996 24.6138 24.9996 24.1378V23.454L18.1485 18.9654H24.9995V14.6551H18.1484L24.9995 10.1665V9.48271C24.9995 9.00654 24.6134 8.62061 24.1374 8.62061Z" fill="#F5F5F5"/>
<path d="M24.9995 15.5172H13.7926V8.62061H11.2064V15.5172H-0.000488281V18.1033H11.2064V24.9999H13.7926V18.1033H24.9995V15.5172Z" fill="#FF4B55"/>
<path d="M9.48123 14.6554L0.409374 8.7666C0.167968 8.91934 -0.00146484 9.17607 -0.00146484 9.48291V9.52763L7.89784 14.6554H9.48123Z" fill="#FF4B55"/>
<path d="M16.2372 14.6551L24.8675 9.05293C24.7175 8.79912 24.4528 8.62061 24.1365 8.62061H23.9501L14.6538 14.6551H16.2372Z" fill="#FF4B55"/>
<path d="M8.7368 18.9653L0.123047 24.5567C0.271582 24.8167 0.540331 24.9998 0.861229 24.9998H1.02383L10.3203 18.9653H8.7368Z" fill="#FF4B55"/>
<path d="M24.9848 24.2054L16.912 18.9653H15.3286L24.496 24.916C24.7706 24.7886 24.959 24.5215 24.9848 24.2054Z" fill="#FF4B55"/>
<path d="M43.2251 18.2852H31.7729V27.1357H43.2251V18.2852Z" fill="#82AFFF"/>
<path d="M31.7729 27.1357C31.7729 30.1546 35.1566 32.6017 37.4993 32.6017C39.5816 32.6017 43.2257 30.1545 43.2257 27.1357H31.7729Z" fill="#C86464"/>
<path d="M39.0282 21.5176C39.2126 21.5501 39.5271 21.5936 39.5597 22.0382C39.5922 22.4828 39.4295 24.0663 39.2669 24.2614C39.2669 24.2614 39.7983 25.4653 39.82 26.181C39.8417 26.8969 39.7441 29.0388 39.8092 29.3804C39.8743 29.722 40.1183 30.4216 40.1183 30.4216C40.1183 30.4216 39.3699 29.9823 39.0771 30.2589C38.7844 30.5353 37.7106 30.9096 37.2876 30.4704C37.2876 30.4704 37.7919 29.0389 37.7919 27.412C37.7919 25.7851 37.7919 21.767 37.7919 21.767C37.7919 21.767 38.0034 21.5989 38.2799 21.5935C38.5564 21.5881 39.0282 21.5176 39.0282 21.5176Z" fill="#73AF00"/>
<path d="M39.1374 30.1182C39.1699 30.3242 39.2566 30.4761 39.2132 30.5519C39.1698 30.6279 38.8879 31.322 39.0505 31.322C39.2131 31.322 39.4952 31.2352 39.5711 31.0834C39.647 30.9315 39.6795 30.7038 39.723 30.6388C39.7665 30.5737 39.647 30.2483 39.5495 30.1941C39.4519 30.1398 39.1374 30.1182 39.1374 30.1182Z" fill="#FFF5E1"/>
<path d="M37.2607 21.9733L36.6642 22.0493C36.6642 22.0493 36.7401 21.6589 36.751 21.3877C36.7618 21.1166 36.7835 20.6177 36.7835 20.6177C36.7835 20.6177 37.2064 20.3574 37.2173 20.314C37.2226 20.2923 37.2728 20.1567 37.2336 20.0862C37.1943 20.0157 37.0655 20.0103 37.0655 20.0103C37.0655 20.0103 36.5666 20.2705 36.5666 20.314C36.5666 20.3574 36.5666 20.6177 36.5124 20.7152C36.4582 20.8129 36.1545 21.6263 36.1328 21.8432C36.1111 22.0601 36.0786 22.5156 36.1653 22.5373C36.252 22.559 37.1522 22.6566 37.2499 22.6132C37.3474 22.5698 37.2607 21.9733 37.2607 21.9733Z" fill="#FFF5E1"/>
<path d="M39.9633 19.8311H37.7923V18.8062H37.044V19.8311H34.873V20.5794H37.044V30.4217H37.7923V20.5794H39.9633V19.8311Z" fill="#464655"/>
<path d="M38.6813 21.1596C38.6813 21.1596 39.408 21.3689 39.5056 21.1271C39.6194 20.845 39.2398 20.8071 39.1693 20.5089C39.1614 20.4755 39.0934 20.0751 38.8006 19.9992C38.5078 19.9233 38.2366 19.9992 38.2258 20.1945C38.215 20.3897 38.6813 21.1596 38.6813 21.1596Z" fill="#963C3C"/>
<path d="M38.291 22.0814C38.2695 22.085 38.2368 21.8645 38.2802 21.5934C38.3236 21.3223 38.2802 21.2354 38.2802 21.2354C38.2802 21.2354 37.9766 21.268 37.9766 21.1487C37.9766 21.0295 38.0416 20.4763 38.226 20.1943C38.226 20.1943 38.3562 20.357 38.5947 20.357C38.5947 20.357 38.5839 20.5522 38.7141 20.6823C38.7141 20.6823 38.5514 20.8232 38.6273 20.9209C38.7033 21.0186 38.8442 21.1378 38.8442 21.1378C38.8442 21.1378 38.8551 21.3656 39.0286 21.5174C39.0285 21.5176 38.8116 21.9947 38.291 22.0814Z" fill="#FFF5E1"/>
<path d="M35.3841 26.7891H35.3188V28.0796H35.3841V26.7891Z" fill="#464655"/>
<path d="M35.6468 26.5391H35.5815V28.3294H35.6468V26.5391Z" fill="#464655"/>
<path d="M35.9075 26.3105H35.8423V28.5576H35.9075V26.3105Z" fill="#464655"/>
<path d="M36.1692 25.9834H36.104V28.8826H36.1692V25.9834Z" fill="#464655"/>
<path d="M36.4309 25.5566H36.3657V29.309H36.4309V25.5566Z" fill="#464655"/>
<path d="M36.6926 25.5566H36.6274V29.4844H36.6926V25.5566Z" fill="#464655"/>
<path d="M37.8029 27.6127C37.5153 26.1171 36.7183 25.2484 36.4364 25.2051C36.1543 25.1617 35.9484 25.3895 35.9267 25.5522C35.905 25.7149 35.7532 26.2029 35.4386 26.4306C35.1241 26.6584 34.5384 26.7885 34.4083 27.2114C34.2782 27.6344 34.6252 27.8188 34.8313 27.7753C34.8467 27.7721 34.8619 27.766 34.8773 27.7609L37.0944 30.4882C37.1748 30.5872 37.3317 30.5711 37.3878 30.4563C37.6157 29.9906 38.0482 28.8879 37.8029 27.6127ZM35.0634 27.643C35.1503 27.5496 35.187 27.421 35.0916 27.2874C34.9289 27.0596 34.7446 27.3851 34.7446 27.3851C34.7446 27.3851 34.6904 27.103 35.1133 26.9621C35.5363 26.8212 36.0135 26.5826 36.2304 26.0728C36.4473 25.5631 36.4365 25.6606 36.4365 25.6606C36.4365 25.6606 37.3041 26.1486 37.4234 27.6778C37.5427 29.207 37.1198 29.8253 37.1198 29.8253L35.0634 27.643Z" fill="#FFE15A"/>
<path d="M37.0433 24.3408C36.9437 24.4045 36.854 24.4594 36.7912 24.4921C36.5878 24.5978 36.3437 24.7036 36.3194 24.8012C36.2951 24.8988 36.1567 24.9802 36.1649 25.0939C36.1731 25.2078 36.1649 25.5494 36.1649 25.5494C36.2869 25.5251 36.5309 25.4843 36.6124 25.3379C36.6937 25.1914 36.7668 24.9067 37.0272 24.7848C37.0318 24.7826 37.0386 24.7804 37.0435 24.7782V24.3408H37.0433Z" fill="#FFF5E1"/>
<path d="M39.199 22.2633C39.077 22.3202 38.711 22.7595 38.6541 22.9629C38.5972 23.1662 38.4183 23.6462 38.4183 23.6462C38.4183 23.6462 38.0486 23.6944 37.792 23.8381V24.5484C37.9343 24.5072 38.0601 24.4666 38.1336 24.4272C38.3451 24.3133 38.646 24.1019 38.8006 24.0611C38.9551 24.0205 39.0852 23.7602 39.1422 23.6057C39.1991 23.4512 39.378 22.9956 39.4024 22.6865C39.4268 22.3772 39.321 22.2064 39.199 22.2633Z" fill="#FFF5E1"/>
<path d="M37.4994 32.7862L37.471 32.7817C31.6576 31.8638 31.5908 26.8288 31.5908 26.6151V18.1035H43.4081V26.615C43.4081 26.8288 43.3413 31.8637 37.5279 32.7816L37.4994 32.7862ZM31.9554 18.468V26.6149C31.9554 26.8158 32.0183 31.5355 37.4994 32.4171C42.9806 31.5355 43.0434 26.8158 43.0434 26.6149V18.468H31.9554Z" fill="#F5F5F5"/>
</g>
<defs>
<clipPath id="clip0_106_18366">
<rect width="50" height="50" fill="white"/>
</clipPath>
</defs>
</svg>
