<svg width="50" height="50" viewBox="0 0 50 50" fill="none" xmlns="http://www.w3.org/2000/svg">
<g clip-path="url(#clip0_106_18396)">
<path d="M48.2763 10.3447H1.72461V39.6552H48.2763V10.3447Z" fill="#C8414B"/>
<path d="M49.1378 8.62061H0.862108C0.386034 8.62061 0 9.00654 0 9.48262V40.517C0 40.9931 0.386034 41.3791 0.862108 41.3791H49.1379C49.614 41.3791 50 40.9931 50 40.517V9.48262C49.9999 9.00654 49.6139 8.62061 49.1378 8.62061ZM48.2758 39.655H1.72412V10.3447H48.2758V39.655Z" fill="#E6B432"/>
<path d="M32.0735 31.7188C32.798 31.7188 33.3853 31.1315 33.3853 30.407C33.3853 29.6825 32.798 29.0952 32.0735 29.0952C31.349 29.0952 30.7617 29.6825 30.7617 30.407C30.7617 31.1315 31.349 31.7188 32.0735 31.7188Z" fill="#41479B"/>
<path d="M34.3755 22.875C33.41 23.6866 32.7607 23.7208 32.7607 23.7208C34.4781 23.0202 34.2986 21.6874 34.2986 21.6874C33.487 22.7554 32.6582 23.0544 32.6582 23.0544C34.3841 21.8839 34.1106 20.3118 34.1106 20.3118C33.5467 21.5593 32.8334 22.0462 32.8334 22.0462C34.2687 20.1366 33.5638 18.9063 33.5638 18.9063C33 20.6749 32.5258 21.1876 32.5258 21.1876C33.6279 18.2399 32.6839 17.3898 32.6839 17.3898C32.6839 18.9704 32.0943 19.8761 32.0943 19.8761C32.7095 17.7914 31.744 16.5952 31.744 16.5952C31.744 16.5952 31.7349 18.2948 31.4076 19.1851C31.3291 19.0657 31.2826 19.0815 31.2826 19.0815C31.1162 20.1732 30.5295 20.9418 30.2761 21.2309C30.2199 20.9589 30.0508 20.8756 30.0508 20.8756C30.0508 20.8756 30.0203 21.1427 29.7806 21.5366C29.6236 21.7947 28.8818 22.3966 28.7622 22.9263C28.6663 23.351 29.0869 23.7037 29.2235 23.7891C29.3602 23.8746 29.5054 24.0284 29.4456 24.2761C29.3858 24.5238 28.9415 24.4981 28.6254 24.4896C28.3093 24.4811 28.2666 25.0022 27.9162 24.9852L27.8568 25.3739L27.7196 25.4039C27.7196 25.4039 26.2843 28.2641 26.1621 29.2374L25.1052 29.3767L24.0482 29.2374C23.9261 28.2641 22.4907 25.4039 22.4907 25.4039L22.3535 25.3739L22.2941 24.9852C21.9438 25.0023 21.9012 24.4811 21.585 24.4896C21.2687 24.4981 20.8245 24.5238 20.7647 24.2761C20.705 24.0283 20.8502 23.8744 20.9868 23.7891C21.1235 23.7037 21.5441 23.3509 21.4481 22.9263C21.3285 22.3965 20.5867 21.7947 20.4297 21.5366C20.19 21.1428 20.1596 20.8756 20.1596 20.8756C20.1596 20.8756 19.9904 20.9589 19.9342 21.2309C19.681 20.9416 19.0942 20.1732 18.9278 19.0815C18.9278 19.0815 18.8813 19.0658 18.8028 19.1851C18.4755 18.2947 18.4664 16.5952 18.4664 16.5952C18.4664 16.5952 17.501 17.7913 18.1161 19.8761C18.1161 19.8761 17.5266 18.9705 17.5266 17.3898C17.5266 17.3898 16.5825 18.2399 17.6847 21.1876C17.6847 21.1876 17.2105 20.675 16.6466 18.9063C16.6466 18.9063 15.9417 20.1366 17.377 22.0462C17.377 22.0462 16.6637 21.5593 16.0998 20.3118C16.0998 20.3118 15.8265 21.8839 17.5522 23.0544C17.5522 23.0544 16.7234 22.7554 15.9118 21.6874C15.9118 21.6874 15.7324 23.0203 17.4497 23.7208C17.4497 23.7208 16.8004 23.6866 15.835 22.875C15.835 22.875 15.6641 24.0541 17.9025 24.6606C17.9025 24.6606 16.9883 24.6435 16.057 24.0198C16.057 24.0198 16.0313 25.1817 17.9452 25.4125C17.9452 25.4125 17.313 25.5064 16.6038 25.2502C16.6038 25.2502 16.6295 26.1899 18.2955 26.3096C18.2955 26.3096 17.6376 26.3608 17.2104 26.2583C17.2104 26.2583 17.2531 27.2237 18.5689 27.0614C18.5689 27.0614 18.1246 27.2066 17.9794 27.2493C17.9794 27.2493 18.0051 28.0375 19.3763 27.7555C19.3763 27.7555 19.1327 27.9072 18.7995 27.9585C18.7995 27.9585 19.0814 28.6164 20.2264 28.3259L19.9914 28.5822C19.9914 28.5822 20.8757 29.0948 21.5549 28.3899L21.3113 28.8257C21.3113 28.8257 21.8881 29.0435 22.2469 28.4797C22.2469 28.4797 22.1486 29.3255 20.9524 29.4794C20.9524 29.4794 20.9951 29.6588 21.0464 29.7271C21.0464 29.7271 20.9694 29.8723 20.2774 29.992C20.2774 29.992 20.4226 30.214 20.5765 30.2825C20.5765 30.2825 20.2774 30.5388 20.1151 30.59C20.1151 30.59 20.3715 30.7181 20.5338 30.7438C20.5338 30.7438 20.175 31.0941 19.7307 31.1026C19.2863 31.1111 18.4919 31.0598 18.4919 31.0598C18.4919 31.0598 18.4834 30.6327 18.2783 30.2652C18.0732 29.8978 18.005 29.8701 18.005 29.8701C18.005 29.8701 18.0498 29.5754 17.9217 29.4536C17.7936 29.3318 17.723 29.2742 17.723 29.2742C17.723 29.2742 17.7914 28.6846 17.6034 28.3173C17.4155 27.9499 16.749 27.1468 16.7148 26.5487C16.6807 25.9507 16.7063 25.7285 16.7063 25.7285L16.5013 25.7798L16.3646 25.4978L16.5952 25.4722L16.5013 25.045L16.1851 25.1646L16.1423 24.7973L15.7664 24.9511L15.9543 25.2843L15.6211 25.3782L15.8177 25.7712L16.074 25.6089L16.1424 25.9506C16.1424 25.9506 15.9886 25.9847 15.9031 26.1215C15.9031 26.1215 16.3259 26.402 16.4499 26.7367C16.6465 27.2665 16.5866 28.4626 16.8686 28.8214C17.1505 29.1802 17.3727 29.4279 17.3727 29.4279C17.3727 29.4279 17.2937 29.6715 17.3833 29.8059C17.473 29.9405 17.6012 29.979 17.6012 29.979C17.6012 29.979 17.5242 30.5237 17.7229 30.8825C17.9216 31.2413 18.0369 31.3311 18.0369 31.3311C18.0369 31.3311 17.3128 31.7732 17.8255 32.2859C17.8255 32.2859 17.7571 32.7515 18.2441 32.8627C18.2441 32.8627 18.2698 33.23 18.6885 33.1874C18.6885 33.1874 18.8935 33.1276 18.9448 33.2301C18.9961 33.3326 18.9448 33.9221 18.9448 33.9221C18.9448 33.9221 19.1327 33.905 19.2523 33.8197L19.6282 34.0076L19.6367 33.5889L20.1066 33.401C20.1066 33.401 19.9016 33.4352 19.4829 33.0423C19.4829 33.0423 19.5513 32.9995 19.6025 32.6663C19.6025 32.6663 19.9357 32.4014 20.0042 32.1879C20.0726 31.9743 20.5425 31.5044 21.0892 31.3506L21.1641 31.6838C21.1641 31.6838 21.9459 30.9918 22.2725 30.9533L22.5417 31.3078C22.5417 31.3078 23.5499 29.8127 23.9941 29.5477C23.9599 29.6674 24.2077 29.6844 23.6566 30.2996C23.1056 30.9148 23.4473 31.4017 23.4473 31.4017C23.1056 31.6837 23.1739 31.94 23.131 32.2305C23.0884 32.5211 21.9519 33.2729 21.9519 33.2729C22.3107 33.7258 22.7124 33.6232 22.7124 33.6232C22.4902 33.7684 22.5586 34.2554 22.5586 34.2554C22.8833 34.3409 23.2079 34.1957 23.2079 34.1957C23.0968 34.5032 23.2677 34.7168 23.2677 34.7168C23.4727 34.5886 23.9427 34.5117 23.9427 34.5117C23.8829 35.0415 24.2246 35.3233 24.2246 35.3233L24.5236 34.9986C24.5749 35.5966 25.1047 35.9384 25.1047 35.9384C25.1047 35.9384 25.6345 35.5966 25.6857 34.9986L25.9847 35.3233C25.9847 35.3233 26.3265 35.0414 26.2667 34.5117C26.2667 34.5117 26.7366 34.5886 26.9417 34.7168C26.9417 34.7168 27.1126 34.5032 27.0014 34.1957C27.0014 34.1957 27.3262 34.3409 27.6508 34.2554C27.6508 34.2554 27.7191 33.7684 27.497 33.6232C27.497 33.6232 27.8986 33.7257 28.2574 33.2729C28.2574 33.2729 27.1211 32.5211 27.0783 32.2305C27.0356 31.94 27.104 31.6838 26.7621 31.4017C26.7621 31.4017 27.1038 30.9147 26.5527 30.2996C26.0016 29.6844 26.2494 29.6673 26.2152 29.5477C26.6596 29.8126 27.6677 31.3078 27.6677 31.3078L27.9368 30.9533C28.2637 30.9918 29.0453 31.6838 29.0453 31.6838L29.1201 31.3506L29.1343 31.3351C29.5419 31.5547 30.2151 31.8515 30.4872 32.0595C30.7777 32.2817 31.017 32.2988 31.7175 32.0595C32.4181 31.8203 33.7216 31.4524 33.5288 31.0172C33.5182 30.9934 33.5063 30.9775 33.4948 30.959C33.5254 30.8466 33.538 30.6504 33.3322 30.4789C33.3322 30.4789 33.3346 30.5266 33.333 30.588L32.6651 30.339C32.643 30.28 32.61 30.222 32.5463 30.1714C32.5463 30.1714 32.5472 30.2226 32.5381 30.2918L32.3668 30.2279L32.7087 29.2661C32.6828 29.2516 32.6537 29.2435 32.6268 29.2308C32.6338 29.1437 32.6502 29.0233 32.6757 28.8974C32.7592 28.9266 32.8354 28.9627 32.8907 29.0079L32.9872 28.6557C32.9872 28.6557 32.8834 28.6489 32.7466 28.6233C32.7811 28.5171 32.8221 28.4217 32.8709 28.36L32.418 28.2233C32.418 28.2233 32.4298 28.3605 32.4218 28.5317C32.3353 28.4967 32.2529 28.4521 32.1863 28.3951L32.0801 28.7859C32.1166 28.7881 32.2402 28.7987 32.3835 28.8243C32.3576 28.939 32.312 29.0408 32.2467 29.1172C32.2305 29.115 32.2156 29.1092 32.1992 29.1076L31.8672 30.0417L30.9668 29.7061C30.9282 29.7669 30.8984 29.8331 30.8706 29.9001C30.8754 29.8903 30.8797 29.8751 30.8847 29.8689C30.8847 29.8689 30.5364 30.0511 30.5412 30.3188C30.477 30.3431 30.4208 30.3913 30.389 30.4748C30.2866 30.7439 30.9144 31.3463 30.7607 31.4231C30.6097 31.4985 29.821 30.8489 29.6945 30.7398C29.8571 30.7083 30.0943 30.5901 30.0943 30.5901C29.9319 30.5388 29.633 30.2826 29.633 30.2826C29.7868 30.2142 29.932 29.9921 29.932 29.9921C29.24 29.8724 29.1631 29.7272 29.1631 29.7272C29.2143 29.6589 29.257 29.4795 29.257 29.4795C28.0609 29.3257 27.9626 28.4798 27.9626 28.4798C28.3214 29.0436 28.8981 28.8258 28.8981 28.8258L28.6546 28.39C29.3338 29.0949 30.218 28.5823 30.218 28.5823L29.9831 28.326C31.1279 28.6165 31.4099 27.9586 31.4099 27.9586C31.0767 27.9073 30.8332 27.7556 30.8332 27.7556C32.2045 28.0376 32.2301 27.2494 32.2301 27.2494C32.0848 27.2066 31.6405 27.0615 31.6405 27.0615C32.9562 27.2239 32.999 26.2584 32.999 26.2584C32.5718 26.3608 31.9139 26.3097 31.9139 26.3097C33.58 26.19 33.6056 25.2503 33.6056 25.2503C32.8965 25.5066 32.2642 25.4126 32.2642 25.4126C34.178 25.1819 34.1524 24.0199 34.1524 24.0199C33.2212 24.6436 32.3069 24.6607 32.3069 24.6607C34.5464 24.054 34.3755 22.875 34.3755 22.875ZM32.4339 31.3269C32.3426 31.1787 32.5601 31.0461 32.6581 30.905L33.0368 31.046C32.9082 31.1994 32.528 31.4798 32.4339 31.3269ZM32.1808 30.7271C32.058 30.9175 31.9725 31.1309 31.5944 31.1411C31.1203 31.1539 31.0433 30.7309 30.9409 30.5003C30.911 30.433 30.8594 30.3822 30.8003 30.3473C30.8001 30.3059 30.8022 30.2605 30.8058 30.2146L32.1808 30.7271Z" fill="#E6B432"/>
<path d="M24.9654 21.7004C24.9654 21.7004 24.3567 21.1813 24.1772 20.8994C24.1772 20.8994 24.3823 20.8161 24.4848 20.688C24.4848 20.688 23.9337 20.3933 23.639 20.0921C23.639 20.0921 23.8312 20.0601 23.9786 19.9383C23.9786 19.9383 23.4837 19.8488 23.2327 19.4436C23.8049 19.2481 23.6134 18.7144 23.6134 18.7144C23.498 18.8682 23.0238 19.0604 22.5112 18.8425C21.9986 18.6246 21.4348 18.7783 21.4348 19.0604C21.4348 19.0604 20.2813 18.7271 20.5697 19.8422C20.5697 19.8422 20.7555 19.4257 21.1656 19.5795C21.5758 19.7333 21.9923 20.2587 21.9923 20.2587C21.9923 20.2587 21.7359 20.3996 21.2618 20.2459C21.2618 20.2459 21.4541 20.9827 22.3191 20.6111C22.3191 20.6111 22.6608 20.7948 22.6779 21.3331C22.6779 21.3331 22.8231 21.2561 22.9172 21.0853C22.9172 21.0853 23.0539 21.6064 22.8745 22.0337C22.8745 22.0337 23.1138 21.991 23.1907 21.9141C23.1907 21.9141 23.2591 22.3669 22.9601 22.7343C22.9601 22.7343 24.2736 23.3601 25.1067 22.6745C25.1067 22.6745 24.7928 22.3157 24.6902 21.9825C24.6898 21.9823 24.8628 21.9118 24.9654 21.7004Z" fill="#E6B432"/>
<path d="M28.778 19.0604C28.778 18.7784 28.2142 18.6246 27.7016 18.8425C27.189 19.0604 26.7147 18.8682 26.5994 18.7144C26.5994 18.7144 26.4078 19.2481 26.9801 19.4436C26.7291 19.8488 26.2342 19.9383 26.2342 19.9383C26.3816 20.0601 26.5738 20.0921 26.5738 20.0921C26.2791 20.3933 25.728 20.688 25.728 20.688C25.8305 20.8161 26.0355 20.8994 26.0355 20.8994C25.8562 21.1813 25.2474 21.7004 25.2474 21.7004C25.3498 21.9118 25.5229 21.9823 25.5229 21.9823C25.4205 22.3155 25.1064 22.6743 25.1064 22.6743C25.9395 23.36 27.2531 22.7341 27.2531 22.7341C26.9541 22.3667 27.0225 21.9139 27.0225 21.9139C27.0994 21.9908 27.3387 22.0335 27.3387 22.0335C27.1593 21.6063 27.296 21.0852 27.296 21.0852C27.3899 21.2561 27.5352 21.3329 27.5352 21.3329C27.5523 20.7946 27.894 20.6109 27.894 20.6109C28.7591 20.9826 28.9514 20.2457 28.9514 20.2457C28.4772 20.3995 28.2209 20.2585 28.2209 20.2585C28.2209 20.2585 28.6374 19.7331 29.0476 19.5793C29.4577 19.4255 29.6434 19.842 29.6434 19.842C29.9313 18.7271 28.778 19.0604 28.778 19.0604Z" fill="#E6B432"/>
<path d="M28.256 25.8676C28.1435 25.2127 28.0465 24.6471 28.329 23.999L28.3818 23.878L27.2629 22.5933L27.1307 22.6373C27.1193 22.6412 25.9498 23.0235 25.2001 22.6485L25.1066 22.6018L25.013 22.6485C24.2668 23.0225 23.0943 22.6412 23.0822 22.6371L22.9499 22.5935L21.8313 23.878L21.884 23.999C22.1666 24.6471 22.0696 25.2127 21.9571 25.8676C21.8511 26.4859 21.7309 27.1869 21.9424 28.0417C22.172 28.9696 22.9452 29.2994 23.627 29.5908C24.1527 29.8151 24.6491 30.027 24.9297 30.4719L25.1065 30.7521L25.2832 30.4719C25.5639 30.027 26.0603 29.8152 26.586 29.5908C27.268 29.2995 28.041 28.9697 28.2705 28.0417C28.4822 27.1868 28.3619 26.4858 28.256 25.8676ZM22.3178 23.9559L23.0857 23.0743C23.4335 23.1699 24.3738 23.3768 25.1065 23.0657C25.8391 23.3769 26.7793 23.1698 27.1273 23.0743L27.8952 23.9559C27.6255 24.666 27.7317 25.2851 27.8438 25.9383C27.9277 26.4277 28.0112 26.9319 27.9411 27.5126H22.2719C22.2019 26.9319 22.2854 26.4277 22.3692 25.9383C22.4813 25.2851 22.5874 24.6659 22.3178 23.9559ZM26.4219 29.2062C25.9467 29.4092 25.4578 29.6178 25.1065 30.0138C24.7552 29.6178 24.2663 29.4092 23.7911 29.2062C23.1243 28.9216 22.549 28.6727 22.3592 27.974H27.8536C27.664 28.6727 27.0887 28.9217 26.4219 29.2062Z" fill="#E6B432"/>
<path d="M22.3167 23.9561L23.0846 23.0745C23.4324 23.1701 24.3727 23.377 25.1054 23.0659C25.838 23.3771 26.7782 23.17 27.1262 23.0745L27.894 23.9561C27.6244 24.6662 27.7306 25.2853 27.8427 25.9385C27.9266 26.4279 28.0101 26.9321 27.9399 27.5128H22.2708C22.2008 26.9321 22.2843 26.4279 22.3681 25.9385C22.4802 25.2853 22.5863 24.6661 22.3167 23.9561Z" fill="#41479B"/>
<path d="M22.3291 27.8521C22.3356 27.882 22.3398 27.9108 22.3475 27.9413C22.5271 28.667 23.1125 28.9169 23.7904 29.2062C24.2656 29.4092 24.7546 29.6178 25.1059 30.0138C25.4571 29.6178 25.9461 29.4092 26.4213 29.2062C27.0992 28.9168 27.6847 28.6669 27.8642 27.9413C27.8718 27.9109 27.876 27.882 27.8826 27.8521H22.3291Z" fill="#73AF00"/>
<path d="M27.6126 25.4286C27.6126 25.0505 27.2533 24.991 26.9267 24.9974C26.6001 25.0039 26.1224 24.9443 26.1102 24.6904C26.1027 24.5321 26.3684 24.5173 26.5414 24.5728C26.6418 24.605 27.2664 24.7165 27.4624 24.2985C27.4624 24.2985 27.234 24.3058 26.9929 24.2517C26.8071 24.21 26.0449 24.3049 25.9077 24.5989C25.7705 24.8928 26.2129 25.1862 26.7224 25.1862C27.2318 25.1862 27.3017 25.2881 27.2977 25.4123C27.2925 25.5756 26.8885 25.6218 26.6562 25.6197C26.2907 25.487 25.4378 25.5909 25.4337 25.5747C25.4288 25.555 25.2369 25.2256 25.2369 25.2256C25.2369 25.2256 25.5861 25.201 25.6304 25.1371C25.6746 25.0732 25.3654 24.8276 25.3654 24.8276C25.3654 24.8276 25.6255 24.7239 25.6353 24.6501C25.6461 24.569 25.4242 24.3769 25.4242 24.3769C25.4242 24.3769 25.51 24.2924 25.5744 24.1482C25.6205 24.0452 25.2544 24.0176 25.2544 24.0176C25.274 23.9393 25.2665 23.8632 25.1694 23.8282C25.0944 23.8011 24.8167 23.9065 24.6273 23.9065C24.438 23.9065 24.366 24.0437 24.366 24.0437C24.366 24.0437 24.0329 24.083 23.9871 24.122C23.9414 24.1613 24.0002 24.416 24.0002 24.416C23.8304 24.3899 23.752 24.2396 23.752 24.2396C23.6671 24.6249 24.0656 24.6642 24.0656 24.6642L24.131 24.8733C24.131 24.8733 24.131 24.8733 24.2942 24.8929C24.4575 24.9125 24.3792 25.0693 24.1244 25.0693C23.8696 25.0693 23.7615 25.3732 23.7615 25.3732C23.5845 25.3782 23.4861 25.2355 23.4468 25.0535C23.4034 24.8532 23.429 24.5454 23.4615 24.3502C23.5009 24.1141 23.3828 24.0453 23.3828 24.0453L23.3041 24.242C23.2992 24.0404 23.1221 24.0207 23.1221 24.0207L23.0926 24.2666C23.004 24.1043 22.8517 24.1781 22.8517 24.1781C22.8517 24.1781 22.9992 24.7092 22.9943 24.7387C22.9894 24.7682 22.9402 24.7928 22.8714 24.719C22.8025 24.6452 22.7534 24.6944 22.7534 24.6944C22.8272 25.2255 23.112 25.1476 23.112 25.1476C23.112 25.1476 23.1247 25.314 23.2107 25.6518C23.3025 26.0124 23.6803 25.9446 23.6803 25.9446C23.6803 26.0621 23.7718 26.232 23.7978 26.6239C23.8239 27.0158 23.4647 27.2902 23.4647 27.2902C23.1381 27.2836 23.1708 27.6037 23.1708 27.6037H24.0722C24.0722 26.7703 24.4305 26.6274 24.4305 26.6274C24.9616 26.652 25.4731 26.4306 25.4731 26.4306C25.3944 26.7503 25.5322 26.883 25.5322 26.883C25.7486 26.8536 25.6404 27.2814 25.5765 27.2814C25.5126 27.2814 25.3797 27.2814 25.3011 27.2814C25.2225 27.2814 24.9961 27.5273 24.9961 27.5273H25.9306C25.9306 27.5273 26.0732 27.3207 26.1224 27.2175C26.1715 27.1142 26.0142 26.9716 26.0044 26.8634C25.9946 26.7552 26.1667 26.6864 26.1667 26.6864C26.3487 26.942 26.7667 26.9569 26.7667 26.9569L26.7569 26.7651C26.7569 26.7651 26.9733 26.8389 27.0225 26.9028C27.0717 26.9666 27.0619 27.2619 26.8013 27.2962C26.5406 27.3306 26.5209 27.5175 26.5209 27.5175C26.5209 27.5175 27.116 27.5175 27.2341 27.5175C27.3521 27.5175 27.4455 27.2962 27.4455 27.2125C27.4455 27.1289 27.4455 26.583 27.4455 26.4649C27.4455 26.3469 27.3472 26.3617 27.116 26.337C26.906 26.3147 26.9262 26.0849 26.8396 25.8182C27.1432 25.808 27.6126 25.7416 27.6126 25.4286Z" fill="#E6B432"/>
<path d="M27.5582 16.4912C27.4997 15.9755 27.0885 15.3187 25.5226 15.0109C25.5174 14.8445 25.4151 14.7035 25.2687 14.6441V14.3567H25.5251V14.0492H25.2687V13.793H24.9612V14.0493H24.7048V14.3568H24.9612V14.6442C24.815 14.7036 24.7125 14.8446 24.7073 15.011C23.1414 15.3189 22.7302 15.9756 22.6717 16.4913C22.5988 17.1344 23.0593 17.7441 23.4746 17.9778V18.3041H26.7554V17.9778C27.1706 17.7441 27.631 17.1343 27.5582 16.4912ZM25.8406 17.4839H25.3814V15.5924C25.7599 15.7634 25.9941 16.0256 26.0623 16.3857C26.1471 16.8342 25.9678 17.2914 25.8406 17.4839ZM24.1675 16.3854C24.2357 16.0253 24.4698 15.7632 24.8484 15.5923V17.4838H24.3891C24.2617 17.2914 24.0825 16.834 24.1675 16.3854ZM23.7879 15.8661C23.7126 16.0172 23.6644 16.1683 23.6399 16.307C23.5657 16.7271 23.6507 17.1541 23.7914 17.4839H23.6837C23.4536 17.3255 23.158 16.9358 23.2016 16.5514C23.232 16.2823 23.436 16.0516 23.7879 15.8661ZM26.5462 17.4839H26.4382C26.5789 17.1543 26.664 16.7273 26.5899 16.3072C26.5653 16.1685 26.5172 16.0172 26.4418 15.866C26.7938 16.0515 26.9978 16.2824 27.0282 16.5513C27.0718 16.9358 26.7762 17.3255 26.5462 17.4839Z" fill="#E6B432"/>
</g>
<defs>
<clipPath id="clip0_106_18396">
<rect width="50" height="50" fill="white"/>
</clipPath>
</defs>
</svg>
