<svg width="50" height="50" viewBox="0 0 50 50" fill="none" xmlns="http://www.w3.org/2000/svg">
<g clip-path="url(#clip0_106_18363)">
<path d="M49.1383 41.3792H0.862596C0.386523 41.3792 0.000488281 40.9932 0.000488281 40.5171V9.48271C0.000488281 9.00664 0.386523 8.62061 0.862596 8.62061H49.1384C49.6145 8.62061 50.0005 9.00664 50.0005 9.48271V40.5171C50.0004 40.9933 49.6144 41.3792 49.1383 41.3792Z" fill="#FF4B55"/>
<path d="M29.0971 27.1446L35.6824 22.3128H27.5272L25.0004 14.5356L22.4735 22.3128H14.3184L20.9036 27.1446L18.3963 34.8616L24.9939 30.1459L25.0004 30.1505L25.0068 30.1459L31.6045 34.8616L29.0971 27.1446ZM30.4181 24.0369L28.536 25.4179L28.0873 24.0369H30.4181ZM22.9285 26.4919L23.7263 24.0368H26.2745L27.0722 26.4919L25.0004 28.0122L22.9285 26.4919ZM25.0004 20.1155L25.7142 22.3128H24.2863L25.0004 20.1155ZM19.5826 24.0369H21.9135L21.4647 25.4179L19.5826 24.0369ZM21.6544 30.4132L22.3675 28.2186L23.5306 29.072L21.6544 30.4132ZM27.6334 28.2186L28.3465 30.4132L26.4703 29.0721L27.6334 28.2186Z" fill="#5A8250"/>
</g>
<defs>
<clipPath id="clip0_106_18363">
<rect width="50" height="50" fill="white"/>
</clipPath>
</defs>
</svg>
