<svg width="50" height="50" viewBox="0 0 50 50" fill="none" xmlns="http://www.w3.org/2000/svg">
<g clip-path="url(#clip0_106_18344)">
<path d="M49.9994 19.5402H-0.000488281V9.48271C-0.000488281 9.00664 0.385546 8.62061 0.861619 8.62061H49.1374C49.6135 8.62061 49.9995 9.00664 49.9995 9.48271L49.9994 19.5402Z" fill="#5AA587"/>
<path d="M49.1373 41.3795H0.861619C0.385546 41.3795 -0.000488281 40.9934 -0.000488281 40.5174V30.46H49.9994V40.5174C49.9994 40.9935 49.6134 41.3795 49.1373 41.3795Z" fill="#FFE15A"/>
<path d="M49.9994 19.54H-0.000488281V30.459H49.9994V19.54Z" fill="#464655"/>
<path d="M49.9994 18.5703H-0.000488281V19.9318H49.9994V18.5703Z" fill="#F5F5F5"/>
<path d="M49.9989 30.0674H-0.000976562V31.4289H49.9989V30.0674Z" fill="#F5F5F5"/>
<path d="M0.31748 41.1708L20.1261 25.4467C20.4138 25.2184 20.4138 24.7815 20.1261 24.5531L0.31748 8.8291C0.127539 8.98721 -0.000488281 9.21631 -0.000488281 9.48271V40.5171C-0.000488281 40.7836 0.127539 41.0127 0.31748 41.1708Z" fill="#FF4B55"/>
<path d="M7.98927 19.3924L9.24952 23.1712L13.2328 23.2021C13.4556 23.2039 13.5478 23.4882 13.3687 23.6205L10.1643 25.9868L11.3657 29.7847C11.4328 29.9971 11.1911 30.1728 11.0099 30.0432L7.76915 27.7268L4.52843 30.0432C4.34718 30.1727 4.10539 29.9971 4.17257 29.7847L5.37404 25.9868L2.16975 23.6205C1.99055 23.4882 2.08293 23.2039 2.30558 23.2021L6.28888 23.1712L7.54913 19.3924C7.61983 19.1811 7.91876 19.1811 7.98927 19.3924Z" fill="#FFE15A"/>
<path d="M7.53837 26.411L7.22685 26.7245H4.62158L5.33262 24.1154L5.62314 23.9702L5.15674 26.2964C5.15283 26.3251 5.15869 26.3537 5.17773 26.3767C5.19502 26.3996 5.22168 26.411 5.25039 26.411H7.53837Z" fill="#F5F5F5"/>
<path d="M8.16348 26.8449C8.05068 26.929 7.91309 26.9769 7.76973 26.9769C7.62637 26.9769 7.48877 26.9291 7.37598 26.8449L7.76973 26.4512L8.16348 26.8449Z" fill="#F5F5F5"/>
<path d="M10.9178 26.7245H8.3125L8.00098 26.411H10.2889C10.3176 26.411 10.3442 26.3996 10.3615 26.3767C10.3806 26.3537 10.3864 26.325 10.3825 26.2964L9.91611 23.9702L10.2066 24.1154L10.9178 26.7245Z" fill="#F5F5F5"/>
<path d="M10.1724 26.22H7.86523V23.8402C8.25137 23.5133 9.27011 23.737 9.70205 23.8707L10.1724 26.22Z" fill="#F5F5F5"/>
<path d="M7.67421 23.8401V26.2199H5.36719L5.8374 23.8708C6.26943 23.7369 7.28818 23.5134 7.67421 23.8401Z" fill="#F5F5F5"/>
<path d="M11.1357 26.7948L10.3806 24.0232C10.373 23.9983 10.3558 23.9754 10.3309 23.9639L9.82635 23.7117C9.8244 23.7097 9.82245 23.7097 9.81874 23.7097C9.81678 23.7097 9.81678 23.7078 9.81493 23.7058C9.7537 23.6848 8.35653 23.2298 7.76972 23.6752C7.1829 23.2298 5.78564 23.6848 5.72451 23.7058C5.72255 23.7078 5.72255 23.7078 5.7207 23.7097C5.71679 23.7097 5.71503 23.7097 5.71308 23.7117L5.20849 23.9639C5.18359 23.9753 5.1665 23.9983 5.15878 24.0232L4.40371 26.7948C4.39609 26.8235 4.40175 26.854 4.41904 26.877C4.43808 26.8999 4.46679 26.9153 4.4955 26.9153H7.17148C7.33007 27.0739 7.54423 27.1675 7.76972 27.1675C7.9953 27.1675 8.20936 27.0739 8.36796 26.9153H11.0439C11.0726 26.9153 11.1013 26.8999 11.1204 26.877C11.1376 26.854 11.1433 26.8235 11.1357 26.7948ZM7.86522 23.8397C8.25136 23.5128 9.2701 23.7365 9.70204 23.8703L10.1723 26.2194H7.86522C7.86522 26.2195 7.86522 23.8397 7.86522 23.8397ZM5.8372 23.8704C6.26923 23.7366 7.28798 23.5129 7.67401 23.8398V26.2196H5.36699L5.8372 23.8704ZM4.62158 26.7241L5.33261 24.115L5.62314 23.9698L5.15673 26.2959C5.15283 26.3246 5.15869 26.3533 5.17773 26.3762C5.19501 26.3992 5.22167 26.4106 5.25039 26.4106H7.53827L7.22675 26.7241H4.62158ZM7.76962 26.9764C7.62626 26.9764 7.48866 26.9287 7.37587 26.8445L7.76962 26.4507L8.16337 26.8445C8.05067 26.9286 7.91308 26.9764 7.76962 26.9764ZM8.31249 26.7241L8.00097 26.4106H10.2889C10.3176 26.4106 10.3442 26.3992 10.3615 26.3762C10.3806 26.3533 10.3864 26.3245 10.3825 26.2959L9.9161 23.9698L10.2066 24.115L10.9177 26.7241H8.31249Z" fill="#464655"/>
<path d="M10.1589 21.3435C10.0615 21.4113 9.92943 21.3997 9.84535 21.3156L9.7182 21.1885V21.4997L8.94017 22.2777H8.62894L7.38422 23.5226H7.07299L4.67964 25.9159C4.62065 25.9749 4.60014 26.062 4.62651 26.1411L4.73911 26.4789L4.27231 26.9457H3.96108L3.00962 27.8972C2.93364 27.9731 2.93364 28.0964 3.00962 28.1724L3.63755 28.8004C3.72817 28.891 3.8768 28.8853 3.9602 28.788L5.36157 27.1013L5.51713 26.6345L5.82836 26.3232L6.45082 27.2568L6.91762 26.79L6.41967 26.0432L6.54369 25.9191C6.6643 25.7985 6.6643 25.6031 6.54369 25.4825L6.45082 25.3896L6.53823 25.3022C7.20238 25.8714 7.99984 26.0185 8.75912 25.6931L8.49906 25.0862C7.87172 25.3551 7.35942 25.1302 7.00307 24.8373L8.31791 23.5225L8.26605 23.2631L8.62914 22.9H8.94037L11.2744 20.5659L10.1589 21.3435Z" fill="#464655"/>
<path d="M5.51875 21.0332L5.20752 21.3444C5.12168 21.4303 5.12168 21.5696 5.20752 21.6557L5.25937 21.7075L4.74072 21.8113L3.34033 23.2117L4.11836 23.9897L5.51875 22.5893L5.62246 22.0706L5.82998 22.2781L5.98554 22.1225L11.1613 27.2983L11.4725 26.9871L6.29677 21.8113L6.45234 21.6557L5.82988 21.0333C5.74404 20.9473 5.60478 20.9473 5.51875 21.0332Z" fill="#464655"/>
</g>
<defs>
<clipPath id="clip0_106_18344">
<rect width="50" height="50" fill="white"/>
</clipPath>
</defs>
</svg>
