<svg width="50" height="50" viewBox="0 0 50 50" fill="none" xmlns="http://www.w3.org/2000/svg">
<g clip-path="url(#clip0_106_18339)">
<path d="M0.000488281 30.46H50.0004V40.5174C50.0004 40.9934 49.6144 41.3795 49.1383 41.3795H0.862596C0.386523 41.3795 0.000488281 40.9934 0.000488281 40.5174V30.46Z" fill="#FF4B55"/>
<path d="M0.862596 8.62061H49.1384C49.6145 8.62061 50.0005 9.00664 50.0005 9.48271V19.5401H0.000488281V9.48262C0.000488281 9.00654 0.386523 8.62061 0.862596 8.62061Z" fill="#FFE15A"/>
<path d="M50.0004 19.54H0.000488281V30.459H50.0004V19.54Z" fill="#73AF00"/>
<path d="M25.4916 14.1564L28.0731 21.8969L36.2325 21.9602C36.7303 21.9641 36.9366 22.5991 36.5363 22.8948L29.9725 27.742L32.4337 35.5216C32.5838 35.9962 32.0435 36.3887 31.6386 36.0993L25.0002 31.3545L18.3619 36.0993C17.957 36.3888 17.4167 35.9962 17.5668 35.5216L20.028 27.742L13.4642 22.8948C13.0638 22.5991 13.2701 21.9639 13.768 21.9602L21.9274 21.8969L24.5089 14.1564C24.6662 13.6842 25.3342 13.6842 25.4916 14.1564Z" fill="#F5F5F5"/>
</g>
<defs>
<clipPath id="clip0_106_18339">
<rect width="50" height="50" fill="white"/>
</clipPath>
</defs>
</svg>
