<svg width="50" height="50" viewBox="0 0 50 50" fill="none" xmlns="http://www.w3.org/2000/svg">
<g clip-path="url(#clip0_106_18320)">
<path d="M49.1385 8.62061H0.86284C0.386767 8.62061 0.000732422 9.00654 0.000732422 9.48262V40.517C0.000732422 40.9931 0.386767 41.3791 0.86284 41.3791H49.1386C49.6147 41.3791 50.0007 40.9931 50.0007 40.517V9.48262C50.0006 9.00654 49.6146 8.62061 49.1385 8.62061Z" fill="#41479B"/>
<path d="M34.5312 24.7895L32.0589 24.2401C31.7038 20.928 29.074 18.2995 25.7619 17.9441L25.2122 15.4705C25.1685 15.2735 24.8351 15.2735 24.7913 15.4705L24.243 17.9383C20.9295 18.2926 18.3001 20.9269 17.9449 24.2401L15.4723 24.7895C15.3737 24.8114 15.3035 24.899 15.3035 25C15.3035 25.1009 15.3737 25.1885 15.4722 25.2104L17.9448 25.7598C18.2999 29.0724 20.9294 31.7037 24.2422 32.0585L24.7912 34.5293C24.8132 34.628 24.9008 34.6982 25.0018 34.6982C25.1028 34.6982 25.1904 34.628 25.2122 34.5294L25.7621 32.0548C29.0739 31.6995 31.7037 29.0717 32.0589 25.7599L34.5314 25.2105C34.6299 25.1885 34.7001 25.101 34.7001 25C34.7001 24.8989 34.6297 24.8114 34.5312 24.7895ZM31.6225 24.143L26.9066 23.0951L25.8591 18.3818C28.8573 18.7686 31.2362 21.1447 31.6225 24.143ZM24.1445 18.381L23.0968 23.0953L18.3824 24.1429C18.7691 21.1447 21.1463 18.7676 24.1445 18.381ZM23.2089 23.5119L24.6969 25H16.5124L23.2089 23.5119ZM18.3826 25.8573L23.097 26.9049L24.1449 31.6204C21.1463 31.2338 18.7691 28.8554 18.3826 25.8573ZM25.0017 33.4893L23.5136 26.7926L25.0017 25.3047V33.4893ZM25.0017 24.6952V16.5106L26.4898 23.2073L25.0017 24.6952ZM25.8599 31.6145L26.9065 26.9047L31.6223 25.8568C31.2361 28.8545 28.8575 31.2272 25.8599 31.6145ZM26.7945 26.488L25.3065 25H33.491L26.7945 26.488Z" fill="#F5F5F5"/>
<path d="M13.7947 25.2157H1.72578C1.60674 25.2157 1.51025 25.1192 1.51025 25.0002C1.51025 24.8812 1.60674 24.7847 1.72578 24.7847H13.7947C13.9137 24.7847 14.0102 24.8812 14.0102 25.0002C14.0102 25.1192 13.9138 25.2157 13.7947 25.2157Z" fill="#F5F5F5"/>
<path d="M48.2776 25.2157H36.2087C36.0896 25.2157 35.9932 25.1192 35.9932 25.0002C35.9932 24.8812 36.0896 24.7847 36.2087 24.7847H48.2776C48.3967 24.7847 48.4931 24.8812 48.4931 25.0002C48.4931 25.1192 48.3967 25.2157 48.2776 25.2157Z" fill="#F5F5F5"/>
<path d="M25.0017 14.0087C24.8826 14.0087 24.7861 13.9122 24.7861 13.7932V10.3449C24.7861 10.2259 24.8826 10.1294 25.0017 10.1294C25.1207 10.1294 25.2172 10.2259 25.2172 10.3449V13.7932C25.2172 13.9123 25.1207 14.0087 25.0017 14.0087Z" fill="#F5F5F5"/>
<path d="M25.0017 39.871C24.8826 39.871 24.7861 39.7745 24.7861 39.6555V36.2072C24.7861 36.0882 24.8826 35.9917 25.0017 35.9917C25.1207 35.9917 25.2172 36.0882 25.2172 36.2072V39.6555C25.2172 39.7745 25.1207 39.871 25.0017 39.871Z" fill="#F5F5F5"/>
</g>
<defs>
<clipPath id="clip0_106_18320">
<rect width="50" height="50" fill="white"/>
</clipPath>
</defs>
</svg>
