<svg width="50" height="50" viewBox="0 0 50 50" fill="none" xmlns="http://www.w3.org/2000/svg">
<g clip-path="url(#clip0_106_18316)">
<path d="M49.1388 41.3791H0.863084C0.387011 41.3791 0.000976562 40.9931 0.000976562 40.517V9.48271C0.000976562 9.00664 0.387011 8.62061 0.863084 8.62061H49.1389C49.6149 8.62061 50.001 9.00664 50.001 9.48271V40.517C50.0009 40.9932 49.6148 41.3791 49.1388 41.3791Z" fill="#41479B"/>
<path d="M50.0009 23.2754H0.000976562V26.7236H50.0009V23.2754Z" fill="#FFE15A"/>
<path d="M11.6386 30.1724L12.1406 32.1782L13.5782 30.6921L13.0101 32.6802L14.9981 32.112L13.5122 33.5498L15.5179 34.0517L13.5122 34.5537L14.9981 35.9913L13.0101 35.4232L13.5782 37.4113L12.1406 35.9253L11.6386 37.931L11.1365 35.9253L9.69892 37.4113L10.2671 35.4232L8.279 35.9913L9.76504 34.5537L7.75928 34.0517L9.76504 33.5498L8.279 32.112L10.2671 32.6802L9.69892 30.6921L11.1365 32.1782L11.6386 30.1724Z" fill="#F5F5F5"/>
</g>
<defs>
<clipPath id="clip0_106_18316">
<rect width="50" height="50" fill="white"/>
</clipPath>
</defs>
</svg>
