<svg width="50" height="50" viewBox="0 0 50 50" fill="none" xmlns="http://www.w3.org/2000/svg">
<g clip-path="url(#clip0_106_18309)">
<path d="M49.1378 41.3792H0.862108C0.386034 41.3792 0 40.9932 0 40.5171V9.48271C0 9.00664 0.386034 8.62061 0.862108 8.62061H49.1379C49.614 8.62061 50 9.00664 50 9.48271V40.5171C49.9999 40.9933 49.6139 41.3792 49.1378 41.3792Z" fill="#F5F5F5"/>
<path d="M1.1207 10.8279L18.9808 23.8796H7.72889H5.21894L6.89432 25.7484L19.9038 40.2588H1.1207V10.8279ZM0.300878 8.84082C0.119922 8.99893 0 9.22392 0 9.48291V40.5173C0 40.9934 0.386034 41.3794 0.862108 41.3794H22.4138L7.72889 25.0002H22.4138L0.300878 8.84082Z" fill="#41479B"/>
<path d="M1.12085 10.8276L18.981 23.8792H7.72904H5.21908L6.89467 25.7479L19.904 40.2584H1.12085V10.8276Z" fill="#FF4B55"/>
<path d="M6.57633 28.945L7.26637 30.3691L8.57604 29.4808C8.63375 29.4416 8.71139 29.4864 8.70631 29.556L8.59196 31.1344L10.1703 31.02C10.2399 31.0149 10.2847 31.0926 10.2455 31.1503L9.35719 32.4599L10.7813 33.15C10.8441 33.1804 10.8441 33.2699 10.7813 33.3004L9.35719 33.9904L10.2455 35.3001C10.2847 35.3578 10.2399 35.4354 10.1703 35.4303L8.59196 35.316L8.70631 36.8943C8.71139 36.9639 8.63375 37.0088 8.57604 36.9695L7.26637 36.0812L6.57633 37.5053C6.54587 37.5681 6.45641 37.5681 6.42594 37.5053L5.73591 36.0812L4.42624 36.9695C4.36853 37.0088 4.29089 36.9639 4.29597 36.8943L4.41032 35.316L2.83201 35.4303C2.76238 35.4354 2.71755 35.3578 2.75681 35.3001L3.64509 33.9904L2.22068 33.3007C2.15789 33.2702 2.15789 33.1807 2.22068 33.1503L3.6448 32.4602L2.75652 31.1506C2.71726 31.0929 2.76208 31.0152 2.83171 31.0203L4.41003 31.1347L4.29567 29.5563C4.2906 29.4867 4.36823 29.4419 4.42595 29.4811L5.73561 30.3694L6.42565 28.9453C6.45632 28.8822 6.54587 28.8822 6.57633 28.945Z" fill="#F5F5F5"/>
<path d="M8.36869 20.7092L7.76957 20.2999L8.29701 19.7471L7.54535 19.6099L7.80238 18.8904L7.0599 19.0708L7.00199 18.3091L6.39711 18.7758L6.03451 18.1035L5.67182 18.776L5.06694 18.3093L5.00903 19.071L4.26655 18.8906L4.52358 19.6101L3.77192 19.7473L4.29936 20.3001L3.70024 20.7094C2.94428 20.3564 2.27964 19.8407 1.75659 19.2028C2.10796 21.2498 3.88696 22.8092 6.03432 22.8092C8.18168 22.8092 9.96058 21.2498 10.312 19.2028C9.78929 19.8406 9.12455 20.3562 8.36869 20.7092Z" fill="#F5F5F5"/>
</g>
<defs>
<clipPath id="clip0_106_18309">
<rect width="50" height="50" fill="white"/>
</clipPath>
</defs>
</svg>
