<svg width="50" height="50" viewBox="0 0 50 50" fill="none" xmlns="http://www.w3.org/2000/svg">
<g clip-path="url(#clip0_106_18288)">
<path d="M49.138 41.3792H0.862352C0.386279 41.3792 0.000244141 40.9932 0.000244141 40.5171V9.48271C0.000244141 9.00664 0.386279 8.62061 0.862352 8.62061H49.1381C49.6142 8.62061 50.0002 9.00664 50.0002 9.48271V40.5171C50.0001 40.9933 49.6141 41.3792 49.138 41.3792Z" fill="#41479B"/>
<path d="M24.1381 8.62061H22.6406L14.6553 13.8524V8.62061H10.345V13.8524L2.35961 8.62061H0.862352C0.386279 8.62061 0.000244141 9.00654 0.000244141 9.48262V10.1664L6.85131 14.655H0.000244141V18.9653H6.85131L0.000244141 23.454V24.1378C0.000244141 24.6138 0.386279 24.9999 0.862352 24.9999H2.35981L10.3451 19.768V24.9999H14.6555V19.768L22.6407 24.9999H24.1382C24.6143 24.9999 25.0003 24.6138 25.0003 24.1378V23.454L18.1492 18.9654H25.0002V14.6551H18.1491L25.0002 10.1665V9.48271C25.0002 9.00654 24.6142 8.62061 24.1381 8.62061Z" fill="#F5F5F5"/>
<path d="M25.0002 15.5172H13.7933V8.62061H11.2072V15.5172H0.000244141V18.1033H11.2072V24.9999H13.7933V18.1033H25.0002V15.5172Z" fill="#FF4B55"/>
<path d="M9.48318 14.6549L0.411327 8.76611C0.169922 8.91885 0.000488281 9.17558 0.000488281 9.48242V9.52715L7.89979 14.6549H9.48318Z" fill="#FF4B55"/>
<path d="M16.2392 14.6551L24.8694 9.05293C24.7194 8.79912 24.4548 8.62061 24.1385 8.62061H23.952L14.6558 14.6551H16.2392Z" fill="#FF4B55"/>
<path d="M8.73827 18.9653L0.124512 24.5567C0.273047 24.8167 0.541796 24.9998 0.862694 24.9998H1.02529L10.3218 18.9653H8.73827Z" fill="#FF4B55"/>
<path d="M24.9866 24.2054L16.9137 18.9653H15.3303L24.4977 24.916C24.7723 24.7886 24.9607 24.5215 24.9866 24.2054Z" fill="#FF4B55"/>
<path d="M38.6208 35.9482C38.5858 35.9482 38.5506 35.9372 38.5206 35.9162L37.5003 35.1871L36.4799 35.9162C36.45 35.9372 36.4146 35.9482 36.3797 35.9482C36.3439 35.9482 36.3086 35.9372 36.2783 35.9153C36.2185 35.8716 36.1929 35.7941 36.2151 35.7234L36.5935 34.5279L35.5851 33.7838C35.5253 33.7392 35.5005 33.6626 35.5232 33.5919C35.5464 33.5212 35.6116 33.4731 35.6861 33.4724L36.9401 33.4622L37.3367 32.2727C37.3603 32.2028 37.4264 32.1548 37.5005 32.1548C37.5746 32.1548 37.6407 32.2027 37.6642 32.2727L38.0608 33.4622L39.3148 33.4724C39.3893 33.4732 39.4546 33.5212 39.4777 33.5919C39.5005 33.6626 39.4756 33.7392 39.4159 33.7838L38.4074 34.5279L38.7858 35.7234C38.8081 35.7941 38.7825 35.8716 38.7226 35.9153C38.692 35.9372 38.6562 35.9482 38.6208 35.9482Z" fill="#FF4B55"/>
<path d="M37.5 32.3272L37.9357 33.6337L39.3128 33.6443L38.2049 34.4624L38.6203 35.7754L37.5 34.9747L36.3796 35.7756L36.795 34.4626L35.6871 33.6445L37.0643 33.6339L37.5 32.3272ZM37.5 31.9824C37.3517 31.9824 37.2198 32.0773 37.1729 32.2182L36.8151 33.2908L35.6845 33.2996C35.5361 33.3007 35.4051 33.3967 35.3592 33.5379C35.3133 33.6791 35.363 33.8337 35.4822 33.9219L36.3918 34.5935L36.0508 35.6716C36.0061 35.8131 36.0568 35.9674 36.1769 36.0546C36.2373 36.0984 36.3084 36.1204 36.3796 36.1204C36.4498 36.1204 36.5201 36.0989 36.5802 36.056L37.5001 35.3985L38.42 36.056C38.4801 36.0988 38.5503 36.1204 38.6205 36.1204C38.6916 36.1204 38.7628 36.0984 38.8233 36.0546C38.9433 35.9673 38.9941 35.8131 38.9493 35.6716L38.6083 34.5935L39.5179 33.9219C39.6373 33.8337 39.6868 33.6791 39.6409 33.5379C39.595 33.3968 39.4641 33.3007 39.3156 33.2996L38.185 33.2908L37.8273 32.2182C37.7802 32.0774 37.6483 31.9824 37.5 31.9824Z" fill="#F5F5F5"/>
<path d="M38.6205 22.0502C38.5852 22.0502 38.5503 22.0392 38.5203 22.0182L37.5 21.2884L36.4796 22.0183C36.4497 22.0392 36.4144 22.0503 36.3794 22.0503C36.3441 22.0503 36.3083 22.0392 36.2781 22.0174C36.2183 21.9736 36.1926 21.8962 36.2149 21.8255L36.5933 20.63L35.5848 19.885C35.525 19.8403 35.5002 19.7629 35.523 19.6931C35.5461 19.6224 35.6118 19.5743 35.6859 19.5735L36.9399 19.5643L37.3365 18.3747C37.3601 18.3049 37.4261 18.2568 37.5002 18.2568C37.5744 18.2568 37.6405 18.3048 37.664 18.3747L38.0606 19.5643L39.3146 19.5735C39.3887 19.5744 39.4543 19.6224 39.4775 19.6931C39.5002 19.7629 39.4753 19.8403 39.4157 19.885L38.4072 20.63L38.7856 21.8255C38.8078 21.8962 38.7823 21.9736 38.7224 22.0174C38.6917 22.0392 38.656 22.0502 38.6205 22.0502Z" fill="#FF4B55"/>
<path d="M37.5 18.4288L37.9357 19.7352L39.3128 19.7459L38.2049 20.564L38.6203 21.877L37.5 21.0762L36.3796 21.877L36.795 20.564L35.6871 19.7459L37.0643 19.7352L37.5 18.4288ZM37.5 18.084C37.3517 18.084 37.2198 18.1789 37.1729 18.3197L36.8151 19.3924L35.6845 19.4012C35.5361 19.4022 35.4051 19.4982 35.3592 19.6394C35.3133 19.7807 35.363 19.9353 35.4822 20.0234L36.3918 20.6951L36.0508 21.7731C36.0061 21.9146 36.0568 22.0689 36.1769 22.1561C36.2373 22.2 36.3084 22.222 36.3796 22.222C36.4498 22.222 36.5201 22.2005 36.5802 22.1576L37.5001 21.5001L38.42 22.1576C38.4801 22.2004 38.5503 22.222 38.6205 22.222C38.6916 22.222 38.7628 22.2 38.8233 22.1561C38.9433 22.0688 38.9941 21.9146 38.9493 21.7731L38.6083 20.6951L39.5179 20.0234C39.6373 19.9353 39.6868 19.7807 39.6409 19.6394C39.595 19.4982 39.4641 19.4022 39.3156 19.4012L38.185 19.3924L37.8273 18.3197C37.7802 18.1789 37.6483 18.084 37.5 18.084Z" fill="#F5F5F5"/>
<path d="M44.6551 26.3603C44.6198 26.3603 44.5849 26.3493 44.5549 26.3283L43.5347 25.5984L42.5143 26.3283C42.4844 26.3493 42.4491 26.3603 42.4141 26.3603C42.3788 26.3603 42.343 26.3493 42.3127 26.3274C42.253 26.2837 42.2273 26.2062 42.2496 26.1355L42.628 24.94L41.6195 24.195C41.5597 24.1504 41.5349 24.0729 41.5577 24.0031C41.5808 23.9324 41.6464 23.8844 41.7206 23.8836L42.9746 23.8743L43.3711 22.6848C43.3948 22.6149 43.4608 22.5669 43.5349 22.5669C43.609 22.5669 43.6751 22.6148 43.6987 22.6848L44.0953 23.8743L45.3493 23.8836C45.4234 23.8845 45.489 23.9324 45.5121 24.0031C45.5349 24.0729 45.51 24.1504 45.4503 24.195L44.4418 24.94L44.8203 26.1355C44.8425 26.2062 44.8169 26.2837 44.7571 26.3274C44.7263 26.3493 44.6906 26.3603 44.6551 26.3603Z" fill="#FF4B55"/>
<path d="M43.5347 22.7394L43.9703 24.0458L45.3475 24.0564L44.2396 24.8745L44.655 26.1876L43.5346 25.3867L42.4142 26.1876L42.8296 24.8746L41.7217 24.0565L43.0988 24.0459L43.5347 22.7394ZM43.5347 22.3945C43.3863 22.3945 43.2545 22.4895 43.2075 22.6303L42.8498 23.7029L41.7192 23.7117C41.5708 23.7128 41.4398 23.8088 41.3939 23.95C41.348 24.0912 41.3977 24.2458 41.5169 24.334L42.4265 25.0057L42.0855 26.0837C42.0407 26.2252 42.0915 26.3795 42.2115 26.4667C42.272 26.5105 42.3431 26.5325 42.4143 26.5325C42.4845 26.5325 42.5548 26.511 42.6148 26.4682L43.5347 25.8106L44.4546 26.4682C44.5147 26.5109 44.5849 26.5325 44.6552 26.5325C44.7263 26.5325 44.7975 26.5105 44.8579 26.4667C44.9779 26.3794 45.0287 26.2252 44.984 26.0837L44.643 25.0057L45.5525 24.334C45.672 24.2458 45.7215 24.0912 45.6756 23.95C45.6297 23.8088 45.4987 23.7128 45.3503 23.7117L44.2196 23.7029L43.8619 22.6303C43.8149 22.4895 43.6831 22.3945 43.5347 22.3945Z" fill="#F5F5F5"/>
<path d="M32.586 28.0845C32.5507 28.0845 32.5158 28.0734 32.4858 28.0524L31.4656 27.3226L30.4452 28.0524C30.4153 28.0734 30.38 28.0845 30.345 28.0845C30.3097 28.0845 30.2739 28.0734 30.2436 28.0516C30.1839 28.0078 30.1582 27.9304 30.1805 27.8597L30.5589 26.6642L29.5504 25.9191C29.4906 25.8745 29.4658 25.7971 29.4886 25.7272C29.5117 25.6565 29.5773 25.6085 29.6515 25.6077L30.9055 25.5984L31.302 24.4089C31.3257 24.3391 31.3917 24.291 31.4658 24.291C31.5399 24.291 31.606 24.339 31.6296 24.4089L32.0262 25.5984L33.2802 25.6077C33.3543 25.6086 33.4199 25.6565 33.4431 25.7272C33.4658 25.7971 33.4409 25.8745 33.3812 25.9191L32.3727 26.6642L32.7512 27.8597C32.7734 27.9304 32.7478 28.0078 32.688 28.0516C32.6572 28.0735 32.6215 28.0845 32.586 28.0845Z" fill="#FF4B55"/>
<path d="M31.4656 24.4635L31.9012 25.7699L33.2784 25.7806L32.1705 26.5986L32.5859 27.9117L31.4655 27.1108L30.3451 27.9117L30.7605 26.5986L29.6526 25.7806L31.0297 25.7699L31.4656 24.4635ZM31.4656 24.1187C31.3172 24.1187 31.1854 24.2136 31.1384 24.3544L30.7807 25.427L29.6501 25.4358C29.5017 25.4369 29.3707 25.5329 29.3248 25.6741C29.2789 25.8153 29.3286 25.9699 29.4478 26.0581L30.3574 26.7298L30.0164 27.8078C29.9716 27.9493 30.0224 28.1036 30.1424 28.1908C30.2029 28.2347 30.274 28.2566 30.3452 28.2566C30.4154 28.2566 30.4857 28.2352 30.5457 28.1923L31.4656 27.5348L32.3855 28.1923C32.4456 28.2351 32.5158 28.2566 32.586 28.2566C32.6571 28.2566 32.7283 28.2347 32.7887 28.1908C32.9087 28.1035 32.9595 27.9493 32.9148 27.8078L32.5738 26.7298L33.4833 26.0581C33.6028 25.9699 33.6523 25.8153 33.6064 25.6741C33.5605 25.5329 33.4295 25.4369 33.2811 25.4358L32.1504 25.427L31.7927 24.3544C31.7458 24.2136 31.6139 24.1187 31.4656 24.1187Z" fill="#F5F5F5"/>
</g>
<defs>
<clipPath id="clip0_106_18288">
<rect width="50" height="50" fill="white"/>
</clipPath>
</defs>
</svg>
