<svg width="50" height="50" viewBox="0 0 50 50" fill="none" xmlns="http://www.w3.org/2000/svg">
<g clip-path="url(#clip0_106_18243)">
<path d="M49.9997 19.5402H-0.000244141V9.48271C-0.000244141 9.00664 0.38579 8.62061 0.861864 8.62061H49.1376C49.6137 8.62061 49.9998 9.00664 49.9998 9.48271L49.9997 19.5402Z" fill="#41479B"/>
<path d="M49.1366 41.379H0.860887C0.384814 41.379 -0.0012207 40.9929 -0.0012207 40.5169V30.4595H49.9987V40.5169C49.9987 40.993 49.6126 41.379 49.1366 41.379Z" fill="#41479B"/>
<path d="M49.9992 19.54H-0.000732422V30.459H49.9992V19.54Z" fill="#F5F5F5"/>
<path d="M24.9992 21.8433L22.3696 25.7103H27.6288L24.9992 21.8433Z" fill="#AFEBFF"/>
<path d="M22.3695 25.7104L20.668 28.1854H29.3303L27.6287 25.7104H22.3695Z" fill="#557DE6"/>
<path d="M25.6729 25.494C25.6833 25.4725 25.6943 25.4513 25.7038 25.4292C25.6944 25.4511 25.6833 25.4725 25.6729 25.494Z" fill="#73AF00"/>
<path d="M25.7454 25.3158C25.7518 25.2964 25.7596 25.2775 25.7652 25.2578C25.7595 25.2774 25.7517 25.2963 25.7454 25.3158Z" fill="#73AF00"/>
<path d="M25.5835 25.6563C25.5968 25.6351 25.6099 25.614 25.6223 25.5923C25.61 25.6141 25.5967 25.6352 25.5835 25.6563Z" fill="#73AF00"/>
<path d="M25.9854 24.936C25.9618 24.936 25.9393 24.9399 25.9185 24.9469C25.9393 24.9398 25.9618 24.936 25.9854 24.936Z" fill="#73AF00"/>
<path d="M25.8623 24.9771C25.8295 25.0026 25.8071 25.0383 25.802 25.0789V25.0791V25.0789C25.8072 25.0383 25.8294 25.0025 25.8623 24.9771Z" fill="#73AF00"/>
<path d="M25.7825 26.131C25.8193 26.1659 25.8558 26.1991 25.8925 26.231C26.0888 26.061 26.2937 25.8451 26.4375 25.5925C26.4271 25.6105 26.416 25.6281 26.405 25.6459C26.2708 25.399 26.1999 25.1854 26.1655 25.0588C26.1458 24.9865 26.071 24.9361 25.9856 24.936C26.0185 25.2245 26.0892 25.7547 25.7825 26.131Z" fill="#73AF00"/>
<path d="M26.5605 25.3158C26.567 25.2964 26.5748 25.2775 26.5804 25.2578C26.5748 25.2774 26.567 25.2963 26.5605 25.3158Z" fill="#73AF00"/>
<path d="M26.6774 24.9771C26.6447 25.0026 26.6223 25.0383 26.6172 25.0789V25.0791V25.0789C26.6224 25.0383 26.6446 25.0025 26.6774 24.9771Z" fill="#73AF00"/>
<path d="M26.4883 25.494C26.4987 25.4725 26.5098 25.4513 26.5192 25.4292C26.5097 25.4511 26.4987 25.4725 26.4883 25.494Z" fill="#73AF00"/>
<path d="M28.1574 26.33C27.8593 26.33 27.5771 26.1869 27.4049 25.9436C27.1454 25.577 27.0277 25.2352 26.9802 25.0599C26.9605 24.9874 26.8855 24.937 26.8 24.937L26.8003 24.9371C26.8395 25.2814 26.9329 25.9698 26.3734 26.3301H26.0092C25.9942 26.3183 25.9797 26.3069 25.9643 26.2944C25.9646 26.2947 25.965 26.295 25.9653 26.2953C25.8634 26.4284 25.6595 26.4657 25.5014 26.3842C24.8394 26.0432 24.9422 25.2993 24.9835 24.9371C24.898 24.9372 24.8232 24.9875 24.8036 25.0599C24.7692 25.1865 24.6983 25.4001 24.5641 25.647C24.5532 25.6292 24.542 25.6117 24.5316 25.5936C24.6934 25.8777 24.9333 26.1176 25.1501 26.2953C25.0481 26.4284 24.8442 26.4657 24.6861 26.3842C24.0242 26.0432 24.1269 25.2992 24.1683 24.9371C24.0828 24.9372 24.008 24.9875 23.9884 25.0599C23.954 25.1865 23.8831 25.4001 23.7488 25.647C23.738 25.6292 23.7268 25.6117 23.7164 25.5936C23.8781 25.8777 24.1181 26.1176 24.3349 26.2953C24.2329 26.4284 24.029 26.4657 23.8709 26.3842C23.209 26.0432 23.3117 25.2993 23.353 24.9371L23.3533 24.937C23.2678 24.937 23.1928 24.9873 23.1731 25.0599C23.1256 25.2352 23.0079 25.577 22.7484 25.9436C22.5763 26.187 22.2941 26.33 21.9959 26.33H21.751V26.6394H28.0931H28.2476V26.33H28.1574Z" fill="#73AF00"/>
<path d="M25.2659 25.4292C25.2753 25.4513 25.2864 25.4726 25.2968 25.494C25.2864 25.4726 25.2752 25.4512 25.2659 25.4292Z" fill="#73AF00"/>
<path d="M25.2048 25.2578C25.2103 25.2775 25.2182 25.2964 25.2247 25.3158C25.2181 25.2964 25.2103 25.2775 25.2048 25.2578Z" fill="#73AF00"/>
<path d="M25.1679 25.0791V25.0789C25.1628 25.0383 25.1406 25.0026 25.1077 24.9771C25.1404 25.0026 25.1628 25.0383 25.1679 25.0789V25.0791Z" fill="#73AF00"/>
<path d="M25.3477 25.5928C25.3601 25.6146 25.3732 25.6355 25.3864 25.6567C25.3732 25.6355 25.3601 25.6145 25.3477 25.5928Z" fill="#73AF00"/>
<path d="M25.4897 25.8069C25.488 25.8049 25.4867 25.8027 25.4851 25.8006C25.4984 25.7829 25.5111 25.7651 25.5239 25.7471C25.5112 25.765 25.4981 25.7828 25.4849 25.8004C25.4716 25.7828 25.4586 25.7651 25.446 25.7471C25.4603 25.7673 25.4748 25.7871 25.4897 25.8069Z" fill="#73AF00"/>
<path d="M25.5576 25.8926C25.5727 25.9106 25.5877 25.9287 25.6031 25.9461C25.5877 25.9287 25.5727 25.9106 25.5576 25.8926Z" fill="#73AF00"/>
<path d="M25.723 26.0738C25.7085 26.0594 25.6944 26.0442 25.6802 26.0293C25.6945 26.0443 25.7085 26.0594 25.723 26.0738Z" fill="#73AF00"/>
<path d="M26.8002 24.9362L26.7999 24.9361C26.7529 24.9361 26.7095 24.9515 26.6767 24.977C26.644 25.0025 26.6216 25.0382 26.6165 25.0788V25.079C26.6089 25.14 26.5959 25.1995 26.5796 25.258C26.5741 25.2777 26.5662 25.2966 26.5597 25.316C26.5471 25.3543 26.5342 25.3924 26.5183 25.4294C26.5089 25.4515 26.4978 25.4728 26.4874 25.4942C26.4714 25.5274 26.455 25.5605 26.4367 25.5926C26.2929 25.8451 26.0881 26.0611 25.8918 26.231C25.8552 26.1994 25.8186 26.1661 25.7817 26.1311C26.0884 25.7548 26.0178 25.2246 25.9849 24.9361L25.9846 24.936C25.9611 24.936 25.9386 24.9399 25.9178 24.9469C25.897 24.9539 25.8779 24.9642 25.8615 24.9769C25.8288 25.0024 25.8063 25.0381 25.8012 25.0787V25.0789C25.7936 25.1399 25.7806 25.1994 25.7642 25.2579C25.7588 25.2776 25.7509 25.2965 25.7444 25.3159C25.7318 25.3542 25.7188 25.3923 25.703 25.4293C25.6935 25.4514 25.6825 25.4727 25.672 25.4941C25.656 25.5273 25.6396 25.5604 25.6214 25.5925C25.609 25.6143 25.5958 25.6353 25.5826 25.6564C25.5635 25.6871 25.5438 25.7175 25.523 25.747C25.5103 25.765 25.4974 25.783 25.4843 25.8005C25.471 25.7828 25.4579 25.765 25.4451 25.747C25.4243 25.7175 25.4047 25.6872 25.3855 25.6564C25.3722 25.6353 25.3592 25.6142 25.3468 25.5925C25.3284 25.5603 25.3122 25.5272 25.2961 25.4941C25.2856 25.4726 25.2746 25.4514 25.2651 25.4293C25.2493 25.3924 25.2363 25.3542 25.2237 25.3159C25.2173 25.2965 25.2095 25.2776 25.2039 25.2579C25.1875 25.1995 25.1746 25.1399 25.167 25.0789V25.0787C25.1619 25.0381 25.1396 25.0024 25.1067 24.9769C25.074 24.9513 25.0306 24.936 24.9837 24.936L24.9834 24.9361C24.9422 25.2983 24.8393 26.0422 25.5012 26.3832C25.6129 26.4407 25.7469 26.4385 25.8519 26.3855C25.919 26.3518 25.9911 26.3291 26.0662 26.3291H26.3734C26.9328 25.9689 26.8394 25.2805 26.8002 24.9362Z" fill="#FFE15A"/>
<path d="M24.3894 25.2578C24.3949 25.2775 24.4028 25.2964 24.4092 25.3158C24.4028 25.2964 24.395 25.2775 24.3894 25.2578Z" fill="#73AF00"/>
<path d="M24.3525 25.0791V25.0789C24.3474 25.0383 24.3251 25.0026 24.2922 24.9771C24.325 25.0026 24.3474 25.0383 24.3525 25.0789V25.0791Z" fill="#73AF00"/>
<path d="M24.4504 25.4292C24.4599 25.4513 24.4709 25.4726 24.4814 25.494C24.4708 25.4726 24.4599 25.4512 24.4504 25.4292Z" fill="#73AF00"/>
<path d="M24.1687 24.936C24.1922 24.936 24.2148 24.9399 24.2356 24.9469C24.2147 24.9398 24.1921 24.936 24.1687 24.936Z" fill="#73AF00"/>
<path d="M24.6861 26.3831C24.8443 26.4645 25.0482 26.4272 25.1501 26.2942C24.9333 26.1165 24.6934 25.8768 24.5316 25.5925C24.5132 25.5604 24.497 25.5272 24.4809 25.4941C24.4705 25.4726 24.4594 25.4514 24.45 25.4293C24.4341 25.3924 24.4212 25.3542 24.4086 25.3159C24.4021 25.2965 24.3943 25.2776 24.3887 25.2579C24.3723 25.1995 24.3594 25.1399 24.3518 25.0789V25.0787C24.3467 25.0381 24.3245 25.0024 24.2916 24.9769C24.2752 24.9642 24.2561 24.9539 24.2353 24.9469C24.2145 24.9398 24.192 24.936 24.1684 24.936L24.1681 24.9361C24.127 25.2982 24.0242 26.042 24.6861 26.3831Z" fill="#FFE15A"/>
<path d="M23.573 25.2583C23.5785 25.278 23.5864 25.2969 23.5928 25.3163C23.5864 25.2969 23.5786 25.278 23.573 25.2583Z" fill="#73AF00"/>
<path d="M23.6345 25.4292C23.644 25.4513 23.655 25.4726 23.6655 25.494C23.655 25.4726 23.6439 25.4512 23.6345 25.4292Z" fill="#73AF00"/>
<path d="M23.5368 25.0791V25.0789C23.5317 25.0383 23.5095 25.0026 23.4766 24.9771C23.5093 25.0026 23.5317 25.0383 23.5368 25.0789V25.0791Z" fill="#73AF00"/>
<path d="M23.8712 26.3831C24.0294 26.4645 24.2333 26.4272 24.3352 26.2942C24.1184 26.1165 23.8786 25.8768 23.7167 25.5925C23.6984 25.5604 23.6822 25.5272 23.6661 25.4941C23.6556 25.4726 23.6446 25.4514 23.6351 25.4293C23.6193 25.3924 23.6063 25.3542 23.5937 25.3159C23.5873 25.2965 23.5794 25.2776 23.5739 25.2579C23.5575 25.1995 23.5446 25.1399 23.537 25.0789V25.0787C23.5319 25.0381 23.5096 25.0024 23.4767 24.9769C23.444 24.9513 23.4006 24.936 23.3536 24.936L23.3533 24.9361C23.3121 25.2982 23.2091 26.042 23.8712 26.3831Z" fill="#FFE15A"/>
<path d="M23.6963 23.7062C23.6835 23.7555 23.6705 23.8049 23.6577 23.8542C24.08 23.7275 24.546 23.6515 25.0517 23.6515C25.5573 23.6518 26.0233 23.7272 26.4456 23.8542C26.4328 23.8049 26.4198 23.7555 26.407 23.7062C25.987 23.5978 25.535 23.5354 25.0517 23.5356C24.5685 23.5355 24.1164 23.5978 23.6963 23.7062Z" fill="#41479B"/>
<path d="M23.7129 23.6418C23.7001 23.6911 23.6871 23.7405 23.6743 23.7898C24.0919 23.6629 24.5522 23.5867 25.0515 23.5865C25.5508 23.5867 26.011 23.6628 26.4286 23.7898C26.4158 23.7405 26.4028 23.6911 26.39 23.6418C25.9747 23.5326 25.5284 23.4708 25.0515 23.4707C24.5744 23.4708 24.1282 23.5329 23.7129 23.6418Z" fill="#5AA0E6"/>
<path d="M23.7285 23.5824C23.7157 23.6317 23.7027 23.6812 23.6899 23.7305C24.1034 23.6031 24.5583 23.5264 25.0516 23.5266C25.545 23.5266 25.9998 23.603 26.4132 23.7305C26.4004 23.6812 26.3874 23.6317 26.3746 23.5824C25.9638 23.4732 25.5228 23.4106 25.0516 23.4106C24.5804 23.4105 24.1395 23.4732 23.7285 23.5824Z" fill="#9BC800"/>
<path d="M23.7461 23.5143C23.7333 23.5636 23.7203 23.613 23.7075 23.6623C24.1161 23.5345 24.5649 23.4577 25.0515 23.4577C25.538 23.4579 25.9868 23.5345 26.3954 23.6623C26.3826 23.613 26.3696 23.5636 26.3568 23.5143C25.9508 23.4047 25.5161 23.342 25.0515 23.3418C24.5868 23.3419 24.1521 23.4047 23.7461 23.5143Z" fill="#FFE14E"/>
<path d="M23.7637 23.4475C23.7509 23.4968 23.7379 23.5462 23.7251 23.5955C24.129 23.4674 24.5716 23.3903 25.0516 23.3902C25.5315 23.3905 25.9742 23.4672 26.378 23.5955C26.3652 23.5462 26.3522 23.4968 26.3394 23.4475C25.9385 23.3377 25.5097 23.2744 25.0516 23.2744C24.5935 23.2746 24.1647 23.3374 23.7637 23.4475Z" fill="#FFB14E"/>
<path d="M23.7709 23.4189C23.7619 23.4535 23.753 23.488 23.7439 23.5227C24.1425 23.3943 24.5789 23.3165 25.0514 23.3166C25.5242 23.3164 25.9604 23.394 26.3589 23.5227C26.3498 23.4881 26.341 23.4536 26.3319 23.4189C25.933 23.3089 25.5067 23.2457 25.0513 23.2456C24.5961 23.2453 24.17 23.3088 23.7709 23.4189Z" fill="#FF4B55"/>
<path d="M29.3305 28.3358H20.6681C20.611 28.3358 20.5586 28.3043 20.5317 28.2542C20.5047 28.2038 20.5079 28.1427 20.5394 28.0953L24.8707 21.5985C24.9281 21.5127 25.0707 21.5127 25.1281 21.5985L29.4593 28.0953C29.4909 28.1427 29.4939 28.2037 29.4669 28.2542C29.44 28.3044 29.3876 28.3358 29.3305 28.3358ZM20.957 28.0264H29.0414L24.9993 21.9632L20.957 28.0264Z" fill="#FFE15A"/>
<path d="M25.2952 24.3098C25.2952 24.1736 25.1573 23.9668 24.9365 23.9668C24.8075 23.9668 24.7029 24.0457 24.7029 24.1429C24.7029 24.1915 24.729 24.2353 24.7711 24.2672C24.7709 24.2689 24.7708 24.2709 24.7707 24.2726C24.718 24.3049 24.6836 24.3535 24.6836 24.4087C24.6836 24.5015 24.7792 24.5767 24.9 24.5835L24.9994 24.7823L25.0892 24.6028C25.207 24.5729 25.2952 24.4533 25.2952 24.3098Z" fill="#FF4B55"/>
</g>
<defs>
<clipPath id="clip0_106_18243">
<rect width="50" height="50" fill="white"/>
</clipPath>
</defs>
</svg>
