<svg width="50" height="50" viewBox="0 0 50 50" fill="none" xmlns="http://www.w3.org/2000/svg">
<g clip-path="url(#clip0_106_18238)">
<path d="M0.000488281 30.4595H50.0004V40.5169C50.0004 40.993 49.6144 41.379 49.1383 41.379H0.862596C0.386523 41.379 0.000488281 40.993 0.000488281 40.5169V30.4595Z" fill="#73AF00"/>
<path d="M0.862596 8.62061H49.1384C49.6145 8.62061 50.0005 9.00664 50.0005 9.48271V19.5401H0.000488281V9.48262C0.000488281 9.00654 0.386523 8.62061 0.862596 8.62061Z" fill="#FF9B55"/>
<path d="M50.0004 19.54H0.000488281V30.459H50.0004V19.54Z" fill="#F5F5F5"/>
<path d="M25.0005 29.3105C27.3811 29.3105 29.311 27.3806 29.311 25C29.311 22.6193 27.3811 20.6895 25.0005 20.6895C22.6198 20.6895 20.6899 22.6193 20.6899 25C20.6899 27.3806 22.6198 29.3105 25.0005 29.3105Z" fill="#FF9B55"/>
</g>
<defs>
<clipPath id="clip0_106_18238">
<rect width="50" height="50" fill="white"/>
</clipPath>
</defs>
</svg>
