<svg width="50" height="50" viewBox="0 0 50 50" fill="none" xmlns="http://www.w3.org/2000/svg">
<g clip-path="url(#clip0_106_18217)">
<path d="M49.1383 41.3791H0.862596C0.386523 41.3791 0.000488281 40.9931 0.000488281 40.517V9.48271C0.000488281 9.00664 0.386523 8.62061 0.862596 8.62061H49.1384C49.6145 8.62061 50.0005 9.00664 50.0005 9.48271V40.517C50.0004 40.9932 49.6144 41.3791 49.1383 41.3791Z" fill="#FFE15A"/>
<path d="M24.1383 24.9999H0.862596C0.386523 24.9999 0.000488281 24.6138 0.000488281 24.1378V9.48271C0.000488281 9.00664 0.386523 8.62061 0.862596 8.62061H24.1383C24.6144 8.62061 25.0004 9.00664 25.0004 9.48271V24.1379C25.0003 24.614 24.6145 24.9999 24.1383 24.9999Z" fill="#41479B"/>
<path d="M24.1383 8.62061H22.641L14.6556 13.8523V8.62061H10.3453V13.8523L2.35996 8.62061H0.862596C0.386523 8.62061 0.000488281 9.00664 0.000488281 9.48271V10.1665L6.85155 14.6551H0.000488281V18.9654H6.85155L0.000488281 23.4541V24.1378C0.000488281 24.6138 0.386523 24.9999 0.862596 24.9999H2.35996L10.3453 19.7681V24.9999H14.6556V19.7681L22.6409 24.9999H24.1382C24.6143 24.9999 25.0003 24.6138 25.0003 24.1378V23.454L18.1494 18.9654H25.0003V14.6551H18.1493L25.0003 10.1665V9.48271C25.0003 9.00664 24.6145 8.62061 24.1383 8.62061Z" fill="#F5F5F5"/>
<path d="M25.0008 15.5172H13.794V8.62061H11.2078V15.5172H0.000976562V18.1033H11.2078V24.9999H13.794V18.1033H25.0008V15.5172Z" fill="#FF4B55"/>
<path d="M9.48367 14.6549L0.411816 8.76611C0.17041 8.91894 0.000976562 9.17558 0.000976562 9.48252V9.52724L7.90028 14.6549H9.48367Z" fill="#FF4B55"/>
<path d="M16.2392 14.6551L24.8694 9.05293C24.7194 8.79912 24.4548 8.62061 24.1385 8.62061H23.952L14.6558 14.6551H16.2392Z" fill="#FF4B55"/>
<path d="M8.73875 18.9653L0.125 24.5567C0.273535 24.8167 0.542284 24.9998 0.863182 24.9998H1.02578L10.3222 18.9653H8.73875Z" fill="#FF4B55"/>
<path d="M24.9872 24.2055L16.9144 18.9653H15.3311L24.4983 24.9159C24.773 24.7885 24.9613 24.5214 24.9872 24.2055Z" fill="#FF4B55"/>
<path d="M12.5008 19.3966C13.9291 19.3966 15.087 18.2387 15.087 16.8103C15.087 15.382 13.9291 14.2241 12.5008 14.2241C11.0724 14.2241 9.91455 15.382 9.91455 16.8103C9.91455 18.2387 11.0724 19.3966 12.5008 19.3966Z" fill="#41479B"/>
<path d="M12.675 14.7137L13.1071 16.0092L14.4727 16.0198C14.6496 16.0211 14.7228 16.2468 14.5806 16.3518L13.482 17.163L13.8939 18.4651C13.9472 18.6336 13.7553 18.7731 13.6115 18.6703L12.5005 17.8762L11.3894 18.6703C11.2456 18.7731 11.0537 18.6336 11.107 18.4651L11.5189 17.163L10.4203 16.3518C10.278 16.2467 10.3513 16.0211 10.5282 16.0198L11.8938 16.0092L12.3259 14.7137C12.3818 14.5459 12.6191 14.5459 12.675 14.7137Z" fill="#FFE15A"/>
<path d="M5.51838 15.7688L5.75071 16.4654L6.48498 16.471C6.58 16.4718 6.61946 16.5931 6.54299 16.6495L5.95237 17.0858L6.17385 17.7858C6.20256 17.8764 6.09924 17.9514 6.022 17.8961L5.42473 17.4692L4.82747 17.8961C4.75012 17.9514 4.647 17.8764 4.67561 17.7858L4.8971 17.0858L4.30647 16.6495C4.23001 16.5931 4.26936 16.4717 4.36448 16.471L5.09876 16.4654L5.33108 15.7688C5.36086 15.6786 5.48831 15.6786 5.51838 15.7688Z" fill="#FFE15A"/>
<path d="M19.7357 15.7688L19.968 16.4654L20.7023 16.471C20.7973 16.4718 20.8367 16.5931 20.7603 16.6495L20.1697 17.0858L20.3911 17.7858C20.4198 17.8764 20.3165 17.9514 20.2393 17.8961L19.642 17.4692L19.0448 17.8961C18.9674 17.9514 18.8643 17.8764 18.8929 17.7858L19.1144 17.0858L18.5238 16.6495C18.4473 16.5931 18.4866 16.4717 18.5818 16.471L19.316 16.4654L19.5484 15.7688C19.5782 15.6786 19.7056 15.6786 19.7357 15.7688Z" fill="#FFE15A"/>
<path d="M12.6054 10.5364L12.8377 11.2329L13.572 11.2386C13.667 11.2394 13.7065 11.3607 13.63 11.4171L13.0393 11.8533L13.2608 12.5533C13.2895 12.6439 13.1862 12.7189 13.1089 12.6636L12.5116 12.2367L11.9144 12.6636C11.837 12.7189 11.7339 12.6439 11.7625 12.5533L11.984 11.8533L11.3934 11.417C11.3169 11.3606 11.3563 11.2392 11.4514 11.2385L12.1857 11.2328L12.418 10.5363C12.4478 10.4462 12.5754 10.4462 12.6054 10.5364Z" fill="#FFE15A"/>
<path d="M12.6054 21.1243L12.8377 21.8208L13.572 21.8265C13.667 21.8273 13.7065 21.9486 13.63 22.005L13.0393 22.4411L13.2608 23.1411C13.2895 23.2318 13.1862 23.3068 13.1089 23.2515L12.5116 22.8245L11.9144 23.2515C11.837 23.3068 11.7339 23.2318 11.7625 23.1411L11.984 22.4411L11.3934 22.0049C11.3169 21.9485 11.3563 21.8271 11.4514 21.8264L12.1857 21.8207L12.418 21.1242C12.4478 21.0341 12.5754 21.0341 12.6054 21.1243Z" fill="#FFE15A"/>
</g>
<defs>
<clipPath id="clip0_106_18217">
<rect width="50" height="50" fill="white"/>
</clipPath>
</defs>
</svg>
