<svg width="50" height="50" viewBox="0 0 50 50" fill="none" xmlns="http://www.w3.org/2000/svg">
<g clip-path="url(#clip0_106_18211)">
<path d="M16.6662 41.3787H0.861621C0.385547 41.3787 -0.000488281 40.9927 -0.000488281 40.5166V9.48223C-0.000488281 9.00615 0.385547 8.62012 0.861621 8.62012H16.6662V41.3787Z" fill="#73AF00"/>
<path d="M33.334 8.62061H16.667V41.3794H33.334V8.62061Z" fill="#F5F5F5"/>
<path d="M49.1366 41.3792H33.332V8.62061H49.1366C49.6127 8.62061 49.9987 9.00664 49.9987 9.48271V40.5171C49.9987 40.9933 49.6127 41.3792 49.1366 41.3792Z" fill="#73AF00"/>
<path d="M30.7566 33.4567L28.0812 17.8501C27.979 17.2542 27.767 16.6824 27.456 16.164L24.9988 12.0688L22.5417 16.1641C22.2306 16.6825 22.0187 17.2543 21.9165 17.8502L19.241 33.4569C19.19 33.755 19.4194 34.0273 19.722 34.0273H24.0229V37.931H25.9747V34.0273H30.2756C30.578 34.0273 30.8077 33.755 30.7566 33.4567Z" fill="#73AF00"/>
</g>
<defs>
<clipPath id="clip0_106_18211">
<rect width="50" height="50" fill="white"/>
</clipPath>
</defs>
</svg>
