<svg width="50" height="50" viewBox="0 0 50 50" fill="none" xmlns="http://www.w3.org/2000/svg">
<g clip-path="url(#clip0_106_18178)">
<path d="M49.1378 41.3796H0.862108C0.386034 41.3796 0 40.9936 0 40.5175V9.4832C0 9.00713 0.386034 8.62109 0.862108 8.62109H49.1379C49.614 8.62109 50 9.00713 50 9.4832V40.5175C49.9999 40.9937 49.6139 41.3796 49.1378 41.3796Z" fill="#4173CD"/>
<path d="M25 37.5C18.1077 37.5 12.5 31.8923 12.5 25C12.5 18.1076 18.1076 12.5 25 12.5C31.8923 12.5 37.5 18.1076 37.5 25C37.5 31.8923 31.8923 37.5 25 37.5ZM25 15.0862C19.5333 15.0862 15.0862 19.5334 15.0862 25C15.0862 30.4666 19.5334 34.9137 25 34.9137C30.4666 34.9137 34.9137 30.4666 34.9137 25C34.9137 19.5334 30.4667 15.0862 25 15.0862Z" fill="#F5F5F5"/>
<path d="M25.0002 36.638C18.5831 36.638 13.3623 31.4173 13.3623 25.0002C13.3623 18.5831 18.5831 13.3623 25.0002 13.3623C31.4173 13.3623 36.6381 18.5831 36.6381 25.0002C36.6381 31.4173 31.4173 36.638 25.0002 36.638ZM25.0002 14.2243C19.0583 14.2243 14.2243 19.0582 14.2243 25.0002C14.2243 30.9422 19.0582 35.776 25.0002 35.776C30.9422 35.776 35.776 30.9421 35.776 25.0002C35.776 19.0583 30.9422 14.2243 25.0002 14.2243Z" fill="#FFDC00"/>
<path d="M13.7933 25.8619C14.2694 25.8619 14.6554 25.4759 14.6554 24.9998C14.6554 24.5237 14.2694 24.1377 13.7933 24.1377C13.3171 24.1377 12.9312 24.5237 12.9312 24.9998C12.9312 25.4759 13.3171 25.8619 13.7933 25.8619Z" fill="#FFDC00"/>
<path d="M36.2073 25.8619C36.6835 25.8619 37.0694 25.4759 37.0694 24.9998C37.0694 24.5237 36.6835 24.1377 36.2073 24.1377C35.7312 24.1377 35.3452 24.5237 35.3452 24.9998C35.3452 25.4759 35.7312 25.8619 36.2073 25.8619Z" fill="#FFDC00"/>
<path d="M24.9998 14.6549C25.4759 14.6549 25.8619 14.2689 25.8619 13.7928C25.8619 13.3166 25.4759 12.9307 24.9998 12.9307C24.5237 12.9307 24.1377 13.3166 24.1377 13.7928C24.1377 14.2689 24.5237 14.6549 24.9998 14.6549Z" fill="#FFDC00"/>
<path d="M17.0755 17.9371C17.5516 17.9371 17.9376 17.5511 17.9376 17.075C17.9376 16.5989 17.5516 16.2129 17.0755 16.2129C16.5994 16.2129 16.2134 16.5989 16.2134 17.075C16.2134 17.5511 16.5994 17.9371 17.0755 17.9371Z" fill="#FFDC00"/>
<path d="M32.9251 17.9371C33.4012 17.9371 33.7872 17.5511 33.7872 17.075C33.7872 16.5989 33.4012 16.2129 32.9251 16.2129C32.449 16.2129 32.063 16.5989 32.063 17.075C32.063 17.5511 32.449 17.9371 32.9251 17.9371Z" fill="#FFDC00"/>
<path d="M35.3538 21.5728C35.8299 21.5728 36.2159 21.1869 36.2159 20.7107C36.2159 20.2346 35.8299 19.8486 35.3538 19.8486C34.8777 19.8486 34.4917 20.2346 34.4917 20.7107C34.4917 21.1869 34.8777 21.5728 35.3538 21.5728Z" fill="#FFDC00"/>
<path d="M20.7112 15.5084C21.1874 15.5084 21.5733 15.1224 21.5733 14.6463C21.5733 14.1702 21.1874 13.7842 20.7112 13.7842C20.2351 13.7842 19.8491 14.1702 19.8491 14.6463C19.8491 15.1224 20.2351 15.5084 20.7112 15.5084Z" fill="#FFDC00"/>
<path d="M14.6468 21.5728C15.1229 21.5728 15.5089 21.1869 15.5089 20.7107C15.5089 20.2346 15.1229 19.8486 14.6468 19.8486C14.1706 19.8486 13.7847 20.2346 13.7847 20.7107C13.7847 21.1869 14.1706 21.5728 14.6468 21.5728Z" fill="#FFDC00"/>
<path d="M29.2894 15.5084C29.7655 15.5084 30.1515 15.1224 30.1515 14.6463C30.1515 14.1702 29.7655 13.7842 29.2894 13.7842C28.8132 13.7842 28.4272 14.1702 28.4272 14.6463C28.4272 15.1224 28.8132 15.5084 29.2894 15.5084Z" fill="#FFDC00"/>
<path d="M35.9915 23.6754C36.4676 23.6754 36.8536 23.2894 36.8536 22.8133C36.8536 22.3372 36.4676 21.9512 35.9915 21.9512C35.5154 21.9512 35.1294 22.3372 35.1294 22.8133C35.1294 23.2894 35.5154 23.6754 35.9915 23.6754Z" fill="#FFDC00"/>
<path d="M22.8138 14.8707C23.2899 14.8707 23.6759 14.4847 23.6759 14.0086C23.6759 13.5325 23.2899 13.1465 22.8138 13.1465C22.3376 13.1465 21.9517 13.5325 21.9517 14.0086C21.9517 14.4847 22.3376 14.8707 22.8138 14.8707Z" fill="#FFDC00"/>
<path d="M15.6819 19.6353C16.1581 19.6353 16.544 19.2494 16.544 18.7732C16.544 18.2971 16.1581 17.9111 15.6819 17.9111C15.2058 17.9111 14.8198 18.2971 14.8198 18.7732C14.8198 19.2494 15.2058 19.6353 15.6819 19.6353Z" fill="#FFDC00"/>
<path d="M31.2269 16.5445C31.703 16.5445 32.089 16.1585 32.089 15.6824C32.089 15.2063 31.703 14.8203 31.2269 14.8203C30.7507 14.8203 30.3647 15.2063 30.3647 15.6824C30.3647 16.1585 30.7507 16.5445 31.2269 16.5445Z" fill="#FFDC00"/>
<path d="M34.3177 19.6353C34.7938 19.6353 35.1798 19.2494 35.1798 18.7732C35.1798 18.2971 34.7938 17.9111 34.3177 17.9111C33.8415 17.9111 33.4556 18.2971 33.4556 18.7732C33.4556 19.2494 33.8415 19.6353 34.3177 19.6353Z" fill="#FFDC00"/>
<path d="M18.7737 16.5445C19.2499 16.5445 19.6358 16.1585 19.6358 15.6824C19.6358 15.2063 19.2499 14.8203 18.7737 14.8203C18.2976 14.8203 17.9116 15.2063 17.9116 15.6824C17.9116 16.1585 18.2976 16.5445 18.7737 16.5445Z" fill="#FFDC00"/>
<path d="M14.0091 23.6754C14.4852 23.6754 14.8712 23.2894 14.8712 22.8133C14.8712 22.3372 14.4852 21.9512 14.0091 21.9512C13.533 21.9512 13.147 22.3372 13.147 22.8133C13.147 23.2894 13.533 23.6754 14.0091 23.6754Z" fill="#FFDC00"/>
<path d="M27.1868 14.8707C27.6629 14.8707 28.0489 14.4847 28.0489 14.0086C28.0489 13.5325 27.6629 13.1465 27.1868 13.1465C26.7107 13.1465 26.3247 13.5325 26.3247 14.0086C26.3247 14.4847 26.7107 14.8707 27.1868 14.8707Z" fill="#FFDC00"/>
<path d="M36.2066 25.4312C35.9683 25.4312 35.7755 25.2385 35.7755 25.0002C35.7755 19.0583 30.9417 14.2243 24.9997 14.2243C19.0577 14.2243 14.2239 19.0584 14.2239 25.0002C14.2239 25.2385 14.0312 25.4312 13.7929 25.4312C13.5546 25.4312 13.3618 25.2385 13.3618 25.0002C13.3618 18.5831 18.5826 13.3623 24.9997 13.3623C31.4168 13.3623 36.6377 18.5831 36.6377 25.0002C36.6377 25.2385 36.4449 25.4312 36.2066 25.4312Z" fill="#FFA000"/>
<path d="M27.3951 37.9309H22.6047C21.5811 37.9309 20.7828 37.0443 20.89 36.0263L22.4137 21.5518H27.586L29.1097 36.0263C29.2169 37.0443 28.4186 37.9309 27.3951 37.9309Z" fill="#B4B4B4"/>
<path d="M27.5614 21.5516H22.4177C22.1911 21.5516 22.0008 21.3809 21.9763 21.1556L21.655 18.1964C21.5997 17.6865 21.9991 17.2412 22.5121 17.2412H27.4872C28 17.2412 28.3996 17.6863 28.3442 18.1964L28.0251 21.1356C27.9994 21.3723 27.7995 21.5516 27.5614 21.5516Z" fill="#AAAAAA"/>
<path d="M25.199 18.2455L26.797 22.8431L31.6633 22.9422C31.8636 22.9463 31.9464 23.2008 31.7866 23.322L27.908 26.2625L29.3175 30.9212C29.3755 31.113 29.159 31.2703 28.9945 31.1559L24.9994 28.3758L21.0041 31.1559C20.8397 31.2703 20.6231 31.113 20.6811 30.9212L22.0906 26.2625L18.212 23.322C18.0523 23.201 18.135 22.9463 18.3353 22.9422L23.2016 22.8431L24.7996 18.2455C24.8655 18.0562 25.1331 18.0562 25.199 18.2455Z" fill="#F5F5F5"/>
</g>
<defs>
<clipPath id="clip0_106_18178">
<rect width="50" height="50" fill="white"/>
</clipPath>
</defs>
</svg>
