<svg width="50" height="50" viewBox="0 0 50 50" fill="none" xmlns="http://www.w3.org/2000/svg">
<g clip-path="url(#clip0_106_18204)">
<path d="M49.1388 41.3792H0.863084C0.387011 41.3792 0.000976562 40.9932 0.000976562 40.5171V9.48271C0.000976562 9.00664 0.387011 8.62061 0.863084 8.62061H49.1389C49.6149 8.62061 50.001 9.00664 50.001 9.48271V40.5171C50.0009 40.9933 49.6148 41.3792 49.1388 41.3792Z" fill="#F5F5F5"/>
<path d="M50.0009 12.0693H0.000976562V15.5176H50.0009V12.0693Z" fill="#FF4B55"/>
<path d="M50.0019 34.4824H0.00195312V37.9307H50.0019V34.4824Z" fill="#FF4B55"/>
<path d="M24.2696 22.3467L25.4832 23.9342L27.378 23.2999C27.484 23.2644 27.5741 23.3843 27.5106 23.4762L26.3759 25.1209L27.5646 26.727C27.6311 26.8168 27.545 26.9395 27.4379 26.9076L25.523 26.3366L24.3629 27.9636C24.298 28.0545 24.1547 28.0105 24.152 27.8989L24.1034 25.9013L22.1976 25.3006C22.091 25.267 22.0885 25.1171 22.1938 25.08L24.0786 24.4164L24.0609 22.4183C24.0599 22.3066 24.2017 22.2579 24.2696 22.3467Z" fill="#FF4B55"/>
<path d="M18.0183 31.2102C14.5911 31.2102 11.8109 28.43 11.8109 24.9996C11.8109 21.5756 14.5911 18.7892 18.0183 18.7892C19.2934 18.7892 20.4694 19.1813 21.4493 19.8451C21.5994 19.9468 21.7706 19.7495 21.6451 19.619C20.1805 18.0962 18.1076 17.1673 15.8093 17.2458C11.8607 17.3805 8.59195 20.5464 8.33961 24.4892C8.05064 29.0052 11.6265 32.7583 16.0788 32.7583C18.2719 32.7583 20.243 31.8414 21.6505 30.3754C21.7748 30.2459 21.6033 30.0517 21.4546 30.1524C20.4735 30.8175 19.2956 31.2102 18.0183 31.2102Z" fill="#FF4B55"/>
</g>
<defs>
<clipPath id="clip0_106_18204">
<rect width="50" height="50" fill="white"/>
</clipPath>
</defs>
</svg>
