<svg width="50" height="50" viewBox="0 0 50 50" fill="none" xmlns="http://www.w3.org/2000/svg">
<g clip-path="url(#clip0_106_18170)">
<path d="M49.1388 41.3797H0.863084C0.387011 41.3797 0.000976562 40.9937 0.000976562 40.5176V9.4832C0.000976562 9.00713 0.387011 8.62109 0.863084 8.62109H49.1389C49.6149 8.62109 50.001 9.00713 50.001 9.4832V40.5176C50.0009 40.9938 49.6148 41.3797 49.1388 41.3797Z" fill="#41479B"/>
<path d="M50.0009 12.9307H0.000976562V14.6548H50.0009V12.9307Z" fill="#F5F5F5"/>
<path d="M50.0019 35.3447H0.00195312V37.0688H50.0019V35.3447Z" fill="#F5F5F5"/>
<path d="M50.0009 14.6553H0.000976562V35.3447H50.0009V14.6553Z" fill="#FF4B55"/>
<path d="M13.7934 31.8965C17.6023 31.8965 20.6899 28.8088 20.6899 25C20.6899 21.1912 17.6023 18.1035 13.7934 18.1035C9.98463 18.1035 6.89697 21.1912 6.89697 25C6.89697 28.8088 9.98463 31.8965 13.7934 31.8965Z" fill="#F5F5F5"/>
<path d="M13.9776 18.7212L15.3611 22.8695L19.7339 22.9034C19.9199 22.9048 19.997 23.1422 19.8473 23.2528L16.3297 25.8504L17.6486 30.0195C17.7048 30.1969 17.5028 30.3436 17.3514 30.2355L13.794 27.6926L10.2365 30.2354C10.0852 30.3436 9.88329 30.1968 9.93935 30.0195L11.2583 25.8503L7.74062 23.2527C7.59091 23.1422 7.66806 22.9048 7.85409 22.9034L12.2268 22.8694L13.6103 18.7211C13.6692 18.5448 13.9187 18.5448 13.9776 18.7212Z" fill="#FF4B55"/>
</g>
<defs>
<clipPath id="clip0_106_18170">
<rect width="50" height="50" fill="white"/>
</clipPath>
</defs>
</svg>
