<svg width="50" height="50" viewBox="0 0 50 50" fill="none" xmlns="http://www.w3.org/2000/svg">
<g clip-path="url(#clip0_106_18166)">
<path d="M49.1378 41.3797H0.862108C0.386034 41.3797 0 40.9937 0 40.5176V9.4832C0 9.00713 0.386034 8.62109 0.862108 8.62109H49.1379C49.614 8.62109 50 9.00713 50 9.4832V40.5176C49.9999 40.9938 49.6139 41.3797 49.1378 41.3797Z" fill="#FF4B55"/>
<path d="M49.9999 20.69H22.4137V8.62109H13.793V20.69H0V29.3107H13.793V41.3796H22.4137V29.3107H49.9999V20.69Z" fill="#F5F5F5"/>
<path d="M49.9999 22.4141H20.6896V8.62109H15.5173V22.4141H0V27.5866H15.5173V41.3796H20.6896V27.5866H49.9999V22.4141Z" fill="#41479B"/>
</g>
<defs>
<clipPath id="clip0_106_18166">
<rect width="50" height="50" fill="white"/>
</clipPath>
</defs>
</svg>
