<svg width="50" height="50" viewBox="0 0 50 50" fill="none" xmlns="http://www.w3.org/2000/svg">
<g clip-path="url(#clip0_106_18131)">
<path d="M50.0011 19.5407H0.0012207V9.4832C0.0012207 9.00713 0.387255 8.62109 0.863328 8.62109H49.1391C49.6152 8.62109 50.0012 9.00713 50.0012 9.4832L50.0011 19.5407Z" fill="#F5F5F5"/>
<path d="M49.139 41.3795H0.863328C0.387255 41.3795 0.0012207 40.9934 0.0012207 40.5174V30.46H50.0011V40.5174C50.0011 40.9935 49.6151 41.3795 49.139 41.3795Z" fill="#73AF00"/>
<path d="M50.0021 19.54H0.00219727V30.459H50.0021V19.54Z" fill="#FF4B55"/>
<path d="M12.9332 41.3797H0.864305C0.388232 41.3797 0.00219727 40.9937 0.00219727 40.5176V9.4832C0.00219727 9.00713 0.388232 8.62109 0.864305 8.62109H12.9332V41.3797Z" fill="#FF4B55"/>
<path d="M3.52414 15.7656C3.47577 15.7711 3.42907 15.777 3.38354 15.783V16.397C3.42937 16.4086 3.47607 16.4201 3.52414 16.4314V15.7656Z" fill="#F5F5F5"/>
<path d="M5.64751 16.9355C5.51948 16.9253 5.3228 16.9056 5.08803 16.877L3.61548 18.1866C3.8062 18.2157 4.03481 18.2544 4.13022 18.2848C4.50864 17.9537 5.01587 17.5026 5.64751 16.9355Z" fill="#F5F5F5"/>
<path d="M7.86347 14.8526V14.7882V14.7266H5.25098V14.7882V14.8526V14.9144H7.86347V14.8526Z" fill="#F5F5F5"/>
<path d="M5.9292 11.1167C5.9292 11.3007 6.20645 11.4561 6.53467 11.4561C6.86289 11.4561 7.14014 11.3007 7.14014 11.1167C7.14014 10.9327 6.86289 10.7773 6.53467 10.7773C6.20645 10.7773 5.9292 10.9328 5.9292 11.1167Z" fill="#F5F5F5"/>
<path d="M5.36284 15.6829C4.77309 15.6799 4.18452 15.7016 3.70337 15.7471V16.4719C4.2687 16.5932 4.92729 16.6862 5.36284 16.7325C5.36284 16.7324 5.36284 15.6829 5.36284 15.6829Z" fill="#F5F5F5"/>
<path d="M2.32471 19.2594C2.55781 19.2544 3.06982 19.1623 3.4165 18.8915C3.52392 18.8075 3.70742 18.653 3.96533 18.429C3.79043 18.3932 3.49697 18.3496 3.34053 18.3281L2.32471 19.2594Z" fill="#F5F5F5"/>
<path d="M5.69927 14.5478V14.2184C5.65513 14.1525 5.60952 14.0847 5.56294 14.0156L5.16187 14.3073C5.24175 14.4445 5.29292 14.5317 5.30239 14.5478L5.69927 14.5478Z" fill="#F5F5F5"/>
<path d="M2.61352 16.0351C2.61225 16.0404 2.60912 16.0529 2.62924 16.0788C2.70365 16.1742 2.91899 16.2653 3.20492 16.3482V15.8096C2.86166 15.8665 2.63686 15.9417 2.61352 16.0351Z" fill="#F5F5F5"/>
<path d="M7.20146 15.7777V15.0938H5.87842V16.7645H6.21484C6.75879 16.7645 7.20146 16.3217 7.20146 15.7777Z" fill="#F5F5F5"/>
<path d="M5.07539 13.2937C4.36699 12.2495 3.61045 11.1521 3.42578 10.9346C3.45225 11.0317 3.51611 11.2144 3.66533 11.5562C3.85781 11.9975 4.325 12.8431 4.71181 13.5239L5.07539 13.2937Z" fill="#F5F5F5"/>
<path d="M4.80054 13.6801C4.90132 13.8564 4.9936 14.0168 5.07144 14.1512L5.46274 13.8666C5.36968 13.7284 5.27388 13.5867 5.17612 13.4424L4.80054 13.6801Z" fill="#F5F5F5"/>
<path d="M5.69943 16.762V15.6874C5.64705 15.6863 5.59467 15.6853 5.54199 15.6846V16.7503C5.6026 16.7556 5.65537 16.7596 5.69943 16.762Z" fill="#F5F5F5"/>
<path d="M7.20205 13.625H5.87891V13.8128H7.20205V13.625Z" fill="#F5F5F5"/>
<path d="M9.04053 14.5359V14.5472H9.10781C9.15742 14.5472 9.19746 14.5872 9.19746 14.6368V15.0041C9.19746 15.0537 9.15742 15.0937 9.10781 15.0937H9.04053V15.105C9.04053 15.1543 9.08076 15.1946 9.13018 15.1946H10.6438C10.6933 15.1946 10.7335 15.1543 10.7335 15.105V14.5359C10.7335 14.4866 10.6933 14.4463 10.6438 14.4463H9.13027C9.08076 14.4462 9.04053 14.4864 9.04053 14.5359Z" fill="#F5F5F5"/>
<path d="M10.7344 19.2544L9.72417 18.3281C9.56772 18.3497 9.27436 18.3931 9.09937 18.429C9.36196 18.6568 9.54536 18.8113 9.64819 18.8917C9.9895 19.1581 10.4911 19.2516 10.7344 19.2544Z" fill="#F5F5F5"/>
<path d="M8.65967 14.7882V14.8526V14.9144H9.01948V14.7266H8.65967V14.7882Z" fill="#F5F5F5"/>
<path d="M8.93403 18.2852C9.02944 18.2546 9.25835 18.2158 9.44946 18.1868L7.28013 16.251C7.22134 16.383 7.13931 16.5024 7.03833 16.6031L7.09546 16.6541C7.8813 17.3576 8.49565 17.9023 8.93403 18.2852Z" fill="#F5F5F5"/>
<path d="M4.07368 15.105V15.0937H4.0063C3.95669 15.0937 3.91665 15.0537 3.91665 15.0041V14.6368C3.91665 14.5872 3.95669 14.5472 4.0063 14.5472H4.07358V14.5359C4.07358 14.4866 4.03335 14.4463 3.98393 14.4463H2.47026C2.42085 14.4463 2.38062 14.4866 2.38062 14.5359V15.105C2.38062 15.1543 2.42085 15.1946 2.47026 15.1946H3.98393C4.03344 15.1946 4.07368 15.1544 4.07368 15.105Z" fill="#F5F5F5"/>
<path d="M4.45551 14.8526V14.7882V14.7266H4.0957V14.9144H4.45551V14.8526Z" fill="#F5F5F5"/>
<path d="M7.90293 14.3073L7.50186 14.0156C7.46084 14.0767 7.4207 14.1363 7.38135 14.1948V14.5478H7.7624C7.77187 14.5317 7.82305 14.4445 7.90293 14.3073Z" fill="#F5F5F5"/>
<path d="M5.99902 13.0762H7.08252L6.84404 12.8115H6.2375L5.99902 13.0762Z" fill="#F5F5F5"/>
<path d="M7.20205 13.2637H5.87891V13.4459H7.20205V13.2637Z" fill="#F5F5F5"/>
<path d="M6.53428 11.6354C6.44707 11.6354 6.36533 11.6241 6.2876 11.6075V12.6215H6.78652V11.6064C6.70723 11.6238 6.62344 11.6354 6.53428 11.6354Z" fill="#F5F5F5"/>
<path d="M5.87842 14.18H7.1958C7.1956 14.1687 7.19756 14.1578 7.20166 14.147V13.9922H5.87842V14.18Z" fill="#F5F5F5"/>
<path d="M7.60205 13.8666L7.99336 14.1512C8.07119 14.0169 8.16348 13.8564 8.26426 13.6801L7.88867 13.4424C7.79082 13.5867 7.69521 13.7284 7.60205 13.8666Z" fill="#F5F5F5"/>
<path d="M7.20205 14.3604H5.87891V14.5481H7.20205V14.3604Z" fill="#F5F5F5"/>
<path d="M8.35293 13.5235C8.73965 12.8429 9.20683 11.9971 9.39941 11.5559C9.54902 11.2132 9.61279 11.0305 9.63916 10.9336C9.45781 11.1464 8.69941 12.2464 7.98926 13.2933L8.35293 13.5235Z" fill="#F5F5F5"/>
<path d="M10.9822 19.2401L9.81243 18.1674C9.7928 18.1494 9.76633 18.1405 9.73977 18.1446C9.72981 18.1459 9.70725 18.149 9.67727 18.1531C9.67561 18.1515 9.67502 18.1492 9.67317 18.1477L7.34143 16.067C7.36526 15.9743 7.37913 15.8777 7.37913 15.7778V15.0938H7.94475C8.01761 15.1887 8.13089 15.2509 8.2593 15.2509C8.38782 15.2509 8.5011 15.1887 8.57385 15.0938H8.85921V15.1051C8.85921 15.2534 8.97991 15.3741 9.12825 15.3741H10.6419C10.7903 15.3741 10.911 15.2534 10.911 15.1051V14.536C10.911 14.3877 10.7903 14.267 10.6419 14.267H9.12844C8.9801 14.267 8.8594 14.3877 8.8594 14.536V14.5473H8.57405C8.5012 14.4524 8.38792 14.3902 8.2595 14.3902C8.16204 14.3902 8.07395 14.4267 8.00471 14.485C8.30706 13.9674 9.25696 12.3268 9.56204 11.6276C9.88928 10.8774 9.86291 10.7806 9.78557 10.7184C9.70393 10.653 9.60061 10.7281 9.56165 10.7567C9.41155 10.8658 7.95618 13.0159 7.37923 13.8729V13.1653C7.37923 13.1634 7.37825 13.1616 7.37815 13.1598L7.37806 13.1596C7.37601 13.1292 7.35901 13.1039 7.33421 13.0893L6.96439 12.6792V11.5514C7.17825 11.4596 7.31761 11.301 7.31761 11.1164C7.31761 10.8256 6.97278 10.5977 6.53265 10.5977C6.09251 10.5977 5.74769 10.8256 5.74769 11.1164C5.74769 11.3024 5.88958 11.4619 6.10648 11.5532V12.6856L5.74368 13.0881C5.71644 13.1035 5.6972 13.1316 5.6972 13.1651V13.8962C5.13148 13.0557 3.65043 10.8667 3.49916 10.7566C3.46 10.7283 3.35658 10.6531 3.27513 10.7183C3.19769 10.7805 3.17133 10.8773 3.49867 11.6275C3.79408 12.3045 4.69378 13.8638 5.02513 14.4321C4.9722 14.406 4.91351 14.3901 4.85072 14.3901C4.7222 14.3901 4.60892 14.4523 4.53617 14.5472H4.25091V14.5359C4.25091 14.3876 4.13021 14.2669 3.98187 14.2669H2.46801C2.31967 14.2669 2.19896 14.3876 2.19896 14.5359V15.105C2.19896 15.2533 2.31967 15.374 2.46801 15.374H3.98168C4.13002 15.374 4.25072 15.2533 4.25072 15.105V15.0937H4.53607C4.60892 15.1886 4.7222 15.2508 4.85062 15.2508C4.97913 15.2508 5.09242 15.1886 5.16517 15.0937H5.6972V15.5068C4.86556 15.4891 2.56312 15.4863 2.43695 15.9915C2.42523 16.0383 2.42406 16.1108 2.48529 16.1891C2.72797 16.5 3.95785 16.7268 4.84994 16.8468L3.38744 18.1475C3.38558 18.1492 3.385 18.1515 3.38324 18.1531C3.35326 18.1489 3.3307 18.1459 3.32074 18.1446C3.29379 18.1407 3.26761 18.1494 3.24808 18.1674L2.07816 19.2401C2.04281 19.2723 2.0392 19.3268 2.06996 19.3637C2.10873 19.4102 2.20727 19.4331 2.339 19.4331C2.66322 19.4331 3.18929 19.2948 3.52465 19.033C3.80101 18.8172 4.56664 18.1459 5.80042 17.0379C5.85384 16.9899 5.88919 16.9581 5.90482 16.9441H6.21282C6.46878 16.9441 6.70482 16.8603 6.89739 16.72L6.97337 16.7879C8.39387 18.0594 9.25579 18.8146 9.53557 19.033C9.87092 19.2951 10.3968 19.4331 10.721 19.4331C10.8529 19.4331 10.9513 19.4103 10.9902 19.3637C11.0213 19.3268 11.0175 19.2723 10.9822 19.2401ZM5.87679 16.7645V15.0938H7.19993V15.7778C7.19993 16.3218 6.75726 16.7645 6.21321 16.7645H5.87679ZM3.20258 16.3482C2.91683 16.2652 2.7014 16.1742 2.62689 16.0788C2.60668 16.0528 2.6098 16.0404 2.61117 16.035C2.63451 15.9417 2.85931 15.8665 3.20258 15.8097V16.3482ZM3.42377 10.9342C3.60834 11.1517 4.36498 12.2489 5.07337 13.2933L4.7097 13.5235C4.32298 12.8427 3.8558 11.9971 3.66322 11.5559C3.5141 11.2141 3.45013 11.0315 3.42377 10.9342ZM5.56107 14.015C5.60755 14.084 5.65306 14.1518 5.6974 14.2178V14.5473H5.30052C5.29105 14.5312 5.23988 14.444 5.15999 14.3068L5.56107 14.015ZM5.06947 14.1508C4.99163 14.0165 4.89935 13.856 4.79857 13.6797L5.17415 13.442C5.27201 13.5864 5.36771 13.7281 5.46077 13.8662L5.06947 14.1508ZM5.6974 15.6868V16.7614C5.65365 16.759 5.60091 16.755 5.54036 16.7497V15.684C5.59281 15.6847 5.64505 15.6856 5.6974 15.6868ZM3.7015 15.7467C4.18275 15.7012 4.77123 15.6796 5.36097 15.6824V16.732C4.92542 16.6858 4.26683 16.5928 3.7015 16.4715V15.7467ZM3.38187 15.7829C3.42728 15.7768 3.47377 15.7711 3.52211 15.7655V16.4312C3.47416 16.42 3.42758 16.4085 3.38187 16.3968V15.7829ZM5.08626 16.877C5.32103 16.9057 5.51771 16.9254 5.64574 16.9356C5.0141 17.5027 4.50687 17.9538 4.12865 18.2848C4.03314 18.2544 3.80463 18.2158 3.6139 18.1867L5.08626 16.877ZM3.96341 18.4289C3.7055 18.6529 3.52201 18.8074 3.41459 18.8914C3.06791 19.1623 2.55599 19.2545 2.32279 19.2593L3.33861 18.3279C3.49506 18.3496 3.78841 18.3931 3.96341 18.4289ZM5.24886 14.9144V14.8528V14.7884V14.7268H7.86145V14.7884V14.8528V14.9144H5.24886ZM7.13821 11.1164C7.13821 11.3004 6.86097 11.4558 6.53275 11.4558C6.20452 11.4558 5.92728 11.3004 5.92728 11.1164C5.92728 10.9324 6.20452 10.7771 6.53275 10.7771C6.86097 10.7771 7.13821 10.9325 7.13821 11.1164ZM5.87679 13.8128V13.625H7.19993V13.8128H5.87679ZM7.19983 13.9922V14.147C7.19573 14.1578 7.19378 14.1687 7.19397 14.18H5.87679V13.9922H7.19983ZM5.87679 13.4455V13.2633H7.19993V13.4455H5.87679ZM6.84183 12.8109L7.0803 13.0755H5.99681L6.23528 12.8109H6.84183ZM6.28607 12.6214V11.6074C6.3638 11.624 6.44554 11.6353 6.53275 11.6353C6.622 11.6353 6.70569 11.6237 6.78499 11.6063V12.6214H6.28607ZM5.87679 14.3594H7.19993V14.5472H5.87679V14.3594ZM9.39758 11.5559C9.2051 11.9971 8.73792 12.8427 8.3511 13.5235L7.98743 13.2933C8.69758 12.2464 9.45598 11.1464 9.63733 10.9336C9.61096 11.0305 9.54709 11.2132 9.39758 11.5559ZM8.47805 14.7883V14.8527C8.47805 14.9733 8.38001 15.0714 8.2594 15.0714C8.1388 15.0714 8.04075 14.9733 8.04075 14.8527V14.7883C8.04075 14.6677 8.1388 14.5696 8.2594 14.5696C8.38001 14.5696 8.47805 14.6677 8.47805 14.7883ZM7.99134 14.1508L7.60003 13.8662C7.69309 13.728 7.7888 13.5863 7.88665 13.442L8.26223 13.6797C8.16145 13.856 8.06907 14.0164 7.99134 14.1508ZM7.37923 14.1942C7.41858 14.1356 7.45862 14.0761 7.49974 14.015L7.90081 14.3067C7.82093 14.4439 7.76975 14.5311 7.76028 14.5473H7.37923V14.1942ZM7.27806 16.2508L9.44739 18.1866C9.25647 18.2158 9.02737 18.2545 8.93196 18.2849C8.49348 17.902 7.87923 17.3575 7.09329 16.6538L7.03616 16.6028C7.13724 16.5023 7.21927 16.3828 7.27806 16.2508ZM9.72219 18.328L10.7324 19.2543C10.489 19.2514 9.98752 19.1581 9.64622 18.8916C9.54338 18.8112 9.35999 18.6566 9.09739 18.4289C9.27239 18.3931 9.56575 18.3496 9.72219 18.328ZM10.732 14.536V15.1051C10.732 15.1544 10.6917 15.1947 10.6423 15.1947H9.12844C9.07903 15.1947 9.03879 15.1544 9.03879 15.1051V15.0938H9.10608C9.15569 15.0938 9.19573 15.0538 9.19573 15.0042V14.6369C9.19573 14.5873 9.15569 14.5473 9.10608 14.5473H9.03879V14.536C9.03879 14.4867 9.07903 14.4464 9.12844 14.4464H10.6421C10.6916 14.4463 10.732 14.4865 10.732 14.536ZM9.01633 14.9144H8.65755V14.8528V14.7884V14.7268H9.01633V14.9144ZM2.37826 15.1051V14.536C2.37826 14.4867 2.4185 14.4464 2.46791 14.4464H3.98158C4.03099 14.4464 4.07123 14.4867 4.07123 14.536V14.5473H4.00414C3.95453 14.5473 3.91449 14.5873 3.91449 14.6369V15.0042C3.91449 15.0538 3.95453 15.0938 4.00414 15.0938H4.07142V15.1051C4.07142 15.1544 4.03119 15.1947 3.98177 15.1947H2.4681C2.41859 15.1947 2.37826 15.1545 2.37826 15.1051ZM4.09388 14.7267H4.45267V14.7883V14.8527V14.9143H4.09388V14.7267ZM5.06947 14.8527C5.06947 14.9733 4.97142 15.0714 4.85081 15.0714C4.73021 15.0714 4.63216 14.9733 4.63216 14.8527V14.7883C4.63216 14.6677 4.73021 14.5696 4.85081 14.5696C4.97142 14.5696 5.06947 14.6677 5.06947 14.7883V14.8527Z" fill="#D23741"/>
</g>
<defs>
<clipPath id="clip0_106_18131">
<rect width="50" height="50" fill="white"/>
</clipPath>
</defs>
</svg>
