<svg width="50" height="50" viewBox="0 0 50 50" fill="none" xmlns="http://www.w3.org/2000/svg">
<g clip-path="url(#clip0_106_18121)">
<path d="M49.1389 41.3796H12.9321V8.62109H49.139C49.6151 8.62109 50.0011 9.00713 50.0011 9.4832V40.5176C50.001 40.9937 49.615 41.3796 49.1389 41.3796Z" fill="#73AF00"/>
<path d="M12.9335 41.3797H0.864549C0.388476 41.3797 0.00244141 40.9937 0.00244141 40.5176V9.4832C0.00244141 9.00713 0.388476 8.62109 0.864549 8.62109H12.9335V41.3797Z" fill="#F5F5F5"/>
<path d="M40.2418 29.5114C36.2738 33.0461 30.1995 32.6829 26.6719 28.7079C23.151 24.7403 23.5073 18.6484 27.4752 15.1138C27.481 15.1087 27.4867 15.1036 27.4926 15.0985C27.5863 15.0161 27.4957 14.8664 27.3793 14.9117C23.4662 16.4355 20.6919 20.2417 20.6919 24.6982C20.6919 30.5033 25.3863 35.2047 31.1775 35.2047C35.1837 35.2047 38.6554 32.9505 40.419 29.6413C40.4778 29.5309 40.3399 29.4235 40.2465 29.5069C40.2451 29.5083 40.2433 29.5099 40.2418 29.5114Z" fill="#F5F5F5"/>
<path d="M35.1376 16.8549L36.5165 18.4019L38.4267 17.598C38.6739 17.4939 38.9114 17.7645 38.7761 17.9961L37.7309 19.7857L39.0857 21.3538C39.261 21.5569 39.0771 21.8663 38.815 21.8092L36.7901 21.3682L35.7172 23.1412C35.5783 23.3707 35.2272 23.2914 35.2004 23.0244L34.9942 20.9623L32.9764 20.4899C32.7152 20.4286 32.6821 20.0703 32.9278 19.9623L34.8252 19.129L34.651 17.0641C34.6284 16.7968 34.9592 16.6547 35.1376 16.8549Z" fill="#F5F5F5"/>
</g>
<defs>
<clipPath id="clip0_106_18121">
<rect width="50" height="50" fill="white"/>
</clipPath>
</defs>
</svg>
