<svg width="50" height="50" viewBox="0 0 50 50" fill="none" xmlns="http://www.w3.org/2000/svg">
<g clip-path="url(#clip0_106_18118)">
<path d="M49.1383 41.3796H0.862596C0.386523 41.3796 0.000488281 40.9936 0.000488281 40.5175V9.4832C0.000488281 9.00713 0.386523 8.62109 0.862596 8.62109H49.1384C49.6145 8.62109 50.0005 9.00713 50.0005 9.4832V40.5175C50.0004 40.9937 49.6144 41.3796 49.1383 41.3796Z" fill="#3CC8FF"/>
<path d="M25.0007 35.3447C30.7139 35.3447 35.3454 30.7132 35.3454 25C35.3454 19.2868 30.7139 14.6553 25.0007 14.6553C19.2875 14.6553 14.656 19.2868 14.656 25C14.656 30.7132 19.2875 35.3447 25.0007 35.3447Z" fill="#FFE15A"/>
</g>
<defs>
<clipPath id="clip0_106_18118">
<rect width="50" height="50" fill="white"/>
</clipPath>
</defs>
</svg>
