<svg width="50" height="50" viewBox="0 0 50 50" fill="none" xmlns="http://www.w3.org/2000/svg">
<g clip-path="url(#clip0_106_18113)">
<path d="M50.0014 19.5407H0.00146484V9.4832C0.00146484 9.00713 0.387499 8.62109 0.863573 8.62109H49.1394C49.6154 8.62109 50.0015 9.00713 50.0015 9.4832L50.0014 19.5407Z" fill="#464655"/>
<path d="M49.1393 41.3795H0.863573C0.387499 41.3795 0.00146484 40.9934 0.00146484 40.5174V30.46H50.0014V40.5174C50.0014 40.9935 49.6153 41.3795 49.1393 41.3795Z" fill="#73AF00"/>
<path d="M50.0014 19.54H0.00146484V30.459H50.0014V19.54Z" fill="#F5F5F5"/>
<path d="M0.319433 41.1708L20.1281 25.4467C20.4158 25.2184 20.4158 24.7815 20.1281 24.5531L0.319433 8.8291C0.129492 8.98721 0.00146484 9.21631 0.00146484 9.48271V40.5171C0.00146484 40.7836 0.129492 41.0127 0.319433 41.1708Z" fill="#FF4B55"/>
</g>
<defs>
<clipPath id="clip0_106_18113">
<rect width="50" height="50" fill="white"/>
</clipPath>
</defs>
</svg>
