<svg width="50" height="50" viewBox="0 0 50 50" fill="none" xmlns="http://www.w3.org/2000/svg">
<g clip-path="url(#clip0_106_18106)">
<path d="M49.1383 41.3797H0.862596C0.386523 41.3797 0.000488281 40.9937 0.000488281 40.5176V9.4832C0.000488281 9.00713 0.386523 8.62109 0.862596 8.62109H49.1384C49.6145 8.62109 50.0005 9.00713 50.0005 9.4832V40.5176C50.0004 40.9938 49.6144 41.3797 49.1383 41.3797Z" fill="#F5F5F5"/>
<path d="M25.0005 25.0005H49.1383C49.6144 25.0005 50.0004 24.6144 50.0004 24.1383V9.4832C50.0004 9.00713 49.6144 8.62109 49.1383 8.62109H25.8626C25.3865 8.62109 25.0005 9.00713 25.0005 9.4832V25.0005Z" fill="#FF4B55"/>
<path d="M0.863573 41.3793H24.1394C24.6155 41.3793 25.0015 40.9932 25.0015 40.5172V25H0.863573C0.387499 25 0.00146484 25.386 0.00146484 25.8621V40.5173C0.00146484 40.9933 0.387499 41.3793 0.863573 41.3793Z" fill="#4173CD"/>
<path d="M12.8335 13.1338L13.6554 15.5981L16.253 15.6182C16.5894 15.6207 16.7288 16.05 16.4582 16.2497L14.3686 17.7928L15.1521 20.2695C15.2534 20.5902 14.8884 20.8554 14.6147 20.6599L12.5015 19.1494L10.3881 20.66C10.1145 20.8556 9.74943 20.5902 9.85079 20.2696L10.6343 17.7929L8.54464 16.2498C8.27404 16.05 8.41349 15.6208 8.74982 15.6183L11.3475 15.5982L12.1693 13.1339C12.2758 12.8148 12.7272 12.8148 12.8335 13.1338Z" fill="#4173CD"/>
<path d="M37.8325 29.5127L38.6544 31.977L41.252 31.9971C41.5884 31.9996 41.7278 32.4289 41.4572 32.6286L39.3676 34.1717L40.1511 36.6484C40.2524 36.9691 39.8874 37.2343 39.6138 37.0388L37.5005 35.5283L35.3871 37.0389C35.1135 37.2345 34.7484 36.9691 34.8498 36.6485L35.6333 34.1718L33.5437 32.6287C33.2731 32.4289 33.4125 31.9997 33.7488 31.9972L36.3465 31.9771L37.1684 29.5128C37.2748 29.1937 37.7262 29.1937 37.8325 29.5127Z" fill="#FF4B55"/>
</g>
<defs>
<clipPath id="clip0_106_18106">
<rect width="50" height="50" fill="white"/>
</clipPath>
</defs>
</svg>
