<svg width="50" height="50" viewBox="0 0 50 50" fill="none" xmlns="http://www.w3.org/2000/svg">
<g clip-path="url(#clip0_106_18096)">
<path d="M49.1393 41.3797H0.863573C0.387499 41.3797 0.00146484 40.9937 0.00146484 40.5176V9.4832C0.00146484 9.00713 0.387499 8.62109 0.863573 8.62109H49.1394C49.6154 8.62109 50.0015 9.00713 50.0015 9.4832V40.5176C50.0014 40.9938 49.6153 41.3797 49.1393 41.3797Z" fill="#FF4B55"/>
<path d="M0.319433 8.8291C0.129492 8.98721 0.00146484 9.21631 0.00146484 9.48271V40.5171C0.00146484 40.9932 0.387499 41.3792 0.863573 41.3792H49.1394C49.3489 41.3792 49.534 41.2953 49.6834 41.1708L0.319433 8.8291Z" fill="#464655"/>
<path d="M5.03023 24.4423L4.53687 25.9216L2.9775 25.9337C2.82789 25.9349 2.76597 26.1257 2.88619 26.2145L4.14058 27.1408L3.67017 28.6275C3.62505 28.7701 3.78746 28.8881 3.90904 28.8012L5.17769 27.8943L6.44634 28.8012C6.56802 28.8882 6.73032 28.7701 6.6852 28.6275L6.2148 27.1408L7.46919 26.2145C7.5894 26.1258 7.52749 25.935 7.37788 25.9337L5.81851 25.9216L5.32515 24.4423C5.27818 24.3005 5.07749 24.3005 5.03023 24.4423Z" fill="#F5F5F5"/>
<path d="M15.6533 24.4423L15.1599 25.9216L13.6005 25.9337C13.4509 25.9349 13.389 26.1257 13.5092 26.2145L14.7636 27.1408L14.2932 28.6275C14.2481 28.7701 14.4105 28.8881 14.5321 28.8012L15.8007 27.8943L17.0694 28.8012C17.1911 28.8882 17.3534 28.7701 17.3083 28.6275L16.8378 27.1408L18.0922 26.2145C18.2124 26.1258 18.1505 25.935 18.0009 25.9337L16.4416 25.9216L15.9482 24.4423C15.9013 24.3005 15.7006 24.3005 15.6533 24.4423Z" fill="#F5F5F5"/>
<path d="M10.3418 18.0028L9.84839 19.4821L8.28902 19.4942C8.13941 19.4954 8.0775 19.6862 8.19771 19.7751L9.4521 20.7014L8.9817 22.1881C8.93658 22.3307 9.09898 22.4486 9.22056 22.3617L10.4892 21.4549L11.7579 22.3617C11.8795 22.4486 12.0418 22.3307 11.9967 22.1881L11.5263 20.7014L12.7807 19.7751C12.9009 19.6863 12.839 19.4955 12.6894 19.4942L11.13 19.4821L10.6367 18.0028C10.5897 17.861 10.3891 17.861 10.3418 18.0028Z" fill="#F5F5F5"/>
<path d="M10.3418 33.8378L9.84839 35.3171L8.28902 35.3292C8.13941 35.3304 8.0775 35.5212 8.19771 35.6101L9.4521 36.5363L8.9817 38.023C8.93658 38.1656 9.09898 38.2836 9.22056 38.1967L10.4892 37.2898L11.7579 38.1967C11.8795 38.2837 12.0418 38.1656 11.9967 38.023L11.5263 36.5363L12.7807 35.6101C12.9009 35.5213 12.839 35.3305 12.6894 35.3292L11.13 35.3171L10.6367 33.8378C10.5897 33.696 10.3891 33.696 10.3418 33.8378Z" fill="#F5F5F5"/>
<path d="M12.8165 29.9794L12.5541 30.766L11.7249 30.7725C11.6454 30.7731 11.6124 30.8745 11.6763 30.9218L12.3433 31.4144L12.0932 32.205C12.0692 32.2809 12.1555 32.3435 12.2203 32.2973L12.895 31.815L13.5697 32.2973C13.6343 32.3434 13.7207 32.2808 13.6967 32.205L13.4466 31.4144L14.1136 30.9218C14.1776 30.8746 14.1447 30.773 14.0651 30.7725L13.2359 30.766L12.9735 29.9794C12.9483 29.904 12.8416 29.904 12.8165 29.9794Z" fill="#F5F5F5"/>
<path d="M42.7328 24.2528C42.6066 23.2759 42.1892 22.3105 41.886 21.7143C42.0357 21.7892 42.2685 21.924 42.2685 21.924L42.0631 21.1791C42.5767 21.3846 42.9621 21.7828 42.9621 21.7828C42.7051 20.4985 42.307 19.8949 42.307 19.8949L42.6281 20.0106C42.0244 18.5207 41.1254 18.0969 41.1254 18.0969L41.639 17.9685C40.8813 17.0181 39.8153 16.697 39.8153 16.697L40.5089 16.363C38.6722 15.3227 36.8999 16.4144 36.8999 16.4144C36.8999 16.4144 37.5164 15.7723 37.7475 15.5026C37.9787 15.2328 37.4264 15.143 37.4264 15.143C37.4264 15.143 37.9659 14.7705 37.9401 14.5522C37.9143 14.3337 37.4264 14.4494 37.4264 14.4494C37.4264 14.4494 37.8503 14.0128 37.8503 13.7688C37.8503 13.5247 37.4136 13.6789 37.4136 13.6789C37.4136 13.6789 37.555 13.3835 37.5935 13.1523C37.6321 12.9211 37.2082 13.1137 37.2082 13.1137C37.2082 13.1137 37.6834 12.2661 37.6578 12.0863C37.6321 11.9064 36.412 12.6642 35.5387 13.4991C34.6653 14.334 34.7701 15.6754 34.8474 15.9947C34.9248 16.3139 34.9732 17.0584 34.5863 17.3195C34.1995 17.5806 33.5093 16.9411 33.1668 16.5473C32.8243 16.1534 32.3962 16.2904 31.951 16.4446C31.5058 16.5987 30.6666 16.3932 30.4098 16.3589C30.1528 16.3246 30.7008 16.6158 31.1632 16.787C31.6256 16.9582 31.831 17.3693 32.4818 17.609C33.0517 17.8191 33.5082 18.3522 33.0598 18.5979C32.7103 18.7894 32.713 18.4823 31.1719 18.0842C29.6307 17.6862 27.7812 21.6032 27.7812 21.6032C28.7713 21.4808 29.2773 20.8877 29.2773 20.8877L29.0099 21.655C29.7415 21.5164 30.0993 21.0715 30.0993 21.0715L29.9059 21.8452C30.4667 21.6711 30.8536 21.0715 30.8536 21.0715L30.6892 21.8355C31.2403 21.5743 31.5306 21.0715 31.5306 21.0715C31.5886 21.352 31.6343 21.9243 31.6343 21.9243C32.488 21.468 32.6874 20.8198 32.6874 20.8198C33.6635 23.7738 35.0763 24.2618 35.0763 24.2618L35.1533 23.4912C35.5899 24.1077 36.2064 24.4159 36.2064 24.4159L36.1037 23.7481C37.6192 25.5975 39.3659 26.0599 39.3659 26.0599L38.9186 25.0362L39.4686 25.1479C38.8778 24.647 38.6594 23.7736 38.6594 23.7736L39.1218 23.8507C38.3769 23.17 38.0045 22.3865 38.0045 22.3865L38.4541 22.4636C38.3128 22.2452 38.1971 21.4747 38.1971 21.4747C39.0191 21.7317 39.4429 22.0527 39.4429 22.0527L39.4917 21.7729C40.1968 22.281 41.3549 23.2269 42.1574 24.416C42.1585 24.8039 42.0958 25.1956 41.9346 25.5888C41.1985 27.3843 39.2632 27.267 38.4069 26.8901C38.4069 26.8901 41.0612 28.9622 42.5169 26.0168C42.6091 25.8303 42.6669 25.6305 42.7082 25.4256C42.8897 25.8586 43.0152 26.3102 43.0392 26.7788C43.1933 29.7842 40.0596 29.5017 40.0596 29.5017C40.0596 29.5017 43.5273 30.8888 43.6815 26.8817C43.7155 25.9906 43.3382 25.0998 42.7328 24.2528ZM39.582 21.2529L39.5971 21.1662C40.1238 21.3203 40.676 21.6929 40.676 21.6929L40.798 21.3269C41.319 21.9529 41.7351 22.6267 41.9668 23.3241C41.2634 22.5685 40.4206 21.8667 39.582 21.2529Z" fill="#FFE15A"/>
</g>
<defs>
<clipPath id="clip0_106_18096">
<rect width="50" height="50" fill="white"/>
</clipPath>
</defs>
</svg>
