<svg width="50" height="50" viewBox="0 0 50 50" fill="none" xmlns="http://www.w3.org/2000/svg">
<g clip-path="url(#clip0_106_18088)">
<path d="M49.9999 19.5407H0V9.4832C0 9.00713 0.386034 8.62109 0.862108 8.62109H49.1379C49.614 8.62109 50 9.00713 50 9.4832L49.9999 19.5407Z" fill="#FF4B55"/>
<path d="M49.1378 41.3795H0.862108C0.386034 41.3795 0 40.9934 0 40.5174V30.46H49.9999V40.5174C49.9999 40.9935 49.6139 41.3795 49.1378 41.3795Z" fill="#41479B"/>
<path d="M49.9999 19.54H0V30.459H49.9999V19.54Z" fill="#F5F5F5"/>
<path d="M24.9998 20.6895C22.6193 20.6895 20.6895 22.6192 20.6895 24.9998C20.6895 27.3804 22.6193 29.3101 24.9998 29.3101C27.3803 29.3101 29.3101 27.3804 29.3101 24.9998C29.3101 22.6192 27.3803 20.6895 24.9998 20.6895ZM24.9998 28.2506C23.2046 28.2506 21.749 26.7952 21.749 24.9998C21.749 23.2044 23.2045 21.749 24.9998 21.749C26.7951 21.749 28.2506 23.2045 28.2506 24.9998C28.2506 26.7951 26.795 28.2506 24.9998 28.2506Z" fill="#FF4B55"/>
<path d="M25 26.4951C25.8257 26.4951 26.4951 25.8257 26.4951 25C26.4951 24.1743 25.8257 23.5049 25 23.5049C24.1743 23.5049 23.5049 24.1743 23.5049 25C23.5049 25.8257 24.1743 26.4951 25 26.4951Z" fill="#41479B"/>
<path d="M25.0973 23.868L25.3382 24.5907L26.0999 24.5966C26.1985 24.5974 26.2394 24.7233 26.16 24.7819L25.5473 25.2343L25.7771 25.9605C25.8069 26.0545 25.6999 26.1323 25.6196 26.0749L24.9999 25.6321L24.3801 26.0749C24.2999 26.1323 24.1928 26.0544 24.2226 25.9605L24.4524 25.2343L23.8397 24.7819C23.7604 24.7233 23.8012 24.5974 23.8999 24.5966L24.6615 24.5907L24.9024 23.868C24.9336 23.7745 25.0661 23.7745 25.0973 23.868Z" fill="#FFE15A"/>
<path d="M27.8277 25.0352C27.8277 25.0352 27.9132 24.6401 27.4928 25.1142C27.4928 25.1142 27.4989 24.9793 27.487 24.868C27.5795 24.7679 27.6941 24.549 27.6672 24.0817C27.6672 24.0817 27.6013 23.6829 27.3848 24.2783C27.3848 24.2783 27.3258 24.1026 27.263 24.0053C27.3151 23.8971 27.3555 23.7002 27.2304 23.3269C27.2304 23.3269 27.0842 23.0076 27.0387 23.5562C27.0387 23.5562 26.9186 23.3767 26.8406 23.3326C26.8557 23.2441 26.8438 23.0922 26.6673 22.8462C26.6673 22.8462 26.4911 22.6489 26.5801 23.0538C26.5801 23.0538 26.4188 22.9232 26.3673 22.9385C26.3405 22.8612 26.2631 22.7304 26.003 22.5584C26.003 22.5584 25.7777 22.435 26.0362 22.757C26.0362 22.757 25.8077 22.6664 25.8104 22.7183C25.8132 22.7703 25.9236 22.8661 26.0143 22.9089C26.0143 22.9089 25.6792 22.9436 25.8168 23.0183C25.8168 23.0183 26.1567 23.1356 26.3609 23.0227C26.3773 23.0822 26.4106 23.1489 26.46 23.1968C26.46 23.1968 26.0612 23.1194 26.1692 23.2391C26.1692 23.2391 26.4683 23.459 26.764 23.4253C26.7626 23.5067 26.7872 23.6119 26.8305 23.6907C26.8305 23.6907 26.3549 23.4365 26.445 23.6305C26.445 23.6305 26.7294 24.0109 27.1077 24.0934C27.0922 24.178 27.0925 24.2802 27.113 24.3649C27.113 24.3649 26.6616 23.9386 26.7029 24.1815C26.7029 24.1815 26.8916 24.6817 27.274 24.8942C27.2429 24.9577 27.2174 25.0287 27.208 25.095C27.208 25.095 26.9451 24.5324 26.8942 24.7735C26.8942 24.7735 26.8855 25.3354 27.1855 25.6714C27.1217 25.7246 27.0591 25.7989 27.0207 25.8718C27.0207 25.8718 26.9632 25.2538 26.8339 25.4634C26.8339 25.4634 26.6552 25.9318 26.7762 26.3354C26.6962 26.359 26.6091 26.4027 26.5446 26.4549C26.5446 26.4549 26.7353 25.864 26.5339 26.0058C26.5339 26.0058 26.1751 26.394 26.1476 26.8307C26.0525 26.8288 25.9237 26.863 25.8304 26.9188C25.8304 26.9188 26.1033 26.3613 25.8836 26.4728C25.8836 26.4728 25.4922 26.7925 25.3911 27.2075C25.2985 27.2603 25.1413 27.3501 24.9842 27.4391C24.8928 27.3861 24.804 27.3345 24.7281 27.2902L24.7307 27.2861L23.8409 26.5402L23.8586 26.7841L23.4118 25.9851L23.3566 26.257L23.2103 25.3737L23.0806 25.5041L23.1308 24.68L22.9616 24.7713L23.2688 24.1584L23.1245 24.1991L23.5041 23.8352L23.3034 23.8523L23.7833 23.6344L23.6079 23.6075L24.0764 23.3703L23.8745 23.3605L24.4818 23.1504L24.3706 23.0531L24.8963 22.898L24.2664 22.85L24.4458 22.6292L23.9652 22.8751L24.0342 22.5426L23.6138 22.9756L23.6868 22.6724L23.2934 23.0639L23.3187 22.7684L22.9298 23.4272L22.8796 23.1324L22.5563 23.872L22.4674 23.5498L22.323 24.4671L22.2026 24.3305L22.3609 25.2153L22.1602 25.0647L22.5282 25.8594C22.5282 25.8594 22.2605 25.7423 22.2271 25.7423C22.1936 25.7423 22.867 26.4263 22.867 26.4263L22.5156 26.3887L23.1945 26.8661L22.9423 26.9284L23.507 27.1479L23.3689 27.2547L24.5381 27.3383C24.5381 27.3383 24.6508 27.4322 24.8041 27.5409C24.7231 27.5866 24.6519 27.6263 24.6079 27.6504C24.5635 27.6747 24.5113 27.6771 24.4645 27.6576C24.3535 27.611 24.193 27.5454 24.1155 27.5144C24.1155 27.5144 24.123 27.8467 24.469 27.855C24.6111 27.8583 24.8049 27.7678 24.9851 27.6609C25.1695 27.7759 25.3731 27.8774 25.5202 27.8739C25.8587 27.8656 25.8661 27.5333 25.8661 27.5333C25.7903 27.5643 25.6331 27.6299 25.5246 27.6764C25.4788 27.696 25.4278 27.6935 25.3844 27.6693C25.3364 27.6424 25.2575 27.5974 25.1671 27.5452C25.2595 27.4826 25.3369 27.4257 25.3913 27.3838C25.4765 27.4507 25.7202 27.5683 26.2649 27.3638C26.2649 27.3638 26.6263 27.1824 25.9933 27.1526C25.9933 27.1526 26.1108 27.0664 26.1901 26.9845C26.2939 27.0379 26.5505 27.1012 27.0382 26.8335C27.0382 26.8335 27.37 26.6023 26.7393 26.663C26.7393 26.663 26.8235 26.581 26.8897 26.4976C26.9985 26.5098 27.2672 26.4807 27.6234 26.0251C27.6234 26.0251 27.8373 25.682 27.2816 25.9863C27.2816 25.9863 27.3535 25.815 27.3704 25.7004C27.4936 25.6411 27.6808 25.4797 27.8277 25.0352Z" fill="#64C86E"/>
</g>
<defs>
<clipPath id="clip0_106_18088">
<rect width="50" height="50" fill="white"/>
</clipPath>
</defs>
</svg>
