<svg width="50" height="50" viewBox="0 0 50 50" fill="none" xmlns="http://www.w3.org/2000/svg">
<g clip-path="url(#clip0_106_17998)">
<path d="M49.1388 41.3796H0.863084C0.387011 41.3796 0.000976562 40.9936 0.000976562 40.5175V9.4832C0.000976562 9.00713 0.387011 8.62109 0.863084 8.62109H49.1389C49.6149 8.62109 50.001 9.00713 50.001 9.4832V40.5175C50.0009 40.9937 49.6148 41.3796 49.1388 41.3796Z" fill="#41479B"/>
<path d="M24.1388 8.62109H22.6415L14.6561 13.8528V8.62109H10.3458V13.8528L2.36044 8.62109H0.863084C0.387011 8.62109 0.000976562 9.00713 0.000976562 9.4832V10.167L6.85204 14.6556H0.000976562V18.9659H6.85204L0.000976562 23.4546V24.1383C0.000976562 24.6143 0.387011 25.0004 0.863084 25.0004H2.36044L10.3458 19.7686V25.0004H14.6561V19.7686L22.6414 25.0004H24.1387C24.6148 25.0004 25.0008 24.6143 25.0008 24.1383V23.4545L18.1499 18.9659H25.0008V14.6556H18.1498L25.0008 10.167V9.4832C25.0008 9.00713 24.615 8.62109 24.1388 8.62109Z" fill="#F5F5F5"/>
<path d="M25.0018 15.5177H13.795V8.62109H11.2088V15.5177H0.00195312V18.1038H11.2088V25.0004H13.795V18.1038H25.0018V15.5177Z" fill="#FF4B55"/>
<path d="M9.48465 14.6554L0.412792 8.7666C0.171386 8.91943 0.00195312 9.17607 0.00195312 9.48301V9.52773L7.90125 14.6554H9.48465Z" fill="#FF4B55"/>
<path d="M16.2401 14.6556L24.8704 9.05342C24.7204 8.79961 24.4557 8.62109 24.1394 8.62109H23.953L14.6567 14.6556H16.2401Z" fill="#FF4B55"/>
<path d="M8.73973 18.9658L0.125977 24.5572C0.274511 24.8172 0.543261 25.0003 0.864159 25.0003H1.02676L10.3231 18.9658H8.73973Z" fill="#FF4B55"/>
<path d="M24.9882 24.2059L16.9153 18.9658H15.332L24.4993 24.9164C24.774 24.789 24.9623 24.5219 24.9882 24.2059Z" fill="#FF4B55"/>
<path d="M37.8137 17.3208C37.7942 17.3208 37.7744 17.3146 37.7575 17.3019C37.7441 17.2916 36.4062 16.2489 37.1941 14.4817C37.215 14.4349 37.27 14.4142 37.3171 14.4347C37.364 14.4558 37.385 14.5105 37.3642 14.5576C36.6373 16.1872 37.8194 17.1152 37.8701 17.1539C37.9109 17.1849 37.9189 17.2432 37.8877 17.2841C37.8693 17.3081 37.8418 17.3208 37.8137 17.3208Z" fill="#73AF00"/>
<path d="M37.0433 15.7947C37.0396 15.7947 37.0361 15.7945 37.0325 15.7941C36.9814 15.788 36.945 15.7419 36.9508 15.6909C36.9895 15.3568 37.1152 15.1236 37.3246 14.998C37.6615 14.7955 38.0825 14.9573 38.1001 14.9644C38.1479 14.9831 38.1713 15.0368 38.1526 15.0846C38.1338 15.1325 38.0797 15.1562 38.0324 15.1374C38.0286 15.1361 37.6771 15.0025 37.4195 15.1578C37.2628 15.2525 37.1672 15.439 37.1358 15.7124C37.1301 15.7598 37.0898 15.7947 37.0433 15.7947Z" fill="#73AF00"/>
<path d="M37.2962 14.5959C37.2882 14.5754 37.0871 14.0981 36.1783 14.3012C35.1491 14.5318 35.1372 15.8895 35.1372 15.903C35.1372 15.9497 35.1719 15.9894 35.2184 15.9953C35.2224 15.9959 35.2264 15.9961 35.2302 15.9961C35.272 15.9961 35.3094 15.968 35.32 15.9267C35.7036 14.4655 37.1322 14.711 37.1929 14.7216C37.2272 14.7278 37.2603 14.7151 37.2814 14.6893C37.303 14.6631 37.3088 14.6273 37.2962 14.5959Z" fill="#73AF00"/>
<path d="M37.082 15.3525C37.082 15.3525 36.4621 14.9574 36.2063 15.461C35.9506 15.9647 36.1444 16.5071 36.2451 16.724C36.2451 16.724 36.6146 16.3155 36.9658 16.259C37.3998 16.1893 37.5083 15.6468 37.206 15.3756C36.8449 15.0517 37.082 15.3525 37.082 15.3525Z" fill="#73AF00"/>
<path d="M37.759 14.4268C37.7502 14.9691 38.0524 15.0402 38.0524 15.0402C38.2478 14.5423 37.759 14.4268 37.759 14.4268Z" fill="#73AF00"/>
<path d="M37.6646 15.5667C37.6687 15.0521 38.0177 14.9941 38.0177 14.9941C38.2292 15.4726 37.6646 15.5667 37.6646 15.5667Z" fill="#73AF00"/>
<path d="M39.6776 15.1513C39.6776 15.1513 39.1841 15.0783 38.9947 14.9889C38.8372 14.9145 38.6315 14.7351 38.3654 14.7701C38.162 14.7701 37.9971 14.935 37.9971 15.1385C37.9971 15.342 38.1368 15.5856 38.8679 15.5315C39.2223 15.5053 39.5242 15.6672 39.5242 15.6672C39.4778 15.4735 39.6776 15.1513 39.6776 15.1513Z" fill="#FF4B55"/>
<path d="M39.1654 15.3125C39.1654 15.3125 38.4084 15.365 38.2422 15.2425C38.0888 15.1294 38.1288 14.9494 38.2859 14.9319C38.5223 14.9056 39.1654 15.3125 39.1654 15.3125Z" fill="#FFE15A"/>
<path d="M40.6385 16.17L38.9646 17.2161L38.7728 17.0301L39.691 16.1408L39.906 16.228L40.1152 15.949L39.6154 15.6875C39.6154 15.6875 38.2903 16.9369 37.163 17.0416C36.7837 17.0769 36.3972 17.052 36.0957 16.9279L35.4194 17.9018L36.8374 19.1105L38.918 19.0292L40.6382 16.6929L40.9403 16.8323L41.196 16.5302L40.6385 16.17Z" fill="#B49B91"/>
<path d="M35.9744 18.9867C35.5088 18.9867 35.1299 18.6078 35.1299 18.1424C35.1299 17.6768 35.5088 17.2979 35.9744 17.2979C36.4399 17.2979 36.8186 17.6768 36.8186 18.1424C36.8188 18.6079 36.4399 18.9867 35.9744 18.9867ZM35.9744 17.5769C35.6626 17.5769 35.4089 17.8306 35.4089 18.1424C35.4089 18.4542 35.6626 18.7078 35.9744 18.7078C36.2862 18.7078 36.5398 18.4543 36.5398 18.1424C36.5398 17.8305 36.2863 17.5769 35.9744 17.5769Z" fill="#9B8278"/>
<path d="M39.493 19.7694C39.493 19.7694 39.6479 19.6686 39.8029 19.1961L39.4852 19.2426C39.4852 19.2426 39.5472 18.9791 39.4775 18.7854L39.1211 19.0644C39.1211 19.0644 38.9584 18.7234 38.8887 18.677C38.8887 18.677 38.6407 19.0257 38.5013 19.0721C38.5013 19.0721 38.3618 18.5684 38.2223 18.4677L37.982 18.8086L37.6256 18.5296C37.6256 18.5296 37.6256 18.7698 37.6179 18.8241C37.6102 18.8783 37.1529 18.3438 37.1529 18.3438C37.1529 18.3438 36.9515 18.429 36.6803 18.8629L36.3394 18.5142L36.1999 18.9714L35.7272 18.8474L35.8047 19.1186L35.394 19.0875C35.394 19.0875 35.4638 19.4904 35.6652 19.63L39.493 19.7694Z" fill="#73AF00"/>
<path d="M35.3861 21.4932C35.3861 21.4932 34.1076 23.1204 31.6899 22.9345L34.3168 23.2948L35.665 22.0163L35.3861 21.4932Z" fill="#73AF00"/>
<path d="M31.2129 22.6907C31.4686 22.8768 33.0494 23.3301 34.1884 22.7837C34.1884 22.7837 34.2116 23.0511 34.0838 23.2022C34.0838 23.2022 34.9206 22.8651 35.374 22.2374C35.8273 21.6097 34.4325 23.5857 34.4325 23.5857L32.2938 23.9808L31.4221 23.2601L31.2129 22.6907Z" fill="#FFE15A"/>
<path d="M31.045 16.8314C30.761 16.8552 30.4539 17.0262 30.2968 17.2339C30.2112 17.1976 30.0211 17.1814 29.8636 17.2863C29.6538 17.4262 29.2661 17.9313 28.9407 17.7977C28.9407 17.7977 28.9116 18.2741 29.4172 18.2568C29.4172 18.2568 29.2893 18.4545 29.3126 18.7683C29.3359 19.082 29.1092 19.2913 29.1092 19.2913C29.1092 19.2913 30.132 19.4365 30.1728 18.6404C30.1777 18.5432 30.1827 18.4574 30.1874 18.381C30.7212 18.6692 30.9313 18.2623 30.9313 18.2623C30.9313 18.2623 30.6105 17.9593 30.9369 17.5279C31.2634 17.0965 32.1608 18.1135 32.1608 18.1135C32.1784 17.7065 32.1419 16.7392 31.045 16.8314Z" fill="#FFE15A"/>
<path d="M34.9985 19.5144C34.9985 19.5144 34.7041 19.7159 33.7897 19.5299C33.7897 19.5299 33.9912 19.0805 33.8982 18.817C33.8982 18.817 33.6503 19.0495 33.0459 19.282C32.4415 19.5145 31.6976 20.2583 31.4806 20.7387C31.4806 20.7387 32.8399 17.6051 31.7479 17.2866C31.3733 17.1773 31.0512 17.3544 30.9372 17.5282C30.9923 17.5932 31.0452 17.6859 31.0506 17.8096C31.0622 18.077 30.7949 19.8786 30.3997 21.1222C30.3997 21.1222 30.2834 20.6921 30.0976 20.4829C29.9117 20.2736 29.7722 19.9366 29.7722 19.9366C29.7722 19.9366 29.4584 20.1458 29.5048 20.5293C29.5048 20.5293 29.3305 20.3899 28.9934 20.4829C28.6562 20.5758 28.5284 20.3549 28.5284 20.3549C28.5284 20.3549 28.2494 21.0988 29.0747 21.4824C29.0747 21.4824 28.8539 21.587 28.7493 21.6684C28.6447 21.7497 28.4819 21.7498 28.4819 21.7498C28.4819 21.7498 28.7726 22.2844 29.3885 22.3425C30.0045 22.4006 30.2876 22.5762 30.4811 22.8926C31.1088 23.9194 32.3099 24.6981 34.2703 23.497C34.2703 23.497 31.4808 24.3649 31.3567 22.5827C31.2482 21.0236 32.9529 20.7075 33.1234 21.0484C33.2939 21.3893 33.1079 21.6838 33.1079 21.6838C33.1079 21.6838 34.0378 21.4669 33.5883 20.6144C33.5883 20.6148 34.5026 20.7543 34.9985 19.5144Z" fill="#73AF00"/>
<path d="M43.9521 22.6913C43.6965 22.8774 42.0809 23.5747 40.9649 22.4589C39.8491 21.3431 39.414 19.6678 39.4771 19.8553H38.3613L38.7333 23.2028L42.8712 23.9817L43.743 23.261L43.9521 22.6913Z" fill="#73AF00"/>
<path d="M44.1205 16.8314C44.4045 16.8552 44.7117 17.0262 44.8688 17.2339C44.9543 17.1976 45.1445 17.1814 45.302 17.2863C45.5118 17.4262 45.8993 17.9313 46.2248 17.7977C46.2248 17.7977 46.2539 18.2741 45.7484 18.2568C45.7484 18.2568 45.8763 18.4545 45.853 18.7683C45.8297 19.082 46.0564 19.2913 46.0564 19.2913C46.0564 19.2913 45.0335 19.4365 44.9928 18.6404C44.9878 18.5432 44.9828 18.4574 44.9782 18.381C44.4444 18.6692 44.2343 18.2623 44.2343 18.2623C44.2343 18.2623 44.555 17.9593 44.2286 17.5279C43.9021 17.0965 43.0046 18.1135 43.0046 18.1135C42.9871 17.7065 43.0237 16.7392 44.1205 16.8314Z" fill="#73AF00"/>
<path d="M40.166 19.5134C40.166 19.5134 40.4604 19.7149 41.3748 19.529C41.3748 19.529 41.1733 19.0795 41.2663 18.8161C41.2663 18.8161 41.5143 19.0485 42.1186 19.281C42.723 19.5135 43.4669 20.2574 43.684 20.7377C43.684 20.7377 42.3246 17.6042 43.4166 17.2856C43.7912 17.1763 44.1134 17.3535 44.2273 17.5272C44.1723 17.5922 44.1193 17.6849 44.114 17.8086C44.1023 18.076 44.3696 19.8776 44.7648 21.1212C44.7648 21.1212 44.8811 20.6912 45.067 20.4819C45.2528 20.2726 45.3924 19.9356 45.3924 19.9356C45.3924 19.9356 45.7061 20.1449 45.6598 20.5284C45.6598 20.5284 45.8341 20.3889 46.1712 20.4819C46.5083 20.5748 46.6361 20.354 46.6361 20.354C46.6361 20.354 46.9151 21.0978 46.0898 21.4814C46.0898 21.4814 46.3106 21.586 46.4152 21.6674C46.5198 21.7488 46.6826 21.7488 46.6826 21.7488C46.6826 21.7488 46.392 22.2834 45.7761 22.3415C45.16 22.3997 44.8769 22.5752 44.6835 22.8916C44.0558 23.9184 42.8547 24.6971 40.8942 23.496C40.8942 23.496 43.6838 24.3639 43.8078 22.5817C43.9163 21.0226 42.2116 20.7065 42.0411 21.0474C41.8706 21.3883 42.0566 21.6829 42.0566 21.6829C42.0566 21.6829 41.1268 21.466 41.5763 20.6134C41.5764 20.6138 40.6619 20.7534 40.166 19.5134Z" fill="#FFE15A"/>
<path d="M39.3755 22.1172C39.8327 22.7836 40.4681 23.388 42.3123 23.9613C44.1565 24.5347 44.6495 24.6199 45.6159 25.4017C45.6159 25.4017 45.7995 25.5955 45.8698 25.9062C45.9523 26.2713 45.3894 27.3242 45.3894 27.3242C45.3894 27.3242 45.4436 27.0763 45.1027 26.5959C44.7618 26.1155 42.7471 25.2477 41.6932 24.9842C40.6393 24.7207 38.8183 23.4983 39.3222 22.582L39.3755 22.1172Z" fill="#73AF00"/>
<path d="M45.6149 25.3994C45.6157 25.4004 45.616 25.4015 45.6169 25.4025C45.6156 25.4012 45.6145 25.3998 45.6133 25.3984L45.6149 25.3994Z" fill="#73AF00"/>
<path d="M45.5661 27.6648C45.5661 27.6648 45.6126 28.0019 45.3337 28.2926C45.0547 28.5832 44.8572 28.7924 44.8688 29.0364C44.8688 29.0364 44.4503 28.7343 44.52 28.0601C44.52 28.0601 43.9737 28.5134 43.1484 28.0717C43.1484 28.0717 43.2298 27.2465 44.2992 27.1418C44.2992 27.1418 43.8808 26.8164 44.4271 26.3166C44.4271 26.3166 44.4906 26.5401 44.9851 26.6537C45.4151 26.7525 46.1803 26.2132 45.6145 25.4014C46.589 26.5024 46.0892 27.2579 45.5661 27.6648Z" fill="#FFE15A"/>
<path d="M38.9751 21.5049C38.9751 21.5049 39.2107 21.8901 39.8236 22.2643C40.5598 22.7137 40.6257 22.9229 40.6257 22.9229L40.1259 22.9112C40.1259 22.9112 40.7652 23.26 40.9396 23.7017C40.9396 23.7017 40.6722 23.7481 40.37 23.6667C40.37 23.6667 40.6141 23.8875 40.498 24.5966H39.2542L38.9751 21.5049Z" fill="#FFE15A"/>
<path d="M36.501 24.6903V21.7148C36.501 21.7148 35.491 23.4427 34.6187 24.6903H36.501Z" fill="#73AF00"/>
<path d="M35.6316 21.6521C35.3836 22.1015 34.6087 23.5816 32.7645 24.155C30.9203 24.7283 30.5832 24.6199 29.6167 25.4016C29.6167 25.4016 29.4331 25.5954 29.3628 25.9062C29.2802 26.2712 29.8431 27.3241 29.8431 27.3241C29.8431 27.3241 29.7889 27.0762 30.1298 26.5958C30.4708 26.1154 32.4741 25.197 33.5393 24.9841C35.0124 24.6896 36.3453 23.1089 36.1283 22.0861C35.9115 21.0632 35.6316 21.6521 35.6316 21.6521Z" fill="#FFE15A"/>
<path d="M29.6197 25.3994C29.6188 25.4004 29.6185 25.4015 29.6177 25.4025C29.6189 25.4012 29.62 25.3998 29.6212 25.3984L29.6197 25.3994Z" fill="#73AF00"/>
<path d="M29.6661 27.6658C29.6661 27.6658 29.6196 28.0029 29.8985 28.2935C30.1775 28.5842 30.3749 28.7934 30.3634 29.0374C30.3634 29.0374 30.7819 28.7352 30.7122 28.061C30.7122 28.061 31.2584 28.5143 32.0837 28.0726C32.0837 28.0726 32.0024 27.2475 30.933 27.1428C30.933 27.1428 31.3514 26.8174 30.8051 26.3176C30.8051 26.3176 30.7416 26.5411 30.2472 26.6547C29.8171 26.7535 29.052 26.2142 29.6178 25.4023C28.6432 26.5034 29.143 27.2589 29.6661 27.6658Z" fill="#73AF00"/>
<path d="M32.2393 32.625C32.2393 32.625 32.5027 33.8105 32.5183 35.0349C32.5183 35.0349 33.6728 35.0736 34.2308 34.2058C34.2308 34.2058 33.1149 33.6246 32.5183 32.501L32.2393 32.625Z" fill="#FFE15A"/>
<path d="M31.9909 30.0053C31.9444 29.4474 32.1924 28.0371 33.3236 27.0143L33.3514 25.7617C33.3514 25.7617 33.0144 25.7968 32.7155 26.0584L32.0762 27.0491L31.4834 29.2925L31.9909 30.0053Z" fill="#73AF00"/>
<path d="M32.0219 30.4085C32.0219 30.4085 32.0219 31.6018 32.5178 32.5007L32.2388 32.6246C32.2388 32.6246 31.2392 31.8381 31.03 30.2225C31.03 30.2225 30.135 30.8152 29.8057 29.6025C29.8057 29.6025 30.7665 29.99 31.0765 29.1066C31.3561 28.3096 31.6388 26.8586 32.7154 26.0586C32.2036 26.8452 31.4329 28.8587 32.0296 29.5716C32.1876 29.7603 32.6418 29.9203 33.1389 29.708C33.1065 30.1046 32.9174 30.7105 32.0219 30.4085Z" fill="#FFE15A"/>
<path d="M32.1667 32.8367L32.0034 32.5367C31.9749 32.4843 31.9942 32.4185 32.0468 32.3899L32.3447 32.228C32.3971 32.1995 32.4628 32.2188 32.4914 32.2714L32.6547 32.5714C32.6832 32.6238 32.6638 32.6895 32.6113 32.7181L32.3134 32.8801C32.2609 32.9086 32.1953 32.8892 32.1667 32.8367Z" fill="#FFCE5A"/>
<path d="M42.2498 32.624C42.2498 32.624 41.9863 33.8096 41.9708 35.0339C41.9708 35.0339 40.8162 35.0727 40.2583 34.2048C40.2583 34.2048 41.3741 33.6236 41.9708 32.5L42.2498 32.624Z" fill="#FFE15A"/>
<path d="M42.4981 30.0053C42.5446 29.4474 42.2967 28.0371 41.1654 27.0143L41.1377 25.7617C41.1377 25.7617 41.4747 25.7968 41.7735 26.0584L42.4129 27.0491L43.0057 29.2925L42.4981 30.0053Z" fill="#FFE15A"/>
<path d="M41.3506 29.708C41.8477 29.9203 42.3019 29.7603 42.4599 29.5716C43.0565 28.8587 42.2858 26.8452 41.774 26.0586C42.8508 26.8586 43.1333 28.3096 43.413 29.1066C43.7229 29.99 44.6838 29.6025 44.6838 29.6025C44.3545 30.8152 43.4595 30.2225 43.4595 30.2225C43.2502 31.8381 42.2507 32.6246 42.2507 32.6246L41.9717 32.5007C42.4676 31.6017 42.4676 30.4084 42.4676 30.4084C41.5721 30.7104 41.383 30.1045 41.3506 29.708Z" fill="#73AF00"/>
<path d="M42.3229 32.8367L42.4862 32.5367C42.5147 32.4843 42.4954 32.4185 42.4428 32.3899L42.1449 32.228C42.0925 32.1995 42.0268 32.2188 41.9982 32.2714L41.8349 32.5714C41.8064 32.6238 41.8258 32.6895 41.8783 32.7181L42.1762 32.8801C42.2288 32.9086 42.2944 32.8892 42.3229 32.8367Z" fill="#FFCE5A"/>
<path d="M33.5258 24.3184C33.3204 24.3184 33.1538 24.4849 33.1538 24.6903V28.7817C33.1538 29.8975 33.5258 33.9889 37.2452 35.4767C40.9647 33.9889 41.3366 29.8975 41.3366 28.7817V24.6903C41.3366 24.485 41.1701 24.3184 40.9646 24.3184H33.5258Z" fill="#4173CD"/>
<path d="M37.0196 24.3184L33.4922 31.0792C33.5805 31.3919 33.6905 31.7155 33.8287 32.0425L37.2451 25.4943L40.6615 32.0425C40.7997 31.7154 40.9097 31.3918 40.998 31.0792L37.4706 24.3184H37.0196Z" fill="#FFE15A"/>
<path d="M40.6609 32.0423L37.2445 25.4941L33.8281 32.0423C34.3908 33.3742 35.409 34.7424 37.2445 35.4765C39.0801 34.7423 40.0983 33.3741 40.6609 32.0423Z" fill="#73AF00"/>
<path d="M38.6276 32.4656L38.8526 32.5735C38.7583 32.713 38.5619 32.9386 38.1863 33.143C37.9026 33.2974 37.6284 33.4801 37.4304 33.62V30.5504L38.3602 30.4548V30.0828L37.4304 29.9872V29.5249C37.4304 29.4222 37.3471 29.3389 37.2443 29.3389C37.1567 29.3389 37.0867 29.4007 37.067 29.4823C37.0052 29.438 36.9335 29.4064 36.8519 29.4064C36.6438 29.4064 36.4744 29.5759 36.4744 29.784C36.4744 29.8819 36.5142 29.9695 36.5757 30.0368L36.1286 30.0828V30.4548L37.0585 30.5504V33.62C36.8605 33.4801 36.5863 33.2973 36.3025 33.143C35.9269 32.9387 35.7306 32.713 35.6362 32.5735L35.8612 32.4656L35.0127 31.3847V32.8725L35.2987 32.7352C35.4119 32.9176 35.6511 33.2119 36.1249 33.4695C36.5213 33.6852 36.906 33.9655 37.0584 34.0803L37.2444 34.2244L37.4305 34.0803C37.5829 33.9655 37.9677 33.6852 38.364 33.4695C38.8378 33.2119 39.0769 32.9176 39.1901 32.7352L39.4762 32.8725V31.3847L38.6276 32.4656ZM36.8519 29.9758C36.7463 29.9758 36.6603 29.8899 36.6603 29.7842C36.6603 29.6785 36.7462 29.5926 36.8519 29.5926C36.9576 29.5926 37.0435 29.6784 37.0435 29.7842C37.0435 29.8899 36.9577 29.9758 36.8519 29.9758Z" fill="#FFE15A"/>
<path d="M37.5318 29.1529H36.9571C36.8077 29.1529 36.6865 29.0318 36.6865 28.8823V27.9356C36.6865 27.7862 36.8076 27.665 36.9571 27.665H37.5318C37.6813 27.665 37.8024 27.7861 37.8024 27.9356V28.8823C37.8024 29.0318 37.6814 29.1529 37.5318 29.1529Z" fill="#F5F5F5"/>
<path d="M39.8481 24.3178C39.1043 23.2019 39.1043 20.9702 39.1043 20.9702C39.1043 20.9702 39.1043 19.4824 37.2446 19.4824C36.3025 19.4824 35.8386 19.8643 35.6093 20.2409C34.7167 20.5995 34.269 21.3421 34.269 21.3421C34.6495 21.5324 34.9857 21.623 35.2908 21.6463C35.8972 22.3679 36.0989 23.0646 36.1525 23.5658C35.8033 23.9225 35.6097 24.7826 36.1288 25.4335C36.1288 25.4335 37.2291 25.1778 38.158 24.3177H39.848V24.3178H39.8481Z" fill="#B49B91"/>
<path d="M38.1582 24.3175H39.5464C39.4766 23.6318 38.8023 23.7422 38.1582 24.3175Z" fill="#9B8278"/>
<path d="M39.5117 23.6157C39.1052 22.4616 39.1046 20.9704 39.1046 20.9704C39.1046 20.9704 39.1045 20.9462 39.1007 20.9045C38.6164 20.8388 38.1207 20.8744 37.1519 21.2494C36.1203 21.6486 35.6153 21.6601 35.291 21.6466C35.8974 22.3682 36.0991 23.0649 36.1527 23.5661L36.1677 24.3567C36.1677 24.3567 36.7488 24.442 38.0273 23.7058C38.6652 23.3386 39.2059 23.3071 39.5117 23.6157Z" fill="#9B8278"/>
<path d="M37.5317 20.8075C38.2861 20.6189 38.7675 20.6384 39.0776 20.7484C38.9945 20.3341 38.6529 19.4824 37.2451 19.4824C36.303 19.4824 35.8391 19.8643 35.6098 20.2409L35.0444 21.0322C35.0444 21.0322 35.7515 21.2525 37.5317 20.8075Z" fill="#9B8278"/>
<path d="M36.0155 19.3205C36.0888 19.3935 36.3073 19.9205 36.2623 19.9988C36.2333 20.0491 35.6513 20.1938 35.5569 20.12C35.4727 20.0542 35.3743 19.4866 35.4307 19.4211C35.4817 19.3619 35.9544 19.2595 36.0155 19.3205Z" fill="#FFE15A"/>
<path d="M36.764 19.2919C36.8316 19.3693 36.9847 19.8844 36.924 19.9502C36.8851 19.9924 36.2363 20.0436 36.1462 19.9626C36.0659 19.8903 36.0482 19.3545 36.1191 19.3023C36.1831 19.255 36.7076 19.2272 36.764 19.2919Z" fill="#73AF00"/>
<path d="M37.4725 19.2726C37.5425 19.3456 37.7022 19.8299 37.6396 19.8915C37.5992 19.931 36.9282 19.9776 36.8348 19.9011C36.7515 19.833 36.7318 19.3296 36.805 19.2807C36.8715 19.2365 37.4141 19.2118 37.4725 19.2726Z" fill="#FFE15A"/>
<path d="M38.1936 19.3062C38.2556 19.3858 38.3724 19.894 38.3074 19.953C38.2656 19.9908 37.615 19.9926 37.5309 19.9076C37.4559 19.8318 37.4754 19.3139 37.5497 19.2687C37.6168 19.2279 38.1418 19.2397 38.1936 19.3062Z" fill="#73AF00"/>
<path d="M39.6791 19.6143C39.727 19.703 39.7224 20.1751 39.6485 20.2225C39.6009 20.2528 39.0152 20.1484 38.9462 20.0508C38.8847 19.9637 38.9896 19.4561 39.0704 19.4237C39.1432 19.3945 39.639 19.54 39.6791 19.6143Z" fill="#73AF00"/>
<path d="M38.9946 19.4126C39.0533 19.4934 39.098 19.9674 39.0272 20.0175C38.9817 20.0497 38.3114 19.9946 38.2302 19.907C38.1576 19.8288 38.2106 19.3403 38.29 19.304C38.3621 19.271 38.9456 19.3452 38.9946 19.4126Z" fill="#FFE15A"/>
<path d="M35.9736 18.3955C36.1133 18.3955 36.2266 18.2823 36.2266 18.1426C36.2266 18.0029 36.1133 17.8896 35.9736 17.8896C35.8339 17.8896 35.7207 18.0029 35.7207 18.1426C35.7207 18.2823 35.8339 18.3955 35.9736 18.3955Z" fill="#9B8278"/>
</g>
<defs>
<clipPath id="clip0_106_17998">
<rect width="50" height="50" fill="white"/>
</clipPath>
</defs>
</svg>
