<svg width="50" height="50" viewBox="0 0 50 50" fill="none" xmlns="http://www.w3.org/2000/svg">
<g clip-path="url(#clip0_106_17966)">
<path d="M50.0004 15.1729H0.000488281V9.4832C0.000488281 9.00713 0.386523 8.62109 0.862596 8.62109H49.1384C49.6145 8.62109 50.0005 9.00713 50.0005 9.4832L50.0004 15.1729Z" fill="#FF4B55"/>
<path d="M50.0004 15.1729H0.000488281V21.7246H50.0004V15.1729Z" fill="#F5F5F5"/>
<path d="M50.0004 21.7246H0.000488281V28.2764H50.0004V21.7246Z" fill="#FF4B55"/>
<path d="M49.1388 41.3789H0.863084C0.387011 41.3789 0.000976562 40.9929 0.000976562 40.5168V34.8271H50.0009V40.5168C50.0009 40.993 49.6148 41.3789 49.1388 41.3789Z" fill="#FF4B55"/>
<path d="M50.0004 28.2764H0.000488281V34.8281H50.0004V28.2764Z" fill="#F5F5F5"/>
<path d="M0.318456 41.1708L24.1798 25.5375C24.5671 25.2837 24.5671 24.716 24.1798 24.4624L0.318456 8.8291C0.128515 8.98721 0.000488281 9.21631 0.000488281 9.48271V40.5171C0.000488281 40.7836 0.128515 41.0127 0.318456 41.1708Z" fill="#41479B"/>
<path d="M8.80721 20.9983L9.70691 23.6959L12.5505 23.7179C12.9185 23.7208 13.0713 24.1906 12.7752 24.4093L10.4877 26.0986L11.3454 28.8098C11.4565 29.1608 11.0568 29.4512 10.7572 29.2371L8.44373 27.5836L6.13026 29.2371C5.83085 29.4512 5.43114 29.1608 5.54208 28.8098L6.39979 26.0986L4.1123 24.4093C3.8162 24.1906 3.96874 23.7209 4.337 23.7179L7.18055 23.6959L8.08026 20.9983C8.19676 20.649 8.6907 20.649 8.80721 20.9983Z" fill="#F5F5F5"/>
</g>
<defs>
<clipPath id="clip0_106_17966">
<rect width="50" height="50" fill="white"/>
</clipPath>
</defs>
</svg>
