<svg width="50" height="50" viewBox="0 0 50 50" fill="none" xmlns="http://www.w3.org/2000/svg">
<g clip-path="url(#clip0_106_17963)">
<path d="M23.2773 41.3797H0.863573C0.387499 41.3797 0.00146484 40.9937 0.00146484 40.5176V9.4832C0.00146484 9.00713 0.387499 8.62109 0.863573 8.62109H23.2773V41.3797Z" fill="#F5F5F5"/>
<path d="M49.1391 8.62109H16.3462C16.3689 8.62109 16.3916 8.62441 16.4135 8.63125L21.6269 10.2242C21.844 10.2905 21.8439 10.598 21.6267 10.6642L17.1019 12.0419C16.8846 12.1081 16.8845 12.4155 17.1017 12.4818L21.627 13.8648C21.8441 13.9311 21.844 14.2387 21.6268 14.3047L17.1019 15.6825C16.8846 15.7487 16.8845 16.0561 17.1017 16.1224L21.627 17.5055C21.8441 17.5718 21.844 17.8793 21.6268 17.9453L17.1032 19.3225C16.8858 19.3888 16.8858 19.6965 17.1032 19.7626L21.6268 21.1398C21.8441 21.206 21.8442 21.5135 21.627 21.5798L17.1017 22.9628C16.8846 23.0292 16.8847 23.3367 17.1019 23.4027L21.6268 24.7804C21.8441 24.8465 21.8442 25.1541 21.627 25.2204L17.1017 26.6034C16.8846 26.6698 16.8847 26.9772 17.1019 27.0433L21.6268 28.4211C21.8441 28.4871 21.8442 28.7947 21.627 28.8609L17.1017 30.2439C16.8846 30.3103 16.8847 30.6178 17.1019 30.6838L21.6267 32.0617C21.844 32.1277 21.8441 32.4353 21.6269 32.5015L17.1017 33.8844C16.8846 33.9508 16.8847 34.2583 17.1019 34.3244L21.6255 35.7018C21.8429 35.7678 21.8429 36.0756 21.6255 36.1416L17.1019 37.5191C16.8846 37.5851 16.8845 37.8927 17.1017 37.9589L21.627 39.3419C21.8441 39.4082 21.844 39.7158 21.6268 39.7818L16.4134 41.3692C16.3917 41.3758 16.369 41.3792 16.3464 41.3792H49.1392C49.6153 41.3792 50.0013 40.9932 50.0013 40.5171V9.4831C50.0012 9.00703 49.6152 8.62109 49.1391 8.62109Z" fill="#873250"/>
</g>
<defs>
<clipPath id="clip0_106_17963">
<rect width="50" height="50" fill="white"/>
</clipPath>
</defs>
</svg>
