<svg width="50" height="50" viewBox="0 0 50 50" fill="none" xmlns="http://www.w3.org/2000/svg">
<g clip-path="url(#clip0_106_17960)">
<path d="M49.1383 41.3796H0.862596C0.386523 41.3796 0.000488281 40.9936 0.000488281 40.5175V9.4832C0.000488281 9.00713 0.386523 8.62109 0.862596 8.62109H49.1384C49.6145 8.62109 50.0005 9.00713 50.0005 9.4832V40.5175C50.0004 40.9937 49.6144 41.3796 49.1383 41.3796Z" fill="#F5F5F5"/>
<path d="M47.1264 13.8114C46.9593 13.7524 46.7732 13.8393 46.7139 14.0084C46.5005 14.6107 46.2693 15.1507 46.0299 15.6607C45.4206 16.2636 44.6619 16.7132 43.9296 16.8463C42.7442 17.0618 42.1695 17.6365 42.1695 17.6365C40.0862 17.0259 39.6911 18.1753 39.224 18.6782C38.9625 18.9598 38.6234 19.0575 38.3179 19.0606C37.2022 18.4521 36.4506 17.7103 36.4366 17.6965C36.3112 17.5693 36.1058 17.5685 35.9795 17.694C35.8524 17.8194 35.8515 18.0241 35.9771 18.1512C36.0717 18.247 37.8888 20.048 40.22 20.4225C39.5433 20.6217 39.0446 20.7614 39.0446 20.7614C39.0446 20.7614 38.2903 20.7614 36.0275 22.5933C33.7646 24.4253 32.184 24.6049 31.1783 24.569C30.1725 24.5332 29.4182 24.1739 28.3407 25.0001C27.2631 25.8263 25.8622 25.6826 25.0001 25.6826C24.138 25.6826 22.7373 25.8263 21.6596 25.0001C20.582 24.1739 19.8277 24.5332 18.8219 24.569C17.8163 24.6049 16.2357 24.4254 13.9728 22.5933C11.7099 20.7613 10.9556 20.7614 10.9556 20.7614C10.9556 20.7614 10.4569 20.6217 9.78024 20.4225C12.1114 20.048 13.9285 18.247 14.0232 18.1512C14.1486 18.024 14.1478 17.8195 14.0208 17.694C13.8945 17.5687 13.6891 17.5694 13.5636 17.6965C13.5497 17.7102 12.7981 18.4519 11.6824 19.0606C11.3768 19.0575 11.0378 18.9598 10.7762 18.6782C10.3092 18.1753 9.91413 17.0259 7.83074 17.6365C7.83074 17.6365 7.25603 17.0618 6.07068 16.8463C5.33846 16.7132 4.57967 16.2636 3.97039 15.6607C3.73104 15.1506 3.49989 14.6107 3.28641 14.0084C3.22703 13.8393 3.041 13.7524 2.87391 13.8114C2.70545 13.8712 2.61707 14.0556 2.67694 14.2239C2.68338 14.2421 2.6908 14.2576 2.69735 14.2759C2.72879 14.4412 3.38465 17.7495 5.78328 20.0433C7.47263 21.6586 9.11101 24.1234 9.80632 25.503C12.0692 29.9929 16.3795 36.0274 25.0002 36.0274C33.6209 36.0274 37.9312 29.9929 40.1941 25.503C40.8896 24.1234 42.5278 21.6585 44.2172 20.0433C46.6158 17.7496 47.2716 14.4412 47.3031 14.2759C47.3096 14.2577 47.317 14.2422 47.3235 14.2239C47.3831 14.0557 47.2947 13.8713 47.1264 13.8114Z" fill="#FF4B55"/>
</g>
<defs>
<clipPath id="clip0_106_17960">
<rect width="50" height="50" fill="white"/>
</clipPath>
</defs>
</svg>
