<svg width="50" height="50" viewBox="0 0 50 50" fill="none" xmlns="http://www.w3.org/2000/svg">
<g clip-path="url(#clip0_106_17944)">
<path d="M49.1376 8.62109H35.3445L0.263672 41.135C0.418848 41.2853 0.628613 41.3797 0.861719 41.3797H14.6548L49.7357 8.86582C49.5806 8.71543 49.3707 8.62109 49.1376 8.62109Z" fill="#FFE15A"/>
<path d="M35.3448 8.62109H0.862109C0.386035 8.62109 0 9.00703 0 9.48311V40.5176C0 40.7606 0.102246 40.9782 0.263965 41.135L35.3448 8.62109Z" fill="#73AF00"/>
<path d="M49.7356 8.86523L14.6548 41.3791H49.1375C49.6136 41.3791 49.9996 40.9931 49.9996 40.517V9.48252C49.9996 9.23945 49.8974 9.02187 49.7356 8.86523Z" fill="#FF4B55"/>
</g>
<defs>
<clipPath id="clip0_106_17944">
<rect width="50" height="50" fill="white"/>
</clipPath>
</defs>
</svg>
