<svg width="50" height="50" viewBox="0 0 50 50" fill="none" xmlns="http://www.w3.org/2000/svg">
<g clip-path="url(#clip0_106_17948)">
<path d="M49.1393 41.3796H0.863573C0.387499 41.3796 0.00146484 40.9936 0.00146484 40.5175V9.4832C0.00146484 9.00713 0.387499 8.62109 0.863573 8.62109H49.1394C49.6154 8.62109 50.0015 9.00713 50.0015 9.4832V40.5176C50.0014 40.9938 49.6153 41.3796 49.1393 41.3796Z" fill="#FF4B55"/>
<path d="M22.0469 21.8768C22.0463 21.8772 22.0459 21.8777 22.0453 21.8781L9.48592 8.62109H0.865331C0.655761 8.62109 0.470703 8.70508 0.321289 8.82949L21.4017 22.6408C21.5859 22.3601 21.8042 22.1067 22.0469 21.8768Z" fill="#FFE15A"/>
<path d="M20.7376 25.4419C20.7223 25.2946 20.693 25.1516 20.693 25.0003C20.693 24.849 20.7223 24.706 20.7376 24.5587V24.5589L0.00341797 22.4141V27.5865L20.7376 25.4416V25.4419Z" fill="#FFE15A"/>
<path d="M24.3332 20.7575C24.553 20.7229 24.7737 20.69 25.0032 20.69C25.2327 20.69 25.4534 20.723 25.6732 20.7575H25.6731L27.5894 8.62109H22.417L24.3332 20.7575Z" fill="#FFE15A"/>
<path d="M28.6052 22.6408L49.6857 8.82949C49.5362 8.70508 49.3512 8.62109 49.1417 8.62109H40.521L27.9616 21.8782C27.961 21.8778 27.9605 21.8773 27.96 21.8769C28.2027 22.1067 28.421 22.3601 28.6052 22.6408Z" fill="#FFE15A"/>
<path d="M27.96 28.1243C27.9604 28.1239 27.961 28.1234 27.9616 28.123L40.521 41.3802H49.1417C49.3512 41.3802 49.5363 41.2962 49.6857 41.1718L28.6052 27.3604C28.421 27.641 28.2027 27.8945 27.96 28.1243Z" fill="#FFE15A"/>
<path d="M29.269 24.559V24.5588C29.2843 24.7059 29.3136 24.8491 29.3136 25.0004C29.3136 25.1517 29.2843 25.2947 29.269 25.442V25.4418L50.0032 27.5865V22.4141L29.269 24.559Z" fill="#FFE15A"/>
<path d="M25.6732 29.2432C25.4534 29.2776 25.2327 29.3106 25.0032 29.3106C24.7737 29.3106 24.553 29.2776 24.3332 29.2432H24.3333L22.417 41.3796H27.5894L25.6732 29.2432Z" fill="#FFE15A"/>
<path d="M21.4018 27.3604L0.321289 41.1718C0.470703 41.2962 0.655761 41.3802 0.865331 41.3802H9.48602L22.0454 28.123C22.046 28.1234 22.0464 28.1239 22.047 28.1243C21.8043 27.8945 21.586 27.641 21.4018 27.3604Z" fill="#FFE15A"/>
<path d="M25.0034 28.4482C26.9078 28.4482 28.4516 26.9044 28.4516 25C28.4516 23.0956 26.9078 21.5518 25.0034 21.5518C23.099 21.5518 21.5552 23.0956 21.5552 25C21.5552 26.9044 23.099 28.4482 25.0034 28.4482Z" fill="#FFE15A"/>
</g>
<defs>
<clipPath id="clip0_106_17948">
<rect width="50" height="50" fill="white"/>
</clipPath>
</defs>
</svg>
