<svg width="50" height="50" viewBox="0 0 50 50" fill="none" xmlns="http://www.w3.org/2000/svg">
<g clip-path="url(#clip0_106_17927)">
<path d="M50.0019 24.9995H0.00195312V9.48222C0.00195312 9.00615 0.387988 8.62012 0.864061 8.62012H49.1398C49.6159 8.62012 50.002 9.00615 50.002 9.48222L50.0019 24.9995Z" fill="#4173CD"/>
<path d="M0.00195312 24.999H50.0019V40.5163C50.0019 40.9924 49.6158 41.3784 49.1398 41.3784H0.864061C0.387988 41.3784 0.00195312 40.9924 0.00195312 40.5163V24.999Z" fill="#4173CD"/>
<path d="M50.0009 25H0.000976562V33.1894H50.0009V25Z" fill="#FFE15A"/>
<path d="M0.863084 41.3791H49.1389C49.6149 41.3791 50.001 40.9931 50.001 40.517V33.1895H0.000976562V40.517C0.000976562 40.9931 0.387011 41.3791 0.863084 41.3791Z" fill="#73AF00"/>
<path d="M44.7485 17.3944L48.2772 16.8102L44.7485 16.2261L47.785 14.336L44.3014 15.1467L46.3836 12.2385L43.4754 14.3206L44.286 10.837L42.396 13.8735L41.8117 10.3447L41.2275 13.8734L39.3375 10.8369L40.1481 14.3205L37.2399 12.2384L39.3221 15.1466L35.8385 14.3359L38.875 16.226L35.3462 16.8102L38.8749 17.3944L35.8384 19.2845L39.322 18.4738L37.2398 21.382L40.148 19.2999L39.3374 22.7835L41.2274 19.747L41.8117 23.2758L42.3959 19.7471L44.2859 22.7836L43.4753 19.3L46.3835 21.3821L44.3013 18.4739L47.7849 19.2846L44.7485 17.3944ZM41.8117 18.9654C40.6214 18.9654 39.6565 18.0006 39.6565 16.8102C39.6565 15.6199 40.6214 14.6551 41.8117 14.6551C43.002 14.6551 43.9669 15.6199 43.9669 16.8102C43.9669 18.0006 43.002 18.9654 41.8117 18.9654Z" fill="#FFE15A"/>
<path d="M41.8117 18.4271C42.7044 18.4271 43.4281 17.7035 43.4281 16.8107C43.4281 15.918 42.7044 15.1943 41.8117 15.1943C40.919 15.1943 40.1953 15.918 40.1953 16.8107C40.1953 17.7035 40.919 18.4271 41.8117 18.4271Z" fill="#FFE15A"/>
</g>
<defs>
<clipPath id="clip0_106_17927">
<rect width="50" height="50" fill="white"/>
</clipPath>
</defs>
</svg>
