<svg width="50" height="50" viewBox="0 0 50 50" fill="none" xmlns="http://www.w3.org/2000/svg">
<g clip-path="url(#clip0_106_17922)">
<path d="M49.1383 41.3793H0.862596C0.386523 41.3793 0.000488281 40.9932 0.000488281 40.5172V25H50.0004V40.5172C50.0004 40.9933 49.6144 41.3793 49.1383 41.3793Z" fill="#41479B"/>
<path d="M0.862596 8.62109H49.1384C49.6145 8.62109 50.0005 9.00713 50.0005 9.4832V25.0004H0.000488281V9.4832C0.000488281 9.00713 0.386523 8.62109 0.862596 8.62109Z" fill="#FF4B55"/>
<path d="M25.0003 8.62109L0.000488281 25.0004L25.0003 41.3796L50.0004 25.0004L25.0003 8.62109Z" fill="#F5F5F5"/>
<path d="M25.2587 15.4984L27.3282 21.4517L33.6295 21.5801C33.8889 21.5854 33.996 21.9151 33.7893 22.0718L28.7668 25.8795L30.5918 31.9122C30.6669 32.1606 30.3866 32.3644 30.1735 32.2161L25.0002 28.616L19.8267 32.216C19.6136 32.3642 19.3333 32.1605 19.4084 31.9121L21.2335 25.8794L16.2109 22.0717C16.0041 21.9149 16.1112 21.5853 16.3707 21.58L22.672 21.4516L24.7415 15.4983C24.8269 15.2532 25.1736 15.2532 25.2587 15.4984Z" fill="#FFE15A"/>
</g>
<defs>
<clipPath id="clip0_106_17922">
<rect width="50" height="50" fill="white"/>
</clipPath>
</defs>
</svg>
