<svg width="50" height="50" viewBox="0 0 50 50" fill="none" xmlns="http://www.w3.org/2000/svg">
<g clip-path="url(#clip0_106_17914)">
<path d="M50.0014 19.5407H0.00146484V9.4832C0.00146484 9.00713 0.387499 8.62109 0.863573 8.62109H49.1394C49.6154 8.62109 50.0015 9.00713 50.0015 9.4832L50.0014 19.5407Z" fill="#464655"/>
<path d="M49.1393 41.3795H0.863573C0.387499 41.3795 0.00146484 40.9934 0.00146484 40.5174V30.46H50.0014V40.5174C50.0014 40.9935 49.6153 41.3795 49.1393 41.3795Z" fill="#73AF00"/>
<path d="M50.0014 19.54H0.00146484V30.459H50.0014V19.54Z" fill="#F5F5F5"/>
<path d="M0.32041 41.1708L20.1291 25.4467C20.4168 25.2184 20.4168 24.7815 20.1291 24.5531L0.32041 8.8291C0.130469 8.98721 0.00244141 9.21631 0.00244141 9.48271V40.5171C0.00244141 40.7836 0.130469 41.0127 0.32041 41.1708Z" fill="#FF4B55"/>
<path d="M25.8768 24.9999C25.8768 23.0335 27.161 21.3677 28.9363 20.7941C29.0384 20.7611 29.025 20.6117 28.9184 20.6013C28.5775 20.5678 28.2254 20.5731 27.8658 20.6235C25.7805 20.9161 24.1717 22.6796 24.0711 24.7829C23.9498 27.3225 25.9729 29.4196 28.4857 29.4196C28.6312 29.4196 28.7747 29.4124 28.9164 29.3986C29.0235 29.3882 29.0375 29.2384 28.9351 29.2053C27.1605 28.6313 25.8768 26.9657 25.8768 24.9999Z" fill="#FF4B55"/>
<path d="M29.6298 22.0958L29.0491 23.837L27.2137 23.8513C26.9761 23.8531 26.8774 24.1563 27.0686 24.2975L28.5451 25.3878L27.9914 27.1378C27.9197 27.3644 28.1777 27.5517 28.371 27.4136L29.8641 26.3462L31.3573 27.4136C31.5507 27.5517 31.8086 27.3643 31.7369 27.1378L31.1832 25.3878L32.6596 24.2975C32.8509 24.1562 32.7523 23.853 32.5146 23.8513L30.6792 23.837L30.0985 22.0958C30.0239 21.8704 29.7051 21.8704 29.6298 22.0958Z" fill="#FF4B55"/>
</g>
<defs>
<clipPath id="clip0_106_17914">
<rect width="50" height="50" fill="white"/>
</clipPath>
</defs>
</svg>
