<svg width="50" height="50" viewBox="0 0 50 50" fill="none" xmlns="http://www.w3.org/2000/svg">
<g clip-path="url(#clip0_106_17904)">
<path d="M49.1383 41.3796H0.862596C0.386523 41.3796 0.000488281 40.9936 0.000488281 40.5175V9.4832C0.000488281 9.00713 0.386523 8.62109 0.862596 8.62109H49.1384C49.6145 8.62109 50.0005 9.00713 50.0005 9.4832V40.5175C50.0004 40.9937 49.6144 41.3796 49.1383 41.3796Z" fill="#73AF00"/>
<path d="M36.6299 8.62109L0.000488281 32.6196V35.1962L40.5624 8.62109H36.6299Z" fill="#FFE15A"/>
<path d="M50.001 17.3813V14.8047L9.43896 41.3798H13.3715L50.001 17.3813Z" fill="#FFE15A"/>
<path d="M50.0004 14.8045V9.4832C50.0004 9.00713 49.6144 8.62109 49.1383 8.62109H40.5624L0.000488281 35.1962V40.5175C0.000488281 40.9936 0.386523 41.3796 0.862596 41.3796H9.43846L50.0004 14.8045Z" fill="#464655"/>
<path d="M15.2363 26.943L17.0058 28.3678L18.9267 27.155C19.1754 26.9979 19.4809 27.2478 19.3761 27.5227L18.5678 29.6458L20.3148 31.0978C20.541 31.2859 20.3977 31.6535 20.104 31.639L17.8351 31.5263L16.9939 33.6367C16.885 33.9098 16.491 33.8874 16.4141 33.6034L15.8201 31.4106L13.5532 31.2628C13.2597 31.2436 13.1595 30.8619 13.4057 30.701L15.3075 29.4585L14.7476 27.2567C14.6753 26.9717 15.0073 26.7585 15.2363 26.943Z" fill="#F5F5F5"/>
<path d="M31.5439 16.2389L33.3134 17.6637L35.2343 16.4508C35.483 16.2937 35.7885 16.5436 35.6837 16.8186L34.8754 18.9416L36.6225 20.3936C36.8486 20.5817 36.7054 20.9493 36.4116 20.9349L34.1427 20.8222L33.3016 22.9325C33.1926 23.2056 32.7986 23.1831 32.7217 22.8992L32.1277 20.7064L29.8608 20.5586C29.5673 20.5394 29.4671 20.1577 29.7133 19.9969L31.6151 18.7543L31.0552 16.5525C30.9828 16.2678 31.3148 16.0544 31.5439 16.2389Z" fill="#F5F5F5"/>
<path d="M50.0001 40.5172V17.3809L13.3706 41.3794H49.1379C49.6141 41.3794 50.0001 40.9934 50.0001 40.5172Z" fill="#FF4B55"/>
</g>
<defs>
<clipPath id="clip0_106_17904">
<rect width="50" height="50" fill="white"/>
</clipPath>
</defs>
</svg>
