<svg width="50" height="50" viewBox="0 0 50 50" fill="none" xmlns="http://www.w3.org/2000/svg">
<g clip-path="url(#clip0_106_17895)">
<path d="M49.1393 41.3797H0.863573C0.387499 41.3797 0.00146484 40.9937 0.00146484 40.5176V9.4832C0.00146484 9.00713 0.387499 8.62109 0.863573 8.62109H49.1394C49.6154 8.62109 50.0015 9.00713 50.0015 9.4832V40.5176C50.0014 40.9938 49.6153 41.3797 49.1393 41.3797Z" fill="#FF4B55"/>
<path d="M0.863573 8.62109H24.1394C24.6155 8.62109 25.0015 9.00713 25.0015 9.4832V24.1383C25.0015 24.6144 24.6155 25.0005 24.1394 25.0005H0.863573C0.387499 25.0004 0.00146484 24.6143 0.00146484 24.1383V9.4831C0.00146484 9.00703 0.387499 8.62109 0.863573 8.62109Z" fill="#41479B"/>
<path d="M12.2849 19.2969L11.8891 20.4835L10.6383 20.4932C10.4763 20.4945 10.4092 20.7012 10.5394 20.7973L11.5457 21.5404L11.1684 22.733C11.1196 22.8873 11.2954 23.0151 11.4271 22.9208L12.4448 22.1935L13.4625 22.9208C13.5943 23.015 13.77 22.8873 13.7212 22.733L13.3439 21.5404L14.3502 20.7973C14.4804 20.7011 14.4133 20.4944 14.2513 20.4932L13.0005 20.4835L12.6047 19.2969C12.5534 19.1432 12.3362 19.1432 12.2849 19.2969Z" fill="#F5F5F5"/>
<path d="M12.3157 10.0444L11.9955 11.0044L10.9837 11.0123C10.8527 11.0133 10.7984 11.1804 10.9037 11.2583L11.7177 11.8593L11.4125 12.8241C11.373 12.949 11.5153 13.0523 11.6218 12.9761L12.445 12.3878L13.2681 12.9761C13.3746 13.0523 13.5169 12.949 13.4774 12.8241L13.1722 11.8593L13.9862 11.2583C14.0915 11.1804 14.0372 11.0133 13.9062 11.0123L12.8944 11.0044L12.5742 10.0444C12.5328 9.92009 12.3572 9.92009 12.3157 10.0444Z" fill="#F5F5F5"/>
<path d="M17.4338 12.9L17.1137 13.8599L16.1019 13.8678C15.9708 13.8688 15.9165 14.036 16.0219 14.1138L16.8359 14.7149L16.5307 15.6796C16.4911 15.8045 16.6334 15.9079 16.74 15.8317L17.5631 15.2433L18.3863 15.8317C18.4928 15.9079 18.6351 15.8045 18.5955 15.6796L18.2904 14.7149L19.1043 14.1138C19.2097 14.036 19.1554 13.8688 19.0243 13.8678L18.0125 13.8599L17.6924 12.9C17.651 12.7755 17.4753 12.7755 17.4338 12.9Z" fill="#F5F5F5"/>
<path d="M7.30491 14.0317L6.98479 14.9917L5.97298 14.9996C5.84193 15.0006 5.78763 15.1677 5.893 15.2456L6.70696 15.8467L6.40179 16.8114C6.36224 16.9363 6.50452 17.0396 6.61106 16.9634L7.43421 16.3751L8.25735 16.9634C8.36389 17.0396 8.50618 16.9363 8.46663 16.8114L8.16145 15.8467L8.97541 15.2456C9.08079 15.1677 9.02649 15.0006 8.89543 14.9996L7.88362 14.9917L7.5635 14.0317C7.5221 13.9074 7.34632 13.9074 7.30491 14.0317Z" fill="#F5F5F5"/>
<path d="M15.2276 17.1647L15.0478 17.7035L14.4799 17.7079C14.4063 17.7085 14.3759 17.8024 14.435 17.8461L14.892 18.1835L14.7207 18.7251C14.6985 18.7952 14.7783 18.8532 14.8382 18.8105L15.3003 18.4802L15.7624 18.8105C15.8222 18.8532 15.902 18.7952 15.8799 18.7251L15.7086 18.1835L16.1655 17.8461C16.2247 17.8025 16.1942 17.7086 16.1207 17.7079L15.5527 17.7035L15.3729 17.1647C15.3496 17.0948 15.2509 17.0948 15.2276 17.1647Z" fill="#F5F5F5"/>
</g>
<defs>
<clipPath id="clip0_106_17895">
<rect width="50" height="50" fill="white"/>
</clipPath>
</defs>
</svg>
