<svg width="50" height="50" viewBox="0 0 50 50" fill="none" xmlns="http://www.w3.org/2000/svg">
<g clip-path="url(#clip0_106_17823)">
<path d="M50.0004 24.9995H0.000488281V9.48222C0.000488281 9.00615 0.386523 8.62012 0.862596 8.62012H49.1384C49.6145 8.62012 50.0005 9.00615 50.0005 9.48222L50.0004 24.9995Z" fill="#F5F5F5"/>
<path d="M0.000488281 25H50.0004V40.5173C50.0004 40.9933 49.6144 41.3794 49.1383 41.3794H0.862596C0.386523 41.3794 0.000488281 40.9933 0.000488281 40.5173V25Z" fill="#82AFFF"/>
<path d="M25.0805 32.029C24.9345 32.0226 21.4876 31.8464 19.7577 29.4763C18.7495 28.0952 18.5484 26.2583 19.1598 24.0166L19.4068 24.084C18.8171 26.2464 19.0044 28.0093 19.9638 29.3244C21.6198 31.5948 25.0569 31.7717 25.0917 31.7731L25.0805 32.029Z" fill="#B46446"/>
<path d="M19.1563 23.0225C18.9864 23.4651 19.0251 23.9287 19.2219 24.2801C19.6034 24.1507 19.9423 23.8321 20.1123 23.3895C20.2823 22.9468 20.2435 22.4832 20.0467 22.1318C19.6652 22.2612 19.3262 22.5797 19.1563 23.0225Z" fill="#41AA5A"/>
<path d="M21.3161 29.1426C21.1274 29.4538 21.0779 29.8711 21.2178 30.2762C21.3482 30.6547 21.6176 30.9339 21.9297 31.0748C21.6265 30.9158 21.2408 30.8761 20.8623 31.0066C20.4572 31.1463 20.1592 31.4425 20.0303 31.7828C20.3415 31.9714 20.7587 32.021 21.1639 31.8812C21.5689 31.7415 21.867 31.4453 21.9959 31.105L21.9955 31.1048C22.1826 30.7939 22.2316 30.3783 22.0924 29.9746C21.9526 29.5695 21.6565 29.2714 21.3161 29.1426Z" fill="#41AA5A"/>
<path d="M20.5773 28.0127C20.2863 28.2312 20.0848 28.5999 20.0634 29.0278C20.0434 29.4277 20.1892 29.7872 20.4262 30.0343C20.204 29.7737 19.8609 29.593 19.4613 29.5729C19.0334 29.5515 18.6464 29.7152 18.3999 29.983C18.6184 30.274 18.9871 30.4756 19.4149 30.497C19.8429 30.5185 20.2299 30.3547 20.4764 30.0869C20.4763 30.0868 20.4762 30.0867 20.4762 30.0867C20.7655 29.8679 20.9659 29.5005 20.9874 29.074C21.0088 28.6461 20.8451 28.259 20.5773 28.0127Z" fill="#41AA5A"/>
<path d="M20.2581 26.7393C19.9061 26.8317 19.5803 27.0972 19.399 27.4853C19.2295 27.848 19.2289 28.2359 19.3552 28.5542C19.2477 28.2291 18.9983 27.9322 18.6356 27.7628C18.2474 27.5814 17.8272 27.5869 17.498 27.7419C17.5905 28.0938 17.856 28.4197 18.244 28.601C18.6323 28.7823 19.0524 28.7769 19.3816 28.6219C19.3816 28.6219 19.3815 28.6216 19.3814 28.6215C19.7321 28.5281 20.0563 28.2636 20.237 27.8768C20.4185 27.4889 20.4132 27.0685 20.2581 26.7393Z" fill="#41AA5A"/>
<path d="M20.4394 25.475C20.0772 25.4389 19.6793 25.5743 19.3741 25.875C19.0889 26.156 18.9531 26.5194 18.9606 26.8617C18.9732 26.5196 18.8428 26.1544 18.5618 25.8692C18.2611 25.5639 17.8654 25.4227 17.5028 25.4533C17.4667 25.8155 17.602 26.2132 17.9028 26.5185C18.2035 26.8239 18.5992 26.965 18.9618 26.9345C18.9618 26.9345 18.9618 26.9342 18.9618 26.9339C19.3231 26.9685 19.7192 26.8337 20.0234 26.534C20.3287 26.2334 20.4699 25.8376 20.4394 25.475Z" fill="#41AA5A"/>
<path d="M20.6952 24.2719C20.344 24.1764 19.9292 24.244 19.5785 24.49C19.2506 24.72 19.0566 25.0559 19.0074 25.3948C19.0764 25.0595 19.0082 24.6778 18.7785 24.3501C18.5325 23.9993 18.1656 23.7945 17.8028 23.7646C17.7073 24.1158 17.775 24.5306 18.0209 24.8813C18.2669 25.2321 18.6338 25.4369 18.9966 25.4668C18.9966 25.4666 18.9966 25.4665 18.9966 25.4665C19.347 25.5603 19.7601 25.4928 20.1097 25.2476C20.4605 25.0015 20.6653 24.6346 20.6952 24.2719Z" fill="#41AA5A"/>
<path d="M20.797 31.176C20.9443 31.176 21.0637 31.0566 21.0637 30.9093C21.0637 30.762 20.9443 30.6426 20.797 30.6426C20.6497 30.6426 20.5303 30.762 20.5303 30.9093C20.5303 31.0566 20.6497 31.176 20.797 31.176Z" fill="#FFE15A"/>
<path d="M22.0226 31.3254C22.1699 31.3254 22.2893 31.206 22.2893 31.0587C22.2893 30.9114 22.1699 30.792 22.0226 30.792C21.8753 30.792 21.7559 30.9114 21.7559 31.0587C21.7559 31.206 21.8753 31.3254 22.0226 31.3254Z" fill="#FFE15A"/>
<path d="M20.0929 29.1604C20.2402 29.1604 20.3596 29.0409 20.3596 28.8937C20.3596 28.7464 20.2402 28.627 20.0929 28.627C19.9456 28.627 19.8262 28.7464 19.8262 28.8937C19.8262 29.0409 19.9456 29.1604 20.0929 29.1604Z" fill="#FFE15A"/>
<path d="M18.3966 27.1545C18.5439 27.1545 18.6633 27.0351 18.6633 26.8878C18.6633 26.7405 18.5439 26.6211 18.3966 26.6211C18.2493 26.6211 18.1299 26.7405 18.1299 26.8878C18.1299 27.0351 18.2493 27.1545 18.3966 27.1545Z" fill="#FFE15A"/>
<path d="M19.5812 25.7971C19.7284 25.7971 19.8479 25.6777 19.8479 25.5304C19.8479 25.3831 19.7284 25.2637 19.5812 25.2637C19.4339 25.2637 19.3145 25.3831 19.3145 25.5304C19.3145 25.6777 19.4339 25.7971 19.5812 25.7971Z" fill="#FFE15A"/>
<path d="M19.1319 24.4045C19.2792 24.4045 19.3986 24.2851 19.3986 24.1378C19.3986 23.9905 19.2792 23.8711 19.1319 23.8711C18.9846 23.8711 18.8652 23.9905 18.8652 24.1378C18.8652 24.2851 18.9846 24.4045 19.1319 24.4045Z" fill="#FFE15A"/>
<path d="M25.0913 32.0292L25.0801 31.7731C25.1147 31.7719 28.5519 31.5948 30.208 29.3244C31.1674 28.0095 31.3547 26.2464 30.765 24.084L31.012 24.0166C31.6233 26.2583 31.4222 28.0953 30.4141 29.4763C28.6843 31.8466 25.2374 32.0229 25.0913 32.0292Z" fill="#B46446"/>
<path d="M31.0127 23.0225C31.1827 23.4651 31.1439 23.9287 30.9471 24.2801C30.5657 24.1507 30.2267 23.8321 30.0567 23.3895C29.8868 22.9468 29.9255 22.4832 30.1223 22.1318C30.5038 22.2612 30.8427 22.5797 31.0127 23.0225Z" fill="#41AA5A"/>
<path d="M28.8537 29.1426C29.0423 29.4538 29.0919 29.8711 28.952 30.2762C28.8215 30.6547 28.5522 30.9339 28.2401 31.0748C28.5433 30.9158 28.929 30.8761 29.3075 31.0066C29.7126 31.1463 30.0106 31.4425 30.1395 31.7828C29.8283 31.9714 29.4111 32.021 29.0059 31.8812C28.6008 31.7415 28.3028 31.4453 28.1739 31.105C28.174 31.1049 28.1742 31.1049 28.1742 31.1049C27.9874 30.7938 27.9383 30.3782 28.0775 29.9746C28.2171 29.5695 28.5133 29.2714 28.8537 29.1426Z" fill="#41AA5A"/>
<path d="M29.5922 28.0127C29.8832 28.2312 30.0848 28.5999 30.1062 29.0278C30.1262 29.4277 29.9804 29.7872 29.7434 30.0343C29.9655 29.7737 30.3086 29.593 30.7082 29.5729C31.1361 29.5515 31.5232 29.7152 31.7696 29.983C31.5512 30.274 31.1824 30.4756 30.7545 30.497C30.3266 30.5185 29.9396 30.3547 29.6931 30.0869C29.6932 30.0868 29.6933 30.0867 29.6933 30.0867C29.4039 29.8679 29.2034 29.5005 29.182 29.074C29.1607 28.6461 29.3244 28.259 29.5922 28.0127Z" fill="#41AA5A"/>
<path d="M29.9112 26.7393C30.2632 26.8317 30.589 27.0972 30.7703 27.4853C30.9398 27.848 30.9404 28.2359 30.8141 28.5542C30.9216 28.2291 31.171 27.9322 31.5337 27.7628C31.9219 27.5814 32.3421 27.5869 32.6713 27.7419C32.5788 28.0938 32.3133 28.4197 31.9253 28.601C31.537 28.7823 31.1169 28.7769 30.7877 28.6219C30.7877 28.6219 30.7878 28.6216 30.7879 28.6215C30.4372 28.5281 30.113 28.2636 29.9323 27.8768C29.7507 27.4889 29.7561 27.0685 29.9112 26.7393Z" fill="#41AA5A"/>
<path d="M29.7302 25.475C30.0924 25.4389 30.4902 25.5743 30.7954 25.875C31.0806 26.156 31.2165 26.5194 31.209 26.8617C31.1964 26.5196 31.3267 26.1544 31.6077 25.8692C31.9085 25.5639 32.3042 25.4227 32.6668 25.4533C32.7028 25.8155 32.5676 26.2132 32.2668 26.5185C31.966 26.8239 31.5703 26.965 31.2077 26.9345C31.2077 26.9345 31.2077 26.9342 31.2077 26.9339C30.8465 26.9685 30.4504 26.8337 30.1462 26.534C29.8408 26.2334 29.6996 25.8376 29.7302 25.475Z" fill="#41AA5A"/>
<path d="M29.4741 24.2719C29.8253 24.1764 30.24 24.244 30.5908 24.49C30.9186 24.72 31.1127 25.0559 31.1619 25.3948C31.0929 25.0595 31.161 24.6778 31.3908 24.3501C31.6368 23.9993 32.0037 23.7945 32.3665 23.7646C32.462 24.1158 32.3943 24.5306 32.1483 24.8813C31.9023 25.2321 31.5354 25.4369 31.1727 25.4668C31.1727 25.4666 31.1727 25.4665 31.1727 25.4665C30.8223 25.5603 30.4092 25.4928 30.0596 25.2476C29.7088 25.0015 29.504 24.6346 29.4741 24.2719Z" fill="#41AA5A"/>
<path d="M29.3736 31.176C29.5209 31.176 29.6403 31.0566 29.6403 30.9093C29.6403 30.762 29.5209 30.6426 29.3736 30.6426C29.2263 30.6426 29.1069 30.762 29.1069 30.9093C29.1069 31.0566 29.2263 31.176 29.3736 31.176Z" fill="#FFE15A"/>
<path d="M28.1461 31.3254C28.2934 31.3254 28.4128 31.206 28.4128 31.0587C28.4128 30.9114 28.2934 30.792 28.1461 30.792C27.9988 30.792 27.8794 30.9114 27.8794 31.0587C27.8794 31.206 27.9988 31.3254 28.1461 31.3254Z" fill="#FFE15A"/>
<path d="M30.0768 29.1604C30.2241 29.1604 30.3435 29.0409 30.3435 28.8937C30.3435 28.7464 30.2241 28.627 30.0768 28.627C29.9295 28.627 29.8101 28.7464 29.8101 28.8937C29.8101 29.0409 29.9295 29.1604 30.0768 29.1604Z" fill="#FFE15A"/>
<path d="M31.773 27.1545C31.9203 27.1545 32.0397 27.0351 32.0397 26.8878C32.0397 26.7405 31.9203 26.6211 31.773 26.6211C31.6258 26.6211 31.5063 26.7405 31.5063 26.8878C31.5063 27.0351 31.6258 27.1545 31.773 27.1545Z" fill="#FFE15A"/>
<path d="M30.5895 25.7971C30.7367 25.7971 30.8561 25.6777 30.8561 25.5304C30.8561 25.3831 30.7367 25.2637 30.5895 25.2637C30.4422 25.2637 30.3228 25.3831 30.3228 25.5304C30.3228 25.6777 30.4422 25.7971 30.5895 25.7971Z" fill="#FFE15A"/>
<path d="M31.0387 24.4045C31.186 24.4045 31.3054 24.2851 31.3054 24.1378C31.3054 23.9905 31.186 23.8711 31.0387 23.8711C30.8914 23.8711 30.772 23.9905 30.772 24.1378C30.772 24.2851 30.8914 24.4045 31.0387 24.4045Z" fill="#FFE15A"/>
<path d="M26.5874 23.0703H23.5283C22.5761 23.0703 21.8042 23.8422 21.8042 24.7944V27.4892C21.8042 28.4416 22.5761 29.2134 23.5283 29.2134H26.5874C27.5395 29.2134 28.3115 28.4416 28.3115 27.4892V24.7944C28.3115 23.8422 27.5396 23.0703 26.5874 23.0703Z" fill="#8CD7FF"/>
<path d="M25.5627 25.416V25.7574H25.2215V25.416H24.9586V25.7574H24.6173V25.416H24.4038V26.0987L24.5745 26.3149V28.8294H25.5984V26.3149L25.769 26.0987V25.416H25.5627Z" fill="#F5F5F5"/>
<path d="M25.1359 24.3349C25.3047 24.253 25.3492 24.5981 25.3492 24.5981C25.7048 24.4202 25.612 24.1317 25.5271 23.9937C25.4133 23.8087 24.9582 23.7376 24.7662 24.1217C24.5742 24.5058 25.0934 25.2666 25.0934 25.2666C25.1216 25.0318 24.9154 24.4416 25.1359 24.3349Z" fill="#F5F5F5"/>
<path d="M27.3168 26.0518V26.3932H26.9754V26.0518H26.7126V26.3932H26.3712V26.0518H26.1577V26.7346L26.3284 26.9507V29.4651H27.3524V26.9507L27.523 26.7346V26.0518H27.3168Z" fill="#F5F5F5"/>
<path d="M26.8907 24.9716C27.0596 24.8898 27.1041 25.2348 27.1041 25.2348C27.4597 25.0569 27.3669 24.7684 27.282 24.6304C27.1682 24.4454 26.7131 24.3743 26.5211 24.7584C26.3291 25.1425 26.8483 25.9033 26.8483 25.9033C26.8766 25.6686 26.6704 25.0783 26.8907 24.9716Z" fill="#F5F5F5"/>
<path d="M23.808 26.0518V26.3932H23.4666V26.0518H23.2038V26.3932H22.8625V26.0518H22.6489V26.7346L22.8196 26.9507V29.4651H23.8436V26.9507L24.0144 26.7346V26.0518H23.808Z" fill="#F5F5F5"/>
<path d="M23.3815 24.9716C23.5503 24.8898 23.5948 25.2348 23.5948 25.2348C23.9504 25.0569 23.8576 24.7684 23.7727 24.6304C23.6589 24.4454 23.2038 24.3743 23.0118 24.7584C22.8199 25.1425 23.339 25.9033 23.339 25.9033C23.3674 25.6686 23.1612 25.0783 23.3815 24.9716Z" fill="#F5F5F5"/>
<path d="M27.8863 29.0116C27.6584 28.8989 27.4053 28.8296 27.1338 28.8296C26.8429 28.8296 26.5731 28.9092 26.3334 29.0376C26.0218 28.7018 25.5802 28.4883 25.0857 28.4883C24.5913 28.4883 24.1499 28.7018 23.8381 29.0376C23.5983 28.9092 23.3286 28.8296 23.0377 28.8296C22.7661 28.8296 22.513 28.8989 22.2852 29.0116C22.7725 29.9054 23.7057 31.3496 25.0857 31.9016C26.4658 31.3496 27.399 29.9054 27.8863 29.0116Z" fill="#6EC86E"/>
<path d="M25.0728 17.5734L25.0889 17.5654C25.0889 17.5654 25.0835 17.5668 25.0728 17.5734Z" fill="#FFE15A"/>
<path d="M25.0879 17.5654L25.1041 17.5734C25.0932 17.5668 25.0879 17.5654 25.0879 17.5654Z" fill="#FFE15A"/>
<path d="M28.3626 19.0265C28.2666 18.4719 27.552 18.3758 26.7306 18.3225C25.9093 18.2691 25.5572 17.7998 25.5572 17.7998H24.6186C24.6186 17.7998 24.2665 18.2691 23.4452 18.3225C22.6239 18.3758 21.9092 18.4718 21.8132 19.0265C21.7172 19.581 22.4212 20.4558 22.4212 20.4558L23.0399 19.9545C23.0399 19.9545 22.2825 19.2292 22.6558 18.9625C23.0244 18.6991 24.0993 18.8815 24.578 18.2493C24.5578 18.3814 24.5648 18.5445 24.6468 18.7455C24.8032 19.1296 24.7464 19.6131 24.7464 19.6131H25.0878H25.4292C25.4292 19.6131 25.3723 19.1295 25.5288 18.7455C25.6107 18.5445 25.618 18.3812 25.5976 18.2493C26.0764 18.8815 27.1513 18.6991 27.5198 18.9625C27.8932 19.2292 27.1357 19.9545 27.1357 19.9545L27.7544 20.4558C27.7546 20.4558 28.4586 19.581 28.3626 19.0265Z" fill="#FFE15A"/>
<path d="M25.4359 15.8803H25.2581V15.6883C25.2581 15.5939 25.1817 15.5176 25.0874 15.5176C24.9931 15.5176 24.9167 15.5939 24.9167 15.6883V15.8803H24.7317C24.6374 15.8803 24.561 15.9566 24.561 16.051C24.561 16.1453 24.6374 16.2217 24.7317 16.2217H24.9167V16.7123C24.9167 16.8066 24.9931 16.883 25.0874 16.883C25.1817 16.883 25.2581 16.8066 25.2581 16.7123V16.2217H25.4359C25.5303 16.2217 25.6066 16.1453 25.6066 16.051C25.6066 15.9566 25.5302 15.8803 25.4359 15.8803Z" fill="#FFE15A"/>
<path d="M25.0851 17.2238C25.2736 17.2238 25.4265 17.071 25.4265 16.8824C25.4265 16.6939 25.2736 16.541 25.0851 16.541C24.8965 16.541 24.7437 16.6939 24.7437 16.8824C24.7437 17.071 24.8965 17.2238 25.0851 17.2238Z" fill="#FFF0E1"/>
<path d="M22.64 23.7522C22.7775 23.8209 22.938 23.8803 23.1022 23.8803C23.6677 23.8803 23.9449 23.5604 23.9449 22.9949C23.9449 22.4294 23.6036 22.0029 23.0382 22.0029C23.0382 22.0029 22.9744 22.004 22.8723 22.0196C22.8503 22.0231 22.8285 22.0265 22.8071 22.0313C22.2634 22.1351 20.9199 22.6359 20.6489 25.0749C20.2701 28.4843 23.0382 31.5602 25.0863 32.2429V31.9014C25.0862 31.9015 20.2506 28.2038 22.64 23.7522Z" fill="#FFC75A"/>
<path d="M23.0386 22.3438L25.0866 23.0265L23.0386 23.7091V22.3438Z" fill="#FFC75A"/>
<path d="M27.1349 23.7091L25.0869 23.0265L27.1349 22.3438V23.7091Z" fill="#FFE15A"/>
<path d="M20.9881 25.1119C21.2326 22.9109 22.3863 22.4584 22.8832 22.3634C22.8941 22.3609 22.9052 22.3593 22.924 22.3562C22.9865 22.3467 23.0295 22.344 23.043 22.3435C23.4172 22.346 23.664 22.6279 23.664 22.9692C23.664 23.3456 23.4435 23.4883 23.2232 23.4954C23.2232 23.4954 23.401 23.1256 23.0382 23.0261C22.7935 22.9588 22.4836 23.1541 22.512 23.5096C22.5321 23.7595 22.7693 24.0002 23.0382 24.0002C23.6037 24.0002 24.0622 23.5915 24.0622 23.026C24.0622 22.4604 23.6037 22.002 23.0382 22.002C23.0382 22.002 22.9744 22.003 22.8723 22.0187C22.8503 22.0222 22.8285 22.0255 22.8071 22.0304C22.2634 22.1341 20.9199 22.635 20.6489 25.0739C20.2701 28.4833 23.0382 31.5593 25.0863 32.2419V31.9005C25.0863 31.9005 24.361 31.5378 23.8651 31.1855C22.3329 30.0973 20.7116 27.6012 20.9881 25.1119Z" fill="#FFE15A"/>
<path d="M27.5312 23.7522C27.3937 23.8209 27.2332 23.8803 27.069 23.8803C26.5035 23.8803 26.2264 23.5604 26.2264 22.9949C26.2264 22.4294 26.5676 22.0029 27.133 22.0029C27.133 22.0029 27.1968 22.004 27.2989 22.0196C27.3209 22.0231 27.3427 22.0265 27.3642 22.0313C27.9078 22.1351 29.2514 22.6359 29.5224 25.0749C29.9012 28.4843 27.133 31.5602 25.085 32.2429V31.9014C25.085 31.9015 29.9205 28.2038 27.5312 23.7522Z" fill="#FFC75A"/>
<path d="M27.1329 22.3438L25.085 23.0265L27.1329 23.7091V22.3438Z" fill="#FFC75A"/>
<path d="M29.1836 25.1119C28.9391 22.9109 27.7854 22.4584 27.2885 22.3634C27.2776 22.3609 27.2665 22.3593 27.2477 22.3562C27.1852 22.3467 27.1422 22.344 27.1287 22.3435C26.7545 22.346 26.5077 22.6279 26.5077 22.9692C26.5077 23.3456 26.7282 23.4883 26.9485 23.4954C26.9485 23.4954 26.7707 23.1256 27.1335 23.0261C27.3782 22.9588 27.6881 23.1541 27.6597 23.5096C27.6396 23.7595 27.4024 24.0002 27.1335 24.0002C26.568 24.0002 26.1095 23.5915 26.1095 23.026C26.1095 22.4604 26.568 22.002 27.1335 22.002C27.1335 22.002 27.1973 22.003 27.2994 22.0187C27.3214 22.0222 27.3432 22.0255 27.3646 22.0304C27.9083 22.1341 29.2518 22.635 29.5228 25.0739C29.9016 28.4833 27.1335 31.5593 25.0854 32.2419V31.9005C25.0854 31.9005 25.8107 31.5378 26.3066 31.1855C27.8389 30.0973 29.4602 27.6012 29.1836 25.1119Z" fill="#FFE15A"/>
<path d="M25.0851 23.3684C25.2736 23.3684 25.4265 23.2155 25.4265 23.027C25.4265 22.8384 25.2736 22.6855 25.0851 22.6855C24.8965 22.6855 24.7437 22.8384 24.7437 23.027C24.7437 23.2155 24.8965 23.3684 25.0851 23.3684Z" fill="#FFE15A"/>
<path d="M27.5233 20.2853C27.614 20.0506 27.4913 19.7359 27.4913 19.7359C27.1767 19.7253 26.958 19.9546 26.958 19.9546C26.9847 19.672 26.862 19.4159 26.862 19.4159C26.4566 19.4639 26.3233 19.704 26.3233 19.704C26.302 19.2613 26.0352 19.08 26.0352 19.08C25.6832 19.1866 25.5767 19.5706 25.5767 19.5706C25.5233 19.1333 25.086 18.9307 25.086 18.9307C25.086 18.9307 24.6487 19.1334 24.5954 19.5706C24.5954 19.5706 24.4888 19.1865 24.1368 19.08C24.1368 19.08 23.8701 19.2613 23.8487 19.704C23.8487 19.704 23.7154 19.4641 23.3101 19.4159C23.3101 19.4159 23.1874 19.672 23.2141 19.9546C23.2141 19.9546 22.9954 19.7253 22.6808 19.7359C22.6808 19.7359 22.5581 20.0506 22.6487 20.2853C22.6487 20.2853 22.2914 20.1733 21.998 20.3438C21.998 20.3438 22.5357 20.5519 22.7149 20.8078H27.4572C27.6363 20.5518 28.1741 20.3438 28.1741 20.3438C27.8807 20.1732 27.5233 20.2853 27.5233 20.2853Z" fill="#FFC75A"/>
<path d="M27.4571 20.8082C27.4571 20.9617 27.0983 21.4365 27.0983 21.4365C27.0983 21.4365 25.9349 21.5984 25.086 21.5984C24.2317 21.5984 23.0656 21.432 23.0656 21.432C23.0656 21.432 22.7148 20.9599 22.7148 20.808C22.7148 20.3715 23.7765 20.0176 25.0859 20.0176C26.3955 20.0177 27.4571 20.3717 27.4571 20.8082Z" fill="#FFE15A"/>
<path d="M25.0852 22.0029C26.2165 22.0029 27.1337 21.6973 27.1337 21.3203C27.1337 20.9433 26.2165 20.6377 25.0852 20.6377C23.9538 20.6377 23.0366 20.9433 23.0366 21.3203C23.0366 21.6973 23.9538 22.0029 25.0852 22.0029Z" fill="#FFC75A"/>
<path d="M25.5875 17.533C25.5875 17.3089 25.4204 17.0245 25.0862 17.2236C24.752 17.0245 24.585 17.3089 24.585 17.533C24.585 17.757 24.3289 17.789 24.2969 17.7676C24.2969 17.7676 24.5103 18.045 24.7555 17.8636C24.7555 17.8636 24.887 18.0556 25.0861 18.0556C25.2852 18.0556 25.4169 17.8636 25.4169 17.8636C25.6623 18.045 25.8755 17.7676 25.8755 17.7676C25.8435 17.7889 25.5875 17.7569 25.5875 17.533Z" fill="#FFC75A"/>
<path d="M24.4048 34.0774C24.3856 34.0774 24.3661 34.0731 24.3477 34.0637C24.2844 34.0324 24.2588 33.9554 24.2904 33.892L24.973 32.5267C25.0047 32.464 25.0815 32.4378 25.1447 32.4697C25.2081 32.501 25.2337 32.578 25.202 32.6414L24.5194 34.0067C24.4969 34.0514 24.4517 34.0774 24.4048 34.0774Z" fill="#B46446"/>
<path d="M25.7703 34.0776C25.7233 34.0776 25.6782 34.0517 25.6556 34.0069L24.973 32.6416C24.9414 32.5782 24.967 32.5013 25.0304 32.4699C25.0934 32.4376 25.1703 32.4639 25.202 32.527L25.8847 33.8923C25.9163 33.9557 25.8907 34.0326 25.8273 34.064C25.8089 34.0733 25.7894 34.0776 25.7703 34.0776Z" fill="#B46446"/>
<path d="M28.1592 32.8821C26.1361 33.3344 24.0382 33.3344 22.0151 32.8821C22.0151 32.5407 22.0151 31.9019 22.0151 31.5605C24.0382 32.0128 26.1361 32.0128 28.1592 31.5605C28.1592 31.902 28.1592 32.5409 28.1592 32.8821Z" fill="#F5F5F5"/>
<path d="M23.7077 32.3848C22.4014 32.6368 21.0626 32.706 19.7305 32.5815C19.7529 32.7575 20.8063 33.2806 20.8063 33.2806C20.8063 33.2806 19.8769 33.7298 19.8976 33.8925C21.1728 34.0116 22.4545 33.9548 23.7077 33.7287V32.3848Z" fill="#F5F5F5"/>
<path d="M26.4717 32.3848C27.778 32.6368 29.1168 32.706 30.4489 32.5815C30.4265 32.7575 29.373 33.2806 29.373 33.2806C29.373 33.2806 30.3025 33.7298 30.2818 33.8925C29.0066 34.0116 27.7249 33.9548 26.4717 33.7287V32.3848Z" fill="#F5F5F5"/>
</g>
<defs>
<clipPath id="clip0_106_17823">
<rect width="50" height="50" fill="white"/>
</clipPath>
</defs>
</svg>
