<svg width="50" height="50" viewBox="0 0 50 50" fill="none" xmlns="http://www.w3.org/2000/svg">
<g clip-path="url(#clip0_106_17816)">
<path d="M49.1395 41.3796H0.863817C0.387743 41.3796 0.00170898 40.9936 0.00170898 40.5175V9.4832C0.00170898 9.00713 0.387743 8.62109 0.863817 8.62109H49.1396C49.6157 8.62109 50.0017 9.00713 50.0017 9.4832V40.5175C50.0016 40.9937 49.6156 41.3796 49.1395 41.3796Z" fill="#73AF00"/>
<path d="M50.0016 16.3789H0.00170898V33.6201H50.0016V16.3789Z" fill="#FFE15A"/>
<path d="M0.26206 41.1321L17.243 25.0001L0.26206 8.86816C0.102002 9.02461 0.00170898 9.24141 0.00170898 9.48291V40.5172C0.00170898 40.7587 0.102002 40.9755 0.26206 41.1321Z" fill="#FF4B55"/>
<path d="M27.1792 21.0707L28.0627 23.7197L30.855 23.7414C31.2166 23.7442 31.3665 24.2056 31.0756 24.4204L28.8294 26.0792L29.6717 28.7416C29.7808 29.0863 29.3883 29.3715 29.0942 29.1612L26.8224 27.5374L24.5507 29.1612C24.2566 29.3715 23.864 29.0863 23.9731 28.7416L24.8155 26.0792L22.5692 24.4204C22.2784 24.2057 22.4283 23.7442 22.7898 23.7414L25.5822 23.7197L26.4657 21.0707C26.5797 20.7277 27.0648 20.7277 27.1792 21.0707Z" fill="#464655"/>
<path d="M40.0703 21.0707L40.9538 23.7197L43.7462 23.7414C44.1077 23.7442 44.2576 24.2056 43.9668 24.4204L41.7205 26.0792L42.5629 28.7416C42.6719 29.0863 42.2795 29.3715 41.9853 29.1612L39.7135 27.5374L37.4418 29.1612C37.1477 29.3715 36.7552 29.0863 36.8642 28.7416L37.7066 26.0792L35.4603 24.4204C35.1695 24.2057 35.3194 23.7442 35.6809 23.7414L38.4733 23.7197L39.3568 21.0707C39.4707 20.7277 39.9558 20.7277 40.0703 21.0707Z" fill="#464655"/>
</g>
<defs>
<clipPath id="clip0_106_17816">
<rect width="50" height="50" fill="white"/>
</clipPath>
</defs>
</svg>
