<svg width="50" height="50" viewBox="0 0 50 50" fill="none" xmlns="http://www.w3.org/2000/svg">
<g clip-path="url(#clip0_106_17808)">
<path d="M49.1378 41.3796H0.862108C0.386034 41.3796 0 40.9936 0 40.5175V9.4832C0 9.00713 0.386034 8.62109 0.862108 8.62109H49.1379C49.614 8.62109 50 9.00713 50 9.4832V40.5175C49.9999 40.9937 49.6139 41.3796 49.1378 41.3796Z" fill="#F5F5F5"/>
<path d="M49.9999 23.2762H26.7241V8.62109H23.2757V23.2762H0V26.7245H23.2757V41.3796H26.7241V26.7245H49.9999V23.2762Z" fill="#FF4B55"/>
<path d="M16.1269 16.3431C16.2717 16.0536 15.4713 15.1158 15.5137 14.9033C15.5561 14.6908 15.651 14.3652 15.3109 13.1328C14.971 11.9004 13.9496 11.6026 12.7172 11.4752C11.4848 11.3477 9.85546 12.2315 9.4875 13.1963C9.26543 13.7785 9.41562 14.4289 9.64863 15.0479C9.54404 15.0593 9.34375 15.065 9.19609 14.9559C9.07851 14.8683 9.01416 14.7195 9.00293 14.5143C8.96171 13.7328 9.38808 12.4526 9.39267 12.44L9.4246 12.3444L8.08603 11.8723L8.16474 12.5005L7.13184 12.28L7.19492 12.4532C7.28584 12.7029 8.08594 14.898 8.19365 15.0919C8.37031 15.4086 8.61006 15.6112 8.90615 15.6935C9.0124 15.7234 9.11728 15.7347 9.21689 15.7347C9.22968 15.7347 9.24043 15.7314 9.25302 15.731C9.19238 15.8427 9.06972 15.9834 8.75742 16.1285C8.39101 16.2973 8.02012 16.4794 7.97949 17.1633L7.96846 17.1689C7.97178 17.1753 7.97558 17.1787 7.9789 17.1849C7.97012 17.3656 7.97832 17.5721 8.02158 17.8316C8.1291 18.473 8.34756 19.1025 8.35693 19.129L8.37812 19.1894L8.44189 19.1967C8.44648 19.1967 8.86689 19.2471 8.9957 19.6887C9.07002 19.9443 9.30439 20.1383 9.53486 20.1383C9.54082 20.1383 9.54677 20.1377 9.55273 20.1377C9.65234 20.1331 9.89335 20.0812 9.97167 19.6908L9.983 19.6343L9.3499 19.0518L9.5621 18.3521L9.46113 18.3249C9.45517 18.3234 9.03593 18.1971 8.60195 17.7239C8.56172 17.529 8.5665 17.3882 8.61845 17.3083C8.67754 17.2186 8.80302 17.1934 8.94843 17.1642C9.08388 17.137 9.22402 17.1092 9.33759 17.0208C9.70253 16.7355 9.90673 16.245 10.0102 15.9092C10.0663 16.0361 10.12 16.1594 10.1676 16.277C10.5288 17.1695 9.53017 18.1893 9.53017 18.1893C10.1676 18.4443 10.2313 18.5929 11.1238 19.6979C12.0163 20.8029 12.8236 20.3353 12.8236 20.3353C12.8236 20.3353 12.7088 19.6279 13.2953 19.3293C13.8819 19.0306 13.8952 18.6467 13.8952 18.6467C15.3591 18.9907 15.4471 18.3908 15.383 18.1828C15.319 17.9749 15.399 17.6469 15.399 17.6469C15.399 17.6469 15.5465 17.6562 15.655 17.583C15.8269 17.4671 15.711 17.1911 15.711 17.1911C15.879 17.111 15.943 16.9351 15.815 16.7991C15.687 16.6631 15.695 16.5112 15.695 16.5112C15.695 16.5112 16.031 16.535 16.1269 16.3431ZM8.96113 15.4969C8.71943 15.4299 8.5209 15.2597 8.37148 14.9923C8.30049 14.8648 7.80303 13.5255 7.44922 12.556L8.1915 12.7142L8.33105 13.8282L8.53291 13.803L8.329 12.1749L9.16835 12.4704C9.06738 12.7898 8.76201 13.8236 8.7998 14.5248C8.81367 14.7937 8.90605 14.9935 9.07402 15.119C9.22607 15.2326 9.40869 15.2591 9.54814 15.2591C9.63037 15.2591 9.68632 15.2511 9.72412 15.2444C9.74492 15.2956 9.7664 15.3459 9.78779 15.3965C9.66992 15.4545 9.32412 15.5998 8.96113 15.4969ZM9.75869 19.7052C9.73017 19.8054 9.66972 19.9283 9.54365 19.9337C9.54091 19.9337 9.53769 19.9337 9.53437 19.9337C9.3956 19.9337 9.23955 19.7975 9.19101 19.6315C9.18857 19.623 9.18349 19.6186 9.18076 19.6103L9.28427 19.2685L9.75869 19.7052ZM9.30849 18.4875L9.04912 19.3413C8.88095 19.113 8.64511 19.0322 8.53095 19.0055C8.47509 18.8376 8.30918 18.3142 8.22285 17.7984C8.20478 17.6894 8.1959 17.5967 8.1876 17.5051C8.61728 18.134 9.10166 18.4053 9.30849 18.4875ZM9.21211 16.86C9.13711 16.9184 9.02627 16.9404 8.90869 16.9642C8.74199 16.9974 8.5542 17.0352 8.44795 17.1967C8.40918 17.2557 8.38994 17.3298 8.38008 17.4122C8.3123 17.3164 8.24287 17.2353 8.17939 17.1187C8.22431 16.5994 8.50693 16.4679 8.84297 16.3128C9.32744 16.0885 9.43984 15.8496 9.48779 15.7068C9.66044 15.6731 9.78984 15.6196 9.8666 15.5833C9.8704 15.5921 9.87421 15.6003 9.87812 15.6092C9.8247 15.8447 9.64091 16.5252 9.21211 16.86ZM10.3517 15.9431L9.93574 15.0472L14.8312 12.7755C15.1513 13.3835 15.1833 14.1033 15.1833 14.1033L10.3517 15.9431Z" fill="#464655"/>
<path d="M42.8515 16.3431C42.9963 16.0536 42.1959 15.1158 42.2383 14.9033C42.2807 14.6908 42.3756 14.3652 42.0355 13.1328C41.6956 11.9004 40.6742 11.6026 39.4418 11.4752C38.2094 11.3477 36.5801 12.2315 36.2121 13.1963C35.99 13.7785 36.1402 14.4289 36.3732 15.0479C36.2686 15.0593 36.0684 15.065 35.9207 14.9559C35.8031 14.8683 35.7388 14.7195 35.7275 14.5143C35.6863 13.7328 36.1127 12.4526 36.1173 12.44L36.1492 12.3444L34.8106 11.8723L34.8894 12.5005L33.8564 12.28L33.9195 12.4532C34.0104 12.7029 34.8105 14.898 34.9183 15.0919C35.0949 15.4086 35.3347 15.6112 35.6308 15.6935C35.737 15.7234 35.842 15.7347 35.9415 15.7347C35.9543 15.7347 35.965 15.7314 35.9776 15.731C35.917 15.8427 35.7943 15.9834 35.482 16.1285C35.1156 16.2973 34.7447 16.4794 34.7041 17.1633L34.6931 17.1689C34.6964 17.1753 34.7002 17.1787 34.7035 17.1849C34.6947 17.3656 34.7029 17.5721 34.7462 17.8316C34.8537 18.473 35.0723 19.1025 35.0815 19.129L35.1027 19.1894L35.1665 19.1967C35.1711 19.1967 35.5915 19.2471 35.7203 19.6887C35.7946 19.9443 36.029 20.1383 36.2595 20.1383C36.2654 20.1383 36.2714 20.1377 36.2773 20.1377C36.3769 20.1331 36.618 20.0812 36.6963 19.6908L36.7076 19.6343L36.0745 19.0518L36.2867 18.3521L36.1857 18.3249C36.1798 18.3234 35.7605 18.1971 35.3266 17.7239C35.2863 17.529 35.2911 17.3882 35.3431 17.3083C35.4021 17.2186 35.5276 17.1934 35.673 17.1642C35.8085 17.137 35.9486 17.1092 36.0622 17.0208C36.4271 16.7355 36.6313 16.245 36.7349 15.9092C36.7909 16.0361 36.8446 16.1594 36.8922 16.277C37.2534 17.1695 36.2548 18.1893 36.2548 18.1893C36.8922 18.4443 36.956 18.5929 37.8484 19.6979C38.7409 20.8028 39.5483 20.3353 39.5483 20.3353C39.5483 20.3353 39.4335 19.6279 40.02 19.3293C40.6066 19.0306 40.6199 18.6467 40.6199 18.6467C42.0838 18.9907 42.1718 18.3908 42.1077 18.1828C42.0437 17.9749 42.1237 17.6469 42.1237 17.6469C42.1237 17.6469 42.2712 17.6562 42.3797 17.583C42.5516 17.4671 42.4357 17.1911 42.4357 17.1911C42.6037 17.111 42.6678 16.9351 42.5397 16.7991C42.4117 16.6631 42.4197 16.5112 42.4197 16.5112C42.4197 16.5112 42.7555 16.535 42.8515 16.3431ZM35.6856 15.4969C35.4439 15.4299 35.2454 15.2597 35.096 14.9923C35.025 14.8648 34.5275 13.5255 34.1737 12.556L34.916 12.7142L35.0556 13.8282L35.2574 13.803L35.0535 12.1749L35.8929 12.4704C35.7919 12.7898 35.4865 13.8236 35.5243 14.5248C35.5382 14.7937 35.6306 14.9935 35.7985 15.119C35.9506 15.2326 36.1332 15.2591 36.2726 15.2591C36.3549 15.2591 36.4108 15.2511 36.4486 15.2444C36.4694 15.2956 36.4909 15.3459 36.5123 15.3965C36.3943 15.4545 36.0486 15.5998 35.6856 15.4969ZM36.4831 19.7052C36.4546 19.8054 36.3941 19.9283 36.2681 19.9337C36.2653 19.9337 36.2621 19.9337 36.2588 19.9337C36.12 19.9337 35.964 19.7975 35.9154 19.6315C35.913 19.623 35.9079 19.6186 35.9052 19.6103L36.0087 19.2685L36.4831 19.7052ZM36.0329 18.4875L35.7735 19.3413C35.6053 19.113 35.3695 19.0322 35.2554 19.0055C35.1995 18.8376 35.0336 18.3142 34.9473 17.7984C34.9292 17.6894 34.9203 17.5967 34.912 17.5051C35.3418 18.134 35.8262 18.4053 36.0329 18.4875ZM35.9367 16.86C35.8617 16.9184 35.7509 16.9404 35.6333 16.9642C35.4666 16.9974 35.2788 17.0352 35.1726 17.1967C35.1338 17.2557 35.1145 17.3298 35.1047 17.4122C35.0369 17.3164 34.9675 17.2353 34.904 17.1187C34.9489 16.5994 35.2315 16.4679 35.5676 16.3128C36.052 16.0885 36.1644 15.8496 36.2124 15.7068C36.3851 15.6731 36.5144 15.6196 36.5912 15.5833C36.595 15.5921 36.5988 15.6003 36.6027 15.6092C36.5492 15.8447 36.3654 16.5252 35.9367 16.86ZM37.0762 15.9431L36.6602 15.0472L41.5557 12.7755C41.8758 13.3835 41.9078 14.1033 41.9078 14.1033L37.0762 15.9431Z" fill="#464655"/>
<path d="M16.1274 34.4467C16.2721 34.1571 15.4718 33.2193 15.5141 33.0068C15.5566 32.7943 15.6514 32.4687 15.3114 31.2363C14.9715 30.0039 13.9501 29.7061 12.7177 29.5787C11.4852 29.4513 9.85595 30.335 9.48798 31.2998C9.26591 31.882 9.41611 32.5324 9.64912 33.1514C9.54453 33.1628 9.34423 33.1685 9.19658 33.0595C9.079 32.9719 9.01464 32.823 9.00341 32.6178C8.9622 31.8363 9.38857 30.5561 9.39316 30.5435L9.42509 30.4479L8.08652 29.9759L8.16523 30.604L7.13232 30.3835L7.19541 30.5567C7.28633 30.8064 8.08642 33.0015 8.19414 33.1954C8.3708 33.5121 8.61054 33.7147 8.90664 33.797C9.01289 33.8269 9.11777 33.8383 9.21738 33.8383C9.23017 33.8383 9.24091 33.8349 9.25351 33.8345C9.19287 33.9462 9.07021 34.0869 8.75791 34.2319C8.3915 34.4008 8.0206 34.5828 7.97998 35.2667L7.96894 35.2724C7.97226 35.2788 7.97607 35.2822 7.97939 35.2885C7.9706 35.4691 7.97881 35.6757 8.02207 35.9351C8.12959 36.5765 8.34804 37.206 8.35742 37.2325L8.37861 37.2929L8.44238 37.3003C8.44697 37.3003 8.86738 37.3507 8.99619 37.7923C9.0705 38.0478 9.30488 38.2419 9.53535 38.2419C9.5413 38.2419 9.54726 38.2412 9.55322 38.2412C9.65283 38.2366 9.89384 38.1847 9.97216 37.7943L9.98349 37.7379L9.35039 37.1553L9.56259 36.4556L9.46162 36.4284C9.45566 36.4269 9.03642 36.3007 8.60244 35.8274C8.5622 35.6325 8.56699 35.4917 8.61894 35.4118C8.67802 35.3221 8.80351 35.2969 8.94892 35.2677C9.08437 35.2405 9.22451 35.2127 9.33808 35.1243C9.70302 34.839 9.90722 34.3485 10.0107 34.0127C10.0668 34.1396 10.1205 34.263 10.1681 34.3805C10.5293 35.273 9.53066 36.2928 9.53066 36.2928C10.1681 36.5478 10.2318 36.6965 11.1243 37.8014C12.0168 38.9064 12.8241 38.4388 12.8241 38.4388C12.8241 38.4388 12.7093 37.7314 13.2958 37.4328C13.8824 37.1342 13.8957 36.7503 13.8957 36.7503C15.3596 37.0942 15.4475 36.4943 15.3835 36.2863C15.3195 36.0784 15.3995 35.7505 15.3995 35.7505C15.3995 35.7505 15.547 35.7597 15.6555 35.6865C15.8274 35.5706 15.7115 35.2946 15.7115 35.2946C15.8795 35.2146 15.9435 35.0386 15.8155 34.9026C15.6875 34.7666 15.6955 34.6147 15.6955 34.6147C15.6955 34.6147 16.0315 34.6386 16.1274 34.4467ZM8.96162 33.6004C8.71992 33.5334 8.52138 33.3633 8.37197 33.0958C8.30097 32.9683 7.80351 31.629 7.44971 30.6596L8.19199 30.8178L8.33154 31.9317L8.5334 31.9065L8.32949 30.2784L9.16884 30.5739C9.06787 30.8933 8.7625 31.9271 8.80029 32.6283C8.81416 32.8972 8.90654 33.0971 9.07451 33.2226C9.22656 33.3362 9.40917 33.3627 9.54863 33.3627C9.63085 33.3627 9.68681 33.3547 9.7246 33.348C9.7454 33.3992 9.76689 33.4495 9.78828 33.5001C9.6704 33.5579 9.3246 33.7033 8.96162 33.6004ZM9.75917 37.8088C9.73066 37.909 9.67021 38.0318 9.54414 38.0372C9.5414 38.0372 9.53818 38.0372 9.53486 38.0372C9.39609 38.0372 9.24003 37.901 9.1915 37.735C9.18906 37.7265 9.18398 37.7221 9.18125 37.7138L9.28476 37.372L9.75917 37.8088ZM9.30898 36.591L9.04961 37.4448C8.88144 37.2165 8.6456 37.1357 8.53144 37.1091C8.47558 36.9411 8.30967 36.4177 8.22334 35.9019C8.20527 35.7929 8.19638 35.7002 8.18808 35.6086C8.61777 36.2375 9.10214 36.509 9.30898 36.591ZM9.21259 34.9637C9.13759 35.0221 9.02675 35.0441 8.90918 35.0679C8.74248 35.1011 8.55468 35.1389 8.44843 35.3004C8.40967 35.3594 8.39043 35.4335 8.38056 35.5159C8.31279 35.4201 8.24336 35.339 8.17988 35.2224C8.2248 34.7031 8.50742 34.5717 8.84345 34.4165C9.32793 34.1923 9.44033 33.9533 9.48828 33.8105C9.66093 33.7768 9.79033 33.7233 9.86708 33.687C9.87089 33.6958 9.8747 33.704 9.87861 33.7129C9.82519 33.9482 9.6414 34.6287 9.21259 34.9637ZM10.3521 34.0467L9.93622 33.1508L14.8317 30.879C15.1517 31.487 15.1838 32.2068 15.1838 32.2068L10.3521 34.0467Z" fill="#464655"/>
<path d="M42.8515 34.4467C42.9963 34.1571 42.1959 33.2193 42.2383 33.0068C42.2807 32.7943 42.3756 32.4687 42.0355 31.2363C41.6956 30.0039 40.6742 29.7061 39.4418 29.5787C38.2094 29.4513 36.5801 30.335 36.2121 31.2998C35.99 31.882 36.1402 32.5324 36.3732 33.1514C36.2686 33.1628 36.0684 33.1685 35.9207 33.0595C35.8031 32.9719 35.7388 32.823 35.7275 32.6178C35.6863 31.8363 36.1127 30.5561 36.1173 30.5435L36.1492 30.4479L34.8106 29.9759L34.8894 30.604L33.8564 30.3835L33.9195 30.5567C34.0104 30.8064 34.8105 33.0015 34.9183 33.1954C35.0949 33.5121 35.3347 33.7147 35.6308 33.797C35.737 33.8269 35.842 33.8383 35.9415 33.8383C35.9543 33.8383 35.965 33.8349 35.9776 33.8345C35.917 33.9462 35.7943 34.0869 35.482 34.2319C35.1156 34.4008 34.7447 34.5828 34.7041 35.2667L34.6931 35.2724C34.6964 35.2788 34.7002 35.2822 34.7035 35.2885C34.6947 35.4691 34.7029 35.6757 34.7462 35.9351C34.8537 36.5765 35.0723 37.206 35.0815 37.2325L35.1027 37.2929L35.1665 37.3003C35.1711 37.3003 35.5915 37.3507 35.7203 37.7923C35.7946 38.0478 36.029 38.2419 36.2595 38.2419C36.2654 38.2419 36.2714 38.2412 36.2773 38.2412C36.3769 38.2366 36.618 38.1847 36.6963 37.7943L36.7076 37.7379L36.0745 37.1553L36.2867 36.4556L36.1857 36.4284C36.1798 36.4269 35.7605 36.3007 35.3266 35.8274C35.2863 35.6325 35.2911 35.4917 35.3431 35.4118C35.4021 35.3221 35.5276 35.2969 35.673 35.2677C35.8085 35.2405 35.9486 35.2127 36.0622 35.1243C36.4271 34.839 36.6313 34.3485 36.7349 34.0127C36.7909 34.1396 36.8446 34.263 36.8922 34.3805C37.2534 35.273 36.2548 36.2928 36.2548 36.2928C36.8922 36.5478 36.956 36.6965 37.8484 37.8014C38.7409 38.9063 39.5483 38.4388 39.5483 38.4388C39.5483 38.4388 39.4335 37.7314 40.02 37.4328C40.6066 37.1342 40.6199 36.7503 40.6199 36.7503C42.0838 37.0942 42.1718 36.4943 42.1077 36.2863C42.0437 36.0784 42.1237 35.7505 42.1237 35.7505C42.1237 35.7505 42.2712 35.7597 42.3797 35.6865C42.5516 35.5706 42.4357 35.2946 42.4357 35.2946C42.6037 35.2146 42.6678 35.0386 42.5397 34.9026C42.4117 34.7666 42.4197 34.6147 42.4197 34.6147C42.4197 34.6147 42.7555 34.6386 42.8515 34.4467ZM35.6856 33.6004C35.4439 33.5334 35.2454 33.3633 35.096 33.0958C35.025 32.9683 34.5275 31.629 34.1737 30.6596L34.916 30.8178L35.0556 31.9317L35.2574 31.9065L35.0535 30.2784L35.8929 30.5739C35.7919 30.8933 35.4865 31.9271 35.5243 32.6283C35.5382 32.8972 35.6306 33.097 35.7985 33.2226C35.9506 33.3362 36.1332 33.3627 36.2726 33.3627C36.3549 33.3627 36.4108 33.3547 36.4486 33.348C36.4694 33.3992 36.4909 33.4495 36.5123 33.5001C36.3943 33.5579 36.0486 33.7033 35.6856 33.6004ZM36.4831 37.8088C36.4546 37.909 36.3941 38.0318 36.2681 38.0372C36.2653 38.0372 36.2621 38.0372 36.2588 38.0372C36.12 38.0372 35.964 37.901 35.9154 37.735C35.913 37.7265 35.9079 37.7221 35.9052 37.7138L36.0087 37.372L36.4831 37.8088ZM36.0329 36.591L35.7735 37.4448C35.6053 37.2165 35.3695 37.1357 35.2554 37.1091C35.1995 36.9411 35.0336 36.4177 34.9473 35.9019C34.9292 35.7929 34.9203 35.7002 34.912 35.6086C35.3418 36.2375 35.8262 36.509 36.0329 36.591ZM35.9367 34.9637C35.8617 35.0221 35.7509 35.0441 35.6333 35.0679C35.4666 35.1011 35.2788 35.1389 35.1726 35.3004C35.1338 35.3594 35.1145 35.4335 35.1047 35.5159C35.0369 35.4201 34.9675 35.339 34.904 35.2224C34.9489 34.7031 35.2315 34.5717 35.5676 34.4165C36.052 34.1923 36.1644 33.9533 36.2124 33.8105C36.3851 33.7768 36.5144 33.7233 36.5912 33.687C36.595 33.6958 36.5988 33.704 36.6027 33.7129C36.5492 33.9482 36.3654 34.6287 35.9367 34.9637ZM37.0762 34.0467L36.6602 33.1508L41.5557 30.879C41.8758 31.487 41.9078 32.2068 41.9078 32.2068L37.0762 34.0467Z" fill="#464655"/>
</g>
<defs>
<clipPath id="clip0_106_17808">
<rect width="50" height="50" fill="white"/>
</clipPath>
</defs>
</svg>
