<svg width="50" height="50" viewBox="0 0 50 50" fill="none" xmlns="http://www.w3.org/2000/svg">
<g clip-path="url(#clip0_106_17780)">
<path d="M49.1388 41.3792H0.863084C0.387011 41.3792 0.000976562 40.9932 0.000976562 40.5171V9.48271C0.000976562 9.00664 0.387011 8.62061 0.863084 8.62061H49.1389C49.6149 8.62061 50.001 9.00664 50.001 9.48271V40.5171C50.0009 40.9933 49.6148 41.3792 49.1388 41.3792Z" fill="#73AF00"/>
<path d="M10.3454 19.7538C10.4304 20.2984 10.7596 20.4693 11.0458 20.4469C11.3833 20.4208 11.6793 20.1122 11.6793 19.7862V17.9173C11.6793 17.8237 11.7555 17.7473 11.8492 17.7473C11.943 17.7473 12.0191 17.8236 12.0191 17.9173V19.7942C12.0191 20.0199 12.1307 20.2303 12.3177 20.3567C12.4318 20.4341 12.5647 20.4738 12.6986 20.4738C12.7839 20.4738 12.8695 20.4575 12.9512 20.425L13.121 20.3571C13.1366 21.9259 13.0412 23.3048 13.0394 23.33C13.0262 23.5173 13.167 23.6799 13.3542 23.6931C13.3625 23.6938 13.3706 23.6941 13.3788 23.6941C13.5556 23.6941 13.7047 23.5574 13.7175 23.3785C13.7254 23.268 13.8301 21.758 13.7987 20.086L13.9014 20.045C13.9915 20.0092 14.0927 20.0135 14.1793 20.0566C14.5536 20.2431 15.004 20.1704 15.2998 19.8747L15.361 19.8136C15.6356 19.5385 15.7301 19.1388 15.6071 18.7702L15.3178 17.9021C15.4742 17.9492 15.6461 17.88 15.7217 17.7293C15.8056 17.5614 15.7376 17.3573 15.5697 17.2733L14.8901 16.9335C14.7672 16.8718 14.6196 16.8907 14.5154 16.9805C14.4115 17.0709 14.3722 17.2145 14.4157 17.3449L14.9625 18.9853C15.0034 19.1081 14.972 19.2415 14.8805 19.3331L14.8193 19.3942C14.7307 19.4828 14.5958 19.5044 14.483 19.4486C14.2628 19.3386 14.012 19.3179 13.7767 19.3779C13.729 18.2872 13.6115 17.2011 13.3613 16.4502C13.302 16.2722 13.1099 16.1758 12.9313 16.2354C12.7533 16.2945 12.6571 16.4869 12.7165 16.6652C12.9613 17.3995 13.068 18.5185 13.1058 19.6312L12.699 19.7939V17.917C12.699 17.4484 12.3179 17.0674 11.8494 17.0674C11.3809 17.0674 10.9998 17.4483 10.9998 17.917V19.562L10.6531 17.8496C10.6162 17.6654 10.4371 17.5453 10.2527 17.5838C10.0686 17.6213 9.9497 17.8005 9.9871 17.9844L10.3454 19.7538Z" fill="#F5F5F5"/>
<path d="M10.9995 16.8979C11.1872 16.8979 11.3394 16.746 11.3394 16.5581V16.2183C11.3394 16.0305 11.1872 15.8784 10.9995 15.8784C10.8118 15.8784 10.6597 16.0304 10.6597 16.2183V16.5581C10.6597 16.7459 10.8118 16.8979 10.9995 16.8979Z" fill="#F5F5F5"/>
<path d="M14.3977 16.5581H14.7375C14.9252 16.5581 15.0774 16.4062 15.0774 16.2183C15.0774 16.0305 14.9252 15.8784 14.7375 15.8784H14.3977C14.21 15.8784 14.0579 16.0304 14.0579 16.2183C14.0579 16.4062 14.21 16.5581 14.3977 16.5581Z" fill="#F5F5F5"/>
<path d="M12.184 21.0241L10.4849 22.0436C10.3238 22.1402 10.2718 22.3489 10.3684 22.51C10.432 22.6161 10.5445 22.6749 10.66 22.6749C10.7196 22.6749 10.7799 22.6593 10.8347 22.6264L12.5338 21.6068C12.6948 21.5102 12.7469 21.3016 12.6503 21.1405C12.5537 20.9796 12.3451 20.9275 12.184 21.0241Z" fill="#F5F5F5"/>
<path d="M16.7653 21.6254L16.7733 21.62C16.8018 21.7349 16.8507 21.846 16.9301 21.9393C17.0682 22.1019 17.2752 22.1837 17.5092 22.1643C17.8411 22.1401 18.0667 21.9885 18.2161 21.7927C18.2389 21.8083 18.2628 21.8225 18.2878 21.8351C18.4715 21.9277 18.6839 21.9208 18.8862 21.8158C19.3997 21.5514 19.5104 20.9394 19.4948 20.6195C19.4856 20.433 19.327 20.3014 19.1409 20.2976C18.9543 20.3057 18.809 20.464 18.8157 20.6505C18.8159 20.6548 18.8235 21.058 18.577 21.2077C18.5367 21.1517 18.4891 21.0255 18.4711 20.9213C18.4424 20.7464 18.2818 20.6246 18.1089 20.6386C17.9327 20.6524 17.7966 20.8005 17.796 20.9773C17.7958 21.0268 17.7849 21.4628 17.4483 21.4993C17.4091 21.4459 17.4084 21.2209 17.447 21.0546C17.4795 20.9182 17.4248 20.7758 17.3094 20.6962C17.1938 20.6162 17.0413 20.6162 16.9252 20.6949L16.7356 20.8239C16.6455 18.8532 16.438 16.5568 16.4355 16.5274C16.4186 16.3409 16.2543 16.2019 16.0663 16.2198C15.8794 16.2367 15.7416 16.4021 15.7586 16.5893C15.7616 16.6207 16.0015 19.2776 16.0755 21.3066C16.0581 21.3231 16.0403 21.3412 16.0233 21.357C15.8889 21.0183 15.6225 20.8049 15.2794 20.7724C14.7952 20.7296 14.2706 21.0591 14.0826 21.5297C13.9204 21.9346 14.0225 22.3325 14.3423 22.5432C14.5723 22.6948 14.9194 22.7426 15.3558 22.5896C15.2492 22.964 15.0552 23.3436 14.8031 23.6373C14.5772 23.9005 14.2 24.2041 13.7174 24.1905C13.4365 24.1795 13.2206 24.0876 13.0575 23.9091C12.664 23.4793 12.6979 22.7015 12.6982 22.6932C12.7079 22.5059 12.5646 22.3464 12.3776 22.336C12.1892 22.3161 12.0298 22.4691 12.0195 22.6566C12.0171 22.6997 11.9678 23.722 12.5531 24.3647C12.8411 24.6816 13.2239 24.8513 13.6907 24.8695C13.7134 24.8705 13.7362 24.8708 13.759 24.8708C14.3275 24.8708 14.879 24.592 15.3184 24.08C15.7317 23.5987 16.0123 22.945 16.0965 22.3382C16.0954 23.5007 15.3949 24.8118 14.466 25.3894C14.0716 25.6344 13.4567 25.8554 12.764 25.5139C11.9101 25.0924 12.0119 24.1164 12.0163 24.0766C12.0397 23.8903 11.9076 23.7205 11.7213 23.6973C11.536 23.6747 11.3651 23.8057 11.342 23.9923C11.3344 24.053 11.1711 25.4856 12.4633 26.1231C12.7953 26.287 13.1423 26.3683 13.4921 26.3683C13.9414 26.3683 14.395 26.234 14.8248 25.9665C15.9557 25.2636 16.7765 23.7364 16.7765 22.3353C16.7764 22.1163 16.7722 21.877 16.7653 21.6254ZM14.7161 21.9757C14.6554 21.9354 14.7029 21.8071 14.7131 21.7815C14.7847 21.6023 15.0085 21.4474 15.1873 21.4474C15.1965 21.4474 15.2058 21.4476 15.2147 21.4486C15.2581 21.4526 15.3735 21.4636 15.4231 21.7201C15.4284 21.7474 15.4328 21.7752 15.4364 21.8037C15.0576 22.0262 14.8037 22.0332 14.7161 21.9757Z" fill="#F5F5F5"/>
<path d="M11.1713 25.1011C11.0102 25.0065 10.8022 25.0606 10.7067 25.2216C10.6911 25.2478 10.6704 25.2764 10.6493 25.3022C10.6456 25.2936 10.642 25.2843 10.6383 25.2742C10.4966 24.8962 10.5974 24.3139 10.6484 24.1213C10.6964 23.9401 10.5885 23.7543 10.4074 23.7058C10.2265 23.6593 10.0405 23.7649 9.99188 23.9461C9.96717 24.038 9.75829 24.863 10.0018 25.5128C10.1578 25.9283 10.3973 26.0332 10.5708 26.0474C10.5862 26.0486 10.6015 26.0493 10.6166 26.0493C10.9824 26.0493 11.2259 25.6807 11.2935 25.5639C11.3874 25.4021 11.3324 25.196 11.1713 25.1011Z" fill="#F5F5F5"/>
<path d="M17.4421 18.9367C17.5157 18.9367 17.5897 18.9131 17.6518 18.8641L19.3651 17.519C19.3887 17.5005 19.4038 17.4762 19.4211 17.4533C19.6679 17.3045 19.8348 17.0365 19.8348 16.728C19.8348 16.2595 19.4537 15.8784 18.9852 15.8784C18.5167 15.8784 18.1356 16.2594 18.1356 16.728C18.1356 16.9902 18.2575 17.222 18.4446 17.3779L17.232 18.3299C17.0844 18.4457 17.0587 18.6594 17.1746 18.8067C17.2416 18.8922 17.3415 18.9367 17.4421 18.9367ZM18.9853 16.558C19.079 16.558 19.1552 16.6343 19.1552 16.7279C19.1552 16.8216 19.079 16.8978 18.9853 16.8978C18.8915 16.8978 18.8154 16.8216 18.8154 16.7279C18.8154 16.6343 18.8915 16.558 18.9853 16.558Z" fill="#F5F5F5"/>
<path d="M18.5831 18.6148C18.4041 18.5552 18.2124 18.6516 18.1531 18.8296C18.1168 18.9384 17.9525 19.499 18.2856 19.8317C18.4149 19.9611 18.5847 20.0259 18.7933 20.0255C18.9326 20.0255 19.0893 19.997 19.2627 19.9388C19.4407 19.8798 19.5369 19.6874 19.4776 19.5091C19.4182 19.3311 19.2261 19.2343 19.0476 19.2943C18.8577 19.3574 18.7775 19.3472 18.7701 19.3537C18.7501 19.3033 18.7633 19.1515 18.7982 19.043C18.857 18.8657 18.7608 18.6739 18.5831 18.6148Z" fill="#F5F5F5"/>
<path d="M22.4725 17.2099C22.5044 17.2192 22.5363 17.2235 22.5679 17.2235C22.715 17.2235 22.8506 17.1273 22.8939 16.9789L23.0922 16.2993C23.1447 16.1191 23.0412 15.9302 22.8612 15.8778C22.6806 15.8257 22.4924 15.9286 22.4397 16.1088L22.2415 16.7884C22.1889 16.9688 22.2924 17.1576 22.4725 17.2099Z" fill="#F5F5F5"/>
<path d="M20.4918 17.1701C20.5457 17.2016 20.6049 17.2166 20.663 17.2166C20.7798 17.2166 20.8935 17.1565 20.9566 17.0484C21.0514 16.8865 20.9969 16.678 20.8349 16.5834C20.7665 16.5436 20.7758 16.4311 20.7783 16.4088C20.7885 16.3196 20.8417 16.2107 20.9343 16.1819C21.1135 16.1262 21.2136 15.9357 21.1578 15.7565C21.1018 15.577 20.9116 15.4777 20.7321 15.5328C20.3934 15.6382 20.1464 15.9519 20.1029 16.3316C20.0627 16.6849 20.2117 17.0062 20.4918 17.1701Z" fill="#F5F5F5"/>
<path d="M17.7959 22.6748C17.6082 22.6748 17.4561 22.8268 17.4561 23.0146C17.4561 23.1806 17.5749 23.3187 17.7321 23.3484C17.75 23.3746 17.7958 23.4646 17.7958 23.6942C17.7958 23.882 17.9479 24.0341 18.1356 24.0341C18.3233 24.0341 18.4755 23.8821 18.4755 23.6942C18.4756 22.6864 17.8236 22.6748 17.7959 22.6748Z" fill="#F5F5F5"/>
<path d="M23.5609 21.2677C23.6036 21.2748 23.6461 21.278 23.6888 21.278C23.9557 21.278 24.2255 21.1433 24.4927 20.8761C24.6254 20.7434 24.6254 20.5284 24.4927 20.3956C24.3599 20.2629 24.1449 20.2629 24.0122 20.3956C23.809 20.5991 23.6996 20.6034 23.6716 20.597C23.6067 20.5877 23.5479 20.5031 23.5348 20.4799C23.4496 20.3146 23.2474 20.2487 23.081 20.3319C22.9132 20.4159 22.845 20.62 22.9291 20.7878C22.9501 20.83 23.1463 21.2003 23.5609 21.2677Z" fill="#F5F5F5"/>
<path d="M29.3375 18.8795C29.3354 18.8743 29.3333 18.8693 29.3317 18.8646C29.2714 18.6881 29.0789 18.5921 28.9027 18.6522C28.7245 18.7113 28.6283 18.9037 28.6877 19.082C28.7142 19.1616 28.8656 19.5612 29.2406 19.6116C29.2657 19.6149 29.2906 19.6165 29.3153 19.6165C29.5508 19.6165 29.7716 19.4642 29.9726 19.1628C30.0766 19.0069 30.0344 18.7958 29.8782 18.6916C29.7219 18.5877 29.5109 18.6295 29.407 18.786C29.3802 18.8261 29.3569 18.8567 29.3375 18.8795Z" fill="#F5F5F5"/>
<path d="M28.6702 25.0538C28.6702 23.6047 28.6066 22.2453 28.5181 21.054C29.0006 21.8909 29.4347 22.7365 29.7113 23.4742C29.7625 23.6106 29.8919 23.6946 30.0294 23.6946C30.0691 23.6946 30.1094 23.6875 30.1487 23.673C30.3244 23.607 30.4135 23.4112 30.3476 23.2353C29.9174 22.0886 29.1444 20.723 28.3824 19.5107C28.1966 17.6801 27.9886 16.5182 27.985 16.4975C27.9515 16.3127 27.7749 16.1879 27.59 16.224C27.4053 16.2575 27.2828 16.4343 27.3163 16.6189C27.3191 16.6336 27.4261 17.2322 27.5541 18.2395C27.293 17.8521 27.0504 17.5026 26.8469 17.2149L26.8635 17.2202C27.0425 17.2798 27.234 17.1834 27.2935 17.0054C27.3529 16.8272 27.2567 16.6347 27.0786 16.5756L26.0591 16.2358C25.9177 16.188 25.7625 16.2385 25.676 16.3593C25.6529 16.3916 25.637 16.4269 25.6263 16.4634C25.4229 16.313 25.162 16.1908 24.917 16.2933C24.7689 16.3547 24.5923 16.5093 24.5923 16.8979C24.5923 17.1962 24.7061 17.5188 24.8268 17.8606C25.0269 18.4274 25.1522 18.8442 24.9403 19.043C24.8232 19.1528 24.7061 19.1943 24.592 19.1655C24.3825 19.1124 24.175 18.8333 24.0369 18.4188C24.0308 18.4008 24.0183 18.3877 24.0097 18.3716C24.0812 17.8453 24.05 17.2111 23.906 16.4915C23.8694 16.3073 23.6908 16.1875 23.5061 16.225C23.322 16.2618 23.2028 16.4407 23.2396 16.6249C23.4615 17.7345 23.3949 18.6398 23.0616 19.0464C22.9327 19.2038 22.7711 19.2767 22.5534 19.2767C22.4845 19.2767 22.4375 19.2548 22.3908 19.201C22.1227 18.892 22.1238 17.8952 22.2103 17.2855C22.2241 17.1883 22.1949 17.0894 22.1303 17.015C22.0658 16.9407 21.9722 16.8979 21.8738 16.8979C21.2891 16.8979 21.0674 17.5629 20.8717 18.1497C20.786 18.4076 20.626 18.8871 20.5145 18.9369C20.3088 18.9369 20.1758 18.3329 20.1747 17.917C20.1741 17.7295 20.0222 17.5779 19.8348 17.5779C19.8348 17.5779 19.8345 17.5779 19.8342 17.5779C19.6467 17.5779 19.4949 17.7298 19.4949 17.9173C19.4949 18.7011 19.7619 19.6165 20.5144 19.6165C21.0748 19.6165 21.3017 19.0058 21.4917 18.4383C21.5248 18.8896 21.6267 19.3572 21.8772 19.6459C22.0533 19.8491 22.287 19.9562 22.5534 19.9562C22.9729 19.9562 23.3302 19.7906 23.5871 19.4773C23.6336 19.4207 23.6737 19.3555 23.7132 19.2898C23.9105 19.5703 24.1526 19.7553 24.4253 19.8242C24.5053 19.8444 24.5858 19.8546 24.6654 19.8546C24.9277 19.8546 25.184 19.7464 25.4054 19.5383C25.4514 19.495 25.4838 19.4478 25.5189 19.4012C25.602 19.4249 25.6863 19.439 25.77 19.439C26.0453 19.439 26.3103 19.3282 26.4747 19.2226C26.6321 19.1217 26.6776 18.9133 26.5777 18.7553C26.4776 18.5977 26.2682 18.5505 26.1098 18.6495C26.1069 18.6508 25.8799 18.7813 25.7251 18.7506C25.7255 18.3781 25.5908 17.9825 25.4677 17.6339C25.3977 17.4354 25.3258 17.2321 25.2919 17.0659C25.32 17.0895 25.3473 17.114 25.3718 17.1378C25.5042 17.2706 25.7195 17.2706 25.8522 17.1378C25.8742 17.1159 25.8869 17.0892 25.9015 17.0635C26.2537 17.5488 26.9783 18.5685 27.7235 19.744C27.8658 21.1888 27.9906 23.0319 27.9906 25.0534C27.9906 25.2411 28.1427 25.3932 28.3304 25.3932C28.5181 25.3936 28.6702 25.2417 28.6702 25.0538Z" fill="#F5F5F5"/>
<path d="M29.0101 17.5778C29.0101 17.7656 29.1622 17.9177 29.3499 17.9177C29.5376 17.9177 29.6898 17.7657 29.6898 17.5778C29.6898 17.1779 29.3769 16.5318 29.3141 16.4063C29.2301 16.2388 29.0262 16.1711 28.8581 16.2544C28.6903 16.3384 28.6221 16.5425 28.7062 16.7103C28.8287 16.9555 29.0101 17.4006 29.0101 17.5778Z" fill="#F5F5F5"/>
<path d="M27.4637 25.0907C27.2971 25.0058 27.0924 25.0732 27.0075 25.2405C26.971 25.3117 26.9145 25.3911 26.8667 25.4422C26.8517 25.3072 26.8876 25.0373 26.9562 24.8137C27.0018 24.6644 26.9399 24.503 26.8062 24.4228C26.673 24.3422 26.5012 24.3631 26.3909 24.4736L25.7114 25.1531C25.5786 25.2859 25.5786 25.5009 25.7114 25.6336C25.8441 25.7663 26.0591 25.7663 26.1918 25.6336L26.2091 25.6163C26.2385 25.7528 26.2947 25.8772 26.391 25.9735C26.5185 26.1009 26.6725 26.1683 26.8325 26.1683C26.8636 26.1683 26.8947 26.1655 26.926 26.1607C27.311 26.0983 27.5506 25.6738 27.6149 25.5453C27.6984 25.3778 27.6307 25.1751 27.4637 25.0907Z" fill="#F5F5F5"/>
<path d="M27.3321 22.3563H24.9371C24.9583 22.2717 24.9802 22.191 25.0025 22.1144C25.9576 21.9159 26.5253 21.6076 26.6922 21.1962C26.7499 21.0536 26.8102 20.7652 26.5644 20.4336C26.3428 20.1349 26.0301 20.0009 25.7053 20.0672C25.2224 20.1651 24.7921 20.6854 24.4834 21.5184C23.5241 21.6827 22.9101 22.027 22.5213 22.3667C22.3834 20.9742 21.8429 20.1469 21.8165 20.1076C21.7123 19.9512 21.5012 19.909 21.3453 20.0132C21.1892 20.1174 21.1471 20.3282 21.251 20.4844C21.2571 20.4937 21.8735 21.4365 21.8735 23.0145C21.8735 24.5656 20.6367 25.733 19.8347 25.733C19.4531 25.733 19.2861 25.2795 19.2127 24.8959C19.9981 24.3455 20.691 23.7086 20.8441 23.0967C21.0512 22.2687 20.7905 21.6584 20.6181 21.2546C20.61 21.2361 20.6015 21.2162 20.5929 21.1955C20.6002 21.2022 20.6071 21.2091 20.6141 21.2158C20.7465 21.3485 20.9617 21.3485 21.0944 21.2158C21.2272 21.083 21.2272 20.868 21.0944 20.7353C20.8958 20.5365 20.5101 20.2242 20.1594 20.3709C20.0112 20.4324 19.8347 20.587 19.8347 20.9755C19.8347 21.1511 19.908 21.3226 19.993 21.5217C20.146 21.8798 20.3363 22.3255 20.1846 22.9321C20.0948 23.2911 19.654 23.7265 19.0723 24.1589C19.0099 24.0843 18.9198 24.0342 18.8152 24.0342H18.8146C18.6271 24.0345 18.4752 24.1862 18.4752 24.3737C18.4752 24.4348 18.4779 24.5001 18.4819 24.5672C17.7546 25.0382 16.9317 25.4742 16.2955 25.7634C16.1248 25.8411 16.0493 26.0425 16.127 26.2134C16.1839 26.3385 16.3073 26.4125 16.4364 26.4125C16.4835 26.4125 16.5314 26.403 16.5769 26.3821C16.7679 26.2952 17.6748 25.8727 18.6065 25.2953C18.778 25.8779 19.1416 26.4127 19.8346 26.4127C20.6498 26.4127 21.5746 25.7461 22.1083 24.7509C22.1728 24.8647 22.2468 24.9737 22.3352 25.0753C23.1905 26.0617 24.8612 26.0729 24.9319 26.0729C25.1149 26.0729 25.2649 25.9282 25.2716 25.7453C25.278 25.5624 25.1387 25.4072 24.9563 25.3943C24.9535 25.394 24.6827 25.3641 24.5321 25.1882C24.4412 25.0821 24.4049 24.936 24.4209 24.7419C24.4557 24.3232 25.8065 24.0101 26.9971 23.9916C27.139 23.9893 27.2646 23.8994 27.3121 23.7657L27.652 22.81C27.6889 22.7061 27.673 22.5903 27.6093 22.5004C27.5463 22.41 27.4425 22.3563 27.3321 22.3563ZM25.8405 20.7335C25.847 20.7323 25.8556 20.7302 25.8664 20.7302C25.8989 20.7302 25.9502 20.7461 26.0186 20.8384C26.0314 20.8557 26.0729 20.9147 26.0624 20.9407C26.0234 21.0369 25.7888 21.1958 25.3 21.3399C25.5149 20.9204 25.7252 20.7568 25.8405 20.7335ZM23.7883 25.2006C23.4431 25.0884 23.0912 24.9106 22.8477 24.6288C22.58 24.3193 22.4812 23.9277 22.546 23.4322C22.5558 23.4061 22.578 23.3548 22.6169 23.2881C23.0954 23.2443 24.3738 23.4328 24.4624 23.799C24.0681 24.0002 23.7776 24.2832 23.7441 24.6856C23.7272 24.8874 23.7478 25.0583 23.7883 25.2006Z" fill="#F5F5F5"/>
<path d="M31.0316 17.4698L30.6917 16.4503C30.6369 16.2864 30.4669 16.1885 30.2983 16.2256C30.1288 16.2618 30.0139 16.4194 30.0312 16.5916C30.2657 18.9365 30.7092 23.5095 30.7092 24.0339C30.7092 24.5048 29.8716 25.4319 28.5183 26.1087C28.3504 26.1927 28.2823 26.3967 28.3663 26.5647C28.4259 26.6838 28.5458 26.7524 28.6706 26.7524C28.7216 26.7524 28.7736 26.7408 28.8223 26.7166C30.0585 26.0984 31.3889 24.9953 31.3889 24.0339C31.3889 23.5318 31.0416 19.9193 30.8427 17.89C31.0037 17.8212 31.0879 17.6392 31.0316 17.4698Z" fill="#F5F5F5"/>
<path d="M33.8669 20.5363C33.9323 20.6017 34.0193 20.6359 34.1073 20.6359C34.1648 20.6359 34.2227 20.6213 34.2752 20.5913C34.4081 20.5157 34.4741 20.3604 34.4365 20.212C34.3757 19.9732 34.3554 19.6744 34.3876 19.5524C34.5578 19.5576 34.7158 19.4366 34.7408 19.261C34.7673 19.0751 34.6383 18.9029 34.4526 18.8764C34.2279 18.8459 34.0306 18.9119 33.8928 19.0652C33.8035 19.1648 33.7504 19.2925 33.7216 19.4299L33.3281 19.0364C33.1953 18.9036 32.9803 18.9036 32.8476 19.0364C32.7149 19.1691 32.7149 19.3841 32.8476 19.5168L33.8669 20.5363Z" fill="#F5F5F5"/>
<path d="M34.6318 20.8908L33.3575 21.8041C33.2051 21.9133 33.1698 22.1257 33.2792 22.2783C33.3456 22.3709 33.4499 22.42 33.5558 22.42C33.6244 22.42 33.6935 22.3994 33.7535 22.3564L35.0278 21.4431C35.1803 21.3339 35.2155 21.1215 35.1061 20.9689C34.9966 20.8161 34.7839 20.7806 34.6318 20.8908Z" fill="#F5F5F5"/>
<path d="M34.5188 22.1689C34.4119 22.3066 34.4272 22.5004 34.5486 22.6196C34.5632 22.6442 34.6295 22.7741 34.6175 23.1087C34.6108 23.2965 34.7575 23.4538 34.945 23.4605C34.9491 23.4608 34.9533 23.4608 34.9573 23.4608C35.1395 23.4608 35.2902 23.3163 35.2968 23.1332C35.3215 22.4397 35.0945 22.1862 34.9958 22.1094C34.8479 21.9937 34.6341 22.0209 34.5188 22.1689Z" fill="#F5F5F5"/>
<path d="M37.4843 24.6715C37.672 24.6715 37.8242 24.5195 37.8242 24.3316C37.8242 23.8303 37.7984 23.2705 37.7563 22.6882C38.0933 23.2403 38.3732 23.7494 38.5527 24.1681C38.6078 24.2972 38.7332 24.3741 38.8651 24.3741C38.9097 24.3741 38.9551 24.3655 38.9988 24.3466C39.1712 24.2726 39.2511 24.0727 39.1771 23.9006C38.866 23.1745 38.2845 22.2128 37.6223 21.2199C37.489 19.9727 37.3149 18.7505 37.1796 17.8738C37.2515 17.8812 37.3262 17.8636 37.3918 17.821C37.4991 17.7523 37.5494 17.6328 37.5421 17.514C37.5508 17.5474 37.5602 17.5809 37.5797 17.6116C37.5821 17.6149 37.8005 17.9756 37.7036 18.4437C37.6655 18.6272 37.7837 18.807 37.9675 18.8451C37.9908 18.8497 38.014 18.8522 38.0367 18.8522C38.1944 18.8522 38.3358 18.7416 38.3692 18.5811C38.5226 17.8387 38.1682 17.2706 38.1532 17.2467C38.0523 17.0887 37.8421 17.0423 37.6838 17.1425C37.5761 17.2111 37.5252 17.3307 37.5321 17.4498C37.5233 17.4162 37.5136 17.3824 37.4938 17.3517L36.9203 16.4597C36.8327 16.3235 36.6612 16.2685 36.5108 16.327C36.3599 16.386 36.2716 16.543 36.2997 16.7023C36.3045 16.729 36.5641 18.2202 36.7943 20.0176C36.5338 19.6497 36.2733 19.29 36.0207 18.9467C35.9797 18.4325 35.9384 17.9572 35.9028 17.5642C35.9215 17.5586 35.94 17.5513 35.9581 17.5423C36.1259 17.4583 36.1941 17.2542 36.11 17.0863L35.7702 16.4067C35.6968 16.2601 35.5295 16.187 35.3718 16.2321C35.2144 16.2779 35.1118 16.4292 35.1281 16.5925C35.1686 16.9981 35.2108 17.447 35.2522 17.9186C35.0373 17.6353 34.8384 17.3759 34.6682 17.1563C34.7014 17.1277 34.7298 17.0923 34.7507 17.0504C34.8346 16.8825 34.7666 16.6784 34.5987 16.5944L33.9191 16.2546C33.7765 16.1836 33.6035 16.2208 33.5028 16.3449C33.4026 16.4691 33.402 16.6462 33.5018 16.771C33.5202 16.7939 34.3569 17.8427 35.3578 19.1964C35.5314 21.4416 35.647 23.7772 35.4838 24.2669C35.4539 24.3564 35.4017 24.462 35.3528 24.4657C35.1474 24.4942 34.6572 24.0351 34.411 23.5429C34.2691 23.2595 34.065 23.23 33.9558 23.2349C33.5906 23.2574 33.4481 23.6593 33.1891 24.3888C33.0035 24.9114 32.7728 25.5612 32.5138 25.827C32.3735 25.6556 32.1921 25.0803 32.0913 24.4892C32.1386 24.6198 32.2609 24.7144 32.408 24.7144C32.5957 24.7144 32.7478 24.5624 32.7478 24.3745C32.7478 23.8677 32.3934 20.0082 32.1955 17.8931C32.3608 17.8267 32.4477 17.6419 32.3906 17.4706L32.0508 16.4511C31.9962 16.2872 31.8285 16.1905 31.658 16.2261C31.4889 16.2619 31.3736 16.4189 31.39 16.5908C31.621 19.015 32.054 23.6975 32.0675 24.3437C32.0666 24.3379 32.0654 24.3322 32.0646 24.3264C32.0383 24.1405 31.8648 24.0131 31.6802 24.038C31.4943 24.0648 31.3654 24.2368 31.3919 24.4226C31.4911 25.1172 31.7447 26.3114 32.3287 26.5059C32.3748 26.5216 32.4369 26.5354 32.5097 26.5354C32.6437 26.5354 32.8138 26.488 32.988 26.3138C33.3581 25.9437 33.6086 25.2382 33.8296 24.616C33.8795 24.4753 33.9386 24.3087 33.9943 24.166C34.306 24.6213 34.85 25.1881 35.401 25.1437C35.5948 25.1299 35.9472 25.0257 36.1285 24.482C36.3091 23.9399 36.2378 22.0494 36.116 20.2395C36.4023 20.6407 36.6888 21.0517 36.9623 21.4574C37.0683 22.4751 37.1441 23.4946 37.1441 24.332C37.1446 24.5194 37.2967 24.6715 37.4843 24.6715Z" fill="#F5F5F5"/>
<path d="M40.0632 22.8839C39.8225 21.0905 39.4871 19.0131 39.2747 17.7381C39.3706 17.7617 39.4751 17.7424 39.5594 17.6776C39.7087 17.5638 39.7373 17.3504 39.6233 17.2014L39.0074 16.3943C38.9124 16.2702 38.7447 16.2264 38.6013 16.2891C38.4577 16.3518 38.3757 16.5046 38.4024 16.6589C38.4086 16.6936 39.0145 20.1821 39.3893 22.9741C39.5325 24.041 39.3235 24.9945 38.8299 25.5241C38.5126 25.8643 38.0922 26.0182 37.5834 25.9886C37.3966 25.9787 37.2346 26.1193 37.2228 26.3065C37.2111 26.4937 37.3532 26.655 37.5406 26.6669C37.598 26.6706 37.6546 26.6721 37.7106 26.6721C38.3515 26.6721 38.9076 26.4373 39.3269 25.9872C39.9675 25.3005 40.2358 24.1691 40.0632 22.8839Z" fill="#F5F5F5"/>
<path d="M36.3247 25.1237C36.1998 25.2595 36.2093 25.4731 36.3415 25.6014C36.3599 25.6192 36.382 25.6545 36.3821 25.6718C36.3823 25.6814 36.3685 25.71 36.3307 25.7478C36.198 25.8805 36.198 26.0955 36.3307 26.2282C36.3971 26.2946 36.4841 26.3278 36.5711 26.3278C36.658 26.3278 36.745 26.2946 36.8114 26.2282C37.0269 26.0128 37.0665 25.7941 37.0616 25.6484C37.0511 25.3349 36.8376 25.1324 36.795 25.0949C36.656 24.9741 36.4495 24.9887 36.3247 25.1237Z" fill="#F5F5F5"/>
<path d="M35.1268 32.5762H34.7869H32.7481V32.2363C32.7481 32.0485 32.5959 31.8965 32.4082 31.8965C32.2205 31.8965 32.0684 32.0484 32.0684 32.2363V32.5762H14.0579C14.7374 33.2558 16.0967 33.5957 17.1163 33.5957C17.8474 33.5957 26.9677 33.5957 32.0684 33.5957V34.2753C32.0684 34.4631 32.2205 34.6151 32.4082 34.6151H35.1268C35.689 34.6151 36.1463 34.1578 36.1463 33.5956C36.1463 33.0334 35.689 32.5762 35.1268 32.5762ZM35.1268 33.9354H32.748V33.5956C34.3857 33.5956 35.4665 33.5956 35.4665 33.5956L35.4055 33.4127C35.4408 33.4662 35.4665 33.5267 35.4665 33.5956C35.4665 33.7832 35.3141 33.9354 35.1268 33.9354Z" fill="#F5F5F5"/>
</g>
<defs>
<clipPath id="clip0_106_17780">
<rect width="50" height="50" fill="white"/>
</clipPath>
</defs>
</svg>
