<svg width="50" height="50" viewBox="0 0 50 50" fill="none" xmlns="http://www.w3.org/2000/svg">
<g clip-path="url(#clip0_106_17777)">
<path d="M49.1378 8.62061H0.862108C0.386034 8.62061 0 9.00654 0 9.48262V40.517C0 40.9931 0.386034 41.3791 0.862108 41.3791H49.1379C49.614 41.3791 50 40.9931 50 40.517V9.48262C49.9999 9.00654 49.6139 8.62061 49.1378 8.62061Z" fill="#4173CD"/>
<path d="M49.9999 9.48271C49.9999 9.00664 49.6139 8.62061 49.1378 8.62061H45.2803L25 21.9079L4.71962 8.6207H0.862108C0.386034 8.6207 0 9.00664 0 9.48271V11.7128L20.2803 25L0 38.2872V40.5172C0 40.9933 0.386034 41.3793 0.862108 41.3793H4.71962L25 28.0921L45.2803 41.3792H49.1378C49.6139 41.3792 49.9999 40.9932 49.9999 40.5171V38.2871L29.7196 25L49.9999 11.7128V9.48271Z" fill="#F5F5F5"/>
</g>
<defs>
<clipPath id="clip0_106_17777">
<rect width="50" height="50" fill="white"/>
</clipPath>
</defs>
</svg>
