<svg width="50" height="50" viewBox="0 0 50 50" fill="none" xmlns="http://www.w3.org/2000/svg">
<g clip-path="url(#clip0_106_17772)">
<path d="M16.6679 41.3788H0.86333C0.387256 41.3788 0.0012207 40.9928 0.0012207 40.5167V9.48223C0.0012207 9.00615 0.387256 8.62012 0.86333 8.62012H16.6679V41.3788Z" fill="#73AF00"/>
<path d="M33.335 8.62061H16.668V41.3794H33.335V8.62061Z" fill="#FFE15A"/>
<path d="M49.1388 41.3792H33.3342V8.62061H49.1388C49.6149 8.62061 50.0009 9.00664 50.0009 9.48271V40.5172C50.0009 40.9934 49.6149 41.3792 49.1388 41.3792Z" fill="#FF4B55"/>
<path d="M25.2002 20.0953L26.3421 23.5193L29.9514 23.5474C30.1532 23.549 30.2369 23.8065 30.0745 23.9264L27.171 26.0704L28.2597 29.5117C28.3205 29.7042 28.1015 29.8634 27.9372 29.746L25.001 27.6471L22.0646 29.7459C21.9003 29.8633 21.6813 29.7041 21.7421 29.5116L22.8308 26.0703L19.9272 23.9263C19.7648 23.8063 19.8485 23.5488 20.0504 23.5473L23.6597 23.5192L24.8016 20.0952C24.8655 19.9038 25.1364 19.9038 25.2002 20.0953Z" fill="#73AF00"/>
</g>
<defs>
<clipPath id="clip0_106_17772">
<rect width="50" height="50" fill="white"/>
</clipPath>
</defs>
</svg>
