<svg width="50" height="50" viewBox="0 0 50 50" fill="none" xmlns="http://www.w3.org/2000/svg">
<g clip-path="url(#clip0_106_17731)">
<path d="M0.000244141 30.46H50.0001V40.5174C50.0001 40.9934 49.6141 41.3795 49.138 41.3795H0.862352C0.386279 41.3795 0.000244141 40.9934 0.000244141 40.5174V30.46Z" fill="#F5F5F5"/>
<path d="M0.862352 8.62061H49.1381C49.6142 8.62061 50.0002 9.00664 50.0002 9.48271V19.5401H0.000244141V9.48262C0.000244141 9.00654 0.386279 8.62061 0.862352 8.62061Z" fill="#FF4B55"/>
<path d="M50.0001 19.54H0.000244141V30.459H50.0001V19.54Z" fill="#41479B"/>
<path d="M16.8969 19.5381H10.69L10.4314 17.9863H17.1555L16.8969 19.5381Z" fill="#FFE15A"/>
<path d="M10.625 19.1499L10.6896 19.5379H16.8966L16.9612 19.1499H10.625Z" fill="#FFD350"/>
<path d="M13.9225 14.3652H13.6646V15.3997H13.9225V14.3652Z" fill="#FFE15A"/>
<path d="M14.1816 14.624H13.4058V14.8826H14.1816V14.624Z" fill="#FFE15A"/>
<path d="M16.9173 18.5035C16.888 18.5035 16.8583 18.4984 16.8291 18.4881C16.6948 18.4393 16.6254 18.2911 16.6741 18.1567L17.222 16.6449C17.2491 16.5699 17.2427 16.4874 17.2044 16.4185C17.184 16.3818 17.1365 16.3174 17.0458 16.2979C16.3779 16.1561 15.0833 15.9174 13.9185 15.9174H13.6687C12.504 15.9174 11.2094 16.1561 10.5412 16.2982C10.4508 16.3174 10.4031 16.3818 10.3828 16.4185C10.3445 16.4874 10.3381 16.5699 10.3653 16.6449L10.913 18.1567C10.9617 18.2911 10.8923 18.4393 10.758 18.4881C10.6238 18.536 10.4753 18.4671 10.4268 18.333L9.87891 16.8212C9.80078 16.6055 9.81943 16.3673 9.93027 16.1675C10.0374 15.9743 10.2206 15.8374 10.4331 15.7922C11.1213 15.6457 12.4563 15.3999 13.6685 15.3999H13.9184C15.1306 15.3999 16.4656 15.6456 17.1535 15.7918C17.3663 15.8373 17.5495 15.9741 17.6566 16.1674C17.7675 16.3672 17.7861 16.6053 17.7081 16.8211L17.1601 18.3329C17.1223 18.4382 17.0229 18.5035 16.9173 18.5035Z" fill="#FFE15A"/>
<path d="M13.7947 18.2771C13.652 18.2771 13.5361 18.1615 13.5361 18.0186V15.9173C13.5361 15.7743 13.652 15.6587 13.7947 15.6587C13.9375 15.6587 14.0533 15.7743 14.0533 15.9173V18.0186C14.0534 18.1614 13.9376 18.2771 13.7947 18.2771Z" fill="#FFE15A"/>
<path d="M15.5824 18.5034C15.5649 18.5034 15.5472 18.5017 15.5296 18.4981C15.3897 18.469 15.2998 18.3322 15.3289 18.1923L15.6425 16.6805C15.6834 16.4835 15.6195 16.3109 15.5832 16.2807C15.2246 16.1491 14.5051 15.9172 13.865 15.9172H13.7219C13.0819 15.9172 12.3625 16.1491 11.9905 16.2874C11.9676 16.3109 11.9037 16.4834 11.9444 16.6804L12.2581 18.1922C12.2872 18.332 12.1973 18.469 12.0574 18.498C11.9174 18.5251 11.7804 18.4372 11.7517 18.2973L11.4381 16.7854C11.3599 16.4086 11.4799 15.926 11.8099 15.8027C12.3044 15.6189 13.037 15.3999 13.7218 15.3999H13.8649C14.5499 15.3999 15.2825 15.6188 15.7766 15.8024C16.107 15.926 16.2269 16.4086 16.1488 16.7854L15.8351 18.2973C15.8099 18.4196 15.7023 18.5034 15.5824 18.5034Z" fill="#FFE15A"/>
<path d="M10.496 18.3742H17.0909L17.1555 17.9863H10.4314L10.496 18.3742Z" fill="#FFD350"/>
<path d="M8.8792 19.5381C8.73643 19.5381 8.62061 19.6539 8.62061 19.7967V28.8285C8.62061 31.6962 10.9363 34.0209 13.7931 34.0209C16.6498 34.0209 18.9655 31.6962 18.9655 28.8285V19.7967C18.9655 19.6539 18.8497 19.5381 18.7069 19.5381H8.8792Z" fill="#FF4B55"/>
<path d="M14.3108 28.0728L14.8281 26.7798L13.7936 27.0384L12.7592 26.7798L13.2765 28.0728L11.9834 32.4694C11.9834 32.4694 12.7593 32.9867 13.7937 32.9867C14.8282 32.9867 15.6041 32.4694 15.6041 32.4694L14.3108 28.0728Z" fill="#F5F5F5"/>
<path d="M11.9205 29.1145L11.4642 29.2287L12.468 27.422L12.0158 27.1709L10.7966 29.3654H9.65566V29.8827H10.2113L9.49414 30.4564L9.81719 30.8605L10.4265 30.373L10.1861 31.0939L10.6769 31.2575L11.1492 29.8404L12.046 29.6162L11.9205 29.1145Z" fill="#FFE15A"/>
<path d="M11.983 22.1243L10.8024 21.534C10.5856 21.4256 10.4731 21.1811 10.5319 20.9459L10.5987 20.6788C10.645 20.4935 10.5049 20.314 10.3138 20.314C10.2245 20.314 10.1401 20.3545 10.0845 20.4242C9.47187 21.1899 9.13818 22.1413 9.13818 23.122V28.5898C9.13818 28.5898 10.2182 28.3739 11.1936 26.9549C11.3728 26.6943 11.6676 26.5401 11.9819 26.524L11.4657 28.0725L12.5003 28.3312L13.4055 27.2541L11.983 22.1243Z" fill="#F5F5F5"/>
<path d="M15.6664 29.1145L16.1227 29.2287L15.1189 27.422L15.571 27.1709L16.7902 29.3654H17.9312V29.8827H17.3754L18.0927 30.4564L17.7697 30.8605L17.1604 30.373L17.4007 31.0939L16.9099 31.2575L16.4376 29.8404L15.5409 29.6162L15.6664 29.1145Z" fill="#FFE15A"/>
<path d="M15.6033 22.1243L16.7838 21.534C17.0006 21.4256 17.1131 21.1811 17.0543 20.9459L16.9875 20.6788C16.9413 20.4935 17.0814 20.314 17.2725 20.314C17.3618 20.314 17.4461 20.3545 17.5018 20.4242C18.1144 21.1899 18.4481 22.1413 18.4481 23.122V28.5898C18.4481 28.5898 17.3681 28.3739 16.3926 26.9549C16.2135 26.6943 15.9187 26.5401 15.6043 26.524L16.1206 28.0725L15.0861 28.3311L14.1809 27.254L15.6033 22.1243Z" fill="#F5F5F5"/>
<path d="M12.2426 20.314H10.9495L11.3375 20.8312L12.2426 21.0898L11.7253 21.3484H12.5012L12.2426 20.314Z" fill="#FFE15A"/>
<path d="M15.3458 20.314H16.6388L16.2509 20.8312L15.3458 21.0898L15.863 21.3484H15.0872L15.3458 20.314Z" fill="#FFE15A"/>
<path d="M15.527 20.1109L14.3104 20.3136L13.7931 21.3481L13.2759 20.3136L12.0593 20.1109C11.9198 20.0877 11.8128 20.2325 11.8761 20.3589L12.5001 21.6068L11.9828 22.1241H13.7931H15.6035L15.0862 21.6068L15.7101 20.3589C15.7734 20.2324 15.6665 20.0876 15.527 20.1109Z" fill="#F5F5F5"/>
<path d="M13.7932 18.4877C14.0074 18.4877 14.1811 18.314 14.1811 18.0998C14.1811 17.8856 14.0074 17.7119 13.7932 17.7119C13.5789 17.7119 13.4053 17.8856 13.4053 18.0998C13.4053 18.314 13.5789 18.4877 13.7932 18.4877Z" fill="#FFBE50"/>
<path d="M13.7882 19.2411C13.9575 19.2411 14.0948 19.1446 14.0948 19.0256C14.0948 18.9066 13.9575 18.8101 13.7882 18.8101C13.6189 18.8101 13.4817 18.9066 13.4817 19.0256C13.4817 19.1446 13.6189 19.2411 13.7882 19.2411Z" fill="#41479B"/>
<path d="M12.2582 19.2411C12.4275 19.2411 12.5647 19.1446 12.5647 19.0256C12.5647 18.9066 12.4275 18.8101 12.2582 18.8101C12.0889 18.8101 11.9517 18.9066 11.9517 19.0256C11.9517 19.1446 12.0889 19.2411 12.2582 19.2411Z" fill="#FF4B55"/>
<path d="M10.7279 19.2411C10.8972 19.2411 11.0345 19.1446 11.0345 19.0256C11.0345 18.9066 10.8972 18.8101 10.7279 18.8101C10.5586 18.8101 10.4214 18.9066 10.4214 19.0256C10.4214 19.1446 10.5586 19.2411 10.7279 19.2411Z" fill="#41479B"/>
<path d="M16.8488 19.2411C17.0181 19.2411 17.1553 19.1446 17.1553 19.0256C17.1553 18.9066 17.0181 18.8101 16.8488 18.8101C16.6795 18.8101 16.5422 18.9066 16.5422 19.0256C16.5422 19.1446 16.6795 19.2411 16.8488 19.2411Z" fill="#41479B"/>
<path d="M15.3178 19.2411C15.4871 19.2411 15.6243 19.1446 15.6243 19.0256C15.6243 18.9066 15.4871 18.8101 15.3178 18.8101C15.1485 18.8101 15.0112 18.9066 15.0112 19.0256C15.0112 19.1446 15.1485 19.2411 15.3178 19.2411Z" fill="#FF4B55"/>
<path d="M15.5896 18.4877C15.8038 18.4877 15.9774 18.314 15.9774 18.0998C15.9774 17.8856 15.8038 17.7119 15.5896 17.7119C15.3753 17.7119 15.2017 17.8856 15.2017 18.0998C15.2017 18.314 15.3753 18.4877 15.5896 18.4877Z" fill="#FFBE50"/>
<path d="M17.0075 18.4877C17.2217 18.4877 17.3954 18.314 17.3954 18.0998C17.3954 17.8856 17.2217 17.7119 17.0075 17.7119C16.7933 17.7119 16.6196 17.8856 16.6196 18.0998C16.6196 18.314 16.7933 18.4877 17.0075 18.4877Z" fill="#FFBE50"/>
<path d="M11.9968 18.4877C12.211 18.4877 12.3847 18.314 12.3847 18.0998C12.3847 17.8856 12.211 17.7119 11.9968 17.7119C11.7826 17.7119 11.6089 17.8856 11.6089 18.0998C11.6089 18.314 11.7826 18.4877 11.9968 18.4877Z" fill="#FFBE50"/>
<path d="M10.5778 18.4877C10.7921 18.4877 10.9657 18.314 10.9657 18.0998C10.9657 17.8856 10.7921 17.7119 10.5778 17.7119C10.3636 17.7119 10.1899 17.8856 10.1899 18.0998C10.1899 18.314 10.3636 18.4877 10.5778 18.4877Z" fill="#FFBE50"/>
<path d="M14.2387 15.9175C14.2831 15.8412 14.3104 15.7536 14.3104 15.6589C14.3104 15.3732 14.0789 15.1416 13.7932 15.1416C13.5074 15.1416 13.2759 15.3731 13.2759 15.6589C13.2759 15.7536 13.3031 15.8412 13.3477 15.9175H14.2387Z" fill="#41479B"/>
<path d="M13.7929 27.4262C12.7233 27.4262 11.8533 26.5561 11.8533 25.4865V21.9951H15.7326V25.4865C15.7326 26.5562 14.8625 27.4262 13.7929 27.4262Z" fill="#FF4B55"/>
<path d="M15.6038 22.1243V25.4864C15.6038 26.4862 14.7933 27.2968 13.7935 27.2968C12.7937 27.2968 11.9831 26.4862 11.9831 25.4864V22.1243H15.6038ZM15.8625 21.8657H15.6039H11.9832H11.7246V22.1243V25.4864C11.7246 26.6272 12.6527 27.5554 13.7936 27.5554C14.9344 27.5554 15.8625 26.6272 15.8625 25.4864V22.1243V21.8657Z" fill="#A54B50"/>
<path d="M13.4063 27.2538C13.5314 27.2811 13.6609 27.2965 13.7942 27.2965C13.9275 27.2965 14.057 27.281 14.1821 27.2538V22.124H13.4062C13.4063 22.124 13.4063 27.2538 13.4063 27.2538Z" fill="#F5F5F5"/>
<path d="M15.6047 24.2578H11.9836V25.0337H15.6047V24.2578Z" fill="#F5F5F5"/>
</g>
<defs>
<clipPath id="clip0_106_17731">
<rect width="50" height="50" fill="white"/>
</clipPath>
</defs>
</svg>
