<svg width="50" height="50" viewBox="0 0 50 50" fill="none" xmlns="http://www.w3.org/2000/svg">
<g clip-path="url(#clip0_106_17725)">
<path d="M0.863329 41.3795H49.1391C49.6152 41.3795 50.0012 40.9934 50.0012 40.5174V30.46L0.474854 41.276C0.59292 41.3369 0.72124 41.3795 0.863329 41.3795Z" fill="#73AF00"/>
<path d="M16.6679 8.62061H0.863329C0.387255 8.62061 0.0012207 9.00664 0.0012207 9.48271V40.517C0.0012207 40.7096 0.0763182 40.8783 0.183056 41.0218L16.6679 8.62061Z" fill="#41479B"/>
<path d="M0.256445 41.1285L33.3345 8.62061H16.6679L0.183105 41.0217C0.208887 41.0565 0.225684 41.0979 0.256445 41.1285Z" fill="#FFE15A"/>
<path d="M49.139 8.62061H33.3344L0.256348 41.1286C0.292187 41.1641 0.340137 41.1841 0.381738 41.213L50.0011 19.5401V9.48271C50.0011 9.00664 49.615 8.62061 49.139 8.62061Z" fill="#FF4B55"/>
<path d="M0.475 41.2755L50.0012 30.4595V19.54L0.381836 41.2129C0.412793 41.2343 0.441308 41.2584 0.475 41.2755Z" fill="#F5F5F5"/>
</g>
<defs>
<clipPath id="clip0_106_17725">
<rect width="50" height="50" fill="white"/>
</clipPath>
</defs>
</svg>
