<svg width="50" height="50" viewBox="0 0 50 50" fill="none" xmlns="http://www.w3.org/2000/svg">
<g clip-path="url(#clip0_106_17667)">
<path d="M49.1383 41.3792H0.862596C0.386523 41.3792 0.000488281 40.9932 0.000488281 40.5171V9.48271C0.000488281 9.00664 0.386523 8.62061 0.862596 8.62061H49.1384C49.6145 8.62061 50.0005 9.00664 50.0005 9.48271V40.5171C50.0004 40.9933 49.6144 41.3792 49.1383 41.3792Z" fill="#FFE15A"/>
<path d="M49.1376 8.62061H0.861913C0.652343 8.62061 0.467285 8.70459 0.317871 8.829L49.6817 41.1708C49.8717 41.0127 49.9997 40.7836 49.9997 40.5171V9.48262C49.9997 9.00654 49.6137 8.62061 49.1376 8.62061Z" fill="#FF4B55"/>
<path d="M26.6434 22.6907C26.7398 22.6132 26.8196 22.5172 26.7894 22.4364C26.7642 22.3694 26.6396 22.3072 26.5078 22.2414C26.2631 22.1191 25.9362 21.9514 25.8277 21.5496C25.8148 21.5483 25.8028 21.5495 25.7895 21.5471C25.682 21.5272 25.615 21.5641 25.5373 21.8165C25.523 21.8625 25.4928 21.9364 25.4526 22.021C25.5331 22.0743 25.7341 22.1982 25.9299 22.2428C26.3178 22.3307 26.5566 22.4806 26.6434 22.6907Z" fill="#FFBE55"/>
<path d="M25.1382 22.5198C25.254 22.6255 25.3603 22.7454 25.4649 22.8793C25.471 22.887 25.4774 22.8947 25.4836 22.9023C25.7435 22.7031 26.0736 22.702 26.3036 22.7395C26.2369 22.6704 26.107 22.6026 25.8609 22.5466C25.6327 22.4948 25.4116 22.3656 25.3023 22.2954C25.2517 22.3764 25.1965 22.4532 25.1382 22.5198Z" fill="#FFBE55"/>
<path d="M26.4546 23.6636C26.5763 23.734 26.8209 23.8924 27.0327 24.1209C27.064 23.9451 27.0547 23.7117 26.8896 23.5063C26.7484 23.5844 26.5975 23.6338 26.4546 23.6636Z" fill="#FFBE55"/>
<path d="M24.4293 21.6097L24.3885 21.6593C24.1853 21.9079 23.9547 22.1788 23.7344 22.3997C23.8685 22.3364 24.0265 22.2901 24.1903 22.2654C24.2489 22.1715 24.4274 21.9226 24.6468 21.6227C24.5938 21.589 24.4889 21.5376 24.4293 21.6097Z" fill="#FFBE55"/>
<path d="M23.6328 22.869C23.6338 22.8707 23.6477 22.8877 23.6865 22.9023C23.754 22.9283 23.8791 22.9373 24.0096 22.8771C24.3895 22.7004 24.773 22.7971 25.1501 23.1619C25.1512 23.163 25.1508 23.1647 25.1519 23.1658C25.1529 23.1669 25.1547 23.1666 25.1557 23.1677C25.1579 23.1698 25.2848 23.2972 25.5136 23.4138C25.4036 23.2982 25.3049 23.1805 25.2195 23.0713C25.0828 22.8966 24.9645 22.7459 24.8238 22.656C24.4667 22.4293 23.8446 22.628 23.6687 22.8137C23.6396 22.8442 23.6328 22.8642 23.6328 22.869Z" fill="#FFBE55"/>
<path d="M26.5863 23.0946C26.5863 23.0946 26.5854 23.0947 26.5852 23.0949C26.5655 23.1041 26.5442 23.1086 26.5223 23.1091C26.5213 23.1091 26.5203 23.1098 26.5193 23.1098C26.5171 23.1098 26.5151 23.1077 26.5128 23.1076C26.4969 23.1069 26.4807 23.1059 26.4648 23.1001C26.4596 23.0981 25.9771 22.9282 25.6826 23.1415C25.765 23.2342 25.8584 23.3197 25.9626 23.3978C26.1073 23.4011 26.6085 23.3925 26.8939 23.1258C27.0381 22.9912 27.0503 22.8441 27.0261 22.7285C26.9195 22.8952 26.731 23.0258 26.5863 23.0946Z" fill="#FFBE55"/>
<path d="M22.1867 22.9359C22.1624 22.9007 22.1358 22.8701 22.115 22.8284C22.0807 22.7598 22.0627 22.6869 22.0445 22.6143C21.9339 22.7916 21.8175 23.0676 21.8883 23.373C21.9716 23.1755 22.0974 23.0253 22.1867 22.9359Z" fill="#FFBE55"/>
<path d="M24.8812 22.3413C25.0217 22.1946 25.1945 21.869 25.239 21.7246C25.2816 21.5852 25.4116 21.1614 25.845 21.2399C25.9415 21.2578 26.013 21.1964 26.0566 21.1423C25.9513 21.0221 25.8135 20.9441 25.6938 20.9413C25.6045 20.9328 25.5019 20.9896 25.4224 21.0964C25.0325 21.6217 24.7358 22.0276 24.5752 22.2539C24.6832 22.2664 24.7851 22.2979 24.8812 22.3413Z" fill="#FFBE55"/>
<path d="M23.8747 21.3959C23.633 21.7186 23.379 21.9005 23.1938 22.0334C22.9496 22.2085 22.8893 22.2679 22.9039 22.4036C22.9069 22.4311 22.9188 22.4515 22.9434 22.471C22.9758 22.4968 23.0226 22.5152 23.0757 22.5287C23.0789 22.5271 23.081 22.5244 23.0844 22.5229C23.3759 22.4042 23.9564 21.6949 24.1475 21.4617L24.1888 21.4113C24.391 21.1665 24.6759 21.2645 24.8316 21.3707C24.8854 21.2978 24.9396 21.2243 24.9938 21.151C24.7122 20.8115 24.2468 20.9001 23.8747 21.3959Z" fill="#FFBE55"/>
<path d="M26.3329 21.2915C26.2869 21.3579 26.221 21.427 26.1367 21.4787C26.2143 21.7361 26.4308 21.8543 26.6472 21.9621C26.7756 22.0261 26.8965 22.09 26.9837 22.1805C27.0567 21.9189 27.0473 21.7108 26.9462 21.5663C26.7979 21.3543 26.4825 21.3027 26.3329 21.2915Z" fill="#FFBE55"/>
<path d="M25.1932 30.643L25.2272 30.6815C25.6563 31.1699 26.0615 31.6417 26.3315 32.039C26.3234 31.8244 26.3087 31.6022 26.2828 31.4478C26.2819 31.443 26.2815 31.4377 26.2812 31.4327C26.1435 31.2548 25.9951 31.089 25.8387 30.9487C25.3814 30.54 25.1235 30.13 24.9793 29.814C24.9548 30.0858 24.9858 30.4073 25.1932 30.643Z" fill="#FFBE55"/>
<path d="M24.9739 29.0664C24.9374 29.0021 24.9042 28.933 24.8771 28.856C24.8769 28.8553 24.8771 28.8547 24.8768 28.854C24.8746 28.8531 24.8724 28.8522 24.87 28.8516C24.7766 29.0135 24.6054 29.1251 24.4224 29.1255C24.4224 29.1255 24.4217 29.1255 24.4215 29.1255C24.4073 29.1255 24.3947 29.12 24.381 29.1188C24.3571 29.2241 24.3494 29.3431 24.416 29.4066C24.491 29.4789 24.6434 29.4779 24.723 29.4576C24.7617 29.2928 24.8045 29.176 24.81 29.1625C24.8364 29.0967 24.9028 29.0583 24.9739 29.0664Z" fill="#FFBE55"/>
<path d="M24.6683 29.7791C24.6518 29.7802 24.6367 29.7829 24.6195 29.7829C24.573 29.7829 24.5247 29.7767 24.4762 29.7671C24.4476 29.8747 24.4376 29.9962 24.509 30.0693C24.5536 30.115 24.6189 30.1327 24.6724 30.136C24.6607 30.0129 24.6579 29.8917 24.6683 29.7791Z" fill="#FFBE55"/>
<path d="M18.8679 22.8325L18.8671 22.8329C18.5538 22.9378 18.1818 22.9121 17.8564 22.8483C18.0462 23.1409 18.1187 23.4936 18.1272 23.8214C18.5359 23.2883 18.9884 23.0441 19.3123 22.9284C19.1457 22.9136 18.9954 22.8827 18.8679 22.8325Z" fill="#FFBE55"/>
<path d="M26.2535 30.5876C26.1828 30.5821 26.0233 30.5619 25.834 30.5044C25.9007 30.5749 25.9674 30.6454 26.0468 30.7165C26.5685 31.1829 26.9927 31.8932 27.2697 32.4408C27.3685 32.0874 27.6007 31.7843 27.8503 31.5543C27.1532 31.5082 26.6079 31.0228 26.2535 30.5876Z" fill="#FFBE55"/>
<path d="M22.7258 24.8793C22.6115 24.8541 22.4831 24.8067 22.3581 24.73C22.2746 24.9957 22.2162 25.2418 22.1841 25.4665C22.3569 25.4506 22.4876 25.4521 22.5766 25.4593C22.6191 25.2209 22.678 25.0168 22.7258 24.8793Z" fill="#FFBE55"/>
<path d="M17.8028 24.1192C17.8402 23.7505 17.8202 23.162 17.4112 22.8084C17.41 22.8082 17.4088 22.8087 17.4073 22.8085C17.3947 22.8068 16.2254 22.6382 15.4449 23.4354C15.1514 23.7353 14.9604 23.9701 14.8072 24.1585C14.5993 24.4145 14.4501 24.5982 14.208 24.7404C14.9404 25.0014 16.716 25.4413 17.8028 24.1192Z" fill="#FFBE55"/>
<path d="M28.667 19.3942C28.9937 19.5696 29.5452 19.7762 30.0277 19.5339C30.0284 19.5327 30.0284 19.5314 30.029 19.5302C30.0352 19.52 30.6378 18.5034 30.2 17.4771C30.0353 17.0911 29.8912 16.825 29.7754 16.6113C29.6187 16.3217 29.5058 16.1132 29.4668 15.835C28.9462 16.4127 27.8605 17.8846 28.667 19.3942Z" fill="#FFBE55"/>
<path d="M28.2205 31.6532C27.9266 31.8788 27.5115 32.2961 27.5341 32.8359C27.5351 32.8373 27.5366 32.838 27.5376 32.8394C27.5442 32.8492 28.2234 33.8162 29.3389 33.8385C29.7596 33.847 30.0606 33.8252 30.3032 33.8073C30.6321 33.783 30.868 33.7663 31.1372 33.8442C30.8245 33.1326 29.9277 31.54 28.2205 31.6532Z" fill="#FFBE55"/>
<path d="M25.7908 29.8887C25.7879 29.8825 25.7904 29.8759 25.7884 29.8696L25.5752 30.0516C25.7147 30.1384 25.8621 30.1915 25.9881 30.2247C25.8625 30.032 25.7934 29.8939 25.7908 29.8887Z" fill="#FFBE55"/>
<path d="M24.9115 27.8087C24.8524 27.8046 24.7937 27.7983 24.7358 27.7881C24.691 27.8604 24.593 28.0661 24.7378 28.3256C24.7917 28.4223 24.8824 28.5434 25.0088 28.573C25.0842 28.5901 25.1707 28.5648 25.2625 28.5158C25.0755 28.2134 24.9629 27.9469 24.9115 27.8087Z" fill="#FFBE55"/>
<path d="M28.1015 22.3205C28.2636 22.1992 28.5592 21.9713 28.9098 21.6716C29.0149 21.0045 29.4041 20.3832 29.7524 19.9411C29.3981 19.9902 29.0349 19.9033 28.7287 19.7725C29.1384 20.8691 28.2514 22.0842 28.085 22.2984C28.0902 22.306 28.0963 22.3127 28.1015 22.3205Z" fill="#FFBE55"/>
<path d="M25.345 29.8381L25.6274 29.5969C25.4438 29.5336 25.2679 29.4302 25.124 29.2729C25.1455 29.3723 25.205 29.5767 25.345 29.8381Z" fill="#FFBE55"/>
<path d="M21.8604 25.5118C21.8961 25.2105 21.9753 24.875 22.0985 24.5088C22.0195 24.4189 21.9503 24.3095 21.8952 24.1787C21.7494 24.516 21.5388 25.068 21.4575 25.6026C21.6056 25.5636 21.7398 25.5336 21.8604 25.5118Z" fill="#FFBE55"/>
<path d="M27.3236 21.7109C27.3591 21.9135 27.336 22.1466 27.2388 22.4163C27.2972 22.5205 27.3466 22.6655 27.3467 22.8231C27.4699 22.7969 27.479 22.7221 27.5172 22.314L27.5334 22.1453C27.5488 21.9904 27.521 21.8723 27.4507 21.7946C27.4144 21.7544 27.3692 21.7298 27.3236 21.7109Z" fill="#FFBE55"/>
<path d="M27.29 24.3772C27.3914 24.3562 27.5199 24.3121 27.6226 24.2174C27.7779 24.074 27.95 23.7701 27.9218 23.6336C27.9184 23.6166 27.9141 23.6056 27.8844 23.595C27.7717 23.5548 27.7377 23.5694 27.7379 23.5699C27.731 23.5751 27.7182 23.6035 27.7106 23.6202C27.6911 23.6633 27.6647 23.7219 27.6058 23.7605C27.5158 23.8191 27.4309 23.8347 27.3525 23.8351C27.3754 24.0526 27.3324 24.2504 27.29 24.3772Z" fill="#FFBE55"/>
<path d="M21.5728 23.0094C21.5943 22.8663 21.6361 22.7327 21.6926 22.6129C21.4088 22.5067 20.7674 22.2996 20.2435 22.3717C19.5034 22.4713 18.9406 22.3884 18.5835 22.2925C18.7545 22.4687 19.0482 22.6521 19.5081 22.633C20.6486 22.6103 21.3025 22.8682 21.5728 23.0094Z" fill="#FFBE55"/>
<path d="M20.1411 22.9648C19.8712 23.1763 19.6722 23.4304 19.5361 23.6473C19.9555 23.4299 20.4938 23.213 20.8498 23.0768C20.658 23.0282 20.4221 22.9881 20.1411 22.9648Z" fill="#FFBE55"/>
<path d="M27.8207 23.2616C27.8688 23.2673 27.9211 23.2778 27.9816 23.2988C27.9791 23.2867 27.9772 23.2761 27.9741 23.2615C27.9551 23.1736 27.9305 23.0521 27.9368 22.8755C27.9367 22.8743 27.936 22.8734 27.936 22.8723C27.936 22.8712 27.9366 22.8702 27.9366 22.869C27.9367 22.8653 27.936 22.8634 27.9363 22.8597C27.9438 22.6958 27.8887 22.5631 27.8165 22.4648C27.7951 22.6757 27.7677 22.835 27.6929 22.947C27.7372 23.0175 27.7895 23.1268 27.8207 23.2616Z" fill="#FFBE55"/>
<path d="M28.2236 22.6182C28.2288 22.641 28.2336 22.6641 28.2371 22.6878C29.1511 22.5638 29.8002 21.6444 30.1745 20.9082C29.379 21.7503 28.4853 22.4263 28.2236 22.6182Z" fill="#FFBE55"/>
<path d="M24.4212 28.8132H24.4214C24.4994 28.8128 24.579 28.7541 24.613 28.6765C24.5592 28.6194 24.5085 28.5555 24.4649 28.4772C24.4357 28.425 24.4166 28.3748 24.3991 28.3252C24.3375 28.3626 24.2693 28.4159 24.2387 28.4845C24.2157 28.5353 24.2167 28.5885 24.2415 28.6519C24.2704 28.7254 24.3249 28.8132 24.4212 28.8132Z" fill="#FFBE55"/>
<path d="M21.1326 25.6979C21.1948 25.1363 21.3995 24.555 21.5613 24.1665C21.4602 24.2436 21.3339 24.3226 21.1778 24.3974C21.1604 24.4361 20.8453 25.142 20.7256 25.841C20.8695 25.7862 21.0054 25.7387 21.1326 25.6979Z" fill="#FFBE55"/>
<path d="M26.6591 30.5826C26.8411 30.6017 27.0098 30.5932 27.1563 30.5725C26.8786 30.4777 26.6018 30.3522 26.375 30.2393C26.4552 30.349 26.5502 30.4673 26.6591 30.5826Z" fill="#FFBE55"/>
<path d="M24.4291 27.7025C23.6785 27.4175 23.0864 26.6098 22.8742 25.5825C22.8118 25.9812 22.8078 26.475 23.0201 26.918C23.2502 27.3982 23.7059 27.7358 24.3596 27.9346C24.3736 27.8418 24.4001 27.7636 24.4291 27.7025Z" fill="#FFBE55"/>
<path d="M28.4224 22.9824C28.4058 22.9859 28.3878 22.9857 28.3711 22.9889C28.5796 23.217 29.4177 24.2314 29.6446 26.0018C29.8006 26.0614 29.9459 26.1226 30.069 26.1848C29.9876 25.4644 29.6615 23.6424 28.4224 22.9824Z" fill="#FFBE55"/>
<path d="M20.3917 25.9752C20.4567 25.4364 20.6462 24.8825 20.7751 24.5542C20.6446 24.5949 20.4994 24.631 20.3397 24.6613C20.0585 25.1326 19.888 25.8394 19.8096 26.2385C20.0167 26.1378 20.2088 26.0522 20.3917 25.9752Z" fill="#FFBE55"/>
<path d="M25.4416 28.7783C25.3635 28.8239 25.2906 28.8535 25.2236 28.8699C25.3977 29.2144 25.7209 29.3318 25.9954 29.3624C25.7735 29.1867 25.5927 28.9824 25.4416 28.7783Z" fill="#FFBE55"/>
<path d="M23.1965 22.9418C23.2351 22.9241 23.283 22.9103 23.3269 22.8946C23.3261 22.8865 23.324 22.879 23.3239 22.8706C23.1412 22.8669 22.9023 22.8373 22.7488 22.7151C22.6593 22.6435 22.6057 22.5477 22.5936 22.4376C22.5573 22.1057 22.7781 21.9472 23.0117 21.7799C23.1069 21.7115 23.215 21.6323 23.3273 21.5318C22.9854 21.5084 22.6788 21.623 22.4885 21.8704C22.3001 22.1151 22.2641 22.4287 22.3941 22.6888C22.5716 23.0447 22.9545 23.0088 23.1965 22.9418Z" fill="#FFBE55"/>
<path d="M22.7744 23.2889C22.6836 23.2784 22.5957 23.2501 22.5107 23.2119C22.4975 23.3902 22.5085 23.6323 22.6241 23.7744C22.627 23.6946 22.6368 23.6137 22.6602 23.5338C22.6825 23.4575 22.7181 23.373 22.7744 23.2889Z" fill="#FFBE55"/>
<path d="M23.9438 23.3959C24.3151 23.4251 24.6001 23.3306 24.7698 23.2507C24.4849 23.0475 24.2778 23.096 24.1407 23.1599C23.9205 23.2624 23.674 23.2559 23.5074 23.1599C23.4459 23.1879 23.3793 23.2156 23.3015 23.2379C23.1273 23.3254 23.0142 23.4496 22.9641 23.6088C22.9482 23.6589 22.9456 23.7085 22.9419 23.7576C22.9451 23.7548 22.9452 23.7499 22.9487 23.7473C23.306 23.4914 23.6405 23.3763 23.9438 23.3959Z" fill="#FFBE55"/>
<path d="M25.6393 27.6953C25.5119 27.7455 25.3803 27.7826 25.2446 27.8009C25.3345 28.0152 25.512 28.38 25.793 28.7224C25.9395 28.4756 25.767 27.9449 25.6393 27.6953Z" fill="#FFBE55"/>
<path d="M22.6763 24.1678C22.345 24.0701 22.2169 23.7661 22.1934 23.4521C22.1221 23.6013 22.0839 23.7877 22.1553 23.9949C22.2991 24.4105 22.613 24.5317 22.7976 24.5702C22.7996 24.5219 22.8018 24.4736 22.8055 24.4256C22.8045 24.4245 22.8031 24.4242 22.8021 24.4231C22.759 24.3756 22.7118 24.2835 22.6763 24.1678Z" fill="#FFBE55"/>
<path d="M21.5668 23.3586C21.5555 23.3537 21.5429 23.3548 21.5326 23.3472C21.5309 23.346 21.4593 23.2983 21.326 23.2378C20.8569 23.4909 20.5936 24.0073 20.4731 24.3149C21.323 24.109 21.5925 23.7224 21.6451 23.632C21.6064 23.5401 21.5803 23.4486 21.5668 23.3586Z" fill="#FFBE55"/>
<path d="M27.0581 26.7878C27.2157 26.4463 27.2497 26.0552 27.1663 25.6221C26.9777 26.4901 26.5167 27.1975 25.9194 27.5574C25.9467 27.6122 25.9769 27.68 26.0083 27.7603C26.2428 27.6577 26.7905 27.367 27.0581 26.7878Z" fill="#FFBE55"/>
<path d="M27.434 23.4994C27.4529 23.4485 27.481 23.3959 27.5222 23.3519C27.5039 23.2547 27.4654 23.173 27.4329 23.1206C27.3866 23.1329 27.3345 23.1419 27.2753 23.1479C27.2712 23.1481 27.2672 23.1484 27.2632 23.1485C27.232 23.2067 27.1906 23.264 27.1372 23.3194C27.1846 23.3795 27.2256 23.4396 27.2556 23.5017C27.2637 23.5061 27.2737 23.5034 27.2812 23.5094C27.2938 23.5185 27.352 23.5531 27.434 23.4994Z" fill="#FFBE55"/>
<path d="M27.8784 24.4012C28.0396 24.8244 28.1401 25.2098 28.1801 25.5498C28.307 25.5829 28.4424 25.6193 28.5829 25.6589C28.5023 25.0597 28.2504 24.4295 28.1014 24.0957C28.0352 24.2146 27.9549 24.3213 27.8784 24.4012Z" fill="#FFBE55"/>
<path d="M27.8531 25.4668C27.8116 25.204 27.7325 24.9119 27.6164 24.5942C27.4843 24.6588 27.3545 24.6863 27.2589 24.6986C27.2591 24.7151 27.2606 24.7313 27.2606 24.7479C27.2606 24.7875 27.2574 24.8261 27.2563 24.8654C27.2602 24.8718 27.2655 24.8766 27.2685 24.8836C27.3363 25.0489 27.388 25.2094 27.429 25.3666C27.4781 25.3775 27.6335 25.4128 27.8531 25.4668Z" fill="#FFBE55"/>
<path d="M28.9089 25.7533C29.0421 25.7935 29.1756 25.8357 29.3057 25.8795C29.1086 24.6166 28.5915 23.7772 28.3029 23.3989C28.3002 23.4598 28.2874 23.5256 28.2508 23.6018C28.2465 23.6108 28.2376 23.615 28.2319 23.6229C28.2333 23.6399 28.2361 23.6568 28.2357 23.6745C28.2473 23.6858 28.2585 23.6976 28.2662 23.7128C28.2886 23.7564 28.8194 24.799 28.9089 25.7533Z" fill="#FFBE55"/>
<path d="M25.0239 27.504C26.0851 27.504 26.9481 26.2676 26.9481 24.7477C26.9481 24.6644 26.9454 24.5822 26.9404 24.5007C26.7342 24.1906 26.3736 23.9745 26.2668 23.9152C25.6307 23.9038 25.2061 23.6206 25.0251 23.4707C24.8451 23.5751 24.4546 23.7458 23.9201 23.7071C23.7035 23.6934 23.4554 23.7782 23.1786 23.9667C23.1263 24.2198 23.0996 24.4819 23.0996 24.7477C23.0996 26.2676 23.9629 27.504 25.0239 27.504Z" fill="#FFD7AA"/>
<path d="M17.4932 29.4512C17.5216 29.4435 17.8079 29.3658 18.2269 29.3313C20.1676 28.8939 22.4464 27.5018 22.8572 27.2442C22.8168 27.1801 22.7706 27.1199 22.7376 27.0508C22.5334 26.6236 22.5008 26.1676 22.5349 25.7699C22.2425 25.7513 21.3508 25.793 19.6735 26.6546C19.6509 26.666 19.6266 26.6716 19.6022 26.6716C19.5703 26.6716 19.5386 26.6619 19.5118 26.6427C19.4642 26.609 19.4395 26.5513 19.4478 26.4936C19.4527 26.459 19.5321 25.9163 19.7133 25.3394C18.7495 25.5414 16.7148 27.5949 15.5947 28.7266C15.3831 28.9407 15.1924 29.1332 15.0311 29.2922C15.0088 29.3142 14.9852 29.3349 14.9614 29.356C14.8198 29.481 14.6736 29.6102 14.7771 30.3554C14.8726 31.0432 15.7673 31.1136 16.4331 31.118H16.4818C16.6913 31.118 17.1956 31.2923 18.0694 31.6006C18.9177 31.9 19.8793 32.2392 20.5019 32.3558C20.7997 32.4111 21.0792 32.4611 21.337 32.507C22.124 32.6476 22.6926 32.7487 22.9903 32.8719C23.3515 33.0215 23.7498 33.7596 24.095 34.4397L24.1614 34.5693C24.3647 34.9618 24.403 35.453 24.2607 35.8508C24.1916 36.0446 24.2409 36.1462 24.2656 36.181C24.2897 36.2152 24.3179 36.2273 24.3349 36.2273C24.4152 36.2273 24.4731 36.2273 24.5372 36.0242C24.6183 35.7679 24.6386 35.743 24.9795 35.3306L25.0727 35.2181C25.4241 34.792 25.072 33.9176 24.9029 33.4971L24.879 33.4381C24.7588 33.1374 24.8653 32.8217 24.9683 32.5166C25.0383 32.309 25.1108 32.0944 25.1108 31.8892C25.1108 31.8445 25.0989 31.8144 25.0705 31.7876C24.9068 31.6324 24.3516 31.662 23.9458 31.6827C23.7962 31.6908 23.6545 31.6981 23.533 31.6981C22.9049 31.6981 21.897 31.0704 20.4313 30.1124C19.7045 29.6383 18.843 29.5972 18.2583 29.6439C18.0163 29.6968 17.7785 29.7353 17.5492 29.7561C17.4702 29.7631 17.3961 29.7086 17.3816 29.629C17.3671 29.5504 17.4154 29.4726 17.4932 29.4512Z" fill="#FFD7AA"/>
<path d="M35.421 19.2046C35.1573 19.2603 35.1256 19.2542 34.5951 19.1575L34.4554 19.1323C33.9103 19.032 33.3218 19.7698 33.0383 20.1229L32.9983 20.1725C32.795 20.4244 32.468 20.4857 32.1517 20.5454C31.9362 20.586 31.7134 20.6278 31.5344 20.7286C31.4956 20.7502 31.4751 20.7757 31.4655 20.8136C31.4102 21.0317 31.7076 21.5019 31.9249 21.8451C32.005 21.9715 32.0808 22.0918 32.1402 22.1974C32.4476 22.7446 32.3934 23.931 32.2756 25.6785C32.2142 26.5907 32.646 27.3975 32.9823 27.8786C33.118 28.0317 33.249 28.1934 33.3727 28.3629C33.4209 28.4287 33.4101 28.5205 33.3481 28.5733C33.2862 28.6269 33.1937 28.6224 33.1363 28.5648C33.1171 28.5453 32.9385 28.3634 32.726 28.061C31.8729 27.1109 30.8256 26.4828 30.3899 26.2445C30.4013 26.3685 30.4057 26.4529 30.4063 26.4707C30.4088 26.5317 30.3753 26.5882 30.321 26.6157C30.2987 26.6267 30.2744 26.6324 30.2505 26.6324C30.216 26.6324 30.1816 26.621 30.1534 26.5987C29.7398 26.2694 28.22 25.8691 27.4986 25.7018C27.5622 26.1471 27.5098 26.5553 27.3399 26.9213C27.1656 27.2969 26.8974 27.5611 26.645 27.7471C27.9683 29.382 31.1018 30.0805 32.9886 30.4992C33.4743 30.6068 33.894 30.7 34.2025 30.7892C34.2328 30.7982 34.2625 30.8083 34.2923 30.8188C34.4708 30.881 34.6547 30.9456 35.2545 30.4901C35.8077 30.07 35.4363 29.2517 35.1086 28.6727L35.0848 28.6305C34.9824 28.448 34.8875 27.9227 34.7288 27.01C34.5746 26.1235 34.3999 25.1186 34.1966 24.5185C34.0988 24.2305 34.0052 23.9611 33.9186 23.7129C33.6565 22.9597 33.467 22.4151 33.4289 22.0962C33.3826 21.7081 33.8308 21 34.2546 20.3666L34.336 20.2439C34.5792 19.8741 34.9888 19.6007 35.405 19.53C35.6075 19.4955 35.6721 19.4024 35.6904 19.3643C35.7083 19.3265 35.7053 19.2961 35.6971 19.2814C35.6578 19.2119 35.6296 19.1603 35.421 19.2046Z" fill="#FFD7AA"/>
<path d="M15.0999 19.099C15.2817 19.2978 15.2928 19.3279 15.4802 19.83L15.5309 19.9656C15.7248 20.4836 16.6589 20.6153 17.1076 20.6782L17.1698 20.6872C17.4902 20.7331 17.7102 20.9826 17.923 21.2244C18.068 21.389 18.2179 21.5588 18.3958 21.6611C18.4347 21.6834 18.4671 21.6884 18.5041 21.677C18.7203 21.6132 18.9721 21.1175 19.156 20.7555C19.2241 20.6219 19.2884 20.495 19.3492 20.3899C19.6623 19.8467 20.7096 19.2867 22.2719 18.4948C23.133 18.0581 23.6124 17.2088 23.8407 16.6759C23.8932 16.5012 23.9522 16.3351 24.0186 16.1798C24.0509 16.1046 24.1348 16.0693 24.2123 16.0933C24.2894 16.1197 24.3335 16.2009 24.3132 16.2801C24.3071 16.304 24.2527 16.5089 24.1298 16.7986C23.7119 18.2206 23.7306 20.2351 23.7586 21.0462C24.0736 20.7013 24.3731 20.6232 24.5795 20.6232C24.8073 20.6232 25.0158 20.723 25.1824 20.898C25.357 20.6716 25.556 20.6278 25.701 20.6289C25.9643 20.6354 26.1825 20.8043 26.3214 20.9799C26.4737 20.9876 26.8173 21.0281 27.0677 21.2426C27.4127 19.549 26.6197 17.1428 26.0842 15.5221C25.9167 15.0147 25.7717 14.5762 25.6808 14.2269C25.6728 14.1964 25.6664 14.1656 25.6601 14.1342C25.6223 13.9492 25.5833 13.758 24.8863 13.4756C24.2419 13.2127 23.729 13.9518 23.3984 14.5287L23.3741 14.5714C23.2695 14.753 22.866 15.1033 22.1619 15.7067C21.4794 16.2917 20.7055 16.9553 20.2939 17.4363C20.097 17.6662 19.9141 17.8832 19.7459 18.0834C19.2313 18.6952 18.8593 19.1374 18.604 19.3336C18.2935 19.5725 17.4546 19.5489 16.6917 19.5079L16.5482 19.5006C16.3078 19.4901 16.0693 19.4183 15.8552 19.3068L15.8375 19.3024L15.827 19.2897C15.6597 19.1983 15.5064 19.0855 15.3886 18.9469C15.3114 18.856 15.2428 18.8178 15.1888 18.8002L15.0174 18.8383C14.9827 18.9004 14.9671 18.9542 15.0999 19.099Z" fill="#FFD7AA"/>
<path d="M35.9696 19.1296C35.8454 18.9081 35.6563 18.8375 35.3577 18.8997C35.1535 18.9427 35.1535 18.9423 34.6516 18.8513L34.5114 18.8256C33.7832 18.6932 33.1163 19.5277 32.7953 19.9279L32.7557 19.977C32.6246 20.1395 32.3788 20.1854 32.0943 20.2391C31.8542 20.2846 31.6057 20.3314 31.382 20.4569C31.2695 20.5203 31.1936 20.617 31.1632 20.7372C31.0753 21.0859 31.3733 21.5568 31.6615 22.0122C31.7383 22.1337 31.8112 22.2491 31.8683 22.3507C32.1531 22.8581 32.0572 24.2814 31.9646 25.658C31.9283 26.198 32.0438 26.6986 32.2149 27.1268C31.3301 26.3654 30.4817 25.9356 30.3442 25.8683C30.2221 25.0416 29.8599 23.5833 28.8055 22.8545C30.1766 22.2469 30.8283 20.1799 30.8593 20.0783C30.8816 20.0055 30.8483 19.9275 30.7803 19.8933C30.7128 19.8588 30.6297 19.8787 30.5847 19.9401C30.2265 20.4263 29.766 20.8983 29.3312 21.298C29.5973 20.546 30.1884 19.8895 30.4448 19.631C30.4899 19.5924 30.534 19.5494 30.5768 19.5027C30.6328 19.4414 30.631 19.3466 30.5724 19.2873C30.5515 19.2663 30.5234 19.2611 30.4963 19.2544C30.6557 18.8142 30.8036 18.0972 30.4869 17.3545C30.3166 16.9555 30.1688 16.6821 30.0499 16.4627C29.8368 16.069 29.7395 15.8895 29.7688 15.4739C29.7732 15.4105 29.7389 15.3508 29.6821 15.3231C29.6251 15.2947 29.5572 15.3041 29.5095 15.3462C29.4878 15.3654 27.4765 17.1875 28.2404 19.2048C28.2173 19.2129 28.1926 19.2176 28.1748 19.2367C28.1206 19.2952 28.1192 19.3854 28.1718 19.4455C29.0288 20.4233 28.0791 21.7904 27.8616 22.077C27.8567 22.0738 27.8521 22.0696 27.8471 22.0664C27.8471 21.8713 27.7943 21.7083 27.6828 21.585C27.5847 21.4767 27.4628 21.4195 27.355 21.3889C27.7621 19.6124 26.9689 17.2028 26.3815 15.4247C26.2156 14.9221 26.0721 14.4885 25.9835 14.1485C25.9771 14.1233 25.972 14.0981 25.9667 14.0725C25.9064 13.7767 25.7924 13.5061 25.0044 13.1868C24.0346 12.7943 23.3524 13.9835 23.1286 14.3744L23.1047 14.4159C23.0216 14.5602 22.4817 15.0229 21.9596 15.4702C21.2684 16.0625 20.4849 16.7341 20.0575 17.2335C19.8602 17.4644 19.677 17.6825 19.5079 17.8832C19.0246 18.4577 18.6431 18.9112 18.4145 19.0872C18.1697 19.2756 17.1083 19.2184 16.7092 19.1968L16.563 19.1891C16.205 19.1733 15.8465 19.0035 15.6272 18.7451C15.467 18.5562 15.265 18.4598 15.073 18.4756C14.9367 18.4882 14.818 18.5597 14.7559 18.6674C14.6292 18.8873 14.6647 19.086 14.8712 19.3106C15.0119 19.4646 15.0119 19.4646 15.189 19.9396L15.24 20.0761C15.4988 20.7676 16.5568 20.9163 17.0653 20.9883L17.1266 20.9968C17.3332 21.0264 17.4986 21.2142 17.6902 21.4315C17.8257 21.585 17.9722 21.7356 18.1446 21.8581C18.134 21.8634 18.1217 21.8638 18.1124 21.8716C18.0634 21.9122 18.0437 21.9781 18.0626 22.0386C18.0643 22.0439 18.1721 22.3355 18.4612 22.5871C18.0053 22.6094 17.4843 22.435 17.2755 22.3547C17.2423 22.3401 17.208 22.3263 17.1726 22.3132C17.0934 22.284 17.006 22.3243 16.9746 22.4018C16.9638 22.4286 16.9635 22.4561 16.9676 22.4828C16.4999 22.5046 15.7847 22.6435 15.2224 23.2172C14.9187 23.5277 14.7226 23.7686 14.5654 23.9623C14.2831 24.3098 14.154 24.4682 13.759 24.6002C13.6988 24.6201 13.6568 24.6745 13.6527 24.7379C13.6484 24.8013 13.683 24.8607 13.7401 24.8882C13.7561 24.8959 14.6841 25.3368 15.7621 25.3368C16.4431 25.3368 17.1838 25.1598 17.7923 24.5875C17.8086 24.605 17.8217 24.6256 17.8455 24.6344C17.8633 24.6409 17.8817 24.6441 17.8997 24.6441C17.9576 24.6441 18.0126 24.6116 18.0396 24.5572C18.49 23.6455 19.1109 23.3177 19.4723 23.2002C19.1502 23.6104 19.0085 23.9979 19.0005 24.0208C18.9774 24.0871 19.0015 24.1611 19.0597 24.2008C19.1179 24.2406 19.1956 24.2366 19.2491 24.1907C19.4843 23.9904 20.0572 23.7324 20.5429 23.5341C20.2492 23.9365 20.1217 24.3633 20.0949 24.4617C19.9926 24.6258 19.9044 24.8151 19.8287 25.0114C18.8797 25.0456 17.109 26.7548 15.3737 28.508C15.1631 28.7209 14.9733 28.9123 14.8129 29.0703C14.7943 29.0887 14.7751 29.1057 14.7553 29.1232C14.5295 29.3231 14.3516 29.5567 14.4687 30.3993C14.6131 31.4362 15.9846 31.4338 16.4347 31.4309H16.4825C16.6487 31.4309 17.3185 31.6673 17.9661 31.8956C18.8253 32.1991 19.799 32.5425 20.4453 32.6631C20.7439 32.7192 21.0245 32.7692 21.2831 32.8151C22.0217 32.9467 22.6051 33.0512 22.8715 33.1611C23.1566 33.2789 23.6366 34.2253 23.8174 34.5817L23.8849 34.7141C24.0499 35.0318 24.0816 35.4279 23.9675 35.747C23.8842 35.9802 23.9 36.2041 24.011 36.3617C24.09 36.4734 24.2113 36.5405 24.3354 36.5405C24.5892 36.5405 24.7434 36.4105 24.8352 36.1196C24.898 35.9209 24.898 35.9209 25.2204 35.531L25.3138 35.4176C25.7835 34.8484 25.3847 33.8578 25.1929 33.3816L25.1693 33.3231C25.0919 33.1292 25.1717 32.892 25.2643 32.6177C25.3425 32.3862 25.4231 32.1468 25.4231 31.8904C25.4231 31.7612 25.3755 31.6479 25.2856 31.5621C25.0248 31.3147 24.4677 31.3447 23.9297 31.3724C23.7861 31.3801 23.65 31.3875 23.5334 31.3875C22.9512 31.3875 21.7571 30.6074 20.6024 29.853C20.1691 29.5697 19.6994 29.4255 19.2594 29.3605C21.0083 28.7618 22.7148 27.7055 23.0429 27.4971C23.299 27.7887 23.6408 28.0202 24.0802 28.179C24.0313 28.2278 23.9868 28.2863 23.9554 28.3553C23.8978 28.4828 23.8964 28.6247 23.9517 28.766C23.986 28.8536 24.0365 28.9225 24.094 28.9802C23.994 29.3301 24.092 29.5233 24.195 29.6253C24.0827 29.9737 24.1799 30.1785 24.2862 30.2877C24.3977 30.402 24.5526 30.4506 24.689 30.4506C24.707 30.4506 24.7216 30.445 24.7388 30.4434C24.7853 30.5859 24.8501 30.7254 24.9592 30.8495L24.9932 30.8877C25.4643 31.4236 26.2526 32.3203 26.3455 32.7388C26.363 32.8168 26.4364 32.8671 26.5142 32.8603C26.593 32.8522 26.6532 32.786 26.6539 32.7068C26.6541 32.6836 26.6574 32.3233 26.6409 31.9559C26.987 32.5174 27.2259 33.0744 27.3059 33.2703C27.3156 33.2967 27.3264 33.3236 27.338 33.3504C27.3634 33.4094 27.4209 33.4447 27.4812 33.4447C27.5007 33.4447 27.5206 33.441 27.5399 33.4333C27.566 33.4227 27.5857 33.4044 27.6018 33.3836C27.9385 33.7093 28.5298 34.1347 29.333 34.1507C29.7667 34.1576 30.0772 34.1364 30.3263 34.1186C30.7726 34.0857 30.9762 34.071 31.3429 34.2682C31.366 34.2808 31.3915 34.2868 31.4168 34.2868C31.4524 34.2868 31.4875 34.2746 31.5161 34.2511C31.5651 34.2109 31.5846 34.1446 31.5658 34.0845C31.557 34.0568 30.721 31.4779 28.5692 31.3429C28.5713 31.3183 28.5771 31.2938 28.5668 31.2696C28.5358 31.1957 28.4543 31.1568 28.3777 31.1811C27.8453 31.344 27.3822 31.1737 27.0143 30.9011C27.4903 30.8715 27.8206 30.7076 27.8379 30.6991C27.8996 30.6679 27.9336 30.5995 27.921 30.5318C27.9086 30.4636 27.8529 30.4119 27.7838 30.4046C27.0864 30.3311 26.0227 29.694 26.0122 29.6875C26.008 29.6851 26.0029 29.6865 25.9985 29.6845C26.0005 29.6821 26.0025 29.6795 26.0043 29.6771C26.064 29.6826 26.1228 29.6855 26.1792 29.6855C26.3115 29.6855 26.4324 29.6717 26.5301 29.651C26.5954 29.6372 26.6445 29.5835 26.6527 29.5177C26.661 29.4514 26.6265 29.3876 26.5668 29.358C26.3541 29.2534 26.17 29.112 26.0095 28.9561C26.2016 28.7229 26.1836 28.3708 26.1039 28.0598C26.1738 28.0309 26.2687 27.9857 26.3831 27.9206C27.7627 29.6569 30.8612 30.3473 32.9217 30.8049C33.4023 30.9114 33.8174 31.0036 34.1168 31.0902C34.1416 31.0975 34.1658 31.106 34.1906 31.1145C34.2887 31.1487 34.3874 31.1758 34.5024 31.1758C34.7213 31.1758 34.9994 31.0771 35.444 30.7398C36.2781 30.106 35.6031 28.9122 35.3811 28.5201L35.3579 28.4786C35.2767 28.334 35.155 27.6343 35.0373 26.9578C34.8811 26.0599 34.7041 25.0425 34.4929 24.4197C34.395 24.1303 34.3009 23.8602 34.2144 23.6116C33.9682 22.9042 33.7738 22.3459 33.7398 22.0599C33.7031 21.7544 34.2928 20.8727 34.5148 20.5412L34.5977 20.4163C34.7948 20.1164 35.1243 19.8955 35.458 19.839C35.7022 19.7972 35.89 19.6736 35.9728 19.4994C36.0313 19.3758 36.0303 19.2376 35.9696 19.1296ZM35.6909 19.3652C35.6726 19.4034 35.608 19.4964 35.4055 19.5309C34.9892 19.6016 34.5797 19.875 34.3366 20.2448L34.2551 20.3675C33.8313 21.0009 33.3832 21.7091 33.4294 22.0971C33.4676 22.4161 33.6572 22.9605 33.9192 23.7138C34.0057 23.962 34.0993 24.2315 34.1971 24.5195C34.4004 25.1196 34.5751 26.1243 34.7293 27.011C34.8879 27.9236 34.9828 28.4489 35.0853 28.6314L35.1091 28.6737C35.4368 29.2527 35.8081 30.0709 35.255 30.491C34.6553 30.9465 34.4715 30.8819 34.2928 30.8197C34.2629 30.8092 34.2333 30.799 34.2031 30.7902C33.8945 30.7008 33.4747 30.6077 32.9891 30.5001C31.1025 30.0815 27.9689 29.3828 26.6455 27.748C26.8979 27.5621 27.1661 27.2978 27.3405 26.9222C27.5103 26.5563 27.5626 26.1481 27.4992 25.7028C28.2205 25.8701 29.7403 26.2702 30.1539 26.5996C30.1822 26.6219 30.2165 26.6333 30.251 26.6333C30.2749 26.6333 30.2992 26.6277 30.3215 26.6166C30.3757 26.5891 30.4092 26.5325 30.4069 26.4716C30.4062 26.4538 30.4018 26.3695 30.3905 26.2454C30.826 26.4837 31.8735 27.1118 32.7265 28.0619C32.939 28.3642 33.1175 28.5462 33.1368 28.5657C33.1944 28.6234 33.2867 28.628 33.3487 28.5742C33.4106 28.5214 33.4214 28.4296 33.3733 28.3638C33.2495 28.1944 33.1185 28.0326 32.9828 27.8795C32.6464 27.3985 32.2148 26.5916 32.2761 25.6794C32.3939 23.9319 32.4482 22.7454 32.1408 22.1983C32.0813 22.0927 32.0054 21.9724 31.9254 21.846C31.7083 21.5027 31.4109 21.0326 31.466 20.8145C31.4756 20.7767 31.4961 20.7511 31.5349 20.7295C31.7139 20.6288 31.9368 20.587 32.1523 20.5463C32.4683 20.4867 32.7954 20.4252 32.9989 20.1734L33.0388 20.1238C33.3224 19.7706 33.9109 19.0329 34.4559 19.1332L34.5956 19.1584C35.126 19.2551 35.1577 19.2613 35.4215 19.2055C35.6301 19.1612 35.6583 19.2128 35.6976 19.2827C35.7057 19.297 35.7088 19.3275 35.6909 19.3652ZM30.3036 33.8072C30.061 33.8251 29.7599 33.8471 29.3392 33.8385C28.2237 33.8162 27.5446 32.8491 27.5379 32.8394C27.537 32.838 27.5354 32.8372 27.5344 32.8359C27.5119 32.296 27.9269 31.8786 28.2208 31.6531C29.9281 31.54 30.8248 33.1324 31.1376 33.8442C30.8683 33.7661 30.6324 33.7828 30.3036 33.8072ZM27.2702 32.4408C26.9931 31.8931 26.5689 31.1829 26.0472 30.7165C25.9678 30.6455 25.9011 30.5749 25.8344 30.5044C26.0238 30.5619 26.1832 30.5822 26.2539 30.5876C26.6083 31.0228 27.1537 31.5082 27.8508 31.5543C27.601 31.7843 27.3688 32.0874 27.2702 32.4408ZM24.4764 29.767C24.5249 29.7766 24.5735 29.7828 24.6201 29.7828C24.6374 29.7828 24.6524 29.7801 24.669 29.779C24.6585 29.8916 24.6614 30.0129 24.6732 30.1361C24.6197 30.1327 24.5541 30.115 24.5094 30.0694C24.4376 29.996 24.4477 29.8746 24.4764 29.767ZM24.7233 29.4576C24.6437 29.4781 24.4913 29.4788 24.4163 29.4067C24.3498 29.3431 24.3575 29.224 24.3812 29.1189C24.395 29.1201 24.4076 29.1255 24.4217 29.1255C24.4219 29.1255 24.4221 29.1255 24.4221 29.1255C24.6054 29.1252 24.7767 29.0137 24.8702 28.8516C24.8724 28.8525 24.8747 28.8533 24.877 28.854C24.8772 28.8547 24.877 28.8553 24.8773 28.856C24.9043 28.933 24.9375 29.0022 24.9741 29.0664C24.9031 29.0583 24.8366 29.0967 24.8103 29.1623C24.8047 29.176 24.762 29.2928 24.7233 29.4576ZM17.5496 29.7573C17.7789 29.7365 18.0166 29.698 18.2587 29.645C18.8434 29.5983 19.7049 29.6393 20.4317 30.1135C21.8974 31.0716 22.9053 31.6992 23.5334 31.6992C23.6549 31.6992 23.7967 31.6919 23.9462 31.6838C24.3519 31.6631 24.9071 31.6334 25.0709 31.7887C25.0992 31.8155 25.1112 31.8456 25.1112 31.8904C25.1112 32.0955 25.0389 32.3101 24.9687 32.5177C24.8657 32.8229 24.7592 33.1385 24.8794 33.4392L24.9033 33.4982C25.0724 33.9187 25.4246 34.7931 25.0731 35.2193L24.9799 35.3317C24.6391 35.7442 24.6187 35.769 24.5376 36.0253C24.4734 36.2284 24.4156 36.2284 24.3353 36.2284C24.3185 36.2284 24.2902 36.2162 24.266 36.1821C24.2414 36.1472 24.192 36.0456 24.2611 35.8519C24.4034 35.4541 24.3651 34.9629 24.1618 34.5704L24.0955 34.4408C23.7503 33.7607 23.3519 33.0224 22.9907 32.873C22.693 32.7499 22.1244 32.6487 21.3375 32.5081C21.0797 32.4622 20.8002 32.4122 20.5023 32.357C19.8796 32.2404 18.9181 31.9011 18.0698 31.6017C17.1961 31.2933 16.6917 31.1191 16.4822 31.1191H16.4335C15.7677 31.1147 14.873 31.0443 14.7775 30.3565C14.674 29.6114 14.8202 29.4822 14.9618 29.3571C14.9856 29.336 15.009 29.3153 15.0315 29.2933C15.1928 29.1345 15.3834 28.9419 15.5951 28.7277C16.7152 27.5961 18.75 25.5425 19.7137 25.3405C19.5325 25.9174 19.4531 26.46 19.4482 26.4947C19.4399 26.5523 19.4647 26.6101 19.5122 26.6438C19.539 26.6628 19.5707 26.6727 19.6026 26.6727C19.6269 26.6727 19.6513 26.667 19.6739 26.6557C21.3512 25.7941 22.2429 25.7524 22.5353 25.771C22.5011 26.1688 22.5338 26.6248 22.738 27.0519C22.7711 27.121 22.8172 27.1812 22.8576 27.2453C22.4468 27.5029 20.168 28.895 18.2273 29.3324C17.8083 29.3669 17.5219 29.4447 17.4936 29.4523C17.4158 29.4739 17.3674 29.5514 17.3821 29.6306C17.3965 29.7097 17.4705 29.7641 17.5496 29.7573ZM18.1277 23.8215C18.1192 23.4936 18.0466 23.141 17.8569 22.8485C18.1823 22.9122 18.5544 22.9379 18.8675 22.833L18.8683 22.8327C18.9959 22.8828 19.1461 22.9137 19.3128 22.9286C18.9888 23.0443 18.5364 23.2885 18.1277 23.8215ZM14.8074 24.1588C14.9605 23.9703 15.1515 23.7355 15.4451 23.4357C16.2255 22.6385 17.395 22.8072 17.4075 22.8087C17.4087 22.8089 17.4099 22.8084 17.4114 22.8086C17.8205 23.1623 17.8404 23.7509 17.803 24.1195C16.7162 25.4414 14.9406 25.0017 14.2081 24.7407C14.4502 24.5984 14.5996 24.4148 14.8074 24.1588ZM30.1999 17.4772C30.6377 18.5035 30.035 19.5201 30.0289 19.5302C30.0282 19.5314 30.0283 19.5327 30.0277 19.5339C29.5452 19.7762 28.9935 19.5698 28.6669 19.3943C27.8605 17.8846 28.9461 16.4127 29.4668 15.8349C29.5058 16.1132 29.6186 16.3216 29.7754 16.6113C29.8911 16.825 30.0352 17.0912 30.1999 17.4772ZM28.7286 19.7723C29.0347 19.9032 29.398 19.9901 29.7523 19.941C29.4039 20.3832 29.0148 21.0044 28.9096 21.6714C28.559 21.9711 28.2634 22.1989 28.1013 22.3204C28.0962 22.3124 28.0901 22.3059 28.0848 22.2983C28.2511 22.0842 29.1382 20.869 28.7286 19.7723ZM25.3449 29.8383C25.2048 29.577 25.1453 29.3726 25.1239 29.2733C25.2677 29.4305 25.4437 29.5339 25.6273 29.5972L25.3449 29.8383ZM25.7886 29.8697C25.7908 29.876 25.7882 29.8828 25.7911 29.8888C25.7936 29.8941 25.8627 30.0322 25.9883 30.2246C25.8623 30.1914 25.715 30.1383 25.5754 30.0515L25.7886 29.8697ZM25.8391 30.9489C25.9956 31.0892 26.1439 31.2549 26.2816 31.4329C26.2818 31.4378 26.2825 31.4431 26.2832 31.448C26.309 31.6024 26.3237 31.8246 26.3319 32.0392C26.062 31.6417 25.6566 31.1701 25.2276 30.6818L25.1936 30.6432C24.9862 30.4075 24.9553 30.0862 24.9799 29.8143C25.124 30.1302 25.3818 30.5402 25.8391 30.9489ZM25.009 28.5729C24.8827 28.5433 24.7919 28.4221 24.738 28.3254C24.5932 28.0659 24.6913 27.8602 24.736 27.7879C24.7939 27.7982 24.8526 27.8045 24.9118 27.8085C24.9631 27.9467 25.0757 28.2133 25.2626 28.5156C25.1709 28.5647 25.0844 28.59 25.009 28.5729ZM25.6941 20.9413C25.8137 20.9441 25.9515 21.0221 26.0569 21.1423C26.0132 21.1963 25.9416 21.2578 25.8453 21.2399C25.412 21.1615 25.2819 21.5853 25.2392 21.7245C25.1947 21.869 25.0218 22.1946 24.8815 22.3412C24.7853 22.2979 24.6834 22.2663 24.5754 22.2538C24.7361 22.0275 25.0327 21.6217 25.4226 21.0964C25.502 20.9897 25.6046 20.9328 25.6941 20.9413ZM24.8236 22.6563C24.9643 22.746 25.0827 22.8968 25.2193 23.0715C25.3046 23.1807 25.4035 23.2985 25.5133 23.414C25.2845 23.2973 25.1578 23.1701 25.1554 23.1679C25.1543 23.1668 25.1527 23.1671 25.1516 23.1661C25.1505 23.165 25.151 23.1632 25.1498 23.1621C24.7728 22.7973 24.3893 22.7006 24.0093 22.8774C23.879 22.9375 23.7538 22.9286 23.6863 22.9026C23.6475 22.8879 23.6337 22.8709 23.6326 22.8693C23.6326 22.8644 23.6395 22.8445 23.6681 22.814C23.8444 22.6283 24.4664 22.4295 24.8236 22.6563ZM23.7347 22.3995C23.9551 22.1787 24.1856 21.9077 24.3888 21.6591L24.4296 21.6095C24.4892 21.5373 24.5942 21.5889 24.647 21.6223C24.4276 21.9223 24.2492 22.1711 24.1906 22.265C24.0267 22.2899 23.8687 22.3363 23.7347 22.3995ZM25.8609 22.5465C26.107 22.6026 26.2369 22.6703 26.3036 22.7395C26.0736 22.7019 25.7433 22.7031 25.4835 22.9023C25.4775 22.8946 25.471 22.8869 25.4649 22.8792C25.3604 22.7453 25.254 22.6254 25.1381 22.5198C25.1964 22.4532 25.2516 22.3764 25.3021 22.2953C25.4114 22.3658 25.6326 22.4949 25.8609 22.5465ZM25.4527 22.0209C25.4929 21.9364 25.5233 21.8625 25.5373 21.8164C25.6149 21.5642 25.682 21.5271 25.7895 21.547C25.8029 21.5494 25.8148 21.5482 25.8278 21.5496C25.9363 21.9513 26.2631 22.1191 26.5079 22.2413C26.6398 22.3072 26.7642 22.3694 26.7894 22.4364C26.8197 22.5172 26.7398 22.6131 26.6434 22.6907C26.5567 22.4806 26.318 22.3306 25.9299 22.2425C25.7341 22.1982 25.5331 22.0744 25.4527 22.0209ZM23.1791 23.967C23.4558 23.7785 23.704 23.6935 23.9206 23.7075C24.455 23.746 24.8455 23.5754 25.0255 23.471C25.2066 23.6209 25.6311 23.9041 26.2672 23.9156C26.3742 23.9748 26.7347 24.191 26.9409 24.501C26.9459 24.5827 26.9486 24.6648 26.9486 24.748C26.9486 26.2679 26.0854 27.5043 25.0244 27.5043C23.9633 27.5043 23.1001 26.2679 23.1001 24.748C23.0999 24.4823 23.1266 24.2202 23.1791 23.967ZM27.033 24.1208C26.8212 23.8923 26.5766 23.7337 26.4549 23.6635C26.5977 23.6337 26.7488 23.5843 26.8899 23.5064C27.055 23.7118 27.0644 23.9452 27.033 24.1208ZM26.8941 23.1255C26.6086 23.3922 26.1075 23.4008 25.9627 23.3975C25.8585 23.3196 25.7653 23.2339 25.6828 23.1412C25.9773 22.928 26.4598 23.0979 26.465 23.0998C26.4808 23.1058 26.4969 23.1068 26.5129 23.1074C26.5152 23.1075 26.5171 23.1095 26.5195 23.1095C26.5205 23.1095 26.5214 23.1088 26.5224 23.1088C26.5444 23.1084 26.5658 23.1038 26.5853 23.0947C26.5857 23.0945 26.5862 23.0946 26.5862 23.0946C26.7312 23.0256 26.9198 22.895 27.0263 22.728C27.0504 22.8439 27.0382 22.991 26.8941 23.1255ZM26.9838 22.1806C26.8966 22.0902 26.7757 22.0263 26.6473 21.9622C26.4308 21.8542 26.2144 21.7363 26.1369 21.4788C26.221 21.4271 26.287 21.358 26.3331 21.2916C26.4827 21.3029 26.798 21.3545 26.9464 21.5665C27.0473 21.7111 27.0569 21.9191 26.9838 22.1806ZM24.8316 21.3708C24.6757 21.2646 24.3911 21.1666 24.1887 21.4114L24.1474 21.4618C23.9565 21.695 23.3758 22.4044 23.0843 22.523C23.081 22.5244 23.0789 22.5272 23.0756 22.5288C23.0225 22.5152 22.9757 22.4968 22.9433 22.4711C22.9187 22.4516 22.907 22.4313 22.9039 22.4037C22.8892 22.268 22.9496 22.2086 23.1937 22.0335C23.379 21.9006 23.633 21.7187 23.8747 21.396C24.2467 20.9001 24.7122 20.8116 24.9935 21.1512C24.9395 21.2244 24.8853 21.2979 24.8316 21.3708ZM23.4536 21.2254C22.966 21.1587 22.5177 21.3214 22.2415 21.6799C22.1268 21.8289 22.0609 21.9981 22.0297 22.1708C22.011 22.1786 21.9898 22.1789 21.9746 22.1942C21.9354 22.234 21.8941 22.2844 21.8529 22.3401C21.5792 22.2327 20.8383 21.9757 20.2014 22.0621C19.465 22.1619 18.9211 22.0645 18.6042 21.9723C18.9434 21.8631 19.1936 21.3727 19.4353 20.8973C19.5005 20.769 19.5623 20.6474 19.6204 20.5462C19.9107 20.0428 21.1832 19.3976 22.4139 18.7735C22.9317 18.511 23.3211 18.1213 23.6083 17.7281C23.3844 19.1389 23.4281 20.679 23.4536 21.2254ZM22.0446 22.6145C22.0629 22.687 22.081 22.76 22.1153 22.8287C22.1362 22.8703 22.1629 22.9009 22.1872 22.9362C22.0977 23.0255 21.9716 23.1756 21.888 23.3734C21.817 23.0679 21.9337 22.7918 22.0446 22.6145ZM21.8956 24.179C21.9506 24.3096 22.0199 24.4193 22.0989 24.5091C21.9757 24.8753 21.8965 25.211 21.8608 25.5121C21.7402 25.5339 21.6059 25.5638 21.4578 25.603C21.5391 25.0682 21.7498 24.5162 21.8956 24.179ZM22.1843 25.4667C22.2165 25.2421 22.2748 24.996 22.3584 24.7302C22.4834 24.8071 22.6118 24.8543 22.726 24.8795C22.6784 25.0169 22.6194 25.2211 22.5769 25.4595C22.4879 25.4524 22.3572 25.4508 22.1843 25.4667ZM21.5615 24.1665C21.3998 24.555 21.195 25.1364 21.1328 25.698C21.0055 25.7387 20.8698 25.7863 20.7256 25.8409C20.8455 25.1419 21.1604 24.436 21.1779 24.3972C21.334 24.3227 21.4603 24.2437 21.5615 24.1665ZM20.4735 24.3148C20.5939 24.0072 20.8572 23.4908 21.3263 23.2376C21.4595 23.2982 21.5313 23.3458 21.533 23.347C21.5432 23.3547 21.5558 23.3535 21.5671 23.3584C21.5806 23.4485 21.6069 23.5399 21.6455 23.632C21.5927 23.7222 21.3234 24.1088 20.4735 24.3148ZM22.7976 24.5704C22.6131 24.5319 22.2991 24.4108 22.1553 23.9952C22.0837 23.7879 22.122 23.6014 22.1934 23.4524C22.217 23.7663 22.3451 24.0702 22.6763 24.168C22.7119 24.2836 22.759 24.3759 22.8021 24.4235C22.8031 24.4245 22.8044 24.4248 22.8055 24.4259C22.8018 24.4739 22.7997 24.5221 22.7976 24.5704ZM22.5109 23.2119C22.596 23.2501 22.6841 23.2784 22.7752 23.2889C22.7188 23.373 22.683 23.4576 22.6607 23.5339C22.6375 23.6138 22.6275 23.695 22.6246 23.7745C22.5084 23.6324 22.4975 23.3905 22.5109 23.2119ZM22.3945 22.6888C22.2643 22.4287 22.3004 22.1151 22.4888 21.8704C22.6792 21.6228 22.9858 21.5083 23.3277 21.5318C23.2154 21.6322 23.1073 21.7114 23.0121 21.7799C22.7785 21.9473 22.5577 22.1058 22.594 22.4376C22.6059 22.5478 22.6596 22.6437 22.7492 22.7151C22.9026 22.8373 23.1416 22.867 23.3243 22.8706C23.3244 22.8789 23.3264 22.8865 23.3272 22.8946C23.2833 22.9102 23.2354 22.9241 23.1968 22.9418C22.9547 23.0089 22.5718 23.0448 22.3945 22.6888ZM22.9641 23.609C23.0143 23.4497 23.1275 23.3254 23.3015 23.2381C23.3793 23.2159 23.4459 23.188 23.5075 23.1601C23.674 23.2561 23.9204 23.2625 24.1408 23.1601C24.2779 23.0962 24.4851 23.0477 24.7699 23.2509C24.6001 23.3309 24.3151 23.4252 23.9439 23.396C23.6406 23.3765 23.306 23.4915 22.9487 23.7474C22.9453 23.7498 22.9452 23.7549 22.9418 23.7577C22.9457 23.7086 22.9483 23.6592 22.9641 23.609ZM25.2451 27.801C25.3807 27.7826 25.5123 27.7456 25.6398 27.6954C25.7673 27.945 25.9399 28.4757 25.7936 28.7224C25.5123 28.3801 25.3349 28.0153 25.2451 27.801ZM27.1667 25.6222C27.2501 26.0554 27.2162 26.4464 27.0585 26.7879C26.791 27.3671 26.2432 27.6578 26.0086 27.7605C25.9772 27.6801 25.9471 27.6122 25.9198 27.5575C26.5172 27.1977 26.9783 26.4903 27.1667 25.6222ZM27.2562 24.8656C27.2573 24.8262 27.2605 24.7876 27.2605 24.748C27.2605 24.7314 27.2588 24.7154 27.2587 24.6988C27.3543 24.6865 27.4841 24.6589 27.6163 24.5944C27.7325 24.912 27.8115 25.204 27.853 25.4669C27.6333 25.4129 27.478 25.3778 27.4288 25.3668C27.3877 25.2096 27.3361 25.0492 27.2682 24.8838C27.2654 24.8766 27.2599 24.8718 27.2562 24.8656ZM27.2561 23.5017C27.226 23.4398 27.185 23.3795 27.1374 23.3195C27.191 23.2639 27.2325 23.2067 27.2637 23.1486C27.2678 23.1485 27.2718 23.1483 27.2759 23.1479C27.3353 23.1419 27.3874 23.1328 27.4339 23.1206C27.4664 23.1731 27.505 23.2547 27.5235 23.3519C27.4822 23.3958 27.4539 23.4486 27.435 23.4994C27.3527 23.5532 27.2944 23.5185 27.2819 23.5096C27.2745 23.5035 27.2643 23.5063 27.2561 23.5017ZM28.583 25.6587C28.4424 25.6192 28.3071 25.5827 28.1802 25.5496C28.1404 25.2097 28.0399 24.8243 27.8786 24.401C27.9552 24.3211 28.0353 24.2143 28.1014 24.0955C28.2505 24.4293 28.5025 25.0595 28.583 25.6587ZM28.2316 23.6229C28.2372 23.6152 28.2461 23.6108 28.2504 23.6018C28.2871 23.5256 28.2999 23.4599 28.3026 23.399C28.5912 23.7773 29.1081 24.6166 29.3053 25.8795C29.1752 25.8358 29.0418 25.7935 28.9085 25.7534C28.8191 24.799 28.2883 23.7565 28.2658 23.7126C28.258 23.6974 28.2468 23.6857 28.2353 23.6744C28.2358 23.6567 28.233 23.64 28.2316 23.6229ZM29.6449 26.0016C29.4179 24.2312 28.5799 23.2168 28.3713 22.9887C28.388 22.9856 28.4061 22.9858 28.4226 22.9823C29.6618 23.6423 29.9878 25.4642 30.0692 26.1845C29.9461 26.1225 29.8008 26.0615 29.6449 26.0016ZM28.2373 22.688C28.2338 22.6643 28.229 22.6412 28.2239 22.6184C28.4855 22.4264 29.3792 21.7505 30.1747 20.9083C29.8004 21.6448 29.1514 22.5639 28.2373 22.688ZM27.9369 22.8598C27.9367 22.8635 27.9372 22.8655 27.9371 22.8692C27.9371 22.8703 27.9366 22.8712 27.9366 22.8724C27.9366 22.8736 27.9372 22.8745 27.9373 22.8756C27.9312 23.0523 27.9558 23.1737 27.9747 23.2617C27.9779 23.2762 27.9799 23.2869 27.9823 23.299C27.9216 23.278 27.8692 23.2675 27.8209 23.2618C27.7896 23.1267 27.7373 23.0176 27.6926 22.9471C27.7676 22.8352 27.7952 22.6758 27.8165 22.465C27.8891 22.5633 27.9444 22.696 27.9369 22.8598ZM27.711 23.6201C27.7185 23.6034 27.7314 23.5749 27.7382 23.5697C27.738 23.5693 27.7719 23.5546 27.8847 23.5949C27.9143 23.6054 27.9187 23.6164 27.9221 23.6334C27.9503 23.77 27.7783 24.0739 27.6229 24.2172C27.5202 24.3119 27.3917 24.356 27.2904 24.377C27.3327 24.2502 27.3756 24.0524 27.3531 23.8346C27.4314 23.8343 27.5163 23.8188 27.6063 23.76C27.6651 23.7215 27.6914 23.6631 27.711 23.6201ZM27.5181 22.3138C27.4798 22.7219 27.4708 22.7967 27.3472 22.823C27.347 22.6655 27.2975 22.5204 27.239 22.4162C27.3366 22.1465 27.3596 21.9134 27.3241 21.7109C27.3698 21.7298 27.415 21.7543 27.4515 21.7946C27.522 21.8721 27.5497 21.9904 27.5344 22.1453L27.5181 22.3138ZM20.2433 22.3719C20.7673 22.2998 21.4086 22.507 21.6924 22.6131C21.636 22.7329 21.5942 22.8664 21.5727 23.0096C21.3023 22.8684 20.6485 22.6106 19.5079 22.6333C19.0482 22.6524 18.7545 22.4692 18.5833 22.2928C18.9405 22.3886 19.5032 22.4714 20.2433 22.3719ZM20.141 22.9648C20.422 22.9879 20.6579 23.0282 20.8497 23.0767C20.4935 23.2129 19.9552 23.4298 19.536 23.6472C19.6719 23.4303 19.871 23.1762 20.141 22.9648ZM20.7753 24.554C20.6464 24.8824 20.457 25.4363 20.3919 25.975C20.209 26.0521 20.0169 26.1376 19.8098 26.2383C19.8883 25.8393 20.0587 25.1325 20.34 24.6612C20.4997 24.6307 20.6448 24.5948 20.7753 24.554ZM23.0202 26.918C22.8078 26.475 22.8118 25.9813 22.8743 25.5825C23.0865 26.6098 23.6786 27.4176 24.4291 27.7026C24.4001 27.7636 24.3737 27.8419 24.3596 27.9345C23.7059 27.7359 23.2501 27.3983 23.0202 26.918ZM24.2393 28.4847C24.2699 28.416 24.3381 28.3628 24.3998 28.3254C24.4171 28.375 24.4363 28.4252 24.4655 28.4775C24.5091 28.5557 24.5599 28.6198 24.6136 28.6767C24.5796 28.7544 24.5 28.813 24.422 28.8134H24.4218C24.3255 28.8134 24.271 28.7257 24.2422 28.6521C24.2173 28.5887 24.2164 28.5355 24.2393 28.4847ZM26.6594 30.5828C26.5506 30.4674 26.4554 30.3492 26.3753 30.2395C26.6021 30.3524 26.879 30.478 27.1567 30.5727C27.0101 30.5934 26.8414 30.602 26.6594 30.5828ZM25.2236 28.8698C25.2906 28.8534 25.3634 28.8239 25.4415 28.7782C25.5926 28.9823 25.7735 29.1866 25.9954 29.3623C25.7208 29.3319 25.3976 29.2144 25.2236 28.8698ZM15.1011 18.7863C15.1185 18.7848 15.1507 18.7879 15.1897 18.8005C15.2436 18.8181 15.3122 18.8562 15.3895 18.9472C15.5073 19.0858 15.6606 19.1986 15.8279 19.29C15.8376 19.2953 15.8463 19.3019 15.8561 19.3071C16.0701 19.4186 16.3086 19.4904 16.5491 19.5009L16.6925 19.5082C17.4553 19.5493 18.2944 19.5729 18.6048 19.3339C18.8602 19.1377 19.2322 18.6956 19.7467 18.0837C19.9152 17.8834 20.098 17.6665 20.2948 17.4366C20.7064 16.9555 21.4801 16.292 22.1627 15.707C22.8668 15.1037 23.2703 14.7535 23.375 14.5717L23.3993 14.5291C23.7297 13.9521 24.2428 13.213 24.8872 13.4759C25.5841 13.7583 25.6232 13.9497 25.661 14.1345C25.6672 14.1658 25.6738 14.1967 25.6817 14.2272C25.7727 14.5766 25.9175 15.015 26.0851 15.5224C26.6206 17.1431 27.4136 19.5494 27.0686 21.2429C26.8182 21.0286 26.4746 20.9879 26.3223 20.9802C26.1835 20.8046 25.9652 20.6357 25.7019 20.6292C25.5569 20.6281 25.3579 20.6719 25.1832 20.8983C25.0165 20.7233 24.8081 20.6235 24.5803 20.6235C24.374 20.6235 24.0745 20.7016 23.7594 21.0465C23.7315 20.2353 23.7126 18.2209 24.1307 16.7989C24.2537 16.5092 24.3081 16.3043 24.3141 16.2804C24.3345 16.2012 24.2903 16.12 24.2131 16.0936C24.1358 16.0697 24.0518 16.105 24.0195 16.1801C23.9531 16.3353 23.8942 16.5014 23.8416 16.6762C23.6132 17.2093 23.1338 18.0584 22.2728 18.4952C20.7105 19.2871 19.6631 19.8469 19.3501 20.3902C19.2893 20.4955 19.225 20.6222 19.1569 20.7558C18.9731 21.1177 18.7212 21.6134 18.5049 21.6773C18.468 21.6887 18.4356 21.6837 18.3966 21.6615C18.2188 21.5591 18.0689 21.3893 17.9239 21.2247C17.711 20.983 17.491 20.7334 17.1707 20.6875L17.1085 20.6786C16.6596 20.6157 15.7255 20.4839 15.5318 19.966L15.481 19.8303C15.2937 19.3282 15.2825 19.2981 15.1007 19.0994C14.9678 18.9545 14.9835 18.9005 15.018 18.8385C15.0209 18.8333 15.0228 18.8284 15.0257 18.8231C15.0344 18.8086 15.0592 18.7903 15.1011 18.7863Z" fill="#464655"/>
</g>
<defs>
<clipPath id="clip0_106_17667">
<rect width="50" height="50" fill="white"/>
</clipPath>
</defs>
</svg>
