<svg width="50" height="50" viewBox="0 0 50 50" fill="none" xmlns="http://www.w3.org/2000/svg">
<g clip-path="url(#clip0_106_17653)">
<path d="M50.0004 25H0.000488281V9.48271C0.000488281 9.00664 0.386523 8.62061 0.862596 8.62061H49.1384C49.6145 8.62061 50.0005 9.00664 50.0005 9.48271L50.0004 25Z" fill="#FF4B55"/>
<path d="M0.00146484 25.0005H50.0014V40.5177C50.0014 40.9938 49.6153 41.3799 49.1393 41.3799H0.863573C0.387499 41.3799 0.00146484 40.9938 0.00146484 40.5177V25.0005Z" fill="#F5F5F5"/>
<path d="M7.0882 16.8228C7.0882 13.9881 9.16827 11.6382 11.8844 11.2035C12.0318 11.1799 12.0385 10.977 11.893 10.9434C11.2205 10.7889 10.5064 10.7448 9.76475 10.8458C6.83527 11.2448 4.57082 13.78 4.52941 16.7362C4.48224 20.1118 7.20353 22.8604 10.5631 22.8604C11.0204 22.8604 11.4645 22.807 11.8918 22.7087C12.0372 22.6753 12.0299 22.4719 11.8826 22.4483C9.16759 22.0139 7.0882 19.6686 7.0882 16.8228Z" fill="#F5F5F5"/>
<path d="M11.929 18.3394L11.6739 19.1046L10.8673 19.1109C10.7629 19.1118 10.7196 19.245 10.8036 19.307L11.4525 19.7862L11.2091 20.5552C11.1777 20.6548 11.291 20.7372 11.3759 20.6764L12.0322 20.2074L12.6884 20.6764C12.7734 20.7372 12.8866 20.6547 12.8552 20.5552L12.6118 19.7862L13.2607 19.307C13.3447 19.2449 13.3014 19.1118 13.197 19.1109L12.3905 19.1046L12.1353 18.3394C12.1022 18.2404 11.962 18.2404 11.929 18.3394Z" fill="#F5F5F5"/>
<path d="M15.9163 18.3394L15.6612 19.1046L14.8546 19.1109C14.7502 19.1118 14.7069 19.245 14.7909 19.307L15.4398 19.7862L15.1964 20.5552C15.165 20.6548 15.2783 20.7372 15.3632 20.6764L16.0195 20.2074L16.6757 20.6764C16.7607 20.7372 16.874 20.6547 16.8425 20.5552L16.5991 19.7862L17.248 19.307C17.3321 19.2449 17.2887 19.1118 17.1843 19.1109L16.3778 19.1046L16.1226 18.3394C16.0895 18.2404 15.9494 18.2404 15.9163 18.3394Z" fill="#F5F5F5"/>
<path d="M13.9407 12.1866L13.6856 12.9518L12.879 12.9581C12.7746 12.9589 12.7313 13.0921 12.8154 13.1541L13.4642 13.6333L13.2208 14.4024C13.1894 14.502 13.3028 14.5843 13.3876 14.5236L14.0439 14.0545L14.7001 14.5236C14.7851 14.5843 14.8984 14.5019 14.8669 14.4024L14.6236 13.6333L15.2724 13.1541C15.3565 13.092 15.3131 12.9589 15.2087 12.9581L14.4022 12.9518L14.147 12.1866C14.1139 12.0875 13.9738 12.0875 13.9407 12.1866Z" fill="#F5F5F5"/>
<path d="M10.7615 14.544L10.5064 15.3092L9.69983 15.3155C9.59544 15.3164 9.55208 15.4496 9.63616 15.5116L10.285 15.9908L10.0416 16.7598C10.0102 16.8594 10.1236 16.9417 10.2084 16.881L10.8647 16.412L11.5209 16.881C11.6059 16.9417 11.7192 16.8593 11.6877 16.7598L11.4444 15.9908L12.0932 15.5116C12.1773 15.4495 12.1339 15.3164 12.0295 15.3155L11.223 15.3092L10.9678 14.544C10.9347 14.445 10.7947 14.445 10.7615 14.544Z" fill="#F5F5F5"/>
<path d="M17.0926 14.544L16.8374 15.3092L16.0309 15.3155C15.9265 15.3164 15.8831 15.4496 15.9672 15.5116L16.616 15.9908L16.3727 16.7598C16.3412 16.8594 16.4546 16.9417 16.5395 16.881L17.1957 16.412L17.852 16.881C17.9369 16.9417 18.0502 16.8593 18.0188 16.7598L17.7754 15.9908L18.4242 15.5116C18.5083 15.4495 18.465 15.3164 18.3606 15.3155L17.554 15.3092L17.2989 14.544C17.2657 14.445 17.1256 14.445 17.0926 14.544Z" fill="#F5F5F5"/>
</g>
<defs>
<clipPath id="clip0_106_17653">
<rect width="50" height="50" fill="white"/>
</clipPath>
</defs>
</svg>
