<svg width="50" height="50" viewBox="0 0 50 50" fill="none" xmlns="http://www.w3.org/2000/svg">
<g clip-path="url(#clip0_106_17647)">
<path d="M49.1393 41.3791H0.863573C0.387499 41.3791 0.00146484 40.9931 0.00146484 40.517V9.48271C0.00146484 9.00664 0.387499 8.62061 0.863573 8.62061H49.1394C49.6154 8.62061 50.0015 9.00664 50.0015 9.48271V40.517C50.0014 40.9932 49.6153 41.3791 49.1393 41.3791Z" fill="#41479B"/>
<path d="M49.1393 8.62061H0.863573C0.387499 8.62061 0.00146484 9.00664 0.00146484 9.48271V40.517C0.00146484 40.9931 0.387499 41.3791 0.863573 41.3791H49.1394C49.6154 41.3791 50.0015 40.9931 50.0015 40.517V9.48271C50.0014 9.00664 49.6153 8.62061 49.1393 8.62061ZM48.2772 24.1378H39.8705L25.8635 16.7223V10.3447H48.2773V24.1378H48.2772ZM25.0013 31.7833L12.1887 24.9999L25.0014 18.2166L37.8141 24.9999L25.0013 31.7833ZM24.1393 10.3447V16.7223L10.1322 24.1378H1.72558V10.3447H24.1393ZM1.72558 25.862H10.1322L24.1393 33.2775V39.655H1.72558V25.862ZM25.8634 39.655V33.2774L39.8706 25.862H48.2772V39.655H25.8634Z" fill="#FF4B55"/>
<path d="M25.0015 18.2168L12.189 25.0001L25.0015 31.7835L37.8143 25.0001L25.0015 18.2168Z" fill="#F5F5F5"/>
<path d="M20.6914 29.5011H29.3122L35.3142 26.3235L32.6141 23.6235H31.6715L30.9757 24.3193L30.4794 23.8229H29.4867L25.6787 27.6309H20.8984L19.8129 26.0235H18.4352L17.8925 26.7841H17.2824L16.916 27.5023L20.6914 29.5011Z" fill="#73AF00"/>
<path d="M25.1173 20.8697L25.46 21.897L26.543 21.9054C26.6832 21.9065 26.7413 22.0855 26.6285 22.1688L25.7573 22.8122L26.0841 23.8447C26.1264 23.9784 25.9741 24.089 25.8601 24.0074L24.979 23.3776L24.098 24.0074C23.9838 24.0889 23.8317 23.9783 23.8739 23.8447L24.2007 22.8122L23.3295 22.1688C23.2167 22.0855 23.2749 21.9066 23.4151 21.9054L24.4981 21.897L24.8407 20.8697C24.8848 20.7368 25.073 20.7368 25.1173 20.8697Z" fill="#FFE15A"/>
</g>
<defs>
<clipPath id="clip0_106_17647">
<rect width="50" height="50" fill="white"/>
</clipPath>
</defs>
</svg>
