<svg width="50" height="50" viewBox="0 0 50 50" fill="none" xmlns="http://www.w3.org/2000/svg">
<g clip-path="url(#clip0_106_17620)">
<path d="M0.862108 8.62061H49.1379C49.614 8.62061 50 9.00664 50 9.48271V24.9999H0V9.48262C0 9.00654 0.386034 8.62061 0.862108 8.62061Z" fill="#FF4B55"/>
<path d="M49.1378 41.3793H0.862108C0.386034 41.3793 0 40.9932 0 40.5172V25H49.9999V40.5173C49.9999 40.9933 49.6139 41.3793 49.1378 41.3793Z" fill="#41479B"/>
<path d="M0.317968 41.1708L24.1794 25.5375C24.5667 25.2837 24.5667 24.716 24.1794 24.4624L0.317968 8.8291C0.128027 8.98721 0 9.21631 0 9.48271V40.5171C0 40.7836 0.128027 41.0127 0.317968 41.1708Z" fill="#F5F5F5"/>
<path d="M8.83779 24.3797C10.3328 24.3797 11.5447 23.1677 11.5447 21.6727C11.5447 20.1778 10.3328 18.9658 8.83779 18.9658C7.34279 18.9658 6.13086 20.1778 6.13086 21.6727C6.13086 23.1677 7.34279 24.3797 8.83779 24.3797Z" fill="#FFE15A"/>
<path d="M12.1472 24.1804C12.1579 24.5088 12.1936 24.8477 12.2281 25.1752C12.3634 26.4606 12.4803 27.571 11.2457 28.0016C10.9539 28.1034 10.5562 28.1604 10.1719 28.2155C9.62001 28.2946 9.12587 28.3653 8.83847 28.5656C8.55107 28.3654 8.05703 28.2946 7.50507 28.2155C7.1207 28.1604 6.72295 28.1033 6.43125 28.0016C5.19668 27.571 5.31357 26.4606 5.44883 25.1752C5.4833 24.8477 5.51894 24.5088 5.52978 24.1804C5.56816 23.0165 5.32275 21.8761 5.15039 21.2314C5.4376 21.3493 5.83574 21.4557 6.32392 21.4471C6.53427 21.4429 6.7705 21.4129 7.0205 21.3812C7.59121 21.3085 8.23798 21.2267 8.75566 21.4313L8.83867 21.4682L8.92167 21.4313C9.43925 21.2267 10.0861 21.3085 10.6568 21.3812C10.9068 21.4129 11.1431 21.4429 11.3534 21.4471C11.8416 21.4557 12.2398 21.3492 12.5269 21.2314C12.3541 21.876 12.1088 23.0165 12.1472 24.1804Z" fill="#8CD7FF"/>
<path d="M12.598 24.1653C12.5436 22.5155 13.1065 20.8604 13.1123 20.8438L12.7575 20.5947C12.7529 20.5985 12.2193 21.0124 11.3619 20.9959C11.1756 20.9924 10.9511 20.9638 10.7133 20.9335C10.1163 20.8579 9.44286 20.7723 8.83837 20.981C8.23388 20.7724 7.56054 20.858 6.96347 20.9335C6.72578 20.9637 6.50117 20.9923 6.31484 20.9959C5.45742 21.0124 4.92392 20.5984 4.91924 20.5947L4.56445 20.8438C4.57002 20.8604 5.1331 22.5155 5.07871 24.1653C5.06846 24.4777 5.03369 24.8082 4.9999 25.1278C4.86426 26.4175 4.71045 27.8793 6.28242 28.4277C6.61552 28.5437 7.03642 28.5951 7.44081 28.6621C8.65497 28.8633 8.83827 29.1734 8.83827 29.1734C8.83827 29.1734 9.02157 28.8632 10.2357 28.6621C10.6401 28.5951 11.061 28.5437 11.3941 28.4277C12.9662 27.8794 12.8125 26.4175 12.6766 25.1278C12.6431 24.8081 12.6083 24.4777 12.598 24.1653ZM12.1472 24.1803C12.1579 24.5087 12.1936 24.8475 12.2281 25.1751C12.3634 26.4605 12.4803 27.5709 11.2457 28.0015C10.9539 28.1033 10.5562 28.1603 10.1719 28.2154C9.62001 28.2945 9.12587 28.3652 8.83847 28.5655C8.55107 28.3653 8.05702 28.2945 7.50507 28.2154C7.1207 28.1603 6.72294 28.1032 6.43125 28.0015C5.19668 27.5709 5.31357 26.4605 5.44883 25.1751C5.4833 24.8475 5.51894 24.5087 5.52978 24.1803C5.56816 23.0164 5.32275 21.876 5.15039 21.2313C5.4376 21.3492 5.83574 21.4556 6.32392 21.447C6.53427 21.4428 6.7705 21.4128 7.0205 21.3811C7.5912 21.3084 8.23798 21.2266 8.75566 21.4312L8.83866 21.4681L8.92167 21.4312C9.43925 21.2266 10.0861 21.3084 10.6568 21.3811C10.9068 21.4128 11.1431 21.4428 11.3534 21.447C11.8416 21.4556 12.2398 21.3491 12.5269 21.2313C12.3541 21.8759 12.1088 23.0164 12.1472 24.1803Z" fill="#FF4B55"/>
<path d="M11.1653 26.9535V25.9592H11.3357V25.6658H10.9189V24.6446H11.3357L9.42968 23.2943V22.7864H9.69482L8.83896 22.1802L7.9833 22.7864H8.24824V23.2943L6.34219 24.6446H6.75908V25.6658H6.34219V25.9592H6.51269V26.9535H6.26367V27.3827H11.4144V26.9535H11.1653Z" fill="#F5F5F5"/>
<path d="M6.36555 22.8842C6.30481 23.0281 6.31516 23.1807 6.37971 23.2929C6.50529 23.2608 6.6217 23.1619 6.68254 23.0181C6.74328 22.8741 6.73293 22.7216 6.66838 22.6094C6.54289 22.6414 6.42639 22.7403 6.36555 22.8842Z" fill="#41AA5A"/>
<path d="M6.66061 22.9294C6.70025 23.0805 6.80145 23.1949 6.92078 23.2443C7.00045 23.1424 7.03211 22.9929 6.99247 22.8418C6.95282 22.6907 6.85162 22.5763 6.7323 22.5269C6.65272 22.6287 6.62096 22.7783 6.66061 22.9294Z" fill="#41AA5A"/>
<path d="M7.11934 22.6781C7.26582 22.7324 7.41767 22.7156 7.52705 22.646C7.48965 22.522 7.38564 22.4099 7.23926 22.3555C7.09277 22.3011 6.94092 22.318 6.83154 22.3875C6.86895 22.5114 6.97285 22.6235 7.11934 22.6781Z" fill="#41AA5A"/>
<path d="M7.25645 22.4203C7.39941 22.3574 7.49678 22.2394 7.52686 22.1134C7.41357 22.0506 7.26104 22.0424 7.11807 22.1052C6.9751 22.1681 6.87783 22.2861 6.84766 22.4121C6.96074 22.4751 7.11338 22.4832 7.25645 22.4203Z" fill="#41AA5A"/>
<path d="M6.29521 22.5509C6.42265 22.4605 6.49424 22.3255 6.49844 22.1959C6.3749 22.1571 6.22373 22.1798 6.09629 22.2702C5.96885 22.3605 5.89727 22.4955 5.89307 22.6251C6.0166 22.6641 6.16787 22.6413 6.29521 22.5509Z" fill="#41AA5A"/>
<path d="M6.18916 22.3619C6.38525 22.4742 6.59531 22.5047 6.75156 22.4596C6.71133 22.302 6.57881 22.1362 6.38271 22.0239C6.18662 21.9116 5.97656 21.8812 5.82031 21.9263C5.86055 22.0839 5.99316 22.2496 6.18916 22.3619Z" fill="#41AA5A"/>
<path d="M7.01748 22.592C7.01748 22.5158 6.95684 22.4545 6.88125 22.4517C6.87842 22.3761 6.81729 22.3154 6.74092 22.3154C6.66455 22.3154 6.60342 22.3761 6.60059 22.4517C6.525 22.4545 6.46436 22.5156 6.46436 22.592C6.46436 22.6682 6.525 22.7294 6.60059 22.7323C6.60342 22.8079 6.66455 22.8686 6.74092 22.8686C6.81729 22.8686 6.87842 22.8079 6.88125 22.7323C6.95684 22.7294 7.01748 22.6682 7.01748 22.592Z" fill="#FFE15A"/>
<path d="M6.741 22.6748C6.78672 22.6748 6.82379 22.6376 6.82379 22.5918C6.82379 22.546 6.78672 22.5088 6.741 22.5088C6.69527 22.5088 6.6582 22.546 6.6582 22.5918C6.6582 22.6376 6.69527 22.6748 6.741 22.6748Z" fill="#F5F5F5"/>
<path d="M6.57607 22.4523C6.57607 22.3896 6.52617 22.3393 6.46416 22.337C6.46182 22.2749 6.41142 22.2251 6.34883 22.2251C6.28613 22.2251 6.23574 22.275 6.2335 22.337C6.17139 22.3394 6.12158 22.3897 6.12158 22.4523C6.12158 22.515 6.17148 22.5654 6.2335 22.5677C6.23584 22.6298 6.28623 22.6796 6.34883 22.6796C6.41152 22.6796 6.46191 22.6297 6.46416 22.5677C6.52617 22.5653 6.57607 22.515 6.57607 22.4523Z" fill="#FFE15A"/>
<path d="M6.34826 22.5196C6.38581 22.5196 6.41625 22.4891 6.41625 22.4515C6.41625 22.4138 6.38581 22.3833 6.34826 22.3833C6.31071 22.3833 6.28027 22.4138 6.28027 22.4515C6.28027 22.4891 6.31071 22.5196 6.34826 22.5196Z" fill="#F5F5F5"/>
<path d="M6.99906 22.2565C6.99906 22.2114 6.96312 22.1751 6.9186 22.1734C6.91685 22.1287 6.88081 22.0928 6.83571 22.0928C6.79061 22.0928 6.75448 22.1288 6.75282 22.1734C6.70821 22.1752 6.67236 22.2113 6.67236 22.2565C6.67236 22.3017 6.70831 22.338 6.75282 22.3396C6.75457 22.3844 6.79061 22.4203 6.83571 22.4203C6.88081 22.4203 6.91695 22.3843 6.9186 22.3396C6.96321 22.338 6.99906 22.3018 6.99906 22.2565Z" fill="#FFE15A"/>
<path d="M6.83562 22.3063C6.86267 22.3063 6.88461 22.2843 6.88461 22.2571C6.88461 22.23 6.86267 22.208 6.83562 22.208C6.80856 22.208 6.78662 22.23 6.78662 22.2571C6.78662 22.2843 6.80856 22.3063 6.83562 22.3063Z" fill="#F5F5F5"/>
<path d="M6.68802 22.1154C6.68802 22.0703 6.65208 22.034 6.60757 22.0323C6.60581 21.9876 6.56978 21.9517 6.52468 21.9517C6.47968 21.9517 6.44344 21.9877 6.44179 22.0323C6.39717 22.0341 6.36133 22.0702 6.36133 22.1154C6.36133 22.1606 6.39727 22.1969 6.44179 22.1985C6.44354 22.2433 6.47958 22.2792 6.52468 22.2792C6.56968 22.2792 6.60591 22.2432 6.60757 22.1985C6.65218 22.1969 6.68802 22.1605 6.68802 22.1154Z" fill="#FFE15A"/>
<path d="M6.5236 22.1646C6.55066 22.1646 6.5726 22.1427 6.5726 22.1155C6.5726 22.0884 6.55066 22.0664 6.5236 22.0664C6.49655 22.0664 6.47461 22.0884 6.47461 22.1155C6.47461 22.1427 6.49655 22.1646 6.5236 22.1646Z" fill="#F5F5F5"/>
<path d="M10.2925 23.3553H11.857C11.7568 23.1259 11.5603 22.9483 11.3165 22.8761C11.3343 22.7622 11.3452 22.6357 11.3452 22.5001C11.3452 22.0275 11.2242 21.6445 11.0748 21.6445C10.9254 21.6445 10.8044 22.0276 10.8044 22.5001C10.8044 22.6356 10.8152 22.7622 10.8331 22.8761C10.5893 22.9483 10.3926 23.1259 10.2925 23.3553Z" fill="#F5F5F5"/>
<path d="M8.83895 31.0348C5.54267 31.0348 2.86084 28.3531 2.86084 25.0566H3.98877C3.98877 27.7311 6.16454 29.9067 8.83886 29.9067C11.5132 29.9067 13.6889 27.7311 13.6889 25.0566H14.8171C14.8171 28.3531 12.1354 31.0348 8.83895 31.0348Z" fill="#FFE15A"/>
<path d="M11.0539 19.7148H10.079C10.1768 19.7148 10.2562 19.6355 10.2562 19.5376C10.2562 19.4396 10.1769 19.3604 10.079 19.3604H8.83828C8.74042 19.3604 8.66103 19.4396 8.66103 19.5376C8.66103 19.6355 8.74033 19.7148 8.83828 19.7148H6.62275C6.47588 19.7148 6.35693 19.8339 6.35693 19.9807C6.35693 20.1274 6.47598 20.2465 6.62275 20.2465H7.42031C7.32246 20.2465 7.24316 20.3258 7.24316 20.4237C7.24316 20.5216 7.32246 20.601 7.42041 20.601H9.01562C9.11347 20.601 9.19286 20.5217 9.19286 20.4237C9.19286 20.3259 9.11357 20.2465 9.01572 20.2465H11.054C11.2009 20.2465 11.3198 20.1274 11.3198 19.9807C11.3198 19.8339 11.2008 19.7148 11.0539 19.7148Z" fill="#C87878"/>
</g>
<defs>
<clipPath id="clip0_106_17620">
<rect width="50" height="50" fill="white"/>
</clipPath>
</defs>
</svg>
