<svg width="50" height="50" viewBox="0 0 50 50" fill="none" xmlns="http://www.w3.org/2000/svg">
<g clip-path="url(#clip0_106_17597)">
<path d="M49.9999 19.5402H0V9.48271C0 9.00664 0.386034 8.62061 0.862108 8.62061H49.1379C49.614 8.62061 50 9.00664 50 9.48271L49.9999 19.5402Z" fill="#F5F5F5"/>
<path d="M49.1378 41.3795H0.862108C0.386034 41.3795 0 40.9934 0 40.5174V30.46H49.9999V40.5174C49.9999 40.9935 49.6139 41.3795 49.1378 41.3795Z" fill="#FF4B55"/>
<path d="M49.9999 19.54H0V30.459H49.9999V19.54Z" fill="#41479B"/>
<path d="M16.7982 15.3684C16.7982 15.3684 16.6246 20.8985 15.8486 22.4514C14.8881 24.3601 13.9224 24.9169 12.4855 25.4314C11.0489 24.917 10.0832 24.3606 9.12246 22.4514C8.34658 20.8984 8.17275 15.369 8.17285 15.3684C10.9147 14.1304 14.0563 14.1304 16.7982 15.3684Z" fill="#41479B"/>
<path d="M13.7335 23.0365C13.6284 22.9691 13.5526 22.9209 13.3802 22.9209C13.2082 22.9209 13.1324 22.969 13.0278 23.0365C12.908 23.1128 12.759 23.2083 12.4819 23.2083C12.2047 23.2083 12.0557 23.1128 11.9358 23.0361C11.8312 22.9692 11.7557 22.9211 11.5837 22.9211C11.4117 22.9211 11.3361 22.9692 11.2315 23.0361C11.1184 23.1087 10.9753 23.1951 10.7266 23.2048C11.2502 23.8433 11.7991 24.1462 12.4842 24.4092C13.1689 24.1461 13.7178 23.8435 14.2414 23.205C13.9909 23.1959 13.8471 23.1089 13.7335 23.0365Z" fill="#F5F5F5"/>
<path d="M10.3342 22.0152C10.4388 22.0821 10.5142 22.1303 10.6855 22.1303C10.8575 22.1303 10.9331 22.0821 11.0377 22.0152C11.1575 21.9385 11.3065 21.8431 11.5836 21.8431C11.8606 21.8431 12.0097 21.9386 12.1295 22.0148C12.2341 22.0822 12.3099 22.1305 12.4818 22.1305C12.6538 22.1305 12.7294 22.0823 12.834 22.0154C12.9538 21.9387 13.1028 21.8433 13.3801 21.8433C13.6575 21.8433 13.8068 21.9388 13.9267 22.015C14.0317 22.0824 14.1072 22.1307 14.2798 22.1307C14.4523 22.1307 14.528 22.0825 14.6331 22.015C14.7332 21.9513 14.8589 21.8774 15.0579 21.8538C15.11 21.7181 15.1607 21.5633 15.2079 21.3753L13.9218 19.2317L13.4426 20.1901L12.4842 18.2734L11.5258 20.1901L11.0466 19.2317L9.76123 21.374C9.8082 21.5619 9.85879 21.7174 9.91104 21.854C10.1093 21.8773 10.2344 21.9512 10.3342 22.0152Z" fill="#F5F5F5"/>
<path d="M14.8252 22.3178C14.7054 22.394 14.5561 22.4895 14.2786 22.4895C14.0014 22.4895 13.8521 22.394 13.7323 22.3178C13.6272 22.2504 13.5515 22.2021 13.379 22.2021C13.207 22.2021 13.1312 22.2503 13.0267 22.3178C12.9068 22.394 12.7578 22.4895 12.4808 22.4895C12.2035 22.4895 12.0545 22.394 11.9347 22.3174C11.8301 22.2505 11.7545 22.2023 11.5825 22.2023C11.4105 22.2023 11.335 22.2505 11.2304 22.3174C11.1105 22.3941 10.9615 22.4895 10.6845 22.4895C10.4076 22.4895 10.2588 22.394 10.1394 22.3174C10.1388 22.3171 10.1383 22.3167 10.1377 22.3163C10.2316 22.4868 10.3255 22.6434 10.419 22.7854C10.489 22.8237 10.5621 22.8489 10.6845 22.8489C10.8564 22.8489 10.932 22.8008 11.0366 22.7339C11.1564 22.6571 11.3055 22.5617 11.5825 22.5617C11.8596 22.5617 12.0086 22.6572 12.1284 22.7335C12.233 22.8009 12.3088 22.8491 12.4808 22.8491C12.6527 22.8491 12.7283 22.801 12.8329 22.7341C12.9527 22.6573 13.1018 22.5619 13.379 22.5619C13.6564 22.5619 13.8058 22.6574 13.9256 22.7337C14.0307 22.8011 14.1061 22.8493 14.2787 22.8493C14.4029 22.8493 14.4767 22.8237 14.5476 22.7846C14.6411 22.6428 14.735 22.4862 14.8288 22.3159C14.8275 22.3164 14.8265 22.3171 14.8252 22.3178Z" fill="#F5F5F5"/>
<path d="M12.5053 16.6234L12.5894 16.8982L12.8693 16.8336C12.8883 16.8292 12.9016 16.8522 12.8883 16.8663L12.6924 17.0766L12.8883 17.2868C12.9016 17.3011 12.8884 17.324 12.8693 17.3196L12.5894 17.255L12.5053 17.5298C12.4996 17.5485 12.4732 17.5485 12.4675 17.5298L12.3834 17.255L12.1034 17.3196C12.0845 17.3239 12.0712 17.301 12.0845 17.2868L12.2804 17.0766L12.0845 16.8663C12.0712 16.8521 12.0844 16.8291 12.1034 16.8336L12.3834 16.8982L12.4675 16.6234C12.4733 16.6047 12.4996 16.6047 12.5053 16.6234Z" fill="#FFE15A"/>
<path d="M11.1274 15.3031L11.2114 15.5779L11.4914 15.5133C11.5104 15.5089 11.5236 15.5319 11.5104 15.546L11.3145 15.7563L11.5104 15.9665C11.5236 15.9808 11.5105 16.0037 11.4914 15.9992L11.2114 15.9347L11.1274 16.2095C11.1217 16.2281 11.0952 16.2281 11.0896 16.2095L11.0055 15.9347L10.7255 15.9992C10.7066 16.0036 10.6933 15.9807 10.7066 15.9665L10.9025 15.7563L10.7066 15.546C10.6933 15.5318 10.7065 15.5088 10.7255 15.5133L11.0055 15.5779L11.0896 15.3031C11.0952 15.2844 11.1216 15.2844 11.1274 15.3031Z" fill="#FFE15A"/>
<path d="M13.893 15.3031L13.9771 15.5779L14.257 15.5133C14.276 15.5089 14.2893 15.5319 14.276 15.546L14.0801 15.7563L14.276 15.9665C14.2893 15.9808 14.2761 16.0037 14.257 15.9992L13.9771 15.9347L13.893 16.2095C13.8873 16.2281 13.8609 16.2281 13.8552 16.2095L13.7711 15.9347L13.4911 15.9992C13.4722 16.0036 13.4589 15.9807 13.4722 15.9665L13.6681 15.7563L13.4722 15.546C13.4589 15.5318 13.4721 15.5088 13.4911 15.5133L13.7711 15.5779L13.8552 15.3031C13.861 15.2844 13.8873 15.2844 13.893 15.3031Z" fill="#FFE15A"/>
<path d="M16.3019 15.1602C16.3049 15.313 16.3073 15.4672 16.3073 15.6337C16.2382 17.3626 15.9809 21.1276 15.4204 22.2616C14.5939 23.9214 13.8308 24.47 12.4853 24.9756C11.1398 24.4701 10.3769 23.9216 9.55097 22.2629C8.98838 21.1246 8.7293 17.2955 8.66318 15.6338C8.66318 15.4671 8.66592 15.3146 8.66826 15.1605C8.50244 15.2255 8.3376 15.2941 8.17432 15.3679C8.18584 15.7036 8.26943 17.9061 8.52051 19.8428C8.66211 20.9239 8.85703 21.9203 9.12236 22.4515C10.083 24.3606 11.0487 24.9171 12.4854 25.4314C13.9223 24.9169 14.8879 24.3602 15.8486 22.4515C16.114 21.9203 16.3089 20.9239 16.4506 19.8428C16.7015 17.9061 16.785 15.7036 16.7967 15.3679C16.6331 15.2939 16.4681 15.2251 16.3019 15.1602Z" fill="#FF1722"/>
</g>
<defs>
<clipPath id="clip0_106_17597">
<rect width="50" height="50" fill="white"/>
</clipPath>
</defs>
</svg>
