<svg width="50" height="50" viewBox="0 0 50 50" fill="none" xmlns="http://www.w3.org/2000/svg">
<g clip-path="url(#clip0_106_17587)">
<path d="M49.1388 41.3792H0.863084C0.387011 41.3792 0.000976562 40.9932 0.000976562 40.5171V9.48271C0.000976562 9.00664 0.387011 8.62061 0.863084 8.62061H49.1389C49.6149 8.62061 50.001 9.00664 50.001 9.48271V40.5171C50.0009 40.9933 49.6148 41.3792 49.1388 41.3792Z" fill="#41479B"/>
<path d="M49.6828 8.8291L0.318848 41.1708C0.468261 41.2953 0.65332 41.3792 0.86289 41.3792H49.1387C49.6148 41.3792 50.0008 40.9932 50.0008 40.5171V9.48271C50.0008 9.21631 49.8728 8.98711 49.6828 8.8291Z" fill="#73AF00"/>
<path d="M50.0009 9.48271C50.0009 9.00664 49.6148 8.62061 49.1388 8.62061H47.6408L0.000976562 39.833V40.5172C0.000976562 40.9933 0.387011 41.3793 0.863084 41.3793H2.36103L50.0009 10.1669V9.48271Z" fill="#FFE15A"/>
<path d="M4.33874 11.3066L3.87722 12.6903L2.41863 12.7016C2.27879 12.7027 2.22078 12.8812 2.33328 12.9643L3.50662 13.8308L3.06667 15.2215C3.02439 15.3549 3.17634 15.4652 3.29021 15.3839L4.47693 14.5358L5.66364 15.3839C5.77741 15.4653 5.92927 15.3549 5.88718 15.2215L5.44724 13.8308L6.62057 12.9643C6.73307 12.8812 6.67507 12.7027 6.53522 12.7016L5.07663 12.6903L4.61511 11.3066C4.57077 11.1739 4.38308 11.1739 4.33874 11.3066Z" fill="#F5F5F5"/>
<path d="M15.4501 11.3066L14.9885 12.6903L13.53 12.7016C13.3901 12.7027 13.3321 12.8812 13.4446 12.9643L14.6179 13.8308L14.178 15.2215C14.1357 15.3549 14.2877 15.4652 14.4015 15.3839L15.5883 14.5358L16.775 15.3839C16.8887 15.4653 17.0406 15.3549 16.9985 15.2215L16.5586 13.8308L17.7319 12.9643C17.8444 12.8812 17.7864 12.7027 17.6465 12.7016L16.188 12.6903L15.7264 11.3066C15.682 11.1739 15.4943 11.1739 15.4501 11.3066Z" fill="#F5F5F5"/>
<path d="M9.89441 16.2577L9.43288 17.6414L7.97429 17.6528C7.83445 17.6538 7.77644 17.8323 7.88894 17.9155L9.06228 18.782L8.62234 20.1727C8.58005 20.3061 8.73201 20.4163 8.84587 20.3351L10.0326 19.4869L11.2193 20.3351C11.3331 20.4164 11.4849 20.3061 11.4428 20.1727L11.0029 18.782L12.1762 17.9155C12.2887 17.8323 12.2307 17.6538 12.0909 17.6528L10.6323 17.6414L10.1708 16.2577C10.1262 16.125 9.93865 16.125 9.89441 16.2577Z" fill="#F5F5F5"/>
<path d="M4.33874 21.2084L3.87722 22.5921L2.41863 22.6034C2.27879 22.6045 2.22078 22.783 2.33328 22.8661L3.50662 23.7326L3.06667 25.1234C3.02439 25.2568 3.17634 25.367 3.29021 25.2858L4.47693 24.4376L5.66364 25.2858C5.77741 25.3671 5.92927 25.2568 5.88718 25.1234L5.44724 23.7326L6.62057 22.8661C6.73307 22.783 6.67507 22.6045 6.53522 22.6034L5.07663 22.5921L4.61511 21.2084C4.57077 21.0757 4.38308 21.0757 4.33874 21.2084Z" fill="#F5F5F5"/>
<path d="M15.4501 21.2084L14.9885 22.5921L13.53 22.6034C13.3901 22.6045 13.3321 22.783 13.4446 22.8661L14.6179 23.7326L14.178 25.1234C14.1357 25.2568 14.2877 25.367 14.4015 25.2858L15.5883 24.4376L16.775 25.2858C16.8887 25.3671 17.0406 25.2568 16.9985 25.1234L16.5586 23.7326L17.7319 22.8661C17.8444 22.783 17.7864 22.6045 17.6465 22.6034L16.188 22.5921L15.7264 21.2084C15.682 21.0757 15.4943 21.0757 15.4501 21.2084Z" fill="#F5F5F5"/>
</g>
<defs>
<clipPath id="clip0_106_17587">
<rect width="50" height="50" fill="white"/>
</clipPath>
</defs>
</svg>
