<svg width="50" height="50" viewBox="0 0 50 50" fill="none" xmlns="http://www.w3.org/2000/svg">
<g clip-path="url(#clip0_106_17554)">
<path d="M50.0014 19.5402H0.00146484V9.48271C0.00146484 9.00664 0.387499 8.62061 0.863573 8.62061H49.1394C49.6154 8.62061 50.0015 9.00664 50.0015 9.48271L50.0014 19.5402Z" fill="#73AF00"/>
<path d="M49.1393 41.3795H0.863573C0.387499 41.3795 0.00146484 40.9934 0.00146484 40.5174V30.46H50.0014V40.5174C50.0014 40.9935 49.6153 41.3795 49.1393 41.3795Z" fill="#FF4B55"/>
<path d="M50.0014 19.54H0.00146484V30.459H50.0014V19.54Z" fill="#F5F5F5"/>
<path d="M25.2182 22.5086L25.756 24.1212L27.4559 24.1343C27.6759 24.1361 27.7672 24.4169 27.5902 24.5476L26.2227 25.5574L26.7354 27.1782C26.8018 27.3879 26.5628 27.5616 26.3837 27.4335L25.0007 26.4452L23.6177 27.4336C23.4386 27.5617 23.1998 27.388 23.2661 27.1783L23.7788 25.5575L22.4113 24.5477C22.2342 24.417 22.3255 24.1361 22.5456 24.1344L24.2455 24.1212L24.7832 22.5087C24.8533 22.2999 25.1486 22.2999 25.2182 22.5086Z" fill="#464655"/>
<path d="M13.3291 13.0726C13.3968 13.5063 13.659 13.6424 13.887 13.6247C14.1558 13.6038 14.3915 13.358 14.3915 13.0985V11.61C14.3915 11.5354 14.4522 11.4746 14.5269 11.4746C14.6016 11.4746 14.6622 11.5354 14.6622 11.61V13.1049C14.6622 13.2847 14.751 13.4522 14.8999 13.5528C14.9908 13.6144 15.0967 13.6462 15.2033 13.6462C15.2712 13.6462 15.3395 13.6333 15.4045 13.6073L15.5397 13.5532C15.5522 14.8026 15.4762 15.9009 15.4748 15.921C15.4643 16.07 15.5765 16.1995 15.7255 16.2102C15.732 16.2108 15.7386 16.2109 15.7451 16.2109C15.8858 16.2109 16.0047 16.102 16.0148 15.9596C16.0211 15.8715 16.1045 14.669 16.0795 13.3374L16.1613 13.3048C16.2331 13.2763 16.3136 13.2797 16.3825 13.3141C16.6807 13.4626 17.0393 13.4047 17.275 13.1693L17.3238 13.1206C17.5426 12.9016 17.6177 12.5833 17.5198 12.2897L17.2894 11.5983C17.414 11.6358 17.5509 11.5806 17.611 11.4606C17.6779 11.3269 17.6237 11.1643 17.49 11.0974L16.9487 10.8267C16.8508 10.7776 16.7333 10.7926 16.6504 10.8642C16.5677 10.9361 16.5364 11.0505 16.571 11.1544L17.0064 12.4609C17.0391 12.5587 17.014 12.665 16.9411 12.7378L16.8925 12.7864C16.8219 12.857 16.7145 12.8741 16.6246 12.8298C16.4492 12.7422 16.2495 12.7257 16.0621 12.7735C16.024 11.9049 15.9306 11.0399 15.7312 10.4419C15.684 10.3002 15.531 10.2234 15.3887 10.2709C15.2469 10.318 15.1702 10.4712 15.2176 10.6132C15.4125 11.198 15.4976 12.0893 15.5277 12.9755L15.2038 13.1051V11.6102C15.2038 11.237 14.9003 10.9335 14.5272 10.9335C14.1541 10.9335 13.8505 11.2369 13.8505 11.6102V12.9203L13.5744 11.5566C13.545 11.4099 13.4023 11.3142 13.2556 11.3448C13.109 11.3747 13.0143 11.5175 13.044 11.6638L13.3291 13.0726Z" fill="#F5F5F5"/>
<path d="M13.8503 10.7978C13.9997 10.7978 14.121 10.6769 14.121 10.5271V10.2565C14.121 10.1069 13.9998 9.98584 13.8503 9.98584C13.7009 9.98584 13.5796 10.1068 13.5796 10.2565V10.5272C13.5798 10.6769 13.7009 10.7978 13.8503 10.7978Z" fill="#F5F5F5"/>
<path d="M16.5563 10.5272H16.827C16.9765 10.5272 17.0978 10.4063 17.0978 10.2565C17.0978 10.1068 16.9766 9.98584 16.827 9.98584H16.5563C16.4069 9.98584 16.2856 10.1068 16.2856 10.2565C16.2856 10.4063 16.4068 10.5272 16.5563 10.5272Z" fill="#F5F5F5"/>
<path d="M14.7937 14.084L13.4405 14.8959C13.3123 14.9729 13.2708 15.1391 13.3477 15.2672C13.3985 15.3518 13.4881 15.3986 13.5801 15.3986C13.6275 15.3986 13.6755 15.3861 13.719 15.36L15.0722 14.5481C15.2005 14.4711 15.242 14.3049 15.165 14.1768C15.0881 14.0487 14.9221 14.0071 14.7937 14.084Z" fill="#F5F5F5"/>
<path d="M18.4424 14.5629L18.4488 14.5587C18.4715 14.6502 18.5105 14.7386 18.5737 14.8129C18.6836 14.9424 18.8486 15.0075 19.0349 14.9921C19.2993 14.9728 19.4789 14.8521 19.5978 14.6962C19.6159 14.7086 19.635 14.72 19.6549 14.7299C19.8012 14.8037 19.9703 14.7981 20.1314 14.7146C20.5405 14.504 20.6286 14.0166 20.6161 13.7618C20.6088 13.6132 20.4825 13.5084 20.3342 13.5054C20.1855 13.5118 20.0699 13.6379 20.0751 13.7864C20.0752 13.7898 20.0814 14.111 19.8849 14.2301C19.8529 14.1854 19.8149 14.085 19.8006 14.002C19.7778 13.8627 19.6498 13.7657 19.5121 13.7768C19.3718 13.7879 19.2634 13.9058 19.2629 14.0466C19.2628 14.086 19.2541 14.4333 18.986 14.4624C18.9548 14.4198 18.9543 14.2406 18.9849 14.1082C19.0108 13.9996 18.9672 13.8862 18.8753 13.8227C18.7832 13.759 18.6618 13.759 18.5694 13.8216L18.4183 13.9245C18.3465 12.3549 18.1814 10.526 18.1793 10.5026C18.1659 10.3541 18.035 10.2433 17.8853 10.2576C17.7364 10.2711 17.6267 10.4027 17.6402 10.5517C17.6425 10.5767 17.8337 12.6927 17.8926 14.3088C17.8788 14.322 17.8645 14.3364 17.8509 14.3489C17.7439 14.0791 17.5318 13.9091 17.2584 13.8832C16.8728 13.8491 16.455 14.1115 16.3052 14.4863C16.1761 14.8087 16.2574 15.1256 16.5122 15.2935C16.6954 15.4143 16.9717 15.4523 17.3194 15.3304C17.2346 15.6286 17.08 15.9309 16.8791 16.1648C16.6993 16.3744 16.3989 16.6162 16.0145 16.6054C15.7908 16.5967 15.6188 16.5235 15.4889 16.3813C15.1755 16.039 15.2025 15.4195 15.2028 15.4128C15.2105 15.2638 15.0964 15.1367 14.9475 15.1285C14.7975 15.1127 14.6706 15.2345 14.6623 15.3837C14.6604 15.4181 14.6212 16.2321 15.0873 16.7441C15.3166 16.9964 15.6215 17.1316 15.9933 17.1461C16.0114 17.1469 16.0295 17.1472 16.0477 17.1472C16.5005 17.1472 16.9397 16.9252 17.2896 16.5173C17.6188 16.134 17.8423 15.6134 17.9093 15.1301C17.9084 16.056 17.3506 17.1002 16.6107 17.5603C16.2965 17.7553 15.8068 17.9314 15.2551 17.6594C14.575 17.3238 14.6561 16.5465 14.6596 16.5147C14.6783 16.3665 14.573 16.2311 14.4247 16.2127C14.277 16.1947 14.141 16.2991 14.1226 16.4476C14.1166 16.496 13.9865 17.637 15.0157 18.1447C15.28 18.2752 15.5564 18.3401 15.8351 18.3401C16.193 18.3401 16.5541 18.2331 16.8965 18.0201C17.7972 17.4603 18.4509 16.244 18.4509 15.1281C18.4513 14.954 18.448 14.7633 18.4424 14.5629ZM16.8105 14.8419C16.7622 14.8098 16.7999 14.7076 16.8081 14.6873C16.8652 14.5446 17.0434 14.4211 17.1859 14.4211C17.1931 14.4211 17.2005 14.4212 17.2077 14.4221C17.2422 14.4253 17.3341 14.4339 17.3736 14.6383C17.3778 14.66 17.3813 14.6822 17.3841 14.7049C17.0825 14.8821 16.8803 14.8877 16.8105 14.8419Z" fill="#F5F5F5"/>
<path d="M13.9868 17.3312C13.8586 17.2559 13.693 17.299 13.6168 17.4271C13.6044 17.448 13.5878 17.4708 13.5711 17.4914C13.5682 17.4845 13.5652 17.4771 13.5624 17.4692C13.4496 17.1682 13.5299 16.7044 13.5705 16.5511C13.6087 16.4067 13.5227 16.2587 13.3785 16.2201C13.2345 16.1832 13.0862 16.2672 13.0476 16.4115C13.0278 16.4847 12.8614 17.1418 13.0556 17.6593C13.1798 17.9902 13.3704 18.0737 13.5087 18.085C13.521 18.0861 13.5331 18.0867 13.5451 18.0867C13.8365 18.0867 14.0304 17.7931 14.0844 17.7001C14.159 17.571 14.1152 17.4069 13.9868 17.3312Z" fill="#F5F5F5"/>
<path d="M18.9814 12.4217C19.0398 12.4217 19.0988 12.4029 19.1483 12.3638L20.5128 11.2926C20.5316 11.2778 20.5437 11.2584 20.5574 11.2402C20.7539 11.1217 20.8869 10.9083 20.8869 10.6625C20.8869 10.2894 20.5834 9.98584 20.2103 9.98584C19.8372 9.98584 19.5336 10.2893 19.5336 10.6625C19.5336 10.8713 19.6306 11.056 19.7796 11.1801L18.8139 11.9383C18.6964 12.0306 18.676 12.2008 18.7682 12.3182C18.8217 12.3862 18.9011 12.4217 18.9814 12.4217ZM20.2104 10.527C20.2851 10.527 20.3457 10.5878 20.3457 10.6624C20.3457 10.737 20.2851 10.7978 20.2104 10.7978C20.1356 10.7978 20.075 10.737 20.075 10.6624C20.075 10.5879 20.1356 10.527 20.2104 10.527Z" fill="#F5F5F5"/>
<path d="M19.89 12.165C19.7475 12.1174 19.5948 12.1943 19.5476 12.336C19.5185 12.4226 19.3878 12.8691 19.653 13.1341C19.7559 13.2372 19.8913 13.2887 20.0574 13.2884C20.1684 13.2884 20.2932 13.2656 20.4312 13.2195C20.573 13.1724 20.6497 13.0192 20.6023 12.8772C20.5551 12.7355 20.402 12.6583 20.2599 12.7062C20.1087 12.7564 20.0446 12.7482 20.039 12.7534C20.023 12.7132 20.0336 12.5924 20.0612 12.506C20.1081 12.3647 20.0314 12.212 19.89 12.165Z" fill="#F5F5F5"/>
<path d="M22.9878 11.0463C23.0131 11.0537 23.0387 11.0572 23.0638 11.0572C23.1811 11.0572 23.289 10.9805 23.3234 10.8623L23.4814 10.321C23.5233 10.1775 23.4409 10.0272 23.2975 9.98539C23.1535 9.94389 23.0037 10.0258 22.9618 10.1694L22.8039 10.7107C22.7619 10.854 22.8445 11.0045 22.9878 11.0463Z" fill="#F5F5F5"/>
<path d="M21.4098 11.0144C21.4528 11.0395 21.4998 11.0514 21.5463 11.0514C21.6392 11.0514 21.7298 11.0035 21.7802 10.9173C21.8556 10.7883 21.8123 10.6223 21.6833 10.5471C21.6289 10.5154 21.6362 10.4258 21.6383 10.4081C21.6464 10.337 21.6886 10.2504 21.7625 10.2272C21.9051 10.1828 21.9849 10.0311 21.9405 9.88846C21.8958 9.74549 21.7444 9.66649 21.6015 9.71034C21.3317 9.79442 21.135 10.0441 21.1005 10.3466C21.0681 10.628 21.1868 10.884 21.4098 11.0144Z" fill="#F5F5F5"/>
<path d="M19.2629 15.3989C19.1135 15.3989 18.9922 15.5199 18.9922 15.6696C18.9922 15.8018 19.0868 15.9117 19.2121 15.9354C19.2264 15.9563 19.2629 16.0279 19.2629 16.2108C19.2629 16.3604 19.3841 16.4815 19.5336 16.4815C19.6831 16.4815 19.8043 16.3605 19.8043 16.2108C19.8042 15.4082 19.285 15.3989 19.2629 15.3989Z" fill="#F5F5F5"/>
<path d="M23.8552 14.2779C23.8892 14.2835 23.923 14.2861 23.957 14.2861C24.1696 14.2861 24.3844 14.1788 24.5973 13.9661C24.703 13.8604 24.703 13.6891 24.5973 13.5834C24.4916 13.4777 24.3204 13.4777 24.2146 13.5834C24.0528 13.7455 23.9657 13.7488 23.9433 13.7438C23.8916 13.7364 23.8448 13.669 23.8343 13.6505C23.7665 13.5189 23.6054 13.4662 23.4729 13.5326C23.3392 13.5995 23.285 13.762 23.3519 13.8958C23.3686 13.9294 23.5249 14.2243 23.8552 14.2779Z" fill="#F5F5F5"/>
<path d="M28.4552 12.3764C28.4535 12.3722 28.4519 12.3682 28.4506 12.3646C28.4027 12.224 28.2494 12.1476 28.109 12.1954C27.9671 12.2425 27.8905 12.3957 27.9378 12.5377C27.9589 12.6012 28.0795 12.9194 28.3782 12.9596C28.3981 12.9623 28.4179 12.9636 28.4376 12.9636C28.6251 12.9636 28.801 12.8423 28.9612 12.6023C29.0441 12.4781 29.0104 12.3099 28.8861 12.227C28.7617 12.1443 28.5935 12.1776 28.5108 12.3021C28.4892 12.3339 28.4707 12.3582 28.4552 12.3764Z" fill="#F5F5F5"/>
<path d="M27.9239 17.2935C27.9239 16.1393 27.8731 15.0566 27.8028 14.108C28.1872 14.7745 28.5329 15.4479 28.7531 16.0354C28.7939 16.144 28.8971 16.211 29.0065 16.211C29.0381 16.211 29.0702 16.2055 29.1015 16.1939C29.2415 16.1414 29.3124 15.9854 29.2599 15.8453C28.9174 14.932 28.3016 13.8444 27.6947 12.8789C27.5468 11.4209 27.3811 10.4956 27.3781 10.4791C27.3514 10.3319 27.2107 10.2325 27.0635 10.2613C26.9164 10.2881 26.8188 10.4289 26.8456 10.5759C26.8477 10.5876 26.9331 11.0643 27.035 11.8666C26.827 11.5581 26.6339 11.2797 26.4717 11.0506L26.485 11.0548C26.6275 11.1023 26.78 11.0255 26.8274 10.8838C26.8747 10.7419 26.7981 10.5886 26.6563 10.5415L25.8444 10.2708C25.7318 10.2327 25.6082 10.2729 25.5392 10.369C25.5208 10.3947 25.5081 10.4228 25.4997 10.452C25.3376 10.3322 25.1299 10.235 24.9349 10.3165C24.8169 10.3654 24.6763 10.4886 24.6763 10.798C24.6763 11.0356 24.7669 11.2926 24.863 11.5647C25.0224 12.0161 25.1222 12.3481 24.9534 12.5064C24.8601 12.5939 24.767 12.6269 24.6761 12.604C24.5092 12.5617 24.3439 12.3394 24.234 12.0093C24.2292 11.9949 24.2192 11.9846 24.2124 11.9717C24.2693 11.5523 24.2445 11.0474 24.1299 10.4743C24.1007 10.3276 23.9584 10.2322 23.8113 10.262C23.6647 10.2913 23.5697 10.4338 23.599 10.5806C23.7758 11.4643 23.7227 12.1854 23.4572 12.5092C23.3545 12.6345 23.226 12.6926 23.0524 12.6926C22.9976 12.6926 22.9602 12.6751 22.9229 12.6323C22.7094 12.3862 22.7103 11.5923 22.7792 11.1068C22.7902 11.0294 22.7669 10.9506 22.7155 10.8914C22.6642 10.8322 22.5895 10.798 22.5112 10.798C22.0455 10.798 21.8689 11.3276 21.7132 11.795C21.6448 12.0004 21.5175 12.3823 21.4287 12.422C21.2648 12.422 21.159 11.9409 21.158 11.6098C21.1576 11.4604 21.0365 11.3396 20.8873 11.3396H20.8869C20.7376 11.3396 20.6167 11.4606 20.6167 11.6101C20.6167 12.2343 20.8293 12.9633 21.4286 12.9633C21.8748 12.9633 22.0557 12.4769 22.2069 12.025C22.2332 12.3845 22.3144 12.7569 22.514 12.9868C22.6542 13.1485 22.8403 13.2339 23.0524 13.2339C23.3865 13.2339 23.6712 13.1019 23.8757 12.8525C23.9128 12.8074 23.9446 12.7556 23.9763 12.7032C24.1335 12.9266 24.3262 13.0739 24.5434 13.1288C24.607 13.145 24.6712 13.1531 24.7347 13.1531C24.9436 13.1531 25.1478 13.0669 25.3241 12.9013C25.3607 12.8668 25.3866 12.8292 25.4145 12.7921C25.4808 12.811 25.5478 12.8223 25.6144 12.8223C25.8338 12.8223 26.0447 12.734 26.1757 12.65C26.301 12.5696 26.3372 12.4037 26.2576 12.2779C26.1778 12.1523 26.0111 12.1148 25.885 12.1936C25.8827 12.1947 25.7018 12.2986 25.5786 12.2742C25.5789 11.9775 25.4716 11.6624 25.3735 11.3848C25.3177 11.2267 25.2604 11.0647 25.2336 10.9323C25.2559 10.9511 25.2777 10.9707 25.2972 10.9896C25.4026 11.0953 25.574 11.0953 25.6797 10.9896C25.6972 10.9722 25.7072 10.951 25.719 10.9305C25.9996 11.317 26.5766 12.1291 27.1701 13.0652C27.2834 14.2159 27.3829 15.6839 27.3829 17.2937C27.3829 17.4433 27.5041 17.5644 27.6536 17.5644C27.8027 17.5641 27.9239 17.443 27.9239 17.2935Z" fill="#F5F5F5"/>
<path d="M28.1945 11.3392C28.1945 11.4889 28.3157 11.61 28.4652 11.61C28.6146 11.61 28.7359 11.489 28.7359 11.3392C28.7359 11.0207 28.4867 10.5061 28.4367 10.4062C28.3698 10.2727 28.2074 10.2188 28.0735 10.2852C27.9398 10.3521 27.8856 10.5146 27.9525 10.6484C28.05 10.8436 28.1945 11.198 28.1945 11.3392Z" fill="#F5F5F5"/>
<path d="M26.9632 17.323C26.8306 17.2553 26.6674 17.309 26.6 17.4421C26.5708 17.4989 26.5258 17.5621 26.4877 17.6027C26.4756 17.4952 26.5044 17.2803 26.5589 17.1022C26.5953 16.9832 26.546 16.8547 26.4394 16.7908C26.3333 16.7266 26.1965 16.7433 26.1088 16.8313L25.5675 17.3726C25.4619 17.4782 25.4619 17.6495 25.5675 17.7553C25.6732 17.8611 25.8445 17.8609 25.9502 17.7553L25.964 17.7415C25.9874 17.8501 26.0322 17.9492 26.1088 18.0259C26.2103 18.1274 26.333 18.1811 26.4605 18.1811C26.4852 18.1811 26.5101 18.1789 26.5348 18.175C26.8414 18.1253 27.0323 17.7873 27.0835 17.6851C27.1502 17.5517 27.0963 17.3901 26.9632 17.323Z" fill="#F5F5F5"/>
<path d="M26.8582 15.1452H24.9508C24.9677 15.0778 24.9851 15.0137 25.0028 14.9526C25.7635 14.7944 26.2155 14.549 26.3485 14.2212C26.3945 14.1075 26.4425 13.8778 26.2468 13.6139C26.0704 13.3761 25.8212 13.2693 25.5626 13.3221C25.178 13.4001 24.8353 13.8145 24.5894 14.4779C23.8255 14.6088 23.3363 14.883 23.0268 15.1537C22.917 14.0446 22.4863 13.3859 22.4655 13.3545C22.3825 13.2301 22.2145 13.1964 22.0902 13.2794C21.9659 13.3624 21.9323 13.5303 22.0151 13.6547C22.02 13.6621 22.5109 14.413 22.5109 15.6697C22.5109 16.9051 21.5259 17.835 20.887 17.835C20.5831 17.835 20.4502 17.4737 20.3916 17.1684C21.017 16.73 21.5689 16.2228 21.6908 15.7354C21.8558 15.0759 21.6481 14.5899 21.5108 14.2683C21.5044 14.2535 21.4976 14.2376 21.4908 14.2212C21.4967 14.2265 21.5021 14.232 21.5077 14.2374C21.6132 14.3431 21.7846 14.3431 21.8902 14.2374C21.9959 14.1318 21.9959 13.9605 21.8902 13.8547C21.732 13.6964 21.4248 13.4477 21.1455 13.5645C21.0275 13.6134 20.8869 13.7365 20.8869 14.046C20.8869 14.1859 20.9453 14.3225 21.013 14.4811C21.1349 14.7663 21.2863 15.1213 21.1655 15.6043C21.094 15.8901 20.7429 16.237 20.2797 16.5814C20.23 16.522 20.1582 16.482 20.0749 16.482H20.0745C19.9252 16.4822 19.8043 16.603 19.8043 16.7525C19.8043 16.8012 19.8064 16.8532 19.8096 16.9067C19.2304 17.2817 18.575 17.6289 18.0683 17.8595C17.9322 17.9213 17.8722 18.0817 17.934 18.2179C17.9794 18.3176 18.0776 18.3765 18.1805 18.3765C18.218 18.3765 18.2561 18.3689 18.2923 18.3522C18.4444 18.283 19.1667 17.9465 19.9088 17.4866C20.0454 17.9506 20.335 18.3765 20.8869 18.3765C21.5361 18.3765 22.2728 17.8455 22.6978 17.0528C22.749 17.1435 22.8081 17.2302 22.8783 17.3112C23.5596 18.0968 24.8901 18.1058 24.9465 18.1058C25.0923 18.1058 25.2117 17.9905 25.217 17.8449C25.2222 17.6993 25.1111 17.5756 24.9659 17.5653C24.9638 17.5651 24.7481 17.5413 24.6281 17.4012C24.5557 17.3166 24.5268 17.2003 24.5395 17.0457C24.5674 16.7122 25.6431 16.463 26.5914 16.4481C26.7045 16.4462 26.8045 16.3745 26.8424 16.2681L27.1131 15.5068C27.1425 15.4241 27.1299 15.3319 27.0791 15.2603C27.0287 15.1881 26.9461 15.1452 26.8582 15.1452ZM25.6701 13.8528C25.6753 13.8518 25.6822 13.8501 25.6907 13.8501C25.7166 13.8501 25.7574 13.8628 25.8119 13.9363C25.8223 13.9501 25.8552 13.9971 25.8469 14.0177C25.8158 14.0944 25.629 14.2209 25.2396 14.3357C25.4108 14.0017 25.5783 13.8712 25.6701 13.8528ZM24.0357 17.4106C23.7607 17.3212 23.4806 17.1795 23.2866 16.9552C23.0734 16.7086 22.9947 16.3967 23.0463 16.0021C23.054 15.9814 23.0717 15.9404 23.1027 15.8873C23.4839 15.8524 24.5019 16.0026 24.5726 16.2943C24.2586 16.4546 24.0271 16.6799 24.0005 17.0004C23.9871 17.1611 24.0034 17.2972 24.0357 17.4106Z" fill="#F5F5F5"/>
<path d="M29.8047 11.2534L29.534 10.4415C29.4904 10.3109 29.3549 10.233 29.2207 10.2626C29.0857 10.2914 28.9942 10.4169 29.008 10.5541C29.1947 12.4217 29.5479 16.0638 29.5479 16.4813C29.5479 16.8563 28.8808 17.5948 27.803 18.1338C27.6693 18.2007 27.6151 18.3632 27.682 18.497C27.7294 18.5919 27.8249 18.6466 27.9244 18.6466C27.9649 18.6466 28.0063 18.6373 28.0452 18.6181C29.0296 18.1257 30.0892 17.2472 30.0892 16.4814C30.0892 16.0815 29.8125 13.2043 29.6541 11.5882C29.7828 11.5332 29.8497 11.3881 29.8047 11.2534Z" fill="#F5F5F5"/>
<path d="M32.0631 13.6955C32.1152 13.7476 32.1844 13.7748 32.2546 13.7748C32.3003 13.7748 32.3464 13.7632 32.3883 13.7394C32.4942 13.6791 32.5467 13.5554 32.5167 13.4373C32.4682 13.247 32.4521 13.0092 32.4778 12.9119C32.6133 12.9161 32.7392 12.8197 32.7591 12.6798C32.7802 12.5318 32.6775 12.3946 32.5296 12.3735C32.3506 12.3492 32.1935 12.4017 32.0837 12.5239C32.0126 12.6032 31.9704 12.7049 31.9473 12.8144L31.6338 12.5009C31.5282 12.3953 31.3569 12.3953 31.2511 12.5009C31.1455 12.6066 31.1455 12.7779 31.2511 12.8836L32.0631 13.6955Z" fill="#F5F5F5"/>
<path d="M32.6714 13.9778L31.6565 14.7051C31.535 14.792 31.5071 14.9613 31.5941 15.0829C31.647 15.1566 31.7301 15.1957 31.8143 15.1957C31.8689 15.1957 31.924 15.1793 31.9717 15.1449L32.9867 14.4175C33.1082 14.3306 33.1361 14.1614 33.0491 14.0398C32.9619 13.9184 32.7924 13.8901 32.6714 13.9778Z" fill="#F5F5F5"/>
<path d="M32.5819 14.9957C32.4967 15.1054 32.5089 15.2596 32.6056 15.3547C32.6172 15.3743 32.67 15.4778 32.6605 15.7442C32.6552 15.8938 32.772 16.0191 32.9213 16.0244C32.9247 16.0246 32.9279 16.0246 32.9311 16.0246C33.0762 16.0246 33.1961 15.9096 33.2015 15.7637C33.2212 15.2114 33.0404 15.0095 32.9618 14.9483C32.844 14.8561 32.6737 14.8778 32.5819 14.9957Z" fill="#F5F5F5"/>
<path d="M34.944 16.9885C35.0934 16.9885 35.2147 16.8675 35.2147 16.7178C35.2147 16.3185 35.1942 15.8727 35.1606 15.4088C35.4289 15.8486 35.6519 16.2539 35.7949 16.5874C35.8387 16.6903 35.9386 16.7516 36.0437 16.7516C36.0792 16.7516 36.1155 16.7447 36.1501 16.7296C36.2874 16.6706 36.3511 16.5117 36.2921 16.3745C36.0444 15.7962 35.5813 15.0303 35.0539 14.2394C34.9477 13.2459 34.809 12.2727 34.7013 11.5745C34.7586 11.5803 34.8181 11.5663 34.8704 11.5325C34.9558 11.4777 34.9959 11.3826 34.9902 11.2879C34.9971 11.3146 35.0046 11.3413 35.0202 11.3658C35.022 11.3685 35.1959 11.6557 35.1188 12.0284C35.0885 12.1745 35.1826 12.3178 35.329 12.3482C35.3476 12.3519 35.366 12.3538 35.3841 12.3538C35.5098 12.3538 35.6224 12.2657 35.649 12.1378C35.7711 11.5465 35.4889 11.0941 35.4769 11.0751C35.3965 10.9493 35.2292 10.9124 35.1032 10.9921C35.0173 11.0469 34.9768 11.142 34.9824 11.2369C34.9753 11.2101 34.9676 11.1832 34.9519 11.1586L34.4953 10.4482C34.4254 10.3398 34.289 10.2959 34.1691 10.3425C34.049 10.3896 33.9787 10.5146 34.001 10.6415C34.0048 10.6626 34.2116 11.8504 34.395 13.2819C34.1874 12.9889 33.98 12.7024 33.7788 12.429C33.746 12.0195 33.7132 11.6409 33.6849 11.3279C33.6998 11.3234 33.7145 11.3175 33.7289 11.3104C33.8625 11.2435 33.9167 11.081 33.8498 10.9472L33.5791 10.4059C33.5207 10.2891 33.3874 10.2309 33.2619 10.2669C33.1365 10.3034 33.0547 10.424 33.0677 10.5541C33.1 10.877 33.1335 11.2346 33.1666 11.6102C32.9955 11.3845 32.8371 11.178 32.7016 11.0031C32.728 10.9803 32.7506 10.9521 32.7672 10.9188C32.8341 10.7851 32.7799 10.6225 32.6462 10.5556L32.1049 10.2849C31.9915 10.2284 31.8536 10.258 31.7734 10.3568C31.6935 10.4556 31.6932 10.5967 31.7726 10.6961C31.7873 10.7143 32.4536 11.5497 33.2507 12.6279C33.389 14.4162 33.481 16.2762 33.351 16.6662C33.3272 16.7375 33.2857 16.8216 33.2467 16.8245C33.0832 16.8473 32.6927 16.4815 32.4966 16.0895C32.3835 15.8637 32.221 15.8403 32.1341 15.8443C31.8433 15.8622 31.7297 16.1824 31.5235 16.7632C31.3756 17.1795 31.1919 17.697 30.9857 17.9087C30.874 17.7722 30.7294 17.314 30.6492 16.8431C30.6869 16.9472 30.7843 17.0225 30.9014 17.0225C31.0508 17.0225 31.1721 16.9015 31.1721 16.7518C31.1721 16.3483 30.8898 13.2744 30.7322 11.5898C30.8637 11.5369 30.9331 11.3897 30.8876 11.2534L30.6168 10.4415C30.5733 10.3109 30.4398 10.234 30.3041 10.2623C30.1694 10.2908 30.0776 10.4158 30.0906 10.5528C30.2746 12.4834 30.6195 16.2127 30.6301 16.7276C30.6294 16.723 30.6285 16.7183 30.6279 16.7138C30.6069 16.5658 30.4687 16.4644 30.3217 16.4842C30.1737 16.5057 30.071 16.6425 30.0922 16.7906C30.1712 17.3438 30.3732 18.295 30.8383 18.4498C30.8751 18.4622 30.9246 18.4734 30.9825 18.4734C31.0891 18.4734 31.2248 18.4356 31.3633 18.2969C31.6582 18.0022 31.8576 17.4404 32.0335 16.9448C32.0733 16.8327 32.1204 16.7 32.1648 16.5864C32.413 16.949 32.8462 17.4003 33.2852 17.365C33.4395 17.3538 33.7203 17.2709 33.8645 16.8379C34.0084 16.4061 33.9516 14.9004 33.8545 13.4589C34.0826 13.7786 34.3108 14.1057 34.5286 14.4289C34.6129 15.2394 34.6734 16.0515 34.6734 16.7184C34.6733 16.8675 34.7945 16.9885 34.944 16.9885Z" fill="#F5F5F5"/>
<path d="M36.9975 15.5653C36.8058 14.1369 36.5387 12.4825 36.3695 11.467C36.4459 11.4858 36.5291 11.4704 36.5962 11.419C36.7152 11.3284 36.7379 11.1584 36.6472 11.0397L36.1567 10.3969C36.0809 10.2981 35.9475 10.2632 35.8332 10.3131C35.7188 10.3631 35.6536 10.4847 35.6749 10.6076C35.6797 10.6354 36.1624 13.4137 36.4609 15.6372C36.5749 16.487 36.4085 17.2463 36.0153 17.6682C35.7626 17.9391 35.4278 18.0617 35.0226 18.0382C34.8738 18.0302 34.7448 18.1423 34.7354 18.2914C34.726 18.4405 34.8393 18.5689 34.9885 18.5785C35.0342 18.5815 35.0793 18.5827 35.124 18.5827C35.6343 18.5827 36.0773 18.3955 36.4113 18.0372C36.9211 17.4898 37.1348 16.5889 36.9975 15.5653Z" fill="#F5F5F5"/>
<path d="M34.0203 17.3493C33.9209 17.4574 33.9285 17.6276 34.0336 17.7296C34.0483 17.7438 34.0659 17.7719 34.066 17.7856C34.0661 17.7932 34.0551 17.816 34.025 17.8462C33.9194 17.9518 33.9194 18.1231 34.025 18.2289C34.078 18.2818 34.1471 18.3082 34.2165 18.3082C34.2858 18.3082 34.3549 18.2818 34.4079 18.2289C34.5795 18.0573 34.611 17.8832 34.6071 17.7672C34.5988 17.5174 34.4287 17.3561 34.3947 17.3264C34.2842 17.23 34.1197 17.2416 34.0203 17.3493Z" fill="#F5F5F5"/>
</g>
<defs>
<clipPath id="clip0_106_17554">
<rect width="50" height="50" fill="white"/>
</clipPath>
</defs>
</svg>
