<svg width="50" height="50" viewBox="0 0 50 50" fill="none" xmlns="http://www.w3.org/2000/svg">
<g clip-path="url(#clip0_106_17584)">
<path d="M49.1383 41.3792H0.862596C0.386523 41.3792 0.000488281 40.9932 0.000488281 40.5171V9.48271C0.000488281 9.00664 0.386523 8.62061 0.862596 8.62061H49.1384C49.6145 8.62061 50.0005 9.00664 50.0005 9.48271V40.5171C50.0004 40.9933 49.6144 41.3792 49.1383 41.3792Z" fill="#82AFFF"/>
<path d="M24.7527 18.8911L23.3065 23.228L18.7349 23.2634C18.4842 23.2654 18.3804 23.5852 18.582 23.7341L22.2595 26.4498L20.8805 30.8084C20.8048 31.0474 21.077 31.245 21.2808 31.0992L25.0002 28.441L28.7195 31.0994C28.9234 31.2451 29.1955 31.0475 29.1198 30.8086L27.7408 26.4499L31.4184 23.7342C31.62 23.5853 31.5161 23.2655 31.2654 23.2635L26.6939 23.2281L25.2476 18.8912C25.1683 18.6535 24.8321 18.6535 24.7527 18.8911Z" fill="#F5F5F5"/>
</g>
<defs>
<clipPath id="clip0_106_17584">
<rect width="50" height="50" fill="white"/>
</clipPath>
</defs>
</svg>
