<svg width="50" height="50" viewBox="0 0 50 50" fill="none" xmlns="http://www.w3.org/2000/svg">
<g clip-path="url(#clip0_106_17523)">
<path d="M49.1393 41.3792H0.863573C0.387499 41.3792 0.00146484 40.9932 0.00146484 40.5171V9.48271C0.00146484 9.00664 0.387499 8.62061 0.863573 8.62061H49.1394C49.6154 8.62061 50.0015 9.00664 50.0015 9.48271V40.5171C50.0014 40.9933 49.6153 41.3792 49.1393 41.3792Z" fill="#F5F5F5"/>
<path d="M29.7873 17.8255C25.8261 15.1848 20.4758 16.2644 17.8368 20.2187C16.5131 22.1924 17.0511 24.8743 19.0316 26.1947C21.0106 27.5151 23.6839 26.9789 25.0043 24.9982C26.3248 23.0177 28.9998 22.4881 30.9788 23.8016C32.961 25.122 33.4941 27.8039 32.1718 29.7776C34.8126 25.8167 33.7451 20.4663 29.7873 17.8255Z" fill="#FF4B55"/>
<path d="M17.8368 20.2188C16.513 22.1925 17.0511 24.8744 19.0316 26.1948C21.0106 27.5152 23.6839 26.979 25.0043 24.9983C26.3247 23.0178 28.9998 22.4882 30.9787 23.8017C32.9609 25.1221 33.494 27.804 32.1718 29.7777C29.5345 33.7457 24.186 34.8118 20.2247 32.171C16.2671 29.5304 15.196 24.18 17.8368 20.2188Z" fill="#41479B"/>
<path d="M34.1743 14.5698L35.7402 16.9235C35.8718 17.1212 35.8185 17.3882 35.6212 17.5203L35.2241 17.7863C35.026 17.9189 34.7578 17.8656 34.6256 17.6671L33.0577 15.314C32.9258 15.1161 32.9793 14.8486 33.1772 14.7164L33.5762 14.45C33.7744 14.3177 34.0423 14.3713 34.1743 14.5698Z" fill="#464655"/>
<path d="M36.5908 18.1985L38.1618 20.5508C38.2944 20.7494 38.2402 21.0181 38.041 21.1498L37.6421 21.4134C37.4443 21.5442 37.1779 21.4904 37.0461 21.2932L35.476 18.9434C35.3438 18.7456 35.3969 18.4779 35.5949 18.3456L35.9927 18.0796C36.1907 17.9473 36.4584 18.0005 36.5908 18.1985Z" fill="#464655"/>
<path d="M35.8509 13.4508L39.8381 19.4345C39.9702 19.6325 39.9165 19.9001 39.7185 20.0322L39.3179 20.2991C39.1199 20.4313 38.8522 20.3777 38.7202 20.1796L34.7316 14.1963C34.5995 13.9982 34.6532 13.7304 34.8514 13.5985L35.2533 13.331C35.4514 13.1993 35.7189 13.2528 35.8509 13.4508Z" fill="#464655"/>
<path d="M37.5235 12.3335L39.0929 14.6918C39.2251 14.8904 39.1708 15.1586 38.9717 15.2901L38.5727 15.5538C38.3746 15.6847 38.1081 15.6308 37.9765 15.4333L36.406 13.0781C36.2738 12.8801 36.3275 12.6124 36.5255 12.4804L36.9258 12.2136C37.1237 12.0814 37.3915 12.135 37.5235 12.3335Z" fill="#464655"/>
<path d="M39.9411 15.9701L41.508 18.3235C41.6399 18.5213 41.5864 18.7885 41.3889 18.9206L40.9909 19.1867C40.7928 19.3192 40.5246 19.2657 40.3926 19.0672L38.8257 16.7138C38.694 16.516 38.7473 16.2488 38.9449 16.1166L39.3428 15.8506C39.5408 15.7181 39.809 15.7715 39.9411 15.9701Z" fill="#464655"/>
<path d="M12.9639 28.7095L16.9506 34.6867C17.0826 34.8847 17.0293 35.1523 16.8313 35.2844L16.4321 35.551C16.234 35.6832 15.9663 35.6298 15.8341 35.4316L11.8474 29.4544C11.7154 29.2565 11.7687 28.9889 11.9667 28.8568L12.3659 28.5902C12.564 28.4579 12.8318 28.5114 12.9639 28.7095Z" fill="#464655"/>
<path d="M11.2902 29.8277L12.8554 32.1755C12.9874 32.3733 12.9342 32.6404 12.7366 32.7727L12.3395 33.0385C12.1416 33.1711 11.8736 33.1178 11.7413 32.9197L10.1742 30.5725C10.042 30.3746 10.0953 30.1069 10.2933 29.9747L10.6924 29.7083C10.8903 29.5761 11.1581 29.6296 11.2902 29.8277Z" fill="#464655"/>
<path d="M13.7092 33.4578L15.2762 35.8115C15.408 36.0094 15.3546 36.2767 15.1568 36.4087L14.7586 36.6749C14.5605 36.8073 14.2926 36.7539 14.1604 36.5557L12.5924 34.2025C12.4605 34.0045 12.514 33.737 12.7117 33.6049L13.1109 33.3383C13.3092 33.2059 13.5771 33.2595 13.7092 33.4578Z" fill="#464655"/>
<path d="M9.61642 30.9454L13.6006 36.9229C13.7325 37.1208 13.6791 37.3881 13.4815 37.5204L13.0834 37.7866C12.8854 37.919 12.6175 37.8657 12.4853 37.6674L8.49874 31.6907C8.36661 31.4926 8.42023 31.225 8.61827 31.0928L9.01886 30.8258C9.21671 30.6938 9.48438 30.7473 9.61642 30.9454Z" fill="#464655"/>
<path d="M11.8482 20.5512L15.8343 14.569C15.9665 14.3708 16.2342 14.3173 16.4324 14.4495L16.8315 14.716C17.0295 14.8481 17.0828 15.1157 16.9509 15.3137L12.9632 21.2925C12.8313 21.49 12.5646 21.5437 12.3667 21.4127L11.9691 21.1495C11.7701 21.0179 11.716 20.7496 11.8482 20.5512Z" fill="#464655"/>
<path d="M10.1735 19.4346L14.1603 13.4513C14.2924 13.2531 14.5604 13.1996 14.7585 13.332L15.1567 13.5982C15.3543 13.7303 15.4076 13.9975 15.2758 14.1955L11.2901 20.179C11.1579 20.3773 10.8902 20.4309 10.692 20.2986L10.2928 20.0321C10.095 19.9 10.0415 19.6326 10.1735 19.4346Z" fill="#464655"/>
<path d="M8.49799 18.3231L12.4852 12.3338C12.6173 12.1355 12.8854 12.0819 13.0835 12.2143L13.4817 12.4805C13.6793 12.6126 13.7327 12.8796 13.601 13.0776L9.61626 19.0677C9.48432 19.266 9.21645 19.3197 9.01831 19.1876L8.61772 18.9206C8.41977 18.7886 8.36626 18.5211 8.49799 18.3231Z" fill="#464655"/>
<path d="M33.0585 34.6868L34.6256 32.3397C34.7579 32.1415 35.0259 32.0883 35.2238 32.2208L35.6209 32.4868C35.8184 32.619 35.8716 32.8862 35.7397 33.084L34.1745 35.4317C34.0424 35.6298 33.7746 35.6833 33.5765 35.5511L33.1775 35.2847C32.9796 35.1525 32.9263 34.8849 33.0585 34.6868Z" fill="#464655"/>
<path d="M35.4755 31.0686L37.0452 28.7098C37.1772 28.5116 37.445 28.4579 37.6431 28.59L38.0431 28.8566C38.2412 28.9887 38.2948 29.2566 38.1625 29.4547L36.5896 31.8097C36.4577 32.0073 36.191 32.0608 35.993 31.9296L35.5963 31.6667C35.3976 31.5349 35.3435 31.267 35.4755 31.0686Z" fill="#464655"/>
<path d="M34.7315 35.8105L36.2996 33.4572C36.4316 33.2591 36.6993 33.2055 36.8975 33.3376L37.2982 33.6049C37.4962 33.7369 37.5497 34.0043 37.4179 34.2024L35.8508 36.556C35.7188 36.7541 35.4514 36.8078 35.2531 36.6759L34.8513 36.4084C34.6532 36.2765 34.5995 36.0087 34.7315 35.8105Z" fill="#464655"/>
<path d="M37.1518 32.1742L38.7208 29.8263C38.853 29.6286 39.1204 29.5753 39.3183 29.7072L39.7189 29.9742C39.9171 30.1063 39.9706 30.3742 39.8382 30.5722L38.2693 32.9201C38.1372 33.1178 37.8697 33.1712 37.6719 33.0392L37.2712 32.7722C37.0728 32.6403 37.0194 32.3723 37.1518 32.1742Z" fill="#464655"/>
<path d="M36.4062 36.9221L37.9761 34.5729C38.1079 34.3758 38.3742 34.322 38.5721 34.4528L38.9711 34.7165C39.1702 34.8481 39.2245 35.1166 39.0921 35.3152L37.5234 37.6675C37.3914 37.8656 37.1237 37.919 36.9257 37.7871L36.5254 37.5203C36.3272 37.3881 36.2738 37.1202 36.4062 36.9221Z" fill="#464655"/>
<path d="M38.8262 33.2981L40.3921 30.9461C40.5243 30.7478 40.7923 30.6941 40.9905 30.8267L41.3881 31.0925C41.5859 31.2247 41.6391 31.4922 41.5071 31.69L39.9398 34.039C39.8081 34.2366 39.5411 34.2902 39.3431 34.159L38.9466 33.8963C38.7481 33.7646 38.6941 33.4966 38.8262 33.2981Z" fill="#464655"/>
</g>
<defs>
<clipPath id="clip0_106_17523">
<rect width="50" height="50" fill="white"/>
</clipPath>
</defs>
</svg>
