<svg width="50" height="50" viewBox="0 0 50 50" fill="none" xmlns="http://www.w3.org/2000/svg">
<g clip-path="url(#clip0_106_17546)">
<path d="M0.000488281 14.6553V35.3449L13.7936 25.0001L0.000488281 14.6553Z" fill="#464655"/>
<path d="M6.89648 8.6207L22.4138 20.6896H49.9999V9.48271C49.9999 9.00664 49.6139 8.62061 49.1378 8.62061H6.89648V8.6207Z" fill="#FF4B55"/>
<path d="M6.89648 41.3795L22.4138 29.3105H49.9999V40.5175C49.9999 40.9936 49.6139 41.3796 49.1378 41.3796H6.89648V41.3795Z" fill="#41479B"/>
<path d="M5.55605 8.62061H0.862598C0.386523 8.62061 0.000488281 9.00654 0.000488281 9.48262V13.0188L15.1347 24.9999L0.000488281 36.9814V40.5171C0.000488281 40.9932 0.386523 41.3792 0.862598 41.3792H5.55557L21.8898 28.4481H50.0005V21.5517H21.8899L5.55605 8.62061Z" fill="#73AF00"/>
<path d="M8.3334 8.62061H5.55566L21.8896 21.5517H50.0001V19.8274H22.4895L8.3334 8.62061Z" fill="#F5F5F5"/>
<path d="M0.000488281 13.019V15.2181L12.3569 25.0002L0.000488281 34.7827V36.9816L15.1347 25.0002L0.000488281 13.019Z" fill="#FFE15A"/>
<path d="M21.8899 28.4482L5.55566 41.3793H8.3335L22.4897 30.1725H50.0006V28.4482H21.8899Z" fill="#F5F5F5"/>
</g>
<defs>
<clipPath id="clip0_106_17546">
<rect width="50" height="50" fill="white"/>
</clipPath>
</defs>
</svg>
