<svg width="50" height="50" viewBox="0 0 50 50" fill="none" xmlns="http://www.w3.org/2000/svg">
<g clip-path="url(#clip0_106_17513)">
<path d="M50.0004 19.5402H0.000488281V9.48271C0.000488281 9.00664 0.386523 8.62061 0.862596 8.62061H49.1384C49.6145 8.62061 50.0005 9.00664 50.0005 9.48271L50.0004 19.5402Z" fill="#464655"/>
<path d="M49.1383 41.3795H0.862596C0.386523 41.3795 0.000488281 40.9934 0.000488281 40.5174V30.46H50.0004V40.5174C50.0004 40.9935 49.6144 41.3795 49.1383 41.3795Z" fill="#73AF00"/>
<path d="M50.0004 19.54H0.000488281V30.459H50.0004V19.54Z" fill="#FF4B55"/>
<path d="M9.31713 22.7698L9.82953 23.8812L11.0179 23.5888C11.0921 23.5707 11.1536 23.6476 11.1193 23.716L10.5699 24.8095L11.5394 25.5564C11.5999 25.6031 11.578 25.6992 11.5032 25.7149L10.3056 25.9671L10.3262 27.1909C10.3275 27.2672 10.2386 27.31 10.1797 27.2615L9.23588 26.4825L8.29204 27.2615C8.23305 27.3101 8.14428 27.2673 8.14555 27.1909L8.16616 25.9671L6.9686 25.7149C6.8938 25.6992 6.87192 25.6031 6.93237 25.5564L7.9019 24.8095L7.35249 23.716C7.31821 23.6476 7.37964 23.5706 7.45385 23.5888L8.64223 23.8812L9.15463 22.7698C9.18657 22.7004 9.2853 22.7004 9.31713 22.7698Z" fill="#F5F5F5"/>
<path d="M50.0004 18.9658H0.000488281V20.4316H50.0004V18.9658Z" fill="#F5F5F5"/>
<path d="M50.0009 29.5693H0.000976562V31.0352H50.0009V29.5693Z" fill="#F5F5F5"/>
<path d="M0.281445 41.1458L22.7739 25.3527C23.0184 25.181 23.0184 24.8189 22.7739 24.6472L0.281445 8.854C0.110937 9.01162 0.000488281 9.23223 0.000488281 9.48271V40.517C0.000488281 40.7675 0.110937 40.9883 0.281445 41.1458Z" fill="#41479B"/>
<path d="M7.18442 20.9813L9.12104 22.9634L11.6234 21.7728C11.9473 21.6186 12.2811 21.9656 12.1146 22.2834L10.828 24.7376L12.7335 26.7496C12.9803 27.01 12.7535 27.4347 12.3997 27.3745L9.66801 26.9091L8.34341 29.3432C8.17192 29.6583 7.6979 29.5738 7.64595 29.2189L7.24419 26.477L4.51998 25.9695C4.16724 25.9038 4.10123 25.4269 4.42281 25.2677L6.9064 24.0384L6.54722 21.2906C6.50064 20.9348 6.93364 20.7248 7.18442 20.9813Z" fill="#FFE15A"/>
</g>
<defs>
<clipPath id="clip0_106_17513">
<rect width="50" height="50" fill="white"/>
</clipPath>
</defs>
</svg>
