<svg width="50" height="50" viewBox="0 0 50 50" fill="none" xmlns="http://www.w3.org/2000/svg">
<g clip-path="url(#clip0_106_17440)">
<path d="M49.1378 8.62061H0.862108C0.386034 8.62061 0 9.00654 0 9.48262V40.517C0 40.9931 0.386034 41.3791 0.862108 41.3791H49.1379C49.614 41.3791 50 40.9931 50 40.517V9.48262C49.9999 9.00654 49.6139 8.62061 49.1378 8.62061Z" fill="#FFD250"/>
<path d="M18.103 12.0687V37.9307C18.103 38.4068 18.4891 38.7928 18.9651 38.7928H46.5513C47.0274 38.7928 47.4134 38.4068 47.4134 37.9307V12.0687C47.4134 11.5926 47.0274 11.2065 46.5513 11.2065H18.9651C18.4891 11.2066 18.103 11.5926 18.103 12.0687Z" fill="#963C3C"/>
<path d="M9.05204 11.207H3.44853C2.97246 11.207 2.58643 11.5931 2.58643 12.0691V37.9312C2.58643 38.4073 2.97246 38.7933 3.44853 38.7933H9.05204V11.207Z" fill="#5AA587"/>
<path d="M14.6552 11.207H9.05176V38.7932H14.6552C15.1312 38.7932 15.5173 38.4072 15.5173 37.9311V12.069C15.5173 11.593 15.1312 11.207 14.6552 11.207Z" fill="#FF7350"/>
<path d="M38.4314 31.9076C38.4025 31.715 38.5722 31.4661 38.8343 31.1086C38.9291 30.9794 39.0661 30.7922 39.103 30.7026C39.0786 30.7008 39.045 30.7028 39.02 30.704C38.875 30.7111 38.6556 30.721 38.4639 30.5082C38.3889 30.4248 38.3527 30.3205 38.3598 30.2066C38.3741 29.975 38.5632 29.7474 38.6805 29.627C38.378 29.4146 38.0891 29.194 37.8226 28.9276C37.3134 28.4183 36.7326 28.1731 36.0914 28.1866C36.032 28.8244 36.3607 29.2438 36.7115 29.6853C36.8149 29.8153 36.918 29.9451 37.0116 30.0807C37.473 30.7488 37.3766 32.0386 37.3181 32.1752C37.2518 32.3301 36.8869 32.6735 36.3864 32.6066C36.1562 32.5763 35.8913 32.6537 35.7243 32.7996C35.6525 32.8624 35.5669 32.9669 35.5669 33.107C35.5669 33.114 35.5675 33.1494 35.5784 33.156C35.6457 33.1966 35.897 33.1173 36.0767 33.0202C36.1263 32.9931 36.188 33.0011 36.2298 33.04C36.5836 33.3712 36.9388 33.085 36.9779 33.0513C37.0265 33.0098 37.098 33.0084 37.1475 33.0482C37.5096 33.34 37.887 33.021 37.9029 33.0073C37.9474 32.9689 38.0125 32.9643 38.0619 32.9966C38.219 33.0996 38.3627 33.129 38.4909 33.0851C38.6028 33.0462 38.6622 32.962 38.6691 32.9417C38.6724 32.8882 38.6005 32.6121 38.5528 32.4293C38.5028 32.2374 38.4513 32.0392 38.4314 31.9076Z" fill="#FFD250"/>
<path d="M42.3521 19.6937C42.243 19.6854 42.164 19.709 42.11 19.7625C42.0109 19.8604 42.019 20.0369 42.0192 20.0387C42.0212 20.0779 42.0057 20.1162 41.9771 20.143C41.9482 20.1696 41.9094 20.1833 41.8702 20.1775C41.6741 20.1519 41.384 19.9449 40.8459 19.5505C39.991 18.9238 38.6988 17.9768 37.466 17.821C36.033 17.639 34.7577 18.0961 34.4337 18.9063C34.073 19.8082 34.8397 20.63 34.8474 20.6383C34.8864 20.6796 34.895 20.7412 34.8682 20.7913C34.6661 21.1722 34.8192 21.4532 34.9572 21.6072C35.0004 21.4801 35.0651 21.3933 35.1542 21.3398C35.3692 21.2113 35.6501 21.3177 36.0384 21.4647C36.2679 21.5515 36.528 21.6499 36.8313 21.7242C37.609 21.9148 38.5576 21.7449 39.3946 21.595C39.6904 21.542 39.9756 21.4911 40.2409 21.4572C40.9083 21.3722 41.5775 21.668 41.7614 22.1316C41.8505 22.3562 41.8981 22.8069 41.2163 23.3028C39.9902 24.1947 34.3985 23.7831 34.0691 23.758C34.0618 23.7587 34.0545 23.7593 34.0391 23.7603C34.1614 23.8976 34.3048 24.0315 34.3673 24.0482C34.431 24.0652 34.4725 24.1266 34.4644 24.1921C34.4563 24.2575 34.4012 24.307 34.3353 24.308L33.7625 24.3167L33.8152 24.868C33.819 24.9086 33.8039 24.9488 33.774 24.9767C33.7442 25.0047 33.703 25.0164 33.6629 25.011C33.6405 25.0073 33.1461 24.9283 32.8043 24.7383L32.1573 25.1464C32.136 25.1599 32.1114 25.1666 32.0867 25.1666C32.0723 25.1666 32.0579 25.1643 32.0442 25.1596C32.0064 25.1467 31.9764 25.1176 31.9627 25.0801L31.7158 24.4089L31.4231 24.9944C31.4017 25.0373 31.3588 25.0651 31.3113 25.0674C31.2637 25.0724 31.2184 25.0463 31.1928 25.0057L30.942 24.6058C30.8272 24.7491 30.6432 24.9578 30.455 25.0881C30.4207 25.1122 30.3771 25.1181 30.3372 25.1046C30.2974 25.091 30.2665 25.0594 30.2539 25.0194L30.1224 24.6045C30.0061 24.7516 29.8379 24.9465 29.6597 25.0927C29.6216 25.1243 29.5689 25.1316 29.5233 25.1117C29.4778 25.0919 29.4472 25.0483 29.4442 24.999L29.4018 24.3319C29.2512 24.4087 29.0463 24.5087 28.9327 24.5441C28.881 24.5603 28.8241 24.5431 28.7902 24.5006C28.7561 24.4581 28.7516 24.3993 28.7789 24.352C28.9827 23.9981 29.1697 23.5562 29.184 23.3365C29.0488 23.4983 28.8596 23.6532 28.6482 23.8252C28.1984 24.1914 27.6387 24.6468 27.2267 25.4439C26.939 26.0011 26.7324 26.9729 27.0968 27.879C27.4078 28.6519 28.0771 29.2287 29.0799 29.5992C29.0465 29.4529 29.0207 29.3092 29.018 29.1741C29.0049 28.4878 29.1474 27.8613 29.1536 27.8349C29.17 27.7638 29.2407 27.7187 29.3119 27.736C29.3831 27.7524 29.4273 27.8233 29.411 27.8943C29.4096 27.9005 29.27 28.5165 29.2823 29.169C29.2884 29.4885 29.4258 29.8826 29.5586 30.2637C29.7349 30.7703 29.9175 31.2941 29.8382 31.7349C29.73 32.3342 28.9841 32.4861 28.2915 32.3705C28.0946 32.3374 27.9155 32.386 27.7869 32.506C27.6563 32.6278 27.5893 32.8145 27.6078 33.0055C27.6165 33.0955 27.6502 33.1136 27.6611 33.1197C27.7444 33.1647 27.9404 33.1035 28.0464 33.0481C28.0997 33.0201 28.1656 33.0316 28.2064 33.0772C28.4842 33.3884 28.8582 33.0779 28.8739 33.0643C28.9275 33.0191 29.0076 33.0232 29.0558 33.0747C29.1604 33.1862 29.2713 33.2417 29.3946 33.2445C29.6201 33.2583 29.8342 33.0574 29.8364 33.0557C29.8754 33.0177 29.934 33.0079 29.9834 33.0303C30.4192 33.2299 30.6479 33.1139 30.6573 33.1085C31.0355 32.786 30.817 32.0209 30.8147 32.0131C30.8044 31.9781 30.8089 31.9404 30.8274 31.9092C30.8459 31.8777 30.8764 31.8553 30.9119 31.847C31.4417 31.7256 31.7378 31.3856 31.8809 31.1602C31.6192 31.1577 31.4112 31.0659 31.2886 30.8745C31.0914 30.5654 31.1861 30.1001 31.5302 29.6888C32.119 28.9853 32.479 27.5615 32.425 26.9816C32.4183 26.909 32.4717 26.8447 32.5444 26.8378C32.6151 26.8306 32.6813 26.8846 32.6882 26.9572C32.7354 27.4651 32.5064 28.5185 32.0884 29.3129C32.6179 29.1664 33.1012 28.952 33.6054 28.722C34.1066 28.4932 34.6251 28.2569 35.248 28.0617C36.3008 27.7321 37.2294 27.9605 38.0091 28.7405C38.3869 29.1182 38.7992 29.3948 39.2767 29.7154C39.4864 29.8561 39.7046 30.0026 39.931 30.1657C40.5448 30.6075 40.5339 30.9764 40.5224 31.367C40.519 31.486 40.5152 31.6091 40.5286 31.7424C40.5919 32.3766 40.0876 32.4769 39.8452 32.5251C39.812 32.5316 39.7808 32.5378 39.7537 32.5445C39.7194 32.5531 39.6785 32.5615 39.6331 32.5707C39.387 32.6206 39.015 32.6961 38.9236 33.0112C38.9071 33.0676 38.9134 33.0874 38.9134 33.0874C38.9523 33.1051 39.1539 33.0593 39.3143 32.9864C39.3484 32.9708 39.3871 32.9706 39.4213 32.9852C39.4556 32.9999 39.4821 33.0285 39.4943 33.0636C39.5411 33.2009 39.614 33.2242 39.6379 33.232C39.8043 33.284 40.0765 33.1308 40.1586 33.0725C40.2097 33.0365 40.2786 33.0403 40.3247 33.0826C40.4611 33.2072 40.5872 33.262 40.7006 33.2468C40.8524 33.2257 40.9445 33.0828 40.9455 33.0812C40.9673 33.046 41.0045 33.0229 41.0458 33.0191C41.0878 33.0169 41.1281 33.0317 41.156 33.0623C41.1563 33.0629 41.2719 33.1848 41.5085 33.2595C41.6637 33.3081 41.7029 33.2521 41.7157 33.2336C41.7812 33.1379 41.7577 32.8937 41.6298 32.7341C41.4622 32.5245 41.3844 32.2058 41.4317 31.9223C41.475 31.6613 41.6159 31.4485 41.8384 31.3067C42.2464 31.0471 42.3396 30.7673 42.3135 30.7139C42.306 30.7102 42.2617 30.7045 42.2262 30.6998C42.0442 30.6757 41.7395 30.6354 41.4261 30.0568C41.1494 29.5462 41.4171 28.7377 41.7271 27.8013C41.8843 27.3269 42.0468 26.8362 42.1469 26.355C42.4243 25.0237 41.5526 23.9667 41.5438 23.9562C41.4988 23.9025 41.5034 23.8229 41.5546 23.7749C42.1664 23.2009 42.4295 22.6687 42.3361 22.1934C42.2389 21.6977 41.7588 21.3511 41.3774 21.205C40.902 21.0228 40.0346 21.1263 39.1955 21.2261C38.4943 21.3094 37.8316 21.3884 37.4038 21.299C37.1834 21.2527 37.0219 21.1482 36.924 20.9886C36.8433 20.8569 36.8236 20.7127 36.8243 20.6002C36.6118 20.6801 36.4682 20.877 36.4666 20.8793C36.4423 20.9133 36.4032 20.9338 36.3616 20.9346C36.3094 20.9325 36.2799 20.9164 36.2545 20.8835C36.1464 20.7437 36.1029 20.5896 36.1256 20.4251C36.1547 20.2124 36.292 20.0295 36.4045 19.9115C35.9126 19.7388 35.5356 20.1511 35.5182 20.1707C35.4752 20.2184 35.4045 20.2284 35.3502 20.1957C35.1128 20.0498 34.9658 19.7635 34.9751 19.4663C34.984 19.1857 35.1288 18.9505 35.372 18.8213C35.5387 18.7328 35.6987 18.7165 35.8469 18.7725C35.9879 18.8256 36.0869 18.9354 36.1492 19.0285C36.3292 18.8232 36.3443 18.4689 36.3443 18.4648C36.3454 18.4294 36.3602 18.3959 36.3863 18.3718C36.4122 18.3477 36.448 18.3325 36.482 18.3363C36.7949 18.3492 37.0379 18.4623 37.204 18.6722C37.4309 18.9594 37.4522 19.3582 37.4389 19.6052C37.9388 19.35 37.8754 18.761 37.8722 18.7335C37.8669 18.688 37.8853 18.6432 37.9209 18.6147C37.9566 18.5863 38.0041 18.5774 38.0476 18.5934C38.5781 18.7806 38.7711 19.2536 38.8165 19.6057C38.9667 19.4623 38.969 19.2784 38.969 19.2761C38.969 19.2157 39.0099 19.163 39.0684 19.148C39.1275 19.1333 39.1881 19.1598 39.2171 19.2127C39.4217 19.5867 39.7338 19.8196 39.9622 19.9498L39.8049 19.5687C39.7836 19.517 39.797 19.4575 39.8384 19.4201C39.88 19.3826 39.9408 19.3754 39.9897 19.402C40.2514 19.5429 40.4587 19.7023 40.6782 19.8714C40.9428 20.0752 41.2165 20.2857 41.6021 20.4669C41.9786 20.6439 42.2325 20.6103 42.3786 20.5511C42.5299 20.4899 42.6164 20.3821 42.6446 20.3083C42.6977 20.1687 42.7132 19.9684 42.6279 19.8354C42.573 19.7496 42.4802 19.7021 42.3521 19.6937Z" fill="#FFD250"/>
<path d="M26.7509 21.5942C26.7512 21.5943 26.7513 21.5945 26.7513 21.5945C26.752 21.5946 26.7524 21.5945 26.7527 21.5946C26.7625 21.5979 27.7505 21.9097 28.6476 21.9631C28.6968 21.966 28.7405 21.9963 28.7604 22.0414C28.7803 22.0866 28.7737 22.1394 28.7427 22.1778L28.7114 22.2168C28.8893 22.1902 29.1131 22.1654 29.3327 22.1646C29.2427 22.0575 29.1308 21.9214 29.016 21.7787C28.776 21.7743 27.8982 21.7362 27.1837 21.3919C27.0102 21.3077 26.7102 21.1624 26.5675 21.236C26.5429 21.2487 26.5023 21.3082 26.509 21.3814C26.5179 21.4741 26.6036 21.5498 26.7509 21.5942Z" fill="#FFD250"/>
<path d="M29.7286 19.6841C29.7149 19.6841 29.7024 19.6855 29.6913 19.689C29.6337 19.7063 29.6045 19.7714 29.5967 19.8222C29.5871 19.8872 29.6036 19.9746 29.6791 20.0251C29.7778 20.0906 29.8832 20.0458 29.9433 19.9865C29.9622 19.9681 30.0529 19.8711 29.986 19.765L29.9858 19.7647C29.8825 19.7172 29.792 19.6841 29.7286 19.6841Z" fill="#FFD250"/>
<path d="M28.4316 22.8695C28.4956 23.0221 28.5949 23.1403 28.677 23.2196C28.7082 23.1521 28.7557 23.0821 28.8278 23.0296C28.8983 22.9782 29.0206 22.9281 29.1997 22.9654C29.2025 22.9656 29.205 22.9662 29.2078 22.9665C29.213 22.9677 29.217 22.9672 29.2222 22.9684C29.2268 22.9695 29.2298 22.9732 29.2343 22.9745C29.2407 22.9767 29.2474 22.9769 29.2535 22.9804C29.2581 22.9828 29.2609 22.987 29.265 22.9899C29.3324 23.0186 29.3886 23.0647 29.4184 23.1345C29.5185 23.3681 29.3424 23.8216 29.1869 24.1442C29.2967 24.0898 29.4019 24.0348 29.4588 24.0044C29.4983 23.9831 29.5462 23.9834 29.5854 24.0055C29.6249 24.0273 29.6503 24.0678 29.6531 24.1125L29.6904 24.7019C29.897 24.4842 30.0598 24.2475 30.0619 24.2444C30.0904 24.2026 30.1398 24.1816 30.1902 24.1883C30.2403 24.1957 30.2816 24.2309 30.2968 24.2791L30.4476 24.7552C30.6587 24.5611 30.8425 24.3013 30.8447 24.2979C30.8704 24.2618 30.9122 24.2426 30.9562 24.2418C31.0004 24.243 31.0413 24.2662 31.0648 24.3037L31.2921 24.6661L31.6164 24.0176C31.64 23.9703 31.6844 23.9405 31.7421 23.9446C31.7948 23.9475 31.8404 23.9814 31.8588 24.031L32.1547 24.8358L32.7322 24.4714C32.7759 24.4434 32.8314 24.4442 32.8752 24.4727C33.0635 24.5961 33.353 24.6757 33.5354 24.7166L33.4861 24.1993C33.4827 24.1625 33.4947 24.1261 33.5193 24.0986C33.5439 24.0712 33.5788 24.0551 33.6157 24.0546L33.9462 24.0496C33.8667 23.9691 33.8009 23.8913 33.7688 23.8518C33.7472 23.8257 33.7387 23.7935 33.7401 23.7621C33.4966 23.7517 33.1574 23.7083 32.8181 23.5619L32.6163 23.8732C32.5969 23.903 32.5667 23.9236 32.532 23.9307C32.5233 23.9326 32.5143 23.9335 32.5055 23.9335C32.4796 23.9335 32.4539 23.9258 32.4319 23.911L31.6686 23.3989L31.5284 23.7808C31.5123 23.8246 31.4742 23.8566 31.4283 23.865C31.3824 23.874 31.3355 23.8571 31.3048 23.8221C31.1736 23.6717 30.9676 23.4411 30.8452 23.3146C30.7348 23.421 30.5413 23.5926 30.3343 23.7074C30.3007 23.7262 30.2603 23.7291 30.2244 23.7158C30.1883 23.7025 30.1597 23.6742 30.1463 23.638L29.937 23.0764C29.9116 23.008 29.9463 22.9318 30.0148 22.9063C30.0829 22.8809 30.1593 22.9159 30.1848 22.9842L30.3374 23.3938C30.5589 23.24 30.7436 23.042 30.7459 23.0395C30.793 22.9888 30.8716 22.9827 30.9253 23.0261C31.0022 23.0877 31.211 23.3177 31.3568 23.4811L31.4785 23.1498C31.4924 23.1117 31.5232 23.0821 31.5618 23.0698C31.6 23.0565 31.6424 23.0628 31.6762 23.0856L32.4677 23.6167L32.6591 23.3218C32.696 23.2649 32.7696 23.2451 32.829 23.2755C33.1803 23.4512 33.5596 23.4936 33.8018 23.5001C33.6541 23.224 33.6411 22.874 33.6402 22.7918C33.4423 22.7045 33.1993 22.5726 32.9547 22.3716L32.8595 22.6066C32.8442 22.6441 32.8126 22.6726 32.7733 22.6839C32.7343 22.6947 32.6921 22.6877 32.6594 22.664L32.2776 22.3869L32.2404 22.673C32.2345 22.7175 32.2069 22.7558 32.1664 22.7751C32.1263 22.7944 32.079 22.7925 32.0406 22.7689C32.0273 22.761 31.7132 22.569 31.5259 22.3584C31.4774 22.3039 31.4824 22.2203 31.537 22.1719C31.5909 22.1233 31.6746 22.128 31.7235 22.1829C31.8026 22.2719 31.9134 22.3602 32.0058 22.4272L32.0442 22.1325C32.0503 22.0862 32.0802 22.0467 32.123 22.0282C32.166 22.0097 32.2154 22.0153 32.253 22.0426L32.678 22.3509L32.7798 22.0998C32.7962 22.0595 32.8314 22.0298 32.8741 22.0205C32.9165 22.0113 32.9612 22.0234 32.9928 22.0534C33.3223 22.3635 33.6789 22.5309 33.9006 22.613C33.8248 22.2602 33.796 21.8179 33.7945 21.7946C33.7943 21.7913 33.7958 21.7885 33.7958 21.7852C33.5898 21.6717 33.2987 21.476 33.047 21.1685C33.0459 21.3313 33.0326 21.4972 32.9926 21.6018C32.9789 21.638 32.9502 21.6662 32.9138 21.6793C32.8773 21.6919 32.8371 21.6886 32.804 21.6698C32.7881 21.6606 32.5005 21.4956 32.2864 21.2544C32.2495 21.3873 32.205 21.5272 32.1676 21.5897C32.1319 21.6489 32.0572 21.6708 31.9952 21.6399C31.9826 21.6338 31.78 21.5312 31.5996 21.3744C31.582 21.5504 31.5549 21.7492 31.5162 21.8461C31.5023 21.8812 31.4738 21.9086 31.4383 21.9214C31.4026 21.9336 31.3633 21.9309 31.3301 21.913C31.318 21.9064 31.0887 21.7807 30.8746 21.6212L30.8166 21.8416C30.8065 21.8793 30.7805 21.9107 30.7454 21.9274C30.7099 21.9438 30.6696 21.9442 30.6341 21.9283C30.6181 21.9211 30.2402 21.7473 30.025 21.4843C29.9787 21.4278 29.9869 21.3445 30.0435 21.2985C30.0998 21.2522 30.1833 21.2604 30.2293 21.3171C30.3322 21.4428 30.4896 21.5478 30.6032 21.6138L30.671 21.3562C30.6828 21.3115 30.7169 21.2763 30.7612 21.2632C30.8052 21.2494 30.8532 21.2609 30.8875 21.292C31.0137 21.4062 31.1846 21.5186 31.3061 21.5931C31.332 21.4299 31.352 21.194 31.3606 21.0411C31.364 20.982 31.4061 20.9324 31.4636 20.9196C31.5218 20.9065 31.5806 20.9338 31.6087 20.9855C31.6813 21.1193 31.8559 21.2497 31.9876 21.3321C32.0237 21.219 32.0682 21.0523 32.1017 20.9085C32.1146 20.8532 32.1611 20.8125 32.2175 20.807C32.274 20.8 32.3277 20.8323 32.3508 20.8841C32.4334 21.067 32.6334 21.2342 32.7761 21.3365C32.7917 21.1438 32.7773 20.87 32.7596 20.6987C32.7531 20.6351 32.793 20.5759 32.8545 20.5581C32.9173 20.5411 32.9814 20.5694 33.0096 20.6267C33.2755 21.1658 33.7455 21.4644 33.99 21.59C34.1233 20.1316 33.6959 19.5736 33.6913 19.568C33.6673 19.5379 33.6573 19.4984 33.6644 19.4606C33.6716 19.4229 33.6945 19.3897 33.7278 19.3704C33.9652 19.233 34.1092 18.982 34.1976 18.7385C33.6603 19.2594 32.809 19.4595 32.3944 19.5287L32.5968 19.7755C32.6277 19.8132 32.6354 19.8648 32.6168 19.9099C32.598 19.9549 32.5562 19.9859 32.5077 19.9907C31.9996 20.0415 31.6288 19.9742 31.3792 19.89L31.4656 20.0495C31.4883 20.0913 31.4867 20.1423 31.4615 20.1825C31.4364 20.2229 31.3903 20.2502 31.3438 20.2444C30.9299 20.2268 30.5676 20.0561 30.27 19.9055C30.2558 20.0026 30.2079 20.0973 30.1281 20.1753C30.0303 20.2707 29.906 20.32 29.7827 20.32C29.6954 20.32 29.6088 20.2952 29.5327 20.2444C29.3834 20.1447 29.3078 19.9677 29.3355 19.7825C29.3612 19.6124 29.4685 19.4794 29.6158 19.4353C29.8128 19.3769 30.0377 19.4907 30.3221 19.6356C30.5479 19.7507 30.8172 19.8877 31.1107 19.9491L30.9471 19.647C30.9167 19.5907 30.9307 19.5209 30.9806 19.4808C31.0307 19.4413 31.1017 19.4424 31.1502 19.4845C31.1531 19.487 31.482 19.7572 32.2285 19.7433L32.0402 19.5138C32.0092 19.4761 32.0016 19.4241 32.0204 19.3791C32.0393 19.3341 32.0815 19.303 32.1301 19.2984C32.1444 19.2972 33.2289 19.1871 33.8961 18.6495C33.6788 18.7131 33.5106 18.703 33.4977 18.7028C33.4611 18.6999 33.4273 18.682 33.4046 18.6532C33.0989 18.2691 32.7861 18.1504 32.6284 18.1137C32.5398 18.3928 32.3254 18.6187 32.3149 18.6295C32.2866 18.6589 32.2461 18.6733 32.2058 18.6693C32.1652 18.665 32.1289 18.6423 32.1072 18.6076C31.8715 18.2276 31.5316 18.1277 31.3341 18.103C31.3584 18.3839 31.1621 18.6146 31.0314 18.7105C30.9806 18.7474 30.9113 18.744 30.865 18.7026C30.2979 18.1957 29.8599 18.3457 29.6828 18.447C29.7387 18.5859 29.7124 18.6995 29.6745 18.7763C29.4037 19.325 27.7285 19.4353 27.3954 19.4519C27.3541 19.4548 27.3127 19.4359 27.2861 19.403C27.2594 19.3701 27.2504 19.3267 27.2611 19.2859C27.2855 19.1945 27.2692 19.096 27.2153 19.0079C27.1602 18.918 27.0719 18.8524 26.9795 18.8326C26.8924 18.8142 26.7262 18.8261 26.6269 18.935C26.5134 19.0599 26.5056 19.2908 26.6045 19.603C26.7818 20.1635 27.3282 20.7156 27.6683 21.0183C27.6652 20.9485 27.6673 20.8973 27.668 20.8845C27.671 20.828 27.7093 20.7797 27.7637 20.7643C27.8182 20.7483 27.8761 20.7692 27.9085 20.8156C28.0212 20.9775 28.1555 21.0869 28.2565 21.1539L28.3228 20.7311C28.3321 20.6727 28.3791 20.6273 28.4379 20.6204C28.4964 20.6154 28.5529 20.6466 28.5755 20.7015C28.6952 20.9923 29.4532 21.9027 29.7351 22.229C29.7713 22.2706 29.7776 22.3303 29.751 22.3787C29.7246 22.4268 29.6711 22.4528 29.6164 22.4462C29.1334 22.3773 28.4238 22.5381 28.4168 22.5396C28.362 22.5523 28.3051 22.5288 28.2752 22.4811C28.2454 22.4335 28.2489 22.3722 28.2842 22.3281L28.3819 22.2064C27.7113 22.1367 27.0584 21.9604 26.7944 21.8833L26.5726 22.4858L27.1703 22.4262C27.2153 22.4205 27.2617 22.4414 27.2891 22.4786C27.3171 22.5158 27.3232 22.5646 27.3056 22.6077L27.1929 22.8831L27.6852 22.7528C27.7505 22.7348 27.8174 22.7696 27.8421 22.8319C27.9073 22.9972 27.9873 23.1057 28.0511 23.1729L28.1898 22.8664C28.2117 22.8185 28.2593 22.7851 28.3121 22.7889C28.3641 22.7892 28.4112 22.8209 28.4316 22.8695Z" fill="#FFD250"/>
<path d="M26.7205 29.6273C27.2417 29.9754 27.663 29.5783 27.8881 29.2726C27.4079 28.9223 27.0583 28.4913 26.8519 27.9781C26.7845 27.8104 26.7406 27.6409 26.7063 27.4717C26.6573 27.4332 25.9322 26.8589 25.3249 26.1875C25.2938 26.2685 25.2531 26.3327 25.2201 26.3762C25.2628 26.5497 25.2213 26.6914 25.1679 26.7822C25.2047 26.906 25.1751 27.0287 25.1322 27.1183C25.2241 27.2569 25.2408 27.3927 25.1819 27.5231C25.1685 27.553 25.1503 27.5806 25.1313 27.6076C25.2069 27.6988 25.3258 27.9076 25.3258 28.3277C25.3258 28.6103 25.4304 28.7798 25.5085 28.8669C25.5541 28.8274 25.604 28.8053 25.6589 28.7994C25.8256 28.7809 25.9625 28.9234 26.1497 29.1201C26.2963 29.2743 26.4786 29.4661 26.7205 29.6273Z" fill="#FFD250"/>
<path d="M24.1281 26.0447C24.1184 26.0447 24.1085 26.0445 24.0987 26.0445C23.9087 26.0428 23.735 26.0238 23.5749 25.9931C23.5595 26.0372 23.5923 26.1655 23.6266 26.1919C23.6603 26.2178 23.6828 26.2605 23.6816 26.303C23.6805 26.3454 23.6622 26.387 23.6272 26.4109C23.6046 26.4268 23.5375 26.4867 23.5366 26.5451C23.5358 26.6021 23.603 26.661 23.6433 26.6913C23.6727 26.7133 23.6916 26.7467 23.6954 26.7832C23.6992 26.8198 23.6877 26.8563 23.6634 26.8841C23.6464 26.9042 23.5979 26.9777 23.6063 27.0395C23.608 27.0525 23.6135 27.0925 23.6823 27.1393C23.7121 27.1595 23.7324 27.1912 23.7385 27.2269C23.7443 27.2625 23.7354 27.2989 23.7137 27.3278C23.7139 27.3278 23.6768 27.382 23.6909 27.4359C23.7067 27.4956 23.7812 27.5415 23.8405 27.5694C23.9518 27.6218 24.1118 27.6555 24.2787 27.662C24.2838 27.6611 24.289 27.6619 24.2941 27.6617C24.4348 27.6658 24.5792 27.6521 24.7025 27.6066C24.8235 27.562 24.9038 27.4974 24.9412 27.4144C24.9529 27.3885 24.9773 27.3348 24.8732 27.2134C24.8326 27.1658 24.8308 27.0967 24.8687 27.047C24.8689 27.0467 24.9569 26.9255 24.9026 26.8288C24.8735 26.777 24.8824 26.7123 24.9243 26.6705C24.932 26.6619 25.0141 26.5653 24.9491 26.392C24.9304 26.3421 24.9435 26.2858 24.9823 26.2493C24.9871 26.2445 25.1066 26.1201 25.104 25.931C25.0878 25.9112 25.0716 25.8914 25.0559 25.8716C24.8 25.9801 24.4863 26.0447 24.1281 26.0447Z" fill="#FFD250"/>
<path d="M25.3363 16.8335C24.802 17.1209 23.6623 18.022 23.6294 20.4888L23.6588 24.6458C23.6623 24.6516 23.6674 24.6576 23.6703 24.6633C23.7393 24.7933 23.7066 24.962 23.668 25.0788C23.9981 25.1968 24.4099 25.1483 24.5863 25.1047C24.5511 25.0016 24.5232 24.8351 24.6427 24.6467C24.6241 19.6893 25.0969 17.5803 25.3363 16.8335Z" fill="#FFD250"/>
<path d="M25.3915 25.1633C25.3915 24.952 25.2321 24.7875 25.0746 24.7342C25.042 24.723 24.9308 24.6921 24.8798 24.759C24.7843 24.8839 24.8182 24.9722 24.8507 25.0578C24.8689 25.1053 24.8876 25.1543 24.8735 25.2104C24.8557 25.282 24.7904 25.3114 24.7689 25.3211C24.5897 25.4025 23.9079 25.5092 23.4368 25.2661C23.3731 25.233 23.3472 25.1549 23.3788 25.0902C23.4285 24.9883 23.4647 24.8388 23.437 24.7869C23.4348 24.7826 23.4286 24.7707 23.3914 24.7658C23.3563 24.7609 23.3213 24.7585 23.2866 24.7585C23.1258 24.7585 22.9766 24.8091 22.8959 24.8955C22.8311 24.965 22.8107 25.0535 22.834 25.1657C22.9123 25.5439 23.3858 25.7734 24.1007 25.7799C24.6064 25.7782 25.0413 25.6588 25.2584 25.4435C25.3469 25.3561 25.3915 25.2619 25.3915 25.1633Z" fill="#FFD250"/>
<path d="M24.2531 28.2991C24.2837 28.2588 24.3342 28.2395 24.384 28.2498C24.4759 28.269 24.7042 28.3175 24.8352 28.2158C24.881 28.1807 24.8914 28.0849 24.8562 28.0224C24.8441 28.0008 24.8075 27.9359 24.6699 27.9887C24.5396 28.0389 24.3526 28.0933 24.2351 27.9876C24.2116 27.9665 24.1968 27.9418 24.1854 27.9165C24.1501 27.9135 24.1149 27.9115 24.0802 27.9062C24.069 27.9354 24.0535 27.9637 24.0269 27.9876C23.9099 28.0931 23.7227 28.0389 23.5924 27.9887C23.4552 27.9365 23.4179 28.0009 23.406 28.0224C23.3709 28.0849 23.381 28.1807 23.4267 28.2155C23.558 28.3167 23.7865 28.2688 23.8615 28.253C23.9102 28.2433 23.9699 28.2601 24.001 28.3C24.032 28.3403 24.0451 28.3929 24.0223 28.4382C23.9926 28.4977 23.8632 28.7507 23.7367 28.9087C23.9019 29.1503 24.045 29.5809 23.7098 29.964C23.6825 29.9949 23.64 30.0104 23.6006 30.0087C23.5593 30.0056 23.5216 29.9833 23.4993 29.9483C23.4802 29.9194 23.4131 29.8393 23.3389 29.8248C23.3165 29.8205 23.2812 29.8187 23.23 29.8537C23.1954 29.8776 23.176 29.9567 23.2052 30.0434C23.2573 30.1982 23.4194 30.2842 23.648 30.2735C23.7 30.2684 23.7562 30.3041 23.7772 30.3566C23.798 30.4091 23.7833 30.469 23.7404 30.5058L23.525 30.6905L23.8767 30.7762C23.9234 30.7875 23.9601 30.8233 23.9729 30.8696C23.9735 30.8719 24.026 31.0593 24.1312 31.2174C24.2362 31.0593 24.2888 30.8719 24.2893 30.8696C24.302 30.8233 24.3389 30.7875 24.3855 30.7762L24.7373 30.6905L24.5217 30.5058C24.4788 30.4691 24.464 30.4091 24.4848 30.3566C24.5056 30.3042 24.5581 30.2689 24.614 30.2735C24.84 30.2836 25.0048 30.1982 25.0571 30.0432C25.0863 29.9567 25.0669 29.8776 25.0323 29.8537C24.9803 29.8185 24.9446 29.8202 24.9225 29.8249C24.8459 29.8404 24.7771 29.9262 24.7629 29.9482C24.7404 29.9832 24.7028 30.0056 24.6616 30.0086C24.6187 30.0108 24.5795 29.9951 24.5523 29.9639C24.2173 29.5809 24.3605 29.1502 24.5257 28.9086C24.3992 28.7506 24.2698 28.4978 24.24 28.4381C24.2174 28.3933 24.2225 28.3392 24.2531 28.2991Z" fill="#FFD250"/>
<path d="M42.8519 19.6922C42.7813 19.5822 42.6406 19.4476 42.371 19.4301C42.1836 19.4166 42.0334 19.467 41.9241 19.5762C41.8362 19.6638 41.7938 19.7723 41.7737 19.864C41.5934 19.7692 41.305 19.5579 41.0038 19.3372C40.1267 18.6944 38.8015 17.723 37.5006 17.5585C36.4455 17.4244 35.2454 17.6348 34.5855 18.2471C34.5955 18.1662 34.5984 18.112 34.5988 18.1027C34.5989 18.101 34.5975 18.0997 34.5975 18.0978C34.5977 18.0731 34.5908 18.0501 34.5783 18.0295C34.5756 18.0251 34.5728 18.0218 34.5695 18.0177C34.5549 17.9986 34.5365 17.9822 34.5123 17.9732C34.5119 17.973 34.5116 17.9724 34.5111 17.9723H34.5107C34.4858 17.9636 34.4607 17.965 34.4368 17.9707C34.4322 17.9718 34.4282 17.9725 34.4237 17.974C34.4007 17.9821 34.3804 17.9957 34.3647 18.0152C34.3637 18.0165 34.3618 18.0166 34.3608 18.0179C34.0867 18.3859 33.7106 18.4344 33.572 18.4389C33.0771 17.8513 32.5542 17.8331 32.5316 17.8326C32.4559 17.8376 32.4077 17.8796 32.398 17.9453C32.3772 18.0848 32.2961 18.223 32.2274 18.3189C31.7914 17.7768 31.1775 17.8311 31.1502 17.8334C31.1077 17.8375 31.07 17.8619 31.0487 17.8989C31.0276 17.9357 31.0254 17.9805 31.043 18.0195C31.1217 18.1926 31.0263 18.3433 30.9502 18.4271C30.0918 17.7392 29.4313 18.2997 29.4243 18.3058C29.3739 18.35 29.3645 18.4252 29.4026 18.4803C29.4666 18.573 29.4554 18.6242 29.4383 18.6588C29.2994 18.9402 28.2918 19.1238 27.5372 19.1777C27.5332 19.0716 27.5009 18.9659 27.4417 18.869C27.3481 18.7162 27.2001 18.6086 27.0358 18.5732C26.853 18.5335 26.596 18.5755 26.4322 18.7563C26.2491 18.9576 26.2229 19.269 26.3535 19.682C26.5578 20.3272 27.1711 20.9342 27.5288 21.2467C27.4417 21.2144 27.3553 21.1793 27.2716 21.139C27.061 21.0365 26.7084 20.8649 26.4479 21.0004C26.3164 21.0683 26.2322 21.2385 26.2476 21.4049C26.2553 21.4882 26.3019 21.6754 26.5457 21.7949L26.2524 22.5918C26.2367 22.6344 26.2441 22.6823 26.272 22.7182C26.2997 22.7543 26.3441 22.7738 26.3896 22.7688L26.9787 22.71L26.8487 23.0278C26.8298 23.0743 26.8387 23.1275 26.8718 23.1651C26.9049 23.2026 26.9552 23.2193 27.005 23.2055L27.6445 23.0362C27.8098 23.3756 28.0301 23.4943 28.0404 23.4996C28.073 23.5169 28.1105 23.5194 28.1447 23.5075C28.1791 23.4957 28.2072 23.4702 28.2222 23.4371L28.324 23.2115C28.4297 23.3593 28.5439 23.4574 28.6145 23.5115C28.5715 23.547 28.5291 23.582 28.4825 23.6199C28.0385 23.9812 27.4304 24.4762 26.9933 25.3224C26.7737 25.7473 26.6027 26.3956 26.6538 27.085C26.3355 26.8174 25.7353 26.2867 25.2934 25.7434C25.3466 25.7071 25.4031 25.6728 25.4459 25.6306C25.5841 25.4939 25.657 25.3319 25.657 25.1628C25.657 24.8114 25.3996 24.5641 25.1606 24.4833C25.0716 24.4533 24.986 24.4488 24.908 24.4621C24.9003 18.7024 25.5563 16.9391 25.6895 16.6422C25.7105 16.5952 25.7024 16.5401 25.6685 16.5013C25.6348 16.4626 25.5811 16.4469 25.5318 16.4614C25.4452 16.4868 23.4113 17.1221 23.3665 20.4874L23.3948 24.5022C23.1188 24.4731 22.8567 24.5516 22.704 24.7146C22.6173 24.8074 22.5249 24.9701 22.5763 25.2191C22.6447 25.5495 22.9112 25.7933 23.3202 25.9273C23.309 25.9707 23.3052 26.0197 23.3107 26.0746C23.317 26.1391 23.3371 26.219 23.3744 26.2882C23.3245 26.3477 23.2755 26.4328 23.273 26.5376C23.2706 26.6385 23.3108 26.7334 23.3927 26.8202C23.3604 26.8854 23.3321 26.9736 23.3445 27.0714C23.3521 27.1296 23.3766 27.2068 23.4455 27.2815C23.4261 27.3391 23.4141 27.4145 23.4349 27.4974C23.4561 27.5831 23.5093 27.6567 23.5883 27.7196C23.386 27.6821 23.2438 27.7734 23.1773 27.8921C23.0773 28.0704 23.1178 28.3092 23.2675 28.4244C23.3895 28.5181 23.5345 28.5481 23.6666 28.5412C23.5993 28.655 23.5282 28.7603 23.4835 28.7953C23.4544 28.8178 23.436 28.8514 23.4329 28.888C23.4297 28.9247 23.4419 28.961 23.4666 28.9883C23.4804 29.0036 23.7686 29.3283 23.597 29.6657C23.544 29.6221 23.4753 29.5814 23.3937 29.5648C23.2875 29.5432 23.1801 29.5677 23.0823 29.6348C22.9428 29.7305 22.8909 29.9327 22.9564 30.1265C23.0065 30.2751 23.1314 30.4273 23.3445 30.4975L23.1591 30.6565C23.1214 30.6887 23.1051 30.7395 23.1166 30.7877C23.1281 30.8358 23.1656 30.8735 23.2138 30.8852L23.744 31.0144C23.7846 31.1309 23.8775 31.3558 24.0326 31.511C24.0574 31.5358 24.1045 31.5497 24.1397 31.5497C24.1748 31.5497 24.2083 31.5358 24.2331 31.511C24.3883 31.3558 24.4813 31.1309 24.5218 31.0144L25.052 30.8852C25.1001 30.8735 25.1376 30.8359 25.1491 30.7877C25.1607 30.7393 25.1442 30.6887 25.1067 30.6565L24.9212 30.4975C25.1343 30.4271 25.2594 30.275 25.3094 30.1265C25.3748 29.9326 25.323 29.7303 25.1834 29.6348C25.0855 29.5675 24.9775 29.5434 24.872 29.5648C24.7904 29.5813 24.722 29.6219 24.6688 29.6655C24.5 29.3299 24.7858 29.0032 24.7996 28.9879C24.824 28.9606 24.8361 28.9243 24.8328 28.8878C24.8296 28.8513 24.8112 28.8177 24.7824 28.7953C24.7378 28.7605 24.667 28.6554 24.5997 28.5416C24.7318 28.5427 24.876 28.5187 24.9985 28.4242C25.0253 28.4036 25.0443 28.3753 25.064 28.3478C25.0734 28.9278 25.4409 29.1573 25.4568 29.1669C25.5194 29.2043 25.5998 29.1845 25.6375 29.1223C25.6687 29.0715 25.6872 29.0618 25.6868 29.0612C25.7333 29.0637 25.8637 29.201 25.959 29.3011C26.1145 29.4647 26.3082 29.6685 26.5746 29.8461C26.7698 29.9763 26.9544 30.0276 27.1239 30.0276C27.5997 30.0276 27.9561 29.6261 28.1081 29.4199C28.4044 29.6057 28.7403 29.767 29.1233 29.8979C29.1364 29.9024 29.1497 29.9042 29.1629 29.9044C29.2086 30.0528 29.2585 30.2021 29.3101 30.3502C29.4754 30.8245 29.6463 31.3151 29.5791 31.6876C29.4923 32.1703 28.7285 32.1751 28.336 32.1091C28.0567 32.0636 27.7977 32.1351 27.6075 32.3124C27.4174 32.49 27.3194 32.7583 27.346 33.0305C27.3645 33.2207 27.4597 33.3101 27.5365 33.3516C27.7129 33.4464 27.9514 33.3755 28.081 33.3225C28.3785 33.5817 28.7344 33.4729 28.9497 33.336C29.0821 33.4466 29.2298 33.5046 29.3897 33.5082C29.3949 33.5083 29.4001 33.5083 29.4055 33.5083C29.6471 33.5083 29.8503 33.3812 29.952 33.3034C30.4638 33.5105 30.7564 33.3561 30.8077 33.3244C31.2232 32.9738 31.1549 32.3438 31.1007 32.0699C31.9547 31.8113 32.2299 31.0691 32.2418 31.0362C32.2583 30.9899 32.2479 30.9382 32.2147 30.902C32.1812 30.866 32.13 30.8514 32.083 30.864C31.8197 30.9347 31.6118 30.8866 31.5128 30.7316C31.3787 30.5219 31.4656 30.1788 31.7343 29.8579C31.7906 29.7905 31.8439 29.716 31.8961 29.6383C32.5561 29.4908 33.1197 29.2341 33.7165 28.962C34.2104 28.7368 34.7214 28.5038 35.3286 28.3134C35.4988 28.26 35.6643 28.2287 35.8273 28.2075C35.778 28.9234 36.1452 29.3951 36.5059 29.8489C36.6055 29.9741 36.7051 30.0992 36.7953 30.2298C37.182 30.7899 37.1078 31.9641 37.0765 32.0701C37.049 32.1303 36.7898 32.3942 36.4225 32.3438C36.1172 32.3032 35.7755 32.4038 35.5515 32.5999C35.3917 32.7397 35.3037 32.9196 35.3037 33.1061C35.3037 33.2651 35.3801 33.344 35.4443 33.3823C35.6357 33.4959 35.9524 33.3744 36.1222 33.2931C36.2808 33.4157 36.4436 33.4609 36.5941 33.4609C36.7813 33.4609 36.9496 33.3912 37.0677 33.3138C37.422 33.5376 37.7931 33.4066 37.9999 33.2655C38.2591 33.4061 38.4674 33.3783 38.6017 33.3254C38.6453 33.3083 38.6851 33.2867 38.7214 33.2623C38.7267 33.2678 38.7316 33.2753 38.7371 33.2799C38.8777 33.4009 39.1379 33.3365 39.3044 33.2761C39.3802 33.4015 39.4804 33.4581 39.5596 33.4833C39.8043 33.5612 40.0852 33.4271 40.2266 33.3434C40.3982 33.476 40.5686 33.5318 40.739 33.5079C40.8891 33.4871 41.0024 33.4064 41.0754 33.3357C41.1532 33.3916 41.2714 33.4606 41.4309 33.511C41.5014 33.5334 41.5633 33.5424 41.6176 33.5424C41.8017 33.5424 41.8978 33.4375 41.9355 33.3827C42.0884 33.1595 42.0087 32.7817 41.8381 32.5684C41.7374 32.4426 41.6538 32.2072 41.6941 31.9652C41.7157 31.8361 41.7829 31.6558 41.9819 31.5292C42.3409 31.3008 42.5764 30.9917 42.5819 30.7418C42.5843 30.6385 42.5451 30.5534 42.4713 30.5018C42.4061 30.4562 42.3332 30.4465 42.2626 30.4373C42.1054 30.4165 41.9095 30.3906 41.6602 29.9303C41.4382 29.5201 41.7012 28.7254 41.98 27.8838C42.1393 27.4022 42.3043 26.9043 42.4075 26.4084C42.6632 25.1809 42.0469 24.192 41.8237 23.884C42.4443 23.2736 42.7046 22.6878 42.5973 22.1417C42.4794 21.5399 41.9183 21.1277 41.474 20.9575C40.9368 20.7516 40.0366 20.8587 39.1661 20.963C38.4873 21.0442 37.8455 21.1213 37.4601 21.0396C37.3143 21.0092 37.2107 20.9459 37.1521 20.8513C37.0503 20.687 37.1049 20.471 37.1054 20.4687C37.116 20.4283 37.1067 20.3847 37.0806 20.3522C37.0543 20.3197 37.0108 20.2989 36.9724 20.3029C36.7191 20.3131 36.5174 20.4542 36.3928 20.5707C36.3855 20.5352 36.3844 20.4988 36.3895 20.4611C36.4238 20.2071 36.7163 19.9851 36.7191 19.983C36.7541 19.9567 36.774 19.9146 36.7719 19.8708C36.7698 19.827 36.7462 19.7872 36.7087 19.7643C36.1704 19.4365 35.6679 19.6793 35.4106 19.9073C35.3019 19.8009 35.2364 19.638 35.2415 19.474C35.2447 19.3663 35.2828 19.1684 35.498 19.054C35.5954 19.0021 35.6791 18.9908 35.755 19.0187C35.8819 19.066 35.9663 19.222 35.9882 19.2784C36.002 19.3144 36.0314 19.3427 36.0678 19.3554C36.1043 19.3687 36.1448 19.3647 36.1781 19.3451C36.4727 19.1732 36.567 18.8122 36.5969 18.6119C36.7701 18.6401 36.9022 18.7136 36.9982 18.8347C37.2676 19.1744 37.1574 19.7726 37.1563 19.7787C37.1477 19.8234 37.1629 19.8693 37.1961 19.9004C37.2293 19.9313 37.2763 19.9428 37.3203 19.9313C37.9184 19.7711 38.1098 19.2854 38.1393 18.9264C38.5966 19.2112 38.5654 19.8002 38.5637 19.8278C38.5607 19.8733 38.5813 19.9172 38.6182 19.9436C38.6551 19.9703 38.7029 19.976 38.7451 19.9592C38.964 19.8704 39.085 19.726 39.1522 19.5927C39.5685 20.1385 40.1473 20.328 40.175 20.3371C40.224 20.352 40.2773 20.3385 40.3123 20.3006C40.3471 20.2628 40.3569 20.2082 40.3373 20.1607L40.2081 19.8475C40.3133 19.9217 40.4145 19.9997 40.5186 20.0799C40.7946 20.2922 41.0798 20.5118 41.4913 20.7051C41.954 20.9225 42.2837 20.8738 42.4795 20.7954C42.6747 20.7164 42.8295 20.5691 42.8934 20.4013C42.968 20.2059 42.9962 19.9167 42.8519 19.6922ZM42.6464 20.3078C42.6183 20.3816 42.5318 20.4894 42.3804 20.5506C42.2343 20.6097 41.9804 20.6434 41.6039 20.4664C41.2183 20.2852 40.9445 20.0746 40.68 19.8709C40.4605 19.7019 40.2532 19.5425 39.9915 19.4014C39.9427 19.375 39.8819 19.3821 39.8402 19.4196C39.7987 19.4569 39.7853 19.5165 39.8067 19.5681L39.964 19.9493C39.7356 19.819 39.4235 19.5862 39.2189 19.2122C39.19 19.1592 39.1293 19.1327 39.0702 19.1475C39.0117 19.1625 38.9708 19.2152 38.9708 19.2756C38.9708 19.2779 38.9685 19.4619 38.8183 19.6052C38.7728 19.2531 38.5799 18.7802 38.0494 18.5928C38.0059 18.577 37.9584 18.5858 37.9227 18.6141C37.8871 18.6427 37.8687 18.6877 37.874 18.733C37.8772 18.7604 37.9406 19.3495 37.4407 19.6047C37.4542 19.3578 37.4328 18.9589 37.2058 18.6717C37.0397 18.4617 36.7968 18.3487 36.4838 18.3358C36.4498 18.332 36.414 18.3471 36.3881 18.3713C36.3621 18.3954 36.3472 18.4289 36.3461 18.4643C36.3461 18.4684 36.3309 18.8227 36.151 19.028C36.0887 18.9349 35.9897 18.8251 35.8487 18.7719C35.7005 18.716 35.5405 18.7324 35.3738 18.8208C35.1305 18.95 34.9857 19.1852 34.9769 19.4658C34.9676 19.763 35.1146 20.0493 35.3519 20.1952C35.4063 20.2281 35.477 20.2179 35.52 20.1702C35.5374 20.1506 35.9144 19.7383 36.4063 19.911C36.2938 20.029 36.1565 20.212 36.1274 20.4246C36.1047 20.589 36.1482 20.7432 36.2563 20.883C36.2816 20.9159 36.3112 20.932 36.3634 20.9341C36.405 20.9334 36.444 20.9128 36.4684 20.8788C36.4701 20.8764 36.6136 20.6796 36.8261 20.5997C36.8252 20.7122 36.845 20.8563 36.9258 20.9881C37.0237 21.1477 37.1851 21.2522 37.4056 21.2985C37.8334 21.3879 38.4961 21.3089 39.1973 21.2256C40.0364 21.1258 40.9038 21.0222 41.3792 21.2045C41.7606 21.3506 42.2407 21.697 42.3379 22.1928C42.4313 22.6682 42.1682 23.2005 41.5564 23.7744C41.5052 23.8223 41.5005 23.9021 41.5456 23.9557C41.5543 23.9662 42.4261 25.0232 42.1487 26.3545C42.0486 26.8357 41.8861 27.3264 41.7289 27.8007C41.4189 28.7371 41.1514 29.5457 41.4279 30.0563C41.7413 30.635 42.046 30.6752 42.228 30.6993C42.2635 30.7039 42.3076 30.7097 42.3153 30.7134C42.3415 30.7668 42.2482 31.0465 41.8402 31.3062C41.6176 31.448 41.4768 31.6608 41.4335 31.9218C41.3863 32.2053 41.464 32.5241 41.6316 32.7335C41.7595 32.8932 41.783 33.1375 41.7175 33.233C41.7046 33.2515 41.6655 33.3075 41.5103 33.2589C41.2737 33.184 41.1581 33.0621 41.1578 33.0617C41.1299 33.0311 41.0897 33.0162 41.0476 33.0184C41.0061 33.0222 40.9689 33.0453 40.9473 33.0805C40.9462 33.082 40.8542 33.2249 40.7024 33.246C40.589 33.2614 40.4629 33.2065 40.3265 33.0819C40.2804 33.0398 40.2115 33.036 40.1604 33.0718C40.0783 33.1301 39.8061 33.2832 39.6397 33.2313C39.6158 33.2236 39.5429 33.2001 39.4961 33.0629C39.4839 33.0277 39.4574 32.9992 39.4231 32.9845C39.3889 32.9699 39.3502 32.9701 39.3161 32.9857C39.1556 33.0586 38.954 33.1044 38.9152 33.0869C38.9152 33.0869 38.9089 33.0669 38.9254 33.0105C39.0168 32.6954 39.3888 32.6199 39.6349 32.57C39.6802 32.5608 39.7212 32.5524 39.7555 32.5438C39.7826 32.5372 39.8138 32.5309 39.847 32.5244C40.0894 32.4762 40.5937 32.3758 40.5304 31.7417C40.5169 31.6084 40.5208 31.4853 40.5242 31.3663C40.5357 30.9756 40.5467 30.6068 39.9328 30.165C39.7064 30.0018 39.4882 29.8554 39.2785 29.7147C38.8011 29.3941 38.3887 29.1175 38.0109 28.7398C37.2313 27.9598 36.3027 27.7313 35.2498 28.061C34.627 28.2561 34.1085 28.4925 33.6072 28.7212C33.103 28.9513 32.6197 29.1657 32.0902 29.3122C32.5082 28.5177 32.7371 27.4643 32.69 26.9565C32.6831 26.8838 32.6169 26.8298 32.5462 26.8371C32.4735 26.844 32.4201 26.9083 32.4268 26.9809C32.4808 27.5608 32.1208 28.9846 31.532 29.6881C31.188 30.0994 31.0932 30.5648 31.2904 30.8738C31.413 31.0653 31.6209 31.157 31.8827 31.1595C31.7397 31.3849 31.4434 31.725 30.9137 31.8463C30.8782 31.8546 30.8477 31.8769 30.8292 31.9084C30.8107 31.9398 30.8062 31.9774 30.8165 32.0124C30.8188 32.0201 31.0373 32.7853 30.6591 33.1078C30.6496 33.1132 30.4209 33.2291 29.9852 33.0296C29.9358 33.0072 29.8773 33.017 29.8382 33.055C29.8359 33.0568 29.6219 33.2575 29.3964 33.2438C29.2731 33.241 29.1622 33.1855 29.0576 33.074C29.0095 33.0226 28.9294 33.0184 28.8757 33.0636C28.8601 33.0772 28.4859 33.3876 28.2082 33.0765C28.1675 33.0309 28.1016 33.0194 28.0482 33.0474C27.9421 33.1028 27.7462 33.1641 27.6629 33.119C27.6519 33.1129 27.6183 33.0949 27.6096 33.0048C27.5911 32.8139 27.6581 32.6271 27.7887 32.5053C27.9174 32.3852 28.0966 32.3367 28.2933 32.3698C28.9858 32.4854 29.7318 32.3334 29.8399 31.7342C29.9192 31.2934 29.7367 30.7697 29.5604 30.2629C29.4274 29.8818 29.2902 29.4877 29.2841 29.1683C29.2717 28.5159 29.4114 27.8999 29.4128 27.8936C29.4292 27.8226 29.3849 27.7517 29.3137 27.7353C29.2425 27.718 29.1718 27.763 29.1554 27.8342C29.1492 27.8605 29.0066 28.4871 29.0198 29.1734C29.0226 29.3085 29.0482 29.4522 29.0817 29.5985C28.0789 29.228 27.4096 28.6513 27.0985 27.8783C26.7341 26.9722 26.9408 26.0004 27.2285 25.4432C27.6404 24.6461 28.2002 24.1907 28.65 23.8245C28.8614 23.6525 29.0507 23.4976 29.1857 23.3358C29.1715 23.5555 28.9846 23.9974 28.7807 24.3513C28.7535 24.3985 28.7579 24.4574 28.792 24.4999C28.826 24.5423 28.8828 24.5595 28.9345 24.5434C29.0481 24.508 29.2531 24.408 29.4036 24.3312L29.446 24.9983C29.4491 25.0476 29.4797 25.0912 29.5251 25.111C29.5707 25.1309 29.6234 25.1236 29.6615 25.092C29.8397 24.9459 30.0078 24.7509 30.1242 24.6038L30.2557 25.0187C30.2683 25.0586 30.2992 25.0903 30.339 25.1039C30.3788 25.1173 30.4224 25.1114 30.4568 25.0874C30.6451 24.9571 30.829 24.7484 30.9439 24.605L31.1947 25.0049C31.2201 25.0456 31.2656 25.0717 31.3132 25.0667C31.3608 25.0644 31.4037 25.0366 31.425 24.9937L31.7177 24.4082L31.9646 25.0794C31.9783 25.1169 32.0083 25.146 32.0461 25.1589C32.0599 25.1637 32.0743 25.1659 32.0886 25.1659C32.1132 25.1659 32.1378 25.1589 32.1592 25.1457L32.8062 24.7376C33.148 24.9275 33.6426 25.0066 33.6648 25.0103C33.7047 25.0156 33.7461 25.004 33.7759 24.9759C33.8057 24.948 33.8208 24.9079 33.8171 24.8673L33.7644 24.316L34.3372 24.3073C34.4031 24.3062 34.4582 24.2567 34.4663 24.1914C34.4744 24.1258 34.4329 24.0645 34.3692 24.0475C34.3067 24.0308 34.1634 23.8968 34.041 23.7596C34.0565 23.7586 34.0637 23.7579 34.071 23.7573C34.4004 23.7824 39.9921 24.194 41.2182 23.3021C41.9002 22.8062 41.8525 22.3554 41.7633 22.1309C41.5793 21.6673 40.9101 21.3715 40.2428 21.4565C39.9774 21.4905 39.6921 21.5413 39.3965 21.5943C38.5596 21.7442 37.611 21.9141 36.8332 21.7235C36.5299 21.6492 36.2698 21.5508 36.0403 21.464C35.6519 21.317 35.3712 21.2106 35.1561 21.3391C35.0669 21.3925 35.0022 21.4794 34.9591 21.6065C34.821 21.4525 34.6679 21.1714 34.8701 20.7906C34.8968 20.7405 34.8883 20.679 34.8493 20.6376C34.8416 20.6293 34.0748 19.8075 34.4356 18.9055C34.7597 18.0955 36.035 17.6383 37.4679 17.8203C38.7008 17.9762 39.9929 18.9232 40.8478 19.5498C41.3861 19.9442 41.676 20.1511 41.8721 20.1768C41.9113 20.1825 41.95 20.1689 41.979 20.1423C42.0078 20.1156 42.0231 20.0772 42.0211 20.038C42.0209 20.0362 42.0128 19.8597 42.1119 19.7618C42.1659 19.7083 42.2449 19.6847 42.354 19.6929C42.4822 19.7013 42.5749 19.7489 42.6299 19.8343C42.715 19.9677 42.6996 20.1682 42.6464 20.3078ZM38.4921 33.0847C38.3639 33.1288 38.2202 33.0994 38.0631 32.9962C38.0138 32.9639 37.9485 32.9685 37.9041 33.0069C37.8882 33.0207 37.5105 33.3396 37.1486 33.0478C37.0993 33.0081 37.0277 33.0094 36.9791 33.0509C36.9398 33.0846 36.5847 33.3708 36.231 33.0396C36.1892 33.0007 36.1274 32.9928 36.0778 33.0198C35.8979 33.1169 35.6468 33.1962 35.5796 33.1556C35.5686 33.1491 35.5681 33.1136 35.5681 33.1066C35.5681 32.9666 35.6537 32.8621 35.7255 32.7993C35.8924 32.6534 36.1574 32.5759 36.3876 32.6062C36.8882 32.6731 37.2531 32.3297 37.3192 32.1749C37.3777 32.0382 37.4743 30.7485 37.0128 30.0803C36.9191 29.9448 36.8161 29.8148 36.7127 29.6849C36.3618 29.2435 36.0332 28.8241 36.0926 28.1862C36.7338 28.1727 37.3145 28.418 37.8237 28.9272C38.0902 29.1937 38.3791 29.4144 38.6816 29.6266C38.5643 29.7471 38.3753 29.9747 38.3609 30.2062C38.3539 30.3201 38.39 30.4244 38.465 30.5079C38.6567 30.7207 38.8762 30.7108 39.0212 30.7037C39.0462 30.7023 39.0797 30.7004 39.1042 30.7022C39.0673 30.7919 38.9303 30.9791 38.8354 31.1083C38.5733 31.4658 38.4038 31.7146 38.4326 31.9073C38.4524 32.0387 38.5041 32.2369 38.5541 32.4287C38.6017 32.6114 38.6737 32.8876 38.6704 32.9411C38.6635 32.9616 38.6041 33.0458 38.4921 33.0847ZM39.0485 31.2645C39.3025 30.9179 39.4315 30.7302 39.3568 30.5809C39.2802 30.4275 39.1235 30.4341 39.0089 30.44C38.8858 30.4459 38.7692 30.451 38.6614 30.3313C38.6334 30.3002 38.622 30.2668 38.6246 30.2231C38.6338 30.0721 38.8041 29.8762 38.9021 29.7801C38.978 29.8316 39.0534 29.8831 39.1308 29.935C39.3384 30.0743 39.5541 30.2191 39.7779 30.3802C40.2778 30.7402 40.2705 30.9866 40.2598 31.3594C40.256 31.4809 40.252 31.6186 40.2672 31.7689C40.3038 32.1359 40.0945 32.2065 39.7952 32.266C39.7574 32.2735 39.7221 32.2806 39.6909 32.2884C39.6599 32.2961 39.6229 32.3037 39.5819 32.3121C39.391 32.3507 39.0858 32.4161 38.8736 32.6139C38.8561 32.5423 38.8349 32.4594 38.8095 32.3625C38.7613 32.1774 38.7114 31.9861 38.6936 31.8686C38.6791 31.7688 38.9195 31.4409 39.0485 31.2645ZM25.6601 28.7991C25.6052 28.8049 25.5553 28.8271 25.5097 28.8666C25.4316 28.7795 25.327 28.61 25.327 28.3274C25.327 27.9073 25.2081 27.6984 25.1325 27.6073C25.1514 27.5802 25.1696 27.5528 25.1831 27.5228C25.2419 27.3924 25.2252 27.2566 25.1334 27.1179C25.1763 27.0283 25.2059 26.9056 25.1691 26.7819C25.2226 26.6911 25.264 26.5493 25.2213 26.3758C25.2544 26.3324 25.2951 26.2681 25.3261 26.1872C25.9334 26.8584 26.6585 27.4328 26.7075 27.4713C26.7418 27.6405 26.7857 27.81 26.8531 27.9778C27.0595 28.491 27.4091 28.9218 27.8893 29.2722C27.6642 29.5779 27.243 29.9751 26.7217 29.627C26.4798 29.4658 26.2974 29.2739 26.151 29.1198C25.9637 28.9231 25.8268 28.7804 25.6601 28.7991ZM24.5545 29.9635C24.5817 29.9949 24.6209 30.0105 24.6638 30.0083C24.7051 30.0051 24.7428 29.9829 24.7651 29.9479C24.7794 29.9259 24.8482 29.84 24.9247 29.8246C24.9467 29.8197 24.9824 29.818 25.0345 29.8534C25.0691 29.8773 25.0885 29.9564 25.0593 30.0428C25.007 30.1979 24.8422 30.2833 24.6162 30.2732C24.5603 30.2686 24.5078 30.3038 24.487 30.3563C24.4662 30.4087 24.481 30.4688 24.5238 30.5054L24.7395 30.6902L24.3877 30.7758C24.341 30.7872 24.3043 30.823 24.2915 30.8693C24.2909 30.8715 24.2384 31.0589 24.1334 31.217C24.0282 31.0589 23.9757 30.8715 23.9751 30.8693C23.9624 30.823 23.9255 30.7872 23.8789 30.7758L23.5272 30.6902L23.7426 30.5054C23.7855 30.4686 23.8002 30.4087 23.7794 30.3563C23.7584 30.3039 23.7022 30.268 23.6502 30.2732C23.4215 30.2838 23.2595 30.1979 23.2073 30.043C23.1781 29.9565 23.1976 29.8773 23.2321 29.8534C23.2832 29.8184 23.3187 29.8202 23.3411 29.8245C23.4153 29.8389 23.4824 29.9191 23.5015 29.948C23.5239 29.983 23.5615 30.0053 23.6028 30.0084C23.6422 30.0101 23.6847 29.9946 23.712 29.9636C24.0472 29.5806 23.904 29.15 23.7389 28.9084C23.8653 28.7503 23.9947 28.4975 24.0245 28.4378C24.0473 28.3926 24.0341 28.3399 24.0032 28.2997C23.9721 28.2598 23.9124 28.2428 23.8637 28.2527C23.7887 28.2685 23.5602 28.3164 23.4289 28.2152C23.3833 28.1802 23.3733 28.0843 23.4082 28.022C23.42 28.0004 23.4574 27.9362 23.5945 27.9883C23.7249 28.0385 23.9122 28.0927 24.0291 27.9873C24.0558 27.9633 24.0712 27.935 24.0824 27.9059C24.1171 27.9112 24.1523 27.913 24.1876 27.9162C24.1989 27.9416 24.2138 27.9662 24.2373 27.9873C24.3549 28.0928 24.5418 28.0385 24.6721 27.9883C24.8097 27.9356 24.8464 28.0005 24.8584 28.022C24.8936 28.0845 24.8832 28.1803 24.8374 28.2155C24.7063 28.317 24.4779 28.2686 24.3861 28.2495C24.3364 28.2391 24.2861 28.2587 24.2553 28.2988C24.2247 28.3388 24.2195 28.3928 24.242 28.438C24.2718 28.4975 24.4012 28.7505 24.5277 28.9086C24.3626 29.1499 24.2195 29.5806 24.5545 29.9635ZM24.9831 26.2491C24.9443 26.2856 24.9312 26.3419 24.9499 26.3918C25.015 26.5653 24.9329 26.6617 24.9251 26.6703C24.8831 26.7121 24.8743 26.7767 24.9034 26.8286C24.9578 26.9253 24.8697 27.0463 24.8694 27.0467C24.8317 27.0964 24.8334 27.1656 24.874 27.2131C24.9779 27.3344 24.9536 27.3882 24.942 27.4141C24.9047 27.4971 24.8243 27.5618 24.7033 27.6064C24.5798 27.652 24.4355 27.6656 24.2949 27.6615C24.2898 27.6617 24.2846 27.6609 24.2795 27.6618C24.1127 27.6551 23.9526 27.6215 23.8413 27.5692C23.782 27.5413 23.7076 27.4954 23.6917 27.4357C23.6774 27.3818 23.7146 27.3276 23.7145 27.3276C23.7362 27.2987 23.745 27.2622 23.7393 27.2266C23.7332 27.191 23.713 27.1593 23.6831 27.139C23.6143 27.0922 23.6088 27.0523 23.607 27.0392C23.5986 26.9775 23.6471 26.904 23.6642 26.8838C23.6884 26.8561 23.6999 26.8196 23.6962 26.783C23.6924 26.7464 23.6735 26.7131 23.6441 26.6911C23.6037 26.6608 23.5365 26.6017 23.5374 26.5449C23.5383 26.4864 23.6054 26.4264 23.6279 26.4107C23.6631 26.3868 23.6813 26.3452 23.6824 26.3028C23.6836 26.2603 23.6612 26.2174 23.6274 26.1917C23.593 26.1653 23.5604 26.0371 23.5757 25.9928C23.7358 26.0237 23.9094 26.0426 24.0995 26.0443C24.1093 26.0443 24.1192 26.0445 24.1289 26.0445C24.4871 26.0445 24.8007 25.9798 25.0563 25.8713C25.0721 25.8912 25.0883 25.911 25.1044 25.9307C25.1074 26.1199 24.9879 26.2444 24.9831 26.2491ZM24.1022 25.78C23.3873 25.7735 22.9137 25.5439 22.8355 25.1658C22.8122 25.0534 22.8325 24.965 22.8974 24.8956C22.978 24.8091 23.1273 24.7587 23.2881 24.7587C23.3227 24.7587 23.3578 24.761 23.3929 24.7659C23.4301 24.7709 23.4362 24.7827 23.4385 24.787C23.4662 24.8389 23.4301 24.9884 23.3803 25.0903C23.3487 25.1549 23.3744 25.2331 23.4383 25.2662C23.9094 25.5092 24.5911 25.4026 24.7704 25.3213C24.792 25.3115 24.8571 25.282 24.875 25.2105C24.8892 25.1544 24.8704 25.1053 24.8522 25.058C24.8196 24.9724 24.7858 24.8841 24.8813 24.7592C24.9322 24.6923 25.0434 24.7232 25.0761 24.7344C25.2337 24.7878 25.393 24.9522 25.393 25.1635C25.393 25.2619 25.3483 25.3562 25.26 25.4438C25.0428 25.6589 24.6078 25.7783 24.1022 25.78ZM24.5879 25.1045C24.4115 25.1482 23.9997 25.1967 23.6695 25.0786C23.7082 24.9618 23.741 24.7931 23.6719 24.6631C23.6689 24.6575 23.6639 24.6514 23.6604 24.6456L23.631 20.4885C23.6639 18.0217 24.8034 17.1206 25.3379 16.8333C25.0985 17.5801 24.6257 19.6889 24.6443 24.6464C24.5248 24.8349 24.5528 25.0014 24.5879 25.1045ZM28.1906 22.8661L28.052 23.1726C27.9882 23.1053 27.9081 22.9967 27.8429 22.8316C27.8183 22.7693 27.7514 22.7344 27.6861 22.7525L27.1939 22.8828L27.3066 22.6074C27.3241 22.5644 27.3179 22.5155 27.2901 22.4783C27.2626 22.441 27.2162 22.4201 27.1712 22.4258L26.5735 22.4855L26.7953 21.883C27.0592 21.96 27.7122 22.1364 28.3828 22.2061L28.2851 22.3278C28.2498 22.3718 28.2464 22.4331 28.2761 22.4808C28.3061 22.5285 28.3629 22.552 28.4177 22.5393C28.4247 22.5379 29.1343 22.377 29.6173 22.4459C29.6721 22.4525 29.7255 22.4265 29.752 22.3784C29.7784 22.33 29.7721 22.2703 29.736 22.2287C29.454 21.9025 28.6961 20.992 28.5764 20.7011C28.5538 20.6463 28.4972 20.6151 28.4388 20.6201C28.38 20.6271 28.3329 20.6723 28.3237 20.7308L28.2574 21.1536C28.1565 21.0867 28.0221 20.9772 27.9094 20.8153C27.8771 20.7688 27.8191 20.7478 27.7647 20.7639C27.7103 20.7795 27.6719 20.8277 27.669 20.8842C27.6683 20.897 27.6661 20.9484 27.6692 21.0179C27.329 20.7152 26.7828 20.1631 26.6054 19.6027C26.5065 19.2904 26.5142 19.0595 26.6277 18.9346C26.727 18.8257 26.8933 18.8138 26.9804 18.8323C27.073 18.8521 27.1612 18.9177 27.2162 19.0076C27.2701 19.0958 27.2863 19.1942 27.262 19.2856C27.2512 19.3263 27.2603 19.3699 27.287 19.4027C27.3135 19.4356 27.355 19.4546 27.3963 19.4515C27.7294 19.435 29.4046 19.3247 29.6754 18.776C29.7132 18.6992 29.7397 18.5856 29.6837 18.4467C29.8609 18.3455 30.2987 18.1955 30.8659 18.7023C30.9122 18.7438 30.9815 18.747 31.0323 18.7102C31.1629 18.6142 31.3593 18.3835 31.3351 18.1027C31.5326 18.1275 31.8725 18.2275 32.1081 18.6073C32.1298 18.6421 32.1661 18.6647 32.2067 18.669C32.2471 18.673 32.2874 18.6586 32.3158 18.6292C32.3263 18.6183 32.5407 18.3925 32.6293 18.1134C32.787 18.1502 33.0998 18.2688 33.4055 18.6529C33.4283 18.6817 33.462 18.6996 33.4986 18.7025C33.5115 18.7027 33.6798 18.7128 33.897 18.6492C33.2297 19.1868 32.1452 19.2968 32.1311 19.2981C32.0823 19.3027 32.0402 19.3338 32.0213 19.3788C32.0025 19.4238 32.0101 19.4759 32.0411 19.5135L32.2294 19.7429C31.4828 19.7568 31.154 19.4867 31.1511 19.4842C31.1027 19.4422 31.0316 19.4412 30.9815 19.4804C30.9316 19.5205 30.9176 19.5904 30.9481 19.6467L31.1116 19.9488C30.8181 19.8874 30.5488 19.7505 30.3231 19.6353C30.0387 19.4905 29.8138 19.3765 29.6167 19.435C29.4694 19.4791 29.3621 19.6121 29.3364 19.7822C29.3087 19.9676 29.3843 20.1446 29.5336 20.2441C29.6097 20.2949 29.6964 20.3197 29.7836 20.3197C29.9067 20.3197 30.0313 20.2704 30.129 20.175C30.2089 20.097 30.2568 20.0023 30.2709 19.9051C30.5686 20.0559 30.9309 20.2263 31.3447 20.2441C31.3912 20.2498 31.4373 20.2225 31.4624 20.1822C31.4877 20.1419 31.4893 20.091 31.4665 20.0492L31.3801 19.8897C31.6298 19.9739 32.0006 20.0411 32.5086 19.9904C32.5571 19.9855 32.5989 19.9547 32.6177 19.9095C32.6362 19.8645 32.6285 19.8129 32.5978 19.7752L32.3953 19.5284C32.8101 19.4594 33.6613 19.2591 34.1985 18.7382C34.1102 18.9817 33.9661 19.2327 33.7287 19.3701C33.6955 19.3894 33.6726 19.4225 33.6653 19.4603C33.6583 19.4981 33.6683 19.5376 33.6922 19.5677C33.6967 19.5733 34.1242 20.1313 33.9909 21.5897C33.7464 21.464 33.2764 21.1654 33.0105 20.6263C32.9823 20.5692 32.9182 20.5408 32.8554 20.5578C32.7939 20.5755 32.7541 20.6347 32.7605 20.6984C32.7782 20.8697 32.7926 21.1435 32.7771 21.3362C32.6343 21.2339 32.4343 21.0666 32.3518 20.8838C32.3285 20.8319 32.2748 20.7996 32.2185 20.8067C32.162 20.8122 32.1155 20.853 32.1026 20.9082C32.0692 21.052 32.0247 21.2187 31.9885 21.3318C31.8569 21.2494 31.6822 21.1191 31.6096 20.9852C31.5815 20.9334 31.5228 20.9062 31.4646 20.9193C31.4069 20.932 31.3649 20.9818 31.3615 21.0408C31.3529 21.1937 31.3327 21.4297 31.307 21.5927C31.1856 21.5183 31.0147 21.4059 30.8884 21.2917C30.8541 21.2607 30.8062 21.2492 30.7621 21.2629C30.718 21.2759 30.6838 21.3112 30.6719 21.3559L30.6041 21.6134C30.4905 21.5475 30.3331 21.4425 30.2302 21.3168C30.1841 21.2602 30.1007 21.2519 30.0444 21.2982C29.9879 21.3443 29.9796 21.4276 30.0259 21.484C30.2412 21.747 30.6189 21.9208 30.635 21.928C30.6706 21.9439 30.7108 21.9435 30.7463 21.9271C30.7815 21.9104 30.8075 21.879 30.8175 21.8413L30.8755 21.6209C31.0898 21.7803 31.319 21.9061 31.3311 21.9127C31.3643 21.9305 31.4035 21.9334 31.4392 21.9211C31.4748 21.9082 31.5031 21.8807 31.5171 21.8458C31.5558 21.7489 31.583 21.5502 31.6005 21.3741C31.781 21.5309 31.9835 21.6334 31.9961 21.6396C32.058 21.6705 32.1327 21.6486 32.1686 21.5894C32.2059 21.5269 32.2502 21.387 32.2873 21.2541C32.5013 21.4951 32.789 21.6603 32.8049 21.6695C32.8381 21.6883 32.8784 21.6915 32.9148 21.679C32.9512 21.6659 32.9799 21.6377 32.9937 21.6015C33.0335 21.4967 33.0468 21.331 33.048 21.1681C33.2997 21.4756 33.5909 21.6714 33.7968 21.7849C33.7968 21.7882 33.7953 21.791 33.7955 21.7943C33.7969 21.8175 33.8258 22.2599 33.9016 22.6127C33.6798 22.5305 33.3232 22.3633 32.9938 22.0531C32.9622 22.0231 32.9175 22.0111 32.8751 22.0202C32.8324 22.0295 32.7972 22.0591 32.7808 22.0995L32.679 22.3506L32.254 22.0423C32.2165 22.0151 32.1672 22.0093 32.124 22.0279C32.0812 22.0464 32.0513 22.0859 32.0452 22.1322L32.0068 22.4269C31.9145 22.36 31.8036 22.2716 31.7245 22.1826C31.6757 22.1277 31.5919 22.1231 31.538 22.1716C31.4835 22.2201 31.4785 22.3036 31.527 22.3581C31.7142 22.5686 32.0283 22.7606 32.0416 22.7686C32.08 22.7923 32.1272 22.794 32.1674 22.7748C32.2078 22.7554 32.2355 22.7172 32.2414 22.6727L32.2786 22.3866L32.6605 22.6636C32.6931 22.6874 32.7354 22.6945 32.7743 22.6836C32.8136 22.6723 32.8452 22.6438 32.8605 22.6063L32.9557 22.3713C33.2003 22.5723 33.4434 22.7043 33.6412 22.7915C33.6422 22.8737 33.6551 23.2237 33.8028 23.4998C33.5607 23.4934 33.1813 23.4509 32.83 23.2752C32.7706 23.2449 32.697 23.2647 32.6602 23.3215L32.4688 23.6164L31.6772 23.0853C31.6436 23.0625 31.6011 23.0562 31.5628 23.0695C31.5242 23.0819 31.4935 23.1115 31.4795 23.1495L31.3578 23.4808C31.2121 23.3174 31.0032 23.0873 30.9263 23.0257C30.8724 22.9824 30.794 22.9884 30.7469 23.0392C30.7446 23.0416 30.5598 23.2396 30.3384 23.3935L30.1858 22.9839C30.1605 22.9158 30.084 22.8806 30.0158 22.906C29.9474 22.9314 29.9126 23.0078 29.938 23.076L30.1473 23.6377C30.1607 23.6738 30.1893 23.7022 30.2254 23.7155C30.2614 23.7288 30.3016 23.7258 30.3354 23.7071C30.5424 23.5922 30.7359 23.4206 30.8462 23.3143C30.9688 23.4408 31.1746 23.6714 31.3058 23.8217C31.3366 23.8569 31.3833 23.8737 31.4293 23.8647C31.4752 23.8563 31.5133 23.8243 31.5294 23.7804L31.6696 23.3986L32.4329 23.9107C32.4549 23.9254 32.4806 23.9332 32.5065 23.9332C32.5152 23.9332 32.5242 23.9323 32.533 23.9303C32.5678 23.9233 32.5981 23.9026 32.6173 23.8729L32.8191 23.5616C33.1584 23.7081 33.4977 23.7514 33.7411 23.7618C33.7397 23.7932 33.7482 23.8253 33.7698 23.8515C33.802 23.891 33.8678 23.9686 33.9472 24.0493L33.6167 24.0543C33.5799 24.0548 33.5449 24.0708 33.5204 24.0983C33.4958 24.1257 33.4838 24.1621 33.4872 24.199L33.5365 24.7163C33.3541 24.6754 33.0647 24.5958 32.8763 24.4724C32.8325 24.4439 32.7771 24.4432 32.7333 24.4711L32.1558 24.8355L31.8599 24.0307C31.8417 23.9811 31.7959 23.9473 31.7432 23.9443C31.6857 23.9402 31.6411 23.97 31.6175 24.0173L31.2932 24.6658L31.0659 24.3034C31.0423 24.2659 31.0016 24.2426 30.9573 24.2415C30.9133 24.2422 30.8715 24.2614 30.8458 24.2976C30.8436 24.3008 30.6596 24.5606 30.4487 24.7548L30.298 24.2788C30.2826 24.2306 30.2414 24.1954 30.1913 24.188C30.1409 24.1813 30.0915 24.2023 30.063 24.2441C30.0609 24.2472 29.8982 24.4838 29.6915 24.7016L29.6542 24.1122C29.6514 24.0674 29.626 24.027 29.5865 24.0051C29.5473 23.9832 29.4994 23.9827 29.4599 24.0041C29.403 24.0345 29.298 24.0896 29.188 24.1439C29.3435 23.8212 29.5198 23.3677 29.4195 23.1341C29.3897 23.0644 29.3334 23.0182 29.2661 22.9896C29.2619 22.9867 29.2591 22.9825 29.2546 22.98C29.2484 22.9767 29.2418 22.9765 29.2355 22.9742C29.231 22.9729 29.228 22.9692 29.2233 22.9681C29.2181 22.9669 29.2141 22.9673 29.2089 22.9662C29.2062 22.9659 29.2036 22.9653 29.2008 22.9651C29.0216 22.9278 28.8994 22.9778 28.8289 23.0293C28.7568 23.082 28.7093 23.1519 28.6781 23.2193C28.596 23.14 28.4968 23.0217 28.4327 22.8692C28.4125 22.8207 28.3652 22.7888 28.3128 22.7882C28.2602 22.7848 28.2125 22.8182 28.1906 22.8661ZM27.1858 21.3915C27.9001 21.7358 28.778 21.7739 29.018 21.7783C29.1328 21.921 29.2448 22.0572 29.3347 22.1641C29.1151 22.165 28.8912 22.1898 28.7134 22.2164L28.7447 22.1774C28.7757 22.1388 28.7824 22.0862 28.7624 22.041C28.7425 21.996 28.6987 21.9657 28.6496 21.9627C27.7525 21.9093 26.7645 21.5976 26.7547 21.5942C26.7543 21.5941 26.7539 21.5942 26.7535 21.5941C26.7535 21.5941 26.7531 21.5938 26.7527 21.5937C26.6055 21.5493 26.5197 21.4736 26.5111 21.3809C26.5045 21.3078 26.5451 21.2483 26.5696 21.2355C26.7122 21.1619 27.0122 21.3073 27.1858 21.3915ZM28.4342 21.466C28.4627 21.4455 28.4838 21.4161 28.4894 21.3809L28.528 21.1332C28.6072 21.2484 28.7032 21.3759 28.8023 21.5045C28.7 21.4974 28.5743 21.4853 28.4342 21.466ZM28.2016 21.4286C28.1371 21.4167 28.0708 21.4027 28.0037 21.3873C28.0097 21.359 28.0062 21.3287 27.9926 21.3014C27.9888 21.2939 27.9854 21.2859 27.9819 21.2777C28.0655 21.3463 28.1428 21.3954 28.2016 21.4286ZM29.9443 19.986C29.8843 20.0452 29.7788 20.0901 29.6802 20.0246C29.6046 19.9742 29.5882 19.8868 29.5978 19.8217C29.6055 19.7709 29.6347 19.7057 29.6924 19.6885C29.7034 19.6852 29.716 19.6836 29.7297 19.6836C29.7931 19.6836 29.8835 19.7168 29.9868 19.764L29.987 19.7643C30.054 19.8706 29.9633 19.9676 29.9443 19.986ZM34.9687 21.9641C35.0065 21.9883 35.0544 21.9912 35.0956 21.9722C35.1363 21.9532 35.1645 21.9143 35.1705 21.8697C35.1925 21.7035 35.2331 21.6015 35.2914 21.5666C35.3967 21.5034 35.6518 21.6001 35.9466 21.7118C36.1713 21.7969 36.4511 21.9027 36.7698 21.9808C37.6018 22.1846 38.5798 22.0096 39.4425 21.855C39.734 21.8029 40.0147 21.7527 40.2758 21.7193C40.8216 21.6498 41.378 21.8783 41.5173 22.2291C41.6224 22.4938 41.4608 22.7993 41.0623 23.0891C39.9575 23.8924 34.6676 23.5357 34.1282 23.4971C33.9848 23.3605 33.9286 23.0808 33.9119 22.8966C33.9991 22.9244 34.0576 22.9383 34.0651 22.9399C34.0741 22.9419 34.0832 22.9427 34.0923 22.9427C34.1301 22.9427 34.1667 22.9263 34.1923 22.8971C34.2236 22.8606 34.2329 22.8103 34.2164 22.7651C34.134 22.5402 34.0887 22.1247 34.0698 21.912C34.1048 21.9216 34.1417 21.9181 34.1728 21.8989C34.2071 21.8778 34.2299 21.8419 34.2347 21.8018C34.3909 20.4743 34.1184 19.7821 33.9755 19.5228C34.0102 19.4964 34.0426 19.4677 34.0735 19.4379C34.0831 20.0653 34.4471 20.5699 34.5959 20.7501C34.3302 21.3518 34.716 21.8039 34.9687 21.9641Z" fill="#464655"/>
<path d="M21.714 15.1603C21.6627 14.0957 21.41 12.3741 20.6022 12.3346C20.1469 12.3136 19.9226 12.5939 19.9133 12.6059C19.8867 12.6405 19.8429 12.6599 19.8005 12.6578L19.4918 12.6392L19.5471 12.8438C19.5604 12.8931 19.5437 12.9461 19.5046 12.9792C19.4859 12.9951 19.0493 13.3742 19.315 13.857C19.5173 14.2248 20.1713 14.399 20.6488 14.5259C20.8619 14.5828 21.0462 14.6318 21.1658 14.6903C21.3788 14.7945 21.5655 14.9703 21.714 15.1603Z" fill="#FFD250"/>
<path d="M20.6151 12.0704C20.1505 12.0477 19.8614 12.2792 19.7527 12.3898L19.3245 12.3642C19.2838 12.3609 19.2411 12.3798 19.2141 12.4127C19.1873 12.4456 19.1778 12.4895 19.1888 12.5306L19.271 12.8356C19.0611 13.0499 18.8142 13.4948 19.0833 13.984C19.34 14.451 20.0573 14.6417 20.5808 14.7811C20.7807 14.8343 20.9534 14.8803 21.0498 14.9273C21.3594 15.0787 21.6081 15.423 21.7374 15.6949C21.7596 15.7417 21.8066 15.7702 21.8568 15.7702C21.8663 15.7702 21.8757 15.7691 21.8853 15.7671C21.9454 15.7538 21.9882 15.7008 21.9888 15.6393C21.9902 15.4966 22.0071 12.1383 20.6151 12.0704ZM20.6488 14.5256C20.1713 14.3986 19.5173 14.2245 19.315 13.8566C19.0494 13.3739 19.4859 12.9948 19.5046 12.9789C19.5436 12.9458 19.5603 12.8929 19.5471 12.8435L19.4918 12.6389L19.8005 12.6574C19.843 12.6597 19.8868 12.6401 19.9133 12.6056C19.9226 12.5935 20.1469 12.3132 20.6022 12.3343C21.4101 12.3737 21.6627 14.0954 21.714 15.16C21.5655 14.97 21.3789 14.7941 21.1657 14.6899C21.0463 14.6313 20.862 14.5823 20.6488 14.5256Z" fill="#464655"/>
<path d="M43.8027 15.1603C43.854 14.0957 44.1067 12.3741 44.9146 12.3346C45.3698 12.3136 45.5941 12.5939 45.6034 12.6059C45.6301 12.6405 45.6738 12.6599 45.7162 12.6578L46.0249 12.6392L45.9696 12.8438C45.9563 12.8931 45.973 12.9461 46.0121 12.9792C46.0309 12.9951 46.4674 13.3742 46.2018 13.857C45.9994 14.2248 45.3454 14.399 44.868 14.5259C44.6548 14.5828 44.4705 14.6318 44.351 14.6903C44.1379 14.7945 43.9512 14.9703 43.8027 15.1603Z" fill="#FFD250"/>
<path d="M43.528 15.6398C43.5287 15.7012 43.5715 15.7543 43.6315 15.7675C43.6411 15.7696 43.6505 15.7707 43.66 15.7707C43.7101 15.7707 43.7571 15.7422 43.7792 15.6954C43.9086 15.4235 44.1573 15.0792 44.4668 14.9278C44.5634 14.8806 44.7359 14.8347 44.9359 14.7816C45.4595 14.6423 46.1766 14.4514 46.4333 13.9844C46.7024 13.4952 46.4555 13.0503 46.2456 12.8361L46.3279 12.531C46.3389 12.4898 46.3293 12.446 46.3026 12.4132C46.2757 12.3802 46.2328 12.3613 46.1922 12.3646L45.764 12.3903C45.6553 12.2799 45.3662 12.0483 44.9016 12.0709C43.5098 12.1385 43.5267 15.4968 43.528 15.6398ZM44.351 14.6901C44.1378 14.7944 43.9511 14.9703 43.8027 15.1601C43.8539 14.0956 44.1067 12.3739 44.9145 12.3344C45.3698 12.3135 45.5941 12.5937 45.6034 12.6057C45.63 12.6403 45.6738 12.6597 45.7161 12.6576L46.0248 12.639L45.9696 12.8436C45.9563 12.8929 45.973 12.946 46.012 12.9791C46.0308 12.9949 46.4673 13.374 46.2017 13.8568C45.9994 14.2247 45.3454 14.3988 44.8679 14.5257C44.6549 14.5826 44.4705 14.6316 44.351 14.6901Z" fill="#464655"/>
<path d="M43.8027 34.8398C43.854 35.9044 44.1067 37.6261 44.9146 37.6655C45.3698 37.6865 45.5941 37.4062 45.6034 37.3941C45.6301 37.3596 45.6738 37.3401 45.7162 37.3423L46.0249 37.3608L45.9696 37.1562C45.9563 37.1069 45.973 37.0539 46.0121 37.0208C46.0309 37.005 46.4674 36.6259 46.2018 36.1431C45.9994 35.7752 45.3454 35.6011 44.868 35.4741C44.6548 35.4173 44.4705 35.3683 44.351 35.3098C44.1379 35.2058 43.9512 35.0299 43.8027 34.8398Z" fill="#FFD250"/>
<path d="M44.9016 37.9293C45.3662 37.952 45.6552 37.7205 45.764 37.6099L46.1922 37.6355C46.2329 37.6388 46.2756 37.6199 46.3026 37.587C46.3295 37.5541 46.3389 37.5102 46.3279 37.4691L46.2457 37.1641C46.4556 36.9498 46.7025 36.5049 46.4334 36.0157C46.1767 35.5487 45.4594 35.358 44.9359 35.2186C44.736 35.1654 44.5633 35.1194 44.4669 35.0724C44.1573 34.921 43.9087 34.5767 43.7793 34.3048C43.7571 34.258 43.7101 34.2295 43.66 34.2295C43.6506 34.2295 43.6411 34.2306 43.6315 34.2326C43.5715 34.2459 43.5286 34.2989 43.528 34.3604C43.5265 34.5031 43.5096 37.8614 44.9016 37.9293ZM44.8679 35.4741C45.3454 35.6011 45.9994 35.7752 46.2017 36.1431C46.4673 36.6258 46.0308 37.0049 46.0121 37.0208C45.9731 37.0539 45.9564 37.1068 45.9696 37.1562L46.0249 37.3608L45.7162 37.3423C45.6737 37.34 45.6299 37.3596 45.6034 37.3941C45.5941 37.4062 45.3698 37.6865 44.9145 37.6654C44.1066 37.626 43.854 35.9043 43.8027 34.8397C43.9512 35.0297 44.1379 35.2056 44.351 35.3098C44.4704 35.3684 44.6547 35.4174 44.8679 35.4741Z" fill="#464655"/>
<path d="M21.714 34.8398C21.6627 35.9044 21.41 37.6261 20.6022 37.6655C20.1469 37.6865 19.9226 37.4062 19.9133 37.3941C19.8867 37.3596 19.8429 37.3401 19.8005 37.3423L19.4918 37.3608L19.5471 37.1562C19.5604 37.1069 19.5437 37.0539 19.5046 37.0208C19.4859 37.005 19.0493 36.6259 19.315 36.1431C19.5173 35.7752 20.1713 35.6011 20.6488 35.4741C20.8619 35.4173 21.0462 35.3683 21.1658 35.3098C21.3788 35.2058 21.5655 35.0299 21.714 34.8398Z" fill="#FFD250"/>
<path d="M21.9888 34.3604C21.9881 34.2989 21.9452 34.2459 21.8852 34.2326C21.8757 34.2306 21.8662 34.2295 21.8567 34.2295C21.8066 34.2295 21.7596 34.258 21.7374 34.3048C21.608 34.5767 21.3594 34.921 21.0498 35.0724C20.9532 35.1195 20.7807 35.1654 20.5807 35.2186C20.0571 35.3579 19.34 35.5487 19.0833 36.0157C18.8142 36.505 19.0611 36.9499 19.271 37.1641L19.1888 37.4691C19.1777 37.5104 19.1873 37.5542 19.214 37.587C19.2409 37.6199 19.2838 37.6389 19.3244 37.6355L19.7526 37.6099C19.8613 37.7203 20.1505 37.9519 20.615 37.9293C22.007 37.8616 21.9901 34.5033 21.9888 34.3604ZM21.1657 35.3102C21.3789 35.2059 21.5656 35.03 21.714 34.8401C21.6628 35.9047 21.41 37.6264 20.6022 37.6658C20.147 37.6868 19.9226 37.4065 19.9134 37.3945C19.8867 37.36 19.843 37.3405 19.8006 37.3427L19.4919 37.3612L19.5472 37.1566C19.5604 37.1073 19.5437 37.0543 19.5047 37.0212C19.4859 37.0054 19.0494 36.6263 19.315 36.1435C19.5174 35.7756 20.1714 35.6015 20.6488 35.4745C20.8619 35.4176 21.0463 35.3686 21.1657 35.3102Z" fill="#464655"/>
</g>
<defs>
<clipPath id="clip0_106_17440">
<rect width="50" height="50" fill="white"/>
</clipPath>
</defs>
</svg>
