<svg width="50" height="50" viewBox="0 0 50 50" fill="none" xmlns="http://www.w3.org/2000/svg">
<g clip-path="url(#clip0_106_17406)">
<path d="M49.1388 41.3792H0.863084C0.387011 41.3792 0.000976562 40.9932 0.000976562 40.5171V9.48271C0.000976562 9.00664 0.387011 8.62061 0.863084 8.62061H49.1389C49.6149 8.62061 50.001 9.00664 50.001 9.48271V40.5171C50.0009 40.9933 49.6148 41.3792 49.1388 41.3792Z" fill="#F5F5F5"/>
<path d="M20.399 31.4594C18.4088 31.0051 16.6345 29.9775 15.2617 28.5576V31.5944C16.7597 32.687 18.5074 33.4526 20.399 33.8027V31.4594Z" fill="#FFECD7"/>
<path d="M29.6006 31.4594C31.5908 31.0051 33.3651 29.9775 34.7379 28.5576V31.5944C33.2399 32.687 31.4922 33.4526 29.6006 33.8027V31.4594Z" fill="#FFECD7"/>
<path d="M19.5167 24.8774C19.4209 24.8966 19.2866 25.1458 19.2483 25.5675C19.21 25.9893 18.9417 27.7719 18.3665 27.5802C17.7914 27.3885 17.4081 26.545 17.4081 26.545L16.603 27.7144C16.603 27.7144 17.1397 27.5035 17.6957 27.7527C18.2517 28.0019 18.3857 28.1361 18.5392 27.9828C18.6925 27.8295 19.0567 27.3694 19.3442 27.4077L19.6701 25.0882L19.5167 24.8774Z" fill="#FFE15A"/>
<path d="M16.3352 28.6919C16.3352 28.6919 16.201 29.8037 16.2776 29.9379C16.3544 30.0721 18.4629 30.5704 18.4629 30.5704C18.4629 30.5704 17.8495 31.0687 17.8304 31.3372C17.8304 31.3372 17.0827 31.4714 16.8145 31.7015L15.8177 30.0529L15.7793 28.6919H16.3352Z" fill="#FFE15A"/>
<path d="M15.6678 18.5805L15.6821 18.0054C15.6821 18.0054 15.0063 17.9336 14.9202 19.4575L14.6758 18.7817C14.6758 18.7817 14.1726 19.4575 14.4745 20.5501L14.3451 20.6508C14.3451 20.6508 13.6838 19.7738 13.2812 18.6381C13.2812 18.6381 12.6055 19.17 13.3962 20.6796L12.4187 19.4431C12.4187 19.4431 11.9299 20.4783 13.3962 21.7147L12.016 20.7372C12.016 20.7372 11.9298 21.8587 13.2668 22.5774L11.9297 21.8586C11.9297 21.8586 11.9728 22.9368 13.5255 23.4688L12.059 23.1957C12.059 23.1957 12.4303 24.0772 13.5146 24.3151C13.2869 24.5693 13.0766 24.9109 13.0222 25.3522L14.1148 24.7483C14.1148 24.7483 13.5973 25.2802 13.741 26.0135L15.4231 24.3314L15.1933 24.2286C16.4658 23.9899 16.1995 23.9001 16.1995 23.9001C16.1995 23.9001 15.2601 21.4847 15.8929 19.8171C16.5254 18.1494 17.0813 17.9193 17.0813 17.8427C17.0814 17.7658 16.401 17.6748 15.6678 18.5805Z" fill="#FFECD7"/>
<path d="M16.9664 19.5483C16.9664 19.5483 19.1516 21.8486 19.19 22.0596C19.2284 22.2704 18.9599 22.2321 18.9599 22.2321C18.9599 22.2321 18.4232 21.5421 17.6947 21.2737C16.9663 21.0054 16.4871 20.1619 16.1996 19.9703C15.9121 19.7784 16.9664 19.5483 16.9664 19.5483Z" fill="#FFE15A"/>
<path d="M16.2382 20.1043C16.5257 20.2001 17.1775 20.0659 17.1583 19.4718C17.1392 18.8774 16.5449 18.6475 16.104 18.7817C15.6632 18.9159 14.8388 19.5294 15.3563 20.7178C15.8739 21.9063 16.6407 22.3472 16.794 23.3633C16.794 23.3633 16.104 23.4686 15.7397 23.3824C15.4267 23.3083 14.8963 23.0565 15.0113 22.3665C15.1263 21.6764 15.3947 21.2738 15.1646 20.8904C14.9346 20.507 14.2062 19.8361 14.2062 19.8361C14.2062 19.8361 12.6344 23.8616 15.4715 24.916C15.4715 24.916 14.1297 26.2004 13.4588 27.4462L13.8613 27.5612C13.8613 27.5612 13.1521 28.328 12.7495 28.6155C12.7495 28.6155 14.0722 29.0755 15.3757 27.5803C15.3757 27.5803 15.7016 28.117 15.7782 28.6921H16.3342C16.3342 28.6921 16.5259 27.772 17.4077 27.0053C18.2895 26.2385 19.1845 25.1452 19.0945 24.1491C18.9891 22.9798 18.1085 22.4537 17.192 21.729C15.9554 20.7512 16.2382 20.1043 16.2382 20.1043Z" fill="#FFF5E1"/>
<path d="M30.4854 24.8774C30.5812 24.8966 30.7154 25.1458 30.7537 25.5675C30.7921 25.9893 31.0603 27.7719 31.6355 27.5802C32.2106 27.3885 32.594 26.545 32.594 26.545L33.3991 27.7144C33.3991 27.7144 32.8624 27.5035 32.3064 27.7527C31.7505 28.0019 31.6164 28.1361 31.463 27.9828C31.3097 27.8295 30.9454 27.3694 30.6579 27.4077L30.332 25.0882L30.4854 24.8774Z" fill="#FFE15A"/>
<path d="M33.6678 28.6919C33.6678 28.6919 33.8019 29.8037 33.7253 29.9379C33.6485 30.0721 31.54 30.5704 31.54 30.5704C31.54 30.5704 32.1534 31.0687 32.1726 31.3372C32.1726 31.3372 32.9202 31.4714 33.1885 31.7015L34.1852 30.0529L34.2236 28.6919H33.6677H33.6678Z" fill="#FFE15A"/>
<path d="M34.334 18.5805L34.3196 18.0054C34.3196 18.0054 34.9954 17.9336 35.0815 19.4575L35.326 18.7817C35.326 18.7817 35.8292 19.4575 35.5272 20.5501L35.6566 20.6508C35.6566 20.6508 36.318 19.7738 36.7205 18.6381C36.7205 18.6381 37.3963 19.17 36.6056 20.6796L37.5831 19.4431C37.5831 19.4431 38.0719 20.4783 36.6056 21.7147L37.9857 20.7372C37.9857 20.7372 38.0721 21.8587 36.735 22.5774L38.0721 21.8586C38.0721 21.8586 38.029 22.9368 36.4763 23.4688L37.9428 23.1957C37.9428 23.1957 37.5715 24.0772 36.4871 24.3151C36.7148 24.5693 36.9252 24.9109 36.9796 25.3522L35.8869 24.7483C35.8869 24.7483 36.4045 25.2802 36.2607 26.0135L34.5786 24.3314L34.8085 24.2286C33.5358 23.9899 33.8022 23.9001 33.8022 23.9001C33.8022 23.9001 34.7416 21.4847 34.1089 19.8171C33.4763 18.1494 32.9204 17.9193 32.9204 17.8427C32.9203 17.7658 33.6008 17.6748 34.334 18.5805Z" fill="#FFECD7"/>
<path d="M33.035 19.5483C33.035 19.5483 30.8498 21.8486 30.8114 22.0596C30.773 22.2704 31.0414 22.2321 31.0414 22.2321C31.0414 22.2321 31.5782 21.5421 32.3067 21.2737C33.0351 21.0054 33.5143 20.1619 33.8018 19.9703C34.0893 19.7787 33.035 19.5483 33.035 19.5483Z" fill="#FFE15A"/>
<path d="M33.7635 20.1043C33.476 20.2001 32.8241 20.0659 32.8434 19.4718C32.8625 18.8774 33.4567 18.6475 33.8977 18.7817C34.3385 18.9159 35.1629 19.5294 34.6453 20.7178C34.1277 21.9063 33.3609 22.3472 33.2076 23.3633C33.2076 23.3633 33.8977 23.4686 34.2619 23.3824C34.575 23.3083 35.1054 23.0565 34.9903 22.3665C34.8754 21.6764 34.6069 21.2738 34.837 20.8904C35.0671 20.507 35.7954 19.8361 35.7954 19.8361C35.7954 19.8361 37.3673 23.8616 34.5302 24.916C34.5302 24.916 35.872 26.2004 36.5429 27.4462L36.1403 27.5612C36.1403 27.5612 36.8496 28.328 37.2521 28.6155C37.2521 28.6155 35.9295 29.0755 34.626 27.5803C34.626 27.5803 34.3001 28.117 34.2234 28.6921H33.6675C33.6675 28.6921 33.4758 27.772 32.594 27.0053C31.7121 26.2385 30.8172 25.1452 30.9071 24.1491C31.0125 22.9798 31.8932 22.4537 32.8097 21.729C34.0463 20.7512 33.7635 20.1043 33.7635 20.1043Z" fill="#FFF5E1"/>
<path d="M30.5195 16.2139H19.4785V18.4375H30.5195V16.2139Z" fill="#464655"/>
<path d="M24.9987 17.9766H19.478C19.478 17.9766 19.478 23.9574 19.478 25.3376C19.478 26.7178 20.3981 30.3982 24.9987 31.7784C29.5993 30.3982 30.5194 26.7178 30.5194 25.3376C30.5194 23.9574 30.5194 17.9766 30.5194 17.9766H24.9987Z" fill="#41479B"/>
<path d="M19.478 25.3375C19.478 25.6795 19.5352 26.1633 19.6901 26.7177H30.3074C30.4624 26.1633 30.5195 25.6795 30.5195 25.3375V22.5771H19.478V25.3375Z" fill="#FF4B55"/>
<path d="M24.9991 24.6475L24.355 26.2575L24.9991 25.9355L25.6432 26.2575L24.9991 24.6475Z" fill="#F5F5F5"/>
<path d="M24.9991 24.6474L25.6432 23.0371L24.9991 23.3591L24.355 23.0371L24.9991 24.6474Z" fill="#F5F5F5"/>
<path d="M24.9989 24.6472L23.3887 24.0029L23.7107 24.6472L23.3887 25.2912L24.9989 24.6472Z" fill="#F5F5F5"/>
<path d="M24.999 24.6472L26.6091 25.2912L26.2871 24.6472L26.6091 24.0029L24.999 24.6472Z" fill="#F5F5F5"/>
<path d="M25.7234 19.6031C25.616 19.6204 25.5215 19.6341 25.4362 19.6789C25.533 19.4368 25.6014 19.2096 25.5412 19.0505C25.3943 18.6613 25.1117 18.731 25.0028 18.4473V18.4365C25.002 18.4387 25.0008 18.4398 25 18.4419C24.9993 18.4397 24.9981 18.4386 24.9973 18.4365V18.4473C24.8885 18.731 24.6058 18.6614 24.4588 19.0505C24.3987 19.2097 24.467 19.4367 24.5639 19.6789C24.4787 19.6341 24.3841 19.6203 24.2766 19.6031C24.0573 19.568 23.7241 19.7961 23.7942 20.2347C23.8643 20.6732 24.3731 20.7084 24.3731 20.7084C24.303 20.6383 24.2415 20.5242 24.2766 20.4014C24.3117 20.2785 24.5661 20.1733 24.6976 20.5855C24.8291 20.9978 24.3819 21.5855 24.3819 21.5855C24.535 21.5774 24.6468 21.5297 24.7276 21.4813C24.6214 21.8275 24.9688 22.0955 24.9972 22.1165V22.1206L24.9999 22.1185C25.0002 22.1187 25.0027 22.1206 25.0027 22.1206V22.1165C25.0311 22.0955 25.3785 21.8276 25.2723 21.4814C25.353 21.5298 25.4649 21.5774 25.618 21.5855C25.618 21.5855 25.1707 20.9978 25.3023 20.5855C25.4338 20.1732 25.6883 20.2785 25.7233 20.4014C25.7584 20.5242 25.697 20.6382 25.6268 20.7084C25.6268 20.7084 26.1355 20.6732 26.2057 20.2347C26.276 19.796 25.9427 19.568 25.7234 19.6031Z" fill="#FFE15A"/>
<path d="M29.1091 19.6031C29.0017 19.6204 28.9073 19.6341 28.8219 19.6789C28.9188 19.4368 28.9871 19.2096 28.927 19.0505C28.78 18.6613 28.4974 18.731 28.3885 18.4473V18.4365C28.3877 18.4387 28.3866 18.4398 28.3858 18.4419C28.385 18.4397 28.3838 18.4386 28.383 18.4365V18.4473C28.2743 18.731 27.9915 18.6614 27.8446 19.0505C27.7844 19.2097 27.8528 19.4367 27.9496 19.6789C27.8644 19.6341 27.7699 19.6203 27.6623 19.6031C27.443 19.568 27.1098 19.7961 27.1799 20.2347C27.25 20.6732 27.7588 20.7084 27.7588 20.7084C27.6887 20.6383 27.6273 20.5242 27.6623 20.4014C27.6975 20.2785 27.9518 20.1733 28.0833 20.5855C28.2149 20.9977 27.7676 21.5855 27.7676 21.5855C27.9207 21.5774 28.0326 21.5297 28.1133 21.4813C28.0072 21.8275 28.3545 22.0955 28.3829 22.1165V22.1206L28.3857 22.1185C28.386 22.1187 28.3884 22.1206 28.3884 22.1206V22.1165C28.4168 22.0955 28.7642 21.8276 28.658 21.4814C28.7387 21.5298 28.8506 21.5774 29.0037 21.5855C29.0037 21.5855 28.5565 20.9978 28.688 20.5855C28.8196 20.1732 29.0741 20.2785 29.109 20.4014C29.1442 20.5242 29.0828 20.6382 29.0125 20.7084C29.0125 20.7084 29.5212 20.6732 29.5914 20.2347C29.6617 19.796 29.3285 19.568 29.1091 19.6031Z" fill="#FFE15A"/>
<path d="M22.3381 19.6031C22.2307 19.6204 22.1363 19.6341 22.0509 19.6789C22.1478 19.4368 22.2162 19.2096 22.156 19.0505C22.009 18.6613 21.7264 18.731 21.6175 18.4473V18.4365C21.6167 18.4387 21.6156 18.4398 21.6148 18.4419C21.614 18.4397 21.6128 18.4386 21.6121 18.4365V18.4473C21.5033 18.731 21.2205 18.6614 21.0736 19.0505C21.0134 19.2097 21.0818 19.4367 21.1787 19.6789C21.0934 19.6341 20.9989 19.6203 20.8913 19.6031C20.672 19.568 20.3388 19.7961 20.4089 20.2347C20.479 20.6732 20.9878 20.7084 20.9878 20.7084C20.9177 20.6383 20.8563 20.5242 20.8913 20.4014C20.9265 20.2785 21.1808 20.1733 21.3123 20.5855C21.4439 20.9977 20.9966 21.5855 20.9966 21.5855C21.1497 21.5774 21.2616 21.5297 21.3423 21.4813C21.2362 21.8275 21.5835 22.0955 21.612 22.1165V22.1206L21.6147 22.1185C21.615 22.1187 21.6174 22.1206 21.6174 22.1206V22.1165C21.6458 22.0955 21.9932 21.8276 21.8871 21.4814C21.9677 21.5298 22.0796 21.5774 22.2328 21.5855C22.2328 21.5855 21.7855 20.9978 21.917 20.5855C22.0486 20.1732 22.3031 20.2785 22.338 20.4014C22.3732 20.5242 22.3118 20.6382 22.2415 20.7084C22.2415 20.7084 22.7502 20.6732 22.8204 20.2347C22.8908 19.796 22.5575 19.568 22.3381 19.6031Z" fill="#FFE15A"/>
<path d="M26.08 29.0818C26.08 29.0818 25.834 29.0433 25.8144 29.2911C25.8144 29.2911 25.8144 29.3194 25.8132 29.3588C25.7828 29.3444 25.7497 29.335 25.7139 29.335C25.5839 29.335 25.4785 29.4403 25.4785 29.5704C25.4785 29.7004 25.5839 29.8058 25.7139 29.8058C25.7242 29.8058 25.733 29.8012 25.743 29.7998C25.7079 29.912 25.6522 30.0142 25.574 30.088H25.2598C25.1771 29.9965 25.152 29.8174 25.1466 29.6877C25.1517 29.688 25.1556 29.6916 25.1607 29.6916C25.2674 29.6916 25.3538 29.6051 25.3538 29.4985C25.3538 29.3932 25.2692 29.3082 25.1644 29.3062C25.1811 29.2776 25.1933 29.2461 25.1933 29.2106C25.1933 29.104 25.1068 29.0176 25.0002 29.0176C24.8936 29.0176 24.8071 29.1041 24.8071 29.2106C24.8071 29.2461 24.8193 29.2775 24.836 29.3062C24.7312 29.3083 24.6466 29.3933 24.6466 29.4985C24.6466 29.6052 24.7331 29.6916 24.8396 29.6916C24.8448 29.6916 24.8487 29.6882 24.8538 29.6877C24.8485 29.8175 24.8233 29.9965 24.7406 30.088H24.4264C24.3481 30.0142 24.2924 29.9119 24.2574 29.7998C24.2675 29.8011 24.2762 29.8058 24.2865 29.8058C24.4165 29.8058 24.5219 29.7004 24.5219 29.5704C24.5219 29.4404 24.4165 29.335 24.2865 29.335C24.2507 29.335 24.2176 29.3443 24.1872 29.3588C24.186 29.3194 24.186 29.2911 24.186 29.2911C24.1664 29.0433 23.9204 29.0818 23.9204 29.0818C24.0733 29.5486 24.0331 30.0881 24.0331 30.0881V30.5627H25.9645V30.0892L25.9674 30.0881C25.9674 30.0881 25.927 29.5485 26.08 29.0818Z" fill="#FFE15A"/>
<path d="M23.8231 27.2415C23.8231 27.2415 23.5771 27.2029 23.5575 27.4508C23.5575 27.4508 23.5575 27.4791 23.5563 27.5185C23.526 27.5041 23.4929 27.4946 23.457 27.4946C23.327 27.4946 23.2217 27.6 23.2217 27.73C23.2217 27.86 23.327 27.9654 23.457 27.9654C23.4674 27.9654 23.4762 27.9608 23.4861 27.9595C23.4511 28.0717 23.3954 28.1738 23.3172 28.2477H23.0029C22.9203 28.1561 22.8952 27.977 22.8897 27.8474C22.8948 27.8478 22.8987 27.8513 22.9039 27.8513C23.0105 27.8513 23.097 27.7647 23.097 27.6582C23.097 27.5528 23.0124 27.4679 22.9075 27.4658C22.9242 27.4373 22.9364 27.4058 22.9364 27.3703C22.9364 27.2637 22.85 27.1772 22.7434 27.1772C22.6367 27.1772 22.5503 27.2638 22.5503 27.3703C22.5503 27.4058 22.5625 27.4372 22.5792 27.4658C22.4743 27.468 22.3897 27.5529 22.3897 27.6582C22.3897 27.7648 22.4763 27.8513 22.5828 27.8513C22.588 27.8513 22.5919 27.8478 22.597 27.8474C22.5917 27.9771 22.5665 28.1561 22.4838 28.2477H22.1695C22.0913 28.1738 22.0355 28.0716 22.0006 27.9595C22.0106 27.9607 22.0193 27.9654 22.0297 27.9654C22.1597 27.9654 22.265 27.8601 22.265 27.73C22.265 27.6 22.1597 27.4946 22.0297 27.4946C21.9938 27.4946 21.9607 27.504 21.9304 27.5185C21.9292 27.4791 21.9292 27.4508 21.9292 27.4508C21.9096 27.2029 21.6636 27.2415 21.6636 27.2415C21.8165 27.7083 21.7763 28.2478 21.7763 28.2478V28.7224H23.7077V28.2488L23.7105 28.2478C23.7104 28.2478 23.6703 27.7083 23.8231 27.2415Z" fill="#FFE15A"/>
<path d="M28.3373 27.2415C28.3373 27.2415 28.0913 27.2029 28.0717 27.4508C28.0717 27.4508 28.0717 27.4791 28.0705 27.5185C28.0401 27.5041 28.007 27.4946 27.9712 27.4946C27.8412 27.4946 27.7357 27.6 27.7357 27.73C27.7357 27.86 27.8411 27.9654 27.9712 27.9654C27.9815 27.9654 27.9903 27.9608 28.0003 27.9595C27.9652 28.0717 27.9096 28.1738 27.8313 28.2477H27.5171C27.4345 28.1561 27.4094 27.977 27.4039 27.8474C27.409 27.8478 27.4129 27.8513 27.4181 27.8513C27.5247 27.8513 27.6111 27.7647 27.6111 27.6582C27.6111 27.5528 27.5266 27.4679 27.4217 27.4658C27.4384 27.4373 27.4506 27.4058 27.4506 27.3703C27.4506 27.2637 27.3642 27.1772 27.2575 27.1772C27.1509 27.1772 27.0645 27.2638 27.0645 27.3703C27.0645 27.4058 27.0767 27.4372 27.0934 27.4658C26.9885 27.468 26.9039 27.5529 26.9039 27.6582C26.9039 27.7648 26.9904 27.8513 27.097 27.8513C27.1021 27.8513 27.1061 27.8478 27.1111 27.8474C27.1059 27.9771 27.0807 28.1561 26.9979 28.2477H26.6837C26.6055 28.1738 26.5497 28.0716 26.5147 27.9595C26.5248 27.9607 26.5335 27.9654 26.5438 27.9654C26.6738 27.9654 26.7792 27.8601 26.7792 27.73C26.7792 27.6 26.6738 27.4946 26.5438 27.4946C26.508 27.4946 26.4749 27.504 26.4445 27.5185C26.4434 27.4791 26.4434 27.4508 26.4434 27.4508C26.4237 27.2029 26.1777 27.2415 26.1777 27.2415C26.3307 27.7083 26.2904 28.2478 26.2904 28.2478V28.7224H28.2219V28.2488L28.2247 28.2478C28.2246 28.2478 28.1844 27.7083 28.3373 27.2415Z" fill="#FFE15A"/>
<path d="M32.145 15.1552C31.8802 15.05 31.6136 14.951 31.3457 14.8581C31.2707 15.0754 31.1958 15.2927 31.1208 15.5102C30.9915 15.4655 30.8618 15.4218 30.7319 15.3799C30.8021 15.1609 30.8723 14.942 30.9426 14.7229C30.673 14.636 30.402 14.555 30.1299 14.4803C30.0692 14.7022 30.0087 14.924 29.948 15.1458C29.8168 15.1097 29.6852 15.0751 29.5533 15.0419C29.6092 14.8188 29.6648 14.5957 29.7207 14.3725C29.4473 14.3038 29.1727 14.2411 28.8973 14.1844C28.8053 14.6351 28.7132 15.0858 28.6211 15.5365C28.7917 15.5716 28.9619 15.6091 29.1317 15.6492C29.0967 15.7984 29.0617 15.9477 29.0266 16.097C28.0339 15.8626 27.0256 15.7161 26.0135 15.6576C26.0222 15.5044 26.0311 15.3514 26.0398 15.1982C26.2129 15.2082 26.3859 15.2208 26.5587 15.2358C26.5983 14.7775 26.638 14.3192 26.6775 13.8608C26.3985 13.8366 26.1191 13.8183 25.8394 13.8062C25.8295 14.0361 25.8196 14.2658 25.8097 14.4957C25.6749 14.4898 25.5399 14.4854 25.4051 14.4825C25.41 14.2525 25.415 14.0224 25.4199 13.7926C25.1401 13.7866 24.8603 13.7866 24.5806 13.7926C24.5855 14.0226 24.5905 14.2526 24.5954 14.4825C24.4604 14.4854 24.3256 14.4898 24.1908 14.4957C24.1808 14.2658 24.171 14.0361 24.161 13.8062C23.8814 13.8183 23.602 13.8365 23.3229 13.8608C23.3626 14.3191 23.4022 14.7775 23.4418 15.2358C23.6146 15.2208 23.7876 15.2082 23.9606 15.1982C23.9694 15.3513 23.9783 15.5044 23.987 15.6576C22.9748 15.7162 21.9666 15.8626 20.9738 16.097C20.9388 15.9478 20.9038 15.7985 20.8687 15.6492C21.0386 15.6089 21.2087 15.5714 21.3794 15.5365C21.2873 15.0858 21.1952 14.6351 21.1031 14.1844C20.8277 14.241 20.5531 14.3038 20.2798 14.3725C20.3356 14.5957 20.3913 14.8188 20.4472 15.0419C20.3152 15.0751 20.1837 15.1097 20.0524 15.1458C19.9919 14.924 19.9312 14.7021 19.8706 14.4803C19.5984 14.5552 19.3274 14.636 19.0579 14.7229C19.1281 14.9419 19.1983 15.1608 19.2686 15.3799C19.1386 15.4218 19.009 15.4654 18.8797 15.5102C18.8047 15.2928 18.7298 15.0755 18.6548 14.8581C18.3867 14.9511 18.1202 15.0501 17.8555 15.1552C18.0243 15.583 18.1932 16.0107 18.362 16.4385C18.526 16.3735 18.6908 16.3107 18.8561 16.2507C19.0645 16.8275 19.2728 17.404 19.4812 17.9808C19.9269 17.8187 20.378 17.677 20.833 17.5556C20.9848 17.5152 21.1368 17.4767 21.2893 17.4409C22.2043 17.2249 23.1337 17.0898 24.0665 17.0358C24.6884 16.9998 25.3119 16.9999 25.9338 17.0358C26.8667 17.0897 27.796 17.2248 28.711 17.4409C28.8635 17.477 29.0156 17.5151 29.1673 17.5556C29.6223 17.6772 30.0733 17.8189 30.519 17.9808C30.7274 17.4039 30.9357 16.8275 31.1441 16.2507C31.3095 16.3109 31.4743 16.3735 31.6383 16.4385C31.8072 16.0108 31.9761 15.583 32.145 15.1552Z" fill="#FFE15A"/>
<path d="M24.9986 37.0687C27.7431 37.0687 30.2841 36.1875 32.3596 34.6971V31.6859C30.4817 33.5873 27.876 34.7683 24.9986 34.7683C22.0815 34.7683 19.4443 33.5535 17.561 31.6055V34.6423C19.6502 36.1664 22.2204 37.0687 24.9986 37.0687Z" fill="#FFE1CD"/>
</g>
<defs>
<clipPath id="clip0_106_17406">
<rect width="50" height="50" fill="white"/>
</clipPath>
</defs>
</svg>
