<svg width="50" height="50" viewBox="0 0 50 50" fill="none" xmlns="http://www.w3.org/2000/svg">
<g clip-path="url(#clip0_106_17401)">
<path d="M49.1378 41.3791H0.862108C0.386034 41.3791 0 40.9931 0 40.517V9.48271C0 9.00664 0.386034 8.62061 0.862108 8.62061H49.1379C49.614 8.62061 50 9.00664 50 9.48271V40.517C49.9999 40.9932 49.6139 41.3791 49.1378 41.3791Z" fill="#3CC8FF"/>
<path d="M25 11.207L12.9312 38.7931H37.0689L25 11.207Z" fill="#464655"/>
<path d="M25 15.5086L34.4327 37.069H15.5673L25 15.5086ZM25 11.207L12.9312 38.7931H37.069L25 11.207Z" fill="#F5F5F5"/>
<path d="M12.9312 38.793L25 25L37.0689 38.793H12.9312Z" fill="#FFE15A"/>
</g>
<defs>
<clipPath id="clip0_106_17401">
<rect width="50" height="50" fill="white"/>
</clipPath>
</defs>
</svg>
