<svg width="50" height="50" viewBox="0 0 50 50" fill="none" xmlns="http://www.w3.org/2000/svg">
<g clip-path="url(#clip0_106_17393)">
<path d="M38.7939 8.62061H11.208V41.3793H38.7939V8.62061Z" fill="#FFE15A"/>
<path d="M49.1387 41.3787H38.7939V8.62012H49.1388C49.6148 8.62012 50.0009 9.00615 50.0009 9.48222V40.5165C50.0008 40.9927 49.6147 41.3787 49.1387 41.3787Z" fill="#73AF00"/>
<path d="M0.863084 8.62012H11.2079V41.3787H0.863084C0.387011 41.3787 0.000976562 40.9926 0.000976562 40.5165V9.48222C0.000976562 9.00615 0.387011 8.62012 0.863084 8.62012Z" fill="#4173CD"/>
<path d="M18.7417 24.5582L21.5381 30.1511L24.3346 24.5582L21.5381 18.9653L18.7417 24.5582Z" fill="#73AF00"/>
<path d="M25.6709 24.5582L28.4674 30.1511L31.2638 24.5582L28.4674 18.9653L25.6709 24.5582Z" fill="#73AF00"/>
<path d="M22.2065 31.2818L25.0029 36.8746L27.7994 31.2818L25.0029 25.689L22.2065 31.2818Z" fill="#73AF00"/>
</g>
<defs>
<clipPath id="clip0_106_17393">
<rect width="50" height="50" fill="white"/>
</clipPath>
</defs>
</svg>
