<svg width="50" height="50" viewBox="0 0 50 50" fill="none" xmlns="http://www.w3.org/2000/svg">
<g clip-path="url(#clip0_106_17388)">
<path d="M50.0004 19.5402H0.000488281V9.48271C0.000488281 9.00664 0.386523 8.62061 0.862596 8.62061H49.1384C49.6145 8.62061 50.0005 9.00664 50.0005 9.48271L50.0004 19.5402Z" fill="#FF4B55"/>
<path d="M49.1383 41.3795H0.862596C0.386523 41.3795 0.000488281 40.9934 0.000488281 40.5174V30.46H50.0004V40.5174C50.0004 40.9935 49.6144 41.3795 49.1383 41.3795Z" fill="#464655"/>
<path d="M50.0004 19.54H0.000488281V30.459H50.0004V19.54Z" fill="#F5F5F5"/>
<path d="M0.318456 41.1708L20.1271 25.4467C20.4148 25.2184 20.4148 24.7815 20.1271 24.5531L0.318456 8.8291C0.128515 8.98721 0.000488281 9.21631 0.000488281 9.48271V40.5171C0.000488281 40.7836 0.128515 41.0127 0.318456 41.1708Z" fill="#73AF00"/>
</g>
<defs>
<clipPath id="clip0_106_17388">
<rect width="50" height="50" fill="white"/>
</clipPath>
</defs>
</svg>
