<svg width="50" height="50" viewBox="0 0 50 50" fill="none" xmlns="http://www.w3.org/2000/svg">
<g clip-path="url(#clip0_106_17381)">
<path d="M49.1393 41.3792H0.863573C0.387499 41.3792 0.00146484 40.9932 0.00146484 40.5171V9.48271C0.00146484 9.00664 0.387499 8.62061 0.863573 8.62061H49.1394C49.6154 8.62061 50.0015 9.00664 50.0015 9.48271V40.5171C50.0014 40.9933 49.6153 41.3792 49.1393 41.3792Z" fill="#73AF00"/>
<path d="M50.0023 14.6553H0.00244141V18.1035H50.0023V14.6553Z" fill="#F5F5F5"/>
<path d="M50.0023 31.8965H0.00244141V35.3447H50.0023V31.8965Z" fill="#F5F5F5"/>
<path d="M50.0014 18.1035H0.00146484V31.8965H50.0014V18.1035Z" fill="#C8414B"/>
<path d="M24.7866 19.6889L23.5314 23.4527L19.5639 23.4834C19.3463 23.4851 19.2563 23.7627 19.4312 23.8919L22.6229 26.2488L21.4261 30.0317C21.3605 30.2391 21.5966 30.4107 21.7737 30.2841L25.0014 27.977L28.2292 30.2841C28.4062 30.4106 28.6423 30.2391 28.5768 30.0317L27.38 26.2488L30.5717 23.8919C30.7467 23.7627 30.6564 23.485 30.439 23.4834L26.4715 23.4527L25.2162 19.6889C25.1473 19.4826 24.8555 19.4826 24.7866 19.6889Z" fill="#FFE15A"/>
</g>
<defs>
<clipPath id="clip0_106_17381">
<rect width="50" height="50" fill="white"/>
</clipPath>
</defs>
</svg>
