<svg width="50" height="50" viewBox="0 0 50 50" fill="none" xmlns="http://www.w3.org/2000/svg">
<g clip-path="url(#clip0_106_17326)">
<path d="M0.000976562 35.3447H50.0009V40.5172C50.0009 40.9933 49.6148 41.3793 49.1388 41.3793H0.863084C0.387011 41.3793 0.000976562 40.9933 0.000976562 40.5172V35.3447Z" fill="#4173CD"/>
<path d="M0.862596 8.62061H49.1384C49.6145 8.62061 50.0005 9.00664 50.0005 9.48271V14.6552H0.000488281V9.48262C0.000488281 9.00654 0.386523 8.62061 0.862596 8.62061Z" fill="#4173CD"/>
<path d="M50.0004 14.6553H0.000488281V35.3447H50.0004V14.6553Z" fill="#FF4B55"/>
<path d="M50.0004 13.793H0.000488281V15.5171H50.0004V13.793Z" fill="#FFE15A"/>
<path d="M50.0009 34.4824H0.000976562V36.2065H50.0009V34.4824Z" fill="#FFE15A"/>
<path d="M43.8386 25.8321H6.12744C5.87148 25.8321 5.66406 25.6247 5.66406 25.3687V25.2222C5.66406 24.9662 5.87148 24.7588 6.12744 24.7588H43.8386C44.0946 24.7588 44.302 24.9662 44.302 25.2222V25.3687C44.302 25.6246 44.0946 25.8321 43.8386 25.8321Z" fill="#FFE15A"/>
<path d="M36.5205 23.6853L38.3987 22.8804L40.2769 23.6853L38.3987 24.4903L36.5205 23.6853Z" fill="#F5F5F5"/>
<path d="M36.9824 23.3423H9.42002C9.23066 23.3423 9.07715 23.4957 9.07715 23.6852C9.07715 23.8745 9.23057 24.028 9.42002 24.028H36.9823C37.1716 24.028 37.3251 23.8745 37.3251 23.6852C37.3251 23.4958 37.1716 23.3423 36.9824 23.3423Z" fill="#FFE15A"/>
<path d="M38.4731 21.8069L40.3514 21.002L42.2296 21.8069L40.3514 22.6119L38.4731 21.8069Z" fill="#F5F5F5"/>
<path d="M38.9349 21.4644H11.3727C11.1833 21.4644 11.0298 21.6178 11.0298 21.8072C11.0298 21.9966 11.1832 22.1501 11.3727 22.1501H38.9349C39.1243 22.1501 39.2778 21.9966 39.2778 21.8072C39.2778 21.6179 39.1244 21.4644 38.9349 21.4644Z" fill="#FFE15A"/>
<path d="M24.9826 18.3188C20.2162 18.3188 16.0578 21.018 13.8306 25.0268C16.0577 29.0356 20.2162 31.7348 24.9826 31.7348C29.749 31.7348 33.9074 29.0357 36.1346 25.0268C33.9075 21.018 29.7489 18.3188 24.9826 18.3188Z" fill="#F5F5F5"/>
<path d="M13.8306 25.027C16.0577 29.0358 20.2162 31.735 24.9826 31.735C25.7785 31.735 26.5554 31.6534 27.3113 31.5092C26.7343 30.2426 24.7048 30.2447 24.5802 29.7674C24.446 29.2531 26.2347 29.3649 26.5478 28.94C26.8609 28.5152 24.8485 28.3363 24.7591 27.9115C24.6696 27.4866 25.564 27.196 25.7206 26.5252C25.8771 25.8544 26.2348 25.6532 26.5031 25.2508C26.7715 24.8483 26.0559 24.7141 25.877 23.3725C25.6981 22.0309 24.6472 21.852 24.133 20.7565C23.6186 19.6609 24.4461 18.856 24.9827 18.3193C20.2162 18.319 16.0577 21.0182 13.8306 25.027Z" fill="#464655"/>
<path d="M18.541 22.6123H18.0044V24.7589H18.541V22.6123Z" fill="#F5F5F5"/>
<path d="M19.6152 22.6123H19.0786V24.7589H19.6152V22.6123Z" fill="#F5F5F5"/>
<path d="M20.6885 22.6123H20.1519V24.7589H20.6885V22.6123Z" fill="#F5F5F5"/>
<path d="M21.7617 22.6123H21.2251V24.7589H21.7617V22.6123Z" fill="#F5F5F5"/>
<path d="M22.835 22.6123H22.2983V24.7589H22.835V22.6123Z" fill="#F5F5F5"/>
<path d="M23.9082 22.6123H23.3716V24.7589H23.9082V22.6123Z" fill="#F5F5F5"/>
<path d="M18.541 25.832H18.0044V27.9786H18.541V25.832Z" fill="#F5F5F5"/>
<path d="M19.6152 25.832H19.0786V27.9786H19.6152V25.832Z" fill="#F5F5F5"/>
<path d="M20.6885 25.832H20.1519V27.9786H20.6885V25.832Z" fill="#F5F5F5"/>
<path d="M21.7617 25.832H21.2251V27.9786H21.7617V25.832Z" fill="#F5F5F5"/>
<path d="M22.835 25.832H22.2983V27.9786H22.835V25.832Z" fill="#F5F5F5"/>
<path d="M23.9082 25.832H23.3716V27.9786H23.9082V25.832Z" fill="#F5F5F5"/>
<path d="M26.5918 22.6123H26.0552V24.7589H26.5918V22.6123Z" fill="#464655"/>
<path d="M27.665 22.6123H27.1284V24.7589H27.665V22.6123Z" fill="#464655"/>
<path d="M28.7383 22.6123H28.2017V24.7589H28.7383V22.6123Z" fill="#464655"/>
<path d="M29.8115 22.6123H29.2749V24.7589H29.8115V22.6123Z" fill="#464655"/>
<path d="M30.8848 22.6123H30.3481V24.7589H30.8848V22.6123Z" fill="#464655"/>
<path d="M31.958 22.6123H31.4214V24.7589H31.958V22.6123Z" fill="#464655"/>
<path d="M26.5918 25.832H26.0552V27.9786H26.5918V25.832Z" fill="#464655"/>
<path d="M27.665 25.832H27.1284V27.9786H27.665V25.832Z" fill="#464655"/>
<path d="M28.7383 25.832H28.2017V27.9786H28.7383V25.832Z" fill="#464655"/>
<path d="M29.8115 25.832H29.2749V27.9786H29.8115V25.832Z" fill="#464655"/>
<path d="M30.8848 25.832H30.3481V27.9786H30.8848V25.832Z" fill="#464655"/>
<path d="M31.958 25.832H31.4214V27.9786H31.958V25.832Z" fill="#464655"/>
<path d="M41.5418 24.6748C41.112 25.6731 39.8889 25.7906 40.5667 28.3355L40.9137 27.9832C40.9137 27.9832 41.2773 28.9425 42.1533 29.5885C42.1533 29.5885 43.2275 28.6879 43.3102 27.259L43.7564 27.4548C43.7564 27.4545 43.5416 24.851 41.5418 24.6748Z" fill="#245DBD"/>
<path d="M43.1282 26.7204C43.0938 26.7204 43.0598 26.7045 43.0339 26.6733C42.613 26.1656 42.0769 26.0028 42.0717 26.0011C42.0009 25.9803 41.9575 25.8952 41.9751 25.8114C41.9927 25.7282 42.0645 25.6762 42.1349 25.697C42.1597 25.7043 42.7472 25.8811 43.2224 26.4543C43.2735 26.5155 43.2727 26.6151 43.2209 26.6758C43.1951 26.7058 43.1618 26.7204 43.1282 26.7204Z" fill="#FF4B55"/>
<path d="M42.8249 27.9049C42.7854 27.9049 42.7461 27.8841 42.72 27.8437C42.4078 27.3628 42.0537 27.101 42.0501 27.0986C41.9878 27.0533 41.9688 26.9567 42.007 26.8826C42.0455 26.8093 42.1269 26.7866 42.1892 26.8319C42.2055 26.8435 42.5884 27.1274 42.9298 27.6529C42.9742 27.7214 42.9634 27.8199 42.9056 27.8725C42.8816 27.8945 42.853 27.9049 42.8249 27.9049Z" fill="#FF4B55"/>
<path d="M42.1304 29.223C42.123 29.223 42.1155 29.2223 42.1077 29.2205C42.0361 29.2059 41.9876 29.125 41.9999 29.0401C42.052 28.6816 42.0084 28.0937 41.937 27.7902C41.9174 27.707 41.9584 27.6207 42.0285 27.5969C42.0993 27.5742 42.1715 27.6226 42.1909 27.7059C42.2716 28.0484 42.3187 28.6878 42.2599 29.0927C42.249 29.1692 42.1932 29.223 42.1304 29.223Z" fill="#FF4B55"/>
<path d="M41.2006 27.7767C41.1629 27.7767 41.1255 27.7577 41.0995 27.721C41.0525 27.655 41.0595 27.5558 41.1152 27.5002C41.1185 27.4972 41.456 27.1545 41.5442 26.6805C41.5599 26.5961 41.6299 26.5429 41.7017 26.5612C41.7729 26.5796 41.8182 26.6634 41.8025 26.7479C41.6945 27.3278 41.3023 27.7236 41.2855 27.7401C41.2606 27.7645 41.2306 27.7767 41.2006 27.7767Z" fill="#FF4B55"/>
<path d="M40.8341 26.7748C40.7896 26.7748 40.7463 26.7485 40.7213 26.7C40.683 26.6267 40.7024 26.53 40.7647 26.4847C40.7697 26.481 41.2492 26.1281 41.3979 25.7427C41.4281 25.6632 41.5072 25.6283 41.5732 25.665C41.6396 25.7011 41.6688 25.7941 41.6386 25.8724C41.456 26.3453 40.9255 26.735 40.9031 26.7515C40.8812 26.7674 40.8575 26.7748 40.8341 26.7748Z" fill="#FF4B55"/>
<path d="M8.0362 25.0107C7.67693 25.8455 6.65417 25.9438 7.22077 28.0718L7.51101 27.7771C7.51101 27.7771 7.81501 28.5792 8.54753 29.1194C8.54753 29.1194 9.44577 28.3664 9.51491 27.1715L9.88806 27.3352C9.88806 27.3352 9.70847 25.1582 8.0362 25.0107Z" fill="#245DBD"/>
<path d="M9.36094 26.7216C9.33213 26.7216 9.30371 26.7083 9.28213 26.6822C8.93018 26.2575 8.48193 26.1215 8.47754 26.1199C8.41836 26.1026 8.38203 26.0315 8.39688 25.9614C8.41152 25.8917 8.47158 25.8483 8.53047 25.8656C8.55117 25.8718 9.04238 26.0197 9.43974 26.4989C9.48252 26.5501 9.48183 26.6334 9.43848 26.6841C9.41689 26.7093 9.38896 26.7216 9.36094 26.7216Z" fill="#FF4B55"/>
<path d="M9.10759 27.7117C9.07448 27.7117 9.04177 27.6943 9.01989 27.6605C8.75876 27.2584 8.46276 27.0395 8.45974 27.0374C8.40769 26.9996 8.39177 26.9188 8.4236 26.8569C8.45583 26.7954 8.5238 26.7766 8.57585 26.8144C8.58942 26.8241 8.90964 27.0615 9.19519 27.5009C9.23239 27.5582 9.22331 27.6406 9.17497 27.6845C9.15485 27.703 9.13103 27.7117 9.10759 27.7117Z" fill="#FF4B55"/>
<path d="M8.52701 28.8139C8.52078 28.8139 8.51455 28.8134 8.50812 28.8119C8.44821 28.7996 8.40769 28.732 8.41802 28.661C8.46156 28.3612 8.42513 27.8696 8.36542 27.616C8.34906 27.5464 8.38324 27.4743 8.44188 27.4544C8.5011 27.4354 8.5614 27.4759 8.57776 27.5454C8.64517 27.8318 8.68462 28.3664 8.63552 28.7051C8.62627 28.7688 8.57952 28.8139 8.52701 28.8139Z" fill="#FF4B55"/>
<path d="M7.74892 27.6049C7.71737 27.6049 7.68612 27.5891 7.66425 27.5584C7.62489 27.5031 7.63075 27.4202 7.67743 27.3737C7.68026 27.3712 7.96249 27.0847 8.03603 26.6882C8.04921 26.6176 8.10771 26.5732 8.16767 26.5884C8.22724 26.6038 8.26513 26.6739 8.25194 26.7445C8.16161 27.2295 7.83358 27.5604 7.81962 27.5743C7.79901 27.5947 7.77401 27.6049 7.74892 27.6049Z" fill="#FF4B55"/>
<path d="M7.44287 26.7668C7.40567 26.7668 7.36953 26.7449 7.34844 26.7044C7.31641 26.643 7.33272 26.5622 7.38477 26.5244C7.38887 26.5213 7.78985 26.2261 7.91426 25.9039C7.93946 25.8373 8.00567 25.8081 8.06094 25.8389C8.11641 25.8691 8.14082 25.9469 8.11553 26.0122C7.9628 26.4077 7.51934 26.7334 7.50059 26.7473C7.48242 26.7607 7.4625 26.7668 7.44287 26.7668Z" fill="#FF4B55"/>
</g>
<defs>
<clipPath id="clip0_106_17326">
<rect width="50" height="50" fill="white"/>
</clipPath>
</defs>
</svg>
