<svg width="50" height="50" viewBox="0 0 50 50" fill="none" xmlns="http://www.w3.org/2000/svg">
<g clip-path="url(#clip0_106_17320)">
<path d="M49.1385 41.3792H0.86284C0.386767 41.3792 0.000732422 40.9932 0.000732422 40.5171V9.48271C0.000732422 9.00664 0.386767 8.62061 0.86284 8.62061H49.1386C49.6147 8.62061 50.0007 9.00664 50.0007 9.48271V40.5171C50.0006 40.9933 49.6146 41.3792 49.1385 41.3792Z" fill="#FF4B55"/>
<path d="M34.4832 21.5518H28.4488V15.5174C28.4488 15.0413 28.0627 14.6553 27.5866 14.6553H22.4142C21.9381 14.6553 21.5521 15.0413 21.5521 15.5174V21.5518H15.5176C15.0416 21.5518 14.6555 21.9379 14.6555 22.4139V27.5864C14.6555 28.0625 15.0416 28.4485 15.5176 28.4485H21.5521V34.483C21.5521 34.959 21.9381 35.3451 22.4142 35.3451H27.5866C28.0627 35.3451 28.4488 34.959 28.4488 34.483V28.4483H34.4832C34.9593 28.4483 35.3453 28.0623 35.3453 27.5862V22.4138C35.3453 21.9378 34.9593 21.5518 34.4832 21.5518Z" fill="#F5F5F5"/>
</g>
<defs>
<clipPath id="clip0_106_17320">
<rect width="50" height="50" fill="white"/>
</clipPath>
</defs>
</svg>
