<svg width="50" height="50" viewBox="0 0 50 50" fill="none" xmlns="http://www.w3.org/2000/svg">
<g clip-path="url(#clip0_106_17313)">
<path d="M50.0016 19.5402H0.00170898V9.48271C0.00170898 9.00664 0.387743 8.62061 0.863817 8.62061H49.1396C49.6157 8.62061 50.0017 9.00664 50.0017 9.48271L50.0016 19.5402Z" fill="#FF4B55"/>
<path d="M49.1395 41.3795H0.863817C0.387743 41.3795 0.00170898 40.9934 0.00170898 40.5174V30.46H50.0016V40.5174C50.0016 40.9935 49.6156 41.3795 49.1395 41.3795Z" fill="#464655"/>
<path d="M50.0016 19.54H0.00170898V30.459H50.0016V19.54Z" fill="#F5F5F5"/>
<path d="M14.6527 21.8079L15.3714 23.963L17.6431 23.9805C17.9371 23.9828 18.0591 24.3581 17.8225 24.5329L15.9951 25.8825L16.6803 28.0484C16.769 28.3288 16.4497 28.5608 16.2105 28.3898L14.3623 27.0688L12.5142 28.3898C12.2748 28.5608 11.9557 28.3288 12.0444 28.0484L12.7296 25.8825L10.9022 24.5329C10.6656 24.3582 10.7875 23.9828 11.0816 23.9805L13.3533 23.963L14.072 21.8079C14.165 21.5289 14.5596 21.5289 14.6527 21.8079Z" fill="#73AF00"/>
<path d="M35.9308 21.8079L36.6495 23.963L38.9212 23.9805C39.2152 23.9828 39.3372 24.3581 39.1006 24.5329L37.2731 25.8825L37.9584 28.0484C38.0471 28.3288 37.7278 28.5608 37.4886 28.3898L35.6404 27.0688L33.7923 28.3898C33.5529 28.5608 33.2337 28.3288 33.3225 28.0484L34.0077 25.8825L32.1803 24.5329C31.9436 24.3582 32.0656 23.9828 32.3597 23.9805L34.6313 23.963L35.3501 21.8079C35.4431 21.5289 35.8377 21.5289 35.9308 21.8079Z" fill="#73AF00"/>
</g>
<defs>
<clipPath id="clip0_106_17313">
<rect width="50" height="50" fill="white"/>
</clipPath>
</defs>
</svg>
