<svg width="50" height="50" viewBox="0 0 50 50" fill="none" xmlns="http://www.w3.org/2000/svg">
<g clip-path="url(#clip0_106_17304)">
<path d="M49.1378 41.3792H0.862108C0.386034 41.3792 0 40.9932 0 40.5171V9.48271C0 9.00664 0.386034 8.62061 0.862108 8.62061H49.1379C49.614 8.62061 50 9.00664 50 9.48271V40.5171C49.9999 40.9933 49.6139 41.3792 49.1378 41.3792Z" fill="#FF4B55"/>
<path d="M0.862108 8.62061H24.1379C24.614 8.62061 25.0001 9.00664 25.0001 9.48271V24.1379C25.0001 24.6139 24.614 25 24.1379 25H0.862108C0.386034 24.9999 0 24.6138 0 24.1378V9.48262C0 9.00654 0.386034 8.62061 0.862108 8.62061Z" fill="#41479B"/>
<path d="M9.41372 16.8103C9.41372 15.9585 9.75883 15.1874 10.3168 14.6291L7.73149 13.8896C7.5814 13.8467 7.47388 14.0331 7.58598 14.1415L9.52065 16.0121L6.90991 16.6649C6.75854 16.7027 6.75854 16.9179 6.90991 16.9558L9.52065 17.6085L7.58598 19.4791C7.47378 19.5876 7.5814 19.774 7.73149 19.7311L10.3168 18.9915C9.75883 18.4331 9.41372 17.662 9.41372 16.8103Z" fill="#F5F5F5"/>
<path d="M10.318 14.628C10.8763 14.07 11.6474 13.7248 12.4991 13.7248C13.3509 13.7248 14.122 14.07 14.6803 14.628L15.4198 12.0426C15.4627 11.8925 15.2764 11.785 15.1679 11.8971L13.2973 13.8317L12.6445 11.2209C12.6067 11.0696 12.3915 11.0696 12.3536 11.2209L11.7009 13.8317L9.83027 11.8971C9.72177 11.7849 9.53544 11.8925 9.57831 12.0426L10.318 14.628Z" fill="#F5F5F5"/>
<path d="M14.6806 18.9932C14.1223 19.5512 13.3513 19.8963 12.4995 19.8963C11.6477 19.8963 10.8767 19.5512 10.3184 18.9932L9.5788 21.5785C9.53593 21.7286 9.72226 21.8361 9.83075 21.724L11.7014 19.7895L12.3541 22.4002C12.3919 22.5516 12.6071 22.5516 12.645 22.4002L13.2977 19.7895L15.1683 21.724C15.2768 21.8362 15.4632 21.7286 15.4203 21.5785L14.6806 18.9932Z" fill="#F5F5F5"/>
<path d="M18.0889 16.6649L15.4782 16.0121L17.4127 14.1415C17.5249 14.0331 17.4173 13.8467 17.2672 13.8896L14.6819 14.6291C15.2399 15.1874 15.585 15.9585 15.585 16.8103C15.585 17.662 15.2399 18.4331 14.6819 18.9914L17.2672 19.731C17.4173 19.7739 17.5248 19.5875 17.4127 19.479L15.4782 17.6084L18.0889 16.9557C18.2404 16.918 18.2404 16.7029 18.0889 16.6649Z" fill="#F5F5F5"/>
<path d="M12.4993 19.2676C13.8562 19.2676 14.9563 18.1675 14.9563 16.8105C14.9563 15.4536 13.8562 14.3535 12.4993 14.3535C11.1423 14.3535 10.0422 15.4536 10.0422 16.8105C10.0422 18.1675 11.1423 19.2676 12.4993 19.2676Z" fill="#F5F5F5"/>
</g>
<defs>
<clipPath id="clip0_106_17304">
<rect width="50" height="50" fill="white"/>
</clipPath>
</defs>
</svg>
