<svg width="50" height="50" viewBox="0 0 50 50" fill="none" xmlns="http://www.w3.org/2000/svg">
<g clip-path="url(#clip0_106_17287)">
<path d="M0.000976562 30.46H50.0009V40.5174C50.0009 40.9934 49.6148 41.3795 49.1388 41.3795H0.863084C0.387011 41.3795 0.000976562 40.9934 0.000976562 40.5174V30.46Z" fill="#73AF00"/>
<path d="M0.863084 8.62061H49.1389C49.6149 8.62061 50.001 9.00664 50.001 9.48271V19.5401H0.000976562V9.48262C0.000976562 9.00654 0.387011 8.62061 0.863084 8.62061Z" fill="#FF4B55"/>
<path d="M50.0009 19.54H0.000976562V30.459H50.0009V19.54Z" fill="#F5F5F5"/>
<path d="M22.1755 28.0794C22.5339 27.8988 22.7436 27.6012 22.8558 27.3863C23.4978 27.8058 24.048 27.6634 24.3348 27.5292C24.6145 27.3981 24.8449 27.1844 24.9986 26.9665C25.1524 27.1844 25.3828 27.3981 25.6625 27.5292C25.9491 27.6634 26.4993 27.8056 27.1415 27.3863C27.2536 27.6012 27.4633 27.8987 27.8218 28.0794C28.0284 28.1835 28.2561 28.2357 28.5033 28.2357C28.7572 28.2357 29.0314 28.1808 29.3244 28.071L29.1821 27.6915C28.7162 27.8662 28.3209 27.8757 28.0078 27.7194C27.5695 27.501 27.4232 27.0192 27.4221 27.0152L27.3366 26.7161L27.0976 26.9151C26.676 27.2663 26.2393 27.3524 25.8344 27.1622C25.4231 26.9696 25.2012 26.5799 25.2012 26.463V24.7143C25.2889 24.5214 25.4823 24.3863 25.7076 24.3863C25.785 24.3863 25.8616 24.4031 25.935 24.4362L26.1858 24.5494L26.1479 24.2768C26.0684 23.7039 25.5742 23.272 24.9985 23.272C24.4227 23.272 23.9286 23.7039 23.8491 24.2768L23.8112 24.5494L24.062 24.4362C24.1353 24.4031 24.212 24.3863 24.2894 24.3863C24.5147 24.3863 24.7083 24.5214 24.7959 24.7143V26.463C24.7959 26.5799 24.574 26.9696 24.1627 27.1622C23.7579 27.3523 23.3211 27.2665 22.8994 26.9151L22.6622 26.7186L22.575 27.0144C22.5736 27.0192 22.4272 27.501 21.989 27.7194C21.6756 27.8758 21.2805 27.8664 20.8146 27.6915L20.6724 28.071C20.9652 28.1808 21.2396 28.2357 21.4935 28.2357C21.741 28.2356 21.9687 28.1836 22.1755 28.0794ZM24.2894 24.0823C24.2652 24.0823 24.2411 24.0833 24.217 24.0854C24.3526 23.7831 24.6559 23.5758 24.9985 23.5758C25.341 23.5758 25.6444 23.7831 25.7801 24.0854C25.465 24.0577 25.167 24.2116 24.9985 24.4555C24.8431 24.2301 24.5832 24.0823 24.2894 24.0823Z" fill="#FFCD5A"/>
<path d="M21.4902 29.3676L21.6187 29.7519C22.4801 29.4644 23.7122 29.2994 24.9987 29.2994C26.2852 29.2994 27.5174 29.4644 28.3788 29.7519L28.5072 29.3676C27.606 29.0666 26.3271 28.894 24.9987 28.894C23.6703 28.8941 22.3914 29.0666 21.4902 29.3676Z" fill="#FFCD5A"/>
<path d="M24.9989 28.4891C25.2102 28.4897 25.3962 28.3642 25.5223 28.1951C25.4385 28.1434 25.3266 28.1131 25.1998 28.0974C25.1999 28.0928 25.2015 28.0886 25.2015 28.0839C25.2015 27.9102 25.1194 27.7602 24.9989 27.6787C24.8783 27.7602 24.7964 27.9102 24.7964 28.0839C24.7964 28.0885 24.7979 28.0927 24.798 28.0974C24.6714 28.1131 24.5595 28.1433 24.4756 28.1951C24.6015 28.3642 24.7876 28.4896 24.9989 28.4891Z" fill="#FFCD5A"/>
<path d="M23.1392 28.6802C23.3462 28.6386 23.5036 28.4783 23.5932 28.2875C23.5007 28.2535 23.385 28.2463 23.2579 28.2563C23.257 28.2518 23.2577 28.2473 23.2567 28.2427C23.222 28.0726 23.1117 27.9419 22.9772 27.8862C22.8753 27.9902 22.825 28.1536 22.8597 28.3237C22.8607 28.3283 22.8629 28.3321 22.8639 28.3366C22.743 28.3773 22.6393 28.4293 22.5676 28.4969C22.725 28.6373 22.9323 28.723 23.1392 28.6802Z" fill="#FFCD5A"/>
<path d="M27.0208 27.8862C26.8863 27.9419 26.776 28.0726 26.7413 28.2427C26.7403 28.2473 26.741 28.2517 26.7401 28.2563C26.613 28.2463 26.4973 28.2535 26.4048 28.2875C26.4944 28.4784 26.6518 28.6386 26.8588 28.6802C27.0657 28.723 27.273 28.6373 27.4305 28.4968C27.3587 28.4293 27.2551 28.3772 27.1342 28.3365C27.1353 28.332 27.1375 28.3282 27.1384 28.3236C27.173 28.1536 27.1226 27.9902 27.0208 27.8862Z" fill="#FFCD5A"/>
<path d="M24.9447 20.4245L24.8082 20.8338L24.3769 20.8371C24.321 20.8375 24.2979 20.9088 24.3428 20.942L24.6898 21.1983L24.5597 21.6096C24.5429 21.6628 24.6034 21.7069 24.6489 21.6744L24.9999 21.4236L25.3509 21.6744C25.3964 21.7069 25.457 21.6629 25.4402 21.6096L25.31 21.1983L25.657 20.942C25.7019 20.9088 25.6787 20.8376 25.6229 20.8371L25.1915 20.8338L25.055 20.4245C25.0373 20.3715 24.9624 20.3715 24.9447 20.4245Z" fill="#FFCD5A"/>
<path d="M22.4755 21.0998L22.339 21.5091L21.9076 21.5124C21.8518 21.5128 21.8286 21.5841 21.8736 21.6173L22.2205 21.8736L22.0904 22.2849C22.0736 22.3381 22.1341 22.3821 22.1796 22.3497L22.5306 22.0988L22.8816 22.3497C22.9271 22.3821 22.9876 22.3382 22.9708 22.2849L22.8406 21.8736L23.1876 21.6173C23.2325 21.5841 23.2094 21.5129 23.1535 21.5124L22.7222 21.5091L22.5857 21.0998C22.5681 21.0468 22.4932 21.0468 22.4755 21.0998Z" fill="#FFCD5A"/>
<path d="M20.6603 22.9235L20.5238 23.3328L20.0925 23.3361C20.0366 23.3365 20.0135 23.4078 20.0584 23.441L20.4053 23.6972L20.2753 24.1085C20.2585 24.1618 20.319 24.2058 20.3645 24.1734L20.7155 23.9225L21.0665 24.1734C21.112 24.2058 21.1725 24.1619 21.1557 24.1085L21.0257 23.6972L21.3726 23.441C21.4175 23.4078 21.3944 23.3366 21.3385 23.3361L20.9072 23.3328L20.7707 22.9235C20.7529 22.8706 20.678 22.8706 20.6603 22.9235Z" fill="#FFCD5A"/>
<path d="M19.9936 25.3884L19.8571 25.7977L19.4257 25.801C19.3698 25.8014 19.3467 25.8727 19.3916 25.9059L19.7386 26.1621L19.6084 26.5735C19.5916 26.6267 19.6522 26.6707 19.6977 26.6383L20.0487 26.3874L20.3996 26.6383C20.4451 26.6707 20.5057 26.6268 20.4889 26.5735L20.3587 26.1621L20.7057 25.9059C20.7506 25.8727 20.7275 25.8015 20.6716 25.801L20.2403 25.7977L20.1037 25.3884C20.0862 25.3354 20.0113 25.3354 19.9936 25.3884Z" fill="#FFCD5A"/>
<path d="M27.5266 21.0998L27.6631 21.5091L28.0945 21.5124C28.1503 21.5128 28.1735 21.5841 28.1285 21.6173L27.7816 21.8736L27.9117 22.2849C27.9285 22.3381 27.868 22.3821 27.8225 22.3497L27.4715 22.0988L27.1205 22.3497C27.075 22.3821 27.0145 22.3382 27.0313 22.2849L27.1614 21.8736L26.8145 21.6173C26.7696 21.5841 26.7927 21.5129 26.8486 21.5124L27.2799 21.5091L27.4164 21.0998C27.434 21.0468 27.5089 21.0468 27.5266 21.0998Z" fill="#FFCD5A"/>
<path d="M29.3415 22.9235L29.4781 23.3328L29.9094 23.3361C29.9653 23.3365 29.9884 23.4078 29.9435 23.441L29.5965 23.6972L29.7267 24.1085C29.7435 24.1618 29.6829 24.2058 29.6374 24.1734L29.2864 23.9225L28.9355 24.1734C28.89 24.2058 28.8294 24.1619 28.8462 24.1085L28.9764 23.6972L28.6294 23.441C28.5845 23.4078 28.6076 23.3366 28.6635 23.3361L29.0948 23.3328L29.2314 22.9235C29.2489 22.8706 29.3239 22.8706 29.3415 22.9235Z" fill="#FFCD5A"/>
<path d="M30.0085 25.3884L30.145 25.7977L30.5763 25.801C30.6322 25.8014 30.6553 25.8727 30.6104 25.9059L30.2634 26.1621L30.3935 26.5735C30.4103 26.6267 30.3498 26.6707 30.3043 26.6383L29.9533 26.3874L29.6023 26.6383C29.5568 26.6707 29.4963 26.6268 29.5131 26.5735L29.6431 26.1621L29.2962 25.9059C29.2512 25.8727 29.2744 25.8015 29.3302 25.801L29.7616 25.7977L29.8981 25.3884C29.9159 25.3354 29.9908 25.3354 30.0085 25.3884Z" fill="#FFCD5A"/>
</g>
<defs>
<clipPath id="clip0_106_17287">
<rect width="50" height="50" fill="white"/>
</clipPath>
</defs>
</svg>
