<svg width="50" height="50" viewBox="0 0 50 50" fill="none" xmlns="http://www.w3.org/2000/svg">
<g clip-path="url(#clip0_106_17282)">
<path d="M0 33.6207V9.48271C0 9.00664 0.386035 8.62061 0.862109 8.62061H37.9311L0 33.6207Z" fill="#73AF00"/>
<path d="M50.0004 16.3794V40.5173C50.0004 40.9934 49.6144 41.3794 49.1383 41.3794H12.0693L50.0004 16.3794Z" fill="#4173CD"/>
<path d="M50 16.8654V9.48271C50 9.00664 49.614 8.62061 49.1379 8.62061H37.4159L0 33.1346V40.5172C0 40.9933 0.386035 41.3793 0.862109 41.3793H12.5841L50 16.8654Z" fill="#FFE15A"/>
<path d="M50 13.7741V9.48271C50 9.00664 49.614 8.62061 49.1379 8.62061H42.1342L0 36.2259V40.5173C0 40.9934 0.386035 41.3794 0.862109 41.3794H7.86582L50 13.7741Z" fill="#464655"/>
</g>
<defs>
<clipPath id="clip0_106_17282">
<rect width="50" height="50" fill="white"/>
</clipPath>
</defs>
</svg>
