<svg width="50" height="50" viewBox="0 0 50 50" fill="none" xmlns="http://www.w3.org/2000/svg">
<g clip-path="url(#clip0_106_17276)">
<path d="M49.1418 41.377H0.860596C0.38208 41.377 0.0012207 40.9863 0.0012207 40.5176V9.48242C0.0012207 9.00391 0.391846 8.62305 0.860596 8.62305H49.1321C49.6106 8.62305 49.9915 9.01367 49.9915 9.48242V40.5176C50.0012 40.9961 49.6106 41.377 49.1418 41.377Z" fill="#F5F5F5"/>
<path d="M49.1428 41.377H0.861572C0.383057 41.377 0.00219727 40.9863 0.00219727 40.5176V36.2109H50.0022V40.5176C50.0022 40.9961 49.6116 41.377 49.1428 41.377Z" fill="#FF4B55"/>
<path d="M0.861572 8.62305H49.1331C49.6116 8.62305 49.9924 9.01367 49.9924 9.48242V13.7891H0.00219727V9.48242C0.00219727 9.00391 0.392822 8.62305 0.861572 8.62305Z" fill="#FF4B55"/>
<path d="M50.0012 18.9648H0.0012207V31.0352H50.0012V18.9648Z" fill="#41479B"/>
</g>
<defs>
<clipPath id="clip0_106_17276">
<rect width="50" height="50" fill="white"/>
</clipPath>
</defs>
</svg>
