<svg width="50" height="50" viewBox="0 0 50 50" fill="none" xmlns="http://www.w3.org/2000/svg">
<g clip-path="url(#clip0_106_17121)">
<path d="M49.1381 41.3791H0.862593C0.386521 41.3791 0.000488281 40.9931 0.000488281 40.517V9.48271C0.000488281 9.00664 0.386521 8.62061 0.862593 8.62061H49.1382C49.6143 8.62061 50.0003 9.00664 50.0003 9.48271V40.517C50.0002 40.9932 49.6142 41.3791 49.1381 41.3791Z" fill="#FFE15A"/>
<path d="M50.0002 11.207H2.58643V38.7928H50.0002V11.207Z" fill="#41479B"/>
<path d="M2.58496 11.207L26.2917 25L14.4384 11.2071L2.58496 11.207Z" fill="#FF4B55"/>
<path d="M26.292 25V11.207L38.1455 11.2071L26.292 25Z" fill="#FF4B55"/>
<path d="M49.9988 11.207L26.292 25L49.9988 18.1035V11.207Z" fill="#FF4B55"/>
<path d="M26.292 25H49.9988V31.8965L26.292 25Z" fill="#FF4B55"/>
<path d="M26.2915 25L2.58496 18.1035V25.0001L26.2915 25Z" fill="#FF4B55"/>
<path d="M2.58496 31.8966L26.2915 25L2.58496 38.7931V31.8966Z" fill="#FF4B55"/>
<path d="M26.6904 22.4769L29.7816 15.3477L27.4992 22.7754L26.6904 22.4769Z" fill="#FFE15A"/>
<path d="M30.7611 26.5765C30.8285 26.3858 30.8873 26.1913 30.93 25.9904L36.082 26.4473L31.014 25.4228C31.0264 25.2832 31.0353 25.1426 31.0353 24.9999C31.0353 24.8624 31.0262 24.7271 31.0147 24.5926L36.0414 23.534L30.935 24.0288C30.8902 23.814 30.8267 23.6068 30.754 23.4038L35.3171 21.0182L30.53 22.879C30.408 22.636 30.2658 22.4056 30.1057 22.1886L33.8893 18.7L29.74 21.75C29.3 21.2836 28.769 20.9048 28.172 20.6468L29.679 15.7429L27.6362 20.4544C27.2102 20.3286 26.7607 20.2585 26.2941 20.2585C25.8239 20.2585 25.3705 20.3293 24.9417 20.4568L22.8976 15.7427L24.4061 20.6514C23.8112 20.9101 23.2819 21.2888 22.8436 21.7548L18.6874 18.6997L22.4779 22.1947C22.3186 22.411 22.1776 22.6404 22.0563 22.8825L17.2596 21.0179L21.8324 23.4086C21.7605 23.6105 21.6973 23.8163 21.653 24.0295L16.5353 23.5337L21.5733 24.5949C21.5619 24.7285 21.5528 24.8629 21.5528 24.9997C21.5528 25.1416 21.5618 25.2815 21.574 25.4203L16.4946 26.447L21.6579 25.989C21.7004 26.1886 21.7586 26.3818 21.8253 26.5712L17.2718 28.8981L22.0453 27.0936C22.8191 28.6606 24.4286 29.7411 26.2943 29.7411C28.1586 29.7411 29.767 28.6624 30.5415 27.0975L35.3053 28.8983L30.7611 26.5765Z" fill="#FFE15A"/>
<path d="M49.9999 38.7933L26.8351 25.3156C26.5001 25.1207 26.0863 25.1207 25.7513 25.3156L2.58643 38.7933H49.9999Z" fill="#F5F5F5"/>
<path d="M26.2966 31.9433C26.3954 31.9433 26.4755 31.8629 26.4755 31.7639C26.4755 31.6648 26.3954 31.5845 26.2966 31.5845C26.1978 31.5845 26.1177 31.6648 26.1177 31.7639C26.1177 31.8629 26.1978 31.9433 26.2966 31.9433Z" fill="#FF4B55"/>
<path d="M26.0224 25.7544C26.5606 26.4197 25.6898 26.7524 25.7975 27.3885C25.7975 27.3885 25.6214 27.1242 25.6898 26.7524C25.7583 26.3807 25.5234 26.2632 25.5234 26.2632C25.5234 26.2632 25.631 26.6839 25.3669 26.9187C25.1026 27.1535 25.181 27.6917 25.181 27.6917C25.181 27.6917 24.8484 27.4667 24.9168 27.1242C24.9168 27.1242 24.4667 27.5156 24.8679 28.1712C24.8679 28.1712 24.6036 28.1515 24.5058 27.9853C24.5058 27.9853 24.2715 28.6751 25.2154 29.2011C26.1594 29.727 26.2964 28.4746 26.2964 28.4746L26.9715 29.3161C26.9715 29.3161 27.7803 29.2932 28.1652 28.4257L27.702 28.5104C27.7313 28.2658 28.351 28.2007 28.1064 27.4668C28.1064 27.4668 28.0868 27.6233 27.9107 27.731C27.9107 27.731 27.9173 27.2256 27.552 26.8928C27.552 26.8928 27.5389 27.1635 27.4216 27.2613C27.4216 27.2613 27.4607 26.9123 27.2455 26.6384C27.0398 26.3767 27.0205 26.1361 27.0205 26.1361C27.0205 26.1361 26.7759 26.5862 26.8639 26.8112C26.8639 26.8112 26.6599 26.7616 26.639 26.4884C26.5932 25.8946 26.0224 25.7544 26.0224 25.7544Z" fill="#FF4B55"/>
<path d="M26.2975 31.7484C27.1409 31.7484 27.8246 31.4554 27.8246 31.0939C27.8246 30.7325 27.1409 30.4395 26.2975 30.4395C25.4542 30.4395 24.7705 30.7325 24.7705 31.0939C24.7705 31.4554 25.4542 31.7484 26.2975 31.7484Z" fill="#FFE15A"/>
<path d="M26.298 31.543C27.0273 31.543 27.6185 31.278 27.6185 30.9512C27.6185 30.6243 27.0273 30.3594 26.298 30.3594C25.5687 30.3594 24.9775 30.6243 24.9775 30.9512C24.9775 31.278 25.5687 31.543 26.298 31.543Z" fill="#FF4B55"/>
<path d="M26.5736 31.0283H26.0198C26.0101 31.201 26.0883 31.4514 26.2962 31.5422V31.5428C26.2963 31.5428 26.2964 31.5426 26.2964 31.5426C26.2964 31.5426 26.2968 31.5428 26.297 31.5428V31.5422C26.5051 31.4514 26.5833 31.201 26.5736 31.0283Z" fill="#FF82AA"/>
<path d="M27.014 30.9219L26.5117 31.0397C26.5423 31.2099 26.6704 31.4371 26.88 31.4812L26.8801 31.4818L26.8804 31.4814C26.8805 31.4814 26.8807 31.4816 26.8807 31.4816V31.481C27.0485 31.3483 27.0622 31.0879 27.014 30.9219Z" fill="#FF82AA"/>
<path d="M27.2735 30.7417L26.9238 30.9708C27.0123 31.1193 27.1989 31.2965 27.3801 31.2863L27.3804 31.2867L27.3805 31.2863C27.3805 31.2863 27.3808 31.2864 27.3809 31.2864L27.3806 31.286C27.4622 31.1238 27.3744 30.8819 27.2735 30.7417Z" fill="#FF82AA"/>
<path d="M27.2636 30.3877L27.126 30.735C27.3125 30.9723 27.6183 30.9477 27.6183 30.9477C27.6306 30.7546 27.3894 30.506 27.2636 30.3877Z" fill="#FF82AA"/>
<path d="M25.5752 30.9219L26.0774 31.0397C26.0468 31.2099 25.9187 31.4371 25.7092 31.4812L25.7091 31.4818L25.7089 31.4814L25.7085 31.4816L25.7086 31.481C25.5405 31.3483 25.5267 31.0879 25.5752 30.9219Z" fill="#FF82AA"/>
<path d="M25.315 30.7417L25.6647 30.9708C25.5762 31.1193 25.3896 31.2965 25.2084 31.2863L25.2081 31.2867L25.208 31.2863L25.2077 31.2864L25.2079 31.286C25.1263 31.1238 25.2141 30.8819 25.315 30.7417Z" fill="#FF82AA"/>
<path d="M25.3263 30.3877L25.4639 30.735C25.2774 30.9723 24.9716 30.9477 24.9716 30.9477C24.9594 30.7546 25.2004 30.506 25.3263 30.3877Z" fill="#FF82AA"/>
<path d="M26.2978 31.0733C26.8898 31.0733 27.3696 30.8583 27.3696 30.5931C27.3696 30.3278 26.8898 30.1128 26.2978 30.1128C25.7059 30.1128 25.2261 30.3278 25.2261 30.5931C25.2261 30.8583 25.7059 31.0733 26.2978 31.0733Z" fill="#FFE15A"/>
<path d="M26.2979 30.905C26.7384 30.905 27.0954 30.7652 27.0954 30.5929C27.0954 30.4205 26.7384 30.2808 26.2979 30.2808C25.8575 30.2808 25.5005 30.4205 25.5005 30.5929C25.5005 30.7652 25.8575 30.905 26.2979 30.905Z" fill="#FF4B55"/>
<path d="M26.378 35.9886C25.8568 36.033 25.3989 35.6455 25.3544 35.125C25.3315 34.8648 25.5255 34.6351 25.786 34.6131C26.0465 34.5909 26.2755 34.7841 26.2975 35.0447C26.3197 35.3053 26.5492 35.498 26.8092 35.4764C27.07 35.4544 27.2634 35.2244 27.2408 34.9643C27.2852 35.4857 26.8989 35.9441 26.378 35.9886Z" fill="#41479B"/>
<path d="M25.3545 35.1252C25.3317 34.8651 25.5256 34.6354 25.7862 34.6133C26.0466 34.5911 26.2756 34.7843 26.2977 35.0449C26.3199 35.3056 26.5494 35.4983 26.8094 35.4767C27.0702 35.4546 27.2636 35.2246 27.241 34.9646C27.1973 34.4428 26.7389 34.0569 26.2177 34.1011C25.6968 34.1457 25.3102 34.604 25.3545 35.1252Z" fill="#FF9B55"/>
<path d="M26.2978 33.4946C25.4419 33.4946 24.748 34.1885 24.748 35.0444C24.748 35.9004 25.4419 36.5942 26.2978 36.5942C27.1538 36.5942 27.8476 35.9003 27.8476 35.0444C27.8476 34.1885 27.1537 33.4946 26.2978 33.4946ZM26.2978 36.2715C25.6203 36.2715 25.0709 35.7222 25.0709 35.0445C25.0709 34.3669 25.6202 33.8176 26.2978 33.8176C26.9755 33.8176 27.5248 34.3669 27.5248 35.0445C27.5248 35.7222 26.9754 36.2715 26.2978 36.2715Z" fill="#FFE15A"/>
<path d="M26.2977 33.8179C25.6202 33.8179 25.0708 34.3672 25.0708 35.0448C25.0708 35.7224 25.6201 36.2718 26.2977 36.2718C26.9754 36.2718 27.5247 35.7224 27.5247 35.0448C27.5247 34.3672 26.9753 33.8179 26.2977 33.8179ZM26.2977 35.9846C25.7787 35.9846 25.3579 35.5638 25.3579 35.0447C25.3579 34.5257 25.7787 34.1049 26.2977 34.1049C26.8168 34.1049 27.2376 34.5257 27.2376 35.0447C27.2375 35.5639 26.8168 35.9846 26.2977 35.9846Z" fill="#FF4B55"/>
<path d="M25.8212 35.1625C25.8864 35.1625 25.9392 35.1095 25.9392 35.0441C25.9392 34.9788 25.8864 34.9258 25.8212 34.9258C25.756 34.9258 25.7031 34.9788 25.7031 35.0441C25.7031 35.1095 25.756 35.1625 25.8212 35.1625Z" fill="#FF9B55"/>
<path d="M26.7684 35.1625C26.8336 35.1625 26.8865 35.1095 26.8865 35.0441C26.8865 34.9788 26.8336 34.9258 26.7684 34.9258C26.7032 34.9258 26.6504 34.9788 26.6504 35.0441C26.6504 35.1095 26.7032 35.1625 26.7684 35.1625Z" fill="#41479B"/>
<path d="M26.2984 33.2576C26.3774 33.2576 26.4414 33.1934 26.4414 33.1142C26.4414 33.0349 26.3774 32.9707 26.2984 32.9707C26.2193 32.9707 26.1553 33.0349 26.1553 33.1142C26.1553 33.1934 26.2193 33.2576 26.2984 33.2576Z" fill="#FF4B55"/>
<path d="M26.4405 33.5076C26.5195 33.5076 26.5835 33.4434 26.5835 33.3642C26.5835 33.2849 26.5195 33.2207 26.4405 33.2207C26.3614 33.2207 26.2974 33.2849 26.2974 33.3642C26.2974 33.4434 26.3614 33.5076 26.4405 33.5076Z" fill="#FF4B55"/>
<path d="M26.1553 33.5076C26.2343 33.5076 26.2984 33.4434 26.2984 33.3642C26.2984 33.2849 26.2343 33.2207 26.1553 33.2207C26.0763 33.2207 26.0122 33.2849 26.0122 33.3642C26.0122 33.4434 26.0763 33.5076 26.1553 33.5076Z" fill="#FF4B55"/>
<path d="M26.2984 37.1229C26.3774 37.1229 26.4414 37.0586 26.4414 36.9794C26.4414 36.9002 26.3774 36.8359 26.2984 36.8359C26.2193 36.8359 26.1553 36.9002 26.1553 36.9794C26.1553 37.0586 26.2193 37.1229 26.2984 37.1229Z" fill="#FF4B55"/>
<path d="M26.1553 36.8728C26.2343 36.8728 26.2984 36.8086 26.2984 36.7294C26.2984 36.6502 26.2343 36.5859 26.1553 36.5859C26.0763 36.5859 26.0122 36.6502 26.0122 36.7294C26.0122 36.8086 26.0763 36.8728 26.1553 36.8728Z" fill="#FF4B55"/>
<path d="M26.4405 36.8728C26.5195 36.8728 26.5835 36.8086 26.5835 36.7294C26.5835 36.6502 26.5195 36.5859 26.4405 36.5859C26.3614 36.5859 26.2974 36.6502 26.2974 36.7294C26.2974 36.8086 26.3614 36.8728 26.4405 36.8728Z" fill="#FF4B55"/>
<path d="M26.0351 29.054C25.9366 28.5043 25.6735 28.0916 25.4475 28.1321C25.2214 28.1727 25.118 28.6511 25.2165 29.2007C25.2876 29.5974 25.4449 29.9162 25.6116 30.0514C25.5428 30.1694 25.5009 30.3495 25.5 30.5726C25.6238 30.5831 25.7514 30.5825 25.8824 30.5591C26.0134 30.5355 26.1333 30.4918 26.2457 30.439C26.1674 30.2302 26.0655 30.0758 25.96 29.989C26.0693 29.8043 26.1062 29.4507 26.0351 29.054Z" fill="#FF9B55"/>
<path d="M26.5567 29.054C26.6553 28.5043 26.9184 28.0916 27.1444 28.1321C27.3705 28.1727 27.4738 28.6511 27.3754 29.2007C27.3043 29.5974 27.147 29.9162 26.9803 30.0514C27.0491 30.1694 27.091 30.3495 27.0919 30.5726C26.9681 30.5831 26.8405 30.5825 26.7095 30.5591C26.5784 30.5357 26.4586 30.4918 26.3462 30.439C26.4245 30.2302 26.5264 30.0758 26.6319 29.989C26.5226 29.8043 26.4855 29.4507 26.5567 29.054Z" fill="#41479B"/>
<path d="M26.7184 29.0417C26.7184 28.4362 26.5321 27.9453 26.3025 27.9453C26.073 27.9453 25.8867 28.4361 25.8867 29.0417C25.8867 29.4786 25.9855 29.849 26.1256 30.0252C26.037 30.1381 25.964 30.3222 25.9237 30.5601C26.0437 30.5952 26.1694 30.6188 26.3025 30.6188C26.4356 30.6188 26.5613 30.5951 26.6813 30.5601C26.641 30.3223 26.5681 30.1381 26.4795 30.0252C26.6198 29.849 26.7184 29.4785 26.7184 29.0417Z" fill="#F5F5F5"/>
<path d="M26.2964 30.1867C26.0255 30.1867 25.7769 30.1615 25.6153 30.1169C25.5598 30.1023 25.5271 30.0454 25.5423 29.9895C25.5577 29.9342 25.6162 29.8977 25.6697 29.9172C25.9556 29.9935 26.6371 29.9935 26.9229 29.9172C26.9785 29.897 27.0354 29.9342 27.0504 29.9895C27.0653 30.0455 27.0329 30.1024 26.9773 30.1169C26.8157 30.1616 26.5673 30.1867 26.2964 30.1867Z" fill="#FFE15A"/>
<path d="M25.4062 31.8307C25.5185 31.8161 25.66 31.7818 25.6698 31.6106C25.6698 31.6106 25.4161 31.5862 25.4161 31.6057C25.4161 31.6252 25.4062 31.8307 25.4062 31.8307Z" fill="#FFE15A"/>
<path d="M22.8525 31.1946C22.9794 31.2304 23.1031 31.2565 23.1421 31.4131C23.1421 31.4131 23.2723 31.1523 23.0901 30.9957C23.0569 30.967 22.8525 31.1946 22.8525 31.1946Z" fill="#FF4B55"/>
<path d="M23.394 30.7576C23.5209 30.7934 23.6446 30.8195 23.6836 30.9761C23.6836 30.9761 23.8138 30.7153 23.6316 30.5586C23.5984 30.5301 23.394 30.7576 23.394 30.7576Z" fill="#FF4B55"/>
<path d="M22.8931 31.6641C22.8148 31.6445 22.6777 31.4684 22.8539 31.1945C23.0301 30.9206 22.257 31.3314 22.2277 31.5566C22.1984 31.7816 22.169 32.1828 22.3452 32.0752C22.5213 31.9674 22.8931 31.6641 22.8931 31.6641Z" fill="#FFE15A"/>
<path d="M23.7308 31.6936C23.7569 31.55 23.7308 31.4521 23.9134 31.3218C24.096 31.1914 24.1221 31.1195 24.1221 31.0347C24.1221 31.0347 24.0227 31.1407 23.8464 31.1847C23.7387 31.2116 23.6459 31.2891 23.6459 31.2891C23.6459 31.2891 23.6002 31.126 23.7634 31.0347C23.7634 31.0347 23.4763 31.0347 23.4308 31.2955C23.3851 31.5563 23.5352 31.5956 23.3199 31.6217C23.1046 31.6477 22.6024 31.5435 22.4263 31.9413C22.2502 32.3392 22.785 32.0521 22.9285 32C23.0721 31.9478 23.5286 32.0587 23.6004 31.9608C23.6721 31.8632 23.7308 31.6936 23.7308 31.6936Z" fill="#FF4B55"/>
<path d="M21.8508 32.4082L22.6238 31.1362C22.6238 31.1362 23.3918 30.8394 23.3984 30.8002C23.4049 30.761 23.6528 30.4415 23.6528 30.3958C23.6528 30.3501 23.6267 30.1283 23.5289 30.0893C23.431 30.0501 23.1195 30.1816 22.9841 30.2162C22.8488 30.2508 22.6352 29.998 22.6352 29.998C22.6352 29.998 21.3893 30.2328 21.2979 30.3829C21.2066 30.5329 20.776 31.6092 20.7565 31.7202C20.7369 31.831 20.7565 32.5943 20.7826 32.5813C20.8087 32.568 21.8508 32.4082 21.8508 32.4082Z" fill="#FFF5E6"/>
<path d="M23.6986 30.2063C23.5811 30.0367 23.366 30.0367 23.2746 30.1738C23.1833 30.3107 22.9877 30.3107 22.942 30.4803C22.9058 30.6143 23.1246 30.8587 23.2551 30.813C23.3857 30.7673 23.6269 30.6173 23.6269 30.6173C23.6269 30.6173 23.8161 30.3758 23.6986 30.2063ZM23.3414 30.5516C23.2879 30.6201 23.1535 30.5349 23.1526 30.459C23.1517 30.383 23.2639 30.3788 23.3197 30.4182C23.356 30.4439 23.3851 30.4959 23.3414 30.5516ZM23.5424 30.3826C23.4641 30.4203 23.3811 30.2846 23.4139 30.2161C23.4466 30.1475 23.5492 30.1932 23.5818 30.2533C23.6032 30.2924 23.6063 30.3519 23.5424 30.3826Z" fill="#FF4B55"/>
<path d="M23.9453 35.1408C24.0753 35.1539 24.2474 35.136 24.2831 34.8419C24.3241 34.5048 24.4261 34.387 24.5949 34.465C24.7638 34.5431 24.722 34.6777 24.722 34.6777C24.722 34.6777 24.9078 35.167 24.8101 35.3626C24.7122 35.5583 24.4872 35.7931 24.3208 35.8322C24.1544 35.8714 23.812 35.6464 23.812 35.6464L23.9453 35.1408Z" fill="#FFF5E6"/>
<path d="M23.0068 34.0027C23.1177 33.9506 24.4875 32.9982 24.6507 32.6393C24.8138 32.2806 24.7224 32.0196 24.9378 32.0066C25.1531 31.9935 25.5183 31.9805 25.4857 31.7131C25.4531 31.4456 25.0943 31.6152 24.9965 31.5631C24.8986 31.5109 24.5921 31.3674 24.5333 31.5761C24.4745 31.7849 24.5333 31.9741 24.4485 32.0784C24.3638 32.1828 23.9853 32.3655 23.9202 32.3523C23.855 32.3392 23.7157 32.3222 23.6092 32.3895C23.5026 32.4568 23.4439 32.548 23.4439 32.548C23.4439 32.548 23.0428 32.5643 22.9856 32.6181C22.9285 32.6719 22.7134 32.959 22.7134 32.959L23.0068 34.0027Z" fill="#FFE6D7"/>
<path d="M23.1506 33.7873C23.1506 33.7873 23.4114 33.6895 23.5975 33.3274C23.7833 32.9653 23.9692 33.112 24.2433 32.9163C24.5172 32.7206 24.3411 32.4271 24.2629 32.3097C24.1847 32.1922 24.2385 31.889 24.5075 31.8987C24.6846 31.9051 25.2512 32.4564 24.9968 33.0043C24.9968 33.0043 24.9576 32.9065 24.8599 32.789C24.8599 32.789 25.0066 33.1511 24.6642 33.5522C24.6642 33.5522 24.6739 33.3467 24.5663 33.2097C24.5663 33.2097 24.5565 33.7186 24.1651 34.0413C24.1651 34.0413 24.2141 33.7087 24.1554 33.5717C24.1554 33.5717 24.0967 34.012 23.5193 34.4132C23.5193 34.4132 23.6074 34.2567 23.5879 34.0022L23.0986 34.2566L23.1506 33.7873Z" fill="#5AA587"/>
<path d="M19.429 35.4609C19.429 35.4609 19.2529 35.9991 19.7323 36.1556C20.2117 36.3122 20.476 36.1067 20.652 36.1556C20.8281 36.2046 20.789 36.5177 20.5444 36.7818C20.2998 37.046 20.0552 37.0753 19.7811 36.8796C19.5072 36.6839 19.4876 36.5079 19.2039 36.5763C18.9202 36.6449 18.5288 36.3709 18.5288 36.3709C18.5288 36.3709 18.7832 35.2652 18.8125 35.275C18.8419 35.2848 19.429 35.4609 19.429 35.4609Z" fill="#F5DCD2"/>
<path d="M16.9409 34.1144C16.9409 34.1144 17.2787 33.7895 18.5913 33.3867C19.9038 32.9839 20.6055 32.8149 20.6055 32.8149L21.6322 32.49C21.6322 32.49 22.1154 32.4882 22.4325 32.3981C22.7498 32.3081 22.7498 32.3081 22.7498 32.3081C22.7498 32.3081 23.5945 33.5037 22.9578 34.7122L23.1787 34.9202C23.1787 34.9202 23.4109 34.9911 23.5872 35.0531C23.7634 35.1152 23.6334 35.453 23.6334 35.453L22.9577 35.7648L20.9824 35.6739C20.9824 35.6739 20.9434 35.583 20.2936 35.7908C19.6438 35.9988 19.358 35.5309 18.1104 35.4919C16.863 35.453 16.9409 34.1144 16.9409 34.1144Z" fill="#FFF5E6"/>
<path d="M22.556 29.4496C22.556 29.4496 22.755 29.6486 22.6473 29.8605C22.6473 29.8605 22.4256 29.6322 22.2429 29.58C21.9618 29.4997 21.9037 29.6533 21.2824 29.6827C20.8915 29.7012 20.7336 30.0758 20.3513 29.9845C19.942 29.8866 19.6044 30.0741 19.6044 30.0741C19.6044 30.0741 19.8392 30.0448 20.0301 30.2259C20.2208 30.4069 20.5584 30.3677 20.5584 30.3677C20.5584 30.3677 20.2502 30.583 19.9909 30.4802C19.7316 30.3774 19.3598 30.5683 19.3598 30.5683C19.4282 30.5634 19.5799 30.5878 19.7512 30.7688C19.9225 30.9497 20.3041 30.9057 20.3041 30.9057C20.2356 30.9889 20.0448 31.0818 19.8645 31.0473C19.456 30.969 19.0198 31.1513 19.0198 31.1513C19.0198 31.1513 19.2798 31.0604 19.6306 31.3202C19.9814 31.5801 20.3844 31.4242 20.3844 31.4242C20.3844 31.5932 20.0327 32.244 19.4088 32.2219C18.6319 32.1944 18.4351 32.6458 18.4351 32.6458C18.4351 32.6458 18.7469 32.5418 19.1498 32.6068C19.9302 32.7327 20.4623 32.2819 20.4623 32.2819C20.4623 32.2819 20.3323 32.8927 19.7996 32.8667C19.2669 32.8407 18.5911 33.3865 18.5911 33.3865C18.5911 33.3865 19.1914 33.2783 19.9667 33.2688C20.2217 33.2657 20.429 33.1651 20.6062 33.0456C21.0724 32.7308 21.5029 32.7308 21.5029 32.7308C20.9941 32.8482 20.73 33.4059 20.73 33.4059C20.73 33.4059 21.1214 33.0634 21.6888 33.0634C22.2563 33.0634 22.4324 32.3981 22.4324 32.3981C21.9041 32.4077 21.8258 31.9773 21.8258 31.9773C21.8258 31.9773 21.6692 32.0262 21.5224 32.2024C21.4296 32.3138 21.2726 32.3516 21.1652 32.3666C21.1261 32.0235 21.3851 31.7103 21.3851 31.7103C21.3851 31.7103 21.0343 31.1776 21.4891 30.6057C21.944 30.0339 22.9836 30.2158 22.9836 30.2158C23.091 29.7365 22.6866 29.4365 22.556 29.4496Z" fill="#5AA587"/>
<path d="M21.499 31.3411C21.6687 31.315 22.458 31.054 22.4448 30.7019C22.4317 30.3496 21.9621 30.4735 21.9883 30.6627C22.0144 30.8519 22.184 30.8127 22.184 30.8127C22.184 30.8127 22.1676 30.8979 21.8187 30.9692C21.5316 31.0279 21.499 31.3411 21.499 31.3411Z" fill="#5AA587"/>
<path d="M23.5869 35.053C23.5869 35.053 24.0762 34.9748 24.0566 35.327C24.0369 35.6792 23.7565 36.051 23.176 36.2142C23.176 36.2142 23.3913 36.0283 23.3424 35.9206C23.2935 35.813 23.0489 35.7837 22.9217 35.9695C22.7946 36.1554 22.5792 36.2338 22.3934 36.2043C22.3934 36.2043 22.726 35.9597 22.4912 35.8717C22.2797 35.7924 22.3608 36.1359 21.8552 36.1945C21.8552 36.1945 22.227 35.901 22.0117 35.8227C21.7965 35.7445 21.6791 36.2532 21.2974 36.2142C21.2974 36.2142 21.617 35.8945 21.4442 35.8424C21.1719 35.7602 21.1017 36.2338 20.6125 36.0282C20.6125 36.0282 20.8572 35.9206 20.6615 35.6564C20.4658 35.3922 20.7397 35.0596 20.8768 34.9227C21.0139 34.7857 21.1116 34.6977 21.0725 34.5605C21.0725 34.5605 21.4215 34.7791 21.2453 35.1639C21.0799 35.5253 21.7494 35.3257 22.2695 35.2813C22.8044 35.2356 23.1217 35.5425 23.4632 35.4379C23.7826 35.3399 23.5869 35.053 23.5869 35.053Z" fill="#5AA587"/>
<path d="M14.1206 35.2187C14.1206 35.2187 14.7624 35.5147 15.1263 35.2158C15.4901 34.9169 15.589 35.2707 16.0179 35.0107C16.4468 34.7509 16.4207 34.8938 16.7586 34.8938C17.0964 34.8938 17.3433 34.348 17.1354 33.9712C17.1354 33.9712 17.8411 33.6976 17.6963 33.1317C17.5887 32.711 17.0574 32.8407 17.0574 32.8407C17.0574 32.8407 16.4969 32.4884 16.1088 32.9447C15.7917 33.3178 15.9658 33.5686 15.433 33.6335C14.9003 33.6984 14.8223 34.2442 14.2505 34.1793C14.2505 34.1793 14.6403 34.6861 15.2381 34.3612C15.2382 34.3611 15.2242 34.8506 14.1206 35.2187Z" fill="#5AA587"/>
<path d="M19.8001 36.1748C19.8001 36.1748 20.348 36.6641 19.2718 36.9575C19.2718 36.9575 19.3403 36.8694 19.4185 36.7129C19.4185 36.7129 19.0859 36.9575 18.6553 36.9379C18.6553 36.9379 18.7824 36.84 18.8118 36.7226C18.8118 36.7226 18.4204 36.8302 18.1367 36.6443C18.1367 36.6443 18.4792 36.6247 18.6944 36.3019C18.6944 36.3019 18.7923 36.4976 18.9977 36.3997C19.2032 36.3019 19.321 36.4426 19.5065 36.4486C19.6581 36.4536 19.7902 36.3754 19.8001 36.1748Z" fill="#5AA587"/>
<path d="M19.5297 33.1548C19.5297 33.1548 19.1383 33.3374 19.3211 33.6831C19.4428 33.9136 19.8243 33.9689 19.9733 33.7549C20.1004 33.5723 19.9996 33.3949 19.8657 33.3699C19.7254 33.3438 19.6407 33.4025 19.5753 33.5199C19.5753 33.52 19.3339 33.4288 19.5297 33.1548Z" fill="#5AA587"/>
<path d="M21.2871 33.7632C21.2871 33.7632 22.137 33.7955 22.0943 34.3845C22.0756 34.6437 21.725 34.8246 21.5039 34.6887C21.3152 34.5728 21.3458 34.3796 21.4442 34.2939C21.5526 34.1996 21.6599 34.2336 21.7663 34.3148C21.7663 34.3147 21.8203 33.9931 21.2871 33.7632Z" fill="#5AA587"/>
<path d="M22.9854 32.618C22.9854 32.618 23.444 32.3103 23.6227 32.6766C23.7013 32.8378 23.5548 33.0672 23.3757 33.0627C23.2229 33.0588 23.1743 32.9329 23.2032 32.8478C23.2353 32.7539 23.3111 32.7371 23.4026 32.7487C23.4027 32.7488 23.4305 32.5104 22.9854 32.618Z" fill="#5AA587"/>
<path d="M23.6084 32.3894C23.6084 32.3894 24.0315 32.1054 24.1963 32.4435C24.2687 32.5923 24.1336 32.8039 23.9684 32.7997C23.8274 32.7962 23.7826 32.68 23.8094 32.6014C23.8389 32.5149 23.9088 32.4993 23.9935 32.5099C23.9934 32.51 24.019 32.2902 23.6084 32.3894Z" fill="#5AA587"/>
<path d="M22.0229 34.2666C22.0229 34.2666 22.7543 34.2944 22.7176 34.8013C22.7014 35.0242 22.3998 35.18 22.2095 35.063C22.0471 34.9632 22.0384 34.7801 22.1088 34.6928C22.2311 34.5411 22.3778 34.6096 22.3778 34.6096C22.3778 34.6096 22.4817 34.4645 22.0229 34.2666Z" fill="#5AA587"/>
<path d="M22.5596 34.668C22.5596 34.668 23.3668 34.5897 23.3068 35.1346C23.2912 35.2766 23.1036 35.3768 22.9818 35.302C22.8779 35.2383 22.8724 35.1211 22.9175 35.0652C22.9957 34.9682 23.0895 35.012 23.0895 35.012C23.0895 35.012 23.039 34.7708 22.5596 34.668Z" fill="#5AA587"/>
<path d="M17.3831 37.2592C17.3831 37.2592 17.4935 37.4834 17.565 37.7009C17.6263 37.8872 17.9419 38.0128 18.1108 37.8959C18.2798 37.779 18.565 37.4294 18.4481 37.3514C18.3312 37.2734 17.825 37.3371 17.7471 37.0641C17.669 36.7912 17.6951 36.6093 17.6951 36.6093C17.6951 36.6093 18.3724 36.8107 18.6953 36.3019C19.0182 35.7931 18.9721 35.2964 19.0986 35.0498C19.1975 34.857 19.3716 34.764 19.3716 34.764C19.1726 33.9763 16.7466 33.4125 17.0281 35.457L16.647 36.3234L17.3831 37.2592Z" fill="#FFE6D7"/>
<path d="M16.5246 37.2253C16.691 37.3329 17.3009 37.6428 17.6792 37.4079C17.9886 37.2159 17.9924 36.9969 17.7967 36.948C17.601 36.899 17.4934 37.036 17.3856 36.948C17.278 36.86 16.6713 36.3609 16.8964 36.2043C17.1215 36.0478 17.2433 35.9211 17.2389 35.6466C17.2356 35.4444 17.0595 35.2487 16.8507 35.2291C16.5904 35.2048 16.3875 35.3139 16.1136 35.3139L16.4332 35.477C16.2277 35.5748 16.2114 35.8521 15.9668 35.901C15.9668 35.901 16.1332 36.0902 16.3419 36.0315C16.3419 36.0315 16.2701 36.2272 16.0744 36.2532C16.0744 36.2532 16.257 36.4619 16.4267 36.5207C16.4267 36.5207 16.3158 36.5989 16.143 36.5664C16.143 36.5664 16.4137 36.9644 16.8181 37.0654L16.5246 37.2253Z" fill="#5AA587"/>
<path d="M17.7034 36.48C17.7034 36.48 17.8121 36.4611 17.8214 36.3288C17.8268 36.2525 17.7506 36.1536 17.621 36.161C17.4692 36.1697 17.3661 36.3714 17.4389 36.5051C17.6251 36.847 18.3185 36.7097 18.4032 36.5857C18.4033 36.5857 17.849 36.6118 17.7034 36.48Z" fill="#5AA587"/>
<path d="M18.0275 38.106C18.0576 38.0636 18.082 37.9486 18.0234 37.8776C18.0234 37.8776 18.0552 37.7138 18.1796 37.7725C18.1796 37.7725 18.2325 37.9037 18.1901 37.9951C18.1479 38.0863 18.0275 38.106 18.0275 38.106Z" fill="#FFE15A"/>
<path d="M18.2811 38.0143C18.2789 37.8961 18.2524 37.8313 18.1574 37.8216C18.1574 37.8216 18.133 37.6504 18.2745 37.6504C18.2745 37.6504 18.3794 37.7433 18.3804 37.844C18.3813 37.9446 18.2811 38.0143 18.2811 38.0143Z" fill="#FFE15A"/>
<path d="M18.4382 37.8993C18.415 37.7834 18.3931 37.7027 18.2872 37.6949C18.2872 37.6949 18.2309 37.5547 18.387 37.5352C18.387 37.5352 18.4865 37.6152 18.5055 37.7141C18.5244 37.8129 18.4382 37.8993 18.4382 37.8993Z" fill="#FFE15A"/>
<path d="M18.5953 37.7199C18.5473 37.6119 18.4994 37.5687 18.3944 37.5844C18.3944 37.5844 18.3041 37.4572 18.4286 37.3887C18.4286 37.3887 18.5802 37.432 18.6202 37.5243C18.6603 37.6166 18.5953 37.7199 18.5953 37.7199Z" fill="#FFE15A"/>
<path d="M20.4541 37.058C20.4762 37.0109 20.4799 36.8934 20.4097 36.8341C20.4097 36.8341 20.4118 36.6672 20.5447 36.7027C20.5447 36.7027 20.6199 36.8225 20.5944 36.9198C20.569 37.0173 20.4541 37.058 20.4541 37.058Z" fill="#FFE15A"/>
<path d="M20.6877 36.9224C20.6648 36.8065 20.6273 36.7475 20.5319 36.7548C20.5319 36.7548 20.4776 36.5906 20.6168 36.5654C20.6168 36.5654 20.7364 36.6382 20.7552 36.7371C20.774 36.836 20.6877 36.9224 20.6877 36.9224Z" fill="#FFE15A"/>
<path d="M20.822 36.7814C20.7787 36.6715 20.7428 36.596 20.6372 36.6071C20.6372 36.6071 20.5569 36.4791 20.707 36.4321C20.707 36.4321 20.8191 36.4933 20.8553 36.5871C20.8916 36.6811 20.822 36.7814 20.822 36.7814Z" fill="#FFE15A"/>
<path d="M20.9453 36.5767C20.8789 36.4789 20.8241 36.4449 20.7236 36.479C20.7236 36.479 20.6123 36.3698 20.7226 36.2803C20.7226 36.2803 20.8794 36.296 20.9353 36.3796C20.9911 36.4635 20.9453 36.5767 20.9453 36.5767Z" fill="#FFE15A"/>
<path d="M23.7047 30.552C23.7259 30.658 23.6721 30.7738 23.4178 30.8846C23.1635 30.9955 23.1699 30.9499 23.0003 31.1651C22.8307 31.3804 22.8111 31.3869 22.6023 31.4259C22.3936 31.4651 22.2958 32.1108 22.5436 32.013C22.7915 31.9152 22.8241 31.7129 23.098 31.7783C23.372 31.8436 23.5155 31.9348 23.7307 31.6935C23.7307 31.6935 23.9394 31.974 23.5481 32.0914C23.1567 32.2089 22.9432 32.2179 22.75 32.3079C22.5566 32.398 21.8711 32.6182 21.8261 31.9773C21.813 31.7914 21.95 31.7197 22.0283 31.5827C22.1065 31.4457 22.1849 31.3543 22.374 31.2043C22.5632 31.0543 22.4458 30.9304 22.7523 30.8847C23.0589 30.839 23.3134 30.8456 23.4046 30.6239C23.496 30.402 23.6786 30.4215 23.7047 30.552Z" fill="#FFE6D7"/>
<path d="M18.5681 33.6618C18.5681 33.6618 18.5093 33.4281 18.7819 33.3291C18.7179 33.3485 18.6591 33.3659 18.5919 33.3866C18.5345 33.4042 18.489 33.4207 18.4354 33.438C18.4145 33.4662 18.3864 33.4812 18.3722 33.5207C18.2893 33.7529 18.4944 34.0542 18.739 34.0214C18.9476 33.9933 19.0068 33.8097 18.9386 33.7004C18.8671 33.5859 18.7099 33.5591 18.5681 33.6618Z" fill="#5AA587"/>
<path d="M18.6523 36.1428C18.3565 36.209 18.2234 36.0947 18.2234 36.0947C18.2234 36.0947 18.3321 36.0759 18.3414 35.9436C18.3468 35.8673 18.2706 35.7684 18.141 35.7758C17.9891 35.7845 17.8861 35.9861 17.959 36.1198C18.1192 36.4139 18.5744 36.3444 18.775 36.1359C18.7855 36.1145 18.7965 36.0932 18.8059 36.0718C18.7621 36.0996 18.706 36.1309 18.6523 36.1428Z" fill="#5AA587"/>
<path d="M18.9506 35.6487C18.9581 35.6152 18.9687 35.5815 18.9752 35.5495C18.6275 35.6901 18.5262 35.5131 18.5262 35.5131C18.5262 35.5131 18.6348 35.4943 18.6441 35.3619C18.6495 35.2857 18.5733 35.1867 18.4437 35.1943C18.2919 35.2029 18.1889 35.4046 18.2617 35.5383C18.4316 35.8499 18.7343 35.7631 18.9506 35.6487Z" fill="#5AA587"/>
<path d="M19.7337 35.8139C19.5316 35.9949 19.3772 35.985 19.3772 35.985C19.3772 35.985 19.4579 35.9099 19.3935 35.794C19.3563 35.7271 19.2385 35.6859 19.134 35.7628C19.0115 35.853 19.0353 36.0782 19.1693 36.1505C19.4992 36.3283 19.7132 36.0533 19.8277 35.8319C19.7964 35.8276 19.7649 35.8203 19.7337 35.8139Z" fill="#5AA587"/>
<path d="M24.9389 35.6393C24.9244 35.5672 24.8491 35.43 24.7564 35.4205C24.7564 35.4205 24.6471 35.2281 24.7713 35.1582C24.7713 35.1582 24.9078 35.2323 24.9533 35.3646C24.9989 35.4971 24.9389 35.6393 24.9389 35.6393Z" fill="#FFE15A"/>
<path d="M25.0256 35.2898C24.9311 35.1765 24.8635 35.1406 24.7961 35.2283C24.7961 35.2283 24.6458 35.086 24.7346 34.9415C24.7346 34.9415 24.8736 34.925 24.9536 35.0222C25.0337 35.1195 25.0256 35.2898 25.0256 35.2898Z" fill="#FFE15A"/>
<path d="M25.0339 35.018C24.9279 34.9285 24.8507 34.8722 24.7781 34.9728C24.7781 34.9728 24.6323 34.8935 24.7147 34.7148C24.7147 34.7148 24.8402 34.6912 24.93 34.7684C25.0199 34.8454 25.0339 35.018 25.0339 35.018Z" fill="#FFE15A"/>
<path d="M24.9902 34.6821C24.875 34.6258 24.8109 34.6323 24.7574 34.755C24.7574 34.755 24.6006 34.7231 24.6246 34.529C24.6246 34.529 24.7537 34.4165 24.8517 34.4655C24.9496 34.5144 24.9902 34.6821 24.9902 34.6821Z" fill="#FFE15A"/>
<path d="M22.4712 31.0996C22.5718 31.0996 22.6534 31.0178 22.6534 30.917C22.6534 30.8161 22.5718 30.7344 22.4712 30.7344C22.3706 30.7344 22.2891 30.8161 22.2891 30.917C22.2891 31.0178 22.3706 31.0996 22.4712 31.0996Z" fill="#F5F5F5"/>
<path d="M22.4713 30.983C22.5078 30.983 22.5374 30.9534 22.5374 30.9168C22.5374 30.8802 22.5078 30.8506 22.4713 30.8506C22.4348 30.8506 22.4053 30.8802 22.4053 30.9168C22.4053 30.9534 22.4348 30.983 22.4713 30.983Z" fill="#41479B"/>
<path d="M22.8472 30.3982C22.9289 30.3982 22.9951 30.3318 22.9951 30.2499C22.9951 30.168 22.9289 30.1016 22.8472 30.1016C22.7655 30.1016 22.6992 30.168 22.6992 30.2499C22.6992 30.3318 22.7655 30.3982 22.8472 30.3982Z" fill="#F5F5F5"/>
<path d="M22.8476 30.3039C22.8773 30.3039 22.9013 30.2798 22.9013 30.2501C22.9013 30.2204 22.8773 30.1963 22.8476 30.1963C22.818 30.1963 22.7939 30.2204 22.7939 30.2501C22.7939 30.2798 22.818 30.3039 22.8476 30.3039Z" fill="#41479B"/>
<path d="M17.5798 33.8365C17.4108 33.9665 16.8264 33.68 16.4154 33.8169C15.8843 33.9939 15.8887 34.3353 15.8887 34.3353C15.8887 34.3353 16.2197 33.9246 16.7709 34.1267C17.0759 34.2385 17.2532 34.2444 17.2532 34.2444L17.5798 33.8365Z" fill="#FFF5E6"/>
<path d="M27.1781 31.8307C27.0659 31.8161 26.9244 31.7818 26.9146 31.6106C26.9146 31.6106 27.1683 31.5862 27.1683 31.6057C27.1683 31.6252 27.1781 31.8307 27.1781 31.8307Z" fill="#FFE15A"/>
<path d="M29.7311 31.1946C29.6043 31.2304 29.4806 31.2565 29.4415 31.4131C29.4415 31.4131 29.3114 31.1523 29.4935 30.9957C29.5268 30.967 29.7311 31.1946 29.7311 31.1946Z" fill="#FF4B55"/>
<path d="M29.1901 30.7576C29.0633 30.7934 28.9396 30.8195 28.9005 30.9761C28.9005 30.9761 28.7704 30.7153 28.9525 30.5586C28.9857 30.5301 29.1901 30.7576 29.1901 30.7576Z" fill="#FF4B55"/>
<path d="M29.6934 31.6641C29.7716 31.6445 29.9087 31.4684 29.7325 31.1945C29.5563 30.9206 30.3294 31.3314 30.3587 31.5566C30.388 31.7818 30.4174 32.1828 30.2412 32.0752C30.065 31.9674 29.6934 31.6641 29.6934 31.6641Z" fill="#FFE15A"/>
<path d="M28.8552 31.6936C28.8291 31.55 28.8552 31.4521 28.6726 31.3218C28.4899 31.1913 28.4639 31.1195 28.4639 31.0347C28.4639 31.0347 28.5633 31.1407 28.7395 31.1847C28.8473 31.2116 28.9401 31.2891 28.9401 31.2891C28.9401 31.2891 28.9858 31.126 28.8227 31.0347C28.8227 31.0347 29.1098 31.0347 29.1553 31.2955C29.201 31.5563 29.0509 31.5956 29.2661 31.6217C29.4813 31.6477 29.9837 31.5435 30.1598 31.9413C30.3358 32.3392 29.8011 32.0521 29.6575 32C29.514 31.9478 29.0574 32.0587 28.9856 31.9608C28.9139 31.8631 28.8552 31.6936 28.8552 31.6936Z" fill="#FF4B55"/>
<path d="M30.7355 32.4082L29.9626 31.1362C29.9626 31.1362 29.1945 30.8394 29.188 30.8002C29.1814 30.761 28.9336 30.4415 28.9336 30.3958C28.9336 30.3501 28.9597 30.1283 29.0575 30.0893C29.1554 30.0501 29.4669 30.1816 29.6022 30.2162C29.7376 30.2508 29.9512 29.998 29.9512 29.998C29.9512 29.998 31.1971 30.2328 31.2885 30.3829C31.3798 30.5329 31.8103 31.6092 31.8299 31.7202C31.8495 31.831 31.8299 32.5943 31.8038 32.5813C31.7776 32.568 30.7355 32.4082 30.7355 32.4082Z" fill="#FFF5E6"/>
<path d="M28.9593 30.6176C28.9593 30.6176 29.2007 30.7676 29.3311 30.8133C29.4615 30.8589 29.6803 30.6145 29.6443 30.4807C29.5987 30.3111 29.4029 30.3111 29.3116 30.1741C29.2203 30.0372 29.0051 30.0372 28.8876 30.2067C28.77 30.3762 28.9593 30.6176 28.9593 30.6176ZM29.2664 30.4185C29.3223 30.379 29.4344 30.3833 29.4335 30.4592C29.4326 30.5352 29.2983 30.6203 29.2447 30.5519C29.201 30.4962 29.2301 30.4443 29.2664 30.4185ZM29.0042 30.2535C29.0368 30.1935 29.1394 30.1479 29.1721 30.2163C29.2048 30.2848 29.1219 30.4205 29.0436 30.3828C28.9799 30.3523 28.9829 30.2928 29.0042 30.2535Z" fill="#FF4B55"/>
<path d="M28.6402 35.1408C28.5102 35.1539 28.3382 35.136 28.3024 34.8419C28.2614 34.5048 28.1595 34.387 27.9906 34.465C27.8218 34.5431 27.8636 34.6777 27.8636 34.6777C27.8636 34.6777 27.6777 35.167 27.7755 35.3626C27.8733 35.5583 28.0983 35.7931 28.2647 35.8322C28.4311 35.8714 28.7736 35.6464 28.7736 35.6464L28.6402 35.1408Z" fill="#FFF5E6"/>
<path d="M29.5796 34.0027C29.4687 33.9506 28.0989 32.9982 27.9357 32.6393C27.7725 32.2805 27.864 32.0196 27.6486 32.0066C27.4333 31.9935 27.0681 31.9805 27.1007 31.7131C27.1333 31.4456 27.4921 31.6152 27.5899 31.5631C27.6878 31.5109 27.9943 31.3674 28.0531 31.5761C28.1118 31.7848 28.0531 31.9741 28.1379 32.0784C28.2226 32.1828 28.6011 32.3655 28.6662 32.3523C28.7314 32.3391 28.8707 32.3222 28.9772 32.3895C29.0837 32.4568 29.1425 32.548 29.1425 32.548C29.1425 32.548 29.5436 32.5643 29.6008 32.6181C29.6579 32.6719 29.873 32.959 29.873 32.959L29.5796 34.0027Z" fill="#FFE6D7"/>
<path d="M29.4352 33.7873C29.4352 33.7873 29.1744 33.6895 28.9884 33.3274C28.8025 32.9653 28.6166 33.112 28.3426 32.9163C28.0686 32.7206 28.2447 32.4271 28.3229 32.3097C28.4012 32.1922 28.3473 31.889 28.0783 31.8987C27.9013 31.9051 27.3347 32.4564 27.5891 33.0043C27.5891 33.0043 27.6282 32.9065 27.726 32.789C27.726 32.789 27.5792 33.1511 27.9217 33.5522C27.9217 33.5522 27.9119 33.3467 28.0195 33.2097C28.0195 33.2097 28.0293 33.7186 28.4207 34.0413C28.4207 34.0413 28.3718 33.7087 28.4305 33.5717C28.4305 33.5717 28.4891 34.012 29.0665 34.4132C29.0665 34.4132 28.9785 34.2567 28.9979 34.0022L29.4872 34.2566L29.4352 33.7873Z" fill="#5AA587"/>
<path d="M33.1574 35.4609C33.1574 35.4609 33.3335 35.9991 32.8541 36.1556C32.3747 36.3122 32.1105 36.1067 31.9344 36.1556C31.7583 36.2046 31.7975 36.5177 32.042 36.7818C32.2866 37.046 32.5313 37.0753 32.8053 36.8796C33.0792 36.6839 33.0988 36.5079 33.3825 36.5763C33.6662 36.6449 34.0576 36.3709 34.0576 36.3709C34.0576 36.3709 33.8032 35.2652 33.7739 35.275C33.7444 35.2848 33.1574 35.4609 33.1574 35.4609Z" fill="#F5DCD2"/>
<path d="M35.6449 34.1144C35.6449 34.1144 35.3072 33.7895 33.9946 33.3867C32.6821 32.9839 31.9803 32.8149 31.9803 32.8149L30.9537 32.49C30.9537 32.49 30.4705 32.4882 30.1534 32.3981C29.8363 32.3081 29.8361 32.3081 29.8361 32.3081C29.8361 32.3081 28.9914 33.5037 29.6281 34.7122L29.4072 34.9202C29.4072 34.9202 29.175 34.9911 28.9987 35.0531C28.8224 35.1152 28.9524 35.453 28.9524 35.453L29.6282 35.7648L31.6035 35.6739C31.6035 35.6739 31.6424 35.583 32.2922 35.7908C32.942 35.9987 33.2279 35.5309 34.4754 35.4919C35.7229 35.453 35.6449 34.1144 35.6449 34.1144Z" fill="#FFF5E6"/>
<path d="M30.0276 29.4496C30.0276 29.4496 29.8287 29.6486 29.9363 29.8605C29.9363 29.8605 30.1581 29.6322 30.3407 29.58C30.6218 29.4997 30.6799 29.6533 31.3012 29.6827C31.6921 29.7012 31.85 30.0758 32.2324 29.9845C32.6416 29.8866 32.9792 30.0741 32.9792 30.0741C32.9792 30.0741 32.7445 30.0448 32.5536 30.2259C32.3628 30.4069 32.0252 30.3677 32.0252 30.3677C32.0252 30.3677 32.3334 30.583 32.5927 30.4802C32.852 30.3775 33.2239 30.5683 33.2239 30.5683C33.1554 30.5634 33.0038 30.5878 32.8325 30.7688C32.6613 30.9498 32.2795 30.9057 32.2795 30.9057C32.348 30.9889 32.5388 31.0818 32.7191 31.0473C33.1277 30.969 33.5638 31.1513 33.5638 31.1513C33.5638 31.1513 33.3039 31.0604 32.9531 31.3202C32.6022 31.5801 32.1993 31.4242 32.1993 31.4242C32.1993 31.5932 32.5509 32.244 33.1748 32.2219C33.9517 32.1944 34.1486 32.6458 34.1486 32.6458C34.1486 32.6458 33.8368 32.5418 33.4338 32.6068C32.6535 32.7327 32.1213 32.2819 32.1213 32.2819C32.1213 32.2819 32.2513 32.8927 32.784 32.8667C33.3167 32.8407 33.9925 33.3865 33.9925 33.3865C33.9925 33.3865 33.3922 33.2783 32.6169 33.2688C32.362 33.2657 32.1546 33.1651 31.9774 33.0456C31.5113 32.7308 31.0807 32.7308 31.0807 32.7308C31.5895 32.8482 31.8537 33.4059 31.8537 33.4059C31.8537 33.4059 31.4623 33.0634 30.8948 33.0634C30.3272 33.0634 30.1511 32.3981 30.1511 32.3981C30.6794 32.4077 30.7578 31.9773 30.7578 31.9773C30.7578 31.9773 30.9143 32.0262 31.0611 32.2024C31.154 32.3138 31.3109 32.3516 31.4183 32.3666C31.4575 32.0235 31.1984 31.7103 31.1984 31.7103C31.1984 31.7103 31.5493 31.1776 31.0944 30.6057C30.6395 30.0338 29.5999 30.2158 29.5999 30.2158C29.4928 29.7365 29.8972 29.4365 30.0276 29.4496Z" fill="#5AA587"/>
<path d="M31.0841 31.3411C30.9145 31.315 30.1252 31.054 30.1383 30.7018C30.1515 30.3497 30.6211 30.4735 30.5949 30.6627C30.5688 30.8518 30.3992 30.8127 30.3992 30.8127C30.3992 30.8127 30.4156 30.8979 30.7645 30.9692C31.0514 31.0279 31.0841 31.3411 31.0841 31.3411Z" fill="#5AA587"/>
<path d="M28.9966 35.053C28.9966 35.053 28.5073 34.9748 28.5269 35.327C28.5466 35.6792 28.827 36.051 29.4075 36.2142C29.4075 36.2142 29.1922 36.0283 29.2411 35.9206C29.29 35.813 29.5347 35.7837 29.6618 35.9695C29.7889 36.1554 30.0043 36.2338 30.1901 36.2043C30.1901 36.2043 29.8575 35.9597 30.0923 35.8717C30.3038 35.7924 30.2227 36.1359 30.7283 36.1945C30.7283 36.1945 30.3565 35.901 30.5718 35.8227C30.7871 35.7445 30.9044 36.2532 31.2861 36.2142C31.2861 36.2142 30.9665 35.8945 31.1393 35.8424C31.4116 35.7602 31.4818 36.2338 31.971 36.0282C31.971 36.0282 31.7263 35.9206 31.922 35.6564C32.1177 35.3922 31.8438 35.0596 31.7067 34.9227C31.5698 34.7857 31.4719 34.6977 31.511 34.5605C31.511 34.5605 31.162 34.7791 31.3382 35.1639C31.5036 35.5253 30.8341 35.3257 30.314 35.2813C29.7791 35.2356 29.4618 35.5425 29.1203 35.4379C28.8009 35.3399 28.9966 35.053 28.9966 35.053Z" fill="#5AA587"/>
<path d="M38.463 35.2187C38.463 35.2187 37.8212 35.5147 37.4573 35.2158C37.0934 34.9169 36.9946 35.2707 36.5657 35.0107C36.1368 34.7509 36.1629 34.8938 35.825 34.8938C35.4872 34.8938 35.2402 34.348 35.4481 33.9712C35.4481 33.9712 34.7424 33.6976 34.8873 33.1317C34.9949 32.711 35.5262 32.8407 35.5262 32.8407C35.5262 32.8407 36.0867 32.4884 36.4748 32.9447C36.7919 33.3178 36.6177 33.5686 37.1506 33.6335C37.6833 33.6984 37.7613 34.2442 38.3331 34.1793C38.3331 34.1793 37.9432 34.6861 37.3455 34.3612C37.3454 34.3611 37.3594 34.8506 38.463 35.2187Z" fill="#5AA587"/>
<path d="M32.7835 36.1748C32.7835 36.1748 32.2356 36.6641 33.3118 36.9575C33.3118 36.9575 33.2433 36.8694 33.1651 36.7129C33.1651 36.7129 33.4977 36.9575 33.9283 36.9379C33.9283 36.9379 33.8012 36.84 33.7718 36.7226C33.7718 36.7226 34.1632 36.8302 34.4469 36.6443C34.4469 36.6443 34.1044 36.6247 33.8892 36.3019C33.8892 36.3019 33.7913 36.4976 33.5859 36.3997C33.3804 36.3019 33.2626 36.4426 33.077 36.4486C32.9254 36.4536 32.7933 36.3754 32.7835 36.1748Z" fill="#5AA587"/>
<path d="M33.0542 33.1548C33.0542 33.1548 33.4456 33.3374 33.2629 33.6831C33.1411 33.9136 32.7597 33.9689 32.6107 33.7549C32.4835 33.5723 32.5844 33.3949 32.7183 33.3699C32.8586 33.3438 32.9433 33.4025 33.0086 33.5199C33.0085 33.52 33.2499 33.4288 33.0542 33.1548Z" fill="#5AA587"/>
<path d="M31.2961 33.7632C31.2961 33.7632 30.4462 33.7955 30.4889 34.3845C30.5076 34.6437 30.8581 34.8246 31.0793 34.6887C31.268 34.5728 31.2374 34.3796 31.1389 34.2939C31.0306 34.1996 30.9233 34.2336 30.8169 34.3148C30.8169 34.3147 30.7629 33.9931 31.2961 33.7632Z" fill="#5AA587"/>
<path d="M29.5986 32.618C29.5986 32.618 29.1399 32.3103 28.9612 32.6766C28.8826 32.8378 29.0291 33.0672 29.2082 33.0627C29.3611 33.0588 29.4096 32.9329 29.3807 32.8478C29.3487 32.7539 29.2728 32.7371 29.1813 32.7487C29.1813 32.7488 29.1534 32.5104 29.5986 32.618Z" fill="#5AA587"/>
<path d="M28.9751 32.3894C28.9751 32.3894 28.552 32.1054 28.3872 32.4435C28.3148 32.5923 28.4499 32.8039 28.6152 32.7997C28.7561 32.7962 28.8009 32.68 28.7741 32.6014C28.7446 32.5149 28.6747 32.4993 28.5901 32.5099C28.5901 32.51 28.5645 32.2902 28.9751 32.3894Z" fill="#5AA587"/>
<path d="M30.5602 34.2666C30.5602 34.2666 29.8289 34.2944 29.8656 34.8013C29.8818 35.0242 30.1834 35.18 30.3737 35.063C30.5361 34.9632 30.5448 34.7801 30.4744 34.6928C30.3521 34.5411 30.2053 34.6096 30.2053 34.6096C30.2053 34.6096 30.1014 34.4645 30.5602 34.2666Z" fill="#5AA587"/>
<path d="M30.0244 34.668C30.0244 34.668 29.2171 34.5897 29.2771 35.1346C29.2927 35.2766 29.4803 35.3768 29.6021 35.302C29.706 35.2383 29.7116 35.1211 29.6665 35.0652C29.5882 34.9682 29.4944 35.012 29.4944 35.012C29.4944 35.012 29.545 34.7708 30.0244 34.668Z" fill="#5AA587"/>
<path d="M35.2032 37.2592C35.2032 37.2592 35.0928 37.4834 35.0213 37.7009C34.96 37.8872 34.6444 38.0128 34.4755 37.8959C34.3065 37.779 34.0213 37.4294 34.1382 37.3514C34.2551 37.2735 34.7613 37.3371 34.8393 37.0641C34.9174 36.7912 34.8913 36.6093 34.8913 36.6093C34.8913 36.6093 34.2141 36.8107 33.8911 36.3019C33.5683 35.793 33.6144 35.2964 33.4878 35.0498C33.3889 34.857 33.2148 34.764 33.2148 34.764C33.4138 33.9763 35.8398 33.4125 35.5583 35.457L35.9394 36.3234L35.2032 37.2592Z" fill="#FFE6D7"/>
<path d="M36.0617 37.2253C35.8953 37.3329 35.2855 37.6428 34.9071 37.4079C34.5978 37.2159 34.594 36.9969 34.7897 36.948C34.9854 36.899 35.093 37.036 35.2007 36.948C35.3083 36.86 35.9151 36.3609 35.69 36.2043C35.4649 36.0478 35.3431 35.9211 35.3475 35.6466C35.3507 35.4444 35.5269 35.2487 35.7357 35.2291C35.9959 35.2048 36.1988 35.3139 36.4728 35.3139L36.1531 35.477C36.3586 35.5748 36.3749 35.8521 36.6195 35.901C36.6195 35.901 36.4531 36.0902 36.2444 36.0315C36.2444 36.0315 36.3162 36.2272 36.5119 36.2532C36.5119 36.2532 36.3293 36.4619 36.1597 36.5207C36.1597 36.5207 36.2705 36.5989 36.4434 36.5664C36.4434 36.5664 36.1727 36.9644 35.7683 37.0654L36.0617 37.2253Z" fill="#5AA587"/>
<path d="M34.8829 36.48C34.8829 36.48 34.7742 36.4611 34.7649 36.3288C34.7596 36.2525 34.8357 36.1536 34.9653 36.161C35.1172 36.1697 35.2202 36.3714 35.1475 36.5051C34.9612 36.847 34.2679 36.7097 34.1831 36.5857C34.183 36.5857 34.7374 36.6118 34.8829 36.48Z" fill="#5AA587"/>
<path d="M34.5584 38.1059C34.5283 38.0636 34.504 37.9486 34.5625 37.8776C34.5625 37.8776 34.5307 37.7138 34.4064 37.7725C34.4064 37.7725 34.3535 37.9037 34.3958 37.9951C34.438 38.0863 34.5584 38.1059 34.5584 38.1059Z" fill="#FFE15A"/>
<path d="M34.3049 38.0143C34.3071 37.8961 34.3335 37.8313 34.4286 37.8216C34.4286 37.8216 34.453 37.6504 34.3115 37.6504C34.3115 37.6504 34.2065 37.7433 34.2056 37.844C34.2047 37.9446 34.3049 38.0143 34.3049 38.0143Z" fill="#FFE15A"/>
<path d="M34.1477 37.8993C34.1709 37.7834 34.1928 37.7027 34.2987 37.6949C34.2987 37.6949 34.355 37.5547 34.1989 37.5352C34.1989 37.5352 34.0994 37.6152 34.0804 37.7141C34.0614 37.8128 34.1477 37.8993 34.1477 37.8993Z" fill="#FFE15A"/>
<path d="M33.9903 37.7199C34.0383 37.6119 34.0861 37.5687 34.1911 37.5844C34.1911 37.5844 34.2814 37.4572 34.1569 37.3887C34.1569 37.3887 34.0054 37.432 33.9652 37.5243C33.9251 37.6166 33.9903 37.7199 33.9903 37.7199Z" fill="#FFE15A"/>
<path d="M32.1311 37.058C32.109 37.0109 32.1053 36.8934 32.1755 36.8341C32.1755 36.8341 32.1734 36.6672 32.0404 36.7027C32.0404 36.7027 31.9652 36.8225 31.9906 36.9198C32.0161 37.0173 32.1311 37.058 32.1311 37.058Z" fill="#FFE15A"/>
<path d="M31.8978 36.9224C31.9208 36.8065 31.9583 36.7475 32.0537 36.7548C32.0537 36.7548 32.1079 36.5906 31.9688 36.5654C31.9688 36.5654 31.8491 36.6382 31.8303 36.7371C31.8114 36.836 31.8978 36.9224 31.8978 36.9224Z" fill="#FFE15A"/>
<path d="M31.7635 36.7819C31.8068 36.672 31.8427 36.5965 31.9484 36.6076C31.9484 36.6076 32.0286 36.4796 31.8785 36.4326C31.8785 36.4326 31.7664 36.4937 31.7302 36.5876C31.694 36.6815 31.7635 36.7819 31.7635 36.7819Z" fill="#FFE15A"/>
<path d="M31.6412 36.5767C31.7076 36.4789 31.7624 36.4449 31.8629 36.479C31.8629 36.479 31.9742 36.3698 31.864 36.2803C31.864 36.2803 31.7071 36.296 31.6512 36.3796C31.5954 36.4635 31.6412 36.5767 31.6412 36.5767Z" fill="#FFE15A"/>
<path d="M28.8813 30.552C28.8601 30.658 28.9139 30.7738 29.1684 30.8846C29.4228 30.9955 29.4162 30.9499 29.5859 31.1651C29.7555 31.3804 29.775 31.3869 29.9838 31.4259C30.1925 31.4651 30.2903 32.1108 30.0425 32.013C29.7946 31.9152 29.762 31.7129 29.4881 31.7783C29.2142 31.8436 29.0706 31.9348 28.8554 31.6935C28.8554 31.6935 28.6467 31.974 29.038 32.0914C29.4294 32.2089 29.643 32.2179 29.8362 32.3079C30.0295 32.398 30.7151 32.6182 30.7601 31.9773C30.7732 31.7914 30.6361 31.7197 30.5578 31.5827C30.4796 31.4457 30.4013 31.3543 30.2121 31.2043C30.0229 31.0543 30.1404 30.9304 29.8338 30.8847C29.5273 30.839 29.2728 30.8456 29.1816 30.6239C29.09 30.402 28.9074 30.4215 28.8813 30.552Z" fill="#FFE6D7"/>
<path d="M34.0176 33.6618C34.0176 33.6618 34.0764 33.4281 33.8038 33.3291C33.8678 33.3485 33.9267 33.3659 33.9938 33.3866C34.0512 33.4042 34.0967 33.4207 34.1503 33.438C34.1712 33.4662 34.1993 33.4812 34.2135 33.5207C34.2964 33.7529 34.0913 34.0542 33.8467 34.0214C33.6381 33.9933 33.5789 33.8097 33.6471 33.7004C33.7186 33.5859 33.8757 33.5591 34.0176 33.6618Z" fill="#5AA587"/>
<path d="M33.9334 36.1433C34.2292 36.2095 34.3623 36.0952 34.3623 36.0952C34.3623 36.0952 34.2536 36.0764 34.2443 35.944C34.239 35.8678 34.3151 35.7689 34.4447 35.7763C34.5966 35.785 34.6996 35.9866 34.6268 36.1203C34.4665 36.4144 34.0113 36.3449 33.8107 36.1364C33.8002 36.1149 33.7893 36.0937 33.7798 36.0723C33.8237 36.1001 33.8799 36.1314 33.9334 36.1433Z" fill="#5AA587"/>
<path d="M33.634 35.6487C33.6265 35.6152 33.6158 35.5815 33.6094 35.5495C33.957 35.6901 34.0584 35.5131 34.0584 35.5131C34.0584 35.5131 33.9497 35.4943 33.9404 35.3619C33.9351 35.2857 34.0112 35.1867 34.1408 35.1943C34.2927 35.2029 34.3957 35.4046 34.3228 35.5383C34.153 35.8499 33.8502 35.7631 33.634 35.6487Z" fill="#5AA587"/>
<path d="M32.8523 35.8139C33.0544 35.9949 33.2088 35.985 33.2088 35.985C33.2088 35.985 33.1281 35.9099 33.1925 35.794C33.2297 35.7271 33.3475 35.6859 33.4519 35.7628C33.5745 35.853 33.5507 36.0782 33.4167 36.1505C33.0868 36.3283 32.8728 36.0533 32.7583 35.8319C32.7894 35.8276 32.8209 35.8203 32.8523 35.8139Z" fill="#5AA587"/>
<path d="M27.6467 35.6393C27.6613 35.5672 27.7366 35.43 27.8293 35.4205C27.8293 35.4205 27.9386 35.2281 27.8144 35.1582C27.8144 35.1582 27.6778 35.2323 27.6323 35.3646C27.5867 35.4971 27.6467 35.6393 27.6467 35.6393Z" fill="#FFE15A"/>
<path d="M27.5603 35.2898C27.6548 35.1765 27.7224 35.1406 27.7898 35.2283C27.7898 35.2283 27.9401 35.086 27.8513 34.9415C27.8513 34.9415 27.7123 34.925 27.6323 35.0222C27.5522 35.1194 27.5603 35.2898 27.5603 35.2898Z" fill="#FFE15A"/>
<path d="M27.5518 35.018C27.6577 34.9285 27.735 34.8722 27.8075 34.9728C27.8075 34.9728 27.9534 34.8935 27.871 34.7148C27.871 34.7148 27.7454 34.6912 27.6556 34.7684C27.5659 34.8454 27.5518 35.018 27.5518 35.018Z" fill="#FFE15A"/>
<path d="M27.5952 34.6821C27.7104 34.6258 27.7745 34.6323 27.828 34.755C27.828 34.755 27.9849 34.7231 27.9609 34.529C27.9609 34.529 27.8317 34.4165 27.7337 34.4655C27.6358 34.5146 27.5952 34.6821 27.5952 34.6821Z" fill="#FFE15A"/>
<path d="M30.1143 31.0996C30.2149 31.0996 30.2964 31.0178 30.2964 30.917C30.2964 30.8161 30.2149 30.7344 30.1143 30.7344C30.0137 30.7344 29.9321 30.8161 29.9321 30.917C29.9321 31.0178 30.0137 31.0996 30.1143 31.0996Z" fill="#F5F5F5"/>
<path d="M30.1144 30.983C30.1509 30.983 30.1804 30.9534 30.1804 30.9168C30.1804 30.8802 30.1509 30.8506 30.1144 30.8506C30.0779 30.8506 30.0483 30.8802 30.0483 30.9168C30.0483 30.9534 30.0779 30.983 30.1144 30.983Z" fill="#41479B"/>
<path d="M29.7373 30.3982C29.819 30.3982 29.8853 30.3318 29.8853 30.2499C29.8853 30.168 29.819 30.1016 29.7373 30.1016C29.6556 30.1016 29.5894 30.168 29.5894 30.2499C29.5894 30.3318 29.6556 30.3982 29.7373 30.3982Z" fill="#F5F5F5"/>
<path d="M29.7373 30.3039C29.7669 30.3039 29.7909 30.2798 29.7909 30.2501C29.7909 30.2204 29.7669 30.1963 29.7373 30.1963C29.7076 30.1963 29.6836 30.2204 29.6836 30.2501C29.6836 30.2798 29.7076 30.3039 29.7373 30.3039Z" fill="#41479B"/>
<path d="M35.0063 33.8365C35.1753 33.9665 35.7598 33.68 36.1707 33.8169C36.7018 33.9939 36.6975 34.3353 36.6975 34.3353C36.6975 34.3353 36.3664 33.9246 35.8152 34.1267C35.5102 34.2385 35.3329 34.2444 35.3329 34.2444L35.0063 33.8365Z" fill="#FFF5E6"/>
</g>
<defs>
<clipPath id="clip0_106_17121">
<rect width="50" height="50" fill="white"/>
</clipPath>
</defs>
</svg>
