<svg width="50" height="50" viewBox="0 0 50 50" fill="none" xmlns="http://www.w3.org/2000/svg">
<g clip-path="url(#clip0_106_17112)">
<path d="M50.0023 15.1725H0.00244141V9.48271C0.00244141 9.00664 0.388476 8.62061 0.864549 8.62061H49.1403C49.6164 8.62061 50.0024 9.00664 50.0024 9.48271L50.0023 15.1725Z" fill="#73AF00"/>
<path d="M50.0023 21.7246H0.00244141V28.2764H50.0023V21.7246Z" fill="#73AF00"/>
<path d="M50.0014 15.1729H0.00146484V21.7246H50.0014V15.1729Z" fill="#FFE15A"/>
<path d="M49.1393 41.3794H0.863573C0.387499 41.3794 0.00146484 40.9933 0.00146484 40.5173V34.8276H50.0014V40.5173C50.0014 40.9934 49.6153 41.3794 49.1393 41.3794Z" fill="#73AF00"/>
<path d="M50.0014 28.2764H0.00146484V34.8281H50.0014V28.2764Z" fill="#FFE15A"/>
<path d="M18.967 28.2758H0.863573C0.387499 28.2758 0.00146484 27.8898 0.00146484 27.4137V9.48271C0.00146484 9.00664 0.387499 8.62061 0.863573 8.62061H18.967C19.443 8.62061 19.8291 9.00664 19.8291 9.48271V27.4137C19.829 27.8898 19.443 28.2758 18.967 28.2758Z" fill="#FF4B55"/>
<path d="M9.70182 13.2459L8.45592 16.9815L4.51823 17.0119C4.30241 17.0137 4.21286 17.2891 4.38659 17.4173L7.55436 19.7566L6.36657 23.5111C6.30153 23.7169 6.5359 23.8871 6.71139 23.7616L9.9151 21.4718L13.1188 23.7616C13.2945 23.8872 13.5289 23.7169 13.4636 23.5111L12.2758 19.7567L15.4436 17.4174C15.6173 17.2892 15.5278 17.0136 15.312 17.012L11.3743 16.9816L10.1281 13.246C10.0597 13.0411 9.77008 13.0411 9.70182 13.2459Z" fill="#F5F5F5"/>
</g>
<defs>
<clipPath id="clip0_106_17112">
<rect width="50" height="50" fill="white"/>
</clipPath>
</defs>
</svg>
