<svg width="50" height="50" viewBox="0 0 50 50" fill="none" xmlns="http://www.w3.org/2000/svg">
<g clip-path="url(#clip0_106_17102)">
<path d="M49.1383 41.3791H0.862596C0.386523 41.3791 0.000488281 40.9931 0.000488281 40.517V9.48271C0.000488281 9.00664 0.386523 8.62061 0.862596 8.62061H49.1384C49.6145 8.62061 50.0005 9.00664 50.0005 9.48271V40.517C50.0004 40.9932 49.6144 41.3791 49.1383 41.3791Z" fill="#41479B"/>
<path d="M46.5508 36.2066H12.0682C11.5921 36.2066 11.2061 35.8206 11.2061 35.3445C11.2061 34.8685 11.5921 34.4824 12.0682 34.4824H46.5508L47.4129 35.3445L46.5508 36.2066Z" fill="#FFE15A"/>
<path d="M46.982 33.6207H12.0684C12.0684 33.6207 25.8614 18.1035 38.7924 14.6553C38.7924 14.6553 34.4821 25.8621 44.8269 32.7587H46.9821C47.2201 32.7587 47.4131 32.9516 47.4131 33.1897C47.413 33.4276 47.2201 33.6207 46.982 33.6207Z" fill="#FFE15A"/>
<path d="M10.5624 28.6301L10.8969 29.6332L11.9541 29.6414C12.0909 29.6424 12.1478 29.8171 12.0376 29.8984L11.1871 30.5264L11.5061 31.5345C11.5474 31.665 11.3987 31.773 11.2874 31.6933L10.4272 31.0786L9.56709 31.6933C9.45576 31.7729 9.30713 31.665 9.34844 31.5345L9.66739 30.5264L8.8169 29.8984C8.70674 29.817 8.76358 29.6423 8.90039 29.6414L9.95762 29.6332L10.2921 28.6301C10.3354 28.5002 10.519 28.5002 10.5624 28.6301Z" fill="#F5F5F5"/>
<path d="M10.5365 14.8407L10.8078 15.6543L11.6655 15.661C11.7767 15.6619 11.8226 15.8036 11.7333 15.8695L11.0434 16.3791L11.302 17.1968C11.3355 17.3028 11.2149 17.3903 11.1247 17.3257L10.4268 16.8269L9.729 17.3257C9.63866 17.3903 9.51816 17.3027 9.55165 17.1968L9.81034 16.3791L9.1204 15.8695C9.03105 15.8036 9.07704 15.6619 9.18818 15.661L10.0459 15.6543L10.3172 14.8407C10.3524 14.7354 10.5015 14.7354 10.5365 14.8407Z" fill="#F5F5F5"/>
<path d="M4.03847 19.8759L4.30976 20.6896L5.16747 20.6962C5.2786 20.6971 5.3246 20.8388 5.23524 20.9047L4.5453 21.4143L4.80399 22.2321C4.83749 22.338 4.71688 22.4255 4.62665 22.361L3.9288 21.8621L3.23095 22.361C3.14062 22.4255 3.02011 22.3379 3.05361 22.2321L3.3123 21.4143L2.62236 20.9047C2.533 20.8388 2.579 20.6971 2.69013 20.6962L3.54784 20.6896L3.81913 19.8759C3.85439 19.7705 4.00341 19.7705 4.03847 19.8759Z" fill="#F5F5F5"/>
<path d="M15.1841 19.5325L15.3929 20.1587L16.053 20.1638C16.1384 20.1645 16.1739 20.2735 16.1051 20.3242L15.5741 20.7163L15.7732 21.3456C15.799 21.4271 15.7062 21.4945 15.6367 21.4447L15.0997 21.061L14.5628 21.4447C14.4933 21.4945 14.4005 21.4271 14.4263 21.3456L14.6254 20.7163L14.0944 20.3242C14.0256 20.2735 14.0611 20.1645 14.1465 20.1638L14.8066 20.1587L15.0154 19.5325C15.0424 19.4514 15.1571 19.4514 15.1841 19.5325Z" fill="#F5F5F5"/>
</g>
<defs>
<clipPath id="clip0_106_17102">
<rect width="50" height="50" fill="white"/>
</clipPath>
</defs>
</svg>
