<svg width="50" height="50" viewBox="0 0 50 50" fill="none" xmlns="http://www.w3.org/2000/svg">
<g clip-path="url(#clip0_106_17098)">
<path d="M49.1393 41.3791H0.863573C0.387499 41.3791 0.00146484 40.9931 0.00146484 40.517V9.48271C0.00146484 9.00664 0.387499 8.62061 0.863573 8.62061H49.1394C49.6154 8.62061 50.0015 9.00664 50.0015 9.48271V40.517C50.0014 40.9932 49.6153 41.3791 49.1393 41.3791Z" fill="#FF4B55"/>
<path d="M18.9669 24.9999H0.863573C0.387499 24.9999 0.00146484 24.6138 0.00146484 24.1378V9.48271C0.00146484 9.00664 0.387499 8.62061 0.863573 8.62061H18.967C19.443 8.62061 19.8291 9.00664 19.8291 9.48271V24.1379C19.829 24.614 19.4429 24.9999 18.9669 24.9999Z" fill="#F5F5F5"/>
<path d="M16.3807 14.6551H12.0704V10.3447H7.76005V14.6551H3.44971V18.9654H7.76005V23.2758H12.0704V18.9654H16.3807V14.6551Z" fill="#FF4B55"/>
</g>
<defs>
<clipPath id="clip0_106_17098">
<rect width="50" height="50" fill="white"/>
</clipPath>
</defs>
</svg>
