<svg width="50" height="50" viewBox="0 0 50 50" fill="none" xmlns="http://www.w3.org/2000/svg">
<g clip-path="url(#clip0_106_17089)">
<path d="M49.1393 41.3792H0.863573C0.387499 41.3792 0.00146484 40.9932 0.00146484 40.5171V9.48271C0.00146484 9.00664 0.387499 8.62061 0.863573 8.62061H49.1394C49.6154 8.62061 50.0015 9.00664 50.0015 9.48271V40.5171C50.0014 40.9933 49.6153 41.3792 49.1393 41.3792Z" fill="#FF4B55"/>
<path d="M0.865136 8.62061C0.632031 8.62061 0.422265 8.71504 0.26709 8.86533L35.3479 41.3791H37.9341L2.58925 8.62061H0.865136Z" fill="#F5F5F5"/>
<path d="M14.658 8.62061H12.0718L47.4165 41.3791H49.1407C49.3738 41.3791 49.5835 41.2847 49.7387 41.1344L14.658 8.62061Z" fill="#F5F5F5"/>
<path d="M2.58789 8.62061L37.9326 41.3791H47.4153L12.0706 8.62061H2.58789Z" fill="#464655"/>
</g>
<defs>
<clipPath id="clip0_106_17089">
<rect width="50" height="50" fill="white"/>
</clipPath>
</defs>
</svg>
