<svg width="50" height="50" viewBox="0 0 50 50" fill="none" xmlns="http://www.w3.org/2000/svg">
<g clip-path="url(#clip0_106_17083)">
<path d="M49.1378 41.3792H0.862108C0.386034 41.3792 0 40.9932 0 40.5171V9.48271C0 9.00664 0.386034 8.62061 0.862108 8.62061H49.1379C49.614 8.62061 50 9.00664 50 9.48271V40.5171C49.9999 40.9933 49.6139 41.3792 49.1378 41.3792Z" fill="#FF4B55"/>
<path d="M25.0977 16.3794C29.8553 16.3794 33.7115 20.246 33.7115 25.0001C33.7115 29.7679 29.8553 33.6208 25.0977 33.6208C20.3299 33.6208 16.4702 29.7679 16.4702 25.0001C16.4701 20.246 20.3299 16.3794 25.0977 16.3794Z" fill="#F5F5F5"/>
<path d="M26.6642 29.8305C23.9956 29.8305 21.831 27.666 21.831 25.0004C21.831 22.3412 23.9956 20.1767 26.6642 20.1767C27.572 20.1767 28.4202 20.431 29.1452 20.8702C29.2538 20.936 29.368 20.7938 29.2775 20.7047C28.1898 19.633 26.7005 18.9692 25.0554 18.9692C21.7155 18.9692 19.0112 21.6735 19.0112 25.0006C19.0112 28.3341 21.7154 31.0382 25.0554 31.0382C26.6997 31.0382 28.1885 30.3749 29.276 29.3035C29.3665 29.2143 29.2522 29.0722 29.1436 29.1379C28.4188 29.5767 27.5712 29.8305 26.6642 29.8305Z" fill="#FF4B55"/>
<path d="M26.2228 21.6199L27.5552 23.4291L29.6983 22.7541C29.9757 22.6667 30.2047 22.9828 30.0354 23.2191L28.7266 25.0454L30.0308 26.875C30.1996 27.1118 29.9698 27.4273 29.6925 27.3392L27.5511 26.6588L26.214 28.4644C26.041 28.6983 25.6699 28.5771 25.668 28.2862L25.6535 26.0394L23.523 25.3259C23.2471 25.2335 23.2477 24.8432 23.5238 24.7516L25.6561 24.0434L25.6763 21.7966C25.679 21.5058 26.0503 21.3856 26.2228 21.6199Z" fill="#FF4B55"/>
</g>
<defs>
<clipPath id="clip0_106_17083">
<rect width="50" height="50" fill="white"/>
</clipPath>
</defs>
</svg>
