<svg width="50" height="50" viewBox="0 0 50 50" fill="none" xmlns="http://www.w3.org/2000/svg">
<g clip-path="url(#clip0_106_17028)">
<path d="M49.1378 41.3787H0.862108C0.386034 41.3787 0 40.9926 0 40.5165V9.48222C0 9.00615 0.386034 8.62012 0.862108 8.62012H49.1379C49.614 8.62012 50 9.00615 50 9.48222V40.5165C49.9999 40.9928 49.6139 41.3787 49.1378 41.3787Z" fill="#73AF00"/>
<path d="M15.5176 8.62061H6.89648V41.3793H15.5176V8.62061Z" fill="#FF4B55"/>
<path d="M14.6554 12.356L12.9312 13.7928H9.48291L7.75879 12.356V10.9191L9.48291 9.48242H12.9312L14.6554 10.9191V12.356Z" fill="#F5F5F5"/>
<path d="M14.6563 24.4253L12.9322 25.8622H9.48388L7.75977 24.4253V22.9886L9.48388 21.5518H12.9322L14.6563 22.9886V24.4253Z" fill="#73AF00"/>
<path d="M14.6558 18.3906L12.9317 19.8274H9.48339L7.75928 18.3906V16.9539L9.48339 15.5171H12.9317L14.6558 16.9539V18.3906Z" fill="#73AF00"/>
<path d="M14.6563 30.4595L12.9322 31.8963H9.48388L7.75977 30.4595V29.0228L9.48388 27.5859H12.9322L14.6563 29.0228V30.4595Z" fill="#73AF00"/>
<path d="M6.89795 12.9307L8.62207 14.6548L6.89795 16.3789V12.9307Z" fill="#FFB400"/>
<path d="M15.5186 16.3789L13.7944 14.6548L15.5186 12.9307V16.3789Z" fill="#FFB400"/>
<path d="M6.89795 18.9648L8.62207 20.689L6.89795 22.4131V18.9648Z" fill="#FFB400"/>
<path d="M15.5186 22.4131L13.7944 20.689L15.5186 18.9648V22.4131Z" fill="#FFB400"/>
<path d="M6.89795 24.9995L8.62207 26.7236L6.89795 28.4478V24.9995Z" fill="#FFB400"/>
<path d="M15.5186 28.4478L13.7944 26.7236L15.5186 24.9995V28.4478Z" fill="#FFB400"/>
<path d="M6.89795 31.0337L8.62207 32.7578L6.89795 34.4819V31.0337Z" fill="#FFB400"/>
<path d="M15.5186 34.4819L13.7944 32.7578L15.5186 31.0337V34.4819Z" fill="#FFB400"/>
<path d="M6.89795 8.62012H8.62207L6.89795 10.3442V8.62012Z" fill="#FFB400"/>
<path d="M15.5186 10.3442L13.7944 8.62012H15.5186V10.3442Z" fill="#FFB400"/>
<path d="M11.6385 15.5171H10.7764V19.8276H11.6385V15.5171Z" fill="#FFB400"/>
<path d="M12.9307 17.2407H9.48242V18.1028H12.9307V17.2407Z" fill="#FF4B55"/>
<path d="M13.7941 16.2354L12.9321 15.5171V19.8274L13.7941 19.109V16.2354Z" fill="#FFB400"/>
<path d="M8.62207 19.1089L9.48408 19.8273V15.5171L8.62207 16.2353V19.1089Z" fill="#FFB400"/>
<path d="M11.208 9.48242H9.48398L7.75977 10.9191V11.6376H11.208V9.48242Z" fill="#FFB400"/>
<path d="M11.208 13.7929H12.9322L14.6563 12.3561V11.6377H11.208V13.7929Z" fill="#FFB400"/>
<path d="M11.207 12.9305L9.48291 11.6425L11.207 10.3442L12.9312 11.6425L11.207 12.9305Z" fill="#FF4B55"/>
<path d="M11.2061 12.9303L12.9303 11.6423L12.9235 11.6372H11.2061V12.9303Z" fill="#73AF00"/>
<path d="M11.207 11.6374V10.3442L9.48975 11.6374H11.207Z" fill="#73AF00"/>
<path d="M12.9307 22.4136H9.48242V24.9998H12.9307V22.4136Z" fill="#FF4B55"/>
<path d="M13.7928 23.2749H12.9307V24.137H13.7928V23.2749Z" fill="#FFB400"/>
<path d="M11.6375 23.2749H10.7754V24.137H11.6375V23.2749Z" fill="#F5F5F5"/>
<path d="M11.6375 28.4478H10.7754V29.3099H11.6375V28.4478Z" fill="#FF4B55"/>
<path d="M12.931 29.3101H12.0688V30.1722H12.931V29.3101Z" fill="#FFB400"/>
<path d="M10.3445 29.3101H9.48242V30.1722H10.3445V29.3101Z" fill="#FFB400"/>
<path d="M11.6375 30.1714H10.7754V31.0335H11.6375V30.1714Z" fill="#FF4B55"/>
<path d="M9.4832 23.2749H8.62109V24.137H9.4832V23.2749Z" fill="#FFB400"/>
<path d="M14.6554 36.4936L12.9312 37.9305H9.48291L7.75879 36.4936V35.057L9.48291 33.6201H12.9312L14.6554 35.057V36.4936Z" fill="#F5F5F5"/>
<path d="M11.208 33.6201H9.48398L7.75977 35.0569V35.7753H11.208V33.6201Z" fill="#FFB400"/>
<path d="M11.208 37.9306H12.9322L14.6563 36.4937V35.7754H11.208V37.9306Z" fill="#FFB400"/>
<path d="M12.9312 36.2065L11.207 37.0686L9.48291 36.2065V35.3445L11.207 34.4824L12.9312 35.3445V36.2065Z" fill="#FF4B55"/>
<path d="M27.3438 13.3146C27.252 13.2695 27.1689 13.3889 27.2434 13.4591C28.219 14.3797 28.8355 15.6726 28.8355 17.1147C28.8355 19.9474 26.5586 22.2201 23.7588 22.2201C23.242 22.2201 22.7442 22.1395 22.2747 21.9927C22.1774 21.9623 22.1144 22.0928 22.1982 22.151C23.0168 22.7201 24.0034 23.0602 25.0804 23.0602C27.9173 23.0602 30.2354 20.7872 30.2354 17.9134C30.2353 15.8937 29.0499 14.1534 27.3438 13.3146Z" fill="#F5F5F5"/>
<path d="M20.3286 16.6405L20.1177 17.2371L20.6138 17.6298C20.6781 17.6807 20.6407 17.784 20.5588 17.7819L19.9262 17.7655L19.7061 18.3587C19.6776 18.4356 19.5677 18.4319 19.5445 18.3533L19.3645 17.7468L18.7323 17.7207C18.6504 17.7174 18.62 17.6117 18.6875 17.5653L19.2088 17.2068L19.0382 16.5974C19.0161 16.5185 19.1071 16.4569 19.1721 16.5068L19.6743 16.8917L20.2011 16.5411C20.2691 16.4957 20.3558 16.5633 20.3286 16.6405Z" fill="#F5F5F5"/>
<path d="M22.8901 17.9345L22.6793 18.5311L23.1754 18.9237C23.2396 18.9746 23.2022 19.0779 23.1203 19.0758L22.4878 19.0595L22.2676 19.6527C22.2391 19.7295 22.1293 19.7258 22.106 19.6473L21.926 19.0407L21.2938 19.0147C21.2119 19.0113 21.1815 18.9057 21.249 18.8593L21.7703 18.5007L21.5997 17.8913C21.5776 17.8124 21.6686 17.7508 21.7337 17.8007L22.2358 18.1857L22.7627 17.8351C22.8307 17.7898 22.9173 17.8573 22.8901 17.9345Z" fill="#F5F5F5"/>
<path d="M22.8647 15.269L22.6539 15.8655L23.15 16.2582C23.2142 16.3091 23.1768 16.4124 23.0949 16.4103L22.4624 16.394L22.2423 16.9871C22.2137 17.064 22.1039 17.0603 22.0806 16.9818L21.9007 16.3752L21.2684 16.3491C21.1865 16.3458 21.1561 16.2402 21.2236 16.1938L21.7449 15.8352L21.5743 15.2258C21.5522 15.1469 21.6432 15.0853 21.7083 15.1352L22.2104 15.5201L22.7373 15.1696C22.8053 15.1242 22.8921 15.1918 22.8647 15.269Z" fill="#F5F5F5"/>
<path d="M22.9516 12.6962L22.7408 13.2928L23.2369 13.6855C23.3011 13.7363 23.2637 13.8397 23.1818 13.8375L22.5493 13.8212L22.3292 14.4144C22.3007 14.4912 22.1908 14.4875 22.1675 14.409L21.9876 13.8025L21.3553 13.7764C21.2734 13.7731 21.243 13.6674 21.3105 13.621L21.8318 13.2624L21.6612 12.653C21.6391 12.5741 21.7301 12.5125 21.7952 12.5624L22.2973 12.9474L22.8242 12.5968C22.8922 12.5514 22.9789 12.619 22.9516 12.6962Z" fill="#F5F5F5"/>
<path d="M25.4624 13.9902L25.2515 14.5867L25.7476 14.9794C25.8119 15.0303 25.7745 15.1336 25.6925 15.1315L25.06 15.1152L24.8399 15.7083C24.8114 15.7852 24.7015 15.7815 24.6783 15.7029L24.4983 15.0964L23.8661 15.0703C23.7841 15.067 23.7538 14.9613 23.8213 14.915L24.3425 14.5564L24.1719 13.947C24.1499 13.8681 24.2409 13.8065 24.3059 13.8564L24.8081 14.2413L25.3349 13.8907C25.4029 13.8453 25.4896 13.9129 25.4624 13.9902Z" fill="#F5F5F5"/>
</g>
<defs>
<clipPath id="clip0_106_17028">
<rect width="50" height="50" fill="white"/>
</clipPath>
</defs>
</svg>
