<svg width="50" height="50" viewBox="0 0 50 50" fill="none" xmlns="http://www.w3.org/2000/svg">
<g clip-path="url(#clip0_106_17009)">
<path d="M49.1388 41.3791H0.863084C0.387011 41.3791 0.000976562 40.9931 0.000976562 40.517V9.48271C0.000976562 9.00664 0.387011 8.62061 0.863084 8.62061H49.1389C49.6149 8.62061 50.001 9.00664 50.001 9.48271V40.517C50.0009 40.9932 49.6148 41.3791 49.1388 41.3791Z" fill="#41479B"/>
<path d="M24.1388 8.62061H22.6415L14.6561 13.8523V8.62061H10.3458V13.8523L2.36044 8.62061H0.863084C0.387011 8.62061 0.000976562 9.00664 0.000976562 9.48271V10.1665L6.85204 14.6551H0.000976562V18.9654H6.85204L0.000976562 23.4541V24.1378C0.000976562 24.6138 0.387011 24.9999 0.863084 24.9999H2.36044L10.3458 19.7681V24.9999H14.6561V19.7681L22.6414 24.9999H24.1387C24.6148 24.9999 25.0008 24.6138 25.0008 24.1378V23.454L18.1499 18.9654H25.0008V14.6551H18.1498L25.0008 10.1665V9.48271C25.0008 9.00664 24.615 8.62061 24.1388 8.62061Z" fill="#F5F5F5"/>
<path d="M25.0018 15.5172H13.795V8.62061H11.2088V15.5172H0.00195312V18.1033H11.2088V24.9999H13.795V18.1033H25.0018V15.5172Z" fill="#FF4B55"/>
<path d="M9.48465 14.6549L0.412792 8.76611C0.171386 8.91894 0.00195312 9.17558 0.00195312 9.48252V9.52724L7.90125 14.6549H9.48465Z" fill="#FF4B55"/>
<path d="M16.2401 14.6551L24.8704 9.05293C24.7204 8.79912 24.4557 8.62061 24.1394 8.62061H23.953L14.6567 14.6551H16.2401Z" fill="#FF4B55"/>
<path d="M8.74022 18.9653L0.126465 24.5567C0.275 24.8167 0.543749 24.9998 0.864647 24.9998H1.02724L10.3236 18.9653H8.74022Z" fill="#FF4B55"/>
<path d="M24.9882 24.2055L16.9153 18.9653H15.332L24.4993 24.9159C24.774 24.7885 24.9623 24.5214 24.9882 24.2055Z" fill="#FF4B55"/>
<path d="M33.6019 20.1147C33.4978 20.1147 33.4136 20.199 33.4136 20.303V23.5035C33.4136 29.9047 37.932 31.0342 37.932 31.0342C37.932 31.0342 42.4505 29.9046 42.4505 23.5035V20.303C42.4505 20.199 42.3662 20.1147 42.2622 20.1147H33.6019Z" fill="#FFE15A"/>
<path d="M41.9799 20.5854V23.5035C41.9799 28.9479 38.6145 30.3212 37.9322 30.5434C37.2461 30.3197 33.8843 28.9449 33.8843 23.5035V20.5854H41.9799ZM42.2622 20.1147H33.6019C33.4978 20.1147 33.4136 20.199 33.4136 20.303V23.5035C33.4136 29.9047 37.932 31.0342 37.932 31.0342C37.932 31.0342 42.4505 29.9046 42.4505 23.5035V20.303C42.4505 20.199 42.3662 20.1147 42.2622 20.1147Z" fill="#F5F5F5"/>
<path d="M38.4375 26.0781H37.4743C37.4743 26.0781 36.6976 26.8549 36.5195 28.5611C36.5137 28.6155 36.5358 28.6706 36.5788 28.7045C36.7422 28.8325 37.2011 29.1282 37.9559 29.1282C38.7107 29.1282 39.1696 28.8325 39.3329 28.7045C39.376 28.6708 39.3979 28.6156 39.3923 28.5611C39.2143 26.8549 38.4375 26.0781 38.4375 26.0781Z" fill="#73AF00"/>
<path d="M38.4388 25.9174H37.4756V25.1148C37.4756 24.85 37.6923 24.6333 37.9571 24.6333C38.222 24.6333 38.4387 24.85 38.4387 25.1148V25.9174H38.4388Z" fill="#FF4B55"/>
<path d="M38.4382 26.2386H37.475C37.3863 26.2386 37.3145 26.1667 37.3145 26.078C37.3145 25.9894 37.3863 25.9175 37.475 25.9175H38.4382C38.5269 25.9175 38.5987 25.9894 38.5987 26.078C38.5986 26.1667 38.5268 26.2386 38.4382 26.2386Z" fill="#FF4B55"/>
<path d="M41.6477 22.6893C41.6192 22.6893 41.2005 22.6913 40.7647 22.7662V22.5152C41.1324 22.3474 41.4927 22.2606 41.4988 22.2592C41.5419 22.249 41.5687 22.2058 41.5586 22.1627C41.5483 22.1196 41.5053 22.0927 41.4621 22.1029C41.4379 22.1085 41.1144 22.1863 40.7618 22.3397C40.7561 22.2435 40.7227 22.1552 40.6685 22.0824C40.9561 21.8597 41.2012 21.7182 41.2058 21.7157C41.2442 21.6937 41.2577 21.6448 41.2358 21.6062C41.2138 21.5677 41.1647 21.5543 41.1264 21.5761C41.1069 21.5873 40.8499 21.7355 40.5515 21.9686C40.4747 21.9169 40.3824 21.8867 40.2831 21.8867C40.1799 21.8867 40.0846 21.92 40.0061 21.9755C40.0885 21.5624 40.2576 21.3836 40.26 21.3813C40.291 21.35 40.2909 21.2993 40.2597 21.2681C40.2283 21.2368 40.1775 21.2368 40.1462 21.2681C40.1366 21.2777 39.9807 21.4387 39.8818 21.8006C39.783 21.4386 39.627 21.2776 39.6175 21.2681C39.5863 21.237 39.5359 21.237 39.5044 21.268C39.473 21.2991 39.4728 21.3499 39.5036 21.3814C39.5059 21.3837 39.6751 21.5626 39.7574 21.9756C39.679 21.9201 39.5837 21.8868 39.4805 21.8868C39.3812 21.8868 39.2889 21.9171 39.2121 21.9687C38.9138 21.7355 38.6567 21.5874 38.6372 21.5762C38.5986 21.5543 38.5496 21.5677 38.5277 21.6063C38.5058 21.6449 38.5192 21.6938 38.5578 21.7158C38.5623 21.7183 38.8074 21.8597 39.0952 22.0824C39.0409 22.1553 39.0076 22.2436 39.0018 22.3398C38.6493 22.1863 38.3257 22.1086 38.3015 22.103C38.2581 22.0927 38.2151 22.1197 38.205 22.1628C38.1948 22.2059 38.2217 22.2492 38.2647 22.2593C38.2709 22.2606 38.6311 22.3474 38.9988 22.5153V22.7663C38.5632 22.6913 38.1444 22.6894 38.1159 22.6894C38.0716 22.6894 38.0356 22.7253 38.0356 22.7697C38.0356 22.814 38.0715 22.85 38.1159 22.85C38.1229 22.85 38.5616 22.8517 38.9988 22.9293V23.1889C38.758 23.1817 38.4894 23.2154 38.2405 23.34C38.2009 23.3598 38.1849 23.408 38.2047 23.4476C38.2188 23.4758 38.2472 23.4921 38.2766 23.4921C38.2887 23.4921 38.3008 23.4893 38.3123 23.4836C38.5339 23.3729 38.778 23.344 38.9987 23.3514V24.3446C38.9987 24.4658 38.9866 24.5877 38.963 24.7067L38.8398 25.3223C38.8311 25.3659 38.8594 25.4081 38.9027 25.4168C38.908 25.4178 38.9133 25.4184 38.9186 25.4184C38.9561 25.4184 38.9895 25.3922 38.9973 25.3539L39.1204 24.7383C39.1463 24.6089 39.1594 24.4765 39.1594 24.3447V23.3634C39.2798 23.3769 39.3879 23.3986 39.4749 23.4204L39.5361 24.2153C39.5437 24.3144 39.5934 24.4 39.6657 24.4581L39.4054 24.8485C39.2659 25.0578 39.4158 25.338 39.6673 25.338H40.0961C40.3475 25.338 40.4975 25.0577 40.358 24.8485L40.0977 24.4581C40.1701 24.4 40.2196 24.3143 40.2272 24.2153L40.2884 23.4204C40.3753 23.3986 40.4835 23.3769 40.6039 23.3634V24.3446C40.6039 24.4764 40.617 24.6088 40.6429 24.7382L40.766 25.3538C40.7736 25.392 40.8071 25.4183 40.8447 25.4183C40.8499 25.4183 40.8552 25.4179 40.8605 25.4167C40.904 25.408 40.9322 25.3657 40.9234 25.3222L40.8003 24.7066C40.7766 24.5877 40.7645 24.4659 40.7645 24.3445V23.3511C40.9853 23.3437 41.2295 23.3726 41.451 23.4833C41.4625 23.4889 41.4747 23.4918 41.4867 23.4918C41.5161 23.4918 41.5444 23.4755 41.5586 23.4473C41.5784 23.4077 41.5624 23.3595 41.5227 23.3397C41.274 23.2154 41.0054 23.1816 40.7644 23.1887V22.929C41.2017 22.8514 41.6404 22.8497 41.6474 22.8497C41.6918 22.8497 41.7276 22.8136 41.7276 22.7694C41.7279 22.7252 41.692 22.6893 41.6477 22.6893ZM40.6042 22.7969C40.5083 22.8177 40.4139 22.8425 40.3249 22.872C40.3232 22.8404 40.3186 22.8097 40.3107 22.7801C40.3997 22.7113 40.4997 22.6489 40.6043 22.5936V22.7969H40.6042ZM40.6042 22.3682V22.4127C40.477 22.4759 40.3519 22.5491 40.2397 22.6322C40.2165 22.6004 40.1896 22.5718 40.1588 22.5471C40.2788 22.4141 40.4123 22.2909 40.5436 22.1822C40.5815 22.2346 40.6042 22.2987 40.6042 22.3682ZM40.2832 22.0471C40.3311 22.0471 40.3761 22.0584 40.4169 22.0772C40.2782 22.1937 40.1376 22.3262 40.0117 22.47C39.9953 22.4649 39.9792 22.4599 39.962 22.4568V22.4483C39.962 22.4118 39.9633 22.3771 39.9645 22.3426C39.9779 22.1778 40.1148 22.0471 40.2832 22.0471ZM39.4806 22.0471C39.6489 22.0471 39.7858 22.1777 39.799 22.3427C39.8003 22.3772 39.8016 22.4118 39.8016 22.4484V22.4569C39.7845 22.46 39.7683 22.465 39.7519 22.4701C39.626 22.3263 39.4853 22.1938 39.3467 22.0773C39.3877 22.0584 39.4327 22.0471 39.4806 22.0471ZM39.1596 22.3682C39.1596 22.2986 39.1823 22.2346 39.2201 22.182C39.3515 22.2907 39.4849 22.414 39.6049 22.5469C39.574 22.5716 39.5473 22.6003 39.5239 22.6321C39.4118 22.549 39.2867 22.4758 39.1595 22.4126L39.1596 22.3682ZM39.1596 22.5937C39.2641 22.649 39.3641 22.7114 39.4531 22.7801C39.4451 22.8099 39.4405 22.8405 39.439 22.872C39.3498 22.8425 39.2556 22.8177 39.1597 22.7969V22.5937H39.1596ZM39.1596 23.2001V22.9617C39.2602 22.9844 39.3572 23.012 39.4462 23.0451L39.462 23.2507C39.3747 23.2303 39.2722 23.2118 39.1596 23.2001ZM40.6042 23.2002C40.4916 23.2119 40.389 23.2304 40.3018 23.2508L40.3176 23.0452C40.4065 23.0121 40.5037 22.9846 40.6042 22.9618V23.2002Z" fill="#D35A10"/>
<path d="M36.5767 24.856H36.2162L34.8383 23.6313C34.6877 23.4976 34.6241 23.2913 34.6729 23.0959L35.0571 21.5591C35.0911 21.423 35.2604 21.3762 35.3594 21.4754L35.983 22.0989C36.0168 22.1327 36.0626 22.1518 36.1104 22.1518H36.5765V24.8561L36.5767 24.856Z" fill="#FFA033"/>
<path d="M36.3182 21.7821L36.097 22.7779C36.057 22.9584 36.0637 23.1463 36.1168 23.3234L36.5766 24.8561H36.9372L37.3969 23.3234C37.45 23.1463 37.457 22.9585 37.4167 22.7779L37.1956 21.7821C37.1499 21.5768 36.9677 21.4307 36.7573 21.4307H36.7563C36.5459 21.4306 36.3637 21.5768 36.3182 21.7821Z" fill="#FF9480"/>
<path d="M36.7574 21.7915C36.6575 21.7915 36.5767 21.8722 36.5767 21.9718V24.8564H36.9381V21.9718C36.9381 21.8722 36.8572 21.7915 36.7574 21.7915Z" fill="#FFA0E4"/>
</g>
<defs>
<clipPath id="clip0_106_17009">
<rect width="50" height="50" fill="white"/>
</clipPath>
</defs>
</svg>
