<svg width="50" height="50" viewBox="0 0 50 50" fill="none" xmlns="http://www.w3.org/2000/svg">
<g clip-path="url(#clip0_106_16990)">
<path d="M49.1383 41.3792H0.862596C0.386523 41.3792 0.000488281 40.9932 0.000488281 40.5171V9.48271C0.000488281 9.00664 0.386523 8.62061 0.862596 8.62061H49.1384C49.6145 8.62061 50.0005 9.00664 50.0005 9.48271V40.5171C50.0004 40.9933 49.6144 41.3792 49.1383 41.3792Z" fill="#82AFFF"/>
<path d="M24.1383 25H0.862596C0.386523 25 0.000488281 24.6139 0.000488281 24.1379V9.48271C0.000488281 9.00664 0.386523 8.62061 0.862596 8.62061H24.1384C24.6145 8.62061 25.0005 9.00664 25.0005 9.48271V24.1379C25.0004 24.6139 24.6144 25 24.1383 25Z" fill="#41479B"/>
<path d="M24.1383 8.62061H22.6409L14.6555 13.8524V8.62061H10.3452V13.8524L2.35986 8.62061H0.862596C0.386523 8.62061 0.000488281 9.00654 0.000488281 9.48262V10.1664L6.85155 14.655H0.000488281V18.9653H6.85155L0.000488281 23.454V24.1378C0.000488281 24.6138 0.386523 24.9999 0.862596 24.9999H2.36005L10.3454 19.768V24.9999H14.6557V19.768L22.641 24.9999H24.1384C24.6145 24.9999 25.0005 24.6138 25.0005 24.1378V23.454L18.1495 18.9654H25.0004V14.6551H18.1494L25.0004 10.1665V9.48271C25.0004 9.00654 24.6144 8.62061 24.1383 8.62061Z" fill="#F5F5F5"/>
<path d="M25.0009 15.5172H13.794V8.62061H11.2079V15.5172H0.000976562V18.1033H11.2079V24.9999H13.794V18.1033H25.0009V15.5172Z" fill="#FF4B55"/>
<path d="M9.48318 14.6549L0.411327 8.76611C0.169922 8.91885 0.000488281 9.17558 0.000488281 9.48242V9.52715L7.89979 14.6549H9.48318Z" fill="#FF4B55"/>
<path d="M16.2387 14.6551L24.8689 9.05293C24.7189 8.79912 24.4543 8.62061 24.138 8.62061H23.9515L14.6553 14.6551H16.2387Z" fill="#FF4B55"/>
<path d="M8.73827 18.9653L0.124512 24.5567C0.273047 24.8167 0.541796 24.9998 0.862694 24.9998H1.02529L10.3218 18.9653H8.73827Z" fill="#FF4B55"/>
<path d="M24.9868 24.2054L16.914 18.9653H15.3306L24.4979 24.916C24.7725 24.7886 24.9609 24.5215 24.9868 24.2054Z" fill="#FF4B55"/>
<path d="M21.3524 34.5078L20.8909 35.8915L19.4323 35.9028C19.2925 35.9039 19.2344 36.0824 19.3469 36.1655L20.5203 37.032L20.0803 38.4227C20.0381 38.5561 20.19 38.6664 20.3039 38.5851L21.4906 37.737L22.6773 38.5851C22.7911 38.6665 22.9429 38.5561 22.9009 38.4227L22.4609 37.032L23.6342 36.1655C23.7467 36.0824 23.6887 35.9039 23.5489 35.9028L22.0903 35.8915L21.6288 34.5078C21.5844 34.375 21.3967 34.375 21.3524 34.5078Z" fill="#FFE15A"/>
<path d="M43.8202 23.7319L43.3587 25.1156L41.9001 25.1269C41.7602 25.128 41.7022 25.3065 41.8147 25.3896L42.9881 26.2561L42.5481 27.6469C42.5058 27.7803 42.6578 27.8905 42.7717 27.8093L43.9584 26.9611L45.1451 27.8093C45.2589 27.8906 45.4107 27.7803 45.3686 27.6469L44.9287 26.2561L46.102 25.3896C46.2145 25.3065 46.1565 25.128 46.0167 25.1269L44.5581 25.1156L44.0966 23.7319C44.0522 23.5991 43.8644 23.5991 43.8202 23.7319Z" fill="#FFE15A"/>
<path d="M43.8202 12.0942L43.3587 13.4779L41.9001 13.4893C41.7602 13.4903 41.7022 13.6688 41.8147 13.7519L42.9881 14.6185L42.5481 16.0092C42.5058 16.1426 42.6578 16.2528 42.7717 16.1716L43.9584 15.3234L45.1451 16.1716C45.2589 16.2529 45.4107 16.1426 45.3686 16.0092L44.9287 14.6185L46.102 13.7519C46.2145 13.6688 46.1565 13.4903 46.0167 13.4893L44.5581 13.4779L44.0966 12.0942C44.0522 11.9614 43.8644 11.9614 43.8202 12.0942Z" fill="#FFE15A"/>
<path d="M27.1284 27.2278L27.5839 28.6134L26.4204 29.493C26.3089 29.5774 26.3687 29.7552 26.5087 29.7547L27.9672 29.7497L28.4443 31.1281C28.4901 31.2603 28.6777 31.2582 28.7205 31.125L29.1664 29.7361L30.6248 29.7084C30.7646 29.7056 30.8206 29.5265 30.7072 29.4448L29.5241 28.5915L29.9484 27.1959C29.9891 27.0621 29.836 26.9534 29.7232 27.0361L28.5462 27.8976L27.3501 27.0629C27.2352 26.9829 27.0846 27.0949 27.1284 27.2278Z" fill="#FFE15A"/>
<path d="M27.0205 33.2088L27.476 34.5944L26.3125 35.474C26.2009 35.5584 26.2608 35.7362 26.4007 35.7357L27.8593 35.7306L28.3364 37.109C28.3822 37.2413 28.5698 37.2391 28.6126 37.1059L29.0585 35.7171L30.5169 35.6893C30.6567 35.6866 30.7127 35.5075 30.5993 35.4257L29.4162 34.5724L29.8405 33.1768C29.8812 33.043 29.7281 32.9343 29.6153 33.0171L28.4382 33.8786L27.2421 33.0438C27.1274 32.9638 26.9767 33.0759 27.0205 33.2088Z" fill="#FFE15A"/>
<path d="M33.3242 31.6999L33.7797 33.0855L32.6162 33.9651C32.5047 34.0495 32.5645 34.2273 32.7045 34.2268L34.163 34.2217L34.6401 35.6002C34.6859 35.7324 34.8735 35.7302 34.9163 35.597L35.3622 34.2082L36.8206 34.1804C36.9604 34.1777 37.0164 33.9986 36.903 33.9169L35.7199 33.0637L36.1442 31.668C36.1849 31.5342 36.0318 31.4256 35.919 31.5083L34.742 32.3698L33.5459 31.535C33.4311 31.455 33.2804 31.5671 33.3242 31.6999Z" fill="#FFE15A"/>
<path d="M33.2168 18.6613L33.6723 20.0469L32.5088 20.9265C32.3972 21.0109 32.4571 21.1887 32.597 21.1882L34.0556 21.1832L34.5327 22.5616C34.5785 22.6938 34.7661 22.6917 34.8088 22.5585L35.2547 21.1696L36.7131 21.1419C36.853 21.1391 36.9089 20.96 36.7956 20.8783L35.6125 20.0251L36.0368 18.6295C36.0775 18.4957 35.9244 18.387 35.8116 18.4697L34.6345 19.3312L33.4384 18.4965C33.3236 18.4164 33.173 18.5284 33.2168 18.6613Z" fill="#FFE15A"/>
<path d="M38.5507 16.8831L39.0063 18.2687L37.8427 19.1483C37.7312 19.2327 37.7911 19.4105 37.931 19.41L39.3896 19.4049L39.8667 20.7834C39.9125 20.9156 40.1001 20.9134 40.1428 20.7802L40.5887 19.3914L42.0471 19.3636C42.187 19.3609 42.2429 19.1818 42.1295 19.1001L40.9464 18.2467L41.3708 16.8511C41.4115 16.7174 41.2584 16.6087 41.1456 16.6914L39.9685 17.5529L38.7724 16.7181C38.6577 16.6382 38.507 16.7502 38.5507 16.8831Z" fill="#FFE15A"/>
</g>
<defs>
<clipPath id="clip0_106_16990">
<rect width="50" height="50" fill="white"/>
</clipPath>
</defs>
</svg>
