<svg width="50" height="50" viewBox="0 0 50 50" fill="none" xmlns="http://www.w3.org/2000/svg">
<g clip-path="url(#clip0_106_16974)">
<path d="M50.0014 14.0805H0.00146484V9.48271C0.00146484 9.00664 0.387499 8.62061 0.863573 8.62061H49.1394C49.6154 8.62061 50.0015 9.00664 50.0015 9.48271L50.0014 14.0805Z" fill="#464655"/>
<path d="M50.0014 14.0811H0.00146484V19.5408H50.0014V14.0811Z" fill="#FFE15A"/>
<path d="M50.0014 19.54H0.00146484V24.9998H50.0014V19.54Z" fill="#FF4B55"/>
<path d="M50.0014 25H0.00146484V30.4598H50.0014V25Z" fill="#464655"/>
<path d="M50.0014 30.46H0.00146484V35.9197H50.0014V30.46Z" fill="#FFE15A"/>
<path d="M49.1393 41.3793H0.863573C0.387499 41.3793 0.00146484 40.9933 0.00146484 40.5172V35.9194H50.0014V40.5172C50.0014 40.9934 49.6153 41.3793 49.1393 41.3793Z" fill="#FF4B55"/>
<path d="M25.0011 30.1725C27.8577 30.1725 30.1735 27.8568 30.1735 25.0001C30.1735 22.1434 27.8577 19.8276 25.0011 19.8276C22.1444 19.8276 19.8286 22.1434 19.8286 25.0001C19.8286 27.8568 22.1444 30.1725 25.0011 30.1725Z" fill="#F5F5F5"/>
<path d="M25.313 21.8506L25.8225 21.6468C25.8963 21.6173 25.932 21.5326 25.8993 21.4602C25.7851 21.2069 25.4789 20.6827 24.8971 20.6668C24.5286 20.6569 24.2531 20.7399 24.0977 20.804C24.0183 20.8368 23.9863 20.9313 24.0297 21.0054L24.3371 21.5306L25.313 21.8506Z" fill="#FF4B55"/>
<path d="M24.8972 20.6668C24.8548 20.6656 24.8166 20.6681 24.7767 20.6693L24.7212 21.4826L25.0171 21.6465L25.6571 21.0674C25.4887 20.8636 25.2416 20.6761 24.8972 20.6668Z" fill="#FFE15A"/>
<path d="M27.0887 26.6338L24.7852 23.9463C24.7852 23.3901 24.9861 22.9359 25.0973 22.727C25.4144 22.5854 25.6188 22.2366 25.5337 21.8518C25.4719 21.5718 25.2459 21.3434 24.9664 21.2795C24.4635 21.1646 24.0173 21.5434 24.0173 22.0266C24.0173 22.0447 24.0214 22.0618 24.0227 22.0797C23.5258 22.2108 23.4334 22.3705 23.4334 22.3705C23.4334 22.3705 23.7591 22.2839 24.0417 22.2099C24.0474 22.2329 24.055 22.2551 24.0626 22.2774L23.5053 22.4666L24.1139 22.3926C24.1814 22.5162 24.2816 22.619 24.4026 22.6901C23.9478 23.0565 23.2493 23.745 23.2493 24.5224C23.2493 25.2331 23.7758 25.7068 24.4389 26.0216C24.6707 26.1318 24.8837 26.277 25.0589 26.4645L25.0654 26.4715L25.123 27.3538C24.6475 27.3538 24.0806 27.3538 23.8252 27.3538C23.3452 27.3538 23.2134 27.6657 23.2134 28.1817L23.4413 27.8577L23.6332 28.2177L23.6572 27.8097L23.8612 28.0735C23.8612 28.0735 23.8592 27.7288 24.1192 27.6836C24.2571 27.6596 24.7352 27.6296 25.1412 27.6296L25.2272 28.9444C24.6766 28.9419 24.0533 29.2013 24.0533 29.2013C24.2452 29.1652 24.7133 29.2373 24.7133 29.2373L24.6353 29.4652C25.1751 29.1713 26.165 29.1652 26.165 29.1652C26.165 29.1652 25.9491 29.018 25.4452 28.9604L25.4568 27.6295H26.2489L26.3688 27.3176C26.3688 27.3176 25.9602 26.7753 25.9602 26.4882C26.5938 26.6085 27.0887 26.6338 27.0887 26.6338ZM25.4592 27.3537L25.4632 26.8973C25.701 27.1522 25.8891 27.3537 25.8891 27.3537C25.8891 27.3537 25.7114 27.3537 25.4592 27.3537Z" fill="#464655"/>
<path d="M27.0887 27.0178C26.8968 26.2499 26.0555 26.0139 25.169 25.482C24.2093 24.9061 24.7851 23.9463 24.7851 23.9463C24.7851 23.9463 28.0005 24.8901 28.2404 26.2498C28.4272 27.3088 27.6645 27.9775 27.2807 28.1694L27.4185 27.7854H26.7047C26.7047 27.7854 27.4605 27.1976 27.4726 26.6336L27.0887 27.0178Z" fill="#696E7D"/>
<path d="M28.241 26.2501C28.0806 25.341 26.5913 24.6185 25.621 24.2389C25.3105 24.2044 25.0376 24.7263 25.8895 25.2902C27.0355 26.0488 27.0893 27.0179 27.0893 27.0179L27.4733 26.6339C27.4613 27.1978 26.7054 27.7858 26.7054 27.7858H27.4192L27.2814 28.1698C27.6651 27.9778 28.4278 27.3091 28.241 26.2501Z" fill="#FFFCFF"/>
<path d="M28.2411 26.2499C28.1348 25.6474 27.4444 25.1276 26.7086 24.7345C26.3542 24.6286 26.0455 24.6422 26.0455 24.6422C26.2614 24.7742 26.3574 25.11 26.3574 25.11C26.2015 25.014 25.8535 25.0621 25.8535 25.0621C25.9503 25.1451 26.042 25.3142 26.1033 25.444C27.0417 26.1734 27.0894 27.0178 27.0894 27.0178L27.4733 26.6339C27.4614 27.1977 26.7055 27.7857 26.7055 27.7857H27.4193L27.2814 28.1697C27.6652 27.9776 28.4279 27.309 28.2411 26.2499Z" fill="#FF4B55"/>
<path d="M24.4736 22.0832C24.5445 22.0832 24.6019 22.0259 24.6019 21.9552C24.6019 21.8845 24.5445 21.8271 24.4736 21.8271C24.4027 21.8271 24.3452 21.8845 24.3452 21.9552C24.3452 22.0259 24.4027 22.0832 24.4736 22.0832Z" fill="#F5F5F5"/>
<path d="M24.1376 22.4429C24.1376 22.4429 23.8576 22.7708 24.0416 22.8668C24.2256 22.9628 24.4031 22.6901 24.4031 22.6901L24.1376 22.4429Z" fill="#FF4B55"/>
</g>
<defs>
<clipPath id="clip0_106_16974">
<rect width="50" height="50" fill="white"/>
</clipPath>
</defs>
</svg>
