<svg width="50" height="50" viewBox="0 0 50 50" fill="none" xmlns="http://www.w3.org/2000/svg">
<g clip-path="url(#clip0_106_16880)">
<path d="M49.1378 41.3792H0.862108C0.386034 41.3792 0 40.9932 0 40.5171V9.48271C0 9.00664 0.386034 8.62061 0.862108 8.62061H49.1379C49.614 8.62061 50 9.00664 50 9.48271V40.5171C49.9999 40.9933 49.6139 41.3792 49.1378 41.3792Z" fill="#F5F5F5"/>
<path d="M49.9999 11.1406H0V9.48271C0 9.00664 0.386034 8.62061 0.862108 8.62061H49.1379C49.614 8.62061 50 9.00664 50 9.48271L49.9999 11.1406Z" fill="#FF4B55"/>
<path d="M49.9999 18.7002H0V21.2201H49.9999V18.7002Z" fill="#FF4B55"/>
<path d="M49.9999 13.6602H0V16.1801H49.9999V13.6602Z" fill="#FF4B55"/>
<path d="M49.9999 26.2598H0.862108C0.386034 26.2598 0 25.8737 0 25.3977V23.7397H49.9999V26.2598Z" fill="#FF4B55"/>
<path d="M49.9999 33.8203H0V36.3402H49.9999V33.8203Z" fill="#FF4B55"/>
<path d="M49.1378 41.3793H0.862108C0.386034 41.3793 0 40.9933 0 40.5172V38.8594H49.9999V40.5173C49.9999 40.9934 49.6139 41.3793 49.1378 41.3793Z" fill="#FF4B55"/>
<path d="M49.9999 28.7803H0V31.3002H49.9999V28.7803Z" fill="#FF4B55"/>
<path d="M22.4137 8.62061H0.862108C0.386034 8.62061 0 9.00654 0 9.48262V25.3976C0 25.8737 0.386034 26.2597 0.862108 26.2597H22.4138C22.8899 26.2597 23.2759 25.8737 23.2759 25.3976V9.48262C23.2758 9.00654 22.8898 8.62061 22.4137 8.62061Z" fill="#41479B"/>
<path d="M2.42152 10.5995L2.61234 11.1718L3.21556 11.1764C3.29368 11.1771 3.32601 11.2767 3.26321 11.3231L2.77796 11.6815L2.95999 12.2566C2.98363 12.331 2.89876 12.3927 2.83519 12.3472L2.34447 11.9965L1.85375 12.3473C1.79017 12.3927 1.7055 12.3311 1.72894 12.2566L1.91097 11.6816L1.42572 11.3232C1.36293 11.2767 1.39525 11.1772 1.47337 11.1765L2.0766 11.1719L2.26742 10.5996C2.29203 10.5254 2.39671 10.5254 2.42152 10.5995Z" fill="#F5F5F5"/>
<path d="M2.42103 13.5931L2.61185 14.1654L3.21507 14.17C3.2932 14.1706 3.32552 14.2703 3.26273 14.3166L2.77747 14.675L2.9595 15.2501C2.98314 15.3245 2.89827 15.3863 2.8347 15.3408L2.34398 14.9901L1.85326 15.3409C1.78968 15.3863 1.70501 15.3246 1.72845 15.2502L1.91048 14.6751L1.42523 14.3167C1.36244 14.2703 1.39476 14.1707 1.47289 14.1701L2.07611 14.1655L2.26693 13.5932C2.29154 13.5191 2.39622 13.5191 2.42103 13.5931Z" fill="#F5F5F5"/>
<path d="M2.42103 16.5868L2.61185 17.159L3.21507 17.1636C3.2932 17.1643 3.32552 17.2639 3.26273 17.3103L2.77747 17.6687L2.9595 18.2438C2.98314 18.3182 2.89827 18.3799 2.8347 18.3344L2.34398 17.9837L1.85326 18.3345C1.78968 18.3799 1.70501 18.3183 1.72845 18.2439L1.91048 17.6688L1.42523 17.3104C1.36244 17.2639 1.39476 17.1644 1.47289 17.1637L2.07611 17.1591L2.26693 16.5869C2.29154 16.5127 2.39622 16.5127 2.42103 16.5868Z" fill="#F5F5F5"/>
<path d="M2.42103 19.5805L2.61185 20.1527L3.21507 20.1573C3.2932 20.158 3.32552 20.2576 3.26273 20.304L2.77747 20.6624L2.9595 21.2375C2.98314 21.3119 2.89827 21.3736 2.8347 21.3281L2.34398 20.9775L1.85326 21.3282C1.78968 21.3736 1.70501 21.312 1.72845 21.2376L1.91048 20.6625L1.42523 20.3041C1.36244 20.2576 1.39476 20.1581 1.47289 20.1574L2.07611 20.1528L2.26693 19.5806C2.29154 19.5064 2.39622 19.5064 2.42103 19.5805Z" fill="#F5F5F5"/>
<path d="M2.42103 22.5737L2.61185 23.146L3.21507 23.1506C3.2932 23.1513 3.32552 23.2509 3.26273 23.2973L2.77747 23.6556L2.9595 24.2307C2.98314 24.3052 2.89827 24.3669 2.8347 24.3214L2.34398 23.9707L1.85326 24.3215C1.78968 24.3669 1.70501 24.3053 1.72845 24.2308L1.91048 23.6557L1.42523 23.2973C1.36244 23.2509 1.39476 23.1514 1.47289 23.1507L2.07611 23.1461L2.26693 22.5738C2.29154 22.4995 2.39622 22.4995 2.42103 22.5737Z" fill="#F5F5F5"/>
<path d="M4.74427 12.0672L4.93509 12.6395L5.53831 12.6441C5.61644 12.6448 5.64876 12.7444 5.58597 12.7908L5.10072 13.1492L5.28275 13.7243C5.30638 13.7987 5.22152 13.8604 5.15794 13.8149L4.66722 13.4641L4.1765 13.8149C4.11292 13.8603 4.02826 13.7987 4.05169 13.7243L4.23373 13.1492L3.74847 12.7908C3.68568 12.7443 3.718 12.6448 3.79613 12.6441L4.39935 12.6395L4.59017 12.0672C4.61468 11.9932 4.71956 11.9932 4.74427 12.0672Z" fill="#F5F5F5"/>
<path d="M4.74427 15.061L4.93509 15.6332L5.53831 15.6378C5.61644 15.6385 5.64876 15.7381 5.58597 15.7845L5.10072 16.1429L5.28275 16.718C5.30638 16.7924 5.22152 16.8541 5.15794 16.8086L4.66722 16.4578L4.1765 16.8086C4.11292 16.854 4.02826 16.7925 4.05169 16.718L4.23373 16.1429L3.74847 15.7845C3.68568 15.738 3.718 15.6385 3.79613 15.6378L4.39935 15.6332L4.59017 15.061C4.61468 14.9868 4.71956 14.9868 4.74427 15.061Z" fill="#F5F5F5"/>
<path d="M4.74427 18.0546L4.93509 18.6269L5.53831 18.6315C5.61644 18.6322 5.64876 18.7318 5.58597 18.7781L5.10072 19.1365L5.28275 19.7116C5.30638 19.7861 5.22152 19.8478 5.15794 19.8023L4.66722 19.4515L4.1765 19.8023C4.11292 19.8477 4.02826 19.7861 4.05169 19.7116L4.23373 19.1365L3.74847 18.7781C3.68568 18.7317 3.718 18.6322 3.79613 18.6315L4.39935 18.6269L4.59017 18.0546C4.61468 17.9805 4.71956 17.9805 4.74427 18.0546Z" fill="#F5F5F5"/>
<path d="M4.74427 21.0477L4.93509 21.62L5.53831 21.6246C5.61644 21.6252 5.64876 21.7249 5.58597 21.7712L5.10072 22.1296L5.28275 22.7047C5.30638 22.7791 5.22152 22.8409 5.15794 22.7954L4.66722 22.4446L4.1765 22.7954C4.11292 22.8408 4.02826 22.7791 4.05169 22.7047L4.23373 22.1296L3.74847 21.7712C3.68568 21.7248 3.718 21.6252 3.79613 21.6246L4.39935 21.62L4.59017 21.0477C4.61468 20.9737 4.71956 20.9737 4.74427 21.0477Z" fill="#F5F5F5"/>
<path d="M7.068 10.5995L7.25882 11.1718L7.86204 11.1764C7.94017 11.1771 7.97249 11.2767 7.9097 11.3231L7.42445 11.6815L7.60648 12.2566C7.63011 12.331 7.54525 12.3927 7.48167 12.3472L6.99095 11.9964L6.50023 12.3472C6.43666 12.3926 6.35199 12.331 6.37542 12.2566L6.55746 11.6815L6.0722 11.3231C6.00941 11.2766 6.04173 11.1771 6.11986 11.1764L6.72308 11.1718L6.9139 10.5995C6.93851 10.5254 7.04329 10.5254 7.068 10.5995Z" fill="#F5F5F5"/>
<path d="M7.068 13.5931L7.25882 14.1654L7.86204 14.17C7.94017 14.1707 7.97249 14.2703 7.9097 14.3166L7.42445 14.675L7.60648 15.2501C7.63011 15.3246 7.54525 15.3863 7.48167 15.3408L6.99095 14.99L6.50023 15.3408C6.43666 15.3862 6.35199 15.3246 6.37542 15.2501L6.55746 14.675L6.0722 14.3166C6.00941 14.2702 6.04173 14.1707 6.11986 14.17L6.72308 14.1654L6.9139 13.5931C6.93851 13.5191 7.04329 13.5191 7.068 13.5931Z" fill="#F5F5F5"/>
<path d="M7.068 16.5868L7.25882 17.159L7.86204 17.1636C7.94017 17.1643 7.97249 17.2639 7.9097 17.3103L7.42445 17.6687L7.60648 18.2438C7.63011 18.3182 7.54525 18.3799 7.48167 18.3344L6.99095 17.9836L6.50023 18.3344C6.43666 18.3798 6.35199 18.3182 6.37542 18.2438L6.55746 17.6687L6.0722 17.3103C6.00941 17.2638 6.04173 17.1643 6.11986 17.1636L6.72308 17.159L6.9139 16.5868C6.93851 16.5127 7.04329 16.5127 7.068 16.5868Z" fill="#F5F5F5"/>
<path d="M7.068 19.5805L7.25882 20.1528L7.86204 20.1573C7.94017 20.158 7.97249 20.2576 7.9097 20.304L7.42445 20.6624L7.60648 21.2375C7.63011 21.3119 7.54525 21.3737 7.48167 21.3281L6.99095 20.9774L6.50023 21.3281C6.43666 21.3736 6.35199 21.3119 6.37542 21.2375L6.55746 20.6624L6.0722 20.304C6.00941 20.2575 6.04173 20.158 6.11986 20.1573L6.72308 20.1528L6.9139 19.5805C6.93851 19.5064 7.04329 19.5064 7.068 19.5805Z" fill="#F5F5F5"/>
<path d="M7.068 22.5737L7.25882 23.146L7.86204 23.1506C7.94017 23.1513 7.97249 23.2509 7.9097 23.2973L7.42445 23.6557L7.60648 24.2308C7.63011 24.3052 7.54525 24.3669 7.48167 24.3214L6.99095 23.9706L6.50023 24.3214C6.43666 24.3668 6.35199 24.3052 6.37542 24.2308L6.55746 23.6557L6.0722 23.2973C6.00941 23.2508 6.04173 23.1513 6.11986 23.1506L6.72308 23.146L6.9139 22.5737C6.93851 22.4995 7.04329 22.4995 7.068 22.5737Z" fill="#F5F5F5"/>
<path d="M9.39173 12.0672L9.58255 12.6395L10.1858 12.6441C10.2639 12.6448 10.2962 12.7444 10.2334 12.7908L9.74818 13.1492L9.93021 13.7243C9.95384 13.7987 9.86898 13.8604 9.8054 13.8149L9.31468 13.4641L8.82396 13.8149C8.76039 13.8603 8.67572 13.7987 8.69916 13.7243L8.88119 13.1492L8.39593 12.7908C8.33314 12.7443 8.36546 12.6448 8.44359 12.6441L9.04681 12.6395L9.23763 12.0672C9.26214 11.9932 9.36702 11.9932 9.39173 12.0672Z" fill="#F5F5F5"/>
<path d="M9.39173 15.061L9.58255 15.6332L10.1858 15.6378C10.2639 15.6385 10.2962 15.7381 10.2334 15.7845L9.74818 16.1429L9.93021 16.718C9.95384 16.7924 9.86898 16.8541 9.8054 16.8086L9.31468 16.4578L8.82396 16.8086C8.76039 16.854 8.67572 16.7925 8.69916 16.718L8.88119 16.1429L8.39593 15.7845C8.33314 15.738 8.36546 15.6385 8.44359 15.6378L9.04681 15.6332L9.23763 15.061C9.26214 14.9868 9.36702 14.9868 9.39173 15.061Z" fill="#F5F5F5"/>
<path d="M9.39173 18.0546L9.58255 18.6269L10.1858 18.6315C10.2639 18.6322 10.2962 18.7318 10.2334 18.7781L9.74818 19.1365L9.93021 19.7116C9.95384 19.7861 9.86898 19.8478 9.8054 19.8023L9.31468 19.4515L8.82396 19.8023C8.76039 19.8477 8.67572 19.7861 8.69916 19.7116L8.88119 19.1365L8.39593 18.7781C8.33314 18.7317 8.36546 18.6322 8.44359 18.6315L9.04681 18.6269L9.23763 18.0546C9.26214 17.9805 9.36702 17.9805 9.39173 18.0546Z" fill="#F5F5F5"/>
<path d="M9.39173 21.0477L9.58255 21.62L10.1858 21.6246C10.2639 21.6252 10.2962 21.7249 10.2334 21.7712L9.74818 22.1296L9.93021 22.7047C9.95384 22.7791 9.86898 22.8409 9.8054 22.7954L9.31468 22.4446L8.82396 22.7954C8.76039 22.8408 8.67572 22.7791 8.69916 22.7047L8.88119 22.1296L8.39593 21.7712C8.33314 21.7248 8.36546 21.6252 8.44359 21.6246L9.04681 21.62L9.23763 21.0477C9.26214 20.9737 9.36702 20.9737 9.39173 21.0477Z" fill="#F5F5F5"/>
<path d="M11.7151 10.5995L11.9059 11.1718L12.5091 11.1764C12.5872 11.1771 12.6196 11.2767 12.5568 11.3231L12.0715 11.6815L12.2535 12.2566C12.2772 12.331 12.1923 12.3927 12.1287 12.3472L11.6379 11.9964L11.1472 12.3472C11.0836 12.3926 10.999 12.331 11.0224 12.2566L11.2044 11.6815L10.7192 11.3231C10.6564 11.2766 10.6887 11.1771 10.7668 11.1764L11.3701 11.1718L11.5609 10.5995C11.5856 10.5254 11.6904 10.5254 11.7151 10.5995Z" fill="#F5F5F5"/>
<path d="M11.7151 13.5931L11.9059 14.1654L12.5091 14.17C12.5872 14.1707 12.6196 14.2703 12.5568 14.3166L12.0715 14.675L12.2535 15.2501C12.2772 15.3246 12.1923 15.3863 12.1287 15.3408L11.6379 14.99L11.1472 15.3408C11.0836 15.3862 10.999 15.3246 11.0224 15.2501L11.2044 14.675L10.7192 14.3166C10.6564 14.2702 10.6887 14.1707 10.7668 14.17L11.3701 14.1654L11.5609 13.5931C11.5856 13.5191 11.6904 13.5191 11.7151 13.5931Z" fill="#F5F5F5"/>
<path d="M11.7151 16.5868L11.9059 17.159L12.5091 17.1636C12.5872 17.1643 12.6196 17.2639 12.5568 17.3103L12.0715 17.6687L12.2535 18.2438C12.2772 18.3182 12.1923 18.3799 12.1287 18.3344L11.6379 17.9836L11.1472 18.3344C11.0836 18.3798 10.999 18.3182 11.0224 18.2438L11.2044 17.6687L10.7192 17.3103C10.6564 17.2638 10.6887 17.1643 10.7668 17.1636L11.3701 17.159L11.5609 16.5868C11.5856 16.5127 11.6904 16.5127 11.7151 16.5868Z" fill="#F5F5F5"/>
<path d="M11.7151 19.5805L11.9059 20.1528L12.5091 20.1573C12.5872 20.158 12.6196 20.2576 12.5568 20.304L12.0715 20.6624L12.2535 21.2375C12.2772 21.3119 12.1923 21.3737 12.1287 21.3281L11.6379 20.9774L11.1472 21.3281C11.0836 21.3736 10.999 21.3119 11.0224 21.2375L11.2044 20.6624L10.7192 20.304C10.6564 20.2575 10.6887 20.158 10.7668 20.1573L11.3701 20.1528L11.5609 19.5805C11.5856 19.5064 11.6904 19.5064 11.7151 19.5805Z" fill="#F5F5F5"/>
<path d="M11.7151 22.5737L11.9059 23.146L12.5091 23.1506C12.5872 23.1513 12.6196 23.2509 12.5568 23.2973L12.0715 23.6557L12.2535 24.2308C12.2772 24.3052 12.1923 24.3669 12.1287 24.3214L11.6379 23.9706L11.1472 24.3214C11.0836 24.3668 10.999 24.3052 11.0224 24.2308L11.2044 23.6557L10.7192 23.2973C10.6564 23.2508 10.6887 23.1513 10.7668 23.1506L11.3701 23.146L11.5609 22.5737C11.5856 22.4995 11.6904 22.4995 11.7151 22.5737Z" fill="#F5F5F5"/>
<path d="M14.0387 12.0672L14.2295 12.6395L14.8327 12.6441C14.9109 12.6448 14.9432 12.7444 14.8804 12.7908L14.3952 13.1492L14.5772 13.7243C14.6008 13.7987 14.516 13.8604 14.4524 13.8149L13.9617 13.4641L13.4709 13.8149C13.4074 13.8603 13.3227 13.7987 13.3461 13.7243L13.5282 13.1492L13.0429 12.7908C12.9801 12.7443 13.0124 12.6448 13.0906 12.6441L13.6938 12.6395L13.8846 12.0672C13.9093 11.9932 14.014 11.9932 14.0387 12.0672Z" fill="#F5F5F5"/>
<path d="M14.0387 15.061L14.2295 15.6332L14.8327 15.6378C14.9109 15.6385 14.9432 15.7381 14.8804 15.7845L14.3952 16.1429L14.5772 16.718C14.6008 16.7924 14.516 16.8541 14.4524 16.8086L13.9617 16.4578L13.4709 16.8086C13.4074 16.854 13.3227 16.7925 13.3461 16.718L13.5282 16.1429L13.0429 15.7845C12.9801 15.738 13.0124 15.6385 13.0906 15.6378L13.6938 15.6332L13.8846 15.061C13.9093 14.9868 14.014 14.9868 14.0387 15.061Z" fill="#F5F5F5"/>
<path d="M14.0387 18.0546L14.2295 18.6269L14.8327 18.6315C14.9109 18.6322 14.9432 18.7318 14.8804 18.7781L14.3952 19.1365L14.5772 19.7116C14.6008 19.7861 14.516 19.8478 14.4524 19.8023L13.9617 19.4515L13.4709 19.8023C13.4074 19.8477 13.3227 19.7861 13.3461 19.7116L13.5282 19.1365L13.0429 18.7781C12.9801 18.7317 13.0124 18.6322 13.0906 18.6315L13.6938 18.6269L13.8846 18.0546C13.9093 17.9805 14.014 17.9805 14.0387 18.0546Z" fill="#F5F5F5"/>
<path d="M14.0387 21.0477L14.2295 21.62L14.8327 21.6246C14.9109 21.6252 14.9432 21.7249 14.8804 21.7712L14.3952 22.1296L14.5772 22.7047C14.6008 22.7791 14.516 22.8409 14.4524 22.7954L13.9617 22.4446L13.4709 22.7954C13.4074 22.8408 13.3227 22.7791 13.3461 22.7047L13.5282 22.1296L13.0429 21.7712C12.9801 21.7248 13.0124 21.6252 13.0906 21.6246L13.6938 21.62L13.8846 21.0477C13.9093 20.9737 14.014 20.9737 14.0387 21.0477Z" fill="#F5F5F5"/>
<path d="M16.3624 10.5995L16.5533 11.1718L17.1565 11.1764C17.2346 11.1771 17.2669 11.2767 17.2041 11.3231L16.7189 11.6815L16.9009 12.2566C16.9245 12.331 16.8397 12.3927 16.7761 12.3472L16.2854 11.9964L15.7947 12.3472C15.7311 12.3926 15.6464 12.331 15.6699 12.2566L15.8519 11.6815L15.3666 11.3231C15.3038 11.2766 15.3362 11.1771 15.4143 11.1764L16.0175 11.1718L16.2083 10.5995C16.2328 10.5254 16.3377 10.5254 16.3624 10.5995Z" fill="#F5F5F5"/>
<path d="M16.3624 13.5931L16.5533 14.1654L17.1565 14.17C17.2346 14.1707 17.2669 14.2703 17.2041 14.3166L16.7189 14.675L16.9009 15.2501C16.9245 15.3246 16.8397 15.3863 16.7761 15.3408L16.2854 14.99L15.7947 15.3408C15.7311 15.3862 15.6464 15.3246 15.6699 15.2501L15.8519 14.675L15.3666 14.3166C15.3038 14.2702 15.3362 14.1707 15.4143 14.17L16.0175 14.1654L16.2083 13.5931C16.2328 13.5191 16.3377 13.5191 16.3624 13.5931Z" fill="#F5F5F5"/>
<path d="M16.3624 16.5868L16.5533 17.159L17.1565 17.1636C17.2346 17.1643 17.2669 17.2639 17.2041 17.3103L16.7189 17.6687L16.9009 18.2438C16.9245 18.3182 16.8397 18.3799 16.7761 18.3344L16.2854 17.9836L15.7947 18.3344C15.7311 18.3798 15.6464 18.3182 15.6699 18.2438L15.8519 17.6687L15.3666 17.3103C15.3038 17.2638 15.3362 17.1643 15.4143 17.1636L16.0175 17.159L16.2083 16.5868C16.2328 16.5127 16.3377 16.5127 16.3624 16.5868Z" fill="#F5F5F5"/>
<path d="M16.3624 19.5805L16.5533 20.1528L17.1565 20.1573C17.2346 20.158 17.2669 20.2576 17.2041 20.304L16.7189 20.6624L16.9009 21.2375C16.9245 21.3119 16.8397 21.3737 16.7761 21.3281L16.2854 20.9774L15.7947 21.3281C15.7311 21.3736 15.6464 21.3119 15.6699 21.2375L15.8519 20.6624L15.3666 20.304C15.3038 20.2575 15.3362 20.158 15.4143 20.1573L16.0175 20.1528L16.2083 19.5805C16.2328 19.5064 16.3377 19.5064 16.3624 19.5805Z" fill="#F5F5F5"/>
<path d="M16.3624 22.5737L16.5533 23.146L17.1565 23.1506C17.2346 23.1513 17.2669 23.2509 17.2041 23.2973L16.7189 23.6557L16.9009 24.2308C16.9245 24.3052 16.8397 24.3669 16.7761 24.3214L16.2854 23.9706L15.7947 24.3214C15.7311 24.3668 15.6464 24.3052 15.6699 24.2308L15.8519 23.6557L15.3666 23.2973C15.3038 23.2508 15.3362 23.1513 15.4143 23.1506L16.0175 23.146L16.2083 22.5737C16.2328 22.4995 16.3377 22.4995 16.3624 22.5737Z" fill="#F5F5F5"/>
<path d="M18.6862 12.0672L18.877 12.6395L19.4802 12.6441C19.5583 12.6448 19.5907 12.7444 19.5279 12.7908L19.0426 13.1492L19.2246 13.7243C19.2483 13.7987 19.1634 13.8604 19.0998 13.8149L18.6091 13.4641L18.1184 13.8149C18.0548 13.8603 17.9702 13.7987 17.9936 13.7243L18.1756 13.1492L17.6904 12.7908C17.6276 12.7443 17.6599 12.6448 17.738 12.6441L18.3412 12.6395L18.5321 12.0672C18.5567 11.9932 18.6616 11.9932 18.6862 12.0672Z" fill="#F5F5F5"/>
<path d="M18.6862 15.061L18.877 15.6332L19.4802 15.6378C19.5583 15.6385 19.5907 15.7381 19.5279 15.7845L19.0426 16.1429L19.2246 16.718C19.2483 16.7924 19.1634 16.8541 19.0998 16.8086L18.6091 16.4578L18.1184 16.8086C18.0548 16.854 17.9702 16.7925 17.9936 16.718L18.1756 16.1429L17.6904 15.7845C17.6276 15.738 17.6599 15.6385 17.738 15.6378L18.3412 15.6332L18.5321 15.061C18.5567 14.9868 18.6616 14.9868 18.6862 15.061Z" fill="#F5F5F5"/>
<path d="M18.6862 18.0546L18.877 18.6269L19.4802 18.6315C19.5583 18.6322 19.5907 18.7318 19.5279 18.7781L19.0426 19.1365L19.2246 19.7116C19.2483 19.7861 19.1634 19.8478 19.0998 19.8023L18.6091 19.4515L18.1184 19.8023C18.0548 19.8477 17.9702 19.7861 17.9936 19.7116L18.1756 19.1365L17.6904 18.7781C17.6276 18.7317 17.6599 18.6322 17.738 18.6315L18.3412 18.6269L18.5321 18.0546C18.5567 17.9805 18.6616 17.9805 18.6862 18.0546Z" fill="#F5F5F5"/>
<path d="M18.6862 21.0477L18.877 21.62L19.4802 21.6246C19.5583 21.6252 19.5907 21.7249 19.5279 21.7712L19.0426 22.1296L19.2246 22.7047C19.2483 22.7791 19.1634 22.8409 19.0998 22.7954L18.6091 22.4446L18.1184 22.7954C18.0548 22.8408 17.9702 22.7791 17.9936 22.7047L18.1756 22.1296L17.6904 21.7712C17.6276 21.7248 17.6599 21.6252 17.738 21.6246L18.3412 21.62L18.5321 21.0477C18.5567 20.9737 18.6616 20.9737 18.6862 21.0477Z" fill="#F5F5F5"/>
<path d="M21.0094 10.5995L21.2002 11.1718L21.8034 11.1764C21.8816 11.1771 21.9139 11.2767 21.8511 11.3231L21.3659 11.6815L21.5479 12.2566C21.5715 12.331 21.4867 12.3927 21.4231 12.3472L20.9324 11.9964L20.4416 12.3472C20.3781 12.3926 20.2934 12.331 20.3168 12.2566L20.4989 11.6815L20.0136 11.3231C19.9508 11.2766 19.9831 11.1771 20.0613 11.1764L20.6645 11.1718L20.8553 10.5995C20.8799 10.5254 20.9846 10.5254 21.0094 10.5995Z" fill="#F5F5F5"/>
<path d="M21.0094 13.5931L21.2002 14.1654L21.8034 14.17C21.8816 14.1707 21.9139 14.2703 21.8511 14.3166L21.3659 14.675L21.5479 15.2501C21.5715 15.3246 21.4867 15.3863 21.4231 15.3408L20.9324 14.99L20.4416 15.3408C20.3781 15.3862 20.2934 15.3246 20.3168 15.2501L20.4989 14.675L20.0136 14.3166C19.9508 14.2702 19.9831 14.1707 20.0613 14.17L20.6645 14.1654L20.8553 13.5931C20.8799 13.5191 20.9846 13.5191 21.0094 13.5931Z" fill="#F5F5F5"/>
<path d="M21.0094 16.5868L21.2002 17.159L21.8034 17.1636C21.8816 17.1643 21.9139 17.2639 21.8511 17.3103L21.3659 17.6687L21.5479 18.2438C21.5715 18.3182 21.4867 18.3799 21.4231 18.3344L20.9324 17.9836L20.4416 18.3344C20.3781 18.3798 20.2934 18.3182 20.3168 18.2438L20.4989 17.6687L20.0136 17.3103C19.9508 17.2638 19.9831 17.1643 20.0613 17.1636L20.6645 17.159L20.8553 16.5868C20.8799 16.5127 20.9846 16.5127 21.0094 16.5868Z" fill="#F5F5F5"/>
<path d="M21.0094 19.5805L21.2002 20.1528L21.8034 20.1573C21.8816 20.158 21.9139 20.2576 21.8511 20.304L21.3659 20.6624L21.5479 21.2375C21.5715 21.3119 21.4867 21.3737 21.4231 21.3281L20.9324 20.9774L20.4416 21.3281C20.3781 21.3736 20.2934 21.3119 20.3168 21.2375L20.4989 20.6624L20.0136 20.304C19.9508 20.2575 19.9831 20.158 20.0613 20.1573L20.6645 20.1528L20.8553 19.5805C20.8799 19.5064 20.9846 19.5064 21.0094 19.5805Z" fill="#F5F5F5"/>
<path d="M21.0094 22.5737L21.2002 23.146L21.8034 23.1506C21.8816 23.1513 21.9139 23.2509 21.8511 23.2973L21.3659 23.6557L21.5479 24.2308C21.5715 24.3052 21.4867 24.3669 21.4231 24.3214L20.9324 23.9706L20.4416 24.3214C20.3781 24.3668 20.2934 24.3052 20.3168 24.2308L20.4989 23.6557L20.0136 23.2973C19.9508 23.2508 19.9831 23.1513 20.0613 23.1506L20.6645 23.146L20.8553 22.5737C20.8799 22.4995 20.9846 22.4995 21.0094 22.5737Z" fill="#F5F5F5"/>
</g>
<defs>
<clipPath id="clip0_106_16880">
<rect width="50" height="50" fill="white"/>
</clipPath>
</defs>
</svg>
