<svg width="50" height="50" viewBox="0 0 50 50" fill="none" xmlns="http://www.w3.org/2000/svg">
<g clip-path="url(#clip0_106_16933)">
<path d="M49.1393 8.62061H0.863573C0.387499 8.62061 0.00146484 9.00654 0.00146484 9.48262V40.517C0.00146484 40.9931 0.387499 41.3791 0.863573 41.3791H49.1394C49.6154 41.3791 50.0015 40.9931 50.0015 40.517V9.48262C50.0014 9.00654 49.6153 8.62061 49.1393 8.62061Z" fill="#82AFFF"/>
<path d="M24.9293 31.4113C29.3142 31.4113 32.8815 27.8437 32.8815 23.4591C32.8815 19.0744 29.3141 15.5068 24.9293 15.5068C20.5444 15.5068 16.9771 19.0744 16.9771 23.4591C16.9771 27.8437 20.5443 31.4113 24.9293 31.4113ZM25.8365 16.3386L26.52 16.0867C27.4846 16.2947 28.3814 16.6856 29.1709 17.2245C29.103 17.2177 28.9236 17.1993 28.8927 17.189C28.8544 17.1763 28.7952 17.4325 28.7952 17.4325L29.1089 17.5573L29.1944 17.2423C29.5202 17.4664 29.8244 17.7185 30.1106 17.9897L29.6495 18.4509H29.568L29.5017 18.1906L29.2495 17.7372L28.3585 17.416L27.7422 17.7143L28.0919 18.4714C27.2302 17.923 26.2191 17.5936 25.1332 17.5564V16.5012L25.7611 16.6994L25.5001 16.2393L25.1332 16.3963V15.9251C25.4057 15.9324 25.674 15.9547 25.9386 15.9904L25.6302 16.0933L25.8365 16.3386ZM29.9631 22.1592L30.1132 22.0956L30.151 21.7262C30.3118 22.2098 30.4047 22.7228 30.4242 23.2551H29.0412L29.0922 23.0342L29.483 23.0002L29.8065 22.4493L29.7973 22.346L29.466 22.7708L29.2637 22.8205L29.1346 22.6688L29.2864 22.4109L28.9562 22.1675L28.6596 22.4275C28.5798 22.1392 28.471 21.8631 28.3303 21.6058L28.4911 21.5474L28.6201 21.4704L28.619 21.3186L28.7017 21.2158L28.6539 21.1864C28.6185 21.2032 28.4341 21.2568 28.4341 21.2568L28.3701 21.4644L28.2783 21.5203C28.143 21.2874 27.9839 21.0707 27.8047 20.8718L28.5673 20.1092L28.5738 20.1199L28.7595 20.0083L28.7307 19.9455L28.9574 19.7188C29.4684 20.2688 29.8675 20.9219 30.1208 21.6445L29.9309 21.3624L29.8331 21.3989L29.9631 22.1592ZM28.9577 27.1991L28.5452 26.7866L28.3895 26.3739L28.3095 26.5509L28.1499 26.3913L28.3135 25.8898L28.2075 25.526L28.2 25.5269C28.3121 25.3503 28.4132 25.1661 28.4958 24.9717L28.4977 24.9715C28.5233 24.9715 28.6167 24.8525 28.6167 24.8525L28.8461 24.8781L29.439 24.6437L29.2113 24.4278L29.0772 24.3081L28.9733 24.0966L28.7875 23.773C28.7904 23.7367 28.7912 23.6999 28.793 23.6633H30.4243C30.374 25.0267 29.8275 26.2629 28.9577 27.1991ZM21.0423 26.9382L21.2465 26.5813L20.8069 25.0451L20.4603 24.1897L20.7747 24.0537L20.8597 23.7988L21.072 23.7927C21.1461 24.6559 21.5053 25.4371 22.0538 26.0461L21.1532 26.9467L21.0423 26.9382ZM21.5329 23.1723L21.5285 23.2553H21.4731C21.475 23.2239 21.4753 23.1921 21.4779 23.1609L21.5329 23.1723ZM26.7681 26.3923L26.6983 26.3544L25.8088 26.6983L25.3477 26.5209L25.1332 26.5802V26.287L25.3552 26.22L25.4897 26.2524L25.773 26.3633L25.6022 26.051L25.9682 26.3578L26.1438 26.3978L26.0904 26.1637L26.2095 25.7769L26.6242 25.5239L26.6602 25.7568L26.1543 26.0318L26.2514 26.2255L26.7775 26.1192L26.7858 26.3817C26.78 26.3851 26.7738 26.3885 26.7681 26.3923ZM24.6716 24.8603L24.6557 24.8263L24.5602 24.8318C24.4374 24.7986 24.3219 24.7499 24.2144 24.6871L24.5694 24.644L24.7254 24.2255V24.8657C24.7076 24.8633 24.689 24.8636 24.6716 24.8603ZM23.1808 23.9872L22.8341 23.9338L23.0109 23.663H23.1147C23.1272 23.7747 23.1491 23.8824 23.1808 23.9872ZM25.1331 22.5763L25.2287 22.6053L25.3489 22.7511L25.1331 22.9669V22.5763ZM25.7763 25.1681L25.6107 25.3619L25.3349 25.4991L25.2424 25.337L25.1867 25.6593L25.1333 25.6802V25.2736C25.1719 25.2693 25.2115 25.2685 25.2495 25.2619L25.3815 25.4274L25.4911 25.291L25.4826 25.1998C25.5434 25.1804 25.6056 25.1642 25.6636 25.1388L25.7763 25.1681ZM25.6521 23.0246L25.6477 23.2452L25.6397 23.2553H25.4214L25.6521 23.0246ZM25.7831 23.7841L26.0471 23.7757L26.191 23.8956L26.143 23.982L25.9416 23.8668L25.8312 23.9531L25.8866 24.1185L25.8844 24.1258L25.4216 23.663H25.7299L25.7831 23.7841ZM25.6085 24.4266L25.3563 24.3995L25.1782 24.8612C25.1636 24.8638 25.148 24.8637 25.1333 24.8657V23.9513L25.6085 24.4266ZM24.2993 23.2552L24.2816 23.1808L24.1046 23.2552H24.0263L24.0521 23.1476L24.1665 23.0369L24.0758 23.0163L23.9814 23.1504L23.8834 23.1953L23.8949 23.2554H23.792L23.8539 23.0144L24.0351 22.8537L24.4369 23.2555H24.2993V23.2552ZM23.5428 23.6631L23.5846 23.7123L23.6128 23.6631H23.7586L23.5689 23.8682C23.5488 23.8014 23.5328 23.7336 23.5226 23.6631H23.5428ZM23.7684 24.2838L24.032 23.8285L23.9631 23.7669L24.0793 23.7069L24.0938 23.663H24.2794L24.2368 23.6858L24.2191 23.747L24.3628 23.7372L24.2558 23.8441L24.1472 23.8671L24.1246 23.9755L23.79 24.3099C23.7832 24.3008 23.7751 24.293 23.7684 24.2838ZM24.7254 22.0949L24.6492 22.0832L24.7082 22.3278L24.7255 22.3413V22.9669L24.3828 22.6242L24.6233 22.4942L24.406 22.1343C24.5072 22.0942 24.6145 22.0684 24.7255 22.0523L24.7254 22.0949ZM21.5068 23.6631L21.5027 23.7406L21.4856 23.8441C21.4791 23.7845 21.4768 23.7235 21.4732 23.663L21.5068 23.6631ZM21.7063 24.1472L21.9601 24.4022L22.1682 24.2573L22.6584 24.6686L23.1857 24.7614L23.3332 24.3466C23.3829 24.4354 23.4388 24.5192 23.502 24.5983L23.049 25.0513L23.1219 24.8657L22.8521 24.8219L22.9386 25.1386L22.9514 25.1492L22.3423 25.7582C21.9454 25.312 21.6591 24.7655 21.5343 24.1592L21.7063 24.1472ZM23.7901 24.8865C24.0534 25.0971 24.3731 25.2341 24.7254 25.2736V25.7452L24.7208 25.7563L24.7254 25.7549V26.1076L24.6066 26.1314L24.5378 26.5741L24.7254 26.5523V26.6928L24.4283 26.7748L24.3294 26.8702C23.6839 26.7568 23.1007 26.465 22.6304 26.0466L23.7901 24.8865ZM27.2298 26.5689L27.529 26.6324L27.8233 26.6415L27.9851 26.8033L27.4907 26.7853L27.1722 26.6121C27.1918 26.598 27.2105 26.5833 27.2298 26.5689ZM27.5165 25.758L27.4272 25.6687L27.6089 25.6549C27.5797 25.6905 27.5472 25.7234 27.5165 25.758ZM27.9842 21.8239C27.8454 21.8259 27.7109 21.8278 27.6989 21.8278C27.6733 21.8278 27.4735 21.9986 27.4735 21.9986L27.3208 22.1964L27.2748 21.9551L27.383 21.7086L27.2996 21.6322L26.9258 21.8701L26.8465 21.8301L27.1385 21.5381L27.2027 21.5593L27.3888 21.5155L27.2942 21.3824L27.5164 21.1601C27.6964 21.3625 27.8551 21.5838 27.9842 21.8239ZM26.8906 21.2095L26.8727 21.1523L26.7516 21.1714L26.6764 21.317L26.3439 21.3497C26.3682 21.3984 26.4718 21.6006 26.4811 21.6187L26.0685 22.0313C25.9808 21.9612 25.8872 21.8999 25.7874 21.8466L25.8385 21.8191L25.7778 21.6142L25.7365 21.5387L25.5525 21.7399C25.4192 21.6914 25.2789 21.6606 25.1334 21.6442V20.0028C25.9354 20.0498 26.6637 20.3692 27.2284 20.8717L26.8906 21.2095ZM24.7254 21.6445C24.5937 21.6594 24.467 21.6868 24.3452 21.728L24.4062 21.5863L24.0882 21.8363L24.0888 21.8373C23.9824 21.8927 23.8831 21.9573 23.7901 22.0317L22.6304 20.872C23.1951 20.3695 23.9233 20.0501 24.7254 20.0031V21.6445ZM23.4363 22.2546L22.8881 22.3505L22.9072 22.1422L22.4528 21.9853L21.7261 22.1373C21.8757 21.7763 22.0861 21.4478 22.3419 21.1601L23.4363 22.2546ZM21.6765 22.2728L21.9047 22.3206L21.6311 22.3963C21.6446 22.3543 21.6613 22.314 21.6765 22.2728ZM21.0653 23.2552H21.03L21.0671 23.2209C21.0664 23.2323 21.066 23.2437 21.0653 23.2552ZM21.5002 27.1764L22.3421 26.3346C22.8016 26.7484 23.359 27.053 23.9765 27.2099L23.6865 27.4893L24.3106 28.314L24.7254 28.337V28.9544C23.6362 28.9143 22.6272 28.56 21.7879 27.9743L21.9226 27.8868L21.5002 27.1764ZM25.1331 28.3593L25.659 28.3883L25.6723 28.5089L25.9923 28.8594C25.7132 28.9143 25.4255 28.9435 25.1331 28.9543V28.3593ZM28.4736 27.2916L28.6694 27.4874C28.5758 27.5743 28.4816 27.6605 28.3821 27.7411L28.4736 27.2916ZM28.6693 19.4308L28.5499 19.5502L28.4083 19.2408L28.1509 19.1039C28.1509 19.1039 27.9111 18.8924 27.7863 18.7621C28.1033 18.9557 28.3987 19.1793 28.6693 19.4308ZM27.7308 18.7282L27.911 19.3586L28.3319 19.725L28.3483 19.7518L27.5164 20.5837C26.8771 20.0078 26.0474 19.6432 25.1331 19.5953V17.9641C26.0797 17.9989 26.9641 18.2726 27.7308 18.7282ZM24.7254 19.5953C23.811 19.6433 22.9814 20.0079 22.3421 20.5837L21.1892 19.4308C22.1255 18.5608 23.3617 18.0143 24.7254 17.9641V19.5953ZM22.0537 20.872C21.6168 21.3571 21.2999 21.951 21.1517 22.6097L20.7934 23.2552H19.4341C19.4844 21.8915 20.0309 20.6553 20.9007 19.719L22.0537 20.872ZM20.5969 23.6631L20.2096 24.4955L19.6617 24.2917L19.5589 24.6563C19.4872 24.3348 19.4467 24.0026 19.4342 23.6629H20.5968L20.5969 23.6631ZM20.1886 27.7921L20.2518 27.8481L19.4598 28.6402C18.9129 28.0632 18.4584 27.4004 18.1143 26.6737L18.3249 26.7968L19.7299 28.0469L20.1886 27.7921ZM20.5574 28.119L20.7492 28.289L21.3713 28.1709C22.3116 28.8827 23.4681 29.3188 24.7254 29.3621V30.9933C22.7996 30.9415 21.0545 30.1671 19.7479 28.9287L20.5574 28.119ZM25.1331 29.362C25.4787 29.3502 25.8181 29.3141 26.1462 29.2451L26.1842 29.4964L27.156 30.2131L28.2504 29.6059L28.5645 28.9436L28.5439 28.5339L28.7506 28.0491L28.7002 28.0096C28.7895 27.9355 28.8728 27.8548 28.9575 27.7757L29.1456 27.9635L29.2028 28.3187L29.4163 28.2342L30.1107 28.9286C28.8042 30.167 27.059 30.9414 25.1333 30.9932V29.362H25.1331ZM29.5136 27.7551L29.4747 27.2908L29.4224 27.2931C30.2641 26.3082 30.7847 25.0456 30.8322 23.663H32.4634C32.4116 25.5887 31.6372 27.3337 30.399 28.6402L29.5136 27.7551ZM30.8321 23.2552C30.7968 22.2262 30.4984 21.2651 30.0006 20.4337L30.6939 21.0822L31.2503 20.6044L30.3964 19.3172L29.8328 18.8839L29.8343 18.8424L30.3988 18.2778C31.6371 19.5844 32.4114 21.3295 32.4633 23.2551H30.8321V23.2552ZM24.7254 17.5562C23.2493 17.6069 21.9114 18.199 20.901 19.1426L19.7479 17.9896C21.0545 16.7513 22.7997 15.9769 24.7254 15.925V17.5562ZM20.6126 19.4309C19.6691 20.4414 19.0771 21.7792 19.0264 23.2552H17.3951C17.447 21.3295 18.2214 19.5845 19.4596 18.2779L20.6126 19.4309ZM19.0264 23.6631C19.0472 24.2693 19.1587 24.8517 19.3495 25.3987L19.288 25.6172L17.6942 25.5821C17.5145 24.9708 17.4131 24.3275 17.3952 23.6632L19.0264 23.6631Z" fill="#F5F5F5"/>
<path d="M19.4352 32.9065L20.9075 32.6682C21.0391 32.6469 21.0937 32.4879 21.0025 32.3906C20.6484 32.0123 19.9446 31.2287 19.5371 30.5617C18.9764 29.6441 17.9891 28.8877 17.9891 28.8877C17.9891 28.8877 18.1778 31.4113 20.0809 32.2779C20.0809 32.2779 18.1947 31.8021 16.9883 31.4793C15.7818 31.1564 15.4517 30.8012 15.4517 30.8012C15.4517 30.8012 16.3937 33.2124 19.4352 32.9065Z" fill="#F5F5F5"/>
<path d="M17.9743 30.0859C17.9233 29.4571 17.4638 27.8497 16.5976 26.521C16.5976 26.521 16.5986 29.7503 17.7452 30.8441C17.7452 30.8441 16.1222 29.2872 15.1536 28.5735C14.2468 27.9055 13.8452 27.1462 13.8452 27.1462C13.8452 27.1462 14.0889 29.1868 15.4085 30.2047C16.3006 30.8929 18.2802 31.3771 18.2802 31.3771C18.2802 31.3771 18.0253 30.7145 17.9743 30.0859Z" fill="#F5F5F5"/>
<path d="M14.8648 27.6726L15.8564 28.5303C15.9599 28.6197 16.121 28.5491 16.1231 28.4124C16.1285 28.0675 16.1496 27.5439 16.2242 27.2139C16.3432 26.6871 16.4902 24.9767 15.8899 23.7334C15.8899 23.7334 15.1643 25.9615 15.7314 27.8171C15.7314 27.8171 14.8406 26.4006 13.9303 25.3277C13.4545 24.767 13.2661 24.1059 13.2661 24.1059C13.2661 24.1059 13.2506 26.3304 14.8648 27.6726Z" fill="#F5F5F5"/>
<path d="M14.5924 25.4781C14.6701 25.5829 14.8314 25.5607 14.8758 25.4382C15.0062 25.0785 15.2591 24.4317 15.5951 23.8159C16.2069 22.6944 15.9246 21.3745 15.9246 21.3745C15.9246 21.3745 14.9426 23.0578 14.6579 24.9284C14.6394 24.845 14.6191 24.7559 14.5947 24.654C14.3252 23.521 13.2769 20.6948 13.2769 20.6948C13.2769 20.6948 12.9081 22.2469 13.369 23.4761C13.6058 24.1068 14.2675 25.0396 14.5924 25.4781Z" fill="#F5F5F5"/>
<path d="M14.3905 22.9964C14.4201 23.1092 14.578 23.112 14.6116 23.0003C14.7055 22.6888 14.9006 22.2594 15.3066 21.8443C16.0713 21.0628 16.6511 19.9776 16.9473 19.0079C16.9473 19.0079 15.3159 20.3169 14.8014 21.1995C14.8014 21.1995 14.8523 19.9857 14.6778 19.1086C14.5291 18.3609 14.8451 17.6406 14.8451 17.6406C14.8451 17.6406 13.8113 18.6329 13.9641 20.451C14.0604 21.595 14.2576 22.4899 14.3905 22.9964Z" fill="#F5F5F5"/>
<path d="M15.4236 19.88C15.7331 19.5963 16.275 19.113 16.7976 18.8198C17.4914 18.4306 18.0402 17.1749 18.1612 16.8955C18.1612 16.8955 16.2279 18.4776 15.7016 18.9854C15.7016 18.9854 16.0203 17.5709 16.2242 16.9592C16.4281 16.3475 16.4026 16.1436 16.581 15.8887C16.581 15.8887 15.6507 16.7043 15.3957 17.3542C15.1863 17.8884 15.2264 19.1025 15.1979 19.7728C15.1926 19.8943 15.334 19.962 15.4236 19.88Z" fill="#F5F5F5"/>
<path d="M17.3792 17.0359C17.9229 16.5941 18.7895 15.3027 18.7895 15.3027C18.5749 15.4254 17.702 15.7275 16.9715 16.4752C16.2408 17.2228 16.0879 18.2423 16.0879 18.2423C16.0879 18.2423 16.8354 17.4777 17.3792 17.0359Z" fill="#F5F5F5"/>
<path d="M29.7263 33.2802C28.1291 32.9659 26.7613 32.7365 25.1579 33.1536C25.079 33.1741 25.0052 33.1977 24.9292 33.2201C24.8531 33.1978 24.7794 33.1742 24.7005 33.1536C23.0972 32.7366 21.7293 32.9659 20.132 33.2802C18.6924 33.5635 17.314 33.3184 17.314 33.3184C17.314 33.3184 18.314 34.3338 20.5909 34.3338C21.5843 34.3338 22.8326 33.4977 23.6203 33.4532C23.8142 33.4421 24.0058 33.454 24.1956 33.4751C22.5042 34.1651 21.7234 35.2115 21.7081 35.2317C21.6402 35.3213 21.6577 35.4492 21.7474 35.5168C21.7842 35.5451 21.8274 35.5586 21.8704 35.5586C21.9319 35.5586 21.9929 35.5307 22.0329 35.4782C22.0951 35.3964 23.3445 34.1039 24.9292 33.6263C26.5138 34.1039 27.7634 35.3963 27.8255 35.4782C27.8654 35.5308 27.9264 35.5586 27.988 35.5586C28.0309 35.5586 28.0742 35.5451 28.111 35.5168C28.2007 35.4492 28.2181 35.3212 28.1503 35.2317C28.1349 35.2115 27.3542 34.1651 25.6628 33.4751C25.8525 33.4541 26.0441 33.4422 26.2381 33.4532C27.0258 33.4977 28.2742 34.3338 29.2675 34.3338C31.5444 34.3338 32.5444 33.3184 32.5444 33.3184C32.5444 33.3184 31.166 33.5635 29.7263 33.2802Z" fill="#F5F5F5"/>
<path d="M29.7773 32.2779C31.6804 31.4113 31.8691 28.8877 31.8691 28.8877C31.8691 28.8877 30.8817 29.6441 30.321 30.5617C29.9135 31.2286 29.2096 32.0123 28.8556 32.3906C28.7646 32.4879 28.8191 32.6469 28.9506 32.6682L30.4229 32.9065C33.4645 33.2124 34.4064 30.8011 34.4064 30.8011C34.4064 30.8011 34.0761 31.1564 32.8698 31.4792C31.6633 31.802 29.7773 32.2779 29.7773 32.2779Z" fill="#F5F5F5"/>
<path d="M34.7052 28.5735C33.7366 29.2872 32.1136 30.8441 32.1136 30.8441C33.2603 29.7503 33.2612 26.521 33.2612 26.521C32.395 27.8498 31.9354 29.4572 31.8845 30.0859C31.8335 30.7146 31.5786 31.3773 31.5786 31.3773C31.5786 31.3773 33.5581 30.8931 34.4503 30.2049C35.7699 29.1869 36.0136 27.1464 36.0136 27.1464C36.0136 27.1464 35.612 27.9053 34.7052 28.5735Z" fill="#F5F5F5"/>
<path d="M34.127 27.8176C34.6941 25.962 33.9685 23.7339 33.9685 23.7339C33.3682 24.9772 33.5153 26.6877 33.6342 27.2144C33.7088 27.5444 33.7299 28.0679 33.7353 28.4129C33.7375 28.5496 33.8986 28.6202 34.002 28.5308L34.9936 27.6731C36.6079 26.3308 36.5923 24.1064 36.5923 24.1064C36.5923 24.1064 36.404 24.7676 35.9282 25.3283C35.0178 26.401 34.127 27.8176 34.127 27.8176Z" fill="#F5F5F5"/>
<path d="M35.2003 24.9285C34.9156 23.0579 33.9336 21.3746 33.9336 21.3746C33.9336 21.3746 33.6515 22.6945 34.2631 23.816C34.5989 24.4318 34.852 25.0786 34.9824 25.4383C35.0269 25.5609 35.1881 25.583 35.2658 25.4782C35.5908 25.0397 36.2525 24.107 36.4891 23.4761C36.9499 22.2469 36.5812 20.6948 36.5812 20.6948C36.5812 20.6948 35.5328 23.521 35.2633 24.654C35.2391 24.756 35.2189 24.845 35.2003 24.9285Z" fill="#F5F5F5"/>
<path d="M35.1807 19.1091C35.0062 19.9862 35.057 21.2 35.057 21.2C34.5426 20.3174 32.9111 19.0084 32.9111 19.0084C33.2074 19.9781 33.7872 21.0632 34.5519 21.8448C34.9579 22.2598 35.153 22.6892 35.2469 23.0008C35.2805 23.1124 35.4384 23.1096 35.468 22.9969C35.601 22.4904 35.798 21.5954 35.8942 20.4515C36.0472 18.6333 35.0133 17.6411 35.0133 17.6411C35.0133 17.6411 35.3294 18.3615 35.1807 19.1091Z" fill="#F5F5F5"/>
<path d="M34.1568 18.9858C33.6306 18.4779 31.6973 16.8959 31.6973 16.8959C31.8184 17.1753 32.367 18.431 33.0608 18.8202C33.5834 19.1133 34.1254 19.5966 34.4349 19.8804C34.5243 19.9624 34.6658 19.8947 34.6606 19.7733C34.6321 19.1031 34.6723 17.8889 34.4628 17.3547C34.2079 16.7048 33.2775 15.8892 33.2775 15.8892C33.456 16.144 33.4305 16.3479 33.6344 16.9597C33.8382 17.5713 34.1568 18.9858 34.1568 18.9858Z" fill="#F5F5F5"/>
<path d="M32.4791 17.0359C33.0228 17.4777 33.7705 18.2423 33.7705 18.2423C33.7705 18.2423 33.6176 17.2228 32.8869 16.4752C32.1563 15.7275 31.2835 15.4254 31.0688 15.3027C31.0688 15.3027 31.9353 16.5941 32.4791 17.0359Z" fill="#F5F5F5"/>
<path d="M29.1474 21.2388L28.8008 21.467L29.1705 21.5248L29.5745 21.9716L29.8008 21.8259L29.5294 21.2709L29.1474 21.2388Z" fill="#F5F5F5"/>
<path d="M29.6943 23.1422L29.8227 23.1913L30.1477 22.3184L30.0584 22.1973L29.9182 22.2674L29.6952 23.0575L29.6943 23.1422Z" fill="#F5F5F5"/>
<path d="M26.4338 21.662L26.3315 21.5537L26.1016 21.8468L26.1587 21.9354L26.4338 21.662Z" fill="#F5F5F5"/>
<path d="M28.7817 20.9802L28.8439 20.7808L28.6382 20.8224L28.58 20.8388L28.519 20.9202L28.7414 21.1774L28.8315 21.101L28.7817 20.9802Z" fill="#F5F5F5"/>
<path d="M24.6621 25.6509L24.6653 25.5269L24.5088 25.7529L24.5535 25.8292L24.6621 25.6509Z" fill="#F5F5F5"/>
</g>
<defs>
<clipPath id="clip0_106_16933">
<rect width="50" height="50" fill="white"/>
</clipPath>
</defs>
</svg>
