<svg width="50" height="50" viewBox="0 0 50 50" fill="none" xmlns="http://www.w3.org/2000/svg">
<g clip-path="url(#clip0_106_16957)">
<path d="M49.1382 41.3792H0.862594C0.386522 41.3792 0.000488281 40.9931 0.000488281 40.5171V9.48271C0.000488281 9.00664 0.386522 8.62061 0.862594 8.62061H49.1383C49.6144 8.62061 50.0004 9.00664 50.0004 9.48271V40.5171C50.0003 40.9931 49.6143 41.3792 49.1382 41.3792Z" fill="#41479B"/>
<path d="M50.0003 9.48271C50.0003 9.00664 49.6143 8.62061 49.1382 8.62061H45.2813L29.3106 19.0841V8.62061H20.69V19.0841L4.71941 8.62061H0.862594C0.386522 8.62061 0.000488281 9.00664 0.000488281 9.48271V11.7123L13.7025 20.6895H0.000488281V29.3102H13.7025L0.000488281 38.2875V40.5171C0.000488281 40.9931 0.386522 41.3792 0.862594 41.3792H4.71951L20.6902 30.9156V41.3792H29.3108V30.9156L45.2815 41.3792H49.1384C49.6145 41.3792 50.0005 40.9931 50.0005 40.5171V38.2875L36.2985 29.3103H50.0003V20.6896H36.2983L50.0003 11.7123V9.48271Z" fill="#F5F5F5"/>
<path d="M50.0003 22.4137H27.5866V8.62061H22.4142V22.4137H0.000488281V27.5861H22.4142V41.3792H27.5866V27.5861H50.0003V22.4137Z" fill="#FF4B55"/>
<path d="M17.4763 29.3101L0.0253906 40.6378C0.0864255 41.0542 0.429686 41.3791 0.862985 41.3791H2.05038L20.6431 29.3102H17.4763V29.3101Z" fill="#FF4B55"/>
<path d="M33.8279 29.3101H30.6611L49.2268 41.3612C49.6595 41.3151 50.001 40.9618 50.001 40.5168V39.8081L33.8279 29.3101Z" fill="#FF4B55"/>
<path d="M0.000976562 10.4343L15.7996 20.6895H18.9664L0.503221 8.70459C0.2083 8.8416 0.000976562 9.13603 0.000976562 9.48261V10.4343Z" fill="#FF4B55"/>
<path d="M32.4783 20.6895L49.9711 9.33437C49.8985 8.93183 49.5625 8.62061 49.139 8.62061H47.9039L29.3115 20.6895H32.4783Z" fill="#FF4B55"/>
</g>
<defs>
<clipPath id="clip0_106_16957">
<rect width="50" height="50" fill="white"/>
</clipPath>
</defs>
</svg>
