<svg width="50" height="50" viewBox="0 0 50 50" fill="none" xmlns="http://www.w3.org/2000/svg">
<g clip-path="url(#clip0_106_16814)">
<path d="M49.9999 19.5402H0V9.48271C0 9.00664 0.386034 8.62061 0.862108 8.62061H49.1379C49.614 8.62061 50 9.00664 50 9.48271L49.9999 19.5402Z" fill="#82AFFF"/>
<path d="M49.1378 41.3795H0.862108C0.386034 41.3795 0 40.9934 0 40.5174V30.46H49.9999V40.5174C49.9999 40.9935 49.6139 41.3795 49.1378 41.3795Z" fill="#73AF00"/>
<path d="M49.9999 19.54H0V30.459H49.9999V19.54Z" fill="#F5F5F5"/>
<path d="M49.9999 18.5703H0V19.9318H49.9999V18.5703Z" fill="#FF4B55"/>
<path d="M49.9999 30.0674H0V31.4289H49.9999V30.0674Z" fill="#FF4B55"/>
<path d="M11.0829 16.804C9.31808 16.804 7.88752 15.3769 7.88752 13.6184C7.88752 11.8534 9.31798 10.4198 11.0829 10.4198C11.0898 10.4198 11.0964 10.4198 11.103 10.4199C11.2069 10.4213 11.2434 10.2833 11.1518 10.2342C10.6083 9.94287 9.9881 9.77803 9.32873 9.78282C7.21701 9.79786 5.50168 11.5478 5.52414 13.6595C5.54621 15.7494 7.2548 17.4411 9.35636 17.4411C10.0067 17.4411 10.6182 17.2766 11.1549 16.9892C11.2462 16.9403 11.2093 16.8023 11.1058 16.8038C11.098 16.804 11.0904 16.804 11.0829 16.804Z" fill="#F5F5F5"/>
<path d="M13.5848 15.9229L13.4422 16.3508L12.9911 16.3542C12.9327 16.3546 12.9085 16.4292 12.9554 16.4639L13.3183 16.7319L13.1822 17.1619C13.1646 17.2176 13.228 17.2637 13.2756 17.2297L13.6426 16.9674L14.0095 17.2297C14.0571 17.2637 14.1204 17.2176 14.1029 17.1619L13.9668 16.7319L14.3296 16.4639C14.3765 16.4292 14.3523 16.3546 14.2939 16.3542L13.8428 16.3508L13.7002 15.9229C13.6817 15.8675 13.6034 15.8675 13.5848 15.9229Z" fill="#F5F5F5"/>
<path d="M16.7626 15.9229L16.6199 16.3508L16.1688 16.3542C16.1104 16.3546 16.0862 16.4292 16.1332 16.4639L16.496 16.7319L16.3598 17.1619C16.3423 17.2176 16.4056 17.2637 16.4532 17.2297L16.8202 16.9674L17.1872 17.2297C17.2347 17.2637 17.298 17.2176 17.2805 17.1619L17.1444 16.7319L17.5072 16.4639C17.5542 16.4292 17.53 16.3546 17.4716 16.3542L17.0205 16.3508L16.8778 15.9229C16.8594 15.8675 16.7809 15.8675 16.7626 15.9229Z" fill="#F5F5F5"/>
<path d="M19.9403 15.9229L19.7976 16.3508L19.3466 16.3542C19.2882 16.3546 19.2639 16.4292 19.3109 16.4639L19.6738 16.7319L19.5377 17.1619C19.5201 17.2176 19.5835 17.2637 19.631 17.2297L19.998 16.9674L20.365 17.2297C20.4126 17.2637 20.4759 17.2176 20.4584 17.1619L20.3222 16.7319L20.685 16.4639C20.732 16.4292 20.7078 16.3546 20.6494 16.3542L20.1983 16.3508L20.0556 15.9229C20.0372 15.8675 19.9588 15.8675 19.9403 15.9229Z" fill="#F5F5F5"/>
<path d="M23.118 15.9229L22.9754 16.3508L22.5243 16.3542C22.4659 16.3546 22.4417 16.4292 22.4886 16.4639L22.8514 16.7319L22.7153 17.1619C22.6977 17.2176 22.7611 17.2637 22.8087 17.2297L23.1757 16.9674L23.5426 17.2297C23.5902 17.2637 23.6535 17.2176 23.636 17.1619L23.4999 16.7319L23.8627 16.4639C23.9096 16.4292 23.8854 16.3546 23.827 16.3542L23.376 16.3508L23.2333 15.9229C23.2149 15.8675 23.1365 15.8675 23.118 15.9229Z" fill="#F5F5F5"/>
<path d="M26.2963 15.9229L26.1536 16.3508L25.7025 16.3542C25.6441 16.3546 25.6199 16.4292 25.6669 16.4639L26.0298 16.7319L25.8936 17.1619C25.876 17.2176 25.9394 17.2637 25.987 17.2297L26.354 16.9674L26.721 17.2297C26.7685 17.2637 26.8318 17.2176 26.8143 17.1619L26.6782 16.7319L27.0411 16.4639C27.0881 16.4292 27.0638 16.3546 27.0054 16.3542L26.5544 16.3508L26.4117 15.9229C26.393 15.8675 26.3147 15.8675 26.2963 15.9229Z" fill="#F5F5F5"/>
<path d="M16.7626 12.9572L16.6199 13.3851L16.1688 13.3885C16.1104 13.3889 16.0862 13.4635 16.1332 13.4982L16.496 13.7662L16.3598 14.1963C16.3423 14.2519 16.4056 14.298 16.4532 14.264L16.8202 14.0017L17.1872 14.264C17.2347 14.298 17.298 14.2519 17.2805 14.1963L17.1444 13.7662L17.5072 13.4982C17.5542 13.4635 17.53 13.3889 17.4716 13.3885L17.0205 13.3851L16.8778 12.9572C16.8594 12.9016 16.7809 12.9016 16.7626 12.9572Z" fill="#F5F5F5"/>
<path d="M19.9403 12.9572L19.7976 13.3851L19.3466 13.3885C19.2882 13.3889 19.2639 13.4635 19.3109 13.4982L19.6738 13.7662L19.5377 14.1963C19.5201 14.2519 19.5835 14.298 19.631 14.264L19.998 14.0017L20.365 14.264C20.4126 14.298 20.4759 14.2519 20.4584 14.1963L20.3222 13.7662L20.685 13.4982C20.732 13.4635 20.7078 13.3889 20.6494 13.3885L20.1983 13.3851L20.0556 12.9572C20.0372 12.9016 19.9588 12.9016 19.9403 12.9572Z" fill="#F5F5F5"/>
<path d="M23.118 12.9572L22.9754 13.3851L22.5243 13.3885C22.4659 13.3889 22.4417 13.4635 22.4886 13.4982L22.8514 13.7662L22.7153 14.1963C22.6977 14.2519 22.7611 14.298 22.8087 14.264L23.1757 14.0017L23.5426 14.264C23.5902 14.298 23.6535 14.2519 23.636 14.1963L23.4999 13.7662L23.8627 13.4982C23.9096 13.4635 23.8854 13.3889 23.827 13.3885L23.376 13.3851L23.2333 12.9572C23.2149 12.9016 23.1365 12.9016 23.118 12.9572Z" fill="#F5F5F5"/>
<path d="M26.2963 12.9572L26.1536 13.3851L25.7025 13.3885C25.6441 13.3889 25.6199 13.4635 25.6669 13.4982L26.0298 13.7662L25.8936 14.1963C25.876 14.2519 25.9394 14.298 25.987 14.264L26.354 14.0017L26.721 14.264C26.7685 14.298 26.8318 14.2519 26.8143 14.1963L26.6782 13.7662L27.0411 13.4982C27.0881 13.4635 27.0638 13.3889 27.0054 13.3885L26.5544 13.3851L26.4117 12.9572C26.393 12.9016 26.3147 12.9016 26.2963 12.9572Z" fill="#F5F5F5"/>
<path d="M19.9403 15.9229L19.7976 16.3508L19.3466 16.3542C19.2882 16.3546 19.2639 16.4292 19.3109 16.4639L19.6738 16.7319L19.5377 17.1619C19.5201 17.2176 19.5835 17.2637 19.631 17.2297L19.998 16.9674L20.365 17.2297C20.4126 17.2637 20.4759 17.2176 20.4584 17.1619L20.3222 16.7319L20.685 16.4639C20.732 16.4292 20.7078 16.3546 20.6494 16.3542L20.1983 16.3508L20.0556 15.9229C20.0372 15.8675 19.9588 15.8675 19.9403 15.9229Z" fill="#F5F5F5"/>
<path d="M19.9403 9.99075L19.7976 10.4187L19.3466 10.4221C19.2882 10.4225 19.2639 10.4971 19.3109 10.5318L19.6738 10.7997L19.5377 11.2298C19.5201 11.2855 19.5835 11.3316 19.631 11.2976L19.998 11.0353L20.365 11.2976C20.4126 11.3316 20.4759 11.2855 20.4584 11.2298L20.3222 10.7997L20.685 10.5318C20.732 10.4971 20.7078 10.4225 20.6494 10.4221L20.1983 10.4187L20.0556 9.99075C20.0372 9.93538 19.9588 9.93538 19.9403 9.99075Z" fill="#F5F5F5"/>
<path d="M23.118 15.9229L22.9754 16.3508L22.5243 16.3542C22.4659 16.3546 22.4417 16.4292 22.4886 16.4639L22.8514 16.7319L22.7153 17.1619C22.6977 17.2176 22.7611 17.2637 22.8087 17.2297L23.1757 16.9674L23.5426 17.2297C23.5902 17.2637 23.6535 17.2176 23.636 17.1619L23.4999 16.7319L23.8627 16.4639C23.9096 16.4292 23.8854 16.3546 23.827 16.3542L23.376 16.3508L23.2333 15.9229C23.2149 15.8675 23.1365 15.8675 23.118 15.9229Z" fill="#F5F5F5"/>
<path d="M26.2963 15.9229L26.1536 16.3508L25.7025 16.3542C25.6441 16.3546 25.6199 16.4292 25.6669 16.4639L26.0298 16.7319L25.8936 17.1619C25.876 17.2176 25.9394 17.2637 25.987 17.2297L26.354 16.9674L26.721 17.2297C26.7685 17.2637 26.8318 17.2176 26.8143 17.1619L26.6782 16.7319L27.0411 16.4639C27.0881 16.4292 27.0638 16.3546 27.0054 16.3542L26.5544 16.3508L26.4117 15.9229C26.393 15.8675 26.3147 15.8675 26.2963 15.9229Z" fill="#F5F5F5"/>
<path d="M23.118 9.99075L22.9754 10.4187L22.5243 10.4221C22.4659 10.4225 22.4417 10.4971 22.4886 10.5318L22.8514 10.7997L22.7153 11.2298C22.6977 11.2855 22.7611 11.3316 22.8087 11.2976L23.1757 11.0353L23.5426 11.2976C23.5902 11.3316 23.6535 11.2855 23.636 11.2298L23.4999 10.7997L23.8627 10.5318C23.9096 10.4971 23.8854 10.4225 23.827 10.4221L23.376 10.4187L23.2333 9.99075C23.2149 9.93538 23.1365 9.93538 23.118 9.99075Z" fill="#F5F5F5"/>
<path d="M26.2963 9.99075L26.1536 10.4187L25.7025 10.4221C25.6441 10.4225 25.6199 10.4971 25.6669 10.5318L26.0298 10.7997L25.8936 11.2298C25.876 11.2855 25.9394 11.3316 25.987 11.2976L26.354 11.0353L26.721 11.2976C26.7685 11.3316 26.8318 11.2855 26.8143 11.2298L26.6782 10.7997L27.0411 10.5318C27.0881 10.4971 27.0638 10.4225 27.0054 10.4221L26.5544 10.4187L26.4117 9.99075C26.393 9.93538 26.3147 9.93538 26.2963 9.99075Z" fill="#F5F5F5"/>
</g>
<defs>
<clipPath id="clip0_106_16814">
<rect width="50" height="50" fill="white"/>
</clipPath>
</defs>
</svg>
