<svg width="50" height="50" viewBox="0 0 50 50" fill="none" xmlns="http://www.w3.org/2000/svg">
<g clip-path="url(#clip0_106_16806)">
<path d="M49.1371 41.3791H0.861375C0.385302 41.3791 -0.000732422 40.9931 -0.000732422 40.517V9.48271C-0.000732422 9.00664 0.385302 8.62061 0.861375 8.62061H49.1372C49.6132 8.62061 49.9993 9.00664 49.9993 9.48271V40.517C49.9992 40.9932 49.6131 41.3791 49.1371 41.3791Z" fill="#464655"/>
<path d="M49.9992 24.1379H24.359L-0.000732422 10.6978V12.6674L22.3524 25L-0.000732422 37.3326V39.3023L24.359 25.8621H49.9992V24.1379Z" fill="#FFE15A"/>
<path d="M0.344238 41.1892C0.489843 41.3014 0.663574 41.3795 0.861522 41.3795H49.1373C49.6134 41.3795 49.9994 40.9934 49.9994 40.5174V27.5864H24.9993L0.344238 41.1892Z" fill="#73AF00"/>
<path d="M49.1372 8.62061H0.861522C0.663574 8.62061 0.489746 8.69873 0.344238 8.81094L24.9993 22.4136H49.9991V9.48271C49.9993 9.00664 49.6133 8.62061 49.1372 8.62061Z" fill="#FF4B55"/>
<path d="M7.46551 20.1647C5.00409 19.3903 3.14579 21.1789 2.72108 22.0994C2.36142 22.8794 1.69325 26.4126 5.02391 26.976C8.35437 27.5394 8.31687 24.3967 8.31687 24.3967C8.16668 24.8976 7.89734 26.3249 5.49325 26.3249C4.59149 26.3249 3.29589 24.9852 3.54003 23.5077C3.76981 22.1175 5.0117 21.4064 5.95037 21.3667C6.83924 21.3292 8.9115 21.9427 8.9115 24.4657C8.9115 27.3016 5.98866 27.621 5.98866 27.621V29.3334C8.53289 29.084 9.97273 27.6746 10.3538 25.4171C10.7335 23.1697 9.96824 20.9521 7.46551 20.1647Z" fill="#FFE15A"/>
<path d="M4.7407 24.37C4.6826 24.4437 4.65174 24.5354 4.65018 24.6292L4.64295 25.0898L4.5533 25.2461C4.52098 25.3026 4.54012 25.3746 4.59637 25.4075C4.6533 25.4408 4.72635 25.4212 4.75906 25.3639L4.85096 25.2032L5.21873 25.07C5.33015 25.0296 5.41971 24.9458 5.46814 24.8377C5.56424 24.6232 5.77058 24.2292 6.10496 23.8182C6.43933 24.2292 6.64568 24.6232 6.74177 24.8377C6.79011 24.9458 6.87966 25.0295 6.99109 25.07L7.35896 25.2032L7.45085 25.3639C7.48347 25.4212 7.55671 25.4408 7.61355 25.4075C7.6698 25.3746 7.68894 25.3026 7.65661 25.2461L7.56697 25.0898L7.55974 24.6292C7.55828 24.5354 7.52732 24.4437 7.46921 24.37C7.16111 23.9787 6.83337 23.6709 6.51043 23.3988C6.76853 23.1562 7.06033 22.9247 7.42781 22.7458C7.51286 22.7044 7.5573 22.609 7.53533 22.517C7.50535 22.3914 7.36804 22.3255 7.25105 22.3802C7.00476 22.495 6.58123 22.721 6.10486 23.0684C5.6284 22.7211 5.20496 22.4952 4.95867 22.3802C4.84168 22.3257 4.70438 22.3916 4.67439 22.517C4.65252 22.609 4.69695 22.7044 4.78182 22.7458C5.14939 22.9247 5.44119 23.1563 5.69929 23.3988C5.37654 23.6709 5.04881 23.9788 4.7407 24.37Z" fill="#FFE15A"/>
</g>
<defs>
<clipPath id="clip0_106_16806">
<rect width="50" height="50" fill="white"/>
</clipPath>
</defs>
</svg>
