<svg width="50" height="50" viewBox="0 0 50 50" fill="none" xmlns="http://www.w3.org/2000/svg">
<g clip-path="url(#clip0_106_16752)">
<path d="M49.1381 8.62061H25.0002V41.3792H49.1381C49.6142 41.3792 50.0002 40.9932 50.0002 40.5171V9.48262C50.0002 9.00654 49.6142 8.62061 49.1381 8.62061Z" fill="#F5F5F5"/>
<path d="M0.862598 41.3792H25.0005V8.62061H0.862598C0.386523 8.62061 0.000488281 9.00654 0.000488281 9.48262V40.5171C0.000488281 40.9933 0.386523 41.3792 0.862598 41.3792Z" fill="#FFE15A"/>
<path d="M39.8702 17.0657L39.8127 17.1803C39.9983 17.275 40.1043 17.3828 40.1043 17.4977L40.0754 16.9282C40.0369 17.0047 39.9612 17.0596 39.8702 17.0657Z" fill="#EBEBEB"/>
<path d="M35.3954 17.1803L35.338 17.0657C35.2471 17.0595 35.1715 17.0047 35.1325 16.9282L35.1038 17.4977C35.1038 17.383 35.2099 17.275 35.3954 17.1803Z" fill="#EBEBEB"/>
<path d="M35.354 16.5688C35.492 16.5688 35.604 16.6808 35.604 16.8188C35.604 16.8688 35.5855 16.9128 35.5602 16.9519L35.626 17.0834C35.8147 17.0171 36.0471 16.9607 36.3123 16.9171L36.2841 16.8046C36.1808 16.7739 36.104 16.6819 36.104 16.5687C36.104 16.4307 36.2159 16.3187 36.354 16.3187C36.492 16.3187 36.604 16.4307 36.604 16.5687C36.604 16.6393 36.5744 16.7022 36.5275 16.7478L36.5609 16.8813C36.7002 16.8638 36.8462 16.85 36.9978 16.8396C36.9865 16.7927 36.979 16.7441 36.979 16.6938C36.979 16.3486 37.2588 16.0688 37.604 16.0688C37.9491 16.0688 38.229 16.3486 38.229 16.6938C38.229 16.7443 38.2214 16.7927 38.2101 16.8396C38.3619 16.8499 38.5079 16.8638 38.647 16.8813L38.6804 16.7478C38.6335 16.7022 38.604 16.6393 38.604 16.5687C38.604 16.4307 38.7159 16.3187 38.854 16.3187C38.992 16.3187 39.104 16.4307 39.104 16.5687C39.104 16.682 39.0271 16.7739 38.9238 16.8046L38.8957 16.9171C39.1607 16.9606 39.3932 17.017 39.5819 17.0834L39.6477 16.9519C39.6224 16.9127 39.604 16.8688 39.604 16.8188C39.604 16.6808 39.7159 16.5688 39.854 16.5688C39.9439 16.5688 40.0193 16.6189 40.0632 16.6903L40.0441 16.3091C39.7972 16.0288 38.7994 15.8188 37.604 15.8188C36.4085 15.8188 35.4108 16.0286 35.1639 16.3091L35.1448 16.6903C35.1887 16.6189 35.264 16.5688 35.354 16.5688Z" fill="#EBEBEB"/>
<path d="M37.9941 13.6279C38.0618 13.5426 38.1038 13.4361 38.1038 13.3188C38.1038 13.0861 37.9441 12.8924 37.7288 12.8365V12.5305C37.8021 12.4869 37.8538 12.4104 37.8538 12.3188C37.8538 12.1808 37.7418 12.0688 37.6038 12.0688C37.4657 12.0688 37.3538 12.1808 37.3538 12.3188C37.3538 12.4104 37.4054 12.4869 37.4788 12.5305V12.8365C37.2634 12.8922 37.1038 13.0861 37.1038 13.3188C37.1038 13.4362 37.1459 13.5427 37.2134 13.6279C37.3406 13.5932 37.4701 13.5688 37.6038 13.5688C37.7374 13.5688 37.8668 13.5931 37.9941 13.6279Z" fill="#E6B432"/>
<path d="M36.5562 14.8935L36.5341 14.8047C36.4308 14.774 36.3539 14.682 36.3539 14.5688C36.3539 14.4308 36.4658 14.3188 36.6039 14.3188C36.742 14.3188 36.8539 14.4308 36.8539 14.5688C36.8539 14.6394 36.8243 14.7023 36.7774 14.7479L36.8057 14.8605C37.0503 14.8338 37.32 14.8188 37.6039 14.8188C37.3968 14.8188 37.2289 14.651 37.2289 14.4438C37.2289 14.2367 37.3968 14.0688 37.6039 14.0688C37.811 14.0688 37.9789 14.2367 37.9789 14.4438C37.9789 14.651 37.811 14.8188 37.6039 14.8188C37.8879 14.8188 38.1576 14.8338 38.4021 14.8605L38.4304 14.7479C38.3835 14.7023 38.3539 14.6394 38.3539 14.5688C38.3539 14.4308 38.4658 14.3188 38.6039 14.3188C38.742 14.3188 38.8539 14.4308 38.8539 14.5688C38.8539 14.6821 38.7771 14.774 38.6737 14.8047L38.6516 14.8935C38.7786 14.9131 38.8968 14.9358 39.0028 14.9618L39.1871 14.5933C38.8683 14.0992 38.4562 13.7545 37.9941 13.6279C37.867 13.5932 37.7375 13.5688 37.6038 13.5688C37.4702 13.5688 37.3407 13.5931 37.2135 13.6279C36.7513 13.7544 36.3394 14.0991 36.0205 14.5933L36.2048 14.9618C36.3109 14.9358 36.4292 14.9131 36.5562 14.8935Z" fill="#EBEBEB"/>
<path d="M37.3542 35.3647V34.8188C37.3542 34.7604 37.3625 34.7041 37.3751 34.6495C37.3685 34.6452 37.3612 34.6422 37.3542 34.6382C37.2804 34.5953 37.1958 34.5688 37.1042 34.5688C37.0127 34.5688 36.9281 34.5952 36.8542 34.6382C36.7054 34.7248 36.6042 34.8842 36.6042 35.0688C36.6042 35.2033 36.6581 35.3249 36.7443 35.4147C36.8515 35.3555 36.9731 35.3189 37.1041 35.3189C37.1924 35.3189 37.2757 35.3368 37.3542 35.3647Z" fill="#E6B432"/>
<path d="M37.8542 33.3882C37.7054 33.4748 37.6042 33.6342 37.6042 33.8188C37.6042 33.9533 37.6581 34.0749 37.7443 34.1646C37.8515 34.1055 37.9731 34.0688 38.1042 34.0688C38.2354 34.0688 38.3568 34.1055 38.4642 34.1646C38.5505 34.0748 38.6042 33.9533 38.6042 33.8188C38.6042 33.6343 38.5031 33.4748 38.3542 33.3882C38.2804 33.3453 38.1958 33.3188 38.1042 33.3188C38.0127 33.3188 37.9281 33.3453 37.8542 33.3882Z" fill="#E6B432"/>
<path d="M37.7438 34.1645C37.5602 34.2658 37.4232 34.4396 37.3747 34.6495C37.3621 34.7041 37.3538 34.7604 37.3538 34.8188V35.3647C37.2752 35.3368 37.1919 35.3188 37.1038 35.3188C36.9726 35.3188 36.851 35.3555 36.7438 35.4146C36.5124 35.5424 36.3538 35.7857 36.3538 36.0688V37.0688H37.8538V36.0688C37.8538 35.9807 37.8358 35.8974 37.8079 35.8188H38.8538V34.8188C38.8538 34.5358 38.6952 34.2924 38.4637 34.1646C38.3565 34.1055 38.2349 34.0688 38.1038 34.0688C37.9726 34.0688 37.851 34.1054 37.7438 34.1645Z" fill="#FF4B57"/>
<path d="M37.8543 24.1107L38.2814 24.538L38.4275 24.3919C38.4622 24.3572 38.5054 24.3394 38.55 24.3293L40.6644 22.2145L42.0187 23.5687L42.9024 22.685L42.5489 22.3314L42.3721 22.5082L42.0186 22.1547L42.1953 21.9779L42.0186 21.8011L42.3721 21.4476L42.5489 21.6243L42.7257 21.4476L43.0792 21.8011L42.9024 21.9779L43.256 22.3314L44.1397 21.4477L42.7852 20.0931L43.7121 19.1658C43.6674 19.1475 43.6254 19.1204 43.5891 19.0842L43.0891 18.5842C43.0518 18.5469 43.0245 18.5036 43.0062 18.4575L37.7979 23.6672C37.8312 23.7097 37.8542 23.7607 37.8542 23.8189L37.8543 24.1107Z" fill="#E6B432"/>
<path d="M37.2809 25.5987L36.5738 24.8916L34.3758 27.0902C34.1807 27.2856 34.1807 27.6021 34.3759 27.7973C34.4736 27.8949 34.6015 27.9438 34.7294 27.9438C34.8574 27.9438 34.9855 27.8949 35.0831 27.7973L36.8011 26.0788L37.2809 25.5987Z" fill="#E6B432"/>
<path d="M30.4561 28.1937C30.4699 28.1545 30.479 28.1129 30.479 28.0688C30.479 27.8617 30.3111 27.6938 30.104 27.6938C29.8969 27.6938 29.729 27.8617 29.729 28.0688C29.729 28.276 29.8969 28.4438 30.104 28.4438C30.148 28.4438 30.1896 28.4349 30.2289 28.4209C30.2998 28.3404 30.3756 28.2646 30.4561 28.1937Z" fill="#D2D2D2"/>
<path d="M30.2291 31.7168C30.1899 31.7029 30.1483 31.6938 30.1042 31.6938C29.8971 31.6938 29.7292 31.8617 29.7292 32.0688C29.7292 32.276 29.8971 32.4438 30.1042 32.4438C30.3114 32.4438 30.4792 32.276 30.4792 32.0688C30.4792 32.0249 30.4703 31.9832 30.4563 31.9439C30.3758 31.8731 30.3 31.7973 30.2291 31.7168Z" fill="#D2D2D2"/>
<path d="M33.9793 28.4209C34.0186 28.4348 34.0602 28.4438 34.1042 28.4438C34.3114 28.4438 34.4792 28.276 34.4792 28.0688C34.4792 27.8617 34.3114 27.6938 34.1042 27.6938C33.8971 27.6938 33.7292 27.8617 33.7292 28.0688C33.7292 28.1129 33.7382 28.1545 33.7522 28.1937C33.8328 28.2646 33.9084 28.3404 33.9793 28.4209Z" fill="#D2D2D2"/>
<path d="M33.7292 32.0688C33.7292 32.276 33.8971 32.4439 34.1042 32.4439C34.2198 32.4439 34.3217 32.3905 34.3906 32.3084C34.1555 32.2233 33.936 32.1286 33.7336 32.0249C33.732 32.0396 33.7292 32.0538 33.7292 32.0688Z" fill="#D2D2D2"/>
<path d="M33.2068 31.7071C33.1541 31.6689 33.1226 31.6137 33.1104 31.5547C33.0679 31.5639 33.0241 31.5692 32.9789 31.5692C32.682 31.5692 32.4338 31.3607 32.3705 31.0826C32.3025 31.1515 32.2082 31.1942 32.1039 31.1942C31.9995 31.1942 31.9051 31.1515 31.8373 31.0826C31.774 31.3607 31.5258 31.5692 31.2289 31.5692C30.8842 31.5692 30.6039 31.289 30.6039 30.9442C30.6039 30.6473 30.8125 30.3992 31.0905 30.3358C31.0216 30.2679 30.9789 30.1735 30.9789 30.0692C30.9789 29.9648 31.0216 29.8705 31.0905 29.8026C30.8125 29.7394 30.6039 29.4913 30.6039 29.1942C30.6039 28.8495 30.8842 28.5692 31.2289 28.5692C31.5257 28.5692 31.7739 28.7777 31.8373 29.0559C31.9052 28.987 31.9996 28.9442 32.1039 28.9442C32.2083 28.9442 32.3026 28.987 32.3705 29.0559C32.4337 28.7777 32.6819 28.5692 32.9789 28.5692C33.3235 28.5692 33.6039 28.8495 33.6039 29.1942C33.6039 29.4912 33.3953 29.7393 33.1172 29.8026C33.1861 29.8706 33.2289 29.9649 33.2289 30.0692C33.2289 30.1736 33.1861 30.268 33.1172 30.3358C33.3953 30.3991 33.6039 30.6473 33.6039 30.9442C33.6039 31.0761 33.5624 31.198 33.4924 31.299C33.4948 31.3007 33.4976 31.3008 33.4999 31.3024C33.6617 31.4195 33.8481 31.5284 34.0551 31.6279C34.1174 31.5501 34.1741 31.4679 34.2268 31.3829C34.3915 31.1176 34.508 30.8201 34.5638 30.5014C34.5885 30.3607 34.6038 30.217 34.6038 30.0693C34.6038 29.4379 34.3665 28.8619 33.9789 28.4214C33.908 28.3409 33.8322 28.265 33.7517 28.1942C33.3112 27.8066 32.7353 27.5693 32.1038 27.5693C31.4722 27.5693 30.8963 27.8066 30.4558 28.1942C30.3753 28.2651 30.2995 28.3409 30.2287 28.4214C29.8411 28.8619 29.6038 29.4378 29.6038 30.0693C29.6038 30.7009 29.8411 31.2768 30.2287 31.7173C30.2996 31.7977 30.3753 31.8736 30.4558 31.9444C30.8963 32.332 31.4722 32.5693 32.1038 32.5693C32.7045 32.5693 33.2561 32.3561 33.6877 32.0017C33.5138 31.9098 33.3516 31.812 33.2068 31.7071ZM34.0366 29.5635C34.0791 29.7253 34.104 29.8942 34.104 30.0691C34.104 30.244 34.0791 30.413 34.0366 30.5748C33.966 30.3734 33.8408 30.1999 33.6773 30.0691C33.8408 29.9384 33.966 29.7648 34.0366 29.5635ZM32.6096 28.1365C32.4083 28.2071 32.2347 28.3323 32.104 28.4958C31.9731 28.3323 31.7997 28.2071 31.5983 28.1365C31.7601 28.094 31.929 28.0691 32.104 28.0691C32.279 28.0691 32.4477 28.094 32.6096 28.1365ZM30.1712 29.5635C30.2418 29.7648 30.367 29.9385 30.5305 30.0691C30.367 30.2 30.2418 30.3734 30.1712 30.5748C30.1288 30.413 30.1039 30.2441 30.1039 30.0691C30.1039 29.8941 30.1288 29.7253 30.1712 29.5635ZM31.5982 32.0019C31.7996 31.9312 31.9731 31.8061 32.1039 31.6426C32.2347 31.8061 32.4082 31.9313 32.6095 32.0019C32.4477 32.0443 32.2789 32.0692 32.1039 32.0692C31.9289 32.0692 31.76 32.0442 31.5982 32.0019Z" fill="#E6B432"/>
<path d="M31.7292 30.0688C31.7292 29.8617 31.5614 29.6938 31.3542 29.6938C31.2515 29.6938 31.1585 29.7354 31.0909 29.8022C31.022 29.8702 30.9792 29.9646 30.9792 30.0688C30.9792 30.1732 31.022 30.2676 31.0909 30.3354C31.1586 30.4023 31.2515 30.4438 31.3542 30.4438C31.5614 30.4438 31.7292 30.276 31.7292 30.0688Z" fill="#F0C814"/>
<path d="M32.4792 30.0688C32.4792 30.276 32.6471 30.4438 32.8542 30.4438C32.957 30.4438 33.0499 30.4023 33.1176 30.3354C33.1865 30.2675 33.2292 30.1731 33.2292 30.0688C33.2292 29.9645 33.1865 29.8701 33.1176 29.8022C33.0498 29.7354 32.957 29.6938 32.8542 29.6938C32.6471 29.6938 32.4792 29.8617 32.4792 30.0688Z" fill="#F0C814"/>
<path d="M32.1043 29.6938C32.3114 29.6938 32.4792 29.526 32.4792 29.3189C32.4792 29.2161 32.4377 29.1231 32.3709 29.0555C32.3029 28.9866 32.2085 28.9438 32.1043 28.9438C31.9999 28.9438 31.9055 28.9866 31.8376 29.0555C31.7708 29.1232 31.7292 29.2161 31.7292 29.3189C31.7292 29.526 31.8971 29.6938 32.1043 29.6938Z" fill="#F0C814"/>
<path d="M32.1043 30.4438C31.8971 30.4438 31.7292 30.6117 31.7292 30.8188C31.7292 30.9216 31.7708 31.0145 31.8376 31.0822C31.9056 31.1511 32 31.1938 32.1043 31.1938C32.2086 31.1938 32.303 31.1511 32.3709 31.0822C32.4377 31.0145 32.4792 30.9216 32.4792 30.8188C32.4792 30.6117 32.3114 30.4438 32.1043 30.4438Z" fill="#F0C814"/>
<path d="M43.5898 19.0843C43.6262 19.1206 43.6682 19.1478 43.7129 19.1659C43.7584 19.1846 43.8066 19.194 43.855 19.194C43.9509 19.194 44.0469 19.1574 44.12 19.0841C44.25 18.9541 44.2578 18.7559 44.1572 18.6098L44.2955 18.0569C44.3151 18.0619 44.3339 18.0688 44.355 18.0688C44.4931 18.0688 44.605 17.9569 44.605 17.8188C44.605 17.6808 44.4931 17.5688 44.355 17.5688C44.2169 17.5688 44.105 17.6808 44.105 17.8188C44.105 17.8399 44.1121 17.8587 44.1169 17.8783L43.564 18.0166C43.418 17.9159 43.2196 17.9238 43.0897 18.0538C42.9806 18.163 42.9532 18.3226 43.0068 18.4575C43.0252 18.5035 43.0524 18.5469 43.0897 18.5842L43.5898 19.0843Z" fill="#D2D2D2"/>
<path d="M37.3546 24.9654V24.8189V23.8189C37.3546 23.7607 37.3777 23.7097 37.411 23.6672L32.2027 18.4575C32.1843 18.5035 32.1571 18.5469 32.1198 18.5842L31.6198 19.0842C31.5834 19.1205 31.5415 19.1477 31.4967 19.1658L32.4237 20.0931L31.0691 21.4477L31.9529 22.3314L32.3064 21.9779L32.1296 21.8011L32.4832 21.4476L32.6599 21.6243L32.8368 21.4476L33.1903 21.8011L33.0135 21.9779L33.1903 22.1547L32.8368 22.5082L32.6599 22.3314L32.3064 22.685L33.1902 23.5688L34.5445 22.2145L36.6588 24.3293C36.7035 24.3394 36.7465 24.3572 36.7813 24.3919L37.3546 24.9654Z" fill="#D2D2D2"/>
<path d="M37.9282 25.5993L38.4081 26.0793L40.1261 27.7978C40.2237 27.8954 40.3516 27.9442 40.4798 27.9442C40.6077 27.9442 40.7356 27.8954 40.8333 27.7978C41.0287 27.6027 41.0287 27.286 40.8334 27.0907L38.6354 24.8921L37.9282 25.5993Z" fill="#D2D2D2"/>
<path d="M37.8545 24.8192V24.9657L38.2816 24.5386L37.8545 24.1113V24.8192Z" fill="#D2D2D2"/>
<path d="M44.9798 28.4214C45.0191 28.4353 45.0607 28.4443 45.1047 28.4443C45.3119 28.4443 45.4797 28.2765 45.4797 28.0693C45.4797 27.8622 45.3119 27.6943 45.1047 27.6943C44.8976 27.6943 44.7297 27.8622 44.7297 28.0693C44.7297 28.1134 44.7387 28.155 44.7527 28.1942C44.8333 28.2651 44.9089 28.3409 44.9798 28.4214Z" fill="#D2D2D2"/>
<path d="M45.1047 31.6943C45.0607 31.6943 45.0191 31.7033 44.9798 31.7173C44.9089 31.7978 44.8332 31.8736 44.7527 31.9444C44.7388 31.9837 44.7297 32.0253 44.7297 32.0693C44.7297 32.2765 44.8976 32.4443 45.1047 32.4443C45.3119 32.4443 45.4797 32.2765 45.4797 32.0693C45.4797 31.8622 45.3119 31.6943 45.1047 31.6943Z" fill="#D2D2D2"/>
<path d="M41.4565 28.1942C41.4704 28.155 41.4795 28.1134 41.4795 28.0693C41.4795 27.8622 41.3116 27.6943 41.1045 27.6943C40.8974 27.6943 40.7295 27.8622 40.7295 28.0693C40.7295 28.2765 40.8974 28.4443 41.1045 28.4443C41.1485 28.4443 41.1901 28.4354 41.2294 28.4214C41.3003 28.3409 41.3761 28.2651 41.4565 28.1942Z" fill="#D2D2D2"/>
<path d="M41.1046 32.4443C41.3117 32.4443 41.4796 32.2765 41.4796 32.0693C41.4796 32.0543 41.4769 32.04 41.4752 32.0254C41.273 32.1292 41.0533 32.2239 40.8184 32.309C40.8872 32.3911 40.9891 32.4443 41.1046 32.4443Z" fill="#D2D2D2"/>
<path d="M44.9789 31.7168C45.3665 31.2763 45.6038 30.7004 45.6038 30.0688C45.6038 29.4373 45.3665 28.8614 44.9789 28.4209C44.908 28.3404 44.8322 28.2645 44.7517 28.1937C44.3112 27.8062 43.7353 27.5688 43.1038 27.5688C42.4722 27.5688 41.8963 27.8062 41.4558 28.1937C41.3753 28.2646 41.2995 28.3404 41.2287 28.4209C40.8411 28.8614 40.6038 29.4373 40.6038 30.0688C40.6038 30.2172 40.6192 30.3618 40.6441 30.5032C40.7001 30.8212 40.8164 31.1179 40.9807 31.3825C41.0335 31.4676 41.0901 31.5496 41.1524 31.6275C41.3592 31.5281 41.5455 31.4193 41.7072 31.3023C41.7096 31.3005 41.7126 31.3004 41.7152 31.2986C41.6453 31.1978 41.6038 31.0757 41.6038 30.9438C41.6038 30.6469 41.8124 30.3988 42.0904 30.3354C42.0215 30.2675 41.9788 30.1731 41.9788 30.0688C41.9788 29.9645 42.0215 29.8701 42.0904 29.8022C41.8124 29.739 41.6038 29.4909 41.6038 29.1938C41.6038 28.8491 41.8841 28.5688 42.2288 28.5688C42.5256 28.5688 42.7738 28.7773 42.8372 29.0555C42.9051 28.9866 42.9995 28.9438 43.1038 28.9438C43.2081 28.9438 43.3025 28.9866 43.3704 29.0555C43.4337 28.7773 43.6818 28.5688 43.9788 28.5688C44.3234 28.5688 44.6038 28.8491 44.6038 29.1938C44.6038 29.4908 44.3952 29.7389 44.1171 29.8022C44.186 29.8702 44.2288 29.9646 44.2288 30.0688C44.2288 30.1732 44.186 30.2676 44.1171 30.3354C44.3952 30.3987 44.6038 30.6469 44.6038 30.9438C44.6038 31.2886 44.3234 31.5688 43.9788 31.5688C43.6819 31.5688 43.4337 31.3604 43.3704 31.0822C43.3024 31.1511 43.2081 31.1938 43.1038 31.1938C42.9995 31.1938 42.905 31.1511 42.8372 31.0822C42.7738 31.3604 42.5257 31.5688 42.2288 31.5688C42.1835 31.5688 42.1395 31.5635 42.0968 31.5543C42.0847 31.6135 42.0531 31.6689 42.0002 31.7071C41.8555 31.812 41.6936 31.9096 41.5197 32.0013C41.9512 32.3557 42.503 32.5689 43.1037 32.5689C43.7352 32.5689 44.3111 32.3316 44.7516 31.944C44.8323 31.8731 44.908 31.7973 44.9789 31.7168ZM41.1711 30.5746C41.1287 30.4128 41.1038 30.2439 41.1038 30.0689C41.1038 29.8939 41.1287 29.7251 41.1711 29.5633C41.2417 29.7647 41.3669 29.9383 41.5304 30.0689C41.3669 30.1997 41.2417 30.3731 41.1711 30.5746ZM43.1038 28.4955C42.9729 28.332 42.7995 28.2068 42.5981 28.1362C42.7599 28.0938 42.9288 28.0688 43.1038 28.0688C43.2788 28.0688 43.4476 28.0938 43.6094 28.1362C43.4081 28.2068 43.2346 28.332 43.1038 28.4955ZM45.0365 29.5632C45.079 29.725 45.1039 29.8939 45.1039 30.0688C45.1039 30.2438 45.079 30.4127 45.0365 30.5745C44.9659 30.3731 44.8407 30.1996 44.6772 30.0688C44.8407 29.9381 44.9659 29.7646 45.0365 29.5632ZM42.5981 32.0016C42.7995 31.931 42.973 31.8058 43.1038 31.6423C43.2346 31.8058 43.4081 31.9311 43.6094 32.0016C43.4476 32.044 43.2788 32.0689 43.1038 32.0689C42.9288 32.0689 42.7599 32.0439 42.5981 32.0016Z" fill="#E6B432"/>
<path d="M43.4783 30.0688C43.4783 30.276 43.6461 30.4438 43.8533 30.4438C43.956 30.4438 44.049 30.4023 44.1166 30.3354C44.1855 30.2675 44.2283 30.1731 44.2283 30.0688C44.2283 29.9645 44.1855 29.8701 44.1166 29.8022C44.0489 29.7354 43.956 29.6938 43.8533 29.6938C43.6461 29.6938 43.4783 29.8617 43.4783 30.0688Z" fill="#F0C814"/>
<path d="M42.7283 30.0688C42.7283 29.8617 42.5604 29.6938 42.3533 29.6938C42.2505 29.6938 42.1576 29.7354 42.0899 29.8022C42.021 29.8702 41.9783 29.9646 41.9783 30.0688C41.9783 30.1732 42.021 30.2676 42.0899 30.3354C42.1577 30.4023 42.2505 30.4438 42.3533 30.4438C42.5604 30.4438 42.7283 30.276 42.7283 30.0688Z" fill="#F0C814"/>
<path d="M43.1033 29.6938C43.3104 29.6938 43.4783 29.526 43.4783 29.3189C43.4783 29.2161 43.4368 29.1231 43.3699 29.0555C43.3019 28.9866 43.2076 28.9438 43.1033 28.9438C42.999 28.9438 42.9045 28.9866 42.8367 29.0555C42.7698 29.1232 42.7283 29.2161 42.7283 29.3189C42.7283 29.526 42.8961 29.6938 43.1033 29.6938Z" fill="#F0C814"/>
<path d="M43.1033 30.4438C42.8961 30.4438 42.7283 30.6117 42.7283 30.8188C42.7283 30.9216 42.7698 31.0145 42.8367 31.0822C42.9046 31.1511 42.999 31.1938 43.1033 31.1938C43.2076 31.1938 43.302 31.1511 43.3699 31.0822C43.4368 31.0145 43.4783 30.9216 43.4783 30.8188C43.4783 30.6117 43.3104 30.4438 43.1033 30.4438Z" fill="#F0C814"/>
<path d="M32.119 18.5842C32.1563 18.5469 32.1836 18.5036 32.2019 18.4575C32.2554 18.3226 32.2282 18.1631 32.119 18.0538C31.989 17.9238 31.7908 17.916 31.6447 18.0166L31.0918 17.8783C31.0968 17.8587 31.1038 17.8399 31.1038 17.8188C31.1038 17.6808 30.9918 17.5688 30.8538 17.5688C30.7157 17.5688 30.6038 17.6808 30.6038 17.8188C30.6038 17.9569 30.7157 18.0688 30.8538 18.0688C30.8749 18.0688 30.8936 18.0617 30.9132 18.0569L31.0515 18.6098C30.9508 18.7559 30.9587 18.9542 31.0887 19.0841C31.162 19.1573 31.2579 19.194 31.3538 19.194C31.4021 19.194 31.4504 19.1845 31.4959 19.1659C31.5406 19.1476 31.5826 19.1205 31.6189 19.0843L32.119 18.5842Z" fill="#F7B518"/>
<path d="M42.0004 31.7069C42.0532 31.6687 42.0847 31.6133 42.0969 31.5541C42.1105 31.4878 42.0991 31.4168 42.0563 31.3578C41.9771 31.2487 41.8265 31.2235 41.7153 31.2984C41.7128 31.3002 41.7098 31.3003 41.7073 31.3021C41.5457 31.4191 41.3593 31.5279 41.1525 31.6273C40.4195 31.98 39.4272 32.2151 38.3539 32.2912V28.7797C39.4449 30.2696 40.5076 31.0704 40.9808 31.3824C40.8165 31.1178 40.7003 30.8211 40.6442 30.5031C40.0391 30.0025 39.1836 29.1617 38.3539 27.8939V26.1952C38.3716 26.1562 38.3896 26.1183 38.4072 26.0788L37.9273 25.5988L38.6344 24.8917L38.7805 24.7456C38.8782 24.6479 38.8782 24.4897 38.7805 24.3921C38.7176 24.3292 38.6302 24.3112 38.5494 24.3295C38.5048 24.3396 38.4618 24.3574 38.4269 24.3921L38.2808 24.5382L37.8537 24.9653V24.8188V24.1108V23.8188C37.8537 23.7606 37.8306 23.7096 37.7973 23.6671C37.7515 23.6087 37.6836 23.5688 37.6037 23.5688C37.5237 23.5688 37.4558 23.6087 37.41 23.6671C37.3767 23.7096 37.3537 23.7606 37.3537 23.8188V24.8188V24.9653L36.7804 24.3921C36.7458 24.3574 36.7026 24.3396 36.658 24.3295C36.5771 24.3113 36.4898 24.3292 36.4268 24.3921C36.3292 24.4897 36.3292 24.6479 36.4268 24.7456L36.5729 24.8917L37.28 25.5988L36.8002 26.0788C36.8177 26.1184 36.8358 26.1562 36.8535 26.1952V27.8919C36.0247 29.1571 35.1689 29.9989 34.5635 30.5007C34.5076 30.8195 34.3914 31.1171 34.2265 31.3822C34.6998 31.0703 35.7624 30.2695 36.8535 28.7795V32.291C35.7801 32.215 34.7879 31.9798 34.0548 31.6272C33.8477 31.5276 33.6613 31.4188 33.4996 31.3018C33.4972 31.3 33.4944 31.2999 33.4921 31.2983C33.3808 31.2231 33.23 31.2484 33.1505 31.3574C33.1076 31.4166 33.0963 31.4877 33.11 31.5541C33.1222 31.6131 33.1538 31.6685 33.2063 31.7065C33.3512 31.8115 33.5134 31.9093 33.6874 32.001C33.7025 32.009 33.7176 32.0168 33.7329 32.0247C33.935 32.1285 34.1548 32.2232 34.3898 32.3082C35.0998 32.5651 35.9457 32.7331 36.8535 32.7932V34.638C36.9273 34.5951 37.012 34.5686 37.1035 34.5686C37.195 34.5686 37.2797 34.595 37.3535 34.638V32.815C37.4366 32.8168 37.5197 32.8186 37.6035 32.8186C37.6873 32.8186 37.7704 32.8167 37.8535 32.815V33.388C37.9273 33.3451 38.012 33.3186 38.1035 33.3186C38.195 33.3186 38.2797 33.345 38.3535 33.388V32.7932C39.2614 32.7331 40.1074 32.5651 40.8173 32.3082C41.0523 32.2231 41.2718 32.1284 41.4741 32.0246C41.4894 32.0167 41.5045 32.0089 41.5196 32.0009C41.6937 31.9095 41.8556 31.8117 42.0004 31.7069ZM37.6038 32.3187C37.5202 32.3187 37.4369 32.317 37.3538 32.315V28.0483C37.4376 27.9168 37.5209 27.7799 37.6038 27.6396C37.6867 27.78 37.77 27.9168 37.8538 28.0483V32.315C37.7708 32.3171 37.6875 32.3187 37.6038 32.3187Z" fill="#FF4B55"/>
<path d="M37.6038 18.0134C38.9845 18.0134 40.1038 18.2497 40.1038 18.5412C40.1038 18.0508 40.1038 17.5723 40.1038 17.4976C40.1038 17.3829 39.9979 17.2749 39.813 17.1802L39.8703 17.0656C39.9609 17.0594 40.0363 17.0046 40.0752 16.9281C40.092 16.8949 40.104 16.859 40.104 16.8189C40.104 16.7709 40.0869 16.7285 40.0633 16.6904C40.0192 16.6191 39.944 16.5689 39.854 16.5689C39.7159 16.5689 39.604 16.6809 39.604 16.8189C39.604 16.8689 39.6225 16.9129 39.6478 16.952L39.5819 17.0835C39.3933 17.0172 39.1608 16.9608 38.8957 16.9172L38.9238 16.8047C39.0271 16.774 39.104 16.682 39.104 16.5688C39.104 16.4308 38.9921 16.3188 38.854 16.3188C38.7159 16.3188 38.604 16.4308 38.604 16.5688C38.604 16.6394 38.6336 16.7023 38.6805 16.7479L38.6471 16.8813C38.5077 16.8639 38.3617 16.8501 38.2102 16.8397C38.2215 16.7928 38.229 16.7442 38.229 16.6938C38.229 16.3487 37.9491 16.0688 37.604 16.0688C37.2589 16.0688 36.979 16.3487 36.979 16.6938C36.979 16.7444 36.9865 16.7928 36.9979 16.8397C36.8461 16.85 36.7001 16.8639 36.5609 16.8813L36.5275 16.7479C36.5744 16.7023 36.604 16.6394 36.604 16.5688C36.604 16.4308 36.4921 16.3188 36.354 16.3188C36.2159 16.3188 36.104 16.4308 36.104 16.5688C36.104 16.6821 36.1809 16.774 36.2842 16.8047L36.3123 16.9172C36.0473 16.9607 35.8147 17.0171 35.6261 17.0835L35.5603 16.952C35.5855 16.9128 35.604 16.8689 35.604 16.8189C35.604 16.6809 35.4921 16.5689 35.354 16.5689C35.2641 16.5689 35.1887 16.619 35.1447 16.6904C35.1212 16.7286 35.104 16.7709 35.104 16.8189C35.104 16.8589 35.1158 16.8949 35.1327 16.9281C35.1715 17.0046 35.247 17.0594 35.3376 17.0656L35.3949 17.1802C35.2099 17.2749 35.1041 17.3827 35.1041 17.4976C35.1041 17.5724 35.1041 18.0508 35.1041 18.5412C35.1038 18.2497 36.2231 18.0134 37.6038 18.0134Z" fill="#E6B432"/>
<path d="M35.1038 18.5688L35.1069 18.5675C35.1061 18.5591 35.1038 18.5478 35.1038 18.541C35.1038 18.5504 35.1038 18.5595 35.1038 18.5688Z" fill="#E6B432"/>
<path d="M40.1035 18.5689C40.1035 18.5596 40.1035 18.5504 40.1035 18.541C40.1035 18.5479 40.1011 18.5592 40.1003 18.5676L40.1035 18.5689Z" fill="#E6B432"/>
<path d="M35.6038 19.0691C35.6038 19.1191 35.5853 19.1631 35.56 19.2022L35.6547 19.3917C35.8202 19.3097 36.0461 19.2393 36.3164 19.1853L36.2838 19.0551C36.1805 19.0244 36.1037 18.9324 36.1037 18.8192C36.1037 18.6812 36.2156 18.5692 36.3537 18.5692C36.4917 18.5692 36.6037 18.6812 36.6037 18.8192C36.6037 18.8897 36.5741 18.9527 36.5272 18.9982L36.5633 19.1424C36.8045 19.1064 37.0709 19.0823 37.3538 19.0734V18.847C37.2776 18.7783 37.2288 18.68 37.2288 18.5692C37.2288 18.3621 37.3966 18.1942 37.6038 18.1942C37.8109 18.1942 37.9788 18.3621 37.9788 18.5692C37.9788 18.6799 37.9299 18.7783 37.8538 18.847V19.0734C38.1365 19.0824 38.403 19.1064 38.6442 19.1424L38.6803 18.9982C38.6334 18.9527 38.6039 18.8897 38.6039 18.8192C38.6039 18.6812 38.7158 18.5692 38.8539 18.5692C38.9919 18.5692 39.1039 18.6812 39.1039 18.8192C39.1039 18.9325 39.027 19.0244 38.9237 19.0551L38.8912 19.1853C39.1614 19.2393 39.3874 19.3099 39.5528 19.3917L39.6475 19.2022C39.6222 19.163 39.6038 19.1191 39.6038 19.0691C39.6038 18.9311 39.7157 18.8191 39.8538 18.8191C39.9135 18.8191 39.9663 18.8431 40.0092 18.8781C40.0649 18.7415 40.0945 18.633 40.1006 18.568C40.1014 18.5596 40.1038 18.5482 40.1038 18.5415C40.1038 18.25 38.9844 18.0137 37.6038 18.0137C36.2231 18.0137 35.1038 18.25 35.1038 18.5415C35.1038 18.5483 35.1061 18.5597 35.1069 18.568C35.1129 18.633 35.1425 18.7415 35.1982 18.8781C35.2412 18.8431 35.2939 18.8191 35.3537 18.8191C35.4918 18.8191 35.6038 18.9312 35.6038 19.0691Z" fill="#EBEBEB"/>
<path d="M35.1038 19.0688C35.1038 19.201 35.2073 19.3065 35.3373 19.3154L35.4452 19.5312C35.3867 19.5885 35.3537 19.6488 35.3537 19.7115C35.3537 19.7836 35.3971 19.8528 35.4738 19.9176L35.8537 20.5688C35.8537 20.2926 36.6372 20.0687 37.6037 20.0687C38.5702 20.0687 39.3537 20.2926 39.3537 20.5688L39.7335 19.9176C39.8103 19.8528 39.8537 19.7838 39.8537 19.7115C39.8537 19.6488 39.8208 19.5885 39.7622 19.5312L39.8701 19.3154C40 19.3064 40.1037 19.201 40.1037 19.0688C40.1037 18.9905 40.0655 18.9235 40.0091 18.8777C39.9662 18.8427 39.9134 18.8187 39.8537 18.8187C39.7156 18.8187 39.6037 18.9307 39.6037 19.0688C39.6037 19.1188 39.6221 19.1627 39.6474 19.2018L39.5527 19.3913C39.3873 19.3093 39.1613 19.2389 38.8911 19.1849L38.9236 19.0547C39.0269 19.024 39.1038 18.932 39.1038 18.8188C39.1038 18.6808 38.9918 18.5688 38.8538 18.5688C38.7157 18.5688 38.6038 18.6808 38.6038 18.8188C38.6038 18.8894 38.6333 18.9523 38.6802 18.9979L38.6441 19.142C38.4029 19.106 38.1365 19.0819 37.8537 19.073V18.8466C37.9298 18.7779 37.9787 18.6796 37.9787 18.5688C37.9787 18.3617 37.8108 18.1938 37.6037 18.1938C37.3965 18.1938 37.2287 18.3617 37.2287 18.5688C37.2287 18.6795 37.2775 18.7779 37.3537 18.8466V19.073C37.0709 19.082 36.8044 19.1061 36.5632 19.142L36.5271 18.9979C36.574 18.9523 36.6036 18.8894 36.6036 18.8188C36.6036 18.6808 36.4916 18.5688 36.3536 18.5688C36.2155 18.5688 36.1036 18.6808 36.1036 18.8188C36.1036 18.9321 36.1804 19.024 36.2837 19.0547L36.3163 19.1849C36.046 19.2389 35.82 19.3095 35.6546 19.3913L35.5599 19.2018C35.5852 19.1626 35.6037 19.1188 35.6037 19.0688C35.6037 18.9307 35.4917 18.8187 35.3537 18.8187C35.2939 18.8187 35.2412 18.8427 35.1982 18.8777C35.1419 18.9235 35.1038 18.9905 35.1038 19.0688Z" fill="#E6B432"/>
<path d="M37.6038 21.0693C38.5703 21.0693 39.3538 20.8455 39.3538 20.5693C39.3538 20.2932 38.5703 20.0693 37.6038 20.0693C36.6373 20.0693 35.8538 20.2932 35.8538 20.5693C35.8538 20.8455 36.6373 21.0693 37.6038 21.0693Z" fill="#EBEBEB"/>
<path d="M40.0439 16.3093L39.6038 15.3191C39.6038 15.2566 39.5559 15.197 39.472 15.1418L39.8273 14.431C39.8891 14.3075 39.8391 14.1573 39.7155 14.0956C39.5917 14.0342 39.4418 14.0841 39.3801 14.2074L39.187 14.5936L39.0027 14.9622C38.8967 14.9362 38.7784 14.9134 38.6515 14.8938L38.6736 14.805C38.777 14.7744 38.8538 14.6824 38.8538 14.5692C38.8538 14.4311 38.7419 14.3192 38.6038 14.3192C38.4657 14.3192 38.3538 14.4311 38.3538 14.5692C38.3538 14.6397 38.3834 14.7027 38.4303 14.7482L38.402 14.8609C38.1574 14.8341 37.8877 14.8192 37.6038 14.8192C37.3198 14.8192 37.0501 14.8341 36.8056 14.8609L36.7773 14.7482C36.8242 14.7027 36.8538 14.6397 36.8538 14.5692C36.8538 14.4311 36.7419 14.3192 36.6038 14.3192C36.4657 14.3192 36.3538 14.4311 36.3538 14.5692C36.3538 14.6825 36.4307 14.7744 36.534 14.805L36.5561 14.8938C36.4291 14.9134 36.3109 14.9362 36.2048 14.9622L36.0205 14.5936L35.8274 14.2074C35.7656 14.0841 35.6159 14.0343 35.492 14.0956C35.3685 14.1573 35.3184 14.3075 35.3802 14.431L35.7355 15.1418C35.6518 15.197 35.6037 15.2566 35.6037 15.3191L35.1636 16.3093C35.4104 16.029 36.4083 15.8191 37.6037 15.8191C38.7992 15.8191 39.7971 16.029 40.0439 16.3093Z" fill="#E6B432"/>
<path d="M37.604 14.8193C37.8111 14.8193 37.979 14.6514 37.979 14.4443C37.979 14.2372 37.8111 14.0693 37.604 14.0693C37.3969 14.0693 37.229 14.2372 37.229 14.4443C37.229 14.6514 37.3969 14.8193 37.604 14.8193Z" fill="#E6B432"/>
</g>
<defs>
<clipPath id="clip0_106_16752">
<rect width="50" height="50" fill="white"/>
</clipPath>
</defs>
</svg>
