<svg width="50" height="50" viewBox="0 0 50 50" fill="none" xmlns="http://www.w3.org/2000/svg">
<g clip-path="url(#clip0_106_16737)">
<path d="M49.9994 19.5402H-0.000488281V9.48271C-0.000488281 9.00664 0.385546 8.62061 0.861619 8.62061H49.1374C49.6135 8.62061 49.9995 9.00664 49.9995 9.48271L49.9994 19.5402Z" fill="#FFE15A"/>
<path d="M49.1373 41.3795H0.861619C0.385546 41.3795 -0.000488281 40.9934 -0.000488281 40.5174V30.46H49.9994V40.5174C49.9994 40.9935 49.6134 41.3795 49.1373 41.3795Z" fill="#FF4B55"/>
<path d="M49.9994 19.54H-0.000488281V30.459H49.9994V19.54Z" fill="#41479B"/>
<path d="M17.3968 27.0995L17.6128 27.7472L18.2955 27.7525C18.3839 27.7532 18.4206 27.866 18.3495 27.9185L17.8003 28.3241L18.0063 28.9751C18.0329 29.0594 17.9369 29.1291 17.865 29.0777L17.3095 28.6806L16.754 29.0777C16.6821 29.129 16.5861 29.0593 16.6127 28.9751L16.8187 28.3241L16.2694 27.9185C16.1984 27.8661 16.235 27.7532 16.3235 27.7525L17.0062 27.7472L17.2222 27.0995C17.2502 27.0157 17.3689 27.0157 17.3968 27.0995Z" fill="#F5F5F5"/>
<path d="M18.7232 25.0371L18.6075 25.7101L19.2067 26.0374C19.2843 26.0798 19.2633 26.1966 19.1758 26.2092L18.5 26.307L18.3738 26.978C18.3574 27.0649 18.24 27.0811 18.2009 27.0018L17.899 26.3893L17.2218 26.4767C17.1341 26.488 17.0824 26.3812 17.1458 26.3194L17.6351 25.8431L17.3427 25.2261C17.3049 25.1462 17.3904 25.0641 17.4687 25.1053L18.0729 25.4234L18.5694 24.9546C18.6337 24.894 18.7382 24.95 18.7232 25.0371Z" fill="#F5F5F5"/>
<path d="M20.402 23.2326L20.0815 23.8355L20.5482 24.3338C20.6087 24.3984 20.5522 24.5027 20.4651 24.4873L19.7925 24.3688L19.4628 24.9667C19.4201 25.0441 19.3034 25.0227 19.2911 24.9352L19.196 24.259L18.5254 24.1301C18.4385 24.1134 18.4229 23.9959 18.5024 23.9571L19.1161 23.6577L19.0314 22.9801C19.0204 22.8924 19.1274 22.8413 19.1888 22.9048L19.6632 23.3959L20.2814 23.106C20.3617 23.0685 20.4434 23.1544 20.402 23.2326Z" fill="#F5F5F5"/>
<path d="M22.422 22.113L21.9509 22.6073L22.2662 23.213C22.307 23.2914 22.2245 23.3767 22.1447 23.3384L21.5291 23.043L21.0503 23.5299C20.9883 23.593 20.8817 23.5407 20.8934 23.4531L20.984 22.7763L20.373 22.4714C20.2939 22.432 20.3105 22.3145 20.3974 22.2986L21.0691 22.1756L21.1702 21.5003C21.1833 21.4129 21.3002 21.3924 21.3422 21.4702L21.6666 22.071L22.3401 21.9585C22.4275 21.9442 22.483 22.049 22.422 22.113Z" fill="#F5F5F5"/>
<path d="M24.7439 21.5941L24.1576 21.9441L24.299 22.612C24.3174 22.6985 24.2149 22.7586 24.1484 22.7004L23.6345 22.251L23.0428 22.5918C22.9661 22.636 22.8774 22.5572 22.9123 22.4759L23.181 21.8481L22.6739 21.3907C22.6083 21.3316 22.6559 21.2229 22.7438 21.2309L23.4239 21.2923L23.7022 20.6688C23.7383 20.5881 23.8563 20.5996 23.876 20.6858L24.0277 21.3515L24.7067 21.4235C24.7943 21.4329 24.8199 21.5487 24.7439 21.5941Z" fill="#F5F5F5"/>
<path d="M32.6037 27.0995L32.3877 27.7472L31.705 27.7525C31.6166 27.7532 31.5799 27.866 31.651 27.9185L32.2002 28.3241L31.9943 28.9751C31.9676 29.0594 32.0636 29.1291 32.1356 29.0777L32.691 28.6806L33.2465 29.0777C33.3184 29.129 33.4144 29.0593 33.3878 28.9751L33.1819 28.3241L33.7311 27.9185C33.8022 27.8661 33.7656 27.7532 33.6771 27.7525L32.9944 27.7472L32.7784 27.0995C32.7503 27.0157 32.6317 27.0157 32.6037 27.0995Z" fill="#F5F5F5"/>
<path d="M31.2773 25.0371L31.393 25.7101L30.7938 26.0374C30.7162 26.0798 30.7372 26.1966 30.8247 26.2092L31.5005 26.307L31.6267 26.978C31.6431 27.0649 31.7606 27.0811 31.7996 27.0018L32.1015 26.3893L32.7787 26.4767C32.8664 26.488 32.9181 26.3812 32.8547 26.3194L32.3655 25.8431L32.6578 25.2261C32.6956 25.1462 32.6101 25.0641 32.5319 25.1053L31.9277 25.4234L31.4311 24.9546C31.3668 24.894 31.2623 24.95 31.2773 25.0371Z" fill="#F5F5F5"/>
<path d="M29.5986 23.2326L29.9191 23.8355L29.4524 24.3338C29.392 24.3984 29.4484 24.5027 29.5356 24.4873L30.2081 24.3688L30.5379 24.9667C30.5806 25.0441 30.6973 25.0227 30.7096 24.9352L30.8047 24.259L31.4753 24.1301C31.5621 24.1134 31.5777 23.9959 31.4982 23.9571L30.8846 23.6577L30.9692 22.9801C30.9803 22.8924 30.8732 22.8413 30.8118 22.9048L30.3374 23.3959L29.7192 23.106C29.639 23.0685 29.5572 23.1544 29.5986 23.2326Z" fill="#F5F5F5"/>
<path d="M27.5784 22.113L28.0495 22.6073L27.7343 23.213C27.6935 23.2914 27.776 23.3767 27.8558 23.3384L28.4714 23.043L28.9502 23.5299C29.0121 23.593 29.1188 23.5407 29.107 23.4531L29.0163 22.7763L29.6274 22.4714C29.7065 22.432 29.6899 22.3145 29.603 22.2986L28.9313 22.1756L28.8302 21.5003C28.8171 21.4129 28.7002 21.3924 28.6582 21.4702L28.3338 22.071L27.6603 21.9585C27.573 21.9442 27.5175 22.049 27.5784 22.113Z" fill="#F5F5F5"/>
<path d="M25.2566 21.5941L25.843 21.9441L25.7016 22.612C25.6832 22.6985 25.7856 22.7586 25.8521 22.7004L26.3661 22.251L26.9578 22.5918C27.0345 22.636 27.1231 22.5572 27.0883 22.4759L26.8196 21.8481L27.3266 21.3907C27.3923 21.3316 27.3447 21.2229 27.2567 21.2309L26.5766 21.2923L26.2983 20.6688C26.2623 20.5881 26.1442 20.5996 26.1246 20.6858L25.9728 21.3515L25.2938 21.4235C25.2062 21.4329 25.1807 21.5487 25.2566 21.5941Z" fill="#F5F5F5"/>
</g>
<defs>
<clipPath id="clip0_106_16737">
<rect width="50" height="50" fill="white"/>
</clipPath>
</defs>
</svg>
