<svg width="50" height="50" viewBox="0 0 50 50" fill="none" xmlns="http://www.w3.org/2000/svg">
<g clip-path="url(#clip0_106_16734)">
<path d="M49.1383 41.3792H0.862596C0.386523 41.3792 0.000488281 40.9932 0.000488281 40.5171V9.48271C0.000488281 9.00664 0.386523 8.62061 0.862596 8.62061H49.1384C49.6145 8.62061 50.0005 9.00664 50.0005 9.48271V40.5171C50.0004 40.9933 49.6144 41.3792 49.1383 41.3792Z" fill="#FF4B55"/>
<path d="M25.4027 15.2313L27.7082 22.1444L34.9954 22.2008C35.4028 22.2039 35.5718 22.724 35.2441 22.9661L29.3819 27.295L31.58 34.243C31.703 34.6315 31.2606 34.9529 30.929 34.7159L25.0004 30.4783L19.0717 34.7159C18.7403 34.9528 18.2979 34.6315 18.4208 34.243L20.6189 27.295L14.7567 22.9661C14.4289 22.7241 14.5979 22.2039 15.0053 22.2008L22.2925 22.1444L24.5981 15.2313C24.7271 14.8448 25.2738 14.8448 25.4027 15.2313Z" fill="#FFE15A"/>
</g>
<defs>
<clipPath id="clip0_106_16734">
<rect width="50" height="50" fill="white"/>
</clipPath>
</defs>
</svg>
