<svg width="50" height="50" viewBox="0 0 50 50" fill="none" xmlns="http://www.w3.org/2000/svg">
<g clip-path="url(#clip0_106_16709)">
<path d="M49.1376 41.3791H0.861864C0.38579 41.3791 -0.000244141 40.9931 -0.000244141 40.517V9.48271C-0.000244141 9.00664 0.38579 8.62061 0.861864 8.62061H49.1376C49.6137 8.62061 49.9998 9.00664 49.9998 9.48271V40.517C49.9997 40.9932 49.6136 41.3791 49.1376 41.3791Z" fill="#F5F5F5"/>
<path d="M38.97 28.3208L39.2846 29.4245L40.3781 26.1749L37.3452 27.774L38.4851 27.9081L34.8451 32.1851L34.8135 32.0945L37.7207 26.0747L38.3037 27.0635L38.5416 23.6431L36.0106 25.9559L37.1474 25.7978L34.2402 31.8177L34.1495 31.8492L35.2364 26.3391L36.05 27.1485L35.4167 23.7789L33.5515 26.6558L34.6117 26.2158L33.4398 32.1572L33.0573 32.9495L32.6451 33.2259L32.4754 34.0854L31.0339 35.7793L32.1593 35.6887L31.9551 36.7238L32.3532 36.457L32.3916 36.9345L33.0754 36.1311L33.7041 37.0687L34.1345 34.8866L34.7024 34.2194L34.6625 33.7247L35.0452 32.9325L38.97 28.3208Z" fill="#4173CD"/>
<path d="M12.7847 25.0906C12.9083 24.5348 12.8316 24.014 12.6199 23.6934C12.2921 23.8941 12.002 24.3333 11.8784 24.8892C11.8212 25.1466 11.8109 25.3942 11.8332 25.6202L11.1526 24.6055C11.4298 24.3795 11.6684 23.9926 11.7767 23.5058C11.9003 22.9499 11.8236 22.4291 11.6119 22.1085C11.2841 22.3093 10.994 22.7484 10.8704 23.3043C10.8046 23.6003 10.7989 23.8836 10.8369 24.1349L10.3768 23.4488C10.3998 23.1005 10.2928 22.6768 10.036 22.2729C9.73047 21.7925 9.30801 21.4784 8.93154 21.4014C8.8418 21.7751 8.94717 22.2908 9.25273 22.7712C9.5124 23.1795 9.85547 23.4574 10.1841 23.582L10.6058 24.282C10.3942 24.1411 10.1353 24.0261 9.83916 23.9602C9.2833 23.8366 8.7625 23.9133 8.44189 24.125C8.64268 24.4527 9.08184 24.7429 9.63769 24.8665C10.1245 24.9748 10.5762 24.9227 10.8983 24.7675L11.5289 25.8142C11.3335 25.6982 11.105 25.6025 10.8475 25.5452C10.2916 25.4216 9.7708 25.4982 9.45019 25.71C9.65097 26.0377 10.0901 26.3278 10.646 26.4515C11.1119 26.5552 11.5458 26.5118 11.8652 26.3723L12.4458 27.3359C12.2663 27.239 12.0665 27.1559 11.8401 27.1057C11.2843 26.982 10.7635 27.0587 10.4429 27.2704C10.6436 27.5981 11.0828 27.8883 11.6387 28.0119C12.0842 28.1109 12.5018 28.077 12.8172 27.9523L13.3771 28.8817C13.2163 28.803 13.0431 28.734 12.8483 28.6907C12.2925 28.5671 11.7717 28.6437 11.4511 28.8555C11.6519 29.1832 12.091 29.4733 12.6469 29.597C13.0715 29.6914 13.4739 29.6676 13.7841 29.5572L14.2941 30.4037C14.1538 30.3418 14.0047 30.2877 13.8411 30.2513C13.2852 30.1276 12.7644 30.2043 12.4438 30.416C12.6446 30.7437 13.0838 31.0339 13.6396 31.1575C14.0446 31.2475 14.4289 31.2291 14.7327 31.1316L16.3526 33.8204L17.0406 33.3827L15.2919 30.7758C15.5089 30.5417 15.6886 30.2016 15.7786 29.7967C15.9022 29.2408 15.8256 28.72 15.6139 28.3994C15.286 28.6002 14.996 29.0393 14.8724 29.5951C14.8359 29.7587 14.8218 29.9167 14.8183 30.0699L14.268 29.2493C14.4993 29.0151 14.6916 28.6607 14.7859 28.2361C14.9096 27.6803 14.8329 27.1595 14.6212 26.8389C14.2933 27.0396 14.0033 27.4788 13.8797 28.0347C13.8363 28.2294 13.8256 28.4155 13.8286 28.5944L13.2243 27.6934C13.471 27.4604 13.6787 27.0967 13.7778 26.6514C13.9015 26.0955 13.8248 25.5747 13.6131 25.2541C13.2852 25.4549 12.9952 25.894 12.8716 26.4499C12.8213 26.6762 12.8118 26.8924 12.8234 27.0959L12.1967 26.1616C12.458 25.931 12.681 25.5564 12.7847 25.0906Z" fill="#73AF00"/>
<path d="M19.8271 25.0002L18.965 19.8278H18.8316C18.0491 19.8278 17.4964 19.0611 17.7439 18.3186L17.7468 18.3103C17.9445 17.717 17.6303 17.0747 17.0406 16.8666L5.204 12.689C4.5331 12.4522 3.90117 13.1269 4.18144 13.7809L5.46504 16.776C5.83437 17.6376 6.47441 18.3553 7.28827 18.8205L10.5718 20.6967C11.5526 21.2572 12.6627 21.552 13.7924 21.552H13.7926L14.0871 22.141C14.9634 23.8932 16.7544 25.0002 18.7135 25.0002H19.8271Z" fill="#FFE15A"/>
<path d="M30.1711 25.0002L31.0333 19.8278H31.1666C31.9492 19.8278 32.5019 19.0611 32.2543 18.3187L32.2515 18.3104C32.0538 17.717 32.3679 17.0747 32.9577 16.8666L44.7895 12.6907C45.4622 12.4532 46.0958 13.1298 45.8148 13.7856L44.5332 16.7759C44.1639 17.6375 43.5239 18.3553 42.71 18.8204L39.4265 20.6967C38.4456 21.2571 37.3356 21.552 36.2059 21.552H36.2056L35.9111 22.1409C35.0349 23.8933 33.244 25.0002 31.2848 25.0002H30.1711Z" fill="#FFE15A"/>
<path d="M28.4472 18.9656L26.3088 13.9761C26.0372 13.3421 25.4138 12.9312 24.7242 12.9312H24.1369L23.2748 13.7933H22.4126L21.5505 14.6554H22.7536C23.0585 14.6554 23.2642 14.9672 23.1441 15.2477L21.5505 18.9657H28.4472V18.9656Z" fill="#FFE15A"/>
<path d="M22.4126 27.5862L20.6884 25L19.1095 26.5789C18.4471 27.2413 17.948 28.0489 17.6518 28.9376L17.2402 30.1724L16.3781 31.0345H15.2576C14.8877 31.0345 14.5494 31.2435 14.384 31.5743L14.1409 32.0605C13.9805 32.3812 14.2138 32.7585 14.5722 32.7585H16.3781L16.9529 31.6091L19.7012 30.2349C19.7842 30.1934 19.8597 30.1389 19.9253 30.0733L22.4126 27.5862Z" fill="#FFE15A"/>
<path d="M27.585 27.5862L29.3091 25L30.888 26.5789C31.5504 27.2413 32.0495 28.0489 32.3457 28.9376L32.7573 30.1724L33.6194 31.0345H34.7399C35.1099 31.0345 35.4481 31.2435 35.6136 31.5743L35.8566 32.0605C36.017 32.3812 35.7838 32.7585 35.4253 32.7585H33.6194L33.0447 31.6091L30.2964 30.2349C30.2135 30.1934 30.1379 30.1389 30.0724 30.0733L27.585 27.5862Z" fill="#FFE15A"/>
<path d="M22.4127 28.4482L20.3176 31.94C20.035 32.4111 20.1377 33.018 20.5597 33.3695L23.7412 36.0208C24.4696 36.6279 25.5278 36.6279 26.2562 36.0208L29.4378 33.3695C29.8598 33.0178 29.9626 32.411 29.6799 31.94L27.5849 28.4482H22.4127Z" fill="#FFE15A"/>
<path d="M24.9995 18.1035C24.9995 18.1035 22.4133 18.9656 18.9651 18.1035C18.9651 18.1035 18.9651 19.8276 18.9651 21.5518C18.9651 23.2759 19.8272 28.4483 24.9995 30.1724C30.1719 28.4483 31.034 23.2759 31.034 21.5518C31.034 19.8276 31.034 18.1035 31.034 18.1035C27.5858 18.9656 24.9995 18.1035 24.9995 18.1035Z" fill="#F5F5F5"/>
<path d="M24.9995 18.1035C24.9995 18.1035 22.4133 18.9656 18.9651 18.1035C18.9651 18.1035 18.9651 19.8276 18.9651 21.5518H31.034C31.034 19.8276 31.034 18.1035 31.034 18.1035C27.5858 18.9656 24.9995 18.1035 24.9995 18.1035Z" fill="#41479B"/>
<path d="M20.7676 27.0667V21.5518H19.8271V25.3891C20.0715 25.9504 20.3784 26.5187 20.7676 27.0667Z" fill="#FF4B55"/>
<path d="M22.6487 21.5518H21.7083V28.1687C21.993 28.4509 22.3043 28.7194 22.6487 28.9694V21.5518Z" fill="#FF4B55"/>
<path d="M29.2317 27.0667C29.6208 26.5186 29.9278 25.9503 30.1721 25.389V21.5518H29.2317V27.0667Z" fill="#FF4B55"/>
<path d="M24.5295 21.5518H23.5891V29.5529C23.8836 29.7117 24.1975 29.8561 24.5295 29.9874V21.5518Z" fill="#FF4B55"/>
<path d="M28.2913 21.5518H27.3508V28.9695C27.6952 28.7195 28.0064 28.451 28.2913 28.1688V21.5518Z" fill="#FF4B55"/>
<path d="M26.4104 29.5529V21.5518H25.47V29.9874C25.802 29.8561 26.1159 29.7117 26.4104 29.5529Z" fill="#FF4B55"/>
<path d="M15.9356 31.7363L15.3235 32.113L16.352 33.8203L17.04 33.3827L15.9356 31.7363Z" fill="#73AF00"/>
<path d="M35.0233 32.9781L34.4825 31.8965H33.4915L33.4401 32.1573L33.0575 32.9496L32.6453 33.226L32.4757 34.0855L31.0342 35.7794L32.1596 35.6888L31.9554 36.7239L32.3534 36.4571L32.3919 36.9347L33.0757 36.1312L33.7044 37.0688L34.1348 34.8867L34.7026 34.2195L34.6628 33.7248L35.0233 32.9781Z" fill="#4173CD"/>
<path d="M8.25087 21.5518H6.03407L6.233 22.1486L4.92568 26.7241L3.61836 22.1486L3.81738 21.5518H1.60059L2.19746 22.3476L4.0163 28.7136L3.81738 29.3103H6.03407L5.83515 28.7136L7.65399 22.3476L8.25087 21.5518Z" fill="#4173CD"/>
<path d="M45.8126 22.106L46.1821 21.5518H45.8126H44.3349H43.9653L44.3349 22.106V28.7562L43.9653 29.3103H44.3349H45.8126H46.1821L45.8126 28.7562V22.106Z" fill="#4173CD"/>
</g>
<defs>
<clipPath id="clip0_106_16709">
<rect width="50" height="50" fill="white"/>
</clipPath>
</defs>
</svg>
