<svg width="50" height="50" viewBox="0 0 50 50" fill="none" xmlns="http://www.w3.org/2000/svg">
<g clip-path="url(#clip0_106_16699)">
<path d="M50.0009 25H0.000976562V9.48271C0.000976562 9.00664 0.387011 8.62061 0.863084 8.62061H49.1389C49.6149 8.62061 50.001 9.00664 50.001 9.48271L50.0009 25Z" fill="#F5F5F5"/>
<path d="M0.000976562 25H50.0009V40.5173C50.0009 40.9933 49.6148 41.3794 49.1388 41.3794H0.863084C0.387011 41.3794 0.000976562 40.9933 0.000976562 40.5173V25Z" fill="#73AF00"/>
<path d="M38.0377 18.2063C38.0377 18.2063 38.6336 19.8408 38.6847 19.926L38.7527 19.7897L39.1613 17.6615L40.2169 15.6865L39.9105 15.7206L37.5098 16.8783C37.5098 16.8783 36.0796 18.4447 36.0626 18.4958C36.0456 18.5469 38.0377 18.2063 38.0377 18.2063Z" fill="#FF4B55"/>
<path d="M38.8825 33.8364C38.8031 33.825 37.6225 33.8818 37.6225 33.8818L37.2367 32.5879L37.0154 30.1419L37.4325 30.0312L37.9518 30.2781L38.1391 29.2991C38.1391 29.2991 37.6879 28.8053 37.6028 28.7713C37.5176 28.7372 36.4961 28.5074 36.4961 28.5074L35.1255 26.6942L36.76 25.7834L38.037 24.0297L38.3434 22.4463L38.088 21.1352L37.5073 20.163C37.4987 20.1352 37.492 20.1138 37.492 20.1138C37.4879 20.1086 37.4736 20.0988 37.4645 20.0912L37.3559 19.9094L37.3542 20.0154C37.1023 19.8581 36.5868 19.5845 36.4535 19.5178C36.2833 19.4326 35.3808 19.2794 35.1935 19.4156C35.0062 19.5518 34.1379 19.9604 33.9847 20.2499C33.8315 20.5393 33.7294 21.5779 33.7294 21.5779C33.7294 21.5779 33.9847 22.1568 34.3083 22.293C34.6318 22.4292 35.2617 22.5824 35.3638 22.5483C35.452 22.5189 36.4514 22.2236 36.7241 22.0994L36.8451 22.344L36.794 23.0421L36.2322 23.4337L35.1936 23.8423C35.1936 23.8423 33.6102 23.3996 33.5421 23.4166C33.4741 23.4336 31.5161 22.8377 31.5161 22.8377L29.6773 22.412L30.2902 22.1056L31.9588 21.9864C31.9588 21.9864 32.2823 20.0966 32.3334 20.0625C32.3844 20.0284 33.4741 19.1601 33.4741 19.1601L34.3764 18.9389L33.8316 16.6289L34.6489 14.1091L32.5149 14.722L29.1325 15.5619L26.9759 15.4257L25.069 16.0386L23.8431 17.151L23.1393 18.1044L22.8896 19.6254L22.7306 21.6459L22.1404 22.7583L21.4717 23.2825C21.3967 23.0846 21.0452 22.327 21.0452 22.327L21.8965 22.1227L21.6752 21.5609L21.0793 21.1182L21.2666 20.4372L21.9476 20.8118L22.1349 20.948L22.2541 20.25L21.505 19.1944L21.6241 18.6666L22.5264 19.1434L22.4243 17.9175L21.6241 17.4237L21.6752 16.7427L22.5492 17.0037L22.4584 16.3567L21.505 15.6643L22.4356 14.166L21.3006 14.2229L21.2097 13.7347L20.9147 13.6211C20.9147 13.6211 19.3369 14.2908 19.2234 14.2681C19.1099 14.2454 17.8501 14.0752 17.7024 14.1093C17.5549 14.1434 17.0327 14.2795 17.0327 14.2795L16.885 14.8584L15.9203 14.6996L14.4901 14.5805L14.0588 15.1083L14.7398 15.3808C14.7398 15.3808 14.581 16.5839 14.6264 16.6747C14.6718 16.7654 15.0804 17.3558 15.0804 17.3558L14.1497 18.6269L15.1031 18.7632L16.4198 18.5589L16.3743 18.8767L18.1223 18.6951L17.7363 18.8994L17.237 20.3976L15.7841 23.3488L15.2733 25.9708L14.456 25.1195L13.9112 22.8721L13.0939 20.6587C13.0939 20.6587 12.9237 19.9776 12.8215 19.9606C12.7193 19.9436 12.2767 19.8585 12.2767 19.8585L11.7148 20.3182L10.9998 20.216L10.5912 20.7778L11.0509 21.4929C11.0509 21.4929 10.2847 21.7993 10.2847 21.8845C10.2847 21.9696 10.3357 22.4634 10.3868 22.4804C10.4379 22.4973 11.5956 22.4634 11.5956 22.4634L12.2936 23.7062L11.7488 25.1364L12.0213 25.6812L12.498 25.7493L12.9407 25.2386L14.473 29.8185C14.473 29.8185 14.3539 30.4144 14.2687 30.4655C14.1836 30.5166 13.775 30.9762 13.8771 30.9762C13.9793 30.9762 14.6093 31.0614 14.6773 31.0273C14.7454 30.9932 15.6308 30.3123 15.6308 30.3123C15.6308 30.3123 17.0268 29.2396 17.112 29.3248C17.1972 29.4099 18.5252 30.2271 18.5252 30.2271L17.9123 32.3383L16.4651 34.4496L15.5628 33.9047L14.9158 32.9853L14.4391 33.1385L14.2688 33.428L14.3369 34.0409C14.3369 34.0409 13.8432 34.4325 13.8432 34.5176C13.8432 34.6028 13.8942 35.2157 13.8942 35.2157C13.8942 35.2157 14.2178 35.3689 14.2348 35.4541C14.2518 35.5392 14.4221 36.1521 14.4221 36.1521L14.7626 36.2712L15.4096 35.8796H16.4822L17.1462 35.9818L18.5594 35.5391L20.6195 35.6413L20.4322 35.2497C20.4322 35.2497 19.5979 34.824 19.3085 34.7389C19.019 34.6538 18.7296 34.5857 18.7296 34.5857L18.6104 33.9898L20.6365 31.5891L21.3856 31.4359L21.641 32.0659C21.641 32.0659 22.4809 31.8616 22.4809 31.7934C22.4809 31.7254 22.4809 30.9988 22.4809 30.9307C22.4809 30.8627 22.2993 30.2952 22.2993 30.2952C22.2993 30.2952 22.2969 30.2743 22.2932 30.2431L22.9349 30.1362L25.1596 29.0693L25.9428 30.0114L26.919 30.4767L25.7045 32.656L24.6602 33.3598L23.9111 33.0193L22.8668 32.2474L22.4582 32.4972L22.549 33.2691L21.9361 33.2237L21.6637 33.7685L22.1177 34.4268L21.9587 34.949C21.9587 34.949 22.0722 35.4257 22.1857 35.4257C22.2992 35.4257 22.9803 35.1759 22.9803 35.1759L24.978 35.0171L26.4309 34.5404L27.9519 34.654C27.9519 34.654 28.247 33.6324 28.179 33.6324C28.1109 33.6324 28.0882 33.6096 27.9065 33.6096C27.7249 33.6096 27.0892 33.6324 27.0892 33.6324L27.0664 33.405L27.5658 32.4969L29.4954 30.8851L30.063 30.9987L30.2673 31.2937L30.8348 30.8625L30.8121 30.136L30.3128 29.6139L29.8132 29.0236L29.9722 28.1383L30.8348 28.5469C30.8348 28.5469 32.1969 29.5003 32.3103 29.5458C32.4239 29.5912 35.0572 30.2721 35.0572 30.2721L35.602 31.5661L35.3295 33.6091L34.4896 33.3594L33.6951 32.3379C33.6951 32.3379 33.468 32.2243 33.3546 32.247C33.2411 32.2698 32.9687 32.7238 32.9687 32.7238L33.2412 33.3594L32.8779 33.4729L32.5374 33.7L32.4693 34.1767L32.7871 34.4717C32.7871 34.4717 32.7871 35.0166 32.7871 35.0846C32.7871 35.1527 32.9687 35.4025 33.0369 35.4252C33.1049 35.4478 33.6271 35.5159 33.7519 35.5046C33.8767 35.4932 34.8075 35.1074 34.8075 35.1074C34.8075 35.1074 36.5554 35.1415 36.6009 35.1301C36.6464 35.1187 38.156 34.7896 38.156 34.7896L39.0073 34.9258C39.0073 34.9258 39.5749 34.4945 39.5521 34.4377C39.5294 34.3812 38.9619 33.8477 38.8825 33.8364ZM35.6191 21.5436C35.1594 21.5947 34.9211 21.7309 34.887 21.4756C34.8529 21.2202 34.8529 20.7094 34.904 20.6924C34.955 20.6754 35.4829 20.3688 35.4999 20.4199C35.5169 20.471 36.0447 20.7264 36.0447 20.7264L36.3662 21.3761C36.1965 21.4662 35.9349 21.5085 35.6191 21.5436Z" fill="#FF4B55"/>
<path d="M12.4139 17.3722C12.4139 17.3722 12.6012 16.4017 12.6522 16.4017C12.7033 16.4017 13.4014 16.1463 13.4014 16.1463L11.3242 14.8013C11.3242 14.8013 11.6817 16.4527 11.7158 16.589C11.7498 16.7251 12.4139 17.3722 12.4139 17.3722Z" fill="#FF4B55"/>
<path d="M17.6962 15.3752C17.7035 15.3768 17.7449 15.386 17.8082 15.3985L17.7925 15.4666C17.767 15.5762 17.8356 15.6863 17.9458 15.7113C17.9612 15.7151 17.9766 15.7166 17.9918 15.7166C18.0846 15.7166 18.1689 15.6527 18.1905 15.5581L18.2124 15.463C18.3595 15.4811 18.5215 15.4953 18.6781 15.4953C18.8103 15.4953 18.938 15.4857 19.0479 15.4601C19.1578 15.4346 19.2264 15.325 19.2009 15.2154C19.1753 15.1053 19.0666 15.035 18.9559 15.0622C18.6327 15.1383 18.0025 15.026 17.7875 14.977C17.6797 14.9514 17.5683 15.0201 17.5427 15.1303C17.5177 15.2405 17.5864 15.3502 17.6962 15.3752Z" fill="#464655"/>
<path d="M37.9237 18.6734L38.4385 20.2455C38.4663 20.3296 38.5447 20.386 38.6327 20.386C38.6356 20.386 38.6385 20.386 38.6417 20.386C38.7332 20.3817 38.8109 20.3174 38.8317 20.228C39.2084 18.6138 39.9622 16.0603 40.4952 15.6433C40.5694 15.5852 40.5941 15.4848 40.5555 15.3985C40.5172 15.3134 40.426 15.2644 40.3324 15.2815C40.2233 15.3017 37.6388 15.8052 35.8407 18.5021C35.7947 18.5713 35.7949 18.6612 35.8413 18.7299C35.8878 18.7985 35.9708 18.8305 36.0523 18.8155L37.5496 18.5059C37.3399 19.0114 37.2062 19.4561 37.1599 19.6195C36.4781 19.2046 35.7091 19.1307 35.1758 19.2688C34.5671 19.4284 34.0556 19.8164 33.7719 20.3335C33.5545 20.7298 33.4971 21.165 33.6142 21.5274C33.7502 21.9483 34.113 22.4719 34.7242 22.6777C35.1291 22.8152 35.7833 22.8457 36.6458 22.3119C36.6458 22.316 36.6464 22.3198 36.6463 22.3238C36.6405 22.6643 36.4658 22.942 36.1263 23.1501C35.4516 23.5635 34.2687 23.5911 33.49 23.2102C32.4631 22.709 30.9193 22.4236 30.0568 22.2942C30.5916 22.1237 31.2381 22.0757 32.0151 22.2537C32.0256 22.2564 32.0359 22.2522 32.0464 22.253C32.0516 22.2534 32.0556 22.2591 32.0609 22.2591C32.0666 22.2591 32.071 22.253 32.0766 22.2526C32.1236 22.2488 32.1691 22.2346 32.2036 22.2012C32.2042 22.2006 32.2043 22.1999 32.2046 22.1993C32.2048 22.1991 32.2052 22.1992 32.2052 22.1992C32.2062 22.1982 32.2059 22.1969 32.2066 22.1961C32.2396 22.1618 32.2542 22.1178 32.2583 22.0717C32.2592 22.0606 32.2605 22.0521 32.2597 22.0412C32.259 22.0319 32.2629 22.0231 32.261 22.0139C32.2587 22.0022 32.0322 20.8424 32.6555 20.0431C33.0301 19.5627 33.6428 19.3004 34.4765 19.2627C34.4897 19.262 34.5005 19.2546 34.513 19.2515C34.5311 19.2472 34.5491 19.2445 34.5654 19.2355C34.5802 19.2272 34.5907 19.2143 34.6031 19.2025C34.6134 19.1929 34.6262 19.187 34.6346 19.1748C34.6365 19.1723 34.6366 19.1692 34.6381 19.1665C34.6395 19.1642 34.6422 19.1633 34.6436 19.1609C34.6473 19.1546 34.6465 19.1472 34.6495 19.1405C34.6586 19.1201 34.6651 19.0996 34.6672 19.078C34.6683 19.0677 34.6683 19.0582 34.6676 19.0478C34.6665 19.0248 34.6612 19.0031 34.6524 18.9818C34.6502 18.9765 34.6513 18.9704 34.6486 18.9652C34.6321 18.9328 33.029 15.727 35.6409 13.5865C35.7258 13.5168 35.7403 13.3924 35.6742 13.3051C35.6077 13.2184 35.4845 13.1981 35.394 13.2614C32.8151 15.072 29.2508 15.2673 27.8382 15.2673C25.3185 15.2673 23.7266 16.216 22.9712 18.1671C22.8928 18.3699 22.8371 18.6102 22.7905 18.8677C22.8157 18.5066 22.7497 18.1902 22.5868 17.9256C22.3543 17.5482 21.9986 17.3902 21.8387 17.3353C21.8388 17.2428 21.8381 17.1511 21.8354 17.0611C22.1114 17.0186 22.4389 17.2329 22.547 17.3238C22.5847 17.3558 22.6319 17.3727 22.6794 17.3727C22.7107 17.3727 22.7425 17.3653 22.7714 17.3505C22.8447 17.3132 22.8889 17.236 22.8831 17.1542C22.8163 16.2041 22.1718 15.7424 21.7296 15.5861C22.1194 15.2764 22.5349 14.7694 22.7895 13.9427C22.8139 13.8628 22.7877 13.7762 22.7227 13.724C22.6579 13.6713 22.5674 13.6634 22.495 13.7038C22.4881 13.7077 22.0721 13.9329 21.447 14.1185L21.5041 13.3761C21.5096 13.3011 21.4738 13.2286 21.4099 13.1883C21.3464 13.1474 21.265 13.1457 21.1998 13.183C21.1892 13.1889 20.1431 13.776 19.0763 14.0859C18.271 13.8835 17.2229 13.7259 16.8256 14.1397C16.7298 14.2392 16.6406 14.401 16.6628 14.6516C15.9772 14.5085 14.4034 14.2743 13.448 14.8921C13.3728 14.9404 13.3381 15.0325 13.3624 15.1187C13.3868 15.205 13.4645 15.2656 13.5542 15.2678C13.8574 15.2752 14.3262 15.3449 14.5218 15.4742C14.4355 15.7067 14.293 16.1994 14.4175 16.6745C14.0028 16.7946 13.5678 16.8132 13.0387 16.5269L13.4999 16.4138C13.5826 16.3935 13.644 16.3239 13.6542 16.2392C13.664 16.1546 13.6204 16.0726 13.5448 16.0338C13.5331 16.0274 12.37 15.4225 11.4027 14.4057C11.3479 14.3487 11.2646 14.3279 11.1883 14.3535C11.1127 14.3796 11.0593 14.4472 11.0516 14.5265C11.0433 14.6084 10.8699 16.5413 12.3378 17.6875C12.3745 17.7157 12.4189 17.7306 12.4637 17.7306C12.4916 17.7306 12.5195 17.7247 12.5461 17.713C12.6147 17.6827 12.6615 17.6172 12.6674 17.5422L12.7243 16.812C13.4566 17.2505 14.063 17.2086 14.5831 17.0505C14.6483 17.1499 14.7312 17.2446 14.8358 17.3314C14.8526 17.3454 14.8757 17.3605 14.899 17.3759C14.5647 18.1584 13.901 18.3601 13.8726 18.368C13.7898 18.3919 13.7306 18.4648 13.7246 18.5505C13.7185 18.6361 13.7664 18.7164 13.8448 18.7515C13.8942 18.7733 14.9635 19.2357 16.1619 18.809L16.1431 18.9457C16.1351 19.0031 16.1521 19.0616 16.1901 19.1058C16.2279 19.1506 16.283 19.1766 16.3412 19.1777C16.3463 19.1777 16.3599 19.1783 16.381 19.1783C16.5186 19.1783 16.9751 19.1679 17.4926 19.049C17.4143 19.7801 16.9689 20.6513 16.4951 21.5705C15.8537 22.8157 15.1389 24.2201 15.1503 25.6383C14.9056 25.3215 14.6009 24.8275 14.4502 24.1718C14.398 23.944 14.3635 23.7397 14.3321 23.553C14.2558 23.1012 14.1897 22.7107 13.9227 22.3436C13.6208 21.9287 13.1938 21.0022 13.2124 20.4964C13.23 20.0287 12.9235 19.7536 12.6122 19.6882C12.5897 19.6836 12.5686 19.6893 12.5463 19.6867C12.4726 19.5382 12.2729 19.2537 11.8142 19.221C11.7037 19.2061 11.6037 19.2976 11.5957 19.4104C11.5877 19.5227 11.6724 19.6206 11.7849 19.6285C11.9449 19.6398 12.0441 19.701 12.1051 19.7619C11.9552 19.8389 11.8339 19.9675 11.7494 20.132C11.4759 19.9744 11.1995 19.9349 10.9881 19.9833C10.9333 19.9957 10.892 20.0253 10.8446 20.0476C10.7063 19.9755 10.3377 19.8381 9.89356 20.1205C9.79834 20.1806 9.77002 20.3072 9.83077 20.4025C9.86954 20.4638 9.93584 20.4972 10.0034 20.4972C10.0407 20.4972 10.0787 20.4871 10.1128 20.4653C10.2714 20.3646 10.4068 20.3514 10.5063 20.3641C10.4334 20.4991 10.3921 20.6477 10.3991 20.7862C10.4133 21.0613 10.5723 21.2747 10.8181 21.3651C10.5249 21.421 10.2765 21.5571 10.1438 21.7413C10.1223 21.7712 10.1179 21.8052 10.1024 21.8367C9.91573 21.856 9.62852 21.9816 9.44698 22.3655C9.39864 22.4672 9.44219 22.589 9.54405 22.6374C9.57247 22.6507 9.60205 22.6571 9.63135 22.6571C9.70801 22.6571 9.78135 22.614 9.81631 22.5401C9.89727 22.3692 9.99239 22.3015 10.0635 22.2706C10.2575 22.9106 10.8885 22.7649 11.269 22.6758L11.4215 22.6412C11.6349 22.5986 12.011 23.2217 12.1121 23.626C12.1823 23.9069 12.0621 24.2507 11.6832 24.8518C11.4531 25.2178 11.5193 25.4829 11.6156 25.6408C11.6176 25.644 11.6207 25.6458 11.6227 25.6488C11.5615 25.6672 11.4862 25.6803 11.3845 25.6669C11.2745 25.6446 11.1695 25.7297 11.1544 25.8415C11.1392 25.9532 11.2175 26.0564 11.3292 26.0714C11.3813 26.0788 11.4306 26.082 11.4771 26.082C11.7147 26.082 11.873 26.0009 11.9682 25.9344C12.1011 25.9913 12.2378 26.0127 12.3389 26.0049C12.6205 25.9815 12.8114 25.7346 12.9403 25.4281C13.3162 27.5006 14.18 29.425 14.3301 29.7496C14.2998 30.4839 13.5072 30.6562 13.4729 30.6637C13.3849 30.6818 13.3189 30.7552 13.3106 30.8452C13.3023 30.9345 13.3532 31.0187 13.4362 31.0527C13.7811 31.1936 14.0827 31.2502 14.3447 31.2502C15.1529 31.2502 15.5802 30.7171 15.7147 30.5117C16.3116 30.3038 17.0113 29.8171 17.2845 29.6179C17.7399 29.9592 18.1185 30.1484 18.245 30.2076C18.025 32.374 16.7548 33.8374 16.3832 34.2211C16.1315 34.077 15.5758 33.7211 15.3923 33.2969C15.2186 32.8962 14.8967 32.7833 14.6341 32.8067C14.5459 32.6928 14.3479 32.4803 14.0704 32.4498C13.934 32.4354 13.7269 32.4604 13.5165 32.6711C13.4366 32.7509 13.4366 32.8801 13.5165 32.9599C13.596 33.0398 13.7253 33.0403 13.8054 32.9605C13.9208 32.8451 13.9993 32.852 14.0249 32.8556C14.1036 32.864 14.1797 32.921 14.2397 32.9795C14.0908 33.1065 13.9985 33.2841 14.0135 33.4781C14.024 33.6143 14.0751 33.7424 14.1471 33.8616C13.9982 33.939 13.8189 34.0661 13.7009 34.267C13.6967 34.2743 13.6918 34.2857 13.6874 34.2937C13.4435 34.3092 13.0044 34.4814 12.936 35.0498C12.9228 35.1621 13.0025 35.2636 13.1145 35.2769C13.123 35.278 13.1311 35.2786 13.1394 35.2786C13.2413 35.2786 13.3296 35.2025 13.3421 35.0987C13.3665 34.8952 13.465 34.7972 13.5575 34.7483C13.5552 34.8321 13.5621 34.9193 13.5922 35.0104C13.6628 35.2249 13.8294 35.3988 14.0782 35.534C14.0519 35.6178 14.0348 35.7071 14.0325 35.8037C13.9012 35.87 13.7074 35.9935 13.6082 36.2039C13.534 36.3609 13.5294 36.5364 13.5946 36.712C13.6252 36.7944 13.7031 36.845 13.7862 36.845C13.81 36.845 13.8341 36.8407 13.8575 36.8323C13.9635 36.7929 14.0171 36.6752 13.9777 36.5695C13.9421 36.4743 13.9604 36.4152 13.9775 36.379C14.0077 36.3146 14.0678 36.2605 14.129 36.2185C14.2048 36.3545 14.3192 36.4582 14.4724 36.5087C14.5423 36.5316 14.6149 36.5428 14.6879 36.5428C14.931 36.5428 15.1774 36.4199 15.3354 36.2061C15.5246 35.9497 15.8946 36.0965 15.9186 36.1067C16.6923 36.3876 17.7375 36.1758 18.3701 35.8205C18.721 35.623 19.9573 35.7295 20.6545 35.8438C20.709 35.8512 20.767 35.8379 20.812 35.8044C20.8567 35.7699 20.8851 35.7188 20.8908 35.6625C20.9613 34.957 20.0485 34.7697 19.3151 34.6191C19.1153 34.5782 18.9252 34.5392 18.7458 34.4627C18.6742 34.0488 19.7498 32.542 20.7746 31.7885C21.0258 31.604 21.2279 31.5299 21.3292 31.5842C21.4739 31.6635 21.5199 32.0328 21.5053 32.2573C21.5049 32.2632 21.5083 32.2683 21.5084 32.2742C21.5086 32.2964 21.5128 32.3179 21.5206 32.3395C21.5239 32.3487 21.5264 32.3572 21.5309 32.3657C21.5338 32.3712 21.5341 32.3771 21.5374 32.3823C21.5491 32.4003 21.5649 32.4134 21.5807 32.4263C21.5839 32.4289 21.5849 32.4331 21.5883 32.4355C21.589 32.4361 21.59 32.4359 21.59 32.4359C21.6165 32.4547 21.6456 32.4659 21.6763 32.471C21.6843 32.4722 21.6917 32.4711 21.6996 32.4713C21.7224 32.4725 21.7445 32.4702 21.767 32.4633C21.7722 32.4619 21.7778 32.4634 21.783 32.4615C21.7996 32.455 21.8176 32.4459 21.8345 32.4389C21.9434 32.3831 22.1281 32.4454 22.2573 32.5116C22.2333 32.5861 22.2187 32.6638 22.2257 32.7482C22.2342 32.8536 22.267 32.9584 22.318 33.0589C22.1156 33.0361 21.9262 33.0589 21.7891 33.1643C21.7402 33.2018 21.7016 33.2491 21.6627 33.2958C21.3751 33.3242 21.0154 33.5054 20.93 33.9336C20.9079 34.0443 20.9794 34.1517 21.0901 34.1742C21.1037 34.1769 21.1173 34.178 21.1305 34.178C21.2258 34.178 21.3111 34.111 21.3306 34.0135C21.3512 33.9113 21.4035 33.8494 21.4611 33.8028C21.4594 33.8774 21.4674 33.9513 21.4894 34.021C21.5294 34.1473 21.6374 34.3358 21.912 34.4412C21.8873 34.4832 21.866 34.5279 21.8471 34.5736C21.6427 34.6393 21.3346 34.8514 21.3346 35.3015C21.3346 35.4143 21.4262 35.5058 21.5389 35.5058C21.6517 35.5058 21.7432 35.4143 21.7432 35.3015C21.7432 35.222 21.763 35.1643 21.7889 35.1166C21.7955 35.146 21.8003 35.1763 21.8108 35.2041C21.8602 35.3334 22.009 35.5759 22.4256 35.5759C22.5629 35.5759 22.7288 35.5499 22.93 35.4844C23.4176 35.3264 23.7632 35.3098 24.0973 35.2934C24.4969 35.2743 24.8744 35.2556 25.4047 35.0098C26.1686 34.6549 27.115 34.7753 27.6108 34.8789C27.8795 34.9342 28.1423 34.8022 28.2506 34.5559C28.2878 34.4719 28.3121 34.3984 28.3378 34.3237C28.5689 34.3514 28.6168 34.576 28.623 34.6255C28.6344 34.7298 28.7228 34.8076 28.8257 34.8076C28.8327 34.8076 28.8399 34.807 28.8469 34.8065C28.9592 34.7948 29.0409 34.6942 29.0292 34.5819C29.0071 34.3684 28.8489 33.9854 28.4256 33.9188C28.4309 33.7739 28.4027 33.6545 28.3317 33.5667C28.254 33.4709 28.0995 33.3704 27.7966 33.4326C27.4833 33.4974 27.3391 33.5103 27.2741 33.5045C27.2839 33.4646 27.3071 33.3938 27.361 33.273C27.5435 32.8623 28.7553 31.779 29.5488 31.1304C29.7401 31.0874 29.9828 31.0846 30.0387 31.1485C30.0585 31.1703 30.0585 31.2454 30.0137 31.364C29.9818 31.4481 30.0087 31.5428 30.0795 31.5976C30.15 31.6525 30.2484 31.655 30.3218 31.604C30.3535 31.5817 31.0947 31.0553 31.0798 30.4143C31.0721 30.0903 30.8833 29.8089 30.5182 29.5779C30.2089 29.3827 30.0311 29.1564 29.9897 28.9064C29.9464 28.6449 30.0579 28.4128 30.1324 28.2891C30.4251 28.4295 30.7188 28.6108 31.0113 28.8526C32.7366 30.2793 34.2048 30.5064 34.9979 30.5027C35.1643 30.8703 35.6528 32.1243 35.2358 33.4124C35.0139 33.373 34.5782 33.2314 34.2792 32.733C33.9884 32.2488 33.6396 32.1275 33.3978 32.1115C33.0219 32.0822 32.6231 32.2961 32.3097 32.6877C32.2427 32.7717 32.252 32.893 32.3307 32.9654C32.4097 33.0382 32.5318 33.0379 32.6092 32.9643C32.6614 32.9148 32.7585 32.8547 32.8003 32.8872L32.8426 33.0052C32.8653 33.0707 32.8884 33.1367 32.916 33.2004C32.7535 33.2244 32.597 33.2909 32.475 33.4293C32.3945 33.5205 32.3438 33.6257 32.3072 33.7341C31.933 33.801 31.7291 34.0849 31.7205 34.098C31.6582 34.1911 31.6836 34.3161 31.776 34.379C31.8108 34.4029 31.8508 34.4146 31.8902 34.4146C31.9554 34.4146 32.0195 34.3837 32.0593 34.3262C32.0632 34.321 32.1387 34.2186 32.2738 34.1613C32.2907 34.2382 32.3183 34.3127 32.3602 34.3804C32.4307 34.4941 32.5308 34.5702 32.6444 34.6107C32.6291 34.6698 32.616 34.7342 32.6075 34.8036C32.6032 34.805 32.5987 34.8044 32.5943 34.806C32.105 35.012 32.2048 35.62 32.3258 35.9127C32.3586 35.9915 32.4343 36.0387 32.5144 36.0387C32.5405 36.0387 32.5668 36.0335 32.5921 36.0233C32.6964 35.9802 32.7461 35.861 32.7036 35.7567C32.7021 35.7528 32.5873 35.4525 32.6611 35.2815C32.663 35.2861 32.6635 35.291 32.6655 35.2955C32.7501 35.4865 32.9131 35.6227 33.137 35.6898C33.2471 35.7228 33.3525 35.7367 33.4533 35.7367C33.7877 35.7367 34.0714 35.5818 34.3104 35.451C34.4964 35.3494 34.6722 35.2563 34.8108 35.2659C34.9117 35.2754 35.0271 35.2936 35.1537 35.3131C35.6315 35.3877 36.2864 35.4887 36.9363 35.2796C37.0573 35.2409 37.1668 35.203 37.2672 35.1684C37.7954 34.9875 37.9926 34.9199 38.3154 35.1036C38.7062 35.3271 39.21 35.1769 39.4697 34.9031C39.551 34.8172 39.5979 34.7215 39.6231 34.6246C39.7564 34.6777 39.8644 34.735 39.8817 34.767C39.8436 34.8734 39.899 34.9899 40.0054 35.0282C40.0281 35.0362 40.0512 35.0399 40.0741 35.0399C40.1579 35.0399 40.2366 34.9877 40.2664 34.9043C40.3048 34.7973 40.2955 34.6872 40.2402 34.5861C40.1051 34.3402 39.7098 34.2082 39.5119 34.1557C39.1849 33.7115 38.6865 33.5731 37.8629 33.7034C37.8302 33.7082 37.8046 33.7023 37.7765 33.679C37.4758 33.4359 37.4097 32.1727 37.3703 31.4187C37.3386 30.8154 37.317 30.4653 37.2245 30.2971C37.2717 30.2584 37.5304 30.2535 37.6915 30.3711C37.7693 30.4285 37.7769 30.4801 37.7583 30.5386C37.7551 30.5471 37.7522 30.5551 37.7493 30.5631C37.7094 30.6673 37.761 30.7849 37.865 30.8258C37.969 30.8657 38.0869 30.8168 38.1291 30.713C38.1353 30.6987 38.1406 30.6838 38.1455 30.6694C38.2183 30.4624 38.5167 29.5249 38.1652 28.9311C38.0072 28.6645 37.7499 28.5054 37.4001 28.4582C36.5089 28.3381 35.8297 27.7686 35.3731 26.7762C36.065 26.5332 38.102 25.6098 38.4829 23.0614C38.7359 21.3674 38.1288 20.4186 37.5747 19.9212C37.5482 19.8973 37.5195 19.8793 37.4924 19.8568C37.5084 19.836 37.5289 19.8189 37.5361 19.792C37.5385 19.7829 37.6786 19.2676 37.9237 18.6734ZM36.4811 18.3093C37.6456 16.7939 39.0736 16.1193 39.8458 15.8469C39.3393 16.7594 38.8567 18.4662 38.6051 19.4409L38.18 18.1427C38.1784 18.1376 38.1731 18.1354 38.1712 18.1306C38.2958 17.8847 38.436 17.6466 38.5905 17.4456C38.6591 17.3562 38.6423 17.228 38.553 17.1594C38.4633 17.0902 38.3354 17.1072 38.2665 17.1967C38.0736 17.4474 37.9037 17.7448 37.757 18.0453L36.4811 18.3093ZM12.2926 17.094C11.6632 16.4273 11.4992 15.5622 11.4617 15.0366C12.0002 15.5356 12.5434 15.9093 12.9097 16.1369L12.5841 16.2169C12.5219 16.167 12.4608 16.1209 12.3958 16.0625C12.3125 15.9875 12.1835 15.9949 12.1074 16.0779C12.0318 16.162 12.0388 16.2913 12.1229 16.3668C12.1958 16.4323 12.2651 16.4827 12.3356 16.5389L12.2926 17.094ZM27.7039 23.8337C27.322 22.8147 26.1696 20.3753 23.3464 18.3343C23.3486 18.3283 23.3501 18.3205 23.3523 18.3146C23.3886 18.2211 23.4358 18.1405 23.4763 18.052C27.7509 19.1444 30.3526 20.9215 31.392 21.7488C29.2685 21.5923 28.1453 23.0549 27.7039 23.8337ZM32.3313 19.7937C31.88 20.3738 31.8012 21.0804 31.8101 21.5574C30.8728 20.7727 28.2381 18.8628 23.6559 17.6778C23.7152 17.575 23.7862 17.4855 23.8525 17.3907C23.8673 17.3941 23.8815 17.3994 23.8971 17.4004C29.5348 17.1581 32.6802 18.3687 33.8322 18.9392C33.1858 19.0703 32.6765 19.3499 32.3313 19.7937ZM27.8383 15.6756C29.0844 15.6756 31.9613 15.5262 34.4425 14.2965C33.3775 15.9007 33.7603 17.7014 34.0613 18.591C32.9186 18.0057 29.8241 16.7901 24.1799 16.9848C24.9941 16.1127 26.1979 15.6756 27.8383 15.6756ZM23.0464 20.0289C23.0972 19.5671 23.148 19.1278 23.2282 18.7578C25.9415 20.7691 27.0342 23.2004 27.3575 24.0819C26.6911 23.9325 26.0875 23.9809 25.5672 24.2492C25.1414 24.469 24.8443 24.7921 24.6407 25.0879C24.55 24.0597 24.2105 22.2252 22.9708 20.7806C22.9668 20.7761 22.9612 20.774 22.9569 20.7698C22.9901 20.5214 23.0195 20.2723 23.0464 20.0289ZM22.7883 26.2663C21.8388 26.045 21.44 25.0883 21.4217 25.0431C21.3967 24.9814 21.3432 24.9351 21.2782 24.9202C21.2628 24.917 21.2473 24.9149 21.2319 24.9149C21.1821 24.9149 21.1336 24.9336 21.0955 24.9677C20.4134 25.5811 19.5789 25.7428 19.1622 25.7854C19.4915 24.751 20.4176 24.2137 21.6634 23.4906L21.7208 23.4571C22.0313 23.2768 22.2554 23.0032 22.4305 22.6813C22.4304 23.1955 22.4579 23.7682 22.5523 24.2504C22.5715 24.3478 22.6568 24.4153 22.7526 24.4153C22.7657 24.4153 22.7789 24.4142 22.7923 24.4115C22.9029 24.3897 22.975 24.2822 22.9535 24.1716C22.7491 23.1289 22.8785 21.5605 22.8972 21.3493C24.0855 22.9533 24.2428 24.9775 24.2606 25.6377C23.5636 25.5171 23.1752 24.9754 23.1711 24.9698C23.133 24.9144 23.0705 24.8814 23.0037 24.8814H23.0029C22.9364 24.8814 22.8741 24.9134 22.8359 24.9677C22.534 25.3953 22.6518 25.9225 22.7883 26.2663ZM22.0646 20.6764C21.9063 20.4816 21.6934 20.2673 21.4825 20.1731C21.5302 19.9828 21.5749 19.7803 21.6155 19.5675C21.8342 19.7471 22.165 20.1169 22.0646 20.6764ZM21.1443 21.4067C21.2055 21.4157 21.5778 21.4877 21.7325 21.9657C21.5593 21.9358 21.3554 21.9515 21.1496 22.0624C21.1167 21.8708 21.1102 21.6522 21.1443 21.4067ZM21.8739 22.4545C21.933 22.5 22.0114 22.5055 22.0787 22.4764C21.9601 22.6965 21.8112 22.8784 21.6279 23.0151C21.5278 22.914 21.3805 22.7332 21.2694 22.4713C21.5721 22.2508 21.8436 22.4326 21.8739 22.4545ZM22.5781 19.4426C22.6494 19.4242 22.7046 19.3677 22.7231 19.2963C22.6933 19.5185 22.6661 19.7473 22.64 19.9842C22.5545 20.761 22.4611 21.6023 22.1964 22.241C22.1213 21.3824 21.5609 21.0664 21.2328 21.0094C21.2503 20.9501 21.2661 20.8917 21.2884 20.8299C21.3174 20.7492 21.346 20.6624 21.374 20.5708C21.5607 20.6886 21.8187 21.0074 21.9634 21.2294C22.0014 21.2879 22.0657 21.3224 22.1346 21.3224C22.1394 21.3224 22.1442 21.3224 22.149 21.3219C22.2232 21.3166 22.2887 21.2713 22.3198 21.2043C22.8088 20.1525 22.1505 19.4025 21.6924 19.1196C21.7039 19.0447 21.7154 18.9699 21.7259 18.8938C21.9915 19.0186 22.2749 19.2757 22.377 19.3847C22.4162 19.4266 22.4705 19.4495 22.5262 19.4495C22.5435 19.4495 22.5608 19.4473 22.5781 19.4426ZM22.2389 18.1395C22.3554 18.329 22.4045 18.562 22.3858 18.8354C22.2199 18.6977 22.0009 18.5489 21.7764 18.4696C21.8006 18.2374 21.8187 18.0043 21.8292 17.7742C21.9532 17.8361 22.1204 17.9472 22.2389 18.1395ZM22.3865 16.7514C22.2187 16.6781 22.017 16.6284 21.8098 16.6511C21.789 16.4237 21.7558 16.2123 21.7095 16.0209C21.9244 16.1219 22.233 16.3329 22.3865 16.7514ZM21.0681 13.7144L21.0288 14.226C20.7118 14.2966 20.3632 14.3496 19.9936 14.3582C19.9383 14.3391 19.8611 14.3132 19.7714 14.2843C20.2973 14.0897 20.7697 13.8662 21.0681 13.7144ZM15.0977 17.0169C15.0557 16.9817 15.0186 16.9444 14.9864 16.9057C15.0267 16.8897 15.0665 16.8737 15.1056 16.8584C15.3892 16.7445 15.6567 16.6371 15.9142 16.6227C16.493 16.5871 16.6618 16.8158 16.6996 16.8861C16.7382 16.958 16.732 17.0213 16.7092 17.0526C16.6129 17.1836 16.4585 17.2622 16.2502 17.2878C15.7744 17.342 15.208 17.109 15.0977 17.0169ZM16.5331 18.3131C16.4714 18.2683 16.39 18.2614 16.3226 18.2966C15.6217 18.6467 14.9241 18.6025 14.4811 18.5141C14.7471 18.3329 15.059 18.0289 15.2675 17.5489C15.5063 17.6355 15.8031 17.7054 16.0967 17.7054C16.1647 17.7054 16.2327 17.7012 16.2994 17.6931C16.6191 17.6543 16.8745 17.5164 17.0382 17.2951C17.1613 17.1275 17.1693 16.8961 17.059 16.6918C16.9733 16.5333 16.6884 16.1678 15.892 16.215C15.5672 16.2326 15.2554 16.3576 14.9537 16.4789C14.9054 16.498 14.8568 16.5177 14.8088 16.5363C14.6992 16.0527 14.9439 15.5195 14.9474 15.5126C14.9776 15.4477 14.9722 15.3717 14.9325 15.312C14.8189 15.1412 14.5928 15.0349 14.355 14.9683C15.4563 14.7379 16.8703 15.1183 16.8876 15.1231C16.9632 15.1429 17.0425 15.121 17.094 15.0625C17.1457 15.0051 17.1603 14.923 17.1318 14.8508C17.0496 14.6437 17.046 14.4996 17.1206 14.4219C17.4383 14.0909 18.9337 14.4181 19.8931 14.7555C19.916 14.7635 19.9415 14.7613 19.9641 14.7672C20.9096 14.7523 21.7359 14.4819 22.2252 14.2798C21.6729 15.479 20.7336 15.6476 20.6894 15.6552C20.5786 15.6727 20.5027 15.7765 20.5197 15.8877C20.5367 15.9994 20.6413 16.0776 20.7528 16.059C20.7744 16.0556 20.974 16.0208 21.2459 15.89C21.6505 17.0094 21.3336 19.4976 20.9039 20.6911C20.423 22.0271 20.9564 22.8756 21.283 23.2397C19.9926 23.9905 18.9838 24.6284 18.7014 25.9389C18.701 25.94 18.7 25.9409 18.6996 25.9421C18.6928 25.9634 18.6237 26.193 18.544 26.6026C18.0439 26.2703 17.112 24.9061 17.6137 23.3072C17.7504 22.8709 17.9111 22.4441 18.0665 22.0313C18.5282 20.8055 18.9632 19.6468 18.6393 18.5615C18.7657 18.4709 18.8841 18.3692 18.9864 18.25C19.3427 17.835 19.4671 17.3045 19.3564 16.6729C19.3373 16.5612 19.2316 16.4856 19.1199 16.507C19.0091 16.5262 18.9345 16.632 18.9542 16.7433C19.0438 17.2557 18.9531 17.661 18.6767 17.9835C18.1426 18.6071 17.0563 18.7358 16.5815 18.7619L16.6167 18.5065C16.6267 18.4317 16.5945 18.3571 16.5331 18.3131ZM18.3672 27.6289C18.0153 28.0591 17.3012 28.6311 17.0238 28.8473C16.7678 28.6032 16.5113 28.3133 16.2853 27.9738C17.3308 27.7966 17.9582 27.1476 18.1934 26.8468C18.2718 26.9134 18.3464 26.967 18.4122 27.0021C18.4312 27.0124 18.4517 27.0134 18.4719 27.017C18.4444 27.192 18.4183 27.3903 18.3936 27.6073C18.3849 27.6147 18.3747 27.6197 18.3672 27.6289ZM15.8807 23.9051C16.0452 23.9513 16.472 24.0603 16.8657 24.0603C16.9378 24.0603 17.0023 24.047 17.07 24.0386C17.0555 24.2901 17.0679 24.5323 17.1031 24.7627C16.7773 24.9748 16.0182 24.9927 15.6082 24.9751C15.663 24.6174 15.757 24.2598 15.8807 23.9051ZM16.3921 22.6857C16.5427 22.7218 16.8379 22.7817 17.136 22.7817C17.2134 22.7817 17.2903 22.7771 17.3652 22.7674C17.3172 22.9059 17.2681 23.0433 17.2235 23.1849C17.1766 23.3345 17.1442 23.4812 17.1182 23.6264C17.1167 23.6266 17.1151 23.6262 17.1137 23.6265C16.8104 23.7014 16.29 23.5932 16.0243 23.5209C16.1371 23.239 16.2601 22.9598 16.3921 22.6857ZM16.859 21.757C16.9118 21.6545 16.9639 21.5529 17.0156 21.4516C17.1934 21.4944 17.544 21.5748 17.7895 21.6054C17.7545 21.6991 17.7199 21.7922 17.684 21.888C17.6297 22.032 17.5752 22.1804 17.5206 22.3278C17.4953 22.3257 17.4691 22.3277 17.4434 22.3359C17.2014 22.4107 16.823 22.3596 16.578 22.3087C16.6718 22.122 16.7661 21.9374 16.859 21.757ZM17.5071 20.4238C17.6542 20.4795 17.8896 20.5536 18.1273 20.5536C18.1348 20.5536 18.1416 20.5504 18.1491 20.5503C18.0876 20.7639 18.0137 20.9843 17.9337 21.2088C17.8199 21.2075 17.4862 21.1412 17.2045 21.0759C17.314 20.8548 17.4152 20.6375 17.5071 20.4238ZM17.7894 19.643C17.905 19.6511 18.012 19.6564 18.1023 19.6564C18.1915 19.6564 18.2625 19.6506 18.327 19.6427C18.3128 19.8014 18.2901 19.9624 18.2552 20.1269C18.1001 20.1728 17.8467 20.1134 17.659 20.0439C17.709 19.9083 17.7526 19.7746 17.7894 19.643ZM15.8704 25.3895C16.2617 25.3895 16.8091 25.3449 17.1871 25.1693C17.2401 25.3627 17.3069 25.5449 17.3832 25.7144C16.6812 26.2021 15.8971 26.3143 15.6196 26.3374C15.5892 26.1684 15.5671 25.9936 15.5565 25.8115C15.5483 25.6689 15.5538 25.5257 15.5621 25.3823C15.6416 25.3859 15.7462 25.3895 15.8704 25.3895ZM17.5732 26.0787C17.6787 26.2579 17.791 26.4182 17.9038 26.5525C17.7301 26.7828 17.1176 27.4868 16.0623 27.6011C15.9216 27.3388 15.8029 27.0515 15.7144 26.7398C16.0705 26.705 16.8476 26.5672 17.5732 26.0787ZM18.2701 18.7805C18.3066 18.9283 18.3276 19.0787 18.3353 19.2313C18.2835 19.2479 18.0896 19.2495 17.8804 19.2386C17.8972 19.1337 17.9067 19.0307 17.911 18.9291C18.0321 18.8874 18.1526 18.8375 18.2701 18.7805ZM15.5187 30.145C15.4658 30.162 15.4217 30.1993 15.3969 30.2488C15.3801 30.2823 15.0341 30.9548 14.121 30.8235C14.4439 30.6107 14.7397 30.2526 14.7397 29.705C14.7397 29.6748 14.7331 29.6449 14.72 29.6177C14.7067 29.5895 13.3776 26.7547 13.1953 24.2189C13.1876 24.1125 13.0993 24.0301 12.9926 24.0295H12.9915C12.8853 24.0295 12.7968 24.1108 12.788 24.2168C12.7351 24.8547 12.5238 25.5783 12.3049 25.5964C12.2243 25.6049 12.0357 25.5442 11.9649 25.4277C11.9122 25.341 11.9341 25.2202 12.0293 25.0691C12.401 24.4785 12.6247 23.9907 12.5087 23.5261C12.4116 23.1373 11.9575 22.1146 11.3374 22.2401L11.1757 22.2768C10.6486 22.4018 10.513 22.3752 10.4476 22.1369C10.4313 22.0773 10.4401 22.0289 10.4758 21.9794C10.5652 21.855 10.7939 21.7618 11.0454 21.7473C11.5171 21.7218 11.7052 21.9229 11.7102 21.9288C11.7725 22.0044 11.8786 22.0246 11.9643 21.9794C12.0499 21.9336 12.0917 21.8336 12.0637 21.7405C12.0557 21.7144 11.8626 21.1005 11.0414 21.0005C10.857 20.9782 10.8126 20.8596 10.8076 20.7648C10.7996 20.6078 10.8989 20.4217 11.0789 20.3806C11.4019 20.3088 12.0045 20.5828 12.2656 21.6273C12.293 21.7375 12.4063 21.8009 12.5133 21.7763C12.6228 21.7486 12.6894 21.638 12.662 21.5284C12.5283 20.9938 12.3117 20.6273 12.0695 20.3804C12.0737 20.3728 12.0801 20.3672 12.0834 20.3589C12.1813 20.1098 12.383 20.0582 12.5288 20.0876C12.668 20.1169 12.8138 20.2355 12.8047 20.4807C12.7794 21.1576 13.3144 22.2009 13.5926 22.5835C13.8032 22.8729 13.8562 23.1863 13.9293 23.6204C13.962 23.814 13.9979 24.0258 14.0522 24.2627C14.3231 25.4417 15.0352 26.156 15.2026 26.3113C15.4237 27.7294 16.2225 28.7197 16.955 29.3499C16.6395 29.5736 16.0125 29.991 15.5187 30.145ZM17.3341 29.1237C17.5699 28.9381 17.9855 28.5985 18.3339 28.259C18.3046 28.6569 18.2831 29.094 18.2811 29.5905C18.2809 29.6485 18.2761 29.7039 18.2743 29.761C18.0724 29.6527 17.7224 29.4445 17.3341 29.1237ZM29.9542 27.762L30.31 26.7082C30.658 26.8317 30.9859 26.9731 31.2941 27.1278L30.6145 28.0765C30.3985 27.9501 30.1784 27.8453 29.9542 27.762ZM29.5634 27.6411C29.3726 27.5921 29.1795 27.556 28.9839 27.5371L29.1161 26.3842C29.1636 26.3932 29.2123 26.3982 29.2594 26.4083C29.4877 26.4575 29.7067 26.5173 29.9211 26.5819L29.5634 27.6411ZM28.5746 27.5198C28.3729 27.5216 28.1692 27.5398 27.9635 27.5726L27.8512 26.2816C28.14 26.2777 28.4282 26.2899 28.7119 26.3218L28.5746 27.5198ZM27.4426 26.2985L27.5605 27.6548C27.3497 27.7083 27.1368 27.7803 26.9227 27.8656L26.5622 26.3945C26.8512 26.3501 27.1455 26.317 27.4426 26.2985ZM26.8139 30.2235C26.6501 30.1658 26.4965 30.0875 26.3512 30.0007L27.0816 28.6143C27.0987 28.6339 27.1173 28.6506 27.1315 28.6744C27.2042 28.7967 27.215 28.958 27.1639 29.1538C27.0961 29.4141 26.9743 29.7975 26.8139 30.2235ZM25.9086 28.8648C26.1615 28.6962 26.4395 28.5345 26.7361 28.3939L26.0108 29.7706C25.7317 29.5546 25.5154 29.3291 25.393 29.1883C25.5634 29.0868 25.7354 28.9801 25.9086 28.8648ZM26.1584 26.4633L26.543 28.0327C26.346 28.1276 26.1476 28.2359 25.9484 28.3574L25.3567 26.6409C25.6123 26.5756 25.8818 26.5159 26.1584 26.4633ZM24.9614 26.7478L25.585 28.5568C25.5879 28.5649 25.5958 28.5685 25.5995 28.5759C25.3504 28.7389 25.104 28.8847 24.8618 29.0189L24.2577 26.9681C24.4729 26.8954 24.7077 26.8207 24.9614 26.7478ZM23.8715 27.104L24.4925 29.2123C24.4928 29.2137 24.4945 29.2144 24.4949 29.2158C24.2236 29.3547 23.9635 29.4774 23.7243 29.5811L23.0487 27.4724C23.0573 27.4578 23.0668 27.4388 23.0752 27.4252C23.1873 27.3747 23.4702 27.2517 23.8715 27.104ZM22.7887 27.9989L23.346 29.7381C22.9207 29.9069 22.5885 30.0144 22.4231 30.0638C22.3169 29.3876 22.5389 28.5875 22.7887 27.9989ZM22.6683 31.7364C22.8067 31.4039 22.7658 30.9941 22.5433 30.4855C22.5393 30.4764 22.5353 30.4674 22.5316 30.4578C22.8745 30.3576 23.8774 30.0303 25.0312 29.3933C25.2374 29.6429 25.8472 30.3098 26.6648 30.6026C26.2006 31.7381 25.5075 33.011 24.8093 33.1239C24.224 33.2165 23.9071 32.8674 23.6011 32.5274C23.3344 32.2316 23.0313 31.8963 22.6013 32.123C22.5678 32.1407 22.5427 32.1633 22.5135 32.1836C22.4802 32.1641 22.4343 32.1402 22.3801 32.1154C22.4973 32.013 22.6029 31.8939 22.6683 31.7364ZM29.5859 28.9675C29.6457 29.3394 29.886 29.6609 30.3003 29.9231C30.5421 30.0758 30.6669 30.2439 30.6713 30.4227C30.6761 30.6137 30.5514 30.8127 30.4101 30.9739C30.3907 30.934 30.3671 30.901 30.3427 30.8745C30.0821 30.585 29.5152 30.7154 29.404 30.7446C29.3757 30.7515 29.3495 30.7654 29.3268 30.7834C29.1174 30.9536 27.2717 32.4673 26.9876 33.1063C26.8811 33.3458 26.7894 33.5942 26.9331 33.7725C27.0829 33.9587 27.3694 33.938 27.8801 33.8321C27.924 33.823 27.9556 33.8204 27.977 33.8204C28.0014 33.8204 28.0134 33.8204 28.0134 33.8231C28.0307 33.8524 28.0423 34.0168 27.8767 34.3902C27.8466 34.4578 27.7706 34.4934 27.6942 34.478C27.1491 34.3652 26.1036 34.2353 25.2326 34.6386C24.7747 34.8509 24.4515 34.8664 24.0775 34.8844C23.7332 34.9009 23.3432 34.9201 22.8038 35.0951C22.6796 35.1349 22.2675 35.2526 22.1922 35.0568C22.1293 34.8922 22.2518 34.6043 22.3819 34.5199C23.186 34.5511 23.5137 34.5514 23.5137 34.5514C23.6265 34.5514 23.718 34.4599 23.718 34.3471C23.718 34.2343 23.6265 34.1428 23.5137 34.1428C23.5103 34.1428 23.1714 34.1428 22.3302 34.1087C22.1849 34.1029 21.933 34.0678 21.8788 33.8964C21.8384 33.7693 21.9096 33.5857 22.0379 33.4878C22.1491 33.4016 22.5239 33.4963 22.8902 33.6544C23.0065 33.7277 23.1275 33.7868 23.2448 33.8256C23.3442 33.8613 23.4542 33.8108 23.4965 33.7139C23.539 33.617 23.5008 33.5044 23.4081 33.4533C23.3354 33.4128 23.2168 33.3505 23.0737 33.2868C22.8359 33.1255 22.6475 32.8947 22.6329 32.7142C22.6276 32.6494 22.6406 32.5642 22.7917 32.4849C22.9228 32.4163 23.0168 32.4908 23.2973 32.8015C23.6232 33.1629 24.0682 33.6534 24.8744 33.5273C26.444 33.273 27.5488 29.2969 27.5591 29.2569C27.6386 28.952 27.6132 28.686 27.4828 28.4663C27.4075 28.3392 27.3106 28.2567 27.2181 28.1936C27.9888 27.9163 28.8577 27.8215 29.7497 28.1304C29.6478 28.3177 29.5301 28.6216 29.5859 28.9675ZM30.9588 28.2975L31.6574 27.3224C31.9119 27.4653 32.1508 27.6153 32.3753 27.7704L31.4793 28.6964C31.4096 28.6422 31.3421 28.5955 31.2715 28.5371C31.1684 28.4518 31.0642 28.3719 30.9588 28.2975ZM32.7101 29.4927L33.6076 28.7778C33.7804 28.9448 33.938 29.108 34.0773 29.262L33.3516 29.7777C33.1478 29.7015 32.9338 29.6071 32.7101 29.4927ZM32.3201 29.2813C32.1528 29.1819 31.9812 29.0707 31.8057 28.9466L32.7105 28.0117C32.9231 28.1725 33.1225 28.3353 33.3044 28.4969L32.3201 29.2813ZM33.8378 29.9335L34.3453 29.5727C34.5117 29.7732 34.6462 29.9512 34.7433 30.0882C34.491 30.0732 34.1831 30.0259 33.8378 29.9335ZM38.0787 23.0005C37.7176 25.4176 35.7807 26.2188 35.204 26.4057C34.7192 25.3151 33.9154 24.3976 33.3804 24.1204C33.281 24.0693 33.1573 24.1081 33.1051 24.2077C33.0533 24.3083 33.0924 24.4312 33.1926 24.4834C33.6002 24.6946 34.4253 25.5539 34.9019 26.7281C35.4162 27.9949 36.2384 28.7133 37.3455 28.8632C37.5681 28.8931 37.7211 28.9835 37.8136 29.1389C37.9493 29.3677 37.9424 29.7115 37.8926 30.0136C37.632 29.8481 37.2076 29.795 36.9764 29.9721C36.8323 30.0823 36.791 30.2574 36.8658 30.4403C36.9164 30.5642 36.9397 31.009 36.9624 31.4395C37.0276 32.6851 37.1103 33.6646 37.5195 33.9961C37.6375 34.0919 37.7799 34.1312 37.927 34.1062C38.7346 33.9785 39.0294 34.1499 39.2217 34.4472C39.2334 34.4653 39.269 34.5201 39.1734 34.6218C39.0282 34.7751 38.7235 34.8649 38.5184 34.749C38.035 34.4722 37.6958 34.5888 37.1348 34.782C37.0367 34.8155 36.9292 34.8522 36.8108 34.8911C36.2537 35.071 35.6792 34.9815 35.2168 34.9091C35.0811 34.8883 34.9576 34.8693 34.85 34.8591C34.5866 34.8341 34.3466 34.9651 34.1144 35.0922C33.8333 35.246 33.5677 35.3934 33.2548 35.2982C33.1096 35.2545 33.0625 35.1817 33.0393 35.1301C32.9707 34.9765 33.0214 34.7538 33.0704 34.6121C33.2456 34.5812 33.4031 34.587 33.5765 34.605C33.8266 34.63 34.1112 34.6599 34.4699 34.5279C34.5758 34.4891 34.6298 34.3714 34.5909 34.2656C34.5517 34.1596 34.4349 34.1071 34.3283 34.1448C34.0587 34.2431 33.854 34.2236 33.6185 34.1986C33.4039 34.1768 33.1617 34.1523 32.8707 34.2294C32.8262 34.2412 32.7592 34.2481 32.7079 34.1651C32.6403 34.0566 32.6432 33.8559 32.7816 33.6996C32.888 33.5788 33.0942 33.5826 33.2846 33.6229C33.3913 33.6825 33.527 33.7314 33.7023 33.7649C33.8023 33.7861 33.9015 33.7261 33.9343 33.6297C33.967 33.5329 33.9235 33.427 33.8322 33.3812C33.8168 33.3738 33.6561 33.295 33.4419 33.2408C33.3291 33.1588 33.2888 33.0433 33.2285 32.8704L33.183 32.7432C33.1558 32.6708 33.1211 32.6161 33.083 32.5746C33.1811 32.532 33.2771 32.5129 33.3706 32.5187C33.5807 32.5331 33.7685 32.6757 33.9287 32.9433C34.4588 33.8265 35.3381 33.8367 35.3753 33.8367C35.4603 33.8367 35.5364 33.7839 35.5664 33.7046C36.2271 31.9585 35.3437 30.2702 35.3057 30.199C35.305 30.1979 35.304 30.1972 35.3034 30.1961C35.3028 30.1951 35.3031 30.194 35.3025 30.193C35.2241 30.0574 33.3383 26.8698 29.3459 26.0094C26.4698 25.3875 22.9944 27.0103 22.8478 27.08C22.8133 27.0959 22.7843 27.1215 22.7635 27.1533C22.3501 27.7923 21.6607 29.488 22.1688 30.6495C22.342 31.0454 22.3833 31.3582 22.2913 31.58C22.2296 31.7286 22.1093 31.8477 21.9048 31.9579C21.8774 31.7025 21.7893 31.37 21.5264 31.2253C21.2694 31.0848 20.9352 31.163 20.5326 31.4589C19.5794 32.1596 18.2194 33.8148 18.3434 34.5315C18.3737 34.7076 18.4842 34.8327 18.6539 34.8837C18.8181 34.9327 19.0202 34.9747 19.233 35.0183C19.6539 35.105 20.1503 35.2067 20.3705 35.3891C19.7762 35.313 18.6248 35.2077 18.1696 35.463C17.6328 35.7653 16.71 35.9579 16.0675 35.7253C15.8339 35.628 15.3109 35.5507 15.0068 35.9627C14.8935 36.1165 14.7155 36.1585 14.6006 36.1197C14.4671 36.076 14.4391 35.9372 14.4391 35.8287C14.4391 35.3546 14.8953 35.3179 15.035 35.3179C15.1477 35.3179 15.2393 35.2264 15.2393 35.1136C15.2393 35.0008 15.1477 34.9093 15.035 34.9093C14.7221 34.9093 14.4645 35.0113 14.2879 35.1847C14.1245 35.0994 14.019 34.9985 13.9808 34.8821C13.9284 34.723 14.0036 34.5581 14.0534 34.474C14.148 34.3132 14.3155 34.2279 14.4181 34.1865C14.65 34.4044 14.9199 34.5603 15.0554 34.6197C15.1575 34.6638 15.2785 34.6175 15.3245 34.5143C15.3697 34.4111 15.3224 34.2903 15.2191 34.2452C14.9456 34.1254 14.4452 33.7562 14.4216 33.4465C14.4129 33.3332 14.5174 33.2469 14.6254 33.2199C14.7033 33.2002 14.8996 33.1847 15.0178 33.4577C15.3165 34.1489 16.288 34.6351 16.3293 34.6553C16.3581 34.6697 16.3889 34.6767 16.4197 34.6767C16.4695 34.6767 16.5184 34.6586 16.557 34.624C16.6434 34.5452 18.6783 32.666 18.6901 29.5918C18.6972 27.7334 18.9556 26.5741 19.0515 26.2053C19.4127 26.188 20.3358 26.0768 21.1648 25.4411C21.4048 25.8662 22.0138 26.6914 23.1345 26.7196C23.1362 26.7196 23.138 26.7196 23.1396 26.7196C23.213 26.7196 23.2809 26.6798 23.3174 26.6158C23.3547 26.5499 23.3525 26.4689 23.3121 26.4056C23.3081 26.3993 22.9942 25.897 23.0658 25.4639C23.3233 25.7125 23.7923 26.0486 24.4606 26.0726H24.4607H24.4608C24.4632 26.0726 24.4656 26.0726 24.468 26.0726C24.5034 26.0726 24.5351 26.0611 24.5643 26.0449C24.5776 26.0375 24.5893 26.0318 24.6005 26.0214C24.6266 25.9987 24.6457 25.9697 24.6578 25.9362C24.6589 25.9331 24.6621 25.9316 24.6631 25.9283C24.6658 25.9192 24.9485 25.0292 25.7554 24.6125C26.2708 24.3459 26.8922 24.3294 27.6049 24.5641C27.6224 24.5698 27.6401 24.5696 27.6577 24.5705C27.6617 24.5707 27.6647 24.5743 27.6687 24.5743C27.6718 24.5743 27.6751 24.5732 27.6782 24.573C27.6835 24.5728 27.6884 24.5717 27.6937 24.571C27.7028 24.5699 27.7118 24.5699 27.7209 24.5675C27.7271 24.5658 27.7316 24.5614 27.7377 24.5592C27.7511 24.5542 27.7633 24.5481 27.7755 24.5405C27.7861 24.5339 27.796 24.5269 27.805 24.5185C27.8147 24.5098 27.8227 24.5 27.8306 24.4894C27.8385 24.4788 27.8454 24.4681 27.8511 24.4561C27.8539 24.4507 27.8584 24.4467 27.8605 24.4407C27.8877 24.3664 28.3103 23.263 29.364 22.6118C29.3678 22.6125 29.3708 22.6148 29.3747 22.6151C29.4 22.6179 31.9176 22.8966 33.3111 23.577C33.736 23.7845 34.2544 23.8873 34.7676 23.8873C35.347 23.8873 35.9193 23.7563 36.3404 23.4984C36.8 23.217 37.0473 22.8127 37.0554 22.3305C37.0722 21.342 36.4637 20.5811 35.8828 20.3678C35.5183 20.2343 35.1673 20.3145 34.9456 20.5853C34.6694 20.9217 34.6857 21.3573 34.9843 21.6218C35.2943 21.8964 35.8667 21.9399 36.4395 21.4334C36.5065 21.5635 36.5601 21.7071 36.5962 21.8605C35.9501 22.3071 35.3474 22.4559 34.8553 22.29C34.3878 22.1325 34.1091 21.7276 34.0039 21.4014C33.9211 21.1455 33.9676 20.8273 34.131 20.5294C34.3609 20.11 34.7796 19.7946 35.2797 19.6643C35.8012 19.5276 36.6565 19.6452 37.3024 20.2251C37.7812 20.6557 38.305 21.4862 38.0787 23.0005ZM36.208 21.0914C35.8066 21.4692 35.4371 21.4777 35.2547 21.316C35.1207 21.1973 35.1231 21.0122 35.2609 20.8451C35.3425 20.7457 35.4436 20.7121 35.5418 20.7121C35.6126 20.7121 35.6821 20.7297 35.7417 20.7514C35.9034 20.811 36.0659 20.9292 36.208 21.0914Z" fill="#464655"/>
</g>
<defs>
<clipPath id="clip0_106_16699">
<rect width="50" height="50" fill="white"/>
</clipPath>
</defs>
</svg>
