<svg width="50" height="50" viewBox="0 0 50 50" fill="none" xmlns="http://www.w3.org/2000/svg">
<g clip-path="url(#clip0_106_16687)">
<path d="M49.1386 8.62061H0.863081C0.387009 8.62061 0.000976562 9.00654 0.000976562 9.48261V40.5169C0.000976562 40.993 0.387009 41.379 0.863081 41.379H49.1387C49.6147 41.379 50.0008 40.993 50.0008 40.5169V9.48261C50.0007 9.00654 49.6147 8.62061 49.1386 8.62061Z" fill="#73AF00"/>
<path d="M37.9319 19.8271H31.8975V41.3788H37.9319V19.8271Z" fill="#FF4B55"/>
<path d="M43.9661 19.8271H37.9316V41.3788H43.9661V19.8271Z" fill="#464655"/>
<path d="M49.9998 19.8271H43.9653V41.3788H49.9998V19.8271Z" fill="#FF9B55"/>
<path d="M48.531 12.5838C48.5498 12.546 48.5408 12.5003 48.5091 12.4724C48.4773 12.4444 48.4308 12.4415 48.3958 12.4647C48.2214 12.5804 48.0457 12.6856 47.8714 12.781C48.4325 12.3172 48.5111 11.9145 48.5162 11.8852C48.5225 11.8484 48.5061 11.8113 48.4748 11.7911C48.4432 11.7707 48.4028 11.7712 48.3718 11.7922C47.7657 12.2034 47.1591 12.4968 46.636 12.7034C47.3384 12.2595 47.6169 11.8067 47.6339 11.7781C47.6558 11.7414 47.6499 11.6944 47.6196 11.6642C47.5893 11.6339 47.5423 11.6284 47.5056 11.6503C46.9448 11.9884 46.2805 12.2549 45.6457 12.4603C45.73 12.3302 45.79 12.1841 45.7361 12.102C45.686 12.0259 45.5946 12.0259 45.464 12.1023C45.1998 12.2572 43.1974 12.7676 42.4214 12.9578C41.6306 12.8149 40.9753 13.0175 40.7711 13.0924C40.7167 13.0277 40.6919 12.965 40.6815 12.916C40.6645 12.8362 40.6769 12.7551 40.7146 12.699C40.7761 12.6075 40.9032 12.5987 41.0154 12.591C41.0643 12.5876 41.1078 12.5846 41.1459 12.575C41.1703 12.5823 41.2002 12.5963 41.1997 12.6073C41.1975 12.6498 41.2243 12.6883 41.2649 12.7011C41.3057 12.7138 41.3495 12.6976 41.3721 12.6614C41.3777 12.6522 41.5097 12.4363 41.4075 12.2524C41.3332 12.1187 41.1626 12.0484 40.9003 12.0433C40.7927 11.9682 40.386 11.7237 39.8848 11.9126C39.3772 12.1041 39.1519 12.6254 39.0774 12.8457C38.6823 12.7909 36.8687 12.5141 35.8827 11.9353C35.8347 11.9135 35.6711 11.8493 35.5797 11.9364C35.5236 11.9896 35.517 12.0722 35.56 12.1821C35.5829 12.2403 35.6179 12.2971 35.6644 12.353C35.1366 12.1107 34.425 11.7723 33.8873 11.4714C33.8031 11.4325 33.6504 11.3795 33.5716 11.4621C33.5223 11.514 33.523 11.5894 33.5739 11.6865C33.5846 11.707 33.5953 11.7298 33.6068 11.7549C33.6591 11.8677 33.7305 12.0215 33.9049 12.1991C33.7746 12.1279 33.6571 12.0546 33.5629 11.9814C33.0909 11.6141 33.0269 11.5782 32.9423 11.6352C32.8695 11.6842 32.893 11.7671 32.9179 11.8549L32.9245 11.8781C32.945 11.951 32.9785 12.0686 33.0702 12.2104C32.997 12.1606 32.9341 12.1504 32.8846 12.185C32.8551 12.2054 32.8107 12.2562 32.8449 12.3681C32.927 12.6358 33.4943 13.3406 34.5736 13.5481C34.4651 13.5639 34.3509 13.5756 34.2409 13.5779C34.1991 13.5787 34.1628 13.6074 34.1524 13.6479C34.142 13.6884 34.1599 13.7311 34.1962 13.7519C34.216 13.7632 34.5974 13.9767 35.2968 13.9587C35.1922 13.9851 35.0736 14.0054 34.9423 14.0132C34.9015 14.0157 34.867 14.0444 34.8573 14.084C34.8475 14.1237 34.8647 14.1651 34.8997 14.1862C34.9205 14.1988 35.3263 14.4374 35.9547 14.4022L35.8999 14.4359C35.8684 14.4553 35.8513 14.4913 35.8564 14.528C35.8615 14.5646 35.8876 14.5949 35.9232 14.605C35.9428 14.6106 36.297 14.7092 36.7382 14.6625L36.6607 14.7177C36.6295 14.7399 36.615 14.7788 36.6242 14.8159C36.6333 14.853 36.664 14.8808 36.7019 14.8861C36.7099 14.8872 36.7669 14.8946 36.8583 14.8946C36.9186 14.8946 36.9938 14.8912 37.0795 14.8808C37.0776 14.9031 37.0802 14.9252 37.0875 14.9473C37.1317 15.0802 37.3274 15.1123 37.3925 15.1132C37.3965 15.1133 37.4004 15.1133 37.4043 15.1133C37.4831 15.1133 37.5664 15.1022 37.6513 15.0853C37.7873 15.2123 38.0357 15.2007 38.2766 15.1447C38.2623 15.1663 38.2515 15.188 38.2447 15.2094C38.2308 15.2534 38.2413 15.2984 38.2729 15.3298C38.3035 15.3602 38.3775 15.4337 39.0509 15.2443C39.0481 15.2464 39.0453 15.2486 39.0425 15.2507C38.953 15.32 38.9586 15.3916 38.97 15.4282C39.0113 15.5606 39.3084 15.6454 39.8475 15.6816C39.8594 15.9814 39.7762 16.307 39.7752 16.3106C39.7658 16.3464 39.7786 16.3845 39.8078 16.4074C39.8369 16.4302 39.8769 16.4337 39.9097 16.4162C39.9408 16.3994 39.9719 16.3778 40.0012 16.3544L39.9986 16.4535C39.9977 16.4896 40.0175 16.5229 40.0495 16.5391C40.063 16.5459 40.0775 16.5492 40.0919 16.5492C40.0956 16.5492 40.099 16.548 40.1026 16.5475C40.0926 16.632 40.0583 16.7328 39.9501 16.7566C39.901 16.7673 39.8488 16.7726 39.7985 16.7778C39.569 16.8013 39.3089 16.828 39.2678 17.3538C39.2647 17.3933 39.2868 17.4305 39.3231 17.4465C39.3592 17.4623 39.4015 17.4539 39.4287 17.4252L39.5286 17.319C39.5874 17.3334 39.6811 17.3483 39.7814 17.332C39.7562 17.4537 39.7636 17.6035 39.8854 17.7306C39.9117 17.758 39.9522 17.7667 39.9875 17.7526C40.0229 17.7383 40.046 17.704 40.046 17.666V17.5986C40.1039 17.5852 40.1808 17.557 40.2534 17.4992C40.296 17.5911 40.3773 17.6989 40.5319 17.79C40.5466 17.7986 40.563 17.8027 40.5792 17.8027C40.6006 17.8027 40.6218 17.7954 40.6388 17.7812C40.6691 17.7561 40.6803 17.7146 40.6668 17.6775L40.6181 17.5435C40.6521 17.51 40.6962 17.462 40.7348 17.4109C40.7538 17.4386 40.7858 17.4545 40.82 17.4512C40.8555 17.4478 40.8859 17.4244 40.8984 17.391L40.9327 17.2997C40.9529 17.2942 40.9723 17.2874 40.9907 17.2799C41.0137 17.482 41.1691 17.6501 41.1784 17.6601C41.1963 17.679 41.221 17.6895 41.2464 17.6895C41.2539 17.6895 41.2616 17.6886 41.2691 17.6866C41.3021 17.6783 41.3277 17.653 41.3366 17.6203L41.3886 17.4264C41.5263 17.3566 41.5398 17.2303 41.5481 17.1516C41.5498 17.1362 41.5522 17.1148 41.5525 17.1039C41.6064 17.1304 41.7204 17.2585 41.8064 17.3914C41.8235 17.4178 41.8529 17.434 41.8844 17.4341C41.9164 17.4319 41.9452 17.4186 41.9627 17.3923C41.9627 17.3923 42.0355 17.282 42.071 17.2176C42.2214 16.9446 41.9936 16.7812 41.8841 16.7027C41.8572 16.6833 41.8204 16.657 41.8145 16.6496C41.7939 16.5996 41.8011 16.5531 41.8147 16.5169C41.906 16.5798 42.0097 16.6328 42.1247 16.6599C42.1318 16.6616 42.139 16.6623 42.146 16.6623C42.176 16.6623 42.2047 16.6478 42.2224 16.6225C42.2442 16.5912 42.2449 16.5497 42.224 16.5179C42.222 16.5147 42.0504 16.2508 41.9398 15.9263C42.1184 16.0311 42.3601 16.1575 42.4854 16.1575C42.5715 16.1575 42.6043 16.104 42.6145 16.0811C42.6205 16.0676 42.6312 16.0432 42.6228 15.9975C42.7887 16.0871 42.9759 16.1567 43.1182 16.1199C43.1602 16.1092 43.2587 16.0837 43.2736 15.9953C43.2811 15.9506 43.2661 15.9144 43.2331 15.8787C43.3872 15.9161 43.5533 15.9348 43.7163 15.9132C43.8521 15.8953 43.8923 15.8294 43.9018 15.7772C43.908 15.7438 43.9189 15.6796 43.7977 15.5583C44.0318 15.5455 44.2408 15.4944 44.258 15.3532C44.2595 15.3405 44.2571 15.3289 44.256 15.317C45.0084 15.235 45.5808 14.7645 45.6061 14.7433C45.6135 14.7371 45.6184 14.7295 45.6234 14.7218C46.0789 14.6649 46.5963 14.562 47.0151 14.3738C47.8055 14.0184 48.2058 13.5386 48.1341 13.3645C48.1133 13.3138 48.0536 13.2772 47.9798 13.3047C47.9591 13.3124 47.9173 13.3294 47.8624 13.3517C48.3304 12.9715 48.5135 12.619 48.531 12.5838Z" fill="#FF9B55"/>
<path d="M48.5309 12.5836C48.5496 12.5458 48.5406 12.5001 48.509 12.4722C48.4772 12.4441 48.4307 12.4412 48.3956 12.4644C48.2213 12.5803 48.0454 12.6853 47.8712 12.7808C48.4323 12.317 48.5111 11.9143 48.516 11.885C48.5224 11.8481 48.506 11.8109 48.4746 11.7908C48.4431 11.7704 48.4027 11.7709 48.3717 11.792C47.7655 12.2031 47.1589 12.4966 46.6359 12.7031C47.3384 12.2593 47.6167 11.8065 47.6337 11.7779C47.6557 11.7412 47.6497 11.6942 47.6195 11.664C47.5892 11.6337 47.5422 11.6281 47.5055 11.6502C46.9447 11.9883 46.2804 12.2548 45.6455 12.4602C45.7298 12.3302 45.7899 12.1841 45.736 12.1019C45.6859 12.0258 45.5945 12.0258 45.4639 12.1022C45.1996 12.2571 43.1972 12.7676 42.4213 12.9577C41.6305 12.8148 40.9753 13.0175 40.7711 13.0924C40.7168 13.0276 40.6919 12.9649 40.6813 12.916C40.6643 12.8362 40.6767 12.7552 40.7144 12.699C40.7759 12.6075 40.9031 12.5988 41.0153 12.591C41.064 12.5877 41.1076 12.5847 41.1458 12.5752C41.1702 12.5823 41.2001 12.5965 41.1997 12.6073C41.1974 12.6499 41.2243 12.6884 41.2649 12.7012C41.3056 12.7139 41.3495 12.6976 41.3721 12.6614C41.3779 12.6523 41.5096 12.4363 41.4076 12.2524C41.3333 12.1187 41.1628 12.0484 40.9003 12.0434C40.7925 11.9683 40.3859 11.7237 39.8847 11.9127C39.3772 12.1041 39.1518 12.6255 39.0773 12.8458C38.6823 12.7909 36.8686 12.5142 35.8826 11.9353C35.8348 11.9136 35.6712 11.8495 35.5797 11.9364C35.5235 11.9896 35.517 12.0723 35.56 12.1821C35.5828 12.2403 35.6179 12.2972 35.6644 12.353C35.1365 12.1107 34.4251 11.7724 33.8871 11.4715C33.803 11.4325 33.6503 11.3795 33.5716 11.4621C33.5223 11.5141 33.5229 11.5895 33.5738 11.6865C33.5846 11.707 33.5951 11.7299 33.6068 11.755C33.6591 11.8678 33.7304 12.0216 33.9049 12.1993C33.7746 12.1281 33.657 12.0549 33.5629 11.9816C33.0908 11.6144 33.0268 11.5784 32.9423 11.6354C32.8695 11.6846 32.893 11.7674 32.9179 11.8552L32.9244 11.8783C32.9449 11.9513 32.9783 12.0688 33.0701 12.2106C32.997 12.1608 32.9341 12.1507 32.8846 12.1852C32.8551 12.2055 32.8107 12.2564 32.8449 12.3684C32.927 12.636 33.4944 13.3406 34.5736 13.5483C34.4651 13.5641 34.3511 13.5759 34.2409 13.5781C34.199 13.579 34.1628 13.6076 34.1525 13.6481C34.1421 13.6887 34.16 13.7312 34.1963 13.7521C34.216 13.7635 34.5975 13.9769 35.2969 13.9588C35.1923 13.9851 35.0736 14.0055 34.9423 14.0133C34.9016 14.0156 34.867 14.0444 34.8572 14.0841C34.8475 14.1237 34.8647 14.1651 34.8997 14.1862C34.9205 14.1988 35.3264 14.4376 35.9548 14.4022L35.9 14.4359C35.8686 14.4554 35.8514 14.4914 35.8564 14.528C35.8615 14.5646 35.8878 14.5949 35.9232 14.6051C35.9429 14.6106 36.2971 14.7092 36.7383 14.6626L36.6607 14.7178C36.6296 14.7399 36.615 14.7789 36.6242 14.816C36.6333 14.8531 36.6641 14.8809 36.7019 14.8861C36.71 14.8873 36.7671 14.8947 36.8585 14.8947C36.9187 14.8947 36.9939 14.8914 37.0797 14.8809C37.0777 14.9032 37.0804 14.9255 37.0877 14.9474C37.1318 15.0803 37.3275 15.1125 37.3927 15.1134C37.3967 15.1134 37.4006 15.1134 37.4045 15.1134C37.4833 15.1134 37.5664 15.1022 37.6515 15.0853C37.7875 15.2124 38.0358 15.2008 38.2767 15.1447C38.2625 15.1664 38.2516 15.1881 38.2447 15.2095C38.2308 15.2536 38.2414 15.2985 38.2729 15.33C38.3037 15.3603 38.3775 15.4338 39.0511 15.2444C39.0482 15.2467 39.0455 15.2487 39.0427 15.251C38.9531 15.3203 38.9588 15.3919 38.9702 15.4284C39.0115 15.5608 39.3086 15.6457 39.8476 15.6818C39.8595 15.9816 39.7761 16.3072 39.7754 16.3108C39.766 16.3467 39.7788 16.3847 39.808 16.4077C39.8371 16.4304 39.877 16.434 39.9098 16.4165C39.9411 16.3997 39.972 16.378 40.0013 16.3547L39.9988 16.4537C39.9978 16.4897 40.0176 16.523 40.0498 16.5392C40.0633 16.5461 40.0776 16.5494 40.0922 16.5494C40.0959 16.5494 40.0993 16.548 40.1029 16.5475C40.0928 16.632 40.0586 16.7329 39.9502 16.7566C39.901 16.7674 39.849 16.7726 39.7985 16.7778C39.569 16.8013 39.309 16.828 39.2678 17.354C39.2648 17.3934 39.2869 17.4304 39.3231 17.4465C39.3592 17.4623 39.4015 17.454 39.4287 17.4253L39.5286 17.319C39.5873 17.3335 39.6811 17.3482 39.7813 17.3321C39.7561 17.4538 39.7635 17.6036 39.8853 17.7306C39.9117 17.7581 39.9521 17.7668 39.9875 17.7526C40.0228 17.7383 40.0459 17.7041 40.0459 17.6661V17.5987C40.1038 17.5852 40.1806 17.5571 40.2533 17.4993C40.2959 17.5912 40.3771 17.6991 40.5318 17.79C40.5465 17.7986 40.5629 17.8029 40.5791 17.8029C40.6004 17.8029 40.6216 17.7956 40.6387 17.7813C40.669 17.7562 40.6802 17.7147 40.6668 17.6778L40.618 17.5437C40.652 17.5102 40.6963 17.4624 40.7347 17.4112C40.7538 17.4389 40.7858 17.4548 40.82 17.4515C40.8555 17.4481 40.8859 17.4248 40.8985 17.3914L40.9328 17.3001C40.953 17.2945 40.9723 17.2878 40.9908 17.2802C41.0137 17.4823 41.1691 17.6505 41.1785 17.6604C41.1964 17.6795 41.2211 17.6898 41.2464 17.6898C41.254 17.6898 41.2616 17.6889 41.2691 17.687C41.302 17.6787 41.3277 17.6534 41.3365 17.6207L41.3884 17.4267C41.5261 17.357 41.5396 17.2306 41.548 17.1519C41.5497 17.1365 41.552 17.1151 41.5524 17.1043C41.6062 17.1307 41.7203 17.2589 41.8063 17.3918C41.8234 17.4181 41.8528 17.4343 41.8842 17.4344C41.9163 17.4322 41.9451 17.4188 41.9626 17.3925C41.9626 17.3925 42.0354 17.2823 42.0709 17.2178C42.2212 16.9449 41.9934 16.7814 41.8839 16.7029C41.8571 16.6836 41.8203 16.6572 41.8143 16.6499C41.7938 16.5999 41.8009 16.5533 41.8144 16.5172C41.9057 16.58 42.0095 16.6331 42.1245 16.6601C42.1316 16.6619 42.1387 16.6626 42.1458 16.6626C42.1757 16.6626 42.2045 16.648 42.2221 16.6227C42.2441 16.5915 42.2447 16.55 42.2238 16.5181C42.2217 16.5149 42.0502 16.251 41.9396 15.9265C42.1183 16.0311 42.3598 16.1578 42.4852 16.1578C42.5712 16.1578 42.6041 16.1043 42.6142 16.0813C42.6203 16.0678 42.6309 16.0434 42.6224 15.9977C42.7884 16.0875 42.9755 16.1569 43.1178 16.1202C43.1598 16.1093 43.2584 16.0839 43.2733 15.9956C43.2808 15.9508 43.2658 15.9147 43.2328 15.879C43.3869 15.9164 43.553 15.935 43.7159 15.9134C43.8517 15.8955 43.8918 15.8297 43.9015 15.7774C43.9077 15.744 43.9186 15.6799 43.7974 15.5586C44.0315 15.5458 44.2405 15.4946 44.2577 15.3534C44.2593 15.3407 44.2569 15.3292 44.2557 15.3173C45.008 15.2352 45.5805 14.7647 45.6058 14.7435C45.6131 14.7374 45.6181 14.7298 45.6231 14.722C46.0785 14.6652 46.5959 14.5624 47.0148 14.3741C47.8052 14.0187 48.2055 13.5389 48.1338 13.3648C48.113 13.3141 48.0532 13.2774 47.9795 13.3051C47.9589 13.3128 47.9169 13.3298 47.8621 13.3521C48.3303 12.9713 48.5134 12.6187 48.5309 12.5836ZM47.157 12.054C46.8134 12.3901 46.1661 12.8735 45.0987 13.154C45.0894 13.1564 45.0814 13.1612 45.0737 13.1661C44.8493 13.1486 44.5655 13.1077 44.3166 13.0147C45.1055 12.8358 46.2138 12.5276 47.157 12.054ZM42.407 13.1446C42.4202 13.147 42.4335 13.1467 42.4463 13.1435C42.5574 13.1164 45.1269 12.4862 45.5394 12.2734C45.4914 12.368 45.3994 12.5004 45.324 12.5557C45.3218 12.5571 45.3208 12.5596 45.3189 12.5612C44.2124 12.8896 43.2735 13.0281 43.2581 13.0303C43.2071 13.0376 43.1716 13.0849 43.179 13.1358C43.1863 13.1868 43.2334 13.2222 43.2845 13.2149C43.293 13.2137 43.5782 13.1718 44.016 13.0804C44.2426 13.2103 44.5212 13.282 44.7749 13.3208C44.3959 13.3528 44.0452 13.3345 44.0394 13.3342C43.9953 13.3325 43.9522 13.3633 43.9429 13.4085C43.9336 13.4537 43.9587 13.499 44.0022 13.5148L44.355 13.6441C43.8589 13.7497 43.3806 13.6506 43.375 13.6494C43.3367 13.6409 43.2977 13.6576 43.2768 13.6903C43.2559 13.723 43.2574 13.7654 43.2807 13.7965C43.3481 13.8863 43.5381 13.9807 43.704 14.0504C43.0219 14.1795 42.5526 13.7614 42.5304 13.7413C42.4925 13.7067 42.4337 13.7092 42.3991 13.7469C42.3643 13.7846 42.3664 13.8431 42.4037 13.8782C42.9424 14.3824 43.9465 14.5971 44.3972 14.6711C44.3305 14.7105 44.25 14.7477 44.1658 14.7628C43.8199 14.8242 43.0212 14.4443 42.4593 14.137L42.0093 13.8773C41.9653 13.8517 41.9087 13.8666 41.8826 13.9103C41.8564 13.9542 41.8704 14.0109 41.9138 14.0376C41.9354 14.0509 42.1119 14.1589 42.3627 14.2967L43.4579 14.9288C43.1218 14.9703 42.7673 14.8951 42.7629 14.8941C42.7602 14.8935 42.7577 14.8943 42.7549 14.894C42.4986 14.7137 42.0849 14.4102 41.4638 13.8952C41.3638 13.5384 41.1765 13.3816 40.9421 13.2327C41.2072 13.1514 41.7662 13.0244 42.407 13.1446ZM43.0839 15.1225C43.0834 15.1227 43.083 15.1232 43.0823 15.1234C43.0823 15.1234 43.0814 15.1227 43.081 15.1224C43.0821 15.1224 43.0831 15.1225 43.0839 15.1225ZM37.0077 14.6995L37.2211 14.5476C37.259 14.5207 37.2713 14.4698 37.2498 14.4286C37.2282 14.3872 37.1794 14.3683 37.1356 14.3838C36.7832 14.5096 36.4263 14.4969 36.2029 14.4681L36.45 14.3161C36.4894 14.2919 36.5051 14.2425 36.4868 14.1999C36.4687 14.1574 36.4223 14.1347 36.3773 14.1464C35.9276 14.2644 35.5531 14.2154 35.3079 14.1477C35.6977 14.0567 35.9239 13.8843 35.9359 13.8751C35.97 13.8487 35.9815 13.8023 35.9639 13.763C35.9461 13.7237 35.9039 13.7021 35.8615 13.7097C35.3478 13.8064 34.9511 13.7745 34.6847 13.7194C34.9599 13.6732 35.1786 13.6075 35.1922 13.6034C35.1939 13.603 35.1949 13.6016 35.1964 13.6012C35.2027 13.5989 35.208 13.5953 35.2137 13.5919C35.2185 13.5889 35.2232 13.5864 35.2273 13.5827C35.2318 13.5786 35.235 13.5737 35.2387 13.5688C35.2422 13.564 35.2459 13.5598 35.2484 13.5545C35.2508 13.5494 35.2519 13.5438 35.2534 13.5385C35.2552 13.5321 35.2569 13.5262 35.2574 13.5195C35.2574 13.5181 35.2583 13.5167 35.2583 13.5151C35.2583 13.5102 35.2564 13.5059 35.2556 13.5013C35.2549 13.4967 35.2557 13.492 35.2543 13.4873C35.2539 13.4858 35.2526 13.4848 35.2522 13.4834C35.2499 13.4771 35.2464 13.4719 35.243 13.4663C35.2399 13.4614 35.2375 13.4563 35.2337 13.4521C35.2297 13.4477 35.2249 13.4446 35.2201 13.441C35.2152 13.4373 35.2108 13.4335 35.2054 13.4308C35.2004 13.4285 35.1948 13.4274 35.1895 13.426C35.1831 13.4241 35.1771 13.4223 35.1704 13.4219C35.1688 13.4218 35.1676 13.4209 35.166 13.4209C33.9677 13.4097 33.3064 12.7793 33.0945 12.4576C33.4679 12.7178 33.9584 12.9386 34.3156 13.0653H34.3159C34.791 13.2488 35.3832 13.3657 35.4083 13.3706C35.4587 13.3804 35.5079 13.3476 35.5178 13.297C35.5277 13.2464 35.4947 13.1974 35.4441 13.1875C35.4381 13.1863 34.8409 13.0685 34.3806 12.8903C33.3878 12.5061 33.1866 12.09 33.1195 11.8799C33.2269 11.9561 33.371 12.0684 33.4483 12.1284C34.0294 12.5804 35.3815 13.0078 35.4389 13.0259C35.4879 13.0414 35.5396 13.0144 35.5555 12.9658C35.5713 12.9172 35.5452 12.8649 35.4969 12.8484C34.0987 12.3722 33.8888 11.9193 33.776 11.6762C33.7662 11.6551 33.757 11.6353 33.748 11.617C33.7668 11.6228 33.7864 11.6301 33.8024 11.6372C34.5775 12.0709 35.7166 12.5845 36.1472 12.7751C36.0697 12.8124 35.9885 12.8435 35.9347 12.8466C35.8988 12.8486 35.8671 12.871 35.8535 12.9045C35.8398 12.9378 35.8466 12.976 35.8708 13.0025C35.8766 13.0088 35.9679 13.1067 36.1454 13.1451L36.0194 13.2272C35.9899 13.2466 35.9737 13.2809 35.9777 13.316C35.9818 13.3512 36.0053 13.3809 36.0385 13.3931C36.0471 13.3962 36.191 13.4469 36.3812 13.4669L36.2764 13.5433C36.2497 13.5628 36.2354 13.5948 36.2386 13.6276C36.2417 13.6604 36.2619 13.6891 36.2918 13.7032C36.304 13.7089 36.4474 13.774 36.6774 13.7632L36.6695 13.7686C36.6393 13.7899 36.6244 13.8271 36.6316 13.8635C36.6389 13.8998 36.6672 13.9283 36.7034 13.9362C36.7177 13.9392 36.8938 13.9755 37.1466 13.9468L37.0892 13.985C37.0586 14.0053 37.0429 14.0419 37.0488 14.078C37.0549 14.1142 37.0815 14.1435 37.1172 14.1529C37.1443 14.1599 37.5525 14.2615 38.0883 14.0916C37.976 14.1655 37.8713 14.2191 37.7848 14.2386C37.7453 14.2475 37.716 14.2808 37.7124 14.3212C37.7087 14.3615 37.7315 14.3996 37.7687 14.4155C37.7712 14.4166 37.7804 14.4201 37.7926 14.4245C37.5063 14.6139 37.2137 14.6798 37.0077 14.6995ZM36.5563 13.0072C36.5383 12.9655 36.493 12.9427 36.4486 12.9537C36.3406 12.9801 36.2532 12.9774 36.1858 12.9632C36.2964 12.914 36.3908 12.8553 36.4076 12.8446C36.4144 12.8403 36.4202 12.8351 36.4255 12.8296C36.5915 12.8964 36.7799 12.9605 36.9912 13.0219L36.6331 13.2832C36.5132 13.2959 36.3942 13.2845 36.2994 13.2675L36.5217 13.1225C36.5598 13.0974 36.5744 13.0488 36.5563 13.0072ZM37.3945 14.9266C37.3591 14.9262 37.2936 14.9081 37.2693 14.8908C37.2755 14.881 37.291 14.8618 37.3255 14.8345C37.5457 14.778 37.7986 14.671 38.041 14.4732C38.2953 14.4917 38.6952 14.4312 39.1027 14.0218C39.1178 14.049 39.1336 14.0766 39.1518 14.1048C39.1077 14.1381 38.0546 14.9325 37.3945 14.9266ZM38.1223 14.2896C38.4239 14.1081 38.7614 13.7924 38.972 13.5813C38.9752 13.6585 38.9901 13.7471 39.0236 13.8442C39.0164 13.8485 39.0089 13.8524 39.0027 13.8589C38.6683 14.2115 38.3431 14.2893 38.1223 14.2896ZM39.8746 15.4972C39.5675 15.4762 39.2815 15.4285 39.177 15.3824C39.4311 15.1841 39.504 15.0966 39.5116 15.0869C39.5373 15.0548 39.5388 15.0095 39.5155 14.9757C39.492 14.9417 39.449 14.927 39.41 14.9399C39.0753 15.0481 38.6842 15.1537 38.491 15.1808C38.5797 15.1012 38.7375 15.0007 38.8799 14.9294C38.9256 14.9065 38.9444 14.8511 38.9221 14.8053C38.8999 14.7593 38.8448 14.7399 38.7985 14.7615C38.5446 14.8809 38.1811 15.0012 37.9537 14.9994C38.5728 14.7764 39.2041 14.2996 39.2641 14.2536C39.3118 14.3103 39.3643 14.368 39.4276 14.4267C39.9847 14.9447 39.9237 15.3511 39.8746 15.4972ZM40.0283 16.0661C40.0232 16.0722 40.0164 16.0803 40.0079 16.0897C40.0281 15.9516 40.0426 15.7784 40.0294 15.6136C40.0806 15.5009 40.1845 15.1665 39.9156 14.7229C40.0929 14.7487 40.5001 14.8341 40.6762 15.0903C40.6996 15.1243 40.7228 15.162 40.7458 15.2011L40.7456 15.2013C40.7369 15.2219 40.5604 15.6492 40.6168 16.1833C40.5755 16.1346 40.5361 16.0751 40.5096 16.0052C40.4971 15.9725 40.4675 15.9494 40.4326 15.9457C40.3981 15.942 40.3637 15.9579 40.3444 15.9872C40.305 16.0468 40.2482 16.1287 40.1916 16.2032L40.1935 16.1278C40.1946 16.0881 40.1703 16.052 40.133 16.0381C40.0959 16.0241 40.0537 16.0352 40.0283 16.0661ZM40.6298 17.2273C40.6112 17.2829 40.5117 17.3902 40.447 17.4485C40.4448 17.4505 40.4425 17.4528 40.4405 17.455C40.3918 17.3745 40.3935 17.3107 40.3936 17.3072C40.3968 17.2635 40.3693 17.2236 40.3274 17.2109C40.2854 17.1983 40.2404 17.2166 40.2191 17.2547C40.1338 17.407 39.984 17.4226 39.9565 17.4244C39.9613 17.312 40.0261 17.2098 40.0303 17.2036C40.0561 17.1643 40.0487 17.112 40.013 17.0815C39.9774 17.051 39.9246 17.0516 39.8897 17.0832C39.7528 17.2071 39.5353 17.1269 39.5334 17.1262C39.5244 17.1228 39.5152 17.1208 39.5059 17.1201C39.5662 16.989 39.6716 16.9783 39.8172 16.9634C39.8727 16.9578 39.9302 16.9518 39.9897 16.9387C40.2768 16.8759 40.3107 16.5586 40.2884 16.3995C40.2878 16.3951 40.2854 16.3915 40.2842 16.3874C40.3291 16.3321 40.3739 16.2716 40.4111 16.2193C40.4293 16.2471 40.4488 16.2722 40.4684 16.296C40.469 16.364 40.4728 16.5739 40.4965 16.6843C40.5152 16.772 40.5794 16.8311 40.6409 16.869C40.6307 16.8888 40.6221 16.9097 40.6167 16.9324C40.5947 17.0227 40.6133 17.122 40.6413 17.2072C40.637 17.2139 40.6322 17.2198 40.6298 17.2273ZM40.6789 16.6455C40.6699 16.6039 40.6643 16.5384 40.6607 16.4726C40.6868 16.4906 40.7051 16.5014 40.7078 16.5028C40.7402 16.5208 40.7804 16.518 40.8099 16.4953C40.8393 16.4726 40.8526 16.4346 40.8436 16.3987C40.7451 16.0047 40.8111 15.636 40.8658 15.4341C41.0264 15.7871 41.1417 16.2227 41.1018 16.51C41.0957 16.554 41.1214 16.5962 41.1632 16.6109C41.1719 16.6139 41.1809 16.6149 41.1897 16.6153C41.1887 16.6251 41.1878 16.6354 41.1866 16.6445C41.0922 16.6416 40.9367 16.656 40.786 16.7344C40.7428 16.7163 40.687 16.6833 40.6789 16.6455ZM41.9074 17.1277C41.9 17.1412 41.8908 17.1567 41.881 17.1727C41.7697 17.0253 41.6168 16.8736 41.4859 16.923C41.3804 16.9632 41.3696 17.0647 41.3624 17.132C41.3538 17.2131 41.3476 17.2469 41.2799 17.2702C41.2506 17.2802 41.2281 17.3043 41.22 17.3341L41.2095 17.3729C41.174 17.2946 41.1551 17.2001 41.2082 17.1195C41.2353 17.0782 41.2255 17.023 41.1857 16.9935C41.146 16.9641 41.09 16.9708 41.0584 17.0088C41.0575 17.0097 40.973 17.1091 40.8502 17.1266C40.8375 17.1285 40.8255 17.1329 40.8148 17.1393C40.7969 17.0823 40.7867 17.0226 40.7979 16.9764C40.8047 16.9489 40.8183 16.9301 40.842 16.9158C41.0288 16.8027 41.2468 16.8348 41.2487 16.8352C41.2979 16.8434 41.3432 16.8123 41.3544 16.7645C41.3594 16.7432 41.3994 16.5613 41.3702 16.409L41.4909 16.2062C41.5342 16.2617 41.5929 16.3298 41.6648 16.3967C41.6252 16.4694 41.5865 16.5868 41.6417 16.7207C41.6638 16.7746 41.7154 16.8115 41.7751 16.8542C41.9272 16.9634 41.9675 17.0183 41.9074 17.1277ZM41.5639 15.987C41.5468 15.959 41.5129 15.9438 41.4838 15.9422C41.451 15.9423 41.4209 15.9595 41.404 15.9877L41.2828 16.1914C41.2316 15.7789 41.0373 15.2861 40.8299 14.9845C40.5604 14.5924 39.8939 14.518 39.7682 14.5185C39.7071 14.4443 39.6388 14.3684 39.5546 14.2901C39.0013 13.7759 39.1833 13.3648 39.1921 13.3457C39.1928 13.344 39.1927 13.3424 39.1933 13.3407C39.1958 13.3347 39.1969 13.3286 39.1979 13.3223C39.199 13.3167 39.2004 13.3111 39.2004 13.3054C39.2004 13.2994 39.199 13.2939 39.198 13.2881C39.1969 13.2821 39.196 13.2764 39.1938 13.2706C39.1917 13.2654 39.1886 13.261 39.1854 13.2561C39.182 13.2506 39.1787 13.2451 39.1739 13.2404C39.1726 13.2391 39.1721 13.2374 39.1708 13.2361C39.1675 13.2331 39.1634 13.2319 39.1596 13.2295C39.1558 13.2269 39.1532 13.2233 39.149 13.2213C39.1472 13.2204 39.1455 13.2206 39.1437 13.2199C39.1377 13.2175 39.1316 13.2162 39.1253 13.215C39.1194 13.214 39.1139 13.2126 39.1083 13.2126C39.1023 13.2126 39.0969 13.2139 39.091 13.2149C39.0849 13.216 39.0792 13.2169 39.0735 13.2191C39.0683 13.2212 39.0638 13.2244 39.059 13.2274C39.0534 13.2309 39.0479 13.2343 39.0432 13.239C39.042 13.2402 39.0402 13.2408 39.039 13.2421L39.0389 13.2422C38.4059 13.9337 37.7434 14.0159 37.4002 14.0014L37.7983 13.7359C37.8765 13.6922 37.9556 13.6401 38.0341 13.5785C38.0735 13.5474 38.0813 13.491 38.052 13.4505C38.0226 13.4098 37.9664 13.3998 37.9248 13.4276L37.7061 13.5733C37.4365 13.7229 37.176 13.7632 36.9939 13.7688L37.2014 13.6234C37.3607 13.5464 37.5347 13.4307 37.7179 13.2601C37.7537 13.2267 37.7577 13.1713 37.7268 13.1332C37.6962 13.0951 37.6412 13.0875 37.6008 13.1154L37.1062 13.4621C36.8713 13.5727 36.6789 13.5863 36.5497 13.5745L37.2568 13.0583C37.2859 13.0371 37.3002 13.0011 37.2934 12.9657C37.2868 12.9304 37.2604 12.902 37.2258 12.8928C36.073 12.5859 35.796 12.2727 35.7335 12.1133C35.728 12.0993 35.7244 12.0881 35.7223 12.0793C35.7455 12.0828 35.7767 12.0916 35.7968 12.1001C36.9262 12.7638 39.042 13.0296 39.1314 13.0407C39.1775 13.0453 39.2203 13.0176 39.2326 12.973C39.2645 12.8582 39.449 12.2758 39.9503 12.0866C40.423 11.9086 40.7953 12.1966 40.8107 12.2086C40.8273 12.2219 40.8478 12.2291 40.869 12.2291C41.0699 12.2291 41.2031 12.2691 41.2439 12.342C41.257 12.3653 41.2608 12.3921 41.2594 12.4188C41.2268 12.4022 41.1909 12.3911 41.1554 12.3858C41.1394 12.3834 41.1231 12.3852 41.108 12.3911C41.0896 12.3982 41.0432 12.4015 41.0024 12.4043C40.8709 12.4134 40.672 12.427 40.5595 12.5943C40.4931 12.6931 40.4711 12.8243 40.4989 12.9544C40.5163 13.0355 40.5597 13.1416 40.6589 13.2451C40.6686 13.2644 40.6841 13.2785 40.7026 13.2871C40.7366 13.3173 40.7745 13.3471 40.8197 13.3754C41.0398 13.513 41.2013 13.64 41.2872 13.9514C41.2879 13.9625 41.2907 13.9729 41.2952 13.983C41.3303 14.1236 41.3513 14.2995 41.356 14.5284C41.3571 14.5793 41.3987 14.6198 41.4492 14.6198C41.4492 14.6198 41.4505 14.6198 41.4512 14.6198C41.5027 14.6187 41.5436 14.5761 41.5426 14.5246C41.5399 14.3964 41.5315 14.2838 41.5189 14.1817C42.2137 14.7493 42.624 15.0313 42.8297 15.1724C42.8587 15.1924 42.8863 15.2112 42.9103 15.2281C42.7009 15.2471 42.3694 15.056 42.1101 14.8584C42.0249 14.7814 41.9443 14.7178 41.9006 14.6845C41.861 14.6541 41.8045 14.6603 41.7724 14.6987C41.7404 14.737 41.7442 14.7937 41.781 14.8274C41.8046 14.849 41.8798 14.9163 41.9855 14.998C42.1077 15.1091 42.202 15.2138 42.2316 15.2742C42.0864 15.2436 41.688 15.0067 41.3641 14.7755C41.3242 14.747 41.2692 14.7543 41.238 14.792C41.2068 14.8298 41.2101 14.8853 41.2456 14.919C41.4692 15.1313 41.6069 15.3253 41.6945 15.7409C41.7444 15.978 41.8411 16.203 41.9236 16.3661C41.7061 16.2176 41.5659 15.9901 41.5639 15.987ZM43.6915 15.7283C43.1977 15.7931 42.639 15.4168 42.6335 15.413C42.5936 15.3858 42.5396 15.3933 42.5091 15.4305C42.4783 15.4676 42.4809 15.5219 42.515 15.5559C42.6767 15.7176 42.8417 15.8275 42.962 15.9076C42.9794 15.9192 42.9982 15.9317 43.0162 15.944C42.8367 15.935 42.5248 15.7327 42.3528 15.5919C42.3151 15.5609 42.2597 15.5644 42.2259 15.6C42.1923 15.6354 42.1919 15.6909 42.2248 15.7269C42.2944 15.8032 42.3604 15.8884 42.4004 15.9508C42.2641 15.9009 42.0341 15.7701 41.868 15.6638C41.8296 15.4936 41.7824 15.3552 41.7242 15.2378C42.2661 15.5605 42.3573 15.4516 42.3916 15.4106C42.4115 15.3867 42.4338 15.3456 42.427 15.285C42.427 15.2847 42.427 15.2844 42.427 15.2844C42.6482 15.3963 42.8853 15.4623 43.0672 15.3772C43.0863 15.3682 43.1137 15.3541 43.1357 15.3315C43.4714 15.5191 43.6471 15.6595 43.7005 15.7269C43.6976 15.7273 43.6946 15.7278 43.6915 15.7283ZM43.5647 15.3738C43.4617 15.3039 43.3297 15.2234 43.1563 15.1293C43.1528 15.1273 43.1488 15.1272 43.1451 15.1259C43.1756 15.127 43.2069 15.1279 43.239 15.1279C43.3287 15.1279 43.4231 15.1218 43.5168 15.1081C43.524 15.1127 43.5308 15.1178 43.5394 15.1205C43.8284 15.2113 44.0023 15.2803 44.058 15.3265C43.9836 15.3588 43.7704 15.3798 43.5647 15.3738ZM44.1144 15.1414C44.1144 15.1414 44.1133 15.1417 44.1127 15.1417C44.0377 15.098 43.9311 15.0552 43.7954 15.0084C43.8002 14.9986 43.804 14.9882 43.805 14.9768C43.8073 14.9538 43.8008 14.9312 43.7879 14.9132C43.9464 14.9511 44.0881 14.966 44.1987 14.9464C44.3378 14.9216 44.4639 14.853 44.5552 14.7914H44.5553C44.649 14.7914 44.9149 14.7881 45.2556 14.76C45.0096 14.9121 44.5901 15.1207 44.1144 15.1414ZM47.8769 13.5474C47.7499 13.7071 47.4616 13.9684 46.9381 14.2038C46.2232 14.5253 45.1673 14.5893 44.7273 14.6017C44.7266 14.5947 44.7258 14.5878 44.7234 14.5809C44.7118 14.5467 44.6813 14.5222 44.6453 14.5181C44.637 14.5173 44.1646 14.4623 43.6392 14.3039C43.9541 14.3337 44.2514 14.3484 44.5295 14.3484C45.315 14.3484 45.9566 14.2389 46.4783 14.0749C46.4811 14.0745 46.4837 14.0751 46.4865 14.0745C46.774 13.9992 47.4591 13.7185 47.8271 13.5679C47.8446 13.5605 47.8611 13.5538 47.8769 13.5474ZM47.3793 13.4583C46.7724 13.834 45.714 14.2353 44.0398 14.1457C44.0723 14.13 44.0937 14.0973 44.0929 14.0605C44.0921 14.0212 44.0668 13.9866 44.0295 13.974C43.9546 13.9487 43.8657 13.9152 43.7791 13.879C44.0354 13.8865 44.369 13.8626 44.6861 13.7404C44.7223 13.7264 44.7461 13.6915 44.7457 13.6526C44.7454 13.6138 44.721 13.5791 44.6845 13.5658L44.5626 13.5212C44.8719 13.5083 45.2511 13.4678 45.5156 13.3564C45.5573 13.3389 45.5802 13.294 45.5703 13.25C45.5698 13.2477 45.5684 13.2459 45.5678 13.2436C46.1265 13.1037 47.1552 12.7808 48.2171 12.1154C47.9884 12.4955 47.324 13.2022 45.4434 13.6467C45.3947 13.6582 45.3636 13.706 45.3733 13.7552C45.3829 13.8044 45.4295 13.8366 45.4788 13.8296C45.4928 13.8274 46.7713 13.6266 48.0913 12.8711C47.9349 13.045 47.7038 13.2574 47.3793 13.4583Z" fill="#464655"/>
</g>
<defs>
<clipPath id="clip0_106_16687">
<rect width="50" height="50" fill="white"/>
</clipPath>
</defs>
</svg>
