<svg width="50" height="50" viewBox="0 0 50 50" fill="none" xmlns="http://www.w3.org/2000/svg">
<g clip-path="url(#clip0_106_16671)">
<path d="M49.9999 13.3006H0V9.48271C0 9.00664 0.386034 8.62061 0.862108 8.62061H49.1379C49.614 8.62061 50 9.00664 50 9.48271L49.9999 13.3006Z" fill="#73AF00"/>
<path d="M49.9999 13.3008H0V17.9808H49.9999V13.3008Z" fill="#FFE15A"/>
<path d="M49.9999 17.9805H0V22.6604H49.9999V17.9805Z" fill="#FF4B55"/>
<path d="M0 36.6992H49.9999V40.517C49.9999 40.9931 49.6139 41.3791 49.1378 41.3791H0.862108C0.386034 41.3791 0 40.9931 0 40.517V36.6992Z" fill="#73AF00"/>
<path d="M49.9999 32.0195H0V36.6995H49.9999V32.0195Z" fill="#FFE15A"/>
<path d="M49.9999 27.3398H0V32.0198H49.9999V27.3398Z" fill="#FF4B55"/>
<path d="M50.0001 22.66H19.123L1.38906 8.62061H0.862304C0.639843 8.62061 0.441504 8.71045 0.288574 8.84893V41.1509C0.441504 41.2893 0.639843 41.3791 0.862304 41.3791H1.38916L19.123 27.3397H50.0001V22.66Z" fill="#464655"/>
<path d="M0.288378 41.151L20.6896 25.0001L0.288378 8.84912C0.113965 9.00693 0 9.2292 0 9.48281V40.5172C0 40.7709 0.113965 40.9932 0.288378 41.151Z" fill="#F5F5F5"/>
<path d="M8.40468 18.6963L10.2214 22.3772L14.2835 22.9676L11.344 25.8327L12.038 29.8784L8.40468 27.9682L4.77138 29.8784L5.46533 25.8327L2.52588 22.9676L6.58808 22.3772L8.40468 18.6963Z" fill="#FF4B55"/>
<path d="M13.1181 25.4693L8.29035 21.732C7.72551 20.4084 6.92268 19.5547 6.24114 19.5547C5.66213 19.5547 5.37903 20.0913 5.29798 20.4138C4.88098 20.6068 4.78313 20.9911 4.77903 21.0078C4.77219 21.0353 4.77874 21.0646 4.79612 21.0869C4.8137 21.1092 4.84046 21.1223 4.86887 21.1223L4.9553 21.1206C5.34319 21.1116 5.98948 21.0946 6.15471 22.3268C6.25784 23.0963 6.10471 24.4745 5.6179 25.5133C5.27766 26.239 5.39006 26.826 5.39505 26.8506C5.40432 26.8969 5.44739 26.9273 5.49544 26.9244C5.50286 26.9236 5.52083 26.9229 5.54368 26.9222L5.9343 29.1305C5.94221 29.1747 5.9804 29.2069 6.02532 29.2069H11.8537C11.8964 29.2069 11.9335 29.1777 11.9436 29.1363L12.5946 26.4621C12.5948 26.4613 12.5957 26.4609 12.5959 26.4601C12.5963 26.4587 12.5958 26.4572 12.5961 26.4557L12.8029 25.6063C12.956 25.6244 13.047 25.6339 13.0521 25.6345C13.0962 25.6402 13.1321 25.615 13.1473 25.5768C13.1624 25.5387 13.1508 25.4947 13.1181 25.4693Z" fill="#FFE15A"/>
<path d="M13.1181 25.4693L8.29035 21.732C7.72551 20.4084 6.92268 19.5547 6.24114 19.5547C5.66213 19.5547 5.37903 20.0913 5.29798 20.4138C4.88098 20.6068 4.78313 20.9911 4.77903 21.0078C4.77219 21.0353 4.77874 21.0646 4.79612 21.0869C4.8137 21.1092 4.84046 21.1223 4.86887 21.1223L4.9553 21.1206C5.34319 21.1116 5.98948 21.0946 6.15471 22.3268C6.25784 23.0963 6.10471 24.4745 5.6179 25.5133C5.27766 26.239 5.39006 26.826 5.39505 26.8506C5.40432 26.8969 5.44739 26.9273 5.49544 26.9244C5.50286 26.9236 5.52083 26.9229 5.54368 26.9222L5.9343 29.1305C5.94221 29.1747 5.9804 29.2069 6.02532 29.2069H11.8537C11.8964 29.2069 11.9335 29.1777 11.9436 29.1363L12.5946 26.4621C12.5948 26.4613 12.5957 26.4609 12.5959 26.4601C12.5963 26.4587 12.5958 26.4572 12.5961 26.4557L12.8029 25.6063C12.956 25.6244 13.047 25.6339 13.0521 25.6345C13.0962 25.6402 13.1321 25.615 13.1473 25.5768C13.1624 25.5387 13.1508 25.4947 13.1181 25.4693ZM5.78518 25.592C6.22581 24.6521 6.4634 23.2379 6.33801 22.3024C6.15911 20.9683 5.41028 20.9264 5.00589 20.9345C5.06321 20.823 5.18235 20.6594 5.41253 20.5655C5.44104 20.554 5.46184 20.5287 5.46809 20.4984C5.47454 20.4675 5.63196 19.7398 6.24094 19.7398C6.84241 19.7398 7.60129 20.5785 8.12942 21.8266C8.13557 21.8412 8.14543 21.854 8.15793 21.8637L12.7429 25.413C11.9348 25.3149 9.82316 25.024 8.57238 24.5311C7.91858 24.2736 7.76955 23.8817 7.63811 23.5359C7.62004 23.4881 7.56633 23.4644 7.51867 23.4824C7.47092 23.5006 7.4469 23.5541 7.46516 23.6018C7.59582 23.9454 7.77483 24.4161 8.50461 24.7036C8.65334 24.7622 8.81389 24.818 8.98273 24.8709C8.95334 24.96 8.76623 25.4144 7.93664 25.7125C7.26438 25.9541 6.78596 26.3613 6.72063 26.7292C6.47493 26.7282 6.25569 26.7286 6.07151 26.7298V26.4627C6.07151 26.2598 6.26702 25.9659 6.47395 25.6547C6.76233 25.2211 7.08918 24.7296 7.08918 24.2268C7.08918 24.1758 7.04768 24.1343 6.9966 24.1343C6.94553 24.1343 6.90403 24.1758 6.90403 24.2268C6.90403 24.6736 6.59358 25.1404 6.31975 25.5521C6.08713 25.9018 5.88635 26.2039 5.88635 26.4626V26.7312C5.7467 26.7327 5.63723 26.7346 5.56585 26.7366C5.54934 26.5625 5.53987 26.1152 5.78518 25.592ZM9.45422 25.0059C9.34719 25.3034 9.03039 25.4041 8.79553 25.4363C9.05012 25.21 9.13605 25.0008 9.16017 24.9242C9.25607 24.9525 9.35451 24.9796 9.45422 25.0059ZM9.63254 25.0519C9.73439 25.0775 9.83713 25.1021 9.94093 25.126C9.8465 25.3181 9.59416 25.4123 9.31838 25.4517C9.4551 25.365 9.57092 25.2371 9.63254 25.0519ZM12.2481 27.1037C11.3102 26.8147 8.60353 26.7408 6.90725 26.73C6.96467 26.5198 7.23088 26.2438 7.68166 26.0226C7.68625 26.0234 7.69045 26.0255 7.69524 26.0255C10.2275 26.0345 11.9901 26.41 12.3939 26.5047L12.2481 27.1037ZM12.1286 27.594L11.7587 27.1813C11.9351 27.212 12.0854 27.2462 12.2042 27.2842L12.1286 27.594ZM7.34309 27.6593L7.52297 27.8286C7.4676 27.8282 7.41301 27.8276 7.35637 27.8273C7.35149 27.773 7.34739 27.7155 7.34309 27.6593ZM12.018 28.0484L11.548 27.5334C11.517 27.4994 11.4658 27.4931 11.4282 27.5189L10.8763 27.8885L10.461 27.4333C10.4288 27.3979 10.3743 27.3932 10.3363 27.4222L9.83742 27.8048L9.38469 27.3578C9.3507 27.3242 9.2964 27.3221 9.26008 27.3528L8.77268 27.7628L8.31604 27.339C8.28147 27.307 8.22785 27.3063 8.19211 27.3373L7.71574 27.7559L7.32405 27.3874C7.31721 27.2774 7.31115 27.1641 7.30588 27.0476L7.65656 27.392C7.69074 27.4257 7.74514 27.4271 7.78166 27.3961L8.27219 26.9738L8.72033 27.4151C8.75412 27.4484 8.80793 27.4506 8.84455 27.4203L9.33664 27.0102L9.80881 27.4551C9.84211 27.4863 9.89289 27.4889 9.92853 27.4611L10.4224 27.0823L10.8356 27.5564C10.8668 27.5923 10.9202 27.5984 10.9591 27.5709L11.5084 27.1795L12.0545 27.7887C12.061 27.7959 12.0693 27.8004 12.0773 27.8051L12.018 28.0484ZM11.7403 28.0186C11.5931 28 11.3874 27.978 11.1089 27.9555L11.4652 27.717L11.7403 28.0186ZM10.6576 27.9232C10.4719 27.9115 10.2636 27.9002 10.031 27.8895L10.3816 27.6208L10.6576 27.9232ZM9.64357 27.8733C9.43185 27.8653 9.20168 27.8581 8.95441 27.8517L9.31476 27.5486L9.64357 27.8733ZM8.58762 27.8432C8.37434 27.8389 8.14768 27.8352 7.9093 27.8324L8.25178 27.5316L8.58762 27.8432ZM7.44104 26.9212C7.63303 26.9236 7.83303 26.9271 8.03762 26.9314L7.72531 27.2003L7.44104 26.9212ZM8.50441 26.9427C8.70324 26.9481 8.90412 26.9549 9.10461 26.9624L8.79035 27.2242L8.50441 26.9427ZM9.57746 26.9828C9.78976 26.9931 9.99933 27.0045 10.2026 27.0176L9.87844 27.2662L9.57746 26.9828ZM10.6397 27.0497C10.868 27.0682 11.084 27.0892 11.2828 27.113L10.92 27.3715L10.6397 27.0497ZM5.73069 26.9183C6.00872 26.9142 6.50706 26.912 7.11496 26.9175C7.14963 27.7968 7.22649 28.5031 7.34319 29.022H6.10286L5.73069 26.9183ZM11.7811 29.022H7.53254C7.4676 28.7438 7.41496 28.4058 7.37463 28.0125C10.4694 28.0329 11.645 28.1865 11.9389 28.2346C11.9476 28.243 11.9572 28.25 11.968 28.2543L11.7811 29.022ZM12.4376 26.325C12.0464 26.2335 10.4316 25.8908 8.10217 25.8461C8.26633 25.7806 8.40627 25.7098 8.52414 25.6366C8.57922 25.6435 8.74143 25.6614 8.94475 25.6614C9.36691 25.6614 9.95998 25.5815 10.1237 25.1669C11.0853 25.3773 12.0708 25.5155 12.6181 25.5839L12.4376 26.325Z" fill="#464655"/>
<path d="M6.50254 20.3719C6.50254 20.2019 6.36426 20.0635 6.19414 20.0635C6.02412 20.0635 5.88574 20.2018 5.88574 20.3719C5.88574 20.5419 6.02402 20.6803 6.19414 20.6803C6.36416 20.6803 6.50254 20.5419 6.50254 20.3719ZM6.19414 20.4952C6.12607 20.4952 6.0708 20.4399 6.0708 20.3719C6.0708 20.3038 6.12607 20.2485 6.19414 20.2485C6.26221 20.2485 6.31748 20.3038 6.31748 20.3719C6.31748 20.4399 6.26221 20.4952 6.19414 20.4952Z" fill="#464655"/>
<path d="M8.77978 26.106C8.6125 26.106 8.47656 26.242 8.47656 26.4092C8.47656 26.5764 8.6126 26.7124 8.77978 26.7124C8.94697 26.7124 9.08311 26.5764 9.08311 26.4092C9.08311 26.242 8.94697 26.106 8.77978 26.106ZM8.77978 26.5274C8.71455 26.5274 8.66162 26.4744 8.66162 26.4093C8.66162 26.3441 8.71465 26.2911 8.77978 26.2911C8.84502 26.2911 8.89814 26.3441 8.89814 26.4093C8.89814 26.4744 8.84492 26.5274 8.77978 26.5274Z" fill="#464655"/>
<path d="M9.68613 26.1577C9.51885 26.1577 9.38281 26.2938 9.38281 26.461C9.38281 26.6282 9.51895 26.7643 9.68613 26.7643C9.85342 26.7643 9.98935 26.6282 9.98935 26.461C9.98935 26.2938 9.85342 26.1577 9.68613 26.1577ZM9.68613 26.5792C9.6209 26.5792 9.56777 26.5262 9.56777 26.461C9.56777 26.3958 9.6209 26.3427 9.68613 26.3427C9.75137 26.3427 9.8043 26.3958 9.8043 26.461C9.80439 26.5262 9.75137 26.5792 9.68613 26.5792Z" fill="#464655"/>
</g>
<defs>
<clipPath id="clip0_106_16671">
<rect width="50" height="50" fill="white"/>
</clipPath>
</defs>
</svg>
