<svg width="32" height="32" viewBox="0 0 32 32" fill="none" xmlns="http://www.w3.org/2000/svg">
<path fill-rule="evenodd" clip-rule="evenodd" d="M23.8169 12.0989C23.9006 11.6338 23.9442 11.1551 23.9442 10.6667C23.9442 6.27497 20.4138 2.66675 16 2.66675C11.5862 2.66675 8.05577 6.27497 8.05577 10.6667C8.05577 11.1551 8.09942 11.6338 8.1831 12.0989C5.29941 13.5204 3.6202 16.0626 2.89109 20.0001C1.65661 26.6667 5.44493 29.3334 16 29.3334C26.5551 29.3334 30.3433 26.6667 29.109 20.0001C28.3799 16.0625 26.7007 13.5204 23.8169 12.0989ZM10.7481 11.1965C12.2604 10.8362 14.0045 10.6667 16 10.6667C17.9956 10.6667 19.7396 10.8362 21.2519 11.1964C21.2689 11.0222 21.2776 10.8455 21.2776 10.6667C21.2776 7.72123 18.9147 5.33341 16 5.33341C13.0853 5.33341 10.7224 7.72123 10.7224 10.6667C10.7224 10.8455 10.7311 11.0222 10.7481 11.1965ZM10.7226 20.0001C11.4513 20.0001 12.042 19.4031 12.042 18.6667C12.042 17.9304 11.4513 17.3334 10.7226 17.3334C9.99394 17.3334 9.40323 17.9304 9.40323 18.6667C9.40323 19.4031 9.99394 20.0001 10.7226 20.0001ZM22.5969 18.6667C22.5969 19.4031 22.0062 20.0001 21.2775 20.0001C20.5489 20.0001 19.9582 19.4031 19.9582 18.6667C19.9582 17.9304 20.5489 17.3334 21.2775 17.3334C22.0062 17.3334 22.5969 17.9304 22.5969 18.6667Z" fill="url(#paint0_linear_48_2425)"/>
<path d="M10.7226 20.0001C11.4513 20.0001 12.042 19.4031 12.042 18.6667C12.042 17.9304 11.4513 17.3334 10.7226 17.3334C9.99394 17.3334 9.40323 17.9304 9.40323 18.6667C9.40323 19.4031 9.99394 20.0001 10.7226 20.0001Z" fill="#001A52"/>
<path d="M22.5969 18.6667C22.5969 19.4031 22.0062 20.0001 21.2775 20.0001C20.5489 20.0001 19.9582 19.4031 19.9582 18.6667C19.9582 17.9304 20.5489 17.3334 21.2775 17.3334C22.0062 17.3334 22.5969 17.9304 22.5969 18.6667Z" fill="#001A52"/>
<path d="M23.8133 12.0934C23.8976 11.6332 24 11.0662 24 10.5829C24 6.23715 20.4448 2.66675 16 2.66675C11.5552 2.66675 8.00001 6.23715 8.00001 10.5829C8.00001 11.0662 8.10241 11.6332 8.18667 12.0934L10.7467 11.2001C10.7296 11.0277 10.72 10.8436 10.72 10.6667C10.72 7.7521 13.0648 5.33341 16 5.33341C18.9352 5.33341 21.28 7.7521 21.28 10.6667C21.28 10.8436 21.2705 11.0277 21.2533 11.2001L23.8133 12.0934Z" fill="#001A52"/>
<defs>
<linearGradient id="paint0_linear_48_2425" x1="16" y1="2.66675" x2="16" y2="29.3334" gradientUnits="userSpaceOnUse">
<stop stop-color="#004FFF"/>
<stop offset="1" stop-color="#001A52"/>
</linearGradient>
</defs>
</svg>
