<svg width="32" height="32" viewBox="0 0 32 32" fill="none" xmlns="http://www.w3.org/2000/svg">
<path d="M29.3333 17.3333C29.3333 21.3333 28 22.6666 21.3333 22.6666C14.6667 22.6666 13.3333 21.3333 13.3333 17.3333C13.3333 13.3333 14.6667 11.9999 21.3333 11.9999C28 11.9999 29.3333 13.3333 29.3333 17.3333Z" fill="url(#paint0_linear_48_2431)"/>
<path d="M25.3333 26.6666C25.3333 27.403 24.6667 27.9999 21.3333 27.9999C18 27.9999 17.3333 27.403 17.3333 26.6666C17.3333 25.9302 18 25.3333 21.3333 25.3333C24.6667 25.3333 25.3333 25.9302 25.3333 26.6666Z" fill="#001A52"/>
<path d="M2.66666 9.33325C2.66666 7.57993 2.66666 6.70327 3.15091 6.11321C3.23956 6.00519 3.33861 5.90615 3.44663 5.8175C4.03668 5.33325 4.91334 5.33325 6.66666 5.33325C8.41999 5.33325 9.29665 5.33325 9.8867 5.8175C9.99472 5.90615 10.0938 6.00519 10.1824 6.11321C10.6667 6.70327 10.6667 7.57993 10.6667 9.33325V25.3333C10.6667 27.0866 10.6667 27.9632 10.1824 28.5533C10.0938 28.6613 9.99472 28.7604 9.8867 28.849C9.29665 29.3333 8.41999 29.3333 6.66666 29.3333C4.91334 29.3333 4.03668 29.3333 3.44663 28.849C3.33861 28.7604 3.23956 28.6613 3.15091 28.5533C2.66666 27.9632 2.66666 27.0866 2.66666 25.3333V9.33325Z" fill="url(#paint1_linear_48_2431)"/>
<path d="M8 25.3333C8 26.0696 7.40304 26.6666 6.66666 26.6666C5.93028 26.6666 5.33333 26.0696 5.33333 25.3333C5.33333 24.5969 5.93028 23.9999 6.66666 23.9999C7.40304 23.9999 8 24.5969 8 25.3333Z" fill="#001A52"/>
<defs>
<linearGradient id="paint0_linear_48_2431" x1="16" y1="5.33325" x2="16" y2="29.3333" gradientUnits="userSpaceOnUse">
<stop stop-color="#004FFF"/>
<stop offset="1" stop-color="#001A52"/>
</linearGradient>
<linearGradient id="paint1_linear_48_2431" x1="16" y1="5.33325" x2="16" y2="29.3333" gradientUnits="userSpaceOnUse">
<stop stop-color="#004FFF"/>
<stop offset="1" stop-color="#001A52"/>
</linearGradient>
</defs>
</svg>
