<svg width="32" height="32" viewBox="0 0 32 32" fill="none" xmlns="http://www.w3.org/2000/svg">
<path d="M24 16.0001C24 15.2637 24.597 14.6667 25.3333 14.6667H28C28.7364 14.6667 29.3333 15.2637 29.3333 16.0001C29.3333 16.7365 28.7364 17.3334 28 17.3334H25.3333C24.597 17.3334 24 16.7365 24 16.0001Z" fill="#001A52"/>
<path d="M2.66667 16.0001C2.66667 15.2637 3.26363 14.6667 4.00001 14.6667H6.66667C7.40305 14.6667 8.00001 15.2637 8.00001 16.0001C8.00001 16.7365 7.40305 17.3334 6.66667 17.3334H4.00001C3.26363 17.3334 2.66667 16.7365 2.66667 16.0001Z" fill="#001A52"/>
<path fill-rule="evenodd" clip-rule="evenodd" d="M17.7143 17.3334C16.6667 16.0001 15.3333 16.0001 14.2857 17.3334L12 15.4873C14 12.6155 18 12.6155 20 15.4873L17.7143 17.3334Z" fill="#001A52"/>
<path d="M14.6667 16.0001C14.6667 18.9456 12.2789 21.3334 9.33334 21.3334C6.38782 21.3334 4.00001 18.9456 4.00001 16.0001C4.00001 13.0546 6.38782 10.6667 9.33334 10.6667C12.2789 10.6667 14.6667 13.0546 14.6667 16.0001Z" fill="url(#paint0_linear_48_2478)"/>
<path d="M28 16.0001C28 18.9456 25.6122 21.3334 22.6667 21.3334C19.7212 21.3334 17.3333 18.9456 17.3333 16.0001C17.3333 13.0546 19.7212 10.6667 22.6667 10.6667C25.6122 10.6667 28 13.0546 28 16.0001Z" fill="url(#paint1_linear_48_2478)"/>
<defs>
<linearGradient id="paint0_linear_48_2478" x1="16" y1="10.6667" x2="16" y2="21.3334" gradientUnits="userSpaceOnUse">
<stop stop-color="#004FFF"/>
<stop offset="1" stop-color="#001A52"/>
</linearGradient>
<linearGradient id="paint1_linear_48_2478" x1="16" y1="10.6667" x2="16" y2="21.3334" gradientUnits="userSpaceOnUse">
<stop stop-color="#004FFF"/>
<stop offset="1" stop-color="#001A52"/>
</linearGradient>
</defs>
</svg>
