<svg width="32" height="32" viewBox="0 0 32 32" fill="none" xmlns="http://www.w3.org/2000/svg">
<path d="M9.31104 11.8675C9.87933 11.8675 9.48199 23.7463 9.34961 27.3196C9.32745 27.9179 9.69854 28.4595 10.274 28.6149C13.8234 29.5729 18.1767 29.5729 21.726 28.6149C22.3014 28.4595 22.6725 27.9179 22.6504 27.3196C22.518 23.7463 22.1206 11.8675 22.6889 11.8675C23.0727 11.8675 23.8966 12.7528 24.5294 13.5077C25.0722 14.1552 25.8754 14.5708 26.6693 14.2875C27.7374 13.9062 28.8963 13.1674 29.2612 12.3674C29.4029 12.0568 29.3131 11.7044 29.1868 11.3871L27.5535 7.28107C27.01 5.91474 25.9328 4.83193 24.5732 4.28508L19.6217 2.75581C19.4305 2.69677 19.2316 2.66675 19.0315 2.66675H17.3333H14.6667H12.9685C12.7684 2.66675 12.5695 2.69677 12.3783 2.75581L7.42675 4.28508C6.06716 4.83193 4.99005 5.91474 4.44653 7.28106L2.81317 11.3871C2.68694 11.7044 2.59709 12.0568 2.73881 12.3674C3.10374 13.1674 4.26256 13.9062 5.33072 14.2875C6.12464 14.5708 6.92781 14.1552 7.47055 13.5077C8.10338 12.7528 8.92733 11.8675 9.31104 11.8675Z" fill="#001A52"/>
<path d="M9.31104 11.8675C9.87933 11.8675 9.48199 23.7464 9.34961 27.3196C9.32745 27.9179 9.69854 28.4596 10.274 28.6149C13.8234 29.5729 18.1767 29.5729 21.726 28.6149C22.3014 28.4596 22.6725 27.9179 22.6504 27.3197C22.518 23.7464 22.1206 11.8675 22.6889 11.8675C23.0727 11.8675 23.8966 12.7529 24.5294 13.5078C25.0722 14.1553 25.8754 14.5709 26.6693 14.2875C27.7374 13.9063 28.8963 13.1674 29.2612 12.3675C29.4029 12.0568 29.3131 11.7045 29.1868 11.3871L27.5535 7.28113C27.01 5.9148 25.9328 4.83199 24.5732 4.28514L20.6692 2.71489C20.3135 2.57179 19.9112 2.75923 19.7901 3.12454C18.5767 6.78505 13.4233 6.78505 12.2098 3.12454C12.0887 2.75923 11.6865 2.57179 11.3307 2.71489L7.42675 4.28514C6.06716 4.83199 4.99005 5.9148 4.44653 7.28112L2.81317 11.3871C2.68694 11.7045 2.59709 12.0568 2.73881 12.3675C3.10374 13.1674 4.26256 13.9063 5.33072 14.2875C6.12464 14.5709 6.92781 14.1553 7.47055 13.5078C8.10338 12.7529 8.92733 11.8675 9.31104 11.8675Z" fill="url(#paint0_linear_48_2419)"/>
<defs>
<linearGradient id="paint0_linear_48_2419" x1="15.9998" y1="2.45115" x2="15.9998" y2="29.3335" gradientUnits="userSpaceOnUse">
<stop stop-color="#004FFF"/>
<stop offset="1" stop-color="#001A52"/>
</linearGradient>
</defs>
</svg>
