<svg width="32" height="32" viewBox="0 0 32 32" fill="none" xmlns="http://www.w3.org/2000/svg">
<path d="M11.4192 9.91071C11.3855 9.96202 11.3477 10.0195 11.3048 10.0862C12.3123 10.5539 14.4344 10.0113 15.2916 9.35393C14.5559 8.65181 13.9607 8.27755 13.1896 8.038C12.6062 7.85678 12.0763 8.34919 11.8625 8.97421C11.6754 9.52076 11.6102 9.62006 11.4192 9.91071Z" fill="#001A52"/>
<path d="M3.28481 17.415C2.8232 12.979 2.97365 5.3599 5.93868 9.22091C8.40738 12.0123 14.147 12.2592 16.0255 11.0032C16.2896 10.8266 16.6529 10.788 16.8872 11.0097C18.8293 12.8468 21.7898 15.2195 27.7535 17.3427C29.0303 17.7973 29.257 18.7909 29.3333 19.8922L26.7666 20.5208C25.289 20.8827 23.7864 21.0155 22.315 20.8146C19.4269 20.4203 16.9042 19.8055 14.4248 19.2013C13.8015 19.0495 13.181 18.8983 12.5581 18.7514C9.64101 18.0635 6.69931 17.4788 3.28481 17.415Z" fill="url(#paint0_linear_40_2336)"/>
<path d="M3.19513 18.8782C2.21521 19.9899 2.42439 24 5.3154 24H20.8974C23.3906 24 25.8837 24 28.3768 22.6685C28.7385 22.4754 29.0194 22.0106 29.1832 21.4293L27.0549 21.9505C25.4608 22.3409 23.8029 22.4936 22.1516 22.2681C19.1952 21.8645 16.5978 21.2313 14.1126 20.6254C13.4961 20.4752 12.8865 20.3266 12.2801 20.1836C9.37314 19.4981 6.50966 18.9331 3.19513 18.8782Z" fill="#001A52"/>
<defs>
<linearGradient id="paint0_linear_40_2336" x1="3.33332" y1="12.6667" x2="29.3333" y2="19.3333" gradientUnits="userSpaceOnUse">
<stop stop-color="#004FFF"/>
<stop offset="1" stop-color="#001A52"/>
</linearGradient>
</defs>
</svg>
