<svg width="32" height="32" viewBox="0 0 32 32" fill="none" xmlns="http://www.w3.org/2000/svg">
<path d="M26.6667 18.6667C26.6667 26.6667 24 29.3334 16 29.3334C8 29.3334 5.33333 26.6667 5.33333 18.6667C5.33333 10.6667 8 8.00008 16 8.00008C24 8.00008 26.6667 10.6667 26.6667 18.6667Z" fill="url(#paint0_linear_48_2483)"/>
<path d="M22.6667 16.0001C22.6667 17.4728 21.4728 18.6667 20 18.6667C18.5272 18.6667 17.3333 17.4728 17.3333 16.0001C17.3333 14.5273 18.5272 13.3334 20 13.3334C21.4728 13.3334 22.6667 14.5273 22.6667 16.0001Z" fill="#001A52"/>
<path d="M14.6667 16.0001C14.6667 17.4728 13.4728 18.6667 12 18.6667C10.5272 18.6667 9.33333 17.4728 9.33333 16.0001C9.33333 14.5273 10.5272 13.3334 12 13.3334C13.4728 13.3334 14.6667 14.5273 14.6667 16.0001Z" fill="#001A52"/>
<path d="M20 24.0001C20 24.7365 19.3333 25.3334 16 25.3334C12.6667 25.3334 12 24.7365 12 24.0001C12 23.2637 12.6667 22.6667 16 22.6667C19.3333 22.6667 20 23.2637 20 24.0001Z" fill="#001A52"/>
<path d="M29.3333 18.6667C29.3333 21.3334 28.6667 22.6667 26.6667 22.6667C24.6667 22.6667 24 22.0001 24 18.6667C24 15.3334 24.6667 14.6667 26.6667 14.6667C28.6667 14.6667 29.3333 16.0001 29.3333 18.6667Z" fill="url(#paint1_linear_48_2483)"/>
<path d="M8 18.6667C8 22.0001 7.33333 22.6667 5.33333 22.6667C3.33333 22.6667 2.66666 21.3334 2.66666 18.6667C2.66666 16.0001 3.33333 14.6667 5.33333 14.6667C7.33333 14.6667 8 15.3334 8 18.6667Z" fill="url(#paint2_linear_48_2483)"/>
<path d="M17.3333 6.66675C17.3333 10.0001 16.7364 10.6667 16 10.6667C15.2636 10.6667 14.6667 10.0001 14.6667 6.66675C14.6667 3.33341 15.2636 2.66675 16 2.66675C16.7364 2.66675 17.3333 3.33341 17.3333 6.66675Z" fill="url(#paint3_linear_48_2483)"/>
<defs>
<linearGradient id="paint0_linear_48_2483" x1="16" y1="2.66675" x2="16" y2="29.3334" gradientUnits="userSpaceOnUse">
<stop stop-color="#004FFF"/>
<stop offset="1" stop-color="#001A52"/>
</linearGradient>
<linearGradient id="paint1_linear_48_2483" x1="16" y1="2.66675" x2="16" y2="29.3334" gradientUnits="userSpaceOnUse">
<stop stop-color="#004FFF"/>
<stop offset="1" stop-color="#001A52"/>
</linearGradient>
<linearGradient id="paint2_linear_48_2483" x1="16" y1="2.66675" x2="16" y2="29.3334" gradientUnits="userSpaceOnUse">
<stop stop-color="#004FFF"/>
<stop offset="1" stop-color="#001A52"/>
</linearGradient>
<linearGradient id="paint3_linear_48_2483" x1="16" y1="2.66675" x2="16" y2="29.3334" gradientUnits="userSpaceOnUse">
<stop stop-color="#004FFF"/>
<stop offset="1" stop-color="#001A52"/>
</linearGradient>
</defs>
</svg>
