<svg width="32" height="32" viewBox="0 0 32 32" fill="none" xmlns="http://www.w3.org/2000/svg">
<path d="M24 16.342C24 20.8735 20.4183 24.5471 16 24.5471C11.5817 24.5471 8 20.8735 8 16.342C8 11.8104 11.5817 8.13683 16 8.13683C20.4183 8.13683 24 11.8104 24 16.342Z" fill="url(#paint0_linear_48_2458)"/>
<path d="M10.6667 7.45307C10.6667 4.80966 12.756 2.66675 15.3333 2.66675H16.6667C19.244 2.66675 21.3333 4.80966 21.3333 7.45307L20.7398 7.04725C19.8112 6.41227 18.7702 5.97004 17.6758 5.74554C16.5695 5.51862 15.4305 5.51862 14.3242 5.74554C13.2298 5.97004 12.1888 6.41227 11.2602 7.04725L10.6667 7.45307Z" fill="#001A52"/>
<path d="M21.3333 24.5471C21.3333 27.1905 19.244 29.3334 16.6667 29.3334H15.3333C12.756 29.3334 10.6667 27.1905 10.6667 24.5471L11.2602 24.9529C12.1888 25.5879 13.2298 26.0301 14.3242 26.2546C15.4305 26.4815 16.5695 26.4815 17.6758 26.2546C18.7702 26.0301 19.8112 25.5879 20.7398 24.9529L21.3333 24.5471Z" fill="#001A52"/>
<path fill-rule="evenodd" clip-rule="evenodd" d="M16 12.2394C16.7364 12.2394 17.3333 12.8517 17.3333 13.6069V16.4968L18.464 18.3522C18.8543 18.9927 18.6644 19.8364 18.04 20.2367C17.4156 20.6369 16.5929 20.4422 16.2027 19.8018L14.8693 17.6138C14.7369 17.3964 14.6667 17.1453 14.6667 16.889V13.6069C14.6667 12.8517 15.2636 12.2394 16 12.2394Z" fill="#001A52"/>
<defs>
<linearGradient id="paint0_linear_48_2458" x1="16" y1="2.66675" x2="16" y2="29.3334" gradientUnits="userSpaceOnUse">
<stop stop-color="#004FFF"/>
<stop offset="1" stop-color="#001A52"/>
</linearGradient>
</defs>
</svg>
