<svg width="72" height="48" viewBox="0 0 72 48" fill="none" xmlns="http://www.w3.org/2000/svg">
<rect x="0.5" y="0.5" width="71" height="47" rx="11.5" fill="#1F72CD" stroke="#DDDDDD"/>
<path fill-rule="evenodd" clip-rule="evenodd" d="M13.5458 16.7002L7 31.2814H14.8362L15.8077 28.9566H18.0282L18.9997 31.2814H27.6251V29.507L28.3937 31.2814H32.8555L33.6241 29.4695V31.2814H51.5627L53.7439 29.017L55.7863 31.2814L65 31.3002L58.4336 24.0315L65 16.7002H55.9292L53.8059 18.9228L51.8278 16.7002H32.3129L30.6372 20.4637L28.9222 16.7002H21.1023V18.4142L20.2324 16.7002H13.5458ZM40.3333 18.7708H50.6345L53.7851 22.1965L57.0373 18.7708H60.188L55.4009 24.0295L60.188 29.2276H56.8944L53.7438 25.762L50.475 29.2276H40.3333V18.7708ZM42.8772 22.8471V20.9371V20.9353H49.3048L52.1095 23.9899L49.1806 27.0612H42.8772V24.976H48.4969V22.8471H42.8772ZM15.062 18.7708H18.8818L23.2236 28.6584V18.7708H27.4079L30.7615 25.8602L33.8522 18.7708H38.0156V29.2338H35.4822L35.4616 21.035L31.7682 29.2338H29.5019L25.7879 21.035V29.2338H20.5761L19.5881 26.8881H14.2501L13.2641 29.2317H10.4717L15.062 18.7708ZM15.1616 24.7197L16.9203 20.5411L18.6769 24.7197H15.1616Z" fill="white"/>
</svg>
