<svg width="72" height="48" viewBox="0 0 72 48" fill="none" xmlns="http://www.w3.org/2000/svg">
<rect x="0.5" y="0.5" width="71" height="47" rx="11.5" fill="#1F2433" stroke="#262D40"/>
<path fill-rule="evenodd" clip-rule="evenodd" d="M42.0076 23.9722C42.0022 20.0163 39.8648 16.6424 36.8529 15.3063V32.6375C39.8648 31.2996 42.0022 27.9289 42.0076 23.9722ZM31.1073 32.6342V15.3081C28.0982 16.6484 25.964 20.0174 25.9559 23.9724C25.964 27.9262 28.0982 31.2949 31.1073 32.6342ZM33.9817 9.32333C26.9886 9.32644 21.323 15.8822 21.3218 23.9722C21.323 32.0613 26.9886 38.616 33.9817 38.6174C40.9747 38.616 46.6415 32.0613 46.6433 23.9722C46.6415 15.8822 40.9747 9.32644 33.9817 9.32333ZM33.9506 39.9998C26.2983 40.0419 20 32.8699 20 24.1394C20 14.5979 26.2983 7.99827 33.9506 8H37.5367C45.0986 7.99827 52 14.5948 52 24.1394C52 32.8668 45.0986 39.9998 37.5367 39.9998H33.9506Z" fill="#0069AA"/>
</svg>
