<svg width="72" height="48" viewBox="0 0 72 48" fill="none" xmlns="http://www.w3.org/2000/svg">
<rect x="0.5" y="0.5" width="71" height="47" rx="11.5" fill="#1F2433" stroke="#262D40"/>
<path fill-rule="evenodd" clip-rule="evenodd" d="M61.8011 19.126C64.011 19.126 65.2265 20.1125 65.2265 21.9757C65.337 23.4006 64.3425 24.6062 63.0165 24.8254L66 28.8807H63.6795L61.1381 24.935H60.9171V28.8807H59.0386V19.126H61.8011ZM60.9171 23.6197H61.4696C62.6851 23.6197 63.2376 23.0717 63.2376 22.0853C63.2376 21.2085 62.6851 20.6605 61.4696 20.6605H60.9171V23.6197ZM52.5193 28.8807H57.8232V27.2366H54.3978V24.6062H57.7127V22.9621H54.3978V20.7701H57.8232V19.126H52.5193V28.8807V28.8807ZM46.9944 25.7022L44.453 19.126H42.4641L46.5524 29.0999H47.5469L51.6353 19.126H49.6464L46.9944 25.7022V25.7022ZM24.5635 24.0582C24.5635 26.7983 26.7735 29.0999 29.5359 29.0999C30.4199 29.0999 31.1934 28.8807 31.9669 28.5519V26.3598C31.4144 27.0175 30.6409 27.4559 29.7569 27.4559C27.989 27.4559 26.5525 26.1406 26.5525 24.387V24.1678C26.442 22.4141 27.8785 20.8797 29.6464 20.7701C30.5304 20.7701 31.4144 21.2085 31.9669 21.8661V19.6741C31.3039 19.2356 30.4199 19.126 29.6464 19.126C26.7735 18.9068 24.5635 21.2085 24.5635 24.0582V24.0582ZM21.1381 22.8525C20.0332 22.4141 19.7017 22.1949 19.7017 21.6469C19.8122 20.9893 20.3647 20.4413 21.0276 20.5509C21.5801 20.5509 22.1326 20.8797 22.5746 21.3181L23.5691 20.0029C22.7956 19.3452 21.8011 18.9068 20.8066 18.9068C19.2597 18.7972 17.9337 20.0029 17.8232 21.5373V21.6469C17.8232 22.9621 18.3757 23.7294 20.1437 24.2774C20.5857 24.387 21.0276 24.6062 21.4696 24.8254C21.8011 25.0446 22.0221 25.3734 22.0221 25.8118C22.0221 26.579 21.3591 27.2367 20.6962 27.2367H20.5857C19.7017 27.2367 18.9282 26.6886 18.5967 25.9214L17.3812 27.127C18.0442 28.3327 19.3702 28.9903 20.6962 28.9903C22.4641 29.0999 23.9006 27.7847 24.0111 26.031V25.7022C23.9006 24.387 23.3481 23.7294 21.1381 22.8525V22.8525ZM14.7293 28.8807H16.6078V19.126H14.7293V28.8807V28.8807ZM6 19.126H8.76243H9.31492C11.9669 19.2356 14.0663 21.4277 13.9558 24.0582C13.9558 25.483 13.2928 26.7983 12.1878 27.7847C11.1934 28.5519 9.9779 28.9903 8.76243 28.8807H6V19.126ZM8.43097 27.2367C9.31494 27.3463 10.3094 27.0175 10.9724 26.4695C11.6354 25.8118 11.9669 24.935 11.9669 23.9486C11.9669 23.0718 11.6354 22.1949 10.9724 21.5373C10.3094 20.9893 9.31494 20.6605 8.43097 20.7701H7.87848V27.2367H8.43097Z" fill="#F2F4F7"/>
<path fill-rule="evenodd" clip-rule="evenodd" d="M37.704 18.8999C34.9415 18.8999 32.6211 21.092 32.6211 23.9416C32.6211 26.6817 34.831 28.9834 37.704 29.093C40.5769 29.2026 42.7868 26.9009 42.8973 24.0512C42.7868 21.2016 40.5769 18.8999 37.704 18.8999Z" fill="url(#paint0_linear_396_5744)"/>
<path fill-rule="evenodd" clip-rule="evenodd" d="M37.704 18.8999C34.9415 18.8999 32.6211 21.092 32.6211 23.9416C32.6211 26.6817 34.831 28.9834 37.704 29.093C40.5769 29.2026 42.7868 26.9009 42.8973 24.0512C42.7868 21.2016 40.5769 18.8999 37.704 18.8999Z" fill="url(#paint1_radial_396_5744)"/>
<defs>
<linearGradient id="paint0_linear_396_5744" x1="34.6067" y1="19.8634" x2="41.2788" y2="27.6335" gradientUnits="userSpaceOnUse">
<stop stop-color="#E15315"/>
<stop offset="1" stop-color="#FFB320"/>
</linearGradient>
<radialGradient id="paint1_radial_396_5744" cx="0" cy="0" r="1" gradientUnits="userSpaceOnUse" gradientTransform="translate(38.4999 25.4999) rotate(-126.027) scale(6.80074 7.04119)">
<stop stop-color="#FFCD83" stop-opacity="0"/>
<stop offset="0.725604" stop-color="#E45816" stop-opacity="0.7"/>
<stop offset="1" stop-color="#912301"/>
</radialGradient>
</defs>
</svg>
