<svg width="72" height="48" viewBox="0 0 72 48" fill="none" xmlns="http://www.w3.org/2000/svg">
<rect x="0.5" y="0.5" width="71" height="47" rx="11.5" fill="#1F2433" stroke="#262D40"/>
<path fill-rule="evenodd" clip-rule="evenodd" d="M36 34.7316C33.5639 36.832 30.4038 38.0999 26.9508 38.0999C19.246 38.0999 13 31.7871 13 23.9999C13 16.2127 19.246 9.8999 26.9508 9.8999C30.4038 9.8999 33.5639 11.1678 36 13.2682C38.4361 11.1678 41.5961 9.8999 45.0491 9.8999C52.7539 9.8999 58.9999 16.2127 58.9999 23.9999C58.9999 31.7871 52.7539 38.0999 45.0491 38.0999C41.5961 38.0999 38.4361 36.832 36 34.7316Z" fill="#ED0006"/>
<path fill-rule="evenodd" clip-rule="evenodd" d="M36 34.7316C38.9996 32.1454 40.9017 28.2972 40.9017 23.9999C40.9017 19.7026 38.9996 15.8544 36 13.2682C38.4361 11.1678 41.5961 9.8999 45.0491 9.8999C52.754 9.8999 59 16.2127 59 23.9999C59 31.7871 52.754 38.0999 45.0491 38.0999C41.5961 38.0999 38.4361 36.832 36 34.7316Z" fill="#F9A000"/>
<path fill-rule="evenodd" clip-rule="evenodd" d="M36.0001 34.7312C38.9997 32.145 40.9016 28.2968 40.9016 23.9996C40.9016 19.7025 38.9997 15.8543 36.0001 13.2681C33.0006 15.8543 31.0986 19.7025 31.0986 23.9996C31.0986 28.2968 33.0006 32.145 36.0001 34.7312Z" fill="#FF5E00"/>
</svg>
