<svg width="72" height="48" viewBox="0 0 72 48" fill="none" xmlns="http://www.w3.org/2000/svg">
<rect x="0.5" y="0.5" width="71" height="47" rx="11.5" fill="#1F2433" stroke="#262D40"/>
<path fill-rule="evenodd" clip-rule="evenodd" d="M21.5005 32.4656H16.8272L13.3227 19.1223C13.1564 18.5085 12.8032 17.9659 12.2837 17.7102C10.9872 17.0675 9.55854 16.556 8 16.298V15.7843H15.5284C16.5674 15.7843 17.3467 16.556 17.4765 17.4522L19.2948 27.0771L23.9659 15.7843H28.5093L21.5005 32.4656ZM31.1069 32.4656H26.6934L30.3277 15.7843H34.7412L31.1069 32.4656ZM40.4511 20.4059C40.581 19.5074 41.3602 18.9937 42.2694 18.9937C43.698 18.8647 45.2543 19.1227 46.5531 19.7632L47.3323 16.1716C46.0336 15.6579 44.6049 15.3999 43.3084 15.3999C39.0247 15.3999 35.9076 17.7105 35.9076 20.9173C35.9076 23.3569 38.1155 24.6379 39.6741 25.4096C41.3602 26.179 42.0096 26.6928 41.8797 27.4622C41.8797 28.6164 40.581 29.1301 39.2845 29.1301C37.7259 29.1301 36.1674 28.7454 34.741 28.1027L33.9617 31.6965C35.5203 32.337 37.2064 32.5949 38.7649 32.5949C43.5681 32.7217 46.5531 30.4133 46.5531 26.9485C46.5531 22.5853 40.4511 22.3295 40.4511 20.4059ZM62.0003 32.4656L58.4959 15.7843H54.7317C53.9524 15.7843 53.1732 16.298 52.9134 17.0675L46.4241 32.4656H50.9675L51.8744 30.0282H57.4569L57.9764 32.4656H62.0003ZM55.381 20.2768L56.6775 26.5637H53.0432L55.381 20.2768Z" fill="#172B85"/>
</svg>
