<svg width="24" height="24" viewBox="0 0 24 24" fill="none" xmlns="http://www.w3.org/2000/svg">
<path d="M21.5808 17.5861C21.2218 18.2848 20.7967 18.928 20.3043 19.5193C19.633 20.3255 19.0834 20.8835 18.6598 21.1934C18.0032 21.702 17.2997 21.9625 16.5464 21.9773C16.0056 21.9773 15.3534 21.8477 14.5942 21.5847C13.8325 21.323 13.1325 21.1934 12.4925 21.1934C11.8212 21.1934 11.1013 21.323 10.3312 21.5847C9.56002 21.8477 8.93874 21.9847 8.46373 21.9983C7.74132 22.0242 7.02125 21.7563 6.30251 21.1934C5.84376 20.8563 5.26997 20.2786 4.58259 19.4601C3.84508 18.586 3.23875 17.5725 2.76374 16.417C2.25502 15.1689 2 13.9603 2 12.7902C2 11.4498 2.34384 10.2938 3.03254 9.32509C3.57379 8.54696 4.29386 7.93316 5.19508 7.48255C6.09629 7.03195 7.07006 6.80233 8.11872 6.78763C8.69251 6.78763 9.44497 6.93714 10.38 7.23096C11.3125 7.52576 11.9112 7.67526 12.1737 7.67526C12.3699 7.67526 13.035 7.50045 14.1625 7.15194C15.2288 6.82874 16.1287 6.69492 16.8659 6.74764C18.8635 6.88343 20.3644 7.54675 21.3625 8.74177C19.5758 9.6536 18.6921 10.9307 18.7097 12.5691C18.7258 13.8452 19.2754 14.9071 20.3556 15.7503C20.8451 16.1417 21.3918 16.4441 22 16.6589C21.8681 16.9812 21.7289 17.2898 21.5808 17.5861ZM16.9993 2.40011C16.9993 3.40034 16.5654 4.33425 15.7007 5.19867C14.6572 6.22629 13.395 6.8201 12.0262 6.7264C12.0088 6.60641 11.9987 6.48011 11.9987 6.3474C11.9987 5.38718 12.4949 4.35956 13.3762 3.51934C13.8162 3.09392 14.3758 2.74019 15.0544 2.45801C15.7315 2.18005 16.372 2.02632 16.9744 2C16.9919 2.13371 16.9993 2.26745 16.9993 2.40011Z" fill="#F2F4F7"/>
</svg>
