<svg width="24" height="24" viewBox="0 0 24 24" fill="none" xmlns="http://www.w3.org/2000/svg">
<path d="M9 14C9 14.5523 8.55229 15 8 15C7.44772 15 7 14.5523 7 14C7 13.4477 7.44772 13 8 13C8.55229 13 9 13.4477 9 14Z" fill="#F2F4F7"/>
<path d="M16 15C16.5523 15 17 14.5523 17 14C17 13.4477 16.5523 13 16 13C15.4477 13 15 13.4477 15 14C15 14.5523 15.4477 15 16 15Z" fill="#F2F4F7"/>
<path fill-rule="evenodd" clip-rule="evenodd" d="M6.11855 9.08342C3.96726 10.1513 2.71356 12.0554 2.16831 15C1.24246 20 4.0837 22 12 22C19.9163 22 22.7575 20 21.8317 15C21.2865 12.0554 20.0328 10.1513 17.8814 9.08339L17.8627 9.07411C17.89 8.92222 17.9116 8.7684 17.9274 8.61289C17.9408 8.47954 17.95 8.34494 17.9546 8.20926C17.957 8.13973 17.9582 8.06997 17.9582 8C17.9582 4.70616 15.3104 2 12 2C8.68962 2 6.04182 4.70616 6.04182 8C6.04182 8.02488 6.04197 8.04973 6.04227 8.07455C6.04448 8.25603 6.05472 8.43566 6.07266 8.61308C6.08837 8.76854 6.11 8.9223 6.13732 9.07414L6.11855 9.08342ZM15.575 6.28088C14.9383 4.93191 13.5756 4 12 4C10.4243 4 9.06171 4.93192 8.425 6.28089C8.17942 6.80153 8.04182 7.38441 8.04182 8C8.04182 8.03193 8.04219 8.06374 8.04292 8.09545C8.04528 8.19705 8.05138 8.2977 8.0611 8.39729C8.67088 8.25202 9.33089 8.14812 10.0435 8.0831C10.6563 8.02717 11.308 8 12 8C12.692 8 13.3437 8.02717 13.9565 8.08309C14.6691 8.14812 15.3291 8.25201 15.9389 8.39727C15.9472 8.31168 15.9529 8.22528 15.9559 8.13819C15.9574 8.09236 15.9582 8.04629 15.9582 8C15.9582 7.3844 15.8206 6.80152 15.575 6.28088ZM16.3222 10.5446L15.4754 10.3428C14.535 10.1188 13.3905 10 12 10C10.6095 10 9.46504 10.1188 8.52458 10.3428L7.67777 10.5446L7.02161 10.868C5.57433 11.5815 4.60091 12.8474 4.13488 15.3642C3.93763 16.4294 3.97768 17.153 4.12063 17.6429C4.24967 18.0852 4.48783 18.4329 4.92638 18.7444C5.95527 19.4751 8.07169 20 12 20C15.9283 20 18.0447 19.4751 19.0736 18.7444C19.5122 18.4329 19.7503 18.0852 19.8794 17.6429C20.0223 17.153 20.0624 16.4294 19.8651 15.3641C19.3991 12.8474 18.4257 11.5814 16.9784 10.868L16.3222 10.5446Z" fill="#F2F4F7"/>
</svg>
