<svg width="24" height="24" viewBox="0 0 24 24" fill="none" xmlns="http://www.w3.org/2000/svg">
<path fill-rule="evenodd" clip-rule="evenodd" d="M17.8627 9.07411C17.9254 8.72528 17.9582 8.36627 17.9582 8C17.9582 4.70616 15.3104 2 12 2C8.68962 2 6.04182 4.70616 6.04182 8C6.04182 8.36628 6.07456 8.7253 6.13732 9.07414C3.97455 10.1403 2.71514 12.0469 2.16831 15C1.24246 20 4.0837 22 12 22C19.9163 22 22.7575 20 21.8317 15C21.2849 12.0468 20.0255 10.1402 17.8627 9.07411ZM8.0611 8.39729C9.19531 8.12709 10.5033 8 12 8C13.4967 8 14.8047 8.12709 15.9389 8.39727C15.9516 8.26659 15.9582 8.13407 15.9582 8C15.9582 5.79086 14.186 4 12 4C9.81396 4 8.04182 5.79086 8.04182 8C8.04182 8.13407 8.04835 8.2666 8.0611 8.39729ZM8.04196 15C8.58847 15 9.0315 14.5523 9.0315 14C9.0315 13.4477 8.58847 13 8.04196 13C7.49545 13 7.05242 13.4477 7.05242 14C7.05242 14.5523 7.49545 15 8.04196 15ZM16.9477 14C16.9477 14.5523 16.5047 15 15.9582 15C15.4116 15 14.9686 14.5523 14.9686 14C14.9686 13.4477 15.4116 13 15.9582 13C16.5047 13 16.9477 13.4477 16.9477 14Z" fill="#F2F4F7"/>
</svg>
