<svg width="24" height="24" viewBox="0 0 24 24" fill="none" xmlns="http://www.w3.org/2000/svg">
<path fill-rule="evenodd" clip-rule="evenodd" d="M4 13C4 12.0567 4.41795 11.1744 5.14443 10.4215C5.04974 9.9625 5 9.48706 5 9C5 5.13401 8.13401 2 12 2C15.866 2 19 5.13401 19 9C19 9.48706 18.9503 9.9625 18.8556 10.4215C19.582 11.1744 20 12.0567 20 13C20 15.7614 16.4183 18 12 18C7.58172 18 4 15.7614 4 13Z" fill="#F2F4F7"/>
<path d="M10.7993 19.399C10.4674 18.9576 9.84047 18.8688 9.39904 19.2007C8.95761 19.5326 8.86882 20.1595 9.20072 20.601C10.6008 22.463 13.3992 22.463 14.7993 20.601C15.1312 20.1595 15.0424 19.5326 14.601 19.2007C14.1595 18.8688 13.5326 18.9576 13.2007 19.399C12.6008 20.197 11.3992 20.197 10.7993 19.399Z" fill="#F2F4F7"/>
</svg>
