<svg width="24" height="24" viewBox="0 0 24 24" fill="none" xmlns="http://www.w3.org/2000/svg">
<path d="M18 6C18 8 18 10 17 10C16 10 16 8 16 6C16 4 16 2 17 2C18 2 18 4 18 6Z" fill="#F2F4F7"/>
<path d="M8 6C8 8 8 10 7 10C6 10 6 8 6 6C6 4 6 2 7 2C8 2 8 4 8 6Z" fill="#F2F4F7"/>
<path d="M12 22C20 22 22 20.4 22 14C22 13.273 21.9742 12.6078 21.9167 12H2.0833C2.02581 12.6078 2 13.273 2 14C2 20.4 4 22 12 22Z" fill="#F2F4F7"/>
<path d="M2.45258 10C3.40298 6.89047 6.03187 6 12 6C17.9681 6 20.597 6.89047 21.5474 10H2.45258Z" fill="#F2F4F7"/>
</svg>
