<svg width="24" height="24" viewBox="0 0 24 24" fill="none" xmlns="http://www.w3.org/2000/svg">
<path fill-rule="evenodd" clip-rule="evenodd" d="M3.00958 2C4.6823 2 6.03831 3.34315 6.03831 5V7.14058C6.56322 6.95279 7.21955 6.80126 8.03831 6.65865C9.07925 6.47734 10.3827 6.31045 12.0125 6.10177L12.7137 6.01187C21.182 5.00007 23.1766 6.06852 21.4079 11.006C19.6393 15.9433 17.5154 16 12.7137 16C7.50302 16 4.02729 16 4.01941 11.0229L4.01915 11V5C4.01915 4.44772 3.56715 4 3.00958 4C2.452 4 2 3.55228 2 3C2 2.44772 2.452 2 3.00958 2ZM6.01915 10.0074C6.01915 9.56609 6.29646 9.17236 6.712 9.0237C7.64543 8.68976 9.23483 8.47375 12.2669 8.08553L12.9594 7.99673C15.0392 7.74846 16.637 7.63909 17.8415 7.67034C19.5251 7.71402 20.1811 8.5 19.5251 10.3315C18.7151 12.5925 17.9964 13.2415 17.3521 13.5423C16.4887 13.9454 15.2682 14 12.7137 14C11.3908 14 10.2755 13.999 9.30457 13.9277C8.32726 13.8559 7.64724 13.7209 7.17257 13.5267C6.74516 13.3519 6.52517 13.1482 6.37592 12.8924C6.204 12.5978 6.02104 12.0487 6.01941 11.0198L6.0194 11.01L6.01915 10.9886V10.0074ZM6.03831 22C7.15346 22 8.05746 21.1046 8.05746 20C8.05746 18.8954 7.15346 18 6.03831 18C4.92316 18 4.01915 18.8954 4.01915 20C4.01915 21.1046 4.92316 22 6.03831 22ZM18.1532 22C19.2684 22 20.1724 21.1046 20.1724 20C20.1724 18.8954 19.2684 18 18.1532 18C17.0381 18 16.1341 18.8954 16.1341 20C16.1341 21.1046 17.0381 22 18.1532 22ZM15 9C14.4477 9 14 9.44772 14 10C14 10.5523 14.4477 11 15 11H17C17.5523 11 18 10.5523 18 10C18 9.44772 17.5523 9 17 9H15Z" fill="#F2F4F7"/>
</svg>
