<svg width="24" height="24" viewBox="0 0 24 24" fill="none" xmlns="http://www.w3.org/2000/svg">
<path fill-rule="evenodd" clip-rule="evenodd" d="M3.00958 2C2.452 2 2 2.44772 2 3C2 3.55228 2.452 4 3.00958 4C3.56715 4 4.01915 4.44772 4.01915 5V11L4.01941 11.0229C4.02729 16 7.50302 16 12.7137 16C17.5154 16 19.6393 15.9433 21.4079 11.006C23.1766 6.06852 21.182 5.00007 12.7137 6.01187L12.0125 6.10177C9.1008 6.47458 7.23057 6.71404 6.03831 7.14058V5C6.03831 3.34315 4.6823 2 3.00958 2ZM15.1245 9C14.5722 9 14.1245 9.44772 14.1245 10C14.1245 10.5523 14.5722 11 15.1245 11H17.1628C17.7151 11 18.1628 10.5523 18.1628 10C18.1628 9.44772 17.7151 9 17.1628 9H15.1245Z" fill="#F2F4F7"/>
<path d="M8.05746 20C8.05746 21.1046 7.15346 22 6.03831 22C4.92316 22 4.01915 21.1046 4.01915 20C4.01915 18.8954 4.92316 18 6.03831 18C7.15346 18 8.05746 18.8954 8.05746 20Z" fill="#F2F4F7"/>
<path d="M20.1724 20C20.1724 21.1046 19.2684 22 18.1532 22C17.0381 22 16.1341 21.1046 16.1341 20C16.1341 18.8954 17.0381 18 18.1532 18C19.2684 18 20.1724 18.8954 20.1724 20Z" fill="#F2F4F7"/>
</svg>
