<svg width="24" height="24" viewBox="0 0 24 24" fill="none" xmlns="http://www.w3.org/2000/svg">
<path fill-rule="evenodd" clip-rule="evenodd" d="M17.5338 17.5504C20.3058 16.7018 22 14.5274 22 10C22 3.77778 18.4444 2 14 2C10.5403 2 7.61927 3.07724 6.49467 6.48955C3.82513 7.36544 2 9.54201 2 14C2 20.2222 5.2 22 10 22C13.7218 22 16.4817 20.9312 17.5338 17.5504ZM6.0407 8.88889C6.01378 9.24246 6 9.61262 6 10C6 16.2222 9.2 18 14 18C14.4091 18 14.8065 17.9871 15.1914 17.9596C14.9772 18.3272 14.7353 18.6079 14.4847 18.8267C13.626 19.5763 12.2191 20 10 20C7.78094 20 6.37398 19.5763 5.51532 18.8267C4.71296 18.1262 4 16.7917 4 14C4 11.2718 4.76601 9.92046 5.62522 9.19344C5.75371 9.08471 5.89216 8.98316 6.0407 8.88889Z" fill="#F2F4F7"/>
</svg>
