<svg width="72" height="48" viewBox="0 0 72 48" fill="none" xmlns="http://www.w3.org/2000/svg">
<mask id="path-1-inside-1_396_5779" fill="white">
<path fill-rule="evenodd" clip-rule="evenodd" d="M0 24C0 22.9524 0 21.9534 0.00279012 21H71.9972C72 21.9534 72 22.9524 72 24C72 35.3137 72 40.9706 68.4853 44.4853C64.9706 48 59.3137 48 48 48H24C12.6863 48 7.02944 48 3.51472 44.4853C0 40.9706 0 35.3137 0 24ZM71.8951 15H0.10489C0.338158 9.3831 1.0902 5.93924 3.51472 3.51472C7.02944 0 12.6863 0 24 0H48C59.3137 0 64.9706 0 68.4853 3.51472C70.9098 5.93924 71.6618 9.3831 71.8951 15ZM54 30C51.7909 30 50 31.7909 50 34C50 36.2091 51.7909 38 54 38H58C60.2091 38 62 36.2091 62 34C62 31.7909 60.2091 30 58 30H54Z"/>
</mask>
<path fill-rule="evenodd" clip-rule="evenodd" d="M0 24C0 22.9524 0 21.9534 0.00279012 21H71.9972C72 21.9534 72 22.9524 72 24C72 35.3137 72 40.9706 68.4853 44.4853C64.9706 48 59.3137 48 48 48H24C12.6863 48 7.02944 48 3.51472 44.4853C0 40.9706 0 35.3137 0 24ZM71.8951 15H0.10489C0.338158 9.3831 1.0902 5.93924 3.51472 3.51472C7.02944 0 12.6863 0 24 0H48C59.3137 0 64.9706 0 68.4853 3.51472C70.9098 5.93924 71.6618 9.3831 71.8951 15ZM54 30C51.7909 30 50 31.7909 50 34C50 36.2091 51.7909 38 54 38H58C60.2091 38 62 36.2091 62 34C62 31.7909 60.2091 30 58 30H54Z" fill="#F2F4F7"/>
<path d="M0.00279012 21V20H-0.994288L-0.997206 20.9971L0.00279012 21ZM71.9972 21L72.9972 20.9971L72.9943 20H71.9972V21ZM68.4853 44.4853L69.1924 45.1924L68.4853 44.4853ZM3.51472 44.4853L2.80761 45.1924H2.80761L3.51472 44.4853ZM0.10489 15L-0.894249 14.9585L-0.937501 16H0.10489V15ZM71.8951 15V16H72.9375L72.8942 14.9585L71.8951 15ZM3.51472 3.51472L4.22183 4.22183L3.51472 3.51472ZM68.4853 3.51472L67.7782 4.22183V4.22183L68.4853 3.51472ZM-0.997206 20.9971C-1 21.9522 -1 22.9527 -1 24H1C1 22.9521 1 21.9546 1.00279 21.0029L-0.997206 20.9971ZM71.9972 20H0.00279012V22H71.9972V20ZM73 24C73 22.9527 73 21.9522 72.9972 20.9971L70.9972 21.0029C71 21.9546 71 22.9521 71 24H73ZM69.1924 45.1924C71.1665 43.2183 72.0975 40.6792 72.5517 37.3005C73.0021 33.9506 73 29.6286 73 24H71C71 29.6851 70.9979 33.8484 70.5696 37.034C70.1451 40.1909 69.3188 42.2376 67.7782 43.7782L69.1924 45.1924ZM48 49C53.6286 49 57.9506 49.0021 61.3005 48.5517C64.6792 48.0975 67.2183 47.1665 69.1924 45.1924L67.7782 43.7782C66.2376 45.3188 64.1909 46.1451 61.034 46.5696C57.8484 46.9979 53.6851 47 48 47V49ZM24 49H48V47H24V49ZM2.80761 45.1924C4.78174 47.1665 7.32083 48.0975 10.6995 48.5517C14.0494 49.0021 18.3714 49 24 49V47C18.3149 47 14.1516 46.9979 10.966 46.5696C7.80911 46.1451 5.76242 45.3188 4.22183 43.7782L2.80761 45.1924ZM-1 24C-1 29.6286 -1.00212 33.9506 -0.551743 37.3005C-0.0974946 40.6792 0.833484 43.2183 2.80761 45.1924L4.22183 43.7782C2.68124 42.2376 1.85485 40.1909 1.43042 37.034C1.00212 33.8484 1 29.6851 1 24H-1ZM0.10489 16H71.8951V14H0.10489V16ZM2.80761 2.80761C0.0888593 5.52636 -0.660474 9.32941 -0.894249 14.9585L1.10403 15.0415C1.33679 9.43678 2.09154 6.35211 4.22183 4.22183L2.80761 2.80761ZM24 -1C18.3714 -1 14.0494 -1.00212 10.6995 -0.551743C7.32084 -0.0974946 4.78174 0.833484 2.80761 2.80761L4.22183 4.22183C5.76242 2.68124 7.80911 1.85485 10.966 1.43042C14.1516 1.00212 18.3149 1 24 1V-1ZM48 -1H24V1H48V-1ZM69.1924 2.80761C67.2183 0.833483 64.6792 -0.0974946 61.3005 -0.551743C57.9506 -1.00212 53.6286 -1 48 -1V1C53.6851 1 57.8484 1.00212 61.034 1.43042C64.1909 1.85485 66.2376 2.68124 67.7782 4.22183L69.1924 2.80761ZM72.8942 14.9585C72.6605 9.32941 71.9111 5.52636 69.1924 2.80761L67.7782 4.22183C69.9085 6.35211 70.6632 9.43678 70.896 15.0415L72.8942 14.9585ZM51 34C51 32.3431 52.3431 31 54 31V29C51.2386 29 49 31.2386 49 34H51ZM54 37C52.3431 37 51 35.6569 51 34H49C49 36.7614 51.2386 39 54 39V37ZM58 37H54V39H58V37ZM61 34C61 35.6569 59.6569 37 58 37V39C60.7614 39 63 36.7614 63 34H61ZM58 31C59.6569 31 61 32.3431 61 34H63C63 31.2386 60.7614 29 58 29V31ZM54 31H58V29H54V31Z" fill="#BFC6D9" mask="url(#path-1-inside-1_396_5779)"/>
</svg>
