<svg width="512" height="443" viewBox="0 0 512 443" fill="none" xmlns="http://www.w3.org/2000/svg">
<path fill-rule="evenodd" clip-rule="evenodd" d="M352.122 220.903C352.036 166.19 317.837 119.529 269.647 101.049V340.747C317.837 322.244 352.036 275.625 352.122 220.903ZM177.717 340.701V101.074C129.57 119.611 95.4241 166.206 95.2951 220.904C95.4241 275.588 129.57 322.178 177.717 340.701ZM223.707 18.3022C111.818 18.3452 21.1681 109.014 21.149 220.903C21.1681 332.777 111.818 423.432 223.707 423.451C335.596 423.432 426.264 332.777 426.293 220.903C426.264 109.014 335.596 18.3452 223.707 18.3022ZM223.21 442.571C100.773 443.153 0 343.961 0 223.215C0 91.2512 100.773 -0.0238706 223.21 4.68497e-06H280.587C401.577 -0.0238706 512 91.2082 512 223.215C512 343.918 401.577 442.571 280.587 442.571H223.21Z" fill="#0069AA"/>
</svg>
