<svg width="60" height="12" viewBox="0 0 60 12" fill="none" xmlns="http://www.w3.org/2000/svg">
<path fill-rule="evenodd" clip-rule="evenodd" d="M55.8011 1.12604C58.011 1.12604 59.2265 2.11247 59.2265 3.97572C59.337 5.40056 58.3425 6.60619 57.0165 6.8254L60 10.8807H57.6795L55.1381 6.935H54.9171V10.8807H53.0386V1.12604H55.8011ZM54.9171 5.61975H55.4696C56.6851 5.61975 57.2376 5.07173 57.2376 4.08531C57.2376 3.20848 56.6851 2.66047 55.4696 2.66047H54.9171V5.61975ZM46.5193 10.8807H51.8232V9.23665H48.3978V6.60618H51.7127V4.96213H48.3978V2.77007H51.8232V1.12603H46.5193V10.8807ZM40.9944 7.70221L38.453 1.12603H36.4641L40.5524 11.0999H41.5469L45.6353 1.12603H43.6464L40.9944 7.70221ZM18.5635 6.05818C18.5635 8.79825 20.7735 11.0999 23.5359 11.0999C24.4199 11.0999 25.1934 10.8807 25.9669 10.5519V8.35984C25.4144 9.01746 24.6409 9.45587 23.7569 9.45587C21.989 9.45587 20.5525 8.14063 20.5525 6.38699V6.16778C20.442 4.41413 21.8785 2.87969 23.6464 2.77009C24.5304 2.77009 25.4144 3.2085 25.9669 3.86612V1.67406C25.3039 1.23565 24.4199 1.12604 23.6464 1.12604C20.7735 0.906836 18.5635 3.2085 18.5635 6.05818ZM15.1381 4.85253C14.0332 4.41412 13.7017 4.19491 13.7017 3.6469C13.8122 2.98928 14.3647 2.44127 15.0276 2.55087C15.5801 2.55087 16.1326 2.87968 16.5746 3.31809L17.5691 2.00286C16.7956 1.34524 15.8011 0.906826 14.8066 0.906826C13.2597 0.797223 11.9337 2.00286 11.8232 3.5373V3.6469C11.8232 4.96214 12.3757 5.72936 14.1437 6.27737C14.5857 6.38697 15.0276 6.60618 15.4696 6.82539C15.8011 7.04459 16.0221 7.3734 16.0221 7.81181C16.0221 8.57903 15.3591 9.23665 14.6962 9.23665H14.5857C13.7017 9.23665 12.9282 8.68864 12.5967 7.92141L11.3812 9.12705C12.0442 10.3327 13.3702 10.9903 14.6962 10.9903C16.4641 11.0999 17.9006 9.78467 18.0111 8.03102V7.70221C17.9006 6.38697 17.3481 5.72936 15.1381 4.85253ZM8.72931 10.8807H10.6078V1.12603H8.72931V10.8807ZM0 1.12604H2.76243H3.31492C5.96685 1.23565 8.0663 3.4277 7.9558 6.05818C7.9558 7.48301 7.29282 8.79825 6.18785 9.78468C5.19337 10.5519 3.9779 10.9903 2.76243 10.8807H0V1.12604ZM2.43097 9.23667C3.31494 9.34628 4.30942 9.01747 4.9724 8.46945C5.63539 7.81183 5.96688 6.93501 5.96688 5.94858C5.96688 5.07176 5.63539 4.19494 4.9724 3.53732C4.30942 2.9893 3.31494 2.66049 2.43097 2.7701H1.87848V9.23667H2.43097Z" fill="#F2F4F7"/>
<path fill-rule="evenodd" clip-rule="evenodd" d="M31.704 0.899902C28.9415 0.899902 26.6211 3.09196 26.6211 5.94164C26.6211 8.68171 28.831 10.9834 31.704 11.093C34.5769 11.2026 36.7868 8.90092 36.8973 6.05124C36.7868 3.20156 34.5769 0.899902 31.704 0.899902Z" fill="url(#paint0_linear_396_5746)"/>
<path fill-rule="evenodd" clip-rule="evenodd" d="M31.704 0.899902C28.9415 0.899902 26.6211 3.09196 26.6211 5.94164C26.6211 8.68171 28.831 10.9834 31.704 11.093C34.5769 11.2026 36.7868 8.90092 36.8973 6.05124C36.7868 3.20156 34.5769 0.899902 31.704 0.899902Z" fill="url(#paint1_radial_396_5746)"/>
<defs>
<linearGradient id="paint0_linear_396_5746" x1="28.6067" y1="1.86336" x2="35.2788" y2="9.63346" gradientUnits="userSpaceOnUse">
<stop stop-color="#E15315"/>
<stop offset="1" stop-color="#FFB320"/>
</linearGradient>
<radialGradient id="paint1_radial_396_5746" cx="0" cy="0" r="1" gradientUnits="userSpaceOnUse" gradientTransform="translate(32.4999 7.49991) rotate(-126.027) scale(6.80074 7.04119)">
<stop stop-color="#FFCD83" stop-opacity="0"/>
<stop offset="0.725604" stop-color="#E45816" stop-opacity="0.7"/>
<stop offset="1" stop-color="#912301"/>
</radialGradient>
</defs>
</svg>
