<svg width="24" height="24" viewBox="0 0 24 24" fill="none" xmlns="http://www.w3.org/2000/svg">
<path fill-rule="evenodd" clip-rule="evenodd" d="M12 2C13.0086 2 13.9042 2.05652 14.6963 2.18856C14.2166 2.99758 14 3.96222 14 5C14 6.2358 14.1802 7.69609 15.242 8.75796C16.3039 9.81984 17.7642 10 19 10C19.3056 10 19.6249 9.98898 19.9485 9.95635C19.9833 10.5896 20 11.2698 20 12C20 20 18 22 12 22C6 22 4 20 4 12C4 4 6 2 12 2ZM10.9999 11.5C10.9999 10.0002 10.9999 9 11.9999 9C12.9999 9 12.9999 9.99968 12.9999 11.4993V11.5007C12.9999 13.0003 12.9999 14 11.9999 14C10.9999 14 10.9999 12.9998 10.9999 11.5ZM9.50006 16.6481C8.86725 17.7962 10.4998 20 11.9999 20C13.5001 20 15.0946 17.7305 14.4999 16.6481C13.8692 15.5001 10.1329 15.5 9.50006 16.6481Z" fill="#F2F4F7"/>
<path d="M16 5C16 3.98758 16.2719 3.27886 16.722 2.80552C18.4089 3.64068 19.3496 5.21965 19.7556 7.96538C19.525 7.98891 19.2736 8 19 8C16.75 8 16 7.25 16 5Z" fill="#F2F4F7"/>
</svg>
