<svg width="24" height="24" viewBox="0 0 24 24" fill="none" xmlns="http://www.w3.org/2000/svg">
<path d="M8.97215 20.7306L20.819 8.88377C22.3937 7.30902 22.3937 4.75583 20.819 3.18107C19.2442 1.60631 16.691 1.60631 15.1163 3.18107L13.4588 4.83856L15.7684 7.14816C16.1915 7.57129 16.1915 8.25734 15.7684 8.68048C15.3452 9.10361 14.6592 9.10361 14.236 8.68048L11.9264 6.37088L3.26945 15.0279C2.45665 15.8407 2.00003 16.9431 2.00003 18.0925L2 20C1.99998 21.1045 2.89542 22 4 22H5.90751C7.05697 22 8.15936 21.5434 8.97215 20.7306Z" fill="#F2F4F7"/>
<path d="M14 20C13.4477 20 13 20.4477 13 21C13 21.5523 13.4477 22 14 22H21C21.5523 22 22 21.5523 22 21C22 20.4477 21.5523 20 21 20H14Z" fill="#F2F4F7"/>
</svg>
