<svg width="24" height="24" viewBox="0 0 24 24" fill="none" xmlns="http://www.w3.org/2000/svg">
<path fill-rule="evenodd" clip-rule="evenodd" d="M12 20C18 20 22 18 22 12C22 6 18 4 12 4C6 4 2 6 2 12C2 18 6 20 12 20ZM7.62469 8.21913C7.19343 7.87412 6.56414 7.94404 6.21913 8.37531C5.87412 8.80657 5.94404 9.43586 6.37531 9.78087L10.1259 12.7814C11.2216 13.6579 12.7784 13.6579 13.8741 12.7814L17.6247 9.78087C18.056 9.43586 18.1259 8.80657 17.7809 8.37531C17.4359 7.94404 16.8066 7.87412 16.3753 8.21913L12.6247 11.2196C12.2595 11.5118 11.7405 11.5118 11.3753 11.2196L7.62469 8.21913Z" fill="#F2F4F7"/>
</svg>
