<svg width="24" height="24" viewBox="0 0 24 24" fill="none" xmlns="http://www.w3.org/2000/svg">
<path fill-rule="evenodd" clip-rule="evenodd" d="M10.9451 15.977C13.0001 15.977 13.9997 13.9295 13.9997 10.5C13.9997 6.83333 13.0001 5 8.99987 5C5.89868 5 4.71953 5.66667 4.27206 7H3.5C3.22386 7 3 7.22386 3 7.5C3 7.77614 3.22386 8 3.5 8H7.66667C8.21895 8 8.66667 8.44772 8.66667 9C8.66667 9.55228 8.21895 10 7.66667 10H2.5C2.22386 10 2 10.2239 2 10.5C2 10.7761 2.22386 11 2.5 11H5.94444C6.22059 11 6.44444 11.2239 6.44444 11.5C6.44444 11.7761 6.22059 12 5.94444 12H2.5C2.22386 12 2 12.2239 2 12.5C2 12.7761 2.22386 13 2.5 13H4.23704C4.52063 14.1251 5.10691 14.9338 6.24179 15.4259C6.08674 15.7513 5.99996 16.1155 5.99996 16.5C5.99996 17.8807 7.11922 19 8.4999 19C9.88058 19 10.9998 17.8807 10.9998 16.5C10.9998 16.3206 10.981 16.1457 10.9451 15.977ZM8.4999 17.5C8.99989 17.5 9.49988 17.1 9.49988 16.5C9.49988 15.9 8.99989 15.5519 8.4999 15.5519C7.99991 15.5519 7.49992 15.9 7.49992 16.5C7.49992 17.1 7.99991 17.5 8.4999 17.5Z" fill="#F2F4F7"/>
<path fill-rule="evenodd" clip-rule="evenodd" d="M21.9797 12.5064C22.0615 11.5134 21.9045 10.4874 21.3575 9.65458C20.2707 8 18.9612 8 17.9996 8C15.6547 8 14.9997 8.5 14.9997 12C14.9997 14.0324 15.3951 15.0532 16.1857 15.5519C16.0658 15.8443 15.9997 16.1644 15.9997 16.5C15.9997 17.8807 17.119 19 18.4996 19C19.8803 19 20.9996 17.8807 20.9996 16.5C20.9996 16.1503 20.9278 15.8174 20.7982 15.5152C21.4487 15.0533 21.8426 14.1699 21.9797 12.5064ZM20.4996 11.5C20.6363 10.8021 20.3643 10.2831 19.9996 10C19.4078 9.54054 18.7944 9.5 17.9996 9.5C16.9997 9.5 16.4997 9.71527 16.4997 11C16.4997 12.2847 16.7584 13 18.5171 13C19.902 13 20.2825 12.6083 20.4996 11.5ZM19.4996 16.5C19.4996 17.1 18.9996 17.5 18.4996 17.5C17.9996 17.5 17.4997 17.1 17.4997 16.5C17.4997 15.9 17.9996 15.5 18.4996 15.5C18.9996 15.5 19.4996 15.8998 19.4996 16.5Z" fill="#F2F4F7"/>
</svg>
