<svg width="24" height="24" viewBox="0 0 24 24" fill="none" xmlns="http://www.w3.org/2000/svg">
<path fill-rule="evenodd" clip-rule="evenodd" d="M21.7071 3.70711C22.0976 3.31658 22.0976 2.68342 21.7071 2.29289C21.3166 1.90237 20.6834 1.90237 20.2929 2.29289L2.29289 20.2929C1.90237 20.6834 1.90237 21.3166 2.29289 21.7071C2.68342 22.0976 3.31658 22.0976 3.70711 21.7071L7.74332 17.6709C8.92624 18.4558 10.3271 19 12 19C16 19 18.4444 15.8889 20.0741 13.8148C20.8889 12.7778 21.5 12 22 12C21.5 12 20.8889 11.2222 20.0741 10.1852C19.4539 9.3959 18.7158 8.45644 17.8188 7.5954L21.7071 3.70711ZM15.4462 9.96803L14.3278 11.0864C14.439 11.3694 14.5 11.6776 14.5 12C14.5 13.3807 13.3807 14.5 12 14.5C11.6776 14.5 11.3694 14.439 11.0864 14.3278L9.96803 15.4462C10.5635 15.7981 11.2582 16 12 16C14.2091 16 16 14.2091 16 12C16 11.2582 15.7981 10.5635 15.4462 9.96803ZM12 5C13.1011 5 14.0843 5.23574 14.9651 5.6207L12.5485 8.03729C12.3692 8.0127 12.1861 8 12 8C9.79086 8 8 9.79086 8 12C8 12.1861 8.0127 12.3692 8.03729 12.5485L5.20602 15.3798C4.72892 14.8368 4.30534 14.2977 3.92593 13.8148C3.11111 12.7778 2.5 12 2 12C2.5 12 3.11111 11.2222 3.92592 10.1852L3.92593 10.1852C5.55556 8.11111 8 5 12 5ZM10.7531 9.83264C10.3712 10.0529 10.0529 10.3712 9.83264 10.7531L10.7531 9.83264Z" fill="#F2F4F7"/>
</svg>
