<svg width="24" height="24" viewBox="0 0 24 24" fill="none" xmlns="http://www.w3.org/2000/svg">
<path d="M12 14.5C13.3807 14.5 14.5 13.3807 14.5 12C14.5 10.6193 13.3807 9.5 12 9.5C10.6193 9.5 9.5 10.6193 9.5 12C9.5 13.3807 10.6193 14.5 12 14.5Z" fill="#F2F4F7"/>
<path fill-rule="evenodd" clip-rule="evenodd" d="M22 12C21.5 12 20.8889 12.7778 20.0741 13.8148C18.4444 15.8889 16 19 12 19C8 19 5.55555 15.8889 3.92593 13.8148C3.11111 12.7778 2.5 12 2 12C2.5 12 3.11111 11.2222 3.92593 10.1852C5.55556 8.11111 8 5 12 5C16 5 18.4444 8.11111 20.0741 10.1852C20.8889 11.2222 21.5 12 22 12ZM16 12C16 14.2091 14.2091 16 12 16C9.79086 16 8 14.2091 8 12C8 9.79086 9.79086 8 12 8C14.2091 8 16 9.79086 16 12Z" fill="#F2F4F7"/>
</svg>
