<svg width="24" height="24" viewBox="0 0 24 24" fill="none" xmlns="http://www.w3.org/2000/svg">
<path d="M18.4624 4.47C18.3735 4.47 18.2846 4.45 18.2068 4.41C16.0731 3.42 14.2282 3 12.0167 3C9.81622 3 7.7269 3.47 5.82651 4.41C5.55979 4.54 5.22639 4.45 5.07081 4.21C4.92633 3.97 5.02635 3.66 5.29307 3.53C7.36016 2.52 9.62729 2 12.0167 2C14.3838 2 16.4509 2.47 18.718 3.52C18.9959 3.65 19.0959 3.95 18.9514 4.19C18.8514 4.37 18.6625 4.47 18.4624 4.47ZM2.55918 9.72C2.44805 9.72 2.33691 9.69 2.23689 9.63C1.98128 9.47 1.92572 9.16 2.10353 8.93C3.20376 7.53 4.60404 6.43 6.27105 5.66C9.76065 4.04 14.2282 4.03 17.7289 5.65C19.396 6.42 20.7962 7.51 21.8965 8.9C22.0743 9.12 22.0187 9.44 21.7631 9.6C21.5075 9.76 21.163 9.71 20.9852 9.48C19.985 8.22 18.718 7.23 17.2177 6.54C14.0282 5.07 9.94958 5.07 6.77115 6.55C5.25973 7.25 3.99281 8.25 2.9926 9.51C2.90369 9.65 2.73699 9.72 2.55918 9.72ZM9.50505 21.79C9.36057 21.79 9.2161 21.74 9.11608 21.64C8.14921 20.77 7.62688 20.21 6.88229 19C6.11546 17.77 5.71538 16.27 5.71538 14.66C5.71538 11.69 8.53818 9.27 12.0056 9.27C15.4729 9.27 18.2957 11.69 18.2957 14.66C18.2957 14.94 18.0512 15.16 17.7401 15.16C17.4289 15.16 17.1844 14.94 17.1844 14.66C17.1844 12.24 14.8617 10.27 12.0056 10.27C9.14942 10.27 6.82672 12.24 6.82672 14.66C6.82672 16.1 7.18235 17.43 7.86027 18.51C8.57152 19.66 9.06051 20.15 9.91624 20.93C10.1274 21.13 10.1274 21.44 9.91624 21.64C9.79399 21.74 9.64952 21.79 9.50505 21.79ZM17.4733 19.94C16.1508 19.94 14.9839 19.64 14.0282 19.05C12.3723 18.04 11.3832 16.4 11.3832 14.66C11.3832 14.38 11.6277 14.16 11.9389 14.16C12.2501 14.16 12.4945 14.38 12.4945 14.66C12.4945 16.07 13.2947 17.4 14.6505 18.22C15.4396 18.7 16.362 18.93 17.4733 18.93C17.7401 18.93 18.1846 18.9 18.6291 18.83C18.9292 18.78 19.2181 18.96 19.2737 19.24C19.3293 19.51 19.1292 19.77 18.8181 19.82C18.1846 19.93 17.6289 19.94 17.4733 19.94ZM15.2396 22C15.1951 22 15.1395 21.99 15.0951 21.98C13.328 21.54 12.1723 20.95 10.9609 19.88C9.40503 18.49 8.54929 16.64 8.54929 14.66C8.54929 13.04 10.0829 11.72 11.9722 11.72C13.8615 11.72 15.3951 13.04 15.3951 14.66C15.3951 15.73 16.4287 16.6 17.7067 16.6C18.9848 16.6 20.0183 15.73 20.0183 14.66C20.0183 10.89 16.4065 7.83 11.9611 7.83C8.8049 7.83 5.91542 9.41 4.61516 11.86C4.18173 12.67 3.95947 13.62 3.95947 14.66C3.95947 15.44 4.03726 16.67 4.70406 18.27C4.8152 18.53 4.67072 18.82 4.38177 18.91C4.09283 19.01 3.77054 18.87 3.67052 18.62C3.12596 17.31 2.85924 16.01 2.85924 14.66C2.85924 13.46 3.11485 12.37 3.61495 11.42C5.09303 8.63 8.37148 6.82 11.9611 6.82C17.0177 6.82 21.1296 10.33 21.1296 14.65C21.1296 16.27 19.596 17.59 17.7067 17.59C15.8174 17.59 14.2838 16.27 14.2838 14.65C14.2838 13.58 13.2503 12.71 11.9722 12.71C10.6942 12.71 9.66063 13.58 9.66063 14.65C9.66063 16.36 10.3941 17.96 11.7388 19.16C12.7946 20.1 13.8059 20.62 15.3729 21.01C15.673 21.08 15.8397 21.36 15.7619 21.62C15.7063 21.85 15.4729 22 15.2396 22Z" fill="#F2F4F7"/>
</svg>
