<svg width="24" height="24" viewBox="0 0 24 24" fill="none" xmlns="http://www.w3.org/2000/svg">
<path fill-rule="evenodd" clip-rule="evenodd" d="M22 12C22 18 20 22 12 22C4 22 2 18 2 12C2 6 4 2 12 2C20 2 22 6 22 12ZM16 10C17.1046 10 18 9.10457 18 8C18 6.89543 17.1046 6 16 6C14.8954 6 14 6.89543 14 8C14 9.10457 14.8954 10 16 10ZM12.1647 20H11.9467C9.39223 20 7 19.5453 4.99991 17C3.65879 15.2933 4.71027 12.7479 6.29743 11.2672C7.0599 10.5558 7.93599 10 8.81209 10C10.0468 10 11.4904 11.2881 12.6128 12.5567C13.5728 13.6417 14.3369 13.5106 15.5728 12.7548C15.8294 12.5978 16.0859 12.5 16.3265 12.5C18.8597 12.5 19.8469 16.2664 18 18C16.569 19.3433 14.2823 20 12.1647 20Z" fill="#F2F4F7"/>
</svg>
