<svg width="24" height="24" viewBox="0 0 24 24" fill="none" xmlns="http://www.w3.org/2000/svg">
<path fill-rule="evenodd" clip-rule="evenodd" d="M22 12.2273C22 11.5182 21.9351 10.8364 21.8145 10.1818H12.2041V14.05H17.6957C17.4592 15.3 16.7403 16.3591 15.6596 17.0682V19.5773H18.9573C20.8868 17.8364 22 15.2727 22 12.2273Z" fill="#004FFF"/>
<path fill-rule="evenodd" clip-rule="evenodd" d="M12.2041 22C14.9592 22 17.269 21.1046 18.9573 19.5773L15.6596 17.0682C14.7458 17.6682 13.577 18.0227 12.2041 18.0227C9.54639 18.0227 7.29685 16.2636 6.49444 13.9H3.08535V16.4909C4.76438 19.7591 8.21522 22 12.2041 22Z" fill="#65C332"/>
<path fill-rule="evenodd" clip-rule="evenodd" d="M6.49444 13.9C6.29036 13.3 6.1744 12.6591 6.1744 12C6.1744 11.3409 6.29035 10.7 6.49443 10.1V7.5091H3.08534C2.39425 8.8591 2 10.3864 2 12C2 13.6137 2.39425 15.1409 3.08535 16.4909L6.49444 13.9Z" fill="#EFCA08"/>
<path fill-rule="evenodd" clip-rule="evenodd" d="M12.2041 5.97727C13.7022 5.97727 15.0473 6.48182 16.1048 7.47273L19.0315 4.60455C17.2644 2.99091 14.9546 2 12.2041 2C8.21522 2 4.76438 4.24092 3.08534 7.5091L6.49443 10.1C7.29685 7.73638 9.54639 5.97727 12.2041 5.97727Z" fill="#F50000"/>
</svg>
