<svg width="24" height="24" viewBox="0 0 24 24" fill="none" xmlns="http://www.w3.org/2000/svg">
<path d="M10.9277 2.69658C11.3663 1.76781 12.6337 1.76781 13.0723 2.69658L15.2361 7.27831C15.4103 7.64713 15.747 7.90276 16.1365 7.96191L20.9749 8.69662C21.9557 8.84556 22.3473 10.1051 21.6376 10.8281L18.1365 14.3945C17.8547 14.6816 17.726 15.0952 17.7926 15.5006L18.6191 20.5364C18.7866 21.5572 17.7613 22.3357 16.884 21.8537L12.5564 19.4761C12.2081 19.2847 11.7919 19.2847 11.4436 19.4761L7.11595 21.8537C6.23869 22.3357 5.21339 21.5572 5.38093 20.5364L6.20743 15.5006C6.27396 15.0952 6.14535 14.6816 5.86352 14.3945L2.36242 10.8281C1.6527 10.1051 2.04433 8.84556 3.02514 8.69662L7.86354 7.96191C8.25302 7.90276 8.58972 7.64713 8.7639 7.27831L10.9277 2.69658Z" fill="#BFC6D9"/>
<path d="M12 2C11.5735 2 11.147 2.23219 10.9277 2.69658L8.7639 7.27831C8.58972 7.64713 8.25302 7.90276 7.86354 7.96191L3.02514 8.69662C2.04433 8.84556 1.6527 10.1051 2.36242 10.8281L5.86352 14.3945C6.14535 14.6816 6.27396 15.0952 6.20743 15.5006L5.38093 20.5364C5.21339 21.5572 6.23869 22.3357 7.11595 21.8537L11.4436 19.4761C11.6177 19.3804 11.8089 19.3326 12 19.3326V2Z" fill="#F2F4F7"/>
</svg>
