<svg width="24" height="24" viewBox="0 0 24 24" fill="none" xmlns="http://www.w3.org/2000/svg">
<path fill-rule="evenodd" clip-rule="evenodd" d="M11.5075 18.9304L11.4983 18.9273C10.3374 18.5364 8.46508 17.5302 6.882 15.9355C5.29488 14.3368 4 12.1482 4 9.39663C4 6.96842 5.98985 5 8.448 5C9.35898 5 10.1999 5.26988 10.9007 5.73159L12.0002 6.45605L13.1002 5.73241C13.8042 5.2693 14.6472 5 15.552 5C18.0102 5 20 6.96842 20 9.39663C20 12.1482 18.7051 14.3368 17.118 15.9355C15.5349 17.5302 13.6626 18.5364 12.5016 18.9273L12.4925 18.9304C12.3564 18.977 12.1777 19 12 19C11.8223 19 11.6436 18.977 11.5075 18.9304ZM8.448 3C9.76104 3 10.9829 3.39067 12.0011 4.06153C13.0214 3.39032 14.2447 3 15.552 3C19.0898 3 22 5.83909 22 9.39663C22 12.8268 20.3747 15.4938 18.5374 17.3446C16.7262 19.169 14.5831 20.3368 13.1398 20.8228C12.7307 20.9627 12.3173 21 12 21C11.6827 21 11.2693 20.9627 10.8601 20.8228C9.41687 20.3368 7.27377 19.169 5.46264 17.3446C3.62527 15.4938 2 12.8268 2 9.39663C2 5.83909 4.9102 3 8.448 3ZM13.9801 6.07998C13.44 6.21995 13.13 6.76998 13.28 7.3C13.4201 7.83998 13.9701 8.14998 14.5 8C15.5901 7.70998 16.3701 8.01998 16.79 8.48C17.2201 8.95998 17.4001 9.69998 17.07 10.51C16.8601 11.02 17.1101 11.61 17.62 11.82C18.1301 12.02 18.7101 11.782 18.92 11.27C19.5301 9.76998 19.2401 8.19998 18.26 7.13C17.2801 6.05998 15.7 5.59995 13.9801 6.07998Z" fill="#F2F4F7"/>
</svg>
