<svg width="24" height="24" viewBox="0 0 24 24" fill="none" xmlns="http://www.w3.org/2000/svg">
<path fill-rule="evenodd" clip-rule="evenodd" d="M10.8601 20.8228C9.41687 20.3368 7.27377 19.169 5.46264 17.3446C3.62527 15.4938 2 12.8268 2 9.39663C2 5.83909 4.9102 3 8.448 3C9.76104 3 10.9829 3.39067 12.0011 4.06153C13.0214 3.39032 14.2447 3 15.552 3C19.0898 3 22 5.83909 22 9.39663C22 12.8268 20.3747 15.4938 18.5374 17.3446C16.7262 19.169 14.5831 20.3368 13.1398 20.8228C12.7307 20.9627 12.3173 21 12 21C11.6827 21 11.2693 20.9627 10.8601 20.8228ZM15.2636 7.46463C16.3538 7.1667 17.1264 7.48341 17.5484 7.94474C17.9789 8.41526 18.161 9.15661 17.8294 9.97238C17.6214 10.484 17.8675 11.0674 18.3791 11.2754C18.8908 11.4834 19.4741 11.2372 19.6821 10.7256C20.2894 9.23189 20.0021 7.66384 19.0241 6.59479C18.0377 5.51655 16.463 5.06351 14.7364 5.53537C14.2036 5.68096 13.8898 6.23087 14.0354 6.76362C14.181 7.29637 14.7309 7.61022 15.2636 7.46463Z" fill="#F2F4F7"/>
</svg>
