<svg width="24" height="24" viewBox="0 0 24 24" fill="none" xmlns="http://www.w3.org/2000/svg">
<path fill-rule="evenodd" clip-rule="evenodd" d="M5.88357 4.95056C8.80007 3.02115 10.2583 2.05644 11.8827 2.00307C11.9677 2.00027 12.0528 1.99939 12.1378 2.00041C13.7629 2.01993 15.2389 2.95407 18.191 4.82234C20.0138 5.97593 20.9252 6.55272 21.4409 7.47035C21.4679 7.51852 21.4941 7.56725 21.5193 7.61652L19.6973 8.45018M5.88357 4.95056L5.74935 5.03935C3.91633 6.25199 2.99981 6.85831 2.49991 7.81145C2 8.76459 2 9.90572 2 12.188V13.5617C2 17.5395 2 19.5285 3.17157 20.7642C3.73125 21.3546 4.73104 21.6629 6.00684 21.8239C7.7614 22.0454 8.63868 22.1561 9.31422 21.5672L9.33114 21.5523C10 20.9558 10 19.9706 10 18C10 17.0572 10 16.5858 10.2929 16.2929C10.5858 16 11.0572 16 12 16C12.9428 16 13.4142 16 13.7071 16.2929C14 16.5858 14 17.0572 14 18C14 19.9706 14 20.9558 14.6689 21.5523L14.6858 21.5672C15.3613 22.1561 16.2386 22.0454 17.9932 21.8239C19.269 21.6629 20.2687 21.3546 20.8284 20.7642C22 19.5285 22 17.5395 22 13.5617V11.9183C22 9.67616 22 8.55507 21.5193 7.61652L19.6973 8.45018C19.7785 8.60863 19.9005 8.92281 19.9477 9.45515C19.9982 10.0245 20 10.7624 20 11.9183V13.5617C20 15.6043 19.9962 16.9454 19.8696 17.9384C19.749 18.8843 19.5487 19.2072 19.377 19.3882C19.377 19.3882 19.2932 19.4694 19.0074 19.5713C18.7139 19.676 18.3005 19.7693 17.7427 19.8397C17.2952 19.8962 16.9444 19.9403 16.6416 19.9691C16.3789 19.9941 16.1955 20.0031 16.0625 20.0019L16.0622 19.9998C16.0051 19.6122 16 19.0474 16 18C16 17.9741 16 17.9478 16 17.9212C16.0003 17.5215 16.0006 17.0455 15.9456 16.6362C15.8791 16.1421 15.7013 15.4587 15.1213 14.8787C14.5413 14.2987 13.8579 14.1209 13.3638 14.0544C12.9545 13.9994 12.4785 13.9997 12.0788 14C12.0522 14 12.0259 14 12 14C11.9741 14 11.9478 14 11.9212 14C11.5215 13.9997 11.0455 13.9994 10.6362 14.0544C10.1421 14.1209 9.45866 14.2987 8.87868 14.8787C8.2987 15.4587 8.12087 16.1421 8.05445 16.6362C7.99942 17.0455 7.99971 17.5215 7.99997 17.9212C7.99998 17.9478 8 17.9741 8 18C8 19.0474 7.9949 19.6122 7.93777 19.9998L7.93746 20.0019C7.80446 20.0031 7.62108 19.9941 7.35836 19.9691C7.0556 19.9403 6.70485 19.8962 6.2573 19.8397C5.69947 19.7693 5.28609 19.676 4.99262 19.5713C4.70679 19.4694 4.6226 19.3878 4.6226 19.3878C4.45101 19.2067 4.25092 18.8839 4.1304 17.9384C4.00382 16.9454 4 15.6043 4 13.5617V12.188C4 11.0112 4.00189 10.2606 4.05433 9.68176C4.1033 9.14131 4.18638 8.90189 4.27108 8.74041C4.35321 8.5838 4.49206 8.39433 4.88445 8.07611C5.31246 7.72902 5.9047 7.33462 6.85284 6.70738L6.98706 6.61859C8.47913 5.63151 9.47535 4.97533 10.2968 4.54438C11.0798 4.13363 11.5469 4.01518 11.9484 4.00199C12.0035 4.00018 12.0587 3.9996 12.1138 4.00027C12.5152 4.00509 12.984 4.11367 13.774 4.50776C14.6031 4.92135 15.6111 5.55647 17.1215 6.51233C18.0643 7.109 18.6534 7.4843 19.081 7.81569C19.4735 8.1199 19.6138 8.3016 19.6973 8.45018M16.1034 20.1963L16.1029 20.1951L16.1034 20.1963Z" fill="#F2F4F7"/>
</svg>
