<svg width="24" height="24" viewBox="0 0 24 24" fill="none" xmlns="http://www.w3.org/2000/svg">
<path d="M2.49991 7.81145C2 8.76459 2 9.90572 2 12.188V13.5617C2 17.5395 2 19.5285 3.17157 20.7642C3.97881 21.6157 5.12505 21.8805 6.99352 21.9628C7.91966 22.0037 8.38273 22.0241 8.69137 21.7287C9 21.4334 9 20.9532 9 19.9928V18C9 17.0572 9 16.5858 9.29289 16.2929C9.58579 16 10.0572 16 11 16H13C13.9428 16 14.4142 16 14.7071 16.2929C15 16.5858 15 17.0572 15 18V19.9928C15 20.9532 15 21.4334 15.3086 21.7287C15.6173 22.0241 16.0803 22.0037 17.0065 21.9628C18.875 21.8805 20.0212 21.6157 20.8284 20.7642C22 19.5285 22 17.5395 22 13.5617V11.9183C22 9.67616 22 8.55507 21.5193 7.61652C21.4941 7.56725 21.4679 7.51852 21.4409 7.47035C20.9252 6.55272 20.0138 5.97593 18.191 4.82234C15.2389 2.95407 13.7629 2.01993 12.1378 2.00041C12.0528 1.99939 11.9677 2.00027 11.8827 2.00307C10.2583 2.05644 8.80007 3.02115 5.88357 4.95056L5.74935 5.03935C3.91633 6.25199 2.99981 6.85831 2.49991 7.81145Z" fill="#F2F4F7"/>
</svg>
