<svg width="40" height="32" viewBox="0 0 40 32" fill="none" xmlns="http://www.w3.org/2000/svg">
<path d="M40 25.5492C40 29.1048 37.2127 32 33.7897 32H0V6.45079C0 2.89524 2.78729 0 6.21027 0H40V25.5492Z" fill="#F2F4F7"/>
<path d="M31.4833 2C29.0334 2 27.0245 4.07883 27.0245 6.67094V11.5215H33.3207C33.4677 11.5215 33.6392 11.5215 33.7617 11.5472C35.1826 11.6242 36.2361 12.3941 36.2361 13.7287C36.2361 14.7809 35.5256 15.6792 34.2027 15.8588V15.9102C35.6481 16.0128 36.7506 16.8598 36.7506 18.1686C36.7506 19.5802 35.5256 20.5041 33.9087 20.5041H27V30H33.5412C35.9911 30 38 27.9212 38 25.3291V2H31.4833Z" fill="#05A551"/>
<path d="M29.2049 19.0156H31.7773C31.814 19.0156 31.8753 19.0091 31.9365 19.0027C31.9978 18.9963 32.059 18.9899 32.0958 18.9899C32.5857 18.8872 33.0022 18.4253 33.0022 17.7837C33.0022 17.1677 32.5857 16.7058 32.0958 16.5774C32.0223 16.5518 31.8753 16.5518 31.7773 16.5518H29.2049V19.0156Z" fill="#05A551"/>
<path d="M31.7773 12.9331C32.2673 13.0101 32.6837 13.4207 32.6837 14.0367C32.6837 14.6526 32.2673 15.0632 31.7773 15.1402C31.7528 15.1659 31.6058 15.1659 31.5323 15.1659H29.2049V12.9074H31.5323C31.5728 12.9074 31.6281 12.9152 31.6778 12.9222C31.7184 12.9279 31.7553 12.9331 31.7773 12.9331Z" fill="#05A551"/>
<path d="M6.4833 2C4.03341 2 2.0245 4.08073 2.0245 6.67523V18.2092C3.27394 18.8514 4.57238 19.2624 5.87082 19.2624C7.41425 19.2624 8.24722 18.2862 8.24722 16.9505V11.5046H12.069V16.9248C12.069 19.0312 10.8196 20.7523 6.58129 20.7523C4.00891 20.7523 2 20.1615 2 20.1615V30H8.5412C10.9911 30 13 27.9193 13 25.3248V2H6.4833Z" fill="#0A4EA1"/>
<path d="M19.0535 2C16.8263 2 15 4.07692 15 6.66667V12.7692C16.0245 11.7692 17.8062 11.1282 20.6793 11.2821C22.216 11.359 23.8641 11.8462 23.8641 11.8462V13.8205C23.0401 13.3333 22.0601 12.8974 20.7906 12.7949C18.608 12.6154 17.294 13.8462 17.294 16C17.294 18.1795 18.608 19.4103 20.7906 19.2051C22.0601 19.1026 23.0401 18.641 23.8641 18.1795V20.1538C23.8641 20.1538 22.2383 20.641 20.6793 20.7179C17.8062 20.8718 16.0245 20.2308 15 19.2308V30H20.9465C23.1737 30 25 27.9231 25 25.3333V2H19.0535Z" fill="#EE1C24"/>
</svg>
