<svg width="24" height="24" viewBox="0 0 24 24" fill="none" xmlns="http://www.w3.org/2000/svg">
<path d="M14.8627 14.9999C14.9519 14.0529 15 13.0452 15 12C15 10.9548 14.9519 9.947 14.8627 8.99994H9.13735C9.04811 9.947 9 10.9548 9 12C9 13.0452 9.0481 14.0529 9.13734 14.9999H14.8627Z" fill="#F2F4F7"/>
<path d="M14.5987 16.9999H9.40134C9.92005 19.989 11.5 22 12 22C12.5 22 14.08 19.989 14.5987 16.9999Z" fill="#F2F4F7"/>
<path d="M7.18821 14.9999C7.06561 14.0463 7 13.04 7 11.9999C7 10.9599 7.06561 9.95361 7.18821 8.99994H2.4578C2.16035 9.94698 2 10.9547 2 11.9999C2 13.0451 2.16035 14.0529 2.4578 14.9999H7.18821Z" fill="#F2F4F7"/>
<path d="M3.33782 16.9999H7.54519C8.01293 19.0129 8.75427 20.667 9.66132 21.725C6.96343 21.0786 4.69067 19.3386 3.33782 16.9999Z" fill="#F2F4F7"/>
<path d="M16.4548 16.9999H20.6622C19.3093 19.3386 17.0366 21.0786 14.3387 21.725C15.2457 20.667 15.9871 19.0129 16.4548 16.9999Z" fill="#F2F4F7"/>
<path d="M21.5422 14.9999H16.8118C16.9344 14.0463 17 13.04 17 11.9999C17 10.9599 16.9344 9.95361 16.8118 8.99994H21.5422C21.8396 9.94698 22 10.9547 22 11.9999C22 13.0451 21.8396 14.0529 21.5422 14.9999Z" fill="#F2F4F7"/>
<path d="M16.4548 6.99994H20.6622C19.3093 4.66127 17.0366 2.92133 14.3387 2.2749C15.2457 3.33283 15.9871 4.98698 16.4548 6.99994Z" fill="#F2F4F7"/>
<path d="M12 2C11.5 2 9.92007 4.01097 9.40136 6.99994H14.5986C14.0799 4.01097 12.5 2 12 2Z" fill="#F2F4F7"/>
<path d="M9.66132 2.2749C8.75427 3.33283 8.01293 4.98698 7.54519 6.99994H3.33782C4.69067 4.66127 6.96343 2.92133 9.66132 2.2749Z" fill="#F2F4F7"/>
</svg>
