<svg width="24" height="24" viewBox="0 0 24 24" fill="none" xmlns="http://www.w3.org/2000/svg">
<path fill-rule="evenodd" clip-rule="evenodd" d="M20.3367 12.0665C20.0087 13.7005 19.1992 15.2013 18.0104 16.3793L13.5859 21.2958C12.7409 22.2347 11.2591 22.2347 10.4141 21.2958L5.98959 16.3793C4.80085 15.2013 3.9913 13.7005 3.66333 12.0665C3.33535 10.4326 3.50368 8.73894 4.14703 7.1998C4.79037 5.66065 5.87984 4.34513 7.27766 3.41957C8.67547 2.49401 10.3189 2 12 2C13.6811 2 15.3245 2.49401 16.7223 3.41957C18.1202 4.34513 19.2096 5.66065 19.853 7.1998C20.4963 8.73894 20.6646 10.4326 20.3367 12.0665ZM12 14.6348C14.3472 14.6348 16.25 12.7492 16.25 10.4232C16.25 8.09722 14.3472 6.21161 12 6.21161C9.65279 6.21161 7.75 8.09722 7.75 10.4232C7.75 12.7492 9.65279 14.6348 12 14.6348Z" fill="#F2F4F7"/>
</svg>
