<svg width="24" height="24" viewBox="0 0 24 24" fill="none" xmlns="http://www.w3.org/2000/svg">
<path fill-rule="evenodd" clip-rule="evenodd" d="M16.8138 10.4597C20.0585 11.2604 21 13.1071 21 16C21 20 19.2 22 12 22C4.8 22 3 20 3 16C3 13.1071 3.94147 11.2604 7.18619 10.4597C7.05375 9.74728 7 8.9274 7 8C7 4 9.23858 2 12 2C14.7614 2 17 4 17 8C17 8.9274 16.9462 9.74728 16.8138 10.4597ZM9.15942 10.1301C9.99688 10.0434 10.9399 10 12 10C13.0601 10 14.0031 10.0434 14.8406 10.1301C14.9393 9.61262 15 8.92259 15 8C15 6.3682 14.5478 5.38932 14.0525 4.84188C13.5685 4.30692 12.8807 4 12 4C11.1193 4 10.4315 4.30692 9.94749 4.84188C9.45215 5.38932 9 6.3682 9 8C9 8.92259 9.06068 9.61262 9.15942 10.1301ZM14 16C14 17.1046 13.1046 18 12 18C10.8954 18 10 17.1046 10 16C10 14.8954 10.8954 14 12 14C13.1046 14 14 14.8954 14 16Z" fill="#F2F4F7"/>
</svg>
