<svg width="24" height="24" viewBox="0 0 24 24" fill="none" xmlns="http://www.w3.org/2000/svg">
<path fill-rule="evenodd" clip-rule="evenodd" d="M15.9828 12.7074C15.9942 12.4738 16 12.2378 16 12C16 11.7622 15.9942 11.5262 15.9828 11.2926C16.6523 11.25 17.3852 11.25 18 11.25C19.6 11.25 22 11.25 22 12C22 12.75 19.6 12.75 18 12.75C17.3852 12.75 16.6523 12.75 15.9828 12.7074ZM15.9828 12.7074C15.9828 17 15 22 9 22C3 22 2 17 2 12C2 7 3 2 9 2C15 2 15.9828 7 15.9828 11.2926C14.9099 11.3607 14 11.5382 14 12C14 12.4618 14.9099 12.6393 15.9828 12.7074ZM11.363 9.14192C9.98036 8.42742 6 10.5709 6 12C6 13.4291 9.98036 15.5726 11.363 14.8581C12.7457 14.1435 12.7457 9.85643 11.363 9.14192Z" fill="#F2F4F7"/>
</svg>
