<svg width="24" height="24" viewBox="0 0 24 24" fill="none" xmlns="http://www.w3.org/2000/svg">
<path fill-rule="evenodd" clip-rule="evenodd" d="M15 22C21 22 22 17 22 12C22 7 21 2 15 2C9.28345 2 8.10564 6.53875 8.00712 11.2919C7.34036 11.25 6.61171 11.25 6 11.25C4.4 11.25 2 11.25 2 12C2 12.75 4.4 12.75 6 12.75C6.61171 12.75 7.34036 12.75 8.00712 12.7081C8.10564 17.4612 9.28344 22 15 22ZM8.00712 12.7081C9.08433 12.6404 10 12.4633 10 12C10 11.5367 9.08433 11.3596 8.00712 11.2919C8.00223 11.5276 8 11.7638 8 12C8 12.2362 8.00223 12.4724 8.00712 12.7081ZM12.637 14.8581C14.0196 15.5726 18 13.4291 18 12C18 10.5709 14.0196 8.4274 12.637 9.14193C11.2543 9.85646 11.2543 14.1436 12.637 14.8581Z" fill="#F2F4F7"/>
</svg>
