<svg width="240" height="160" viewBox="0 0 240 160" fill="none" xmlns="http://www.w3.org/2000/svg">
<path fill-rule="evenodd" clip-rule="evenodd" d="M119.065 33.9327C125.509 34.6249 131.383 37.544 136.091 42.0067C151.666 35.5391 167.268 32.6462 179.534 34.8084C205.204 39.3392 206.532 64.2865 182.494 90.529C166.252 108.257 142.586 122.043 121.024 127.723C150.46 122.19 185.294 102.872 208.718 77.3003C279.251 0.296194 183.403 -11.702 119.065 33.9327ZM148.029 83.8937C164.271 66.1656 168.93 49.0248 162.324 38.3778C174.847 51.3094 169.524 75.8354 146.094 101.407C72.1147 182.179 -43.7527 161.742 30.2332 80.9745C51.2566 58.0235 81.4662 40.1101 108.719 32.6776C89.4097 39.334 69.3567 51.8863 55.0584 67.4993C31.0168 93.7418 32.3453 118.689 58.0185 123.215C83.6916 127.744 123.991 110.136 148.029 83.8937ZM73.3391 115.56C66.5037 103.831 70.3086 85.8462 84.8732 66.4435C84.5671 70.4918 84.8548 74.5594 85.7425 78.5029C74.3033 92.5392 70.2229 105.89 73.3391 115.56ZM142.36 69.5619C142.36 86.1279 130.601 99.5574 116.096 99.5574C101.591 99.5574 89.8321 86.1279 89.8321 69.5619C89.8321 52.9959 101.591 39.5665 116.096 39.5665C130.601 39.5665 142.36 52.9959 142.36 69.5619Z" fill="#EBF1FF"/>
</svg>
