<svg width="24" height="24" viewBox="0 0 24 24" fill="none" xmlns="http://www.w3.org/2000/svg">
<path d="M5.63828 19.4689V18.4389C5.64432 18.3522 5.63182 18.2653 5.60162 18.1839C5.57141 18.1025 5.5242 18.0284 5.46312 17.9667C5.40204 17.905 5.3285 17.857 5.24741 17.8259C5.16631 17.7949 5.07953 17.7814 4.99284 17.7866C4.87939 17.7792 4.76603 17.8024 4.66459 17.8537C4.56314 17.905 4.47732 17.9826 4.41606 18.0784C4.36024 17.9855 4.28039 17.9093 4.18493 17.858C4.08946 17.8066 3.98192 17.7819 3.87361 17.7866C3.77921 17.7818 3.6852 17.8018 3.60089 17.8446C3.51659 17.8873 3.44491 17.9514 3.39296 18.0303V17.8278H3.03589V19.4689H3.39638V18.559C3.38858 18.5029 3.39332 18.4457 3.41025 18.3916C3.42717 18.3375 3.45587 18.2879 3.49427 18.2462C3.53267 18.2045 3.57983 18.1718 3.63236 18.1505C3.68489 18.1292 3.74148 18.1199 3.79807 18.123C4.03496 18.123 4.15514 18.2775 4.15514 18.5556V19.4689H4.51563V18.559C4.50842 18.503 4.51357 18.4461 4.53071 18.3922C4.54785 18.3384 4.57657 18.289 4.61485 18.2474C4.65313 18.2059 4.70005 18.1732 4.7523 18.1517C4.80456 18.1302 4.86088 18.1204 4.91732 18.123C5.16106 18.123 5.27779 18.2775 5.27779 18.5556V19.4689H5.63828ZM10.9735 17.8278H10.3899V17.33H10.0294V17.8278H9.69635V18.1539H10.0294V18.9024C10.0294 19.2834 10.177 19.5101 10.5993 19.5101C10.7571 19.5105 10.9117 19.4665 11.0456 19.383L10.9426 19.0775C10.8469 19.1346 10.7382 19.1665 10.6268 19.1702C10.4482 19.1702 10.3899 19.0603 10.3899 18.8955V18.1539H10.9735V17.8278ZM14.0188 17.7866C13.9317 17.784 13.8456 17.805 13.7695 17.8473C13.6933 17.8896 13.63 17.9516 13.5862 18.0269V17.8278H13.2326V19.4689H13.5896V18.5487C13.5896 18.2775 13.7064 18.1265 13.9398 18.1265C14.0162 18.1254 14.092 18.1394 14.163 18.1677L14.2729 17.8312C14.1913 17.802 14.1054 17.7869 14.0188 17.7866ZM9.41484 17.9582C9.21274 17.8381 8.98036 17.7785 8.74536 17.7866C8.32993 17.7866 8.06216 17.9857 8.06216 18.3118C8.06216 18.5797 8.26127 18.7445 8.62861 18.7959L8.79685 18.82C8.99253 18.8474 9.08524 18.8989 9.08524 18.9916C9.08524 19.1186 8.95476 19.1908 8.71102 19.1908C8.51495 19.1964 8.32268 19.1359 8.16513 19.0191L7.99691 19.2972C8.20489 19.4424 8.45401 19.5171 8.70759 19.5101C9.18137 19.5101 9.45601 19.2869 9.45601 18.9745C9.45601 18.6861 9.23974 18.535 8.88269 18.4835L8.71447 18.4595C8.55996 18.4389 8.43637 18.408 8.43637 18.2981C8.43637 18.178 8.55307 18.1059 8.74879 18.1059C8.92849 18.1086 9.10455 18.157 9.26034 18.2466L9.41484 17.9582ZM18.9798 17.7866C18.8927 17.784 18.8066 17.805 18.7305 17.8473C18.6543 17.8896 18.591 17.9516 18.5472 18.0269V17.8278H18.1936V19.4689H18.5506V18.5487C18.5506 18.2775 18.6674 18.1265 18.9008 18.1265C18.9772 18.1254 19.053 18.1394 19.124 18.1677L19.2339 17.8312C19.1523 17.802 19.0664 17.7869 18.9798 17.7866ZM14.3793 18.6483C14.3745 18.7639 14.394 18.8792 14.4365 18.9868C14.479 19.0945 14.5436 19.192 14.6261 19.2732C14.7085 19.3543 14.8071 19.4173 14.9153 19.4581C15.0236 19.4989 15.1392 19.5166 15.2548 19.5101C15.4691 19.5208 15.6798 19.451 15.8453 19.3143L15.6736 19.0259C15.5502 19.12 15.3997 19.1718 15.2445 19.1736C15.1106 19.1655 14.985 19.1066 14.8931 19.009C14.8012 18.9114 14.7501 18.7824 14.7501 18.6483C14.7501 18.5143 14.8012 18.3853 14.8931 18.2876C14.985 18.19 15.1106 18.1311 15.2445 18.123C15.3997 18.1248 15.5502 18.1766 15.6736 18.2707L15.8453 17.9823C15.6798 17.8456 15.4691 17.7758 15.2548 17.7866C15.1392 17.78 15.0236 17.7977 14.9154 17.8385C14.8071 17.8793 14.7085 17.9423 14.6261 18.0234C14.5436 18.1046 14.4791 18.2021 14.4366 18.3097C14.394 18.4174 14.3745 18.5327 14.3793 18.6483ZM17.7232 17.8278H17.3662V18.0269C17.3052 17.9484 17.2264 17.8856 17.1362 17.8437C17.046 17.8019 16.9471 17.7823 16.8478 17.7866C16.6265 17.7974 16.4179 17.8929 16.2652 18.0534C16.1124 18.2138 16.0272 18.4268 16.0272 18.6483C16.0272 18.8698 16.1124 19.0829 16.2652 19.2433C16.4179 19.4037 16.6265 19.4992 16.8478 19.5101C16.9471 19.5143 17.046 19.4947 17.1362 19.4529C17.2264 19.4111 17.3052 19.3483 17.3662 19.2697V19.4689H17.7232V17.8278ZM16.3946 18.6483C16.4001 18.5514 16.4339 18.4583 16.4917 18.3805C16.5495 18.3026 16.6289 18.2433 16.7199 18.21C16.811 18.1767 16.9099 18.1707 17.0043 18.1929C17.0988 18.2151 17.1846 18.2644 17.2513 18.3348C17.3181 18.4052 17.3627 18.4936 17.3798 18.5891C17.3969 18.6846 17.3857 18.783 17.3475 18.8722C17.3094 18.9613 17.2459 19.0374 17.1651 19.091C17.0842 19.1445 16.9894 19.1732 16.8924 19.1736C16.8244 19.1745 16.757 19.1613 16.6943 19.1349C16.6317 19.1085 16.5752 19.0693 16.5284 19.02C16.4817 18.9706 16.4456 18.9121 16.4226 18.8481C16.3995 18.7842 16.39 18.7161 16.3946 18.6483ZM12.0859 17.7866C11.8632 17.7983 11.6538 17.8958 11.5014 18.0586C11.3491 18.2214 11.2657 18.4369 11.2688 18.6599C11.272 18.8828 11.3613 19.0959 11.5181 19.2544C11.6749 19.4129 11.887 19.5046 12.1099 19.5101C12.3549 19.5187 12.5944 19.4368 12.7828 19.28L12.6077 19.0157C12.4722 19.1243 12.3042 19.1847 12.1305 19.1873C12.0125 19.1972 11.8953 19.1609 11.8037 19.0859C11.7121 19.0109 11.6532 18.9032 11.6396 18.7856H12.8584C12.8618 18.741 12.8652 18.6964 12.8652 18.6483C12.8618 18.1368 12.5459 17.7866 12.0859 17.7866ZM12.079 18.1059C12.1869 18.1038 12.2911 18.1445 12.369 18.2191C12.4469 18.2938 12.492 18.3963 12.4944 18.5041H11.643C11.6493 18.3939 11.6984 18.2906 11.7799 18.2162C11.8614 18.1417 11.9687 18.1021 12.079 18.1059ZM21.0363 17.1686H20.6792V18.0269C20.6183 17.9484 20.5394 17.8856 20.4492 17.8437C20.359 17.8019 20.2602 17.7823 20.1608 17.7866C19.9396 17.7974 19.731 17.8929 19.5782 18.0534C19.4255 18.2138 19.3403 18.4268 19.3403 18.6483C19.3403 18.8698 19.4255 19.0829 19.5782 19.2433C19.731 19.4037 19.9396 19.4992 20.1608 19.5101C20.2602 19.5143 20.359 19.4947 20.4492 19.4529C20.5394 19.4111 20.6183 19.3482 20.6792 19.2697V19.4689H21.0363V17.1686ZM21.6315 19.231C21.6537 19.2309 21.6756 19.2352 21.6961 19.2438C21.7157 19.252 21.7337 19.2639 21.7489 19.2788C21.764 19.2937 21.776 19.3113 21.7844 19.3308C21.793 19.3508 21.7974 19.3723 21.7974 19.394C21.7974 19.4158 21.793 19.4373 21.7844 19.4573C21.776 19.4767 21.7639 19.4943 21.7489 19.5091C21.7336 19.524 21.7157 19.5359 21.6961 19.5442C21.6757 19.553 21.6537 19.5574 21.6315 19.5573C21.5988 19.5576 21.5668 19.5483 21.5394 19.5305C21.512 19.5127 21.4904 19.4873 21.4774 19.4573C21.4688 19.4373 21.4644 19.4158 21.4644 19.394C21.4644 19.3723 21.4688 19.3508 21.4774 19.3308C21.4858 19.3113 21.4978 19.2937 21.5128 19.2788C21.528 19.2638 21.546 19.2519 21.5658 19.2438C21.5866 19.2352 21.6089 19.2309 21.6315 19.231ZM21.6315 19.5213C21.6484 19.5214 21.6652 19.518 21.6807 19.5113C21.6956 19.5048 21.7092 19.4956 21.7207 19.4841C21.7444 19.4602 21.7577 19.4278 21.7577 19.3941C21.7577 19.3604 21.7444 19.3281 21.7207 19.3042C21.7092 19.2927 21.6956 19.2836 21.6807 19.2772C21.6652 19.2706 21.6484 19.2673 21.6315 19.2674C21.6143 19.2673 21.5972 19.2706 21.5813 19.2772C21.5662 19.2835 21.5524 19.2926 21.5408 19.3042C21.5171 19.3281 21.5037 19.3604 21.5037 19.3941C21.5037 19.4278 21.5171 19.4602 21.5408 19.4841C21.5524 19.4957 21.5662 19.5049 21.5813 19.5113C21.5972 19.518 21.6143 19.5214 21.6315 19.5213ZM21.6411 19.3178C21.6572 19.3167 21.6731 19.3213 21.6861 19.3308C21.6913 19.3351 21.6954 19.3405 21.6981 19.3466C21.7009 19.3528 21.7022 19.3594 21.7019 19.3662C21.7021 19.3719 21.701 19.3776 21.6989 19.383C21.6967 19.3883 21.6934 19.3931 21.6893 19.3971C21.6793 19.4059 21.6668 19.4112 21.6535 19.4121L21.7031 19.4693H21.6643L21.6183 19.4125H21.6035V19.4693H21.5712V19.3178H21.6411ZM21.6035 19.3462V19.3866H21.6407C21.6479 19.3869 21.655 19.3852 21.6611 19.3815C21.6636 19.3799 21.6656 19.3776 21.667 19.3749C21.6683 19.3722 21.6689 19.3692 21.6687 19.3662C21.6689 19.3632 21.6682 19.3603 21.6669 19.3576C21.6656 19.355 21.6636 19.3528 21.6611 19.3511C21.6549 19.3475 21.6479 19.3458 21.6407 19.3462H21.6035ZM19.7077 18.6483C19.7132 18.5514 19.747 18.4584 19.8048 18.3805C19.8626 18.3026 19.942 18.2434 20.033 18.21C20.1241 18.1767 20.223 18.1708 20.3174 18.193C20.4118 18.2152 20.4977 18.2645 20.5644 18.3349C20.6311 18.4053 20.6758 18.4937 20.6929 18.5892C20.7099 18.6846 20.6987 18.783 20.6605 18.8722C20.6224 18.9614 20.559 19.0374 20.4781 19.091C20.3972 19.1445 20.3024 19.1732 20.2055 19.1736C20.1375 19.1745 20.07 19.1613 20.0074 19.1349C19.9448 19.1084 19.8883 19.0693 19.8415 19.02C19.7947 18.9706 19.7587 18.9121 19.7357 18.8481C19.7126 18.7842 19.7031 18.7161 19.7077 18.6483ZM7.65016 17.8278H7.29309V18.0269C7.23214 17.9484 7.15328 17.8856 7.06308 17.8437C6.97289 17.8019 6.87399 17.7823 6.77467 17.7866C6.55343 17.7974 6.34483 17.8929 6.19209 18.0534C6.03934 18.2138 5.95414 18.4268 5.95414 18.6483C5.95414 18.8698 6.03934 19.0829 6.19209 19.2433C6.34483 19.4037 6.55343 19.4992 6.77467 19.5101C6.874 19.5143 6.97289 19.4947 7.06308 19.4529C7.15328 19.4111 7.23215 19.3483 7.29309 19.2697V19.4689H7.65016V17.8278ZM6.32151 18.6483C6.32706 18.5514 6.36082 18.4584 6.41864 18.3805C6.47646 18.3026 6.55581 18.2434 6.6469 18.21C6.73799 18.1767 6.83685 18.1708 6.93127 18.193C7.02569 18.2152 7.11155 18.2645 7.17827 18.3349C7.24498 18.4053 7.28964 18.4937 7.30672 18.5892C7.32381 18.6846 7.31257 18.783 7.27441 18.8722C7.23624 18.9614 7.17281 19.0374 7.09194 19.091C7.01107 19.1445 6.9163 19.1732 6.81931 19.1736C6.75133 19.1745 6.68389 19.1613 6.62125 19.1349C6.55861 19.1084 6.50212 19.0693 6.45536 19.02C6.40859 18.9706 6.37255 18.9121 6.34951 18.8481C6.32648 18.7842 6.31694 18.7161 6.32151 18.6483Z" fill="#F2F4F7"/>
<path d="M14.7042 5.32109H9.29615V15.0395H14.7042V5.32109Z" fill="#FF5F00"/>
<path d="M9.63947 10.1807C9.63862 9.2447 9.85072 8.32082 10.2597 7.47894C10.6687 6.63707 11.2638 5.89928 12.0001 5.32143C11.0884 4.60475 9.99334 4.15906 8.84024 4.0353C7.68714 3.91154 6.52249 4.11469 5.47939 4.62155C4.4363 5.12841 3.55685 5.91851 2.94157 6.90156C2.32629 7.88461 2 9.02093 2 10.1807C2 11.3404 2.32629 12.4767 2.94157 13.4598C3.55685 14.4428 4.4363 15.2329 5.47939 15.7398C6.52249 16.2466 7.68714 16.4498 8.84024 16.326C9.99334 16.2023 11.0884 15.7566 12.0001 15.0399C11.2639 14.462 10.6687 13.7242 10.2597 12.8824C9.85072 12.0405 9.63863 11.1166 9.63947 10.1807Z" fill="#EB001B"/>
<path d="M22 10.1807C22 11.3404 21.6738 12.4767 21.0586 13.4597C20.4433 14.4428 19.5639 15.2329 18.5208 15.7397C17.4777 16.2466 16.3131 16.4498 15.16 16.326C14.0069 16.2023 12.9119 15.7566 12.0001 15.0399C12.7358 14.4614 13.3305 13.7235 13.7394 12.8818C14.1483 12.0401 14.3608 11.1165 14.3608 10.1807C14.3608 9.24484 14.1483 8.32125 13.7394 7.47951C13.3305 6.63778 12.7358 5.89986 12.0001 5.32143C12.9119 4.60475 14.0069 4.15906 15.16 4.0353C16.3131 3.91154 17.4777 4.1147 18.5208 4.62156C19.5639 5.12842 20.4433 5.91853 21.0586 6.90158C21.6738 7.88463 22 9.02095 22 10.1807Z" fill="#F79E1B"/>
<path d="M21.4104 14.0103V13.8114H21.4906V13.7708H21.2863V13.8114H21.3665V14.0103H21.4104ZM21.807 14.0103V13.7705H21.7444L21.6724 13.9355L21.6003 13.7705H21.5377V14.0103H21.5819V13.8294L21.6494 13.9854H21.6953L21.7628 13.829V14.0103H21.807Z" fill="#F79E1B"/>
</svg>
