<svg width="24" height="24" viewBox="0 0 24 24" fill="none" xmlns="http://www.w3.org/2000/svg">
<path d="M6.245 8.1813L3.09573 6.56629L12 2L14.9422 3.50882L6.245 8.1813Z" fill="#F2F4F7"/>
<path d="M5.5 10.0469V15.3333C5.5 15.8856 5.94772 16.3333 6.5 16.3333C7.05228 16.3333 7.5 15.8856 7.5 15.3333V11.0725L11 12.8674V13.3924C10.3652 14.446 10 15.6803 10 17C10 18.3197 10.3652 19.554 11 20.6076V22L2 17.3846V8.25203L5.5 10.0469Z" fill="#F2F4F7"/>
<path d="M18.3412 10.1283C19.7606 10.4038 21.027 11.1081 22 12.101V8.25203L18.3412 10.1283Z" fill="#F2F4F7"/>
<path d="M17.1043 4.6176L8.40712 9.29008L12 11.1326L20.9043 6.56629L17.1043 4.6176Z" fill="#F2F4F7"/>
<path fill-rule="evenodd" clip-rule="evenodd" d="M22 17C22 19.7614 19.7614 22 17 22C14.2386 22 12 19.7614 12 17C12 14.2386 14.2386 12 17 12C19.7614 12 22 14.2386 22 17ZM19.6823 14.7689C20.0861 15.1458 20.1079 15.7786 19.7311 16.1823L16.9311 19.1823C16.7419 19.385 16.4772 19.5 16.2 19.5C15.9228 19.5 15.6581 19.385 15.4689 19.1823L14.2689 17.8966C13.8921 17.4929 13.9139 16.8601 14.3177 16.4832C14.7214 16.1064 15.3542 16.1282 15.7311 16.532L16.2 17.0344L18.2689 14.8177C18.6458 14.4139 19.2786 14.3921 19.6823 14.7689Z" fill="#F2F4F7"/>
</svg>
