<svg width="24" height="24" viewBox="0 0 24 24" fill="none" xmlns="http://www.w3.org/2000/svg">
<path d="M20.1089 7.13394L20.0348 7.49531C19.0571 11.6947 15.7388 13.1402 11.4872 13.1402H9.32435C9.07401 13.1406 8.83205 13.2161 8.64197 13.3531C8.45189 13.4902 8.32616 13.6798 8.28738 13.8878L7.17633 19.7943L6.86524 21.4641C6.85224 21.5306 6.85673 21.5987 6.8784 21.6636C6.90006 21.7285 6.93836 21.7886 6.99062 21.8396C7.04287 21.8907 7.1078 21.9315 7.18084 21.9592C7.25388 21.9869 7.33325 22.0008 7.41336 21.9999H11.2502C11.4701 22.0024 11.6838 21.9383 11.8524 21.8194C12.0209 21.7004 12.1332 21.5346 12.1686 21.352V21.19L12.8797 17.3395V17.1277C12.9119 16.9428 13.0228 16.774 13.1916 16.6525C13.3605 16.5311 13.576 16.4653 13.7981 16.4672H14.3759C18.0942 16.4672 20.9977 15.2211 21.7828 11.4828C22.011 10.8525 22.0602 10.1859 21.9264 9.53659C21.7926 8.88733 21.4796 8.27352 21.0125 7.74453C20.7518 7.50191 20.4467 7.29579 20.1089 7.13394Z" fill="#0041CC"/>
<path d="M19.0867 6.79747L18.6274 6.69779L18.1386 6.62302C17.511 6.54352 16.877 6.50602 16.2424 6.51087H10.465C10.2454 6.51189 10.0335 6.57908 9.86767 6.70024C9.70188 6.8214 9.5932 6.98852 9.56133 7.1713L8.33177 13.7133V13.9003C8.37056 13.6922 8.49629 13.5026 8.68637 13.3656C8.87644 13.2285 9.1184 13.153 9.36874 13.1526H11.5316C15.7832 13.1526 19.1015 11.7071 20.0792 7.50775C20.0792 7.38314 20.0792 7.25853 20.1533 7.14638C19.8967 7.03212 19.6291 6.93625 19.3533 6.85978L19.0867 6.79747Z" fill="#002D8F"/>
<path d="M9.54651 7.15886C9.57839 6.97608 9.68707 6.80896 9.85286 6.6878C10.0186 6.56663 10.2305 6.49945 10.4502 6.49843H16.2276C16.8671 6.49291 17.5061 6.53041 18.1386 6.61057L18.6274 6.68534L19.0867 6.78503H19.3089C19.5845 6.86177 19.8521 6.95764 20.1088 7.07163C20.2962 6.45424 20.3038 5.80793 20.1311 5.18753C19.9583 4.56713 19.6102 3.99092 19.1163 3.50778C18.0201 2.46106 16.035 2 13.5018 2H6.09488C5.84453 2.00042 5.60257 2.07595 5.4125 2.21299C5.22242 2.35004 5.09669 2.53962 5.0579 2.74766L2.00624 19.1837C1.99361 19.2591 2.0002 19.3358 2.02557 19.4088C2.05093 19.4819 2.09449 19.5495 2.15335 19.6073C2.21221 19.665 2.28502 19.7116 2.36694 19.7438C2.44885 19.7761 2.53799 19.7933 2.62842 19.7943L7.17633 19.7943L9.54651 7.15886Z" fill="#004FFF"/>
</svg>
