<svg width="24" height="24" viewBox="0 0 24 24" fill="none" xmlns="http://www.w3.org/2000/svg">
<path d="M12 6C15 6 17 6.5 17 6.5C17 3 15 2 11.9999 2C8.99982 2 7 3 7 6.5C7 6.5 9 6 12 6Z" fill="#F2F4F7"/>
<path d="M17.8749 18.3395C21.0568 17.5598 22 15.9255 22 13.4365C22 9.81218 20 8 12 8C4 8 2 9.81218 2 13.4365C2 15.9255 2.9432 17.5598 6.12507 18.3395C6.04169 17.9278 6 17.4813 6 17C6 13.6667 8 12 12 12C16 12 18 13.6667 18 17C18 17.4813 17.9583 17.9278 17.8749 18.3395Z" fill="#F2F4F7"/>
<path d="M16 18C16 20.8 14.8 22 12 22C9.2 22 8 20.8 8 18C8 15.2 9.2 14 12 14C14.8 14 16 15.2 16 18Z" fill="#F2F4F7"/>
</svg>
