<svg width="24" height="24" viewBox="0 0 24 24" fill="none" xmlns="http://www.w3.org/2000/svg">
<path fill-rule="evenodd" clip-rule="evenodd" d="M20 11C20 15.9706 15.9706 20 11 20C6.02944 20 2 15.9706 2 11C2 6.02944 6.02944 2 11 2C15.9706 2 20 6.02944 20 11ZM13.9285 5C13.3762 5 12.9285 5.44772 12.9285 6C12.9285 6.55228 13.3762 7 13.9285 7C14.2453 7 14.7535 7.23863 15.2359 7.862C15.6985 8.45982 16 9.24898 16 10C16 10.5523 16.4477 11 17 11C17.5523 11 18 10.5523 18 10C18 8.75102 17.5157 7.54018 16.8176 6.638C16.1392 5.76137 15.1116 5 13.9285 5Z" fill="#F2F4F7"/>
<path d="M18.2929 18.2929C18.6834 17.9024 19.3166 17.9024 19.7071 18.2929L21.707 20.2929C22.0975 20.6834 22.0975 21.3166 21.707 21.7071C21.3164 22.0976 20.6833 22.0976 20.2928 21.7071L18.2929 19.7071C17.9024 19.3166 17.9024 18.6834 18.2929 18.2929Z" fill="#F2F4F7"/>
</svg>
