<svg width="24" height="24" viewBox="0 0 24 24" fill="none" xmlns="http://www.w3.org/2000/svg">
<path fill-rule="evenodd" clip-rule="evenodd" d="M13.1987 2.4218C12.492 1.8594 11.508 1.8594 10.8013 2.4218C10.5377 2.63157 10.2824 2.8359 10.034 3.03478C7.66745 4.92904 5.91835 6.32909 3.4667 7.23493C2.59962 7.55531 1.95884 8.37489 2.00206 9.32574C2.37908 17.6185 5.73571 19.9233 10.734 21.7731C11.5515 22.0756 12.4485 22.0756 13.266 21.7731C18.2643 19.9233 21.6209 17.6185 21.9979 9.32574C22.0412 8.37489 21.4004 7.55531 20.5333 7.23493C18.0817 6.32909 16.3326 4.92904 13.966 3.03478C13.7176 2.8359 13.4623 2.63157 13.1987 2.4218ZM15.7071 11.7071C16.0976 11.3166 16.0976 10.6834 15.7071 10.2929C15.3166 9.90237 14.6834 9.90237 14.2929 10.2929L11 13.5858L9.70711 12.2929C9.31658 11.9024 8.68342 11.9024 8.29289 12.2929C7.90237 12.6834 7.90237 13.3166 8.29289 13.7071L10.2929 15.7071C10.6834 16.0976 11.3166 16.0976 11.7071 15.7071L15.7071 11.7071Z" fill="#F2F4F7"/>
</svg>
