<svg width="24" height="24" viewBox="0 0 24 24" fill="none" xmlns="http://www.w3.org/2000/svg">
<path fill-rule="evenodd" clip-rule="evenodd" d="M2 15C2 21 7 22 12 22C17 22 22 21 22 15C22 9.28345 17.4613 8.10564 12.7081 8.00712C12.75 7.34036 12.75 6.61171 12.75 6C12.75 4.4 12.75 2 12 2C11.25 2 11.25 4.4 11.25 6C11.25 6.61171 11.25 7.34036 11.2919 8.00712C6.53875 8.10564 2 9.28344 2 15ZM11.2919 8.00712C11.3596 9.08433 11.5367 10 12 10C12.4633 10 12.6404 9.08433 12.7081 8.00712C12.4724 8.00223 12.2362 8 12 8C11.7638 8 11.5276 8.00223 11.2919 8.00712ZM9.14192 12.637C8.42742 14.0196 10.5709 18 12 18C13.4291 18 15.5726 14.0196 14.8581 12.637C14.1435 11.2543 9.85643 11.2543 9.14192 12.637Z" fill="#F2F4F7"/>
</svg>
