<svg width="24" height="24" viewBox="0 0 24 24" fill="none" xmlns="http://www.w3.org/2000/svg">
<path fill-rule="evenodd" clip-rule="evenodd" d="M14 10.5C14 13.9295 13.2502 15.7551 8.9452 15.977C8.98111 16.1457 9 16.3206 9 16.5C9 17.8807 7.88071 19 6.5 19C5.11929 19 4 17.8807 4 16.5C4 16.1155 4.08679 15.7513 4.24184 15.4259C2.39277 14.6241 2 12.9821 2 10.5C2 6.83333 2.85714 5 8 5C13.1429 5 14 6.83333 14 10.5ZM7.5 16.5C7.5 17.1 7 17.5 6.5 17.5C6 17.5 5.5 17.1 5.5 16.5C5.5 15.9 6 15.5519 6.5 15.5519C7 15.5519 7.5 15.9 7.5 16.5Z" fill="#F2F4F7"/>
<path fill-rule="evenodd" clip-rule="evenodd" d="M21.3579 9.65458C21.905 10.4874 22.062 11.5134 21.9801 12.5064C21.843 14.1699 21.4491 15.0533 20.7986 15.5152C20.9282 15.8174 21 16.1503 21 16.5C21 17.8807 19.8807 19 18.5 19C17.1193 19 16 17.8807 16 16.5C16 16.1644 16.0661 15.8443 16.186 15.5519C15.3953 15.0532 15 14.0324 15 12C15 8.5 15.655 8 18 8C18.9615 8 20.2711 8 21.3579 9.65458ZM20 10C20.3647 10.2831 20.6367 10.8021 20.5 11.5C20.2829 12.6083 19.9024 13 18.5175 13C16.7587 13 16.5 12.2847 16.5 11C16.5 9.71527 17 9.5 18 9.5C18.7948 9.5 19.4082 9.54054 20 10ZM18.5 17.5C19 17.5 19.5 17.1 19.5 16.5C19.5 15.8998 19 15.5 18.5 15.5C18 15.5 17.5 15.9 17.5 16.5C17.5 17.1 18 17.5 18.5 17.5Z" fill="#F2F4F7"/>
</svg>
