<svg width="512" height="330" viewBox="0 0 512 330" fill="none" xmlns="http://www.w3.org/2000/svg">
<path fill-rule="evenodd" clip-rule="evenodd" d="M486.742 0.0962326L360.658 0.0634766C360.643 0.0634766 360.626 0.0634766 360.626 0.0634766C360.528 0.0634766 360.433 0.0809611 360.338 0.0809611C343.016 0.61588 321.444 14.6201 317.515 31.8885L257.888 297.846C253.959 315.276 264.648 329.458 281.844 329.719H414.3C431.233 328.875 447.688 315.032 451.55 297.96L511.179 31.9999C515.17 14.393 504.224 0.0962326 486.742 0.0962326" fill="#01798A"/>
<path fill-rule="evenodd" clip-rule="evenodd" d="M257.888 297.846L317.515 31.8881C321.444 14.6197 343.016 0.615431 360.338 0.080514L310.207 0.047758L219.886 0.0302734C202.517 0.388352 180.663 14.4909 176.736 31.8881L117.092 297.846C113.148 315.275 123.853 329.458 141.037 329.719H281.843C264.648 329.458 253.959 315.275 257.888 297.846" fill="#024381"/>
<path fill-rule="evenodd" clip-rule="evenodd" d="M117.092 297.846L176.736 31.8884C180.663 14.4911 202.517 0.38865 219.887 0.0305709L104.181 0C86.7142 0 64.3202 14.2641 60.3285 31.8884L0.684473 297.846C0.321508 299.469 0.120141 301.06 0 302.616V307.55C1.16758 320.255 10.7934 329.508 24.63 329.719H141.037C123.853 329.458 113.148 315.275 117.092 297.846" fill="#DD0228"/>
<path fill-rule="evenodd" clip-rule="evenodd" d="M222.326 193.826H224.515C226.528 193.826 227.881 193.145 228.516 191.798L234.206 183.214H249.443L246.266 188.86H264.536L262.218 197.51H240.478C237.975 201.308 234.893 203.093 231.187 202.881H219.863L222.326 193.826ZM219.824 206.224H259.851L257.299 215.622H241.202L238.746 224.692H254.41L251.858 234.088H236.194L232.555 247.491C231.654 249.732 232.839 250.739 236.09 250.51H248.856L246.491 259.242H221.981C217.335 259.242 215.741 256.563 217.199 251.193L221.851 234.088H211.838L214.382 224.692H224.396L226.85 215.622H217.279L219.824 206.224ZM283.711 183.149L283.08 188.65C283.08 188.65 290.631 182.936 297.488 182.936H322.828L313.137 218.296C312.334 222.339 308.888 224.349 302.801 224.349H274.081L267.353 249.179C266.966 250.51 267.514 251.192 268.963 251.192H274.614L272.536 258.899H258.17C252.655 258.899 250.361 257.228 251.271 253.87L270.282 183.149H283.711ZM305.169 193.145H282.552L279.847 202.686C279.847 202.686 283.613 199.945 289.907 199.847C296.184 199.748 303.349 199.847 303.349 199.847L305.169 193.145ZM296.975 215.279C298.647 215.508 299.583 214.841 299.695 213.267L301.079 208.237H278.428L276.528 215.279H296.975ZM281.697 226.703H294.753L294.51 232.399H297.987C299.743 232.399 300.614 231.832 300.614 230.713L301.643 227.028H312.494L311.045 232.399C309.819 236.878 306.57 239.215 301.29 239.444H294.335L294.302 249.179C294.175 250.738 295.574 251.533 298.454 251.533H304.991L302.882 259.242H287.202C282.808 259.452 280.653 257.341 280.698 252.864L281.697 226.703Z" fill="white"/>
<path fill-rule="evenodd" clip-rule="evenodd" d="M123.483 136.037C121.712 144.785 117.607 151.503 111.239 156.274C104.929 160.964 96.7906 163.316 86.8266 163.316C77.4496 163.316 70.5751 160.914 66.1882 156.095C63.1456 152.67 61.6321 148.321 61.6321 143.063C61.6321 140.889 61.8903 138.553 62.4055 136.037L73.0219 84.4336H89.056L78.5841 135.453C78.2618 136.865 78.1332 138.18 78.15 139.365C78.1332 141.978 78.7769 144.119 80.0808 145.79C81.9803 148.274 85.0633 149.506 89.3536 149.506C94.2872 149.506 98.3525 148.29 101.508 145.839C104.663 143.405 106.724 139.949 107.649 135.453L118.154 84.4336H134.107L123.483 136.037" fill="white"/>
<path fill-rule="evenodd" clip-rule="evenodd" d="M190.821 115.737H203.378L193.542 161.792H181.009L190.821 115.737ZM194.774 98.958H207.443L205.077 110.137H192.408L194.774 98.958Z" fill="white"/>
<path fill-rule="evenodd" clip-rule="evenodd" d="M214.494 158.285C211.21 155.121 209.552 150.853 209.536 145.433C209.536 144.508 209.592 143.453 209.713 142.3C209.834 141.132 209.987 139.996 210.204 138.942C211.693 131.461 214.865 125.521 219.75 121.139C224.628 116.742 230.513 114.535 237.403 114.535C243.045 114.535 247.52 116.125 250.797 119.306C254.072 122.503 255.714 126.819 255.714 132.305C255.714 133.245 255.642 134.333 255.521 135.501C255.376 136.686 255.2 137.822 254.997 138.942C253.541 146.309 250.379 152.184 245.493 156.485C240.606 160.817 234.739 162.974 227.896 162.974C222.23 162.974 217.771 161.417 214.494 158.285ZM238.425 149.165C240.638 146.747 242.224 143.079 243.19 138.196C243.335 137.433 243.463 136.637 243.543 135.842C243.623 135.063 243.656 134.333 243.656 133.668C243.656 130.827 242.939 128.621 241.498 127.063C240.067 125.488 238.031 124.711 235.399 124.711C231.921 124.711 229.087 125.942 226.867 128.41C224.628 130.877 223.042 134.609 222.044 139.575C221.907 140.337 221.795 141.101 221.691 141.847C221.611 142.609 221.587 143.323 221.602 143.972C221.602 146.796 222.319 148.971 223.759 150.512C225.191 152.054 227.218 152.817 229.885 152.817C233.378 152.817 236.211 151.6 238.425 149.165Z" fill="white"/>
<path fill-rule="evenodd" clip-rule="evenodd" d="M337.188 194.214L340.216 183.471H355.525L354.864 187.414C354.864 187.414 362.688 183.471 368.321 183.471C373.957 183.471 387.252 183.471 387.252 183.471L384.243 194.214H381.265L366.985 244.878H369.963L367.13 254.939H364.152L362.913 259.304H348.087L349.324 254.939H320.075L322.925 244.878H325.856L340.149 194.214H337.188ZM353.705 194.214L349.809 207.926C349.809 207.926 356.476 205.347 362.222 204.617C363.491 199.829 365.15 194.214 365.15 194.214L353.705 194.214ZM348.005 214.353L344.095 228.714C344.095 228.714 351.483 225.047 356.554 224.738C358.018 219.188 359.484 214.353 359.484 214.353L348.005 214.353ZM350.87 244.877L353.801 234.459H342.373L339.428 244.877H350.87ZM387.897 182.807H402.29L402.901 188.16C402.805 189.523 403.609 190.174 405.316 190.174H407.859L405.285 199.244H394.707C390.667 199.455 388.59 197.898 388.397 194.538L387.897 182.807ZM383.68 202.263H430.3L427.564 212.001H412.721L410.176 221.054H425.004L422.251 230.775H405.736L402 236.473H410.083L411.95 247.88C412.173 249.016 413.172 249.568 414.878 249.568H417.389L414.751 258.962H405.864C401.259 259.191 398.879 257.633 398.684 254.274L396.541 243.856L389.186 254.939C387.447 258.071 384.774 259.532 381.17 259.304H367.598L370.238 249.907H374.473C376.212 249.907 377.659 249.129 378.963 247.555L390.475 230.775H375.631L378.382 221.054H394.482L397.042 212.001H380.927L383.68 202.263Z" fill="white"/>
<path fill-rule="evenodd" clip-rule="evenodd" d="M138.253 115.72H149.577L148.282 122.373L149.907 120.475C153.579 116.515 158.037 114.551 163.302 114.551C168.067 114.551 171.504 115.948 173.661 118.754C175.785 121.562 176.365 125.441 175.36 130.423L169.121 161.807H157.482L163.116 133.36C163.697 130.423 163.536 128.232 162.641 126.819C161.757 125.408 160.065 124.711 157.627 124.711C154.633 124.711 152.113 125.651 150.061 127.518C147.999 129.4 146.64 132.013 145.972 135.339L140.78 161.807H129.117L138.253 115.72" fill="white"/>
<path fill-rule="evenodd" clip-rule="evenodd" d="M268.125 115.72H279.459L278.172 122.373L279.78 120.475C283.453 116.515 287.928 114.551 293.176 114.551C297.941 114.551 301.385 115.948 303.525 118.754C305.637 121.562 306.247 125.441 305.216 130.423L299.002 161.807H287.347L292.983 133.36C293.561 130.423 293.401 128.232 292.515 126.819C291.597 125.408 289.938 124.711 287.51 124.711C284.514 124.711 282.004 125.651 279.927 127.518C277.865 129.4 276.498 132.013 275.855 135.339L270.639 161.807H258.991L268.125 115.72" fill="white"/>
<path fill-rule="evenodd" clip-rule="evenodd" d="M324.149 87.1587H357.054C363.381 87.1587 368.273 88.6041 371.637 91.4425C374.986 94.3158 376.662 98.4381 376.662 103.809V103.971C376.662 104.993 376.595 106.145 376.5 107.394C376.337 108.628 376.127 109.877 375.856 111.176C374.407 118.284 371.042 123.997 365.843 128.329C360.625 132.646 354.446 134.82 347.331 134.82H329.685L324.229 161.808H308.95L324.149 87.1587ZM332.373 121.839H347.008C350.822 121.839 353.848 120.945 356.055 119.177C358.245 117.392 359.694 114.666 360.497 110.966C360.625 110.283 360.705 109.667 360.803 109.099C360.853 108.564 360.915 108.027 360.915 107.51C360.915 104.864 359.984 102.949 358.115 101.748C356.248 100.53 353.32 99.9466 349.261 99.9466H336.832L332.373 121.839Z" fill="white"/>
<path fill-rule="evenodd" clip-rule="evenodd" d="M445.046 170.716C440.216 181.069 435.613 187.105 432.91 189.912C430.203 192.689 424.844 199.147 411.933 198.66L413.044 190.758C423.908 187.382 429.785 172.175 433.133 165.441L429.141 115.849L437.545 115.735H444.595L445.353 146.844L458.568 115.735H471.947L445.046 170.716" fill="white"/>
<path fill-rule="evenodd" clip-rule="evenodd" d="M407.636 119.485L402.32 123.17C396.767 118.788 391.696 116.078 381.911 120.654C368.579 126.885 357.44 174.677 394.144 158.935L396.236 161.434L410.677 161.808L420.159 118.381L407.636 119.485ZM399.424 143.226C397.105 150.124 391.924 154.683 387.867 153.385C383.81 152.12 382.361 145.465 384.711 138.553C387.029 131.639 392.244 127.096 396.269 128.394C400.325 129.66 401.79 136.313 399.424 143.226Z" fill="white"/>
</svg>
