<svg width="24" height="24" viewBox="0 0 24 24" fill="none" xmlns="http://www.w3.org/2000/svg">
<path fill-rule="evenodd" clip-rule="evenodd" d="M12 10C13.6569 10 15 8.65685 15 7C15 5.34315 13.6569 4 12 4C10.3431 4 9 5.34315 9 7C9 8.65685 10.3431 10 12 10ZM19.8984 18.3594C19.9682 18.2546 20 18.15 20 18C20 17.85 19.9682 17.7454 19.8984 17.6407C19.8202 17.5234 19.6183 17.2952 19.1056 17.0389C18.0235 16.4978 15.8979 16 12 16C8.10215 16 5.9765 16.4978 4.89443 17.0389C4.38169 17.2952 4.17979 17.5234 4.1016 17.6407C4.03176 17.7454 4 17.85 4 18C4 18.15 4.03176 18.2546 4.1016 18.3594C4.17979 18.4766 4.38169 18.7048 4.89443 18.9611C5.9765 19.5022 8.10215 20 12 20C15.8979 20 18.0235 19.5022 19.1056 18.9611C19.6183 18.7048 19.8202 18.4766 19.8984 18.3594ZM12 12C14.7614 12 17 9.76142 17 7C17 4.23858 14.7614 2 12 2C9.23858 2 7 4.23858 7 7C7 9.76142 9.23858 12 12 12ZM12 22C20 22 22 20 22 18C22 16 20 14 12 14C4 14 2 16 2 18C2 20 4 22 12 22Z" fill="#F2F4F7"/>
</svg>
