<svg width="24" height="24" viewBox="0 0 24 24" fill="none" xmlns="http://www.w3.org/2000/svg">
<path d="M8 7C7.44772 7 7 7.44772 7 8C7 8.55228 7.44772 9 8 9H12C12.5523 9 13 8.55228 13 8C13 7.44772 12.5523 7 12 7H8Z" fill="#F2F4F7"/>
<path fill-rule="evenodd" clip-rule="evenodd" d="M12 22C17.5936 22 21.4489 20.2618 21.9456 13.5443C21.9851 13.0468 22 12.602 22 12L22 11.9912C22 11.985 22 11.9789 22 11.9727L21.9999 11.9389C21.9982 11.2485 21.9664 10.6031 21.906 10L21.9077 9.99996C21.9666 10.5934 21.9977 11.2278 21.9999 11.9055C21.9979 11.1891 21.9731 10.6597 21.9077 9.99996L21.9043 9.98294C21.2638 3.65621 17.46 2 12 2C6 2 2 4 2 12C2 20 6 22 12 22ZM17.9484 18.4815C18.5885 17.9328 19.162 17.1123 19.5388 15.831C18.5212 15.674 17.7504 15.4161 17.0318 15.0536C16.4408 14.7555 15.9042 14.3388 15.5238 13.7586C15.1338 13.1638 15 12.5374 15 11.9824C15 11.4274 15.1338 10.801 15.5238 10.2062C15.9042 9.62602 16.4408 9.20926 17.0318 8.91114C17.7497 8.549 18.5197 8.30574 19.5359 8.15909C19.1591 6.88344 18.5869 6.06578 17.9484 5.51851C16.7524 4.49337 14.8568 4 12 4C9.14322 4 7.24758 4.49337 6.05158 5.51851C4.9221 6.48664 4 8.30098 4 12C4 15.699 4.9221 17.5134 6.05158 18.4815C7.24758 19.5066 9.14322 20 12 20C14.8568 20 16.7524 19.5066 17.9484 18.4815ZM20 12C20 11.3262 19.9694 10.7149 19.9125 10.1599C17.5561 10.4909 17 11.2367 17 11.9824C17 12.7285 17.5567 13.4746 19.916 13.8054C19.9707 13.2596 20 12.6598 20 12Z" fill="#F2F4F7"/>
</svg>
