<svg width="24" height="24" viewBox="0 0 24 24" fill="none" xmlns="http://www.w3.org/2000/svg">
<path fill-rule="evenodd" clip-rule="evenodd" d="M21.5722 15.9712C20.3911 20.694 16.8485 22 12 22C6 22 2 20 2 12C2 4 6 2 12 2C16.8485 2 20.3911 3.30602 21.5722 8.02884C19.7375 8.10795 18.3516 8.35197 17.3372 8.78671C16.6763 9.06992 16.0637 9.48001 15.6216 10.0829C15.1606 10.7115 15 11.3928 15 12C15 12.6072 15.1606 13.2885 15.6216 13.9171C16.0637 14.52 16.6763 14.9301 17.3372 15.2133C18.3516 15.648 19.7375 15.892 21.5722 15.9712ZM7 8C7 7.44772 7.44772 7 8 7H12C12.5523 7 13 7.44772 13 8C13 8.55228 12.5523 9 12 9H8C7.44772 9 7 8.55228 7 8Z" fill="#F2F4F7"/>
<path d="M21.9077 13.9824C17.8509 13.8449 17 12.9225 17 12C17 11.0775 17.8509 10.1551 21.9077 10.0176C21.9688 10.6334 22 11.2933 22 12C22 12.7067 21.9688 13.3666 21.9077 13.9824Z" fill="#F2F4F7"/>
</svg>
